<?xml version="1.0" encoding="UTF-8" standalone="no"?>
<!DOCTYPE svg PUBLIC "-//W3C//DTD SVG 1.1//EN"
 "http://www.w3.org/Graphics/SVG/1.1/DTD/svg11.dtd">
<!-- Generated by graphviz version 2.42.3 (0)
 -->
<!-- Title: perl6&#45;type&#45;graph Pages: 1 -->
<svg width="222pt" height="404pt"
 viewBox="0.00 0.00 221.69 404.00" xmlns="http://www.w3.org/2000/svg" xmlns:xlink="http://www.w3.org/1999/xlink">
<g id="graph0" class="graph" transform="scale(1 1) rotate(0) translate(4 400)">
<title>perl6&#45;type&#45;graph</title>
<polygon fill="white" stroke="transparent" points="-4,4 -4,-400 217.69,-400 217.69,4 -4,4"/>
<!-- X::IO::Rmdir -->
<g id="node1" class="node">
<title>X::IO::Rmdir</title>
<g id="a_node1"><a xlink:href="/type/X::IO::Rmdir" xlink:title="X::IO::Rmdir">
<ellipse fill="none" stroke="#000000" cx="66.29" cy="-18" rx="66.09" ry="18"/>
<text text-anchor="middle" x="66.29" y="-14.3" font-family="FreeSans" font-size="14.00" fill="#000000">X::IO::Rmdir</text>
</a>
</g>
</g>
<!-- Exception -->
<g id="node4" class="node">
<title>Exception</title>
<g id="a_node4"><a xlink:href="/type/Exception" xlink:title="Exception">
<ellipse fill="none" stroke="#000000" cx="89.29" cy="-234" rx="55.49" ry="18"/>
<text text-anchor="middle" x="89.29" y="-230.3" font-family="FreeSans" font-size="14.00" fill="#000000">Exception</text>
</a>
</g>
</g>
<!-- X::IO::Rmdir&#45;&gt;Exception -->
<g id="edge1" class="edge">
<title>X::IO::Rmdir&#45;&gt;Exception</title>
<path fill="none" stroke="#000000" d="M64.26,-36.15C64.7,-73.34 73.94,-161.63 81.77,-206.23"/>
<polygon fill="#000000" stroke="#000000" points="78.33,-206.88 83.62,-216.06 85.21,-205.59 78.33,-206.88"/>
</g>
<!-- X::IO::Rmdir&#45;&gt;Exception -->
<g id="edge2" class="edge">
<title>X::IO::Rmdir&#45;&gt;Exception</title>
<path fill="none" stroke="#000000" d="M72.01,-36.15C79.53,-73.17 89.22,-160.82 91.04,-205.61"/>
<polygon fill="#000000" stroke="#000000" points="87.55,-205.87 91.33,-215.77 94.55,-205.67 87.55,-205.87"/>
</g>
<!-- X::IO -->
<g id="node6" class="node">
<title>X::IO</title>
<g id="a_node6"><a xlink:href="/type/X::IO" xlink:title="X::IO">
<ellipse fill="none" stroke="#6666ff" cx="136.29" cy="-90" rx="33.29" ry="18"/>
<text text-anchor="middle" x="136.29" y="-86.3" font-family="FreeSans" font-size="14.00" fill="#6666ff">X::IO</text>
</a>
</g>
</g>
<!-- X::IO::Rmdir&#45;&gt;X::IO -->
<g id="edge7" class="edge">
<title>X::IO::Rmdir&#45;&gt;X::IO</title>
<path fill="none" stroke="#6666ff" d="M82.88,-35.59C92.03,-44.74 103.53,-56.24 113.51,-66.22"/>
<polygon fill="#6666ff" stroke="#6666ff" points="111.24,-68.89 120.78,-73.49 116.19,-63.94 111.24,-68.89"/>
</g>
<!-- Mu -->
<g id="node2" class="node">
<title>Mu</title>
<g id="a_node2"><a xlink:href="/type/Mu" xlink:title="Mu">
<ellipse fill="none" stroke="#000000" cx="89.29" cy="-378" rx="27" ry="18"/>
<text text-anchor="middle" x="89.29" y="-374.3" font-family="FreeSans" font-size="14.00" fill="#000000">Mu</text>
</a>
</g>
</g>
<!-- Any -->
<g id="node3" class="node">
<title>Any</title>
<g id="a_node3"><a xlink:href="/type/Any" xlink:title="Any">
<ellipse fill="none" stroke="#000000" cx="89.29" cy="-306" rx="28.7" ry="18"/>
<text text-anchor="middle" x="89.29" y="-302.3" font-family="FreeSans" font-size="14.00" fill="#000000">Any</text>
</a>
</g>
</g>
<!-- Any&#45;&gt;Mu -->
<g id="edge3" class="edge">
<title>Any&#45;&gt;Mu</title>
<path fill="none" stroke="#000000" d="M89.29,-324.3C89.29,-332.02 89.29,-341.29 89.29,-349.89"/>
<polygon fill="#000000" stroke="#000000" points="85.79,-349.9 89.29,-359.9 92.79,-349.9 85.79,-349.9"/>
</g>
<!-- Exception&#45;&gt;Any -->
<g id="edge4" class="edge">
<title>Exception&#45;&gt;Any</title>
<path fill="none" stroke="#000000" d="M89.29,-252.3C89.29,-260.02 89.29,-269.29 89.29,-277.89"/>
<polygon fill="#000000" stroke="#000000" points="85.79,-277.9 89.29,-287.9 92.79,-277.9 85.79,-277.9"/>
</g>
<!-- X::OS -->
<g id="node5" class="node">
<title>X::OS</title>
<g id="a_node5"><a xlink:href="/type/X::OS" xlink:title="X::OS">
<ellipse fill="none" stroke="#6666ff" cx="177.29" cy="-162" rx="36.29" ry="18"/>
<text text-anchor="middle" x="177.29" y="-158.3" font-family="FreeSans" font-size="14.00" fill="#6666ff">X::OS</text>
</a>
</g>
</g>
<!-- X::OS&#45;&gt;Exception -->
<g id="edge5" class="edge">
<title>X::OS&#45;&gt;Exception</title>
<path fill="none" stroke="#000000" d="M158.63,-177.85C146.68,-187.35 130.95,-199.86 117.49,-210.57"/>
<polygon fill="#000000" stroke="#000000" points="115.11,-207.99 109.46,-216.96 119.47,-213.47 115.11,-207.99"/>
</g>
<!-- X::IO&#45;&gt;Exception -->
<g id="edge6" class="edge">
<title>X::IO&#45;&gt;Exception</title>
<path fill="none" stroke="#000000" d="M130.72,-107.85C122.71,-132.06 107.85,-176.95 98.27,-205.87"/>
<polygon fill="#000000" stroke="#000000" points="94.83,-205.14 95.01,-215.73 101.47,-207.34 94.83,-205.14"/>
</g>
<!-- X::IO&#45;&gt;X::OS -->
<g id="edge8" class="edge">
<title>X::IO&#45;&gt;X::OS</title>
<path fill="none" stroke="#6666ff" d="M146.01,-107.59C150.91,-115.96 156.96,-126.29 162.43,-135.63"/>
<polygon fill="#6666ff" stroke="#6666ff" points="159.57,-137.67 167.65,-144.53 165.61,-134.13 159.57,-137.67"/>
</g>
</g>
</svg>
