<?xml version="1.0" encoding="UTF-8" standalone="no"?>
<!DOCTYPE svg PUBLIC "-//W3C//DTD SVG 1.1//EN"
 "http://www.w3.org/Graphics/SVG/1.1/DTD/svg11.dtd">
<!-- Generated by graphviz version 2.42.3 (0)
 -->
<!-- Title: perl6&#45;type&#45;graph Pages: 1 -->
<svg width="180pt" height="260pt"
 viewBox="0.00 0.00 180.34 260.00" xmlns="http://www.w3.org/2000/svg" xmlns:xlink="http://www.w3.org/1999/xlink">
<g id="graph0" class="graph" transform="scale(1 1) rotate(0) translate(4 256)">
<title>perl6&#45;type&#45;graph</title>
<polygon fill="white" stroke="transparent" points="-4,4 -4,-256 176.34,-256 176.34,4 -4,4"/>
<!-- Duration -->
<g id="node1" class="node">
<title>Duration</title>
<g id="a_node1"><a xlink:href="/type/Duration" xlink:title="Duration">
<ellipse fill="none" stroke="#000000" cx="75.6" cy="-18" rx="50.09" ry="18"/>
<text text-anchor="middle" x="75.6" y="-14.3" font-family="FreeSans" font-size="14.00" fill="#000000">Duration</text>
</a>
</g>
</g>
<!-- Cool -->
<g id="node4" class="node">
<title>Cool</title>
<g id="a_node4"><a xlink:href="/type/Cool" xlink:title="Cool">
<ellipse fill="none" stroke="#000000" cx="32.6" cy="-90" rx="30.59" ry="18"/>
<text text-anchor="middle" x="32.6" y="-86.3" font-family="FreeSans" font-size="14.00" fill="#000000">Cool</text>
</a>
</g>
</g>
<!-- Duration&#45;&gt;Cool -->
<g id="edge1" class="edge">
<title>Duration&#45;&gt;Cool</title>
<path fill="none" stroke="#000000" d="M65.19,-35.95C59.99,-44.41 53.6,-54.81 47.86,-64.16"/>
<polygon fill="#000000" stroke="#000000" points="44.87,-62.34 42.61,-72.69 50.83,-66 44.87,-62.34"/>
</g>
<!-- Real -->
<g id="node6" class="node">
<title>Real</title>
<g id="a_node6"><a xlink:href="/type/Real" xlink:title="Real">
<ellipse fill="none" stroke="#6666ff" cx="119.6" cy="-90" rx="30.59" ry="18"/>
<text text-anchor="middle" x="119.6" y="-86.3" font-family="FreeSans" font-size="14.00" fill="#6666ff">Real</text>
</a>
</g>
</g>
<!-- Duration&#45;&gt;Real -->
<g id="edge4" class="edge">
<title>Duration&#45;&gt;Real</title>
<path fill="none" stroke="#6666ff" d="M86.25,-35.95C91.57,-44.41 98.11,-54.81 103.98,-64.16"/>
<polygon fill="#6666ff" stroke="#6666ff" points="101.06,-66.09 109.35,-72.69 106.99,-62.36 101.06,-66.09"/>
</g>
<!-- Mu -->
<g id="node2" class="node">
<title>Mu</title>
<g id="a_node2"><a xlink:href="/type/Mu" xlink:title="Mu">
<ellipse fill="none" stroke="#000000" cx="28.6" cy="-234" rx="27" ry="18"/>
<text text-anchor="middle" x="28.6" y="-230.3" font-family="FreeSans" font-size="14.00" fill="#000000">Mu</text>
</a>
</g>
</g>
<!-- Any -->
<g id="node3" class="node">
<title>Any</title>
<g id="a_node3"><a xlink:href="/type/Any" xlink:title="Any">
<ellipse fill="none" stroke="#000000" cx="28.6" cy="-162" rx="28.7" ry="18"/>
<text text-anchor="middle" x="28.6" y="-158.3" font-family="FreeSans" font-size="14.00" fill="#000000">Any</text>
</a>
</g>
</g>
<!-- Any&#45;&gt;Mu -->
<g id="edge2" class="edge">
<title>Any&#45;&gt;Mu</title>
<path fill="none" stroke="#000000" d="M28.6,-180.3C28.6,-188.02 28.6,-197.29 28.6,-205.89"/>
<polygon fill="#000000" stroke="#000000" points="25.1,-205.9 28.6,-215.9 32.1,-205.9 25.1,-205.9"/>
</g>
<!-- Cool&#45;&gt;Any -->
<g id="edge3" class="edge">
<title>Cool&#45;&gt;Any</title>
<path fill="none" stroke="#000000" d="M31.61,-108.3C31.17,-116.02 30.64,-125.29 30.15,-133.89"/>
<polygon fill="#000000" stroke="#000000" points="26.65,-133.71 29.57,-143.9 33.64,-134.11 26.65,-133.71"/>
</g>
<!-- Numeric -->
<g id="node5" class="node">
<title>Numeric</title>
<g id="a_node5"><a xlink:href="/type/Numeric" xlink:title="Numeric">
<ellipse fill="none" stroke="#6666ff" cx="123.6" cy="-162" rx="48.99" ry="18"/>
<text text-anchor="middle" x="123.6" y="-158.3" font-family="FreeSans" font-size="14.00" fill="#6666ff">Numeric</text>
</a>
</g>
</g>
<!-- Real&#45;&gt;Numeric -->
<g id="edge5" class="edge">
<title>Real&#45;&gt;Numeric</title>
<path fill="none" stroke="#6666ff" d="M120.59,-108.3C121.03,-116.02 121.56,-125.29 122.05,-133.89"/>
<polygon fill="#6666ff" stroke="#6666ff" points="118.56,-134.11 122.62,-143.9 125.54,-133.71 118.56,-134.11"/>
</g>
</g>
</svg>
