<?xml version="1.0" encoding="UTF-8" standalone="no"?>
<!DOCTYPE svg PUBLIC "-//W3C//DTD SVG 1.1//EN"
 "http://www.w3.org/Graphics/SVG/1.1/DTD/svg11.dtd">
<!-- Generated by graphviz version 2.42.3 (0)
 -->
<!-- Title: perl6&#45;type&#45;graph Pages: 1 -->
<svg width="226pt" height="260pt"
 viewBox="0.00 0.00 226.38 260.00" xmlns="http://www.w3.org/2000/svg" xmlns:xlink="http://www.w3.org/1999/xlink">
<g id="graph0" class="graph" transform="scale(1 1) rotate(0) translate(4 256)">
<title>perl6&#45;type&#45;graph</title>
<polygon fill="white" stroke="transparent" points="-4,4 -4,-256 222.38,-256 222.38,4 -4,4"/>
<!-- X::Attribute::Required -->
<g id="node1" class="node">
<title>X::Attribute::Required</title>
<g id="a_node1"><a xlink:href="/type/X::Attribute::Required" xlink:title="X::Attribute::Required">
<ellipse fill="none" stroke="#000000" cx="109.19" cy="-18" rx="109.38" ry="18"/>
<text text-anchor="middle" x="109.19" y="-14.3" font-family="FreeSans" font-size="14.00" fill="#000000">X::Attribute::Required</text>
</a>
</g>
</g>
<!-- Exception -->
<g id="node4" class="node">
<title>Exception</title>
<g id="a_node4"><a xlink:href="/type/Exception" xlink:title="Exception">
<ellipse fill="none" stroke="#000000" cx="57.19" cy="-90" rx="55.49" ry="18"/>
<text text-anchor="middle" x="57.19" y="-86.3" font-family="FreeSans" font-size="14.00" fill="#000000">Exception</text>
</a>
</g>
</g>
<!-- X::Attribute::Required&#45;&gt;Exception -->
<g id="edge1" class="edge">
<title>X::Attribute::Required&#45;&gt;Exception</title>
<path fill="none" stroke="#000000" d="M96.6,-35.95C90.34,-44.37 82.66,-54.72 75.74,-64.03"/>
<polygon fill="#000000" stroke="#000000" points="72.82,-62.1 69.66,-72.21 78.44,-66.27 72.82,-62.1"/>
</g>
<!-- MOP -->
<g id="node5" class="node">
<title>MOP</title>
<g id="a_node5"><a xlink:href="/type/MOP" xlink:title="MOP">
<ellipse fill="none" stroke="#000000" cx="161.19" cy="-90" rx="31.4" ry="18"/>
<text text-anchor="middle" x="161.19" y="-86.3" font-family="FreeSans" font-size="14.00" fill="#000000">MOP</text>
</a>
</g>
</g>
<!-- X::Attribute::Required&#45;&gt;MOP -->
<g id="edge5" class="edge">
<title>X::Attribute::Required&#45;&gt;MOP</title>
<path fill="none" stroke="#6666ff" d="M121.78,-35.95C128.22,-44.62 136.18,-55.33 143.25,-64.85"/>
<polygon fill="#6666ff" stroke="#6666ff" points="140.66,-67.23 149.43,-73.17 146.28,-63.06 140.66,-67.23"/>
</g>
<!-- Mu -->
<g id="node2" class="node">
<title>Mu</title>
<g id="a_node2"><a xlink:href="/type/Mu" xlink:title="Mu">
<ellipse fill="none" stroke="#000000" cx="109.19" cy="-234" rx="27" ry="18"/>
<text text-anchor="middle" x="109.19" y="-230.3" font-family="FreeSans" font-size="14.00" fill="#000000">Mu</text>
</a>
</g>
</g>
<!-- Any -->
<g id="node3" class="node">
<title>Any</title>
<g id="a_node3"><a xlink:href="/type/Any" xlink:title="Any">
<ellipse fill="none" stroke="#000000" cx="109.19" cy="-162" rx="28.7" ry="18"/>
<text text-anchor="middle" x="109.19" y="-158.3" font-family="FreeSans" font-size="14.00" fill="#000000">Any</text>
</a>
</g>
</g>
<!-- Any&#45;&gt;Mu -->
<g id="edge2" class="edge">
<title>Any&#45;&gt;Mu</title>
<path fill="none" stroke="#000000" d="M109.19,-180.3C109.19,-188.02 109.19,-197.29 109.19,-205.89"/>
<polygon fill="#000000" stroke="#000000" points="105.69,-205.9 109.19,-215.9 112.69,-205.9 105.69,-205.9"/>
</g>
<!-- Exception&#45;&gt;Any -->
<g id="edge3" class="edge">
<title>Exception&#45;&gt;Any</title>
<path fill="none" stroke="#000000" d="M69.51,-107.59C76.11,-116.47 84.35,-127.56 91.61,-137.33"/>
<polygon fill="#000000" stroke="#000000" points="88.9,-139.55 97.67,-145.49 94.51,-135.37 88.9,-139.55"/>
</g>
<!-- MOP&#45;&gt;Any -->
<g id="edge4" class="edge">
<title>MOP&#45;&gt;Any</title>
<path fill="none" stroke="#000000" d="M149.39,-106.88C142.81,-115.74 134.48,-126.96 127.1,-136.88"/>
<polygon fill="#000000" stroke="#000000" points="124.1,-135.06 120.94,-145.18 129.72,-139.24 124.1,-135.06"/>
</g>
</g>
</svg>
