<?xml version="1.0" encoding="UTF-8" standalone="no"?>
<!DOCTYPE svg PUBLIC "-//W3C//DTD SVG 1.1//EN"
 "http://www.w3.org/Graphics/SVG/1.1/DTD/svg11.dtd">
<!-- Generated by graphviz version 2.42.3 (0)
 -->
<!-- Title: perl6&#45;type&#45;graph Pages: 1 -->
<svg width="497pt" height="404pt"
 viewBox="0.00 0.00 497.14 404.00" xmlns="http://www.w3.org/2000/svg" xmlns:xlink="http://www.w3.org/1999/xlink">
<g id="graph0" class="graph" transform="scale(1 1) rotate(0) translate(4 400)">
<title>perl6&#45;type&#45;graph</title>
<polygon fill="white" stroke="transparent" points="-4,4 -4,-400 493.14,-400 493.14,4 -4,4"/>
<!-- Str -->
<g id="node1" class="node">
<title>Str</title>
<g id="a_node1"><a xlink:href="/type/Str" xlink:title="Str">
<ellipse fill="none" stroke="#000000" cx="332.45" cy="-162" rx="27" ry="18"/>
<text text-anchor="middle" x="332.45" y="-158.3" font-family="FreeSans" font-size="14.00" fill="#000000">Str</text>
</a>
</g>
</g>
<!-- Cool -->
<g id="node4" class="node">
<title>Cool</title>
<g id="a_node4"><a xlink:href="/type/Cool" xlink:title="Cool">
<ellipse fill="none" stroke="#000000" cx="246.45" cy="-234" rx="30.59" ry="18"/>
<text text-anchor="middle" x="246.45" y="-230.3" font-family="FreeSans" font-size="14.00" fill="#000000">Cool</text>
</a>
</g>
</g>
<!-- Str&#45;&gt;Cool -->
<g id="edge1" class="edge">
<title>Str&#45;&gt;Cool</title>
<path fill="none" stroke="#000000" d="M315.86,-176.5C303.3,-186.73 285.81,-200.96 271.54,-212.58"/>
<polygon fill="#000000" stroke="#000000" points="269.11,-210.04 263.57,-219.07 273.53,-215.47 269.11,-210.04"/>
</g>
<!-- Stringy -->
<g id="node5" class="node">
<title>Stringy</title>
<g id="a_node5"><a xlink:href="/type/Stringy" xlink:title="Stringy">
<ellipse fill="none" stroke="#6666ff" cx="338.45" cy="-234" rx="43.59" ry="18"/>
<text text-anchor="middle" x="338.45" y="-230.3" font-family="FreeSans" font-size="14.00" fill="#6666ff">Stringy</text>
</a>
</g>
</g>
<!-- Str&#45;&gt;Stringy -->
<g id="edge16" class="edge">
<title>Str&#45;&gt;Stringy</title>
<path fill="none" stroke="#6666ff" d="M333.93,-180.3C334.59,-188.02 335.38,-197.29 336.12,-205.89"/>
<polygon fill="#6666ff" stroke="#6666ff" points="332.64,-206.23 336.98,-215.9 339.61,-205.63 332.64,-206.23"/>
</g>
<!-- Mu -->
<g id="node2" class="node">
<title>Mu</title>
<g id="a_node2"><a xlink:href="/type/Mu" xlink:title="Mu">
<ellipse fill="none" stroke="#000000" cx="246.45" cy="-378" rx="27" ry="18"/>
<text text-anchor="middle" x="246.45" y="-374.3" font-family="FreeSans" font-size="14.00" fill="#000000">Mu</text>
</a>
</g>
</g>
<!-- Any -->
<g id="node3" class="node">
<title>Any</title>
<g id="a_node3"><a xlink:href="/type/Any" xlink:title="Any">
<ellipse fill="none" stroke="#000000" cx="246.45" cy="-306" rx="28.7" ry="18"/>
<text text-anchor="middle" x="246.45" y="-302.3" font-family="FreeSans" font-size="14.00" fill="#000000">Any</text>
</a>
</g>
</g>
<!-- Any&#45;&gt;Mu -->
<g id="edge2" class="edge">
<title>Any&#45;&gt;Mu</title>
<path fill="none" stroke="#000000" d="M246.45,-324.3C246.45,-332.02 246.45,-341.29 246.45,-349.89"/>
<polygon fill="#000000" stroke="#000000" points="242.95,-349.9 246.45,-359.9 249.95,-349.9 242.95,-349.9"/>
</g>
<!-- Cool&#45;&gt;Any -->
<g id="edge3" class="edge">
<title>Cool&#45;&gt;Any</title>
<path fill="none" stroke="#000000" d="M246.45,-252.3C246.45,-260.02 246.45,-269.29 246.45,-277.89"/>
<polygon fill="#000000" stroke="#000000" points="242.95,-277.9 246.45,-287.9 249.95,-277.9 242.95,-277.9"/>
</g>
<!-- Numeric -->
<g id="node6" class="node">
<title>Numeric</title>
<g id="a_node6"><a xlink:href="/type/Numeric" xlink:title="Numeric">
<ellipse fill="none" stroke="#6666ff" cx="381.45" cy="-306" rx="48.99" ry="18"/>
<text text-anchor="middle" x="381.45" y="-302.3" font-family="FreeSans" font-size="14.00" fill="#6666ff">Numeric</text>
</a>
</g>
</g>
<!-- Real -->
<g id="node7" class="node">
<title>Real</title>
<g id="a_node7"><a xlink:href="/type/Real" xlink:title="Real">
<ellipse fill="none" stroke="#6666ff" cx="159.45" cy="-234" rx="30.59" ry="18"/>
<text text-anchor="middle" x="159.45" y="-230.3" font-family="FreeSans" font-size="14.00" fill="#6666ff">Real</text>
</a>
</g>
</g>
<!-- Real&#45;&gt;Numeric -->
<g id="edge17" class="edge">
<title>Real&#45;&gt;Numeric</title>
<path fill="none" stroke="#6666ff" d="M184.87,-244.2C195.95,-248.2 206.45,-252 206.45,-252 206.45,-252 283.23,-275.25 335.07,-290.96"/>
<polygon fill="#6666ff" stroke="#6666ff" points="334.17,-294.34 344.76,-293.89 336.2,-287.64 334.17,-294.34"/>
</g>
<!-- Num -->
<g id="node8" class="node">
<title>Num</title>
<g id="a_node8"><a xlink:href="/type/Num" xlink:title="Num">
<ellipse fill="none" stroke="#000000" cx="145.45" cy="-162" rx="32.49" ry="18"/>
<text text-anchor="middle" x="145.45" y="-158.3" font-family="FreeSans" font-size="14.00" fill="#000000">Num</text>
</a>
</g>
</g>
<!-- Num&#45;&gt;Cool -->
<g id="edge4" class="edge">
<title>Num&#45;&gt;Cool</title>
<path fill="none" stroke="#000000" d="M164.92,-176.5C180.25,-187.12 201.8,-202.06 218.9,-213.91"/>
<polygon fill="#000000" stroke="#000000" points="217.16,-216.96 227.37,-219.78 221.15,-211.21 217.16,-216.96"/>
</g>
<!-- Num&#45;&gt;Real -->
<g id="edge18" class="edge">
<title>Num&#45;&gt;Real</title>
<path fill="none" stroke="#6666ff" d="M148.83,-179.95C150.38,-187.65 152.24,-196.97 153.97,-205.64"/>
<polygon fill="#6666ff" stroke="#6666ff" points="150.6,-206.61 155.99,-215.72 157.46,-205.23 150.6,-206.61"/>
</g>
<!-- NumStr -->
<g id="node9" class="node">
<title>NumStr</title>
<g id="a_node9"><a xlink:href="/type/NumStr" xlink:title="NumStr">
<ellipse fill="none" stroke="#000000" cx="168.45" cy="-90" rx="45.49" ry="18"/>
<text text-anchor="middle" x="168.45" y="-86.3" font-family="FreeSans" font-size="14.00" fill="#000000">NumStr</text>
</a>
</g>
</g>
<!-- NumStr&#45;&gt;Str -->
<g id="edge6" class="edge">
<title>NumStr&#45;&gt;Str</title>
<path fill="none" stroke="#000000" d="M198.78,-103.56C236.63,-119.23 296.45,-144 296.45,-144 296.45,-144 298.63,-145.03 301.91,-146.58"/>
<polygon fill="#000000" stroke="#000000" points="300.55,-149.81 311.09,-150.91 303.54,-143.48 300.55,-149.81"/>
</g>
<!-- NumStr&#45;&gt;Num -->
<g id="edge5" class="edge">
<title>NumStr&#45;&gt;Num</title>
<path fill="none" stroke="#000000" d="M162.88,-107.95C160.25,-115.94 157.05,-125.67 154.12,-134.6"/>
<polygon fill="#000000" stroke="#000000" points="150.76,-133.62 150.96,-144.21 157.41,-135.8 150.76,-133.62"/>
</g>
<!-- Complex -->
<g id="node10" class="node">
<title>Complex</title>
<g id="a_node10"><a xlink:href="/type/Complex" xlink:title="Complex">
<ellipse fill="none" stroke="#000000" cx="427.45" cy="-162" rx="50.09" ry="18"/>
<text text-anchor="middle" x="427.45" y="-158.3" font-family="FreeSans" font-size="14.00" fill="#000000">Complex</text>
</a>
</g>
</g>
<!-- Complex&#45;&gt;Cool -->
<g id="edge7" class="edge">
<title>Complex&#45;&gt;Cool</title>
<path fill="none" stroke="#000000" d="M393.79,-175.56C351.8,-191.23 285.45,-216 285.45,-216 285.45,-216 283.25,-216.96 279.9,-218.42"/>
<polygon fill="#000000" stroke="#000000" points="278.25,-215.32 270.48,-222.52 281.04,-221.74 278.25,-215.32"/>
</g>
<!-- Complex&#45;&gt;Numeric -->
<g id="edge19" class="edge">
<title>Complex&#45;&gt;Numeric</title>
<path fill="none" stroke="#6666ff" d="M421.9,-180.13C414.02,-204.44 399.53,-249.18 390.2,-277.99"/>
<polygon fill="#6666ff" stroke="#6666ff" points="386.77,-277.22 387.01,-287.81 393.43,-279.38 386.77,-277.22"/>
</g>
<!-- ComplexStr -->
<g id="node11" class="node">
<title>ComplexStr</title>
<g id="a_node11"><a xlink:href="/type/ComplexStr" xlink:title="ComplexStr">
<ellipse fill="none" stroke="#000000" cx="425.45" cy="-90" rx="63.89" ry="18"/>
<text text-anchor="middle" x="425.45" y="-86.3" font-family="FreeSans" font-size="14.00" fill="#000000">ComplexStr</text>
</a>
</g>
</g>
<!-- ComplexStr&#45;&gt;Str -->
<g id="edge9" class="edge">
<title>ComplexStr&#45;&gt;Str</title>
<path fill="none" stroke="#000000" d="M403.88,-107.24C390.15,-117.57 372.31,-130.99 357.89,-141.85"/>
<polygon fill="#000000" stroke="#000000" points="355.74,-139.08 349.86,-147.9 359.95,-144.68 355.74,-139.08"/>
</g>
<!-- ComplexStr&#45;&gt;Complex -->
<g id="edge8" class="edge">
<title>ComplexStr&#45;&gt;Complex</title>
<path fill="none" stroke="#000000" d="M425.94,-108.3C426.16,-116.02 426.43,-125.29 426.67,-133.89"/>
<polygon fill="#000000" stroke="#000000" points="423.17,-134 426.96,-143.9 430.17,-133.8 423.17,-134"/>
</g>
<!-- Rational -->
<g id="node12" class="node">
<title>Rational</title>
<g id="a_node12"><a xlink:href="/type/Rational" xlink:title="Rational">
<ellipse fill="none" stroke="#6666ff" cx="47.45" cy="-162" rx="47.39" ry="18"/>
<text text-anchor="middle" x="47.45" y="-158.3" font-family="FreeSans" font-size="14.00" fill="#6666ff">Rational</text>
</a>
</g>
</g>
<!-- Rational&#45;&gt;Real -->
<g id="edge20" class="edge">
<title>Rational&#45;&gt;Real</title>
<path fill="none" stroke="#6666ff" d="M70.92,-177.67C88.23,-188.49 111.89,-203.28 130.39,-214.84"/>
<polygon fill="#6666ff" stroke="#6666ff" points="128.67,-217.89 139.01,-220.23 132.38,-211.96 128.67,-217.89"/>
</g>
<!-- Rat -->
<g id="node13" class="node">
<title>Rat</title>
<g id="a_node13"><a xlink:href="/type/Rat" xlink:title="Rat">
<ellipse fill="none" stroke="#000000" cx="78.45" cy="-90" rx="27" ry="18"/>
<text text-anchor="middle" x="78.45" y="-86.3" font-family="FreeSans" font-size="14.00" fill="#000000">Rat</text>
</a>
</g>
</g>
<!-- Rat&#45;&gt;Cool -->
<g id="edge10" class="edge">
<title>Rat&#45;&gt;Cool</title>
<path fill="none" stroke="#000000" d="M99.53,-101.34C130.96,-116.77 186.45,-144 186.45,-144 186.45,-144 212.29,-182.33 230.05,-208.68"/>
<polygon fill="#000000" stroke="#000000" points="227.23,-210.75 235.72,-217.09 233.03,-206.84 227.23,-210.75"/>
</g>
<!-- Rat&#45;&gt;Rational -->
<g id="edge21" class="edge">
<title>Rat&#45;&gt;Rational</title>
<path fill="none" stroke="#6666ff" d="M71.1,-107.59C67.52,-115.66 63.14,-125.57 59.12,-134.65"/>
<polygon fill="#6666ff" stroke="#6666ff" points="55.8,-133.48 54.95,-144.04 62.2,-136.32 55.8,-133.48"/>
</g>
<!-- RatStr -->
<g id="node14" class="node">
<title>RatStr</title>
<g id="a_node14"><a xlink:href="/type/RatStr" xlink:title="RatStr">
<ellipse fill="none" stroke="#000000" cx="205.45" cy="-18" rx="38.99" ry="18"/>
<text text-anchor="middle" x="205.45" y="-14.3" font-family="FreeSans" font-size="14.00" fill="#000000">RatStr</text>
</a>
</g>
</g>
<!-- RatStr&#45;&gt;Str -->
<g id="edge12" class="edge">
<title>RatStr&#45;&gt;Str</title>
<path fill="none" stroke="#000000" d="M231.31,-31.69C263.27,-47.37 313.45,-72 313.45,-72 313.45,-72 321.1,-107.83 326.69,-134.03"/>
<polygon fill="#000000" stroke="#000000" points="323.27,-134.79 328.78,-143.84 330.12,-133.33 323.27,-134.79"/>
</g>
<!-- RatStr&#45;&gt;Rat -->
<g id="edge11" class="edge">
<title>RatStr&#45;&gt;Rat</title>
<path fill="none" stroke="#000000" d="M181.26,-32.33C160.35,-43.85 130.07,-60.54 107.78,-72.83"/>
<polygon fill="#000000" stroke="#000000" points="105.84,-69.9 98.77,-77.8 109.22,-76.03 105.84,-69.9"/>
</g>
<!-- Int -->
<g id="node15" class="node">
<title>Int</title>
<g id="a_node15"><a xlink:href="/type/Int" xlink:title="Int">
<ellipse fill="none" stroke="#000000" cx="260.45" cy="-162" rx="27" ry="18"/>
<text text-anchor="middle" x="260.45" y="-158.3" font-family="FreeSans" font-size="14.00" fill="#000000">Int</text>
</a>
</g>
</g>
<!-- Int&#45;&gt;Cool -->
<g id="edge13" class="edge">
<title>Int&#45;&gt;Cool</title>
<path fill="none" stroke="#000000" d="M257.06,-179.95C255.51,-187.65 253.65,-196.97 251.92,-205.64"/>
<polygon fill="#000000" stroke="#000000" points="248.43,-205.23 249.9,-215.72 255.29,-206.61 248.43,-205.23"/>
</g>
<!-- Int&#45;&gt;Real -->
<g id="edge22" class="edge">
<title>Int&#45;&gt;Real</title>
<path fill="none" stroke="#6666ff" d="M242.39,-175.51C226.98,-186.19 204.58,-201.72 186.95,-213.94"/>
<polygon fill="#6666ff" stroke="#6666ff" points="184.95,-211.07 178.72,-219.64 188.93,-216.82 184.95,-211.07"/>
</g>
<!-- IntStr -->
<g id="node16" class="node">
<title>IntStr</title>
<g id="a_node16"><a xlink:href="/type/IntStr" xlink:title="IntStr">
<ellipse fill="none" stroke="#000000" cx="268.45" cy="-90" rx="36.29" ry="18"/>
<text text-anchor="middle" x="268.45" y="-86.3" font-family="FreeSans" font-size="14.00" fill="#000000">IntStr</text>
</a>
</g>
</g>
<!-- IntStr&#45;&gt;Str -->
<g id="edge15" class="edge">
<title>IntStr&#45;&gt;Str</title>
<path fill="none" stroke="#000000" d="M282.97,-106.88C291.55,-116.27 302.55,-128.3 312,-138.64"/>
<polygon fill="#000000" stroke="#000000" points="309.53,-141.12 318.86,-146.14 314.69,-136.39 309.53,-141.12"/>
</g>
<!-- IntStr&#45;&gt;Int -->
<g id="edge14" class="edge">
<title>IntStr&#45;&gt;Int</title>
<path fill="none" stroke="#000000" d="M266.47,-108.3C265.59,-116.02 264.53,-125.29 263.54,-133.89"/>
<polygon fill="#000000" stroke="#000000" points="260.06,-133.56 262.4,-143.9 267.01,-134.36 260.06,-133.56"/>
</g>
</g>
</svg>
