<?xml version="1.0" encoding="UTF-8" standalone="no"?>
<!DOCTYPE svg PUBLIC "-//W3C//DTD SVG 1.1//EN"
 "http://www.w3.org/Graphics/SVG/1.1/DTD/svg11.dtd">
<!-- Generated by graphviz version 2.42.3 (0)
 -->
<!-- Title: perl6&#45;type&#45;graph Pages: 1 -->
<svg width="261pt" height="404pt"
 viewBox="0.00 0.00 261.48 404.00" xmlns="http://www.w3.org/2000/svg" xmlns:xlink="http://www.w3.org/1999/xlink">
<g id="graph0" class="graph" transform="scale(1 1) rotate(0) translate(4 400)">
<title>perl6&#45;type&#45;graph</title>
<polygon fill="white" stroke="transparent" points="-4,4 -4,-400 257.48,-400 257.48,4 -4,4"/>
<!-- X::Syntax::Regex::Adverb -->
<g id="node1" class="node">
<title>X::Syntax::Regex::Adverb</title>
<g id="a_node1"><a xlink:href="/type/X::Syntax::Regex::Adverb" xlink:title="X::Syntax::Regex::Adverb">
<ellipse fill="none" stroke="#000000" cx="126.74" cy="-18" rx="126.98" ry="18"/>
<text text-anchor="middle" x="126.74" y="-14.3" font-family="FreeSans" font-size="14.00" fill="#000000">X::Syntax::Regex::Adverb</text>
</a>
</g>
</g>
<!-- Exception -->
<g id="node4" class="node">
<title>Exception</title>
<g id="a_node4"><a xlink:href="/type/Exception" xlink:title="Exception">
<ellipse fill="none" stroke="#000000" cx="123.74" cy="-234" rx="55.49" ry="18"/>
<text text-anchor="middle" x="123.74" y="-230.3" font-family="FreeSans" font-size="14.00" fill="#000000">Exception</text>
</a>
</g>
</g>
<!-- X::Syntax::Regex::Adverb&#45;&gt;Exception -->
<g id="edge1" class="edge">
<title>X::Syntax::Regex::Adverb&#45;&gt;Exception</title>
<path fill="none" stroke="#000000" d="M119.66,-36.06C113.23,-51.55 104.74,-72 104.74,-72 104.74,-72 104.74,-108 104.74,-108 104.74,-108 114.01,-169.01 119.6,-205.78"/>
<polygon fill="#000000" stroke="#000000" points="116.17,-206.52 121.14,-215.88 123.09,-205.47 116.17,-206.52"/>
</g>
<!-- X::Syntax -->
<g id="node6" class="node">
<title>X::Syntax</title>
<g id="a_node6"><a xlink:href="/type/X::Syntax" xlink:title="X::Syntax">
<ellipse fill="none" stroke="#6666ff" cx="167.74" cy="-90" rx="53.89" ry="18"/>
<text text-anchor="middle" x="167.74" y="-86.3" font-family="FreeSans" font-size="14.00" fill="#6666ff">X::Syntax</text>
</a>
</g>
</g>
<!-- X::Syntax::Regex::Adverb&#45;&gt;X::Syntax -->
<g id="edge6" class="edge">
<title>X::Syntax::Regex::Adverb&#45;&gt;X::Syntax</title>
<path fill="none" stroke="#6666ff" d="M136.66,-35.95C141.5,-44.2 147.41,-54.3 152.78,-63.46"/>
<polygon fill="#6666ff" stroke="#6666ff" points="149.83,-65.35 157.91,-72.21 155.87,-61.81 149.83,-65.35"/>
</g>
<!-- Mu -->
<g id="node2" class="node">
<title>Mu</title>
<g id="a_node2"><a xlink:href="/type/Mu" xlink:title="Mu">
<ellipse fill="none" stroke="#000000" cx="123.74" cy="-378" rx="27" ry="18"/>
<text text-anchor="middle" x="123.74" y="-374.3" font-family="FreeSans" font-size="14.00" fill="#000000">Mu</text>
</a>
</g>
</g>
<!-- Any -->
<g id="node3" class="node">
<title>Any</title>
<g id="a_node3"><a xlink:href="/type/Any" xlink:title="Any">
<ellipse fill="none" stroke="#000000" cx="123.74" cy="-306" rx="28.7" ry="18"/>
<text text-anchor="middle" x="123.74" y="-302.3" font-family="FreeSans" font-size="14.00" fill="#000000">Any</text>
</a>
</g>
</g>
<!-- Any&#45;&gt;Mu -->
<g id="edge2" class="edge">
<title>Any&#45;&gt;Mu</title>
<path fill="none" stroke="#000000" d="M123.74,-324.3C123.74,-332.02 123.74,-341.29 123.74,-349.89"/>
<polygon fill="#000000" stroke="#000000" points="120.24,-349.9 123.74,-359.9 127.24,-349.9 120.24,-349.9"/>
</g>
<!-- Exception&#45;&gt;Any -->
<g id="edge3" class="edge">
<title>Exception&#45;&gt;Any</title>
<path fill="none" stroke="#000000" d="M123.74,-252.3C123.74,-260.02 123.74,-269.29 123.74,-277.89"/>
<polygon fill="#000000" stroke="#000000" points="120.24,-277.9 123.74,-287.9 127.24,-277.9 120.24,-277.9"/>
</g>
<!-- X::Comp -->
<g id="node5" class="node">
<title>X::Comp</title>
<g id="a_node5"><a xlink:href="/type/X::Comp" xlink:title="X::Comp">
<ellipse fill="none" stroke="#6666ff" cx="200.74" cy="-162" rx="49.29" ry="18"/>
<text text-anchor="middle" x="200.74" y="-158.3" font-family="FreeSans" font-size="14.00" fill="#6666ff">X::Comp</text>
</a>
</g>
</g>
<!-- X::Comp&#45;&gt;Exception -->
<g id="edge4" class="edge">
<title>X::Comp&#45;&gt;Exception</title>
<path fill="none" stroke="#000000" d="M183.27,-178.88C173.1,-188.13 160.11,-199.93 148.86,-210.16"/>
<polygon fill="#000000" stroke="#000000" points="146.45,-207.62 141.41,-216.94 151.16,-212.8 146.45,-207.62"/>
</g>
<!-- X::Syntax&#45;&gt;Exception -->
<g id="edge5" class="edge">
<title>X::Syntax&#45;&gt;Exception</title>
<path fill="none" stroke="#000000" d="M159.69,-108.06C152.38,-123.55 142.74,-144 142.74,-144 142.74,-144 135.09,-179.83 129.5,-206.03"/>
<polygon fill="#000000" stroke="#000000" points="126.07,-205.33 127.4,-215.84 132.91,-206.79 126.07,-205.33"/>
</g>
<!-- X::Syntax&#45;&gt;X::Comp -->
<g id="edge7" class="edge">
<title>X::Syntax&#45;&gt;X::Comp</title>
<path fill="none" stroke="#6666ff" d="M175.73,-107.95C179.54,-116.03 184.18,-125.88 188.43,-134.89"/>
<polygon fill="#6666ff" stroke="#6666ff" points="185.39,-136.66 192.82,-144.21 191.73,-133.67 185.39,-136.66"/>
</g>
</g>
</svg>
