<?xml version="1.0" encoding="UTF-8" standalone="no"?>
<!DOCTYPE svg PUBLIC "-//W3C//DTD SVG 1.1//EN"
 "http://www.w3.org/Graphics/SVG/1.1/DTD/svg11.dtd">
<!-- Generated by graphviz version 2.42.3 (0)
 -->
<!-- Title: perl6&#45;type&#45;graph Pages: 1 -->
<svg width="252pt" height="260pt"
 viewBox="0.00 0.00 252.39 260.00" xmlns="http://www.w3.org/2000/svg" xmlns:xlink="http://www.w3.org/1999/xlink">
<g id="graph0" class="graph" transform="scale(1 1) rotate(0) translate(4 256)">
<title>perl6&#45;type&#45;graph</title>
<polygon fill="white" stroke="transparent" points="-4,4 -4,-256 248.39,-256 248.39,4 -4,4"/>
<!-- X::Attribute::Required -->
<g id="node1" class="node">
<title>X::Attribute::Required</title>
<g id="a_node1"><a xlink:href="/type/X::Attribute::Required" xlink:title="X::Attribute::Required">
<ellipse fill="none" stroke="#000000" cx="109.19" cy="-18" rx="109.38" ry="18"/>
<text text-anchor="middle" x="109.19" y="-14.3" font-family="FreeSans" font-size="14.00" fill="#000000">X::Attribute::Required</text>
</a>
</g>
</g>
<!-- Any -->
<g id="node3" class="node">
<title>Any</title>
<g id="a_node3"><a xlink:href="/type/Any" xlink:title="Any">
<ellipse fill="none" stroke="#000000" cx="109.19" cy="-162" rx="28.7" ry="18"/>
<text text-anchor="middle" x="109.19" y="-158.3" font-family="FreeSans" font-size="14.00" fill="#000000">Any</text>
</a>
</g>
</g>
<!-- X::Attribute::Required&#45;&gt;Any -->
<g id="edge2" class="edge">
<title>X::Attribute::Required&#45;&gt;Any</title>
<path fill="none" stroke="#000000" d="M88.94,-35.77C70.19,-51.3 45.19,-72 45.19,-72 45.19,-72 45.19,-108 45.19,-108 45.19,-108 66.41,-125.58 84.42,-140.49"/>
<polygon fill="#000000" stroke="#000000" points="82.44,-143.39 92.38,-147.07 86.91,-138 82.44,-143.39"/>
</g>
<!-- Exception -->
<g id="node4" class="node">
<title>Exception</title>
<g id="a_node4"><a xlink:href="/type/Exception" xlink:title="Exception">
<ellipse fill="none" stroke="#000000" cx="109.19" cy="-90" rx="55.49" ry="18"/>
<text text-anchor="middle" x="109.19" y="-86.3" font-family="FreeSans" font-size="14.00" fill="#000000">Exception</text>
</a>
</g>
</g>
<!-- X::Attribute::Required&#45;&gt;Exception -->
<g id="edge1" class="edge">
<title>X::Attribute::Required&#45;&gt;Exception</title>
<path fill="none" stroke="#000000" d="M109.19,-36.3C109.19,-44.02 109.19,-53.29 109.19,-61.89"/>
<polygon fill="#000000" stroke="#000000" points="105.69,-61.9 109.19,-71.9 112.69,-61.9 105.69,-61.9"/>
</g>
<!-- MOP -->
<g id="node5" class="node">
<title>MOP</title>
<g id="a_node5"><a xlink:href="/type/MOP" xlink:title="MOP">
<ellipse fill="none" stroke="#000000" cx="213.19" cy="-90" rx="31.4" ry="18"/>
<text text-anchor="middle" x="213.19" y="-86.3" font-family="FreeSans" font-size="14.00" fill="#000000">MOP</text>
</a>
</g>
</g>
<!-- X::Attribute::Required&#45;&gt;MOP -->
<g id="edge6" class="edge">
<title>X::Attribute::Required&#45;&gt;MOP</title>
<path fill="none" stroke="#6666ff" d="M133.84,-35.59C149.24,-45.96 169.13,-59.34 185.14,-70.12"/>
<polygon fill="#6666ff" stroke="#6666ff" points="183.33,-73.12 193.58,-75.8 187.24,-67.32 183.33,-73.12"/>
</g>
<!-- Mu -->
<g id="node2" class="node">
<title>Mu</title>
<g id="a_node2"><a xlink:href="/type/Mu" xlink:title="Mu">
<ellipse fill="none" stroke="#000000" cx="109.19" cy="-234" rx="27" ry="18"/>
<text text-anchor="middle" x="109.19" y="-230.3" font-family="FreeSans" font-size="14.00" fill="#000000">Mu</text>
</a>
</g>
</g>
<!-- Any&#45;&gt;Mu -->
<g id="edge3" class="edge">
<title>Any&#45;&gt;Mu</title>
<path fill="none" stroke="#000000" d="M109.19,-180.3C109.19,-188.02 109.19,-197.29 109.19,-205.89"/>
<polygon fill="#000000" stroke="#000000" points="105.69,-205.9 109.19,-215.9 112.69,-205.9 105.69,-205.9"/>
</g>
<!-- Exception&#45;&gt;Any -->
<g id="edge4" class="edge">
<title>Exception&#45;&gt;Any</title>
<path fill="none" stroke="#000000" d="M109.19,-108.3C109.19,-116.02 109.19,-125.29 109.19,-133.89"/>
<polygon fill="#000000" stroke="#000000" points="105.69,-133.9 109.19,-143.9 112.69,-133.9 105.69,-133.9"/>
</g>
<!-- MOP&#45;&gt;Any -->
<g id="edge5" class="edge">
<title>MOP&#45;&gt;Any</title>
<path fill="none" stroke="#000000" d="M193.63,-104.17C177.45,-115.06 154.29,-130.64 136.32,-142.74"/>
<polygon fill="#000000" stroke="#000000" points="134.31,-139.88 127.96,-148.36 138.21,-145.68 134.31,-139.88"/>
</g>
</g>
</svg>
