<?xml version="1.0" encoding="UTF-8" standalone="no"?>
<!DOCTYPE svg PUBLIC "-//W3C//DTD SVG 1.1//EN"
 "http://www.w3.org/Graphics/SVG/1.1/DTD/svg11.dtd">
<!-- Generated by graphviz version 2.42.3 (0)
 -->
<!-- Title: perl6&#45;type&#45;graph Pages: 1 -->
<svg width="288pt" height="332pt"
 viewBox="0.00 0.00 288.29 332.00" xmlns="http://www.w3.org/2000/svg" xmlns:xlink="http://www.w3.org/1999/xlink">
<g id="graph0" class="graph" transform="scale(1 1) rotate(0) translate(4 328)">
<title>perl6&#45;type&#45;graph</title>
<polygon fill="white" stroke="transparent" points="-4,4 -4,-328 284.29,-328 284.29,4 -4,4"/>
<!-- Rational -->
<g id="node1" class="node">
<title>Rational</title>
<g id="a_node1"><a xlink:href="/type/Rational" xlink:title="Rational">
<ellipse fill="none" stroke="#6666ff" cx="48.75" cy="-162" rx="47.39" ry="18"/>
<text text-anchor="middle" x="48.75" y="-158.3" font-family="FreeSans" font-size="14.00" fill="#6666ff">Rational</text>
</a>
</g>
</g>
<!-- Real -->
<g id="node3" class="node">
<title>Real</title>
<g id="a_node3"><a xlink:href="/type/Real" xlink:title="Real">
<ellipse fill="none" stroke="#6666ff" cx="48.75" cy="-234" rx="30.59" ry="18"/>
<text text-anchor="middle" x="48.75" y="-230.3" font-family="FreeSans" font-size="14.00" fill="#6666ff">Real</text>
</a>
</g>
</g>
<!-- Rational&#45;&gt;Real -->
<g id="edge8" class="edge">
<title>Rational&#45;&gt;Real</title>
<path fill="none" stroke="#6666ff" d="M48.75,-180.3C48.75,-188.02 48.75,-197.29 48.75,-205.89"/>
<polygon fill="#6666ff" stroke="#6666ff" points="45.25,-205.9 48.75,-215.9 52.25,-205.9 45.25,-205.9"/>
</g>
<!-- Numeric -->
<g id="node2" class="node">
<title>Numeric</title>
<g id="a_node2"><a xlink:href="/type/Numeric" xlink:title="Numeric">
<ellipse fill="none" stroke="#6666ff" cx="48.75" cy="-306" rx="48.99" ry="18"/>
<text text-anchor="middle" x="48.75" y="-302.3" font-family="FreeSans" font-size="14.00" fill="#6666ff">Numeric</text>
</a>
</g>
</g>
<!-- Real&#45;&gt;Numeric -->
<g id="edge9" class="edge">
<title>Real&#45;&gt;Numeric</title>
<path fill="none" stroke="#6666ff" d="M48.75,-252.3C48.75,-260.02 48.75,-269.29 48.75,-277.89"/>
<polygon fill="#6666ff" stroke="#6666ff" points="45.25,-277.9 48.75,-287.9 52.25,-277.9 45.25,-277.9"/>
</g>
<!-- Mu -->
<g id="node4" class="node">
<title>Mu</title>
<g id="a_node4"><a xlink:href="/type/Mu" xlink:title="Mu">
<ellipse fill="none" stroke="#000000" cx="144.75" cy="-306" rx="27" ry="18"/>
<text text-anchor="middle" x="144.75" y="-302.3" font-family="FreeSans" font-size="14.00" fill="#000000">Mu</text>
</a>
</g>
</g>
<!-- Any -->
<g id="node5" class="node">
<title>Any</title>
<g id="a_node5"><a xlink:href="/type/Any" xlink:title="Any">
<ellipse fill="none" stroke="#000000" cx="144.75" cy="-234" rx="28.7" ry="18"/>
<text text-anchor="middle" x="144.75" y="-230.3" font-family="FreeSans" font-size="14.00" fill="#000000">Any</text>
</a>
</g>
</g>
<!-- Any&#45;&gt;Mu -->
<g id="edge1" class="edge">
<title>Any&#45;&gt;Mu</title>
<path fill="none" stroke="#000000" d="M144.75,-252.3C144.75,-260.02 144.75,-269.29 144.75,-277.89"/>
<polygon fill="#000000" stroke="#000000" points="141.25,-277.9 144.75,-287.9 148.25,-277.9 141.25,-277.9"/>
</g>
<!-- Cool -->
<g id="node6" class="node">
<title>Cool</title>
<g id="a_node6"><a xlink:href="/type/Cool" xlink:title="Cool">
<ellipse fill="none" stroke="#000000" cx="144.75" cy="-162" rx="30.59" ry="18"/>
<text text-anchor="middle" x="144.75" y="-158.3" font-family="FreeSans" font-size="14.00" fill="#000000">Cool</text>
</a>
</g>
</g>
<!-- Cool&#45;&gt;Any -->
<g id="edge2" class="edge">
<title>Cool&#45;&gt;Any</title>
<path fill="none" stroke="#000000" d="M144.75,-180.3C144.75,-188.02 144.75,-197.29 144.75,-205.89"/>
<polygon fill="#000000" stroke="#000000" points="141.25,-205.9 144.75,-215.9 148.25,-205.9 141.25,-205.9"/>
</g>
<!-- Rat -->
<g id="node7" class="node">
<title>Rat</title>
<g id="a_node7"><a xlink:href="/type/Rat" xlink:title="Rat">
<ellipse fill="none" stroke="#000000" cx="141.75" cy="-90" rx="27" ry="18"/>
<text text-anchor="middle" x="141.75" y="-86.3" font-family="FreeSans" font-size="14.00" fill="#000000">Rat</text>
</a>
</g>
</g>
<!-- Rat&#45;&gt;Rational -->
<g id="edge10" class="edge">
<title>Rat&#45;&gt;Rational</title>
<path fill="none" stroke="#6666ff" d="M124.25,-104.17C111.02,-114.12 92.58,-128.01 77.23,-139.56"/>
<polygon fill="#6666ff" stroke="#6666ff" points="74.96,-136.89 69.07,-145.7 79.17,-142.48 74.96,-136.89"/>
</g>
<!-- Rat&#45;&gt;Cool -->
<g id="edge3" class="edge">
<title>Rat&#45;&gt;Cool</title>
<path fill="none" stroke="#000000" d="M142.49,-108.3C142.82,-116.02 143.22,-125.29 143.58,-133.89"/>
<polygon fill="#000000" stroke="#000000" points="140.09,-134.05 144.01,-143.9 147.08,-133.75 140.09,-134.05"/>
</g>
<!-- FatRat -->
<g id="node8" class="node">
<title>FatRat</title>
<g id="a_node8"><a xlink:href="/type/FatRat" xlink:title="FatRat">
<ellipse fill="none" stroke="#000000" cx="53.75" cy="-90" rx="39.79" ry="18"/>
<text text-anchor="middle" x="53.75" y="-86.3" font-family="FreeSans" font-size="14.00" fill="#000000">FatRat</text>
</a>
</g>
</g>
<!-- FatRat&#45;&gt;Rational -->
<g id="edge11" class="edge">
<title>FatRat&#45;&gt;Rational</title>
<path fill="none" stroke="#6666ff" d="M52.51,-108.3C51.96,-116.02 51.3,-125.29 50.68,-133.89"/>
<polygon fill="#6666ff" stroke="#6666ff" points="47.19,-133.67 49.97,-143.9 54.17,-134.17 47.19,-133.67"/>
</g>
<!-- FatRat&#45;&gt;Cool -->
<g id="edge4" class="edge">
<title>FatRat&#45;&gt;Cool</title>
<path fill="none" stroke="#000000" d="M73.04,-105.85C86.3,-116.04 104.06,-129.71 118.59,-140.88"/>
<polygon fill="#000000" stroke="#000000" points="116.65,-143.81 126.71,-147.13 120.92,-138.26 116.65,-143.81"/>
</g>
<!-- Stringy -->
<g id="node9" class="node">
<title>Stringy</title>
<g id="a_node9"><a xlink:href="/type/Stringy" xlink:title="Stringy">
<ellipse fill="none" stroke="#6666ff" cx="236.75" cy="-162" rx="43.59" ry="18"/>
<text text-anchor="middle" x="236.75" y="-158.3" font-family="FreeSans" font-size="14.00" fill="#6666ff">Stringy</text>
</a>
</g>
</g>
<!-- Str -->
<g id="node10" class="node">
<title>Str</title>
<g id="a_node10"><a xlink:href="/type/Str" xlink:title="Str">
<ellipse fill="none" stroke="#000000" cx="213.75" cy="-90" rx="27" ry="18"/>
<text text-anchor="middle" x="213.75" y="-86.3" font-family="FreeSans" font-size="14.00" fill="#000000">Str</text>
</a>
</g>
</g>
<!-- Str&#45;&gt;Cool -->
<g id="edge5" class="edge">
<title>Str&#45;&gt;Cool</title>
<path fill="none" stroke="#000000" d="M199.45,-105.5C189.96,-115.14 177.31,-127.96 166.57,-138.86"/>
<polygon fill="#000000" stroke="#000000" points="164.03,-136.45 159.5,-146.03 169.01,-141.37 164.03,-136.45"/>
</g>
<!-- Str&#45;&gt;Stringy -->
<g id="edge12" class="edge">
<title>Str&#45;&gt;Stringy</title>
<path fill="none" stroke="#6666ff" d="M219.31,-107.95C221.9,-115.82 225.04,-125.38 227.94,-134.21"/>
<polygon fill="#6666ff" stroke="#6666ff" points="224.62,-135.32 231.07,-143.72 231.27,-133.13 224.62,-135.32"/>
</g>
<!-- RatStr -->
<g id="node11" class="node">
<title>RatStr</title>
<g id="a_node11"><a xlink:href="/type/RatStr" xlink:title="RatStr">
<ellipse fill="none" stroke="#000000" cx="177.75" cy="-18" rx="38.99" ry="18"/>
<text text-anchor="middle" x="177.75" y="-14.3" font-family="FreeSans" font-size="14.00" fill="#000000">RatStr</text>
</a>
</g>
</g>
<!-- RatStr&#45;&gt;Rat -->
<g id="edge6" class="edge">
<title>RatStr&#45;&gt;Rat</title>
<path fill="none" stroke="#000000" d="M169.21,-35.59C164.91,-43.96 159.6,-54.29 154.79,-63.63"/>
<polygon fill="#000000" stroke="#000000" points="151.68,-62.04 150.22,-72.53 157.9,-65.24 151.68,-62.04"/>
</g>
<!-- RatStr&#45;&gt;Str -->
<g id="edge7" class="edge">
<title>RatStr&#45;&gt;Str</title>
<path fill="none" stroke="#000000" d="M186.28,-35.59C190.58,-43.96 195.89,-54.29 200.7,-63.63"/>
<polygon fill="#000000" stroke="#000000" points="197.59,-65.24 205.28,-72.53 203.81,-62.04 197.59,-65.24"/>
</g>
</g>
</svg>
