<?xml version="1.0" encoding="UTF-8" standalone="no"?>
<!DOCTYPE svg PUBLIC "-//W3C//DTD SVG 1.1//EN"
 "http://www.w3.org/Graphics/SVG/1.1/DTD/svg11.dtd">
<!-- Generated by graphviz version 2.42.3 (0)
 -->
<!-- Title: perl6&#45;type&#45;graph Pages: 1 -->
<svg width="377pt" height="404pt"
 viewBox="0.00 0.00 377.17 404.00" xmlns="http://www.w3.org/2000/svg" xmlns:xlink="http://www.w3.org/1999/xlink">
<g id="graph0" class="graph" transform="scale(1 1) rotate(0) translate(4 400)">
<title>perl6&#45;type&#45;graph</title>
<polygon fill="white" stroke="transparent" points="-4,4 -4,-400 373.17,-400 373.17,4 -4,4"/>
<!-- X::Syntax::Pod::BeginWithoutIdentifier -->
<g id="node1" class="node">
<title>X::Syntax::Pod::BeginWithoutIdentifier</title>
<g id="a_node1"><a xlink:href="/type/X::Syntax::Pod::BeginWithoutIdentifier" xlink:title="X::Syntax::Pod::BeginWithoutIdentifier">
<ellipse fill="none" stroke="#000000" cx="184.58" cy="-18" rx="184.67" ry="18"/>
<text text-anchor="middle" x="184.58" y="-14.3" font-family="FreeSans" font-size="14.00" fill="#000000">X::Syntax::Pod::BeginWithoutIdentifier</text>
</a>
</g>
</g>
<!-- Exception -->
<g id="node4" class="node">
<title>Exception</title>
<g id="a_node4"><a xlink:href="/type/Exception" xlink:title="Exception">
<ellipse fill="none" stroke="#000000" cx="140.58" cy="-234" rx="55.49" ry="18"/>
<text text-anchor="middle" x="140.58" y="-230.3" font-family="FreeSans" font-size="14.00" fill="#000000">Exception</text>
</a>
</g>
</g>
<!-- X::Syntax::Pod::BeginWithoutIdentifier&#45;&gt;Exception -->
<g id="edge1" class="edge">
<title>X::Syntax::Pod::BeginWithoutIdentifier&#45;&gt;Exception</title>
<path fill="none" stroke="#000000" d="M164.3,-36.06C145.89,-51.55 121.58,-72 121.58,-72 121.58,-72 121.58,-108 121.58,-108 121.58,-108 130.86,-169.01 136.45,-205.78"/>
<polygon fill="#000000" stroke="#000000" points="133.02,-206.52 137.98,-215.88 139.94,-205.47 133.02,-206.52"/>
</g>
<!-- X::Syntax -->
<g id="node6" class="node">
<title>X::Syntax</title>
<g id="a_node6"><a xlink:href="/type/X::Syntax" xlink:title="X::Syntax">
<ellipse fill="none" stroke="#6666ff" cx="184.58" cy="-90" rx="53.89" ry="18"/>
<text text-anchor="middle" x="184.58" y="-86.3" font-family="FreeSans" font-size="14.00" fill="#6666ff">X::Syntax</text>
</a>
</g>
</g>
<!-- X::Syntax::Pod::BeginWithoutIdentifier&#45;&gt;X::Syntax -->
<g id="edge6" class="edge">
<title>X::Syntax::Pod::BeginWithoutIdentifier&#45;&gt;X::Syntax</title>
<path fill="none" stroke="#6666ff" d="M184.58,-36.3C184.58,-44.02 184.58,-53.29 184.58,-61.89"/>
<polygon fill="#6666ff" stroke="#6666ff" points="181.08,-61.9 184.58,-71.9 188.08,-61.9 181.08,-61.9"/>
</g>
<!-- X::Pod -->
<g id="node7" class="node">
<title>X::Pod</title>
<g id="a_node7"><a xlink:href="/type/X::Pod" xlink:title="X::Pod">
<ellipse fill="none" stroke="#6666ff" cx="296.58" cy="-90" rx="39.79" ry="18"/>
<text text-anchor="middle" x="296.58" y="-86.3" font-family="FreeSans" font-size="14.00" fill="#6666ff">X::Pod</text>
</a>
</g>
</g>
<!-- X::Syntax::Pod::BeginWithoutIdentifier&#45;&gt;X::Pod -->
<g id="edge7" class="edge">
<title>X::Syntax::Pod::BeginWithoutIdentifier&#45;&gt;X::Pod</title>
<path fill="none" stroke="#6666ff" d="M211.7,-35.95C227.86,-46.05 248.46,-58.92 265.31,-69.45"/>
<polygon fill="#6666ff" stroke="#6666ff" points="263.9,-72.7 274.24,-75.03 267.61,-66.77 263.9,-72.7"/>
</g>
<!-- Mu -->
<g id="node2" class="node">
<title>Mu</title>
<g id="a_node2"><a xlink:href="/type/Mu" xlink:title="Mu">
<ellipse fill="none" stroke="#000000" cx="140.58" cy="-378" rx="27" ry="18"/>
<text text-anchor="middle" x="140.58" y="-374.3" font-family="FreeSans" font-size="14.00" fill="#000000">Mu</text>
</a>
</g>
</g>
<!-- Any -->
<g id="node3" class="node">
<title>Any</title>
<g id="a_node3"><a xlink:href="/type/Any" xlink:title="Any">
<ellipse fill="none" stroke="#000000" cx="140.58" cy="-306" rx="28.7" ry="18"/>
<text text-anchor="middle" x="140.58" y="-302.3" font-family="FreeSans" font-size="14.00" fill="#000000">Any</text>
</a>
</g>
</g>
<!-- Any&#45;&gt;Mu -->
<g id="edge2" class="edge">
<title>Any&#45;&gt;Mu</title>
<path fill="none" stroke="#000000" d="M140.58,-324.3C140.58,-332.02 140.58,-341.29 140.58,-349.89"/>
<polygon fill="#000000" stroke="#000000" points="137.08,-349.9 140.58,-359.9 144.08,-349.9 137.08,-349.9"/>
</g>
<!-- Exception&#45;&gt;Any -->
<g id="edge3" class="edge">
<title>Exception&#45;&gt;Any</title>
<path fill="none" stroke="#000000" d="M140.58,-252.3C140.58,-260.02 140.58,-269.29 140.58,-277.89"/>
<polygon fill="#000000" stroke="#000000" points="137.08,-277.9 140.58,-287.9 144.08,-277.9 137.08,-277.9"/>
</g>
<!-- X::Comp -->
<g id="node5" class="node">
<title>X::Comp</title>
<g id="a_node5"><a xlink:href="/type/X::Comp" xlink:title="X::Comp">
<ellipse fill="none" stroke="#6666ff" cx="217.58" cy="-162" rx="49.29" ry="18"/>
<text text-anchor="middle" x="217.58" y="-158.3" font-family="FreeSans" font-size="14.00" fill="#6666ff">X::Comp</text>
</a>
</g>
</g>
<!-- X::Comp&#45;&gt;Exception -->
<g id="edge4" class="edge">
<title>X::Comp&#45;&gt;Exception</title>
<path fill="none" stroke="#000000" d="M200.11,-178.88C189.94,-188.13 176.96,-199.93 165.71,-210.16"/>
<polygon fill="#000000" stroke="#000000" points="163.3,-207.62 158.25,-216.94 168.01,-212.8 163.3,-207.62"/>
</g>
<!-- X::Syntax&#45;&gt;Exception -->
<g id="edge5" class="edge">
<title>X::Syntax&#45;&gt;Exception</title>
<path fill="none" stroke="#000000" d="M176.54,-108.06C169.23,-123.55 159.58,-144 159.58,-144 159.58,-144 151.93,-179.83 146.34,-206.03"/>
<polygon fill="#000000" stroke="#000000" points="142.91,-205.33 144.25,-215.84 149.76,-206.79 142.91,-205.33"/>
</g>
<!-- X::Syntax&#45;&gt;X::Comp -->
<g id="edge8" class="edge">
<title>X::Syntax&#45;&gt;X::Comp</title>
<path fill="none" stroke="#6666ff" d="M192.57,-107.95C196.38,-116.03 201.03,-125.88 205.27,-134.89"/>
<polygon fill="#6666ff" stroke="#6666ff" points="202.24,-136.66 209.67,-144.21 208.57,-133.67 202.24,-136.66"/>
</g>
</g>
</svg>
