<?xml version="1.0" encoding="UTF-8" standalone="no"?>
<!DOCTYPE svg PUBLIC "-//W3C//DTD SVG 1.1//EN"
 "http://www.w3.org/Graphics/SVG/1.1/DTD/svg11.dtd">
<!-- Generated by graphviz version 2.42.3 (0)
 -->
<!-- Title: perl6&#45;type&#45;graph Pages: 1 -->
<svg width="155pt" height="332pt"
 viewBox="0.00 0.00 154.89 332.00" xmlns="http://www.w3.org/2000/svg" xmlns:xlink="http://www.w3.org/1999/xlink">
<g id="graph0" class="graph" transform="scale(1 1) rotate(0) translate(4 328)">
<title>perl6&#45;type&#45;graph</title>
<polygon fill="white" stroke="transparent" points="-4,4 -4,-328 150.89,-328 150.89,4 -4,4"/>
<!-- IO::CatHandle -->
<g id="node1" class="node">
<title>IO::CatHandle</title>
<g id="a_node1"><a xlink:href="/type/IO::CatHandle" xlink:title="IO::CatHandle">
<ellipse fill="none" stroke="#000000" cx="73.44" cy="-90" rx="73.39" ry="18"/>
<text text-anchor="middle" x="73.44" y="-86.3" font-family="FreeSans" font-size="14.00" fill="#000000">IO::CatHandle</text>
</a>
</g>
</g>
<!-- IO::Handle -->
<g id="node4" class="node">
<title>IO::Handle</title>
<g id="a_node4"><a xlink:href="/type/IO::Handle" xlink:title="IO::Handle">
<ellipse fill="none" stroke="#000000" cx="73.44" cy="-162" rx="58.49" ry="18"/>
<text text-anchor="middle" x="73.44" y="-158.3" font-family="FreeSans" font-size="14.00" fill="#000000">IO::Handle</text>
</a>
</g>
</g>
<!-- IO::CatHandle&#45;&gt;IO::Handle -->
<g id="edge1" class="edge">
<title>IO::CatHandle&#45;&gt;IO::Handle</title>
<path fill="none" stroke="#000000" d="M73.44,-108.3C73.44,-116.02 73.44,-125.29 73.44,-133.89"/>
<polygon fill="#000000" stroke="#000000" points="69.94,-133.9 73.44,-143.9 76.94,-133.9 69.94,-133.9"/>
</g>
<!-- Mu -->
<g id="node2" class="node">
<title>Mu</title>
<g id="a_node2"><a xlink:href="/type/Mu" xlink:title="Mu">
<ellipse fill="none" stroke="#000000" cx="73.44" cy="-306" rx="27" ry="18"/>
<text text-anchor="middle" x="73.44" y="-302.3" font-family="FreeSans" font-size="14.00" fill="#000000">Mu</text>
</a>
</g>
</g>
<!-- Any -->
<g id="node3" class="node">
<title>Any</title>
<g id="a_node3"><a xlink:href="/type/Any" xlink:title="Any">
<ellipse fill="none" stroke="#000000" cx="73.44" cy="-234" rx="28.7" ry="18"/>
<text text-anchor="middle" x="73.44" y="-230.3" font-family="FreeSans" font-size="14.00" fill="#000000">Any</text>
</a>
</g>
</g>
<!-- Any&#45;&gt;Mu -->
<g id="edge2" class="edge">
<title>Any&#45;&gt;Mu</title>
<path fill="none" stroke="#000000" d="M73.44,-252.3C73.44,-260.02 73.44,-269.29 73.44,-277.89"/>
<polygon fill="#000000" stroke="#000000" points="69.94,-277.9 73.44,-287.9 76.94,-277.9 69.94,-277.9"/>
</g>
<!-- IO::Handle&#45;&gt;Any -->
<g id="edge3" class="edge">
<title>IO::Handle&#45;&gt;Any</title>
<path fill="none" stroke="#000000" d="M73.44,-180.3C73.44,-188.02 73.44,-197.29 73.44,-205.89"/>
<polygon fill="#000000" stroke="#000000" points="69.94,-205.9 73.44,-215.9 76.94,-205.9 69.94,-205.9"/>
</g>
<!-- IO::ArgFiles -->
<g id="node5" class="node">
<title>IO::ArgFiles</title>
<g id="a_node5"><a xlink:href="/type/IO::ArgFiles" xlink:title="IO::ArgFiles">
<ellipse fill="none" stroke="#000000" cx="73.44" cy="-18" rx="63.09" ry="18"/>
<text text-anchor="middle" x="73.44" y="-14.3" font-family="FreeSans" font-size="14.00" fill="#000000">IO::ArgFiles</text>
</a>
</g>
</g>
<!-- IO::ArgFiles&#45;&gt;IO::CatHandle -->
<g id="edge4" class="edge">
<title>IO::ArgFiles&#45;&gt;IO::CatHandle</title>
<path fill="none" stroke="#000000" d="M73.44,-36.3C73.44,-44.02 73.44,-53.29 73.44,-61.89"/>
<polygon fill="#000000" stroke="#000000" points="69.94,-61.9 73.44,-71.9 76.94,-61.9 69.94,-61.9"/>
</g>
</g>
</svg>
