<?xml version="1.0" encoding="UTF-8" standalone="no"?>
<!DOCTYPE svg PUBLIC "-//W3C//DTD SVG 1.1//EN"
 "http://www.w3.org/Graphics/SVG/1.1/DTD/svg11.dtd">
<!-- Generated by graphviz version 2.42.3 (0)
 -->
<!-- Title: perl6&#45;type&#45;graph Pages: 1 -->
<svg width="976pt" height="332pt"
 viewBox="0.00 0.00 975.73 332.00" xmlns="http://www.w3.org/2000/svg" xmlns:xlink="http://www.w3.org/1999/xlink">
<g id="graph0" class="graph" transform="scale(1 1) rotate(0) translate(4 328)">
<title>perl6&#45;type&#45;graph</title>
<polygon fill="white" stroke="transparent" points="-4,4 -4,-328 971.73,-328 971.73,4 -4,4"/>
<!-- X::TypeCheck -->
<g id="node1" class="node">
<title>X::TypeCheck</title>
<g id="a_node1"><a xlink:href="/type/X::TypeCheck" xlink:title="X::TypeCheck">
<ellipse fill="none" stroke="#000000" cx="462.44" cy="-90" rx="71.49" ry="18"/>
<text text-anchor="middle" x="462.44" y="-86.3" font-family="FreeSans" font-size="14.00" fill="#000000">X::TypeCheck</text>
</a>
</g>
</g>
<!-- Exception -->
<g id="node4" class="node">
<title>Exception</title>
<g id="a_node4"><a xlink:href="/type/Exception" xlink:title="Exception">
<ellipse fill="none" stroke="#000000" cx="462.44" cy="-162" rx="55.49" ry="18"/>
<text text-anchor="middle" x="462.44" y="-158.3" font-family="FreeSans" font-size="14.00" fill="#000000">Exception</text>
</a>
</g>
</g>
<!-- X::TypeCheck&#45;&gt;Exception -->
<g id="edge1" class="edge">
<title>X::TypeCheck&#45;&gt;Exception</title>
<path fill="none" stroke="#000000" d="M462.44,-108.3C462.44,-116.02 462.44,-125.29 462.44,-133.89"/>
<polygon fill="#000000" stroke="#000000" points="458.94,-133.9 462.44,-143.9 465.94,-133.9 458.94,-133.9"/>
</g>
<!-- Mu -->
<g id="node2" class="node">
<title>Mu</title>
<g id="a_node2"><a xlink:href="/type/Mu" xlink:title="Mu">
<ellipse fill="none" stroke="#000000" cx="462.44" cy="-306" rx="27" ry="18"/>
<text text-anchor="middle" x="462.44" y="-302.3" font-family="FreeSans" font-size="14.00" fill="#000000">Mu</text>
</a>
</g>
</g>
<!-- Any -->
<g id="node3" class="node">
<title>Any</title>
<g id="a_node3"><a xlink:href="/type/Any" xlink:title="Any">
<ellipse fill="none" stroke="#000000" cx="462.44" cy="-234" rx="28.7" ry="18"/>
<text text-anchor="middle" x="462.44" y="-230.3" font-family="FreeSans" font-size="14.00" fill="#000000">Any</text>
</a>
</g>
</g>
<!-- Any&#45;&gt;Mu -->
<g id="edge2" class="edge">
<title>Any&#45;&gt;Mu</title>
<path fill="none" stroke="#000000" d="M462.44,-252.3C462.44,-260.02 462.44,-269.29 462.44,-277.89"/>
<polygon fill="#000000" stroke="#000000" points="458.94,-277.9 462.44,-287.9 465.94,-277.9 458.94,-277.9"/>
</g>
<!-- Exception&#45;&gt;Any -->
<g id="edge3" class="edge">
<title>Exception&#45;&gt;Any</title>
<path fill="none" stroke="#000000" d="M462.44,-180.3C462.44,-188.02 462.44,-197.29 462.44,-205.89"/>
<polygon fill="#000000" stroke="#000000" points="458.94,-205.9 462.44,-215.9 465.94,-205.9 458.94,-205.9"/>
</g>
<!-- X::TypeCheck::Binding -->
<g id="node5" class="node">
<title>X::TypeCheck::Binding</title>
<g id="a_node5"><a xlink:href="/type/X::TypeCheck::Binding" xlink:title="X::TypeCheck::Binding">
<ellipse fill="none" stroke="#000000" cx="112.44" cy="-18" rx="112.38" ry="18"/>
<text text-anchor="middle" x="112.44" y="-14.3" font-family="FreeSans" font-size="14.00" fill="#000000">X::TypeCheck::Binding</text>
</a>
</g>
</g>
<!-- X::TypeCheck::Binding&#45;&gt;X::TypeCheck -->
<g id="edge4" class="edge">
<title>X::TypeCheck::Binding&#45;&gt;X::TypeCheck</title>
<path fill="none" stroke="#000000" d="M179.92,-32.5C242.96,-45.1 336.38,-63.79 398.31,-76.17"/>
<polygon fill="#000000" stroke="#000000" points="397.86,-79.65 408.35,-78.18 399.23,-72.79 397.86,-79.65"/>
</g>
<!-- X::TypeCheck::Splice -->
<g id="node6" class="node">
<title>X::TypeCheck::Splice</title>
<g id="a_node6"><a xlink:href="/type/X::TypeCheck::Splice" xlink:title="X::TypeCheck::Splice">
<ellipse fill="none" stroke="#000000" cx="347.44" cy="-18" rx="104.78" ry="18"/>
<text text-anchor="middle" x="347.44" y="-14.3" font-family="FreeSans" font-size="14.00" fill="#000000">X::TypeCheck::Splice</text>
</a>
</g>
</g>
<!-- X::TypeCheck::Splice&#45;&gt;X::TypeCheck -->
<g id="edge5" class="edge">
<title>X::TypeCheck::Splice&#45;&gt;X::TypeCheck</title>
<path fill="none" stroke="#000000" d="M374.4,-35.41C390.34,-45.12 410.7,-57.51 427.82,-67.93"/>
<polygon fill="#000000" stroke="#000000" points="426.08,-70.96 436.44,-73.17 429.72,-64.98 426.08,-70.96"/>
</g>
<!-- X::TypeCheck::Return -->
<g id="node7" class="node">
<title>X::TypeCheck::Return</title>
<g id="a_node7"><a xlink:href="/type/X::TypeCheck::Return" xlink:title="X::TypeCheck::Return">
<ellipse fill="none" stroke="#000000" cx="578.44" cy="-18" rx="108.58" ry="18"/>
<text text-anchor="middle" x="578.44" y="-14.3" font-family="FreeSans" font-size="14.00" fill="#000000">X::TypeCheck::Return</text>
</a>
</g>
</g>
<!-- X::TypeCheck::Return&#45;&gt;X::TypeCheck -->
<g id="edge6" class="edge">
<title>X::TypeCheck::Return&#45;&gt;X::TypeCheck</title>
<path fill="none" stroke="#000000" d="M550.95,-35.59C534.97,-45.23 514.68,-57.47 497.56,-67.81"/>
<polygon fill="#000000" stroke="#000000" points="495.69,-64.85 488.93,-73.01 499.3,-70.84 495.69,-64.85"/>
</g>
<!-- X::TypeCheck::Assignment -->
<g id="node8" class="node">
<title>X::TypeCheck::Assignment</title>
<g id="a_node8"><a xlink:href="/type/X::TypeCheck::Assignment" xlink:title="X::TypeCheck::Assignment">
<ellipse fill="none" stroke="#000000" cx="836.44" cy="-18" rx="131.08" ry="18"/>
<text text-anchor="middle" x="836.44" y="-14.3" font-family="FreeSans" font-size="14.00" fill="#000000">X::TypeCheck::Assignment</text>
</a>
</g>
</g>
<!-- X::TypeCheck::Assignment&#45;&gt;X::TypeCheck -->
<g id="edge7" class="edge">
<title>X::TypeCheck::Assignment&#45;&gt;X::TypeCheck</title>
<path fill="none" stroke="#000000" d="M762.1,-32.91C693.86,-45.69 593.69,-64.43 528.28,-76.68"/>
<polygon fill="#000000" stroke="#000000" points="527.27,-73.31 518.08,-78.59 528.56,-80.19 527.27,-73.31"/>
</g>
</g>
</svg>
