<?xml version="1.0" encoding="UTF-8" standalone="no"?>
<!DOCTYPE svg PUBLIC "-//W3C//DTD SVG 1.1//EN"
 "http://www.w3.org/Graphics/SVG/1.1/DTD/svg11.dtd">
<!-- Generated by graphviz version 2.42.3 (0)
 -->
<!-- Title: perl6&#45;type&#45;graph Pages: 1 -->
<svg width="409pt" height="476pt"
 viewBox="0.00 0.00 408.79 476.00" xmlns="http://www.w3.org/2000/svg" xmlns:xlink="http://www.w3.org/1999/xlink">
<g id="graph0" class="graph" transform="scale(1 1) rotate(0) translate(4 472)">
<title>perl6&#45;type&#45;graph</title>
<polygon fill="white" stroke="transparent" points="-4,4 -4,-472 404.79,-472 404.79,4 -4,4"/>
<!-- Callable -->
<g id="node1" class="node">
<title>Callable</title>
<g id="a_node1"><a xlink:href="/type/Callable" xlink:title="Callable">
<ellipse fill="none" stroke="#6666ff" cx="130.6" cy="-378" rx="46.29" ry="18"/>
<text text-anchor="middle" x="130.6" y="-374.3" font-family="FreeSans" font-size="14.00" fill="#6666ff">Callable</text>
</a>
</g>
</g>
<!-- Mu -->
<g id="node2" class="node">
<title>Mu</title>
<g id="a_node2"><a xlink:href="/type/Mu" xlink:title="Mu">
<ellipse fill="none" stroke="#000000" cx="229.6" cy="-450" rx="27" ry="18"/>
<text text-anchor="middle" x="229.6" y="-446.3" font-family="FreeSans" font-size="14.00" fill="#000000">Mu</text>
</a>
</g>
</g>
<!-- Any -->
<g id="node3" class="node">
<title>Any</title>
<g id="a_node3"><a xlink:href="/type/Any" xlink:title="Any">
<ellipse fill="none" stroke="#000000" cx="229.6" cy="-378" rx="28.7" ry="18"/>
<text text-anchor="middle" x="229.6" y="-374.3" font-family="FreeSans" font-size="14.00" fill="#000000">Any</text>
</a>
</g>
</g>
<!-- Any&#45;&gt;Mu -->
<g id="edge1" class="edge">
<title>Any&#45;&gt;Mu</title>
<path fill="none" stroke="#000000" d="M229.6,-396.3C229.6,-404.02 229.6,-413.29 229.6,-421.89"/>
<polygon fill="#000000" stroke="#000000" points="226.1,-421.9 229.6,-431.9 233.1,-421.9 226.1,-421.9"/>
</g>
<!-- ForeignCode -->
<g id="node4" class="node">
<title>ForeignCode</title>
<g id="a_node4"><a xlink:href="/type/ForeignCode" xlink:title="ForeignCode">
<ellipse fill="none" stroke="#000000" cx="117.6" cy="-306" rx="66.89" ry="18"/>
<text text-anchor="middle" x="117.6" y="-302.3" font-family="FreeSans" font-size="14.00" fill="#000000">ForeignCode</text>
</a>
</g>
</g>
<!-- ForeignCode&#45;&gt;Callable -->
<g id="edge12" class="edge">
<title>ForeignCode&#45;&gt;Callable</title>
<path fill="none" stroke="#6666ff" d="M120.81,-324.3C122.24,-332.02 123.97,-341.29 125.56,-349.89"/>
<polygon fill="#6666ff" stroke="#6666ff" points="122.15,-350.7 127.42,-359.9 129.04,-349.42 122.15,-350.7"/>
</g>
<!-- ForeignCode&#45;&gt;Any -->
<g id="edge2" class="edge">
<title>ForeignCode&#45;&gt;Any</title>
<path fill="none" stroke="#000000" d="M142.73,-322.71C160.09,-333.56 183.19,-348 201.21,-359.26"/>
<polygon fill="#000000" stroke="#000000" points="199.78,-362.49 210.11,-364.82 203.49,-356.56 199.78,-362.49"/>
</g>
<!-- Code -->
<g id="node5" class="node">
<title>Code</title>
<g id="a_node5"><a xlink:href="/type/Code" xlink:title="Code">
<ellipse fill="none" stroke="#000000" cx="236.6" cy="-306" rx="33.6" ry="18"/>
<text text-anchor="middle" x="236.6" y="-302.3" font-family="FreeSans" font-size="14.00" fill="#000000">Code</text>
</a>
</g>
</g>
<!-- Code&#45;&gt;Callable -->
<g id="edge13" class="edge">
<title>Code&#45;&gt;Callable</title>
<path fill="none" stroke="#6666ff" d="M216.16,-320.5C200.79,-330.65 179.46,-344.73 161.94,-356.3"/>
<polygon fill="#6666ff" stroke="#6666ff" points="159.59,-353.66 153.17,-362.09 163.45,-359.5 159.59,-353.66"/>
</g>
<!-- Code&#45;&gt;Any -->
<g id="edge3" class="edge">
<title>Code&#45;&gt;Any</title>
<path fill="none" stroke="#000000" d="M234.87,-324.3C234.1,-332.02 233.17,-341.29 232.31,-349.89"/>
<polygon fill="#000000" stroke="#000000" points="228.82,-349.6 231.31,-359.9 235.79,-350.29 228.82,-349.6"/>
</g>
<!-- Block -->
<g id="node6" class="node">
<title>Block</title>
<g id="a_node6"><a xlink:href="/type/Block" xlink:title="Block">
<ellipse fill="none" stroke="#000000" cx="171.6" cy="-234" rx="35.19" ry="18"/>
<text text-anchor="middle" x="171.6" y="-230.3" font-family="FreeSans" font-size="14.00" fill="#000000">Block</text>
</a>
</g>
</g>
<!-- Block&#45;&gt;Code -->
<g id="edge4" class="edge">
<title>Block&#45;&gt;Code</title>
<path fill="none" stroke="#000000" d="M186.02,-250.54C194.61,-259.78 205.66,-271.68 215.24,-282"/>
<polygon fill="#000000" stroke="#000000" points="212.84,-284.56 222.21,-289.51 217.97,-279.8 212.84,-284.56"/>
</g>
<!-- WhateverCode -->
<g id="node7" class="node">
<title>WhateverCode</title>
<g id="a_node7"><a xlink:href="/type/WhateverCode" xlink:title="WhateverCode">
<ellipse fill="none" stroke="#000000" cx="301.6" cy="-234" rx="77.19" ry="18"/>
<text text-anchor="middle" x="301.6" y="-230.3" font-family="FreeSans" font-size="14.00" fill="#000000">WhateverCode</text>
</a>
</g>
</g>
<!-- WhateverCode&#45;&gt;Code -->
<g id="edge5" class="edge">
<title>WhateverCode&#45;&gt;Code</title>
<path fill="none" stroke="#000000" d="M285.86,-251.95C277.44,-261.01 266.96,-272.31 257.82,-282.14"/>
<polygon fill="#000000" stroke="#000000" points="255.1,-279.93 250.86,-289.64 260.23,-284.7 255.1,-279.93"/>
</g>
<!-- Routine -->
<g id="node8" class="node">
<title>Routine</title>
<g id="a_node8"><a xlink:href="/type/Routine" xlink:title="Routine">
<ellipse fill="none" stroke="#000000" cx="171.6" cy="-162" rx="45.49" ry="18"/>
<text text-anchor="middle" x="171.6" y="-158.3" font-family="FreeSans" font-size="14.00" fill="#000000">Routine</text>
</a>
</g>
</g>
<!-- Routine&#45;&gt;Block -->
<g id="edge6" class="edge">
<title>Routine&#45;&gt;Block</title>
<path fill="none" stroke="#000000" d="M171.6,-180.3C171.6,-188.02 171.6,-197.29 171.6,-205.89"/>
<polygon fill="#000000" stroke="#000000" points="168.1,-205.9 171.6,-215.9 175.1,-205.9 168.1,-205.9"/>
</g>
<!-- Sub -->
<g id="node9" class="node">
<title>Sub</title>
<g id="a_node9"><a xlink:href="/type/Sub" xlink:title="Sub">
<ellipse fill="none" stroke="#000000" cx="28.6" cy="-90" rx="28.7" ry="18"/>
<text text-anchor="middle" x="28.6" y="-86.3" font-family="FreeSans" font-size="14.00" fill="#000000">Sub</text>
</a>
</g>
</g>
<!-- Sub&#45;&gt;Routine -->
<g id="edge7" class="edge">
<title>Sub&#45;&gt;Routine</title>
<path fill="none" stroke="#000000" d="M50.63,-101.78C73.12,-112.8 108.44,-130.08 135.11,-143.14"/>
<polygon fill="#000000" stroke="#000000" points="133.63,-146.31 144.15,-147.57 136.71,-140.03 133.63,-146.31"/>
</g>
<!-- Macro -->
<g id="node10" class="node">
<title>Macro</title>
<g id="a_node10"><a xlink:href="/type/Macro" xlink:title="Macro">
<ellipse fill="none" stroke="#000000" cx="112.6" cy="-90" rx="37.89" ry="18"/>
<text text-anchor="middle" x="112.6" y="-86.3" font-family="FreeSans" font-size="14.00" fill="#000000">Macro</text>
</a>
</g>
</g>
<!-- Macro&#45;&gt;Routine -->
<g id="edge8" class="edge">
<title>Macro&#45;&gt;Routine</title>
<path fill="none" stroke="#000000" d="M125.99,-106.88C133.42,-115.71 142.83,-126.87 151.17,-136.76"/>
<polygon fill="#000000" stroke="#000000" points="148.73,-139.3 157.85,-144.69 154.08,-134.79 148.73,-139.3"/>
</g>
<!-- Submethod -->
<g id="node11" class="node">
<title>Submethod</title>
<g id="a_node11"><a xlink:href="/type/Submethod" xlink:title="Submethod">
<ellipse fill="none" stroke="#000000" cx="231.6" cy="-90" rx="63.09" ry="18"/>
<text text-anchor="middle" x="231.6" y="-86.3" font-family="FreeSans" font-size="14.00" fill="#000000">Submethod</text>
</a>
</g>
</g>
<!-- Submethod&#45;&gt;Routine -->
<g id="edge9" class="edge">
<title>Submethod&#45;&gt;Routine</title>
<path fill="none" stroke="#000000" d="M217.38,-107.59C209.91,-116.31 200.61,-127.15 192.35,-136.79"/>
<polygon fill="#000000" stroke="#000000" points="189.57,-134.66 185.71,-144.53 194.88,-139.22 189.57,-134.66"/>
</g>
<!-- Method -->
<g id="node12" class="node">
<title>Method</title>
<g id="a_node12"><a xlink:href="/type/Method" xlink:title="Method">
<ellipse fill="none" stroke="#000000" cx="356.6" cy="-90" rx="44.39" ry="18"/>
<text text-anchor="middle" x="356.6" y="-86.3" font-family="FreeSans" font-size="14.00" fill="#000000">Method</text>
</a>
</g>
</g>
<!-- Method&#45;&gt;Routine -->
<g id="edge10" class="edge">
<title>Method&#45;&gt;Routine</title>
<path fill="none" stroke="#000000" d="M325.21,-102.87C294.35,-114.55 247.04,-132.45 213.08,-145.3"/>
<polygon fill="#000000" stroke="#000000" points="211.56,-142.14 203.44,-148.95 214.04,-148.68 211.56,-142.14"/>
</g>
<!-- Regex -->
<g id="node13" class="node">
<title>Regex</title>
<g id="a_node13"><a xlink:href="/type/Regex" xlink:title="Regex">
<ellipse fill="none" stroke="#000000" cx="356.6" cy="-18" rx="38.99" ry="18"/>
<text text-anchor="middle" x="356.6" y="-14.3" font-family="FreeSans" font-size="14.00" fill="#000000">Regex</text>
</a>
</g>
</g>
<!-- Regex&#45;&gt;Method -->
<g id="edge11" class="edge">
<title>Regex&#45;&gt;Method</title>
<path fill="none" stroke="#000000" d="M356.6,-36.3C356.6,-44.02 356.6,-53.29 356.6,-61.89"/>
<polygon fill="#000000" stroke="#000000" points="353.1,-61.9 356.6,-71.9 360.1,-61.9 353.1,-61.9"/>
</g>
</g>
</svg>
