<?xml version="1.0" encoding="UTF-8" standalone="no"?>
<!DOCTYPE svg PUBLIC "-//W3C//DTD SVG 1.1//EN"
 "http://www.w3.org/Graphics/SVG/1.1/DTD/svg11.dtd">
<!-- Generated by graphviz version 2.42.3 (0)
 -->
<!-- Title: perl6&#45;type&#45;graph Pages: 1 -->
<svg width="389pt" height="404pt"
 viewBox="0.00 0.00 388.87 404.00" xmlns="http://www.w3.org/2000/svg" xmlns:xlink="http://www.w3.org/1999/xlink">
<g id="graph0" class="graph" transform="scale(1 1) rotate(0) translate(4 400)">
<title>perl6&#45;type&#45;graph</title>
<polygon fill="white" stroke="transparent" points="-4,4 -4,-400 384.87,-400 384.87,4 -4,4"/>
<!-- X::Syntax::AddCategorical::TooFewParts -->
<g id="node1" class="node">
<title>X::Syntax::AddCategorical::TooFewParts</title>
<g id="a_node1"><a xlink:href="/type/X::Syntax::AddCategorical::TooFewParts" xlink:title="X::Syntax::AddCategorical::TooFewParts">
<ellipse fill="none" stroke="#000000" cx="190.43" cy="-18" rx="190.37" ry="18"/>
<text text-anchor="middle" x="190.43" y="-14.3" font-family="FreeSans" font-size="14.00" fill="#000000">X::Syntax::AddCategorical::TooFewParts</text>
</a>
</g>
</g>
<!-- Exception -->
<g id="node4" class="node">
<title>Exception</title>
<g id="a_node4"><a xlink:href="/type/Exception" xlink:title="Exception">
<ellipse fill="none" stroke="#000000" cx="187.43" cy="-234" rx="55.49" ry="18"/>
<text text-anchor="middle" x="187.43" y="-230.3" font-family="FreeSans" font-size="14.00" fill="#000000">Exception</text>
</a>
</g>
</g>
<!-- X::Syntax::AddCategorical::TooFewParts&#45;&gt;Exception -->
<g id="edge1" class="edge">
<title>X::Syntax::AddCategorical::TooFewParts&#45;&gt;Exception</title>
<path fill="none" stroke="#000000" d="M183.35,-36.06C176.92,-51.55 168.43,-72 168.43,-72 168.43,-72 168.43,-108 168.43,-108 168.43,-108 177.71,-169.01 183.3,-205.78"/>
<polygon fill="#000000" stroke="#000000" points="179.87,-206.52 184.83,-215.88 186.79,-205.47 179.87,-206.52"/>
</g>
<!-- X::Syntax -->
<g id="node6" class="node">
<title>X::Syntax</title>
<g id="a_node6"><a xlink:href="/type/X::Syntax" xlink:title="X::Syntax">
<ellipse fill="none" stroke="#6666ff" cx="231.43" cy="-90" rx="53.89" ry="18"/>
<text text-anchor="middle" x="231.43" y="-86.3" font-family="FreeSans" font-size="14.00" fill="#6666ff">X::Syntax</text>
</a>
</g>
</g>
<!-- X::Syntax::AddCategorical::TooFewParts&#45;&gt;X::Syntax -->
<g id="edge6" class="edge">
<title>X::Syntax::AddCategorical::TooFewParts&#45;&gt;X::Syntax</title>
<path fill="none" stroke="#6666ff" d="M200.57,-36.3C205.28,-44.36 210.99,-54.11 216.21,-63.02"/>
<polygon fill="#6666ff" stroke="#6666ff" points="213.34,-65.04 221.41,-71.9 219.38,-61.5 213.34,-65.04"/>
</g>
<!-- Mu -->
<g id="node2" class="node">
<title>Mu</title>
<g id="a_node2"><a xlink:href="/type/Mu" xlink:title="Mu">
<ellipse fill="none" stroke="#000000" cx="187.43" cy="-378" rx="27" ry="18"/>
<text text-anchor="middle" x="187.43" y="-374.3" font-family="FreeSans" font-size="14.00" fill="#000000">Mu</text>
</a>
</g>
</g>
<!-- Any -->
<g id="node3" class="node">
<title>Any</title>
<g id="a_node3"><a xlink:href="/type/Any" xlink:title="Any">
<ellipse fill="none" stroke="#000000" cx="187.43" cy="-306" rx="28.7" ry="18"/>
<text text-anchor="middle" x="187.43" y="-302.3" font-family="FreeSans" font-size="14.00" fill="#000000">Any</text>
</a>
</g>
</g>
<!-- Any&#45;&gt;Mu -->
<g id="edge2" class="edge">
<title>Any&#45;&gt;Mu</title>
<path fill="none" stroke="#000000" d="M187.43,-324.3C187.43,-332.02 187.43,-341.29 187.43,-349.89"/>
<polygon fill="#000000" stroke="#000000" points="183.93,-349.9 187.43,-359.9 190.93,-349.9 183.93,-349.9"/>
</g>
<!-- Exception&#45;&gt;Any -->
<g id="edge3" class="edge">
<title>Exception&#45;&gt;Any</title>
<path fill="none" stroke="#000000" d="M187.43,-252.3C187.43,-260.02 187.43,-269.29 187.43,-277.89"/>
<polygon fill="#000000" stroke="#000000" points="183.93,-277.9 187.43,-287.9 190.93,-277.9 183.93,-277.9"/>
</g>
<!-- X::Comp -->
<g id="node5" class="node">
<title>X::Comp</title>
<g id="a_node5"><a xlink:href="/type/X::Comp" xlink:title="X::Comp">
<ellipse fill="none" stroke="#6666ff" cx="264.43" cy="-162" rx="49.29" ry="18"/>
<text text-anchor="middle" x="264.43" y="-158.3" font-family="FreeSans" font-size="14.00" fill="#6666ff">X::Comp</text>
</a>
</g>
</g>
<!-- X::Comp&#45;&gt;Exception -->
<g id="edge4" class="edge">
<title>X::Comp&#45;&gt;Exception</title>
<path fill="none" stroke="#000000" d="M246.96,-178.88C236.79,-188.13 223.81,-199.93 212.56,-210.16"/>
<polygon fill="#000000" stroke="#000000" points="210.15,-207.62 205.1,-216.94 214.86,-212.8 210.15,-207.62"/>
</g>
<!-- X::Syntax&#45;&gt;Exception -->
<g id="edge5" class="edge">
<title>X::Syntax&#45;&gt;Exception</title>
<path fill="none" stroke="#000000" d="M223.39,-108.06C216.08,-123.55 206.43,-144 206.43,-144 206.43,-144 198.78,-179.83 193.19,-206.03"/>
<polygon fill="#000000" stroke="#000000" points="189.76,-205.33 191.1,-215.84 196.61,-206.79 189.76,-205.33"/>
</g>
<!-- X::Syntax&#45;&gt;X::Comp -->
<g id="edge7" class="edge">
<title>X::Syntax&#45;&gt;X::Comp</title>
<path fill="none" stroke="#6666ff" d="M239.42,-107.95C243.23,-116.03 247.88,-125.88 252.12,-134.89"/>
<polygon fill="#6666ff" stroke="#6666ff" points="249.09,-136.66 256.52,-144.21 255.42,-133.67 249.09,-136.66"/>
</g>
</g>
</svg>
