<?xml version="1.0" encoding="UTF-8" standalone="no"?>
<!DOCTYPE svg PUBLIC "-//W3C//DTD SVG 1.1//EN"
 "http://www.w3.org/Graphics/SVG/1.1/DTD/svg11.dtd">
<!-- Generated by graphviz version 2.42.3 (0)
 -->
<!-- Title: perl6&#45;type&#45;graph Pages: 1 -->
<svg width="328pt" height="404pt"
 viewBox="0.00 0.00 328.28 404.00" xmlns="http://www.w3.org/2000/svg" xmlns:xlink="http://www.w3.org/1999/xlink">
<g id="graph0" class="graph" transform="scale(1 1) rotate(0) translate(4 400)">
<title>perl6&#45;type&#45;graph</title>
<polygon fill="white" stroke="transparent" points="-4,4 -4,-400 324.28,-400 324.28,4 -4,4"/>
<!-- X::Syntax::Self::WithoutObject -->
<g id="node1" class="node">
<title>X::Syntax::Self::WithoutObject</title>
<g id="a_node1"><a xlink:href="/type/X::Syntax::Self::WithoutObject" xlink:title="X::Syntax::Self::WithoutObject">
<ellipse fill="none" stroke="#000000" cx="146.89" cy="-18" rx="146.77" ry="18"/>
<text text-anchor="middle" x="146.89" y="-14.3" font-family="FreeSans" font-size="14.00" fill="#000000">X::Syntax::Self::WithoutObject</text>
</a>
</g>
</g>
<!-- Exception -->
<g id="node4" class="node">
<title>Exception</title>
<g id="a_node4"><a xlink:href="/type/Exception" xlink:title="Exception">
<ellipse fill="none" stroke="#000000" cx="169.89" cy="-234" rx="55.49" ry="18"/>
<text text-anchor="middle" x="169.89" y="-230.3" font-family="FreeSans" font-size="14.00" fill="#000000">Exception</text>
</a>
</g>
</g>
<!-- X::Syntax::Self::WithoutObject&#45;&gt;Exception -->
<g id="edge1" class="edge">
<title>X::Syntax::Self::WithoutObject&#45;&gt;Exception</title>
<path fill="none" stroke="#000000" d="M144.85,-36.15C145.3,-73.34 154.53,-161.63 162.36,-206.23"/>
<polygon fill="#000000" stroke="#000000" points="158.92,-206.88 164.21,-216.06 165.8,-205.59 158.92,-206.88"/>
</g>
<!-- X::Syntax::Self::WithoutObject&#45;&gt;Exception -->
<g id="edge2" class="edge">
<title>X::Syntax::Self::WithoutObject&#45;&gt;Exception</title>
<path fill="none" stroke="#000000" d="M152.61,-36.15C160.12,-73.17 169.81,-160.82 171.64,-205.61"/>
<polygon fill="#000000" stroke="#000000" points="168.14,-205.87 171.92,-215.77 175.14,-205.67 168.14,-205.87"/>
</g>
<!-- X::Syntax -->
<g id="node6" class="node">
<title>X::Syntax</title>
<g id="a_node6"><a xlink:href="/type/X::Syntax" xlink:title="X::Syntax">
<ellipse fill="none" stroke="#6666ff" cx="237.89" cy="-90" rx="53.89" ry="18"/>
<text text-anchor="middle" x="237.89" y="-86.3" font-family="FreeSans" font-size="14.00" fill="#6666ff">X::Syntax</text>
</a>
</g>
</g>
<!-- X::Syntax::Self::WithoutObject&#45;&gt;X::Syntax -->
<g id="edge7" class="edge">
<title>X::Syntax::Self::WithoutObject&#45;&gt;X::Syntax</title>
<path fill="none" stroke="#6666ff" d="M168.92,-35.95C181,-45.24 196.12,-56.87 209.12,-66.87"/>
<polygon fill="#6666ff" stroke="#6666ff" points="207.25,-69.85 217.31,-73.17 211.52,-64.3 207.25,-69.85"/>
</g>
<!-- Mu -->
<g id="node2" class="node">
<title>Mu</title>
<g id="a_node2"><a xlink:href="/type/Mu" xlink:title="Mu">
<ellipse fill="none" stroke="#000000" cx="169.89" cy="-378" rx="27" ry="18"/>
<text text-anchor="middle" x="169.89" y="-374.3" font-family="FreeSans" font-size="14.00" fill="#000000">Mu</text>
</a>
</g>
</g>
<!-- Any -->
<g id="node3" class="node">
<title>Any</title>
<g id="a_node3"><a xlink:href="/type/Any" xlink:title="Any">
<ellipse fill="none" stroke="#000000" cx="169.89" cy="-306" rx="28.7" ry="18"/>
<text text-anchor="middle" x="169.89" y="-302.3" font-family="FreeSans" font-size="14.00" fill="#000000">Any</text>
</a>
</g>
</g>
<!-- Any&#45;&gt;Mu -->
<g id="edge3" class="edge">
<title>Any&#45;&gt;Mu</title>
<path fill="none" stroke="#000000" d="M169.89,-324.3C169.89,-332.02 169.89,-341.29 169.89,-349.89"/>
<polygon fill="#000000" stroke="#000000" points="166.39,-349.9 169.89,-359.9 173.39,-349.9 166.39,-349.9"/>
</g>
<!-- Exception&#45;&gt;Any -->
<g id="edge4" class="edge">
<title>Exception&#45;&gt;Any</title>
<path fill="none" stroke="#000000" d="M169.89,-252.3C169.89,-260.02 169.89,-269.29 169.89,-277.89"/>
<polygon fill="#000000" stroke="#000000" points="166.39,-277.9 169.89,-287.9 173.39,-277.9 166.39,-277.9"/>
</g>
<!-- X::Comp -->
<g id="node5" class="node">
<title>X::Comp</title>
<g id="a_node5"><a xlink:href="/type/X::Comp" xlink:title="X::Comp">
<ellipse fill="none" stroke="#6666ff" cx="270.89" cy="-162" rx="49.29" ry="18"/>
<text text-anchor="middle" x="270.89" y="-158.3" font-family="FreeSans" font-size="14.00" fill="#6666ff">X::Comp</text>
</a>
</g>
</g>
<!-- X::Comp&#45;&gt;Exception -->
<g id="edge5" class="edge">
<title>X::Comp&#45;&gt;Exception</title>
<path fill="none" stroke="#000000" d="M248.97,-178.19C234.87,-187.96 216.34,-200.8 200.76,-211.6"/>
<polygon fill="#000000" stroke="#000000" points="198.68,-208.78 192.46,-217.36 202.67,-214.54 198.68,-208.78"/>
</g>
<!-- X::Syntax&#45;&gt;Exception -->
<g id="edge6" class="edge">
<title>X::Syntax&#45;&gt;Exception</title>
<path fill="none" stroke="#000000" d="M229.82,-107.85C218.06,-132.4 196.12,-178.23 182.29,-207.09"/>
<polygon fill="#000000" stroke="#000000" points="179.11,-205.64 177.94,-216.18 185.42,-208.67 179.11,-205.64"/>
</g>
<!-- X::Syntax&#45;&gt;X::Comp -->
<g id="edge8" class="edge">
<title>X::Syntax&#45;&gt;X::Comp</title>
<path fill="none" stroke="#6666ff" d="M245.88,-107.95C249.69,-116.03 254.33,-125.88 258.58,-134.89"/>
<polygon fill="#6666ff" stroke="#6666ff" points="255.54,-136.66 262.97,-144.21 261.87,-133.67 255.54,-136.66"/>
</g>
</g>
</svg>
