<?xml version="1.0" encoding="UTF-8" standalone="no"?>
<!DOCTYPE svg PUBLIC "-//W3C//DTD SVG 1.1//EN"
 "http://www.w3.org/Graphics/SVG/1.1/DTD/svg11.dtd">
<!-- Generated by graphviz version 2.42.3 (0)
 -->
<!-- Title: perl6&#45;type&#45;graph Pages: 1 -->
<svg width="180pt" height="332pt"
 viewBox="0.00 0.00 179.58 332.00" xmlns="http://www.w3.org/2000/svg" xmlns:xlink="http://www.w3.org/1999/xlink">
<g id="graph0" class="graph" transform="scale(1 1) rotate(0) translate(4 328)">
<title>perl6&#45;type&#45;graph</title>
<polygon fill="white" stroke="transparent" points="-4,4 -4,-328 175.58,-328 175.58,4 -4,4"/>
<!-- IO::Path::Cygwin -->
<g id="node1" class="node">
<title>IO::Path::Cygwin</title>
<g id="a_node1"><a xlink:href="/type/IO::Path::Cygwin" xlink:title="IO::Path::Cygwin">
<ellipse fill="none" stroke="#000000" cx="85.79" cy="-18" rx="85.59" ry="18"/>
<text text-anchor="middle" x="85.79" y="-14.3" font-family="FreeSans" font-size="14.00" fill="#000000">IO::Path::Cygwin</text>
</a>
</g>
</g>
<!-- IO::Path -->
<g id="node6" class="node">
<title>IO::Path</title>
<g id="a_node6"><a xlink:href="/type/IO::Path" xlink:title="IO::Path">
<ellipse fill="none" stroke="#000000" cx="85.79" cy="-90" rx="46.59" ry="18"/>
<text text-anchor="middle" x="85.79" y="-86.3" font-family="FreeSans" font-size="14.00" fill="#000000">IO::Path</text>
</a>
</g>
</g>
<!-- IO::Path::Cygwin&#45;&gt;IO::Path -->
<g id="edge1" class="edge">
<title>IO::Path::Cygwin&#45;&gt;IO::Path</title>
<path fill="none" stroke="#000000" d="M85.79,-36.3C85.79,-44.02 85.79,-53.29 85.79,-61.89"/>
<polygon fill="#000000" stroke="#000000" points="82.29,-61.9 85.79,-71.9 89.29,-61.9 82.29,-61.9"/>
</g>
<!-- Mu -->
<g id="node2" class="node">
<title>Mu</title>
<g id="a_node2"><a xlink:href="/type/Mu" xlink:title="Mu">
<ellipse fill="none" stroke="#000000" cx="47.79" cy="-306" rx="27" ry="18"/>
<text text-anchor="middle" x="47.79" y="-302.3" font-family="FreeSans" font-size="14.00" fill="#000000">Mu</text>
</a>
</g>
</g>
<!-- Any -->
<g id="node3" class="node">
<title>Any</title>
<g id="a_node3"><a xlink:href="/type/Any" xlink:title="Any">
<ellipse fill="none" stroke="#000000" cx="47.79" cy="-234" rx="28.7" ry="18"/>
<text text-anchor="middle" x="47.79" y="-230.3" font-family="FreeSans" font-size="14.00" fill="#000000">Any</text>
</a>
</g>
</g>
<!-- Any&#45;&gt;Mu -->
<g id="edge2" class="edge">
<title>Any&#45;&gt;Mu</title>
<path fill="none" stroke="#000000" d="M47.79,-252.3C47.79,-260.02 47.79,-269.29 47.79,-277.89"/>
<polygon fill="#000000" stroke="#000000" points="44.29,-277.9 47.79,-287.9 51.29,-277.9 44.29,-277.9"/>
</g>
<!-- Cool -->
<g id="node4" class="node">
<title>Cool</title>
<g id="a_node4"><a xlink:href="/type/Cool" xlink:title="Cool">
<ellipse fill="none" stroke="#000000" cx="47.79" cy="-162" rx="30.59" ry="18"/>
<text text-anchor="middle" x="47.79" y="-158.3" font-family="FreeSans" font-size="14.00" fill="#000000">Cool</text>
</a>
</g>
</g>
<!-- Cool&#45;&gt;Any -->
<g id="edge3" class="edge">
<title>Cool&#45;&gt;Any</title>
<path fill="none" stroke="#000000" d="M47.79,-180.3C47.79,-188.02 47.79,-197.29 47.79,-205.89"/>
<polygon fill="#000000" stroke="#000000" points="44.29,-205.9 47.79,-215.9 51.29,-205.9 44.29,-205.9"/>
</g>
<!-- IO -->
<g id="node5" class="node">
<title>IO</title>
<g id="a_node5"><a xlink:href="/type/IO" xlink:title="IO">
<ellipse fill="none" stroke="#6666ff" cx="123.79" cy="-162" rx="27" ry="18"/>
<text text-anchor="middle" x="123.79" y="-158.3" font-family="FreeSans" font-size="14.00" fill="#6666ff">IO</text>
</a>
</g>
</g>
<!-- IO::Path&#45;&gt;Cool -->
<g id="edge4" class="edge">
<title>IO::Path&#45;&gt;Cool</title>
<path fill="none" stroke="#000000" d="M76.59,-107.95C72.05,-116.32 66.47,-126.6 61.44,-135.87"/>
<polygon fill="#000000" stroke="#000000" points="58.34,-134.23 56.64,-144.69 64.49,-137.57 58.34,-134.23"/>
</g>
<!-- IO::Path&#45;&gt;IO -->
<g id="edge5" class="edge">
<title>IO::Path&#45;&gt;IO</title>
<path fill="none" stroke="#6666ff" d="M94.99,-107.95C99.54,-116.32 105.12,-126.6 110.15,-135.87"/>
<polygon fill="#6666ff" stroke="#6666ff" points="107.09,-137.57 114.94,-144.69 113.25,-134.23 107.09,-137.57"/>
</g>
</g>
</svg>
