<?xml version="1.0" encoding="UTF-8" standalone="no"?>
<!DOCTYPE svg PUBLIC "-//W3C//DTD SVG 1.1//EN"
 "http://www.w3.org/Graphics/SVG/1.1/DTD/svg11.dtd">
<!-- Generated by graphviz version 2.42.3 (0)
 -->
<!-- Title: perl6&#45;type&#45;graph Pages: 1 -->
<svg width="226pt" height="404pt"
 viewBox="0.00 0.00 226.14 404.00" xmlns="http://www.w3.org/2000/svg" xmlns:xlink="http://www.w3.org/1999/xlink">
<g id="graph0" class="graph" transform="scale(1 1) rotate(0) translate(4 400)">
<title>perl6&#45;type&#45;graph</title>
<polygon fill="white" stroke="transparent" points="-4,4 -4,-400 222.14,-400 222.14,4 -4,4"/>
<!-- X::IO::Copy -->
<g id="node1" class="node">
<title>X::IO::Copy</title>
<g id="a_node1"><a xlink:href="/type/X::IO::Copy" xlink:title="X::IO::Copy">
<ellipse fill="none" stroke="#000000" cx="61.74" cy="-18" rx="61.99" ry="18"/>
<text text-anchor="middle" x="61.74" y="-14.3" font-family="FreeSans" font-size="14.00" fill="#000000">X::IO::Copy</text>
</a>
</g>
</g>
<!-- Exception -->
<g id="node4" class="node">
<title>Exception</title>
<g id="a_node4"><a xlink:href="/type/Exception" xlink:title="Exception">
<ellipse fill="none" stroke="#000000" cx="61.74" cy="-234" rx="55.49" ry="18"/>
<text text-anchor="middle" x="61.74" y="-230.3" font-family="FreeSans" font-size="14.00" fill="#000000">Exception</text>
</a>
</g>
</g>
<!-- X::IO::Copy&#45;&gt;Exception -->
<g id="edge1" class="edge">
<title>X::IO::Copy&#45;&gt;Exception</title>
<path fill="none" stroke="#000000" d="M53.99,-36.15C46.9,-73.26 46.37,-161.25 52.4,-205.95"/>
<polygon fill="#000000" stroke="#000000" points="48.99,-206.75 54.03,-216.06 55.9,-205.64 48.99,-206.75"/>
</g>
<!-- X::IO::Copy&#45;&gt;Exception -->
<g id="edge2" class="edge">
<title>X::IO::Copy&#45;&gt;Exception</title>
<path fill="none" stroke="#000000" d="M61.74,-36.15C61.74,-73.17 61.74,-160.82 61.74,-205.61"/>
<polygon fill="#000000" stroke="#000000" points="58.24,-205.77 61.74,-215.77 65.24,-205.77 58.24,-205.77"/>
</g>
<!-- X::IO::Copy&#45;&gt;Exception -->
<g id="edge3" class="edge">
<title>X::IO::Copy&#45;&gt;Exception</title>
<path fill="none" stroke="#000000" d="M69.5,-36.15C76.59,-73.26 77.12,-161.25 71.08,-205.95"/>
<polygon fill="#000000" stroke="#000000" points="67.59,-205.64 69.46,-216.06 74.5,-206.75 67.59,-205.64"/>
</g>
<!-- X::IO -->
<g id="node6" class="node">
<title>X::IO</title>
<g id="a_node6"><a xlink:href="/type/X::IO" xlink:title="X::IO">
<ellipse fill="none" stroke="#6666ff" cx="140.74" cy="-90" rx="33.29" ry="18"/>
<text text-anchor="middle" x="140.74" y="-86.3" font-family="FreeSans" font-size="14.00" fill="#6666ff">X::IO</text>
</a>
</g>
</g>
<!-- X::IO::Copy&#45;&gt;X::IO -->
<g id="edge8" class="edge">
<title>X::IO::Copy&#45;&gt;X::IO</title>
<path fill="none" stroke="#6666ff" d="M80.07,-35.24C90.88,-44.82 104.7,-57.06 116.42,-67.45"/>
<polygon fill="#6666ff" stroke="#6666ff" points="114.33,-70.27 124.14,-74.28 118.97,-65.03 114.33,-70.27"/>
</g>
<!-- Mu -->
<g id="node2" class="node">
<title>Mu</title>
<g id="a_node2"><a xlink:href="/type/Mu" xlink:title="Mu">
<ellipse fill="none" stroke="#000000" cx="61.74" cy="-378" rx="27" ry="18"/>
<text text-anchor="middle" x="61.74" y="-374.3" font-family="FreeSans" font-size="14.00" fill="#000000">Mu</text>
</a>
</g>
</g>
<!-- Any -->
<g id="node3" class="node">
<title>Any</title>
<g id="a_node3"><a xlink:href="/type/Any" xlink:title="Any">
<ellipse fill="none" stroke="#000000" cx="61.74" cy="-306" rx="28.7" ry="18"/>
<text text-anchor="middle" x="61.74" y="-302.3" font-family="FreeSans" font-size="14.00" fill="#000000">Any</text>
</a>
</g>
</g>
<!-- Any&#45;&gt;Mu -->
<g id="edge4" class="edge">
<title>Any&#45;&gt;Mu</title>
<path fill="none" stroke="#000000" d="M61.74,-324.3C61.74,-332.02 61.74,-341.29 61.74,-349.89"/>
<polygon fill="#000000" stroke="#000000" points="58.24,-349.9 61.74,-359.9 65.24,-349.9 58.24,-349.9"/>
</g>
<!-- Exception&#45;&gt;Any -->
<g id="edge5" class="edge">
<title>Exception&#45;&gt;Any</title>
<path fill="none" stroke="#000000" d="M61.74,-252.3C61.74,-260.02 61.74,-269.29 61.74,-277.89"/>
<polygon fill="#000000" stroke="#000000" points="58.24,-277.9 61.74,-287.9 65.24,-277.9 58.24,-277.9"/>
</g>
<!-- X::OS -->
<g id="node5" class="node">
<title>X::OS</title>
<g id="a_node5"><a xlink:href="/type/X::OS" xlink:title="X::OS">
<ellipse fill="none" stroke="#6666ff" cx="181.74" cy="-162" rx="36.29" ry="18"/>
<text text-anchor="middle" x="181.74" y="-158.3" font-family="FreeSans" font-size="14.00" fill="#6666ff">X::OS</text>
</a>
</g>
</g>
<!-- X::OS&#45;&gt;Exception -->
<g id="edge6" class="edge">
<title>X::OS&#45;&gt;Exception</title>
<path fill="none" stroke="#000000" d="M159.17,-176.17C141.51,-186.47 116.64,-200.98 96.45,-212.75"/>
<polygon fill="#000000" stroke="#000000" points="94.42,-209.89 87.55,-217.95 97.95,-215.93 94.42,-209.89"/>
</g>
<!-- X::IO&#45;&gt;Exception -->
<g id="edge7" class="edge">
<title>X::IO&#45;&gt;Exception</title>
<path fill="none" stroke="#000000" d="M131.9,-107.74C118.29,-133.52 93.74,-180 93.74,-180 93.74,-180 85.33,-193.93 77.14,-207.51"/>
<polygon fill="#000000" stroke="#000000" points="74.04,-205.86 71.87,-216.23 80.03,-209.48 74.04,-205.86"/>
</g>
<!-- X::IO&#45;&gt;X::OS -->
<g id="edge9" class="edge">
<title>X::IO&#45;&gt;X::OS</title>
<path fill="none" stroke="#6666ff" d="M150.46,-107.59C155.36,-115.96 161.41,-126.29 166.89,-135.63"/>
<polygon fill="#6666ff" stroke="#6666ff" points="164.02,-137.67 172.1,-144.53 170.06,-134.13 164.02,-137.67"/>
</g>
</g>
</svg>
