<?xml version="1.0" encoding="UTF-8" standalone="no"?>
<!DOCTYPE svg PUBLIC "-//W3C//DTD SVG 1.1//EN"
 "http://www.w3.org/Graphics/SVG/1.1/DTD/svg11.dtd">
<!-- Generated by graphviz version 2.42.3 (0)
 -->
<!-- Title: perl6&#45;type&#45;graph Pages: 1 -->
<svg width="170pt" height="332pt"
 viewBox="0.00 0.00 170.49 332.00" xmlns="http://www.w3.org/2000/svg" xmlns:xlink="http://www.w3.org/1999/xlink">
<g id="graph0" class="graph" transform="scale(1 1) rotate(0) translate(4 328)">
<title>perl6&#45;type&#45;graph</title>
<polygon fill="white" stroke="transparent" points="-4,4 -4,-328 166.49,-328 166.49,4 -4,4"/>
<!-- X::Anon::Multi -->
<g id="node1" class="node">
<title>X::Anon::Multi</title>
<g id="a_node1"><a xlink:href="/type/X::Anon::Multi" xlink:title="X::Anon::Multi">
<ellipse fill="none" stroke="#000000" cx="74.09" cy="-18" rx="74.19" ry="18"/>
<text text-anchor="middle" x="74.09" y="-14.3" font-family="FreeSans" font-size="14.00" fill="#000000">X::Anon::Multi</text>
</a>
</g>
</g>
<!-- Exception -->
<g id="node4" class="node">
<title>Exception</title>
<g id="a_node4"><a xlink:href="/type/Exception" xlink:title="Exception">
<ellipse fill="none" stroke="#000000" cx="74.09" cy="-162" rx="55.49" ry="18"/>
<text text-anchor="middle" x="74.09" y="-158.3" font-family="FreeSans" font-size="14.00" fill="#000000">Exception</text>
</a>
</g>
</g>
<!-- X::Anon::Multi&#45;&gt;Exception -->
<g id="edge1" class="edge">
<title>X::Anon::Multi&#45;&gt;Exception</title>
<path fill="none" stroke="#000000" d="M67.98,-36.06C62.42,-51.55 55.09,-72 55.09,-72 55.09,-72 55.09,-108 55.09,-108 55.09,-108 59.84,-121.24 64.59,-134.48"/>
<polygon fill="#000000" stroke="#000000" points="61.31,-135.71 67.98,-143.94 67.9,-133.34 61.31,-135.71"/>
</g>
<!-- X::Comp -->
<g id="node5" class="node">
<title>X::Comp</title>
<g id="a_node5"><a xlink:href="/type/X::Comp" xlink:title="X::Comp">
<ellipse fill="none" stroke="#6666ff" cx="113.09" cy="-90" rx="49.29" ry="18"/>
<text text-anchor="middle" x="113.09" y="-86.3" font-family="FreeSans" font-size="14.00" fill="#6666ff">X::Comp</text>
</a>
</g>
</g>
<!-- X::Anon::Multi&#45;&gt;X::Comp -->
<g id="edge5" class="edge">
<title>X::Anon::Multi&#45;&gt;X::Comp</title>
<path fill="none" stroke="#6666ff" d="M83.53,-35.95C88.13,-44.2 93.76,-54.3 98.87,-63.46"/>
<polygon fill="#6666ff" stroke="#6666ff" points="95.81,-65.18 103.74,-72.21 101.93,-61.77 95.81,-65.18"/>
</g>
<!-- Mu -->
<g id="node2" class="node">
<title>Mu</title>
<g id="a_node2"><a xlink:href="/type/Mu" xlink:title="Mu">
<ellipse fill="none" stroke="#000000" cx="74.09" cy="-306" rx="27" ry="18"/>
<text text-anchor="middle" x="74.09" y="-302.3" font-family="FreeSans" font-size="14.00" fill="#000000">Mu</text>
</a>
</g>
</g>
<!-- Any -->
<g id="node3" class="node">
<title>Any</title>
<g id="a_node3"><a xlink:href="/type/Any" xlink:title="Any">
<ellipse fill="none" stroke="#000000" cx="74.09" cy="-234" rx="28.7" ry="18"/>
<text text-anchor="middle" x="74.09" y="-230.3" font-family="FreeSans" font-size="14.00" fill="#000000">Any</text>
</a>
</g>
</g>
<!-- Any&#45;&gt;Mu -->
<g id="edge2" class="edge">
<title>Any&#45;&gt;Mu</title>
<path fill="none" stroke="#000000" d="M74.09,-252.3C74.09,-260.02 74.09,-269.29 74.09,-277.89"/>
<polygon fill="#000000" stroke="#000000" points="70.59,-277.9 74.09,-287.9 77.59,-277.9 70.59,-277.9"/>
</g>
<!-- Exception&#45;&gt;Any -->
<g id="edge3" class="edge">
<title>Exception&#45;&gt;Any</title>
<path fill="none" stroke="#000000" d="M74.09,-180.3C74.09,-188.02 74.09,-197.29 74.09,-205.89"/>
<polygon fill="#000000" stroke="#000000" points="70.59,-205.9 74.09,-215.9 77.59,-205.9 70.59,-205.9"/>
</g>
<!-- X::Comp&#45;&gt;Exception -->
<g id="edge4" class="edge">
<title>X::Comp&#45;&gt;Exception</title>
<path fill="none" stroke="#000000" d="M103.65,-107.95C99.05,-116.2 93.43,-126.3 88.32,-135.46"/>
<polygon fill="#000000" stroke="#000000" points="85.26,-133.77 83.45,-144.21 91.37,-137.18 85.26,-133.77"/>
</g>
</g>
</svg>
