<?xml version="1.0" encoding="UTF-8" standalone="no"?>
<!DOCTYPE svg PUBLIC "-//W3C//DTD SVG 1.1//EN"
 "http://www.w3.org/Graphics/SVG/1.1/DTD/svg11.dtd">
<!-- Generated by graphviz version 2.42.3 (0)
 -->
<!-- Title: perl6&#45;type&#45;graph Pages: 1 -->
<svg width="211pt" height="332pt"
 viewBox="0.00 0.00 211.14 332.00" xmlns="http://www.w3.org/2000/svg" xmlns:xlink="http://www.w3.org/1999/xlink">
<g id="graph0" class="graph" transform="scale(1 1) rotate(0) translate(4 328)">
<title>perl6&#45;type&#45;graph</title>
<polygon fill="white" stroke="transparent" points="-4,4 -4,-328 207.14,-328 207.14,4 -4,4"/>
<!-- Mixy -->
<g id="node1" class="node">
<title>Mixy</title>
<g id="a_node1"><a xlink:href="/type/Mixy" xlink:title="Mixy">
<ellipse fill="none" stroke="#6666ff" cx="61.74" cy="-90" rx="31.7" ry="18"/>
<text text-anchor="middle" x="61.74" y="-86.3" font-family="FreeSans" font-size="14.00" fill="#6666ff">Mixy</text>
</a>
</g>
</g>
<!-- Baggy -->
<g id="node4" class="node">
<title>Baggy</title>
<g id="a_node4"><a xlink:href="/type/Baggy" xlink:title="Baggy">
<ellipse fill="none" stroke="#6666ff" cx="61.74" cy="-162" rx="39.79" ry="18"/>
<text text-anchor="middle" x="61.74" y="-158.3" font-family="FreeSans" font-size="14.00" fill="#6666ff">Baggy</text>
</a>
</g>
</g>
<!-- Mixy&#45;&gt;Baggy -->
<g id="edge4" class="edge">
<title>Mixy&#45;&gt;Baggy</title>
<path fill="none" stroke="#6666ff" d="M61.74,-108.3C61.74,-116.02 61.74,-125.29 61.74,-133.89"/>
<polygon fill="#6666ff" stroke="#6666ff" points="58.24,-133.9 61.74,-143.9 65.24,-133.9 58.24,-133.9"/>
</g>
<!-- Associative -->
<g id="node2" class="node">
<title>Associative</title>
<g id="a_node2"><a xlink:href="/type/Associative" xlink:title="Associative">
<ellipse fill="none" stroke="#6666ff" cx="61.74" cy="-306" rx="61.99" ry="18"/>
<text text-anchor="middle" x="61.74" y="-302.3" font-family="FreeSans" font-size="14.00" fill="#6666ff">Associative</text>
</a>
</g>
</g>
<!-- QuantHash -->
<g id="node3" class="node">
<title>QuantHash</title>
<g id="a_node3"><a xlink:href="/type/QuantHash" xlink:title="QuantHash">
<ellipse fill="none" stroke="#6666ff" cx="61.74" cy="-234" rx="61.99" ry="18"/>
<text text-anchor="middle" x="61.74" y="-230.3" font-family="FreeSans" font-size="14.00" fill="#6666ff">QuantHash</text>
</a>
</g>
</g>
<!-- QuantHash&#45;&gt;Associative -->
<g id="edge5" class="edge">
<title>QuantHash&#45;&gt;Associative</title>
<path fill="none" stroke="#6666ff" d="M61.74,-252.3C61.74,-260.02 61.74,-269.29 61.74,-277.89"/>
<polygon fill="#6666ff" stroke="#6666ff" points="58.24,-277.9 61.74,-287.9 65.24,-277.9 58.24,-277.9"/>
</g>
<!-- Baggy&#45;&gt;QuantHash -->
<g id="edge6" class="edge">
<title>Baggy&#45;&gt;QuantHash</title>
<path fill="none" stroke="#6666ff" d="M61.74,-180.3C61.74,-188.02 61.74,-197.29 61.74,-205.89"/>
<polygon fill="#6666ff" stroke="#6666ff" points="58.24,-205.9 61.74,-215.9 65.24,-205.9 58.24,-205.9"/>
</g>
<!-- Mu -->
<g id="node5" class="node">
<title>Mu</title>
<g id="a_node5"><a xlink:href="/type/Mu" xlink:title="Mu">
<ellipse fill="none" stroke="#000000" cx="150.74" cy="-162" rx="27" ry="18"/>
<text text-anchor="middle" x="150.74" y="-158.3" font-family="FreeSans" font-size="14.00" fill="#000000">Mu</text>
</a>
</g>
</g>
<!-- Any -->
<g id="node6" class="node">
<title>Any</title>
<g id="a_node6"><a xlink:href="/type/Any" xlink:title="Any">
<ellipse fill="none" stroke="#000000" cx="150.74" cy="-90" rx="28.7" ry="18"/>
<text text-anchor="middle" x="150.74" y="-86.3" font-family="FreeSans" font-size="14.00" fill="#000000">Any</text>
</a>
</g>
</g>
<!-- Any&#45;&gt;Mu -->
<g id="edge1" class="edge">
<title>Any&#45;&gt;Mu</title>
<path fill="none" stroke="#000000" d="M150.74,-108.3C150.74,-116.02 150.74,-125.29 150.74,-133.89"/>
<polygon fill="#000000" stroke="#000000" points="147.24,-133.9 150.74,-143.9 154.24,-133.9 147.24,-133.9"/>
</g>
<!-- Mix -->
<g id="node7" class="node">
<title>Mix</title>
<g id="a_node7"><a xlink:href="/type/Mix" xlink:title="Mix">
<ellipse fill="none" stroke="#000000" cx="59.74" cy="-18" rx="27" ry="18"/>
<text text-anchor="middle" x="59.74" y="-14.3" font-family="FreeSans" font-size="14.00" fill="#000000">Mix</text>
</a>
</g>
</g>
<!-- Mix&#45;&gt;Mixy -->
<g id="edge7" class="edge">
<title>Mix&#45;&gt;Mixy</title>
<path fill="none" stroke="#6666ff" d="M60.24,-36.3C60.46,-44.02 60.72,-53.29 60.97,-61.89"/>
<polygon fill="#6666ff" stroke="#6666ff" points="57.47,-62 61.26,-71.9 64.47,-61.8 57.47,-62"/>
</g>
<!-- Mix&#45;&gt;Any -->
<g id="edge2" class="edge">
<title>Mix&#45;&gt;Any</title>
<path fill="none" stroke="#000000" d="M76.86,-32.17C90.5,-42.66 109.81,-57.51 125.26,-69.4"/>
<polygon fill="#000000" stroke="#000000" points="123.34,-72.33 133.4,-75.65 127.6,-66.78 123.34,-72.33"/>
</g>
<!-- MixHash -->
<g id="node8" class="node">
<title>MixHash</title>
<g id="a_node8"><a xlink:href="/type/MixHash" xlink:title="MixHash">
<ellipse fill="none" stroke="#000000" cx="153.74" cy="-18" rx="49.29" ry="18"/>
<text text-anchor="middle" x="153.74" y="-14.3" font-family="FreeSans" font-size="14.00" fill="#000000">MixHash</text>
</a>
</g>
</g>
<!-- MixHash&#45;&gt;Mixy -->
<g id="edge8" class="edge">
<title>MixHash&#45;&gt;Mixy</title>
<path fill="none" stroke="#6666ff" d="M133.33,-34.54C119.96,-44.7 102.37,-58.09 87.98,-69.04"/>
<polygon fill="#6666ff" stroke="#6666ff" points="85.76,-66.33 79.92,-75.17 90,-71.9 85.76,-66.33"/>
</g>
<!-- MixHash&#45;&gt;Any -->
<g id="edge3" class="edge">
<title>MixHash&#45;&gt;Any</title>
<path fill="none" stroke="#000000" d="M153,-36.3C152.67,-44.02 152.28,-53.29 151.91,-61.89"/>
<polygon fill="#000000" stroke="#000000" points="148.41,-61.75 151.48,-71.9 155.4,-62.05 148.41,-61.75"/>
</g>
</g>
</svg>
