<?xml version="1.0" encoding="UTF-8" standalone="no"?>
<!DOCTYPE svg PUBLIC "-//W3C//DTD SVG 1.1//EN"
 "http://www.w3.org/Graphics/SVG/1.1/DTD/svg11.dtd">
<!-- Generated by graphviz version 2.42.3 (0)
 -->
<!-- Title: perl6&#45;type&#45;graph Pages: 1 -->
<svg width="733pt" height="387pt"
 viewBox="0.00 0.00 733.40 386.83" xmlns="http://www.w3.org/2000/svg" xmlns:xlink="http://www.w3.org/1999/xlink">
<g id="graph0" class="graph" transform="scale(1 1) rotate(0) translate(4 382.83)">
<title>perl6&#45;type&#45;graph</title>
<polygon fill="white" stroke="transparent" points="-4,4 -4,-382.83 729.4,-382.83 729.4,4 -4,4"/>
<!-- X::Comp::Trait::Unknown -->
<g id="node1" class="node">
<title>X::Comp::Trait::Unknown</title>
<g id="a_node1"><a xlink:href="/type/X::Comp::Trait::Unknown" xlink:title="X::Comp::Trait::Unknown">
<ellipse fill="none" stroke="#000000" cx="122.19" cy="-180.96" rx="122.38" ry="18"/>
<text text-anchor="middle" x="122.19" y="-177.26" font-family="FreeSans" font-size="14.00" fill="#000000">X::Comp::Trait::Unknown</text>
</a>
</g>
</g>
<!-- Exception -->
<g id="node4" class="node">
<title>Exception</title>
<g id="a_node4"><a xlink:href="/type/Exception" xlink:title="Exception">
<ellipse fill="none" stroke="#000000" cx="307.64" cy="-201.73" rx="55.49" ry="18"/>
<text text-anchor="middle" x="307.64" y="-198.03" font-family="FreeSans" font-size="14.00" fill="#000000">Exception</text>
</a>
</g>
</g>
<!-- X::Comp::Trait::Unknown&#45;&gt;Exception -->
<g id="edge2" class="edge">
<title>X::Comp::Trait::Unknown&#45;&gt;Exception</title>
<path fill="none" stroke="#000000" d="M219.53,-191.86C228.14,-192.83 236.7,-193.78 244.9,-194.7"/>
<polygon fill="#000000" stroke="#000000" points="244.75,-198.21 255.08,-195.84 245.53,-191.25 244.75,-198.21"/>
</g>
<!-- X::Trait::Unknown -->
<g id="node5" class="node">
<title>X::Trait::Unknown</title>
<g id="a_node5"><a xlink:href="/type/X::Trait::Unknown" xlink:title="X::Trait::Unknown">
<ellipse fill="none" stroke="#000000" cx="216.73" cy="-18" rx="90.18" ry="18"/>
<text text-anchor="middle" x="216.73" y="-14.3" font-family="FreeSans" font-size="14.00" fill="#000000">X::Trait::Unknown</text>
</a>
</g>
</g>
<!-- X::Comp::Trait::Unknown&#45;&gt;X::Trait::Unknown -->
<g id="edge1" class="edge">
<title>X::Comp::Trait::Unknown&#45;&gt;X::Trait::Unknown</title>
<path fill="none" stroke="#000000" d="M132.67,-162.9C149.28,-134.27 181.75,-78.29 201.12,-44.92"/>
<polygon fill="#000000" stroke="#000000" points="204.22,-46.55 206.21,-36.14 198.16,-43.04 204.22,-46.55"/>
</g>
<!-- X::Comp -->
<g id="node6" class="node">
<title>X::Comp</title>
<g id="a_node6"><a xlink:href="/type/X::Comp" xlink:title="X::Comp">
<ellipse fill="none" stroke="#6666ff" cx="178.47" cy="-360.83" rx="49.29" ry="18"/>
<text text-anchor="middle" x="178.47" y="-357.13" font-family="FreeSans" font-size="14.00" fill="#6666ff">X::Comp</text>
</a>
</g>
</g>
<!-- X::Comp::Trait::Unknown&#45;&gt;X::Comp -->
<g id="edge7" class="edge">
<title>X::Comp::Trait::Unknown&#45;&gt;X::Comp</title>
<path fill="none" stroke="#6666ff" d="M127.9,-199.2C137.78,-230.79 158.15,-295.89 169.79,-333.11"/>
<polygon fill="#6666ff" stroke="#6666ff" points="166.5,-334.32 172.83,-342.82 173.18,-332.23 166.5,-334.32"/>
</g>
<!-- Mu -->
<g id="node2" class="node">
<title>Mu</title>
<g id="a_node2"><a xlink:href="/type/Mu" xlink:title="Mu">
<ellipse fill="none" stroke="#000000" cx="698.4" cy="-234.84" rx="27" ry="18"/>
<text text-anchor="middle" x="698.4" y="-231.14" font-family="FreeSans" font-size="14.00" fill="#000000">Mu</text>
</a>
</g>
</g>
<!-- Any -->
<g id="node3" class="node">
<title>Any</title>
<g id="a_node3"><a xlink:href="/type/Any" xlink:title="Any">
<ellipse fill="none" stroke="#000000" cx="506.43" cy="-225.2" rx="28.7" ry="18"/>
<text text-anchor="middle" x="506.43" y="-221.5" font-family="FreeSans" font-size="14.00" fill="#000000">Any</text>
</a>
</g>
</g>
<!-- Any&#45;&gt;Mu -->
<g id="edge3" class="edge">
<title>Any&#45;&gt;Mu</title>
<path fill="none" stroke="#000000" d="M535.17,-226.64C568.68,-228.32 624.16,-231.11 661,-232.96"/>
<polygon fill="#000000" stroke="#000000" points="661.17,-236.47 671.33,-233.48 661.52,-229.48 661.17,-236.47"/>
</g>
<!-- Exception&#45;&gt;Any -->
<g id="edge4" class="edge">
<title>Exception&#45;&gt;Any</title>
<path fill="none" stroke="#000000" d="M359.61,-207.86C393.61,-211.88 437.29,-217.04 468.13,-220.68"/>
<polygon fill="#000000" stroke="#000000" points="467.73,-224.15 478.07,-221.85 468.55,-217.2 467.73,-224.15"/>
</g>
<!-- X::Trait::Unknown&#45;&gt;Exception -->
<g id="edge5" class="edge">
<title>X::Trait::Unknown&#45;&gt;Exception</title>
<path fill="none" stroke="#000000" d="M225.61,-35.95C241.64,-68.33 275.46,-136.68 294.28,-174.72"/>
<polygon fill="#000000" stroke="#000000" points="291.15,-176.29 298.72,-183.7 297.43,-173.19 291.15,-176.29"/>
</g>
<!-- X::Comp&#45;&gt;Exception -->
<g id="edge6" class="edge">
<title>X::Comp&#45;&gt;Exception</title>
<path fill="none" stroke="#000000" d="M192.54,-343.5C215.32,-315.44 260.41,-259.9 286.89,-227.29"/>
<polygon fill="#000000" stroke="#000000" points="289.61,-229.49 293.2,-219.52 284.17,-225.08 289.61,-229.49"/>
</g>
</g>
</svg>
