<?xml version="1.0" encoding="UTF-8" standalone="no"?>
<!DOCTYPE svg PUBLIC "-//W3C//DTD SVG 1.1//EN"
 "http://www.w3.org/Graphics/SVG/1.1/DTD/svg11.dtd">
<!-- Generated by graphviz version 2.42.3 (0)
 -->
<!-- Title: perl6&#45;type&#45;graph Pages: 1 -->
<svg width="272pt" height="332pt"
 viewBox="0.00 0.00 271.88 332.00" xmlns="http://www.w3.org/2000/svg" xmlns:xlink="http://www.w3.org/1999/xlink">
<g id="graph0" class="graph" transform="scale(1 1) rotate(0) translate(4 328)">
<title>perl6&#45;type&#45;graph</title>
<polygon fill="white" stroke="transparent" points="-4,4 -4,-328 267.88,-328 267.88,4 -4,4"/>
<!-- X::Temporal::InvalidFormat -->
<g id="node1" class="node">
<title>X::Temporal::InvalidFormat</title>
<g id="a_node1"><a xlink:href="/type/X::Temporal::InvalidFormat" xlink:title="X::Temporal::InvalidFormat">
<ellipse fill="none" stroke="#000000" cx="131.94" cy="-18" rx="131.88" ry="18"/>
<text text-anchor="middle" x="131.94" y="-14.3" font-family="FreeSans" font-size="14.00" fill="#000000">X::Temporal::InvalidFormat</text>
</a>
</g>
</g>
<!-- Exception -->
<g id="node4" class="node">
<title>Exception</title>
<g id="a_node4"><a xlink:href="/type/Exception" xlink:title="Exception">
<ellipse fill="none" stroke="#000000" cx="131.94" cy="-162" rx="55.49" ry="18"/>
<text text-anchor="middle" x="131.94" y="-158.3" font-family="FreeSans" font-size="14.00" fill="#000000">Exception</text>
</a>
</g>
</g>
<!-- X::Temporal::InvalidFormat&#45;&gt;Exception -->
<g id="edge1" class="edge">
<title>X::Temporal::InvalidFormat&#45;&gt;Exception</title>
<path fill="none" stroke="#000000" d="M123.25,-36.06C115.35,-51.55 104.94,-72 104.94,-72 104.94,-72 104.94,-108 104.94,-108 104.94,-108 111.81,-121.5 118.63,-134.87"/>
<polygon fill="#000000" stroke="#000000" points="115.59,-136.62 123.25,-143.94 121.83,-133.44 115.59,-136.62"/>
</g>
<!-- X::Temporal -->
<g id="node5" class="node">
<title>X::Temporal</title>
<g id="a_node5"><a xlink:href="/type/X::Temporal" xlink:title="X::Temporal">
<ellipse fill="none" stroke="#6666ff" cx="177.94" cy="-90" rx="64.19" ry="18"/>
<text text-anchor="middle" x="177.94" y="-86.3" font-family="FreeSans" font-size="14.00" fill="#6666ff">X::Temporal</text>
</a>
</g>
</g>
<!-- X::Temporal::InvalidFormat&#45;&gt;X::Temporal -->
<g id="edge5" class="edge">
<title>X::Temporal::InvalidFormat&#45;&gt;X::Temporal</title>
<path fill="none" stroke="#6666ff" d="M143.07,-35.95C148.55,-44.29 155.27,-54.51 161.34,-63.75"/>
<polygon fill="#6666ff" stroke="#6666ff" points="158.49,-65.78 166.91,-72.21 164.34,-61.93 158.49,-65.78"/>
</g>
<!-- Mu -->
<g id="node2" class="node">
<title>Mu</title>
<g id="a_node2"><a xlink:href="/type/Mu" xlink:title="Mu">
<ellipse fill="none" stroke="#000000" cx="131.94" cy="-306" rx="27" ry="18"/>
<text text-anchor="middle" x="131.94" y="-302.3" font-family="FreeSans" font-size="14.00" fill="#000000">Mu</text>
</a>
</g>
</g>
<!-- Any -->
<g id="node3" class="node">
<title>Any</title>
<g id="a_node3"><a xlink:href="/type/Any" xlink:title="Any">
<ellipse fill="none" stroke="#000000" cx="131.94" cy="-234" rx="28.7" ry="18"/>
<text text-anchor="middle" x="131.94" y="-230.3" font-family="FreeSans" font-size="14.00" fill="#000000">Any</text>
</a>
</g>
</g>
<!-- Any&#45;&gt;Mu -->
<g id="edge2" class="edge">
<title>Any&#45;&gt;Mu</title>
<path fill="none" stroke="#000000" d="M131.94,-252.3C131.94,-260.02 131.94,-269.29 131.94,-277.89"/>
<polygon fill="#000000" stroke="#000000" points="128.44,-277.9 131.94,-287.9 135.44,-277.9 128.44,-277.9"/>
</g>
<!-- Exception&#45;&gt;Any -->
<g id="edge3" class="edge">
<title>Exception&#45;&gt;Any</title>
<path fill="none" stroke="#000000" d="M131.94,-180.3C131.94,-188.02 131.94,-197.29 131.94,-205.89"/>
<polygon fill="#000000" stroke="#000000" points="128.44,-205.9 131.94,-215.9 135.44,-205.9 128.44,-205.9"/>
</g>
<!-- X::Temporal&#45;&gt;Exception -->
<g id="edge4" class="edge">
<title>X::Temporal&#45;&gt;Exception</title>
<path fill="none" stroke="#000000" d="M166.8,-107.95C161.32,-116.29 154.6,-126.51 148.53,-135.75"/>
<polygon fill="#000000" stroke="#000000" points="145.54,-133.93 142.97,-144.21 151.39,-137.78 145.54,-133.93"/>
</g>
</g>
</svg>
