<?xml version="1.0" encoding="UTF-8" standalone="no"?>
<!DOCTYPE svg PUBLIC "-//W3C//DTD SVG 1.1//EN"
 "http://www.w3.org/Graphics/SVG/1.1/DTD/svg11.dtd">
<!-- Generated by graphviz version 2.42.3 (0)
 -->
<!-- Title: perl6&#45;type&#45;graph Pages: 1 -->
<svg width="318pt" height="174pt"
 viewBox="0.00 0.00 317.72 173.64" xmlns="http://www.w3.org/2000/svg" xmlns:xlink="http://www.w3.org/1999/xlink">
<g id="graph0" class="graph" transform="scale(1 1) rotate(0) translate(4 169.64)">
<title>perl6&#45;type&#45;graph</title>
<polygon fill="white" stroke="transparent" points="-4,4 -4,-169.64 313.72,-169.64 313.72,4 -4,4"/>
<!-- Metamodel::GenericHOW -->
<g id="node1" class="node">
<title>Metamodel::GenericHOW</title>
<g id="a_node1"><a xlink:href="/type/Metamodel::GenericHOW" xlink:title="Metamodel::GenericHOW">
<ellipse fill="none" stroke="#000000" cx="151.68" cy="-91.32" rx="124.28" ry="18"/>
<text text-anchor="middle" x="151.68" y="-87.62" font-family="FreeSans" font-size="14.00" fill="#000000">Metamodel::GenericHOW</text>
</a>
</g>
</g>
<!-- Any -->
<g id="node3" class="node">
<title>Any</title>
<g id="a_node3"><a xlink:href="/type/Any" xlink:title="Any">
<ellipse fill="none" stroke="#000000" cx="213.12" cy="-47.32" rx="28.7" ry="18"/>
<text text-anchor="middle" x="213.12" y="-43.62" font-family="FreeSans" font-size="14.00" fill="#000000">Any</text>
</a>
</g>
</g>
<!-- Metamodel::GenericHOW&#45;&gt;Any -->
<g id="edge1" class="edge">
<title>Metamodel::GenericHOW&#45;&gt;Any</title>
<path fill="none" stroke="#000000" d="M176.31,-73.68C179.43,-71.44 182.64,-69.14 185.8,-66.88"/>
<polygon fill="#000000" stroke="#000000" points="187.87,-69.7 193.96,-61.04 183.79,-64.01 187.87,-69.7"/>
</g>
<!-- Metamodel::Naming -->
<g id="node4" class="node">
<title>Metamodel::Naming</title>
<g id="a_node4"><a xlink:href="/type/Metamodel::Naming" xlink:title="Metamodel::Naming">
<ellipse fill="none" stroke="#6666ff" cx="101.39" cy="-147.64" rx="101.28" ry="18"/>
<text text-anchor="middle" x="101.39" y="-143.94" font-family="FreeSans" font-size="14.00" fill="#6666ff">Metamodel::Naming</text>
</a>
</g>
</g>
<!-- Metamodel::GenericHOW&#45;&gt;Metamodel::Naming -->
<g id="edge3" class="edge">
<title>Metamodel::GenericHOW&#45;&gt;Metamodel::Naming</title>
<path fill="none" stroke="#6666ff" d="M135.49,-109.45C131.9,-113.47 128.03,-117.8 124.23,-122.06"/>
<polygon fill="#6666ff" stroke="#6666ff" points="121.6,-119.75 117.55,-129.54 126.82,-124.42 121.6,-119.75"/>
</g>
<!-- Mu -->
<g id="node2" class="node">
<title>Mu</title>
<g id="a_node2"><a xlink:href="/type/Mu" xlink:title="Mu">
<ellipse fill="none" stroke="#000000" cx="282.72" cy="-18" rx="27" ry="18"/>
<text text-anchor="middle" x="282.72" y="-14.3" font-family="FreeSans" font-size="14.00" fill="#000000">Mu</text>
</a>
</g>
</g>
<!-- Any&#45;&gt;Mu -->
<g id="edge2" class="edge">
<title>Any&#45;&gt;Mu</title>
<path fill="none" stroke="#000000" d="M237.07,-37.23C241.25,-35.47 245.67,-33.61 250.04,-31.76"/>
<polygon fill="#000000" stroke="#000000" points="251.57,-34.92 259.43,-27.81 248.86,-28.47 251.57,-34.92"/>
</g>
</g>
</svg>
