<?xml version="1.0" encoding="UTF-8" standalone="no"?>
<!DOCTYPE svg PUBLIC "-//W3C//DTD SVG 1.1//EN"
 "http://www.w3.org/Graphics/SVG/1.1/DTD/svg11.dtd">
<!-- Generated by graphviz version 2.42.3 (0)
 -->
<!-- Title: perl6&#45;type&#45;graph Pages: 1 -->
<svg width="1266pt" height="332pt"
 viewBox="0.00 0.00 1265.94 332.00" xmlns="http://www.w3.org/2000/svg" xmlns:xlink="http://www.w3.org/1999/xlink">
<g id="graph0" class="graph" transform="scale(1 1) rotate(0) translate(4 328)">
<title>perl6&#45;type&#45;graph</title>
<polygon fill="white" stroke="transparent" points="-4,4 -4,-328 1261.94,-328 1261.94,4 -4,4"/>
<!-- X::Control -->
<g id="node1" class="node">
<title>X::Control</title>
<g id="a_node1"><a xlink:href="/type/X::Control" xlink:title="X::Control">
<ellipse fill="none" stroke="#6666ff" cx="693.3" cy="-90" rx="55.49" ry="18"/>
<text text-anchor="middle" x="693.3" y="-86.3" font-family="FreeSans" font-size="14.00" fill="#6666ff">X::Control</text>
</a>
</g>
</g>
<!-- Exception -->
<g id="node4" class="node">
<title>Exception</title>
<g id="a_node4"><a xlink:href="/type/Exception" xlink:title="Exception">
<ellipse fill="none" stroke="#000000" cx="734.3" cy="-162" rx="55.49" ry="18"/>
<text text-anchor="middle" x="734.3" y="-158.3" font-family="FreeSans" font-size="14.00" fill="#000000">Exception</text>
</a>
</g>
</g>
<!-- X::Control&#45;&gt;Exception -->
<g id="edge1" class="edge">
<title>X::Control&#45;&gt;Exception</title>
<path fill="none" stroke="#000000" d="M703.22,-107.95C708.05,-116.2 713.97,-126.3 719.34,-135.46"/>
<polygon fill="#000000" stroke="#000000" points="716.39,-137.35 724.46,-144.21 722.43,-133.81 716.39,-137.35"/>
</g>
<!-- Mu -->
<g id="node2" class="node">
<title>Mu</title>
<g id="a_node2"><a xlink:href="/type/Mu" xlink:title="Mu">
<ellipse fill="none" stroke="#000000" cx="734.3" cy="-306" rx="27" ry="18"/>
<text text-anchor="middle" x="734.3" y="-302.3" font-family="FreeSans" font-size="14.00" fill="#000000">Mu</text>
</a>
</g>
</g>
<!-- Any -->
<g id="node3" class="node">
<title>Any</title>
<g id="a_node3"><a xlink:href="/type/Any" xlink:title="Any">
<ellipse fill="none" stroke="#000000" cx="734.3" cy="-234" rx="28.7" ry="18"/>
<text text-anchor="middle" x="734.3" y="-230.3" font-family="FreeSans" font-size="14.00" fill="#000000">Any</text>
</a>
</g>
</g>
<!-- Any&#45;&gt;Mu -->
<g id="edge2" class="edge">
<title>Any&#45;&gt;Mu</title>
<path fill="none" stroke="#000000" d="M734.3,-252.3C734.3,-260.02 734.3,-269.29 734.3,-277.89"/>
<polygon fill="#000000" stroke="#000000" points="730.8,-277.9 734.3,-287.9 737.8,-277.9 730.8,-277.9"/>
</g>
<!-- Exception&#45;&gt;Any -->
<g id="edge3" class="edge">
<title>Exception&#45;&gt;Any</title>
<path fill="none" stroke="#000000" d="M734.3,-180.3C734.3,-188.02 734.3,-197.29 734.3,-205.89"/>
<polygon fill="#000000" stroke="#000000" points="730.8,-205.9 734.3,-215.9 737.8,-205.9 730.8,-205.9"/>
</g>
<!-- CX::Warn -->
<g id="node5" class="node">
<title>CX::Warn</title>
<g id="a_node5"><a xlink:href="/type/CX::Warn" xlink:title="CX::Warn">
<ellipse fill="none" stroke="#000000" cx="53.3" cy="-18" rx="53.09" ry="18"/>
<text text-anchor="middle" x="53.3" y="-14.3" font-family="FreeSans" font-size="14.00" fill="#000000">CX::Warn</text>
</a>
</g>
</g>
<!-- CX::Warn&#45;&gt;X::Control -->
<g id="edge15" class="edge">
<title>CX::Warn&#45;&gt;X::Control</title>
<path fill="none" stroke="#6666ff" d="M93.26,-29.96C105.26,-33.25 115.3,-36 115.3,-36 115.3,-36 480.94,-69.53 630.59,-83.25"/>
<polygon fill="#6666ff" stroke="#6666ff" points="630.7,-86.78 640.98,-84.2 631.34,-79.8 630.7,-86.78"/>
</g>
<!-- CX::Warn&#45;&gt;Exception -->
<g id="edge4" class="edge">
<title>CX::Warn&#45;&gt;Exception</title>
<path fill="none" stroke="#000000" d="M91.95,-30.54C172.58,-54.63 351.3,-108 351.3,-108 351.3,-108 566.31,-137.75 674.14,-152.68"/>
<polygon fill="#000000" stroke="#000000" points="673.84,-156.17 684.22,-154.07 674.8,-149.23 673.84,-156.17"/>
</g>
<!-- CX::Succeed -->
<g id="node6" class="node">
<title>CX::Succeed</title>
<g id="a_node6"><a xlink:href="/type/CX::Succeed" xlink:title="CX::Succeed">
<ellipse fill="none" stroke="#000000" cx="192.3" cy="-18" rx="67.69" ry="18"/>
<text text-anchor="middle" x="192.3" y="-14.3" font-family="FreeSans" font-size="14.00" fill="#000000">CX::Succeed</text>
</a>
</g>
</g>
<!-- CX::Succeed&#45;&gt;X::Control -->
<g id="edge16" class="edge">
<title>CX::Succeed&#45;&gt;X::Control</title>
<path fill="none" stroke="#6666ff" d="M242.8,-30.15C257.31,-33.35 269.3,-36 269.3,-36 269.3,-36 514.98,-66.71 632.31,-81.38"/>
<polygon fill="#6666ff" stroke="#6666ff" points="632.22,-84.89 642.57,-82.66 633.08,-77.95 632.22,-84.89"/>
</g>
<!-- CX::Succeed&#45;&gt;Exception -->
<g id="edge5" class="edge">
<title>CX::Succeed&#45;&gt;Exception</title>
<path fill="none" stroke="#000000" d="M232.37,-32.61C305.77,-57.55 454.3,-108 454.3,-108 454.3,-108 596.05,-134.83 677.84,-150.31"/>
<polygon fill="#000000" stroke="#000000" points="677.27,-153.77 687.74,-152.19 678.57,-146.89 677.27,-153.77"/>
</g>
<!-- CX::Last -->
<g id="node7" class="node">
<title>CX::Last</title>
<g id="a_node7"><a xlink:href="/type/CX::Last" xlink:title="CX::Last">
<ellipse fill="none" stroke="#000000" cx="326.3" cy="-18" rx="48.19" ry="18"/>
<text text-anchor="middle" x="326.3" y="-14.3" font-family="FreeSans" font-size="14.00" fill="#000000">CX::Last</text>
</a>
</g>
</g>
<!-- CX::Last&#45;&gt;X::Control -->
<g id="edge17" class="edge">
<title>CX::Last&#45;&gt;X::Control</title>
<path fill="none" stroke="#6666ff" d="M362.72,-29.86C373.89,-33.19 383.3,-36 383.3,-36 383.3,-36 545.81,-63.79 635.5,-79.12"/>
<polygon fill="#6666ff" stroke="#6666ff" points="635.09,-82.6 645.54,-80.83 636.27,-75.7 635.09,-82.6"/>
</g>
<!-- CX::Last&#45;&gt;Exception -->
<g id="edge6" class="edge">
<title>CX::Last&#45;&gt;Exception</title>
<path fill="none" stroke="#000000" d="M357.12,-31.94C415.92,-56.63 538.3,-108 538.3,-108 538.3,-108 625.37,-131.55 683.44,-147.25"/>
<polygon fill="#000000" stroke="#000000" points="682.64,-150.66 693.21,-149.89 684.47,-143.9 682.64,-150.66"/>
</g>
<!-- CX::Emit -->
<g id="node8" class="node">
<title>CX::Emit</title>
<g id="a_node8"><a xlink:href="/type/CX::Emit" xlink:title="CX::Emit">
<ellipse fill="none" stroke="#000000" cx="442.3" cy="-18" rx="50.09" ry="18"/>
<text text-anchor="middle" x="442.3" y="-14.3" font-family="FreeSans" font-size="14.00" fill="#000000">CX::Emit</text>
</a>
</g>
</g>
<!-- CX::Emit&#45;&gt;X::Control -->
<g id="edge18" class="edge">
<title>CX::Emit&#45;&gt;X::Control</title>
<path fill="none" stroke="#6666ff" d="M479.99,-29.86C491.56,-33.19 501.3,-36 501.3,-36 501.3,-36 585.77,-59.32 642.65,-75.02"/>
<polygon fill="#6666ff" stroke="#6666ff" points="642.01,-78.47 652.58,-77.76 643.87,-71.73 642.01,-78.47"/>
</g>
<!-- CX::Emit&#45;&gt;Exception -->
<g id="edge7" class="edge">
<title>CX::Emit&#45;&gt;Exception</title>
<path fill="none" stroke="#000000" d="M468.52,-33.5C514.14,-58.72 603.3,-108 603.3,-108 603.3,-108 653.26,-128.21 691.47,-143.68"/>
<polygon fill="#000000" stroke="#000000" points="690.32,-146.98 700.9,-147.49 692.94,-140.49 690.32,-146.98"/>
</g>
<!-- CX::Return -->
<g id="node9" class="node">
<title>CX::Return</title>
<g id="a_node9"><a xlink:href="/type/CX::Return" xlink:title="CX::Return">
<ellipse fill="none" stroke="#000000" cx="570.3" cy="-18" rx="59.59" ry="18"/>
<text text-anchor="middle" x="570.3" y="-14.3" font-family="FreeSans" font-size="14.00" fill="#000000">CX::Return</text>
</a>
</g>
</g>
<!-- CX::Return&#45;&gt;X::Control -->
<g id="edge19" class="edge">
<title>CX::Return&#45;&gt;X::Control</title>
<path fill="none" stroke="#6666ff" d="M596.98,-34.19C614.92,-44.39 638.74,-57.95 658.2,-69.03"/>
<polygon fill="#6666ff" stroke="#6666ff" points="656.66,-72.18 667.08,-74.08 660.12,-66.09 656.66,-72.18"/>
</g>
<!-- CX::Return&#45;&gt;Exception -->
<g id="edge8" class="edge">
<title>CX::Return&#45;&gt;Exception</title>
<path fill="none" stroke="#000000" d="M581.39,-35.74C598.48,-61.52 629.3,-108 629.3,-108 629.3,-108 666.43,-126.75 696.54,-141.94"/>
<polygon fill="#000000" stroke="#000000" points="695.1,-145.14 705.6,-146.52 698.25,-138.89 695.1,-145.14"/>
</g>
<!-- CX::Proceed -->
<g id="node10" class="node">
<title>CX::Proceed</title>
<g id="a_node10"><a xlink:href="/type/CX::Proceed" xlink:title="CX::Proceed">
<ellipse fill="none" stroke="#000000" cx="713.3" cy="-18" rx="64.99" ry="18"/>
<text text-anchor="middle" x="713.3" y="-14.3" font-family="FreeSans" font-size="14.00" fill="#000000">CX::Proceed</text>
</a>
</g>
</g>
<!-- CX::Proceed&#45;&gt;X::Control -->
<g id="edge20" class="edge">
<title>CX::Proceed&#45;&gt;X::Control</title>
<path fill="none" stroke="#6666ff" d="M708.35,-36.3C706.12,-44.1 703.44,-53.49 700.96,-62.17"/>
<polygon fill="#6666ff" stroke="#6666ff" points="697.56,-61.32 698.18,-71.9 704.29,-63.24 697.56,-61.32"/>
</g>
<!-- CX::Proceed&#45;&gt;Exception -->
<g id="edge9" class="edge">
<title>CX::Proceed&#45;&gt;Exception</title>
<path fill="none" stroke="#000000" d="M727.22,-35.77C740.11,-51.3 757.3,-72 757.3,-72 757.3,-72 757.3,-108 757.3,-108 757.3,-108 751.55,-121.24 745.8,-134.48"/>
<polygon fill="#000000" stroke="#000000" points="742.47,-133.37 741.7,-143.94 748.89,-136.16 742.47,-133.37"/>
</g>
<!-- CX::Next -->
<g id="node11" class="node">
<title>CX::Next</title>
<g id="a_node11"><a xlink:href="/type/CX::Next" xlink:title="CX::Next">
<ellipse fill="none" stroke="#000000" cx="846.3" cy="-18" rx="50.09" ry="18"/>
<text text-anchor="middle" x="846.3" y="-14.3" font-family="FreeSans" font-size="14.00" fill="#000000">CX::Next</text>
</a>
</g>
</g>
<!-- CX::Next&#45;&gt;X::Control -->
<g id="edge21" class="edge">
<title>CX::Next&#45;&gt;X::Control</title>
<path fill="none" stroke="#6666ff" d="M816.43,-32.66C792.73,-43.51 759.37,-58.77 733.35,-70.67"/>
<polygon fill="#6666ff" stroke="#6666ff" points="731.77,-67.55 724.13,-74.89 734.68,-73.91 731.77,-67.55"/>
</g>
<!-- CX::Next&#45;&gt;Exception -->
<g id="edge10" class="edge">
<title>CX::Next&#45;&gt;Exception</title>
<path fill="none" stroke="#000000" d="M833.23,-35.57C813.69,-60.34 776.73,-107.2 753.93,-136.1"/>
<polygon fill="#000000" stroke="#000000" points="751.07,-134.08 747.63,-144.1 756.57,-138.41 751.07,-134.08"/>
</g>
<!-- CX::Redo -->
<g id="node12" class="node">
<title>CX::Redo</title>
<g id="a_node12"><a xlink:href="/type/CX::Redo" xlink:title="CX::Redo">
<ellipse fill="none" stroke="#000000" cx="966.3" cy="-18" rx="51.99" ry="18"/>
<text text-anchor="middle" x="966.3" y="-14.3" font-family="FreeSans" font-size="14.00" fill="#000000">CX::Redo</text>
</a>
</g>
</g>
<!-- CX::Redo&#45;&gt;X::Control -->
<g id="edge22" class="edge">
<title>CX::Redo&#45;&gt;X::Control</title>
<path fill="none" stroke="#6666ff" d="M923.73,-28.59C909.04,-32.45 896.3,-36 896.3,-36 896.3,-36 803.29,-59.25 743.1,-74.95"/>
<polygon fill="#6666ff" stroke="#6666ff" points="742.16,-71.58 733.37,-77.5 743.93,-78.35 742.16,-71.58"/>
</g>
<!-- CX::Redo&#45;&gt;X::Control -->
<g id="edge23" class="edge">
<title>CX::Redo&#45;&gt;X::Control</title>
<path fill="none" stroke="#6666ff" d="M930.91,-31.26C921.67,-33.95 914.3,-36 914.3,-36 914.3,-36 813.04,-61.31 747.52,-76.95"/>
<polygon fill="#6666ff" stroke="#6666ff" points="746.65,-73.56 737.73,-79.28 748.27,-80.37 746.65,-73.56"/>
</g>
<!-- CX::Redo&#45;&gt;Exception -->
<g id="edge11" class="edge">
<title>CX::Redo&#45;&gt;Exception</title>
<path fill="none" stroke="#000000" d="M938.5,-33.4C894.41,-58.52 809.32,-110.46 764.06,-139.73"/>
<polygon fill="#000000" stroke="#000000" points="762.03,-136.88 755.56,-145.27 765.85,-142.74 762.03,-136.88"/>
</g>
<!-- CX::Redo&#45;&gt;Exception -->
<g id="edge12" class="edge">
<title>CX::Redo&#45;&gt;Exception</title>
<path fill="none" stroke="#000000" d="M945.01,-34.74C905.32,-60.84 820.19,-113.03 771.06,-141.45"/>
<polygon fill="#000000" stroke="#000000" points="769.25,-138.45 762.32,-146.47 772.74,-144.52 769.25,-138.45"/>
</g>
<!-- CX::Take -->
<g id="node13" class="node">
<title>CX::Take</title>
<g id="a_node13"><a xlink:href="/type/CX::Take" xlink:title="CX::Take">
<ellipse fill="none" stroke="#000000" cx="1085.3" cy="-18" rx="49.29" ry="18"/>
<text text-anchor="middle" x="1085.3" y="-14.3" font-family="FreeSans" font-size="14.00" fill="#000000">CX::Take</text>
</a>
</g>
</g>
<!-- CX::Take&#45;&gt;X::Control -->
<g id="edge24" class="edge">
<title>CX::Take&#45;&gt;X::Control</title>
<path fill="none" stroke="#6666ff" d="M1047.91,-29.96C1036.68,-33.25 1027.3,-36 1027.3,-36 1027.3,-36 847.81,-64.48 751.99,-79.69"/>
<polygon fill="#6666ff" stroke="#6666ff" points="751.19,-76.27 741.86,-81.29 752.29,-83.18 751.19,-76.27"/>
</g>
<!-- CX::Take&#45;&gt;Exception -->
<g id="edge13" class="edge">
<title>CX::Take&#45;&gt;Exception</title>
<path fill="none" stroke="#000000" d="M1054.16,-32.13C995.47,-56.89 874.3,-108 874.3,-108 874.3,-108 819.5,-128.74 778.47,-144.28"/>
<polygon fill="#000000" stroke="#000000" points="777.02,-141.09 768.9,-147.9 779.49,-147.63 777.02,-141.09"/>
</g>
<!-- CX::Done -->
<g id="node14" class="node">
<title>CX::Done</title>
<g id="a_node14"><a xlink:href="/type/CX::Done" xlink:title="CX::Done">
<ellipse fill="none" stroke="#000000" cx="1205.3" cy="-18" rx="52.79" ry="18"/>
<text text-anchor="middle" x="1205.3" y="-14.3" font-family="FreeSans" font-size="14.00" fill="#000000">CX::Done</text>
</a>
</g>
</g>
<!-- CX::Done&#45;&gt;X::Control -->
<g id="edge25" class="edge">
<title>CX::Done&#45;&gt;X::Control</title>
<path fill="none" stroke="#6666ff" d="M1165.68,-29.86C1153.53,-33.19 1143.3,-36 1143.3,-36 1143.3,-36 877.57,-67.3 754.51,-81.79"/>
<polygon fill="#6666ff" stroke="#6666ff" points="754,-78.33 744.48,-82.97 754.82,-85.28 754,-78.33"/>
</g>
<!-- CX::Done&#45;&gt;Exception -->
<g id="edge14" class="edge">
<title>CX::Done&#45;&gt;Exception</title>
<path fill="none" stroke="#000000" d="M1168.23,-30.91C1092.75,-55.16 928.3,-108 928.3,-108 928.3,-108 842.59,-131.41 785.11,-147.12"/>
<polygon fill="#000000" stroke="#000000" points="784.16,-143.75 775.44,-149.76 786.01,-150.5 784.16,-143.75"/>
</g>
</g>
</svg>
