<?xml version="1.0" encoding="UTF-8" standalone="no"?>
<!DOCTYPE svg PUBLIC "-//W3C//DTD SVG 1.1//EN"
 "http://www.w3.org/Graphics/SVG/1.1/DTD/svg11.dtd">
<!-- Generated by graphviz version 2.42.3 (0)
 -->
<!-- Title: perl6&#45;type&#45;graph Pages: 1 -->
<svg width="384pt" height="404pt"
 viewBox="0.00 0.00 383.67 404.00" xmlns="http://www.w3.org/2000/svg" xmlns:xlink="http://www.w3.org/1999/xlink">
<g id="graph0" class="graph" transform="scale(1 1) rotate(0) translate(4 400)">
<title>perl6&#45;type&#45;graph</title>
<polygon fill="white" stroke="transparent" points="-4,4 -4,-400 379.67,-400 379.67,4 -4,4"/>
<!-- X::Syntax::Variable::IndirectDeclaration -->
<g id="node1" class="node">
<title>X::Syntax::Variable::IndirectDeclaration</title>
<g id="a_node1"><a xlink:href="/type/X::Syntax::Variable::IndirectDeclaration" xlink:title="X::Syntax::Variable::IndirectDeclaration">
<ellipse fill="none" stroke="#000000" cx="187.83" cy="-18" rx="187.67" ry="18"/>
<text text-anchor="middle" x="187.83" y="-14.3" font-family="FreeSans" font-size="14.00" fill="#000000">X::Syntax::Variable::IndirectDeclaration</text>
</a>
</g>
</g>
<!-- Exception -->
<g id="node4" class="node">
<title>Exception</title>
<g id="a_node4"><a xlink:href="/type/Exception" xlink:title="Exception">
<ellipse fill="none" stroke="#000000" cx="184.83" cy="-234" rx="55.49" ry="18"/>
<text text-anchor="middle" x="184.83" y="-230.3" font-family="FreeSans" font-size="14.00" fill="#000000">Exception</text>
</a>
</g>
</g>
<!-- X::Syntax::Variable::IndirectDeclaration&#45;&gt;Exception -->
<g id="edge1" class="edge">
<title>X::Syntax::Variable::IndirectDeclaration&#45;&gt;Exception</title>
<path fill="none" stroke="#000000" d="M180.75,-36.06C174.32,-51.55 165.83,-72 165.83,-72 165.83,-72 165.83,-108 165.83,-108 165.83,-108 175.11,-169.01 180.7,-205.78"/>
<polygon fill="#000000" stroke="#000000" points="177.27,-206.52 182.23,-215.88 184.19,-205.47 177.27,-206.52"/>
</g>
<!-- X::Syntax -->
<g id="node6" class="node">
<title>X::Syntax</title>
<g id="a_node6"><a xlink:href="/type/X::Syntax" xlink:title="X::Syntax">
<ellipse fill="none" stroke="#6666ff" cx="228.83" cy="-90" rx="53.89" ry="18"/>
<text text-anchor="middle" x="228.83" y="-86.3" font-family="FreeSans" font-size="14.00" fill="#6666ff">X::Syntax</text>
</a>
</g>
</g>
<!-- X::Syntax::Variable::IndirectDeclaration&#45;&gt;X::Syntax -->
<g id="edge6" class="edge">
<title>X::Syntax::Variable::IndirectDeclaration&#45;&gt;X::Syntax</title>
<path fill="none" stroke="#6666ff" d="M197.97,-36.3C202.68,-44.36 208.4,-54.11 213.62,-63.02"/>
<polygon fill="#6666ff" stroke="#6666ff" points="210.74,-65.04 218.82,-71.9 216.78,-61.5 210.74,-65.04"/>
</g>
<!-- Mu -->
<g id="node2" class="node">
<title>Mu</title>
<g id="a_node2"><a xlink:href="/type/Mu" xlink:title="Mu">
<ellipse fill="none" stroke="#000000" cx="184.83" cy="-378" rx="27" ry="18"/>
<text text-anchor="middle" x="184.83" y="-374.3" font-family="FreeSans" font-size="14.00" fill="#000000">Mu</text>
</a>
</g>
</g>
<!-- Any -->
<g id="node3" class="node">
<title>Any</title>
<g id="a_node3"><a xlink:href="/type/Any" xlink:title="Any">
<ellipse fill="none" stroke="#000000" cx="184.83" cy="-306" rx="28.7" ry="18"/>
<text text-anchor="middle" x="184.83" y="-302.3" font-family="FreeSans" font-size="14.00" fill="#000000">Any</text>
</a>
</g>
</g>
<!-- Any&#45;&gt;Mu -->
<g id="edge2" class="edge">
<title>Any&#45;&gt;Mu</title>
<path fill="none" stroke="#000000" d="M184.83,-324.3C184.83,-332.02 184.83,-341.29 184.83,-349.89"/>
<polygon fill="#000000" stroke="#000000" points="181.33,-349.9 184.83,-359.9 188.33,-349.9 181.33,-349.9"/>
</g>
<!-- Exception&#45;&gt;Any -->
<g id="edge3" class="edge">
<title>Exception&#45;&gt;Any</title>
<path fill="none" stroke="#000000" d="M184.83,-252.3C184.83,-260.02 184.83,-269.29 184.83,-277.89"/>
<polygon fill="#000000" stroke="#000000" points="181.33,-277.9 184.83,-287.9 188.33,-277.9 181.33,-277.9"/>
</g>
<!-- X::Comp -->
<g id="node5" class="node">
<title>X::Comp</title>
<g id="a_node5"><a xlink:href="/type/X::Comp" xlink:title="X::Comp">
<ellipse fill="none" stroke="#6666ff" cx="261.83" cy="-162" rx="49.29" ry="18"/>
<text text-anchor="middle" x="261.83" y="-158.3" font-family="FreeSans" font-size="14.00" fill="#6666ff">X::Comp</text>
</a>
</g>
</g>
<!-- X::Comp&#45;&gt;Exception -->
<g id="edge4" class="edge">
<title>X::Comp&#45;&gt;Exception</title>
<path fill="none" stroke="#000000" d="M244.36,-178.88C234.19,-188.13 221.21,-199.93 209.96,-210.16"/>
<polygon fill="#000000" stroke="#000000" points="207.55,-207.62 202.5,-216.94 212.26,-212.8 207.55,-207.62"/>
</g>
<!-- X::Syntax&#45;&gt;Exception -->
<g id="edge5" class="edge">
<title>X::Syntax&#45;&gt;Exception</title>
<path fill="none" stroke="#000000" d="M220.79,-108.06C213.48,-123.55 203.83,-144 203.83,-144 203.83,-144 196.18,-179.83 190.59,-206.03"/>
<polygon fill="#000000" stroke="#000000" points="187.16,-205.33 188.5,-215.84 194.01,-206.79 187.16,-205.33"/>
</g>
<!-- X::Syntax&#45;&gt;X::Comp -->
<g id="edge7" class="edge">
<title>X::Syntax&#45;&gt;X::Comp</title>
<path fill="none" stroke="#6666ff" d="M236.82,-107.95C240.63,-116.03 245.28,-125.88 249.52,-134.89"/>
<polygon fill="#6666ff" stroke="#6666ff" points="246.49,-136.66 253.92,-144.21 252.82,-133.67 246.49,-136.66"/>
</g>
</g>
</svg>
