<?xml version="1.0" encoding="UTF-8" standalone="no"?>
<!DOCTYPE svg PUBLIC "-//W3C//DTD SVG 1.1//EN"
 "http://www.w3.org/Graphics/SVG/1.1/DTD/svg11.dtd">
<!-- Generated by graphviz version 2.42.3 (0)
 -->
<!-- Title: perl6&#45;type&#45;graph Pages: 1 -->
<svg width="367pt" height="404pt"
 viewBox="0.00 0.00 366.83 404.00" xmlns="http://www.w3.org/2000/svg" xmlns:xlink="http://www.w3.org/1999/xlink">
<g id="graph0" class="graph" transform="scale(1 1) rotate(0) translate(4 400)">
<title>perl6&#45;type&#45;graph</title>
<polygon fill="white" stroke="transparent" points="-4,4 -4,-400 362.83,-400 362.83,4 -4,4"/>
<!-- X::Syntax::Pod::BeginWithoutEnd -->
<g id="node1" class="node">
<title>X::Syntax::Pod::BeginWithoutEnd</title>
<g id="a_node1"><a xlink:href="/type/X::Syntax::Pod::BeginWithoutEnd" xlink:title="X::Syntax::Pod::BeginWithoutEnd">
<ellipse fill="none" stroke="#000000" cx="161.19" cy="-18" rx="161.37" ry="18"/>
<text text-anchor="middle" x="161.19" y="-14.3" font-family="FreeSans" font-size="14.00" fill="#000000">X::Syntax::Pod::BeginWithoutEnd</text>
</a>
</g>
</g>
<!-- Exception -->
<g id="node4" class="node">
<title>Exception</title>
<g id="a_node4"><a xlink:href="/type/Exception" xlink:title="Exception">
<ellipse fill="none" stroke="#000000" cx="139.19" cy="-234" rx="55.49" ry="18"/>
<text text-anchor="middle" x="139.19" y="-230.3" font-family="FreeSans" font-size="14.00" fill="#000000">Exception</text>
</a>
</g>
</g>
<!-- X::Syntax::Pod::BeginWithoutEnd&#45;&gt;Exception -->
<g id="edge1" class="edge">
<title>X::Syntax::Pod::BeginWithoutEnd&#45;&gt;Exception</title>
<path fill="none" stroke="#000000" d="M148.87,-36.06C141.74,-51.55 135.19,-72 135.19,-72 135.19,-72 132.46,-159.62 134.65,-205.59"/>
<polygon fill="#000000" stroke="#000000" points="131.17,-206 135.27,-215.77 138.16,-205.57 131.17,-206"/>
</g>
<!-- X::Syntax::Pod::BeginWithoutEnd&#45;&gt;Exception -->
<g id="edge2" class="edge">
<title>X::Syntax::Pod::BeginWithoutEnd&#45;&gt;Exception</title>
<path fill="none" stroke="#000000" d="M162.56,-36.06C159.74,-51.55 153.19,-72 153.19,-72 153.19,-72 150.46,-159.62 145.42,-205.59"/>
<polygon fill="#000000" stroke="#000000" points="141.92,-205.42 144.17,-215.77 148.87,-206.27 141.92,-205.42"/>
</g>
<!-- X::Syntax -->
<g id="node6" class="node">
<title>X::Syntax</title>
<g id="a_node6"><a xlink:href="/type/X::Syntax" xlink:title="X::Syntax">
<ellipse fill="none" stroke="#6666ff" cx="207.19" cy="-90" rx="53.89" ry="18"/>
<text text-anchor="middle" x="207.19" y="-86.3" font-family="FreeSans" font-size="14.00" fill="#6666ff">X::Syntax</text>
</a>
</g>
</g>
<!-- X::Syntax::Pod::BeginWithoutEnd&#45;&gt;X::Syntax -->
<g id="edge7" class="edge">
<title>X::Syntax::Pod::BeginWithoutEnd&#45;&gt;X::Syntax</title>
<path fill="none" stroke="#6666ff" d="M172.56,-36.3C177.9,-44.44 184.39,-54.31 190.3,-63.3"/>
<polygon fill="#6666ff" stroke="#6666ff" points="187.53,-65.46 195.95,-71.9 193.38,-61.62 187.53,-65.46"/>
</g>
<!-- X::Pod -->
<g id="node7" class="node">
<title>X::Pod</title>
<g id="a_node7"><a xlink:href="/type/X::Pod" xlink:title="X::Pod">
<ellipse fill="none" stroke="#6666ff" cx="319.19" cy="-90" rx="39.79" ry="18"/>
<text text-anchor="middle" x="319.19" y="-86.3" font-family="FreeSans" font-size="14.00" fill="#6666ff">X::Pod</text>
</a>
</g>
</g>
<!-- X::Syntax::Pod::BeginWithoutEnd&#45;&gt;X::Pod -->
<g id="edge8" class="edge">
<title>X::Syntax::Pod::BeginWithoutEnd&#45;&gt;X::Pod</title>
<path fill="none" stroke="#6666ff" d="M198.63,-35.59C224.04,-46.85 257.46,-61.65 282.67,-72.82"/>
<polygon fill="#6666ff" stroke="#6666ff" points="281.34,-76.06 291.9,-76.91 284.17,-69.66 281.34,-76.06"/>
</g>
<!-- Mu -->
<g id="node2" class="node">
<title>Mu</title>
<g id="a_node2"><a xlink:href="/type/Mu" xlink:title="Mu">
<ellipse fill="none" stroke="#000000" cx="139.19" cy="-378" rx="27" ry="18"/>
<text text-anchor="middle" x="139.19" y="-374.3" font-family="FreeSans" font-size="14.00" fill="#000000">Mu</text>
</a>
</g>
</g>
<!-- Any -->
<g id="node3" class="node">
<title>Any</title>
<g id="a_node3"><a xlink:href="/type/Any" xlink:title="Any">
<ellipse fill="none" stroke="#000000" cx="139.19" cy="-306" rx="28.7" ry="18"/>
<text text-anchor="middle" x="139.19" y="-302.3" font-family="FreeSans" font-size="14.00" fill="#000000">Any</text>
</a>
</g>
</g>
<!-- Any&#45;&gt;Mu -->
<g id="edge3" class="edge">
<title>Any&#45;&gt;Mu</title>
<path fill="none" stroke="#000000" d="M139.19,-324.3C139.19,-332.02 139.19,-341.29 139.19,-349.89"/>
<polygon fill="#000000" stroke="#000000" points="135.69,-349.9 139.19,-359.9 142.69,-349.9 135.69,-349.9"/>
</g>
<!-- Exception&#45;&gt;Any -->
<g id="edge4" class="edge">
<title>Exception&#45;&gt;Any</title>
<path fill="none" stroke="#000000" d="M139.19,-252.3C139.19,-260.02 139.19,-269.29 139.19,-277.89"/>
<polygon fill="#000000" stroke="#000000" points="135.69,-277.9 139.19,-287.9 142.69,-277.9 135.69,-277.9"/>
</g>
<!-- X::Comp -->
<g id="node5" class="node">
<title>X::Comp</title>
<g id="a_node5"><a xlink:href="/type/X::Comp" xlink:title="X::Comp">
<ellipse fill="none" stroke="#6666ff" cx="240.19" cy="-162" rx="49.29" ry="18"/>
<text text-anchor="middle" x="240.19" y="-158.3" font-family="FreeSans" font-size="14.00" fill="#6666ff">X::Comp</text>
</a>
</g>
</g>
<!-- X::Comp&#45;&gt;Exception -->
<g id="edge5" class="edge">
<title>X::Comp&#45;&gt;Exception</title>
<path fill="none" stroke="#000000" d="M218.27,-178.19C204.17,-187.96 185.64,-200.8 170.06,-211.6"/>
<polygon fill="#000000" stroke="#000000" points="167.98,-208.78 161.76,-217.36 171.97,-214.54 167.98,-208.78"/>
</g>
<!-- X::Syntax&#45;&gt;Exception -->
<g id="edge6" class="edge">
<title>X::Syntax&#45;&gt;Exception</title>
<path fill="none" stroke="#000000" d="M199.12,-107.85C187.36,-132.4 165.41,-178.23 151.59,-207.09"/>
<polygon fill="#000000" stroke="#000000" points="148.41,-205.64 147.24,-216.18 154.72,-208.67 148.41,-205.64"/>
</g>
<!-- X::Syntax&#45;&gt;X::Comp -->
<g id="edge9" class="edge">
<title>X::Syntax&#45;&gt;X::Comp</title>
<path fill="none" stroke="#6666ff" d="M215.17,-107.95C218.98,-116.03 223.63,-125.88 227.88,-134.89"/>
<polygon fill="#6666ff" stroke="#6666ff" points="224.84,-136.66 232.27,-144.21 231.17,-133.67 224.84,-136.66"/>
</g>
</g>
</svg>
