<?xml version="1.0" encoding="UTF-8" standalone="no"?>
<!DOCTYPE svg PUBLIC "-//W3C//DTD SVG 1.1//EN"
 "http://www.w3.org/Graphics/SVG/1.1/DTD/svg11.dtd">
<!-- Generated by graphviz version 2.42.3 (0)
 -->
<!-- Title: perl6&#45;type&#45;graph Pages: 1 -->
<svg width="1400pt" height="1533pt"
 viewBox="0.00 0.00 1400.14 1532.62" xmlns="http://www.w3.org/2000/svg" xmlns:xlink="http://www.w3.org/1999/xlink">
<g id="graph0" class="graph" transform="scale(1 1) rotate(0) translate(4 1528.62)">
<title>perl6&#45;type&#45;graph</title>
<polygon fill="white" stroke="transparent" points="-4,4 -4,-1528.62 1396.14,-1528.62 1396.14,4 -4,4"/>
<!-- Metamodel::ParametricRoleHOW -->
<g id="node1" class="node">
<title>Metamodel::ParametricRoleHOW</title>
<g id="a_node1"><a xlink:href="/type/Metamodel::ParametricRoleHOW" xlink:title="Metamodel::ParametricRoleHOW">
<ellipse fill="none" stroke="#000000" cx="685.06" cy="-988.97" rx="157.07" ry="18"/>
<text text-anchor="middle" x="685.06" y="-985.27" font-family="FreeSans" font-size="14.00" fill="#000000">Metamodel::ParametricRoleHOW</text>
</a>
</g>
</g>
<!-- Any -->
<g id="node3" class="node">
<title>Any</title>
<g id="a_node3"><a xlink:href="/type/Any" xlink:title="Any">
<ellipse fill="none" stroke="#000000" cx="934.38" cy="-440.14" rx="28.7" ry="18"/>
<text text-anchor="middle" x="934.38" y="-436.44" font-family="FreeSans" font-size="14.00" fill="#000000">Any</text>
</a>
</g>
</g>
<!-- Metamodel::ParametricRoleHOW&#45;&gt;Any -->
<g id="edge1" class="edge">
<title>Metamodel::ParametricRoleHOW&#45;&gt;Any</title>
<path fill="none" stroke="#000000" d="M693.36,-970.71C730.12,-889.78 878.46,-563.23 922.19,-466.97"/>
<polygon fill="#000000" stroke="#000000" points="925.48,-468.19 926.43,-457.64 919.1,-465.29 925.48,-468.19"/>
</g>
<!-- Metamodel::Naming -->
<g id="node4" class="node">
<title>Metamodel::Naming</title>
<g id="a_node4"><a xlink:href="/type/Metamodel::Naming" xlink:title="Metamodel::Naming">
<ellipse fill="none" stroke="#6666ff" cx="406.29" cy="-1438.46" rx="101.28" ry="18"/>
<text text-anchor="middle" x="406.29" y="-1434.76" font-family="FreeSans" font-size="14.00" fill="#6666ff">Metamodel::Naming</text>
</a>
</g>
</g>
<!-- Metamodel::ParametricRoleHOW&#45;&gt;Metamodel::Naming -->
<g id="edge3" class="edge">
<title>Metamodel::ParametricRoleHOW&#45;&gt;Metamodel::Naming</title>
<path fill="none" stroke="#6666ff" d="M673.79,-1007.15C630.39,-1077.12 474.01,-1329.28 422.71,-1411.99"/>
<polygon fill="#6666ff" stroke="#6666ff" points="419.7,-1410.21 417.4,-1420.55 425.64,-1413.9 419.7,-1410.21"/>
</g>
<!-- Metamodel::Documenting -->
<g id="node5" class="node">
<title>Metamodel::Documenting</title>
<g id="a_node5"><a xlink:href="/type/Metamodel::Documenting" xlink:title="Metamodel::Documenting">
<ellipse fill="none" stroke="#6666ff" cx="1074.21" cy="-1315.76" rx="126.98" ry="18"/>
<text text-anchor="middle" x="1074.21" y="-1312.06" font-family="FreeSans" font-size="14.00" fill="#6666ff">Metamodel::Documenting</text>
</a>
</g>
</g>
<!-- Metamodel::ParametricRoleHOW&#45;&gt;Metamodel::Documenting -->
<g id="edge4" class="edge">
<title>Metamodel::ParametricRoleHOW&#45;&gt;Metamodel::Documenting</title>
<path fill="none" stroke="#6666ff" d="M706.54,-1007C772.18,-1062.13 970.25,-1228.46 1045.12,-1291.33"/>
<polygon fill="#6666ff" stroke="#6666ff" points="1042.89,-1294.03 1052.8,-1297.78 1047.39,-1288.67 1042.89,-1294.03"/>
</g>
<!-- Metamodel::Versioning -->
<g id="node6" class="node">
<title>Metamodel::Versioning</title>
<g id="a_node6"><a xlink:href="/type/Metamodel::Versioning" xlink:title="Metamodel::Versioning">
<ellipse fill="none" stroke="#6666ff" cx="234.86" cy="-1253.65" rx="114.28" ry="18"/>
<text text-anchor="middle" x="234.86" y="-1249.95" font-family="FreeSans" font-size="14.00" fill="#6666ff">Metamodel::Versioning</text>
</a>
</g>
</g>
<!-- Metamodel::ParametricRoleHOW&#45;&gt;Metamodel::Versioning -->
<g id="edge5" class="edge">
<title>Metamodel::ParametricRoleHOW&#45;&gt;Metamodel::Versioning</title>
<path fill="none" stroke="#6666ff" d="M654.82,-1006.75C575.52,-1053.37 361.59,-1179.14 273.54,-1230.91"/>
<polygon fill="#6666ff" stroke="#6666ff" points="271.52,-1228.03 264.67,-1236.12 275.07,-1234.07 271.52,-1228.03"/>
</g>
<!-- Metamodel::MethodContainer -->
<g id="node7" class="node">
<title>Metamodel::MethodContainer</title>
<g id="a_node7"><a xlink:href="/type/Metamodel::MethodContainer" xlink:title="Metamodel::MethodContainer">
<ellipse fill="none" stroke="#6666ff" cx="199.84" cy="-771.55" rx="143.77" ry="18"/>
<text text-anchor="middle" x="199.84" y="-767.85" font-family="FreeSans" font-size="14.00" fill="#6666ff">Metamodel::MethodContainer</text>
</a>
</g>
</g>
<!-- Metamodel::ParametricRoleHOW&#45;&gt;Metamodel::MethodContainer -->
<g id="edge6" class="edge">
<title>Metamodel::ParametricRoleHOW&#45;&gt;Metamodel::MethodContainer</title>
<path fill="none" stroke="#6666ff" d="M645.77,-971.36C557.55,-931.83 344.03,-836.16 248.02,-793.13"/>
<polygon fill="#6666ff" stroke="#6666ff" points="249.38,-789.91 238.83,-789.02 246.52,-796.3 249.38,-789.91"/>
</g>
<!-- Metamodel::PrivateMethodContainer -->
<g id="node8" class="node">
<title>Metamodel::PrivateMethodContainer</title>
<g id="a_node8"><a xlink:href="/type/Metamodel::PrivateMethodContainer" xlink:title="Metamodel::PrivateMethodContainer">
<ellipse fill="none" stroke="#6666ff" cx="1217.3" cy="-852.28" rx="174.67" ry="18"/>
<text text-anchor="middle" x="1217.3" y="-848.58" font-family="FreeSans" font-size="14.00" fill="#6666ff">Metamodel::PrivateMethodContainer</text>
</a>
</g>
</g>
<!-- Metamodel::ParametricRoleHOW&#45;&gt;Metamodel::PrivateMethodContainer -->
<g id="edge7" class="edge">
<title>Metamodel::ParametricRoleHOW&#45;&gt;Metamodel::PrivateMethodContainer</title>
<path fill="none" stroke="#6666ff" d="M749.26,-972.48C848.1,-947.1 1037.07,-898.57 1142.14,-871.58"/>
<polygon fill="#6666ff" stroke="#6666ff" points="1143.23,-874.92 1152.04,-869.04 1141.49,-868.14 1143.23,-874.92"/>
</g>
<!-- Metamodel::MultiMethodContainer -->
<g id="node9" class="node">
<title>Metamodel::MultiMethodContainer</title>
<g id="a_node9"><a xlink:href="/type/Metamodel::MultiMethodContainer" xlink:title="Metamodel::MultiMethodContainer">
<ellipse fill="none" stroke="#6666ff" cx="343.77" cy="-566.53" rx="165.97" ry="18"/>
<text text-anchor="middle" x="343.77" y="-562.83" font-family="FreeSans" font-size="14.00" fill="#6666ff">Metamodel::MultiMethodContainer</text>
</a>
</g>
</g>
<!-- Metamodel::ParametricRoleHOW&#45;&gt;Metamodel::MultiMethodContainer -->
<g id="edge8" class="edge">
<title>Metamodel::ParametricRoleHOW&#45;&gt;Metamodel::MultiMethodContainer</title>
<path fill="none" stroke="#6666ff" d="M670.4,-970.82C616.35,-903.92 428.19,-671.02 364.8,-592.56"/>
<polygon fill="#6666ff" stroke="#6666ff" points="367.39,-590.19 358.38,-584.61 361.94,-594.59 367.39,-590.19"/>
</g>
<!-- Metamodel::AttributeContainer -->
<g id="node10" class="node">
<title>Metamodel::AttributeContainer</title>
<g id="a_node10"><a xlink:href="/type/Metamodel::AttributeContainer" xlink:title="Metamodel::AttributeContainer">
<ellipse fill="none" stroke="#6666ff" cx="973.46" cy="-715.32" rx="150.27" ry="18"/>
<text text-anchor="middle" x="973.46" y="-711.62" font-family="FreeSans" font-size="14.00" fill="#6666ff">Metamodel::AttributeContainer</text>
</a>
</g>
</g>
<!-- Metamodel::ParametricRoleHOW&#45;&gt;Metamodel::AttributeContainer -->
<g id="edge9" class="edge">
<title>Metamodel::ParametricRoleHOW&#45;&gt;Metamodel::AttributeContainer</title>
<path fill="none" stroke="#6666ff" d="M703.98,-971.01C753.89,-923.66 889.21,-795.26 946.87,-740.55"/>
<polygon fill="#6666ff" stroke="#6666ff" points="949.63,-742.76 954.47,-733.34 944.81,-737.68 949.63,-742.76"/>
</g>
<!-- Metamodel::RoleContainer -->
<g id="node11" class="node">
<title>Metamodel::RoleContainer</title>
<g id="a_node11"><a xlink:href="/type/Metamodel::RoleContainer" xlink:title="Metamodel::RoleContainer">
<ellipse fill="none" stroke="#6666ff" cx="583.72" cy="-493.77" rx="129.98" ry="18"/>
<text text-anchor="middle" x="583.72" y="-490.07" font-family="FreeSans" font-size="14.00" fill="#6666ff">Metamodel::RoleContainer</text>
</a>
</g>
</g>
<!-- Metamodel::ParametricRoleHOW&#45;&gt;Metamodel::RoleContainer -->
<g id="edge10" class="edge">
<title>Metamodel::ParametricRoleHOW&#45;&gt;Metamodel::RoleContainer</title>
<path fill="none" stroke="#6666ff" d="M681.33,-970.76C666.03,-895.98 607.96,-612.23 589.43,-521.7"/>
<polygon fill="#6666ff" stroke="#6666ff" points="592.86,-520.98 587.42,-511.88 586,-522.38 592.86,-520.98"/>
</g>
<!-- Metamodel::MultipleInheritance -->
<g id="node12" class="node">
<title>Metamodel::MultipleInheritance</title>
<g id="a_node12"><a xlink:href="/type/Metamodel::MultipleInheritance" xlink:title="Metamodel::MultipleInheritance">
<ellipse fill="none" stroke="#6666ff" cx="153.39" cy="-1016.68" rx="153.27" ry="18"/>
<text text-anchor="middle" x="153.39" y="-1012.98" font-family="FreeSans" font-size="14.00" fill="#6666ff">Metamodel::MultipleInheritance</text>
</a>
</g>
</g>
<!-- Metamodel::ParametricRoleHOW&#45;&gt;Metamodel::MultipleInheritance -->
<g id="edge11" class="edge">
<title>Metamodel::ParametricRoleHOW&#45;&gt;Metamodel::MultipleInheritance</title>
<path fill="none" stroke="#6666ff" d="M541.88,-996.43C468.3,-1000.27 378.65,-1004.94 304.03,-1008.83"/>
<polygon fill="#6666ff" stroke="#6666ff" points="303.4,-1005.36 293.6,-1009.37 303.77,-1012.35 303.4,-1005.36"/>
</g>
<!-- Metamodel::Stashing -->
<g id="node13" class="node">
<title>Metamodel::Stashing</title>
<g id="a_node13"><a xlink:href="/type/Metamodel::Stashing" xlink:title="Metamodel::Stashing">
<ellipse fill="none" stroke="#6666ff" cx="1228.18" cy="-1123.39" rx="105.88" ry="18"/>
<text text-anchor="middle" x="1228.18" y="-1119.69" font-family="FreeSans" font-size="14.00" fill="#6666ff">Metamodel::Stashing</text>
</a>
</g>
</g>
<!-- Metamodel::ParametricRoleHOW&#45;&gt;Metamodel::Stashing -->
<g id="edge12" class="edge">
<title>Metamodel::ParametricRoleHOW&#45;&gt;Metamodel::Stashing</title>
<path fill="none" stroke="#6666ff" d="M751.12,-1005.32C854.22,-1030.84 1052.53,-1079.92 1158.07,-1106.04"/>
<polygon fill="#6666ff" stroke="#6666ff" points="1157.44,-1109.49 1167.99,-1108.49 1159.12,-1102.69 1157.44,-1109.49"/>
</g>
<!-- Metamodel::TypePretense -->
<g id="node14" class="node">
<title>Metamodel::TypePretense</title>
<g id="a_node14"><a xlink:href="/type/Metamodel::TypePretense" xlink:title="Metamodel::TypePretense">
<ellipse fill="none" stroke="#6666ff" cx="904.58" cy="-1494.44" rx="126.18" ry="18"/>
<text text-anchor="middle" x="904.58" y="-1490.74" font-family="FreeSans" font-size="14.00" fill="#6666ff">Metamodel::TypePretense</text>
</a>
</g>
</g>
<!-- Metamodel::ParametricRoleHOW&#45;&gt;Metamodel::TypePretense -->
<g id="edge13" class="edge">
<title>Metamodel::ParametricRoleHOW&#45;&gt;Metamodel::TypePretense</title>
<path fill="none" stroke="#6666ff" d="M692.87,-1006.96C725.75,-1082.65 852.94,-1375.52 892.66,-1466.98"/>
<polygon fill="#6666ff" stroke="#6666ff" points="889.56,-1468.62 896.75,-1476.4 895.98,-1465.83 889.56,-1468.62"/>
</g>
<!-- Metamodel::RolePunning -->
<g id="node15" class="node">
<title>Metamodel::RolePunning</title>
<g id="a_node15"><a xlink:href="/type/Metamodel::RolePunning" xlink:title="Metamodel::RolePunning">
<ellipse fill="none" stroke="#6666ff" cx="647.63" cy="-1506.62" rx="122.68" ry="18"/>
<text text-anchor="middle" x="647.63" y="-1502.92" font-family="FreeSans" font-size="14.00" fill="#6666ff">Metamodel::RolePunning</text>
</a>
</g>
</g>
<!-- Metamodel::ParametricRoleHOW&#45;&gt;Metamodel::RolePunning -->
<g id="edge14" class="edge">
<title>Metamodel::ParametricRoleHOW&#45;&gt;Metamodel::RolePunning</title>
<path fill="none" stroke="#6666ff" d="M683.75,-1007.09C678.19,-1084.03 656.49,-1384.04 649.69,-1478.19"/>
<polygon fill="#6666ff" stroke="#6666ff" points="646.18,-1478.15 648.95,-1488.37 653.16,-1478.65 646.18,-1478.15"/>
</g>
<!-- Mu -->
<g id="node2" class="node">
<title>Mu</title>
<g id="a_node2"><a xlink:href="/type/Mu" xlink:title="Mu">
<ellipse fill="none" stroke="#000000" cx="1194.14" cy="-18" rx="27" ry="18"/>
<text text-anchor="middle" x="1194.14" y="-14.3" font-family="FreeSans" font-size="14.00" fill="#000000">Mu</text>
</a>
</g>
</g>
<!-- Any&#45;&gt;Mu -->
<g id="edge2" class="edge">
<title>Any&#45;&gt;Mu</title>
<path fill="none" stroke="#000000" d="M944.72,-423.33C984.8,-358.2 1130.02,-122.19 1178.37,-43.63"/>
<polygon fill="#000000" stroke="#000000" points="1181.51,-45.21 1183.77,-34.86 1175.55,-41.54 1181.51,-45.21"/>
</g>
</g>
</svg>
