<?xml version="1.0" encoding="UTF-8" standalone="no"?>
<!DOCTYPE svg PUBLIC "-//W3C//DTD SVG 1.1//EN"
 "http://www.w3.org/Graphics/SVG/1.1/DTD/svg11.dtd">
<!-- Generated by graphviz version 2.42.3 (0)
 -->
<!-- Title: perl6&#45;type&#45;graph Pages: 1 -->
<svg width="1915pt" height="1814pt"
 viewBox="0.00 0.00 1914.51 1814.19" xmlns="http://www.w3.org/2000/svg" xmlns:xlink="http://www.w3.org/1999/xlink">
<g id="graph0" class="graph" transform="scale(1 1) rotate(0) translate(4 1810.19)">
<title>perl6&#45;type&#45;graph</title>
<polygon fill="white" stroke="transparent" points="-4,4 -4,-1810.19 1910.51,-1810.19 1910.51,4 -4,4"/>
<!-- Metamodel::TypePretense -->
<g id="node1" class="node">
<title>Metamodel::TypePretense</title>
<g id="a_node1"><a xlink:href="/type/Metamodel::TypePretense" xlink:title="Metamodel::TypePretense">
<ellipse fill="none" stroke="#6666ff" cx="814.4" cy="-825.47" rx="126.18" ry="18"/>
<text text-anchor="middle" x="814.4" y="-821.77" font-family="FreeSans" font-size="14.00" fill="#6666ff">Metamodel::TypePretense</text>
</a>
</g>
</g>
<!-- Mu -->
<g id="node2" class="node">
<title>Mu</title>
<g id="a_node2"><a xlink:href="/type/Mu" xlink:title="Mu">
<ellipse fill="none" stroke="#000000" cx="886.32" cy="-18" rx="27" ry="18"/>
<text text-anchor="middle" x="886.32" y="-14.3" font-family="FreeSans" font-size="14.00" fill="#000000">Mu</text>
</a>
</g>
</g>
<!-- Any -->
<g id="node3" class="node">
<title>Any</title>
<g id="a_node3"><a xlink:href="/type/Any" xlink:title="Any">
<ellipse fill="none" stroke="#000000" cx="888.57" cy="-587.58" rx="28.7" ry="18"/>
<text text-anchor="middle" x="888.57" y="-583.88" font-family="FreeSans" font-size="14.00" fill="#000000">Any</text>
</a>
</g>
</g>
<!-- Any&#45;&gt;Mu -->
<g id="edge1" class="edge">
<title>Any&#45;&gt;Mu</title>
<path fill="none" stroke="#000000" d="M888.5,-569.27C888.17,-486.51 886.83,-146.96 886.43,-46.27"/>
<polygon fill="#000000" stroke="#000000" points="889.93,-46.22 886.39,-36.24 882.93,-46.25 889.93,-46.22"/>
</g>
<!-- Metamodel::Naming -->
<g id="node4" class="node">
<title>Metamodel::Naming</title>
<g id="a_node4"><a xlink:href="/type/Metamodel::Naming" xlink:title="Metamodel::Naming">
<ellipse fill="none" stroke="#6666ff" cx="1115.42" cy="-885.08" rx="101.28" ry="18"/>
<text text-anchor="middle" x="1115.42" y="-881.38" font-family="FreeSans" font-size="14.00" fill="#6666ff">Metamodel::Naming</text>
</a>
</g>
</g>
<!-- Metamodel::Documenting -->
<g id="node5" class="node">
<title>Metamodel::Documenting</title>
<g id="a_node5"><a xlink:href="/type/Metamodel::Documenting" xlink:title="Metamodel::Documenting">
<ellipse fill="none" stroke="#6666ff" cx="1527.05" cy="-991.18" rx="126.98" ry="18"/>
<text text-anchor="middle" x="1527.05" y="-987.48" font-family="FreeSans" font-size="14.00" fill="#6666ff">Metamodel::Documenting</text>
</a>
</g>
</g>
<!-- Metamodel::Versioning -->
<g id="node6" class="node">
<title>Metamodel::Versioning</title>
<g id="a_node6"><a xlink:href="/type/Metamodel::Versioning" xlink:title="Metamodel::Versioning">
<ellipse fill="none" stroke="#6666ff" cx="1536.92" cy="-1211.4" rx="114.28" ry="18"/>
<text text-anchor="middle" x="1536.92" y="-1207.7" font-family="FreeSans" font-size="14.00" fill="#6666ff">Metamodel::Versioning</text>
</a>
</g>
</g>
<!-- Metamodel::Stashing -->
<g id="node7" class="node">
<title>Metamodel::Stashing</title>
<g id="a_node7"><a xlink:href="/type/Metamodel::Stashing" xlink:title="Metamodel::Stashing">
<ellipse fill="none" stroke="#6666ff" cx="1013.31" cy="-781.47" rx="105.88" ry="18"/>
<text text-anchor="middle" x="1013.31" y="-777.77" font-family="FreeSans" font-size="14.00" fill="#6666ff">Metamodel::Stashing</text>
</a>
</g>
</g>
<!-- Metamodel::MethodDelegation -->
<g id="node8" class="node">
<title>Metamodel::MethodDelegation</title>
<g id="a_node8"><a xlink:href="/type/Metamodel::MethodDelegation" xlink:title="Metamodel::MethodDelegation">
<ellipse fill="none" stroke="#6666ff" cx="1758.33" cy="-256.76" rx="148.37" ry="18"/>
<text text-anchor="middle" x="1758.33" y="-253.06" font-family="FreeSans" font-size="14.00" fill="#6666ff">Metamodel::MethodDelegation</text>
</a>
</g>
</g>
<!-- Metamodel::ModuleHOW -->
<g id="node9" class="node">
<title>Metamodel::ModuleHOW</title>
<g id="a_node9"><a xlink:href="/type/Metamodel::ModuleHOW" xlink:title="Metamodel::ModuleHOW">
<ellipse fill="none" stroke="#000000" cx="1420.89" cy="-639.02" rx="122.38" ry="18"/>
<text text-anchor="middle" x="1420.89" y="-635.32" font-family="FreeSans" font-size="14.00" fill="#000000">Metamodel::ModuleHOW</text>
</a>
</g>
</g>
<!-- Metamodel::ModuleHOW&#45;&gt;Metamodel::TypePretense -->
<g id="edge11" class="edge">
<title>Metamodel::ModuleHOW&#45;&gt;Metamodel::TypePretense</title>
<path fill="none" stroke="#6666ff" d="M1361.62,-654.78C1232.54,-689.1 937.51,-767.56 937.51,-767.56 937.51,-767.56 905.77,-781.41 905.77,-781.41 905.77,-781.41 882.45,-792.65 859.37,-803.78"/>
<polygon fill="#6666ff" stroke="#6666ff" points="857.74,-800.69 850.25,-808.18 860.78,-806.99 857.74,-800.69"/>
</g>
<!-- Metamodel::ModuleHOW&#45;&gt;Any -->
<g id="edge2" class="edge">
<title>Metamodel::ModuleHOW&#45;&gt;Any</title>
<path fill="none" stroke="#000000" d="M1318.57,-629.13C1199.34,-617.61 1008.33,-599.15 927.12,-591.3"/>
<polygon fill="#000000" stroke="#000000" points="927.15,-587.79 916.86,-590.31 926.48,-594.76 927.15,-587.79"/>
</g>
<!-- Metamodel::ModuleHOW&#45;&gt;Metamodel::Naming -->
<g id="edge7" class="edge">
<title>Metamodel::ModuleHOW&#45;&gt;Metamodel::Naming</title>
<path fill="none" stroke="#6666ff" d="M1398.43,-657.11C1344.34,-700.67 1206.84,-811.43 1145.62,-860.75"/>
<polygon fill="#6666ff" stroke="#6666ff" points="1143.09,-858.29 1137.5,-867.29 1147.49,-863.74 1143.09,-858.29"/>
</g>
<!-- Metamodel::ModuleHOW&#45;&gt;Metamodel::Documenting -->
<g id="edge8" class="edge">
<title>Metamodel::ModuleHOW&#45;&gt;Metamodel::Documenting</title>
<path fill="none" stroke="#6666ff" d="M1426.45,-657.45C1443.9,-715.34 1497.66,-893.71 1518.59,-963.13"/>
<polygon fill="#6666ff" stroke="#6666ff" points="1515.31,-964.36 1521.54,-972.93 1522.01,-962.34 1515.31,-964.36"/>
</g>
<!-- Metamodel::ModuleHOW&#45;&gt;Metamodel::Versioning -->
<g id="edge9" class="edge">
<title>Metamodel::ModuleHOW&#45;&gt;Metamodel::Versioning</title>
<path fill="none" stroke="#6666ff" d="M1419.73,-657.45C1415.17,-729.88 1398.71,-991.03 1398.71,-991.03 1398.71,-991.03 1483.31,-1125.92 1520.13,-1184.63"/>
<polygon fill="#6666ff" stroke="#6666ff" points="1517.33,-1186.75 1525.61,-1193.36 1523.26,-1183.03 1517.33,-1186.75"/>
</g>
<!-- Metamodel::ModuleHOW&#45;&gt;Metamodel::Stashing -->
<g id="edge10" class="edge">
<title>Metamodel::ModuleHOW&#45;&gt;Metamodel::Stashing</title>
<path fill="none" stroke="#6666ff" d="M1373.34,-655.64C1297.67,-682.08 1150.17,-733.63 1069.44,-761.85"/>
<polygon fill="#6666ff" stroke="#6666ff" points="1068.22,-758.57 1059.93,-765.17 1070.53,-765.18 1068.22,-758.57"/>
</g>
<!-- Metamodel::ModuleHOW&#45;&gt;Metamodel::MethodDelegation -->
<g id="edge12" class="edge">
<title>Metamodel::ModuleHOW&#45;&gt;Metamodel::MethodDelegation</title>
<path fill="none" stroke="#6666ff" d="M1436.71,-621.09C1491.16,-559.41 1670.98,-355.71 1735.24,-282.91"/>
<polygon fill="#6666ff" stroke="#6666ff" points="1738.15,-284.9 1742.15,-275.09 1732.9,-280.27 1738.15,-284.9"/>
</g>
<!-- Metamodel::RolePunning -->
<g id="node10" class="node">
<title>Metamodel::RolePunning</title>
<g id="a_node10"><a xlink:href="/type/Metamodel::RolePunning" xlink:title="Metamodel::RolePunning">
<ellipse fill="none" stroke="#6666ff" cx="414.96" cy="-1066.55" rx="122.68" ry="18"/>
<text text-anchor="middle" x="414.96" y="-1062.85" font-family="FreeSans" font-size="14.00" fill="#6666ff">Metamodel::RolePunning</text>
</a>
</g>
</g>
<!-- Metamodel::BoolificationProtocol -->
<g id="node11" class="node">
<title>Metamodel::BoolificationProtocol</title>
<g id="a_node11"><a xlink:href="/type/Metamodel::BoolificationProtocol" xlink:title="Metamodel::BoolificationProtocol">
<ellipse fill="none" stroke="#6666ff" cx="157.29" cy="-146.01" rx="157.07" ry="18"/>
<text text-anchor="middle" x="157.29" y="-142.31" font-family="FreeSans" font-size="14.00" fill="#6666ff">Metamodel::BoolificationProtocol</text>
</a>
</g>
</g>
<!-- Metamodel::ParametricRoleGroupHOW -->
<g id="node12" class="node">
<title>Metamodel::ParametricRoleGroupHOW</title>
<g id="a_node12"><a xlink:href="/type/Metamodel::ParametricRoleGroupHOW" xlink:title="Metamodel::ParametricRoleGroupHOW">
<ellipse fill="none" stroke="#000000" cx="549.49" cy="-522.38" rx="184.67" ry="18"/>
<text text-anchor="middle" x="549.49" y="-518.68" font-family="FreeSans" font-size="14.00" fill="#000000">Metamodel::ParametricRoleGroupHOW</text>
</a>
</g>
</g>
<!-- Metamodel::ParametricRoleGroupHOW&#45;&gt;Metamodel::TypePretense -->
<g id="edge15" class="edge">
<title>Metamodel::ParametricRoleGroupHOW&#45;&gt;Metamodel::TypePretense</title>
<path fill="none" stroke="#6666ff" d="M565.27,-540.43C610.27,-591.92 739.37,-739.62 791.83,-799.65"/>
<polygon fill="#6666ff" stroke="#6666ff" points="789.49,-802.29 798.71,-807.51 794.76,-797.68 789.49,-802.29"/>
</g>
<!-- Metamodel::ParametricRoleGroupHOW&#45;&gt;Any -->
<g id="edge3" class="edge">
<title>Metamodel::ParametricRoleGroupHOW&#45;&gt;Any</title>
<path fill="none" stroke="#000000" d="M633.31,-538.49C702.99,-551.89 798.89,-570.33 851.06,-580.37"/>
<polygon fill="#000000" stroke="#000000" points="850.41,-583.8 860.89,-582.26 851.73,-576.93 850.41,-583.8"/>
</g>
<!-- Metamodel::ParametricRoleGroupHOW&#45;&gt;Metamodel::Naming -->
<g id="edge13" class="edge">
<title>Metamodel::ParametricRoleGroupHOW&#45;&gt;Metamodel::Naming</title>
<path fill="none" stroke="#6666ff" d="M574.26,-540.39C655.05,-599.13 905.77,-781.41 905.77,-781.41 905.77,-781.41 1010.25,-833.07 1071.7,-863.46"/>
<polygon fill="#6666ff" stroke="#6666ff" points="1070.28,-866.66 1080.8,-867.96 1073.39,-860.39 1070.28,-866.66"/>
</g>
<!-- Metamodel::ParametricRoleGroupHOW&#45;&gt;Metamodel::Stashing -->
<g id="edge14" class="edge">
<title>Metamodel::ParametricRoleGroupHOW&#45;&gt;Metamodel::Stashing</title>
<path fill="none" stroke="#6666ff" d="M581.37,-540.19C663.68,-586.17 883.2,-708.79 973.58,-759.28"/>
<polygon fill="#6666ff" stroke="#6666ff" points="971.99,-762.4 982.43,-764.22 975.4,-756.28 971.99,-762.4"/>
</g>
<!-- Metamodel::ParametricRoleGroupHOW&#45;&gt;Metamodel::RolePunning -->
<g id="edge16" class="edge">
<title>Metamodel::ParametricRoleGroupHOW&#45;&gt;Metamodel::RolePunning</title>
<path fill="none" stroke="#6666ff" d="M545.01,-540.48C525.28,-620.29 445.99,-941.04 421.92,-1038.39"/>
<polygon fill="#6666ff" stroke="#6666ff" points="418.46,-1037.83 419.45,-1048.38 425.25,-1039.51 418.46,-1037.83"/>
</g>
<!-- Metamodel::ParametricRoleGroupHOW&#45;&gt;Metamodel::BoolificationProtocol -->
<g id="edge17" class="edge">
<title>Metamodel::ParametricRoleGroupHOW&#45;&gt;Metamodel::BoolificationProtocol</title>
<path fill="none" stroke="#6666ff" d="M530.57,-504.22C466.5,-442.74 257.54,-242.22 183.55,-171.21"/>
<polygon fill="#6666ff" stroke="#6666ff" points="185.65,-168.38 176.01,-163.98 180.8,-173.43 185.65,-168.38"/>
</g>
<!-- Metamodel::PackageHOW -->
<g id="node13" class="node">
<title>Metamodel::PackageHOW</title>
<g id="a_node13"><a xlink:href="/type/Metamodel::PackageHOW" xlink:title="Metamodel::PackageHOW">
<ellipse fill="none" stroke="#000000" cx="1298.43" cy="-446.14" rx="126.98" ry="18"/>
<text text-anchor="middle" x="1298.43" y="-442.44" font-family="FreeSans" font-size="14.00" fill="#000000">Metamodel::PackageHOW</text>
</a>
</g>
</g>
<!-- Metamodel::PackageHOW&#45;&gt;Metamodel::TypePretense -->
<g id="edge21" class="edge">
<title>Metamodel::PackageHOW&#45;&gt;Metamodel::TypePretense</title>
<path fill="none" stroke="#6666ff" d="M1275.74,-463.93C1196.9,-525.71 934.82,-731.1 844.95,-801.53"/>
<polygon fill="#6666ff" stroke="#6666ff" points="842.76,-798.8 837.05,-807.72 847.08,-804.31 842.76,-798.8"/>
</g>
<!-- Metamodel::PackageHOW&#45;&gt;Any -->
<g id="edge4" class="edge">
<title>Metamodel::PackageHOW&#45;&gt;Any</title>
<path fill="none" stroke="#000000" d="M1249.81,-462.92C1166.17,-491.78 997,-550.16 923.72,-575.45"/>
<polygon fill="#000000" stroke="#000000" points="922.35,-572.22 914.04,-578.79 924.64,-578.83 922.35,-572.22"/>
</g>
<!-- Metamodel::PackageHOW&#45;&gt;Metamodel::Naming -->
<g id="edge18" class="edge">
<title>Metamodel::PackageHOW&#45;&gt;Metamodel::Naming</title>
<path fill="none" stroke="#6666ff" d="M1290.92,-464.16C1262.48,-532.37 1161.33,-774.97 1126.95,-857.42"/>
<polygon fill="#6666ff" stroke="#6666ff" points="1123.72,-856.08 1123.1,-866.66 1130.18,-858.77 1123.72,-856.08"/>
</g>
<!-- Metamodel::PackageHOW&#45;&gt;Metamodel::Documenting -->
<g id="edge19" class="edge">
<title>Metamodel::PackageHOW&#45;&gt;Metamodel::Documenting</title>
<path fill="none" stroke="#6666ff" d="M1298.31,-464.27C1297.98,-512.25 1297.1,-638.88 1297.1,-638.88 1297.1,-638.88 1455.99,-882.31 1509.61,-964.47"/>
<polygon fill="#6666ff" stroke="#6666ff" points="1506.93,-966.77 1515.33,-973.23 1512.79,-962.94 1506.93,-966.77"/>
</g>
<!-- Metamodel::PackageHOW&#45;&gt;Metamodel::Stashing -->
<g id="edge20" class="edge">
<title>Metamodel::PackageHOW&#45;&gt;Metamodel::Stashing</title>
<path fill="none" stroke="#6666ff" d="M1283.11,-464.17C1235.63,-520 1090.89,-690.23 1035.34,-755.56"/>
<polygon fill="#6666ff" stroke="#6666ff" points="1032.52,-753.46 1028.71,-763.35 1037.86,-758 1032.52,-753.46"/>
</g>
<!-- Metamodel::PackageHOW&#45;&gt;Metamodel::MethodDelegation -->
<g id="edge22" class="edge">
<title>Metamodel::PackageHOW&#45;&gt;Metamodel::MethodDelegation</title>
<path fill="none" stroke="#6666ff" d="M1340.06,-429C1424.3,-394.31 1614.8,-315.86 1706.75,-278"/>
<polygon fill="#6666ff" stroke="#6666ff" points="1708.22,-281.18 1716.13,-274.13 1705.55,-274.71 1708.22,-281.18"/>
</g>
<!-- Metamodel::MethodContainer -->
<g id="node14" class="node">
<title>Metamodel::MethodContainer</title>
<g id="a_node14"><a xlink:href="/type/Metamodel::MethodContainer" xlink:title="Metamodel::MethodContainer">
<ellipse fill="none" stroke="#6666ff" cx="1084.66" cy="-1788.19" rx="143.77" ry="18"/>
<text text-anchor="middle" x="1084.66" y="-1784.49" font-family="FreeSans" font-size="14.00" fill="#6666ff">Metamodel::MethodContainer</text>
</a>
</g>
</g>
<!-- Metamodel::PrivateMethodContainer -->
<g id="node15" class="node">
<title>Metamodel::PrivateMethodContainer</title>
<g id="a_node15"><a xlink:href="/type/Metamodel::PrivateMethodContainer" xlink:title="Metamodel::PrivateMethodContainer">
<ellipse fill="none" stroke="#6666ff" cx="758.09" cy="-1755.74" rx="174.67" ry="18"/>
<text text-anchor="middle" x="758.09" y="-1752.04" font-family="FreeSans" font-size="14.00" fill="#6666ff">Metamodel::PrivateMethodContainer</text>
</a>
</g>
</g>
<!-- Metamodel::MultiMethodContainer -->
<g id="node16" class="node">
<title>Metamodel::MultiMethodContainer</title>
<g id="a_node16"><a xlink:href="/type/Metamodel::MultiMethodContainer" xlink:title="Metamodel::MultiMethodContainer">
<ellipse fill="none" stroke="#6666ff" cx="1282.62" cy="-1708.37" rx="165.97" ry="18"/>
<text text-anchor="middle" x="1282.62" y="-1704.67" font-family="FreeSans" font-size="14.00" fill="#6666ff">Metamodel::MultiMethodContainer</text>
</a>
</g>
</g>
<!-- Metamodel::AttributeContainer -->
<g id="node17" class="node">
<title>Metamodel::AttributeContainer</title>
<g id="a_node17"><a xlink:href="/type/Metamodel::AttributeContainer" xlink:title="Metamodel::AttributeContainer">
<ellipse fill="none" stroke="#6666ff" cx="1482.12" cy="-1558.21" rx="150.27" ry="18"/>
<text text-anchor="middle" x="1482.12" y="-1554.51" font-family="FreeSans" font-size="14.00" fill="#6666ff">Metamodel::AttributeContainer</text>
</a>
</g>
</g>
<!-- Metamodel::RoleContainer -->
<g id="node18" class="node">
<title>Metamodel::RoleContainer</title>
<g id="a_node18"><a xlink:href="/type/Metamodel::RoleContainer" xlink:title="Metamodel::RoleContainer">
<ellipse fill="none" stroke="#6666ff" cx="581.83" cy="-1640.94" rx="129.98" ry="18"/>
<text text-anchor="middle" x="581.83" y="-1637.24" font-family="FreeSans" font-size="14.00" fill="#6666ff">Metamodel::RoleContainer</text>
</a>
</g>
</g>
<!-- Metamodel::MultipleInheritance -->
<g id="node19" class="node">
<title>Metamodel::MultipleInheritance</title>
<g id="a_node19"><a xlink:href="/type/Metamodel::MultipleInheritance" xlink:title="Metamodel::MultipleInheritance">
<ellipse fill="none" stroke="#6666ff" cx="434.64" cy="-1453.68" rx="153.27" ry="18"/>
<text text-anchor="middle" x="434.64" y="-1449.98" font-family="FreeSans" font-size="14.00" fill="#6666ff">Metamodel::MultipleInheritance</text>
</a>
</g>
</g>
<!-- Metamodel::ParametricRoleHOW -->
<g id="node20" class="node">
<title>Metamodel::ParametricRoleHOW</title>
<g id="a_node20"><a xlink:href="/type/Metamodel::ParametricRoleHOW" xlink:title="Metamodel::ParametricRoleHOW">
<ellipse fill="none" stroke="#000000" cx="976.73" cy="-1264.6" rx="157.07" ry="18"/>
<text text-anchor="middle" x="976.73" y="-1260.9" font-family="FreeSans" font-size="14.00" fill="#000000">Metamodel::ParametricRoleHOW</text>
</a>
</g>
</g>
<!-- Metamodel::ParametricRoleHOW&#45;&gt;Metamodel::TypePretense -->
<g id="edge33" class="edge">
<title>Metamodel::ParametricRoleHOW&#45;&gt;Metamodel::TypePretense</title>
<path fill="none" stroke="#6666ff" d="M970.07,-1246.57C944.87,-1178.4 855.31,-936.12 824.72,-853.39"/>
<polygon fill="#6666ff" stroke="#6666ff" points="827.97,-852.07 821.22,-843.9 821.4,-854.49 827.97,-852.07"/>
</g>
<!-- Metamodel::ParametricRoleHOW&#45;&gt;Any -->
<g id="edge5" class="edge">
<title>Metamodel::ParametricRoleHOW&#45;&gt;Any</title>
<path fill="none" stroke="#000000" d="M975.31,-1246.57C968.79,-1163.95 942.09,-825.53 942.09,-825.53 942.09,-825.53 905.77,-781.41 905.77,-781.41 905.77,-781.41 895.88,-669.95 891.1,-616.07"/>
<polygon fill="#000000" stroke="#000000" points="894.56,-615.46 890.19,-605.81 887.58,-616.08 894.56,-615.46"/>
</g>
<!-- Metamodel::ParametricRoleHOW&#45;&gt;Metamodel::Naming -->
<g id="edge23" class="edge">
<title>Metamodel::ParametricRoleHOW&#45;&gt;Metamodel::Naming</title>
<path fill="none" stroke="#6666ff" d="M983.33,-1246.55C1005.64,-1185.49 1078.4,-986.38 1105.3,-912.76"/>
<polygon fill="#6666ff" stroke="#6666ff" points="1108.64,-913.83 1108.78,-903.24 1102.06,-911.43 1108.64,-913.83"/>
</g>
<!-- Metamodel::ParametricRoleHOW&#45;&gt;Metamodel::Documenting -->
<g id="edge24" class="edge">
<title>Metamodel::ParametricRoleHOW&#45;&gt;Metamodel::Documenting</title>
<path fill="none" stroke="#6666ff" d="M1012.42,-1246.87C1109.29,-1198.74 1377.01,-1065.73 1483.01,-1013.06"/>
<polygon fill="#6666ff" stroke="#6666ff" points="1484.76,-1016.1 1492.16,-1008.52 1481.64,-1009.83 1484.76,-1016.1"/>
</g>
<!-- Metamodel::ParametricRoleHOW&#45;&gt;Metamodel::Versioning -->
<g id="edge25" class="edge">
<title>Metamodel::ParametricRoleHOW&#45;&gt;Metamodel::Versioning</title>
<path fill="none" stroke="#6666ff" d="M1097.94,-1253.09C1196.34,-1243.74 1333.83,-1230.69 1428.59,-1221.69"/>
<polygon fill="#6666ff" stroke="#6666ff" points="1429.15,-1225.15 1438.77,-1220.72 1428.49,-1218.18 1429.15,-1225.15"/>
</g>
<!-- Metamodel::ParametricRoleHOW&#45;&gt;Metamodel::Stashing -->
<g id="edge32" class="edge">
<title>Metamodel::ParametricRoleHOW&#45;&gt;Metamodel::Stashing</title>
<path fill="none" stroke="#6666ff" d="M978.1,-1246.54C983.64,-1173.45 1004.4,-899.17 1011.16,-809.8"/>
<polygon fill="#6666ff" stroke="#6666ff" points="1014.67,-809.85 1011.93,-799.62 1007.69,-809.32 1014.67,-809.85"/>
</g>
<!-- Metamodel::ParametricRoleHOW&#45;&gt;Metamodel::RolePunning -->
<g id="edge34" class="edge">
<title>Metamodel::ParametricRoleHOW&#45;&gt;Metamodel::RolePunning</title>
<path fill="none" stroke="#6666ff" d="M927.86,-1247.37C824.08,-1210.79 582.19,-1125.51 471.76,-1086.58"/>
<polygon fill="#6666ff" stroke="#6666ff" points="472.72,-1083.2 462.13,-1083.18 470.4,-1089.81 472.72,-1083.2"/>
</g>
<!-- Metamodel::ParametricRoleHOW&#45;&gt;Metamodel::MethodContainer -->
<g id="edge26" class="edge">
<title>Metamodel::ParametricRoleHOW&#45;&gt;Metamodel::MethodContainer</title>
<path fill="none" stroke="#6666ff" d="M980.45,-1282.63C996.42,-1360.11 1059.32,-1665.25 1078.84,-1759.98"/>
<polygon fill="#6666ff" stroke="#6666ff" points="1075.46,-1760.88 1080.9,-1769.97 1082.31,-1759.47 1075.46,-1760.88"/>
</g>
<!-- Metamodel::ParametricRoleHOW&#45;&gt;Metamodel::PrivateMethodContainer -->
<g id="edge27" class="edge">
<title>Metamodel::ParametricRoleHOW&#45;&gt;Metamodel::PrivateMethodContainer</title>
<path fill="none" stroke="#6666ff" d="M968.69,-1282.66C935.65,-1356.89 810.17,-1638.76 770.32,-1728.27"/>
<polygon fill="#6666ff" stroke="#6666ff" points="767.08,-1726.95 766.21,-1737.51 773.47,-1729.8 767.08,-1726.95"/>
</g>
<!-- Metamodel::ParametricRoleHOW&#45;&gt;Metamodel::MultiMethodContainer -->
<g id="edge28" class="edge">
<title>Metamodel::ParametricRoleHOW&#45;&gt;Metamodel::MultiMethodContainer</title>
<path fill="none" stroke="#6666ff" d="M989.1,-1282.55C1036.66,-1351.54 1207.89,-1599.95 1264.39,-1681.92"/>
<polygon fill="#6666ff" stroke="#6666ff" points="1261.54,-1683.95 1270.1,-1690.2 1267.3,-1679.98 1261.54,-1683.95"/>
</g>
<!-- Metamodel::ParametricRoleHOW&#45;&gt;Metamodel::AttributeContainer -->
<g id="edge29" class="edge">
<title>Metamodel::ParametricRoleHOW&#45;&gt;Metamodel::AttributeContainer</title>
<path fill="none" stroke="#6666ff" d="M1007.21,-1282.31C1094.54,-1333.04 1345.66,-1478.93 1442.95,-1535.46"/>
<polygon fill="#6666ff" stroke="#6666ff" points="1441.2,-1538.49 1451.61,-1540.48 1444.72,-1532.43 1441.2,-1538.49"/>
</g>
<!-- Metamodel::ParametricRoleHOW&#45;&gt;Metamodel::RoleContainer -->
<g id="edge30" class="edge">
<title>Metamodel::ParametricRoleHOW&#45;&gt;Metamodel::RoleContainer</title>
<path fill="none" stroke="#6666ff" d="M957.95,-1282.5C893.77,-1343.67 682.99,-1544.54 608.33,-1615.68"/>
<polygon fill="#6666ff" stroke="#6666ff" points="605.55,-1613.5 600.73,-1622.93 610.38,-1618.56 605.55,-1613.5"/>
</g>
<!-- Metamodel::ParametricRoleHOW&#45;&gt;Metamodel::MultipleInheritance -->
<g id="edge31" class="edge">
<title>Metamodel::ParametricRoleHOW&#45;&gt;Metamodel::MultipleInheritance</title>
<path fill="none" stroke="#6666ff" d="M927.67,-1281.72C827.71,-1316.58 600.86,-1395.71 493.31,-1433.22"/>
<polygon fill="#6666ff" stroke="#6666ff" points="491.89,-1430.01 483.6,-1436.61 494.19,-1436.62 491.89,-1430.01"/>
</g>
<!-- Metamodel::CurriedRoleHOW -->
<g id="node21" class="node">
<title>Metamodel::CurriedRoleHOW</title>
<g id="a_node21"><a xlink:href="/type/Metamodel::CurriedRoleHOW" xlink:title="Metamodel::CurriedRoleHOW">
<ellipse fill="none" stroke="#000000" cx="307.29" cy="-658.49" rx="142.17" ry="18"/>
<text text-anchor="middle" x="307.29" y="-654.79" font-family="FreeSans" font-size="14.00" fill="#000000">Metamodel::CurriedRoleHOW</text>
</a>
</g>
</g>
<!-- Metamodel::CurriedRoleHOW&#45;&gt;Metamodel::TypePretense -->
<g id="edge36" class="edge">
<title>Metamodel::CurriedRoleHOW&#45;&gt;Metamodel::TypePretense</title>
<path fill="none" stroke="#6666ff" d="M358.71,-675.42C453.14,-706.52 653.71,-772.56 754.27,-805.67"/>
<polygon fill="#6666ff" stroke="#6666ff" points="753.39,-809.07 763.98,-808.87 755.58,-802.42 753.39,-809.07"/>
</g>
<!-- Metamodel::CurriedRoleHOW&#45;&gt;Any -->
<g id="edge6" class="edge">
<title>Metamodel::CurriedRoleHOW&#45;&gt;Any</title>
<path fill="none" stroke="#000000" d="M409.87,-645.98C541.1,-629.97 761.97,-603.02 850.34,-592.24"/>
<polygon fill="#000000" stroke="#000000" points="850.94,-595.69 860.44,-591.01 850.09,-588.75 850.94,-595.69"/>
</g>
<!-- Metamodel::CurriedRoleHOW&#45;&gt;Metamodel::RolePunning -->
<g id="edge35" class="edge">
<title>Metamodel::CurriedRoleHOW&#45;&gt;Metamodel::RolePunning</title>
<path fill="none" stroke="#6666ff" d="M312.06,-676.55C329.04,-740.93 386.72,-959.51 407.45,-1038.1"/>
<polygon fill="#6666ff" stroke="#6666ff" points="404.19,-1039.46 410.13,-1048.24 410.96,-1037.67 404.19,-1039.46"/>
</g>
</g>
</svg>
