<?xml version="1.0" encoding="UTF-8" standalone="no"?>
<!DOCTYPE svg PUBLIC "-//W3C//DTD SVG 1.1//EN"
 "http://www.w3.org/Graphics/SVG/1.1/DTD/svg11.dtd">
<!-- Generated by graphviz version 2.42.3 (0)
 -->
<!-- Title: perl6&#45;type&#45;graph Pages: 1 -->
<svg width="2074pt" height="1758pt"
 viewBox="0.00 0.00 2073.71 1758.21" xmlns="http://www.w3.org/2000/svg" xmlns:xlink="http://www.w3.org/1999/xlink">
<g id="graph0" class="graph" transform="scale(1 1) rotate(0) translate(4 1754.21)">
<title>perl6&#45;type&#45;graph</title>
<polygon fill="white" stroke="transparent" points="-4,4 -4,-1754.21 2069.71,-1754.21 2069.71,4 -4,4"/>
<!-- Metamodel::BUILDPLAN -->
<g id="node1" class="node">
<title>Metamodel::BUILDPLAN</title>
<g id="a_node1"><a xlink:href="/type/Metamodel::BUILDPLAN" xlink:title="Metamodel::BUILDPLAN">
<ellipse fill="none" stroke="#6666ff" cx="721.3" cy="-705.09" rx="118.08" ry="18"/>
<text text-anchor="middle" x="721.3" y="-701.39" font-family="FreeSans" font-size="14.00" fill="#6666ff">Metamodel::BUILDPLAN</text>
</a>
</g>
</g>
<!-- Mu -->
<g id="node2" class="node">
<title>Mu</title>
<g id="a_node2"><a xlink:href="/type/Mu" xlink:title="Mu">
<ellipse fill="none" stroke="#000000" cx="1594.34" cy="-18" rx="27" ry="18"/>
<text text-anchor="middle" x="1594.34" y="-14.3" font-family="FreeSans" font-size="14.00" fill="#000000">Mu</text>
</a>
</g>
</g>
<!-- Any -->
<g id="node3" class="node">
<title>Any</title>
<g id="a_node3"><a xlink:href="/type/Any" xlink:title="Any">
<ellipse fill="none" stroke="#000000" cx="1277.61" cy="-524.48" rx="28.7" ry="18"/>
<text text-anchor="middle" x="1277.61" y="-520.78" font-family="FreeSans" font-size="14.00" fill="#000000">Any</text>
</a>
</g>
</g>
<!-- Any&#45;&gt;Mu -->
<g id="edge1" class="edge">
<title>Any&#45;&gt;Mu</title>
<path fill="none" stroke="#000000" d="M1288.15,-507.63C1334.75,-433.11 1522.47,-132.94 1578.49,-43.36"/>
<polygon fill="#000000" stroke="#000000" points="1581.59,-44.99 1583.93,-34.66 1575.66,-41.28 1581.59,-44.99"/>
</g>
<!-- Metamodel::Naming -->
<g id="node4" class="node">
<title>Metamodel::Naming</title>
<g id="a_node4"><a xlink:href="/type/Metamodel::Naming" xlink:title="Metamodel::Naming">
<ellipse fill="none" stroke="#6666ff" cx="949.29" cy="-1720.31" rx="101.28" ry="18"/>
<text text-anchor="middle" x="949.29" y="-1716.61" font-family="FreeSans" font-size="14.00" fill="#6666ff">Metamodel::Naming</text>
</a>
</g>
</g>
<!-- Metamodel::Documenting -->
<g id="node5" class="node">
<title>Metamodel::Documenting</title>
<g id="a_node5"><a xlink:href="/type/Metamodel::Documenting" xlink:title="Metamodel::Documenting">
<ellipse fill="none" stroke="#6666ff" cx="1396.01" cy="-1581.11" rx="126.98" ry="18"/>
<text text-anchor="middle" x="1396.01" y="-1577.41" font-family="FreeSans" font-size="14.00" fill="#6666ff">Metamodel::Documenting</text>
</a>
</g>
</g>
<!-- Metamodel::Versioning -->
<g id="node6" class="node">
<title>Metamodel::Versioning</title>
<g id="a_node6"><a xlink:href="/type/Metamodel::Versioning" xlink:title="Metamodel::Versioning">
<ellipse fill="none" stroke="#6666ff" cx="121.61" cy="-1267.32" rx="114.28" ry="18"/>
<text text-anchor="middle" x="121.61" y="-1263.62" font-family="FreeSans" font-size="14.00" fill="#6666ff">Metamodel::Versioning</text>
</a>
</g>
</g>
<!-- Metamodel::Stashing -->
<g id="node7" class="node">
<title>Metamodel::Stashing</title>
<g id="a_node7"><a xlink:href="/type/Metamodel::Stashing" xlink:title="Metamodel::Stashing">
<ellipse fill="none" stroke="#6666ff" cx="881.4" cy="-507.67" rx="105.88" ry="18"/>
<text text-anchor="middle" x="881.4" y="-503.97" font-family="FreeSans" font-size="14.00" fill="#6666ff">Metamodel::Stashing</text>
</a>
</g>
</g>
<!-- Metamodel::AttributeContainer -->
<g id="node8" class="node">
<title>Metamodel::AttributeContainer</title>
<g id="a_node8"><a xlink:href="/type/Metamodel::AttributeContainer" xlink:title="Metamodel::AttributeContainer">
<ellipse fill="none" stroke="#6666ff" cx="1478.58" cy="-974.81" rx="150.27" ry="18"/>
<text text-anchor="middle" x="1478.58" y="-971.11" font-family="FreeSans" font-size="14.00" fill="#6666ff">Metamodel::AttributeContainer</text>
</a>
</g>
</g>
<!-- Metamodel::Finalization -->
<g id="node9" class="node">
<title>Metamodel::Finalization</title>
<g id="a_node9"><a xlink:href="/type/Metamodel::Finalization" xlink:title="Metamodel::Finalization">
<ellipse fill="none" stroke="#6666ff" cx="171.5" cy="-772.7" rx="116.98" ry="18"/>
<text text-anchor="middle" x="171.5" y="-769" font-family="FreeSans" font-size="14.00" fill="#6666ff">Metamodel::Finalization</text>
</a>
</g>
</g>
<!-- Metamodel::MethodContainer -->
<g id="node10" class="node">
<title>Metamodel::MethodContainer</title>
<g id="a_node10"><a xlink:href="/type/Metamodel::MethodContainer" xlink:title="Metamodel::MethodContainer">
<ellipse fill="none" stroke="#6666ff" cx="1057.67" cy="-604.05" rx="143.77" ry="18"/>
<text text-anchor="middle" x="1057.67" y="-600.35" font-family="FreeSans" font-size="14.00" fill="#6666ff">Metamodel::MethodContainer</text>
</a>
</g>
</g>
<!-- Metamodel::PrivateMethodContainer -->
<g id="node11" class="node">
<title>Metamodel::PrivateMethodContainer</title>
<g id="a_node11"><a xlink:href="/type/Metamodel::PrivateMethodContainer" xlink:title="Metamodel::PrivateMethodContainer">
<ellipse fill="none" stroke="#6666ff" cx="304.03" cy="-566.24" rx="174.67" ry="18"/>
<text text-anchor="middle" x="304.03" y="-562.54" font-family="FreeSans" font-size="14.00" fill="#6666ff">Metamodel::PrivateMethodContainer</text>
</a>
</g>
</g>
<!-- Metamodel::MultiMethodContainer -->
<g id="node12" class="node">
<title>Metamodel::MultiMethodContainer</title>
<g id="a_node12"><a xlink:href="/type/Metamodel::MultiMethodContainer" xlink:title="Metamodel::MultiMethodContainer">
<ellipse fill="none" stroke="#6666ff" cx="523.52" cy="-1155.83" rx="165.97" ry="18"/>
<text text-anchor="middle" x="523.52" y="-1152.13" font-family="FreeSans" font-size="14.00" fill="#6666ff">Metamodel::MultiMethodContainer</text>
</a>
</g>
</g>
<!-- Metamodel::RoleContainer -->
<g id="node13" class="node">
<title>Metamodel::RoleContainer</title>
<g id="a_node13"><a xlink:href="/type/Metamodel::RoleContainer" xlink:title="Metamodel::RoleContainer">
<ellipse fill="none" stroke="#6666ff" cx="1426.88" cy="-1301.72" rx="129.98" ry="18"/>
<text text-anchor="middle" x="1426.88" y="-1298.02" font-family="FreeSans" font-size="14.00" fill="#6666ff">Metamodel::RoleContainer</text>
</a>
</g>
</g>
<!-- Metamodel::MultipleInheritance -->
<g id="node14" class="node">
<title>Metamodel::MultipleInheritance</title>
<g id="a_node14"><a xlink:href="/type/Metamodel::MultipleInheritance" xlink:title="Metamodel::MultipleInheritance">
<ellipse fill="none" stroke="#6666ff" cx="457.01" cy="-1732.21" rx="153.27" ry="18"/>
<text text-anchor="middle" x="457.01" y="-1728.51" font-family="FreeSans" font-size="14.00" fill="#6666ff">Metamodel::MultipleInheritance</text>
</a>
</g>
</g>
<!-- Metamodel::DefaultParent -->
<g id="node15" class="node">
<title>Metamodel::DefaultParent</title>
<g id="a_node15"><a xlink:href="/type/Metamodel::DefaultParent" xlink:title="Metamodel::DefaultParent">
<ellipse fill="none" stroke="#6666ff" cx="237.34" cy="-1512.51" rx="128.08" ry="18"/>
<text text-anchor="middle" x="237.34" y="-1508.81" font-family="FreeSans" font-size="14.00" fill="#6666ff">Metamodel::DefaultParent</text>
</a>
</g>
</g>
<!-- Metamodel::C3MRO -->
<g id="node16" class="node">
<title>Metamodel::C3MRO</title>
<g id="a_node16"><a xlink:href="/type/Metamodel::C3MRO" xlink:title="Metamodel::C3MRO">
<ellipse fill="none" stroke="#6666ff" cx="520.29" cy="-390.45" rx="100.18" ry="18"/>
<text text-anchor="middle" x="520.29" y="-386.75" font-family="FreeSans" font-size="14.00" fill="#6666ff">Metamodel::C3MRO</text>
</a>
</g>
</g>
<!-- Metamodel::MROBasedMethodDispatch -->
<g id="node17" class="node">
<title>Metamodel::MROBasedMethodDispatch</title>
<g id="a_node17"><a xlink:href="/type/Metamodel::MROBasedMethodDispatch" xlink:title="Metamodel::MROBasedMethodDispatch">
<ellipse fill="none" stroke="#6666ff" cx="1336.62" cy="-767.57" rx="188.47" ry="18"/>
<text text-anchor="middle" x="1336.62" y="-763.87" font-family="FreeSans" font-size="14.00" fill="#6666ff">Metamodel::MROBasedMethodDispatch</text>
</a>
</g>
</g>
<!-- Metamodel::MROBasedTypeChecking -->
<g id="node18" class="node">
<title>Metamodel::MROBasedTypeChecking</title>
<g id="a_node18"><a xlink:href="/type/Metamodel::MROBasedTypeChecking" xlink:title="Metamodel::MROBasedTypeChecking">
<ellipse fill="none" stroke="#6666ff" cx="657.01" cy="-1496.48" rx="178.97" ry="18"/>
<text text-anchor="middle" x="657.01" y="-1492.78" font-family="FreeSans" font-size="14.00" fill="#6666ff">Metamodel::MROBasedTypeChecking</text>
</a>
</g>
</g>
<!-- Metamodel::Trusting -->
<g id="node19" class="node">
<title>Metamodel::Trusting</title>
<g id="a_node19"><a xlink:href="/type/Metamodel::Trusting" xlink:title="Metamodel::Trusting">
<ellipse fill="none" stroke="#6666ff" cx="102.69" cy="-1008.33" rx="102.88" ry="18"/>
<text text-anchor="middle" x="102.69" y="-1004.63" font-family="FreeSans" font-size="14.00" fill="#6666ff">Metamodel::Trusting</text>
</a>
</g>
</g>
<!-- Metamodel::Mixins -->
<g id="node20" class="node">
<title>Metamodel::Mixins</title>
<g id="a_node20"><a xlink:href="/type/Metamodel::Mixins" xlink:title="Metamodel::Mixins">
<ellipse fill="none" stroke="#6666ff" cx="938.67" cy="-1511.54" rx="94.78" ry="18"/>
<text text-anchor="middle" x="938.67" y="-1507.84" font-family="FreeSans" font-size="14.00" fill="#6666ff">Metamodel::Mixins</text>
</a>
</g>
</g>
<!-- Metamodel::BoolificationProtocol -->
<g id="node21" class="node">
<title>Metamodel::BoolificationProtocol</title>
<g id="a_node21"><a xlink:href="/type/Metamodel::BoolificationProtocol" xlink:title="Metamodel::BoolificationProtocol">
<ellipse fill="none" stroke="#6666ff" cx="1103.93" cy="-1568.66" rx="157.07" ry="18"/>
<text text-anchor="middle" x="1103.93" y="-1564.96" font-family="FreeSans" font-size="14.00" fill="#6666ff">Metamodel::BoolificationProtocol</text>
</a>
</g>
</g>
<!-- Metamodel::ClassHOW -->
<g id="node22" class="node">
<title>Metamodel::ClassHOW</title>
<g id="a_node22"><a xlink:href="/type/Metamodel::ClassHOW" xlink:title="Metamodel::ClassHOW">
<ellipse fill="none" stroke="#000000" cx="787.91" cy="-1066.08" rx="113.18" ry="18"/>
<text text-anchor="middle" x="787.91" y="-1062.38" font-family="FreeSans" font-size="14.00" fill="#000000">Metamodel::ClassHOW</text>
</a>
</g>
</g>
<!-- Metamodel::ClassHOW&#45;&gt;Metamodel::BUILDPLAN -->
<g id="edge20" class="edge">
<title>Metamodel::ClassHOW&#45;&gt;Metamodel::BUILDPLAN</title>
<path fill="none" stroke="#6666ff" d="M784.52,-1047.68C773.65,-988.78 739.66,-804.56 726.54,-733.47"/>
<polygon fill="#6666ff" stroke="#6666ff" points="729.95,-732.65 724.69,-723.45 723.06,-733.92 729.95,-732.65"/>
</g>
<!-- Metamodel::ClassHOW&#45;&gt;Any -->
<g id="edge2" class="edge">
<title>Metamodel::ClassHOW&#45;&gt;Any</title>
<path fill="none" stroke="#000000" d="M804.2,-1048.06C877.26,-967.26 1174.65,-638.35 1256.61,-547.71"/>
<polygon fill="#000000" stroke="#000000" points="1259.32,-549.93 1263.43,-540.17 1254.12,-545.24 1259.32,-549.93"/>
</g>
<!-- Metamodel::ClassHOW&#45;&gt;Metamodel::Naming -->
<g id="edge4" class="edge">
<title>Metamodel::ClassHOW&#45;&gt;Metamodel::Naming</title>
<path fill="none" stroke="#6666ff" d="M790.11,-1084.09C800.26,-1167.4 842.18,-1511.41 842.18,-1511.41 842.18,-1511.41 906.28,-1636.43 935.31,-1693.04"/>
<polygon fill="#6666ff" stroke="#6666ff" points="932.3,-1694.84 939.97,-1702.14 938.53,-1691.64 932.3,-1694.84"/>
</g>
<!-- Metamodel::ClassHOW&#45;&gt;Metamodel::Documenting -->
<g id="edge5" class="edge">
<title>Metamodel::ClassHOW&#45;&gt;Metamodel::Documenting</title>
<path fill="none" stroke="#6666ff" d="M808.84,-1083.81C899.93,-1160.95 1261.89,-1467.52 1367.16,-1556.67"/>
<polygon fill="#6666ff" stroke="#6666ff" points="1364.96,-1559.4 1374.85,-1563.19 1369.48,-1554.05 1364.96,-1559.4"/>
</g>
<!-- Metamodel::ClassHOW&#45;&gt;Metamodel::Versioning -->
<g id="edge6" class="edge">
<title>Metamodel::ClassHOW&#45;&gt;Metamodel::Versioning</title>
<path fill="none" stroke="#6666ff" d="M716.88,-1080.17C606.29,-1102.11 405.51,-1141.94 405.51,-1141.94 405.51,-1141.94 356.19,-1155.78 356.19,-1155.78 356.19,-1155.78 235.2,-1213.31 167.01,-1245.74"/>
<polygon fill="#6666ff" stroke="#6666ff" points="165.28,-1242.68 157.75,-1250.14 168.29,-1249 165.28,-1242.68"/>
</g>
<!-- Metamodel::ClassHOW&#45;&gt;Metamodel::Stashing -->
<g id="edge7" class="edge">
<title>Metamodel::ClassHOW&#45;&gt;Metamodel::Stashing</title>
<path fill="none" stroke="#6666ff" d="M790.97,-1047.82C804.63,-966.21 860.15,-634.58 876.71,-535.65"/>
<polygon fill="#6666ff" stroke="#6666ff" points="880.17,-536.23 878.36,-525.79 873.26,-535.07 880.17,-536.23"/>
</g>
<!-- Metamodel::ClassHOW&#45;&gt;Metamodel::AttributeContainer -->
<g id="edge8" class="edge">
<title>Metamodel::ClassHOW&#45;&gt;Metamodel::AttributeContainer</title>
<path fill="none" stroke="#6666ff" d="M875.03,-1054.57C1000.01,-1038.05 1230.19,-1007.63 1367.32,-989.51"/>
<polygon fill="#6666ff" stroke="#6666ff" points="1367.98,-992.95 1377.44,-988.17 1367.07,-986.01 1367.98,-992.95"/>
</g>
<!-- Metamodel::ClassHOW&#45;&gt;Metamodel::Finalization -->
<g id="edge9" class="edge">
<title>Metamodel::ClassHOW&#45;&gt;Metamodel::Finalization</title>
<path fill="none" stroke="#6666ff" d="M751.65,-1048.82C645.24,-998.18 333.95,-850.02 216.79,-794.26"/>
<polygon fill="#6666ff" stroke="#6666ff" points="218.25,-791.07 207.71,-789.93 215.24,-797.39 218.25,-791.07"/>
</g>
<!-- Metamodel::ClassHOW&#45;&gt;Metamodel::MethodContainer -->
<g id="edge10" class="edge">
<title>Metamodel::ClassHOW&#45;&gt;Metamodel::MethodContainer</title>
<path fill="none" stroke="#6666ff" d="M798.49,-1047.97C840.08,-976.73 992.56,-715.56 1042.05,-630.8"/>
<polygon fill="#6666ff" stroke="#6666ff" points="1045.15,-632.43 1047.17,-622.03 1039.1,-628.91 1045.15,-632.43"/>
</g>
<!-- Metamodel::ClassHOW&#45;&gt;Metamodel::PrivateMethodContainer -->
<g id="edge11" class="edge">
<title>Metamodel::ClassHOW&#45;&gt;Metamodel::PrivateMethodContainer</title>
<path fill="none" stroke="#6666ff" d="M770.4,-1047.99C697.05,-972.22 414.29,-680.14 328.71,-591.74"/>
<polygon fill="#6666ff" stroke="#6666ff" points="330.98,-589.05 321.51,-584.3 325.95,-593.92 330.98,-589.05"/>
</g>
<!-- Metamodel::ClassHOW&#45;&gt;Metamodel::MultiMethodContainer -->
<g id="edge12" class="edge">
<title>Metamodel::ClassHOW&#45;&gt;Metamodel::MultiMethodContainer</title>
<path fill="none" stroke="#6666ff" d="M739.73,-1082.44C695.83,-1097.34 630.84,-1119.4 583.58,-1135.44"/>
<polygon fill="#6666ff" stroke="#6666ff" points="582.42,-1132.14 574.08,-1138.67 584.67,-1138.77 582.42,-1132.14"/>
</g>
<!-- Metamodel::ClassHOW&#45;&gt;Metamodel::RoleContainer -->
<g id="edge13" class="edge">
<title>Metamodel::ClassHOW&#45;&gt;Metamodel::RoleContainer</title>
<path fill="none" stroke="#6666ff" d="M832.84,-1082.65C946.79,-1124.67 1246.83,-1235.32 1371.42,-1281.26"/>
<polygon fill="#6666ff" stroke="#6666ff" points="1370.55,-1284.67 1381.15,-1284.85 1372.98,-1278.11 1370.55,-1284.67"/>
</g>
<!-- Metamodel::ClassHOW&#45;&gt;Metamodel::MultipleInheritance -->
<g id="edge14" class="edge">
<title>Metamodel::ClassHOW&#45;&gt;Metamodel::MultipleInheritance</title>
<path fill="none" stroke="#6666ff" d="M774.93,-1084.02C716.03,-1165.48 476.68,-1496.46 476.68,-1496.46 476.68,-1496.46 464.57,-1641.62 459.36,-1704.12"/>
<polygon fill="#6666ff" stroke="#6666ff" points="455.87,-1703.84 458.53,-1714.1 462.84,-1704.43 455.87,-1703.84"/>
</g>
<!-- Metamodel::ClassHOW&#45;&gt;Metamodel::DefaultParent -->
<g id="edge15" class="edge">
<title>Metamodel::ClassHOW&#45;&gt;Metamodel::DefaultParent</title>
<path fill="none" stroke="#6666ff" d="M768.74,-1083.82C740.45,-1109.99 690.86,-1155.88 690.86,-1155.88 690.86,-1155.88 370.38,-1407.89 268.23,-1488.22"/>
<polygon fill="#6666ff" stroke="#6666ff" points="265.84,-1485.65 260.14,-1494.58 270.17,-1491.15 265.84,-1485.65"/>
</g>
<!-- Metamodel::ClassHOW&#45;&gt;Metamodel::C3MRO -->
<g id="edge16" class="edge">
<title>Metamodel::ClassHOW&#45;&gt;Metamodel::C3MRO</title>
<path fill="none" stroke="#6666ff" d="M778.41,-1047.68C740.4,-974.1 601.41,-705.02 601.41,-705.02 601.41,-705.02 547.5,-495.99 527.57,-418.72"/>
<polygon fill="#6666ff" stroke="#6666ff" points="530.88,-417.54 525,-408.73 524.11,-419.28 530.88,-417.54"/>
</g>
<!-- Metamodel::ClassHOW&#45;&gt;Metamodel::MROBasedMethodDispatch -->
<g id="edge17" class="edge">
<title>Metamodel::ClassHOW&#45;&gt;Metamodel::MROBasedMethodDispatch</title>
<path fill="none" stroke="#6666ff" d="M819.78,-1048.74C913.7,-997.65 1189.38,-847.67 1294.89,-790.27"/>
<polygon fill="#6666ff" stroke="#6666ff" points="1296.86,-793.18 1303.97,-785.33 1293.51,-787.03 1296.86,-793.18"/>
</g>
<!-- Metamodel::ClassHOW&#45;&gt;Metamodel::MROBasedTypeChecking -->
<g id="edge18" class="edge">
<title>Metamodel::ClassHOW&#45;&gt;Metamodel::MROBasedTypeChecking</title>
<path fill="none" stroke="#6666ff" d="M782.37,-1084.3C761.88,-1151.66 690.33,-1386.92 665.54,-1468.42"/>
<polygon fill="#6666ff" stroke="#6666ff" points="662.19,-1467.43 662.63,-1478.01 668.89,-1469.46 662.19,-1467.43"/>
</g>
<!-- Metamodel::ClassHOW&#45;&gt;Metamodel::Trusting -->
<g id="edge19" class="edge">
<title>Metamodel::ClassHOW&#45;&gt;Metamodel::Trusting</title>
<path fill="none" stroke="#6666ff" d="M687.91,-1057.65C558.94,-1046.78 335.76,-1027.97 205.46,-1016.99"/>
<polygon fill="#6666ff" stroke="#6666ff" points="205.73,-1013.5 195.47,-1016.15 205.14,-1020.47 205.73,-1013.5"/>
</g>
<!-- Metamodel::ClassHOW&#45;&gt;Metamodel::Mixins -->
<g id="edge21" class="edge">
<title>Metamodel::ClassHOW&#45;&gt;Metamodel::Mixins</title>
<path fill="none" stroke="#6666ff" d="M794.01,-1084.09C817.33,-1153 900.98,-1400.19 929.25,-1483.73"/>
<polygon fill="#6666ff" stroke="#6666ff" points="925.97,-1484.96 932.49,-1493.31 932.6,-1482.71 925.97,-1484.96"/>
</g>
<!-- Metamodel::ClassHOW&#45;&gt;Metamodel::BoolificationProtocol -->
<g id="edge22" class="edge">
<title>Metamodel::ClassHOW&#45;&gt;Metamodel::BoolificationProtocol</title>
<path fill="none" stroke="#6666ff" d="M799.34,-1084.26C847.06,-1160.15 1030.43,-1451.78 1087.13,-1541.94"/>
<polygon fill="#6666ff" stroke="#6666ff" points="1084.23,-1543.9 1092.51,-1550.5 1090.15,-1540.17 1084.23,-1543.9"/>
</g>
<!-- Metamodel::BaseType -->
<g id="node23" class="node">
<title>Metamodel::BaseType</title>
<g id="a_node23"><a xlink:href="/type/Metamodel::BaseType" xlink:title="Metamodel::BaseType">
<ellipse fill="none" stroke="#6666ff" cx="1956.52" cy="-1206.91" rx="109.38" ry="18"/>
<text text-anchor="middle" x="1956.52" y="-1203.21" font-family="FreeSans" font-size="14.00" fill="#6666ff">Metamodel::BaseType</text>
</a>
</g>
</g>
<!-- Metamodel::EnumHOW -->
<g id="node24" class="node">
<title>Metamodel::EnumHOW</title>
<g id="a_node24"><a xlink:href="/type/Metamodel::EnumHOW" xlink:title="Metamodel::EnumHOW">
<ellipse fill="none" stroke="#000000" cx="1172.59" cy="-1088.6" rx="115.88" ry="18"/>
<text text-anchor="middle" x="1172.59" y="-1084.9" font-family="FreeSans" font-size="14.00" fill="#000000">Metamodel::EnumHOW</text>
</a>
</g>
</g>
<!-- Metamodel::EnumHOW&#45;&gt;Metamodel::BUILDPLAN -->
<g id="edge32" class="edge">
<title>Metamodel::EnumHOW&#45;&gt;Metamodel::BUILDPLAN</title>
<path fill="none" stroke="#6666ff" d="M1151.73,-1070.87C1078.67,-1008.79 834.23,-801.05 750.06,-729.53"/>
<polygon fill="#6666ff" stroke="#6666ff" points="752.09,-726.66 742.2,-722.85 747.56,-731.99 752.09,-726.66"/>
</g>
<!-- Metamodel::EnumHOW&#45;&gt;Any -->
<g id="edge3" class="edge">
<title>Metamodel::EnumHOW&#45;&gt;Any</title>
<path fill="none" stroke="#000000" d="M1171.11,-1070.42C1165.6,-1002.5 1146.54,-767.53 1146.54,-767.53 1146.54,-767.53 1229.79,-613.15 1263.59,-550.47"/>
<polygon fill="#000000" stroke="#000000" points="1266.73,-552.04 1268.39,-541.57 1260.56,-548.71 1266.73,-552.04"/>
</g>
<!-- Metamodel::EnumHOW&#45;&gt;Metamodel::Naming -->
<g id="edge23" class="edge">
<title>Metamodel::EnumHOW&#45;&gt;Metamodel::Naming</title>
<path fill="none" stroke="#6666ff" d="M1166.68,-1106.78C1140.38,-1187.76 1035.15,-1511.68 1035.15,-1511.68 1035.15,-1511.68 945.05,-1568.51 945.05,-1568.51 945.05,-1568.51 947.28,-1648.38 948.51,-1692.25"/>
<polygon fill="#6666ff" stroke="#6666ff" points="945.01,-1692.41 948.79,-1702.3 952.01,-1692.21 945.01,-1692.41"/>
</g>
<!-- Metamodel::EnumHOW&#45;&gt;Metamodel::Stashing -->
<g id="edge24" class="edge">
<title>Metamodel::EnumHOW&#45;&gt;Metamodel::Stashing</title>
<path fill="none" stroke="#6666ff" d="M1162.86,-1070.49C1115.64,-982.51 912.43,-603.99 912.43,-603.99 912.43,-603.99 899.58,-564.09 890.41,-535.65"/>
<polygon fill="#6666ff" stroke="#6666ff" points="893.63,-534.23 887.24,-525.79 886.97,-536.38 893.63,-534.23"/>
</g>
<!-- Metamodel::EnumHOW&#45;&gt;Metamodel::AttributeContainer -->
<g id="edge25" class="edge">
<title>Metamodel::EnumHOW&#45;&gt;Metamodel::AttributeContainer</title>
<path fill="none" stroke="#6666ff" d="M1217.41,-1071.93C1271.89,-1051.67 1363.86,-1017.47 1422.85,-995.53"/>
<polygon fill="#6666ff" stroke="#6666ff" points="1424.23,-998.75 1432.38,-991.99 1421.79,-992.19 1424.23,-998.75"/>
</g>
<!-- Metamodel::EnumHOW&#45;&gt;Metamodel::MethodContainer -->
<g id="edge26" class="edge">
<title>Metamodel::EnumHOW&#45;&gt;Metamodel::MethodContainer</title>
<path fill="none" stroke="#6666ff" d="M1168.29,-1070.49C1150.89,-997.11 1085.53,-721.53 1064.35,-632.19"/>
<polygon fill="#6666ff" stroke="#6666ff" points="1067.7,-631.17 1061.99,-622.25 1060.89,-632.79 1067.7,-631.17"/>
</g>
<!-- Metamodel::EnumHOW&#45;&gt;Metamodel::MultiMethodContainer -->
<g id="edge27" class="edge">
<title>Metamodel::EnumHOW&#45;&gt;Metamodel::MultiMethodContainer</title>
<path fill="none" stroke="#6666ff" d="M1076.12,-1098.6C964.03,-1110.21 778.54,-1129.42 653.74,-1142.34"/>
<polygon fill="#6666ff" stroke="#6666ff" points="653.33,-1138.87 643.74,-1143.38 654.05,-1145.83 653.33,-1138.87"/>
</g>
<!-- Metamodel::EnumHOW&#45;&gt;Metamodel::RoleContainer -->
<g id="edge28" class="edge">
<title>Metamodel::EnumHOW&#45;&gt;Metamodel::RoleContainer</title>
<path fill="none" stroke="#6666ff" d="M1193.83,-1106.41C1239.27,-1144.49 1345.95,-1233.89 1397.71,-1277.26"/>
<polygon fill="#6666ff" stroke="#6666ff" points="1395.61,-1280.07 1405.52,-1283.81 1400.11,-1274.71 1395.61,-1280.07"/>
</g>
<!-- Metamodel::EnumHOW&#45;&gt;Metamodel::MROBasedMethodDispatch -->
<g id="edge30" class="edge">
<title>Metamodel::EnumHOW&#45;&gt;Metamodel::MROBasedMethodDispatch</title>
<path fill="none" stroke="#6666ff" d="M1181.88,-1070.42C1209.34,-1016.68 1290.25,-858.31 1322.81,-794.59"/>
<polygon fill="#6666ff" stroke="#6666ff" points="1326,-796.04 1327.43,-785.55 1319.77,-792.86 1326,-796.04"/>
</g>
<!-- Metamodel::EnumHOW&#45;&gt;Metamodel::MROBasedTypeChecking -->
<g id="edge31" class="edge">
<title>Metamodel::EnumHOW&#45;&gt;Metamodel::MROBasedTypeChecking</title>
<path fill="none" stroke="#6666ff" d="M1150.1,-1106.39C1067.7,-1171.58 782.13,-1397.5 687.64,-1472.25"/>
<polygon fill="#6666ff" stroke="#6666ff" points="685.29,-1469.65 679.62,-1478.6 689.63,-1475.14 685.29,-1469.65"/>
</g>
<!-- Metamodel::EnumHOW&#45;&gt;Metamodel::Mixins -->
<g id="edge34" class="edge">
<title>Metamodel::EnumHOW&#45;&gt;Metamodel::Mixins</title>
<path fill="none" stroke="#6666ff" d="M1162.54,-1106.78C1125.65,-1173.48 997.57,-1405.04 953.61,-1484.52"/>
<polygon fill="#6666ff" stroke="#6666ff" points="950.46,-1482.99 948.68,-1493.44 956.58,-1486.38 950.46,-1482.99"/>
</g>
<!-- Metamodel::EnumHOW&#45;&gt;Metamodel::BoolificationProtocol -->
<g id="edge33" class="edge">
<title>Metamodel::EnumHOW&#45;&gt;Metamodel::BoolificationProtocol</title>
<path fill="none" stroke="#6666ff" d="M1169.98,-1106.84C1159.54,-1179.83 1120.71,-1451.34 1107.99,-1540.27"/>
<polygon fill="#6666ff" stroke="#6666ff" points="1104.49,-1540.02 1106.54,-1550.41 1111.42,-1541.01 1104.49,-1540.02"/>
</g>
<!-- Metamodel::EnumHOW&#45;&gt;Metamodel::BaseType -->
<g id="edge29" class="edge">
<title>Metamodel::EnumHOW&#45;&gt;Metamodel::BaseType</title>
<path fill="none" stroke="#6666ff" d="M1255.74,-1101.15C1403.85,-1123.5 1712.16,-1170.03 1865.65,-1193.19"/>
<polygon fill="#6666ff" stroke="#6666ff" points="1865.57,-1196.72 1875.98,-1194.75 1866.61,-1189.8 1865.57,-1196.72"/>
</g>
</g>
</svg>
