<?xml version="1.0" encoding="UTF-8" standalone="no"?>
<!DOCTYPE svg PUBLIC "-//W3C//DTD SVG 1.1//EN"
 "http://www.w3.org/Graphics/SVG/1.1/DTD/svg11.dtd">
<!-- Generated by graphviz version 2.42.3 (0)
 -->
<!-- Title: perl6&#45;type&#45;graph Pages: 1 -->
<svg width="480pt" height="188pt"
 viewBox="0.00 0.00 480.48 188.00" xmlns="http://www.w3.org/2000/svg" xmlns:xlink="http://www.w3.org/1999/xlink">
<g id="graph0" class="graph" transform="scale(1 1) rotate(0) translate(4 184)">
<title>perl6&#45;type&#45;graph</title>
<polygon fill="white" stroke="transparent" points="-4,4 -4,-184 476.48,-184 476.48,4 -4,4"/>
<!-- Scheduler -->
<g id="node1" class="node">
<title>Scheduler</title>
<g id="a_node1"><a xlink:href="/type/Scheduler" xlink:title="Scheduler">
<ellipse fill="none" stroke="#6666ff" cx="141.94" cy="-90" rx="55.79" ry="18"/>
<text text-anchor="middle" x="141.94" y="-86.3" font-family="FreeSans" font-size="14.00" fill="#6666ff">Scheduler</text>
</a>
</g>
</g>
<!-- Mu -->
<g id="node2" class="node">
<title>Mu</title>
<g id="a_node2"><a xlink:href="/type/Mu" xlink:title="Mu">
<ellipse fill="none" stroke="#000000" cx="314.94" cy="-162" rx="27" ry="18"/>
<text text-anchor="middle" x="314.94" y="-158.3" font-family="FreeSans" font-size="14.00" fill="#000000">Mu</text>
</a>
</g>
</g>
<!-- Any -->
<g id="node3" class="node">
<title>Any</title>
<g id="a_node3"><a xlink:href="/type/Any" xlink:title="Any">
<ellipse fill="none" stroke="#000000" cx="314.94" cy="-90" rx="28.7" ry="18"/>
<text text-anchor="middle" x="314.94" y="-86.3" font-family="FreeSans" font-size="14.00" fill="#000000">Any</text>
</a>
</g>
</g>
<!-- Any&#45;&gt;Mu -->
<g id="edge1" class="edge">
<title>Any&#45;&gt;Mu</title>
<path fill="none" stroke="#000000" d="M314.94,-108.3C314.94,-116.02 314.94,-125.29 314.94,-133.89"/>
<polygon fill="#000000" stroke="#000000" points="311.44,-133.9 314.94,-143.9 318.44,-133.9 311.44,-133.9"/>
</g>
<!-- ThreadPoolScheduler -->
<g id="node4" class="node">
<title>ThreadPoolScheduler</title>
<g id="a_node4"><a xlink:href="/type/ThreadPoolScheduler" xlink:title="ThreadPoolScheduler">
<ellipse fill="none" stroke="#000000" cx="105.94" cy="-18" rx="105.88" ry="18"/>
<text text-anchor="middle" x="105.94" y="-14.3" font-family="FreeSans" font-size="14.00" fill="#000000">ThreadPoolScheduler</text>
</a>
</g>
</g>
<!-- ThreadPoolScheduler&#45;&gt;Scheduler -->
<g id="edge4" class="edge">
<title>ThreadPoolScheduler&#45;&gt;Scheduler</title>
<path fill="none" stroke="#6666ff" d="M114.66,-35.95C118.86,-44.11 123.99,-54.09 128.66,-63.18"/>
<polygon fill="#6666ff" stroke="#6666ff" points="125.62,-64.92 133.31,-72.21 131.85,-61.72 125.62,-64.92"/>
</g>
<!-- ThreadPoolScheduler&#45;&gt;Any -->
<g id="edge2" class="edge">
<title>ThreadPoolScheduler&#45;&gt;Any</title>
<path fill="none" stroke="#000000" d="M151.55,-34.28C190.36,-47.27 245.25,-65.66 280.48,-77.46"/>
<polygon fill="#000000" stroke="#000000" points="279.71,-80.89 290.3,-80.75 281.93,-74.25 279.71,-80.89"/>
</g>
<!-- CurrentThreadScheduler -->
<g id="node5" class="node">
<title>CurrentThreadScheduler</title>
<g id="a_node5"><a xlink:href="/type/CurrentThreadScheduler" xlink:title="CurrentThreadScheduler">
<ellipse fill="none" stroke="#000000" cx="350.94" cy="-18" rx="121.58" ry="18"/>
<text text-anchor="middle" x="350.94" y="-14.3" font-family="FreeSans" font-size="14.00" fill="#000000">CurrentThreadScheduler</text>
</a>
</g>
</g>
<!-- CurrentThreadScheduler&#45;&gt;Scheduler -->
<g id="edge5" class="edge">
<title>CurrentThreadScheduler&#45;&gt;Scheduler</title>
<path fill="none" stroke="#6666ff" d="M304.3,-34.62C270.02,-46.1 223.63,-61.64 189.21,-73.17"/>
<polygon fill="#6666ff" stroke="#6666ff" points="187.76,-69.96 179.39,-76.46 189.98,-76.6 187.76,-69.96"/>
</g>
<!-- CurrentThreadScheduler&#45;&gt;Any -->
<g id="edge3" class="edge">
<title>CurrentThreadScheduler&#45;&gt;Any</title>
<path fill="none" stroke="#000000" d="M342.04,-36.3C337.84,-44.48 332.74,-54.4 328.1,-63.42"/>
<polygon fill="#000000" stroke="#000000" points="324.95,-61.88 323.49,-72.38 331.18,-65.09 324.95,-61.88"/>
</g>
</g>
</svg>
