<?xml version="1.0" encoding="UTF-8" standalone="no"?>
<!DOCTYPE svg PUBLIC "-//W3C//DTD SVG 1.1//EN"
 "http://www.w3.org/Graphics/SVG/1.1/DTD/svg11.dtd">
<!-- Generated by graphviz version 2.42.3 (0)
 -->
<!-- Title: perl6&#45;type&#45;graph Pages: 1 -->
<svg width="218pt" height="404pt"
 viewBox="0.00 0.00 218.44 404.00" xmlns="http://www.w3.org/2000/svg" xmlns:xlink="http://www.w3.org/1999/xlink">
<g id="graph0" class="graph" transform="scale(1 1) rotate(0) translate(4 400)">
<title>perl6&#45;type&#45;graph</title>
<polygon fill="white" stroke="transparent" points="-4,4 -4,-400 214.44,-400 214.44,4 -4,4"/>
<!-- X::IO::Move -->
<g id="node1" class="node">
<title>X::IO::Move</title>
<g id="a_node1"><a xlink:href="/type/X::IO::Move" xlink:title="X::IO::Move">
<ellipse fill="none" stroke="#000000" cx="63.04" cy="-18" rx="63.09" ry="18"/>
<text text-anchor="middle" x="63.04" y="-14.3" font-family="FreeSans" font-size="14.00" fill="#000000">X::IO::Move</text>
</a>
</g>
</g>
<!-- Exception -->
<g id="node4" class="node">
<title>Exception</title>
<g id="a_node4"><a xlink:href="/type/Exception" xlink:title="Exception">
<ellipse fill="none" stroke="#000000" cx="86.04" cy="-234" rx="55.49" ry="18"/>
<text text-anchor="middle" x="86.04" y="-230.3" font-family="FreeSans" font-size="14.00" fill="#000000">Exception</text>
</a>
</g>
</g>
<!-- X::IO::Move&#45;&gt;Exception -->
<g id="edge1" class="edge">
<title>X::IO::Move&#45;&gt;Exception</title>
<path fill="none" stroke="#000000" d="M61.01,-36.15C61.45,-73.34 70.69,-161.63 78.52,-206.23"/>
<polygon fill="#000000" stroke="#000000" points="75.08,-206.88 80.37,-216.06 81.96,-205.59 75.08,-206.88"/>
</g>
<!-- X::IO::Move&#45;&gt;Exception -->
<g id="edge2" class="edge">
<title>X::IO::Move&#45;&gt;Exception</title>
<path fill="none" stroke="#000000" d="M68.77,-36.15C76.28,-73.17 85.97,-160.82 87.79,-205.61"/>
<polygon fill="#000000" stroke="#000000" points="84.3,-205.87 88.08,-215.77 91.3,-205.67 84.3,-205.87"/>
</g>
<!-- X::IO -->
<g id="node6" class="node">
<title>X::IO</title>
<g id="a_node6"><a xlink:href="/type/X::IO" xlink:title="X::IO">
<ellipse fill="none" stroke="#6666ff" cx="133.04" cy="-90" rx="33.29" ry="18"/>
<text text-anchor="middle" x="133.04" y="-86.3" font-family="FreeSans" font-size="14.00" fill="#6666ff">X::IO</text>
</a>
</g>
</g>
<!-- X::IO::Move&#45;&gt;X::IO -->
<g id="edge7" class="edge">
<title>X::IO::Move&#45;&gt;X::IO</title>
<path fill="none" stroke="#6666ff" d="M79.63,-35.59C88.78,-44.74 100.28,-56.24 110.26,-66.22"/>
<polygon fill="#6666ff" stroke="#6666ff" points="107.99,-68.89 117.53,-73.49 112.94,-63.94 107.99,-68.89"/>
</g>
<!-- Mu -->
<g id="node2" class="node">
<title>Mu</title>
<g id="a_node2"><a xlink:href="/type/Mu" xlink:title="Mu">
<ellipse fill="none" stroke="#000000" cx="86.04" cy="-378" rx="27" ry="18"/>
<text text-anchor="middle" x="86.04" y="-374.3" font-family="FreeSans" font-size="14.00" fill="#000000">Mu</text>
</a>
</g>
</g>
<!-- Any -->
<g id="node3" class="node">
<title>Any</title>
<g id="a_node3"><a xlink:href="/type/Any" xlink:title="Any">
<ellipse fill="none" stroke="#000000" cx="86.04" cy="-306" rx="28.7" ry="18"/>
<text text-anchor="middle" x="86.04" y="-302.3" font-family="FreeSans" font-size="14.00" fill="#000000">Any</text>
</a>
</g>
</g>
<!-- Any&#45;&gt;Mu -->
<g id="edge3" class="edge">
<title>Any&#45;&gt;Mu</title>
<path fill="none" stroke="#000000" d="M86.04,-324.3C86.04,-332.02 86.04,-341.29 86.04,-349.89"/>
<polygon fill="#000000" stroke="#000000" points="82.54,-349.9 86.04,-359.9 89.54,-349.9 82.54,-349.9"/>
</g>
<!-- Exception&#45;&gt;Any -->
<g id="edge4" class="edge">
<title>Exception&#45;&gt;Any</title>
<path fill="none" stroke="#000000" d="M86.04,-252.3C86.04,-260.02 86.04,-269.29 86.04,-277.89"/>
<polygon fill="#000000" stroke="#000000" points="82.54,-277.9 86.04,-287.9 89.54,-277.9 82.54,-277.9"/>
</g>
<!-- X::OS -->
<g id="node5" class="node">
<title>X::OS</title>
<g id="a_node5"><a xlink:href="/type/X::OS" xlink:title="X::OS">
<ellipse fill="none" stroke="#6666ff" cx="174.04" cy="-162" rx="36.29" ry="18"/>
<text text-anchor="middle" x="174.04" y="-158.3" font-family="FreeSans" font-size="14.00" fill="#6666ff">X::OS</text>
</a>
</g>
</g>
<!-- X::OS&#45;&gt;Exception -->
<g id="edge5" class="edge">
<title>X::OS&#45;&gt;Exception</title>
<path fill="none" stroke="#000000" d="M155.38,-177.85C143.43,-187.35 127.7,-199.86 114.24,-210.57"/>
<polygon fill="#000000" stroke="#000000" points="111.86,-207.99 106.21,-216.96 116.22,-213.47 111.86,-207.99"/>
</g>
<!-- X::IO&#45;&gt;Exception -->
<g id="edge6" class="edge">
<title>X::IO&#45;&gt;Exception</title>
<path fill="none" stroke="#000000" d="M127.47,-107.85C119.46,-132.06 104.6,-176.95 95.02,-205.87"/>
<polygon fill="#000000" stroke="#000000" points="91.58,-205.14 91.76,-215.73 98.22,-207.34 91.58,-205.14"/>
</g>
<!-- X::IO&#45;&gt;X::OS -->
<g id="edge8" class="edge">
<title>X::IO&#45;&gt;X::OS</title>
<path fill="none" stroke="#6666ff" d="M142.76,-107.59C147.66,-115.96 153.71,-126.29 159.18,-135.63"/>
<polygon fill="#6666ff" stroke="#6666ff" points="156.32,-137.67 164.4,-144.53 162.36,-134.13 156.32,-137.67"/>
</g>
</g>
</svg>
