<?xml version="1.0" encoding="UTF-8" standalone="no"?>
<!DOCTYPE svg PUBLIC "-//W3C//DTD SVG 1.1//EN"
 "http://www.w3.org/Graphics/SVG/1.1/DTD/svg11.dtd">
<!-- Generated by graphviz version 2.42.3 (0)
 -->
<!-- Title: perl6&#45;type&#45;graph Pages: 1 -->
<svg width="226pt" height="404pt"
 viewBox="0.00 0.00 225.64 404.00" xmlns="http://www.w3.org/2000/svg" xmlns:xlink="http://www.w3.org/1999/xlink">
<g id="graph0" class="graph" transform="scale(1 1) rotate(0) translate(4 400)">
<title>perl6&#45;type&#45;graph</title>
<polygon fill="white" stroke="transparent" points="-4,4 -4,-400 221.64,-400 221.64,4 -4,4"/>
<!-- X::Syntax::Missing -->
<g id="node1" class="node">
<title>X::Syntax::Missing</title>
<g id="a_node1"><a xlink:href="/type/X::Syntax::Missing" xlink:title="X::Syntax::Missing">
<ellipse fill="none" stroke="#000000" cx="94.24" cy="-18" rx="94.48" ry="18"/>
<text text-anchor="middle" x="94.24" y="-14.3" font-family="FreeSans" font-size="14.00" fill="#000000">X::Syntax::Missing</text>
</a>
</g>
</g>
<!-- Exception -->
<g id="node4" class="node">
<title>Exception</title>
<g id="a_node4"><a xlink:href="/type/Exception" xlink:title="Exception">
<ellipse fill="none" stroke="#000000" cx="91.24" cy="-234" rx="55.49" ry="18"/>
<text text-anchor="middle" x="91.24" y="-230.3" font-family="FreeSans" font-size="14.00" fill="#000000">Exception</text>
</a>
</g>
</g>
<!-- X::Syntax::Missing&#45;&gt;Exception -->
<g id="edge1" class="edge">
<title>X::Syntax::Missing&#45;&gt;Exception</title>
<path fill="none" stroke="#000000" d="M87.16,-36.06C80.73,-51.55 72.24,-72 72.24,-72 72.24,-72 72.24,-108 72.24,-108 72.24,-108 81.51,-169.01 87.1,-205.78"/>
<polygon fill="#000000" stroke="#000000" points="83.68,-206.52 88.64,-215.88 90.6,-205.47 83.68,-206.52"/>
</g>
<!-- X::Syntax -->
<g id="node6" class="node">
<title>X::Syntax</title>
<g id="a_node6"><a xlink:href="/type/X::Syntax" xlink:title="X::Syntax">
<ellipse fill="none" stroke="#6666ff" cx="135.24" cy="-90" rx="53.89" ry="18"/>
<text text-anchor="middle" x="135.24" y="-86.3" font-family="FreeSans" font-size="14.00" fill="#6666ff">X::Syntax</text>
</a>
</g>
</g>
<!-- X::Syntax::Missing&#45;&gt;X::Syntax -->
<g id="edge6" class="edge">
<title>X::Syntax::Missing&#45;&gt;X::Syntax</title>
<path fill="none" stroke="#6666ff" d="M104.17,-35.95C109,-44.2 114.92,-54.3 120.28,-63.46"/>
<polygon fill="#6666ff" stroke="#6666ff" points="117.33,-65.35 125.41,-72.21 123.37,-61.81 117.33,-65.35"/>
</g>
<!-- Mu -->
<g id="node2" class="node">
<title>Mu</title>
<g id="a_node2"><a xlink:href="/type/Mu" xlink:title="Mu">
<ellipse fill="none" stroke="#000000" cx="91.24" cy="-378" rx="27" ry="18"/>
<text text-anchor="middle" x="91.24" y="-374.3" font-family="FreeSans" font-size="14.00" fill="#000000">Mu</text>
</a>
</g>
</g>
<!-- Any -->
<g id="node3" class="node">
<title>Any</title>
<g id="a_node3"><a xlink:href="/type/Any" xlink:title="Any">
<ellipse fill="none" stroke="#000000" cx="91.24" cy="-306" rx="28.7" ry="18"/>
<text text-anchor="middle" x="91.24" y="-302.3" font-family="FreeSans" font-size="14.00" fill="#000000">Any</text>
</a>
</g>
</g>
<!-- Any&#45;&gt;Mu -->
<g id="edge2" class="edge">
<title>Any&#45;&gt;Mu</title>
<path fill="none" stroke="#000000" d="M91.24,-324.3C91.24,-332.02 91.24,-341.29 91.24,-349.89"/>
<polygon fill="#000000" stroke="#000000" points="87.74,-349.9 91.24,-359.9 94.74,-349.9 87.74,-349.9"/>
</g>
<!-- Exception&#45;&gt;Any -->
<g id="edge3" class="edge">
<title>Exception&#45;&gt;Any</title>
<path fill="none" stroke="#000000" d="M91.24,-252.3C91.24,-260.02 91.24,-269.29 91.24,-277.89"/>
<polygon fill="#000000" stroke="#000000" points="87.74,-277.9 91.24,-287.9 94.74,-277.9 87.74,-277.9"/>
</g>
<!-- X::Comp -->
<g id="node5" class="node">
<title>X::Comp</title>
<g id="a_node5"><a xlink:href="/type/X::Comp" xlink:title="X::Comp">
<ellipse fill="none" stroke="#6666ff" cx="168.24" cy="-162" rx="49.29" ry="18"/>
<text text-anchor="middle" x="168.24" y="-158.3" font-family="FreeSans" font-size="14.00" fill="#6666ff">X::Comp</text>
</a>
</g>
</g>
<!-- X::Comp&#45;&gt;Exception -->
<g id="edge4" class="edge">
<title>X::Comp&#45;&gt;Exception</title>
<path fill="none" stroke="#000000" d="M150.77,-178.88C140.6,-188.13 127.61,-199.93 116.37,-210.16"/>
<polygon fill="#000000" stroke="#000000" points="113.96,-207.62 108.91,-216.94 118.67,-212.8 113.96,-207.62"/>
</g>
<!-- X::Syntax&#45;&gt;Exception -->
<g id="edge5" class="edge">
<title>X::Syntax&#45;&gt;Exception</title>
<path fill="none" stroke="#000000" d="M127.19,-108.06C119.89,-123.55 110.24,-144 110.24,-144 110.24,-144 102.59,-179.83 97,-206.03"/>
<polygon fill="#000000" stroke="#000000" points="93.57,-205.33 94.91,-215.84 100.42,-206.79 93.57,-205.33"/>
</g>
<!-- X::Syntax&#45;&gt;X::Comp -->
<g id="edge7" class="edge">
<title>X::Syntax&#45;&gt;X::Comp</title>
<path fill="none" stroke="#6666ff" d="M143.23,-107.95C147.04,-116.03 151.68,-125.88 155.93,-134.89"/>
<polygon fill="#6666ff" stroke="#6666ff" points="152.9,-136.66 160.33,-144.21 159.23,-133.67 152.9,-136.66"/>
</g>
</g>
</svg>
