<?xml version="1.0" encoding="UTF-8" standalone="no"?>
<!DOCTYPE svg PUBLIC "-//W3C//DTD SVG 1.1//EN"
 "http://www.w3.org/Graphics/SVG/1.1/DTD/svg11.dtd">
<!-- Generated by graphviz version 2.42.3 (0)
 -->
<!-- Title: perl6&#45;type&#45;graph Pages: 1 -->
<svg width="183pt" height="260pt"
 viewBox="0.00 0.00 183.29 260.00" xmlns="http://www.w3.org/2000/svg" xmlns:xlink="http://www.w3.org/1999/xlink">
<g id="graph0" class="graph" transform="scale(1 1) rotate(0) translate(4 256)">
<title>perl6&#45;type&#45;graph</title>
<polygon fill="white" stroke="transparent" points="-4,4 -4,-256 179.29,-256 179.29,4 -4,4"/>
<!-- FatRat -->
<g id="node1" class="node">
<title>FatRat</title>
<g id="a_node1"><a xlink:href="/type/FatRat" xlink:title="FatRat">
<ellipse fill="none" stroke="#000000" cx="78.55" cy="-18" rx="39.79" ry="18"/>
<text text-anchor="middle" x="78.55" y="-14.3" font-family="FreeSans" font-size="14.00" fill="#000000">FatRat</text>
</a>
</g>
</g>
<!-- Cool -->
<g id="node4" class="node">
<title>Cool</title>
<g id="a_node4"><a xlink:href="/type/Cool" xlink:title="Cool">
<ellipse fill="none" stroke="#000000" cx="30.55" cy="-90" rx="30.59" ry="18"/>
<text text-anchor="middle" x="30.55" y="-86.3" font-family="FreeSans" font-size="14.00" fill="#000000">Cool</text>
</a>
</g>
</g>
<!-- FatRat&#45;&gt;Cool -->
<g id="edge1" class="edge">
<title>FatRat&#45;&gt;Cool</title>
<path fill="none" stroke="#000000" d="M67.17,-35.59C61.23,-44.26 53.84,-55.03 47.26,-64.62"/>
<polygon fill="#000000" stroke="#000000" points="44.28,-62.79 41.51,-73.01 50.05,-66.74 44.28,-62.79"/>
</g>
<!-- Rational -->
<g id="node7" class="node">
<title>Rational</title>
<g id="a_node7"><a xlink:href="/type/Rational" xlink:title="Rational">
<ellipse fill="none" stroke="#6666ff" cx="126.55" cy="-90" rx="47.39" ry="18"/>
<text text-anchor="middle" x="126.55" y="-86.3" font-family="FreeSans" font-size="14.00" fill="#6666ff">Rational</text>
</a>
</g>
</g>
<!-- FatRat&#45;&gt;Rational -->
<g id="edge4" class="edge">
<title>FatRat&#45;&gt;Rational</title>
<path fill="none" stroke="#6666ff" d="M89.92,-35.59C95.64,-43.92 102.69,-54.2 109.07,-63.51"/>
<polygon fill="#6666ff" stroke="#6666ff" points="106.38,-65.78 114.92,-72.04 112.15,-61.82 106.38,-65.78"/>
</g>
<!-- Mu -->
<g id="node2" class="node">
<title>Mu</title>
<g id="a_node2"><a xlink:href="/type/Mu" xlink:title="Mu">
<ellipse fill="none" stroke="#000000" cx="30.55" cy="-234" rx="27" ry="18"/>
<text text-anchor="middle" x="30.55" y="-230.3" font-family="FreeSans" font-size="14.00" fill="#000000">Mu</text>
</a>
</g>
</g>
<!-- Any -->
<g id="node3" class="node">
<title>Any</title>
<g id="a_node3"><a xlink:href="/type/Any" xlink:title="Any">
<ellipse fill="none" stroke="#000000" cx="30.55" cy="-162" rx="28.7" ry="18"/>
<text text-anchor="middle" x="30.55" y="-158.3" font-family="FreeSans" font-size="14.00" fill="#000000">Any</text>
</a>
</g>
</g>
<!-- Any&#45;&gt;Mu -->
<g id="edge2" class="edge">
<title>Any&#45;&gt;Mu</title>
<path fill="none" stroke="#000000" d="M30.55,-180.3C30.55,-188.02 30.55,-197.29 30.55,-205.89"/>
<polygon fill="#000000" stroke="#000000" points="27.05,-205.9 30.55,-215.9 34.05,-205.9 27.05,-205.9"/>
</g>
<!-- Cool&#45;&gt;Any -->
<g id="edge3" class="edge">
<title>Cool&#45;&gt;Any</title>
<path fill="none" stroke="#000000" d="M30.55,-108.3C30.55,-116.02 30.55,-125.29 30.55,-133.89"/>
<polygon fill="#000000" stroke="#000000" points="27.05,-133.9 30.55,-143.9 34.05,-133.9 27.05,-133.9"/>
</g>
<!-- Numeric -->
<g id="node5" class="node">
<title>Numeric</title>
<g id="a_node5"><a xlink:href="/type/Numeric" xlink:title="Numeric">
<ellipse fill="none" stroke="#6666ff" cx="126.55" cy="-234" rx="48.99" ry="18"/>
<text text-anchor="middle" x="126.55" y="-230.3" font-family="FreeSans" font-size="14.00" fill="#6666ff">Numeric</text>
</a>
</g>
</g>
<!-- Real -->
<g id="node6" class="node">
<title>Real</title>
<g id="a_node6"><a xlink:href="/type/Real" xlink:title="Real">
<ellipse fill="none" stroke="#6666ff" cx="126.55" cy="-162" rx="30.59" ry="18"/>
<text text-anchor="middle" x="126.55" y="-158.3" font-family="FreeSans" font-size="14.00" fill="#6666ff">Real</text>
</a>
</g>
</g>
<!-- Real&#45;&gt;Numeric -->
<g id="edge5" class="edge">
<title>Real&#45;&gt;Numeric</title>
<path fill="none" stroke="#6666ff" d="M126.55,-180.3C126.55,-188.02 126.55,-197.29 126.55,-205.89"/>
<polygon fill="#6666ff" stroke="#6666ff" points="123.05,-205.9 126.55,-215.9 130.05,-205.9 123.05,-205.9"/>
</g>
<!-- Rational&#45;&gt;Real -->
<g id="edge6" class="edge">
<title>Rational&#45;&gt;Real</title>
<path fill="none" stroke="#6666ff" d="M126.55,-108.3C126.55,-116.02 126.55,-125.29 126.55,-133.89"/>
<polygon fill="#6666ff" stroke="#6666ff" points="123.05,-133.9 126.55,-143.9 130.05,-133.9 123.05,-133.9"/>
</g>
</g>
</svg>
