<?xml version="1.0" encoding="UTF-8" standalone="no"?>
<!DOCTYPE svg PUBLIC "-//W3C//DTD SVG 1.1//EN"
 "http://www.w3.org/Graphics/SVG/1.1/DTD/svg11.dtd">
<!-- Generated by graphviz version 2.42.3 (0)
 -->
<!-- Title: perl6&#45;type&#45;graph Pages: 1 -->
<svg width="979pt" height="404pt"
 viewBox="0.00 0.00 978.79 404.00" xmlns="http://www.w3.org/2000/svg" xmlns:xlink="http://www.w3.org/1999/xlink">
<g id="graph0" class="graph" transform="scale(1 1) rotate(0) translate(4 400)">
<title>perl6&#45;type&#45;graph</title>
<polygon fill="white" stroke="transparent" points="-4,4 -4,-400 974.79,-400 974.79,4 -4,4"/>
<!-- Stringy -->
<g id="node1" class="node">
<title>Stringy</title>
<g id="a_node1"><a xlink:href="/type/Stringy" xlink:title="Stringy">
<ellipse fill="none" stroke="#6666ff" cx="359.1" cy="-306" rx="43.59" ry="18"/>
<text text-anchor="middle" x="359.1" y="-302.3" font-family="FreeSans" font-size="14.00" fill="#6666ff">Stringy</text>
</a>
</g>
</g>
<!-- Mu -->
<g id="node2" class="node">
<title>Mu</title>
<g id="a_node2"><a xlink:href="/type/Mu" xlink:title="Mu">
<ellipse fill="none" stroke="#000000" cx="449.1" cy="-378" rx="27" ry="18"/>
<text text-anchor="middle" x="449.1" y="-374.3" font-family="FreeSans" font-size="14.00" fill="#000000">Mu</text>
</a>
</g>
</g>
<!-- Any -->
<g id="node3" class="node">
<title>Any</title>
<g id="a_node3"><a xlink:href="/type/Any" xlink:title="Any">
<ellipse fill="none" stroke="#000000" cx="449.1" cy="-306" rx="28.7" ry="18"/>
<text text-anchor="middle" x="449.1" y="-302.3" font-family="FreeSans" font-size="14.00" fill="#000000">Any</text>
</a>
</g>
</g>
<!-- Any&#45;&gt;Mu -->
<g id="edge1" class="edge">
<title>Any&#45;&gt;Mu</title>
<path fill="none" stroke="#000000" d="M449.1,-324.3C449.1,-332.02 449.1,-341.29 449.1,-349.89"/>
<polygon fill="#000000" stroke="#000000" points="445.6,-349.9 449.1,-359.9 452.6,-349.9 445.6,-349.9"/>
</g>
<!-- Positional -->
<g id="node4" class="node">
<title>Positional</title>
<g id="a_node4"><a xlink:href="/type/Positional" xlink:title="Positional">
<ellipse fill="none" stroke="#6666ff" cx="244.1" cy="-306" rx="53.89" ry="18"/>
<text text-anchor="middle" x="244.1" y="-302.3" font-family="FreeSans" font-size="14.00" fill="#6666ff">Positional</text>
</a>
</g>
</g>
<!-- Uni -->
<g id="node5" class="node">
<title>Uni</title>
<g id="a_node5"><a xlink:href="/type/Uni" xlink:title="Uni">
<ellipse fill="none" stroke="#000000" cx="244.1" cy="-234" rx="27" ry="18"/>
<text text-anchor="middle" x="244.1" y="-230.3" font-family="FreeSans" font-size="14.00" fill="#000000">Uni</text>
</a>
</g>
</g>
<!-- Uni&#45;&gt;Stringy -->
<g id="edge23" class="edge">
<title>Uni&#45;&gt;Stringy</title>
<path fill="none" stroke="#6666ff" d="M263.35,-246.72C280.61,-257.23 306.3,-272.86 326.72,-285.29"/>
<polygon fill="#6666ff" stroke="#6666ff" points="325.04,-288.37 335.4,-290.58 328.68,-282.39 325.04,-288.37"/>
</g>
<!-- Uni&#45;&gt;Any -->
<g id="edge2" class="edge">
<title>Uni&#45;&gt;Any</title>
<path fill="none" stroke="#000000" d="M268.17,-242.59C314.62,-257.25 412.1,-288 412.1,-288 412.1,-288 414.26,-288.99 417.54,-290.5"/>
<polygon fill="#000000" stroke="#000000" points="416.17,-293.72 426.72,-294.72 419.09,-287.36 416.17,-293.72"/>
</g>
<!-- Uni&#45;&gt;Positional -->
<g id="edge22" class="edge">
<title>Uni&#45;&gt;Positional</title>
<path fill="none" stroke="#6666ff" d="M244.1,-252.3C244.1,-260.02 244.1,-269.29 244.1,-277.89"/>
<polygon fill="#6666ff" stroke="#6666ff" points="240.6,-277.9 244.1,-287.9 247.6,-277.9 240.6,-277.9"/>
</g>
<!-- Blob -->
<g id="node6" class="node">
<title>Blob</title>
<g id="a_node6"><a xlink:href="/type/Blob" xlink:title="Blob">
<ellipse fill="none" stroke="#6666ff" cx="359.1" cy="-234" rx="30.59" ry="18"/>
<text text-anchor="middle" x="359.1" y="-230.3" font-family="FreeSans" font-size="14.00" fill="#6666ff">Blob</text>
</a>
</g>
</g>
<!-- Blob&#45;&gt;Stringy -->
<g id="edge25" class="edge">
<title>Blob&#45;&gt;Stringy</title>
<path fill="none" stroke="#6666ff" d="M359.1,-252.3C359.1,-260.02 359.1,-269.29 359.1,-277.89"/>
<polygon fill="#6666ff" stroke="#6666ff" points="355.6,-277.9 359.1,-287.9 362.6,-277.9 355.6,-277.9"/>
</g>
<!-- Blob&#45;&gt;Positional -->
<g id="edge24" class="edge">
<title>Blob&#45;&gt;Positional</title>
<path fill="none" stroke="#6666ff" d="M338.54,-247.51C321.62,-257.81 297.3,-272.62 277.58,-284.62"/>
<polygon fill="#6666ff" stroke="#6666ff" points="275.6,-281.73 268.88,-289.91 279.24,-287.7 275.6,-281.73"/>
</g>
<!-- Cool -->
<g id="node7" class="node">
<title>Cool</title>
<g id="a_node7"><a xlink:href="/type/Cool" xlink:title="Cool">
<ellipse fill="none" stroke="#000000" cx="741.1" cy="-234" rx="30.59" ry="18"/>
<text text-anchor="middle" x="741.1" y="-230.3" font-family="FreeSans" font-size="14.00" fill="#000000">Cool</text>
</a>
</g>
</g>
<!-- Cool&#45;&gt;Any -->
<g id="edge3" class="edge">
<title>Cool&#45;&gt;Any</title>
<path fill="none" stroke="#000000" d="M717.06,-245.48C709.04,-248.97 702.1,-252 702.1,-252 702.1,-252 556.75,-282.45 486.39,-297.19"/>
<polygon fill="#000000" stroke="#000000" points="485.24,-293.85 476.17,-299.33 486.68,-300.7 485.24,-293.85"/>
</g>
<!-- Str -->
<g id="node8" class="node">
<title>Str</title>
<g id="a_node8"><a xlink:href="/type/Str" xlink:title="Str">
<ellipse fill="none" stroke="#000000" cx="812.1" cy="-162" rx="27" ry="18"/>
<text text-anchor="middle" x="812.1" y="-158.3" font-family="FreeSans" font-size="14.00" fill="#000000">Str</text>
</a>
</g>
</g>
<!-- Str&#45;&gt;Stringy -->
<g id="edge26" class="edge">
<title>Str&#45;&gt;Stringy</title>
<path fill="none" stroke="#6666ff" d="M806.27,-179.74C797.29,-205.52 781.1,-252 781.1,-252 781.1,-252 411.1,-288 411.1,-288 411.1,-288 407.4,-289.21 401.98,-290.98"/>
<polygon fill="#6666ff" stroke="#6666ff" points="400.74,-287.7 392.32,-294.14 402.92,-294.36 400.74,-287.7"/>
</g>
<!-- Str&#45;&gt;Cool -->
<g id="edge4" class="edge">
<title>Str&#45;&gt;Cool</title>
<path fill="none" stroke="#000000" d="M797.39,-177.5C787.62,-187.14 774.61,-199.96 763.55,-210.86"/>
<polygon fill="#000000" stroke="#000000" points="760.94,-208.52 756.28,-218.03 765.86,-213.5 760.94,-208.52"/>
</g>
<!-- NFKC -->
<g id="node9" class="node">
<title>NFKC</title>
<g id="a_node9"><a xlink:href="/type/NFKC" xlink:title="NFKC">
<ellipse fill="none" stroke="#000000" cx="35.1" cy="-162" rx="35.19" ry="18"/>
<text text-anchor="middle" x="35.1" y="-158.3" font-family="FreeSans" font-size="14.00" fill="#000000">NFKC</text>
</a>
</g>
</g>
<!-- NFKC&#45;&gt;Uni -->
<g id="edge5" class="edge">
<title>NFKC&#45;&gt;Uni</title>
<path fill="none" stroke="#000000" d="M62.21,-173.48C71.27,-176.97 79.1,-180 79.1,-180 79.1,-180 162.11,-206.67 210.38,-222.17"/>
<polygon fill="#000000" stroke="#000000" points="209.51,-225.57 220.1,-225.29 211.65,-218.9 209.51,-225.57"/>
</g>
<!-- NFKD -->
<g id="node10" class="node">
<title>NFKD</title>
<g id="a_node10"><a xlink:href="/type/NFKD" xlink:title="NFKD">
<ellipse fill="none" stroke="#000000" cx="124.1" cy="-162" rx="36" ry="18"/>
<text text-anchor="middle" x="124.1" y="-158.3" font-family="FreeSans" font-size="14.00" fill="#000000">NFKD</text>
</a>
</g>
</g>
<!-- NFKD&#45;&gt;Uni -->
<g id="edge6" class="edge">
<title>NFKD&#45;&gt;Uni</title>
<path fill="none" stroke="#000000" d="M146.67,-176.17C166.18,-187.55 194.5,-204.07 215.58,-216.36"/>
<polygon fill="#000000" stroke="#000000" points="214.01,-219.5 224.41,-221.52 217.54,-213.45 214.01,-219.5"/>
</g>
<!-- NFC -->
<g id="node11" class="node">
<title>NFC</title>
<g id="a_node11"><a xlink:href="/type/NFC" xlink:title="NFC">
<ellipse fill="none" stroke="#000000" cx="207.1" cy="-162" rx="29.5" ry="18"/>
<text text-anchor="middle" x="207.1" y="-158.3" font-family="FreeSans" font-size="14.00" fill="#000000">NFC</text>
</a>
</g>
</g>
<!-- NFC&#45;&gt;Uni -->
<g id="edge7" class="edge">
<title>NFC&#45;&gt;Uni</title>
<path fill="none" stroke="#000000" d="M215.68,-179.24C220.16,-187.72 225.75,-198.29 230.78,-207.8"/>
<polygon fill="#000000" stroke="#000000" points="227.79,-209.65 235.56,-216.85 233.98,-206.38 227.79,-209.65"/>
</g>
<!-- NFD -->
<g id="node12" class="node">
<title>NFD</title>
<g id="a_node12"><a xlink:href="/type/NFD" xlink:title="NFD">
<ellipse fill="none" stroke="#000000" cx="284.1" cy="-162" rx="29.8" ry="18"/>
<text text-anchor="middle" x="284.1" y="-158.3" font-family="FreeSans" font-size="14.00" fill="#000000">NFD</text>
</a>
</g>
</g>
<!-- NFD&#45;&gt;Uni -->
<g id="edge8" class="edge">
<title>NFD&#45;&gt;Uni</title>
<path fill="none" stroke="#000000" d="M274.82,-179.24C269.92,-187.81 263.81,-198.51 258.33,-208.1"/>
<polygon fill="#000000" stroke="#000000" points="255.25,-206.43 253.32,-216.85 261.32,-209.91 255.25,-206.43"/>
</g>
<!-- Numeric -->
<g id="node13" class="node">
<title>Numeric</title>
<g id="a_node13"><a xlink:href="/type/Numeric" xlink:title="Numeric">
<ellipse fill="none" stroke="#6666ff" cx="769.1" cy="-306" rx="48.99" ry="18"/>
<text text-anchor="middle" x="769.1" y="-302.3" font-family="FreeSans" font-size="14.00" fill="#6666ff">Numeric</text>
</a>
</g>
</g>
<!-- Real -->
<g id="node14" class="node">
<title>Real</title>
<g id="a_node14"><a xlink:href="/type/Real" xlink:title="Real">
<ellipse fill="none" stroke="#6666ff" cx="662.1" cy="-234" rx="30.59" ry="18"/>
<text text-anchor="middle" x="662.1" y="-230.3" font-family="FreeSans" font-size="14.00" fill="#6666ff">Real</text>
</a>
</g>
</g>
<!-- Real&#45;&gt;Numeric -->
<g id="edge27" class="edge">
<title>Real&#45;&gt;Numeric</title>
<path fill="none" stroke="#6666ff" d="M681.72,-247.84C697.38,-258.08 719.61,-272.63 737.74,-284.48"/>
<polygon fill="#6666ff" stroke="#6666ff" points="735.97,-287.51 746.25,-290.06 739.8,-281.65 735.97,-287.51"/>
</g>
<!-- Num -->
<g id="node15" class="node">
<title>Num</title>
<g id="a_node15"><a xlink:href="/type/Num" xlink:title="Num">
<ellipse fill="none" stroke="#000000" cx="663.1" cy="-162" rx="32.49" ry="18"/>
<text text-anchor="middle" x="663.1" y="-158.3" font-family="FreeSans" font-size="14.00" fill="#000000">Num</text>
</a>
</g>
</g>
<!-- Num&#45;&gt;Cool -->
<g id="edge9" class="edge">
<title>Num&#45;&gt;Cool</title>
<path fill="none" stroke="#000000" d="M679.64,-177.85C690.64,-187.72 705.27,-200.85 717.49,-211.81"/>
<polygon fill="#000000" stroke="#000000" points="715.33,-214.58 725.11,-218.65 720.01,-209.37 715.33,-214.58"/>
</g>
<!-- Num&#45;&gt;Real -->
<g id="edge28" class="edge">
<title>Num&#45;&gt;Real</title>
<path fill="none" stroke="#6666ff" d="M662.85,-180.3C662.74,-188.02 662.61,-197.29 662.48,-205.89"/>
<polygon fill="#6666ff" stroke="#6666ff" points="658.98,-205.85 662.34,-215.9 665.98,-205.95 658.98,-205.85"/>
</g>
<!-- NumStr -->
<g id="node16" class="node">
<title>NumStr</title>
<g id="a_node16"><a xlink:href="/type/NumStr" xlink:title="NumStr">
<ellipse fill="none" stroke="#000000" cx="651.1" cy="-90" rx="45.49" ry="18"/>
<text text-anchor="middle" x="651.1" y="-86.3" font-family="FreeSans" font-size="14.00" fill="#000000">NumStr</text>
</a>
</g>
</g>
<!-- NumStr&#45;&gt;Str -->
<g id="edge11" class="edge">
<title>NumStr&#45;&gt;Str</title>
<path fill="none" stroke="#000000" d="M681.04,-103.69C718.02,-119.37 776.1,-144 776.1,-144 776.1,-144 778.28,-145.03 781.56,-146.58"/>
<polygon fill="#000000" stroke="#000000" points="780.2,-149.81 790.74,-150.91 783.19,-143.48 780.2,-149.81"/>
</g>
<!-- NumStr&#45;&gt;Num -->
<g id="edge10" class="edge">
<title>NumStr&#45;&gt;Num</title>
<path fill="none" stroke="#000000" d="M654.06,-108.3C655.39,-116.02 656.97,-125.29 658.45,-133.89"/>
<polygon fill="#000000" stroke="#000000" points="655.03,-134.63 660.16,-143.9 661.92,-133.45 655.03,-134.63"/>
</g>
<!-- Int -->
<g id="node17" class="node">
<title>Int</title>
<g id="a_node17"><a xlink:href="/type/Int" xlink:title="Int">
<ellipse fill="none" stroke="#000000" cx="740.1" cy="-162" rx="27" ry="18"/>
<text text-anchor="middle" x="740.1" y="-158.3" font-family="FreeSans" font-size="14.00" fill="#000000">Int</text>
</a>
</g>
</g>
<!-- Int&#45;&gt;Cool -->
<g id="edge12" class="edge">
<title>Int&#45;&gt;Cool</title>
<path fill="none" stroke="#000000" d="M740.34,-180.3C740.45,-188.02 740.59,-197.29 740.71,-205.89"/>
<polygon fill="#000000" stroke="#000000" points="737.21,-205.95 740.85,-215.9 744.21,-205.85 737.21,-205.95"/>
</g>
<!-- Int&#45;&gt;Real -->
<g id="edge29" class="edge">
<title>Int&#45;&gt;Real</title>
<path fill="none" stroke="#6666ff" d="M724.69,-176.83C713.58,-186.79 698.39,-200.43 685.76,-211.77"/>
<polygon fill="#6666ff" stroke="#6666ff" points="683.39,-209.19 678.28,-218.48 688.06,-214.4 683.39,-209.19"/>
</g>
<!-- IntStr -->
<g id="node18" class="node">
<title>IntStr</title>
<g id="a_node18"><a xlink:href="/type/IntStr" xlink:title="IntStr">
<ellipse fill="none" stroke="#000000" cx="751.1" cy="-90" rx="36.29" ry="18"/>
<text text-anchor="middle" x="751.1" y="-86.3" font-family="FreeSans" font-size="14.00" fill="#000000">IntStr</text>
</a>
</g>
</g>
<!-- IntStr&#45;&gt;Str -->
<g id="edge14" class="edge">
<title>IntStr&#45;&gt;Str</title>
<path fill="none" stroke="#000000" d="M764.94,-106.88C773.04,-116.18 783.4,-128.07 792.34,-138.33"/>
<polygon fill="#000000" stroke="#000000" points="789.94,-140.9 799.14,-146.14 795.21,-136.3 789.94,-140.9"/>
</g>
<!-- IntStr&#45;&gt;Int -->
<g id="edge13" class="edge">
<title>IntStr&#45;&gt;Int</title>
<path fill="none" stroke="#000000" d="M748.38,-108.3C747.17,-116.02 745.71,-125.29 744.36,-133.89"/>
<polygon fill="#000000" stroke="#000000" points="740.88,-133.47 742.78,-143.9 747.79,-134.56 740.88,-133.47"/>
</g>
<!-- Complex -->
<g id="node19" class="node">
<title>Complex</title>
<g id="a_node19"><a xlink:href="/type/Complex" xlink:title="Complex">
<ellipse fill="none" stroke="#000000" cx="907.1" cy="-162" rx="50.09" ry="18"/>
<text text-anchor="middle" x="907.1" y="-158.3" font-family="FreeSans" font-size="14.00" fill="#000000">Complex</text>
</a>
</g>
</g>
<!-- Complex&#45;&gt;Cool -->
<g id="edge15" class="edge">
<title>Complex&#45;&gt;Cool</title>
<path fill="none" stroke="#000000" d="M875.87,-176.17C847.02,-188.34 804.25,-206.37 774.67,-218.84"/>
<polygon fill="#000000" stroke="#000000" points="773.04,-215.73 765.18,-222.84 775.76,-222.18 773.04,-215.73"/>
</g>
<!-- Complex&#45;&gt;Numeric -->
<g id="edge30" class="edge">
<title>Complex&#45;&gt;Numeric</title>
<path fill="none" stroke="#6666ff" d="M891.27,-179.29C866.83,-204.43 819.82,-252.81 791.78,-281.66"/>
<polygon fill="#6666ff" stroke="#6666ff" points="789.2,-279.29 784.74,-288.9 794.22,-284.17 789.2,-279.29"/>
</g>
<!-- ComplexStr -->
<g id="node20" class="node">
<title>ComplexStr</title>
<g id="a_node20"><a xlink:href="/type/ComplexStr" xlink:title="ComplexStr">
<ellipse fill="none" stroke="#000000" cx="907.1" cy="-90" rx="63.89" ry="18"/>
<text text-anchor="middle" x="907.1" y="-86.3" font-family="FreeSans" font-size="14.00" fill="#000000">ComplexStr</text>
</a>
</g>
</g>
<!-- ComplexStr&#45;&gt;Str -->
<g id="edge17" class="edge">
<title>ComplexStr&#45;&gt;Str</title>
<path fill="none" stroke="#000000" d="M885.06,-107.24C870.95,-117.63 852.58,-131.17 837.8,-142.06"/>
<polygon fill="#000000" stroke="#000000" points="835.55,-139.37 829.58,-148.12 839.7,-145.01 835.55,-139.37"/>
</g>
<!-- ComplexStr&#45;&gt;Complex -->
<g id="edge16" class="edge">
<title>ComplexStr&#45;&gt;Complex</title>
<path fill="none" stroke="#000000" d="M907.1,-108.3C907.1,-116.02 907.1,-125.29 907.1,-133.89"/>
<polygon fill="#000000" stroke="#000000" points="903.6,-133.9 907.1,-143.9 910.6,-133.9 903.6,-133.9"/>
</g>
<!-- Rational -->
<g id="node21" class="node">
<title>Rational</title>
<g id="a_node21"><a xlink:href="/type/Rational" xlink:title="Rational">
<ellipse fill="none" stroke="#6666ff" cx="528.1" cy="-162" rx="47.39" ry="18"/>
<text text-anchor="middle" x="528.1" y="-158.3" font-family="FreeSans" font-size="14.00" fill="#6666ff">Rational</text>
</a>
</g>
</g>
<!-- Rational&#45;&gt;Real -->
<g id="edge31" class="edge">
<title>Rational&#45;&gt;Real</title>
<path fill="none" stroke="#6666ff" d="M554.89,-177C576.78,-188.43 607.74,-204.6 630.77,-216.63"/>
<polygon fill="#6666ff" stroke="#6666ff" points="629.31,-219.82 639.79,-221.35 632.55,-213.61 629.31,-219.82"/>
</g>
<!-- Rat -->
<g id="node22" class="node">
<title>Rat</title>
<g id="a_node22"><a xlink:href="/type/Rat" xlink:title="Rat">
<ellipse fill="none" stroke="#000000" cx="561.1" cy="-90" rx="27" ry="18"/>
<text text-anchor="middle" x="561.1" y="-86.3" font-family="FreeSans" font-size="14.00" fill="#000000">Rat</text>
</a>
</g>
</g>
<!-- Rat&#45;&gt;Cool -->
<g id="edge18" class="edge">
<title>Rat&#45;&gt;Cool</title>
<path fill="none" stroke="#000000" d="M572,-106.91C589.55,-132.51 622.1,-180 622.1,-180 622.1,-180 672.63,-202.5 707.83,-218.18"/>
<polygon fill="#000000" stroke="#000000" points="706.74,-221.53 717.3,-222.4 709.59,-215.14 706.74,-221.53"/>
</g>
<!-- Rat&#45;&gt;Rational -->
<g id="edge32" class="edge">
<title>Rat&#45;&gt;Rational</title>
<path fill="none" stroke="#6666ff" d="M553.28,-107.59C549.43,-115.75 544.7,-125.78 540.38,-134.93"/>
<polygon fill="#6666ff" stroke="#6666ff" points="537.19,-133.51 536.09,-144.04 543.52,-136.49 537.19,-133.51"/>
</g>
<!-- RatStr -->
<g id="node23" class="node">
<title>RatStr</title>
<g id="a_node23"><a xlink:href="/type/RatStr" xlink:title="RatStr">
<ellipse fill="none" stroke="#000000" cx="688.1" cy="-18" rx="38.99" ry="18"/>
<text text-anchor="middle" x="688.1" y="-14.3" font-family="FreeSans" font-size="14.00" fill="#000000">RatStr</text>
</a>
</g>
</g>
<!-- RatStr&#45;&gt;Str -->
<g id="edge20" class="edge">
<title>RatStr&#45;&gt;Str</title>
<path fill="none" stroke="#000000" d="M713.97,-31.69C745.92,-47.37 796.1,-72 796.1,-72 796.1,-72 802.48,-107.52 807.18,-133.68"/>
<polygon fill="#000000" stroke="#000000" points="803.8,-134.62 809.01,-143.84 810.69,-133.38 803.8,-134.62"/>
</g>
<!-- RatStr&#45;&gt;Rat -->
<g id="edge19" class="edge">
<title>RatStr&#45;&gt;Rat</title>
<path fill="none" stroke="#000000" d="M663.91,-32.33C643,-43.85 612.72,-60.54 590.44,-72.83"/>
<polygon fill="#000000" stroke="#000000" points="588.49,-69.9 581.42,-77.8 591.87,-76.03 588.49,-69.9"/>
</g>
<!-- utf8 -->
<g id="node24" class="node">
<title>utf8</title>
<g id="a_node24"><a xlink:href="/type/utf8" xlink:title="utf8">
<ellipse fill="none" stroke="#000000" cx="433.1" cy="-162" rx="29.5" ry="18"/>
<text text-anchor="middle" x="433.1" y="-158.3" font-family="FreeSans" font-size="14.00" fill="#000000">utf8</text>
</a>
</g>
</g>
<!-- utf8&#45;&gt;Any -->
<g id="edge21" class="edge">
<title>utf8&#45;&gt;Any</title>
<path fill="none" stroke="#000000" d="M435.03,-180.13C437.75,-204.33 442.76,-248.79 446.01,-277.61"/>
<polygon fill="#000000" stroke="#000000" points="442.56,-278.27 447.16,-287.81 449.52,-277.48 442.56,-278.27"/>
</g>
<!-- utf8&#45;&gt;Blob -->
<g id="edge33" class="edge">
<title>utf8&#45;&gt;Blob</title>
<path fill="none" stroke="#6666ff" d="M417.76,-177.5C407.42,-187.29 393.58,-200.39 381.94,-211.4"/>
<polygon fill="#6666ff" stroke="#6666ff" points="379.52,-208.86 374.66,-218.27 384.33,-213.94 379.52,-208.86"/>
</g>
<!-- Buf -->
<g id="node25" class="node">
<title>Buf</title>
<g id="a_node25"><a xlink:href="/type/Buf" xlink:title="Buf">
<ellipse fill="none" stroke="#6666ff" cx="359.1" cy="-162" rx="27" ry="18"/>
<text text-anchor="middle" x="359.1" y="-158.3" font-family="FreeSans" font-size="14.00" fill="#6666ff">Buf</text>
</a>
</g>
</g>
<!-- Buf&#45;&gt;Blob -->
<g id="edge34" class="edge">
<title>Buf&#45;&gt;Blob</title>
<path fill="none" stroke="#6666ff" d="M359.1,-180.3C359.1,-188.02 359.1,-197.29 359.1,-205.89"/>
<polygon fill="#6666ff" stroke="#6666ff" points="355.6,-205.9 359.1,-215.9 362.6,-205.9 355.6,-205.9"/>
</g>
</g>
</svg>
