<?xml version="1.0" encoding="UTF-8" standalone="no"?>
<!DOCTYPE svg PUBLIC "-//W3C//DTD SVG 1.1//EN"
 "http://www.w3.org/Graphics/SVG/1.1/DTD/svg11.dtd">
<!-- Generated by graphviz version 2.42.3 (0)
 -->
<!-- Title: perl6&#45;type&#45;graph Pages: 1 -->
<svg width="240pt" height="404pt"
 viewBox="0.00 0.00 239.79 404.00" xmlns="http://www.w3.org/2000/svg" xmlns:xlink="http://www.w3.org/1999/xlink">
<g id="graph0" class="graph" transform="scale(1 1) rotate(0) translate(4 400)">
<title>perl6&#45;type&#45;graph</title>
<polygon fill="white" stroke="transparent" points="-4,4 -4,-400 235.79,-400 235.79,4 -4,4"/>
<!-- X::IO::Symlink -->
<g id="node1" class="node">
<title>X::IO::Symlink</title>
<g id="a_node1"><a xlink:href="/type/X::IO::Symlink" xlink:title="X::IO::Symlink">
<ellipse fill="none" stroke="#000000" cx="75.39" cy="-18" rx="75.29" ry="18"/>
<text text-anchor="middle" x="75.39" y="-14.3" font-family="FreeSans" font-size="14.00" fill="#000000">X::IO::Symlink</text>
</a>
</g>
</g>
<!-- Exception -->
<g id="node4" class="node">
<title>Exception</title>
<g id="a_node4"><a xlink:href="/type/Exception" xlink:title="Exception">
<ellipse fill="none" stroke="#000000" cx="75.39" cy="-234" rx="55.49" ry="18"/>
<text text-anchor="middle" x="75.39" y="-230.3" font-family="FreeSans" font-size="14.00" fill="#000000">Exception</text>
</a>
</g>
</g>
<!-- X::IO::Symlink&#45;&gt;Exception -->
<g id="edge1" class="edge">
<title>X::IO::Symlink&#45;&gt;Exception</title>
<path fill="none" stroke="#000000" d="M67.64,-36.15C60.55,-73.26 60.02,-161.25 66.05,-205.95"/>
<polygon fill="#000000" stroke="#000000" points="62.64,-206.75 67.68,-216.06 69.55,-205.64 62.64,-206.75"/>
</g>
<!-- X::IO::Symlink&#45;&gt;Exception -->
<g id="edge2" class="edge">
<title>X::IO::Symlink&#45;&gt;Exception</title>
<path fill="none" stroke="#000000" d="M75.39,-36.15C75.39,-73.17 75.39,-160.82 75.39,-205.61"/>
<polygon fill="#000000" stroke="#000000" points="71.89,-205.77 75.39,-215.77 78.89,-205.77 71.89,-205.77"/>
</g>
<!-- X::IO::Symlink&#45;&gt;Exception -->
<g id="edge3" class="edge">
<title>X::IO::Symlink&#45;&gt;Exception</title>
<path fill="none" stroke="#000000" d="M83.15,-36.15C90.24,-73.26 90.77,-161.25 84.73,-205.95"/>
<polygon fill="#000000" stroke="#000000" points="81.24,-205.64 83.11,-216.06 88.15,-206.75 81.24,-205.64"/>
</g>
<!-- X::IO -->
<g id="node6" class="node">
<title>X::IO</title>
<g id="a_node6"><a xlink:href="/type/X::IO" xlink:title="X::IO">
<ellipse fill="none" stroke="#6666ff" cx="154.39" cy="-90" rx="33.29" ry="18"/>
<text text-anchor="middle" x="154.39" y="-86.3" font-family="FreeSans" font-size="14.00" fill="#6666ff">X::IO</text>
</a>
</g>
</g>
<!-- X::IO::Symlink&#45;&gt;X::IO -->
<g id="edge8" class="edge">
<title>X::IO::Symlink&#45;&gt;X::IO</title>
<path fill="none" stroke="#6666ff" d="M94.12,-35.59C104.87,-45.12 118.49,-57.19 130.06,-67.44"/>
<polygon fill="#6666ff" stroke="#6666ff" points="127.88,-70.18 137.69,-74.2 132.52,-64.94 127.88,-70.18"/>
</g>
<!-- Mu -->
<g id="node2" class="node">
<title>Mu</title>
<g id="a_node2"><a xlink:href="/type/Mu" xlink:title="Mu">
<ellipse fill="none" stroke="#000000" cx="75.39" cy="-378" rx="27" ry="18"/>
<text text-anchor="middle" x="75.39" y="-374.3" font-family="FreeSans" font-size="14.00" fill="#000000">Mu</text>
</a>
</g>
</g>
<!-- Any -->
<g id="node3" class="node">
<title>Any</title>
<g id="a_node3"><a xlink:href="/type/Any" xlink:title="Any">
<ellipse fill="none" stroke="#000000" cx="75.39" cy="-306" rx="28.7" ry="18"/>
<text text-anchor="middle" x="75.39" y="-302.3" font-family="FreeSans" font-size="14.00" fill="#000000">Any</text>
</a>
</g>
</g>
<!-- Any&#45;&gt;Mu -->
<g id="edge4" class="edge">
<title>Any&#45;&gt;Mu</title>
<path fill="none" stroke="#000000" d="M75.39,-324.3C75.39,-332.02 75.39,-341.29 75.39,-349.89"/>
<polygon fill="#000000" stroke="#000000" points="71.89,-349.9 75.39,-359.9 78.89,-349.9 71.89,-349.9"/>
</g>
<!-- Exception&#45;&gt;Any -->
<g id="edge5" class="edge">
<title>Exception&#45;&gt;Any</title>
<path fill="none" stroke="#000000" d="M75.39,-252.3C75.39,-260.02 75.39,-269.29 75.39,-277.89"/>
<polygon fill="#000000" stroke="#000000" points="71.89,-277.9 75.39,-287.9 78.89,-277.9 71.89,-277.9"/>
</g>
<!-- X::OS -->
<g id="node5" class="node">
<title>X::OS</title>
<g id="a_node5"><a xlink:href="/type/X::OS" xlink:title="X::OS">
<ellipse fill="none" stroke="#6666ff" cx="195.39" cy="-162" rx="36.29" ry="18"/>
<text text-anchor="middle" x="195.39" y="-158.3" font-family="FreeSans" font-size="14.00" fill="#6666ff">X::OS</text>
</a>
</g>
</g>
<!-- X::OS&#45;&gt;Exception -->
<g id="edge6" class="edge">
<title>X::OS&#45;&gt;Exception</title>
<path fill="none" stroke="#000000" d="M172.82,-176.17C155.16,-186.47 130.29,-200.98 110.1,-212.75"/>
<polygon fill="#000000" stroke="#000000" points="108.07,-209.89 101.2,-217.95 111.6,-215.93 108.07,-209.89"/>
</g>
<!-- X::IO&#45;&gt;Exception -->
<g id="edge7" class="edge">
<title>X::IO&#45;&gt;Exception</title>
<path fill="none" stroke="#000000" d="M145.55,-107.74C131.94,-133.52 107.39,-180 107.39,-180 107.39,-180 98.98,-193.93 90.78,-207.51"/>
<polygon fill="#000000" stroke="#000000" points="87.69,-205.86 85.52,-216.23 93.68,-209.48 87.69,-205.86"/>
</g>
<!-- X::IO&#45;&gt;X::OS -->
<g id="edge9" class="edge">
<title>X::IO&#45;&gt;X::OS</title>
<path fill="none" stroke="#6666ff" d="M164.11,-107.59C169.01,-115.96 175.06,-126.29 180.53,-135.63"/>
<polygon fill="#6666ff" stroke="#6666ff" points="177.67,-137.67 185.75,-144.53 183.71,-134.13 177.67,-137.67"/>
</g>
</g>
</svg>
