<?xml version="1.0" encoding="UTF-8" standalone="no"?>
<!DOCTYPE svg PUBLIC "-//W3C//DTD SVG 1.1//EN"
 "http://www.w3.org/Graphics/SVG/1.1/DTD/svg11.dtd">
<!-- Generated by graphviz version 2.42.3 (0)
 -->
<!-- Title: perl6&#45;type&#45;graph Pages: 1 -->
<svg width="1849pt" height="1827pt"
 viewBox="0.00 0.00 1848.97 1826.80" xmlns="http://www.w3.org/2000/svg" xmlns:xlink="http://www.w3.org/1999/xlink">
<g id="graph0" class="graph" transform="scale(1 1) rotate(0) translate(4 1822.8)">
<title>perl6&#45;type&#45;graph</title>
<polygon fill="white" stroke="transparent" points="-4,4 -4,-1822.8 1844.97,-1822.8 1844.97,4 -4,4"/>
<!-- Metamodel::MROBasedMethodDispatch -->
<g id="node1" class="node">
<title>Metamodel::MROBasedMethodDispatch</title>
<g id="a_node1"><a xlink:href="/type/Metamodel::MROBasedMethodDispatch" xlink:title="Metamodel::MROBasedMethodDispatch">
<ellipse fill="none" stroke="#6666ff" cx="542.89" cy="-784.36" rx="188.47" ry="18"/>
<text text-anchor="middle" x="542.89" y="-780.66" font-family="FreeSans" font-size="14.00" fill="#6666ff">Metamodel::MROBasedMethodDispatch</text>
</a>
</g>
</g>
<!-- Mu -->
<g id="node2" class="node">
<title>Mu</title>
<g id="a_node2"><a xlink:href="/type/Mu" xlink:title="Mu">
<ellipse fill="none" stroke="#000000" cx="1813.97" cy="-382.15" rx="27" ry="18"/>
<text text-anchor="middle" x="1813.97" y="-378.45" font-family="FreeSans" font-size="14.00" fill="#000000">Mu</text>
</a>
</g>
</g>
<!-- Any -->
<g id="node3" class="node">
<title>Any</title>
<g id="a_node3"><a xlink:href="/type/Any" xlink:title="Any">
<ellipse fill="none" stroke="#000000" cx="1263.32" cy="-609.1" rx="28.7" ry="18"/>
<text text-anchor="middle" x="1263.32" y="-605.4" font-family="FreeSans" font-size="14.00" fill="#000000">Any</text>
</a>
</g>
</g>
<!-- Any&#45;&gt;Mu -->
<g id="edge1" class="edge">
<title>Any&#45;&gt;Mu</title>
<path fill="none" stroke="#000000" d="M1287.34,-599.2C1375.38,-562.91 1680.58,-437.12 1781.38,-395.58"/>
<polygon fill="#000000" stroke="#000000" points="1782.84,-398.76 1790.76,-391.72 1780.18,-392.29 1782.84,-398.76"/>
</g>
<!-- Metamodel::Naming -->
<g id="node4" class="node">
<title>Metamodel::Naming</title>
<g id="a_node4"><a xlink:href="/type/Metamodel::Naming" xlink:title="Metamodel::Naming">
<ellipse fill="none" stroke="#6666ff" cx="849.44" cy="-1410.81" rx="101.28" ry="18"/>
<text text-anchor="middle" x="849.44" y="-1407.11" font-family="FreeSans" font-size="14.00" fill="#6666ff">Metamodel::Naming</text>
</a>
</g>
</g>
<!-- Metamodel::Stashing -->
<g id="node5" class="node">
<title>Metamodel::Stashing</title>
<g id="a_node5"><a xlink:href="/type/Metamodel::Stashing" xlink:title="Metamodel::Stashing">
<ellipse fill="none" stroke="#6666ff" cx="1212.53" cy="-1137.19" rx="105.88" ry="18"/>
<text text-anchor="middle" x="1212.53" y="-1133.49" font-family="FreeSans" font-size="14.00" fill="#6666ff">Metamodel::Stashing</text>
</a>
</g>
</g>
<!-- Metamodel::AttributeContainer -->
<g id="node6" class="node">
<title>Metamodel::AttributeContainer</title>
<g id="a_node6"><a xlink:href="/type/Metamodel::AttributeContainer" xlink:title="Metamodel::AttributeContainer">
<ellipse fill="none" stroke="#6666ff" cx="293.12" cy="-949.28" rx="150.27" ry="18"/>
<text text-anchor="middle" x="293.12" y="-945.58" font-family="FreeSans" font-size="14.00" fill="#6666ff">Metamodel::AttributeContainer</text>
</a>
</g>
</g>
<!-- Metamodel::MethodContainer -->
<g id="node7" class="node">
<title>Metamodel::MethodContainer</title>
<g id="a_node7"><a xlink:href="/type/Metamodel::MethodContainer" xlink:title="Metamodel::MethodContainer">
<ellipse fill="none" stroke="#6666ff" cx="399.57" cy="-558.29" rx="143.77" ry="18"/>
<text text-anchor="middle" x="399.57" y="-554.59" font-family="FreeSans" font-size="14.00" fill="#6666ff">Metamodel::MethodContainer</text>
</a>
</g>
</g>
<!-- Metamodel::MultiMethodContainer -->
<g id="node8" class="node">
<title>Metamodel::MultiMethodContainer</title>
<g id="a_node8"><a xlink:href="/type/Metamodel::MultiMethodContainer" xlink:title="Metamodel::MultiMethodContainer">
<ellipse fill="none" stroke="#6666ff" cx="1414.54" cy="-895.79" rx="165.97" ry="18"/>
<text text-anchor="middle" x="1414.54" y="-892.09" font-family="FreeSans" font-size="14.00" fill="#6666ff">Metamodel::MultiMethodContainer</text>
</a>
</g>
</g>
<!-- Metamodel::RoleContainer -->
<g id="node9" class="node">
<title>Metamodel::RoleContainer</title>
<g id="a_node9"><a xlink:href="/type/Metamodel::RoleContainer" xlink:title="Metamodel::RoleContainer">
<ellipse fill="none" stroke="#6666ff" cx="597.33" cy="-449.04" rx="129.98" ry="18"/>
<text text-anchor="middle" x="597.33" y="-445.34" font-family="FreeSans" font-size="14.00" fill="#6666ff">Metamodel::RoleContainer</text>
</a>
</g>
</g>
<!-- Metamodel::BaseType -->
<g id="node10" class="node">
<title>Metamodel::BaseType</title>
<g id="a_node10"><a xlink:href="/type/Metamodel::BaseType" xlink:title="Metamodel::BaseType">
<ellipse fill="none" stroke="#6666ff" cx="1079.28" cy="-18" rx="109.38" ry="18"/>
<text text-anchor="middle" x="1079.28" y="-14.3" font-family="FreeSans" font-size="14.00" fill="#6666ff">Metamodel::BaseType</text>
</a>
</g>
</g>
<!-- Metamodel::MROBasedTypeChecking -->
<g id="node11" class="node">
<title>Metamodel::MROBasedTypeChecking</title>
<g id="a_node11"><a xlink:href="/type/Metamodel::MROBasedTypeChecking" xlink:title="Metamodel::MROBasedTypeChecking">
<ellipse fill="none" stroke="#6666ff" cx="824.22" cy="-499" rx="178.97" ry="18"/>
<text text-anchor="middle" x="824.22" y="-495.3" font-family="FreeSans" font-size="14.00" fill="#6666ff">Metamodel::MROBasedTypeChecking</text>
</a>
</g>
</g>
<!-- Metamodel::BUILDPLAN -->
<g id="node12" class="node">
<title>Metamodel::BUILDPLAN</title>
<g id="a_node12"><a xlink:href="/type/Metamodel::BUILDPLAN" xlink:title="Metamodel::BUILDPLAN">
<ellipse fill="none" stroke="#6666ff" cx="228.09" cy="-748.95" rx="118.08" ry="18"/>
<text text-anchor="middle" x="228.09" y="-745.25" font-family="FreeSans" font-size="14.00" fill="#6666ff">Metamodel::BUILDPLAN</text>
</a>
</g>
</g>
<!-- Metamodel::BoolificationProtocol -->
<g id="node13" class="node">
<title>Metamodel::BoolificationProtocol</title>
<g id="a_node13"><a xlink:href="/type/Metamodel::BoolificationProtocol" xlink:title="Metamodel::BoolificationProtocol">
<ellipse fill="none" stroke="#6666ff" cx="1483.83" cy="-1174.18" rx="157.07" ry="18"/>
<text text-anchor="middle" x="1483.83" y="-1170.48" font-family="FreeSans" font-size="14.00" fill="#6666ff">Metamodel::BoolificationProtocol</text>
</a>
</g>
</g>
<!-- Metamodel::Mixins -->
<g id="node14" class="node">
<title>Metamodel::Mixins</title>
<g id="a_node14"><a xlink:href="/type/Metamodel::Mixins" xlink:title="Metamodel::Mixins">
<ellipse fill="none" stroke="#6666ff" cx="1197.79" cy="-1347.2" rx="94.78" ry="18"/>
<text text-anchor="middle" x="1197.79" y="-1343.5" font-family="FreeSans" font-size="14.00" fill="#6666ff">Metamodel::Mixins</text>
</a>
</g>
</g>
<!-- Metamodel::EnumHOW -->
<g id="node15" class="node">
<title>Metamodel::EnumHOW</title>
<g id="a_node15"><a xlink:href="/type/Metamodel::EnumHOW" xlink:title="Metamodel::EnumHOW">
<ellipse fill="none" stroke="#000000" cx="933.42" cy="-726.4" rx="115.88" ry="18"/>
<text text-anchor="middle" x="933.42" y="-722.7" font-family="FreeSans" font-size="14.00" fill="#000000">Metamodel::EnumHOW</text>
</a>
</g>
</g>
<!-- Metamodel::EnumHOW&#45;&gt;Metamodel::MROBasedMethodDispatch -->
<g id="edge12" class="edge">
<title>Metamodel::EnumHOW&#45;&gt;Metamodel::MROBasedMethodDispatch</title>
<path fill="none" stroke="#6666ff" d="M849.64,-738.84C792.85,-747.26 717.14,-758.5 655.15,-767.7"/>
<polygon fill="#6666ff" stroke="#6666ff" points="654.3,-764.29 644.93,-769.22 655.33,-771.21 654.3,-764.29"/>
</g>
<!-- Metamodel::EnumHOW&#45;&gt;Any -->
<g id="edge2" class="edge">
<title>Metamodel::EnumHOW&#45;&gt;Any</title>
<path fill="none" stroke="#000000" d="M979.99,-709.84C1046.98,-686.02 1169.03,-642.63 1228.67,-621.42"/>
<polygon fill="#000000" stroke="#000000" points="1230.12,-624.62 1238.37,-617.97 1227.77,-618.03 1230.12,-624.62"/>
</g>
<!-- Metamodel::EnumHOW&#45;&gt;Metamodel::Naming -->
<g id="edge5" class="edge">
<title>Metamodel::EnumHOW&#45;&gt;Metamodel::Naming</title>
<path fill="none" stroke="#6666ff" d="M937.69,-744.59C953.64,-812.53 1008.83,-1047.58 1008.83,-1047.58 1008.83,-1047.58 898.42,-1299.19 861.39,-1383.58"/>
<polygon fill="#6666ff" stroke="#6666ff" points="858.16,-1382.23 857.35,-1392.8 864.57,-1385.05 858.16,-1382.23"/>
</g>
<!-- Metamodel::EnumHOW&#45;&gt;Metamodel::Stashing -->
<g id="edge6" class="edge">
<title>Metamodel::EnumHOW&#45;&gt;Metamodel::Stashing</title>
<path fill="none" stroke="#6666ff" d="M945.59,-744.32C989.75,-809.31 1141.7,-1032.94 1194.38,-1110.47"/>
<polygon fill="#6666ff" stroke="#6666ff" points="1191.78,-1112.87 1200.3,-1119.18 1197.57,-1108.94 1191.78,-1112.87"/>
</g>
<!-- Metamodel::EnumHOW&#45;&gt;Metamodel::AttributeContainer -->
<g id="edge7" class="edge">
<title>Metamodel::EnumHOW&#45;&gt;Metamodel::AttributeContainer</title>
<path fill="none" stroke="#6666ff" d="M886.08,-742.88C771.17,-782.88 477.75,-885.01 351.9,-928.82"/>
<polygon fill="#6666ff" stroke="#6666ff" points="350.7,-925.53 342.41,-932.12 353,-932.14 350.7,-925.53"/>
</g>
<!-- Metamodel::EnumHOW&#45;&gt;Metamodel::MethodContainer -->
<g id="edge8" class="edge">
<title>Metamodel::EnumHOW&#45;&gt;Metamodel::MethodContainer</title>
<path fill="none" stroke="#6666ff" d="M881.75,-710.13C783.29,-679.13 569.15,-611.69 462.52,-578.11"/>
<polygon fill="#6666ff" stroke="#6666ff" points="463.44,-574.73 452.86,-575.07 461.34,-581.41 463.44,-574.73"/>
</g>
<!-- Metamodel::EnumHOW&#45;&gt;Metamodel::MultiMethodContainer -->
<g id="edge9" class="edge">
<title>Metamodel::EnumHOW&#45;&gt;Metamodel::MultiMethodContainer</title>
<path fill="none" stroke="#6666ff" d="M964.5,-743.78C1007.53,-767.83 1079.99,-808.34 1079.99,-808.34 1079.99,-808.34 1113.74,-822.22 1113.74,-822.22 1113.74,-822.22 1248.08,-855.08 1337.21,-876.88"/>
<polygon fill="#6666ff" stroke="#6666ff" points="1336.49,-880.31 1347.03,-879.28 1338.15,-873.51 1336.49,-880.31"/>
</g>
<!-- Metamodel::EnumHOW&#45;&gt;Metamodel::RoleContainer -->
<g id="edge10" class="edge">
<title>Metamodel::EnumHOW&#45;&gt;Metamodel::RoleContainer</title>
<path fill="none" stroke="#6666ff" d="M910.7,-708.55C842.44,-654.92 643.89,-498.89 643.89,-498.89 643.89,-498.89 632.63,-486.84 621.19,-474.59"/>
<polygon fill="#6666ff" stroke="#6666ff" points="623.52,-471.96 614.14,-467.04 618.4,-476.73 623.52,-471.96"/>
</g>
<!-- Metamodel::EnumHOW&#45;&gt;Metamodel::BaseType -->
<g id="edge11" class="edge">
<title>Metamodel::EnumHOW&#45;&gt;Metamodel::BaseType</title>
<path fill="none" stroke="#6666ff" d="M939.12,-708.19C956,-654.25 1004.55,-499.11 1004.55,-499.11 1004.55,-499.11 1058.88,-149.35 1074.89,-46.26"/>
<polygon fill="#6666ff" stroke="#6666ff" points="1078.37,-46.69 1076.44,-36.27 1071.45,-45.62 1078.37,-46.69"/>
</g>
<!-- Metamodel::EnumHOW&#45;&gt;Metamodel::MROBasedTypeChecking -->
<g id="edge13" class="edge">
<title>Metamodel::EnumHOW&#45;&gt;Metamodel::MROBasedTypeChecking</title>
<path fill="none" stroke="#6666ff" d="M924.67,-708.18C905.53,-668.33 859.88,-573.26 837.31,-526.26"/>
<polygon fill="#6666ff" stroke="#6666ff" points="840.34,-524.5 832.86,-517 834.03,-527.53 840.34,-524.5"/>
</g>
<!-- Metamodel::EnumHOW&#45;&gt;Metamodel::BUILDPLAN -->
<g id="edge14" class="edge">
<title>Metamodel::EnumHOW&#45;&gt;Metamodel::BUILDPLAN</title>
<path fill="none" stroke="#6666ff" d="M819.7,-730.04C692.29,-734.11 486.33,-740.69 354.11,-744.92"/>
<polygon fill="#6666ff" stroke="#6666ff" points="353.81,-741.43 343.93,-745.24 354.03,-748.42 353.81,-741.43"/>
</g>
<!-- Metamodel::EnumHOW&#45;&gt;Metamodel::BoolificationProtocol -->
<g id="edge15" class="edge">
<title>Metamodel::EnumHOW&#45;&gt;Metamodel::BoolificationProtocol</title>
<path fill="none" stroke="#6666ff" d="M955.33,-744.23C1041.29,-814.16 1355.51,-1069.8 1454.06,-1149.97"/>
<polygon fill="#6666ff" stroke="#6666ff" points="1451.88,-1152.71 1461.85,-1156.3 1456.3,-1147.28 1451.88,-1152.71"/>
</g>
<!-- Metamodel::EnumHOW&#45;&gt;Metamodel::Mixins -->
<g id="edge16" class="edge">
<title>Metamodel::EnumHOW&#45;&gt;Metamodel::Mixins</title>
<path fill="none" stroke="#6666ff" d="M941.01,-744.58C974.22,-824.07 1104.99,-1137.11 1104.99,-1137.11 1104.99,-1137.11 1160.53,-1262.84 1185.67,-1319.77"/>
<polygon fill="#6666ff" stroke="#6666ff" points="1182.47,-1321.19 1189.71,-1328.92 1188.88,-1318.36 1182.47,-1321.19"/>
</g>
<!-- Metamodel::Documenting -->
<g id="node16" class="node">
<title>Metamodel::Documenting</title>
<g id="a_node16"><a xlink:href="/type/Metamodel::Documenting" xlink:title="Metamodel::Documenting">
<ellipse fill="none" stroke="#6666ff" cx="1195.54" cy="-1606.14" rx="126.98" ry="18"/>
<text text-anchor="middle" x="1195.54" y="-1602.44" font-family="FreeSans" font-size="14.00" fill="#6666ff">Metamodel::Documenting</text>
</a>
</g>
</g>
<!-- Metamodel::Versioning -->
<g id="node17" class="node">
<title>Metamodel::Versioning</title>
<g id="a_node17"><a xlink:href="/type/Metamodel::Versioning" xlink:title="Metamodel::Versioning">
<ellipse fill="none" stroke="#6666ff" cx="1195.98" cy="-808.4" rx="114.28" ry="18"/>
<text text-anchor="middle" x="1195.98" y="-804.7" font-family="FreeSans" font-size="14.00" fill="#6666ff">Metamodel::Versioning</text>
</a>
</g>
</g>
<!-- Metamodel::Finalization -->
<g id="node18" class="node">
<title>Metamodel::Finalization</title>
<g id="a_node18"><a xlink:href="/type/Metamodel::Finalization" xlink:title="Metamodel::Finalization">
<ellipse fill="none" stroke="#6666ff" cx="700.82" cy="-1800.8" rx="116.98" ry="18"/>
<text text-anchor="middle" x="700.82" y="-1797.1" font-family="FreeSans" font-size="14.00" fill="#6666ff">Metamodel::Finalization</text>
</a>
</g>
</g>
<!-- Metamodel::PrivateMethodContainer -->
<g id="node19" class="node">
<title>Metamodel::PrivateMethodContainer</title>
<g id="a_node19"><a xlink:href="/type/Metamodel::PrivateMethodContainer" xlink:title="Metamodel::PrivateMethodContainer">
<ellipse fill="none" stroke="#6666ff" cx="405.8" cy="-1712.84" rx="174.67" ry="18"/>
<text text-anchor="middle" x="405.8" y="-1709.14" font-family="FreeSans" font-size="14.00" fill="#6666ff">Metamodel::PrivateMethodContainer</text>
</a>
</g>
</g>
<!-- Metamodel::MultipleInheritance -->
<g id="node20" class="node">
<title>Metamodel::MultipleInheritance</title>
<g id="a_node20"><a xlink:href="/type/Metamodel::MultipleInheritance" xlink:title="Metamodel::MultipleInheritance">
<ellipse fill="none" stroke="#6666ff" cx="464.73" cy="-1478.1" rx="153.27" ry="18"/>
<text text-anchor="middle" x="464.73" y="-1474.4" font-family="FreeSans" font-size="14.00" fill="#6666ff">Metamodel::MultipleInheritance</text>
</a>
</g>
</g>
<!-- Metamodel::DefaultParent -->
<g id="node21" class="node">
<title>Metamodel::DefaultParent</title>
<g id="a_node21"><a xlink:href="/type/Metamodel::DefaultParent" xlink:title="Metamodel::DefaultParent">
<ellipse fill="none" stroke="#6666ff" cx="128.04" cy="-1422.45" rx="128.08" ry="18"/>
<text text-anchor="middle" x="128.04" y="-1418.75" font-family="FreeSans" font-size="14.00" fill="#6666ff">Metamodel::DefaultParent</text>
</a>
</g>
</g>
<!-- Metamodel::C3MRO -->
<g id="node22" class="node">
<title>Metamodel::C3MRO</title>
<g id="a_node22"><a xlink:href="/type/Metamodel::C3MRO" xlink:title="Metamodel::C3MRO">
<ellipse fill="none" stroke="#6666ff" cx="245.83" cy="-1215" rx="100.18" ry="18"/>
<text text-anchor="middle" x="245.83" y="-1211.3" font-family="FreeSans" font-size="14.00" fill="#6666ff">Metamodel::C3MRO</text>
</a>
</g>
</g>
<!-- Metamodel::Trusting -->
<g id="node23" class="node">
<title>Metamodel::Trusting</title>
<g id="a_node23"><a xlink:href="/type/Metamodel::Trusting" xlink:title="Metamodel::Trusting">
<ellipse fill="none" stroke="#6666ff" cx="988.53" cy="-1799.27" rx="102.88" ry="18"/>
<text text-anchor="middle" x="988.53" y="-1795.57" font-family="FreeSans" font-size="14.00" fill="#6666ff">Metamodel::Trusting</text>
</a>
</g>
</g>
<!-- Metamodel::ClassHOW -->
<g id="node24" class="node">
<title>Metamodel::ClassHOW</title>
<g id="a_node24"><a xlink:href="/type/Metamodel::ClassHOW" xlink:title="Metamodel::ClassHOW">
<ellipse fill="none" stroke="#000000" cx="760.05" cy="-1127.44" rx="113.18" ry="18"/>
<text text-anchor="middle" x="760.05" y="-1123.74" font-family="FreeSans" font-size="14.00" fill="#000000">Metamodel::ClassHOW</text>
</a>
</g>
</g>
<!-- Metamodel::ClassHOW&#45;&gt;Metamodel::MROBasedMethodDispatch -->
<g id="edge30" class="edge">
<title>Metamodel::ClassHOW&#45;&gt;Metamodel::MROBasedMethodDispatch</title>
<path fill="none" stroke="#6666ff" d="M748.68,-1109.48C712.92,-1052.99 602.61,-878.71 559.97,-811.33"/>
<polygon fill="#6666ff" stroke="#6666ff" points="562.72,-809.14 554.41,-802.56 556.8,-812.88 562.72,-809.14"/>
</g>
<!-- Metamodel::ClassHOW&#45;&gt;Any -->
<g id="edge3" class="edge">
<title>Metamodel::ClassHOW&#45;&gt;Any</title>
<path fill="none" stroke="#000000" d="M762.09,-1109.26C764.75,-1085.62 769.06,-1047.32 769.06,-1047.32 769.06,-1047.32 1139.15,-719.19 1238.84,-630.8"/>
<polygon fill="#000000" stroke="#000000" points="1241.43,-633.18 1246.59,-623.93 1236.79,-627.95 1241.43,-633.18"/>
</g>
<!-- Metamodel::ClassHOW&#45;&gt;Metamodel::Naming -->
<g id="edge17" class="edge">
<title>Metamodel::ClassHOW&#45;&gt;Metamodel::Naming</title>
<path fill="none" stroke="#6666ff" d="M765.78,-1145.6C780.98,-1193.78 822.41,-1325.13 840.64,-1382.91"/>
<polygon fill="#6666ff" stroke="#6666ff" points="837.41,-1384.32 843.76,-1392.8 844.09,-1382.21 837.41,-1384.32"/>
</g>
<!-- Metamodel::ClassHOW&#45;&gt;Metamodel::Stashing -->
<g id="edge20" class="edge">
<title>Metamodel::ClassHOW&#45;&gt;Metamodel::Stashing</title>
<path fill="none" stroke="#6666ff" d="M872.19,-1129.86C940.66,-1131.33 1028.03,-1133.21 1097.1,-1134.7"/>
<polygon fill="#6666ff" stroke="#6666ff" points="1097.08,-1138.2 1107.15,-1134.92 1097.23,-1131.2 1097.08,-1138.2"/>
</g>
<!-- Metamodel::ClassHOW&#45;&gt;Metamodel::AttributeContainer -->
<g id="edge21" class="edge">
<title>Metamodel::ClassHOW&#45;&gt;Metamodel::AttributeContainer</title>
<path fill="none" stroke="#6666ff" d="M716.12,-1110.68C630.5,-1078.01 441.49,-1005.89 347.87,-970.17"/>
<polygon fill="#6666ff" stroke="#6666ff" points="348.89,-966.81 338.3,-966.52 346.4,-973.35 348.89,-966.81"/>
</g>
<!-- Metamodel::ClassHOW&#45;&gt;Metamodel::MethodContainer -->
<g id="edge23" class="edge">
<title>Metamodel::ClassHOW&#45;&gt;Metamodel::MethodContainer</title>
<path fill="none" stroke="#6666ff" d="M758.59,-1109C752.97,-1037.77 732.97,-784.49 732.97,-784.49 732.97,-784.49 519.26,-639.49 434.05,-581.68"/>
<polygon fill="#6666ff" stroke="#6666ff" points="435.98,-578.76 425.74,-576.04 432.05,-584.55 435.98,-578.76"/>
</g>
<!-- Metamodel::ClassHOW&#45;&gt;Metamodel::MultiMethodContainer -->
<g id="edge25" class="edge">
<title>Metamodel::ClassHOW&#45;&gt;Metamodel::MultiMethodContainer</title>
<path fill="none" stroke="#6666ff" d="M811.91,-1111.37C874.99,-1091.82 973.16,-1061.4 973.16,-1061.4 973.16,-1061.4 1239.62,-961.42 1358.47,-916.83"/>
<polygon fill="#6666ff" stroke="#6666ff" points="1360.01,-919.99 1368.14,-913.2 1357.55,-913.44 1360.01,-919.99"/>
</g>
<!-- Metamodel::ClassHOW&#45;&gt;Metamodel::RoleContainer -->
<g id="edge26" class="edge">
<title>Metamodel::ClassHOW&#45;&gt;Metamodel::RoleContainer</title>
<path fill="none" stroke="#6666ff" d="M758.59,-1109C752.97,-1037.77 732.97,-784.49 732.97,-784.49 732.97,-784.49 640.84,-556.66 608.44,-476.51"/>
<polygon fill="#6666ff" stroke="#6666ff" points="611.61,-475.03 604.62,-467.07 605.12,-477.65 611.61,-475.03"/>
</g>
<!-- Metamodel::ClassHOW&#45;&gt;Metamodel::MROBasedTypeChecking -->
<g id="edge31" class="edge">
<title>Metamodel::ClassHOW&#45;&gt;Metamodel::MROBasedTypeChecking</title>
<path fill="none" stroke="#6666ff" d="M761.9,-1109.31C770.92,-1020.98 810.27,-635.57 821.32,-527.35"/>
<polygon fill="#6666ff" stroke="#6666ff" points="824.82,-527.51 822.36,-517.2 817.86,-526.8 824.82,-527.51"/>
</g>
<!-- Metamodel::ClassHOW&#45;&gt;Metamodel::BUILDPLAN -->
<g id="edge33" class="edge">
<title>Metamodel::ClassHOW&#45;&gt;Metamodel::BUILDPLAN</title>
<path fill="none" stroke="#6666ff" d="M735.1,-1109.69C648.37,-1047.98 359.85,-842.69 261.37,-772.62"/>
<polygon fill="#6666ff" stroke="#6666ff" points="263.16,-769.6 252.98,-766.66 259.1,-775.3 263.16,-769.6"/>
</g>
<!-- Metamodel::ClassHOW&#45;&gt;Metamodel::BoolificationProtocol -->
<g id="edge35" class="edge">
<title>Metamodel::ClassHOW&#45;&gt;Metamodel::BoolificationProtocol</title>
<path fill="none" stroke="#6666ff" d="M864.9,-1134.25C998.45,-1142.92 1212.13,-1156.79 1212.13,-1156.79 1212.13,-1156.79 1272.38,-1160.65 1336.13,-1164.73"/>
<polygon fill="#6666ff" stroke="#6666ff" points="1336.18,-1168.24 1346.39,-1165.38 1336.63,-1161.25 1336.18,-1168.24"/>
</g>
<!-- Metamodel::ClassHOW&#45;&gt;Metamodel::Mixins -->
<g id="edge34" class="edge">
<title>Metamodel::ClassHOW&#45;&gt;Metamodel::Mixins</title>
<path fill="none" stroke="#6666ff" d="M794.4,-1144.69C873.54,-1184.42 1068.58,-1282.33 1155.18,-1325.81"/>
<polygon fill="#6666ff" stroke="#6666ff" points="1153.69,-1328.98 1164.2,-1330.34 1156.83,-1322.72 1153.69,-1328.98"/>
</g>
<!-- Metamodel::ClassHOW&#45;&gt;Metamodel::Documenting -->
<g id="edge18" class="edge">
<title>Metamodel::ClassHOW&#45;&gt;Metamodel::Documenting</title>
<path fill="none" stroke="#6666ff" d="M776.32,-1145.33C842.88,-1218.5 1094.5,-1495.07 1172.41,-1580.71"/>
<polygon fill="#6666ff" stroke="#6666ff" points="1169.87,-1583.11 1179.18,-1588.16 1175.04,-1578.4 1169.87,-1583.11"/>
</g>
<!-- Metamodel::ClassHOW&#45;&gt;Metamodel::Versioning -->
<g id="edge19" class="edge">
<title>Metamodel::ClassHOW&#45;&gt;Metamodel::Versioning</title>
<path fill="none" stroke="#6666ff" d="M811.91,-1111.37C874.99,-1091.82 973.16,-1061.4 973.16,-1061.4 973.16,-1061.4 1008.83,-1047.58 1008.83,-1047.58 1008.83,-1047.58 1127.01,-896.54 1175.55,-834.51"/>
<polygon fill="#6666ff" stroke="#6666ff" points="1178.51,-836.41 1181.92,-826.37 1173,-832.09 1178.51,-836.41"/>
</g>
<!-- Metamodel::ClassHOW&#45;&gt;Metamodel::Finalization -->
<g id="edge22" class="edge">
<title>Metamodel::ClassHOW&#45;&gt;Metamodel::Finalization</title>
<path fill="none" stroke="#6666ff" d="M758.46,-1145.45C750.33,-1237.95 713.25,-1659.58 703.29,-1772.77"/>
<polygon fill="#6666ff" stroke="#6666ff" points="699.8,-1772.47 702.41,-1782.73 706.78,-1773.08 699.8,-1772.47"/>
</g>
<!-- Metamodel::ClassHOW&#45;&gt;Metamodel::PrivateMethodContainer -->
<g id="edge24" class="edge">
<title>Metamodel::ClassHOW&#45;&gt;Metamodel::PrivateMethodContainer</title>
<path fill="none" stroke="#6666ff" d="M752.7,-1145.81C723.82,-1217.99 619.71,-1478.23 619.71,-1478.23 619.71,-1478.23 484.71,-1626.29 429.2,-1687.17"/>
<polygon fill="#6666ff" stroke="#6666ff" points="426.38,-1685.08 422.23,-1694.82 431.55,-1689.79 426.38,-1685.08"/>
</g>
<!-- Metamodel::ClassHOW&#45;&gt;Metamodel::MultipleInheritance -->
<g id="edge27" class="edge">
<title>Metamodel::ClassHOW&#45;&gt;Metamodel::MultipleInheritance</title>
<path fill="none" stroke="#6666ff" d="M745,-1145.31C696.43,-1202.98 543.71,-1384.32 486.58,-1452.15"/>
<polygon fill="#6666ff" stroke="#6666ff" points="483.87,-1449.94 480.1,-1459.84 489.22,-1454.45 483.87,-1449.94"/>
</g>
<!-- Metamodel::ClassHOW&#45;&gt;Metamodel::DefaultParent -->
<g id="edge28" class="edge">
<title>Metamodel::ClassHOW&#45;&gt;Metamodel::DefaultParent</title>
<path fill="none" stroke="#6666ff" d="M723.34,-1144.58C614.71,-1195.28 294.95,-1344.54 174.58,-1400.72"/>
<polygon fill="#6666ff" stroke="#6666ff" points="172.83,-1397.68 165.25,-1405.08 175.79,-1404.02 172.83,-1397.68"/>
</g>
<!-- Metamodel::ClassHOW&#45;&gt;Metamodel::C3MRO -->
<g id="edge29" class="edge">
<title>Metamodel::ClassHOW&#45;&gt;Metamodel::C3MRO</title>
<path fill="none" stroke="#6666ff" d="M682.78,-1140.6C587.6,-1156.8 426.53,-1184.23 328.8,-1200.87"/>
<polygon fill="#6666ff" stroke="#6666ff" points="327.94,-1197.47 318.67,-1202.59 329.11,-1204.37 327.94,-1197.47"/>
</g>
<!-- Metamodel::ClassHOW&#45;&gt;Metamodel::Trusting -->
<g id="edge32" class="edge">
<title>Metamodel::ClassHOW&#45;&gt;Metamodel::Trusting</title>
<path fill="none" stroke="#6666ff" d="M772.37,-1145.61C814.83,-1208.18 952.43,-1410.95 952.43,-1410.95 952.43,-1410.95 977.61,-1681.82 985.91,-1771.11"/>
<polygon fill="#6666ff" stroke="#6666ff" points="982.43,-1771.43 986.84,-1781.06 989.4,-1770.78 982.43,-1771.43"/>
</g>
<!-- Metamodel::NativeHOW -->
<g id="node25" class="node">
<title>Metamodel::NativeHOW</title>
<g id="a_node25"><a xlink:href="/type/Metamodel::NativeHOW" xlink:title="Metamodel::NativeHOW">
<ellipse fill="none" stroke="#000000" cx="888.95" cy="-1047.45" rx="118.08" ry="18"/>
<text text-anchor="middle" x="888.95" y="-1043.75" font-family="FreeSans" font-size="14.00" fill="#000000">Metamodel::NativeHOW</text>
</a>
</g>
</g>
<!-- Metamodel::NativeHOW&#45;&gt;Metamodel::MROBasedMethodDispatch -->
<g id="edge42" class="edge">
<title>Metamodel::NativeHOW&#45;&gt;Metamodel::MROBasedMethodDispatch</title>
<path fill="none" stroke="#6666ff" d="M865.7,-1029.78C805.39,-983.93 643.8,-861.08 574.82,-808.63"/>
<polygon fill="#6666ff" stroke="#6666ff" points="576.57,-805.57 566.49,-802.3 572.33,-811.14 576.57,-805.57"/>
</g>
<!-- Metamodel::NativeHOW&#45;&gt;Any -->
<g id="edge4" class="edge">
<title>Metamodel::NativeHOW&#45;&gt;Any</title>
<path fill="none" stroke="#000000" d="M903.3,-1029.48C947.74,-973.87 1079.99,-808.34 1079.99,-808.34 1079.99,-808.34 1193.74,-684.72 1242.04,-632.23"/>
<polygon fill="#000000" stroke="#000000" points="1244.74,-634.46 1248.94,-624.73 1239.59,-629.72 1244.74,-634.46"/>
</g>
<!-- Metamodel::NativeHOW&#45;&gt;Metamodel::Naming -->
<g id="edge36" class="edge">
<title>Metamodel::NativeHOW&#45;&gt;Metamodel::Naming</title>
<path fill="none" stroke="#6666ff" d="M886.99,-1065.47C880.59,-1124.31 860.28,-1311.14 852.51,-1382.62"/>
<polygon fill="#6666ff" stroke="#6666ff" points="849.01,-1382.36 851.41,-1392.68 855.97,-1383.12 849.01,-1382.36"/>
</g>
<!-- Metamodel::NativeHOW&#45;&gt;Metamodel::Stashing -->
<g id="edge39" class="edge">
<title>Metamodel::NativeHOW&#45;&gt;Metamodel::Stashing</title>
<path fill="none" stroke="#6666ff" d="M946.05,-1063.29C1002.31,-1078.89 1088.16,-1102.7 1147.13,-1119.05"/>
<polygon fill="#6666ff" stroke="#6666ff" points="1146.51,-1122.51 1157.08,-1121.81 1148.38,-1115.76 1146.51,-1122.51"/>
</g>
<!-- Metamodel::NativeHOW&#45;&gt;Metamodel::MROBasedTypeChecking -->
<g id="edge43" class="edge">
<title>Metamodel::NativeHOW&#45;&gt;Metamodel::MROBasedTypeChecking</title>
<path fill="none" stroke="#6666ff" d="M884.82,-1029.27C869.42,-961.34 816.13,-726.36 816.13,-726.36 816.13,-726.36 821.04,-588.26 823.21,-527.32"/>
<polygon fill="#6666ff" stroke="#6666ff" points="826.71,-527.34 823.57,-517.22 819.72,-527.09 826.71,-527.34"/>
</g>
<!-- Metamodel::NativeHOW&#45;&gt;Metamodel::Documenting -->
<g id="edge37" class="edge">
<title>Metamodel::NativeHOW&#45;&gt;Metamodel::Documenting</title>
<path fill="none" stroke="#6666ff" d="M898.8,-1065.41C943.44,-1146.75 1126.83,-1480.93 1180.64,-1578.98"/>
<polygon fill="#6666ff" stroke="#6666ff" points="1177.69,-1580.88 1185.57,-1587.97 1183.83,-1577.52 1177.69,-1580.88"/>
</g>
<!-- Metamodel::NativeHOW&#45;&gt;Metamodel::Versioning -->
<g id="edge38" class="edge">
<title>Metamodel::NativeHOW&#45;&gt;Metamodel::Versioning</title>
<path fill="none" stroke="#6666ff" d="M911.77,-1029.68C966.06,-987.41 1102.95,-880.83 1164.79,-832.68"/>
<polygon fill="#6666ff" stroke="#6666ff" points="1167.27,-835.19 1173.01,-826.29 1162.97,-829.67 1167.27,-835.19"/>
</g>
<!-- Metamodel::NativeHOW&#45;&gt;Metamodel::MultipleInheritance -->
<g id="edge40" class="edge">
<title>Metamodel::NativeHOW&#45;&gt;Metamodel::MultipleInheritance</title>
<path fill="none" stroke="#6666ff" d="M885.72,-1065.63C881.53,-1089.26 874.74,-1127.55 874.74,-1127.55 874.74,-1127.55 586.24,-1374.21 493.24,-1453.72"/>
<polygon fill="#6666ff" stroke="#6666ff" points="490.95,-1451.07 485.62,-1460.23 495.5,-1456.4 490.95,-1451.07"/>
</g>
<!-- Metamodel::NativeHOW&#45;&gt;Metamodel::C3MRO -->
<g id="edge41" class="edge">
<title>Metamodel::NativeHOW&#45;&gt;Metamodel::C3MRO</title>
<path fill="none" stroke="#6666ff" d="M829.02,-1063.06C708.79,-1094.39 438.92,-1164.69 312.96,-1197.51"/>
<polygon fill="#6666ff" stroke="#6666ff" points="311.85,-1194.18 303.05,-1200.09 313.61,-1200.95 311.85,-1194.18"/>
</g>
</g>
</svg>
