<?xml version="1.0" encoding="UTF-8" standalone="no"?>
<!DOCTYPE svg PUBLIC "-//W3C//DTD SVG 1.1//EN"
 "http://www.w3.org/Graphics/SVG/1.1/DTD/svg11.dtd">
<!-- Generated by graphviz version 2.42.3 (0)
 -->
<!-- Title: perl6&#45;type&#45;graph Pages: 1 -->
<svg width="976pt" height="332pt"
 viewBox="0.00 0.00 975.93 332.00" xmlns="http://www.w3.org/2000/svg" xmlns:xlink="http://www.w3.org/1999/xlink">
<g id="graph0" class="graph" transform="scale(1 1) rotate(0) translate(4 328)">
<title>perl6&#45;type&#45;graph</title>
<polygon fill="white" stroke="transparent" points="-4,4 -4,-328 971.93,-328 971.93,4 -4,4"/>
<!-- X::TypeCheck -->
<g id="node1" class="node">
<title>X::TypeCheck</title>
<g id="a_node1"><a xlink:href="/type/X::TypeCheck" xlink:title="X::TypeCheck">
<ellipse fill="none" stroke="#000000" cx="458.64" cy="-90" rx="71.49" ry="18"/>
<text text-anchor="middle" x="458.64" y="-86.3" font-family="FreeSans" font-size="14.00" fill="#000000">X::TypeCheck</text>
</a>
</g>
</g>
<!-- Exception -->
<g id="node4" class="node">
<title>Exception</title>
<g id="a_node4"><a xlink:href="/type/Exception" xlink:title="Exception">
<ellipse fill="none" stroke="#000000" cx="458.64" cy="-162" rx="55.49" ry="18"/>
<text text-anchor="middle" x="458.64" y="-158.3" font-family="FreeSans" font-size="14.00" fill="#000000">Exception</text>
</a>
</g>
</g>
<!-- X::TypeCheck&#45;&gt;Exception -->
<g id="edge1" class="edge">
<title>X::TypeCheck&#45;&gt;Exception</title>
<path fill="none" stroke="#000000" d="M458.64,-108.3C458.64,-116.02 458.64,-125.29 458.64,-133.89"/>
<polygon fill="#000000" stroke="#000000" points="455.14,-133.9 458.64,-143.9 462.14,-133.9 455.14,-133.9"/>
</g>
<!-- Mu -->
<g id="node2" class="node">
<title>Mu</title>
<g id="a_node2"><a xlink:href="/type/Mu" xlink:title="Mu">
<ellipse fill="none" stroke="#000000" cx="458.64" cy="-306" rx="27" ry="18"/>
<text text-anchor="middle" x="458.64" y="-302.3" font-family="FreeSans" font-size="14.00" fill="#000000">Mu</text>
</a>
</g>
</g>
<!-- Any -->
<g id="node3" class="node">
<title>Any</title>
<g id="a_node3"><a xlink:href="/type/Any" xlink:title="Any">
<ellipse fill="none" stroke="#000000" cx="458.64" cy="-234" rx="28.7" ry="18"/>
<text text-anchor="middle" x="458.64" y="-230.3" font-family="FreeSans" font-size="14.00" fill="#000000">Any</text>
</a>
</g>
</g>
<!-- Any&#45;&gt;Mu -->
<g id="edge2" class="edge">
<title>Any&#45;&gt;Mu</title>
<path fill="none" stroke="#000000" d="M458.64,-252.3C458.64,-260.02 458.64,-269.29 458.64,-277.89"/>
<polygon fill="#000000" stroke="#000000" points="455.14,-277.9 458.64,-287.9 462.14,-277.9 455.14,-277.9"/>
</g>
<!-- Exception&#45;&gt;Any -->
<g id="edge3" class="edge">
<title>Exception&#45;&gt;Any</title>
<path fill="none" stroke="#000000" d="M458.64,-180.3C458.64,-188.02 458.64,-197.29 458.64,-205.89"/>
<polygon fill="#000000" stroke="#000000" points="455.14,-205.9 458.64,-215.9 462.14,-205.9 455.14,-205.9"/>
</g>
<!-- X::TypeCheck::Splice -->
<g id="node5" class="node">
<title>X::TypeCheck::Splice</title>
<g id="a_node5"><a xlink:href="/type/X::TypeCheck::Splice" xlink:title="X::TypeCheck::Splice">
<ellipse fill="none" stroke="#000000" cx="104.64" cy="-18" rx="104.78" ry="18"/>
<text text-anchor="middle" x="104.64" y="-14.3" font-family="FreeSans" font-size="14.00" fill="#000000">X::TypeCheck::Splice</text>
</a>
</g>
</g>
<!-- X::TypeCheck::Splice&#45;&gt;X::TypeCheck -->
<g id="edge4" class="edge">
<title>X::TypeCheck::Splice&#45;&gt;X::TypeCheck</title>
<path fill="none" stroke="#000000" d="M170.4,-32C234.36,-44.65 330.91,-63.74 394.36,-76.29"/>
<polygon fill="#000000" stroke="#000000" points="393.76,-79.74 404.25,-78.25 395.12,-72.87 393.76,-79.74"/>
</g>
<!-- X::TypeCheck::Binding -->
<g id="node6" class="node">
<title>X::TypeCheck::Binding</title>
<g id="a_node6"><a xlink:href="/type/X::TypeCheck::Binding" xlink:title="X::TypeCheck::Binding">
<ellipse fill="none" stroke="#000000" cx="339.64" cy="-18" rx="112.38" ry="18"/>
<text text-anchor="middle" x="339.64" y="-14.3" font-family="FreeSans" font-size="14.00" fill="#000000">X::TypeCheck::Binding</text>
</a>
</g>
</g>
<!-- X::TypeCheck::Binding&#45;&gt;X::TypeCheck -->
<g id="edge5" class="edge">
<title>X::TypeCheck::Binding&#45;&gt;X::TypeCheck</title>
<path fill="none" stroke="#000000" d="M367.84,-35.59C384.35,-45.3 405.34,-57.65 422.99,-68.03"/>
<polygon fill="#000000" stroke="#000000" points="421.47,-71.2 431.87,-73.25 425.02,-65.16 421.47,-71.2"/>
</g>
<!-- X::TypeCheck::Return -->
<g id="node7" class="node">
<title>X::TypeCheck::Return</title>
<g id="a_node7"><a xlink:href="/type/X::TypeCheck::Return" xlink:title="X::TypeCheck::Return">
<ellipse fill="none" stroke="#000000" cx="578.64" cy="-18" rx="108.58" ry="18"/>
<text text-anchor="middle" x="578.64" y="-14.3" font-family="FreeSans" font-size="14.00" fill="#000000">X::TypeCheck::Return</text>
</a>
</g>
</g>
<!-- X::TypeCheck::Return&#45;&gt;X::TypeCheck -->
<g id="edge6" class="edge">
<title>X::TypeCheck::Return&#45;&gt;X::TypeCheck</title>
<path fill="none" stroke="#000000" d="M550.51,-35.41C533.87,-45.12 512.63,-57.51 494.77,-67.93"/>
<polygon fill="#000000" stroke="#000000" points="492.65,-65.11 485.77,-73.17 496.17,-71.16 492.65,-65.11"/>
</g>
<!-- X::TypeCheck::Assignment -->
<g id="node8" class="node">
<title>X::TypeCheck::Assignment</title>
<g id="a_node8"><a xlink:href="/type/X::TypeCheck::Assignment" xlink:title="X::TypeCheck::Assignment">
<ellipse fill="none" stroke="#000000" cx="836.64" cy="-18" rx="131.08" ry="18"/>
<text text-anchor="middle" x="836.64" y="-14.3" font-family="FreeSans" font-size="14.00" fill="#000000">X::TypeCheck::Assignment</text>
</a>
</g>
</g>
<!-- X::TypeCheck::Assignment&#45;&gt;X::TypeCheck -->
<g id="edge7" class="edge">
<title>X::TypeCheck::Assignment&#45;&gt;X::TypeCheck</title>
<path fill="none" stroke="#000000" d="M761.96,-32.83C692.69,-45.66 590.59,-64.57 524.35,-76.83"/>
<polygon fill="#000000" stroke="#000000" points="523.63,-73.4 514.44,-78.67 524.91,-80.29 523.63,-73.4"/>
</g>
</g>
</svg>
