<?xml version="1.0" encoding="UTF-8" standalone="no"?>
<!DOCTYPE svg PUBLIC "-//W3C//DTD SVG 1.1//EN"
 "http://www.w3.org/Graphics/SVG/1.1/DTD/svg11.dtd">
<!-- Generated by graphviz version 2.42.3 (0)
 -->
<!-- Title: perl6&#45;type&#45;graph Pages: 1 -->
<svg width="690pt" height="332pt"
 viewBox="0.00 0.00 689.69 332.00" xmlns="http://www.w3.org/2000/svg" xmlns:xlink="http://www.w3.org/1999/xlink">
<g id="graph0" class="graph" transform="scale(1 1) rotate(0) translate(4 328)">
<title>perl6&#45;type&#45;graph</title>
<polygon fill="white" stroke="transparent" points="-4,4 -4,-328 685.69,-328 685.69,4 -4,4"/>
<!-- IO -->
<g id="node1" class="node">
<title>IO</title>
<g id="a_node1"><a xlink:href="/type/IO" xlink:title="IO">
<ellipse fill="none" stroke="#6666ff" cx="280.24" cy="-162" rx="27" ry="18"/>
<text text-anchor="middle" x="280.24" y="-158.3" font-family="FreeSans" font-size="14.00" fill="#6666ff">IO</text>
</a>
</g>
</g>
<!-- Mu -->
<g id="node2" class="node">
<title>Mu</title>
<g id="a_node2"><a xlink:href="/type/Mu" xlink:title="Mu">
<ellipse fill="none" stroke="#000000" cx="290.24" cy="-306" rx="27" ry="18"/>
<text text-anchor="middle" x="290.24" y="-302.3" font-family="FreeSans" font-size="14.00" fill="#000000">Mu</text>
</a>
</g>
</g>
<!-- Any -->
<g id="node3" class="node">
<title>Any</title>
<g id="a_node3"><a xlink:href="/type/Any" xlink:title="Any">
<ellipse fill="none" stroke="#000000" cx="290.24" cy="-234" rx="28.7" ry="18"/>
<text text-anchor="middle" x="290.24" y="-230.3" font-family="FreeSans" font-size="14.00" fill="#000000">Any</text>
</a>
</g>
</g>
<!-- Any&#45;&gt;Mu -->
<g id="edge1" class="edge">
<title>Any&#45;&gt;Mu</title>
<path fill="none" stroke="#000000" d="M290.24,-252.3C290.24,-260.02 290.24,-269.29 290.24,-277.89"/>
<polygon fill="#000000" stroke="#000000" points="286.74,-277.9 290.24,-287.9 293.74,-277.9 286.74,-277.9"/>
</g>
<!-- IO::Special -->
<g id="node4" class="node">
<title>IO::Special</title>
<g id="a_node4"><a xlink:href="/type/IO::Special" xlink:title="IO::Special">
<ellipse fill="none" stroke="#000000" cx="228.24" cy="-90" rx="59.29" ry="18"/>
<text text-anchor="middle" x="228.24" y="-86.3" font-family="FreeSans" font-size="14.00" fill="#000000">IO::Special</text>
</a>
</g>
</g>
<!-- IO::Special&#45;&gt;IO -->
<g id="edge9" class="edge">
<title>IO::Special&#45;&gt;IO</title>
<path fill="none" stroke="#6666ff" d="M240.83,-107.95C247.43,-116.83 255.62,-127.86 262.83,-137.55"/>
<polygon fill="#6666ff" stroke="#6666ff" points="260.06,-139.7 268.84,-145.64 265.68,-135.53 260.06,-139.7"/>
</g>
<!-- IO::Special&#45;&gt;Any -->
<g id="edge2" class="edge">
<title>IO::Special&#45;&gt;Any</title>
<path fill="none" stroke="#000000" d="M231.33,-108.16C235.98,-134.02 244.24,-180 244.24,-180 244.24,-180 258.01,-195.86 270.48,-210.23"/>
<polygon fill="#000000" stroke="#000000" points="267.99,-212.7 277.18,-217.95 273.27,-208.11 267.99,-212.7"/>
</g>
<!-- Cool -->
<g id="node5" class="node">
<title>Cool</title>
<g id="a_node5"><a xlink:href="/type/Cool" xlink:title="Cool">
<ellipse fill="none" stroke="#000000" cx="356.24" cy="-162" rx="30.59" ry="18"/>
<text text-anchor="middle" x="356.24" y="-158.3" font-family="FreeSans" font-size="14.00" fill="#000000">Cool</text>
</a>
</g>
</g>
<!-- Cool&#45;&gt;Any -->
<g id="edge3" class="edge">
<title>Cool&#45;&gt;Any</title>
<path fill="none" stroke="#000000" d="M341.92,-178.19C333.01,-187.64 321.4,-199.96 311.44,-210.52"/>
<polygon fill="#000000" stroke="#000000" points="308.85,-208.16 304.54,-217.84 313.94,-212.97 308.85,-208.16"/>
</g>
<!-- IO::Path -->
<g id="node6" class="node">
<title>IO::Path</title>
<g id="a_node6"><a xlink:href="/type/IO::Path" xlink:title="IO::Path">
<ellipse fill="none" stroke="#000000" cx="354.24" cy="-90" rx="46.59" ry="18"/>
<text text-anchor="middle" x="354.24" y="-86.3" font-family="FreeSans" font-size="14.00" fill="#000000">IO::Path</text>
</a>
</g>
</g>
<!-- IO::Path&#45;&gt;IO -->
<g id="edge10" class="edge">
<title>IO::Path&#45;&gt;IO</title>
<path fill="none" stroke="#6666ff" d="M337.45,-106.88C327.2,-116.59 313.95,-129.11 302.79,-139.67"/>
<polygon fill="#6666ff" stroke="#6666ff" points="300.32,-137.19 295.46,-146.61 305.13,-142.28 300.32,-137.19"/>
</g>
<!-- IO::Path&#45;&gt;Cool -->
<g id="edge4" class="edge">
<title>IO::Path&#45;&gt;Cool</title>
<path fill="none" stroke="#000000" d="M354.74,-108.3C354.96,-116.02 355.22,-125.29 355.47,-133.89"/>
<polygon fill="#000000" stroke="#000000" points="351.97,-134 355.75,-143.9 358.97,-133.8 351.97,-134"/>
</g>
<!-- IO::Path::Win32 -->
<g id="node7" class="node">
<title>IO::Path::Win32</title>
<g id="a_node7"><a xlink:href="/type/IO::Path::Win32" xlink:title="IO::Path::Win32">
<ellipse fill="none" stroke="#000000" cx="81.24" cy="-18" rx="81.49" ry="18"/>
<text text-anchor="middle" x="81.24" y="-14.3" font-family="FreeSans" font-size="14.00" fill="#000000">IO::Path::Win32</text>
</a>
</g>
</g>
<!-- IO::Path::Win32&#45;&gt;IO::Path -->
<g id="edge5" class="edge">
<title>IO::Path::Win32&#45;&gt;IO::Path</title>
<path fill="none" stroke="#000000" d="M133.29,-31.83C196.92,-47.52 296.24,-72 296.24,-72 296.24,-72 301.25,-73.47 308.33,-75.54"/>
<polygon fill="#000000" stroke="#000000" points="307.59,-78.97 318.17,-78.43 309.56,-72.26 307.59,-78.97"/>
</g>
<!-- IO::Path::Cygwin -->
<g id="node8" class="node">
<title>IO::Path::Cygwin</title>
<g id="a_node8"><a xlink:href="/type/IO::Path::Cygwin" xlink:title="IO::Path::Cygwin">
<ellipse fill="none" stroke="#000000" cx="266.24" cy="-18" rx="85.59" ry="18"/>
<text text-anchor="middle" x="266.24" y="-14.3" font-family="FreeSans" font-size="14.00" fill="#000000">IO::Path::Cygwin</text>
</a>
</g>
</g>
<!-- IO::Path::Cygwin&#45;&gt;IO::Path -->
<g id="edge6" class="edge">
<title>IO::Path::Cygwin&#45;&gt;IO::Path</title>
<path fill="none" stroke="#000000" d="M287.1,-35.59C298.94,-45.01 313.91,-56.91 326.7,-67.09"/>
<polygon fill="#000000" stroke="#000000" points="324.74,-70 334.74,-73.49 329.1,-64.52 324.74,-70"/>
</g>
<!-- IO::Path::Unix -->
<g id="node9" class="node">
<title>IO::Path::Unix</title>
<g id="a_node9"><a xlink:href="/type/IO::Path::Unix" xlink:title="IO::Path::Unix">
<ellipse fill="none" stroke="#000000" cx="443.24" cy="-18" rx="73.39" ry="18"/>
<text text-anchor="middle" x="443.24" y="-14.3" font-family="FreeSans" font-size="14.00" fill="#000000">IO::Path::Unix</text>
</a>
</g>
</g>
<!-- IO::Path::Unix&#45;&gt;IO::Path -->
<g id="edge7" class="edge">
<title>IO::Path::Unix&#45;&gt;IO::Path</title>
<path fill="none" stroke="#000000" d="M422.15,-35.59C410.18,-45.01 395.04,-56.91 382.1,-67.09"/>
<polygon fill="#000000" stroke="#000000" points="379.66,-64.56 373.96,-73.49 383.99,-70.06 379.66,-64.56"/>
</g>
<!-- IO::Path::QNX -->
<g id="node10" class="node">
<title>IO::Path::QNX</title>
<g id="a_node10"><a xlink:href="/type/IO::Path::QNX" xlink:title="IO::Path::QNX">
<ellipse fill="none" stroke="#000000" cx="608.24" cy="-18" rx="73.39" ry="18"/>
<text text-anchor="middle" x="608.24" y="-14.3" font-family="FreeSans" font-size="14.00" fill="#000000">IO::Path::QNX</text>
</a>
</g>
</g>
<!-- IO::Path::QNX&#45;&gt;IO::Path -->
<g id="edge8" class="edge">
<title>IO::Path::QNX&#45;&gt;IO::Path</title>
<path fill="none" stroke="#000000" d="M561.36,-31.92C515.69,-44.51 446.65,-63.53 401.02,-76.11"/>
<polygon fill="#000000" stroke="#000000" points="400.08,-72.74 391.37,-78.77 401.94,-79.49 400.08,-72.74"/>
</g>
</g>
</svg>
