<?xml version="1.0" encoding="UTF-8" standalone="no"?>
<!DOCTYPE svg PUBLIC "-//W3C//DTD SVG 1.1//EN"
 "http://www.w3.org/Graphics/SVG/1.1/DTD/svg11.dtd">
<!-- Generated by graphviz version 2.42.3 (0)
 -->
<!-- Title: perl6&#45;type&#45;graph Pages: 1 -->
<svg width="388pt" height="188pt"
 viewBox="0.00 0.00 388.33 188.00" xmlns="http://www.w3.org/2000/svg" xmlns:xlink="http://www.w3.org/1999/xlink">
<g id="graph0" class="graph" transform="scale(1 1) rotate(0) translate(4 184)">
<title>perl6&#45;type&#45;graph</title>
<polygon fill="white" stroke="transparent" points="-4,4 -4,-184 384.33,-184 384.33,4 -4,4"/>
<!-- Distribution::Locally -->
<g id="node1" class="node">
<title>Distribution::Locally</title>
<g id="a_node1"><a xlink:href="/type/Distribution::Locally" xlink:title="Distribution::Locally">
<ellipse fill="none" stroke="#6666ff" cx="118.29" cy="-90" rx="100.18" ry="18"/>
<text text-anchor="middle" x="118.29" y="-86.3" font-family="FreeSans" font-size="14.00" fill="#6666ff">Distribution::Locally</text>
</a>
</g>
</g>
<!-- Distribution -->
<g id="node2" class="node">
<title>Distribution</title>
<g id="a_node2"><a xlink:href="/type/Distribution" xlink:title="Distribution">
<ellipse fill="none" stroke="#6666ff" cx="118.29" cy="-162" rx="63.89" ry="18"/>
<text text-anchor="middle" x="118.29" y="-158.3" font-family="FreeSans" font-size="14.00" fill="#6666ff">Distribution</text>
</a>
</g>
</g>
<!-- Distribution::Locally&#45;&gt;Distribution -->
<g id="edge4" class="edge">
<title>Distribution::Locally&#45;&gt;Distribution</title>
<path fill="none" stroke="#6666ff" d="M118.29,-108.3C118.29,-116.02 118.29,-125.29 118.29,-133.89"/>
<polygon fill="#6666ff" stroke="#6666ff" points="114.79,-133.9 118.29,-143.9 121.79,-133.9 114.79,-133.9"/>
</g>
<!-- Mu -->
<g id="node3" class="node">
<title>Mu</title>
<g id="a_node3"><a xlink:href="/type/Mu" xlink:title="Mu">
<ellipse fill="none" stroke="#000000" cx="278.29" cy="-162" rx="27" ry="18"/>
<text text-anchor="middle" x="278.29" y="-158.3" font-family="FreeSans" font-size="14.00" fill="#000000">Mu</text>
</a>
</g>
</g>
<!-- Any -->
<g id="node4" class="node">
<title>Any</title>
<g id="a_node4"><a xlink:href="/type/Any" xlink:title="Any">
<ellipse fill="none" stroke="#000000" cx="278.29" cy="-90" rx="28.7" ry="18"/>
<text text-anchor="middle" x="278.29" y="-86.3" font-family="FreeSans" font-size="14.00" fill="#000000">Any</text>
</a>
</g>
</g>
<!-- Any&#45;&gt;Mu -->
<g id="edge1" class="edge">
<title>Any&#45;&gt;Mu</title>
<path fill="none" stroke="#000000" d="M278.29,-108.3C278.29,-116.02 278.29,-125.29 278.29,-133.89"/>
<polygon fill="#000000" stroke="#000000" points="274.79,-133.9 278.29,-143.9 281.79,-133.9 274.79,-133.9"/>
</g>
<!-- Distribution::Hash -->
<g id="node5" class="node">
<title>Distribution::Hash</title>
<g id="a_node5"><a xlink:href="/type/Distribution::Hash" xlink:title="Distribution::Hash">
<ellipse fill="none" stroke="#000000" cx="92.29" cy="-18" rx="92.08" ry="18"/>
<text text-anchor="middle" x="92.29" y="-14.3" font-family="FreeSans" font-size="14.00" fill="#000000">Distribution::Hash</text>
</a>
</g>
</g>
<!-- Distribution::Hash&#45;&gt;Distribution::Locally -->
<g id="edge5" class="edge">
<title>Distribution::Hash&#45;&gt;Distribution::Locally</title>
<path fill="none" stroke="#6666ff" d="M98.72,-36.3C101.65,-44.19 105.18,-53.7 108.43,-62.45"/>
<polygon fill="#6666ff" stroke="#6666ff" points="105.18,-63.74 111.94,-71.9 111.74,-61.3 105.18,-63.74"/>
</g>
<!-- Distribution::Hash&#45;&gt;Any -->
<g id="edge2" class="edge">
<title>Distribution::Hash&#45;&gt;Any</title>
<path fill="none" stroke="#000000" d="M132.65,-34.19C166.11,-46.78 213.11,-64.47 244.58,-76.31"/>
<polygon fill="#000000" stroke="#000000" points="243.62,-79.69 254.22,-79.94 246.09,-73.14 243.62,-79.69"/>
</g>
<!-- Distribution::Path -->
<g id="node6" class="node">
<title>Distribution::Path</title>
<g id="a_node6"><a xlink:href="/type/Distribution::Path" xlink:title="Distribution::Path">
<ellipse fill="none" stroke="#000000" cx="291.29" cy="-18" rx="89.08" ry="18"/>
<text text-anchor="middle" x="291.29" y="-14.3" font-family="FreeSans" font-size="14.00" fill="#000000">Distribution::Path</text>
</a>
</g>
</g>
<!-- Distribution::Path&#45;&gt;Distribution::Locally -->
<g id="edge6" class="edge">
<title>Distribution::Path&#45;&gt;Distribution::Locally</title>
<path fill="none" stroke="#6666ff" d="M253.33,-34.36C227.79,-44.69 193.91,-58.4 166.48,-69.5"/>
<polygon fill="#6666ff" stroke="#6666ff" points="165.02,-66.32 157.07,-73.31 167.65,-72.8 165.02,-66.32"/>
</g>
<!-- Distribution::Path&#45;&gt;Any -->
<g id="edge3" class="edge">
<title>Distribution::Path&#45;&gt;Any</title>
<path fill="none" stroke="#000000" d="M288.08,-36.3C286.65,-44.02 284.92,-53.29 283.33,-61.89"/>
<polygon fill="#000000" stroke="#000000" points="279.85,-61.42 281.47,-71.9 286.74,-62.7 279.85,-61.42"/>
</g>
</g>
</svg>
