<?xml version="1.0" encoding="UTF-8" standalone="no"?>
<!DOCTYPE svg PUBLIC "-//W3C//DTD SVG 1.1//EN"
 "http://www.w3.org/Graphics/SVG/1.1/DTD/svg11.dtd">
<!-- Generated by graphviz version 2.42.3 (0)
 -->
<!-- Title: perl6&#45;type&#45;graph Pages: 1 -->
<svg width="194pt" height="332pt"
 viewBox="0.00 0.00 193.88 332.00" xmlns="http://www.w3.org/2000/svg" xmlns:xlink="http://www.w3.org/1999/xlink">
<g id="graph0" class="graph" transform="scale(1 1) rotate(0) translate(4 328)">
<title>perl6&#45;type&#45;graph</title>
<polygon fill="white" stroke="transparent" points="-4,4 -4,-328 189.88,-328 189.88,4 -4,4"/>
<!-- X::Value::Dynamic -->
<g id="node1" class="node">
<title>X::Value::Dynamic</title>
<g id="a_node1"><a xlink:href="/type/X::Value::Dynamic" xlink:title="X::Value::Dynamic">
<ellipse fill="none" stroke="#000000" cx="92.94" cy="-18" rx="92.88" ry="18"/>
<text text-anchor="middle" x="92.94" y="-14.3" font-family="FreeSans" font-size="14.00" fill="#000000">X::Value::Dynamic</text>
</a>
</g>
</g>
<!-- Exception -->
<g id="node4" class="node">
<title>Exception</title>
<g id="a_node4"><a xlink:href="/type/Exception" xlink:title="Exception">
<ellipse fill="none" stroke="#000000" cx="92.94" cy="-162" rx="55.49" ry="18"/>
<text text-anchor="middle" x="92.94" y="-158.3" font-family="FreeSans" font-size="14.00" fill="#000000">Exception</text>
</a>
</g>
</g>
<!-- X::Value::Dynamic&#45;&gt;Exception -->
<g id="edge1" class="edge">
<title>X::Value::Dynamic&#45;&gt;Exception</title>
<path fill="none" stroke="#000000" d="M86.83,-36.06C81.27,-51.55 73.94,-72 73.94,-72 73.94,-72 73.94,-108 73.94,-108 73.94,-108 78.69,-121.24 83.44,-134.48"/>
<polygon fill="#000000" stroke="#000000" points="80.16,-135.71 86.83,-143.94 86.75,-133.34 80.16,-135.71"/>
</g>
<!-- X::Comp -->
<g id="node5" class="node">
<title>X::Comp</title>
<g id="a_node5"><a xlink:href="/type/X::Comp" xlink:title="X::Comp">
<ellipse fill="none" stroke="#6666ff" cx="131.94" cy="-90" rx="49.29" ry="18"/>
<text text-anchor="middle" x="131.94" y="-86.3" font-family="FreeSans" font-size="14.00" fill="#6666ff">X::Comp</text>
</a>
</g>
</g>
<!-- X::Value::Dynamic&#45;&gt;X::Comp -->
<g id="edge5" class="edge">
<title>X::Value::Dynamic&#45;&gt;X::Comp</title>
<path fill="none" stroke="#6666ff" d="M102.38,-35.95C106.98,-44.2 112.61,-54.3 117.71,-63.46"/>
<polygon fill="#6666ff" stroke="#6666ff" points="114.66,-65.18 122.59,-72.21 120.78,-61.77 114.66,-65.18"/>
</g>
<!-- Mu -->
<g id="node2" class="node">
<title>Mu</title>
<g id="a_node2"><a xlink:href="/type/Mu" xlink:title="Mu">
<ellipse fill="none" stroke="#000000" cx="92.94" cy="-306" rx="27" ry="18"/>
<text text-anchor="middle" x="92.94" y="-302.3" font-family="FreeSans" font-size="14.00" fill="#000000">Mu</text>
</a>
</g>
</g>
<!-- Any -->
<g id="node3" class="node">
<title>Any</title>
<g id="a_node3"><a xlink:href="/type/Any" xlink:title="Any">
<ellipse fill="none" stroke="#000000" cx="92.94" cy="-234" rx="28.7" ry="18"/>
<text text-anchor="middle" x="92.94" y="-230.3" font-family="FreeSans" font-size="14.00" fill="#000000">Any</text>
</a>
</g>
</g>
<!-- Any&#45;&gt;Mu -->
<g id="edge2" class="edge">
<title>Any&#45;&gt;Mu</title>
<path fill="none" stroke="#000000" d="M92.94,-252.3C92.94,-260.02 92.94,-269.29 92.94,-277.89"/>
<polygon fill="#000000" stroke="#000000" points="89.44,-277.9 92.94,-287.9 96.44,-277.9 89.44,-277.9"/>
</g>
<!-- Exception&#45;&gt;Any -->
<g id="edge3" class="edge">
<title>Exception&#45;&gt;Any</title>
<path fill="none" stroke="#000000" d="M92.94,-180.3C92.94,-188.02 92.94,-197.29 92.94,-205.89"/>
<polygon fill="#000000" stroke="#000000" points="89.44,-205.9 92.94,-215.9 96.44,-205.9 89.44,-205.9"/>
</g>
<!-- X::Comp&#45;&gt;Exception -->
<g id="edge4" class="edge">
<title>X::Comp&#45;&gt;Exception</title>
<path fill="none" stroke="#000000" d="M122.5,-107.95C117.9,-116.2 112.28,-126.3 107.17,-135.46"/>
<polygon fill="#000000" stroke="#000000" points="104.11,-133.77 102.3,-144.21 110.22,-137.18 104.11,-133.77"/>
</g>
</g>
</svg>
