<?xml version="1.0" encoding="UTF-8" standalone="no"?>
<!DOCTYPE svg PUBLIC "-//W3C//DTD SVG 1.1//EN"
 "http://www.w3.org/Graphics/SVG/1.1/DTD/svg11.dtd">
<!-- Generated by graphviz version 2.42.3 (0)
 -->
<!-- Title: perl6&#45;type&#45;graph Pages: 1 -->
<svg width="227pt" height="404pt"
 viewBox="0.00 0.00 227.44 404.00" xmlns="http://www.w3.org/2000/svg" xmlns:xlink="http://www.w3.org/1999/xlink">
<g id="graph0" class="graph" transform="scale(1 1) rotate(0) translate(4 400)">
<title>perl6&#45;type&#45;graph</title>
<polygon fill="white" stroke="transparent" points="-4,4 -4,-400 223.44,-400 223.44,4 -4,4"/>
<!-- X::IO::Move -->
<g id="node1" class="node">
<title>X::IO::Move</title>
<g id="a_node1"><a xlink:href="/type/X::IO::Move" xlink:title="X::IO::Move">
<ellipse fill="none" stroke="#000000" cx="63.04" cy="-18" rx="63.09" ry="18"/>
<text text-anchor="middle" x="63.04" y="-14.3" font-family="FreeSans" font-size="14.00" fill="#000000">X::IO::Move</text>
</a>
</g>
</g>
<!-- Exception -->
<g id="node4" class="node">
<title>Exception</title>
<g id="a_node4"><a xlink:href="/type/Exception" xlink:title="Exception">
<ellipse fill="none" stroke="#000000" cx="63.04" cy="-234" rx="55.49" ry="18"/>
<text text-anchor="middle" x="63.04" y="-230.3" font-family="FreeSans" font-size="14.00" fill="#000000">Exception</text>
</a>
</g>
</g>
<!-- X::IO::Move&#45;&gt;Exception -->
<g id="edge1" class="edge">
<title>X::IO::Move&#45;&gt;Exception</title>
<path fill="none" stroke="#000000" d="M55.29,-36.15C48.2,-73.26 47.67,-161.25 53.7,-205.95"/>
<polygon fill="#000000" stroke="#000000" points="50.29,-206.75 55.33,-216.06 57.2,-205.64 50.29,-206.75"/>
</g>
<!-- X::IO::Move&#45;&gt;Exception -->
<g id="edge2" class="edge">
<title>X::IO::Move&#45;&gt;Exception</title>
<path fill="none" stroke="#000000" d="M63.04,-36.15C63.04,-73.17 63.04,-160.82 63.04,-205.61"/>
<polygon fill="#000000" stroke="#000000" points="59.54,-205.77 63.04,-215.77 66.54,-205.77 59.54,-205.77"/>
</g>
<!-- X::IO::Move&#45;&gt;Exception -->
<g id="edge3" class="edge">
<title>X::IO::Move&#45;&gt;Exception</title>
<path fill="none" stroke="#000000" d="M70.8,-36.15C77.89,-73.26 78.42,-161.25 72.38,-205.95"/>
<polygon fill="#000000" stroke="#000000" points="68.89,-205.64 70.76,-216.06 75.8,-206.75 68.89,-205.64"/>
</g>
<!-- X::IO -->
<g id="node6" class="node">
<title>X::IO</title>
<g id="a_node6"><a xlink:href="/type/X::IO" xlink:title="X::IO">
<ellipse fill="none" stroke="#6666ff" cx="142.04" cy="-90" rx="33.29" ry="18"/>
<text text-anchor="middle" x="142.04" y="-86.3" font-family="FreeSans" font-size="14.00" fill="#6666ff">X::IO</text>
</a>
</g>
</g>
<!-- X::IO::Move&#45;&gt;X::IO -->
<g id="edge8" class="edge">
<title>X::IO::Move&#45;&gt;X::IO</title>
<path fill="none" stroke="#6666ff" d="M81.37,-35.24C92.18,-44.82 106,-57.06 117.72,-67.45"/>
<polygon fill="#6666ff" stroke="#6666ff" points="115.63,-70.27 125.44,-74.28 120.27,-65.03 115.63,-70.27"/>
</g>
<!-- Mu -->
<g id="node2" class="node">
<title>Mu</title>
<g id="a_node2"><a xlink:href="/type/Mu" xlink:title="Mu">
<ellipse fill="none" stroke="#000000" cx="63.04" cy="-378" rx="27" ry="18"/>
<text text-anchor="middle" x="63.04" y="-374.3" font-family="FreeSans" font-size="14.00" fill="#000000">Mu</text>
</a>
</g>
</g>
<!-- Any -->
<g id="node3" class="node">
<title>Any</title>
<g id="a_node3"><a xlink:href="/type/Any" xlink:title="Any">
<ellipse fill="none" stroke="#000000" cx="63.04" cy="-306" rx="28.7" ry="18"/>
<text text-anchor="middle" x="63.04" y="-302.3" font-family="FreeSans" font-size="14.00" fill="#000000">Any</text>
</a>
</g>
</g>
<!-- Any&#45;&gt;Mu -->
<g id="edge4" class="edge">
<title>Any&#45;&gt;Mu</title>
<path fill="none" stroke="#000000" d="M63.04,-324.3C63.04,-332.02 63.04,-341.29 63.04,-349.89"/>
<polygon fill="#000000" stroke="#000000" points="59.54,-349.9 63.04,-359.9 66.54,-349.9 59.54,-349.9"/>
</g>
<!-- Exception&#45;&gt;Any -->
<g id="edge5" class="edge">
<title>Exception&#45;&gt;Any</title>
<path fill="none" stroke="#000000" d="M63.04,-252.3C63.04,-260.02 63.04,-269.29 63.04,-277.89"/>
<polygon fill="#000000" stroke="#000000" points="59.54,-277.9 63.04,-287.9 66.54,-277.9 59.54,-277.9"/>
</g>
<!-- X::OS -->
<g id="node5" class="node">
<title>X::OS</title>
<g id="a_node5"><a xlink:href="/type/X::OS" xlink:title="X::OS">
<ellipse fill="none" stroke="#6666ff" cx="183.04" cy="-162" rx="36.29" ry="18"/>
<text text-anchor="middle" x="183.04" y="-158.3" font-family="FreeSans" font-size="14.00" fill="#6666ff">X::OS</text>
</a>
</g>
</g>
<!-- X::OS&#45;&gt;Exception -->
<g id="edge6" class="edge">
<title>X::OS&#45;&gt;Exception</title>
<path fill="none" stroke="#000000" d="M160.47,-176.17C142.81,-186.47 117.94,-200.98 97.75,-212.75"/>
<polygon fill="#000000" stroke="#000000" points="95.72,-209.89 88.85,-217.95 99.25,-215.93 95.72,-209.89"/>
</g>
<!-- X::IO&#45;&gt;Exception -->
<g id="edge7" class="edge">
<title>X::IO&#45;&gt;Exception</title>
<path fill="none" stroke="#000000" d="M133.2,-107.74C119.59,-133.52 95.04,-180 95.04,-180 95.04,-180 86.63,-193.93 78.44,-207.51"/>
<polygon fill="#000000" stroke="#000000" points="75.34,-205.86 73.17,-216.23 81.33,-209.48 75.34,-205.86"/>
</g>
<!-- X::IO&#45;&gt;X::OS -->
<g id="edge9" class="edge">
<title>X::IO&#45;&gt;X::OS</title>
<path fill="none" stroke="#6666ff" d="M151.76,-107.59C156.66,-115.96 162.71,-126.29 168.18,-135.63"/>
<polygon fill="#6666ff" stroke="#6666ff" points="165.32,-137.67 173.4,-144.53 171.36,-134.13 165.32,-137.67"/>
</g>
</g>
</svg>
