<?xml version="1.0" encoding="UTF-8" standalone="no"?>
<!DOCTYPE svg PUBLIC "-//W3C//DTD SVG 1.1//EN"
 "http://www.w3.org/Graphics/SVG/1.1/DTD/svg11.dtd">
<!-- Generated by graphviz version 2.42.3 (0)
 -->
<!-- Title: perl6&#45;type&#45;graph Pages: 1 -->
<svg width="1977pt" height="404pt"
 viewBox="0.00 0.00 1977.29 404.00" xmlns="http://www.w3.org/2000/svg" xmlns:xlink="http://www.w3.org/1999/xlink">
<g id="graph0" class="graph" transform="scale(1 1) rotate(0) translate(4 400)">
<title>perl6&#45;type&#45;graph</title>
<polygon fill="white" stroke="transparent" points="-4,4 -4,-400 1973.29,-400 1973.29,4 -4,4"/>
<!-- X::IO -->
<g id="node1" class="node">
<title>X::IO</title>
<g id="a_node1"><a xlink:href="/type/X::IO" xlink:title="X::IO">
<ellipse fill="none" stroke="#6666ff" cx="926.69" cy="-90" rx="33.29" ry="18"/>
<text text-anchor="middle" x="926.69" y="-86.3" font-family="FreeSans" font-size="14.00" fill="#6666ff">X::IO</text>
</a>
</g>
</g>
<!-- Exception -->
<g id="node4" class="node">
<title>Exception</title>
<g id="a_node4"><a xlink:href="/type/Exception" xlink:title="Exception">
<ellipse fill="none" stroke="#000000" cx="1072.69" cy="-234" rx="55.49" ry="18"/>
<text text-anchor="middle" x="1072.69" y="-230.3" font-family="FreeSans" font-size="14.00" fill="#000000">Exception</text>
</a>
</g>
</g>
<!-- X::IO&#45;&gt;Exception -->
<g id="edge1" class="edge">
<title>X::IO&#45;&gt;Exception</title>
<path fill="none" stroke="#000000" d="M937.33,-107.32C954.08,-133.02 984.69,-180 984.69,-180 984.69,-180 1013.69,-197.46 1038.4,-212.34"/>
<polygon fill="#000000" stroke="#000000" points="1036.87,-215.51 1047.24,-217.67 1040.48,-209.51 1036.87,-215.51"/>
</g>
<!-- X::OS -->
<g id="node5" class="node">
<title>X::OS</title>
<g id="a_node5"><a xlink:href="/type/X::OS" xlink:title="X::OS">
<ellipse fill="none" stroke="#6666ff" cx="896.69" cy="-162" rx="36.29" ry="18"/>
<text text-anchor="middle" x="896.69" y="-158.3" font-family="FreeSans" font-size="14.00" fill="#6666ff">X::OS</text>
</a>
</g>
</g>
<!-- X::IO&#45;&gt;X::OS -->
<g id="edge37" class="edge">
<title>X::IO&#45;&gt;X::OS</title>
<path fill="none" stroke="#6666ff" d="M919.58,-107.59C916.12,-115.66 911.88,-125.57 907.99,-134.65"/>
<polygon fill="#6666ff" stroke="#6666ff" points="904.68,-133.47 903.96,-144.04 911.12,-136.23 904.68,-133.47"/>
</g>
<!-- Mu -->
<g id="node2" class="node">
<title>Mu</title>
<g id="a_node2"><a xlink:href="/type/Mu" xlink:title="Mu">
<ellipse fill="none" stroke="#000000" cx="1072.69" cy="-378" rx="27" ry="18"/>
<text text-anchor="middle" x="1072.69" y="-374.3" font-family="FreeSans" font-size="14.00" fill="#000000">Mu</text>
</a>
</g>
</g>
<!-- Any -->
<g id="node3" class="node">
<title>Any</title>
<g id="a_node3"><a xlink:href="/type/Any" xlink:title="Any">
<ellipse fill="none" stroke="#000000" cx="1072.69" cy="-306" rx="28.7" ry="18"/>
<text text-anchor="middle" x="1072.69" y="-302.3" font-family="FreeSans" font-size="14.00" fill="#000000">Any</text>
</a>
</g>
</g>
<!-- Any&#45;&gt;Mu -->
<g id="edge2" class="edge">
<title>Any&#45;&gt;Mu</title>
<path fill="none" stroke="#000000" d="M1072.69,-324.3C1072.69,-332.02 1072.69,-341.29 1072.69,-349.89"/>
<polygon fill="#000000" stroke="#000000" points="1069.19,-349.9 1072.69,-359.9 1076.19,-349.9 1069.19,-349.9"/>
</g>
<!-- Exception&#45;&gt;Any -->
<g id="edge3" class="edge">
<title>Exception&#45;&gt;Any</title>
<path fill="none" stroke="#000000" d="M1072.69,-252.3C1072.69,-260.02 1072.69,-269.29 1072.69,-277.89"/>
<polygon fill="#000000" stroke="#000000" points="1069.19,-277.9 1072.69,-287.9 1076.19,-277.9 1069.19,-277.9"/>
</g>
<!-- X::OS&#45;&gt;Exception -->
<g id="edge4" class="edge">
<title>X::OS&#45;&gt;Exception</title>
<path fill="none" stroke="#000000" d="M924.19,-173.94C952.44,-185.17 996.8,-202.82 1029.69,-215.9"/>
<polygon fill="#000000" stroke="#000000" points="1028.49,-219.18 1039.07,-219.63 1031.07,-212.68 1028.49,-219.18"/>
</g>
<!-- X::IO::Chdir -->
<g id="node6" class="node">
<title>X::IO::Chdir</title>
<g id="a_node6"><a xlink:href="/type/X::IO::Chdir" xlink:title="X::IO::Chdir">
<ellipse fill="none" stroke="#000000" cx="63.69" cy="-18" rx="63.89" ry="18"/>
<text text-anchor="middle" x="63.69" y="-14.3" font-family="FreeSans" font-size="14.00" fill="#000000">X::IO::Chdir</text>
</a>
</g>
</g>
<!-- X::IO::Chdir&#45;&gt;X::IO -->
<g id="edge38" class="edge">
<title>X::IO::Chdir&#45;&gt;X::IO</title>
<path fill="none" stroke="#6666ff" d="M111.16,-30.05C125.11,-33.3 136.69,-36 136.69,-36 136.69,-36 718.42,-75.03 883.49,-86.1"/>
<polygon fill="#6666ff" stroke="#6666ff" points="883.54,-89.61 893.75,-86.79 884.01,-82.63 883.54,-89.61"/>
</g>
<!-- X::IO::Chdir&#45;&gt;Exception -->
<g id="edge5" class="edge">
<title>X::IO::Chdir&#45;&gt;Exception</title>
<path fill="none" stroke="#000000" d="M100.3,-32.87C209.84,-71.92 526.69,-180 526.69,-180 526.69,-180 866.4,-213.53 1009.96,-227.25"/>
<polygon fill="#000000" stroke="#000000" points="1009.67,-230.74 1019.95,-228.2 1010.33,-223.77 1009.67,-230.74"/>
</g>
<!-- X::IO::Chdir&#45;&gt;Exception -->
<g id="edge6" class="edge">
<title>X::IO::Chdir&#45;&gt;Exception</title>
<path fill="none" stroke="#000000" d="M105.03,-31.77C221.76,-69.85 544.69,-180 544.69,-180 544.69,-180 871.64,-212.27 1011.04,-226.45"/>
<polygon fill="#000000" stroke="#000000" points="1010.84,-229.95 1021.14,-227.48 1011.55,-222.98 1010.84,-229.95"/>
</g>
<!-- X::IO::Dir -->
<g id="node7" class="node">
<title>X::IO::Dir</title>
<g id="a_node7"><a xlink:href="/type/X::IO::Dir" xlink:title="X::IO::Dir">
<ellipse fill="none" stroke="#000000" cx="197.69" cy="-18" rx="51.99" ry="18"/>
<text text-anchor="middle" x="197.69" y="-14.3" font-family="FreeSans" font-size="14.00" fill="#000000">X::IO::Dir</text>
</a>
</g>
</g>
<!-- X::IO::Dir&#45;&gt;X::IO -->
<g id="edge39" class="edge">
<title>X::IO::Dir&#45;&gt;X::IO</title>
<path fill="none" stroke="#6666ff" d="M237.02,-29.96C248.82,-33.25 258.69,-36 258.69,-36 258.69,-36 736.69,-73.92 884,-85.61"/>
<polygon fill="#6666ff" stroke="#6666ff" points="883.78,-89.11 894.02,-86.41 884.33,-82.13 883.78,-89.11"/>
</g>
<!-- X::IO::Dir&#45;&gt;Exception -->
<g id="edge7" class="edge">
<title>X::IO::Dir&#45;&gt;Exception</title>
<path fill="none" stroke="#000000" d="M229.77,-32.31C329.21,-70.89 624.69,-180 624.69,-180 624.69,-180 888.43,-211.84 1011.25,-226.16"/>
<polygon fill="#000000" stroke="#000000" points="1010.93,-229.65 1021.27,-227.33 1011.74,-222.7 1010.93,-229.65"/>
</g>
<!-- X::IO::Dir&#45;&gt;Exception -->
<g id="edge8" class="edge">
<title>X::IO::Dir&#45;&gt;Exception</title>
<path fill="none" stroke="#000000" d="M233.91,-30.97C340.15,-68.28 642.69,-180 642.69,-180 642.69,-180 893.78,-210.31 1012.28,-225.09"/>
<polygon fill="#000000" stroke="#000000" points="1011.94,-228.57 1022.3,-226.34 1012.81,-221.63 1011.94,-228.57"/>
</g>
<!-- X::IO::Mkdir -->
<g id="node8" class="node">
<title>X::IO::Mkdir</title>
<g id="a_node8"><a xlink:href="/type/X::IO::Mkdir" xlink:title="X::IO::Mkdir">
<ellipse fill="none" stroke="#000000" cx="331.69" cy="-18" rx="64.19" ry="18"/>
<text text-anchor="middle" x="331.69" y="-14.3" font-family="FreeSans" font-size="14.00" fill="#000000">X::IO::Mkdir</text>
</a>
</g>
</g>
<!-- X::IO::Mkdir&#45;&gt;X::IO -->
<g id="edge40" class="edge">
<title>X::IO::Mkdir&#45;&gt;X::IO</title>
<path fill="none" stroke="#6666ff" d="M379.81,-30.05C393.95,-33.3 405.69,-36 405.69,-36 405.69,-36 759.14,-71.96 883.8,-84.64"/>
<polygon fill="#6666ff" stroke="#6666ff" points="883.8,-88.15 894.1,-85.68 884.51,-81.19 883.8,-88.15"/>
</g>
<!-- X::IO::Mkdir&#45;&gt;Exception -->
<g id="edge9" class="edge">
<title>X::IO::Mkdir&#45;&gt;Exception</title>
<path fill="none" stroke="#000000" d="M363.18,-33.71C454.61,-73.46 712.69,-180 712.69,-180 712.69,-180 910.34,-209.84 1012.81,-224.74"/>
<polygon fill="#000000" stroke="#000000" points="1012.32,-228.21 1022.72,-226.18 1013.33,-221.28 1012.32,-228.21"/>
</g>
<!-- X::IO::Mkdir&#45;&gt;Exception -->
<g id="edge10" class="edge">
<title>X::IO::Mkdir&#45;&gt;Exception</title>
<path fill="none" stroke="#000000" d="M368.98,-32.73C468.26,-71.66 730.69,-180 730.69,-180 730.69,-180 916.79,-208.1 1014.5,-223.38"/>
<polygon fill="#000000" stroke="#000000" points="1014.11,-226.86 1024.53,-224.95 1015.19,-219.94 1014.11,-226.86"/>
</g>
<!-- X::IO::Symlink -->
<g id="node9" class="node">
<title>X::IO::Symlink</title>
<g id="a_node9"><a xlink:href="/type/X::IO::Symlink" xlink:title="X::IO::Symlink">
<ellipse fill="none" stroke="#000000" cx="489.69" cy="-18" rx="75.29" ry="18"/>
<text text-anchor="middle" x="489.69" y="-14.3" font-family="FreeSans" font-size="14.00" fill="#000000">X::IO::Symlink</text>
</a>
</g>
</g>
<!-- X::IO::Symlink&#45;&gt;X::IO -->
<g id="edge41" class="edge">
<title>X::IO::Symlink&#45;&gt;X::IO</title>
<path fill="none" stroke="#6666ff" d="M545.26,-30.24C560.88,-33.41 573.69,-36 573.69,-36 573.69,-36 791.76,-68.74 885.1,-82.76"/>
<polygon fill="#6666ff" stroke="#6666ff" points="884.65,-86.23 895.06,-84.25 885.69,-79.3 884.65,-86.23"/>
</g>
<!-- X::IO::Symlink&#45;&gt;Exception -->
<g id="edge11" class="edge">
<title>X::IO::Symlink&#45;&gt;Exception</title>
<path fill="none" stroke="#000000" d="M515.25,-35.03C586.44,-75.75 780.69,-180 780.69,-180 780.69,-180 929.22,-207.82 1014.5,-223.15"/>
<polygon fill="#000000" stroke="#000000" points="1014.11,-226.63 1024.57,-224.95 1015.34,-219.74 1014.11,-226.63"/>
</g>
<!-- X::IO::Symlink&#45;&gt;Exception -->
<g id="edge12" class="edge">
<title>X::IO::Symlink&#45;&gt;Exception</title>
<path fill="none" stroke="#000000" d="M522.41,-34.29C602.07,-74.48 798.69,-180 798.69,-180 798.69,-180 937.57,-206.01 1017.65,-221.59"/>
<polygon fill="#000000" stroke="#000000" points="1017.11,-225.05 1027.59,-223.52 1018.45,-218.17 1017.11,-225.05"/>
</g>
<!-- X::IO::Move -->
<g id="node10" class="node">
<title>X::IO::Move</title>
<g id="a_node10"><a xlink:href="/type/X::IO::Move" xlink:title="X::IO::Move">
<ellipse fill="none" stroke="#000000" cx="645.69" cy="-18" rx="63.09" ry="18"/>
<text text-anchor="middle" x="645.69" y="-14.3" font-family="FreeSans" font-size="14.00" fill="#000000">X::IO::Move</text>
</a>
</g>
</g>
<!-- X::IO::Move&#45;&gt;X::IO -->
<g id="edge42" class="edge">
<title>X::IO::Move&#45;&gt;X::IO</title>
<path fill="none" stroke="#6666ff" d="M691.47,-30.4C745.85,-43.95 835.67,-66.33 887.16,-79.15"/>
<polygon fill="#6666ff" stroke="#6666ff" points="886.37,-82.56 896.92,-81.58 888.07,-75.77 886.37,-82.56"/>
</g>
<!-- X::IO::Move&#45;&gt;Exception -->
<g id="edge13" class="edge">
<title>X::IO::Move&#45;&gt;Exception</title>
<path fill="none" stroke="#000000" d="M660.73,-35.62C704.14,-76.76 824.69,-180 824.69,-180 824.69,-180 943.21,-206.28 1016.47,-221.83"/>
<polygon fill="#000000" stroke="#000000" points="1015.98,-225.3 1026.49,-223.95 1017.43,-218.46 1015.98,-225.3"/>
</g>
<!-- X::IO::Move&#45;&gt;Exception -->
<g id="edge14" class="edge">
<title>X::IO::Move&#45;&gt;Exception</title>
<path fill="none" stroke="#000000" d="M668.72,-35.03C720.96,-75.75 842.69,-180 842.69,-180 842.69,-180 952.28,-204.3 1020.25,-219.99"/>
<polygon fill="#000000" stroke="#000000" points="1019.84,-223.49 1030.37,-222.34 1021.42,-216.67 1019.84,-223.49"/>
</g>
<!-- X::IO::Link -->
<g id="node11" class="node">
<title>X::IO::Link</title>
<g id="a_node11"><a xlink:href="/type/X::IO::Link" xlink:title="X::IO::Link">
<ellipse fill="none" stroke="#000000" cx="784.69" cy="-18" rx="57.69" ry="18"/>
<text text-anchor="middle" x="784.69" y="-14.3" font-family="FreeSans" font-size="14.00" fill="#000000">X::IO::Link</text>
</a>
</g>
</g>
<!-- X::IO::Link&#45;&gt;X::IO -->
<g id="edge43" class="edge">
<title>X::IO::Link&#45;&gt;X::IO</title>
<path fill="none" stroke="#6666ff" d="M814.12,-33.5C837.35,-44.96 869.76,-60.93 893.84,-72.81"/>
<polygon fill="#6666ff" stroke="#6666ff" points="892.43,-76.01 902.95,-77.3 895.53,-69.74 892.43,-76.01"/>
</g>
<!-- X::IO::Link&#45;&gt;Exception -->
<g id="edge15" class="edge">
<title>X::IO::Link&#45;&gt;Exception</title>
<path fill="none" stroke="#000000" d="M787.42,-36.23C800.15,-77.76 842.69,-180 842.69,-180 842.69,-180 949.82,-205.69 1017.94,-221.3"/>
<polygon fill="#000000" stroke="#000000" points="1017.16,-224.71 1027.69,-223.52 1018.72,-217.89 1017.16,-224.71"/>
</g>
<!-- X::IO::Link&#45;&gt;Exception -->
<g id="edge16" class="edge">
<title>X::IO::Link&#45;&gt;Exception</title>
<path fill="none" stroke="#000000" d="M796.15,-35.93C817.94,-77.26 860.69,-180 860.69,-180 860.69,-180 959.41,-203.67 1022.21,-219.38"/>
<polygon fill="#000000" stroke="#000000" points="1021.4,-222.78 1031.95,-221.82 1023.11,-216 1021.4,-222.78"/>
</g>
<!-- X::IO::Rmdir -->
<g id="node12" class="node">
<title>X::IO::Rmdir</title>
<g id="a_node12"><a xlink:href="/type/X::IO::Rmdir" xlink:title="X::IO::Rmdir">
<ellipse fill="none" stroke="#000000" cx="926.69" cy="-18" rx="66.09" ry="18"/>
<text text-anchor="middle" x="926.69" y="-14.3" font-family="FreeSans" font-size="14.00" fill="#000000">X::IO::Rmdir</text>
</a>
</g>
</g>
<!-- X::IO::Rmdir&#45;&gt;X::IO -->
<g id="edge44" class="edge">
<title>X::IO::Rmdir&#45;&gt;X::IO</title>
<path fill="none" stroke="#6666ff" d="M926.69,-36.3C926.69,-44.02 926.69,-53.29 926.69,-61.89"/>
<polygon fill="#6666ff" stroke="#6666ff" points="923.19,-61.9 926.69,-71.9 930.19,-61.9 923.19,-61.9"/>
</g>
<!-- X::IO::Rmdir&#45;&gt;Exception -->
<g id="edge17" class="edge">
<title>X::IO::Rmdir&#45;&gt;Exception</title>
<path fill="none" stroke="#000000" d="M933.37,-36.06C943.49,-51.55 959.69,-72 959.69,-72 959.69,-72 1018.55,-163.12 1051.54,-208.26"/>
<polygon fill="#000000" stroke="#000000" points="1048.8,-210.44 1057.58,-216.38 1054.42,-206.26 1048.8,-210.44"/>
</g>
<!-- X::IO::Rmdir&#45;&gt;Exception -->
<g id="edge18" class="edge">
<title>X::IO::Rmdir&#45;&gt;Exception</title>
<path fill="none" stroke="#000000" d="M946.51,-35.48C961.08,-51.04 977.69,-72 977.69,-72 977.69,-72 1035.54,-161.55 1061.21,-207.08"/>
<polygon fill="#000000" stroke="#000000" points="1058.28,-209.01 1066.17,-216.07 1064.41,-205.63 1058.28,-209.01"/>
</g>
<!-- X::IO::Copy -->
<g id="node13" class="node">
<title>X::IO::Copy</title>
<g id="a_node13"><a xlink:href="/type/X::IO::Copy" xlink:title="X::IO::Copy">
<ellipse fill="none" stroke="#000000" cx="1072.69" cy="-18" rx="61.99" ry="18"/>
<text text-anchor="middle" x="1072.69" y="-14.3" font-family="FreeSans" font-size="14.00" fill="#000000">X::IO::Copy</text>
</a>
</g>
</g>
<!-- X::IO::Copy&#45;&gt;X::IO -->
<g id="edge45" class="edge">
<title>X::IO::Copy&#45;&gt;X::IO</title>
<path fill="none" stroke="#6666ff" d="M1042.09,-33.67C1018.17,-45.14 984.96,-61.06 960.31,-72.88"/>
<polygon fill="#6666ff" stroke="#6666ff" points="958.49,-69.87 950.99,-77.35 961.52,-76.19 958.49,-69.87"/>
</g>
<!-- X::IO::Copy&#45;&gt;Exception -->
<g id="edge19" class="edge">
<title>X::IO::Copy&#45;&gt;Exception</title>
<path fill="none" stroke="#000000" d="M1064.94,-36.15C1057.85,-73.26 1057.32,-161.25 1063.35,-205.95"/>
<polygon fill="#000000" stroke="#000000" points="1059.94,-206.75 1064.98,-216.06 1066.85,-205.64 1059.94,-206.75"/>
</g>
<!-- X::IO::Copy&#45;&gt;Exception -->
<g id="edge20" class="edge">
<title>X::IO::Copy&#45;&gt;Exception</title>
<path fill="none" stroke="#000000" d="M1072.69,-36.15C1072.69,-73.17 1072.69,-160.82 1072.69,-205.61"/>
<polygon fill="#000000" stroke="#000000" points="1069.19,-205.77 1072.69,-215.77 1076.19,-205.77 1069.19,-205.77"/>
</g>
<!-- X::IO::Copy&#45;&gt;Exception -->
<g id="edge21" class="edge">
<title>X::IO::Copy&#45;&gt;Exception</title>
<path fill="none" stroke="#000000" d="M1080.45,-36.15C1087.54,-73.26 1088.07,-161.25 1082.03,-205.95"/>
<polygon fill="#000000" stroke="#000000" points="1078.54,-205.64 1080.41,-216.06 1085.45,-206.75 1078.54,-205.64"/>
</g>
<!-- X::IO::Rename -->
<g id="node14" class="node">
<title>X::IO::Rename</title>
<g id="a_node14"><a xlink:href="/type/X::IO::Rename" xlink:title="X::IO::Rename">
<ellipse fill="none" stroke="#000000" cx="1228.69" cy="-18" rx="76.09" ry="18"/>
<text text-anchor="middle" x="1228.69" y="-14.3" font-family="FreeSans" font-size="14.00" fill="#000000">X::IO::Rename</text>
</a>
</g>
</g>
<!-- X::IO::Rename&#45;&gt;X::IO -->
<g id="edge46" class="edge">
<title>X::IO::Rename&#45;&gt;X::IO</title>
<path fill="none" stroke="#6666ff" d="M1176.43,-31.11C1116.8,-44.94 1020.58,-67.24 966.64,-79.74"/>
<polygon fill="#6666ff" stroke="#6666ff" points="965.71,-76.36 956.76,-82.03 967.29,-83.18 965.71,-76.36"/>
</g>
<!-- X::IO::Rename&#45;&gt;Exception -->
<g id="edge22" class="edge">
<title>X::IO::Rename&#45;&gt;Exception</title>
<path fill="none" stroke="#000000" d="M1209.1,-35.44C1174.84,-72.44 1108.64,-162.54 1082.38,-207.13"/>
<polygon fill="#000000" stroke="#000000" points="1079.28,-205.49 1077.41,-215.91 1085.38,-208.93 1079.28,-205.49"/>
</g>
<!-- X::IO::Rename&#45;&gt;Exception -->
<g id="edge23" class="edge">
<title>X::IO::Rename&#45;&gt;Exception</title>
<path fill="none" stroke="#000000" d="M1216.45,-35.79C1189.11,-73.3 1122.97,-164.03 1090.83,-208.12"/>
<polygon fill="#000000" stroke="#000000" points="1087.94,-206.14 1084.88,-216.29 1093.6,-210.27 1087.94,-206.14"/>
</g>
<!-- X::IO::Rename&#45;&gt;Exception -->
<g id="edge24" class="edge">
<title>X::IO::Rename&#45;&gt;Exception</title>
<path fill="none" stroke="#000000" d="M1223.95,-36.15C1203.45,-74.25 1136.96,-165.97 1098.73,-209.42"/>
<polygon fill="#000000" stroke="#000000" points="1096.04,-207.17 1091.94,-216.94 1101.24,-211.86 1096.04,-207.17"/>
</g>
<!-- X::IO::Chmod -->
<g id="node15" class="node">
<title>X::IO::Chmod</title>
<g id="a_node15"><a xlink:href="/type/X::IO::Chmod" xlink:title="X::IO::Chmod">
<ellipse fill="none" stroke="#000000" cx="1394.69" cy="-18" rx="71.49" ry="18"/>
<text text-anchor="middle" x="1394.69" y="-14.3" font-family="FreeSans" font-size="14.00" fill="#000000">X::IO::Chmod</text>
</a>
</g>
</g>
<!-- X::IO::Chmod&#45;&gt;X::IO -->
<g id="edge47" class="edge">
<title>X::IO::Chmod&#45;&gt;X::IO</title>
<path fill="none" stroke="#6666ff" d="M1341.57,-30.15C1326.3,-33.35 1313.69,-36 1313.69,-36 1313.69,-36 1068.46,-69.59 968.42,-83.29"/>
<polygon fill="#6666ff" stroke="#6666ff" points="967.8,-79.84 958.36,-84.66 968.75,-86.77 967.8,-79.84"/>
</g>
<!-- X::IO::Chmod&#45;&gt;Exception -->
<g id="edge25" class="edge">
<title>X::IO::Chmod&#45;&gt;Exception</title>
<path fill="none" stroke="#000000" d="M1363.49,-34.44C1294.65,-74.73 1139.69,-180 1139.69,-180 1139.69,-180 1114.27,-195.85 1094.18,-210.22"/>
<polygon fill="#000000" stroke="#000000" points="1091.97,-207.49 1085.98,-216.23 1096.12,-213.14 1091.97,-207.49"/>
</g>
<!-- X::IO::Chmod&#45;&gt;Exception -->
<g id="edge26" class="edge">
<title>X::IO::Chmod&#45;&gt;Exception</title>
<path fill="none" stroke="#000000" d="M1371.1,-35.03C1311.16,-75.75 1157.69,-180 1157.69,-180 1157.69,-180 1129.69,-197.46 1105.82,-212.34"/>
<polygon fill="#000000" stroke="#000000" points="1103.91,-209.41 1097.28,-217.67 1107.62,-215.35 1103.91,-209.41"/>
</g>
<!-- X::IO::Chmod&#45;&gt;Exception -->
<g id="edge27" class="edge">
<title>X::IO::Chmod&#45;&gt;Exception</title>
<path fill="none" stroke="#000000" d="M1378.98,-35.62C1327.67,-76.76 1175.69,-180 1175.69,-180 1175.69,-180 1144.45,-199.48 1115.84,-214.82"/>
<polygon fill="#000000" stroke="#000000" points="1113.91,-211.88 1106.68,-219.63 1117.17,-218.08 1113.91,-211.88"/>
</g>
<!-- X::IO::Cwd -->
<g id="node16" class="node">
<title>X::IO::Cwd</title>
<g id="a_node16"><a xlink:href="/type/X::IO::Cwd" xlink:title="X::IO::Cwd">
<ellipse fill="none" stroke="#000000" cx="1542.69" cy="-18" rx="58.49" ry="18"/>
<text text-anchor="middle" x="1542.69" y="-14.3" font-family="FreeSans" font-size="14.00" fill="#000000">X::IO::Cwd</text>
</a>
</g>
</g>
<!-- X::IO::Cwd&#45;&gt;X::IO -->
<g id="edge48" class="edge">
<title>X::IO::Cwd&#45;&gt;X::IO</title>
<path fill="none" stroke="#6666ff" d="M1498.86,-29.96C1485.7,-33.25 1474.69,-36 1474.69,-36 1474.69,-36 1098.74,-72.36 969.62,-84.85"/>
<polygon fill="#6666ff" stroke="#6666ff" points="968.95,-81.4 959.33,-85.84 969.62,-88.36 968.95,-81.4"/>
</g>
<!-- X::IO::Cwd&#45;&gt;Exception -->
<g id="edge28" class="edge">
<title>X::IO::Cwd&#45;&gt;Exception</title>
<path fill="none" stroke="#000000" d="M1507.38,-32.45C1418.79,-71.14 1197.69,-180 1197.69,-180 1197.69,-180 1146.41,-199.01 1109.14,-214.25"/>
<polygon fill="#000000" stroke="#000000" points="1107.42,-211.18 1099.52,-218.24 1110.1,-217.64 1107.42,-211.18"/>
</g>
<!-- X::IO::Cwd&#45;&gt;Exception -->
<g id="edge29" class="edge">
<title>X::IO::Cwd&#45;&gt;Exception</title>
<path fill="none" stroke="#000000" d="M1513.1,-33.57C1432.6,-73.2 1215.69,-180 1215.69,-180 1215.69,-180 1159.16,-200.95 1117.19,-216.51"/>
<polygon fill="#000000" stroke="#000000" points="1115.84,-213.28 1107.68,-220.03 1118.27,-219.84 1115.84,-213.28"/>
</g>
<!-- X::IO::Cwd&#45;&gt;Exception -->
<g id="edge30" class="edge">
<title>X::IO::Cwd&#45;&gt;Exception</title>
<path fill="none" stroke="#000000" d="M1519.56,-34.58C1446.98,-74.99 1233.69,-180 1233.69,-180 1233.69,-180 1171.13,-203.19 1123.56,-218.89"/>
<polygon fill="#000000" stroke="#000000" points="1122.38,-215.59 1113.96,-222.02 1124.55,-222.25 1122.38,-215.59"/>
</g>
<!-- X::IO::DoesNotExist -->
<g id="node17" class="node">
<title>X::IO::DoesNotExist</title>
<g id="a_node17"><a xlink:href="/type/X::IO::DoesNotExist" xlink:title="X::IO::DoesNotExist">
<ellipse fill="none" stroke="#000000" cx="1717.69" cy="-18" rx="98.58" ry="18"/>
<text text-anchor="middle" x="1717.69" y="-14.3" font-family="FreeSans" font-size="14.00" fill="#000000">X::IO::DoesNotExist</text>
</a>
</g>
</g>
<!-- X::IO::DoesNotExist&#45;&gt;X::IO -->
<g id="edge49" class="edge">
<title>X::IO::DoesNotExist&#45;&gt;X::IO</title>
<path fill="none" stroke="#6666ff" d="M1645.66,-30.34C1625.85,-33.46 1609.69,-36 1609.69,-36 1609.69,-36 1119.86,-74.01 969.84,-85.65"/>
<polygon fill="#6666ff" stroke="#6666ff" points="969.34,-82.18 959.64,-86.44 969.88,-89.16 969.34,-82.18"/>
</g>
<!-- X::IO::DoesNotExist&#45;&gt;Exception -->
<g id="edge31" class="edge">
<title>X::IO::DoesNotExist&#45;&gt;Exception</title>
<path fill="none" stroke="#000000" d="M1669.3,-33.86C1552.2,-73.71 1265.69,-180 1265.69,-180 1265.69,-180 1177.45,-202.17 1119.96,-217.83"/>
<polygon fill="#000000" stroke="#000000" points="1118.68,-214.55 1109.96,-220.57 1120.53,-221.3 1118.68,-214.55"/>
</g>
<!-- X::IO::DoesNotExist&#45;&gt;Exception -->
<g id="edge32" class="edge">
<title>X::IO::DoesNotExist&#45;&gt;Exception</title>
<path fill="none" stroke="#000000" d="M1676.08,-34.44C1567.45,-74.73 1283.69,-180 1283.69,-180 1283.69,-180 1187.34,-204.2 1124.86,-219.9"/>
<polygon fill="#000000" stroke="#000000" points="1123.99,-216.51 1115.14,-222.34 1125.69,-223.3 1123.99,-216.51"/>
</g>
<!-- X::IO::DoesNotExist&#45;&gt;Exception -->
<g id="edge33" class="edge">
<title>X::IO::DoesNotExist&#45;&gt;Exception</title>
<path fill="none" stroke="#000000" d="M1683.12,-35.03C1582.72,-75.75 1301.69,-180 1301.69,-180 1301.69,-180 1196.94,-206.31 1128.75,-221.86"/>
<polygon fill="#000000" stroke="#000000" points="1127.96,-218.45 1118.98,-224.07 1129.5,-225.28 1127.96,-218.45"/>
</g>
<!-- X::IO::Unlink -->
<g id="node18" class="node">
<title>X::IO::Unlink</title>
<g id="a_node18"><a xlink:href="/type/X::IO::Unlink" xlink:title="X::IO::Unlink">
<ellipse fill="none" stroke="#000000" cx="1901.69" cy="-18" rx="67.69" ry="18"/>
<text text-anchor="middle" x="1901.69" y="-14.3" font-family="FreeSans" font-size="14.00" fill="#000000">X::IO::Unlink</text>
</a>
</g>
</g>
<!-- X::IO::Unlink&#45;&gt;X::IO -->
<g id="edge50" class="edge">
<title>X::IO::Unlink&#45;&gt;X::IO</title>
<path fill="none" stroke="#6666ff" d="M1851.42,-30.24C1837.29,-33.41 1825.69,-36 1825.69,-36 1825.69,-36 1148.42,-75.93 969.57,-86.47"/>
<polygon fill="#6666ff" stroke="#6666ff" points="969.27,-82.98 959.49,-87.07 969.68,-89.97 969.27,-82.98"/>
</g>
<!-- X::IO::Unlink&#45;&gt;Exception -->
<g id="edge34" class="edge">
<title>X::IO::Unlink&#45;&gt;Exception</title>
<path fill="none" stroke="#000000" d="M1853.95,-30.97C1718.4,-68.28 1343.69,-180 1343.69,-180 1343.69,-180 1205.65,-205.32 1126.31,-220.96"/>
<polygon fill="#000000" stroke="#000000" points="1125.6,-217.53 1116.47,-222.91 1126.96,-224.4 1125.6,-217.53"/>
</g>
<!-- X::IO::Unlink&#45;&gt;Exception -->
<g id="edge35" class="edge">
<title>X::IO::Unlink&#45;&gt;Exception</title>
<path fill="none" stroke="#000000" d="M1858.42,-31.9C1730.28,-70.11 1361.69,-180 1361.69,-180 1361.69,-180 1213.92,-207.1 1129.71,-222.54"/>
<polygon fill="#000000" stroke="#000000" points="1128.97,-219.12 1119.77,-224.37 1130.24,-226.01 1128.97,-219.12"/>
</g>
<!-- X::IO::Unlink&#45;&gt;Exception -->
<g id="edge36" class="edge">
<title>X::IO::Unlink&#45;&gt;Exception</title>
<path fill="none" stroke="#000000" d="M1863.29,-32.87C1742.2,-71.92 1379.69,-180 1379.69,-180 1379.69,-180 1221.83,-208.95 1132.18,-224.06"/>
<polygon fill="#000000" stroke="#000000" points="1131.42,-220.64 1122.13,-225.74 1132.57,-227.54 1131.42,-220.64"/>
</g>
</g>
</svg>
