<?xml version="1.0" encoding="UTF-8" standalone="no"?>
<!DOCTYPE svg PUBLIC "-//W3C//DTD SVG 1.1//EN"
 "http://www.w3.org/Graphics/SVG/1.1/DTD/svg11.dtd">
<!-- Generated by graphviz version 2.42.3 (0)
 -->
<!-- Title: perl6&#45;type&#45;graph Pages: 1 -->
<svg width="355pt" height="404pt"
 viewBox="0.00 0.00 355.07 404.00" xmlns="http://www.w3.org/2000/svg" xmlns:xlink="http://www.w3.org/1999/xlink">
<g id="graph0" class="graph" transform="scale(1 1) rotate(0) translate(4 400)">
<title>perl6&#45;type&#45;graph</title>
<polygon fill="white" stroke="transparent" points="-4,4 -4,-400 351.07,-400 351.07,4 -4,4"/>
<!-- X::Syntax::Regex::SolitaryQuantifier -->
<g id="node1" class="node">
<title>X::Syntax::Regex::SolitaryQuantifier</title>
<g id="a_node1"><a xlink:href="/type/X::Syntax::Regex::SolitaryQuantifier" xlink:title="X::Syntax::Regex::SolitaryQuantifier">
<ellipse fill="none" stroke="#000000" cx="173.53" cy="-18" rx="173.57" ry="18"/>
<text text-anchor="middle" x="173.53" y="-14.3" font-family="FreeSans" font-size="14.00" fill="#000000">X::Syntax::Regex::SolitaryQuantifier</text>
</a>
</g>
</g>
<!-- Exception -->
<g id="node4" class="node">
<title>Exception</title>
<g id="a_node4"><a xlink:href="/type/Exception" xlink:title="Exception">
<ellipse fill="none" stroke="#000000" cx="196.53" cy="-234" rx="55.49" ry="18"/>
<text text-anchor="middle" x="196.53" y="-230.3" font-family="FreeSans" font-size="14.00" fill="#000000">Exception</text>
</a>
</g>
</g>
<!-- X::Syntax::Regex::SolitaryQuantifier&#45;&gt;Exception -->
<g id="edge1" class="edge">
<title>X::Syntax::Regex::SolitaryQuantifier&#45;&gt;Exception</title>
<path fill="none" stroke="#000000" d="M171.5,-36.15C171.95,-73.34 181.18,-161.63 189.01,-206.23"/>
<polygon fill="#000000" stroke="#000000" points="185.57,-206.88 190.86,-216.06 192.45,-205.59 185.57,-206.88"/>
</g>
<!-- X::Syntax::Regex::SolitaryQuantifier&#45;&gt;Exception -->
<g id="edge2" class="edge">
<title>X::Syntax::Regex::SolitaryQuantifier&#45;&gt;Exception</title>
<path fill="none" stroke="#000000" d="M179.26,-36.15C186.77,-73.17 196.46,-160.82 198.28,-205.61"/>
<polygon fill="#000000" stroke="#000000" points="194.79,-205.87 198.57,-215.77 201.79,-205.67 194.79,-205.87"/>
</g>
<!-- X::Syntax -->
<g id="node6" class="node">
<title>X::Syntax</title>
<g id="a_node6"><a xlink:href="/type/X::Syntax" xlink:title="X::Syntax">
<ellipse fill="none" stroke="#6666ff" cx="264.53" cy="-90" rx="53.89" ry="18"/>
<text text-anchor="middle" x="264.53" y="-86.3" font-family="FreeSans" font-size="14.00" fill="#6666ff">X::Syntax</text>
</a>
</g>
</g>
<!-- X::Syntax::Regex::SolitaryQuantifier&#45;&gt;X::Syntax -->
<g id="edge7" class="edge">
<title>X::Syntax::Regex::SolitaryQuantifier&#45;&gt;X::Syntax</title>
<path fill="none" stroke="#6666ff" d="M195.56,-35.95C207.64,-45.24 222.77,-56.87 235.77,-66.87"/>
<polygon fill="#6666ff" stroke="#6666ff" points="233.9,-69.85 243.96,-73.17 238.16,-64.3 233.9,-69.85"/>
</g>
<!-- Mu -->
<g id="node2" class="node">
<title>Mu</title>
<g id="a_node2"><a xlink:href="/type/Mu" xlink:title="Mu">
<ellipse fill="none" stroke="#000000" cx="196.53" cy="-378" rx="27" ry="18"/>
<text text-anchor="middle" x="196.53" y="-374.3" font-family="FreeSans" font-size="14.00" fill="#000000">Mu</text>
</a>
</g>
</g>
<!-- Any -->
<g id="node3" class="node">
<title>Any</title>
<g id="a_node3"><a xlink:href="/type/Any" xlink:title="Any">
<ellipse fill="none" stroke="#000000" cx="196.53" cy="-306" rx="28.7" ry="18"/>
<text text-anchor="middle" x="196.53" y="-302.3" font-family="FreeSans" font-size="14.00" fill="#000000">Any</text>
</a>
</g>
</g>
<!-- Any&#45;&gt;Mu -->
<g id="edge3" class="edge">
<title>Any&#45;&gt;Mu</title>
<path fill="none" stroke="#000000" d="M196.53,-324.3C196.53,-332.02 196.53,-341.29 196.53,-349.89"/>
<polygon fill="#000000" stroke="#000000" points="193.03,-349.9 196.53,-359.9 200.03,-349.9 193.03,-349.9"/>
</g>
<!-- Exception&#45;&gt;Any -->
<g id="edge4" class="edge">
<title>Exception&#45;&gt;Any</title>
<path fill="none" stroke="#000000" d="M196.53,-252.3C196.53,-260.02 196.53,-269.29 196.53,-277.89"/>
<polygon fill="#000000" stroke="#000000" points="193.03,-277.9 196.53,-287.9 200.03,-277.9 193.03,-277.9"/>
</g>
<!-- X::Comp -->
<g id="node5" class="node">
<title>X::Comp</title>
<g id="a_node5"><a xlink:href="/type/X::Comp" xlink:title="X::Comp">
<ellipse fill="none" stroke="#6666ff" cx="297.53" cy="-162" rx="49.29" ry="18"/>
<text text-anchor="middle" x="297.53" y="-158.3" font-family="FreeSans" font-size="14.00" fill="#6666ff">X::Comp</text>
</a>
</g>
</g>
<!-- X::Comp&#45;&gt;Exception -->
<g id="edge5" class="edge">
<title>X::Comp&#45;&gt;Exception</title>
<path fill="none" stroke="#000000" d="M275.62,-178.19C261.52,-187.96 242.99,-200.8 227.41,-211.6"/>
<polygon fill="#000000" stroke="#000000" points="225.33,-208.78 219.11,-217.36 229.32,-214.54 225.33,-208.78"/>
</g>
<!-- X::Syntax&#45;&gt;Exception -->
<g id="edge6" class="edge">
<title>X::Syntax&#45;&gt;Exception</title>
<path fill="none" stroke="#000000" d="M256.47,-107.85C244.71,-132.4 222.76,-178.23 208.94,-207.09"/>
<polygon fill="#000000" stroke="#000000" points="205.75,-205.64 204.59,-216.18 212.07,-208.67 205.75,-205.64"/>
</g>
<!-- X::Syntax&#45;&gt;X::Comp -->
<g id="edge8" class="edge">
<title>X::Syntax&#45;&gt;X::Comp</title>
<path fill="none" stroke="#6666ff" d="M272.52,-107.95C276.33,-116.03 280.98,-125.88 285.22,-134.89"/>
<polygon fill="#6666ff" stroke="#6666ff" points="282.19,-136.66 289.62,-144.21 288.52,-133.67 282.19,-136.66"/>
</g>
</g>
</svg>
