<?xml version="1.0" encoding="UTF-8" standalone="no"?>
<!DOCTYPE svg PUBLIC "-//W3C//DTD SVG 1.1//EN"
 "http://www.w3.org/Graphics/SVG/1.1/DTD/svg11.dtd">
<!-- Generated by graphviz version 2.42.3 (0)
 -->
<!-- Title: perl6&#45;type&#45;graph Pages: 1 -->
<svg width="814pt" height="332pt"
 viewBox="0.00 0.00 813.74 332.00" xmlns="http://www.w3.org/2000/svg" xmlns:xlink="http://www.w3.org/1999/xlink">
<g id="graph0" class="graph" transform="scale(1 1) rotate(0) translate(4 328)">
<title>perl6&#45;type&#45;graph</title>
<polygon fill="white" stroke="transparent" points="-4,4 -4,-328 809.74,-328 809.74,4 -4,4"/>
<!-- Int -->
<g id="node1" class="node">
<title>Int</title>
<g id="a_node1"><a xlink:href="/type/Int" xlink:title="Int">
<ellipse fill="none" stroke="#000000" cx="445.35" cy="-90" rx="27" ry="18"/>
<text text-anchor="middle" x="445.35" y="-86.3" font-family="FreeSans" font-size="14.00" fill="#000000">Int</text>
</a>
</g>
</g>
<!-- Cool -->
<g id="node4" class="node">
<title>Cool</title>
<g id="a_node4"><a xlink:href="/type/Cool" xlink:title="Cool">
<ellipse fill="none" stroke="#000000" cx="608.35" cy="-162" rx="30.59" ry="18"/>
<text text-anchor="middle" x="608.35" y="-158.3" font-family="FreeSans" font-size="14.00" fill="#000000">Cool</text>
</a>
</g>
</g>
<!-- Int&#45;&gt;Cool -->
<g id="edge1" class="edge">
<title>Int&#45;&gt;Cool</title>
<path fill="none" stroke="#000000" d="M467.67,-100.59C495.4,-112.5 542.98,-132.93 575.03,-146.69"/>
<polygon fill="#000000" stroke="#000000" points="573.87,-150 584.44,-150.73 576.64,-143.57 573.87,-150"/>
</g>
<!-- Real -->
<g id="node6" class="node">
<title>Real</title>
<g id="a_node6"><a xlink:href="/type/Real" xlink:title="Real">
<ellipse fill="none" stroke="#6666ff" cx="445.35" cy="-162" rx="30.59" ry="18"/>
<text text-anchor="middle" x="445.35" y="-158.3" font-family="FreeSans" font-size="14.00" fill="#6666ff">Real</text>
</a>
</g>
</g>
<!-- Int&#45;&gt;Real -->
<g id="edge14" class="edge">
<title>Int&#45;&gt;Real</title>
<path fill="none" stroke="#6666ff" d="M445.35,-108.3C445.35,-116.02 445.35,-125.29 445.35,-133.89"/>
<polygon fill="#6666ff" stroke="#6666ff" points="441.85,-133.9 445.35,-143.9 448.85,-133.9 441.85,-133.9"/>
</g>
<!-- Mu -->
<g id="node2" class="node">
<title>Mu</title>
<g id="a_node2"><a xlink:href="/type/Mu" xlink:title="Mu">
<ellipse fill="none" stroke="#000000" cx="608.35" cy="-306" rx="27" ry="18"/>
<text text-anchor="middle" x="608.35" y="-302.3" font-family="FreeSans" font-size="14.00" fill="#000000">Mu</text>
</a>
</g>
</g>
<!-- Any -->
<g id="node3" class="node">
<title>Any</title>
<g id="a_node3"><a xlink:href="/type/Any" xlink:title="Any">
<ellipse fill="none" stroke="#000000" cx="608.35" cy="-234" rx="28.7" ry="18"/>
<text text-anchor="middle" x="608.35" y="-230.3" font-family="FreeSans" font-size="14.00" fill="#000000">Any</text>
</a>
</g>
</g>
<!-- Any&#45;&gt;Mu -->
<g id="edge2" class="edge">
<title>Any&#45;&gt;Mu</title>
<path fill="none" stroke="#000000" d="M608.35,-252.3C608.35,-260.02 608.35,-269.29 608.35,-277.89"/>
<polygon fill="#000000" stroke="#000000" points="604.85,-277.9 608.35,-287.9 611.85,-277.9 604.85,-277.9"/>
</g>
<!-- Cool&#45;&gt;Any -->
<g id="edge3" class="edge">
<title>Cool&#45;&gt;Any</title>
<path fill="none" stroke="#000000" d="M608.35,-180.3C608.35,-188.02 608.35,-197.29 608.35,-205.89"/>
<polygon fill="#000000" stroke="#000000" points="604.85,-205.9 608.35,-215.9 611.85,-205.9 604.85,-205.9"/>
</g>
<!-- Numeric -->
<g id="node5" class="node">
<title>Numeric</title>
<g id="a_node5"><a xlink:href="/type/Numeric" xlink:title="Numeric">
<ellipse fill="none" stroke="#6666ff" cx="445.35" cy="-234" rx="48.99" ry="18"/>
<text text-anchor="middle" x="445.35" y="-230.3" font-family="FreeSans" font-size="14.00" fill="#6666ff">Numeric</text>
</a>
</g>
</g>
<!-- Real&#45;&gt;Numeric -->
<g id="edge15" class="edge">
<title>Real&#45;&gt;Numeric</title>
<path fill="none" stroke="#6666ff" d="M445.35,-180.3C445.35,-188.02 445.35,-197.29 445.35,-205.89"/>
<polygon fill="#6666ff" stroke="#6666ff" points="441.85,-205.9 445.35,-215.9 448.85,-205.9 441.85,-205.9"/>
</g>
<!-- Signal -->
<g id="node7" class="node">
<title>Signal</title>
<g id="a_node7"><a xlink:href="/type/Signal" xlink:title="Signal">
<ellipse fill="none" stroke="#33bb33" cx="38.35" cy="-18" rx="38.19" ry="18"/>
<text text-anchor="middle" x="38.35" y="-14.3" font-family="FreeSans" font-size="14.00" fill="#33bb33">Signal</text>
</a>
</g>
</g>
<!-- Signal&#45;&gt;Int -->
<g id="edge4" class="edge">
<title>Signal&#45;&gt;Int</title>
<path fill="none" stroke="#000000" d="M67.85,-29.67C77.29,-33.09 85.35,-36 85.35,-36 85.35,-36 318.04,-70.26 409.27,-83.69"/>
<polygon fill="#000000" stroke="#000000" points="408.76,-87.15 419.17,-85.15 409.78,-80.23 408.76,-87.15"/>
</g>
<!-- atomicint -->
<g id="node8" class="node">
<title>atomicint</title>
<g id="a_node8"><a xlink:href="/type/atomicint" xlink:title="atomicint">
<ellipse fill="none" stroke="#000000" cx="147.35" cy="-18" rx="52.79" ry="18"/>
<text text-anchor="middle" x="147.35" y="-14.3" font-family="FreeSans" font-size="14.00" fill="#000000">atomicint</text>
</a>
</g>
</g>
<!-- atomicint&#45;&gt;Int -->
<g id="edge5" class="edge">
<title>atomicint&#45;&gt;Int</title>
<path fill="none" stroke="#000000" d="M186.96,-29.86C199.11,-33.19 209.35,-36 209.35,-36 209.35,-36 344.37,-66.32 410.16,-81.1"/>
<polygon fill="#000000" stroke="#000000" points="409.57,-84.55 420.09,-83.33 411.1,-77.72 409.57,-84.55"/>
</g>
<!-- int -->
<g id="node9" class="node">
<title>int</title>
<g id="a_node9"><a xlink:href="/type/int" xlink:title="int">
<ellipse fill="none" stroke="#000000" cx="245.35" cy="-18" rx="27" ry="18"/>
<text text-anchor="middle" x="245.35" y="-14.3" font-family="FreeSans" font-size="14.00" fill="#000000">int</text>
</a>
</g>
</g>
<!-- int&#45;&gt;Int -->
<g id="edge6" class="edge">
<title>int&#45;&gt;Int</title>
<path fill="none" stroke="#000000" d="M266.7,-29.09C274.46,-32.75 281.35,-36 281.35,-36 281.35,-36 363.86,-62.67 411.83,-78.17"/>
<polygon fill="#000000" stroke="#000000" points="410.91,-81.55 421.5,-81.29 413.06,-74.89 410.91,-81.55"/>
</g>
<!-- Bool -->
<g id="node10" class="node">
<title>Bool</title>
<g id="a_node10"><a xlink:href="/type/Bool" xlink:title="Bool">
<ellipse fill="none" stroke="#33bb33" cx="321.35" cy="-18" rx="30.59" ry="18"/>
<text text-anchor="middle" x="321.35" y="-14.3" font-family="FreeSans" font-size="14.00" fill="#33bb33">Bool</text>
</a>
</g>
</g>
<!-- Bool&#45;&gt;Int -->
<g id="edge7" class="edge">
<title>Bool&#45;&gt;Int</title>
<path fill="none" stroke="#000000" d="M342.66,-31.03C362.99,-42.51 393.76,-59.88 416.32,-72.62"/>
<polygon fill="#000000" stroke="#000000" points="414.7,-75.72 425.13,-77.59 418.14,-69.62 414.7,-75.72"/>
</g>
<!-- Stringy -->
<g id="node11" class="node">
<title>Stringy</title>
<g id="a_node11"><a xlink:href="/type/Stringy" xlink:title="Stringy">
<ellipse fill="none" stroke="#6666ff" cx="734.35" cy="-162" rx="43.59" ry="18"/>
<text text-anchor="middle" x="734.35" y="-158.3" font-family="FreeSans" font-size="14.00" fill="#6666ff">Stringy</text>
</a>
</g>
</g>
<!-- Str -->
<g id="node12" class="node">
<title>Str</title>
<g id="a_node12"><a xlink:href="/type/Str" xlink:title="Str">
<ellipse fill="none" stroke="#000000" cx="734.35" cy="-90" rx="27" ry="18"/>
<text text-anchor="middle" x="734.35" y="-86.3" font-family="FreeSans" font-size="14.00" fill="#000000">Str</text>
</a>
</g>
</g>
<!-- Str&#45;&gt;Cool -->
<g id="edge8" class="edge">
<title>Str&#45;&gt;Cool</title>
<path fill="none" stroke="#000000" d="M714.1,-102.25C693.71,-113.57 662.01,-131.19 638.63,-144.18"/>
<polygon fill="#000000" stroke="#000000" points="636.85,-141.16 629.81,-149.08 640.25,-147.28 636.85,-141.16"/>
</g>
<!-- Str&#45;&gt;Stringy -->
<g id="edge16" class="edge">
<title>Str&#45;&gt;Stringy</title>
<path fill="none" stroke="#6666ff" d="M734.35,-108.3C734.35,-116.02 734.35,-125.29 734.35,-133.89"/>
<polygon fill="#6666ff" stroke="#6666ff" points="730.85,-133.9 734.35,-143.9 737.85,-133.9 730.85,-133.9"/>
</g>
<!-- IntStr -->
<g id="node13" class="node">
<title>IntStr</title>
<g id="a_node13"><a xlink:href="/type/IntStr" xlink:title="IntStr">
<ellipse fill="none" stroke="#000000" cx="769.35" cy="-18" rx="36.29" ry="18"/>
<text text-anchor="middle" x="769.35" y="-14.3" font-family="FreeSans" font-size="14.00" fill="#000000">IntStr</text>
</a>
</g>
</g>
<!-- IntStr&#45;&gt;Int -->
<g id="edge9" class="edge">
<title>IntStr&#45;&gt;Int</title>
<path fill="none" stroke="#000000" d="M741.36,-29.57C732.21,-33.03 724.35,-36 724.35,-36 724.35,-36 556.34,-67.92 481.07,-82.21"/>
<polygon fill="#000000" stroke="#000000" points="480.27,-78.8 471.09,-84.11 481.57,-85.68 480.27,-78.8"/>
</g>
<!-- IntStr&#45;&gt;Str -->
<g id="edge10" class="edge">
<title>IntStr&#45;&gt;Str</title>
<path fill="none" stroke="#000000" d="M761.05,-35.59C756.91,-43.87 751.81,-54.08 747.18,-63.34"/>
<polygon fill="#000000" stroke="#000000" points="743.92,-62.02 742.58,-72.53 750.18,-65.15 743.92,-62.02"/>
</g>
<!-- PromiseStatus -->
<g id="node14" class="node">
<title>PromiseStatus</title>
<g id="a_node14"><a xlink:href="/type/PromiseStatus" xlink:title="PromiseStatus">
<ellipse fill="none" stroke="#33bb33" cx="445.35" cy="-18" rx="75.29" ry="18"/>
<text text-anchor="middle" x="445.35" y="-14.3" font-family="FreeSans" font-size="14.00" fill="#33bb33">PromiseStatus</text>
</a>
</g>
</g>
<!-- PromiseStatus&#45;&gt;Int -->
<g id="edge11" class="edge">
<title>PromiseStatus&#45;&gt;Int</title>
<path fill="none" stroke="#000000" d="M445.35,-36.3C445.35,-44.02 445.35,-53.29 445.35,-61.89"/>
<polygon fill="#000000" stroke="#000000" points="441.85,-61.9 445.35,-71.9 448.85,-61.9 441.85,-61.9"/>
</g>
<!-- Endian -->
<g id="node15" class="node">
<title>Endian</title>
<g id="a_node15"><a xlink:href="/type/Endian" xlink:title="Endian">
<ellipse fill="none" stroke="#33bb33" cx="581.35" cy="-18" rx="42.49" ry="18"/>
<text text-anchor="middle" x="581.35" y="-14.3" font-family="FreeSans" font-size="14.00" fill="#33bb33">Endian</text>
</a>
</g>
</g>
<!-- Endian&#45;&gt;Int -->
<g id="edge12" class="edge">
<title>Endian&#45;&gt;Int</title>
<path fill="none" stroke="#000000" d="M555.45,-32.33C532.59,-44.1 499.26,-61.25 475.27,-73.6"/>
<polygon fill="#000000" stroke="#000000" points="473.54,-70.55 466.25,-78.24 476.75,-76.78 473.54,-70.55"/>
</g>
<!-- Order -->
<g id="node16" class="node">
<title>Order</title>
<g id="a_node16"><a xlink:href="/type/Order" xlink:title="Order">
<ellipse fill="none" stroke="#33bb33" cx="678.35" cy="-18" rx="37.09" ry="18"/>
<text text-anchor="middle" x="678.35" y="-14.3" font-family="FreeSans" font-size="14.00" fill="#33bb33">Order</text>
</a>
</g>
</g>
<!-- Order&#45;&gt;Int -->
<g id="edge13" class="edge">
<title>Order&#45;&gt;Int</title>
<path fill="none" stroke="#000000" d="M649.74,-29.57C640.38,-33.03 632.35,-36 632.35,-36 632.35,-36 533.62,-63.98 479.64,-79.28"/>
<polygon fill="#000000" stroke="#000000" points="478.46,-75.98 469.79,-82.07 480.37,-82.71 478.46,-75.98"/>
</g>
</g>
</svg>
