<?xml version="1.0" encoding="UTF-8" standalone="no"?>
<!DOCTYPE svg PUBLIC "-//W3C//DTD SVG 1.1//EN"
 "http://www.w3.org/Graphics/SVG/1.1/DTD/svg11.dtd">
<!-- Generated by graphviz version 2.42.3 (0)
 -->
<!-- Title: perl6&#45;type&#45;graph Pages: 1 -->
<svg width="241pt" height="404pt"
 viewBox="0.00 0.00 241.24 404.00" xmlns="http://www.w3.org/2000/svg" xmlns:xlink="http://www.w3.org/1999/xlink">
<g id="graph0" class="graph" transform="scale(1 1) rotate(0) translate(4 400)">
<title>perl6&#45;type&#45;graph</title>
<polygon fill="white" stroke="transparent" points="-4,4 -4,-400 237.24,-400 237.24,4 -4,4"/>
<!-- X::Syntax::Name::Null -->
<g id="node1" class="node">
<title>X::Syntax::Name::Null</title>
<g id="a_node1"><a xlink:href="/type/X::Syntax::Name::Null" xlink:title="X::Syntax::Name::Null">
<ellipse fill="none" stroke="#000000" cx="109.84" cy="-18" rx="109.68" ry="18"/>
<text text-anchor="middle" x="109.84" y="-14.3" font-family="FreeSans" font-size="14.00" fill="#000000">X::Syntax::Name::Null</text>
</a>
</g>
</g>
<!-- Exception -->
<g id="node4" class="node">
<title>Exception</title>
<g id="a_node4"><a xlink:href="/type/Exception" xlink:title="Exception">
<ellipse fill="none" stroke="#000000" cx="106.84" cy="-234" rx="55.49" ry="18"/>
<text text-anchor="middle" x="106.84" y="-230.3" font-family="FreeSans" font-size="14.00" fill="#000000">Exception</text>
</a>
</g>
</g>
<!-- X::Syntax::Name::Null&#45;&gt;Exception -->
<g id="edge1" class="edge">
<title>X::Syntax::Name::Null&#45;&gt;Exception</title>
<path fill="none" stroke="#000000" d="M102.76,-36.06C96.33,-51.55 87.84,-72 87.84,-72 87.84,-72 87.84,-108 87.84,-108 87.84,-108 97.11,-169.01 102.7,-205.78"/>
<polygon fill="#000000" stroke="#000000" points="99.28,-206.52 104.24,-215.88 106.2,-205.47 99.28,-206.52"/>
</g>
<!-- X::Syntax -->
<g id="node6" class="node">
<title>X::Syntax</title>
<g id="a_node6"><a xlink:href="/type/X::Syntax" xlink:title="X::Syntax">
<ellipse fill="none" stroke="#6666ff" cx="150.84" cy="-90" rx="53.89" ry="18"/>
<text text-anchor="middle" x="150.84" y="-86.3" font-family="FreeSans" font-size="14.00" fill="#6666ff">X::Syntax</text>
</a>
</g>
</g>
<!-- X::Syntax::Name::Null&#45;&gt;X::Syntax -->
<g id="edge6" class="edge">
<title>X::Syntax::Name::Null&#45;&gt;X::Syntax</title>
<path fill="none" stroke="#6666ff" d="M119.77,-35.95C124.6,-44.2 130.52,-54.3 135.88,-63.46"/>
<polygon fill="#6666ff" stroke="#6666ff" points="132.93,-65.35 141.01,-72.21 138.97,-61.81 132.93,-65.35"/>
</g>
<!-- Mu -->
<g id="node2" class="node">
<title>Mu</title>
<g id="a_node2"><a xlink:href="/type/Mu" xlink:title="Mu">
<ellipse fill="none" stroke="#000000" cx="106.84" cy="-378" rx="27" ry="18"/>
<text text-anchor="middle" x="106.84" y="-374.3" font-family="FreeSans" font-size="14.00" fill="#000000">Mu</text>
</a>
</g>
</g>
<!-- Any -->
<g id="node3" class="node">
<title>Any</title>
<g id="a_node3"><a xlink:href="/type/Any" xlink:title="Any">
<ellipse fill="none" stroke="#000000" cx="106.84" cy="-306" rx="28.7" ry="18"/>
<text text-anchor="middle" x="106.84" y="-302.3" font-family="FreeSans" font-size="14.00" fill="#000000">Any</text>
</a>
</g>
</g>
<!-- Any&#45;&gt;Mu -->
<g id="edge2" class="edge">
<title>Any&#45;&gt;Mu</title>
<path fill="none" stroke="#000000" d="M106.84,-324.3C106.84,-332.02 106.84,-341.29 106.84,-349.89"/>
<polygon fill="#000000" stroke="#000000" points="103.34,-349.9 106.84,-359.9 110.34,-349.9 103.34,-349.9"/>
</g>
<!-- Exception&#45;&gt;Any -->
<g id="edge3" class="edge">
<title>Exception&#45;&gt;Any</title>
<path fill="none" stroke="#000000" d="M106.84,-252.3C106.84,-260.02 106.84,-269.29 106.84,-277.89"/>
<polygon fill="#000000" stroke="#000000" points="103.34,-277.9 106.84,-287.9 110.34,-277.9 103.34,-277.9"/>
</g>
<!-- X::Comp -->
<g id="node5" class="node">
<title>X::Comp</title>
<g id="a_node5"><a xlink:href="/type/X::Comp" xlink:title="X::Comp">
<ellipse fill="none" stroke="#6666ff" cx="183.84" cy="-162" rx="49.29" ry="18"/>
<text text-anchor="middle" x="183.84" y="-158.3" font-family="FreeSans" font-size="14.00" fill="#6666ff">X::Comp</text>
</a>
</g>
</g>
<!-- X::Comp&#45;&gt;Exception -->
<g id="edge4" class="edge">
<title>X::Comp&#45;&gt;Exception</title>
<path fill="none" stroke="#000000" d="M166.37,-178.88C156.2,-188.13 143.21,-199.93 131.96,-210.16"/>
<polygon fill="#000000" stroke="#000000" points="129.56,-207.62 124.51,-216.94 134.26,-212.8 129.56,-207.62"/>
</g>
<!-- X::Syntax&#45;&gt;Exception -->
<g id="edge5" class="edge">
<title>X::Syntax&#45;&gt;Exception</title>
<path fill="none" stroke="#000000" d="M142.79,-108.06C135.48,-123.55 125.84,-144 125.84,-144 125.84,-144 118.19,-179.83 112.6,-206.03"/>
<polygon fill="#000000" stroke="#000000" points="109.17,-205.33 110.5,-215.84 116.01,-206.79 109.17,-205.33"/>
</g>
<!-- X::Syntax&#45;&gt;X::Comp -->
<g id="edge7" class="edge">
<title>X::Syntax&#45;&gt;X::Comp</title>
<path fill="none" stroke="#6666ff" d="M158.83,-107.95C162.64,-116.03 167.28,-125.88 171.53,-134.89"/>
<polygon fill="#6666ff" stroke="#6666ff" points="168.5,-136.66 175.93,-144.21 174.83,-133.67 168.5,-136.66"/>
</g>
</g>
</svg>
