<?xml version="1.0" encoding="UTF-8" standalone="no"?>
<!DOCTYPE svg PUBLIC "-//W3C//DTD SVG 1.1//EN"
 "http://www.w3.org/Graphics/SVG/1.1/DTD/svg11.dtd">
<!-- Generated by graphviz version 2.42.3 (0)
 -->
<!-- Title: perl6&#45;type&#45;graph Pages: 1 -->
<svg width="266pt" height="332pt"
 viewBox="0.00 0.00 265.59 332.00" xmlns="http://www.w3.org/2000/svg" xmlns:xlink="http://www.w3.org/1999/xlink">
<g id="graph0" class="graph" transform="scale(1 1) rotate(0) translate(4 328)">
<title>perl6&#45;type&#45;graph</title>
<polygon fill="white" stroke="transparent" points="-4,4 -4,-328 261.59,-328 261.59,4 -4,4"/>
<!-- IO::Handle -->
<g id="node1" class="node">
<title>IO::Handle</title>
<g id="a_node1"><a xlink:href="/type/IO::Handle" xlink:title="IO::Handle">
<ellipse fill="none" stroke="#000000" cx="115.15" cy="-162" rx="58.49" ry="18"/>
<text text-anchor="middle" x="115.15" y="-158.3" font-family="FreeSans" font-size="14.00" fill="#000000">IO::Handle</text>
</a>
</g>
</g>
<!-- Any -->
<g id="node3" class="node">
<title>Any</title>
<g id="a_node3"><a xlink:href="/type/Any" xlink:title="Any">
<ellipse fill="none" stroke="#000000" cx="115.15" cy="-234" rx="28.7" ry="18"/>
<text text-anchor="middle" x="115.15" y="-230.3" font-family="FreeSans" font-size="14.00" fill="#000000">Any</text>
</a>
</g>
</g>
<!-- IO::Handle&#45;&gt;Any -->
<g id="edge1" class="edge">
<title>IO::Handle&#45;&gt;Any</title>
<path fill="none" stroke="#000000" d="M115.15,-180.3C115.15,-188.02 115.15,-197.29 115.15,-205.89"/>
<polygon fill="#000000" stroke="#000000" points="111.65,-205.9 115.15,-215.9 118.65,-205.9 111.65,-205.9"/>
</g>
<!-- Mu -->
<g id="node2" class="node">
<title>Mu</title>
<g id="a_node2"><a xlink:href="/type/Mu" xlink:title="Mu">
<ellipse fill="none" stroke="#000000" cx="115.15" cy="-306" rx="27" ry="18"/>
<text text-anchor="middle" x="115.15" y="-302.3" font-family="FreeSans" font-size="14.00" fill="#000000">Mu</text>
</a>
</g>
</g>
<!-- Any&#45;&gt;Mu -->
<g id="edge2" class="edge">
<title>Any&#45;&gt;Mu</title>
<path fill="none" stroke="#000000" d="M115.15,-252.3C115.15,-260.02 115.15,-269.29 115.15,-277.89"/>
<polygon fill="#000000" stroke="#000000" points="111.65,-277.9 115.15,-287.9 118.65,-277.9 111.65,-277.9"/>
</g>
<!-- IO::Pipe -->
<g id="node4" class="node">
<title>IO::Pipe</title>
<g id="a_node4"><a xlink:href="/type/IO::Pipe" xlink:title="IO::Pipe">
<ellipse fill="none" stroke="#000000" cx="46.15" cy="-90" rx="46.29" ry="18"/>
<text text-anchor="middle" x="46.15" y="-86.3" font-family="FreeSans" font-size="14.00" fill="#000000">IO::Pipe</text>
</a>
</g>
</g>
<!-- IO::Pipe&#45;&gt;IO::Handle -->
<g id="edge3" class="edge">
<title>IO::Pipe&#45;&gt;IO::Handle</title>
<path fill="none" stroke="#000000" d="M62.15,-107.24C70.91,-116.12 81.92,-127.29 91.63,-137.15"/>
<polygon fill="#000000" stroke="#000000" points="89.24,-139.7 98.75,-144.37 94.22,-134.79 89.24,-139.7"/>
</g>
<!-- IO::CatHandle -->
<g id="node5" class="node">
<title>IO::CatHandle</title>
<g id="a_node5"><a xlink:href="/type/IO::CatHandle" xlink:title="IO::CatHandle">
<ellipse fill="none" stroke="#000000" cx="184.15" cy="-90" rx="73.39" ry="18"/>
<text text-anchor="middle" x="184.15" y="-86.3" font-family="FreeSans" font-size="14.00" fill="#000000">IO::CatHandle</text>
</a>
</g>
</g>
<!-- IO::CatHandle&#45;&gt;IO::Handle -->
<g id="edge4" class="edge">
<title>IO::CatHandle&#45;&gt;IO::Handle</title>
<path fill="none" stroke="#000000" d="M167.79,-107.59C159.03,-116.48 148.08,-127.59 138.44,-137.37"/>
<polygon fill="#000000" stroke="#000000" points="135.91,-134.95 131.38,-144.53 140.89,-139.87 135.91,-134.95"/>
</g>
<!-- IO::ArgFiles -->
<g id="node6" class="node">
<title>IO::ArgFiles</title>
<g id="a_node6"><a xlink:href="/type/IO::ArgFiles" xlink:title="IO::ArgFiles">
<ellipse fill="none" stroke="#000000" cx="184.15" cy="-18" rx="63.09" ry="18"/>
<text text-anchor="middle" x="184.15" y="-14.3" font-family="FreeSans" font-size="14.00" fill="#000000">IO::ArgFiles</text>
</a>
</g>
</g>
<!-- IO::ArgFiles&#45;&gt;IO::CatHandle -->
<g id="edge5" class="edge">
<title>IO::ArgFiles&#45;&gt;IO::CatHandle</title>
<path fill="none" stroke="#000000" d="M184.15,-36.3C184.15,-44.02 184.15,-53.29 184.15,-61.89"/>
<polygon fill="#000000" stroke="#000000" points="180.65,-61.9 184.15,-71.9 187.65,-61.9 180.65,-61.9"/>
</g>
</g>
</svg>
