<?xml version="1.0" encoding="UTF-8" standalone="no"?>
<!DOCTYPE svg PUBLIC "-//W3C//DTD SVG 1.1//EN"
 "http://www.w3.org/Graphics/SVG/1.1/DTD/svg11.dtd">
<!-- Generated by graphviz version 2.42.3 (0)
 -->
<!-- Title: perl6&#45;type&#45;graph Pages: 1 -->
<svg width="1658pt" height="1662pt"
 viewBox="0.00 0.00 1657.70 1662.00" xmlns="http://www.w3.org/2000/svg" xmlns:xlink="http://www.w3.org/1999/xlink">
<g id="graph0" class="graph" transform="scale(1 1) rotate(0) translate(4 1658)">
<title>perl6&#45;type&#45;graph</title>
<polygon fill="white" stroke="transparent" points="-4,4 -4,-1658 1653.7,-1658 1653.7,4 -4,4"/>
<!-- Metamodel::GrammarHOW -->
<g id="node1" class="node">
<title>Metamodel::GrammarHOW</title>
<g id="a_node1"><a xlink:href="/type/Metamodel::GrammarHOW" xlink:title="Metamodel::GrammarHOW">
<ellipse fill="none" stroke="#000000" cx="451.25" cy="-1123.43" rx="131.88" ry="18"/>
<text text-anchor="middle" x="451.25" y="-1119.73" font-family="FreeSans" font-size="14.00" fill="#000000">Metamodel::GrammarHOW</text>
</a>
</g>
</g>
<!-- Metamodel::DefaultParent -->
<g id="node15" class="node">
<title>Metamodel::DefaultParent</title>
<g id="a_node15"><a xlink:href="/type/Metamodel::DefaultParent" xlink:title="Metamodel::DefaultParent">
<ellipse fill="none" stroke="#6666ff" cx="824.41" cy="-1352.12" rx="128.08" ry="18"/>
<text text-anchor="middle" x="824.41" y="-1348.42" font-family="FreeSans" font-size="14.00" fill="#6666ff">Metamodel::DefaultParent</text>
</a>
</g>
</g>
<!-- Metamodel::GrammarHOW&#45;&gt;Metamodel::DefaultParent -->
<g id="edge4" class="edge">
<title>Metamodel::GrammarHOW&#45;&gt;Metamodel::DefaultParent</title>
<path fill="none" stroke="#6666ff" d="M480.22,-1141.19C547.2,-1182.23 712.68,-1283.65 787.1,-1329.25"/>
<polygon fill="#6666ff" stroke="#6666ff" points="785.36,-1332.29 795.71,-1334.53 789.02,-1326.32 785.36,-1332.29"/>
</g>
<!-- Metamodel::ClassHOW -->
<g id="node23" class="node">
<title>Metamodel::ClassHOW</title>
<g id="a_node23"><a xlink:href="/type/Metamodel::ClassHOW" xlink:title="Metamodel::ClassHOW">
<ellipse fill="none" stroke="#000000" cx="816.04" cy="-972.91" rx="113.18" ry="18"/>
<text text-anchor="middle" x="816.04" y="-969.21" font-family="FreeSans" font-size="14.00" fill="#000000">Metamodel::ClassHOW</text>
</a>
</g>
</g>
<!-- Metamodel::GrammarHOW&#45;&gt;Metamodel::ClassHOW -->
<g id="edge1" class="edge">
<title>Metamodel::GrammarHOW&#45;&gt;Metamodel::ClassHOW</title>
<path fill="none" stroke="#000000" d="M492.74,-1106.31C560.12,-1078.51 693.08,-1023.65 765.74,-993.67"/>
<polygon fill="#000000" stroke="#000000" points="767.24,-996.84 775.15,-989.79 764.57,-990.37 767.24,-996.84"/>
</g>
<!-- Mu -->
<g id="node2" class="node">
<title>Mu</title>
<g id="a_node2"><a xlink:href="/type/Mu" xlink:title="Mu">
<ellipse fill="none" stroke="#000000" cx="1622.7" cy="-18" rx="27" ry="18"/>
<text text-anchor="middle" x="1622.7" y="-14.3" font-family="FreeSans" font-size="14.00" fill="#000000">Mu</text>
</a>
</g>
</g>
<!-- Any -->
<g id="node3" class="node">
<title>Any</title>
<g id="a_node3"><a xlink:href="/type/Any" xlink:title="Any">
<ellipse fill="none" stroke="#000000" cx="1210.4" cy="-405.86" rx="28.7" ry="18"/>
<text text-anchor="middle" x="1210.4" y="-402.16" font-family="FreeSans" font-size="14.00" fill="#000000">Any</text>
</a>
</g>
</g>
<!-- Any&#45;&gt;Mu -->
<g id="edge2" class="edge">
<title>Any&#45;&gt;Mu</title>
<path fill="none" stroke="#000000" d="M1226.31,-390.89C1289.71,-331.25 1524.51,-110.36 1599.51,-39.81"/>
<polygon fill="#000000" stroke="#000000" points="1602.17,-42.12 1607.06,-32.71 1597.38,-37.02 1602.17,-42.12"/>
</g>
<!-- Metamodel::Naming -->
<g id="node4" class="node">
<title>Metamodel::Naming</title>
<g id="a_node4"><a xlink:href="/type/Metamodel::Naming" xlink:title="Metamodel::Naming">
<ellipse fill="none" stroke="#6666ff" cx="1002.08" cy="-1603.66" rx="101.28" ry="18"/>
<text text-anchor="middle" x="1002.08" y="-1599.96" font-family="FreeSans" font-size="14.00" fill="#6666ff">Metamodel::Naming</text>
</a>
</g>
</g>
<!-- Metamodel::Documenting -->
<g id="node5" class="node">
<title>Metamodel::Documenting</title>
<g id="a_node5"><a xlink:href="/type/Metamodel::Documenting" xlink:title="Metamodel::Documenting">
<ellipse fill="none" stroke="#6666ff" cx="1249.45" cy="-1280.92" rx="126.98" ry="18"/>
<text text-anchor="middle" x="1249.45" y="-1277.22" font-family="FreeSans" font-size="14.00" fill="#6666ff">Metamodel::Documenting</text>
</a>
</g>
</g>
<!-- Metamodel::Versioning -->
<g id="node6" class="node">
<title>Metamodel::Versioning</title>
<g id="a_node6"><a xlink:href="/type/Metamodel::Versioning" xlink:title="Metamodel::Versioning">
<ellipse fill="none" stroke="#6666ff" cx="509.62" cy="-1393.1" rx="114.28" ry="18"/>
<text text-anchor="middle" x="509.62" y="-1389.4" font-family="FreeSans" font-size="14.00" fill="#6666ff">Metamodel::Versioning</text>
</a>
</g>
</g>
<!-- Metamodel::Stashing -->
<g id="node7" class="node">
<title>Metamodel::Stashing</title>
<g id="a_node7"><a xlink:href="/type/Metamodel::Stashing" xlink:title="Metamodel::Stashing">
<ellipse fill="none" stroke="#6666ff" cx="368.73" cy="-479.89" rx="105.88" ry="18"/>
<text text-anchor="middle" x="368.73" y="-476.19" font-family="FreeSans" font-size="14.00" fill="#6666ff">Metamodel::Stashing</text>
</a>
</g>
</g>
<!-- Metamodel::AttributeContainer -->
<g id="node8" class="node">
<title>Metamodel::AttributeContainer</title>
<g id="a_node8"><a xlink:href="/type/Metamodel::AttributeContainer" xlink:title="Metamodel::AttributeContainer">
<ellipse fill="none" stroke="#6666ff" cx="1462.89" cy="-933.16" rx="150.27" ry="18"/>
<text text-anchor="middle" x="1462.89" y="-929.46" font-family="FreeSans" font-size="14.00" fill="#6666ff">Metamodel::AttributeContainer</text>
</a>
</g>
</g>
<!-- Metamodel::Finalization -->
<g id="node9" class="node">
<title>Metamodel::Finalization</title>
<g id="a_node9"><a xlink:href="/type/Metamodel::Finalization" xlink:title="Metamodel::Finalization">
<ellipse fill="none" stroke="#6666ff" cx="572.43" cy="-382.27" rx="116.98" ry="18"/>
<text text-anchor="middle" x="572.43" y="-378.57" font-family="FreeSans" font-size="14.00" fill="#6666ff">Metamodel::Finalization</text>
</a>
</g>
</g>
<!-- Metamodel::MethodContainer -->
<g id="node10" class="node">
<title>Metamodel::MethodContainer</title>
<g id="a_node10"><a xlink:href="/type/Metamodel::MethodContainer" xlink:title="Metamodel::MethodContainer">
<ellipse fill="none" stroke="#6666ff" cx="961.82" cy="-534.67" rx="143.77" ry="18"/>
<text text-anchor="middle" x="961.82" y="-530.97" font-family="FreeSans" font-size="14.00" fill="#6666ff">Metamodel::MethodContainer</text>
</a>
</g>
</g>
<!-- Metamodel::PrivateMethodContainer -->
<g id="node11" class="node">
<title>Metamodel::PrivateMethodContainer</title>
<g id="a_node11"><a xlink:href="/type/Metamodel::PrivateMethodContainer" xlink:title="Metamodel::PrivateMethodContainer">
<ellipse fill="none" stroke="#6666ff" cx="849.61" cy="-338.26" rx="174.67" ry="18"/>
<text text-anchor="middle" x="849.61" y="-334.56" font-family="FreeSans" font-size="14.00" fill="#6666ff">Metamodel::PrivateMethodContainer</text>
</a>
</g>
</g>
<!-- Metamodel::MultiMethodContainer -->
<g id="node12" class="node">
<title>Metamodel::MultiMethodContainer</title>
<g id="a_node12"><a xlink:href="/type/Metamodel::MultiMethodContainer" xlink:title="Metamodel::MultiMethodContainer">
<ellipse fill="none" stroke="#6666ff" cx="165.74" cy="-945.45" rx="165.97" ry="18"/>
<text text-anchor="middle" x="165.74" y="-941.75" font-family="FreeSans" font-size="14.00" fill="#6666ff">Metamodel::MultiMethodContainer</text>
</a>
</g>
</g>
<!-- Metamodel::RoleContainer -->
<g id="node13" class="node">
<title>Metamodel::RoleContainer</title>
<g id="a_node13"><a xlink:href="/type/Metamodel::RoleContainer" xlink:title="Metamodel::RoleContainer">
<ellipse fill="none" stroke="#6666ff" cx="1444.3" cy="-1188.16" rx="129.98" ry="18"/>
<text text-anchor="middle" x="1444.3" y="-1184.46" font-family="FreeSans" font-size="14.00" fill="#6666ff">Metamodel::RoleContainer</text>
</a>
</g>
</g>
<!-- Metamodel::MultipleInheritance -->
<g id="node14" class="node">
<title>Metamodel::MultipleInheritance</title>
<g id="a_node14"><a xlink:href="/type/Metamodel::MultipleInheritance" xlink:title="Metamodel::MultipleInheritance">
<ellipse fill="none" stroke="#6666ff" cx="1228.2" cy="-1496.82" rx="153.27" ry="18"/>
<text text-anchor="middle" x="1228.2" y="-1493.12" font-family="FreeSans" font-size="14.00" fill="#6666ff">Metamodel::MultipleInheritance</text>
</a>
</g>
</g>
<!-- Metamodel::C3MRO -->
<g id="node16" class="node">
<title>Metamodel::C3MRO</title>
<g id="a_node16"><a xlink:href="/type/Metamodel::C3MRO" xlink:title="Metamodel::C3MRO">
<ellipse fill="none" stroke="#6666ff" cx="1208.03" cy="-874.68" rx="100.18" ry="18"/>
<text text-anchor="middle" x="1208.03" y="-870.98" font-family="FreeSans" font-size="14.00" fill="#6666ff">Metamodel::C3MRO</text>
</a>
</g>
</g>
<!-- Metamodel::MROBasedMethodDispatch -->
<g id="node17" class="node">
<title>Metamodel::MROBasedMethodDispatch</title>
<g id="a_node17"><a xlink:href="/type/Metamodel::MROBasedMethodDispatch" xlink:title="Metamodel::MROBasedMethodDispatch">
<ellipse fill="none" stroke="#6666ff" cx="1333.31" cy="-664.72" rx="188.47" ry="18"/>
<text text-anchor="middle" x="1333.31" y="-661.02" font-family="FreeSans" font-size="14.00" fill="#6666ff">Metamodel::MROBasedMethodDispatch</text>
</a>
</g>
</g>
<!-- Metamodel::MROBasedTypeChecking -->
<g id="node18" class="node">
<title>Metamodel::MROBasedTypeChecking</title>
<g id="a_node18"><a xlink:href="/type/Metamodel::MROBasedTypeChecking" xlink:title="Metamodel::MROBasedTypeChecking">
<ellipse fill="none" stroke="#6666ff" cx="391.85" cy="-1527.44" rx="178.97" ry="18"/>
<text text-anchor="middle" x="391.85" y="-1523.74" font-family="FreeSans" font-size="14.00" fill="#6666ff">Metamodel::MROBasedTypeChecking</text>
</a>
</g>
</g>
<!-- Metamodel::Trusting -->
<g id="node19" class="node">
<title>Metamodel::Trusting</title>
<g id="a_node19"><a xlink:href="/type/Metamodel::Trusting" xlink:title="Metamodel::Trusting">
<ellipse fill="none" stroke="#6666ff" cx="188.12" cy="-1216.41" rx="102.88" ry="18"/>
<text text-anchor="middle" x="188.12" y="-1212.71" font-family="FreeSans" font-size="14.00" fill="#6666ff">Metamodel::Trusting</text>
</a>
</g>
</g>
<!-- Metamodel::BUILDPLAN -->
<g id="node20" class="node">
<title>Metamodel::BUILDPLAN</title>
<g id="a_node20"><a xlink:href="/type/Metamodel::BUILDPLAN" xlink:title="Metamodel::BUILDPLAN">
<ellipse fill="none" stroke="#6666ff" cx="730.44" cy="-1636" rx="118.08" ry="18"/>
<text text-anchor="middle" x="730.44" y="-1632.3" font-family="FreeSans" font-size="14.00" fill="#6666ff">Metamodel::BUILDPLAN</text>
</a>
</g>
</g>
<!-- Metamodel::Mixins -->
<g id="node21" class="node">
<title>Metamodel::Mixins</title>
<g id="a_node21"><a xlink:href="/type/Metamodel::Mixins" xlink:title="Metamodel::Mixins">
<ellipse fill="none" stroke="#6666ff" cx="507.29" cy="-688.95" rx="94.78" ry="18"/>
<text text-anchor="middle" x="507.29" y="-685.25" font-family="FreeSans" font-size="14.00" fill="#6666ff">Metamodel::Mixins</text>
</a>
</g>
</g>
<!-- Metamodel::BoolificationProtocol -->
<g id="node22" class="node">
<title>Metamodel::BoolificationProtocol</title>
<g id="a_node22"><a xlink:href="/type/Metamodel::BoolificationProtocol" xlink:title="Metamodel::BoolificationProtocol">
<ellipse fill="none" stroke="#6666ff" cx="216.21" cy="-711.42" rx="157.07" ry="18"/>
<text text-anchor="middle" x="216.21" y="-707.72" font-family="FreeSans" font-size="14.00" fill="#6666ff">Metamodel::BoolificationProtocol</text>
</a>
</g>
</g>
<!-- Metamodel::ClassHOW&#45;&gt;Any -->
<g id="edge3" class="edge">
<title>Metamodel::ClassHOW&#45;&gt;Any</title>
<path fill="none" stroke="#000000" d="M828.49,-955.01C886.07,-872.22 1126.49,-526.51 1193.18,-430.62"/>
<polygon fill="#000000" stroke="#000000" points="1196.07,-432.59 1198.91,-422.38 1190.32,-428.59 1196.07,-432.59"/>
</g>
<!-- Metamodel::ClassHOW&#45;&gt;Metamodel::Naming -->
<g id="edge5" class="edge">
<title>Metamodel::ClassHOW&#45;&gt;Metamodel::Naming</title>
<path fill="none" stroke="#6666ff" d="M822.6,-990.95C850.03,-1066.33 954.05,-1352.22 954.05,-1352.22 954.05,-1352.22 984.17,-1509.88 996.71,-1575.51"/>
<polygon fill="#6666ff" stroke="#6666ff" points="993.31,-1576.41 998.63,-1585.58 1000.19,-1575.1 993.31,-1576.41"/>
</g>
<!-- Metamodel::ClassHOW&#45;&gt;Metamodel::Documenting -->
<g id="edge6" class="edge">
<title>Metamodel::ClassHOW&#45;&gt;Metamodel::Documenting</title>
<path fill="none" stroke="#6666ff" d="M840.9,-990.58C914.64,-1042.99 1132.26,-1197.64 1216.04,-1257.18"/>
<polygon fill="#6666ff" stroke="#6666ff" points="1214.25,-1260.2 1224.42,-1263.14 1218.3,-1254.49 1214.25,-1260.2"/>
</g>
<!-- Metamodel::ClassHOW&#45;&gt;Metamodel::Versioning -->
<g id="edge7" class="edge">
<title>Metamodel::ClassHOW&#45;&gt;Metamodel::Versioning</title>
<path fill="none" stroke="#6666ff" d="M802.87,-990.97C754.45,-1057.37 586.1,-1288.23 528.85,-1366.74"/>
<polygon fill="#6666ff" stroke="#6666ff" points="525.8,-1364.97 522.74,-1375.12 531.46,-1369.1 525.8,-1364.97"/>
</g>
<!-- Metamodel::ClassHOW&#45;&gt;Metamodel::Stashing -->
<g id="edge8" class="edge">
<title>Metamodel::ClassHOW&#45;&gt;Metamodel::Stashing</title>
<path fill="none" stroke="#6666ff" d="M802.44,-954.72C755.59,-892.06 603.78,-689.01 603.78,-689.01 603.78,-689.01 458.32,-559.6 396.26,-504.38"/>
<polygon fill="#6666ff" stroke="#6666ff" points="398.57,-501.75 388.77,-497.72 393.91,-506.98 398.57,-501.75"/>
</g>
<!-- Metamodel::ClassHOW&#45;&gt;Metamodel::AttributeContainer -->
<g id="edge9" class="edge">
<title>Metamodel::ClassHOW&#45;&gt;Metamodel::AttributeContainer</title>
<path fill="none" stroke="#6666ff" d="M921.77,-966.42C1029.95,-959.77 1198.78,-949.39 1319.07,-942"/>
<polygon fill="#6666ff" stroke="#6666ff" points="1319.34,-945.49 1329.1,-941.38 1318.91,-938.5 1319.34,-945.49"/>
</g>
<!-- Metamodel::ClassHOW&#45;&gt;Metamodel::Finalization -->
<g id="edge10" class="edge">
<title>Metamodel::ClassHOW&#45;&gt;Metamodel::Finalization</title>
<path fill="none" stroke="#6666ff" d="M808.61,-954.91C773.73,-870.34 626.06,-512.29 583.78,-409.79"/>
<polygon fill="#6666ff" stroke="#6666ff" points="586.97,-408.33 579.92,-400.42 580.49,-411 586.97,-408.33"/>
</g>
<!-- Metamodel::ClassHOW&#45;&gt;Metamodel::MethodContainer -->
<g id="edge11" class="edge">
<title>Metamodel::ClassHOW&#45;&gt;Metamodel::MethodContainer</title>
<path fill="none" stroke="#6666ff" d="M822.02,-954.92C844.63,-886.95 924.92,-645.58 952.47,-562.79"/>
<polygon fill="#6666ff" stroke="#6666ff" points="955.87,-563.65 955.7,-553.06 949.22,-561.44 955.87,-563.65"/>
</g>
<!-- Metamodel::ClassHOW&#45;&gt;Metamodel::PrivateMethodContainer -->
<g id="edge12" class="edge">
<title>Metamodel::ClassHOW&#45;&gt;Metamodel::PrivateMethodContainer</title>
<path fill="none" stroke="#6666ff" d="M816.06,-954.91C816.16,-872.43 816.58,-534.56 816.58,-534.56 816.58,-534.56 835.75,-420.66 844.88,-366.39"/>
<polygon fill="#6666ff" stroke="#6666ff" points="848.35,-366.82 846.56,-356.38 841.45,-365.66 848.35,-366.82"/>
</g>
<!-- Metamodel::ClassHOW&#45;&gt;Metamodel::MultiMethodContainer -->
<g id="edge13" class="edge">
<title>Metamodel::ClassHOW&#45;&gt;Metamodel::MultiMethodContainer</title>
<path fill="none" stroke="#6666ff" d="M706.46,-968.29C603.58,-963.94 448.3,-957.38 330.49,-952.41"/>
<polygon fill="#6666ff" stroke="#6666ff" points="330.43,-948.9 320.29,-951.98 330.13,-955.9 330.43,-948.9"/>
</g>
<!-- Metamodel::ClassHOW&#45;&gt;Metamodel::RoleContainer -->
<g id="edge14" class="edge">
<title>Metamodel::ClassHOW&#45;&gt;Metamodel::RoleContainer</title>
<path fill="none" stroke="#6666ff" d="M863.78,-989.27C977.11,-1028.1 1262.12,-1125.74 1385.66,-1168.07"/>
<polygon fill="#6666ff" stroke="#6666ff" points="1384.75,-1171.45 1395.34,-1171.38 1387.01,-1164.83 1384.75,-1171.45"/>
</g>
<!-- Metamodel::ClassHOW&#45;&gt;Metamodel::MultipleInheritance -->
<g id="edge15" class="edge">
<title>Metamodel::ClassHOW&#45;&gt;Metamodel::MultipleInheritance</title>
<path fill="none" stroke="#6666ff" d="M830.23,-990.95C891.72,-1069.11 1135.38,-1378.84 1207.8,-1470.89"/>
<polygon fill="#6666ff" stroke="#6666ff" points="1205.13,-1473.16 1214.07,-1478.86 1210.64,-1468.83 1205.13,-1473.16"/>
</g>
<!-- Metamodel::ClassHOW&#45;&gt;Metamodel::DefaultParent -->
<g id="edge16" class="edge">
<title>Metamodel::ClassHOW&#45;&gt;Metamodel::DefaultParent</title>
<path fill="none" stroke="#6666ff" d="M816.44,-990.95C817.78,-1051.71 822.14,-1249.27 823.78,-1323.54"/>
<polygon fill="#6666ff" stroke="#6666ff" points="820.29,-1324.05 824.01,-1333.97 827.29,-1323.9 820.29,-1324.05"/>
</g>
<!-- Metamodel::ClassHOW&#45;&gt;Metamodel::C3MRO -->
<g id="edge17" class="edge">
<title>Metamodel::ClassHOW&#45;&gt;Metamodel::C3MRO</title>
<path fill="none" stroke="#6666ff" d="M876.86,-957.67C948.07,-939.83 1065.69,-910.35 1139.91,-891.75"/>
<polygon fill="#6666ff" stroke="#6666ff" points="1140.78,-895.14 1149.63,-889.31 1139.08,-888.35 1140.78,-895.14"/>
</g>
<!-- Metamodel::ClassHOW&#45;&gt;Metamodel::MROBasedMethodDispatch -->
<g id="edge18" class="edge">
<title>Metamodel::ClassHOW&#45;&gt;Metamodel::MROBasedMethodDispatch</title>
<path fill="none" stroke="#6666ff" d="M845.33,-955.46C933.31,-903.04 1195.26,-746.97 1294.56,-687.81"/>
<polygon fill="#6666ff" stroke="#6666ff" points="1296.58,-690.68 1303.38,-682.56 1293,-684.67 1296.58,-690.68"/>
</g>
<!-- Metamodel::ClassHOW&#45;&gt;Metamodel::MROBasedTypeChecking -->
<g id="edge19" class="edge">
<title>Metamodel::ClassHOW&#45;&gt;Metamodel::MROBasedTypeChecking</title>
<path fill="none" stroke="#6666ff" d="M798.16,-990.7C717.76,-1070.67 393.63,-1393.07 393.63,-1393.07 393.63,-1393.07 392.75,-1459.84 392.22,-1499.24"/>
<polygon fill="#6666ff" stroke="#6666ff" points="388.72,-1499.27 392.09,-1509.32 395.72,-1499.37 388.72,-1499.27"/>
</g>
<!-- Metamodel::ClassHOW&#45;&gt;Metamodel::Trusting -->
<g id="edge20" class="edge">
<title>Metamodel::ClassHOW&#45;&gt;Metamodel::Trusting</title>
<path fill="none" stroke="#6666ff" d="M762.55,-988.85C641.61,-1024.87 357.56,-1109.46 357.56,-1109.46 357.56,-1109.46 317.72,-1123.28 317.72,-1123.28 317.72,-1123.28 259.22,-1165.32 220.83,-1192.91"/>
<polygon fill="#6666ff" stroke="#6666ff" points="218.57,-1190.22 212.49,-1198.89 222.66,-1195.9 218.57,-1190.22"/>
</g>
<!-- Metamodel::ClassHOW&#45;&gt;Metamodel::BUILDPLAN -->
<g id="edge21" class="edge">
<title>Metamodel::ClassHOW&#45;&gt;Metamodel::BUILDPLAN</title>
<path fill="none" stroke="#6666ff" d="M810.27,-990.94C786.17,-1066.28 694.77,-1352.01 694.77,-1352.01 694.77,-1352.01 717.85,-1535.78 726.88,-1607.66"/>
<polygon fill="#6666ff" stroke="#6666ff" points="723.44,-1608.32 728.16,-1617.81 730.38,-1607.45 723.44,-1608.32"/>
</g>
<!-- Metamodel::ClassHOW&#45;&gt;Metamodel::Mixins -->
<g id="edge22" class="edge">
<title>Metamodel::ClassHOW&#45;&gt;Metamodel::Mixins</title>
<path fill="none" stroke="#6666ff" d="M796.72,-955.15C743.66,-906.35 595.53,-770.11 534.3,-713.8"/>
<polygon fill="#6666ff" stroke="#6666ff" points="536.33,-710.9 526.6,-706.71 531.59,-716.05 536.33,-710.9"/>
</g>
<!-- Metamodel::ClassHOW&#45;&gt;Metamodel::BoolificationProtocol -->
<g id="edge23" class="edge">
<title>Metamodel::ClassHOW&#45;&gt;Metamodel::BoolificationProtocol</title>
<path fill="none" stroke="#6666ff" d="M777.14,-955.96C671.98,-910.11 382.06,-783.72 265.6,-732.95"/>
<polygon fill="#6666ff" stroke="#6666ff" points="266.76,-729.64 256.19,-728.85 263.96,-736.05 266.76,-729.64"/>
</g>
</g>
</svg>
