<?xml version="1.0" encoding="UTF-8" standalone="no"?>
<!DOCTYPE svg PUBLIC "-//W3C//DTD SVG 1.1//EN"
 "http://www.w3.org/Graphics/SVG/1.1/DTD/svg11.dtd">
<!-- Generated by graphviz version 2.42.3 (0)
 -->
<!-- Title: perl6&#45;type&#45;graph Pages: 1 -->
<svg width="253pt" height="404pt"
 viewBox="0.00 0.00 252.89 404.00" xmlns="http://www.w3.org/2000/svg" xmlns:xlink="http://www.w3.org/1999/xlink">
<g id="graph0" class="graph" transform="scale(1 1) rotate(0) translate(4 400)">
<title>perl6&#45;type&#45;graph</title>
<polygon fill="white" stroke="transparent" points="-4,4 -4,-400 248.89,-400 248.89,4 -4,4"/>
<!-- X::Syntax::P5 -->
<g id="node1" class="node">
<title>X::Syntax::P5</title>
<g id="a_node1"><a xlink:href="/type/X::Syntax::P5" xlink:title="X::Syntax::P5">
<ellipse fill="none" stroke="#000000" cx="71.49" cy="-18" rx="71.49" ry="18"/>
<text text-anchor="middle" x="71.49" y="-14.3" font-family="FreeSans" font-size="14.00" fill="#000000">X::Syntax::P5</text>
</a>
</g>
</g>
<!-- Exception -->
<g id="node4" class="node">
<title>Exception</title>
<g id="a_node4"><a xlink:href="/type/Exception" xlink:title="Exception">
<ellipse fill="none" stroke="#000000" cx="94.49" cy="-234" rx="55.49" ry="18"/>
<text text-anchor="middle" x="94.49" y="-230.3" font-family="FreeSans" font-size="14.00" fill="#000000">Exception</text>
</a>
</g>
</g>
<!-- X::Syntax::P5&#45;&gt;Exception -->
<g id="edge1" class="edge">
<title>X::Syntax::P5&#45;&gt;Exception</title>
<path fill="none" stroke="#000000" d="M69.46,-36.15C69.9,-73.34 79.14,-161.63 86.97,-206.23"/>
<polygon fill="#000000" stroke="#000000" points="83.53,-206.88 88.82,-216.06 90.41,-205.59 83.53,-206.88"/>
</g>
<!-- X::Syntax::P5&#45;&gt;Exception -->
<g id="edge2" class="edge">
<title>X::Syntax::P5&#45;&gt;Exception</title>
<path fill="none" stroke="#000000" d="M77.21,-36.15C84.73,-73.17 94.42,-160.82 96.24,-205.61"/>
<polygon fill="#000000" stroke="#000000" points="92.75,-205.87 96.53,-215.77 99.75,-205.67 92.75,-205.87"/>
</g>
<!-- X::Syntax -->
<g id="node6" class="node">
<title>X::Syntax</title>
<g id="a_node6"><a xlink:href="/type/X::Syntax" xlink:title="X::Syntax">
<ellipse fill="none" stroke="#6666ff" cx="162.49" cy="-90" rx="53.89" ry="18"/>
<text text-anchor="middle" x="162.49" y="-86.3" font-family="FreeSans" font-size="14.00" fill="#6666ff">X::Syntax</text>
</a>
</g>
</g>
<!-- X::Syntax::P5&#45;&gt;X::Syntax -->
<g id="edge7" class="edge">
<title>X::Syntax::P5&#45;&gt;X::Syntax</title>
<path fill="none" stroke="#6666ff" d="M92.6,-35.24C104.86,-44.67 120.48,-56.68 133.84,-66.96"/>
<polygon fill="#6666ff" stroke="#6666ff" points="131.76,-69.77 141.82,-73.09 136.02,-64.22 131.76,-69.77"/>
</g>
<!-- Mu -->
<g id="node2" class="node">
<title>Mu</title>
<g id="a_node2"><a xlink:href="/type/Mu" xlink:title="Mu">
<ellipse fill="none" stroke="#000000" cx="94.49" cy="-378" rx="27" ry="18"/>
<text text-anchor="middle" x="94.49" y="-374.3" font-family="FreeSans" font-size="14.00" fill="#000000">Mu</text>
</a>
</g>
</g>
<!-- Any -->
<g id="node3" class="node">
<title>Any</title>
<g id="a_node3"><a xlink:href="/type/Any" xlink:title="Any">
<ellipse fill="none" stroke="#000000" cx="94.49" cy="-306" rx="28.7" ry="18"/>
<text text-anchor="middle" x="94.49" y="-302.3" font-family="FreeSans" font-size="14.00" fill="#000000">Any</text>
</a>
</g>
</g>
<!-- Any&#45;&gt;Mu -->
<g id="edge3" class="edge">
<title>Any&#45;&gt;Mu</title>
<path fill="none" stroke="#000000" d="M94.49,-324.3C94.49,-332.02 94.49,-341.29 94.49,-349.89"/>
<polygon fill="#000000" stroke="#000000" points="90.99,-349.9 94.49,-359.9 97.99,-349.9 90.99,-349.9"/>
</g>
<!-- Exception&#45;&gt;Any -->
<g id="edge4" class="edge">
<title>Exception&#45;&gt;Any</title>
<path fill="none" stroke="#000000" d="M94.49,-252.3C94.49,-260.02 94.49,-269.29 94.49,-277.89"/>
<polygon fill="#000000" stroke="#000000" points="90.99,-277.9 94.49,-287.9 97.99,-277.9 90.99,-277.9"/>
</g>
<!-- X::Comp -->
<g id="node5" class="node">
<title>X::Comp</title>
<g id="a_node5"><a xlink:href="/type/X::Comp" xlink:title="X::Comp">
<ellipse fill="none" stroke="#6666ff" cx="195.49" cy="-162" rx="49.29" ry="18"/>
<text text-anchor="middle" x="195.49" y="-158.3" font-family="FreeSans" font-size="14.00" fill="#6666ff">X::Comp</text>
</a>
</g>
</g>
<!-- X::Comp&#45;&gt;Exception -->
<g id="edge5" class="edge">
<title>X::Comp&#45;&gt;Exception</title>
<path fill="none" stroke="#000000" d="M173.58,-178.19C159.48,-187.96 140.95,-200.8 125.37,-211.6"/>
<polygon fill="#000000" stroke="#000000" points="123.29,-208.78 117.07,-217.36 127.28,-214.54 123.29,-208.78"/>
</g>
<!-- X::Syntax&#45;&gt;Exception -->
<g id="edge6" class="edge">
<title>X::Syntax&#45;&gt;Exception</title>
<path fill="none" stroke="#000000" d="M154.43,-107.85C142.67,-132.4 120.72,-178.23 106.9,-207.09"/>
<polygon fill="#000000" stroke="#000000" points="103.71,-205.64 102.55,-216.18 110.03,-208.67 103.71,-205.64"/>
</g>
<!-- X::Syntax&#45;&gt;X::Comp -->
<g id="edge8" class="edge">
<title>X::Syntax&#45;&gt;X::Comp</title>
<path fill="none" stroke="#6666ff" d="M170.48,-107.95C174.29,-116.03 178.94,-125.88 183.18,-134.89"/>
<polygon fill="#6666ff" stroke="#6666ff" points="180.15,-136.66 187.58,-144.21 186.48,-133.67 180.15,-136.66"/>
</g>
</g>
</svg>
