<?xml version="1.0" encoding="UTF-8" standalone="no"?>
<!DOCTYPE svg PUBLIC "-//W3C//DTD SVG 1.1//EN"
 "http://www.w3.org/Graphics/SVG/1.1/DTD/svg11.dtd">
<!-- Generated by graphviz version 2.42.3 (0)
 -->
<!-- Title: perl6&#45;type&#45;graph Pages: 1 -->
<svg width="952pt" height="188pt"
 viewBox="0.00 0.00 952.03 188.00" xmlns="http://www.w3.org/2000/svg" xmlns:xlink="http://www.w3.org/1999/xlink">
<g id="graph0" class="graph" transform="scale(1 1) rotate(0) translate(4 184)">
<title>perl6&#45;type&#45;graph</title>
<polygon fill="white" stroke="transparent" points="-4,4 -4,-184 948.03,-184 948.03,4 -4,4"/>
<!-- CompUnit::Repository::Locally -->
<g id="node1" class="node">
<title>CompUnit::Repository::Locally</title>
<g id="a_node1"><a xlink:href="/type/CompUnit::Repository::Locally" xlink:title="CompUnit::Repository::Locally">
<ellipse fill="none" stroke="#6666ff" cx="382.84" cy="-90" rx="145.67" ry="18"/>
<text text-anchor="middle" x="382.84" y="-86.3" font-family="FreeSans" font-size="14.00" fill="#6666ff">CompUnit::Repository::Locally</text>
</a>
</g>
</g>
<!-- Mu -->
<g id="node2" class="node">
<title>Mu</title>
<g id="a_node2"><a xlink:href="/type/Mu" xlink:title="Mu">
<ellipse fill="none" stroke="#000000" cx="574.84" cy="-162" rx="27" ry="18"/>
<text text-anchor="middle" x="574.84" y="-158.3" font-family="FreeSans" font-size="14.00" fill="#000000">Mu</text>
</a>
</g>
</g>
<!-- Any -->
<g id="node3" class="node">
<title>Any</title>
<g id="a_node3"><a xlink:href="/type/Any" xlink:title="Any">
<ellipse fill="none" stroke="#000000" cx="574.84" cy="-90" rx="28.7" ry="18"/>
<text text-anchor="middle" x="574.84" y="-86.3" font-family="FreeSans" font-size="14.00" fill="#000000">Any</text>
</a>
</g>
</g>
<!-- Any&#45;&gt;Mu -->
<g id="edge1" class="edge">
<title>Any&#45;&gt;Mu</title>
<path fill="none" stroke="#000000" d="M574.84,-108.3C574.84,-116.02 574.84,-125.29 574.84,-133.89"/>
<polygon fill="#000000" stroke="#000000" points="571.34,-133.9 574.84,-143.9 578.34,-133.9 571.34,-133.9"/>
</g>
<!-- CompUnit::Repository::Installable -->
<g id="node4" class="node">
<title>CompUnit::Repository::Installable</title>
<g id="a_node4"><a xlink:href="/type/CompUnit::Repository::Installable" xlink:title="CompUnit::Repository::Installable">
<ellipse fill="none" stroke="#6666ff" cx="782.84" cy="-90" rx="161.37" ry="18"/>
<text text-anchor="middle" x="782.84" y="-86.3" font-family="FreeSans" font-size="14.00" fill="#6666ff">CompUnit::Repository::Installable</text>
</a>
</g>
</g>
<!-- CompUnit::Repository::Installation -->
<g id="node5" class="node">
<title>CompUnit::Repository::Installation</title>
<g id="a_node5"><a xlink:href="/type/CompUnit::Repository::Installation" xlink:title="CompUnit::Repository::Installation">
<ellipse fill="none" stroke="#000000" cx="651.84" cy="-18" rx="165.17" ry="18"/>
<text text-anchor="middle" x="651.84" y="-14.3" font-family="FreeSans" font-size="14.00" fill="#000000">CompUnit::Repository::Installation</text>
</a>
</g>
</g>
<!-- CompUnit::Repository::Installation&#45;&gt;CompUnit::Repository::Locally -->
<g id="edge4" class="edge">
<title>CompUnit::Repository::Installation&#45;&gt;CompUnit::Repository::Locally</title>
<path fill="none" stroke="#6666ff" d="M591.14,-34.8C549.88,-45.53 495.2,-59.76 452.22,-70.95"/>
<polygon fill="#6666ff" stroke="#6666ff" points="451.19,-67.6 442.4,-73.5 452.96,-74.37 451.19,-67.6"/>
</g>
<!-- CompUnit::Repository::Installation&#45;&gt;Any -->
<g id="edge2" class="edge">
<title>CompUnit::Repository::Installation&#45;&gt;Any</title>
<path fill="none" stroke="#000000" d="M633.2,-35.95C622.57,-45.61 609.15,-57.81 597.87,-68.07"/>
<polygon fill="#000000" stroke="#000000" points="595.5,-65.49 590.45,-74.81 600.21,-70.67 595.5,-65.49"/>
</g>
<!-- CompUnit::Repository::Installation&#45;&gt;CompUnit::Repository::Installable -->
<g id="edge5" class="edge">
<title>CompUnit::Repository::Installation&#45;&gt;CompUnit::Repository::Installable</title>
<path fill="none" stroke="#6666ff" d="M683.22,-35.77C700.91,-45.22 723.21,-57.14 742.23,-67.3"/>
<polygon fill="#6666ff" stroke="#6666ff" points="740.8,-70.5 751.26,-72.13 744.09,-64.33 740.8,-70.5"/>
</g>
<!-- CompUnit::Repository -->
<g id="node6" class="node">
<title>CompUnit::Repository</title>
<g id="a_node6"><a xlink:href="/type/CompUnit::Repository" xlink:title="CompUnit::Repository">
<ellipse fill="none" stroke="#6666ff" cx="109.84" cy="-90" rx="109.68" ry="18"/>
<text text-anchor="middle" x="109.84" y="-86.3" font-family="FreeSans" font-size="14.00" fill="#6666ff">CompUnit::Repository</text>
</a>
</g>
</g>
<!-- CompUnit::Repository::FileSystem -->
<g id="node7" class="node">
<title>CompUnit::Repository::FileSystem</title>
<g id="a_node7"><a xlink:href="/type/CompUnit::Repository::FileSystem" xlink:title="CompUnit::Repository::FileSystem">
<ellipse fill="none" stroke="#000000" cx="304.84" cy="-18" rx="163.57" ry="18"/>
<text text-anchor="middle" x="304.84" y="-14.3" font-family="FreeSans" font-size="14.00" fill="#000000">CompUnit::Repository::FileSystem</text>
</a>
</g>
</g>
<!-- CompUnit::Repository::FileSystem&#45;&gt;CompUnit::Repository::Locally -->
<g id="edge6" class="edge">
<title>CompUnit::Repository::FileSystem&#45;&gt;CompUnit::Repository::Locally</title>
<path fill="none" stroke="#6666ff" d="M323.72,-35.95C333.52,-44.74 345.65,-55.62 356.36,-65.24"/>
<polygon fill="#6666ff" stroke="#6666ff" points="354.08,-67.89 363.86,-71.97 358.76,-62.68 354.08,-67.89"/>
</g>
<!-- CompUnit::Repository::FileSystem&#45;&gt;Any -->
<g id="edge3" class="edge">
<title>CompUnit::Repository::FileSystem&#45;&gt;Any</title>
<path fill="none" stroke="#000000" d="M372.55,-34.4C441.34,-50.05 537.84,-72 537.84,-72 537.84,-72 540,-72.99 543.28,-74.5"/>
<polygon fill="#000000" stroke="#000000" points="541.92,-77.72 552.46,-78.72 544.84,-71.36 541.92,-77.72"/>
</g>
<!-- CompUnit::Repository::FileSystem&#45;&gt;CompUnit::Repository -->
<g id="edge7" class="edge">
<title>CompUnit::Repository::FileSystem&#45;&gt;CompUnit::Repository</title>
<path fill="none" stroke="#6666ff" d="M259.12,-35.41C230.27,-45.77 192.91,-59.18 162.77,-70"/>
<polygon fill="#6666ff" stroke="#6666ff" points="161.49,-66.74 153.26,-73.41 163.86,-73.33 161.49,-66.74"/>
</g>
</g>
</svg>
