<?xml version="1.0" encoding="UTF-8" standalone="no"?>
<!DOCTYPE svg PUBLIC "-//W3C//DTD SVG 1.1//EN"
 "http://www.w3.org/Graphics/SVG/1.1/DTD/svg11.dtd">
<!-- Generated by graphviz version 2.42.3 (0)
 -->
<!-- Title: perl6&#45;type&#45;graph Pages: 1 -->
<svg width="170pt" height="332pt"
 viewBox="0.00 0.00 170.49 332.00" xmlns="http://www.w3.org/2000/svg" xmlns:xlink="http://www.w3.org/1999/xlink">
<g id="graph0" class="graph" transform="scale(1 1) rotate(0) translate(4 328)">
<title>perl6&#45;type&#45;graph</title>
<polygon fill="white" stroke="transparent" points="-4,4 -4,-328 166.49,-328 166.49,4 -4,4"/>
<!-- IO::Path::Win32 -->
<g id="node1" class="node">
<title>IO::Path::Win32</title>
<g id="a_node1"><a xlink:href="/type/IO::Path::Win32" xlink:title="IO::Path::Win32">
<ellipse fill="none" stroke="#000000" cx="81.24" cy="-18" rx="81.49" ry="18"/>
<text text-anchor="middle" x="81.24" y="-14.3" font-family="FreeSans" font-size="14.00" fill="#000000">IO::Path::Win32</text>
</a>
</g>
</g>
<!-- IO::Path -->
<g id="node6" class="node">
<title>IO::Path</title>
<g id="a_node6"><a xlink:href="/type/IO::Path" xlink:title="IO::Path">
<ellipse fill="none" stroke="#000000" cx="81.24" cy="-90" rx="46.59" ry="18"/>
<text text-anchor="middle" x="81.24" y="-86.3" font-family="FreeSans" font-size="14.00" fill="#000000">IO::Path</text>
</a>
</g>
</g>
<!-- IO::Path::Win32&#45;&gt;IO::Path -->
<g id="edge1" class="edge">
<title>IO::Path::Win32&#45;&gt;IO::Path</title>
<path fill="none" stroke="#000000" d="M81.24,-36.3C81.24,-44.02 81.24,-53.29 81.24,-61.89"/>
<polygon fill="#000000" stroke="#000000" points="77.74,-61.9 81.24,-71.9 84.74,-61.9 77.74,-61.9"/>
</g>
<!-- Mu -->
<g id="node2" class="node">
<title>Mu</title>
<g id="a_node2"><a xlink:href="/type/Mu" xlink:title="Mu">
<ellipse fill="none" stroke="#000000" cx="43.24" cy="-306" rx="27" ry="18"/>
<text text-anchor="middle" x="43.24" y="-302.3" font-family="FreeSans" font-size="14.00" fill="#000000">Mu</text>
</a>
</g>
</g>
<!-- Any -->
<g id="node3" class="node">
<title>Any</title>
<g id="a_node3"><a xlink:href="/type/Any" xlink:title="Any">
<ellipse fill="none" stroke="#000000" cx="43.24" cy="-234" rx="28.7" ry="18"/>
<text text-anchor="middle" x="43.24" y="-230.3" font-family="FreeSans" font-size="14.00" fill="#000000">Any</text>
</a>
</g>
</g>
<!-- Any&#45;&gt;Mu -->
<g id="edge2" class="edge">
<title>Any&#45;&gt;Mu</title>
<path fill="none" stroke="#000000" d="M43.24,-252.3C43.24,-260.02 43.24,-269.29 43.24,-277.89"/>
<polygon fill="#000000" stroke="#000000" points="39.74,-277.9 43.24,-287.9 46.74,-277.9 39.74,-277.9"/>
</g>
<!-- Cool -->
<g id="node4" class="node">
<title>Cool</title>
<g id="a_node4"><a xlink:href="/type/Cool" xlink:title="Cool">
<ellipse fill="none" stroke="#000000" cx="43.24" cy="-162" rx="30.59" ry="18"/>
<text text-anchor="middle" x="43.24" y="-158.3" font-family="FreeSans" font-size="14.00" fill="#000000">Cool</text>
</a>
</g>
</g>
<!-- Cool&#45;&gt;Any -->
<g id="edge3" class="edge">
<title>Cool&#45;&gt;Any</title>
<path fill="none" stroke="#000000" d="M43.24,-180.3C43.24,-188.02 43.24,-197.29 43.24,-205.89"/>
<polygon fill="#000000" stroke="#000000" points="39.74,-205.9 43.24,-215.9 46.74,-205.9 39.74,-205.9"/>
</g>
<!-- IO -->
<g id="node5" class="node">
<title>IO</title>
<g id="a_node5"><a xlink:href="/type/IO" xlink:title="IO">
<ellipse fill="none" stroke="#6666ff" cx="119.24" cy="-162" rx="27" ry="18"/>
<text text-anchor="middle" x="119.24" y="-158.3" font-family="FreeSans" font-size="14.00" fill="#6666ff">IO</text>
</a>
</g>
</g>
<!-- IO::Path&#45;&gt;Cool -->
<g id="edge4" class="edge">
<title>IO::Path&#45;&gt;Cool</title>
<path fill="none" stroke="#000000" d="M72.04,-107.95C67.5,-116.32 61.92,-126.6 56.89,-135.87"/>
<polygon fill="#000000" stroke="#000000" points="53.79,-134.23 52.1,-144.69 59.94,-137.57 53.79,-134.23"/>
</g>
<!-- IO::Path&#45;&gt;IO -->
<g id="edge5" class="edge">
<title>IO::Path&#45;&gt;IO</title>
<path fill="none" stroke="#6666ff" d="M90.44,-107.95C94.99,-116.32 100.57,-126.6 105.6,-135.87"/>
<polygon fill="#6666ff" stroke="#6666ff" points="102.54,-137.57 110.39,-144.69 108.7,-134.23 102.54,-137.57"/>
</g>
</g>
</svg>
