<?xml version="1.0" encoding="UTF-8" standalone="no"?>
<!DOCTYPE svg PUBLIC "-//W3C//DTD SVG 1.1//EN"
 "http://www.w3.org/Graphics/SVG/1.1/DTD/svg11.dtd">
<!-- Generated by graphviz version 2.42.3 (0)
 -->
<!-- Title: perl6&#45;type&#45;graph Pages: 1 -->
<svg width="183pt" height="332pt"
 viewBox="0.00 0.00 183.48 332.00" xmlns="http://www.w3.org/2000/svg" xmlns:xlink="http://www.w3.org/1999/xlink">
<g id="graph0" class="graph" transform="scale(1 1) rotate(0) translate(4 328)">
<title>perl6&#45;type&#45;graph</title>
<polygon fill="white" stroke="transparent" points="-4,4 -4,-328 179.48,-328 179.48,4 -4,4"/>
<!-- IO::Spec::Cygwin -->
<g id="node1" class="node">
<title>IO::Spec::Cygwin</title>
<g id="a_node1"><a xlink:href="/type/IO::Spec::Cygwin" xlink:title="IO::Spec::Cygwin">
<ellipse fill="none" stroke="#000000" cx="87.74" cy="-18" rx="87.99" ry="18"/>
<text text-anchor="middle" x="87.74" y="-14.3" font-family="FreeSans" font-size="14.00" fill="#000000">IO::Spec::Cygwin</text>
</a>
</g>
</g>
<!-- IO::Spec::Unix -->
<g id="node5" class="node">
<title>IO::Spec::Unix</title>
<g id="a_node5"><a xlink:href="/type/IO::Spec::Unix" xlink:title="IO::Spec::Unix">
<ellipse fill="none" stroke="#000000" cx="87.74" cy="-90" rx="75.29" ry="18"/>
<text text-anchor="middle" x="87.74" y="-86.3" font-family="FreeSans" font-size="14.00" fill="#000000">IO::Spec::Unix</text>
</a>
</g>
</g>
<!-- IO::Spec::Cygwin&#45;&gt;IO::Spec::Unix -->
<g id="edge1" class="edge">
<title>IO::Spec::Cygwin&#45;&gt;IO::Spec::Unix</title>
<path fill="none" stroke="#000000" d="M87.74,-36.3C87.74,-44.02 87.74,-53.29 87.74,-61.89"/>
<polygon fill="#000000" stroke="#000000" points="84.24,-61.9 87.74,-71.9 91.24,-61.9 84.24,-61.9"/>
</g>
<!-- Mu -->
<g id="node2" class="node">
<title>Mu</title>
<g id="a_node2"><a xlink:href="/type/Mu" xlink:title="Mu">
<ellipse fill="none" stroke="#000000" cx="87.74" cy="-306" rx="27" ry="18"/>
<text text-anchor="middle" x="87.74" y="-302.3" font-family="FreeSans" font-size="14.00" fill="#000000">Mu</text>
</a>
</g>
</g>
<!-- Any -->
<g id="node3" class="node">
<title>Any</title>
<g id="a_node3"><a xlink:href="/type/Any" xlink:title="Any">
<ellipse fill="none" stroke="#000000" cx="87.74" cy="-234" rx="28.7" ry="18"/>
<text text-anchor="middle" x="87.74" y="-230.3" font-family="FreeSans" font-size="14.00" fill="#000000">Any</text>
</a>
</g>
</g>
<!-- Any&#45;&gt;Mu -->
<g id="edge2" class="edge">
<title>Any&#45;&gt;Mu</title>
<path fill="none" stroke="#000000" d="M87.74,-252.3C87.74,-260.02 87.74,-269.29 87.74,-277.89"/>
<polygon fill="#000000" stroke="#000000" points="84.24,-277.9 87.74,-287.9 91.24,-277.9 84.24,-277.9"/>
</g>
<!-- IO::Spec -->
<g id="node4" class="node">
<title>IO::Spec</title>
<g id="a_node4"><a xlink:href="/type/IO::Spec" xlink:title="IO::Spec">
<ellipse fill="none" stroke="#000000" cx="87.74" cy="-162" rx="48.99" ry="18"/>
<text text-anchor="middle" x="87.74" y="-158.3" font-family="FreeSans" font-size="14.00" fill="#000000">IO::Spec</text>
</a>
</g>
</g>
<!-- IO::Spec&#45;&gt;Any -->
<g id="edge3" class="edge">
<title>IO::Spec&#45;&gt;Any</title>
<path fill="none" stroke="#000000" d="M87.74,-180.3C87.74,-188.02 87.74,-197.29 87.74,-205.89"/>
<polygon fill="#000000" stroke="#000000" points="84.24,-205.9 87.74,-215.9 91.24,-205.9 84.24,-205.9"/>
</g>
<!-- IO::Spec::Unix&#45;&gt;IO::Spec -->
<g id="edge4" class="edge">
<title>IO::Spec::Unix&#45;&gt;IO::Spec</title>
<path fill="none" stroke="#000000" d="M87.74,-108.3C87.74,-116.02 87.74,-125.29 87.74,-133.89"/>
<polygon fill="#000000" stroke="#000000" points="84.24,-133.9 87.74,-143.9 91.24,-133.9 84.24,-133.9"/>
</g>
</g>
</svg>
