<?xml version="1.0" encoding="UTF-8" standalone="no"?>
<!DOCTYPE svg PUBLIC "-//W3C//DTD SVG 1.1//EN"
 "http://www.w3.org/Graphics/SVG/1.1/DTD/svg11.dtd">
<!-- Generated by graphviz version 2.42.3 (0)
 -->
<!-- Title: perl6&#45;type&#45;graph Pages: 1 -->
<svg width="496pt" height="404pt"
 viewBox="0.00 0.00 496.14 404.00" xmlns="http://www.w3.org/2000/svg" xmlns:xlink="http://www.w3.org/1999/xlink">
<g id="graph0" class="graph" transform="scale(1 1) rotate(0) translate(4 400)">
<title>perl6&#45;type&#45;graph</title>
<polygon fill="white" stroke="transparent" points="-4,4 -4,-400 492.14,-400 492.14,4 -4,4"/>
<!-- Str -->
<g id="node1" class="node">
<title>Str</title>
<g id="a_node1"><a xlink:href="/type/Str" xlink:title="Str">
<ellipse fill="none" stroke="#000000" cx="331.45" cy="-162" rx="27" ry="18"/>
<text text-anchor="middle" x="331.45" y="-158.3" font-family="FreeSans" font-size="14.00" fill="#000000">Str</text>
</a>
</g>
</g>
<!-- Cool -->
<g id="node4" class="node">
<title>Cool</title>
<g id="a_node4"><a xlink:href="/type/Cool" xlink:title="Cool">
<ellipse fill="none" stroke="#000000" cx="245.45" cy="-234" rx="30.59" ry="18"/>
<text text-anchor="middle" x="245.45" y="-230.3" font-family="FreeSans" font-size="14.00" fill="#000000">Cool</text>
</a>
</g>
</g>
<!-- Str&#45;&gt;Cool -->
<g id="edge1" class="edge">
<title>Str&#45;&gt;Cool</title>
<path fill="none" stroke="#000000" d="M314.86,-176.5C302.3,-186.73 284.81,-200.96 270.54,-212.58"/>
<polygon fill="#000000" stroke="#000000" points="268.11,-210.04 262.57,-219.07 272.53,-215.47 268.11,-210.04"/>
</g>
<!-- Stringy -->
<g id="node5" class="node">
<title>Stringy</title>
<g id="a_node5"><a xlink:href="/type/Stringy" xlink:title="Stringy">
<ellipse fill="none" stroke="#6666ff" cx="337.45" cy="-234" rx="43.59" ry="18"/>
<text text-anchor="middle" x="337.45" y="-230.3" font-family="FreeSans" font-size="14.00" fill="#6666ff">Stringy</text>
</a>
</g>
</g>
<!-- Str&#45;&gt;Stringy -->
<g id="edge16" class="edge">
<title>Str&#45;&gt;Stringy</title>
<path fill="none" stroke="#6666ff" d="M332.93,-180.3C333.59,-188.02 334.38,-197.29 335.12,-205.89"/>
<polygon fill="#6666ff" stroke="#6666ff" points="331.64,-206.23 335.98,-215.9 338.61,-205.63 331.64,-206.23"/>
</g>
<!-- Mu -->
<g id="node2" class="node">
<title>Mu</title>
<g id="a_node2"><a xlink:href="/type/Mu" xlink:title="Mu">
<ellipse fill="none" stroke="#000000" cx="245.45" cy="-378" rx="27" ry="18"/>
<text text-anchor="middle" x="245.45" y="-374.3" font-family="FreeSans" font-size="14.00" fill="#000000">Mu</text>
</a>
</g>
</g>
<!-- Any -->
<g id="node3" class="node">
<title>Any</title>
<g id="a_node3"><a xlink:href="/type/Any" xlink:title="Any">
<ellipse fill="none" stroke="#000000" cx="245.45" cy="-306" rx="28.7" ry="18"/>
<text text-anchor="middle" x="245.45" y="-302.3" font-family="FreeSans" font-size="14.00" fill="#000000">Any</text>
</a>
</g>
</g>
<!-- Any&#45;&gt;Mu -->
<g id="edge2" class="edge">
<title>Any&#45;&gt;Mu</title>
<path fill="none" stroke="#000000" d="M245.45,-324.3C245.45,-332.02 245.45,-341.29 245.45,-349.89"/>
<polygon fill="#000000" stroke="#000000" points="241.95,-349.9 245.45,-359.9 248.95,-349.9 241.95,-349.9"/>
</g>
<!-- Cool&#45;&gt;Any -->
<g id="edge3" class="edge">
<title>Cool&#45;&gt;Any</title>
<path fill="none" stroke="#000000" d="M245.45,-252.3C245.45,-260.02 245.45,-269.29 245.45,-277.89"/>
<polygon fill="#000000" stroke="#000000" points="241.95,-277.9 245.45,-287.9 248.95,-277.9 241.95,-277.9"/>
</g>
<!-- Numeric -->
<g id="node6" class="node">
<title>Numeric</title>
<g id="a_node6"><a xlink:href="/type/Numeric" xlink:title="Numeric">
<ellipse fill="none" stroke="#6666ff" cx="380.45" cy="-306" rx="48.99" ry="18"/>
<text text-anchor="middle" x="380.45" y="-302.3" font-family="FreeSans" font-size="14.00" fill="#6666ff">Numeric</text>
</a>
</g>
</g>
<!-- Real -->
<g id="node7" class="node">
<title>Real</title>
<g id="a_node7"><a xlink:href="/type/Real" xlink:title="Real">
<ellipse fill="none" stroke="#6666ff" cx="156.45" cy="-234" rx="30.59" ry="18"/>
<text text-anchor="middle" x="156.45" y="-230.3" font-family="FreeSans" font-size="14.00" fill="#6666ff">Real</text>
</a>
</g>
</g>
<!-- Real&#45;&gt;Numeric -->
<g id="edge17" class="edge">
<title>Real&#45;&gt;Numeric</title>
<path fill="none" stroke="#6666ff" d="M182.09,-243.9C193.95,-248.01 205.45,-252 205.45,-252 205.45,-252 282.23,-275.25 334.07,-290.96"/>
<polygon fill="#6666ff" stroke="#6666ff" points="333.17,-294.34 343.76,-293.89 335.2,-287.64 333.17,-294.34"/>
</g>
<!-- Num -->
<g id="node8" class="node">
<title>Num</title>
<g id="a_node8"><a xlink:href="/type/Num" xlink:title="Num">
<ellipse fill="none" stroke="#000000" cx="254.45" cy="-162" rx="32.49" ry="18"/>
<text text-anchor="middle" x="254.45" y="-158.3" font-family="FreeSans" font-size="14.00" fill="#000000">Num</text>
</a>
</g>
</g>
<!-- Num&#45;&gt;Cool -->
<g id="edge4" class="edge">
<title>Num&#45;&gt;Cool</title>
<path fill="none" stroke="#000000" d="M252.22,-180.3C251.23,-188.02 250.04,-197.29 248.93,-205.89"/>
<polygon fill="#000000" stroke="#000000" points="245.45,-205.53 247.64,-215.9 252.39,-206.42 245.45,-205.53"/>
</g>
<!-- Num&#45;&gt;Real -->
<g id="edge18" class="edge">
<title>Num&#45;&gt;Real</title>
<path fill="none" stroke="#6666ff" d="M235.08,-176.83C220.26,-187.42 199.65,-202.14 183.24,-213.86"/>
<polygon fill="#6666ff" stroke="#6666ff" points="181.21,-211.01 175.1,-219.67 185.27,-216.71 181.21,-211.01"/>
</g>
<!-- NumStr -->
<g id="node9" class="node">
<title>NumStr</title>
<g id="a_node9"><a xlink:href="/type/NumStr" xlink:title="NumStr">
<ellipse fill="none" stroke="#000000" cx="258.45" cy="-90" rx="45.49" ry="18"/>
<text text-anchor="middle" x="258.45" y="-86.3" font-family="FreeSans" font-size="14.00" fill="#000000">NumStr</text>
</a>
</g>
</g>
<!-- NumStr&#45;&gt;Str -->
<g id="edge6" class="edge">
<title>NumStr&#45;&gt;Str</title>
<path fill="none" stroke="#000000" d="M275.01,-106.88C285.13,-116.59 298.19,-129.11 309.2,-139.67"/>
<polygon fill="#000000" stroke="#000000" points="306.8,-142.21 316.44,-146.61 311.64,-137.16 306.8,-142.21"/>
</g>
<!-- NumStr&#45;&gt;Num -->
<g id="edge5" class="edge">
<title>NumStr&#45;&gt;Num</title>
<path fill="none" stroke="#000000" d="M257.46,-108.3C257.02,-116.02 256.49,-125.29 256,-133.89"/>
<polygon fill="#000000" stroke="#000000" points="252.5,-133.71 255.42,-143.9 259.49,-134.11 252.5,-133.71"/>
</g>
<!-- Int -->
<g id="node10" class="node">
<title>Int</title>
<g id="a_node10"><a xlink:href="/type/Int" xlink:title="Int">
<ellipse fill="none" stroke="#000000" cx="139.45" cy="-162" rx="27" ry="18"/>
<text text-anchor="middle" x="139.45" y="-158.3" font-family="FreeSans" font-size="14.00" fill="#000000">Int</text>
</a>
</g>
</g>
<!-- Int&#45;&gt;Cool -->
<g id="edge7" class="edge">
<title>Int&#45;&gt;Cool</title>
<path fill="none" stroke="#000000" d="M157.91,-175.19C174.3,-186.01 198.48,-201.99 217.28,-214.4"/>
<polygon fill="#000000" stroke="#000000" points="215.48,-217.41 225.76,-220 219.34,-211.57 215.48,-217.41"/>
</g>
<!-- Int&#45;&gt;Real -->
<g id="edge19" class="edge">
<title>Int&#45;&gt;Real</title>
<path fill="none" stroke="#6666ff" d="M143.56,-179.95C145.45,-187.74 147.75,-197.18 149.87,-205.92"/>
<polygon fill="#6666ff" stroke="#6666ff" points="146.49,-206.83 152.25,-215.72 153.29,-205.18 146.49,-206.83"/>
</g>
<!-- IntStr -->
<g id="node11" class="node">
<title>IntStr</title>
<g id="a_node11"><a xlink:href="/type/IntStr" xlink:title="IntStr">
<ellipse fill="none" stroke="#000000" cx="158.45" cy="-90" rx="36.29" ry="18"/>
<text text-anchor="middle" x="158.45" y="-86.3" font-family="FreeSans" font-size="14.00" fill="#000000">IntStr</text>
</a>
</g>
</g>
<!-- IntStr&#45;&gt;Str -->
<g id="edge9" class="edge">
<title>IntStr&#45;&gt;Str</title>
<path fill="none" stroke="#000000" d="M186.17,-101.73C226.2,-117.21 295.45,-144 295.45,-144 295.45,-144 297.63,-145.03 300.91,-146.58"/>
<polygon fill="#000000" stroke="#000000" points="299.55,-149.81 310.09,-150.91 302.54,-143.48 299.55,-149.81"/>
</g>
<!-- IntStr&#45;&gt;Int -->
<g id="edge8" class="edge">
<title>IntStr&#45;&gt;Int</title>
<path fill="none" stroke="#000000" d="M153.85,-107.95C151.7,-115.86 149.09,-125.46 146.69,-134.31"/>
<polygon fill="#000000" stroke="#000000" points="143.24,-133.64 144,-144.21 150,-135.48 143.24,-133.64"/>
</g>
<!-- Complex -->
<g id="node12" class="node">
<title>Complex</title>
<g id="a_node12"><a xlink:href="/type/Complex" xlink:title="Complex">
<ellipse fill="none" stroke="#000000" cx="426.45" cy="-162" rx="50.09" ry="18"/>
<text text-anchor="middle" x="426.45" y="-158.3" font-family="FreeSans" font-size="14.00" fill="#000000">Complex</text>
</a>
</g>
</g>
<!-- Complex&#45;&gt;Cool -->
<g id="edge10" class="edge">
<title>Complex&#45;&gt;Cool</title>
<path fill="none" stroke="#000000" d="M392.79,-175.56C350.8,-191.23 284.45,-216 284.45,-216 284.45,-216 282.25,-216.96 278.9,-218.42"/>
<polygon fill="#000000" stroke="#000000" points="277.25,-215.32 269.48,-222.52 280.04,-221.74 277.25,-215.32"/>
</g>
<!-- Complex&#45;&gt;Numeric -->
<g id="edge20" class="edge">
<title>Complex&#45;&gt;Numeric</title>
<path fill="none" stroke="#6666ff" d="M420.9,-180.13C413.02,-204.44 398.53,-249.18 389.2,-277.99"/>
<polygon fill="#6666ff" stroke="#6666ff" points="385.77,-277.22 386.01,-287.81 392.43,-279.38 385.77,-277.22"/>
</g>
<!-- ComplexStr -->
<g id="node13" class="node">
<title>ComplexStr</title>
<g id="a_node13"><a xlink:href="/type/ComplexStr" xlink:title="ComplexStr">
<ellipse fill="none" stroke="#000000" cx="424.45" cy="-90" rx="63.89" ry="18"/>
<text text-anchor="middle" x="424.45" y="-86.3" font-family="FreeSans" font-size="14.00" fill="#000000">ComplexStr</text>
</a>
</g>
</g>
<!-- ComplexStr&#45;&gt;Str -->
<g id="edge12" class="edge">
<title>ComplexStr&#45;&gt;Str</title>
<path fill="none" stroke="#000000" d="M402.88,-107.24C389.15,-117.57 371.31,-130.99 356.89,-141.85"/>
<polygon fill="#000000" stroke="#000000" points="354.74,-139.08 348.86,-147.9 358.95,-144.68 354.74,-139.08"/>
</g>
<!-- ComplexStr&#45;&gt;Complex -->
<g id="edge11" class="edge">
<title>ComplexStr&#45;&gt;Complex</title>
<path fill="none" stroke="#000000" d="M424.94,-108.3C425.16,-116.02 425.43,-125.29 425.67,-133.89"/>
<polygon fill="#000000" stroke="#000000" points="422.17,-134 425.96,-143.9 429.17,-133.8 422.17,-134"/>
</g>
<!-- Rational -->
<g id="node14" class="node">
<title>Rational</title>
<g id="a_node14"><a xlink:href="/type/Rational" xlink:title="Rational">
<ellipse fill="none" stroke="#6666ff" cx="47.45" cy="-162" rx="47.39" ry="18"/>
<text text-anchor="middle" x="47.45" y="-158.3" font-family="FreeSans" font-size="14.00" fill="#6666ff">Rational</text>
</a>
</g>
</g>
<!-- Rational&#45;&gt;Real -->
<g id="edge21" class="edge">
<title>Rational&#45;&gt;Real</title>
<path fill="none" stroke="#6666ff" d="M70.56,-177.85C87.27,-188.58 109.95,-203.14 127.81,-214.61"/>
<polygon fill="#6666ff" stroke="#6666ff" points="126.35,-217.83 136.65,-220.29 130.13,-211.94 126.35,-217.83"/>
</g>
<!-- Rat -->
<g id="node15" class="node">
<title>Rat</title>
<g id="a_node15"><a xlink:href="/type/Rat" xlink:title="Rat">
<ellipse fill="none" stroke="#000000" cx="77.45" cy="-90" rx="27" ry="18"/>
<text text-anchor="middle" x="77.45" y="-86.3" font-family="FreeSans" font-size="14.00" fill="#000000">Rat</text>
</a>
</g>
</g>
<!-- Rat&#45;&gt;Cool -->
<g id="edge13" class="edge">
<title>Rat&#45;&gt;Cool</title>
<path fill="none" stroke="#000000" d="M97.75,-101.98C126.46,-117.51 175.45,-144 175.45,-144 175.45,-144 205.86,-182.67 226.59,-209.03"/>
<polygon fill="#000000" stroke="#000000" points="224,-211.39 232.93,-217.09 229.5,-207.06 224,-211.39"/>
</g>
<!-- Rat&#45;&gt;Rational -->
<g id="edge22" class="edge">
<title>Rat&#45;&gt;Rational</title>
<path fill="none" stroke="#6666ff" d="M70.34,-107.59C66.88,-115.66 62.63,-125.57 58.74,-134.65"/>
<polygon fill="#6666ff" stroke="#6666ff" points="55.43,-133.47 54.71,-144.04 61.87,-136.23 55.43,-133.47"/>
</g>
<!-- RatStr -->
<g id="node16" class="node">
<title>RatStr</title>
<g id="a_node16"><a xlink:href="/type/RatStr" xlink:title="RatStr">
<ellipse fill="none" stroke="#000000" cx="204.45" cy="-18" rx="38.99" ry="18"/>
<text text-anchor="middle" x="204.45" y="-14.3" font-family="FreeSans" font-size="14.00" fill="#000000">RatStr</text>
</a>
</g>
</g>
<!-- RatStr&#45;&gt;Str -->
<g id="edge15" class="edge">
<title>RatStr&#45;&gt;Str</title>
<path fill="none" stroke="#000000" d="M230.31,-31.69C262.27,-47.37 312.45,-72 312.45,-72 312.45,-72 320.1,-107.83 325.69,-134.03"/>
<polygon fill="#000000" stroke="#000000" points="322.27,-134.79 327.78,-143.84 329.12,-133.33 322.27,-134.79"/>
</g>
<!-- RatStr&#45;&gt;Rat -->
<g id="edge14" class="edge">
<title>RatStr&#45;&gt;Rat</title>
<path fill="none" stroke="#000000" d="M180.26,-32.33C159.35,-43.85 129.07,-60.54 106.78,-72.83"/>
<polygon fill="#000000" stroke="#000000" points="104.84,-69.9 97.77,-77.8 108.22,-76.03 104.84,-69.9"/>
</g>
</g>
</svg>
