<?xml version="1.0" encoding="UTF-8" standalone="no"?>
<!DOCTYPE svg PUBLIC "-//W3C//DTD SVG 1.1//EN"
 "http://www.w3.org/Graphics/SVG/1.1/DTD/svg11.dtd">
<!-- Generated by graphviz version 2.42.3 (0)
 -->
<!-- Title: perl6&#45;type&#45;graph Pages: 1 -->
<svg width="384pt" height="404pt"
 viewBox="0.00 0.00 383.67 404.00" xmlns="http://www.w3.org/2000/svg" xmlns:xlink="http://www.w3.org/1999/xlink">
<g id="graph0" class="graph" transform="scale(1 1) rotate(0) translate(4 400)">
<title>perl6&#45;type&#45;graph</title>
<polygon fill="white" stroke="transparent" points="-4,4 -4,-400 379.67,-400 379.67,4 -4,4"/>
<!-- X::Syntax::Variable::IndirectDeclaration -->
<g id="node1" class="node">
<title>X::Syntax::Variable::IndirectDeclaration</title>
<g id="a_node1"><a xlink:href="/type/X::Syntax::Variable::IndirectDeclaration" xlink:title="X::Syntax::Variable::IndirectDeclaration">
<ellipse fill="none" stroke="#000000" cx="187.83" cy="-18" rx="187.67" ry="18"/>
<text text-anchor="middle" x="187.83" y="-14.3" font-family="FreeSans" font-size="14.00" fill="#000000">X::Syntax::Variable::IndirectDeclaration</text>
</a>
</g>
</g>
<!-- Exception -->
<g id="node4" class="node">
<title>Exception</title>
<g id="a_node4"><a xlink:href="/type/Exception" xlink:title="Exception">
<ellipse fill="none" stroke="#000000" cx="210.83" cy="-234" rx="55.49" ry="18"/>
<text text-anchor="middle" x="210.83" y="-230.3" font-family="FreeSans" font-size="14.00" fill="#000000">Exception</text>
</a>
</g>
</g>
<!-- X::Syntax::Variable::IndirectDeclaration&#45;&gt;Exception -->
<g id="edge1" class="edge">
<title>X::Syntax::Variable::IndirectDeclaration&#45;&gt;Exception</title>
<path fill="none" stroke="#000000" d="M185.8,-36.15C186.24,-73.34 195.47,-161.63 203.31,-206.23"/>
<polygon fill="#000000" stroke="#000000" points="199.87,-206.88 205.16,-216.06 206.75,-205.59 199.87,-206.88"/>
</g>
<!-- X::Syntax::Variable::IndirectDeclaration&#45;&gt;Exception -->
<g id="edge2" class="edge">
<title>X::Syntax::Variable::IndirectDeclaration&#45;&gt;Exception</title>
<path fill="none" stroke="#000000" d="M193.55,-36.15C201.07,-73.17 210.76,-160.82 212.58,-205.61"/>
<polygon fill="#000000" stroke="#000000" points="209.09,-205.87 212.87,-215.77 216.09,-205.67 209.09,-205.87"/>
</g>
<!-- X::Syntax -->
<g id="node6" class="node">
<title>X::Syntax</title>
<g id="a_node6"><a xlink:href="/type/X::Syntax" xlink:title="X::Syntax">
<ellipse fill="none" stroke="#6666ff" cx="278.83" cy="-90" rx="53.89" ry="18"/>
<text text-anchor="middle" x="278.83" y="-86.3" font-family="FreeSans" font-size="14.00" fill="#6666ff">X::Syntax</text>
</a>
</g>
</g>
<!-- X::Syntax::Variable::IndirectDeclaration&#45;&gt;X::Syntax -->
<g id="edge7" class="edge">
<title>X::Syntax::Variable::IndirectDeclaration&#45;&gt;X::Syntax</title>
<path fill="none" stroke="#6666ff" d="M209.86,-35.95C221.94,-45.24 237.07,-56.87 250.07,-66.87"/>
<polygon fill="#6666ff" stroke="#6666ff" points="248.19,-69.85 258.26,-73.17 252.46,-64.3 248.19,-69.85"/>
</g>
<!-- Mu -->
<g id="node2" class="node">
<title>Mu</title>
<g id="a_node2"><a xlink:href="/type/Mu" xlink:title="Mu">
<ellipse fill="none" stroke="#000000" cx="210.83" cy="-378" rx="27" ry="18"/>
<text text-anchor="middle" x="210.83" y="-374.3" font-family="FreeSans" font-size="14.00" fill="#000000">Mu</text>
</a>
</g>
</g>
<!-- Any -->
<g id="node3" class="node">
<title>Any</title>
<g id="a_node3"><a xlink:href="/type/Any" xlink:title="Any">
<ellipse fill="none" stroke="#000000" cx="210.83" cy="-306" rx="28.7" ry="18"/>
<text text-anchor="middle" x="210.83" y="-302.3" font-family="FreeSans" font-size="14.00" fill="#000000">Any</text>
</a>
</g>
</g>
<!-- Any&#45;&gt;Mu -->
<g id="edge3" class="edge">
<title>Any&#45;&gt;Mu</title>
<path fill="none" stroke="#000000" d="M210.83,-324.3C210.83,-332.02 210.83,-341.29 210.83,-349.89"/>
<polygon fill="#000000" stroke="#000000" points="207.33,-349.9 210.83,-359.9 214.33,-349.9 207.33,-349.9"/>
</g>
<!-- Exception&#45;&gt;Any -->
<g id="edge4" class="edge">
<title>Exception&#45;&gt;Any</title>
<path fill="none" stroke="#000000" d="M210.83,-252.3C210.83,-260.02 210.83,-269.29 210.83,-277.89"/>
<polygon fill="#000000" stroke="#000000" points="207.33,-277.9 210.83,-287.9 214.33,-277.9 207.33,-277.9"/>
</g>
<!-- X::Comp -->
<g id="node5" class="node">
<title>X::Comp</title>
<g id="a_node5"><a xlink:href="/type/X::Comp" xlink:title="X::Comp">
<ellipse fill="none" stroke="#6666ff" cx="311.83" cy="-162" rx="49.29" ry="18"/>
<text text-anchor="middle" x="311.83" y="-158.3" font-family="FreeSans" font-size="14.00" fill="#6666ff">X::Comp</text>
</a>
</g>
</g>
<!-- X::Comp&#45;&gt;Exception -->
<g id="edge5" class="edge">
<title>X::Comp&#45;&gt;Exception</title>
<path fill="none" stroke="#000000" d="M289.92,-178.19C275.82,-187.96 257.29,-200.8 241.71,-211.6"/>
<polygon fill="#000000" stroke="#000000" points="239.63,-208.78 233.41,-217.36 243.62,-214.54 239.63,-208.78"/>
</g>
<!-- X::Syntax&#45;&gt;Exception -->
<g id="edge6" class="edge">
<title>X::Syntax&#45;&gt;Exception</title>
<path fill="none" stroke="#000000" d="M270.77,-107.85C259.01,-132.4 237.06,-178.23 223.24,-207.09"/>
<polygon fill="#000000" stroke="#000000" points="220.05,-205.64 218.89,-216.18 226.37,-208.67 220.05,-205.64"/>
</g>
<!-- X::Syntax&#45;&gt;X::Comp -->
<g id="edge8" class="edge">
<title>X::Syntax&#45;&gt;X::Comp</title>
<path fill="none" stroke="#6666ff" d="M286.82,-107.95C290.63,-116.03 295.28,-125.88 299.52,-134.89"/>
<polygon fill="#6666ff" stroke="#6666ff" points="296.49,-136.66 303.92,-144.21 302.82,-133.67 296.49,-136.66"/>
</g>
</g>
</svg>
