<?xml version="1.0" encoding="UTF-8" standalone="no"?>
<!DOCTYPE svg PUBLIC "-//W3C//DTD SVG 1.1//EN"
 "http://www.w3.org/Graphics/SVG/1.1/DTD/svg11.dtd">
<!-- Generated by graphviz version 2.42.3 (0)
 -->
<!-- Title: perl6&#45;type&#45;graph Pages: 1 -->
<svg width="480pt" height="72pt"
 viewBox="0.00 0.00 479.61 72.32" xmlns="http://www.w3.org/2000/svg" xmlns:xlink="http://www.w3.org/1999/xlink">
<g id="graph0" class="graph" transform="scale(1 1) rotate(0) translate(4 68.32)">
<title>perl6&#45;type&#45;graph</title>
<polygon fill="white" stroke="transparent" points="-4,4 -4,-68.32 475.61,-68.32 475.61,4 -4,4"/>
<!-- Metamodel::StaticLexPad -->
<g id="node1" class="node">
<title>Metamodel::StaticLexPad</title>
<g id="a_node1"><a xlink:href="/type/Metamodel::StaticLexPad" xlink:title="Metamodel::StaticLexPad">
<ellipse fill="none" stroke="#000000" cx="124.14" cy="-39.81" rx="124.28" ry="18"/>
<text text-anchor="middle" x="124.14" y="-36.11" font-family="FreeSans" font-size="14.00" fill="#000000">Metamodel::StaticLexPad</text>
</a>
</g>
</g>
<!-- Any -->
<g id="node3" class="node">
<title>Any</title>
<g id="a_node3"><a xlink:href="/type/Any" xlink:title="Any">
<ellipse fill="none" stroke="#000000" cx="284.89" cy="-18" rx="28.7" ry="18"/>
<text text-anchor="middle" x="284.89" y="-14.3" font-family="FreeSans" font-size="14.00" fill="#000000">Any</text>
</a>
</g>
</g>
<!-- Metamodel::StaticLexPad&#45;&gt;Any -->
<g id="edge1" class="edge">
<title>Metamodel::StaticLexPad&#45;&gt;Any</title>
<path fill="none" stroke="#000000" d="M214.85,-27.5C226.04,-25.98 236.96,-24.5 246.72,-23.18"/>
<polygon fill="#000000" stroke="#000000" points="247.38,-26.62 256.82,-21.81 246.44,-19.68 247.38,-26.62"/>
</g>
<!-- Mu -->
<g id="node2" class="node">
<title>Mu</title>
<g id="a_node2"><a xlink:href="/type/Mu" xlink:title="Mu">
<ellipse fill="none" stroke="#000000" cx="444.61" cy="-46.32" rx="27" ry="18"/>
<text text-anchor="middle" x="444.61" y="-42.62" font-family="FreeSans" font-size="14.00" fill="#000000">Mu</text>
</a>
</g>
</g>
<!-- Any&#45;&gt;Mu -->
<g id="edge2" class="edge">
<title>Any&#45;&gt;Mu</title>
<path fill="none" stroke="#000000" d="M312.71,-22.93C339.22,-27.63 379.27,-34.74 408.29,-39.88"/>
<polygon fill="#000000" stroke="#000000" points="407.98,-43.38 418.43,-41.68 409.2,-36.49 407.98,-43.38"/>
</g>
</g>
</svg>
