<?xml version="1.0" encoding="UTF-8" standalone="no"?>
<!DOCTYPE svg PUBLIC "-//W3C//DTD SVG 1.1//EN"
 "http://www.w3.org/Graphics/SVG/1.1/DTD/svg11.dtd">
<!-- Generated by graphviz version 2.42.3 (0)
 -->
<!-- Title: perl6&#45;type&#45;graph Pages: 1 -->
<svg width="308pt" height="404pt"
 viewBox="0.00 0.00 308.13 404.00" xmlns="http://www.w3.org/2000/svg" xmlns:xlink="http://www.w3.org/1999/xlink">
<g id="graph0" class="graph" transform="scale(1 1) rotate(0) translate(4 400)">
<title>perl6&#45;type&#45;graph</title>
<polygon fill="white" stroke="transparent" points="-4,4 -4,-400 304.13,-400 304.13,4 -4,4"/>
<!-- X::Syntax::Regex::Adverb -->
<g id="node1" class="node">
<title>X::Syntax::Regex::Adverb</title>
<g id="a_node1"><a xlink:href="/type/X::Syntax::Regex::Adverb" xlink:title="X::Syntax::Regex::Adverb">
<ellipse fill="none" stroke="#000000" cx="126.74" cy="-18" rx="126.98" ry="18"/>
<text text-anchor="middle" x="126.74" y="-14.3" font-family="FreeSans" font-size="14.00" fill="#000000">X::Syntax::Regex::Adverb</text>
</a>
</g>
</g>
<!-- Exception -->
<g id="node4" class="node">
<title>Exception</title>
<g id="a_node4"><a xlink:href="/type/Exception" xlink:title="Exception">
<ellipse fill="none" stroke="#000000" cx="149.74" cy="-234" rx="55.49" ry="18"/>
<text text-anchor="middle" x="149.74" y="-230.3" font-family="FreeSans" font-size="14.00" fill="#000000">Exception</text>
</a>
</g>
</g>
<!-- X::Syntax::Regex::Adverb&#45;&gt;Exception -->
<g id="edge1" class="edge">
<title>X::Syntax::Regex::Adverb&#45;&gt;Exception</title>
<path fill="none" stroke="#000000" d="M124.7,-36.15C125.15,-73.34 134.38,-161.63 142.21,-206.23"/>
<polygon fill="#000000" stroke="#000000" points="138.77,-206.88 144.06,-216.06 145.65,-205.59 138.77,-206.88"/>
</g>
<!-- X::Syntax::Regex::Adverb&#45;&gt;Exception -->
<g id="edge2" class="edge">
<title>X::Syntax::Regex::Adverb&#45;&gt;Exception</title>
<path fill="none" stroke="#000000" d="M132.46,-36.15C139.97,-73.17 149.67,-160.82 151.49,-205.61"/>
<polygon fill="#000000" stroke="#000000" points="147.99,-205.87 151.77,-215.77 154.99,-205.67 147.99,-205.87"/>
</g>
<!-- X::Syntax -->
<g id="node6" class="node">
<title>X::Syntax</title>
<g id="a_node6"><a xlink:href="/type/X::Syntax" xlink:title="X::Syntax">
<ellipse fill="none" stroke="#6666ff" cx="217.74" cy="-90" rx="53.89" ry="18"/>
<text text-anchor="middle" x="217.74" y="-86.3" font-family="FreeSans" font-size="14.00" fill="#6666ff">X::Syntax</text>
</a>
</g>
</g>
<!-- X::Syntax::Regex::Adverb&#45;&gt;X::Syntax -->
<g id="edge7" class="edge">
<title>X::Syntax::Regex::Adverb&#45;&gt;X::Syntax</title>
<path fill="none" stroke="#6666ff" d="M148.77,-35.95C160.85,-45.24 175.97,-56.87 188.97,-66.87"/>
<polygon fill="#6666ff" stroke="#6666ff" points="187.1,-69.85 197.16,-73.17 191.37,-64.3 187.1,-69.85"/>
</g>
<!-- Mu -->
<g id="node2" class="node">
<title>Mu</title>
<g id="a_node2"><a xlink:href="/type/Mu" xlink:title="Mu">
<ellipse fill="none" stroke="#000000" cx="149.74" cy="-378" rx="27" ry="18"/>
<text text-anchor="middle" x="149.74" y="-374.3" font-family="FreeSans" font-size="14.00" fill="#000000">Mu</text>
</a>
</g>
</g>
<!-- Any -->
<g id="node3" class="node">
<title>Any</title>
<g id="a_node3"><a xlink:href="/type/Any" xlink:title="Any">
<ellipse fill="none" stroke="#000000" cx="149.74" cy="-306" rx="28.7" ry="18"/>
<text text-anchor="middle" x="149.74" y="-302.3" font-family="FreeSans" font-size="14.00" fill="#000000">Any</text>
</a>
</g>
</g>
<!-- Any&#45;&gt;Mu -->
<g id="edge3" class="edge">
<title>Any&#45;&gt;Mu</title>
<path fill="none" stroke="#000000" d="M149.74,-324.3C149.74,-332.02 149.74,-341.29 149.74,-349.89"/>
<polygon fill="#000000" stroke="#000000" points="146.24,-349.9 149.74,-359.9 153.24,-349.9 146.24,-349.9"/>
</g>
<!-- Exception&#45;&gt;Any -->
<g id="edge4" class="edge">
<title>Exception&#45;&gt;Any</title>
<path fill="none" stroke="#000000" d="M149.74,-252.3C149.74,-260.02 149.74,-269.29 149.74,-277.89"/>
<polygon fill="#000000" stroke="#000000" points="146.24,-277.9 149.74,-287.9 153.24,-277.9 146.24,-277.9"/>
</g>
<!-- X::Comp -->
<g id="node5" class="node">
<title>X::Comp</title>
<g id="a_node5"><a xlink:href="/type/X::Comp" xlink:title="X::Comp">
<ellipse fill="none" stroke="#6666ff" cx="250.74" cy="-162" rx="49.29" ry="18"/>
<text text-anchor="middle" x="250.74" y="-158.3" font-family="FreeSans" font-size="14.00" fill="#6666ff">X::Comp</text>
</a>
</g>
</g>
<!-- X::Comp&#45;&gt;Exception -->
<g id="edge5" class="edge">
<title>X::Comp&#45;&gt;Exception</title>
<path fill="none" stroke="#000000" d="M228.82,-178.19C214.73,-187.96 196.19,-200.8 180.62,-211.6"/>
<polygon fill="#000000" stroke="#000000" points="178.54,-208.78 172.31,-217.36 182.52,-214.54 178.54,-208.78"/>
</g>
<!-- X::Syntax&#45;&gt;Exception -->
<g id="edge6" class="edge">
<title>X::Syntax&#45;&gt;Exception</title>
<path fill="none" stroke="#000000" d="M209.67,-107.85C197.91,-132.4 175.97,-178.23 162.15,-207.09"/>
<polygon fill="#000000" stroke="#000000" points="158.96,-205.64 157.8,-216.18 165.27,-208.67 158.96,-205.64"/>
</g>
<!-- X::Syntax&#45;&gt;X::Comp -->
<g id="edge8" class="edge">
<title>X::Syntax&#45;&gt;X::Comp</title>
<path fill="none" stroke="#6666ff" d="M225.73,-107.95C229.54,-116.03 234.18,-125.88 238.43,-134.89"/>
<polygon fill="#6666ff" stroke="#6666ff" points="235.39,-136.66 242.82,-144.21 241.73,-133.67 235.39,-136.66"/>
</g>
</g>
</svg>
