<?xml version="1.0" encoding="UTF-8" standalone="no"?>
<!DOCTYPE svg PUBLIC "-//W3C//DTD SVG 1.1//EN"
 "http://www.w3.org/Graphics/SVG/1.1/DTD/svg11.dtd">
<!-- Generated by graphviz version 2.42.3 (0)
 -->
<!-- Title: perl6&#45;type&#45;graph Pages: 1 -->
<svg width="266pt" height="332pt"
 viewBox="0.00 0.00 266.39 332.00" xmlns="http://www.w3.org/2000/svg" xmlns:xlink="http://www.w3.org/1999/xlink">
<g id="graph0" class="graph" transform="scale(1 1) rotate(0) translate(4 328)">
<title>perl6&#45;type&#45;graph</title>
<polygon fill="white" stroke="transparent" points="-4,4 -4,-328 262.39,-328 262.39,4 -4,4"/>
<!-- X::AdHoc -->
<g id="node1" class="node">
<title>X::AdHoc</title>
<g id="a_node1"><a xlink:href="/type/X::AdHoc" xlink:title="X::AdHoc">
<ellipse fill="none" stroke="#000000" cx="52" cy="-90" rx="51.99" ry="18"/>
<text text-anchor="middle" x="52" y="-86.3" font-family="FreeSans" font-size="14.00" fill="#000000">X::AdHoc</text>
</a>
</g>
</g>
<!-- Exception -->
<g id="node4" class="node">
<title>Exception</title>
<g id="a_node4"><a xlink:href="/type/Exception" xlink:title="Exception">
<ellipse fill="none" stroke="#000000" cx="132" cy="-162" rx="55.49" ry="18"/>
<text text-anchor="middle" x="132" y="-158.3" font-family="FreeSans" font-size="14.00" fill="#000000">Exception</text>
</a>
</g>
</g>
<!-- X::AdHoc&#45;&gt;Exception -->
<g id="edge1" class="edge">
<title>X::AdHoc&#45;&gt;Exception</title>
<path fill="none" stroke="#000000" d="M70.15,-106.88C80.71,-116.13 94.21,-127.93 105.89,-138.16"/>
<polygon fill="#000000" stroke="#000000" points="103.81,-140.99 113.64,-144.94 108.42,-135.72 103.81,-140.99"/>
</g>
<!-- Mu -->
<g id="node2" class="node">
<title>Mu</title>
<g id="a_node2"><a xlink:href="/type/Mu" xlink:title="Mu">
<ellipse fill="none" stroke="#000000" cx="132" cy="-306" rx="27" ry="18"/>
<text text-anchor="middle" x="132" y="-302.3" font-family="FreeSans" font-size="14.00" fill="#000000">Mu</text>
</a>
</g>
</g>
<!-- Any -->
<g id="node3" class="node">
<title>Any</title>
<g id="a_node3"><a xlink:href="/type/Any" xlink:title="Any">
<ellipse fill="none" stroke="#000000" cx="132" cy="-234" rx="28.7" ry="18"/>
<text text-anchor="middle" x="132" y="-230.3" font-family="FreeSans" font-size="14.00" fill="#000000">Any</text>
</a>
</g>
</g>
<!-- Any&#45;&gt;Mu -->
<g id="edge2" class="edge">
<title>Any&#45;&gt;Mu</title>
<path fill="none" stroke="#000000" d="M132,-252.3C132,-260.02 132,-269.29 132,-277.89"/>
<polygon fill="#000000" stroke="#000000" points="128.5,-277.9 132,-287.9 135.5,-277.9 128.5,-277.9"/>
</g>
<!-- Exception&#45;&gt;Any -->
<g id="edge3" class="edge">
<title>Exception&#45;&gt;Any</title>
<path fill="none" stroke="#000000" d="M132,-180.3C132,-188.02 132,-197.29 132,-205.89"/>
<polygon fill="#000000" stroke="#000000" points="128.5,-205.9 132,-215.9 135.5,-205.9 128.5,-205.9"/>
</g>
<!-- X::Comp -->
<g id="node5" class="node">
<title>X::Comp</title>
<g id="a_node5"><a xlink:href="/type/X::Comp" xlink:title="X::Comp">
<ellipse fill="none" stroke="#6666ff" cx="209" cy="-90" rx="49.29" ry="18"/>
<text text-anchor="middle" x="209" y="-86.3" font-family="FreeSans" font-size="14.00" fill="#6666ff">X::Comp</text>
</a>
</g>
</g>
<!-- X::Comp&#45;&gt;Exception -->
<g id="edge4" class="edge">
<title>X::Comp&#45;&gt;Exception</title>
<path fill="none" stroke="#000000" d="M191.52,-106.88C181.36,-116.13 168.37,-127.93 157.12,-138.16"/>
<polygon fill="#000000" stroke="#000000" points="154.71,-135.62 149.67,-144.94 159.42,-140.8 154.71,-135.62"/>
</g>
<!-- X::Comp::AdHoc -->
<g id="node6" class="node">
<title>X::Comp::AdHoc</title>
<g id="a_node6"><a xlink:href="/type/X::Comp::AdHoc" xlink:title="X::Comp::AdHoc">
<ellipse fill="none" stroke="#000000" cx="132" cy="-18" rx="84.49" ry="18"/>
<text text-anchor="middle" x="132" y="-14.3" font-family="FreeSans" font-size="14.00" fill="#000000">X::Comp::AdHoc</text>
</a>
</g>
</g>
<!-- X::Comp::AdHoc&#45;&gt;X::AdHoc -->
<g id="edge5" class="edge">
<title>X::Comp::AdHoc&#45;&gt;X::AdHoc</title>
<path fill="none" stroke="#000000" d="M113.04,-35.59C102.52,-44.79 89.3,-56.36 77.85,-66.37"/>
<polygon fill="#000000" stroke="#000000" points="75.49,-63.79 70.27,-73.01 80.1,-69.06 75.49,-63.79"/>
</g>
<!-- X::Comp::AdHoc&#45;&gt;Exception -->
<g id="edge6" class="edge">
<title>X::Comp::AdHoc&#45;&gt;Exception</title>
<path fill="none" stroke="#000000" d="M132,-36.13C132,-60.33 132,-104.79 132,-133.61"/>
<polygon fill="#000000" stroke="#000000" points="128.5,-133.81 132,-143.81 135.5,-133.81 128.5,-133.81"/>
</g>
<!-- X::Comp::AdHoc&#45;&gt;X::Comp -->
<g id="edge7" class="edge">
<title>X::Comp::AdHoc&#45;&gt;X::Comp</title>
<path fill="none" stroke="#6666ff" d="M150.24,-35.59C160.26,-44.7 172.84,-56.13 183.79,-66.08"/>
<polygon fill="#6666ff" stroke="#6666ff" points="181.65,-68.87 191.41,-73.01 186.36,-63.7 181.65,-68.87"/>
</g>
</g>
</svg>
