<?xml version="1.0" encoding="UTF-8" standalone="no"?>
<!DOCTYPE svg PUBLIC "-//W3C//DTD SVG 1.1//EN"
 "http://www.w3.org/Graphics/SVG/1.1/DTD/svg11.dtd">
<!-- Generated by graphviz version 2.42.3 (0)
 -->
<!-- Title: perl6&#45;type&#45;graph Pages: 1 -->
<svg width="1265pt" height="332pt"
 viewBox="0.00 0.00 1265.39 332.00" xmlns="http://www.w3.org/2000/svg" xmlns:xlink="http://www.w3.org/1999/xlink">
<g id="graph0" class="graph" transform="scale(1 1) rotate(0) translate(4 328)">
<title>perl6&#45;type&#45;graph</title>
<polygon fill="white" stroke="transparent" points="-4,4 -4,-328 1261.39,-328 1261.39,4 -4,4"/>
<!-- X::Control -->
<g id="node1" class="node">
<title>X::Control</title>
<g id="a_node1"><a xlink:href="/type/X::Control" xlink:title="X::Control">
<ellipse fill="none" stroke="#6666ff" cx="669.1" cy="-90" rx="55.49" ry="18"/>
<text text-anchor="middle" x="669.1" y="-86.3" font-family="FreeSans" font-size="14.00" fill="#6666ff">X::Control</text>
</a>
</g>
</g>
<!-- Exception -->
<g id="node4" class="node">
<title>Exception</title>
<g id="a_node4"><a xlink:href="/type/Exception" xlink:title="Exception">
<ellipse fill="none" stroke="#000000" cx="710.1" cy="-162" rx="55.49" ry="18"/>
<text text-anchor="middle" x="710.1" y="-158.3" font-family="FreeSans" font-size="14.00" fill="#000000">Exception</text>
</a>
</g>
</g>
<!-- X::Control&#45;&gt;Exception -->
<g id="edge1" class="edge">
<title>X::Control&#45;&gt;Exception</title>
<path fill="none" stroke="#000000" d="M679.02,-107.95C683.86,-116.2 689.77,-126.3 695.14,-135.46"/>
<polygon fill="#000000" stroke="#000000" points="692.19,-137.35 700.26,-144.21 698.23,-133.81 692.19,-137.35"/>
</g>
<!-- Mu -->
<g id="node2" class="node">
<title>Mu</title>
<g id="a_node2"><a xlink:href="/type/Mu" xlink:title="Mu">
<ellipse fill="none" stroke="#000000" cx="710.1" cy="-306" rx="27" ry="18"/>
<text text-anchor="middle" x="710.1" y="-302.3" font-family="FreeSans" font-size="14.00" fill="#000000">Mu</text>
</a>
</g>
</g>
<!-- Any -->
<g id="node3" class="node">
<title>Any</title>
<g id="a_node3"><a xlink:href="/type/Any" xlink:title="Any">
<ellipse fill="none" stroke="#000000" cx="710.1" cy="-234" rx="28.7" ry="18"/>
<text text-anchor="middle" x="710.1" y="-230.3" font-family="FreeSans" font-size="14.00" fill="#000000">Any</text>
</a>
</g>
</g>
<!-- Any&#45;&gt;Mu -->
<g id="edge2" class="edge">
<title>Any&#45;&gt;Mu</title>
<path fill="none" stroke="#000000" d="M710.1,-252.3C710.1,-260.02 710.1,-269.29 710.1,-277.89"/>
<polygon fill="#000000" stroke="#000000" points="706.6,-277.9 710.1,-287.9 713.6,-277.9 706.6,-277.9"/>
</g>
<!-- Exception&#45;&gt;Any -->
<g id="edge3" class="edge">
<title>Exception&#45;&gt;Any</title>
<path fill="none" stroke="#000000" d="M710.1,-180.3C710.1,-188.02 710.1,-197.29 710.1,-205.89"/>
<polygon fill="#000000" stroke="#000000" points="706.6,-205.9 710.1,-215.9 713.6,-205.9 706.6,-205.9"/>
</g>
<!-- CX::Last -->
<g id="node5" class="node">
<title>CX::Last</title>
<g id="a_node5"><a xlink:href="/type/CX::Last" xlink:title="CX::Last">
<ellipse fill="none" stroke="#000000" cx="48.1" cy="-18" rx="48.19" ry="18"/>
<text text-anchor="middle" x="48.1" y="-14.3" font-family="FreeSans" font-size="14.00" fill="#000000">CX::Last</text>
</a>
</g>
</g>
<!-- CX::Last&#45;&gt;X::Control -->
<g id="edge15" class="edge">
<title>CX::Last&#45;&gt;X::Control</title>
<path fill="none" stroke="#6666ff" d="M84.52,-29.86C95.69,-33.19 105.1,-36 105.1,-36 105.1,-36 459.75,-69.33 606.59,-83.13"/>
<polygon fill="#6666ff" stroke="#6666ff" points="606.51,-86.63 616.79,-84.09 607.17,-79.66 606.51,-86.63"/>
</g>
<!-- CX::Last&#45;&gt;Exception -->
<g id="edge4" class="edge">
<title>CX::Last&#45;&gt;Exception</title>
<path fill="none" stroke="#000000" d="M83.65,-30.18C159.66,-54.09 331.1,-108 331.1,-108 331.1,-108 543.33,-137.68 650.16,-152.62"/>
<polygon fill="#000000" stroke="#000000" points="649.77,-156.1 660.16,-154.02 650.74,-149.17 649.77,-156.1"/>
</g>
<!-- CX::Return -->
<g id="node6" class="node">
<title>CX::Return</title>
<g id="a_node6"><a xlink:href="/type/CX::Return" xlink:title="CX::Return">
<ellipse fill="none" stroke="#000000" cx="174.1" cy="-18" rx="59.59" ry="18"/>
<text text-anchor="middle" x="174.1" y="-14.3" font-family="FreeSans" font-size="14.00" fill="#000000">CX::Return</text>
</a>
</g>
</g>
<!-- CX::Return&#45;&gt;X::Control -->
<g id="edge16" class="edge">
<title>CX::Return&#45;&gt;X::Control</title>
<path fill="none" stroke="#6666ff" d="M218.69,-30.15C231.51,-33.35 242.1,-36 242.1,-36 242.1,-36 490.63,-66.85 608.47,-81.48"/>
<polygon fill="#6666ff" stroke="#6666ff" points="608.08,-84.95 618.44,-82.71 608.94,-78.01 608.08,-84.95"/>
</g>
<!-- CX::Return&#45;&gt;Exception -->
<g id="edge5" class="edge">
<title>CX::Return&#45;&gt;Exception</title>
<path fill="none" stroke="#000000" d="M212.18,-32.04C284.4,-56.76 434.1,-108 434.1,-108 434.1,-108 572.81,-134.64 653.56,-150.14"/>
<polygon fill="#000000" stroke="#000000" points="653.11,-153.62 663.59,-152.07 654.43,-146.75 653.11,-153.62"/>
</g>
<!-- CX::Done -->
<g id="node7" class="node">
<title>CX::Done</title>
<g id="a_node7"><a xlink:href="/type/CX::Done" xlink:title="CX::Done">
<ellipse fill="none" stroke="#000000" cx="304.1" cy="-18" rx="52.79" ry="18"/>
<text text-anchor="middle" x="304.1" y="-14.3" font-family="FreeSans" font-size="14.00" fill="#000000">CX::Done</text>
</a>
</g>
</g>
<!-- CX::Done&#45;&gt;X::Control -->
<g id="edge17" class="edge">
<title>CX::Done&#45;&gt;X::Control</title>
<path fill="none" stroke="#6666ff" d="M343.71,-29.86C355.86,-33.19 366.1,-36 366.1,-36 366.1,-36 523.8,-63.58 611.66,-78.95"/>
<polygon fill="#6666ff" stroke="#6666ff" points="611.3,-82.44 621.75,-80.72 612.5,-75.55 611.3,-82.44"/>
</g>
<!-- CX::Done&#45;&gt;Exception -->
<g id="edge6" class="edge">
<title>CX::Done&#45;&gt;Exception</title>
<path fill="none" stroke="#000000" d="M336.43,-32.32C396.69,-57.15 520.1,-108 520.1,-108 520.1,-108 603.23,-131.19 659.51,-146.89"/>
<polygon fill="#000000" stroke="#000000" points="658.76,-150.31 669.34,-149.63 660.64,-143.57 658.76,-150.31"/>
</g>
<!-- CX::Emit -->
<g id="node8" class="node">
<title>CX::Emit</title>
<g id="a_node8"><a xlink:href="/type/CX::Emit" xlink:title="CX::Emit">
<ellipse fill="none" stroke="#000000" cx="425.1" cy="-18" rx="50.09" ry="18"/>
<text text-anchor="middle" x="425.1" y="-14.3" font-family="FreeSans" font-size="14.00" fill="#000000">CX::Emit</text>
</a>
</g>
</g>
<!-- CX::Emit&#45;&gt;X::Control -->
<g id="edge18" class="edge">
<title>CX::Emit&#45;&gt;X::Control</title>
<path fill="none" stroke="#6666ff" d="M462.8,-29.86C474.36,-33.19 484.1,-36 484.1,-36 484.1,-36 564.25,-58.96 619.04,-74.66"/>
<polygon fill="#6666ff" stroke="#6666ff" points="618.38,-78.11 628.95,-77.5 620.3,-71.38 618.38,-78.11"/>
</g>
<!-- CX::Emit&#45;&gt;Exception -->
<g id="edge7" class="edge">
<title>CX::Emit&#45;&gt;Exception</title>
<path fill="none" stroke="#000000" d="M451,-33.5C496.05,-58.72 584.1,-108 584.1,-108 584.1,-108 631.47,-127.93 668.12,-143.34"/>
<polygon fill="#000000" stroke="#000000" points="667.07,-146.7 677.65,-147.35 669.79,-140.25 667.07,-146.7"/>
</g>
<!-- CX::Proceed -->
<g id="node9" class="node">
<title>CX::Proceed</title>
<g id="a_node9"><a xlink:href="/type/CX::Proceed" xlink:title="CX::Proceed">
<ellipse fill="none" stroke="#000000" cx="558.1" cy="-18" rx="64.99" ry="18"/>
<text text-anchor="middle" x="558.1" y="-14.3" font-family="FreeSans" font-size="14.00" fill="#000000">CX::Proceed</text>
</a>
</g>
</g>
<!-- CX::Proceed&#45;&gt;X::Control -->
<g id="edge19" class="edge">
<title>CX::Proceed&#45;&gt;X::Control</title>
<path fill="none" stroke="#6666ff" d="M583.01,-34.71C598.68,-44.6 619.09,-57.47 636.11,-68.2"/>
<polygon fill="#6666ff" stroke="#6666ff" points="634.32,-71.21 644.65,-73.58 638.06,-65.29 634.32,-71.21"/>
</g>
<!-- CX::Proceed&#45;&gt;Exception -->
<g id="edge8" class="edge">
<title>CX::Proceed&#45;&gt;Exception</title>
<path fill="none" stroke="#000000" d="M567.16,-36.16C580.82,-62.02 605.1,-108 605.1,-108 605.1,-108 642.23,-126.75 672.34,-141.94"/>
<polygon fill="#000000" stroke="#000000" points="670.9,-145.14 681.4,-146.52 674.05,-138.89 670.9,-145.14"/>
</g>
<!-- CX::Take -->
<g id="node10" class="node">
<title>CX::Take</title>
<g id="a_node10"><a xlink:href="/type/CX::Take" xlink:title="CX::Take">
<ellipse fill="none" stroke="#000000" cx="690.1" cy="-18" rx="49.29" ry="18"/>
<text text-anchor="middle" x="690.1" y="-14.3" font-family="FreeSans" font-size="14.00" fill="#000000">CX::Take</text>
</a>
</g>
</g>
<!-- CX::Take&#45;&gt;X::Control -->
<g id="edge20" class="edge">
<title>CX::Take&#45;&gt;X::Control</title>
<path fill="none" stroke="#6666ff" d="M685.01,-35.95C682.67,-43.74 679.84,-53.18 677.22,-61.92"/>
<polygon fill="#6666ff" stroke="#6666ff" points="673.8,-61.14 674.28,-71.72 680.5,-63.15 673.8,-61.14"/>
</g>
<!-- CX::Take&#45;&gt;Exception -->
<g id="edge9" class="edge">
<title>CX::Take&#45;&gt;Exception</title>
<path fill="none" stroke="#000000" d="M703.47,-35.48C716.09,-51.04 733.1,-72 733.1,-72 733.1,-72 733.1,-108 733.1,-108 733.1,-108 727.35,-121.24 721.6,-134.48"/>
<polygon fill="#000000" stroke="#000000" points="718.27,-133.37 717.5,-143.94 724.69,-136.16 718.27,-133.37"/>
</g>
<!-- CX::Next -->
<g id="node11" class="node">
<title>CX::Next</title>
<g id="a_node11"><a xlink:href="/type/CX::Next" xlink:title="CX::Next">
<ellipse fill="none" stroke="#000000" cx="807.1" cy="-18" rx="50.09" ry="18"/>
<text text-anchor="middle" x="807.1" y="-14.3" font-family="FreeSans" font-size="14.00" fill="#000000">CX::Next</text>
</a>
</g>
</g>
<!-- CX::Next&#45;&gt;X::Control -->
<g id="edge21" class="edge">
<title>CX::Next&#45;&gt;X::Control</title>
<path fill="none" stroke="#6666ff" d="M779.17,-33.17C758.4,-43.7 729.83,-58.19 707,-69.77"/>
<polygon fill="#6666ff" stroke="#6666ff" points="705.27,-66.73 697.93,-74.37 708.43,-72.97 705.27,-66.73"/>
</g>
<!-- CX::Next&#45;&gt;Exception -->
<g id="edge10" class="edge">
<title>CX::Next&#45;&gt;Exception</title>
<path fill="none" stroke="#000000" d="M795.81,-35.74C778.43,-61.52 747.1,-108 747.1,-108 747.1,-108 737.18,-122.2 727.62,-135.9"/>
<polygon fill="#000000" stroke="#000000" points="724.66,-134.03 721.8,-144.23 730.4,-138.03 724.66,-134.03"/>
</g>
<!-- CX::Succeed -->
<g id="node12" class="node">
<title>CX::Succeed</title>
<g id="a_node12"><a xlink:href="/type/CX::Succeed" xlink:title="CX::Succeed">
<ellipse fill="none" stroke="#000000" cx="943.1" cy="-18" rx="67.69" ry="18"/>
<text text-anchor="middle" x="943.1" y="-14.3" font-family="FreeSans" font-size="14.00" fill="#000000">CX::Succeed</text>
</a>
</g>
</g>
<!-- CX::Succeed&#45;&gt;X::Control -->
<g id="edge22" class="edge">
<title>CX::Succeed&#45;&gt;X::Control</title>
<path fill="none" stroke="#6666ff" d="M895.99,-31.03C847.22,-43.49 771.24,-62.91 720.82,-75.78"/>
<polygon fill="#6666ff" stroke="#6666ff" points="719.92,-72.4 711.1,-78.27 721.65,-79.19 719.92,-72.4"/>
</g>
<!-- CX::Succeed&#45;&gt;Exception -->
<g id="edge11" class="edge">
<title>CX::Succeed&#45;&gt;Exception</title>
<path fill="none" stroke="#000000" d="M917.27,-34.74C874.86,-60.59 790.5,-112 743.56,-140.6"/>
<polygon fill="#000000" stroke="#000000" points="741.7,-137.64 734.98,-145.84 745.34,-143.62 741.7,-137.64"/>
</g>
<!-- CX::Redo -->
<g id="node13" class="node">
<title>CX::Redo</title>
<g id="a_node13"><a xlink:href="/type/CX::Redo" xlink:title="CX::Redo">
<ellipse fill="none" stroke="#000000" cx="1081.1" cy="-18" rx="51.99" ry="18"/>
<text text-anchor="middle" x="1081.1" y="-14.3" font-family="FreeSans" font-size="14.00" fill="#000000">CX::Redo</text>
</a>
</g>
</g>
<!-- CX::Redo&#45;&gt;X::Control -->
<g id="edge23" class="edge">
<title>CX::Redo&#45;&gt;X::Control</title>
<path fill="none" stroke="#6666ff" d="M1038.53,-28.59C1023.84,-32.45 1011.1,-36 1011.1,-36 1011.1,-36 825,-64.1 727.29,-79.38"/>
<polygon fill="#6666ff" stroke="#6666ff" points="726.6,-75.94 717.26,-80.95 727.68,-82.86 726.6,-75.94"/>
</g>
<!-- CX::Redo&#45;&gt;X::Control -->
<g id="edge24" class="edge">
<title>CX::Redo&#45;&gt;X::Control</title>
<path fill="none" stroke="#6666ff" d="M1045.71,-31.26C1036.47,-33.95 1029.1,-36 1029.1,-36 1029.1,-36 831.45,-65.84 728.98,-80.74"/>
<polygon fill="#6666ff" stroke="#6666ff" points="728.46,-77.28 719.07,-82.18 729.47,-84.21 728.46,-77.28"/>
</g>
<!-- CX::Redo&#45;&gt;Exception -->
<g id="edge12" class="edge">
<title>CX::Redo&#45;&gt;Exception</title>
<path fill="none" stroke="#000000" d="M1045.15,-31.23C975.85,-56.44 824.6,-114.25 751.34,-143.44"/>
<polygon fill="#000000" stroke="#000000" points="749.94,-140.23 741.96,-147.2 752.54,-146.73 749.94,-140.23"/>
</g>
<!-- CX::Redo&#45;&gt;Exception -->
<g id="edge13" class="edge">
<title>CX::Redo&#45;&gt;Exception</title>
<path fill="none" stroke="#000000" d="M1050.02,-32.49C984.6,-58.81 832.89,-116.91 756.15,-145.08"/>
<polygon fill="#000000" stroke="#000000" points="754.92,-141.8 746.73,-148.52 757.32,-148.38 754.92,-141.8"/>
</g>
<!-- CX::Warn -->
<g id="node14" class="node">
<title>CX::Warn</title>
<g id="a_node14"><a xlink:href="/type/CX::Warn" xlink:title="CX::Warn">
<ellipse fill="none" stroke="#000000" cx="1204.1" cy="-18" rx="53.09" ry="18"/>
<text text-anchor="middle" x="1204.1" y="-14.3" font-family="FreeSans" font-size="14.00" fill="#000000">CX::Warn</text>
</a>
</g>
</g>
<!-- CX::Warn&#45;&gt;X::Control -->
<g id="edge25" class="edge">
<title>CX::Warn&#45;&gt;X::Control</title>
<path fill="none" stroke="#6666ff" d="M1164.13,-29.96C1152.13,-33.25 1142.1,-36 1142.1,-36 1142.1,-36 858.76,-67.75 730.67,-82.1"/>
<polygon fill="#6666ff" stroke="#6666ff" points="730.16,-78.64 720.62,-83.23 730.94,-85.59 730.16,-78.64"/>
</g>
<!-- CX::Warn&#45;&gt;Exception -->
<g id="edge14" class="edge">
<title>CX::Warn&#45;&gt;Exception</title>
<path fill="none" stroke="#000000" d="M1166.12,-30.82C1088.32,-55.03 918.1,-108 918.1,-108 918.1,-108 823.76,-132.04 762.15,-147.74"/>
<polygon fill="#000000" stroke="#000000" points="761.01,-144.41 752.19,-150.27 762.74,-151.2 761.01,-144.41"/>
</g>
</g>
</svg>
