<?xml version="1.0" encoding="UTF-8" standalone="no"?>
<!DOCTYPE svg PUBLIC "-//W3C//DTD SVG 1.1//EN"
 "http://www.w3.org/Graphics/SVG/1.1/DTD/svg11.dtd">
<!-- Generated by graphviz version 2.42.3 (0)
 -->
<!-- Title: perl6&#45;type&#45;graph Pages: 1 -->
<svg width="227pt" height="404pt"
 viewBox="0.00 0.00 226.89 404.00" xmlns="http://www.w3.org/2000/svg" xmlns:xlink="http://www.w3.org/1999/xlink">
<g id="graph0" class="graph" transform="scale(1 1) rotate(0) translate(4 400)">
<title>perl6&#45;type&#45;graph</title>
<polygon fill="white" stroke="transparent" points="-4,4 -4,-400 222.89,-400 222.89,4 -4,4"/>
<!-- X::IO::Chmod -->
<g id="node1" class="node">
<title>X::IO::Chmod</title>
<g id="a_node1"><a xlink:href="/type/X::IO::Chmod" xlink:title="X::IO::Chmod">
<ellipse fill="none" stroke="#000000" cx="71.49" cy="-18" rx="71.49" ry="18"/>
<text text-anchor="middle" x="71.49" y="-14.3" font-family="FreeSans" font-size="14.00" fill="#000000">X::IO::Chmod</text>
</a>
</g>
</g>
<!-- Exception -->
<g id="node4" class="node">
<title>Exception</title>
<g id="a_node4"><a xlink:href="/type/Exception" xlink:title="Exception">
<ellipse fill="none" stroke="#000000" cx="94.49" cy="-234" rx="55.49" ry="18"/>
<text text-anchor="middle" x="94.49" y="-230.3" font-family="FreeSans" font-size="14.00" fill="#000000">Exception</text>
</a>
</g>
</g>
<!-- X::IO::Chmod&#45;&gt;Exception -->
<g id="edge1" class="edge">
<title>X::IO::Chmod&#45;&gt;Exception</title>
<path fill="none" stroke="#000000" d="M69.46,-36.15C69.9,-73.34 79.14,-161.63 86.97,-206.23"/>
<polygon fill="#000000" stroke="#000000" points="83.53,-206.88 88.82,-216.06 90.41,-205.59 83.53,-206.88"/>
</g>
<!-- X::IO::Chmod&#45;&gt;Exception -->
<g id="edge2" class="edge">
<title>X::IO::Chmod&#45;&gt;Exception</title>
<path fill="none" stroke="#000000" d="M77.21,-36.15C84.73,-73.17 94.42,-160.82 96.24,-205.61"/>
<polygon fill="#000000" stroke="#000000" points="92.75,-205.87 96.53,-215.77 99.75,-205.67 92.75,-205.87"/>
</g>
<!-- X::IO -->
<g id="node6" class="node">
<title>X::IO</title>
<g id="a_node6"><a xlink:href="/type/X::IO" xlink:title="X::IO">
<ellipse fill="none" stroke="#6666ff" cx="141.49" cy="-90" rx="33.29" ry="18"/>
<text text-anchor="middle" x="141.49" y="-86.3" font-family="FreeSans" font-size="14.00" fill="#6666ff">X::IO</text>
</a>
</g>
</g>
<!-- X::IO::Chmod&#45;&gt;X::IO -->
<g id="edge7" class="edge">
<title>X::IO::Chmod&#45;&gt;X::IO</title>
<path fill="none" stroke="#6666ff" d="M88.08,-35.59C97.23,-44.74 108.73,-56.24 118.71,-66.22"/>
<polygon fill="#6666ff" stroke="#6666ff" points="116.44,-68.89 125.98,-73.49 121.39,-63.94 116.44,-68.89"/>
</g>
<!-- Mu -->
<g id="node2" class="node">
<title>Mu</title>
<g id="a_node2"><a xlink:href="/type/Mu" xlink:title="Mu">
<ellipse fill="none" stroke="#000000" cx="94.49" cy="-378" rx="27" ry="18"/>
<text text-anchor="middle" x="94.49" y="-374.3" font-family="FreeSans" font-size="14.00" fill="#000000">Mu</text>
</a>
</g>
</g>
<!-- Any -->
<g id="node3" class="node">
<title>Any</title>
<g id="a_node3"><a xlink:href="/type/Any" xlink:title="Any">
<ellipse fill="none" stroke="#000000" cx="94.49" cy="-306" rx="28.7" ry="18"/>
<text text-anchor="middle" x="94.49" y="-302.3" font-family="FreeSans" font-size="14.00" fill="#000000">Any</text>
</a>
</g>
</g>
<!-- Any&#45;&gt;Mu -->
<g id="edge3" class="edge">
<title>Any&#45;&gt;Mu</title>
<path fill="none" stroke="#000000" d="M94.49,-324.3C94.49,-332.02 94.49,-341.29 94.49,-349.89"/>
<polygon fill="#000000" stroke="#000000" points="90.99,-349.9 94.49,-359.9 97.99,-349.9 90.99,-349.9"/>
</g>
<!-- Exception&#45;&gt;Any -->
<g id="edge4" class="edge">
<title>Exception&#45;&gt;Any</title>
<path fill="none" stroke="#000000" d="M94.49,-252.3C94.49,-260.02 94.49,-269.29 94.49,-277.89"/>
<polygon fill="#000000" stroke="#000000" points="90.99,-277.9 94.49,-287.9 97.99,-277.9 90.99,-277.9"/>
</g>
<!-- X::OS -->
<g id="node5" class="node">
<title>X::OS</title>
<g id="a_node5"><a xlink:href="/type/X::OS" xlink:title="X::OS">
<ellipse fill="none" stroke="#6666ff" cx="182.49" cy="-162" rx="36.29" ry="18"/>
<text text-anchor="middle" x="182.49" y="-158.3" font-family="FreeSans" font-size="14.00" fill="#6666ff">X::OS</text>
</a>
</g>
</g>
<!-- X::OS&#45;&gt;Exception -->
<g id="edge5" class="edge">
<title>X::OS&#45;&gt;Exception</title>
<path fill="none" stroke="#000000" d="M163.83,-177.85C151.88,-187.35 136.15,-199.86 122.69,-210.57"/>
<polygon fill="#000000" stroke="#000000" points="120.31,-207.99 114.66,-216.96 124.67,-213.47 120.31,-207.99"/>
</g>
<!-- X::IO&#45;&gt;Exception -->
<g id="edge6" class="edge">
<title>X::IO&#45;&gt;Exception</title>
<path fill="none" stroke="#000000" d="M135.92,-107.85C127.9,-132.06 113.05,-176.95 103.47,-205.87"/>
<polygon fill="#000000" stroke="#000000" points="100.03,-205.14 100.21,-215.73 106.67,-207.34 100.03,-205.14"/>
</g>
<!-- X::IO&#45;&gt;X::OS -->
<g id="edge8" class="edge">
<title>X::IO&#45;&gt;X::OS</title>
<path fill="none" stroke="#6666ff" d="M151.21,-107.59C156.11,-115.96 162.16,-126.29 167.63,-135.63"/>
<polygon fill="#6666ff" stroke="#6666ff" points="164.77,-137.67 172.85,-144.53 170.81,-134.13 164.77,-137.67"/>
</g>
</g>
</svg>
