<?xml version="1.0" encoding="UTF-8" standalone="no"?>
<!DOCTYPE svg PUBLIC "-//W3C//DTD SVG 1.1//EN"
 "http://www.w3.org/Graphics/SVG/1.1/DTD/svg11.dtd">
<!-- Generated by graphviz version 2.42.3 (0)
 -->
<!-- Title: perl6&#45;type&#45;graph Pages: 1 -->
<svg width="961pt" height="1004pt"
 viewBox="0.00 0.00 961.46 1004.48" xmlns="http://www.w3.org/2000/svg" xmlns:xlink="http://www.w3.org/1999/xlink">
<g id="graph0" class="graph" transform="scale(1 1) rotate(0) translate(4 1000.48)">
<title>perl6&#45;type&#45;graph</title>
<polygon fill="white" stroke="transparent" points="-4,4 -4,-1000.48 957.46,-1000.48 957.46,4 -4,4"/>
<!-- Metamodel::ParametricRoleGroupHOW -->
<g id="node1" class="node">
<title>Metamodel::ParametricRoleGroupHOW</title>
<g id="a_node1"><a xlink:href="/type/Metamodel::ParametricRoleGroupHOW" xlink:title="Metamodel::ParametricRoleGroupHOW">
<ellipse fill="none" stroke="#000000" cx="446.27" cy="-648.69" rx="184.67" ry="18"/>
<text text-anchor="middle" x="446.27" y="-644.99" font-family="FreeSans" font-size="14.00" fill="#000000">Metamodel::ParametricRoleGroupHOW</text>
</a>
</g>
</g>
<!-- Any -->
<g id="node3" class="node">
<title>Any</title>
<g id="a_node3"><a xlink:href="/type/Any" xlink:title="Any">
<ellipse fill="none" stroke="#000000" cx="571.6" cy="-313.66" rx="28.7" ry="18"/>
<text text-anchor="middle" x="571.6" y="-309.96" font-family="FreeSans" font-size="14.00" fill="#000000">Any</text>
</a>
</g>
</g>
<!-- Metamodel::ParametricRoleGroupHOW&#45;&gt;Any -->
<g id="edge1" class="edge">
<title>Metamodel::ParametricRoleGroupHOW&#45;&gt;Any</title>
<path fill="none" stroke="#000000" d="M453.01,-630.68C473.72,-575.33 536.5,-407.48 561.34,-341.1"/>
<polygon fill="#000000" stroke="#000000" points="564.76,-341.94 564.98,-331.35 558.2,-339.49 564.76,-341.94"/>
</g>
<!-- Metamodel::Naming -->
<g id="node4" class="node">
<title>Metamodel::Naming</title>
<g id="a_node4"><a xlink:href="/type/Metamodel::Naming" xlink:title="Metamodel::Naming">
<ellipse fill="none" stroke="#6666ff" cx="101.39" cy="-730.52" rx="101.28" ry="18"/>
<text text-anchor="middle" x="101.39" y="-726.82" font-family="FreeSans" font-size="14.00" fill="#6666ff">Metamodel::Naming</text>
</a>
</g>
</g>
<!-- Metamodel::ParametricRoleGroupHOW&#45;&gt;Metamodel::Naming -->
<g id="edge3" class="edge">
<title>Metamodel::ParametricRoleGroupHOW&#45;&gt;Metamodel::Naming</title>
<path fill="none" stroke="#6666ff" d="M376.07,-665.35C316.67,-679.44 231.96,-699.54 172.36,-713.68"/>
<polygon fill="#6666ff" stroke="#6666ff" points="171.19,-710.36 162.27,-716.07 172.81,-717.17 171.19,-710.36"/>
</g>
<!-- Metamodel::Stashing -->
<g id="node5" class="node">
<title>Metamodel::Stashing</title>
<g id="a_node5"><a xlink:href="/type/Metamodel::Stashing" xlink:title="Metamodel::Stashing">
<ellipse fill="none" stroke="#6666ff" cx="653.16" cy="-937.65" rx="105.88" ry="18"/>
<text text-anchor="middle" x="653.16" y="-933.95" font-family="FreeSans" font-size="14.00" fill="#6666ff">Metamodel::Stashing</text>
</a>
</g>
</g>
<!-- Metamodel::ParametricRoleGroupHOW&#45;&gt;Metamodel::Stashing -->
<g id="edge4" class="edge">
<title>Metamodel::ParametricRoleGroupHOW&#45;&gt;Metamodel::Stashing</title>
<path fill="none" stroke="#6666ff" d="M459.22,-666.76C494.55,-716.12 592.82,-853.38 634.3,-911.31"/>
<polygon fill="#6666ff" stroke="#6666ff" points="631.55,-913.49 640.22,-919.58 637.24,-909.42 631.55,-913.49"/>
</g>
<!-- Metamodel::TypePretense -->
<g id="node6" class="node">
<title>Metamodel::TypePretense</title>
<g id="a_node6"><a xlink:href="/type/Metamodel::TypePretense" xlink:title="Metamodel::TypePretense">
<ellipse fill="none" stroke="#6666ff" cx="323.79" cy="-978.48" rx="126.18" ry="18"/>
<text text-anchor="middle" x="323.79" y="-974.78" font-family="FreeSans" font-size="14.00" fill="#6666ff">Metamodel::TypePretense</text>
</a>
</g>
</g>
<!-- Metamodel::ParametricRoleGroupHOW&#45;&gt;Metamodel::TypePretense -->
<g id="edge5" class="edge">
<title>Metamodel::ParametricRoleGroupHOW&#45;&gt;Metamodel::TypePretense</title>
<path fill="none" stroke="#6666ff" d="M439.51,-666.89C419.19,-721.62 358.52,-884.97 334.12,-950.66"/>
<polygon fill="#6666ff" stroke="#6666ff" points="330.73,-949.74 330.53,-960.34 337.29,-952.18 330.73,-949.74"/>
</g>
<!-- Metamodel::RolePunning -->
<g id="node7" class="node">
<title>Metamodel::RolePunning</title>
<g id="a_node7"><a xlink:href="/type/Metamodel::RolePunning" xlink:title="Metamodel::RolePunning">
<ellipse fill="none" stroke="#6666ff" cx="180.86" cy="-418.78" rx="122.68" ry="18"/>
<text text-anchor="middle" x="180.86" y="-415.08" font-family="FreeSans" font-size="14.00" fill="#6666ff">Metamodel::RolePunning</text>
</a>
</g>
</g>
<!-- Metamodel::ParametricRoleGroupHOW&#45;&gt;Metamodel::RolePunning -->
<g id="edge6" class="edge">
<title>Metamodel::ParametricRoleGroupHOW&#45;&gt;Metamodel::RolePunning</title>
<path fill="none" stroke="#6666ff" d="M425.45,-630.65C378.25,-589.77 263.11,-490.02 209.36,-443.47"/>
<polygon fill="#6666ff" stroke="#6666ff" points="211.44,-440.63 201.59,-436.73 206.85,-445.93 211.44,-440.63"/>
</g>
<!-- Metamodel::BoolificationProtocol -->
<g id="node8" class="node">
<title>Metamodel::BoolificationProtocol</title>
<g id="a_node8"><a xlink:href="/type/Metamodel::BoolificationProtocol" xlink:title="Metamodel::BoolificationProtocol">
<ellipse fill="none" stroke="#6666ff" cx="796.18" cy="-652.48" rx="157.07" ry="18"/>
<text text-anchor="middle" x="796.18" y="-648.78" font-family="FreeSans" font-size="14.00" fill="#6666ff">Metamodel::BoolificationProtocol</text>
</a>
</g>
</g>
<!-- Metamodel::ParametricRoleGroupHOW&#45;&gt;Metamodel::BoolificationProtocol -->
<g id="edge7" class="edge">
<title>Metamodel::ParametricRoleGroupHOW&#45;&gt;Metamodel::BoolificationProtocol</title>
<path fill="none" stroke="#6666ff" d="M629.94,-650.68C630.03,-650.68 630.13,-650.68 630.23,-650.68"/>
<polygon fill="#6666ff" stroke="#6666ff" points="629.29,-654.17 639.33,-650.78 629.36,-647.17 629.29,-654.17"/>
</g>
<!-- Mu -->
<g id="node2" class="node">
<title>Mu</title>
<g id="a_node2"><a xlink:href="/type/Mu" xlink:title="Mu">
<ellipse fill="none" stroke="#000000" cx="711.11" cy="-18" rx="27" ry="18"/>
<text text-anchor="middle" x="711.11" y="-14.3" font-family="FreeSans" font-size="14.00" fill="#000000">Mu</text>
</a>
</g>
</g>
<!-- Any&#45;&gt;Mu -->
<g id="edge2" class="edge">
<title>Any&#45;&gt;Mu</title>
<path fill="none" stroke="#000000" d="M579.91,-296.05C603.42,-246.23 670.48,-104.09 698.54,-44.65"/>
<polygon fill="#000000" stroke="#000000" points="701.74,-46.05 702.84,-35.52 695.41,-43.07 701.74,-46.05"/>
</g>
</g>
</svg>
