<?xml version="1.0" encoding="UTF-8" standalone="no"?>
<!DOCTYPE svg PUBLIC "-//W3C//DTD SVG 1.1//EN"
 "http://www.w3.org/Graphics/SVG/1.1/DTD/svg11.dtd">
<!-- Generated by graphviz version 2.42.3 (0)
 -->
<!-- Title: perl6&#45;type&#45;graph Pages: 1 -->
<svg width="268pt" height="260pt"
 viewBox="0.00 0.00 267.80 260.00" xmlns="http://www.w3.org/2000/svg" xmlns:xlink="http://www.w3.org/1999/xlink">
<g id="graph0" class="graph" transform="scale(1 1) rotate(0) translate(4 256)">
<title>perl6&#45;type&#45;graph</title>
<polygon fill="white" stroke="transparent" points="-4,4 -4,-256 263.8,-256 263.8,4 -4,4"/>
<!-- Systemic -->
<g id="node1" class="node">
<title>Systemic</title>
<g id="a_node1"><a xlink:href="/type/Systemic" xlink:title="Systemic">
<ellipse fill="none" stroke="#6666ff" cx="85.8" cy="-162" rx="51.99" ry="18"/>
<text text-anchor="middle" x="85.8" y="-158.3" font-family="FreeSans" font-size="14.00" fill="#6666ff">Systemic</text>
</a>
</g>
</g>
<!-- Mu -->
<g id="node2" class="node">
<title>Mu</title>
<g id="a_node2"><a xlink:href="/type/Mu" xlink:title="Mu">
<ellipse fill="none" stroke="#000000" cx="184.8" cy="-234" rx="27" ry="18"/>
<text text-anchor="middle" x="184.8" y="-230.3" font-family="FreeSans" font-size="14.00" fill="#000000">Mu</text>
</a>
</g>
</g>
<!-- Any -->
<g id="node3" class="node">
<title>Any</title>
<g id="a_node3"><a xlink:href="/type/Any" xlink:title="Any">
<ellipse fill="none" stroke="#000000" cx="184.8" cy="-162" rx="28.7" ry="18"/>
<text text-anchor="middle" x="184.8" y="-158.3" font-family="FreeSans" font-size="14.00" fill="#000000">Any</text>
</a>
</g>
</g>
<!-- Any&#45;&gt;Mu -->
<g id="edge1" class="edge">
<title>Any&#45;&gt;Mu</title>
<path fill="none" stroke="#000000" d="M184.8,-180.3C184.8,-188.02 184.8,-197.29 184.8,-205.89"/>
<polygon fill="#000000" stroke="#000000" points="181.3,-205.9 184.8,-215.9 188.3,-205.9 181.3,-205.9"/>
</g>
<!-- Raku -->
<g id="node4" class="node">
<title>Raku</title>
<g id="a_node4"><a xlink:href="/type/Raku" xlink:title="Raku">
<ellipse fill="none" stroke="#000000" cx="33.8" cy="-90" rx="33.6" ry="18"/>
<text text-anchor="middle" x="33.8" y="-86.3" font-family="FreeSans" font-size="14.00" fill="#000000">Raku</text>
</a>
</g>
</g>
<!-- Raku&#45;&gt;Systemic -->
<g id="edge6" class="edge">
<title>Raku&#45;&gt;Systemic</title>
<path fill="none" stroke="#6666ff" d="M45.6,-106.88C51.99,-115.49 60.04,-126.33 67.26,-136.04"/>
<polygon fill="#6666ff" stroke="#6666ff" points="64.55,-138.26 73.32,-144.2 70.17,-134.09 64.55,-138.26"/>
</g>
<!-- Raku&#45;&gt;Any -->
<g id="edge2" class="edge">
<title>Raku&#45;&gt;Any</title>
<path fill="none" stroke="#000000" d="M58.39,-102.4C84.11,-114.32 124.57,-133.08 152.77,-146.15"/>
<polygon fill="#000000" stroke="#000000" points="151.64,-149.49 162.19,-150.52 154.59,-143.14 151.64,-149.49"/>
</g>
<!-- Compiler -->
<g id="node5" class="node">
<title>Compiler</title>
<g id="a_node5"><a xlink:href="/type/Compiler" xlink:title="Compiler">
<ellipse fill="none" stroke="#000000" cx="136.8" cy="-90" rx="51.19" ry="18"/>
<text text-anchor="middle" x="136.8" y="-86.3" font-family="FreeSans" font-size="14.00" fill="#000000">Compiler</text>
</a>
</g>
</g>
<!-- Compiler&#45;&gt;Systemic -->
<g id="edge7" class="edge">
<title>Compiler&#45;&gt;Systemic</title>
<path fill="none" stroke="#6666ff" d="M124.71,-107.59C118.58,-116.01 110.99,-126.42 104.16,-135.8"/>
<polygon fill="#6666ff" stroke="#6666ff" points="101.21,-133.9 98.15,-144.04 106.87,-138.02 101.21,-133.9"/>
</g>
<!-- Compiler&#45;&gt;Any -->
<g id="edge3" class="edge">
<title>Compiler&#45;&gt;Any</title>
<path fill="none" stroke="#000000" d="M148.17,-107.59C154.12,-116.26 161.5,-127.03 168.08,-136.62"/>
<polygon fill="#000000" stroke="#000000" points="165.29,-138.74 173.83,-145.01 171.06,-134.79 165.29,-138.74"/>
</g>
<!-- VM -->
<g id="node6" class="node">
<title>VM</title>
<g id="a_node6"><a xlink:href="/type/VM" xlink:title="VM">
<ellipse fill="none" stroke="#000000" cx="232.8" cy="-90" rx="27" ry="18"/>
<text text-anchor="middle" x="232.8" y="-86.3" font-family="FreeSans" font-size="14.00" fill="#000000">VM</text>
</a>
</g>
</g>
<!-- VM&#45;&gt;Systemic -->
<g id="edge8" class="edge">
<title>VM&#45;&gt;Systemic</title>
<path fill="none" stroke="#6666ff" d="M211.42,-101.18C188.6,-112.05 151.96,-129.49 124.13,-142.75"/>
<polygon fill="#6666ff" stroke="#6666ff" points="122.59,-139.6 115.06,-147.06 125.6,-145.92 122.59,-139.6"/>
</g>
<!-- VM&#45;&gt;Any -->
<g id="edge4" class="edge">
<title>VM&#45;&gt;Any</title>
<path fill="none" stroke="#000000" d="M221.91,-106.88C215.83,-115.74 208.14,-126.96 201.33,-136.88"/>
<polygon fill="#000000" stroke="#000000" points="198.41,-134.95 195.65,-145.18 204.19,-138.91 198.41,-134.95"/>
</g>
<!-- Perl -->
<g id="node7" class="node">
<title>Perl</title>
<g id="a_node7"><a xlink:href="/type/Perl" xlink:title="Perl">
<ellipse fill="none" stroke="#000000" cx="33.8" cy="-18" rx="27.9" ry="18"/>
<text text-anchor="middle" x="33.8" y="-14.3" font-family="FreeSans" font-size="14.00" fill="#000000">Perl</text>
</a>
</g>
</g>
<!-- Perl&#45;&gt;Raku -->
<g id="edge5" class="edge">
<title>Perl&#45;&gt;Raku</title>
<path fill="none" stroke="#000000" d="M33.8,-36.3C33.8,-44.02 33.8,-53.29 33.8,-61.89"/>
<polygon fill="#000000" stroke="#000000" points="30.3,-61.9 33.8,-71.9 37.3,-61.9 30.3,-61.9"/>
</g>
</g>
</svg>
