<?xml version="1.0" encoding="UTF-8" standalone="no"?>
<!DOCTYPE svg PUBLIC "-//W3C//DTD SVG 1.1//EN"
 "http://www.w3.org/Graphics/SVG/1.1/DTD/svg11.dtd">
<!-- Generated by graphviz version 2.42.3 (0)
 -->
<!-- Title: perl6&#45;type&#45;graph Pages: 1 -->
<svg width="1852pt" height="332pt"
 viewBox="0.00 0.00 1851.52 332.00" xmlns="http://www.w3.org/2000/svg" xmlns:xlink="http://www.w3.org/1999/xlink">
<g id="graph0" class="graph" transform="scale(1 1) rotate(0) translate(4 328)">
<title>perl6&#45;type&#45;graph</title>
<polygon fill="white" stroke="transparent" points="-4,4 -4,-328 1847.52,-328 1847.52,4 -4,4"/>
<!-- X::Proc::Async -->
<g id="node1" class="node">
<title>X::Proc::Async</title>
<g id="a_node1"><a xlink:href="/type/X::Proc::Async" xlink:title="X::Proc::Async">
<ellipse fill="none" stroke="#6666ff" cx="939.54" cy="-90" rx="75.29" ry="18"/>
<text text-anchor="middle" x="939.54" y="-86.3" font-family="FreeSans" font-size="14.00" fill="#6666ff">X::Proc::Async</text>
</a>
</g>
</g>
<!-- Exception -->
<g id="node4" class="node">
<title>Exception</title>
<g id="a_node4"><a xlink:href="/type/Exception" xlink:title="Exception">
<ellipse fill="none" stroke="#000000" cx="939.54" cy="-162" rx="55.49" ry="18"/>
<text text-anchor="middle" x="939.54" y="-158.3" font-family="FreeSans" font-size="14.00" fill="#000000">Exception</text>
</a>
</g>
</g>
<!-- X::Proc::Async&#45;&gt;Exception -->
<g id="edge1" class="edge">
<title>X::Proc::Async&#45;&gt;Exception</title>
<path fill="none" stroke="#000000" d="M939.54,-108.3C939.54,-116.02 939.54,-125.29 939.54,-133.89"/>
<polygon fill="#000000" stroke="#000000" points="936.04,-133.9 939.54,-143.9 943.04,-133.9 936.04,-133.9"/>
</g>
<!-- Mu -->
<g id="node2" class="node">
<title>Mu</title>
<g id="a_node2"><a xlink:href="/type/Mu" xlink:title="Mu">
<ellipse fill="none" stroke="#000000" cx="939.54" cy="-306" rx="27" ry="18"/>
<text text-anchor="middle" x="939.54" y="-302.3" font-family="FreeSans" font-size="14.00" fill="#000000">Mu</text>
</a>
</g>
</g>
<!-- Any -->
<g id="node3" class="node">
<title>Any</title>
<g id="a_node3"><a xlink:href="/type/Any" xlink:title="Any">
<ellipse fill="none" stroke="#000000" cx="939.54" cy="-234" rx="28.7" ry="18"/>
<text text-anchor="middle" x="939.54" y="-230.3" font-family="FreeSans" font-size="14.00" fill="#000000">Any</text>
</a>
</g>
</g>
<!-- Any&#45;&gt;Mu -->
<g id="edge2" class="edge">
<title>Any&#45;&gt;Mu</title>
<path fill="none" stroke="#000000" d="M939.54,-252.3C939.54,-260.02 939.54,-269.29 939.54,-277.89"/>
<polygon fill="#000000" stroke="#000000" points="936.04,-277.9 939.54,-287.9 943.04,-277.9 936.04,-277.9"/>
</g>
<!-- Exception&#45;&gt;Any -->
<g id="edge3" class="edge">
<title>Exception&#45;&gt;Any</title>
<path fill="none" stroke="#000000" d="M939.54,-180.3C939.54,-188.02 939.54,-197.29 939.54,-205.89"/>
<polygon fill="#000000" stroke="#000000" points="936.04,-205.9 939.54,-215.9 943.04,-205.9 936.04,-205.9"/>
</g>
<!-- X::Proc::Async::MustBeStarted -->
<g id="node5" class="node">
<title>X::Proc::Async::MustBeStarted</title>
<g id="a_node5"><a xlink:href="/type/X::Proc::Async::MustBeStarted" xlink:title="X::Proc::Async::MustBeStarted">
<ellipse fill="none" stroke="#000000" cx="147.54" cy="-18" rx="147.57" ry="18"/>
<text text-anchor="middle" x="147.54" y="-14.3" font-family="FreeSans" font-size="14.00" fill="#000000">X::Proc::Async::MustBeStarted</text>
</a>
</g>
</g>
<!-- X::Proc::Async::MustBeStarted&#45;&gt;X::Proc::Async -->
<g id="edge10" class="edge">
<title>X::Proc::Async::MustBeStarted&#45;&gt;X::Proc::Async</title>
<path fill="none" stroke="#6666ff" d="M253.75,-30.57C281.37,-33.58 303.54,-36 303.54,-36 303.54,-36 688.55,-68.08 859.45,-82.33"/>
<polygon fill="#6666ff" stroke="#6666ff" points="859.4,-85.83 869.65,-83.18 859.98,-78.86 859.4,-85.83"/>
</g>
<!-- X::Proc::Async::MustBeStarted&#45;&gt;Exception -->
<g id="edge4" class="edge">
<title>X::Proc::Async::MustBeStarted&#45;&gt;Exception</title>
<path fill="none" stroke="#000000" d="M225.99,-33.25C364.42,-58.39 637.54,-108 637.54,-108 637.54,-108 794.31,-135.51 881.95,-150.89"/>
<polygon fill="#000000" stroke="#000000" points="881.56,-154.38 892.02,-152.66 882.77,-147.48 881.56,-154.38"/>
</g>
<!-- X::Proc::Async::CharsOrBytes -->
<g id="node6" class="node">
<title>X::Proc::Async::CharsOrBytes</title>
<g id="a_node6"><a xlink:href="/type/X::Proc::Async::CharsOrBytes" xlink:title="X::Proc::Async::CharsOrBytes">
<ellipse fill="none" stroke="#000000" cx="456.54" cy="-18" rx="143.77" ry="18"/>
<text text-anchor="middle" x="456.54" y="-14.3" font-family="FreeSans" font-size="14.00" fill="#000000">X::Proc::Async::CharsOrBytes</text>
</a>
</g>
</g>
<!-- X::Proc::Async::CharsOrBytes&#45;&gt;X::Proc::Async -->
<g id="edge11" class="edge">
<title>X::Proc::Async::CharsOrBytes&#45;&gt;X::Proc::Async</title>
<path fill="none" stroke="#6666ff" d="M546.54,-32.04C638.99,-45.44 781.12,-66.04 866.74,-78.45"/>
<polygon fill="#6666ff" stroke="#6666ff" points="866.49,-81.95 876.89,-79.92 867.5,-75.02 866.49,-81.95"/>
</g>
<!-- X::Proc::Async::CharsOrBytes&#45;&gt;Exception -->
<g id="edge5" class="edge">
<title>X::Proc::Async::CharsOrBytes&#45;&gt;Exception</title>
<path fill="none" stroke="#000000" d="M510.07,-34.74C604.41,-62.47 798.91,-119.66 890.19,-146.49"/>
<polygon fill="#000000" stroke="#000000" points="889.43,-149.92 900.01,-149.38 891.4,-143.2 889.43,-149.92"/>
</g>
<!-- X::Proc::Async::AlreadyStarted -->
<g id="node7" class="node">
<title>X::Proc::Async::AlreadyStarted</title>
<g id="a_node7"><a xlink:href="/type/X::Proc::Async::AlreadyStarted" xlink:title="X::Proc::Async::AlreadyStarted">
<ellipse fill="none" stroke="#000000" cx="766.54" cy="-18" rx="148.37" ry="18"/>
<text text-anchor="middle" x="766.54" y="-14.3" font-family="FreeSans" font-size="14.00" fill="#000000">X::Proc::Async::AlreadyStarted</text>
</a>
</g>
</g>
<!-- X::Proc::Async::AlreadyStarted&#45;&gt;X::Proc::Async -->
<g id="edge12" class="edge">
<title>X::Proc::Async::AlreadyStarted&#45;&gt;X::Proc::Async</title>
<path fill="none" stroke="#6666ff" d="M807.1,-35.41C832.98,-45.89 866.6,-59.49 893.48,-70.37"/>
<polygon fill="#6666ff" stroke="#6666ff" points="892.47,-73.73 903.06,-74.24 895.1,-67.24 892.47,-73.73"/>
</g>
<!-- X::Proc::Async::AlreadyStarted&#45;&gt;Exception -->
<g id="edge6" class="edge">
<title>X::Proc::Async::AlreadyStarted&#45;&gt;Exception</title>
<path fill="none" stroke="#000000" d="M783.7,-36.16C809.56,-62.02 855.54,-108 855.54,-108 855.54,-108 882.97,-125.31 906.49,-140.15"/>
<polygon fill="#000000" stroke="#000000" points="904.92,-143.29 915.24,-145.67 908.65,-137.37 904.92,-143.29"/>
</g>
<!-- X::Proc::Async::OpenForWriting -->
<g id="node8" class="node">
<title>X::Proc::Async::OpenForWriting</title>
<g id="a_node8"><a xlink:href="/type/X::Proc::Async::OpenForWriting" xlink:title="X::Proc::Async::OpenForWriting">
<ellipse fill="none" stroke="#000000" cx="1084.54" cy="-18" rx="151.37" ry="18"/>
<text text-anchor="middle" x="1084.54" y="-14.3" font-family="FreeSans" font-size="14.00" fill="#000000">X::Proc::Async::OpenForWriting</text>
</a>
</g>
</g>
<!-- X::Proc::Async::OpenForWriting&#45;&gt;X::Proc::Async -->
<g id="edge13" class="edge">
<title>X::Proc::Async::OpenForWriting&#45;&gt;X::Proc::Async</title>
<path fill="none" stroke="#6666ff" d="M1050.17,-35.59C1029.36,-45.64 1002.69,-58.51 980.75,-69.1"/>
<polygon fill="#6666ff" stroke="#6666ff" points="979.15,-65.99 971.67,-73.49 982.19,-72.29 979.15,-65.99"/>
</g>
<!-- X::Proc::Async::OpenForWriting&#45;&gt;Exception -->
<g id="edge7" class="edge">
<title>X::Proc::Async::OpenForWriting&#45;&gt;Exception</title>
<path fill="none" stroke="#000000" d="M1072.78,-36.16C1055.05,-62.02 1023.54,-108 1023.54,-108 1023.54,-108 996.1,-125.31 972.59,-140.15"/>
<polygon fill="#000000" stroke="#000000" points="970.42,-137.37 963.83,-145.67 974.16,-143.29 970.42,-137.37"/>
</g>
<!-- X::Proc::Async::BindOrUse -->
<g id="node9" class="node">
<title>X::Proc::Async::BindOrUse</title>
<g id="a_node9"><a xlink:href="/type/X::Proc::Async::BindOrUse" xlink:title="X::Proc::Async::BindOrUse">
<ellipse fill="none" stroke="#000000" cx="1383.54" cy="-18" rx="129.98" ry="18"/>
<text text-anchor="middle" x="1383.54" y="-14.3" font-family="FreeSans" font-size="14.00" fill="#000000">X::Proc::Async::BindOrUse</text>
</a>
</g>
</g>
<!-- X::Proc::Async::BindOrUse&#45;&gt;X::Proc::Async -->
<g id="edge14" class="edge">
<title>X::Proc::Async::BindOrUse&#45;&gt;X::Proc::Async</title>
<path fill="none" stroke="#6666ff" d="M1301.32,-31.96C1217.79,-45.13 1089.73,-65.32 1010.49,-77.81"/>
<polygon fill="#6666ff" stroke="#6666ff" points="1009.93,-74.36 1000.6,-79.37 1011.02,-81.27 1009.93,-74.36"/>
</g>
<!-- X::Proc::Async::BindOrUse&#45;&gt;Exception -->
<g id="edge8" class="edge">
<title>X::Proc::Async::BindOrUse&#45;&gt;Exception</title>
<path fill="none" stroke="#000000" d="M1334.32,-34.74C1248.43,-62.21 1072.21,-118.57 987.33,-145.72"/>
<polygon fill="#000000" stroke="#000000" points="986.14,-142.42 977.68,-148.8 988.28,-149.09 986.14,-142.42"/>
</g>
<!-- X::Proc::Async::TapBeforeSpawn -->
<g id="node10" class="node">
<title>X::Proc::Async::TapBeforeSpawn</title>
<g id="a_node10"><a xlink:href="/type/X::Proc::Async::TapBeforeSpawn" xlink:title="X::Proc::Async::TapBeforeSpawn">
<ellipse fill="none" stroke="#000000" cx="1687.54" cy="-18" rx="155.97" ry="18"/>
<text text-anchor="middle" x="1687.54" y="-14.3" font-family="FreeSans" font-size="14.00" fill="#000000">X::Proc::Async::TapBeforeSpawn</text>
</a>
</g>
</g>
<!-- X::Proc::Async::TapBeforeSpawn&#45;&gt;X::Proc::Async -->
<g id="edge15" class="edge">
<title>X::Proc::Async::TapBeforeSpawn&#45;&gt;X::Proc::Async</title>
<path fill="none" stroke="#6666ff" d="M1575.2,-30.57C1545.98,-33.58 1522.54,-36 1522.54,-36 1522.54,-36 1178.41,-67.28 1018.94,-81.78"/>
<polygon fill="#6666ff" stroke="#6666ff" points="1018.35,-78.32 1008.7,-82.71 1018.98,-85.29 1018.35,-78.32"/>
</g>
<!-- X::Proc::Async::TapBeforeSpawn&#45;&gt;Exception -->
<g id="edge9" class="edge">
<title>X::Proc::Async::TapBeforeSpawn&#45;&gt;Exception</title>
<path fill="none" stroke="#000000" d="M1610.31,-33.66C1459.33,-62.32 1128.3,-125.17 995.9,-150.3"/>
<polygon fill="#000000" stroke="#000000" points="995.13,-146.88 985.96,-152.19 996.44,-153.76 995.13,-146.88"/>
</g>
</g>
</svg>
