<?xml version="1.0" encoding="UTF-8" standalone="no"?>
<!DOCTYPE svg PUBLIC "-//W3C//DTD SVG 1.1//EN"
 "http://www.w3.org/Graphics/SVG/1.1/DTD/svg11.dtd">
<!-- Generated by graphviz version 2.42.3 (0)
 -->
<!-- Title: perl6&#45;type&#45;graph Pages: 1 -->
<svg width="404pt" height="404pt"
 viewBox="0.00 0.00 404.46 404.00" xmlns="http://www.w3.org/2000/svg" xmlns:xlink="http://www.w3.org/1999/xlink">
<g id="graph0" class="graph" transform="scale(1 1) rotate(0) translate(4 400)">
<title>perl6&#45;type&#45;graph</title>
<polygon fill="white" stroke="transparent" points="-4,4 -4,-400 400.46,-400 400.46,4 -4,4"/>
<!-- X::Syntax::Regex::UnrecognizedMetachar -->
<g id="node1" class="node">
<title>X::Syntax::Regex::UnrecognizedMetachar</title>
<g id="a_node1"><a xlink:href="/type/X::Syntax::Regex::UnrecognizedMetachar" xlink:title="X::Syntax::Regex::UnrecognizedMetachar">
<ellipse fill="none" stroke="#000000" cx="198.23" cy="-18" rx="198.47" ry="18"/>
<text text-anchor="middle" x="198.23" y="-14.3" font-family="FreeSans" font-size="14.00" fill="#000000">X::Syntax::Regex::UnrecognizedMetachar</text>
</a>
</g>
</g>
<!-- Exception -->
<g id="node4" class="node">
<title>Exception</title>
<g id="a_node4"><a xlink:href="/type/Exception" xlink:title="Exception">
<ellipse fill="none" stroke="#000000" cx="221.23" cy="-234" rx="55.49" ry="18"/>
<text text-anchor="middle" x="221.23" y="-230.3" font-family="FreeSans" font-size="14.00" fill="#000000">Exception</text>
</a>
</g>
</g>
<!-- X::Syntax::Regex::UnrecognizedMetachar&#45;&gt;Exception -->
<g id="edge1" class="edge">
<title>X::Syntax::Regex::UnrecognizedMetachar&#45;&gt;Exception</title>
<path fill="none" stroke="#000000" d="M196.2,-36.15C196.64,-73.34 205.87,-161.63 213.7,-206.23"/>
<polygon fill="#000000" stroke="#000000" points="210.27,-206.88 215.56,-216.06 217.15,-205.59 210.27,-206.88"/>
</g>
<!-- X::Syntax::Regex::UnrecognizedMetachar&#45;&gt;Exception -->
<g id="edge2" class="edge">
<title>X::Syntax::Regex::UnrecognizedMetachar&#45;&gt;Exception</title>
<path fill="none" stroke="#000000" d="M203.95,-36.15C211.47,-73.17 221.16,-160.82 222.98,-205.61"/>
<polygon fill="#000000" stroke="#000000" points="219.49,-205.87 223.27,-215.77 226.48,-205.67 219.49,-205.87"/>
</g>
<!-- X::Syntax -->
<g id="node6" class="node">
<title>X::Syntax</title>
<g id="a_node6"><a xlink:href="/type/X::Syntax" xlink:title="X::Syntax">
<ellipse fill="none" stroke="#6666ff" cx="289.23" cy="-90" rx="53.89" ry="18"/>
<text text-anchor="middle" x="289.23" y="-86.3" font-family="FreeSans" font-size="14.00" fill="#6666ff">X::Syntax</text>
</a>
</g>
</g>
<!-- X::Syntax::Regex::UnrecognizedMetachar&#45;&gt;X::Syntax -->
<g id="edge7" class="edge">
<title>X::Syntax::Regex::UnrecognizedMetachar&#45;&gt;X::Syntax</title>
<path fill="none" stroke="#6666ff" d="M220.26,-35.95C232.34,-45.24 247.47,-56.87 260.47,-66.87"/>
<polygon fill="#6666ff" stroke="#6666ff" points="258.59,-69.85 268.65,-73.17 262.86,-64.3 258.59,-69.85"/>
</g>
<!-- Mu -->
<g id="node2" class="node">
<title>Mu</title>
<g id="a_node2"><a xlink:href="/type/Mu" xlink:title="Mu">
<ellipse fill="none" stroke="#000000" cx="221.23" cy="-378" rx="27" ry="18"/>
<text text-anchor="middle" x="221.23" y="-374.3" font-family="FreeSans" font-size="14.00" fill="#000000">Mu</text>
</a>
</g>
</g>
<!-- Any -->
<g id="node3" class="node">
<title>Any</title>
<g id="a_node3"><a xlink:href="/type/Any" xlink:title="Any">
<ellipse fill="none" stroke="#000000" cx="221.23" cy="-306" rx="28.7" ry="18"/>
<text text-anchor="middle" x="221.23" y="-302.3" font-family="FreeSans" font-size="14.00" fill="#000000">Any</text>
</a>
</g>
</g>
<!-- Any&#45;&gt;Mu -->
<g id="edge3" class="edge">
<title>Any&#45;&gt;Mu</title>
<path fill="none" stroke="#000000" d="M221.23,-324.3C221.23,-332.02 221.23,-341.29 221.23,-349.89"/>
<polygon fill="#000000" stroke="#000000" points="217.73,-349.9 221.23,-359.9 224.73,-349.9 217.73,-349.9"/>
</g>
<!-- Exception&#45;&gt;Any -->
<g id="edge4" class="edge">
<title>Exception&#45;&gt;Any</title>
<path fill="none" stroke="#000000" d="M221.23,-252.3C221.23,-260.02 221.23,-269.29 221.23,-277.89"/>
<polygon fill="#000000" stroke="#000000" points="217.73,-277.9 221.23,-287.9 224.73,-277.9 217.73,-277.9"/>
</g>
<!-- X::Comp -->
<g id="node5" class="node">
<title>X::Comp</title>
<g id="a_node5"><a xlink:href="/type/X::Comp" xlink:title="X::Comp">
<ellipse fill="none" stroke="#6666ff" cx="322.23" cy="-162" rx="49.29" ry="18"/>
<text text-anchor="middle" x="322.23" y="-158.3" font-family="FreeSans" font-size="14.00" fill="#6666ff">X::Comp</text>
</a>
</g>
</g>
<!-- X::Comp&#45;&gt;Exception -->
<g id="edge5" class="edge">
<title>X::Comp&#45;&gt;Exception</title>
<path fill="none" stroke="#000000" d="M300.32,-178.19C286.22,-187.96 267.69,-200.8 252.11,-211.6"/>
<polygon fill="#000000" stroke="#000000" points="250.03,-208.78 243.8,-217.36 254.02,-214.54 250.03,-208.78"/>
</g>
<!-- X::Syntax&#45;&gt;Exception -->
<g id="edge6" class="edge">
<title>X::Syntax&#45;&gt;Exception</title>
<path fill="none" stroke="#000000" d="M281.16,-107.85C269.41,-132.4 247.46,-178.23 233.64,-207.09"/>
<polygon fill="#000000" stroke="#000000" points="230.45,-205.64 229.29,-216.18 236.77,-208.67 230.45,-205.64"/>
</g>
<!-- X::Syntax&#45;&gt;X::Comp -->
<g id="edge8" class="edge">
<title>X::Syntax&#45;&gt;X::Comp</title>
<path fill="none" stroke="#6666ff" d="M297.22,-107.95C301.03,-116.03 305.68,-125.88 309.92,-134.89"/>
<polygon fill="#6666ff" stroke="#6666ff" points="306.89,-136.66 314.32,-144.21 313.22,-133.67 306.89,-136.66"/>
</g>
</g>
</svg>
