<?xml version="1.0" encoding="UTF-8" standalone="no"?>
<!DOCTYPE svg PUBLIC "-//W3C//DTD SVG 1.1//EN"
 "http://www.w3.org/Graphics/SVG/1.1/DTD/svg11.dtd">
<!-- Generated by graphviz version 2.42.3 (0)
 -->
<!-- Title: perl6&#45;type&#45;graph Pages: 1 -->
<svg width="367pt" height="404pt"
 viewBox="0.00 0.00 366.77 404.00" xmlns="http://www.w3.org/2000/svg" xmlns:xlink="http://www.w3.org/1999/xlink">
<g id="graph0" class="graph" transform="scale(1 1) rotate(0) translate(4 400)">
<title>perl6&#45;type&#45;graph</title>
<polygon fill="white" stroke="transparent" points="-4,4 -4,-400 362.77,-400 362.77,4 -4,4"/>
<!-- X::Syntax::Signature::InvocantMarker -->
<g id="node1" class="node">
<title>X::Syntax::Signature::InvocantMarker</title>
<g id="a_node1"><a xlink:href="/type/X::Syntax::Signature::InvocantMarker" xlink:title="X::Syntax::Signature::InvocantMarker">
<ellipse fill="none" stroke="#000000" cx="179.38" cy="-18" rx="179.27" ry="18"/>
<text text-anchor="middle" x="179.38" y="-14.3" font-family="FreeSans" font-size="14.00" fill="#000000">X::Syntax::Signature::InvocantMarker</text>
</a>
</g>
</g>
<!-- Exception -->
<g id="node4" class="node">
<title>Exception</title>
<g id="a_node4"><a xlink:href="/type/Exception" xlink:title="Exception">
<ellipse fill="none" stroke="#000000" cx="176.38" cy="-234" rx="55.49" ry="18"/>
<text text-anchor="middle" x="176.38" y="-230.3" font-family="FreeSans" font-size="14.00" fill="#000000">Exception</text>
</a>
</g>
</g>
<!-- X::Syntax::Signature::InvocantMarker&#45;&gt;Exception -->
<g id="edge1" class="edge">
<title>X::Syntax::Signature::InvocantMarker&#45;&gt;Exception</title>
<path fill="none" stroke="#000000" d="M172.3,-36.06C165.87,-51.55 157.38,-72 157.38,-72 157.38,-72 157.38,-108 157.38,-108 157.38,-108 166.66,-169.01 172.25,-205.78"/>
<polygon fill="#000000" stroke="#000000" points="168.82,-206.52 173.78,-215.88 175.74,-205.47 168.82,-206.52"/>
</g>
<!-- X::Syntax -->
<g id="node6" class="node">
<title>X::Syntax</title>
<g id="a_node6"><a xlink:href="/type/X::Syntax" xlink:title="X::Syntax">
<ellipse fill="none" stroke="#6666ff" cx="220.38" cy="-90" rx="53.89" ry="18"/>
<text text-anchor="middle" x="220.38" y="-86.3" font-family="FreeSans" font-size="14.00" fill="#6666ff">X::Syntax</text>
</a>
</g>
</g>
<!-- X::Syntax::Signature::InvocantMarker&#45;&gt;X::Syntax -->
<g id="edge6" class="edge">
<title>X::Syntax::Signature::InvocantMarker&#45;&gt;X::Syntax</title>
<path fill="none" stroke="#6666ff" d="M189.52,-36.3C194.24,-44.36 199.95,-54.11 205.17,-63.02"/>
<polygon fill="#6666ff" stroke="#6666ff" points="202.29,-65.04 210.37,-71.9 208.33,-61.5 202.29,-65.04"/>
</g>
<!-- Mu -->
<g id="node2" class="node">
<title>Mu</title>
<g id="a_node2"><a xlink:href="/type/Mu" xlink:title="Mu">
<ellipse fill="none" stroke="#000000" cx="176.38" cy="-378" rx="27" ry="18"/>
<text text-anchor="middle" x="176.38" y="-374.3" font-family="FreeSans" font-size="14.00" fill="#000000">Mu</text>
</a>
</g>
</g>
<!-- Any -->
<g id="node3" class="node">
<title>Any</title>
<g id="a_node3"><a xlink:href="/type/Any" xlink:title="Any">
<ellipse fill="none" stroke="#000000" cx="176.38" cy="-306" rx="28.7" ry="18"/>
<text text-anchor="middle" x="176.38" y="-302.3" font-family="FreeSans" font-size="14.00" fill="#000000">Any</text>
</a>
</g>
</g>
<!-- Any&#45;&gt;Mu -->
<g id="edge2" class="edge">
<title>Any&#45;&gt;Mu</title>
<path fill="none" stroke="#000000" d="M176.38,-324.3C176.38,-332.02 176.38,-341.29 176.38,-349.89"/>
<polygon fill="#000000" stroke="#000000" points="172.88,-349.9 176.38,-359.9 179.88,-349.9 172.88,-349.9"/>
</g>
<!-- Exception&#45;&gt;Any -->
<g id="edge3" class="edge">
<title>Exception&#45;&gt;Any</title>
<path fill="none" stroke="#000000" d="M176.38,-252.3C176.38,-260.02 176.38,-269.29 176.38,-277.89"/>
<polygon fill="#000000" stroke="#000000" points="172.88,-277.9 176.38,-287.9 179.88,-277.9 172.88,-277.9"/>
</g>
<!-- X::Comp -->
<g id="node5" class="node">
<title>X::Comp</title>
<g id="a_node5"><a xlink:href="/type/X::Comp" xlink:title="X::Comp">
<ellipse fill="none" stroke="#6666ff" cx="253.38" cy="-162" rx="49.29" ry="18"/>
<text text-anchor="middle" x="253.38" y="-158.3" font-family="FreeSans" font-size="14.00" fill="#6666ff">X::Comp</text>
</a>
</g>
</g>
<!-- X::Comp&#45;&gt;Exception -->
<g id="edge4" class="edge">
<title>X::Comp&#45;&gt;Exception</title>
<path fill="none" stroke="#000000" d="M235.91,-178.88C225.74,-188.13 212.76,-199.93 201.51,-210.16"/>
<polygon fill="#000000" stroke="#000000" points="199.1,-207.62 194.05,-216.94 203.81,-212.8 199.1,-207.62"/>
</g>
<!-- X::Syntax&#45;&gt;Exception -->
<g id="edge5" class="edge">
<title>X::Syntax&#45;&gt;Exception</title>
<path fill="none" stroke="#000000" d="M212.34,-108.06C205.03,-123.55 195.38,-144 195.38,-144 195.38,-144 187.73,-179.83 182.14,-206.03"/>
<polygon fill="#000000" stroke="#000000" points="178.71,-205.33 180.05,-215.84 185.56,-206.79 178.71,-205.33"/>
</g>
<!-- X::Syntax&#45;&gt;X::Comp -->
<g id="edge7" class="edge">
<title>X::Syntax&#45;&gt;X::Comp</title>
<path fill="none" stroke="#6666ff" d="M228.37,-107.95C232.18,-116.03 236.83,-125.88 241.07,-134.89"/>
<polygon fill="#6666ff" stroke="#6666ff" points="238.04,-136.66 245.47,-144.21 244.37,-133.67 238.04,-136.66"/>
</g>
</g>
</svg>
