<?xml version="1.0" encoding="UTF-8" standalone="no"?>
<!DOCTYPE svg PUBLIC "-//W3C//DTD SVG 1.1//EN"
 "http://www.w3.org/Graphics/SVG/1.1/DTD/svg11.dtd">
<!-- Generated by graphviz version 2.42.3 (0)
 -->
<!-- Title: perl6&#45;type&#45;graph Pages: 1 -->
<svg width="172pt" height="188pt"
 viewBox="0.00 0.00 172.44 188.00" xmlns="http://www.w3.org/2000/svg" xmlns:xlink="http://www.w3.org/1999/xlink">
<g id="graph0" class="graph" transform="scale(1 1) rotate(0) translate(4 184)">
<title>perl6&#45;type&#45;graph</title>
<polygon fill="white" stroke="transparent" points="-4,4 -4,-184 168.44,-184 168.44,4 -4,4"/>
<!-- DateTime -->
<g id="node1" class="node">
<title>DateTime</title>
<g id="a_node1"><a xlink:href="/type/DateTime" xlink:title="DateTime">
<ellipse fill="none" stroke="#000000" cx="73.6" cy="-18" rx="53.89" ry="18"/>
<text text-anchor="middle" x="73.6" y="-14.3" font-family="FreeSans" font-size="14.00" fill="#000000">DateTime</text>
</a>
</g>
</g>
<!-- Any -->
<g id="node3" class="node">
<title>Any</title>
<g id="a_node3"><a xlink:href="/type/Any" xlink:title="Any">
<ellipse fill="none" stroke="#000000" cx="28.6" cy="-90" rx="28.7" ry="18"/>
<text text-anchor="middle" x="28.6" y="-86.3" font-family="FreeSans" font-size="14.00" fill="#000000">Any</text>
</a>
</g>
</g>
<!-- DateTime&#45;&gt;Any -->
<g id="edge1" class="edge">
<title>DateTime&#45;&gt;Any</title>
<path fill="none" stroke="#000000" d="M62.7,-35.95C57.18,-44.53 50.38,-55.11 44.31,-64.56"/>
<polygon fill="#000000" stroke="#000000" points="41.24,-62.87 38.77,-73.17 47.13,-66.65 41.24,-62.87"/>
</g>
<!-- Dateish -->
<g id="node4" class="node">
<title>Dateish</title>
<g id="a_node4"><a xlink:href="/type/Dateish" xlink:title="Dateish">
<ellipse fill="none" stroke="#6666ff" cx="119.6" cy="-90" rx="44.69" ry="18"/>
<text text-anchor="middle" x="119.6" y="-86.3" font-family="FreeSans" font-size="14.00" fill="#6666ff">Dateish</text>
</a>
</g>
</g>
<!-- DateTime&#45;&gt;Dateish -->
<g id="edge3" class="edge">
<title>DateTime&#45;&gt;Dateish</title>
<path fill="none" stroke="#6666ff" d="M84.73,-35.95C90.21,-44.29 96.93,-54.51 103,-63.75"/>
<polygon fill="#6666ff" stroke="#6666ff" points="100.15,-65.78 108.56,-72.21 106,-61.93 100.15,-65.78"/>
</g>
<!-- Mu -->
<g id="node2" class="node">
<title>Mu</title>
<g id="a_node2"><a xlink:href="/type/Mu" xlink:title="Mu">
<ellipse fill="none" stroke="#000000" cx="28.6" cy="-162" rx="27" ry="18"/>
<text text-anchor="middle" x="28.6" y="-158.3" font-family="FreeSans" font-size="14.00" fill="#000000">Mu</text>
</a>
</g>
</g>
<!-- Any&#45;&gt;Mu -->
<g id="edge2" class="edge">
<title>Any&#45;&gt;Mu</title>
<path fill="none" stroke="#000000" d="M28.6,-108.3C28.6,-116.02 28.6,-125.29 28.6,-133.89"/>
<polygon fill="#000000" stroke="#000000" points="25.1,-133.9 28.6,-143.9 32.1,-133.9 25.1,-133.9"/>
</g>
</g>
</svg>
