<?xml version="1.0" encoding="UTF-8" standalone="no"?>
<!DOCTYPE svg PUBLIC "-//W3C//DTD SVG 1.1//EN"
 "http://www.w3.org/Graphics/SVG/1.1/DTD/svg11.dtd">
<!-- Generated by graphviz version 2.42.3 (0)
 -->
<!-- Title: perl6&#45;type&#45;graph Pages: 1 -->
<svg width="376pt" height="404pt"
 viewBox="0.00 0.00 375.87 404.00" xmlns="http://www.w3.org/2000/svg" xmlns:xlink="http://www.w3.org/1999/xlink">
<g id="graph0" class="graph" transform="scale(1 1) rotate(0) translate(4 400)">
<title>perl6&#45;type&#45;graph</title>
<polygon fill="white" stroke="transparent" points="-4,4 -4,-400 371.87,-400 371.87,4 -4,4"/>
<!-- X::Syntax::Number::RadixOutOfRange -->
<g id="node1" class="node">
<title>X::Syntax::Number::RadixOutOfRange</title>
<g id="a_node1"><a xlink:href="/type/X::Syntax::Number::RadixOutOfRange" xlink:title="X::Syntax::Number::RadixOutOfRange">
<ellipse fill="none" stroke="#000000" cx="183.93" cy="-18" rx="183.87" ry="18"/>
<text text-anchor="middle" x="183.93" y="-14.3" font-family="FreeSans" font-size="14.00" fill="#000000">X::Syntax::Number::RadixOutOfRange</text>
</a>
</g>
</g>
<!-- Exception -->
<g id="node4" class="node">
<title>Exception</title>
<g id="a_node4"><a xlink:href="/type/Exception" xlink:title="Exception">
<ellipse fill="none" stroke="#000000" cx="206.93" cy="-234" rx="55.49" ry="18"/>
<text text-anchor="middle" x="206.93" y="-230.3" font-family="FreeSans" font-size="14.00" fill="#000000">Exception</text>
</a>
</g>
</g>
<!-- X::Syntax::Number::RadixOutOfRange&#45;&gt;Exception -->
<g id="edge1" class="edge">
<title>X::Syntax::Number::RadixOutOfRange&#45;&gt;Exception</title>
<path fill="none" stroke="#000000" d="M181.9,-36.15C182.34,-73.34 191.58,-161.63 199.41,-206.23"/>
<polygon fill="#000000" stroke="#000000" points="195.97,-206.88 201.26,-216.06 202.85,-205.59 195.97,-206.88"/>
</g>
<!-- X::Syntax::Number::RadixOutOfRange&#45;&gt;Exception -->
<g id="edge2" class="edge">
<title>X::Syntax::Number::RadixOutOfRange&#45;&gt;Exception</title>
<path fill="none" stroke="#000000" d="M189.65,-36.15C197.17,-73.17 206.86,-160.82 208.68,-205.61"/>
<polygon fill="#000000" stroke="#000000" points="205.19,-205.87 208.97,-215.77 212.19,-205.67 205.19,-205.87"/>
</g>
<!-- X::Syntax -->
<g id="node6" class="node">
<title>X::Syntax</title>
<g id="a_node6"><a xlink:href="/type/X::Syntax" xlink:title="X::Syntax">
<ellipse fill="none" stroke="#6666ff" cx="274.93" cy="-90" rx="53.89" ry="18"/>
<text text-anchor="middle" x="274.93" y="-86.3" font-family="FreeSans" font-size="14.00" fill="#6666ff">X::Syntax</text>
</a>
</g>
</g>
<!-- X::Syntax::Number::RadixOutOfRange&#45;&gt;X::Syntax -->
<g id="edge7" class="edge">
<title>X::Syntax::Number::RadixOutOfRange&#45;&gt;X::Syntax</title>
<path fill="none" stroke="#6666ff" d="M205.96,-35.95C218.04,-45.24 233.17,-56.87 246.17,-66.87"/>
<polygon fill="#6666ff" stroke="#6666ff" points="244.3,-69.85 254.36,-73.17 248.56,-64.3 244.3,-69.85"/>
</g>
<!-- Mu -->
<g id="node2" class="node">
<title>Mu</title>
<g id="a_node2"><a xlink:href="/type/Mu" xlink:title="Mu">
<ellipse fill="none" stroke="#000000" cx="206.93" cy="-378" rx="27" ry="18"/>
<text text-anchor="middle" x="206.93" y="-374.3" font-family="FreeSans" font-size="14.00" fill="#000000">Mu</text>
</a>
</g>
</g>
<!-- Any -->
<g id="node3" class="node">
<title>Any</title>
<g id="a_node3"><a xlink:href="/type/Any" xlink:title="Any">
<ellipse fill="none" stroke="#000000" cx="206.93" cy="-306" rx="28.7" ry="18"/>
<text text-anchor="middle" x="206.93" y="-302.3" font-family="FreeSans" font-size="14.00" fill="#000000">Any</text>
</a>
</g>
</g>
<!-- Any&#45;&gt;Mu -->
<g id="edge3" class="edge">
<title>Any&#45;&gt;Mu</title>
<path fill="none" stroke="#000000" d="M206.93,-324.3C206.93,-332.02 206.93,-341.29 206.93,-349.89"/>
<polygon fill="#000000" stroke="#000000" points="203.43,-349.9 206.93,-359.9 210.43,-349.9 203.43,-349.9"/>
</g>
<!-- Exception&#45;&gt;Any -->
<g id="edge4" class="edge">
<title>Exception&#45;&gt;Any</title>
<path fill="none" stroke="#000000" d="M206.93,-252.3C206.93,-260.02 206.93,-269.29 206.93,-277.89"/>
<polygon fill="#000000" stroke="#000000" points="203.43,-277.9 206.93,-287.9 210.43,-277.9 203.43,-277.9"/>
</g>
<!-- X::Comp -->
<g id="node5" class="node">
<title>X::Comp</title>
<g id="a_node5"><a xlink:href="/type/X::Comp" xlink:title="X::Comp">
<ellipse fill="none" stroke="#6666ff" cx="307.93" cy="-162" rx="49.29" ry="18"/>
<text text-anchor="middle" x="307.93" y="-158.3" font-family="FreeSans" font-size="14.00" fill="#6666ff">X::Comp</text>
</a>
</g>
</g>
<!-- X::Comp&#45;&gt;Exception -->
<g id="edge5" class="edge">
<title>X::Comp&#45;&gt;Exception</title>
<path fill="none" stroke="#000000" d="M286.02,-178.19C271.92,-187.96 253.39,-200.8 237.81,-211.6"/>
<polygon fill="#000000" stroke="#000000" points="235.73,-208.78 229.51,-217.36 239.72,-214.54 235.73,-208.78"/>
</g>
<!-- X::Syntax&#45;&gt;Exception -->
<g id="edge6" class="edge">
<title>X::Syntax&#45;&gt;Exception</title>
<path fill="none" stroke="#000000" d="M266.87,-107.85C255.11,-132.4 233.16,-178.23 219.34,-207.09"/>
<polygon fill="#000000" stroke="#000000" points="216.15,-205.64 214.99,-216.18 222.47,-208.67 216.15,-205.64"/>
</g>
<!-- X::Syntax&#45;&gt;X::Comp -->
<g id="edge8" class="edge">
<title>X::Syntax&#45;&gt;X::Comp</title>
<path fill="none" stroke="#6666ff" d="M282.92,-107.95C286.73,-116.03 291.38,-125.88 295.62,-134.89"/>
<polygon fill="#6666ff" stroke="#6666ff" points="292.59,-136.66 300.02,-144.21 298.92,-133.67 292.59,-136.66"/>
</g>
</g>
</svg>
