<?xml version="1.0" encoding="UTF-8" standalone="no"?>
<!DOCTYPE svg PUBLIC "-//W3C//DTD SVG 1.1//EN"
 "http://www.w3.org/Graphics/SVG/1.1/DTD/svg11.dtd">
<!-- Generated by graphviz version 2.42.3 (0)
 -->
<!-- Title: perl6&#45;type&#45;graph Pages: 1 -->
<svg width="256pt" height="332pt"
 viewBox="0.00 0.00 256.28 332.00" xmlns="http://www.w3.org/2000/svg" xmlns:xlink="http://www.w3.org/1999/xlink">
<g id="graph0" class="graph" transform="scale(1 1) rotate(0) translate(4 328)">
<title>perl6&#45;type&#45;graph</title>
<polygon fill="white" stroke="transparent" points="-4,4 -4,-328 252.28,-328 252.28,4 -4,4"/>
<!-- X::Signature::Placeholder -->
<g id="node1" class="node">
<title>X::Signature::Placeholder</title>
<g id="a_node1"><a xlink:href="/type/X::Signature::Placeholder" xlink:title="X::Signature::Placeholder">
<ellipse fill="none" stroke="#000000" cx="124.14" cy="-18" rx="124.28" ry="18"/>
<text text-anchor="middle" x="124.14" y="-14.3" font-family="FreeSans" font-size="14.00" fill="#000000">X::Signature::Placeholder</text>
</a>
</g>
</g>
<!-- Exception -->
<g id="node4" class="node">
<title>Exception</title>
<g id="a_node4"><a xlink:href="/type/Exception" xlink:title="Exception">
<ellipse fill="none" stroke="#000000" cx="124.14" cy="-162" rx="55.49" ry="18"/>
<text text-anchor="middle" x="124.14" y="-158.3" font-family="FreeSans" font-size="14.00" fill="#000000">Exception</text>
</a>
</g>
</g>
<!-- X::Signature::Placeholder&#45;&gt;Exception -->
<g id="edge1" class="edge">
<title>X::Signature::Placeholder&#45;&gt;Exception</title>
<path fill="none" stroke="#000000" d="M118.02,-36.06C112.47,-51.55 105.14,-72 105.14,-72 105.14,-72 105.14,-108 105.14,-108 105.14,-108 109.88,-121.24 114.63,-134.48"/>
<polygon fill="#000000" stroke="#000000" points="111.35,-135.71 118.02,-143.94 117.94,-133.34 111.35,-135.71"/>
</g>
<!-- X::Comp -->
<g id="node5" class="node">
<title>X::Comp</title>
<g id="a_node5"><a xlink:href="/type/X::Comp" xlink:title="X::Comp">
<ellipse fill="none" stroke="#6666ff" cx="163.14" cy="-90" rx="49.29" ry="18"/>
<text text-anchor="middle" x="163.14" y="-86.3" font-family="FreeSans" font-size="14.00" fill="#6666ff">X::Comp</text>
</a>
</g>
</g>
<!-- X::Signature::Placeholder&#45;&gt;X::Comp -->
<g id="edge5" class="edge">
<title>X::Signature::Placeholder&#45;&gt;X::Comp</title>
<path fill="none" stroke="#6666ff" d="M133.78,-36.3C138.27,-44.36 143.7,-54.11 148.66,-63.02"/>
<polygon fill="#6666ff" stroke="#6666ff" points="145.68,-64.86 153.61,-71.9 151.8,-61.46 145.68,-64.86"/>
</g>
<!-- Mu -->
<g id="node2" class="node">
<title>Mu</title>
<g id="a_node2"><a xlink:href="/type/Mu" xlink:title="Mu">
<ellipse fill="none" stroke="#000000" cx="124.14" cy="-306" rx="27" ry="18"/>
<text text-anchor="middle" x="124.14" y="-302.3" font-family="FreeSans" font-size="14.00" fill="#000000">Mu</text>
</a>
</g>
</g>
<!-- Any -->
<g id="node3" class="node">
<title>Any</title>
<g id="a_node3"><a xlink:href="/type/Any" xlink:title="Any">
<ellipse fill="none" stroke="#000000" cx="124.14" cy="-234" rx="28.7" ry="18"/>
<text text-anchor="middle" x="124.14" y="-230.3" font-family="FreeSans" font-size="14.00" fill="#000000">Any</text>
</a>
</g>
</g>
<!-- Any&#45;&gt;Mu -->
<g id="edge2" class="edge">
<title>Any&#45;&gt;Mu</title>
<path fill="none" stroke="#000000" d="M124.14,-252.3C124.14,-260.02 124.14,-269.29 124.14,-277.89"/>
<polygon fill="#000000" stroke="#000000" points="120.64,-277.9 124.14,-287.9 127.64,-277.9 120.64,-277.9"/>
</g>
<!-- Exception&#45;&gt;Any -->
<g id="edge3" class="edge">
<title>Exception&#45;&gt;Any</title>
<path fill="none" stroke="#000000" d="M124.14,-180.3C124.14,-188.02 124.14,-197.29 124.14,-205.89"/>
<polygon fill="#000000" stroke="#000000" points="120.64,-205.9 124.14,-215.9 127.64,-205.9 120.64,-205.9"/>
</g>
<!-- X::Comp&#45;&gt;Exception -->
<g id="edge4" class="edge">
<title>X::Comp&#45;&gt;Exception</title>
<path fill="none" stroke="#000000" d="M153.7,-107.95C149.1,-116.2 143.47,-126.3 138.37,-135.46"/>
<polygon fill="#000000" stroke="#000000" points="135.3,-133.77 133.49,-144.21 141.42,-137.18 135.3,-133.77"/>
</g>
</g>
</svg>
