<?xml version="1.0" encoding="UTF-8" standalone="no"?>
<!DOCTYPE svg PUBLIC "-//W3C//DTD SVG 1.1//EN"
 "http://www.w3.org/Graphics/SVG/1.1/DTD/svg11.dtd">
<!-- Generated by graphviz version 2.42.3 (0)
 -->
<!-- Title: perl6&#45;type&#45;graph Pages: 1 -->
<svg width="116pt" height="188pt"
 viewBox="0.00 0.00 115.89 188.00" xmlns="http://www.w3.org/2000/svg" xmlns:xlink="http://www.w3.org/1999/xlink">
<g id="graph0" class="graph" transform="scale(1 1) rotate(0) translate(4 184)">
<title>perl6&#45;type&#45;graph</title>
<polygon fill="white" stroke="transparent" points="-4,4 -4,-184 111.89,-184 111.89,4 -4,4"/>
<!-- Whatever -->
<g id="node1" class="node">
<title>Whatever</title>
<g id="a_node1"><a xlink:href="/type/Whatever" xlink:title="Whatever">
<ellipse fill="none" stroke="#000000" cx="53.95" cy="-18" rx="53.89" ry="18"/>
<text text-anchor="middle" x="53.95" y="-14.3" font-family="FreeSans" font-size="14.00" fill="#000000">Whatever</text>
</a>
</g>
</g>
<!-- Any -->
<g id="node3" class="node">
<title>Any</title>
<g id="a_node3"><a xlink:href="/type/Any" xlink:title="Any">
<ellipse fill="none" stroke="#000000" cx="53.95" cy="-90" rx="28.7" ry="18"/>
<text text-anchor="middle" x="53.95" y="-86.3" font-family="FreeSans" font-size="14.00" fill="#000000">Any</text>
</a>
</g>
</g>
<!-- Whatever&#45;&gt;Any -->
<g id="edge1" class="edge">
<title>Whatever&#45;&gt;Any</title>
<path fill="none" stroke="#000000" d="M53.95,-36.3C53.95,-44.02 53.95,-53.29 53.95,-61.89"/>
<polygon fill="#000000" stroke="#000000" points="50.45,-61.9 53.95,-71.9 57.45,-61.9 50.45,-61.9"/>
</g>
<!-- Mu -->
<g id="node2" class="node">
<title>Mu</title>
<g id="a_node2"><a xlink:href="/type/Mu" xlink:title="Mu">
<ellipse fill="none" stroke="#000000" cx="53.95" cy="-162" rx="27" ry="18"/>
<text text-anchor="middle" x="53.95" y="-158.3" font-family="FreeSans" font-size="14.00" fill="#000000">Mu</text>
</a>
</g>
</g>
<!-- Any&#45;&gt;Mu -->
<g id="edge2" class="edge">
<title>Any&#45;&gt;Mu</title>
<path fill="none" stroke="#000000" d="M53.95,-108.3C53.95,-116.02 53.95,-125.29 53.95,-133.89"/>
<polygon fill="#000000" stroke="#000000" points="50.45,-133.9 53.95,-143.9 57.45,-133.9 50.45,-133.9"/>
</g>
</g>
</svg>
