<?xml version="1.0" encoding="UTF-8" standalone="no"?>
<!DOCTYPE svg PUBLIC "-//W3C//DTD SVG 1.1//EN"
 "http://www.w3.org/Graphics/SVG/1.1/DTD/svg11.dtd">
<!-- Generated by graphviz version 2.42.3 (0)
 -->
<!-- Title: perl6&#45;type&#45;graph Pages: 1 -->
<svg width="718pt" height="404pt"
 viewBox="0.00 0.00 717.77 404.00" xmlns="http://www.w3.org/2000/svg" xmlns:xlink="http://www.w3.org/1999/xlink">
<g id="graph0" class="graph" transform="scale(1 1) rotate(0) translate(4 400)">
<title>perl6&#45;type&#45;graph</title>
<polygon fill="white" stroke="transparent" points="-4,4 -4,-400 713.77,-400 713.77,4 -4,4"/>
<!-- X::Pod -->
<g id="node1" class="node">
<title>X::Pod</title>
<g id="a_node1"><a xlink:href="/type/X::Pod" xlink:title="X::Pod">
<ellipse fill="none" stroke="#6666ff" cx="324.58" cy="-90" rx="39.79" ry="18"/>
<text text-anchor="middle" x="324.58" y="-86.3" font-family="FreeSans" font-size="14.00" fill="#6666ff">X::Pod</text>
</a>
</g>
</g>
<!-- Mu -->
<g id="node2" class="node">
<title>Mu</title>
<g id="a_node2"><a xlink:href="/type/Mu" xlink:title="Mu">
<ellipse fill="none" stroke="#000000" cx="431.58" cy="-378" rx="27" ry="18"/>
<text text-anchor="middle" x="431.58" y="-374.3" font-family="FreeSans" font-size="14.00" fill="#000000">Mu</text>
</a>
</g>
</g>
<!-- Any -->
<g id="node3" class="node">
<title>Any</title>
<g id="a_node3"><a xlink:href="/type/Any" xlink:title="Any">
<ellipse fill="none" stroke="#000000" cx="431.58" cy="-306" rx="28.7" ry="18"/>
<text text-anchor="middle" x="431.58" y="-302.3" font-family="FreeSans" font-size="14.00" fill="#000000">Any</text>
</a>
</g>
</g>
<!-- Any&#45;&gt;Mu -->
<g id="edge1" class="edge">
<title>Any&#45;&gt;Mu</title>
<path fill="none" stroke="#000000" d="M431.58,-324.3C431.58,-332.02 431.58,-341.29 431.58,-349.89"/>
<polygon fill="#000000" stroke="#000000" points="428.08,-349.9 431.58,-359.9 435.08,-349.9 428.08,-349.9"/>
</g>
<!-- Exception -->
<g id="node4" class="node">
<title>Exception</title>
<g id="a_node4"><a xlink:href="/type/Exception" xlink:title="Exception">
<ellipse fill="none" stroke="#000000" cx="431.58" cy="-234" rx="55.49" ry="18"/>
<text text-anchor="middle" x="431.58" y="-230.3" font-family="FreeSans" font-size="14.00" fill="#000000">Exception</text>
</a>
</g>
</g>
<!-- Exception&#45;&gt;Any -->
<g id="edge2" class="edge">
<title>Exception&#45;&gt;Any</title>
<path fill="none" stroke="#000000" d="M431.58,-252.3C431.58,-260.02 431.58,-269.29 431.58,-277.89"/>
<polygon fill="#000000" stroke="#000000" points="428.08,-277.9 431.58,-287.9 435.08,-277.9 428.08,-277.9"/>
</g>
<!-- X::Comp -->
<g id="node5" class="node">
<title>X::Comp</title>
<g id="a_node5"><a xlink:href="/type/X::Comp" xlink:title="X::Comp">
<ellipse fill="none" stroke="#6666ff" cx="393.58" cy="-162" rx="49.29" ry="18"/>
<text text-anchor="middle" x="393.58" y="-158.3" font-family="FreeSans" font-size="14.00" fill="#6666ff">X::Comp</text>
</a>
</g>
</g>
<!-- X::Comp&#45;&gt;Exception -->
<g id="edge3" class="edge">
<title>X::Comp&#45;&gt;Exception</title>
<path fill="none" stroke="#000000" d="M402.78,-179.95C407.22,-188.11 412.63,-198.09 417.56,-207.18"/>
<polygon fill="#000000" stroke="#000000" points="414.62,-209.09 422.47,-216.21 420.77,-205.75 414.62,-209.09"/>
</g>
<!-- X::Syntax -->
<g id="node6" class="node">
<title>X::Syntax</title>
<g id="a_node6"><a xlink:href="/type/X::Syntax" xlink:title="X::Syntax">
<ellipse fill="none" stroke="#6666ff" cx="446.58" cy="-90" rx="53.89" ry="18"/>
<text text-anchor="middle" x="446.58" y="-86.3" font-family="FreeSans" font-size="14.00" fill="#6666ff">X::Syntax</text>
</a>
</g>
</g>
<!-- X::Syntax&#45;&gt;Exception -->
<g id="edge4" class="edge">
<title>X::Syntax&#45;&gt;Exception</title>
<path fill="none" stroke="#000000" d="M448.19,-108.06C449.65,-123.55 451.58,-144 451.58,-144 451.58,-144 451.58,-180 451.58,-180 451.58,-180 446.59,-193.24 441.59,-206.48"/>
<polygon fill="#000000" stroke="#000000" points="438.28,-205.35 438.02,-215.94 444.83,-207.82 438.28,-205.35"/>
</g>
<!-- X::Syntax&#45;&gt;X::Comp -->
<g id="edge9" class="edge">
<title>X::Syntax&#45;&gt;X::Comp</title>
<path fill="none" stroke="#6666ff" d="M434.02,-107.59C427.49,-116.22 419.37,-126.94 412.13,-136.5"/>
<polygon fill="#6666ff" stroke="#6666ff" points="409.3,-134.44 406.05,-144.53 414.88,-138.67 409.3,-134.44"/>
</g>
<!-- X::Syntax::Pod::BeginWithoutIdentifier -->
<g id="node7" class="node">
<title>X::Syntax::Pod::BeginWithoutIdentifier</title>
<g id="a_node7"><a xlink:href="/type/X::Syntax::Pod::BeginWithoutIdentifier" xlink:title="X::Syntax::Pod::BeginWithoutIdentifier">
<ellipse fill="none" stroke="#000000" cx="184.58" cy="-18" rx="184.67" ry="18"/>
<text text-anchor="middle" x="184.58" y="-14.3" font-family="FreeSans" font-size="14.00" fill="#000000">X::Syntax::Pod::BeginWithoutIdentifier</text>
</a>
</g>
</g>
<!-- X::Syntax::Pod::BeginWithoutIdentifier&#45;&gt;X::Pod -->
<g id="edge11" class="edge">
<title>X::Syntax::Pod::BeginWithoutIdentifier&#45;&gt;X::Pod</title>
<path fill="none" stroke="#6666ff" d="M218.12,-35.77C239.78,-46.6 267.9,-60.66 289.8,-71.61"/>
<polygon fill="#6666ff" stroke="#6666ff" points="288.26,-74.75 298.77,-76.09 291.39,-68.49 288.26,-74.75"/>
</g>
<!-- X::Syntax::Pod::BeginWithoutIdentifier&#45;&gt;Exception -->
<g id="edge5" class="edge">
<title>X::Syntax::Pod::BeginWithoutIdentifier&#45;&gt;Exception</title>
<path fill="none" stroke="#000000" d="M196.3,-36.23C230.7,-77.76 326.58,-180 326.58,-180 326.58,-180 361.35,-199.2 391,-214.48"/>
<polygon fill="#000000" stroke="#000000" points="389.5,-217.64 400,-219.07 392.68,-211.41 389.5,-217.64"/>
</g>
<!-- X::Syntax::Pod::BeginWithoutIdentifier&#45;&gt;Exception -->
<g id="edge6" class="edge">
<title>X::Syntax::Pod::BeginWithoutIdentifier&#45;&gt;Exception</title>
<path fill="none" stroke="#000000" d="M204.87,-35.93C248.23,-77.26 344.58,-180 344.58,-180 344.58,-180 376.11,-197.41 401.34,-212.27"/>
<polygon fill="#000000" stroke="#000000" points="399.55,-215.28 409.93,-217.38 403.13,-209.26 399.55,-215.28"/>
</g>
<!-- X::Syntax::Pod::BeginWithoutIdentifier&#45;&gt;X::Syntax -->
<g id="edge10" class="edge">
<title>X::Syntax::Pod::BeginWithoutIdentifier&#45;&gt;X::Syntax</title>
<path fill="none" stroke="#6666ff" d="M244.69,-35.06C290.52,-47.3 352.92,-63.98 396.17,-75.53"/>
<polygon fill="#6666ff" stroke="#6666ff" points="395.34,-78.93 405.91,-78.13 397.15,-72.17 395.34,-78.93"/>
</g>
<!-- X::Syntax::Pod::BeginWithoutEnd -->
<g id="node8" class="node">
<title>X::Syntax::Pod::BeginWithoutEnd</title>
<g id="a_node8"><a xlink:href="/type/X::Syntax::Pod::BeginWithoutEnd" xlink:title="X::Syntax::Pod::BeginWithoutEnd">
<ellipse fill="none" stroke="#000000" cx="548.58" cy="-18" rx="161.37" ry="18"/>
<text text-anchor="middle" x="548.58" y="-14.3" font-family="FreeSans" font-size="14.00" fill="#000000">X::Syntax::Pod::BeginWithoutEnd</text>
</a>
</g>
</g>
<!-- X::Syntax::Pod::BeginWithoutEnd&#45;&gt;X::Pod -->
<g id="edge13" class="edge">
<title>X::Syntax::Pod::BeginWithoutEnd&#45;&gt;X::Pod</title>
<path fill="none" stroke="#6666ff" d="M496.91,-35.15C457.23,-47.55 403.15,-64.45 366.22,-75.99"/>
<polygon fill="#6666ff" stroke="#6666ff" points="364.78,-72.77 356.28,-79.09 366.87,-79.45 364.78,-72.77"/>
</g>
<!-- X::Syntax::Pod::BeginWithoutEnd&#45;&gt;Exception -->
<g id="edge7" class="edge">
<title>X::Syntax::Pod::BeginWithoutEnd&#45;&gt;Exception</title>
<path fill="none" stroke="#000000" d="M535.41,-36.16C520.73,-62.02 500.58,-108 500.58,-108 500.58,-108 456.58,-180 456.58,-180 456.58,-180 447.93,-193.5 440.5,-206.87"/>
<polygon fill="#000000" stroke="#000000" points="437.29,-205.47 435.68,-215.94 443.47,-208.75 437.29,-205.47"/>
</g>
<!-- X::Syntax::Pod::BeginWithoutEnd&#45;&gt;Exception -->
<g id="edge8" class="edge">
<title>X::Syntax::Pod::BeginWithoutEnd&#45;&gt;Exception</title>
<path fill="none" stroke="#000000" d="M546.72,-36.16C538.73,-62.02 518.58,-108 518.58,-108 518.58,-108 474.58,-180 474.58,-180 474.58,-180 465.07,-194.83 454.77,-208.8"/>
<polygon fill="#000000" stroke="#000000" points="451.95,-206.73 448.69,-216.81 457.53,-210.97 451.95,-206.73"/>
</g>
<!-- X::Syntax::Pod::BeginWithoutEnd&#45;&gt;X::Syntax -->
<g id="edge12" class="edge">
<title>X::Syntax::Pod::BeginWithoutEnd&#45;&gt;X::Syntax</title>
<path fill="none" stroke="#6666ff" d="M523.89,-35.95C509.99,-45.48 492.5,-57.49 477.68,-67.66"/>
<polygon fill="#6666ff" stroke="#6666ff" points="475.57,-64.86 469.3,-73.41 479.53,-70.64 475.57,-64.86"/>
</g>
</g>
</svg>
