<?xml version="1.0" encoding="UTF-8" standalone="no"?>
<!DOCTYPE svg PUBLIC "-//W3C//DTD SVG 1.1//EN"
 "http://www.w3.org/Graphics/SVG/1.1/DTD/svg11.dtd">
<!-- Generated by graphviz version 2.42.3 (0)
 -->
<!-- Title: perl6&#45;type&#45;graph Pages: 1 -->
<svg width="330pt" height="404pt"
 viewBox="0.00 0.00 329.58 404.00" xmlns="http://www.w3.org/2000/svg" xmlns:xlink="http://www.w3.org/1999/xlink">
<g id="graph0" class="graph" transform="scale(1 1) rotate(0) translate(4 400)">
<title>perl6&#45;type&#45;graph</title>
<polygon fill="white" stroke="transparent" points="-4,4 -4,-400 325.58,-400 325.58,4 -4,4"/>
<!-- X::Syntax::KeywordAsFunction -->
<g id="node1" class="node">
<title>X::Syntax::KeywordAsFunction</title>
<g id="a_node1"><a xlink:href="/type/X::Syntax::KeywordAsFunction" xlink:title="X::Syntax::KeywordAsFunction">
<ellipse fill="none" stroke="#000000" cx="148.19" cy="-18" rx="148.37" ry="18"/>
<text text-anchor="middle" x="148.19" y="-14.3" font-family="FreeSans" font-size="14.00" fill="#000000">X::Syntax::KeywordAsFunction</text>
</a>
</g>
</g>
<!-- Exception -->
<g id="node4" class="node">
<title>Exception</title>
<g id="a_node4"><a xlink:href="/type/Exception" xlink:title="Exception">
<ellipse fill="none" stroke="#000000" cx="171.19" cy="-234" rx="55.49" ry="18"/>
<text text-anchor="middle" x="171.19" y="-230.3" font-family="FreeSans" font-size="14.00" fill="#000000">Exception</text>
</a>
</g>
</g>
<!-- X::Syntax::KeywordAsFunction&#45;&gt;Exception -->
<g id="edge1" class="edge">
<title>X::Syntax::KeywordAsFunction&#45;&gt;Exception</title>
<path fill="none" stroke="#000000" d="M146.15,-36.15C146.6,-73.34 155.83,-161.63 163.66,-206.23"/>
<polygon fill="#000000" stroke="#000000" points="160.22,-206.88 165.51,-216.06 167.1,-205.59 160.22,-206.88"/>
</g>
<!-- X::Syntax::KeywordAsFunction&#45;&gt;Exception -->
<g id="edge2" class="edge">
<title>X::Syntax::KeywordAsFunction&#45;&gt;Exception</title>
<path fill="none" stroke="#000000" d="M153.91,-36.15C161.42,-73.17 171.11,-160.82 172.94,-205.61"/>
<polygon fill="#000000" stroke="#000000" points="169.44,-205.87 173.22,-215.77 176.44,-205.67 169.44,-205.87"/>
</g>
<!-- X::Syntax -->
<g id="node6" class="node">
<title>X::Syntax</title>
<g id="a_node6"><a xlink:href="/type/X::Syntax" xlink:title="X::Syntax">
<ellipse fill="none" stroke="#6666ff" cx="239.19" cy="-90" rx="53.89" ry="18"/>
<text text-anchor="middle" x="239.19" y="-86.3" font-family="FreeSans" font-size="14.00" fill="#6666ff">X::Syntax</text>
</a>
</g>
</g>
<!-- X::Syntax::KeywordAsFunction&#45;&gt;X::Syntax -->
<g id="edge7" class="edge">
<title>X::Syntax::KeywordAsFunction&#45;&gt;X::Syntax</title>
<path fill="none" stroke="#6666ff" d="M170.22,-35.95C182.3,-45.24 197.42,-56.87 210.42,-66.87"/>
<polygon fill="#6666ff" stroke="#6666ff" points="208.55,-69.85 218.61,-73.17 212.82,-64.3 208.55,-69.85"/>
</g>
<!-- Mu -->
<g id="node2" class="node">
<title>Mu</title>
<g id="a_node2"><a xlink:href="/type/Mu" xlink:title="Mu">
<ellipse fill="none" stroke="#000000" cx="171.19" cy="-378" rx="27" ry="18"/>
<text text-anchor="middle" x="171.19" y="-374.3" font-family="FreeSans" font-size="14.00" fill="#000000">Mu</text>
</a>
</g>
</g>
<!-- Any -->
<g id="node3" class="node">
<title>Any</title>
<g id="a_node3"><a xlink:href="/type/Any" xlink:title="Any">
<ellipse fill="none" stroke="#000000" cx="171.19" cy="-306" rx="28.7" ry="18"/>
<text text-anchor="middle" x="171.19" y="-302.3" font-family="FreeSans" font-size="14.00" fill="#000000">Any</text>
</a>
</g>
</g>
<!-- Any&#45;&gt;Mu -->
<g id="edge3" class="edge">
<title>Any&#45;&gt;Mu</title>
<path fill="none" stroke="#000000" d="M171.19,-324.3C171.19,-332.02 171.19,-341.29 171.19,-349.89"/>
<polygon fill="#000000" stroke="#000000" points="167.69,-349.9 171.19,-359.9 174.69,-349.9 167.69,-349.9"/>
</g>
<!-- Exception&#45;&gt;Any -->
<g id="edge4" class="edge">
<title>Exception&#45;&gt;Any</title>
<path fill="none" stroke="#000000" d="M171.19,-252.3C171.19,-260.02 171.19,-269.29 171.19,-277.89"/>
<polygon fill="#000000" stroke="#000000" points="167.69,-277.9 171.19,-287.9 174.69,-277.9 167.69,-277.9"/>
</g>
<!-- X::Comp -->
<g id="node5" class="node">
<title>X::Comp</title>
<g id="a_node5"><a xlink:href="/type/X::Comp" xlink:title="X::Comp">
<ellipse fill="none" stroke="#6666ff" cx="272.19" cy="-162" rx="49.29" ry="18"/>
<text text-anchor="middle" x="272.19" y="-158.3" font-family="FreeSans" font-size="14.00" fill="#6666ff">X::Comp</text>
</a>
</g>
</g>
<!-- X::Comp&#45;&gt;Exception -->
<g id="edge5" class="edge">
<title>X::Comp&#45;&gt;Exception</title>
<path fill="none" stroke="#000000" d="M250.27,-178.19C236.17,-187.96 217.64,-200.8 202.06,-211.6"/>
<polygon fill="#000000" stroke="#000000" points="199.98,-208.78 193.76,-217.36 203.97,-214.54 199.98,-208.78"/>
</g>
<!-- X::Syntax&#45;&gt;Exception -->
<g id="edge6" class="edge">
<title>X::Syntax&#45;&gt;Exception</title>
<path fill="none" stroke="#000000" d="M231.12,-107.85C219.36,-132.4 197.42,-178.23 183.59,-207.09"/>
<polygon fill="#000000" stroke="#000000" points="180.41,-205.64 179.24,-216.18 186.72,-208.67 180.41,-205.64"/>
</g>
<!-- X::Syntax&#45;&gt;X::Comp -->
<g id="edge8" class="edge">
<title>X::Syntax&#45;&gt;X::Comp</title>
<path fill="none" stroke="#6666ff" d="M247.18,-107.95C250.99,-116.03 255.63,-125.88 259.88,-134.89"/>
<polygon fill="#6666ff" stroke="#6666ff" points="256.84,-136.66 264.27,-144.21 263.17,-133.67 256.84,-136.66"/>
</g>
</g>
</svg>
