<?xml version="1.0" encoding="UTF-8" standalone="no"?>
<!DOCTYPE svg PUBLIC "-//W3C//DTD SVG 1.1//EN"
 "http://www.w3.org/Graphics/SVG/1.1/DTD/svg11.dtd">
<!-- Generated by graphviz version 2.42.3 (0)
 -->
<!-- Title: perl6&#45;type&#45;graph Pages: 1 -->
<svg width="439pt" height="70pt"
 viewBox="0.00 0.00 438.75 69.92" xmlns="http://www.w3.org/2000/svg" xmlns:xlink="http://www.w3.org/1999/xlink">
<g id="graph0" class="graph" transform="scale(1 1) rotate(0) translate(4 65.92)">
<title>perl6&#45;type&#45;graph</title>
<polygon fill="white" stroke="transparent" points="-4,4 -4,-65.92 434.75,-65.92 434.75,4 -4,4"/>
<!-- Metamodel::Primitives -->
<g id="node1" class="node">
<title>Metamodel::Primitives</title>
<g id="a_node1"><a xlink:href="/type/Metamodel::Primitives" xlink:title="Metamodel::Primitives">
<ellipse fill="none" stroke="#000000" cx="110.49" cy="-37.96" rx="110.48" ry="18"/>
<text text-anchor="middle" x="110.49" y="-34.26" font-family="FreeSans" font-size="14.00" fill="#000000">Metamodel::Primitives</text>
</a>
</g>
</g>
<!-- Any -->
<g id="node3" class="node">
<title>Any</title>
<g id="a_node3"><a xlink:href="/type/Any" xlink:title="Any">
<ellipse fill="none" stroke="#000000" cx="257.59" cy="-18" rx="28.7" ry="18"/>
<text text-anchor="middle" x="257.59" y="-14.3" font-family="FreeSans" font-size="14.00" fill="#000000">Any</text>
</a>
</g>
</g>
<!-- Metamodel::Primitives&#45;&gt;Any -->
<g id="edge1" class="edge">
<title>Metamodel::Primitives&#45;&gt;Any</title>
<path fill="none" stroke="#000000" d="M195.63,-26.41C203.93,-25.28 212.02,-24.18 219.47,-23.17"/>
<polygon fill="#000000" stroke="#000000" points="220.1,-26.62 229.53,-21.81 219.15,-19.68 220.1,-26.62"/>
</g>
<!-- Mu -->
<g id="node2" class="node">
<title>Mu</title>
<g id="a_node2"><a xlink:href="/type/Mu" xlink:title="Mu">
<ellipse fill="none" stroke="#000000" cx="403.75" cy="-43.92" rx="27" ry="18"/>
<text text-anchor="middle" x="403.75" y="-40.22" font-family="FreeSans" font-size="14.00" fill="#000000">Mu</text>
</a>
</g>
</g>
<!-- Any&#45;&gt;Mu -->
<g id="edge2" class="edge">
<title>Any&#45;&gt;Mu</title>
<path fill="none" stroke="#000000" d="M285.43,-22.94C308.72,-27.07 342.13,-32.99 367.51,-37.49"/>
<polygon fill="#000000" stroke="#000000" points="367.04,-40.96 377.49,-39.26 368.26,-34.07 367.04,-40.96"/>
</g>
</g>
</svg>
