<?xml version="1.0" encoding="UTF-8" standalone="no"?>
<!DOCTYPE svg PUBLIC "-//W3C//DTD SVG 1.1//EN"
 "http://www.w3.org/Graphics/SVG/1.1/DTD/svg11.dtd">
<!-- Generated by graphviz version 2.42.3 (0)
 -->
<!-- Title: perl6&#45;type&#45;graph Pages: 1 -->
<svg width="255pt" height="260pt"
 viewBox="0.00 0.00 255.44 260.00" xmlns="http://www.w3.org/2000/svg" xmlns:xlink="http://www.w3.org/1999/xlink">
<g id="graph0" class="graph" transform="scale(1 1) rotate(0) translate(4 256)">
<title>perl6&#45;type&#45;graph</title>
<polygon fill="white" stroke="transparent" points="-4,4 -4,-256 251.44,-256 251.44,4 -4,4"/>
<!-- MOP -->
<g id="node1" class="node">
<title>MOP</title>
<g id="a_node1"><a xlink:href="/type/MOP" xlink:title="MOP">
<ellipse fill="none" stroke="#000000" cx="50.19" cy="-90" rx="31.4" ry="18"/>
<text text-anchor="middle" x="50.19" y="-86.3" font-family="FreeSans" font-size="14.00" fill="#000000">MOP</text>
</a>
</g>
</g>
<!-- Any -->
<g id="node3" class="node">
<title>Any</title>
<g id="a_node3"><a xlink:href="/type/Any" xlink:title="Any">
<ellipse fill="none" stroke="#000000" cx="109.19" cy="-162" rx="28.7" ry="18"/>
<text text-anchor="middle" x="109.19" y="-158.3" font-family="FreeSans" font-size="14.00" fill="#000000">Any</text>
</a>
</g>
</g>
<!-- MOP&#45;&gt;Any -->
<g id="edge1" class="edge">
<title>MOP&#45;&gt;Any</title>
<path fill="none" stroke="#000000" d="M63.28,-106.54C71,-115.69 80.91,-127.45 89.55,-137.69"/>
<polygon fill="#000000" stroke="#000000" points="87.01,-140.12 96.13,-145.51 92.36,-135.61 87.01,-140.12"/>
</g>
<!-- Mu -->
<g id="node2" class="node">
<title>Mu</title>
<g id="a_node2"><a xlink:href="/type/Mu" xlink:title="Mu">
<ellipse fill="none" stroke="#000000" cx="109.19" cy="-234" rx="27" ry="18"/>
<text text-anchor="middle" x="109.19" y="-230.3" font-family="FreeSans" font-size="14.00" fill="#000000">Mu</text>
</a>
</g>
</g>
<!-- Any&#45;&gt;Mu -->
<g id="edge2" class="edge">
<title>Any&#45;&gt;Mu</title>
<path fill="none" stroke="#000000" d="M109.19,-180.3C109.19,-188.02 109.19,-197.29 109.19,-205.89"/>
<polygon fill="#000000" stroke="#000000" points="105.69,-205.9 109.19,-215.9 112.69,-205.9 105.69,-205.9"/>
</g>
<!-- Exception -->
<g id="node4" class="node">
<title>Exception</title>
<g id="a_node4"><a xlink:href="/type/Exception" xlink:title="Exception">
<ellipse fill="none" stroke="#000000" cx="192.19" cy="-90" rx="55.49" ry="18"/>
<text text-anchor="middle" x="192.19" y="-86.3" font-family="FreeSans" font-size="14.00" fill="#000000">Exception</text>
</a>
</g>
</g>
<!-- Exception&#45;&gt;Any -->
<g id="edge3" class="edge">
<title>Exception&#45;&gt;Any</title>
<path fill="none" stroke="#000000" d="M172.94,-107.24C161.15,-117.17 145.97,-129.98 133.38,-140.6"/>
<polygon fill="#000000" stroke="#000000" points="130.93,-138.09 125.54,-147.21 135.44,-143.44 130.93,-138.09"/>
</g>
<!-- X::Attribute::Required -->
<g id="node5" class="node">
<title>X::Attribute::Required</title>
<g id="a_node5"><a xlink:href="/type/X::Attribute::Required" xlink:title="X::Attribute::Required">
<ellipse fill="none" stroke="#000000" cx="109.19" cy="-18" rx="109.38" ry="18"/>
<text text-anchor="middle" x="109.19" y="-14.3" font-family="FreeSans" font-size="14.00" fill="#000000">X::Attribute::Required</text>
</a>
</g>
</g>
<!-- X::Attribute::Required&#45;&gt;MOP -->
<g id="edge6" class="edge">
<title>X::Attribute::Required&#45;&gt;MOP</title>
<path fill="none" stroke="#6666ff" d="M94.91,-35.95C87.45,-44.8 78.2,-55.77 70.05,-65.43"/>
<polygon fill="#6666ff" stroke="#6666ff" points="67.3,-63.27 63.53,-73.17 72.65,-67.78 67.3,-63.27"/>
</g>
<!-- X::Attribute::Required&#45;&gt;Any -->
<g id="edge5" class="edge">
<title>X::Attribute::Required&#45;&gt;Any</title>
<path fill="none" stroke="#000000" d="M109.19,-36.13C109.19,-60.33 109.19,-104.79 109.19,-133.61"/>
<polygon fill="#000000" stroke="#000000" points="105.69,-133.81 109.19,-143.81 112.69,-133.81 105.69,-133.81"/>
</g>
<!-- X::Attribute::Required&#45;&gt;Exception -->
<g id="edge4" class="edge">
<title>X::Attribute::Required&#45;&gt;Exception</title>
<path fill="none" stroke="#000000" d="M129.28,-35.95C140.12,-45.08 153.64,-56.49 165.36,-66.37"/>
<polygon fill="#000000" stroke="#000000" points="163.24,-69.16 173.14,-72.93 167.75,-63.81 163.24,-69.16"/>
</g>
</g>
</svg>
