<?xml version="1.0" encoding="UTF-8" standalone="no"?>
<!DOCTYPE svg PUBLIC "-//W3C//DTD SVG 1.1//EN"
 "http://www.w3.org/Graphics/SVG/1.1/DTD/svg11.dtd">
<!-- Generated by graphviz version 2.42.3 (0)
 -->
<!-- Title: perl6&#45;type&#45;graph Pages: 1 -->
<svg width="296pt" height="404pt"
 viewBox="0.00 0.00 296.44 404.00" xmlns="http://www.w3.org/2000/svg" xmlns:xlink="http://www.w3.org/1999/xlink">
<g id="graph0" class="graph" transform="scale(1 1) rotate(0) translate(4 400)">
<title>perl6&#45;type&#45;graph</title>
<polygon fill="white" stroke="transparent" points="-4,4 -4,-400 292.44,-400 292.44,4 -4,4"/>
<!-- X::Syntax::NegatedPair -->
<g id="node1" class="node">
<title>X::Syntax::NegatedPair</title>
<g id="a_node1"><a xlink:href="/type/X::Syntax::NegatedPair" xlink:title="X::Syntax::NegatedPair">
<ellipse fill="none" stroke="#000000" cx="115.04" cy="-18" rx="115.08" ry="18"/>
<text text-anchor="middle" x="115.04" y="-14.3" font-family="FreeSans" font-size="14.00" fill="#000000">X::Syntax::NegatedPair</text>
</a>
</g>
</g>
<!-- Exception -->
<g id="node4" class="node">
<title>Exception</title>
<g id="a_node4"><a xlink:href="/type/Exception" xlink:title="Exception">
<ellipse fill="none" stroke="#000000" cx="138.04" cy="-234" rx="55.49" ry="18"/>
<text text-anchor="middle" x="138.04" y="-230.3" font-family="FreeSans" font-size="14.00" fill="#000000">Exception</text>
</a>
</g>
</g>
<!-- X::Syntax::NegatedPair&#45;&gt;Exception -->
<g id="edge1" class="edge">
<title>X::Syntax::NegatedPair&#45;&gt;Exception</title>
<path fill="none" stroke="#000000" d="M113.01,-36.15C113.45,-73.34 122.68,-161.63 130.51,-206.23"/>
<polygon fill="#000000" stroke="#000000" points="127.07,-206.88 132.36,-216.06 133.95,-205.59 127.07,-206.88"/>
</g>
<!-- X::Syntax::NegatedPair&#45;&gt;Exception -->
<g id="edge2" class="edge">
<title>X::Syntax::NegatedPair&#45;&gt;Exception</title>
<path fill="none" stroke="#000000" d="M120.76,-36.15C128.27,-73.17 137.97,-160.82 139.79,-205.61"/>
<polygon fill="#000000" stroke="#000000" points="136.29,-205.87 140.07,-215.77 143.29,-205.67 136.29,-205.87"/>
</g>
<!-- X::Syntax -->
<g id="node6" class="node">
<title>X::Syntax</title>
<g id="a_node6"><a xlink:href="/type/X::Syntax" xlink:title="X::Syntax">
<ellipse fill="none" stroke="#6666ff" cx="206.04" cy="-90" rx="53.89" ry="18"/>
<text text-anchor="middle" x="206.04" y="-86.3" font-family="FreeSans" font-size="14.00" fill="#6666ff">X::Syntax</text>
</a>
</g>
</g>
<!-- X::Syntax::NegatedPair&#45;&gt;X::Syntax -->
<g id="edge7" class="edge">
<title>X::Syntax::NegatedPair&#45;&gt;X::Syntax</title>
<path fill="none" stroke="#6666ff" d="M137.07,-35.95C149.15,-45.24 164.27,-56.87 177.28,-66.87"/>
<polygon fill="#6666ff" stroke="#6666ff" points="175.4,-69.85 185.46,-73.17 179.67,-64.3 175.4,-69.85"/>
</g>
<!-- Mu -->
<g id="node2" class="node">
<title>Mu</title>
<g id="a_node2"><a xlink:href="/type/Mu" xlink:title="Mu">
<ellipse fill="none" stroke="#000000" cx="138.04" cy="-378" rx="27" ry="18"/>
<text text-anchor="middle" x="138.04" y="-374.3" font-family="FreeSans" font-size="14.00" fill="#000000">Mu</text>
</a>
</g>
</g>
<!-- Any -->
<g id="node3" class="node">
<title>Any</title>
<g id="a_node3"><a xlink:href="/type/Any" xlink:title="Any">
<ellipse fill="none" stroke="#000000" cx="138.04" cy="-306" rx="28.7" ry="18"/>
<text text-anchor="middle" x="138.04" y="-302.3" font-family="FreeSans" font-size="14.00" fill="#000000">Any</text>
</a>
</g>
</g>
<!-- Any&#45;&gt;Mu -->
<g id="edge3" class="edge">
<title>Any&#45;&gt;Mu</title>
<path fill="none" stroke="#000000" d="M138.04,-324.3C138.04,-332.02 138.04,-341.29 138.04,-349.89"/>
<polygon fill="#000000" stroke="#000000" points="134.54,-349.9 138.04,-359.9 141.54,-349.9 134.54,-349.9"/>
</g>
<!-- Exception&#45;&gt;Any -->
<g id="edge4" class="edge">
<title>Exception&#45;&gt;Any</title>
<path fill="none" stroke="#000000" d="M138.04,-252.3C138.04,-260.02 138.04,-269.29 138.04,-277.89"/>
<polygon fill="#000000" stroke="#000000" points="134.54,-277.9 138.04,-287.9 141.54,-277.9 134.54,-277.9"/>
</g>
<!-- X::Comp -->
<g id="node5" class="node">
<title>X::Comp</title>
<g id="a_node5"><a xlink:href="/type/X::Comp" xlink:title="X::Comp">
<ellipse fill="none" stroke="#6666ff" cx="239.04" cy="-162" rx="49.29" ry="18"/>
<text text-anchor="middle" x="239.04" y="-158.3" font-family="FreeSans" font-size="14.00" fill="#6666ff">X::Comp</text>
</a>
</g>
</g>
<!-- X::Comp&#45;&gt;Exception -->
<g id="edge5" class="edge">
<title>X::Comp&#45;&gt;Exception</title>
<path fill="none" stroke="#000000" d="M217.12,-178.19C203.03,-187.96 184.5,-200.8 168.92,-211.6"/>
<polygon fill="#000000" stroke="#000000" points="166.84,-208.78 160.61,-217.36 170.82,-214.54 166.84,-208.78"/>
</g>
<!-- X::Syntax&#45;&gt;Exception -->
<g id="edge6" class="edge">
<title>X::Syntax&#45;&gt;Exception</title>
<path fill="none" stroke="#000000" d="M197.97,-107.85C186.21,-132.4 164.27,-178.23 150.45,-207.09"/>
<polygon fill="#000000" stroke="#000000" points="147.26,-205.64 146.1,-216.18 153.57,-208.67 147.26,-205.64"/>
</g>
<!-- X::Syntax&#45;&gt;X::Comp -->
<g id="edge8" class="edge">
<title>X::Syntax&#45;&gt;X::Comp</title>
<path fill="none" stroke="#6666ff" d="M214.03,-107.95C217.84,-116.03 222.48,-125.88 226.73,-134.89"/>
<polygon fill="#6666ff" stroke="#6666ff" points="223.69,-136.66 231.12,-144.21 230.03,-133.67 223.69,-136.66"/>
</g>
</g>
</svg>
