<?xml version="1.0" encoding="UTF-8" standalone="no"?>
<!DOCTYPE svg PUBLIC "-//W3C//DTD SVG 1.1//EN"
 "http://www.w3.org/Graphics/SVG/1.1/DTD/svg11.dtd">
<!-- Generated by graphviz version 2.42.3 (0)
 -->
<!-- Title: perl6&#45;type&#45;graph Pages: 1 -->
<svg width="182pt" height="332pt"
 viewBox="0.00 0.00 181.74 332.00" xmlns="http://www.w3.org/2000/svg" xmlns:xlink="http://www.w3.org/1999/xlink">
<g id="graph0" class="graph" transform="scale(1 1) rotate(0) translate(4 328)">
<title>perl6&#45;type&#45;graph</title>
<polygon fill="white" stroke="transparent" points="-4,4 -4,-328 177.74,-328 177.74,4 -4,4"/>
<!-- MixHash -->
<g id="node1" class="node">
<title>MixHash</title>
<g id="a_node1"><a xlink:href="/type/MixHash" xlink:title="MixHash">
<ellipse fill="none" stroke="#000000" cx="69" cy="-18" rx="49.29" ry="18"/>
<text text-anchor="middle" x="69" y="-14.3" font-family="FreeSans" font-size="14.00" fill="#000000">MixHash</text>
</a>
</g>
</g>
<!-- Any -->
<g id="node3" class="node">
<title>Any</title>
<g id="a_node3"><a xlink:href="/type/Any" xlink:title="Any">
<ellipse fill="none" stroke="#000000" cx="30" cy="-90" rx="28.7" ry="18"/>
<text text-anchor="middle" x="30" y="-86.3" font-family="FreeSans" font-size="14.00" fill="#000000">Any</text>
</a>
</g>
</g>
<!-- MixHash&#45;&gt;Any -->
<g id="edge1" class="edge">
<title>MixHash&#45;&gt;Any</title>
<path fill="none" stroke="#000000" d="M59.56,-35.95C54.89,-44.32 49.17,-54.6 44,-63.87"/>
<polygon fill="#000000" stroke="#000000" points="40.89,-62.25 39.09,-72.69 47.01,-65.66 40.89,-62.25"/>
</g>
<!-- Mixy -->
<g id="node7" class="node">
<title>Mixy</title>
<g id="a_node7"><a xlink:href="/type/Mixy" xlink:title="Mixy">
<ellipse fill="none" stroke="#6666ff" cx="110" cy="-90" rx="31.7" ry="18"/>
<text text-anchor="middle" x="110" y="-86.3" font-family="FreeSans" font-size="14.00" fill="#6666ff">Mixy</text>
</a>
</g>
</g>
<!-- MixHash&#45;&gt;Mixy -->
<g id="edge3" class="edge">
<title>MixHash&#45;&gt;Mixy</title>
<path fill="none" stroke="#6666ff" d="M78.92,-35.95C83.83,-44.32 89.85,-54.6 95.28,-63.87"/>
<polygon fill="#6666ff" stroke="#6666ff" points="92.37,-65.83 100.45,-72.69 98.41,-62.3 92.37,-65.83"/>
</g>
<!-- Mu -->
<g id="node2" class="node">
<title>Mu</title>
<g id="a_node2"><a xlink:href="/type/Mu" xlink:title="Mu">
<ellipse fill="none" stroke="#000000" cx="27" cy="-162" rx="27" ry="18"/>
<text text-anchor="middle" x="27" y="-158.3" font-family="FreeSans" font-size="14.00" fill="#000000">Mu</text>
</a>
</g>
</g>
<!-- Any&#45;&gt;Mu -->
<g id="edge2" class="edge">
<title>Any&#45;&gt;Mu</title>
<path fill="none" stroke="#000000" d="M29.26,-108.3C28.93,-116.02 28.53,-125.29 28.16,-133.89"/>
<polygon fill="#000000" stroke="#000000" points="24.66,-133.75 27.73,-143.9 31.66,-134.05 24.66,-133.75"/>
</g>
<!-- Associative -->
<g id="node4" class="node">
<title>Associative</title>
<g id="a_node4"><a xlink:href="/type/Associative" xlink:title="Associative">
<ellipse fill="none" stroke="#6666ff" cx="112" cy="-306" rx="61.99" ry="18"/>
<text text-anchor="middle" x="112" y="-302.3" font-family="FreeSans" font-size="14.00" fill="#6666ff">Associative</text>
</a>
</g>
</g>
<!-- QuantHash -->
<g id="node5" class="node">
<title>QuantHash</title>
<g id="a_node5"><a xlink:href="/type/QuantHash" xlink:title="QuantHash">
<ellipse fill="none" stroke="#6666ff" cx="112" cy="-234" rx="61.99" ry="18"/>
<text text-anchor="middle" x="112" y="-230.3" font-family="FreeSans" font-size="14.00" fill="#6666ff">QuantHash</text>
</a>
</g>
</g>
<!-- QuantHash&#45;&gt;Associative -->
<g id="edge4" class="edge">
<title>QuantHash&#45;&gt;Associative</title>
<path fill="none" stroke="#6666ff" d="M112,-252.3C112,-260.02 112,-269.29 112,-277.89"/>
<polygon fill="#6666ff" stroke="#6666ff" points="108.5,-277.9 112,-287.9 115.5,-277.9 108.5,-277.9"/>
</g>
<!-- Baggy -->
<g id="node6" class="node">
<title>Baggy</title>
<g id="a_node6"><a xlink:href="/type/Baggy" xlink:title="Baggy">
<ellipse fill="none" stroke="#6666ff" cx="112" cy="-162" rx="39.79" ry="18"/>
<text text-anchor="middle" x="112" y="-158.3" font-family="FreeSans" font-size="14.00" fill="#6666ff">Baggy</text>
</a>
</g>
</g>
<!-- Baggy&#45;&gt;QuantHash -->
<g id="edge5" class="edge">
<title>Baggy&#45;&gt;QuantHash</title>
<path fill="none" stroke="#6666ff" d="M112,-180.3C112,-188.02 112,-197.29 112,-205.89"/>
<polygon fill="#6666ff" stroke="#6666ff" points="108.5,-205.9 112,-215.9 115.5,-205.9 108.5,-205.9"/>
</g>
<!-- Mixy&#45;&gt;Baggy -->
<g id="edge6" class="edge">
<title>Mixy&#45;&gt;Baggy</title>
<path fill="none" stroke="#6666ff" d="M110.49,-108.3C110.71,-116.02 110.98,-125.29 111.23,-133.89"/>
<polygon fill="#6666ff" stroke="#6666ff" points="107.73,-134 111.51,-143.9 114.72,-133.8 107.73,-134"/>
</g>
</g>
</svg>
