<?xml version="1.0" encoding="UTF-8" standalone="no"?>
<!DOCTYPE svg PUBLIC "-//W3C//DTD SVG 1.1//EN"
 "http://www.w3.org/Graphics/SVG/1.1/DTD/svg11.dtd">
<!-- Generated by graphviz version 2.42.3 (0)
 -->
<!-- Title: perl6&#45;type&#45;graph Pages: 1 -->
<svg width="420pt" height="260pt"
 viewBox="0.00 0.00 419.59 260.00" xmlns="http://www.w3.org/2000/svg" xmlns:xlink="http://www.w3.org/1999/xlink">
<g id="graph0" class="graph" transform="scale(1 1) rotate(0) translate(4 256)">
<title>perl6&#45;type&#45;graph</title>
<polygon fill="white" stroke="transparent" points="-4,4 -4,-256 415.59,-256 415.59,4 -4,4"/>
<!-- Sequence -->
<g id="node1" class="node">
<title>Sequence</title>
<g id="a_node1"><a xlink:href="/type/Sequence" xlink:title="Sequence">
<ellipse fill="none" stroke="#6666ff" cx="134.55" cy="-90" rx="55.49" ry="18"/>
<text text-anchor="middle" x="134.55" y="-86.3" font-family="FreeSans" font-size="14.00" fill="#6666ff">Sequence</text>
</a>
</g>
</g>
<!-- PositionalBindFailover -->
<g id="node2" class="node">
<title>PositionalBindFailover</title>
<g id="a_node2"><a xlink:href="/type/PositionalBindFailover" xlink:title="PositionalBindFailover">
<ellipse fill="none" stroke="#6666ff" cx="134.55" cy="-162" rx="109.38" ry="18"/>
<text text-anchor="middle" x="134.55" y="-158.3" font-family="FreeSans" font-size="14.00" fill="#6666ff">PositionalBindFailover</text>
</a>
</g>
</g>
<!-- Sequence&#45;&gt;PositionalBindFailover -->
<g id="edge6" class="edge">
<title>Sequence&#45;&gt;PositionalBindFailover</title>
<path fill="none" stroke="#6666ff" d="M134.55,-108.3C134.55,-116.02 134.55,-125.29 134.55,-133.89"/>
<polygon fill="#6666ff" stroke="#6666ff" points="131.05,-133.9 134.55,-143.9 138.05,-133.9 131.05,-133.9"/>
</g>
<!-- Mu -->
<g id="node3" class="node">
<title>Mu</title>
<g id="a_node3"><a xlink:href="/type/Mu" xlink:title="Mu">
<ellipse fill="none" stroke="#000000" cx="326.55" cy="-234" rx="27" ry="18"/>
<text text-anchor="middle" x="326.55" y="-230.3" font-family="FreeSans" font-size="14.00" fill="#000000">Mu</text>
</a>
</g>
</g>
<!-- Any -->
<g id="node4" class="node">
<title>Any</title>
<g id="a_node4"><a xlink:href="/type/Any" xlink:title="Any">
<ellipse fill="none" stroke="#000000" cx="326.55" cy="-162" rx="28.7" ry="18"/>
<text text-anchor="middle" x="326.55" y="-158.3" font-family="FreeSans" font-size="14.00" fill="#000000">Any</text>
</a>
</g>
</g>
<!-- Any&#45;&gt;Mu -->
<g id="edge1" class="edge">
<title>Any&#45;&gt;Mu</title>
<path fill="none" stroke="#000000" d="M326.55,-180.3C326.55,-188.02 326.55,-197.29 326.55,-205.89"/>
<polygon fill="#000000" stroke="#000000" points="323.05,-205.9 326.55,-215.9 330.05,-205.9 323.05,-205.9"/>
</g>
<!-- Iterable -->
<g id="node5" class="node">
<title>Iterable</title>
<g id="a_node5"><a xlink:href="/type/Iterable" xlink:title="Iterable">
<ellipse fill="none" stroke="#6666ff" cx="253.55" cy="-90" rx="45.49" ry="18"/>
<text text-anchor="middle" x="253.55" y="-86.3" font-family="FreeSans" font-size="14.00" fill="#6666ff">Iterable</text>
</a>
</g>
</g>
<!-- HyperSeq -->
<g id="node6" class="node">
<title>HyperSeq</title>
<g id="a_node6"><a xlink:href="/type/HyperSeq" xlink:title="HyperSeq">
<ellipse fill="none" stroke="#000000" cx="238.55" cy="-18" rx="55.49" ry="18"/>
<text text-anchor="middle" x="238.55" y="-14.3" font-family="FreeSans" font-size="14.00" fill="#000000">HyperSeq</text>
</a>
</g>
</g>
<!-- HyperSeq&#45;&gt;Sequence -->
<g id="edge8" class="edge">
<title>HyperSeq&#45;&gt;Sequence</title>
<path fill="none" stroke="#6666ff" d="M215.47,-34.54C200.92,-44.32 181.96,-57.09 166.04,-67.8"/>
<polygon fill="#6666ff" stroke="#6666ff" points="163.91,-65.02 157.56,-73.51 167.81,-70.83 163.91,-65.02"/>
</g>
<!-- HyperSeq&#45;&gt;Any -->
<g id="edge2" class="edge">
<title>HyperSeq&#45;&gt;Any</title>
<path fill="none" stroke="#000000" d="M259.25,-34.9C279.57,-50.51 307.55,-72 307.55,-72 307.55,-72 315.2,-107.83 320.79,-134.03"/>
<polygon fill="#000000" stroke="#000000" points="317.37,-134.79 322.88,-143.84 324.22,-133.33 317.37,-134.79"/>
</g>
<!-- HyperSeq&#45;&gt;Iterable -->
<g id="edge7" class="edge">
<title>HyperSeq&#45;&gt;Iterable</title>
<path fill="none" stroke="#6666ff" d="M242.26,-36.3C243.91,-44.02 245.89,-53.29 247.74,-61.89"/>
<polygon fill="#6666ff" stroke="#6666ff" points="244.36,-62.85 249.88,-71.9 251.21,-61.38 244.36,-62.85"/>
</g>
<!-- RaceSeq -->
<g id="node7" class="node">
<title>RaceSeq</title>
<g id="a_node7"><a xlink:href="/type/RaceSeq" xlink:title="RaceSeq">
<ellipse fill="none" stroke="#000000" cx="361.55" cy="-18" rx="50.09" ry="18"/>
<text text-anchor="middle" x="361.55" y="-14.3" font-family="FreeSans" font-size="14.00" fill="#000000">RaceSeq</text>
</a>
</g>
</g>
<!-- RaceSeq&#45;&gt;Sequence -->
<g id="edge10" class="edge">
<title>RaceSeq&#45;&gt;Sequence</title>
<path fill="none" stroke="#6666ff" d="M324.82,-30.32C286.17,-42.24 225.17,-61.06 182.69,-74.16"/>
<polygon fill="#6666ff" stroke="#6666ff" points="181.64,-70.81 173.12,-77.11 183.7,-77.5 181.64,-70.81"/>
</g>
<!-- RaceSeq&#45;&gt;Any -->
<g id="edge3" class="edge">
<title>RaceSeq&#45;&gt;Any</title>
<path fill="none" stroke="#000000" d="M357.5,-36.16C351.4,-62.02 340.55,-108 340.55,-108 340.55,-108 337.12,-120.98 333.65,-134.1"/>
<polygon fill="#000000" stroke="#000000" points="330.22,-133.38 331.05,-143.94 336.99,-135.16 330.22,-133.38"/>
</g>
<!-- RaceSeq&#45;&gt;Iterable -->
<g id="edge9" class="edge">
<title>RaceSeq&#45;&gt;Iterable</title>
<path fill="none" stroke="#6666ff" d="M338.38,-34.02C322.76,-44.14 301.95,-57.62 284.86,-68.7"/>
<polygon fill="#6666ff" stroke="#6666ff" points="282.79,-65.87 276.31,-74.25 286.6,-71.75 282.79,-65.87"/>
</g>
<!-- Cool -->
<g id="node8" class="node">
<title>Cool</title>
<g id="a_node8"><a xlink:href="/type/Cool" xlink:title="Cool">
<ellipse fill="none" stroke="#000000" cx="30.55" cy="-90" rx="30.59" ry="18"/>
<text text-anchor="middle" x="30.55" y="-86.3" font-family="FreeSans" font-size="14.00" fill="#000000">Cool</text>
</a>
</g>
</g>
<!-- Cool&#45;&gt;Any -->
<g id="edge4" class="edge">
<title>Cool&#45;&gt;Any</title>
<path fill="none" stroke="#000000" d="M54.74,-101.28C63.16,-104.86 70.55,-108 70.55,-108 70.55,-108 252.55,-144 252.55,-144 252.55,-144 271.29,-148.31 289.91,-152.58"/>
<polygon fill="#000000" stroke="#000000" points="289.3,-156.03 299.83,-154.86 290.87,-149.21 289.3,-156.03"/>
</g>
<!-- Seq -->
<g id="node9" class="node">
<title>Seq</title>
<g id="a_node9"><a xlink:href="/type/Seq" xlink:title="Seq">
<ellipse fill="none" stroke="#000000" cx="134.55" cy="-18" rx="27.9" ry="18"/>
<text text-anchor="middle" x="134.55" y="-14.3" font-family="FreeSans" font-size="14.00" fill="#000000">Seq</text>
</a>
</g>
</g>
<!-- Seq&#45;&gt;Sequence -->
<g id="edge12" class="edge">
<title>Seq&#45;&gt;Sequence</title>
<path fill="none" stroke="#6666ff" d="M134.55,-36.3C134.55,-44.02 134.55,-53.29 134.55,-61.89"/>
<polygon fill="#6666ff" stroke="#6666ff" points="131.05,-61.9 134.55,-71.9 138.05,-61.9 131.05,-61.9"/>
</g>
<!-- Seq&#45;&gt;Iterable -->
<g id="edge11" class="edge">
<title>Seq&#45;&gt;Iterable</title>
<path fill="none" stroke="#6666ff" d="M154.47,-30.72C172.41,-41.27 199.15,-57 220.33,-69.46"/>
<polygon fill="#6666ff" stroke="#6666ff" points="218.63,-72.52 229.03,-74.58 222.18,-66.49 218.63,-72.52"/>
</g>
<!-- Seq&#45;&gt;Cool -->
<g id="edge5" class="edge">
<title>Seq&#45;&gt;Cool</title>
<path fill="none" stroke="#000000" d="M115.95,-31.51C99.99,-42.26 76.73,-57.91 58.52,-70.17"/>
<polygon fill="#000000" stroke="#000000" points="56.38,-67.39 50.04,-75.88 60.29,-73.2 56.38,-67.39"/>
</g>
</g>
</svg>
