<?xml version="1.0" encoding="UTF-8" standalone="no"?>
<!DOCTYPE svg PUBLIC "-//W3C//DTD SVG 1.1//EN"
 "http://www.w3.org/Graphics/SVG/1.1/DTD/svg11.dtd">
<!-- Generated by graphviz version 2.42.3 (0)
 -->
<!-- Title: perl6&#45;type&#45;graph Pages: 1 -->
<svg width="284pt" height="404pt"
 viewBox="0.00 0.00 284.09 404.00" xmlns="http://www.w3.org/2000/svg" xmlns:xlink="http://www.w3.org/1999/xlink">
<g id="graph0" class="graph" transform="scale(1 1) rotate(0) translate(4 400)">
<title>perl6&#45;type&#45;graph</title>
<polygon fill="white" stroke="transparent" points="-4,4 -4,-400 280.09,-400 280.09,4 -4,4"/>
<!-- X::Syntax::Reserved -->
<g id="node1" class="node">
<title>X::Syntax::Reserved</title>
<g id="a_node1"><a xlink:href="/type/X::Syntax::Reserved" xlink:title="X::Syntax::Reserved">
<ellipse fill="none" stroke="#000000" cx="102.69" cy="-18" rx="102.88" ry="18"/>
<text text-anchor="middle" x="102.69" y="-14.3" font-family="FreeSans" font-size="14.00" fill="#000000">X::Syntax::Reserved</text>
</a>
</g>
</g>
<!-- Exception -->
<g id="node4" class="node">
<title>Exception</title>
<g id="a_node4"><a xlink:href="/type/Exception" xlink:title="Exception">
<ellipse fill="none" stroke="#000000" cx="125.69" cy="-234" rx="55.49" ry="18"/>
<text text-anchor="middle" x="125.69" y="-230.3" font-family="FreeSans" font-size="14.00" fill="#000000">Exception</text>
</a>
</g>
</g>
<!-- X::Syntax::Reserved&#45;&gt;Exception -->
<g id="edge1" class="edge">
<title>X::Syntax::Reserved&#45;&gt;Exception</title>
<path fill="none" stroke="#000000" d="M100.66,-36.15C101.1,-73.34 110.33,-161.63 118.16,-206.23"/>
<polygon fill="#000000" stroke="#000000" points="114.72,-206.88 120.01,-216.06 121.6,-205.59 114.72,-206.88"/>
</g>
<!-- X::Syntax::Reserved&#45;&gt;Exception -->
<g id="edge2" class="edge">
<title>X::Syntax::Reserved&#45;&gt;Exception</title>
<path fill="none" stroke="#000000" d="M108.41,-36.15C115.93,-73.17 125.62,-160.82 127.44,-205.61"/>
<polygon fill="#000000" stroke="#000000" points="123.95,-205.87 127.72,-215.77 130.94,-205.67 123.95,-205.87"/>
</g>
<!-- X::Syntax -->
<g id="node6" class="node">
<title>X::Syntax</title>
<g id="a_node6"><a xlink:href="/type/X::Syntax" xlink:title="X::Syntax">
<ellipse fill="none" stroke="#6666ff" cx="193.69" cy="-90" rx="53.89" ry="18"/>
<text text-anchor="middle" x="193.69" y="-86.3" font-family="FreeSans" font-size="14.00" fill="#6666ff">X::Syntax</text>
</a>
</g>
</g>
<!-- X::Syntax::Reserved&#45;&gt;X::Syntax -->
<g id="edge7" class="edge">
<title>X::Syntax::Reserved&#45;&gt;X::Syntax</title>
<path fill="none" stroke="#6666ff" d="M124.72,-35.95C136.8,-45.24 151.92,-56.87 164.93,-66.87"/>
<polygon fill="#6666ff" stroke="#6666ff" points="163.05,-69.85 173.11,-73.17 167.32,-64.3 163.05,-69.85"/>
</g>
<!-- Mu -->
<g id="node2" class="node">
<title>Mu</title>
<g id="a_node2"><a xlink:href="/type/Mu" xlink:title="Mu">
<ellipse fill="none" stroke="#000000" cx="125.69" cy="-378" rx="27" ry="18"/>
<text text-anchor="middle" x="125.69" y="-374.3" font-family="FreeSans" font-size="14.00" fill="#000000">Mu</text>
</a>
</g>
</g>
<!-- Any -->
<g id="node3" class="node">
<title>Any</title>
<g id="a_node3"><a xlink:href="/type/Any" xlink:title="Any">
<ellipse fill="none" stroke="#000000" cx="125.69" cy="-306" rx="28.7" ry="18"/>
<text text-anchor="middle" x="125.69" y="-302.3" font-family="FreeSans" font-size="14.00" fill="#000000">Any</text>
</a>
</g>
</g>
<!-- Any&#45;&gt;Mu -->
<g id="edge3" class="edge">
<title>Any&#45;&gt;Mu</title>
<path fill="none" stroke="#000000" d="M125.69,-324.3C125.69,-332.02 125.69,-341.29 125.69,-349.89"/>
<polygon fill="#000000" stroke="#000000" points="122.19,-349.9 125.69,-359.9 129.19,-349.9 122.19,-349.9"/>
</g>
<!-- Exception&#45;&gt;Any -->
<g id="edge4" class="edge">
<title>Exception&#45;&gt;Any</title>
<path fill="none" stroke="#000000" d="M125.69,-252.3C125.69,-260.02 125.69,-269.29 125.69,-277.89"/>
<polygon fill="#000000" stroke="#000000" points="122.19,-277.9 125.69,-287.9 129.19,-277.9 122.19,-277.9"/>
</g>
<!-- X::Comp -->
<g id="node5" class="node">
<title>X::Comp</title>
<g id="a_node5"><a xlink:href="/type/X::Comp" xlink:title="X::Comp">
<ellipse fill="none" stroke="#6666ff" cx="226.69" cy="-162" rx="49.29" ry="18"/>
<text text-anchor="middle" x="226.69" y="-158.3" font-family="FreeSans" font-size="14.00" fill="#6666ff">X::Comp</text>
</a>
</g>
</g>
<!-- X::Comp&#45;&gt;Exception -->
<g id="edge5" class="edge">
<title>X::Comp&#45;&gt;Exception</title>
<path fill="none" stroke="#000000" d="M204.78,-178.19C190.68,-187.96 172.15,-200.8 156.57,-211.6"/>
<polygon fill="#000000" stroke="#000000" points="154.49,-208.78 148.26,-217.36 158.48,-214.54 154.49,-208.78"/>
</g>
<!-- X::Syntax&#45;&gt;Exception -->
<g id="edge6" class="edge">
<title>X::Syntax&#45;&gt;Exception</title>
<path fill="none" stroke="#000000" d="M185.62,-107.85C173.87,-132.4 151.92,-178.23 138.1,-207.09"/>
<polygon fill="#000000" stroke="#000000" points="134.91,-205.64 133.75,-216.18 141.22,-208.67 134.91,-205.64"/>
</g>
<!-- X::Syntax&#45;&gt;X::Comp -->
<g id="edge8" class="edge">
<title>X::Syntax&#45;&gt;X::Comp</title>
<path fill="none" stroke="#6666ff" d="M201.68,-107.95C205.49,-116.03 210.13,-125.88 214.38,-134.89"/>
<polygon fill="#6666ff" stroke="#6666ff" points="211.35,-136.66 218.78,-144.21 217.68,-133.67 211.35,-136.66"/>
</g>
</g>
</svg>
