<?xml version="1.0" encoding="UTF-8" standalone="no"?>
<!DOCTYPE svg PUBLIC "-//W3C//DTD SVG 1.1//EN"
 "http://www.w3.org/Graphics/SVG/1.1/DTD/svg11.dtd">
<!-- Generated by graphviz version 2.42.3 (0)
 -->
<!-- Title: perl6&#45;type&#45;graph Pages: 1 -->
<svg width="1535pt" height="332pt"
 viewBox="0.00 0.00 1534.74 332.00" xmlns="http://www.w3.org/2000/svg" xmlns:xlink="http://www.w3.org/1999/xlink">
<g id="graph0" class="graph" transform="scale(1 1) rotate(0) translate(4 328)">
<title>perl6&#45;type&#45;graph</title>
<polygon fill="white" stroke="transparent" points="-4,4 -4,-328 1530.74,-328 1530.74,4 -4,4"/>
<!-- Cool -->
<g id="node1" class="node">
<title>Cool</title>
<g id="a_node1"><a xlink:href="/type/Cool" xlink:title="Cool">
<ellipse fill="none" stroke="#000000" cx="689.95" cy="-162" rx="30.59" ry="18"/>
<text text-anchor="middle" x="689.95" y="-158.3" font-family="FreeSans" font-size="14.00" fill="#000000">Cool</text>
</a>
</g>
</g>
<!-- Any -->
<g id="node3" class="node">
<title>Any</title>
<g id="a_node3"><a xlink:href="/type/Any" xlink:title="Any">
<ellipse fill="none" stroke="#000000" cx="596.95" cy="-234" rx="28.7" ry="18"/>
<text text-anchor="middle" x="596.95" y="-230.3" font-family="FreeSans" font-size="14.00" fill="#000000">Any</text>
</a>
</g>
</g>
<!-- Cool&#45;&gt;Any -->
<g id="edge1" class="edge">
<title>Cool&#45;&gt;Any</title>
<path fill="none" stroke="#000000" d="M671.57,-176.83C657.64,-187.32 638.3,-201.87 622.81,-213.54"/>
<polygon fill="#000000" stroke="#000000" points="620.53,-210.86 614.65,-219.67 624.74,-216.46 620.53,-210.86"/>
</g>
<!-- Mu -->
<g id="node2" class="node">
<title>Mu</title>
<g id="a_node2"><a xlink:href="/type/Mu" xlink:title="Mu">
<ellipse fill="none" stroke="#000000" cx="596.95" cy="-306" rx="27" ry="18"/>
<text text-anchor="middle" x="596.95" y="-302.3" font-family="FreeSans" font-size="14.00" fill="#000000">Mu</text>
</a>
</g>
</g>
<!-- Any&#45;&gt;Mu -->
<g id="edge2" class="edge">
<title>Any&#45;&gt;Mu</title>
<path fill="none" stroke="#000000" d="M596.95,-252.3C596.95,-260.02 596.95,-269.29 596.95,-277.89"/>
<polygon fill="#000000" stroke="#000000" points="593.45,-277.9 596.95,-287.9 600.45,-277.9 593.45,-277.9"/>
</g>
<!-- Positional -->
<g id="node4" class="node">
<title>Positional</title>
<g id="a_node4"><a xlink:href="/type/Positional" xlink:title="Positional">
<ellipse fill="none" stroke="#6666ff" cx="53.95" cy="-162" rx="53.89" ry="18"/>
<text text-anchor="middle" x="53.95" y="-158.3" font-family="FreeSans" font-size="14.00" fill="#6666ff">Positional</text>
</a>
</g>
</g>
<!-- Iterable -->
<g id="node5" class="node">
<title>Iterable</title>
<g id="a_node5"><a xlink:href="/type/Iterable" xlink:title="Iterable">
<ellipse fill="none" stroke="#6666ff" cx="170.95" cy="-162" rx="45.49" ry="18"/>
<text text-anchor="middle" x="170.95" y="-158.3" font-family="FreeSans" font-size="14.00" fill="#6666ff">Iterable</text>
</a>
</g>
</g>
<!-- List -->
<g id="node6" class="node">
<title>List</title>
<g id="a_node6"><a xlink:href="/type/List" xlink:title="List">
<ellipse fill="none" stroke="#000000" cx="74.95" cy="-90" rx="27" ry="18"/>
<text text-anchor="middle" x="74.95" y="-86.3" font-family="FreeSans" font-size="14.00" fill="#000000">List</text>
</a>
</g>
</g>
<!-- List&#45;&gt;Cool -->
<g id="edge3" class="edge">
<title>List&#45;&gt;Cool</title>
<path fill="none" stroke="#000000" d="M96.3,-101.09C104.05,-104.75 110.95,-108 110.95,-108 110.95,-108 640.95,-144 640.95,-144 640.95,-144 646.88,-146.06 654.63,-148.75"/>
<polygon fill="#000000" stroke="#000000" points="653.7,-152.13 664.3,-152.1 656,-145.52 653.7,-152.13"/>
</g>
<!-- List&#45;&gt;Positional -->
<g id="edge21" class="edge">
<title>List&#45;&gt;Positional</title>
<path fill="none" stroke="#6666ff" d="M69.86,-107.95C67.52,-115.74 64.69,-125.18 62.07,-133.92"/>
<polygon fill="#6666ff" stroke="#6666ff" points="58.65,-133.14 59.13,-143.72 65.35,-135.15 58.65,-133.14"/>
</g>
<!-- List&#45;&gt;Iterable -->
<g id="edge22" class="edge">
<title>List&#45;&gt;Iterable</title>
<path fill="none" stroke="#6666ff" d="M92.55,-103.84C106.25,-113.83 125.57,-127.91 141.6,-139.6"/>
<polygon fill="#6666ff" stroke="#6666ff" points="139.97,-142.74 150.11,-145.81 144.09,-137.09 139.97,-142.74"/>
</g>
<!-- Capture -->
<g id="node7" class="node">
<title>Capture</title>
<g id="a_node7"><a xlink:href="/type/Capture" xlink:title="Capture">
<ellipse fill="none" stroke="#000000" cx="585.95" cy="-162" rx="46.29" ry="18"/>
<text text-anchor="middle" x="585.95" y="-158.3" font-family="FreeSans" font-size="14.00" fill="#000000">Capture</text>
</a>
</g>
</g>
<!-- Capture&#45;&gt;Any -->
<g id="edge4" class="edge">
<title>Capture&#45;&gt;Any</title>
<path fill="none" stroke="#000000" d="M588.66,-180.3C589.88,-188.02 591.33,-197.29 592.68,-205.89"/>
<polygon fill="#000000" stroke="#000000" points="589.25,-206.56 594.26,-215.9 596.16,-205.47 589.25,-206.56"/>
</g>
<!-- Match -->
<g id="node8" class="node">
<title>Match</title>
<g id="a_node8"><a xlink:href="/type/Match" xlink:title="Match">
<ellipse fill="none" stroke="#000000" cx="407.95" cy="-90" rx="38.19" ry="18"/>
<text text-anchor="middle" x="407.95" y="-86.3" font-family="FreeSans" font-size="14.00" fill="#000000">Match</text>
</a>
</g>
</g>
<!-- Match&#45;&gt;Cool -->
<g id="edge6" class="edge">
<title>Match&#45;&gt;Cool</title>
<path fill="none" stroke="#000000" d="M437.44,-101.67C446.89,-105.09 454.95,-108 454.95,-108 454.95,-108 640.95,-144 640.95,-144 640.95,-144 646.88,-146.06 654.63,-148.75"/>
<polygon fill="#000000" stroke="#000000" points="653.7,-152.13 664.3,-152.1 656,-145.52 653.7,-152.13"/>
</g>
<!-- Match&#45;&gt;Capture -->
<g id="edge5" class="edge">
<title>Match&#45;&gt;Capture</title>
<path fill="none" stroke="#000000" d="M436.54,-102.25C465.97,-113.82 512.08,-131.95 545.29,-145.01"/>
<polygon fill="#000000" stroke="#000000" points="544.13,-148.32 554.72,-148.72 546.7,-141.8 544.13,-148.32"/>
</g>
<!-- Numeric -->
<g id="node9" class="node">
<title>Numeric</title>
<g id="a_node9"><a xlink:href="/type/Numeric" xlink:title="Numeric">
<ellipse fill="none" stroke="#6666ff" cx="1218.95" cy="-234" rx="48.99" ry="18"/>
<text text-anchor="middle" x="1218.95" y="-230.3" font-family="FreeSans" font-size="14.00" fill="#6666ff">Numeric</text>
</a>
</g>
</g>
<!-- Real -->
<g id="node10" class="node">
<title>Real</title>
<g id="a_node10"><a xlink:href="/type/Real" xlink:title="Real">
<ellipse fill="none" stroke="#6666ff" cx="1041.95" cy="-162" rx="30.59" ry="18"/>
<text text-anchor="middle" x="1041.95" y="-158.3" font-family="FreeSans" font-size="14.00" fill="#6666ff">Real</text>
</a>
</g>
</g>
<!-- Real&#45;&gt;Numeric -->
<g id="edge23" class="edge">
<title>Real&#45;&gt;Numeric</title>
<path fill="none" stroke="#6666ff" d="M1066.56,-172.73C1095.21,-184.06 1142.99,-202.96 1177.42,-216.58"/>
<polygon fill="#6666ff" stroke="#6666ff" points="1176.16,-219.84 1186.75,-220.27 1178.74,-213.34 1176.16,-219.84"/>
</g>
<!-- Rational -->
<g id="node11" class="node">
<title>Rational</title>
<g id="a_node11"><a xlink:href="/type/Rational" xlink:title="Rational">
<ellipse fill="none" stroke="#6666ff" cx="1177.95" cy="-90" rx="47.39" ry="18"/>
<text text-anchor="middle" x="1177.95" y="-86.3" font-family="FreeSans" font-size="14.00" fill="#6666ff">Rational</text>
</a>
</g>
</g>
<!-- Rational&#45;&gt;Real -->
<g id="edge24" class="edge">
<title>Rational&#45;&gt;Real</title>
<path fill="none" stroke="#6666ff" d="M1150.75,-105C1128.4,-116.5 1096.73,-132.8 1073.31,-144.85"/>
<polygon fill="#6666ff" stroke="#6666ff" points="1071.44,-141.88 1064.15,-149.57 1074.64,-148.11 1071.44,-141.88"/>
</g>
<!-- Rat -->
<g id="node12" class="node">
<title>Rat</title>
<g id="a_node12"><a xlink:href="/type/Rat" xlink:title="Rat">
<ellipse fill="none" stroke="#000000" cx="1076.95" cy="-18" rx="27" ry="18"/>
<text text-anchor="middle" x="1076.95" y="-14.3" font-family="FreeSans" font-size="14.00" fill="#000000">Rat</text>
</a>
</g>
</g>
<!-- Rat&#45;&gt;Cool -->
<g id="edge7" class="edge">
<title>Rat&#45;&gt;Cool</title>
<path fill="none" stroke="#000000" d="M1051.05,-23.16C973.26,-35.65 746.95,-72 746.95,-72 746.95,-72 722.87,-109.59 706.01,-135.92"/>
<polygon fill="#000000" stroke="#000000" points="702.85,-134.37 700.4,-144.68 708.74,-138.14 702.85,-134.37"/>
</g>
<!-- Rat&#45;&gt;Rational -->
<g id="edge25" class="edge">
<title>Rat&#45;&gt;Rational</title>
<path fill="none" stroke="#6666ff" d="M1095,-31.51C1109.59,-41.63 1130.45,-56.08 1147.6,-67.97"/>
<polygon fill="#6666ff" stroke="#6666ff" points="1145.97,-71.09 1156.18,-73.91 1149.95,-65.34 1145.97,-71.09"/>
</g>
<!-- Range -->
<g id="node13" class="node">
<title>Range</title>
<g id="a_node13"><a xlink:href="/type/Range" xlink:title="Range">
<ellipse fill="none" stroke="#000000" cx="159.95" cy="-90" rx="39.79" ry="18"/>
<text text-anchor="middle" x="159.95" y="-86.3" font-family="FreeSans" font-size="14.00" fill="#000000">Range</text>
</a>
</g>
</g>
<!-- Range&#45;&gt;Cool -->
<g id="edge8" class="edge">
<title>Range&#45;&gt;Cool</title>
<path fill="none" stroke="#000000" d="M190.42,-101.57C200.39,-105.03 208.95,-108 208.95,-108 208.95,-108 640.95,-144 640.95,-144 640.95,-144 646.88,-146.06 654.63,-148.75"/>
<polygon fill="#000000" stroke="#000000" points="653.7,-152.13 664.3,-152.1 656,-145.52 653.7,-152.13"/>
</g>
<!-- Range&#45;&gt;Positional -->
<g id="edge26" class="edge">
<title>Range&#45;&gt;Positional</title>
<path fill="none" stroke="#6666ff" d="M138.49,-105.17C123.35,-115.17 102.8,-128.74 85.75,-140"/>
<polygon fill="#6666ff" stroke="#6666ff" points="83.62,-137.21 77.2,-145.64 87.48,-143.05 83.62,-137.21"/>
</g>
<!-- Range&#45;&gt;Iterable -->
<g id="edge27" class="edge">
<title>Range&#45;&gt;Iterable</title>
<path fill="none" stroke="#6666ff" d="M162.66,-108.3C163.88,-116.02 165.33,-125.29 166.68,-133.89"/>
<polygon fill="#6666ff" stroke="#6666ff" points="163.25,-134.56 168.26,-143.9 170.16,-133.47 163.25,-134.56"/>
</g>
<!-- Associative -->
<g id="node14" class="node">
<title>Associative</title>
<g id="a_node14"><a xlink:href="/type/Associative" xlink:title="Associative">
<ellipse fill="none" stroke="#6666ff" cx="295.95" cy="-162" rx="61.99" ry="18"/>
<text text-anchor="middle" x="295.95" y="-158.3" font-family="FreeSans" font-size="14.00" fill="#6666ff">Associative</text>
</a>
</g>
</g>
<!-- Map -->
<g id="node15" class="node">
<title>Map</title>
<g id="a_node15"><a xlink:href="/type/Map" xlink:title="Map">
<ellipse fill="none" stroke="#000000" cx="247.95" cy="-90" rx="29.8" ry="18"/>
<text text-anchor="middle" x="247.95" y="-86.3" font-family="FreeSans" font-size="14.00" fill="#000000">Map</text>
</a>
</g>
</g>
<!-- Map&#45;&gt;Cool -->
<g id="edge9" class="edge">
<title>Map&#45;&gt;Cool</title>
<path fill="none" stroke="#000000" d="M271.53,-101.28C279.74,-104.86 286.95,-108 286.95,-108 286.95,-108 640.95,-144 640.95,-144 640.95,-144 646.88,-146.06 654.63,-148.75"/>
<polygon fill="#000000" stroke="#000000" points="653.7,-152.13 664.3,-152.1 656,-145.52 653.7,-152.13"/>
</g>
<!-- Map&#45;&gt;Iterable -->
<g id="edge28" class="edge">
<title>Map&#45;&gt;Iterable</title>
<path fill="none" stroke="#6666ff" d="M231.99,-105.5C221.51,-115.03 207.59,-127.68 195.69,-138.5"/>
<polygon fill="#6666ff" stroke="#6666ff" points="193.26,-135.98 188.22,-145.3 197.97,-141.16 193.26,-135.98"/>
</g>
<!-- Map&#45;&gt;Associative -->
<g id="edge29" class="edge">
<title>Map&#45;&gt;Associative</title>
<path fill="none" stroke="#6666ff" d="M258.84,-106.88C264.68,-115.41 272.02,-126.11 278.63,-135.75"/>
<polygon fill="#6666ff" stroke="#6666ff" points="275.89,-137.93 284.43,-144.2 281.66,-133.98 275.89,-137.93"/>
</g>
<!-- Stringy -->
<g id="node16" class="node">
<title>Stringy</title>
<g id="a_node16"><a xlink:href="/type/Stringy" xlink:title="Stringy">
<ellipse fill="none" stroke="#6666ff" cx="1269.95" cy="-162" rx="43.59" ry="18"/>
<text text-anchor="middle" x="1269.95" y="-158.3" font-family="FreeSans" font-size="14.00" fill="#6666ff">Stringy</text>
</a>
</g>
</g>
<!-- Str -->
<g id="node17" class="node">
<title>Str</title>
<g id="a_node17"><a xlink:href="/type/Str" xlink:title="Str">
<ellipse fill="none" stroke="#000000" cx="1269.95" cy="-90" rx="27" ry="18"/>
<text text-anchor="middle" x="1269.95" y="-86.3" font-family="FreeSans" font-size="14.00" fill="#000000">Str</text>
</a>
</g>
</g>
<!-- Str&#45;&gt;Cool -->
<g id="edge10" class="edge">
<title>Str&#45;&gt;Cool</title>
<path fill="none" stroke="#000000" d="M1248.59,-101.09C1240.84,-104.75 1233.95,-108 1233.95,-108 1233.95,-108 855.58,-144.86 729.95,-157.1"/>
<polygon fill="#000000" stroke="#000000" points="729.58,-153.62 719.97,-158.07 730.26,-160.59 729.58,-153.62"/>
</g>
<!-- Str&#45;&gt;Stringy -->
<g id="edge30" class="edge">
<title>Str&#45;&gt;Stringy</title>
<path fill="none" stroke="#6666ff" d="M1269.95,-108.3C1269.95,-116.02 1269.95,-125.29 1269.95,-133.89"/>
<polygon fill="#6666ff" stroke="#6666ff" points="1266.45,-133.9 1269.95,-143.9 1273.45,-133.9 1266.45,-133.9"/>
</g>
<!-- Instant -->
<g id="node18" class="node">
<title>Instant</title>
<g id="a_node18"><a xlink:href="/type/Instant" xlink:title="Instant">
<ellipse fill="none" stroke="#000000" cx="998.95" cy="-90" rx="42.49" ry="18"/>
<text text-anchor="middle" x="998.95" y="-86.3" font-family="FreeSans" font-size="14.00" fill="#000000">Instant</text>
</a>
</g>
</g>
<!-- Instant&#45;&gt;Cool -->
<g id="edge11" class="edge">
<title>Instant&#45;&gt;Cool</title>
<path fill="none" stroke="#000000" d="M966.65,-101.77C956.52,-105.14 947.95,-108 947.95,-108 947.95,-108 800.57,-138.28 728.59,-153.06"/>
<polygon fill="#000000" stroke="#000000" points="727.63,-149.68 718.54,-155.13 729.04,-156.54 727.63,-149.68"/>
</g>
<!-- Instant&#45;&gt;Real -->
<g id="edge31" class="edge">
<title>Instant&#45;&gt;Real</title>
<path fill="none" stroke="#6666ff" d="M1009.14,-107.59C1014.33,-116.05 1020.76,-126.51 1026.54,-135.92"/>
<polygon fill="#6666ff" stroke="#6666ff" points="1023.61,-137.84 1031.83,-144.53 1029.58,-134.18 1023.61,-137.84"/>
</g>
<!-- StrDistance -->
<g id="node19" class="node">
<title>StrDistance</title>
<g id="a_node19"><a xlink:href="/type/StrDistance" xlink:title="StrDistance">
<ellipse fill="none" stroke="#000000" cx="598.95" cy="-90" rx="63.09" ry="18"/>
<text text-anchor="middle" x="598.95" y="-86.3" font-family="FreeSans" font-size="14.00" fill="#000000">StrDistance</text>
</a>
</g>
</g>
<!-- StrDistance&#45;&gt;Cool -->
<g id="edge12" class="edge">
<title>StrDistance&#45;&gt;Cool</title>
<path fill="none" stroke="#000000" d="M620.05,-107.24C633.1,-117.27 649.94,-130.22 663.82,-140.9"/>
<polygon fill="#000000" stroke="#000000" points="661.96,-143.89 672.02,-147.21 666.23,-138.34 661.96,-143.89"/>
</g>
<!-- IO -->
<g id="node20" class="node">
<title>IO</title>
<g id="a_node20"><a xlink:href="/type/IO" xlink:title="IO">
<ellipse fill="none" stroke="#6666ff" cx="1479.95" cy="-162" rx="27" ry="18"/>
<text text-anchor="middle" x="1479.95" y="-158.3" font-family="FreeSans" font-size="14.00" fill="#6666ff">IO</text>
</a>
</g>
</g>
<!-- IO::Path -->
<g id="node21" class="node">
<title>IO::Path</title>
<g id="a_node21"><a xlink:href="/type/IO::Path" xlink:title="IO::Path">
<ellipse fill="none" stroke="#000000" cx="1479.95" cy="-90" rx="46.59" ry="18"/>
<text text-anchor="middle" x="1479.95" y="-86.3" font-family="FreeSans" font-size="14.00" fill="#000000">IO::Path</text>
</a>
</g>
</g>
<!-- IO::Path&#45;&gt;Cool -->
<g id="edge13" class="edge">
<title>IO::Path&#45;&gt;Cool</title>
<path fill="none" stroke="#000000" d="M1444.48,-101.77C1433.37,-105.14 1423.95,-108 1423.95,-108 1423.95,-108 884.42,-146.96 730.49,-158.07"/>
<polygon fill="#000000" stroke="#000000" points="729.81,-154.61 720.09,-158.82 730.31,-161.59 729.81,-154.61"/>
</g>
<!-- IO::Path&#45;&gt;IO -->
<g id="edge32" class="edge">
<title>IO::Path&#45;&gt;IO</title>
<path fill="none" stroke="#6666ff" d="M1479.95,-108.3C1479.95,-116.02 1479.95,-125.29 1479.95,-133.89"/>
<polygon fill="#6666ff" stroke="#6666ff" points="1476.45,-133.9 1479.95,-143.9 1483.45,-133.9 1476.45,-133.9"/>
</g>
<!-- Int -->
<g id="node22" class="node">
<title>Int</title>
<g id="a_node22"><a xlink:href="/type/Int" xlink:title="Int">
<ellipse fill="none" stroke="#000000" cx="1085.95" cy="-90" rx="27" ry="18"/>
<text text-anchor="middle" x="1085.95" y="-86.3" font-family="FreeSans" font-size="14.00" fill="#000000">Int</text>
</a>
</g>
</g>
<!-- Int&#45;&gt;Cool -->
<g id="edge14" class="edge">
<title>Int&#45;&gt;Cool</title>
<path fill="none" stroke="#000000" d="M1064.59,-101.09C1056.84,-104.75 1049.95,-108 1049.95,-108 1049.95,-108 822.74,-141.45 729.33,-155.2"/>
<polygon fill="#000000" stroke="#000000" points="728.79,-151.74 719.41,-156.66 729.81,-158.67 728.79,-151.74"/>
</g>
<!-- Int&#45;&gt;Real -->
<g id="edge33" class="edge">
<title>Int&#45;&gt;Real</title>
<path fill="none" stroke="#6666ff" d="M1075.96,-106.88C1070.53,-115.53 1063.68,-126.42 1057.55,-136.17"/>
<polygon fill="#6666ff" stroke="#6666ff" points="1054.55,-134.36 1052.2,-144.69 1060.48,-138.09 1054.55,-134.36"/>
</g>
<!-- PositionalBindFailover -->
<g id="node23" class="node">
<title>PositionalBindFailover</title>
<g id="a_node23"><a xlink:href="/type/PositionalBindFailover" xlink:title="PositionalBindFailover">
<ellipse fill="none" stroke="#6666ff" cx="430.95" cy="-234" rx="109.38" ry="18"/>
<text text-anchor="middle" x="430.95" y="-230.3" font-family="FreeSans" font-size="14.00" fill="#6666ff">PositionalBindFailover</text>
</a>
</g>
</g>
<!-- Sequence -->
<g id="node24" class="node">
<title>Sequence</title>
<g id="a_node24"><a xlink:href="/type/Sequence" xlink:title="Sequence">
<ellipse fill="none" stroke="#6666ff" cx="430.95" cy="-162" rx="55.49" ry="18"/>
<text text-anchor="middle" x="430.95" y="-158.3" font-family="FreeSans" font-size="14.00" fill="#6666ff">Sequence</text>
</a>
</g>
</g>
<!-- Sequence&#45;&gt;PositionalBindFailover -->
<g id="edge34" class="edge">
<title>Sequence&#45;&gt;PositionalBindFailover</title>
<path fill="none" stroke="#6666ff" d="M430.95,-180.3C430.95,-188.02 430.95,-197.29 430.95,-205.89"/>
<polygon fill="#6666ff" stroke="#6666ff" points="427.45,-205.9 430.95,-215.9 434.45,-205.9 427.45,-205.9"/>
</g>
<!-- Seq -->
<g id="node25" class="node">
<title>Seq</title>
<g id="a_node25"><a xlink:href="/type/Seq" xlink:title="Seq">
<ellipse fill="none" stroke="#000000" cx="323.95" cy="-90" rx="27.9" ry="18"/>
<text text-anchor="middle" x="323.95" y="-86.3" font-family="FreeSans" font-size="14.00" fill="#000000">Seq</text>
</a>
</g>
</g>
<!-- Seq&#45;&gt;Cool -->
<g id="edge15" class="edge">
<title>Seq&#45;&gt;Cool</title>
<path fill="none" stroke="#000000" d="M346.32,-101.28C354.11,-104.86 360.95,-108 360.95,-108 360.95,-108 640.95,-144 640.95,-144 640.95,-144 646.88,-146.06 654.63,-148.75"/>
<polygon fill="#000000" stroke="#000000" points="653.7,-152.13 664.3,-152.1 656,-145.52 653.7,-152.13"/>
</g>
<!-- Seq&#45;&gt;Iterable -->
<g id="edge35" class="edge">
<title>Seq&#45;&gt;Iterable</title>
<path fill="none" stroke="#6666ff" d="M301.57,-101.28C293.78,-104.86 286.95,-108 286.95,-108 286.95,-108 242.68,-128.22 208.84,-143.68"/>
<polygon fill="#6666ff" stroke="#6666ff" points="207.26,-140.56 199.62,-147.9 210.17,-146.93 207.26,-140.56"/>
</g>
<!-- Seq&#45;&gt;Sequence -->
<g id="edge36" class="edge">
<title>Seq&#45;&gt;Sequence</title>
<path fill="none" stroke="#6666ff" d="M343.07,-103.51C358.57,-113.65 380.74,-128.16 398.94,-140.06"/>
<polygon fill="#6666ff" stroke="#6666ff" points="397.22,-143.12 407.5,-145.66 401.05,-137.26 397.22,-143.12"/>
</g>
<!-- Num -->
<g id="node26" class="node">
<title>Num</title>
<g id="a_node26"><a xlink:href="/type/Num" xlink:title="Num">
<ellipse fill="none" stroke="#000000" cx="787.95" cy="-90" rx="32.49" ry="18"/>
<text text-anchor="middle" x="787.95" y="-86.3" font-family="FreeSans" font-size="14.00" fill="#000000">Num</text>
</a>
</g>
</g>
<!-- Num&#45;&gt;Cool -->
<g id="edge16" class="edge">
<title>Num&#45;&gt;Cool</title>
<path fill="none" stroke="#000000" d="M768.58,-104.83C753.76,-115.42 733.15,-130.14 716.74,-141.86"/>
<polygon fill="#000000" stroke="#000000" points="714.7,-139.01 708.6,-147.67 718.77,-144.71 714.7,-139.01"/>
</g>
<!-- Num&#45;&gt;Real -->
<g id="edge37" class="edge">
<title>Num&#45;&gt;Real</title>
<path fill="none" stroke="#6666ff" d="M813.35,-101.28C822.19,-104.86 829.95,-108 829.95,-108 829.95,-108 943.27,-136.33 1004.21,-151.57"/>
<polygon fill="#6666ff" stroke="#6666ff" points="1003.68,-155.04 1014.23,-154.07 1005.38,-148.25 1003.68,-155.04"/>
</g>
<!-- FatRat -->
<g id="node27" class="node">
<title>FatRat</title>
<g id="a_node27"><a xlink:href="/type/FatRat" xlink:title="FatRat">
<ellipse fill="none" stroke="#000000" cx="890.95" cy="-18" rx="39.79" ry="18"/>
<text text-anchor="middle" x="890.95" y="-14.3" font-family="FreeSans" font-size="14.00" fill="#000000">FatRat</text>
</a>
</g>
</g>
<!-- FatRat&#45;&gt;Cool -->
<g id="edge17" class="edge">
<title>FatRat&#45;&gt;Cool</title>
<path fill="none" stroke="#000000" d="M858.89,-28.6C807.89,-43.87 713.95,-72 713.95,-72 713.95,-72 704.28,-107.83 697.22,-134.03"/>
<polygon fill="#000000" stroke="#000000" points="693.8,-133.27 694.57,-143.84 700.56,-135.1 693.8,-133.27"/>
</g>
<!-- FatRat&#45;&gt;Rational -->
<g id="edge38" class="edge">
<title>FatRat&#45;&gt;Rational</title>
<path fill="none" stroke="#6666ff" d="M925.53,-26.93C989.97,-41.72 1121.95,-72 1121.95,-72 1121.95,-72 1126.12,-73.27 1132.18,-75.11"/>
<polygon fill="#6666ff" stroke="#6666ff" points="1131.58,-78.58 1142.16,-78.14 1133.61,-71.88 1131.58,-78.58"/>
</g>
<!-- Complex -->
<g id="node28" class="node">
<title>Complex</title>
<g id="a_node28"><a xlink:href="/type/Complex" xlink:title="Complex">
<ellipse fill="none" stroke="#000000" cx="1364.95" cy="-90" rx="50.09" ry="18"/>
<text text-anchor="middle" x="1364.95" y="-86.3" font-family="FreeSans" font-size="14.00" fill="#000000">Complex</text>
</a>
</g>
</g>
<!-- Complex&#45;&gt;Cool -->
<g id="edge18" class="edge">
<title>Complex&#45;&gt;Cool</title>
<path fill="none" stroke="#000000" d="M1327.25,-101.86C1315.68,-105.19 1305.95,-108 1305.95,-108 1305.95,-108 866.92,-145.77 730.14,-157.54"/>
<polygon fill="#000000" stroke="#000000" points="729.74,-154.06 720.07,-158.41 730.34,-161.04 729.74,-154.06"/>
</g>
<!-- Complex&#45;&gt;Numeric -->
<g id="edge39" class="edge">
<title>Complex&#45;&gt;Numeric</title>
<path fill="none" stroke="#6666ff" d="M1356.85,-108.16C1344.64,-134.02 1322.95,-180 1322.95,-180 1322.95,-180 1285.28,-199.2 1255.28,-214.48"/>
<polygon fill="#6666ff" stroke="#6666ff" points="1253.59,-211.42 1246.27,-219.07 1256.77,-217.65 1253.59,-211.42"/>
</g>
<!-- Duration -->
<g id="node29" class="node">
<title>Duration</title>
<g id="a_node29"><a xlink:href="/type/Duration" xlink:title="Duration">
<ellipse fill="none" stroke="#000000" cx="888.95" cy="-90" rx="50.09" ry="18"/>
<text text-anchor="middle" x="888.95" y="-86.3" font-family="FreeSans" font-size="14.00" fill="#000000">Duration</text>
</a>
</g>
</g>
<!-- Duration&#45;&gt;Cool -->
<g id="edge19" class="edge">
<title>Duration&#45;&gt;Cool</title>
<path fill="none" stroke="#000000" d="M854.28,-103.19C818.15,-115.9 761.81,-135.72 725.39,-148.53"/>
<polygon fill="#000000" stroke="#000000" points="723.95,-145.33 715.67,-151.95 726.27,-151.93 723.95,-145.33"/>
</g>
<!-- Duration&#45;&gt;Real -->
<g id="edge40" class="edge">
<title>Duration&#45;&gt;Real</title>
<path fill="none" stroke="#6666ff" d="M918.81,-104.66C944.83,-116.57 982.5,-133.8 1009.31,-146.07"/>
<polygon fill="#6666ff" stroke="#6666ff" points="1008.11,-149.37 1018.66,-150.34 1011.02,-143 1008.11,-149.37"/>
</g>
<!-- Nil -->
<g id="node30" class="node">
<title>Nil</title>
<g id="a_node30"><a xlink:href="/type/Nil" xlink:title="Nil">
<ellipse fill="none" stroke="#000000" cx="490.95" cy="-90" rx="27" ry="18"/>
<text text-anchor="middle" x="490.95" y="-86.3" font-family="FreeSans" font-size="14.00" fill="#000000">Nil</text>
</a>
</g>
</g>
<!-- Nil&#45;&gt;Cool -->
<g id="edge20" class="edge">
<title>Nil&#45;&gt;Cool</title>
<path fill="none" stroke="#000000" d="M512.3,-101.09C520.05,-104.75 526.95,-108 526.95,-108 526.95,-108 640.95,-144 640.95,-144 640.95,-144 646.88,-146.06 654.63,-148.75"/>
<polygon fill="#000000" stroke="#000000" points="653.7,-152.13 664.3,-152.1 656,-145.52 653.7,-152.13"/>
</g>
</g>
</svg>
