<?xml version="1.0" encoding="UTF-8" standalone="no"?>
<!DOCTYPE svg PUBLIC "-//W3C//DTD SVG 1.1//EN"
 "http://www.w3.org/Graphics/SVG/1.1/DTD/svg11.dtd">
<!-- Generated by graphviz version 2.42.3 (0)
 -->
<!-- Title: perl6&#45;type&#45;graph Pages: 1 -->
<svg width="278pt" height="404pt"
 viewBox="0.00 0.00 278.38 404.00" xmlns="http://www.w3.org/2000/svg" xmlns:xlink="http://www.w3.org/1999/xlink">
<g id="graph0" class="graph" transform="scale(1 1) rotate(0) translate(4 400)">
<title>perl6&#45;type&#45;graph</title>
<polygon fill="white" stroke="transparent" points="-4,4 -4,-400 274.38,-400 274.38,4 -4,4"/>
<!-- X::Declaration::Scope -->
<g id="node1" class="node">
<title>X::Declaration::Scope</title>
<g id="a_node1"><a xlink:href="/type/X::Declaration::Scope" xlink:title="X::Declaration::Scope">
<ellipse fill="none" stroke="#000000" cx="135.19" cy="-90" rx="107.48" ry="18"/>
<text text-anchor="middle" x="135.19" y="-86.3" font-family="FreeSans" font-size="14.00" fill="#000000">X::Declaration::Scope</text>
</a>
</g>
</g>
<!-- Exception -->
<g id="node4" class="node">
<title>Exception</title>
<g id="a_node4"><a xlink:href="/type/Exception" xlink:title="Exception">
<ellipse fill="none" stroke="#000000" cx="135.19" cy="-234" rx="55.49" ry="18"/>
<text text-anchor="middle" x="135.19" y="-230.3" font-family="FreeSans" font-size="14.00" fill="#000000">Exception</text>
</a>
</g>
</g>
<!-- X::Declaration::Scope&#45;&gt;Exception -->
<g id="edge1" class="edge">
<title>X::Declaration::Scope&#45;&gt;Exception</title>
<path fill="none" stroke="#000000" d="M129.07,-108.06C123.52,-123.55 116.19,-144 116.19,-144 116.19,-144 116.19,-180 116.19,-180 116.19,-180 120.93,-193.24 125.68,-206.48"/>
<polygon fill="#000000" stroke="#000000" points="122.4,-207.71 129.07,-215.94 128.99,-205.34 122.4,-207.71"/>
</g>
<!-- X::Comp -->
<g id="node5" class="node">
<title>X::Comp</title>
<g id="a_node5"><a xlink:href="/type/X::Comp" xlink:title="X::Comp">
<ellipse fill="none" stroke="#6666ff" cx="174.19" cy="-162" rx="49.29" ry="18"/>
<text text-anchor="middle" x="174.19" y="-158.3" font-family="FreeSans" font-size="14.00" fill="#6666ff">X::Comp</text>
</a>
</g>
</g>
<!-- X::Declaration::Scope&#45;&gt;X::Comp -->
<g id="edge6" class="edge">
<title>X::Declaration::Scope&#45;&gt;X::Comp</title>
<path fill="none" stroke="#6666ff" d="M144.63,-107.95C149.23,-116.2 154.85,-126.3 159.96,-135.46"/>
<polygon fill="#6666ff" stroke="#6666ff" points="156.91,-137.18 164.83,-144.21 163.02,-133.77 156.91,-137.18"/>
</g>
<!-- Mu -->
<g id="node2" class="node">
<title>Mu</title>
<g id="a_node2"><a xlink:href="/type/Mu" xlink:title="Mu">
<ellipse fill="none" stroke="#000000" cx="135.19" cy="-378" rx="27" ry="18"/>
<text text-anchor="middle" x="135.19" y="-374.3" font-family="FreeSans" font-size="14.00" fill="#000000">Mu</text>
</a>
</g>
</g>
<!-- Any -->
<g id="node3" class="node">
<title>Any</title>
<g id="a_node3"><a xlink:href="/type/Any" xlink:title="Any">
<ellipse fill="none" stroke="#000000" cx="135.19" cy="-306" rx="28.7" ry="18"/>
<text text-anchor="middle" x="135.19" y="-302.3" font-family="FreeSans" font-size="14.00" fill="#000000">Any</text>
</a>
</g>
</g>
<!-- Any&#45;&gt;Mu -->
<g id="edge2" class="edge">
<title>Any&#45;&gt;Mu</title>
<path fill="none" stroke="#000000" d="M135.19,-324.3C135.19,-332.02 135.19,-341.29 135.19,-349.89"/>
<polygon fill="#000000" stroke="#000000" points="131.69,-349.9 135.19,-359.9 138.69,-349.9 131.69,-349.9"/>
</g>
<!-- Exception&#45;&gt;Any -->
<g id="edge3" class="edge">
<title>Exception&#45;&gt;Any</title>
<path fill="none" stroke="#000000" d="M135.19,-252.3C135.19,-260.02 135.19,-269.29 135.19,-277.89"/>
<polygon fill="#000000" stroke="#000000" points="131.69,-277.9 135.19,-287.9 138.69,-277.9 131.69,-277.9"/>
</g>
<!-- X::Comp&#45;&gt;Exception -->
<g id="edge4" class="edge">
<title>X::Comp&#45;&gt;Exception</title>
<path fill="none" stroke="#000000" d="M164.75,-179.95C160.15,-188.2 154.52,-198.3 149.42,-207.46"/>
<polygon fill="#000000" stroke="#000000" points="146.35,-205.77 144.54,-216.21 152.47,-209.18 146.35,-205.77"/>
</g>
<!-- X::Declaration::Scope::Multi -->
<g id="node6" class="node">
<title>X::Declaration::Scope::Multi</title>
<g id="a_node6"><a xlink:href="/type/X::Declaration::Scope::Multi" xlink:title="X::Declaration::Scope::Multi">
<ellipse fill="none" stroke="#000000" cx="135.19" cy="-18" rx="135.38" ry="18"/>
<text text-anchor="middle" x="135.19" y="-14.3" font-family="FreeSans" font-size="14.00" fill="#000000">X::Declaration::Scope::Multi</text>
</a>
</g>
</g>
<!-- X::Declaration::Scope::Multi&#45;&gt;X::Declaration::Scope -->
<g id="edge5" class="edge">
<title>X::Declaration::Scope::Multi&#45;&gt;X::Declaration::Scope</title>
<path fill="none" stroke="#000000" d="M135.19,-36.3C135.19,-44.02 135.19,-53.29 135.19,-61.89"/>
<polygon fill="#000000" stroke="#000000" points="131.69,-61.9 135.19,-71.9 138.69,-61.9 131.69,-61.9"/>
</g>
</g>
</svg>
