<?xml version="1.0" encoding="UTF-8" standalone="no"?>
<!DOCTYPE svg PUBLIC "-//W3C//DTD SVG 1.1//EN"
 "http://www.w3.org/Graphics/SVG/1.1/DTD/svg11.dtd">
<!-- Generated by graphviz version 2.42.3 (0)
 -->
<!-- Title: perl6&#45;type&#45;graph Pages: 1 -->
<svg width="690pt" height="332pt"
 viewBox="0.00 0.00 689.69 332.00" xmlns="http://www.w3.org/2000/svg" xmlns:xlink="http://www.w3.org/1999/xlink">
<g id="graph0" class="graph" transform="scale(1 1) rotate(0) translate(4 328)">
<title>perl6&#45;type&#45;graph</title>
<polygon fill="white" stroke="transparent" points="-4,4 -4,-328 685.69,-328 685.69,4 -4,4"/>
<!-- IO::Path -->
<g id="node1" class="node">
<title>IO::Path</title>
<g id="a_node1"><a xlink:href="/type/IO::Path" xlink:title="IO::Path">
<ellipse fill="none" stroke="#000000" cx="354.24" cy="-90" rx="46.59" ry="18"/>
<text text-anchor="middle" x="354.24" y="-86.3" font-family="FreeSans" font-size="14.00" fill="#000000">IO::Path</text>
</a>
</g>
</g>
<!-- Cool -->
<g id="node4" class="node">
<title>Cool</title>
<g id="a_node4"><a xlink:href="/type/Cool" xlink:title="Cool">
<ellipse fill="none" stroke="#000000" cx="316.24" cy="-162" rx="30.59" ry="18"/>
<text text-anchor="middle" x="316.24" y="-158.3" font-family="FreeSans" font-size="14.00" fill="#000000">Cool</text>
</a>
</g>
</g>
<!-- IO::Path&#45;&gt;Cool -->
<g id="edge1" class="edge">
<title>IO::Path&#45;&gt;Cool</title>
<path fill="none" stroke="#000000" d="M345.04,-107.95C340.5,-116.32 334.92,-126.6 329.89,-135.87"/>
<polygon fill="#000000" stroke="#000000" points="326.79,-134.23 325.1,-144.69 332.94,-137.57 326.79,-134.23"/>
</g>
<!-- IO -->
<g id="node5" class="node">
<title>IO</title>
<g id="a_node5"><a xlink:href="/type/IO" xlink:title="IO">
<ellipse fill="none" stroke="#6666ff" cx="392.24" cy="-162" rx="27" ry="18"/>
<text text-anchor="middle" x="392.24" y="-158.3" font-family="FreeSans" font-size="14.00" fill="#6666ff">IO</text>
</a>
</g>
</g>
<!-- IO::Path&#45;&gt;IO -->
<g id="edge8" class="edge">
<title>IO::Path&#45;&gt;IO</title>
<path fill="none" stroke="#6666ff" d="M363.44,-107.95C367.99,-116.32 373.57,-126.6 378.6,-135.87"/>
<polygon fill="#6666ff" stroke="#6666ff" points="375.54,-137.57 383.39,-144.69 381.7,-134.23 375.54,-137.57"/>
</g>
<!-- Mu -->
<g id="node2" class="node">
<title>Mu</title>
<g id="a_node2"><a xlink:href="/type/Mu" xlink:title="Mu">
<ellipse fill="none" stroke="#000000" cx="316.24" cy="-306" rx="27" ry="18"/>
<text text-anchor="middle" x="316.24" y="-302.3" font-family="FreeSans" font-size="14.00" fill="#000000">Mu</text>
</a>
</g>
</g>
<!-- Any -->
<g id="node3" class="node">
<title>Any</title>
<g id="a_node3"><a xlink:href="/type/Any" xlink:title="Any">
<ellipse fill="none" stroke="#000000" cx="316.24" cy="-234" rx="28.7" ry="18"/>
<text text-anchor="middle" x="316.24" y="-230.3" font-family="FreeSans" font-size="14.00" fill="#000000">Any</text>
</a>
</g>
</g>
<!-- Any&#45;&gt;Mu -->
<g id="edge2" class="edge">
<title>Any&#45;&gt;Mu</title>
<path fill="none" stroke="#000000" d="M316.24,-252.3C316.24,-260.02 316.24,-269.29 316.24,-277.89"/>
<polygon fill="#000000" stroke="#000000" points="312.74,-277.9 316.24,-287.9 319.74,-277.9 312.74,-277.9"/>
</g>
<!-- Cool&#45;&gt;Any -->
<g id="edge3" class="edge">
<title>Cool&#45;&gt;Any</title>
<path fill="none" stroke="#000000" d="M316.24,-180.3C316.24,-188.02 316.24,-197.29 316.24,-205.89"/>
<polygon fill="#000000" stroke="#000000" points="312.74,-205.9 316.24,-215.9 319.74,-205.9 312.74,-205.9"/>
</g>
<!-- IO::Path::Win32 -->
<g id="node6" class="node">
<title>IO::Path::Win32</title>
<g id="a_node6"><a xlink:href="/type/IO::Path::Win32" xlink:title="IO::Path::Win32">
<ellipse fill="none" stroke="#000000" cx="81.24" cy="-18" rx="81.49" ry="18"/>
<text text-anchor="middle" x="81.24" y="-14.3" font-family="FreeSans" font-size="14.00" fill="#000000">IO::Path::Win32</text>
</a>
</g>
</g>
<!-- IO::Path::Win32&#45;&gt;IO::Path -->
<g id="edge4" class="edge">
<title>IO::Path::Win32&#45;&gt;IO::Path</title>
<path fill="none" stroke="#000000" d="M132.27,-32.08C182.12,-44.87 257.43,-64.18 306.22,-76.69"/>
<polygon fill="#000000" stroke="#000000" points="305.66,-80.16 316.21,-79.25 307.4,-73.37 305.66,-80.16"/>
</g>
<!-- IO::Path::Cygwin -->
<g id="node7" class="node">
<title>IO::Path::Cygwin</title>
<g id="a_node7"><a xlink:href="/type/IO::Path::Cygwin" xlink:title="IO::Path::Cygwin">
<ellipse fill="none" stroke="#000000" cx="266.24" cy="-18" rx="85.59" ry="18"/>
<text text-anchor="middle" x="266.24" y="-14.3" font-family="FreeSans" font-size="14.00" fill="#000000">IO::Path::Cygwin</text>
</a>
</g>
</g>
<!-- IO::Path::Cygwin&#45;&gt;IO::Path -->
<g id="edge5" class="edge">
<title>IO::Path::Cygwin&#45;&gt;IO::Path</title>
<path fill="none" stroke="#000000" d="M287.1,-35.59C298.94,-45.01 313.91,-56.91 326.7,-67.09"/>
<polygon fill="#000000" stroke="#000000" points="324.74,-70 334.74,-73.49 329.1,-64.52 324.74,-70"/>
</g>
<!-- IO::Path::Unix -->
<g id="node8" class="node">
<title>IO::Path::Unix</title>
<g id="a_node8"><a xlink:href="/type/IO::Path::Unix" xlink:title="IO::Path::Unix">
<ellipse fill="none" stroke="#000000" cx="443.24" cy="-18" rx="73.39" ry="18"/>
<text text-anchor="middle" x="443.24" y="-14.3" font-family="FreeSans" font-size="14.00" fill="#000000">IO::Path::Unix</text>
</a>
</g>
</g>
<!-- IO::Path::Unix&#45;&gt;IO::Path -->
<g id="edge6" class="edge">
<title>IO::Path::Unix&#45;&gt;IO::Path</title>
<path fill="none" stroke="#000000" d="M422.15,-35.59C410.18,-45.01 395.04,-56.91 382.1,-67.09"/>
<polygon fill="#000000" stroke="#000000" points="379.66,-64.56 373.96,-73.49 383.99,-70.06 379.66,-64.56"/>
</g>
<!-- IO::Path::QNX -->
<g id="node9" class="node">
<title>IO::Path::QNX</title>
<g id="a_node9"><a xlink:href="/type/IO::Path::QNX" xlink:title="IO::Path::QNX">
<ellipse fill="none" stroke="#000000" cx="608.24" cy="-18" rx="73.39" ry="18"/>
<text text-anchor="middle" x="608.24" y="-14.3" font-family="FreeSans" font-size="14.00" fill="#000000">IO::Path::QNX</text>
</a>
</g>
</g>
<!-- IO::Path::QNX&#45;&gt;IO::Path -->
<g id="edge7" class="edge">
<title>IO::Path::QNX&#45;&gt;IO::Path</title>
<path fill="none" stroke="#000000" d="M561.36,-31.92C515.69,-44.51 446.65,-63.53 401.02,-76.11"/>
<polygon fill="#000000" stroke="#000000" points="400.08,-72.74 391.37,-78.77 401.94,-79.49 400.08,-72.74"/>
</g>
</g>
</svg>
