<?xml version="1.0" encoding="UTF-8" standalone="no"?>
<!DOCTYPE svg PUBLIC "-//W3C//DTD SVG 1.1//EN"
 "http://www.w3.org/Graphics/SVG/1.1/DTD/svg11.dtd">
<!-- Generated by graphviz version 2.42.3 (0)
 -->
<!-- Title: perl6&#45;type&#45;graph Pages: 1 -->
<svg width="263pt" height="404pt"
 viewBox="0.00 0.00 263.19 404.00" xmlns="http://www.w3.org/2000/svg" xmlns:xlink="http://www.w3.org/1999/xlink">
<g id="graph0" class="graph" transform="scale(1 1) rotate(0) translate(4 400)">
<title>perl6&#45;type&#45;graph</title>
<polygon fill="white" stroke="transparent" points="-4,4 -4,-400 259.19,-400 259.19,4 -4,4"/>
<!-- X::IO::DoesNotExist -->
<g id="node1" class="node">
<title>X::IO::DoesNotExist</title>
<g id="a_node1"><a xlink:href="/type/X::IO::DoesNotExist" xlink:title="X::IO::DoesNotExist">
<ellipse fill="none" stroke="#000000" cx="98.79" cy="-18" rx="98.58" ry="18"/>
<text text-anchor="middle" x="98.79" y="-14.3" font-family="FreeSans" font-size="14.00" fill="#000000">X::IO::DoesNotExist</text>
</a>
</g>
</g>
<!-- Exception -->
<g id="node4" class="node">
<title>Exception</title>
<g id="a_node4"><a xlink:href="/type/Exception" xlink:title="Exception">
<ellipse fill="none" stroke="#000000" cx="98.79" cy="-234" rx="55.49" ry="18"/>
<text text-anchor="middle" x="98.79" y="-230.3" font-family="FreeSans" font-size="14.00" fill="#000000">Exception</text>
</a>
</g>
</g>
<!-- X::IO::DoesNotExist&#45;&gt;Exception -->
<g id="edge1" class="edge">
<title>X::IO::DoesNotExist&#45;&gt;Exception</title>
<path fill="none" stroke="#000000" d="M91.04,-36.15C83.95,-73.26 83.42,-161.25 89.45,-205.95"/>
<polygon fill="#000000" stroke="#000000" points="86.04,-206.75 91.08,-216.06 92.95,-205.64 86.04,-206.75"/>
</g>
<!-- X::IO::DoesNotExist&#45;&gt;Exception -->
<g id="edge2" class="edge">
<title>X::IO::DoesNotExist&#45;&gt;Exception</title>
<path fill="none" stroke="#000000" d="M98.79,-36.15C98.79,-73.17 98.79,-160.82 98.79,-205.61"/>
<polygon fill="#000000" stroke="#000000" points="95.29,-205.77 98.79,-215.77 102.29,-205.77 95.29,-205.77"/>
</g>
<!-- X::IO::DoesNotExist&#45;&gt;Exception -->
<g id="edge3" class="edge">
<title>X::IO::DoesNotExist&#45;&gt;Exception</title>
<path fill="none" stroke="#000000" d="M106.55,-36.15C113.64,-73.26 114.16,-161.25 108.13,-205.95"/>
<polygon fill="#000000" stroke="#000000" points="104.64,-205.64 106.5,-216.06 111.55,-206.75 104.64,-205.64"/>
</g>
<!-- X::IO -->
<g id="node6" class="node">
<title>X::IO</title>
<g id="a_node6"><a xlink:href="/type/X::IO" xlink:title="X::IO">
<ellipse fill="none" stroke="#6666ff" cx="177.79" cy="-90" rx="33.29" ry="18"/>
<text text-anchor="middle" x="177.79" y="-86.3" font-family="FreeSans" font-size="14.00" fill="#6666ff">X::IO</text>
</a>
</g>
</g>
<!-- X::IO::DoesNotExist&#45;&gt;X::IO -->
<g id="edge8" class="edge">
<title>X::IO::DoesNotExist&#45;&gt;X::IO</title>
<path fill="none" stroke="#6666ff" d="M117.91,-35.95C128.67,-45.48 142.21,-57.47 153.69,-67.65"/>
<polygon fill="#6666ff" stroke="#6666ff" points="151.45,-70.33 161.25,-74.34 156.09,-65.09 151.45,-70.33"/>
</g>
<!-- Mu -->
<g id="node2" class="node">
<title>Mu</title>
<g id="a_node2"><a xlink:href="/type/Mu" xlink:title="Mu">
<ellipse fill="none" stroke="#000000" cx="98.79" cy="-378" rx="27" ry="18"/>
<text text-anchor="middle" x="98.79" y="-374.3" font-family="FreeSans" font-size="14.00" fill="#000000">Mu</text>
</a>
</g>
</g>
<!-- Any -->
<g id="node3" class="node">
<title>Any</title>
<g id="a_node3"><a xlink:href="/type/Any" xlink:title="Any">
<ellipse fill="none" stroke="#000000" cx="98.79" cy="-306" rx="28.7" ry="18"/>
<text text-anchor="middle" x="98.79" y="-302.3" font-family="FreeSans" font-size="14.00" fill="#000000">Any</text>
</a>
</g>
</g>
<!-- Any&#45;&gt;Mu -->
<g id="edge4" class="edge">
<title>Any&#45;&gt;Mu</title>
<path fill="none" stroke="#000000" d="M98.79,-324.3C98.79,-332.02 98.79,-341.29 98.79,-349.89"/>
<polygon fill="#000000" stroke="#000000" points="95.29,-349.9 98.79,-359.9 102.29,-349.9 95.29,-349.9"/>
</g>
<!-- Exception&#45;&gt;Any -->
<g id="edge5" class="edge">
<title>Exception&#45;&gt;Any</title>
<path fill="none" stroke="#000000" d="M98.79,-252.3C98.79,-260.02 98.79,-269.29 98.79,-277.89"/>
<polygon fill="#000000" stroke="#000000" points="95.29,-277.9 98.79,-287.9 102.29,-277.9 95.29,-277.9"/>
</g>
<!-- X::OS -->
<g id="node5" class="node">
<title>X::OS</title>
<g id="a_node5"><a xlink:href="/type/X::OS" xlink:title="X::OS">
<ellipse fill="none" stroke="#6666ff" cx="218.79" cy="-162" rx="36.29" ry="18"/>
<text text-anchor="middle" x="218.79" y="-158.3" font-family="FreeSans" font-size="14.00" fill="#6666ff">X::OS</text>
</a>
</g>
</g>
<!-- X::OS&#45;&gt;Exception -->
<g id="edge6" class="edge">
<title>X::OS&#45;&gt;Exception</title>
<path fill="none" stroke="#000000" d="M196.22,-176.17C178.56,-186.47 153.69,-200.98 133.5,-212.75"/>
<polygon fill="#000000" stroke="#000000" points="131.47,-209.89 124.59,-217.95 135,-215.93 131.47,-209.89"/>
</g>
<!-- X::IO&#45;&gt;Exception -->
<g id="edge7" class="edge">
<title>X::IO&#45;&gt;Exception</title>
<path fill="none" stroke="#000000" d="M168.95,-107.74C155.34,-133.52 130.79,-180 130.79,-180 130.79,-180 122.38,-193.93 114.18,-207.51"/>
<polygon fill="#000000" stroke="#000000" points="111.09,-205.86 108.92,-216.23 117.08,-209.48 111.09,-205.86"/>
</g>
<!-- X::IO&#45;&gt;X::OS -->
<g id="edge9" class="edge">
<title>X::IO&#45;&gt;X::OS</title>
<path fill="none" stroke="#6666ff" d="M187.51,-107.59C192.41,-115.96 198.46,-126.29 203.93,-135.63"/>
<polygon fill="#6666ff" stroke="#6666ff" points="201.07,-137.67 209.14,-144.53 207.11,-134.13 201.07,-137.67"/>
</g>
</g>
</svg>
