<?xml version="1.0" encoding="UTF-8" standalone="no"?>
<!DOCTYPE svg PUBLIC "-//W3C//DTD SVG 1.1//EN"
 "http://www.w3.org/Graphics/SVG/1.1/DTD/svg11.dtd">
<!-- Generated by graphviz version 2.42.3 (0)
 -->
<!-- Title: perl6&#45;type&#45;graph Pages: 1 -->
<svg width="313pt" height="332pt"
 viewBox="0.00 0.00 312.79 332.00" xmlns="http://www.w3.org/2000/svg" xmlns:xlink="http://www.w3.org/1999/xlink">
<g id="graph0" class="graph" transform="scale(1 1) rotate(0) translate(4 328)">
<title>perl6&#45;type&#45;graph</title>
<polygon fill="white" stroke="transparent" points="-4,4 -4,-328 308.79,-328 308.79,4 -4,4"/>
<!-- X::Trait::Scope -->
<g id="node1" class="node">
<title>X::Trait::Scope</title>
<g id="a_node1"><a xlink:href="/type/X::Trait::Scope" xlink:title="X::Trait::Scope">
<ellipse fill="none" stroke="#000000" cx="75.39" cy="-90" rx="75.29" ry="18"/>
<text text-anchor="middle" x="75.39" y="-86.3" font-family="FreeSans" font-size="14.00" fill="#000000">X::Trait::Scope</text>
</a>
</g>
</g>
<!-- Exception -->
<g id="node4" class="node">
<title>Exception</title>
<g id="a_node4"><a xlink:href="/type/Exception" xlink:title="Exception">
<ellipse fill="none" stroke="#000000" cx="178.39" cy="-162" rx="55.49" ry="18"/>
<text text-anchor="middle" x="178.39" y="-158.3" font-family="FreeSans" font-size="14.00" fill="#000000">Exception</text>
</a>
</g>
</g>
<!-- X::Trait::Scope&#45;&gt;Exception -->
<g id="edge1" class="edge">
<title>X::Trait::Scope&#45;&gt;Exception</title>
<path fill="none" stroke="#000000" d="M99.28,-107.24C113.49,-116.89 131.68,-129.25 147.03,-139.69"/>
<polygon fill="#000000" stroke="#000000" points="145.46,-142.85 155.69,-145.57 149.39,-137.06 145.46,-142.85"/>
</g>
<!-- Mu -->
<g id="node2" class="node">
<title>Mu</title>
<g id="a_node2"><a xlink:href="/type/Mu" xlink:title="Mu">
<ellipse fill="none" stroke="#000000" cx="178.39" cy="-306" rx="27" ry="18"/>
<text text-anchor="middle" x="178.39" y="-302.3" font-family="FreeSans" font-size="14.00" fill="#000000">Mu</text>
</a>
</g>
</g>
<!-- Any -->
<g id="node3" class="node">
<title>Any</title>
<g id="a_node3"><a xlink:href="/type/Any" xlink:title="Any">
<ellipse fill="none" stroke="#000000" cx="178.39" cy="-234" rx="28.7" ry="18"/>
<text text-anchor="middle" x="178.39" y="-230.3" font-family="FreeSans" font-size="14.00" fill="#000000">Any</text>
</a>
</g>
</g>
<!-- Any&#45;&gt;Mu -->
<g id="edge2" class="edge">
<title>Any&#45;&gt;Mu</title>
<path fill="none" stroke="#000000" d="M178.39,-252.3C178.39,-260.02 178.39,-269.29 178.39,-277.89"/>
<polygon fill="#000000" stroke="#000000" points="174.89,-277.9 178.39,-287.9 181.89,-277.9 174.89,-277.9"/>
</g>
<!-- Exception&#45;&gt;Any -->
<g id="edge3" class="edge">
<title>Exception&#45;&gt;Any</title>
<path fill="none" stroke="#000000" d="M178.39,-180.3C178.39,-188.02 178.39,-197.29 178.39,-205.89"/>
<polygon fill="#000000" stroke="#000000" points="174.89,-205.9 178.39,-215.9 181.89,-205.9 174.89,-205.9"/>
</g>
<!-- X::Comp -->
<g id="node5" class="node">
<title>X::Comp</title>
<g id="a_node5"><a xlink:href="/type/X::Comp" xlink:title="X::Comp">
<ellipse fill="none" stroke="#6666ff" cx="255.39" cy="-90" rx="49.29" ry="18"/>
<text text-anchor="middle" x="255.39" y="-86.3" font-family="FreeSans" font-size="14.00" fill="#6666ff">X::Comp</text>
</a>
</g>
</g>
<!-- X::Comp&#45;&gt;Exception -->
<g id="edge4" class="edge">
<title>X::Comp&#45;&gt;Exception</title>
<path fill="none" stroke="#000000" d="M237.92,-106.88C227.75,-116.13 214.77,-127.93 203.52,-138.16"/>
<polygon fill="#000000" stroke="#000000" points="201.11,-135.62 196.06,-144.94 205.82,-140.8 201.11,-135.62"/>
</g>
<!-- X::Comp::Trait::Scope -->
<g id="node6" class="node">
<title>X::Comp::Trait::Scope</title>
<g id="a_node6"><a xlink:href="/type/X::Comp::Trait::Scope" xlink:title="X::Comp::Trait::Scope">
<ellipse fill="none" stroke="#000000" cx="178.39" cy="-18" rx="107.48" ry="18"/>
<text text-anchor="middle" x="178.39" y="-14.3" font-family="FreeSans" font-size="14.00" fill="#000000">X::Comp::Trait::Scope</text>
</a>
</g>
</g>
<!-- X::Comp::Trait::Scope&#45;&gt;X::Trait::Scope -->
<g id="edge5" class="edge">
<title>X::Comp::Trait::Scope&#45;&gt;X::Trait::Scope</title>
<path fill="none" stroke="#000000" d="M153.98,-35.59C140.16,-44.98 122.69,-56.85 107.74,-67.02"/>
<polygon fill="#000000" stroke="#000000" points="105.58,-64.26 99.27,-72.77 109.51,-70.05 105.58,-64.26"/>
</g>
<!-- X::Comp::Trait::Scope&#45;&gt;Exception -->
<g id="edge6" class="edge">
<title>X::Comp::Trait::Scope&#45;&gt;Exception</title>
<path fill="none" stroke="#000000" d="M178.39,-36.13C178.39,-60.33 178.39,-104.79 178.39,-133.61"/>
<polygon fill="#000000" stroke="#000000" points="174.89,-133.81 178.39,-143.81 181.89,-133.81 174.89,-133.81"/>
</g>
<!-- X::Comp::Trait::Scope&#45;&gt;X::Comp -->
<g id="edge7" class="edge">
<title>X::Comp::Trait::Scope&#45;&gt;X::Comp</title>
<path fill="none" stroke="#6666ff" d="M197.03,-35.95C206.99,-45 219.39,-56.27 230.19,-66.09"/>
<polygon fill="#6666ff" stroke="#6666ff" points="227.97,-68.8 237.72,-72.93 232.67,-63.62 227.97,-68.8"/>
</g>
</g>
</svg>
