<?xml version="1.0" encoding="UTF-8" standalone="no"?>
<!DOCTYPE svg PUBLIC "-//W3C//DTD SVG 1.1//EN"
 "http://www.w3.org/Graphics/SVG/1.1/DTD/svg11.dtd">
<!-- Generated by graphviz version 2.42.3 (0)
 -->
<!-- Title: perl6&#45;type&#45;graph Pages: 1 -->
<svg width="357pt" height="188pt"
 viewBox="0.00 0.00 356.79 188.00" xmlns="http://www.w3.org/2000/svg" xmlns:xlink="http://www.w3.org/1999/xlink">
<g id="graph0" class="graph" transform="scale(1 1) rotate(0) translate(4 184)">
<title>perl6&#45;type&#45;graph</title>
<polygon fill="white" stroke="transparent" points="-4,4 -4,-184 352.79,-184 352.79,4 -4,4"/>
<!-- RaceSeq -->
<g id="node1" class="node">
<title>RaceSeq</title>
<g id="a_node1"><a xlink:href="/type/RaceSeq" xlink:title="RaceSeq">
<ellipse fill="none" stroke="#000000" cx="120.6" cy="-18" rx="50.09" ry="18"/>
<text text-anchor="middle" x="120.6" y="-14.3" font-family="FreeSans" font-size="14.00" fill="#000000">RaceSeq</text>
</a>
</g>
</g>
<!-- Any -->
<g id="node3" class="node">
<title>Any</title>
<g id="a_node3"><a xlink:href="/type/Any" xlink:title="Any">
<ellipse fill="none" stroke="#000000" cx="28.6" cy="-90" rx="28.7" ry="18"/>
<text text-anchor="middle" x="28.6" y="-86.3" font-family="FreeSans" font-size="14.00" fill="#000000">Any</text>
</a>
</g>
</g>
<!-- RaceSeq&#45;&gt;Any -->
<g id="edge1" class="edge">
<title>RaceSeq&#45;&gt;Any</title>
<path fill="none" stroke="#000000" d="M100.18,-34.54C86.64,-44.84 68.76,-58.44 54.26,-69.47"/>
<polygon fill="#000000" stroke="#000000" points="52.01,-66.79 46.17,-75.63 56.25,-72.36 52.01,-66.79"/>
</g>
<!-- Iterable -->
<g id="node4" class="node">
<title>Iterable</title>
<g id="a_node4"><a xlink:href="/type/Iterable" xlink:title="Iterable">
<ellipse fill="none" stroke="#6666ff" cx="120.6" cy="-90" rx="45.49" ry="18"/>
<text text-anchor="middle" x="120.6" y="-86.3" font-family="FreeSans" font-size="14.00" fill="#6666ff">Iterable</text>
</a>
</g>
</g>
<!-- RaceSeq&#45;&gt;Iterable -->
<g id="edge3" class="edge">
<title>RaceSeq&#45;&gt;Iterable</title>
<path fill="none" stroke="#6666ff" d="M120.6,-36.3C120.6,-44.02 120.6,-53.29 120.6,-61.89"/>
<polygon fill="#6666ff" stroke="#6666ff" points="117.1,-61.9 120.6,-71.9 124.1,-61.9 117.1,-61.9"/>
</g>
<!-- Sequence -->
<g id="node6" class="node">
<title>Sequence</title>
<g id="a_node6"><a xlink:href="/type/Sequence" xlink:title="Sequence">
<ellipse fill="none" stroke="#6666ff" cx="239.6" cy="-90" rx="55.49" ry="18"/>
<text text-anchor="middle" x="239.6" y="-86.3" font-family="FreeSans" font-size="14.00" fill="#6666ff">Sequence</text>
</a>
</g>
</g>
<!-- RaceSeq&#45;&gt;Sequence -->
<g id="edge4" class="edge">
<title>RaceSeq&#45;&gt;Sequence</title>
<path fill="none" stroke="#6666ff" d="M145.54,-33.67C162.84,-43.85 186.1,-57.53 205.16,-68.74"/>
<polygon fill="#6666ff" stroke="#6666ff" points="203.47,-71.81 213.86,-73.86 207.02,-65.77 203.47,-71.81"/>
</g>
<!-- Mu -->
<g id="node2" class="node">
<title>Mu</title>
<g id="a_node2"><a xlink:href="/type/Mu" xlink:title="Mu">
<ellipse fill="none" stroke="#000000" cx="28.6" cy="-162" rx="27" ry="18"/>
<text text-anchor="middle" x="28.6" y="-158.3" font-family="FreeSans" font-size="14.00" fill="#000000">Mu</text>
</a>
</g>
</g>
<!-- Any&#45;&gt;Mu -->
<g id="edge2" class="edge">
<title>Any&#45;&gt;Mu</title>
<path fill="none" stroke="#000000" d="M28.6,-108.3C28.6,-116.02 28.6,-125.29 28.6,-133.89"/>
<polygon fill="#000000" stroke="#000000" points="25.1,-133.9 28.6,-143.9 32.1,-133.9 25.1,-133.9"/>
</g>
<!-- PositionalBindFailover -->
<g id="node5" class="node">
<title>PositionalBindFailover</title>
<g id="a_node5"><a xlink:href="/type/PositionalBindFailover" xlink:title="PositionalBindFailover">
<ellipse fill="none" stroke="#6666ff" cx="239.6" cy="-162" rx="109.38" ry="18"/>
<text text-anchor="middle" x="239.6" y="-158.3" font-family="FreeSans" font-size="14.00" fill="#6666ff">PositionalBindFailover</text>
</a>
</g>
</g>
<!-- Sequence&#45;&gt;PositionalBindFailover -->
<g id="edge5" class="edge">
<title>Sequence&#45;&gt;PositionalBindFailover</title>
<path fill="none" stroke="#6666ff" d="M239.6,-108.3C239.6,-116.02 239.6,-125.29 239.6,-133.89"/>
<polygon fill="#6666ff" stroke="#6666ff" points="236.1,-133.9 239.6,-143.9 243.1,-133.9 236.1,-133.9"/>
</g>
</g>
</svg>
