<?xml version="1.0" encoding="UTF-8" standalone="no"?>
<!DOCTYPE svg PUBLIC "-//W3C//DTD SVG 1.1//EN"
 "http://www.w3.org/Graphics/SVG/1.1/DTD/svg11.dtd">
<!-- Generated by graphviz version 2.42.3 (0)
 -->
<!-- Title: perl6&#45;type&#45;graph Pages: 1 -->
<svg width="289pt" height="332pt"
 viewBox="0.00 0.00 289.29 332.00" xmlns="http://www.w3.org/2000/svg" xmlns:xlink="http://www.w3.org/1999/xlink">
<g id="graph0" class="graph" transform="scale(1 1) rotate(0) translate(4 328)">
<title>perl6&#45;type&#45;graph</title>
<polygon fill="white" stroke="transparent" points="-4,4 -4,-328 285.29,-328 285.29,4 -4,4"/>
<!-- Complex -->
<g id="node1" class="node">
<title>Complex</title>
<g id="a_node1"><a xlink:href="/type/Complex" xlink:title="Complex">
<ellipse fill="none" stroke="#000000" cx="96.75" cy="-90" rx="50.09" ry="18"/>
<text text-anchor="middle" x="96.75" y="-86.3" font-family="FreeSans" font-size="14.00" fill="#000000">Complex</text>
</a>
</g>
</g>
<!-- Cool -->
<g id="node4" class="node">
<title>Cool</title>
<g id="a_node4"><a xlink:href="/type/Cool" xlink:title="Cool">
<ellipse fill="none" stroke="#000000" cx="145.75" cy="-162" rx="30.59" ry="18"/>
<text text-anchor="middle" x="145.75" y="-158.3" font-family="FreeSans" font-size="14.00" fill="#000000">Cool</text>
</a>
</g>
</g>
<!-- Complex&#45;&gt;Cool -->
<g id="edge1" class="edge">
<title>Complex&#45;&gt;Cool</title>
<path fill="none" stroke="#000000" d="M108.36,-107.59C114.42,-116.26 121.97,-127.03 128.68,-136.62"/>
<polygon fill="#000000" stroke="#000000" points="125.95,-138.83 134.55,-145.01 131.69,-134.81 125.95,-138.83"/>
</g>
<!-- Numeric -->
<g id="node5" class="node">
<title>Numeric</title>
<g id="a_node5"><a xlink:href="/type/Numeric" xlink:title="Numeric">
<ellipse fill="none" stroke="#6666ff" cx="48.75" cy="-162" rx="48.99" ry="18"/>
<text text-anchor="middle" x="48.75" y="-158.3" font-family="FreeSans" font-size="14.00" fill="#6666ff">Numeric</text>
</a>
</g>
</g>
<!-- Complex&#45;&gt;Numeric -->
<g id="edge7" class="edge">
<title>Complex&#45;&gt;Numeric</title>
<path fill="none" stroke="#6666ff" d="M85.37,-107.59C79.66,-115.92 72.61,-126.2 66.22,-135.51"/>
<polygon fill="#6666ff" stroke="#6666ff" points="63.14,-133.82 60.37,-144.04 68.91,-137.78 63.14,-133.82"/>
</g>
<!-- Mu -->
<g id="node2" class="node">
<title>Mu</title>
<g id="a_node2"><a xlink:href="/type/Mu" xlink:title="Mu">
<ellipse fill="none" stroke="#000000" cx="145.75" cy="-306" rx="27" ry="18"/>
<text text-anchor="middle" x="145.75" y="-302.3" font-family="FreeSans" font-size="14.00" fill="#000000">Mu</text>
</a>
</g>
</g>
<!-- Any -->
<g id="node3" class="node">
<title>Any</title>
<g id="a_node3"><a xlink:href="/type/Any" xlink:title="Any">
<ellipse fill="none" stroke="#000000" cx="145.75" cy="-234" rx="28.7" ry="18"/>
<text text-anchor="middle" x="145.75" y="-230.3" font-family="FreeSans" font-size="14.00" fill="#000000">Any</text>
</a>
</g>
</g>
<!-- Any&#45;&gt;Mu -->
<g id="edge2" class="edge">
<title>Any&#45;&gt;Mu</title>
<path fill="none" stroke="#000000" d="M145.75,-252.3C145.75,-260.02 145.75,-269.29 145.75,-277.89"/>
<polygon fill="#000000" stroke="#000000" points="142.25,-277.9 145.75,-287.9 149.25,-277.9 142.25,-277.9"/>
</g>
<!-- Cool&#45;&gt;Any -->
<g id="edge3" class="edge">
<title>Cool&#45;&gt;Any</title>
<path fill="none" stroke="#000000" d="M145.75,-180.3C145.75,-188.02 145.75,-197.29 145.75,-205.89"/>
<polygon fill="#000000" stroke="#000000" points="142.25,-205.9 145.75,-215.9 149.25,-205.9 142.25,-205.9"/>
</g>
<!-- Stringy -->
<g id="node6" class="node">
<title>Stringy</title>
<g id="a_node6"><a xlink:href="/type/Stringy" xlink:title="Stringy">
<ellipse fill="none" stroke="#6666ff" cx="237.75" cy="-162" rx="43.59" ry="18"/>
<text text-anchor="middle" x="237.75" y="-158.3" font-family="FreeSans" font-size="14.00" fill="#6666ff">Stringy</text>
</a>
</g>
</g>
<!-- Str -->
<g id="node7" class="node">
<title>Str</title>
<g id="a_node7"><a xlink:href="/type/Str" xlink:title="Str">
<ellipse fill="none" stroke="#000000" cx="191.75" cy="-90" rx="27" ry="18"/>
<text text-anchor="middle" x="191.75" y="-86.3" font-family="FreeSans" font-size="14.00" fill="#000000">Str</text>
</a>
</g>
</g>
<!-- Str&#45;&gt;Cool -->
<g id="edge4" class="edge">
<title>Str&#45;&gt;Cool</title>
<path fill="none" stroke="#000000" d="M181.31,-106.88C175.62,-115.53 168.47,-126.42 162.06,-136.17"/>
<polygon fill="#000000" stroke="#000000" points="159.03,-134.41 156.46,-144.69 164.88,-138.26 159.03,-134.41"/>
</g>
<!-- Str&#45;&gt;Stringy -->
<g id="edge8" class="edge">
<title>Str&#45;&gt;Stringy</title>
<path fill="none" stroke="#6666ff" d="M202.18,-106.88C207.79,-115.41 214.82,-126.11 221.15,-135.75"/>
<polygon fill="#6666ff" stroke="#6666ff" points="218.29,-137.77 226.71,-144.2 224.14,-133.92 218.29,-137.77"/>
</g>
<!-- ComplexStr -->
<g id="node8" class="node">
<title>ComplexStr</title>
<g id="a_node8"><a xlink:href="/type/ComplexStr" xlink:title="ComplexStr">
<ellipse fill="none" stroke="#000000" cx="143.75" cy="-18" rx="63.89" ry="18"/>
<text text-anchor="middle" x="143.75" y="-14.3" font-family="FreeSans" font-size="14.00" fill="#000000">ComplexStr</text>
</a>
</g>
</g>
<!-- ComplexStr&#45;&gt;Complex -->
<g id="edge5" class="edge">
<title>ComplexStr&#45;&gt;Complex</title>
<path fill="none" stroke="#000000" d="M132.37,-35.95C126.77,-44.29 119.9,-54.51 113.7,-63.75"/>
<polygon fill="#000000" stroke="#000000" points="110.69,-61.96 108.02,-72.21 116.5,-65.86 110.69,-61.96"/>
</g>
<!-- ComplexStr&#45;&gt;Str -->
<g id="edge6" class="edge">
<title>ComplexStr&#45;&gt;Str</title>
<path fill="none" stroke="#000000" d="M155.37,-35.95C161.31,-44.62 168.66,-55.33 175.19,-64.85"/>
<polygon fill="#000000" stroke="#000000" points="172.35,-66.9 180.89,-73.17 178.12,-62.94 172.35,-66.9"/>
</g>
</g>
</svg>
