<?xml version="1.0" encoding="UTF-8" standalone="no"?>
<!DOCTYPE svg PUBLIC "-//W3C//DTD SVG 1.1//EN"
 "http://www.w3.org/Graphics/SVG/1.1/DTD/svg11.dtd">
<!-- Generated by graphviz version 2.42.3 (0)
 -->
<!-- Title: perl6&#45;type&#45;graph Pages: 1 -->
<svg width="319pt" height="404pt"
 viewBox="0.00 0.00 318.67 404.00" xmlns="http://www.w3.org/2000/svg" xmlns:xlink="http://www.w3.org/1999/xlink">
<g id="graph0" class="graph" transform="scale(1 1) rotate(0) translate(4 400)">
<title>perl6&#45;type&#45;graph</title>
<polygon fill="white" stroke="transparent" points="-4,4 -4,-400 314.67,-400 314.67,4 -4,4"/>
<!-- X::Backslash::NonVariableDollar -->
<g id="node1" class="node">
<title>X::Backslash::NonVariableDollar</title>
<g id="a_node1"><a xlink:href="/type/X::Backslash::NonVariableDollar" xlink:title="X::Backslash::NonVariableDollar">
<ellipse fill="none" stroke="#000000" cx="155.34" cy="-18" rx="155.17" ry="18"/>
<text text-anchor="middle" x="155.34" y="-14.3" font-family="FreeSans" font-size="14.00" fill="#000000">X::Backslash::NonVariableDollar</text>
</a>
</g>
</g>
<!-- Exception -->
<g id="node4" class="node">
<title>Exception</title>
<g id="a_node4"><a xlink:href="/type/Exception" xlink:title="Exception">
<ellipse fill="none" stroke="#000000" cx="152.34" cy="-234" rx="55.49" ry="18"/>
<text text-anchor="middle" x="152.34" y="-230.3" font-family="FreeSans" font-size="14.00" fill="#000000">Exception</text>
</a>
</g>
</g>
<!-- X::Backslash::NonVariableDollar&#45;&gt;Exception -->
<g id="edge1" class="edge">
<title>X::Backslash::NonVariableDollar&#45;&gt;Exception</title>
<path fill="none" stroke="#000000" d="M148.25,-36.06C141.82,-51.55 133.34,-72 133.34,-72 133.34,-72 133.34,-108 133.34,-108 133.34,-108 142.61,-169.01 148.2,-205.78"/>
<polygon fill="#000000" stroke="#000000" points="144.77,-206.52 149.73,-215.88 151.69,-205.47 144.77,-206.52"/>
</g>
<!-- X::Syntax -->
<g id="node6" class="node">
<title>X::Syntax</title>
<g id="a_node6"><a xlink:href="/type/X::Syntax" xlink:title="X::Syntax">
<ellipse fill="none" stroke="#6666ff" cx="196.34" cy="-90" rx="53.89" ry="18"/>
<text text-anchor="middle" x="196.34" y="-86.3" font-family="FreeSans" font-size="14.00" fill="#6666ff">X::Syntax</text>
</a>
</g>
</g>
<!-- X::Backslash::NonVariableDollar&#45;&gt;X::Syntax -->
<g id="edge6" class="edge">
<title>X::Backslash::NonVariableDollar&#45;&gt;X::Syntax</title>
<path fill="none" stroke="#6666ff" d="M165.47,-36.3C170.19,-44.36 175.9,-54.11 181.12,-63.02"/>
<polygon fill="#6666ff" stroke="#6666ff" points="178.24,-65.04 186.32,-71.9 184.28,-61.5 178.24,-65.04"/>
</g>
<!-- Mu -->
<g id="node2" class="node">
<title>Mu</title>
<g id="a_node2"><a xlink:href="/type/Mu" xlink:title="Mu">
<ellipse fill="none" stroke="#000000" cx="152.34" cy="-378" rx="27" ry="18"/>
<text text-anchor="middle" x="152.34" y="-374.3" font-family="FreeSans" font-size="14.00" fill="#000000">Mu</text>
</a>
</g>
</g>
<!-- Any -->
<g id="node3" class="node">
<title>Any</title>
<g id="a_node3"><a xlink:href="/type/Any" xlink:title="Any">
<ellipse fill="none" stroke="#000000" cx="152.34" cy="-306" rx="28.7" ry="18"/>
<text text-anchor="middle" x="152.34" y="-302.3" font-family="FreeSans" font-size="14.00" fill="#000000">Any</text>
</a>
</g>
</g>
<!-- Any&#45;&gt;Mu -->
<g id="edge2" class="edge">
<title>Any&#45;&gt;Mu</title>
<path fill="none" stroke="#000000" d="M152.34,-324.3C152.34,-332.02 152.34,-341.29 152.34,-349.89"/>
<polygon fill="#000000" stroke="#000000" points="148.84,-349.9 152.34,-359.9 155.84,-349.9 148.84,-349.9"/>
</g>
<!-- Exception&#45;&gt;Any -->
<g id="edge3" class="edge">
<title>Exception&#45;&gt;Any</title>
<path fill="none" stroke="#000000" d="M152.34,-252.3C152.34,-260.02 152.34,-269.29 152.34,-277.89"/>
<polygon fill="#000000" stroke="#000000" points="148.84,-277.9 152.34,-287.9 155.84,-277.9 148.84,-277.9"/>
</g>
<!-- X::Comp -->
<g id="node5" class="node">
<title>X::Comp</title>
<g id="a_node5"><a xlink:href="/type/X::Comp" xlink:title="X::Comp">
<ellipse fill="none" stroke="#6666ff" cx="229.34" cy="-162" rx="49.29" ry="18"/>
<text text-anchor="middle" x="229.34" y="-158.3" font-family="FreeSans" font-size="14.00" fill="#6666ff">X::Comp</text>
</a>
</g>
</g>
<!-- X::Comp&#45;&gt;Exception -->
<g id="edge4" class="edge">
<title>X::Comp&#45;&gt;Exception</title>
<path fill="none" stroke="#000000" d="M211.86,-178.88C201.7,-188.13 188.71,-199.93 177.46,-210.16"/>
<polygon fill="#000000" stroke="#000000" points="175.05,-207.62 170.01,-216.94 179.76,-212.8 175.05,-207.62"/>
</g>
<!-- X::Syntax&#45;&gt;Exception -->
<g id="edge5" class="edge">
<title>X::Syntax&#45;&gt;Exception</title>
<path fill="none" stroke="#000000" d="M188.29,-108.06C180.98,-123.55 171.34,-144 171.34,-144 171.34,-144 163.69,-179.83 158.09,-206.03"/>
<polygon fill="#000000" stroke="#000000" points="154.66,-205.33 156,-215.84 161.51,-206.79 154.66,-205.33"/>
</g>
<!-- X::Syntax&#45;&gt;X::Comp -->
<g id="edge7" class="edge">
<title>X::Syntax&#45;&gt;X::Comp</title>
<path fill="none" stroke="#6666ff" d="M204.32,-107.95C208.13,-116.03 212.78,-125.88 217.03,-134.89"/>
<polygon fill="#6666ff" stroke="#6666ff" points="213.99,-136.66 221.42,-144.21 220.32,-133.67 213.99,-136.66"/>
</g>
</g>
</svg>
