<?xml version="1.0" encoding="UTF-8" standalone="no"?>
<!DOCTYPE svg PUBLIC "-//W3C//DTD SVG 1.1//EN"
 "http://www.w3.org/Graphics/SVG/1.1/DTD/svg11.dtd">
<!-- Generated by graphviz version 2.42.3 (0)
 -->
<!-- Title: perl6&#45;type&#45;graph Pages: 1 -->
<svg width="458pt" height="71pt"
 viewBox="0.00 0.00 458.21 71.07" xmlns="http://www.w3.org/2000/svg" xmlns:xlink="http://www.w3.org/1999/xlink">
<g id="graph0" class="graph" transform="scale(1 1) rotate(0) translate(4 67.07)">
<title>perl6&#45;type&#45;graph</title>
<polygon fill="white" stroke="transparent" points="-4,4 -4,-67.07 454.21,-67.07 454.21,4 -4,4"/>
<!-- Metamodel::Archetypes -->
<g id="node1" class="node">
<title>Metamodel::Archetypes</title>
<g id="a_node1"><a xlink:href="/type/Metamodel::Archetypes" xlink:title="Metamodel::Archetypes">
<ellipse fill="none" stroke="#000000" cx="116.99" cy="-38.84" rx="116.98" ry="18"/>
<text text-anchor="middle" x="116.99" y="-35.14" font-family="FreeSans" font-size="14.00" fill="#000000">Metamodel::Archetypes</text>
</a>
</g>
</g>
<!-- Any -->
<g id="node3" class="node">
<title>Any</title>
<g id="a_node3"><a xlink:href="/type/Any" xlink:title="Any">
<ellipse fill="none" stroke="#000000" cx="270.59" cy="-18" rx="28.7" ry="18"/>
<text text-anchor="middle" x="270.59" y="-14.3" font-family="FreeSans" font-size="14.00" fill="#000000">Any</text>
</a>
</g>
</g>
<!-- Metamodel::Archetypes&#45;&gt;Any -->
<g id="edge1" class="edge">
<title>Metamodel::Archetypes&#45;&gt;Any</title>
<path fill="none" stroke="#000000" d="M205.01,-26.9C214.63,-25.59 224.02,-24.32 232.54,-23.16"/>
<polygon fill="#000000" stroke="#000000" points="233.03,-26.63 242.47,-21.82 232.09,-19.69 233.03,-26.63"/>
</g>
<!-- Mu -->
<g id="node2" class="node">
<title>Mu</title>
<g id="a_node2"><a xlink:href="/type/Mu" xlink:title="Mu">
<ellipse fill="none" stroke="#000000" cx="423.21" cy="-45.07" rx="27" ry="18"/>
<text text-anchor="middle" x="423.21" y="-41.37" font-family="FreeSans" font-size="14.00" fill="#000000">Mu</text>
</a>
</g>
</g>
<!-- Any&#45;&gt;Mu -->
<g id="edge2" class="edge">
<title>Any&#45;&gt;Mu</title>
<path fill="none" stroke="#000000" d="M298.23,-22.9C323.14,-27.32 359.92,-33.84 387.13,-38.67"/>
<polygon fill="#000000" stroke="#000000" points="386.59,-42.13 397.05,-40.43 387.82,-35.23 386.59,-42.13"/>
</g>
</g>
</svg>
