<?xml version="1.0" encoding="UTF-8" standalone="no"?>
<!DOCTYPE svg PUBLIC "-//W3C//DTD SVG 1.1//EN"
 "http://www.w3.org/Graphics/SVG/1.1/DTD/svg11.dtd">
<!-- Generated by graphviz version 2.42.3 (0)
 -->
<!-- Title: perl6&#45;type&#45;graph Pages: 1 -->
<svg width="715pt" height="188pt"
 viewBox="0.00 0.00 714.77 188.00" xmlns="http://www.w3.org/2000/svg" xmlns:xlink="http://www.w3.org/1999/xlink">
<g id="graph0" class="graph" transform="scale(1 1) rotate(0) translate(4 184)">
<title>perl6&#45;type&#45;graph</title>
<polygon fill="white" stroke="transparent" points="-4,4 -4,-184 710.77,-184 710.77,4 -4,4"/>
<!-- CompUnit::Repository::Installable -->
<g id="node1" class="node">
<title>CompUnit::Repository::Installable</title>
<g id="a_node1"><a xlink:href="/type/CompUnit::Repository::Installable" xlink:title="CompUnit::Repository::Installable">
<ellipse fill="none" stroke="#6666ff" cx="161.19" cy="-90" rx="161.37" ry="18"/>
<text text-anchor="middle" x="161.19" y="-86.3" font-family="FreeSans" font-size="14.00" fill="#6666ff">CompUnit::Repository::Installable</text>
</a>
</g>
</g>
<!-- Mu -->
<g id="node2" class="node">
<title>Mu</title>
<g id="a_node2"><a xlink:href="/type/Mu" xlink:title="Mu">
<ellipse fill="none" stroke="#000000" cx="369.19" cy="-162" rx="27" ry="18"/>
<text text-anchor="middle" x="369.19" y="-158.3" font-family="FreeSans" font-size="14.00" fill="#000000">Mu</text>
</a>
</g>
</g>
<!-- Any -->
<g id="node3" class="node">
<title>Any</title>
<g id="a_node3"><a xlink:href="/type/Any" xlink:title="Any">
<ellipse fill="none" stroke="#000000" cx="369.19" cy="-90" rx="28.7" ry="18"/>
<text text-anchor="middle" x="369.19" y="-86.3" font-family="FreeSans" font-size="14.00" fill="#000000">Any</text>
</a>
</g>
</g>
<!-- Any&#45;&gt;Mu -->
<g id="edge1" class="edge">
<title>Any&#45;&gt;Mu</title>
<path fill="none" stroke="#000000" d="M369.19,-108.3C369.19,-116.02 369.19,-125.29 369.19,-133.89"/>
<polygon fill="#000000" stroke="#000000" points="365.69,-133.9 369.19,-143.9 372.69,-133.9 365.69,-133.9"/>
</g>
<!-- CompUnit::Repository::Locally -->
<g id="node4" class="node">
<title>CompUnit::Repository::Locally</title>
<g id="a_node4"><a xlink:href="/type/CompUnit::Repository::Locally" xlink:title="CompUnit::Repository::Locally">
<ellipse fill="none" stroke="#6666ff" cx="561.19" cy="-90" rx="145.67" ry="18"/>
<text text-anchor="middle" x="561.19" y="-86.3" font-family="FreeSans" font-size="14.00" fill="#6666ff">CompUnit::Repository::Locally</text>
</a>
</g>
</g>
<!-- CompUnit::Repository::Installation -->
<g id="node5" class="node">
<title>CompUnit::Repository::Installation</title>
<g id="a_node5"><a xlink:href="/type/CompUnit::Repository::Installation" xlink:title="CompUnit::Repository::Installation">
<ellipse fill="none" stroke="#000000" cx="369.19" cy="-18" rx="165.17" ry="18"/>
<text text-anchor="middle" x="369.19" y="-14.3" font-family="FreeSans" font-size="14.00" fill="#000000">CompUnit::Repository::Installation</text>
</a>
</g>
</g>
<!-- CompUnit::Repository::Installation&#45;&gt;CompUnit::Repository::Installable -->
<g id="edge4" class="edge">
<title>CompUnit::Repository::Installation&#45;&gt;CompUnit::Repository::Installable</title>
<path fill="none" stroke="#6666ff" d="M320.94,-35.24C290.6,-45.45 251.26,-58.68 219.22,-69.47"/>
<polygon fill="#6666ff" stroke="#6666ff" points="217.89,-66.22 209.53,-72.73 220.12,-72.86 217.89,-66.22"/>
</g>
<!-- CompUnit::Repository::Installation&#45;&gt;Any -->
<g id="edge2" class="edge">
<title>CompUnit::Repository::Installation&#45;&gt;Any</title>
<path fill="none" stroke="#000000" d="M369.19,-36.3C369.19,-44.02 369.19,-53.29 369.19,-61.89"/>
<polygon fill="#000000" stroke="#000000" points="365.69,-61.9 369.19,-71.9 372.69,-61.9 365.69,-61.9"/>
</g>
<!-- CompUnit::Repository::Installation&#45;&gt;CompUnit::Repository::Locally -->
<g id="edge3" class="edge">
<title>CompUnit::Repository::Installation&#45;&gt;CompUnit::Repository::Locally</title>
<path fill="none" stroke="#6666ff" d="M414.2,-35.41C441.98,-45.54 477.79,-58.6 507.11,-69.29"/>
<polygon fill="#6666ff" stroke="#6666ff" points="506.19,-72.67 516.78,-72.81 508.59,-66.1 506.19,-72.67"/>
</g>
</g>
</svg>
