<?xml version="1.0" encoding="UTF-8" standalone="no"?>
<!DOCTYPE svg PUBLIC "-//W3C//DTD SVG 1.1//EN"
 "http://www.w3.org/Graphics/SVG/1.1/DTD/svg11.dtd">
<!-- Generated by graphviz version 2.42.3 (0)
 -->
<!-- Title: perl6&#45;type&#45;graph Pages: 1 -->
<svg width="220pt" height="404pt"
 viewBox="0.00 0.00 219.64 404.00" xmlns="http://www.w3.org/2000/svg" xmlns:xlink="http://www.w3.org/1999/xlink">
<g id="graph0" class="graph" transform="scale(1 1) rotate(0) translate(4 400)">
<title>perl6&#45;type&#45;graph</title>
<polygon fill="white" stroke="transparent" points="-4,4 -4,-400 215.64,-400 215.64,4 -4,4"/>
<!-- X::IO::Dir -->
<g id="node1" class="node">
<title>X::IO::Dir</title>
<g id="a_node1"><a xlink:href="/type/X::IO::Dir" xlink:title="X::IO::Dir">
<ellipse fill="none" stroke="#000000" cx="55.25" cy="-18" rx="51.99" ry="18"/>
<text text-anchor="middle" x="55.25" y="-14.3" font-family="FreeSans" font-size="14.00" fill="#000000">X::IO::Dir</text>
</a>
</g>
</g>
<!-- Exception -->
<g id="node4" class="node">
<title>Exception</title>
<g id="a_node4"><a xlink:href="/type/Exception" xlink:title="Exception">
<ellipse fill="none" stroke="#000000" cx="55.25" cy="-234" rx="55.49" ry="18"/>
<text text-anchor="middle" x="55.25" y="-230.3" font-family="FreeSans" font-size="14.00" fill="#000000">Exception</text>
</a>
</g>
</g>
<!-- X::IO::Dir&#45;&gt;Exception -->
<g id="edge1" class="edge">
<title>X::IO::Dir&#45;&gt;Exception</title>
<path fill="none" stroke="#000000" d="M47.49,-36.15C40.4,-73.26 39.87,-161.25 45.91,-205.95"/>
<polygon fill="#000000" stroke="#000000" points="42.49,-206.75 47.53,-216.06 49.4,-205.64 42.49,-206.75"/>
</g>
<!-- X::IO::Dir&#45;&gt;Exception -->
<g id="edge2" class="edge">
<title>X::IO::Dir&#45;&gt;Exception</title>
<path fill="none" stroke="#000000" d="M55.25,-36.15C55.25,-73.17 55.25,-160.82 55.25,-205.61"/>
<polygon fill="#000000" stroke="#000000" points="51.75,-205.77 55.25,-215.77 58.75,-205.77 51.75,-205.77"/>
</g>
<!-- X::IO::Dir&#45;&gt;Exception -->
<g id="edge3" class="edge">
<title>X::IO::Dir&#45;&gt;Exception</title>
<path fill="none" stroke="#000000" d="M63,-36.15C70.09,-73.26 70.62,-161.25 64.58,-205.95"/>
<polygon fill="#000000" stroke="#000000" points="61.09,-205.64 62.96,-216.06 68,-206.75 61.09,-205.64"/>
</g>
<!-- X::IO -->
<g id="node6" class="node">
<title>X::IO</title>
<g id="a_node6"><a xlink:href="/type/X::IO" xlink:title="X::IO">
<ellipse fill="none" stroke="#6666ff" cx="134.25" cy="-90" rx="33.29" ry="18"/>
<text text-anchor="middle" x="134.25" y="-86.3" font-family="FreeSans" font-size="14.00" fill="#6666ff">X::IO</text>
</a>
</g>
</g>
<!-- X::IO::Dir&#45;&gt;X::IO -->
<g id="edge8" class="edge">
<title>X::IO::Dir&#45;&gt;X::IO</title>
<path fill="none" stroke="#6666ff" d="M73.57,-35.24C84.38,-44.82 98.2,-57.06 109.92,-67.45"/>
<polygon fill="#6666ff" stroke="#6666ff" points="107.83,-70.27 117.64,-74.28 112.47,-65.03 107.83,-70.27"/>
</g>
<!-- Mu -->
<g id="node2" class="node">
<title>Mu</title>
<g id="a_node2"><a xlink:href="/type/Mu" xlink:title="Mu">
<ellipse fill="none" stroke="#000000" cx="55.25" cy="-378" rx="27" ry="18"/>
<text text-anchor="middle" x="55.25" y="-374.3" font-family="FreeSans" font-size="14.00" fill="#000000">Mu</text>
</a>
</g>
</g>
<!-- Any -->
<g id="node3" class="node">
<title>Any</title>
<g id="a_node3"><a xlink:href="/type/Any" xlink:title="Any">
<ellipse fill="none" stroke="#000000" cx="55.25" cy="-306" rx="28.7" ry="18"/>
<text text-anchor="middle" x="55.25" y="-302.3" font-family="FreeSans" font-size="14.00" fill="#000000">Any</text>
</a>
</g>
</g>
<!-- Any&#45;&gt;Mu -->
<g id="edge4" class="edge">
<title>Any&#45;&gt;Mu</title>
<path fill="none" stroke="#000000" d="M55.25,-324.3C55.25,-332.02 55.25,-341.29 55.25,-349.89"/>
<polygon fill="#000000" stroke="#000000" points="51.75,-349.9 55.25,-359.9 58.75,-349.9 51.75,-349.9"/>
</g>
<!-- Exception&#45;&gt;Any -->
<g id="edge5" class="edge">
<title>Exception&#45;&gt;Any</title>
<path fill="none" stroke="#000000" d="M55.25,-252.3C55.25,-260.02 55.25,-269.29 55.25,-277.89"/>
<polygon fill="#000000" stroke="#000000" points="51.75,-277.9 55.25,-287.9 58.75,-277.9 51.75,-277.9"/>
</g>
<!-- X::OS -->
<g id="node5" class="node">
<title>X::OS</title>
<g id="a_node5"><a xlink:href="/type/X::OS" xlink:title="X::OS">
<ellipse fill="none" stroke="#6666ff" cx="175.25" cy="-162" rx="36.29" ry="18"/>
<text text-anchor="middle" x="175.25" y="-158.3" font-family="FreeSans" font-size="14.00" fill="#6666ff">X::OS</text>
</a>
</g>
</g>
<!-- X::OS&#45;&gt;Exception -->
<g id="edge6" class="edge">
<title>X::OS&#45;&gt;Exception</title>
<path fill="none" stroke="#000000" d="M152.67,-176.17C135.01,-186.47 110.14,-200.98 89.95,-212.75"/>
<polygon fill="#000000" stroke="#000000" points="87.92,-209.89 81.05,-217.95 91.45,-215.93 87.92,-209.89"/>
</g>
<!-- X::IO&#45;&gt;Exception -->
<g id="edge7" class="edge">
<title>X::IO&#45;&gt;Exception</title>
<path fill="none" stroke="#000000" d="M125.4,-107.74C111.79,-133.52 87.25,-180 87.25,-180 87.25,-180 78.83,-193.93 70.64,-207.51"/>
<polygon fill="#000000" stroke="#000000" points="67.54,-205.86 65.37,-216.23 73.54,-209.48 67.54,-205.86"/>
</g>
<!-- X::IO&#45;&gt;X::OS -->
<g id="edge9" class="edge">
<title>X::IO&#45;&gt;X::OS</title>
<path fill="none" stroke="#6666ff" d="M143.96,-107.59C148.86,-115.96 154.92,-126.29 160.39,-135.63"/>
<polygon fill="#6666ff" stroke="#6666ff" points="157.52,-137.67 165.6,-144.53 163.56,-134.13 157.52,-137.67"/>
</g>
</g>
</svg>
