<?xml version="1.0" encoding="UTF-8" standalone="no"?>
<!DOCTYPE svg PUBLIC "-//W3C//DTD SVG 1.1//EN"
 "http://www.w3.org/Graphics/SVG/1.1/DTD/svg11.dtd">
<!-- Generated by graphviz version 2.42.3 (0)
 -->
<!-- Title: perl6&#45;type&#45;graph Pages: 1 -->
<svg width="333pt" height="404pt"
 viewBox="0.00 0.00 332.83 404.00" xmlns="http://www.w3.org/2000/svg" xmlns:xlink="http://www.w3.org/1999/xlink">
<g id="graph0" class="graph" transform="scale(1 1) rotate(0) translate(4 400)">
<title>perl6&#45;type&#45;graph</title>
<polygon fill="white" stroke="transparent" points="-4,4 -4,-400 328.83,-400 328.83,4 -4,4"/>
<!-- X::Syntax::Extension::Category -->
<g id="node1" class="node">
<title>X::Syntax::Extension::Category</title>
<g id="a_node1"><a xlink:href="/type/X::Syntax::Extension::Category" xlink:title="X::Syntax::Extension::Category">
<ellipse fill="none" stroke="#000000" cx="151.44" cy="-18" rx="151.37" ry="18"/>
<text text-anchor="middle" x="151.44" y="-14.3" font-family="FreeSans" font-size="14.00" fill="#000000">X::Syntax::Extension::Category</text>
</a>
</g>
</g>
<!-- Exception -->
<g id="node4" class="node">
<title>Exception</title>
<g id="a_node4"><a xlink:href="/type/Exception" xlink:title="Exception">
<ellipse fill="none" stroke="#000000" cx="174.44" cy="-234" rx="55.49" ry="18"/>
<text text-anchor="middle" x="174.44" y="-230.3" font-family="FreeSans" font-size="14.00" fill="#000000">Exception</text>
</a>
</g>
</g>
<!-- X::Syntax::Extension::Category&#45;&gt;Exception -->
<g id="edge1" class="edge">
<title>X::Syntax::Extension::Category&#45;&gt;Exception</title>
<path fill="none" stroke="#000000" d="M149.4,-36.15C149.85,-73.34 159.08,-161.63 166.91,-206.23"/>
<polygon fill="#000000" stroke="#000000" points="163.47,-206.88 168.76,-216.06 170.35,-205.59 163.47,-206.88"/>
</g>
<!-- X::Syntax::Extension::Category&#45;&gt;Exception -->
<g id="edge2" class="edge">
<title>X::Syntax::Extension::Category&#45;&gt;Exception</title>
<path fill="none" stroke="#000000" d="M157.16,-36.15C164.67,-73.17 174.36,-160.82 176.19,-205.61"/>
<polygon fill="#000000" stroke="#000000" points="172.69,-205.87 176.47,-215.77 179.69,-205.67 172.69,-205.87"/>
</g>
<!-- X::Syntax -->
<g id="node6" class="node">
<title>X::Syntax</title>
<g id="a_node6"><a xlink:href="/type/X::Syntax" xlink:title="X::Syntax">
<ellipse fill="none" stroke="#6666ff" cx="242.44" cy="-90" rx="53.89" ry="18"/>
<text text-anchor="middle" x="242.44" y="-86.3" font-family="FreeSans" font-size="14.00" fill="#6666ff">X::Syntax</text>
</a>
</g>
</g>
<!-- X::Syntax::Extension::Category&#45;&gt;X::Syntax -->
<g id="edge7" class="edge">
<title>X::Syntax::Extension::Category&#45;&gt;X::Syntax</title>
<path fill="none" stroke="#6666ff" d="M173.47,-35.95C185.55,-45.24 200.67,-56.87 213.67,-66.87"/>
<polygon fill="#6666ff" stroke="#6666ff" points="211.8,-69.85 221.86,-73.17 216.07,-64.3 211.8,-69.85"/>
</g>
<!-- Mu -->
<g id="node2" class="node">
<title>Mu</title>
<g id="a_node2"><a xlink:href="/type/Mu" xlink:title="Mu">
<ellipse fill="none" stroke="#000000" cx="174.44" cy="-378" rx="27" ry="18"/>
<text text-anchor="middle" x="174.44" y="-374.3" font-family="FreeSans" font-size="14.00" fill="#000000">Mu</text>
</a>
</g>
</g>
<!-- Any -->
<g id="node3" class="node">
<title>Any</title>
<g id="a_node3"><a xlink:href="/type/Any" xlink:title="Any">
<ellipse fill="none" stroke="#000000" cx="174.44" cy="-306" rx="28.7" ry="18"/>
<text text-anchor="middle" x="174.44" y="-302.3" font-family="FreeSans" font-size="14.00" fill="#000000">Any</text>
</a>
</g>
</g>
<!-- Any&#45;&gt;Mu -->
<g id="edge3" class="edge">
<title>Any&#45;&gt;Mu</title>
<path fill="none" stroke="#000000" d="M174.44,-324.3C174.44,-332.02 174.44,-341.29 174.44,-349.89"/>
<polygon fill="#000000" stroke="#000000" points="170.94,-349.9 174.44,-359.9 177.94,-349.9 170.94,-349.9"/>
</g>
<!-- Exception&#45;&gt;Any -->
<g id="edge4" class="edge">
<title>Exception&#45;&gt;Any</title>
<path fill="none" stroke="#000000" d="M174.44,-252.3C174.44,-260.02 174.44,-269.29 174.44,-277.89"/>
<polygon fill="#000000" stroke="#000000" points="170.94,-277.9 174.44,-287.9 177.94,-277.9 170.94,-277.9"/>
</g>
<!-- X::Comp -->
<g id="node5" class="node">
<title>X::Comp</title>
<g id="a_node5"><a xlink:href="/type/X::Comp" xlink:title="X::Comp">
<ellipse fill="none" stroke="#6666ff" cx="275.44" cy="-162" rx="49.29" ry="18"/>
<text text-anchor="middle" x="275.44" y="-158.3" font-family="FreeSans" font-size="14.00" fill="#6666ff">X::Comp</text>
</a>
</g>
</g>
<!-- X::Comp&#45;&gt;Exception -->
<g id="edge5" class="edge">
<title>X::Comp&#45;&gt;Exception</title>
<path fill="none" stroke="#000000" d="M253.52,-178.19C239.42,-187.96 220.89,-200.8 205.31,-211.6"/>
<polygon fill="#000000" stroke="#000000" points="203.23,-208.78 197.01,-217.36 207.22,-214.54 203.23,-208.78"/>
</g>
<!-- X::Syntax&#45;&gt;Exception -->
<g id="edge6" class="edge">
<title>X::Syntax&#45;&gt;Exception</title>
<path fill="none" stroke="#000000" d="M234.37,-107.85C222.61,-132.4 200.67,-178.23 186.84,-207.09"/>
<polygon fill="#000000" stroke="#000000" points="183.66,-205.64 182.49,-216.18 189.97,-208.67 183.66,-205.64"/>
</g>
<!-- X::Syntax&#45;&gt;X::Comp -->
<g id="edge8" class="edge">
<title>X::Syntax&#45;&gt;X::Comp</title>
<path fill="none" stroke="#6666ff" d="M250.42,-107.95C254.24,-116.03 258.88,-125.88 263.13,-134.89"/>
<polygon fill="#6666ff" stroke="#6666ff" points="260.09,-136.66 267.52,-144.21 266.42,-133.67 260.09,-136.66"/>
</g>
</g>
</svg>
