<?xml version="1.0" encoding="UTF-8" standalone="no"?>
<!DOCTYPE svg PUBLIC "-//W3C//DTD SVG 1.1//EN"
 "http://www.w3.org/Graphics/SVG/1.1/DTD/svg11.dtd">
<!-- Generated by graphviz version 2.42.3 (0)
 -->
<!-- Title: perl6&#45;type&#45;graph Pages: 1 -->
<svg width="304pt" height="404pt"
 viewBox="0.00 0.00 303.58 404.00" xmlns="http://www.w3.org/2000/svg" xmlns:xlink="http://www.w3.org/1999/xlink">
<g id="graph0" class="graph" transform="scale(1 1) rotate(0) translate(4 400)">
<title>perl6&#45;type&#45;graph</title>
<polygon fill="white" stroke="transparent" points="-4,4 -4,-400 299.58,-400 299.58,4 -4,4"/>
<!-- X::Syntax::BlockGobbled -->
<g id="node1" class="node">
<title>X::Syntax::BlockGobbled</title>
<g id="a_node1"><a xlink:href="/type/X::Syntax::BlockGobbled" xlink:title="X::Syntax::BlockGobbled">
<ellipse fill="none" stroke="#000000" cx="122.19" cy="-18" rx="122.38" ry="18"/>
<text text-anchor="middle" x="122.19" y="-14.3" font-family="FreeSans" font-size="14.00" fill="#000000">X::Syntax::BlockGobbled</text>
</a>
</g>
</g>
<!-- Exception -->
<g id="node4" class="node">
<title>Exception</title>
<g id="a_node4"><a xlink:href="/type/Exception" xlink:title="Exception">
<ellipse fill="none" stroke="#000000" cx="145.19" cy="-234" rx="55.49" ry="18"/>
<text text-anchor="middle" x="145.19" y="-230.3" font-family="FreeSans" font-size="14.00" fill="#000000">Exception</text>
</a>
</g>
</g>
<!-- X::Syntax::BlockGobbled&#45;&gt;Exception -->
<g id="edge1" class="edge">
<title>X::Syntax::BlockGobbled&#45;&gt;Exception</title>
<path fill="none" stroke="#000000" d="M120.15,-36.15C120.6,-73.34 129.83,-161.63 137.66,-206.23"/>
<polygon fill="#000000" stroke="#000000" points="134.22,-206.88 139.51,-216.06 141.1,-205.59 134.22,-206.88"/>
</g>
<!-- X::Syntax::BlockGobbled&#45;&gt;Exception -->
<g id="edge2" class="edge">
<title>X::Syntax::BlockGobbled&#45;&gt;Exception</title>
<path fill="none" stroke="#000000" d="M127.91,-36.15C135.42,-73.17 145.12,-160.82 146.94,-205.61"/>
<polygon fill="#000000" stroke="#000000" points="143.44,-205.87 147.22,-215.77 150.44,-205.67 143.44,-205.87"/>
</g>
<!-- X::Syntax -->
<g id="node6" class="node">
<title>X::Syntax</title>
<g id="a_node6"><a xlink:href="/type/X::Syntax" xlink:title="X::Syntax">
<ellipse fill="none" stroke="#6666ff" cx="213.19" cy="-90" rx="53.89" ry="18"/>
<text text-anchor="middle" x="213.19" y="-86.3" font-family="FreeSans" font-size="14.00" fill="#6666ff">X::Syntax</text>
</a>
</g>
</g>
<!-- X::Syntax::BlockGobbled&#45;&gt;X::Syntax -->
<g id="edge7" class="edge">
<title>X::Syntax::BlockGobbled&#45;&gt;X::Syntax</title>
<path fill="none" stroke="#6666ff" d="M144.22,-35.95C156.3,-45.24 171.42,-56.87 184.43,-66.87"/>
<polygon fill="#6666ff" stroke="#6666ff" points="182.55,-69.85 192.61,-73.17 186.82,-64.3 182.55,-69.85"/>
</g>
<!-- Mu -->
<g id="node2" class="node">
<title>Mu</title>
<g id="a_node2"><a xlink:href="/type/Mu" xlink:title="Mu">
<ellipse fill="none" stroke="#000000" cx="145.19" cy="-378" rx="27" ry="18"/>
<text text-anchor="middle" x="145.19" y="-374.3" font-family="FreeSans" font-size="14.00" fill="#000000">Mu</text>
</a>
</g>
</g>
<!-- Any -->
<g id="node3" class="node">
<title>Any</title>
<g id="a_node3"><a xlink:href="/type/Any" xlink:title="Any">
<ellipse fill="none" stroke="#000000" cx="145.19" cy="-306" rx="28.7" ry="18"/>
<text text-anchor="middle" x="145.19" y="-302.3" font-family="FreeSans" font-size="14.00" fill="#000000">Any</text>
</a>
</g>
</g>
<!-- Any&#45;&gt;Mu -->
<g id="edge3" class="edge">
<title>Any&#45;&gt;Mu</title>
<path fill="none" stroke="#000000" d="M145.19,-324.3C145.19,-332.02 145.19,-341.29 145.19,-349.89"/>
<polygon fill="#000000" stroke="#000000" points="141.69,-349.9 145.19,-359.9 148.69,-349.9 141.69,-349.9"/>
</g>
<!-- Exception&#45;&gt;Any -->
<g id="edge4" class="edge">
<title>Exception&#45;&gt;Any</title>
<path fill="none" stroke="#000000" d="M145.19,-252.3C145.19,-260.02 145.19,-269.29 145.19,-277.89"/>
<polygon fill="#000000" stroke="#000000" points="141.69,-277.9 145.19,-287.9 148.69,-277.9 141.69,-277.9"/>
</g>
<!-- X::Comp -->
<g id="node5" class="node">
<title>X::Comp</title>
<g id="a_node5"><a xlink:href="/type/X::Comp" xlink:title="X::Comp">
<ellipse fill="none" stroke="#6666ff" cx="246.19" cy="-162" rx="49.29" ry="18"/>
<text text-anchor="middle" x="246.19" y="-158.3" font-family="FreeSans" font-size="14.00" fill="#6666ff">X::Comp</text>
</a>
</g>
</g>
<!-- X::Comp&#45;&gt;Exception -->
<g id="edge5" class="edge">
<title>X::Comp&#45;&gt;Exception</title>
<path fill="none" stroke="#000000" d="M224.27,-178.19C210.18,-187.96 191.65,-200.8 176.07,-211.6"/>
<polygon fill="#000000" stroke="#000000" points="173.99,-208.78 167.76,-217.36 177.97,-214.54 173.99,-208.78"/>
</g>
<!-- X::Syntax&#45;&gt;Exception -->
<g id="edge6" class="edge">
<title>X::Syntax&#45;&gt;Exception</title>
<path fill="none" stroke="#000000" d="M205.12,-107.85C193.36,-132.4 171.42,-178.23 157.6,-207.09"/>
<polygon fill="#000000" stroke="#000000" points="154.41,-205.64 153.25,-216.18 160.72,-208.67 154.41,-205.64"/>
</g>
<!-- X::Syntax&#45;&gt;X::Comp -->
<g id="edge8" class="edge">
<title>X::Syntax&#45;&gt;X::Comp</title>
<path fill="none" stroke="#6666ff" d="M221.18,-107.95C224.99,-116.03 229.63,-125.88 233.88,-134.89"/>
<polygon fill="#6666ff" stroke="#6666ff" points="230.84,-136.66 238.27,-144.21 237.18,-133.67 230.84,-136.66"/>
</g>
</g>
</svg>
