<?xml version="1.0" encoding="UTF-8" standalone="no"?>
<!DOCTYPE svg PUBLIC "-//W3C//DTD SVG 1.1//EN"
 "http://www.w3.org/Graphics/SVG/1.1/DTD/svg11.dtd">
<!-- Generated by graphviz version 2.42.3 (0)
 -->
<!-- Title: perl6&#45;type&#45;graph Pages: 1 -->
<svg width="199pt" height="188pt"
 viewBox="0.00 0.00 198.74 188.00" xmlns="http://www.w3.org/2000/svg" xmlns:xlink="http://www.w3.org/1999/xlink">
<g id="graph0" class="graph" transform="scale(1 1) rotate(0) translate(4 184)">
<title>perl6&#45;type&#45;graph</title>
<polygon fill="white" stroke="transparent" points="-4,4 -4,-184 194.74,-184 194.74,4 -4,4"/>
<!-- IO::Socket -->
<g id="node1" class="node">
<title>IO::Socket</title>
<g id="a_node1"><a xlink:href="/type/IO::Socket" xlink:title="IO::Socket">
<ellipse fill="none" stroke="#6666ff" cx="56.54" cy="-90" rx="56.59" ry="18"/>
<text text-anchor="middle" x="56.54" y="-86.3" font-family="FreeSans" font-size="14.00" fill="#6666ff">IO::Socket</text>
</a>
</g>
</g>
<!-- Mu -->
<g id="node2" class="node">
<title>Mu</title>
<g id="a_node2"><a xlink:href="/type/Mu" xlink:title="Mu">
<ellipse fill="none" stroke="#000000" cx="159.54" cy="-162" rx="27" ry="18"/>
<text text-anchor="middle" x="159.54" y="-158.3" font-family="FreeSans" font-size="14.00" fill="#000000">Mu</text>
</a>
</g>
</g>
<!-- Any -->
<g id="node3" class="node">
<title>Any</title>
<g id="a_node3"><a xlink:href="/type/Any" xlink:title="Any">
<ellipse fill="none" stroke="#000000" cx="159.54" cy="-90" rx="28.7" ry="18"/>
<text text-anchor="middle" x="159.54" y="-86.3" font-family="FreeSans" font-size="14.00" fill="#000000">Any</text>
</a>
</g>
</g>
<!-- Any&#45;&gt;Mu -->
<g id="edge1" class="edge">
<title>Any&#45;&gt;Mu</title>
<path fill="none" stroke="#000000" d="M159.54,-108.3C159.54,-116.02 159.54,-125.29 159.54,-133.89"/>
<polygon fill="#000000" stroke="#000000" points="156.05,-133.9 159.54,-143.9 163.05,-133.9 156.05,-133.9"/>
</g>
<!-- IO::Socket::INET -->
<g id="node4" class="node">
<title>IO::Socket::INET</title>
<g id="a_node4"><a xlink:href="/type/IO::Socket::INET" xlink:title="IO::Socket::INET">
<ellipse fill="none" stroke="#000000" cx="107.54" cy="-18" rx="83.39" ry="18"/>
<text text-anchor="middle" x="107.54" y="-14.3" font-family="FreeSans" font-size="14.00" fill="#000000">IO::Socket::INET</text>
</a>
</g>
</g>
<!-- IO::Socket::INET&#45;&gt;IO::Socket -->
<g id="edge3" class="edge">
<title>IO::Socket::INET&#45;&gt;IO::Socket</title>
<path fill="none" stroke="#6666ff" d="M95.2,-35.95C89.06,-44.37 81.52,-54.72 74.73,-64.03"/>
<polygon fill="#6666ff" stroke="#6666ff" points="71.84,-62.07 68.78,-72.21 77.49,-66.19 71.84,-62.07"/>
</g>
<!-- IO::Socket::INET&#45;&gt;Any -->
<g id="edge2" class="edge">
<title>IO::Socket::INET&#45;&gt;Any</title>
<path fill="none" stroke="#000000" d="M120.13,-35.95C126.58,-44.62 134.53,-55.33 141.61,-64.85"/>
<polygon fill="#000000" stroke="#000000" points="139.01,-67.23 147.79,-73.17 144.63,-63.06 139.01,-67.23"/>
</g>
</g>
</svg>
