<?xml version="1.0" encoding="UTF-8" standalone="no"?>
<!DOCTYPE svg PUBLIC "-//W3C//DTD SVG 1.1//EN"
 "http://www.w3.org/Graphics/SVG/1.1/DTD/svg11.dtd">
<!-- Generated by graphviz version 2.42.3 (0)
 -->
<!-- Title: perl6&#45;type&#45;graph Pages: 1 -->
<svg width="1088pt" height="1194pt"
 viewBox="0.00 0.00 1088.46 1193.87" xmlns="http://www.w3.org/2000/svg" xmlns:xlink="http://www.w3.org/1999/xlink">
<g id="graph0" class="graph" transform="scale(1 1) rotate(0) translate(4 1189.87)">
<title>perl6&#45;type&#45;graph</title>
<polygon fill="white" stroke="transparent" points="-4,4 -4,-1189.87 1084.46,-1189.87 1084.46,4 -4,4"/>
<!-- Metamodel::ConcreteRoleHOW -->
<g id="node1" class="node">
<title>Metamodel::ConcreteRoleHOW</title>
<g id="a_node1"><a xlink:href="/type/Metamodel::ConcreteRoleHOW" xlink:title="Metamodel::ConcreteRoleHOW">
<ellipse fill="none" stroke="#000000" cx="527.87" cy="-780.22" rx="148.67" ry="18"/>
<text text-anchor="middle" x="527.87" y="-776.52" font-family="FreeSans" font-size="14.00" fill="#000000">Metamodel::ConcreteRoleHOW</text>
</a>
</g>
</g>
<!-- Any -->
<g id="node3" class="node">
<title>Any</title>
<g id="a_node3"><a xlink:href="/type/Any" xlink:title="Any">
<ellipse fill="none" stroke="#000000" cx="602.1" cy="-371.07" rx="28.7" ry="18"/>
<text text-anchor="middle" x="602.1" y="-367.37" font-family="FreeSans" font-size="14.00" fill="#000000">Any</text>
</a>
</g>
</g>
<!-- Metamodel::ConcreteRoleHOW&#45;&gt;Any -->
<g id="edge1" class="edge">
<title>Metamodel::ConcreteRoleHOW&#45;&gt;Any</title>
<path fill="none" stroke="#000000" d="M531.15,-762.11C542.89,-697.42 582.81,-477.39 597.02,-399.05"/>
<polygon fill="#000000" stroke="#000000" points="600.51,-399.43 598.85,-388.97 593.62,-398.18 600.51,-399.43"/>
</g>
<!-- Metamodel::Naming -->
<g id="node4" class="node">
<title>Metamodel::Naming</title>
<g id="a_node4"><a xlink:href="/type/Metamodel::Naming" xlink:title="Metamodel::Naming">
<ellipse fill="none" stroke="#6666ff" cx="163.75" cy="-932.37" rx="101.28" ry="18"/>
<text text-anchor="middle" x="163.75" y="-928.67" font-family="FreeSans" font-size="14.00" fill="#6666ff">Metamodel::Naming</text>
</a>
</g>
</g>
<!-- Metamodel::ConcreteRoleHOW&#45;&gt;Metamodel::Naming -->
<g id="edge3" class="edge">
<title>Metamodel::ConcreteRoleHOW&#45;&gt;Metamodel::Naming</title>
<path fill="none" stroke="#6666ff" d="M486.45,-797.53C418.84,-825.78 285.07,-881.68 212.81,-911.87"/>
<polygon fill="#6666ff" stroke="#6666ff" points="211.34,-908.69 203.46,-915.78 214.04,-915.15 211.34,-908.69"/>
</g>
<!-- Metamodel::Versioning -->
<g id="node5" class="node">
<title>Metamodel::Versioning</title>
<g id="a_node5"><a xlink:href="/type/Metamodel::Versioning" xlink:title="Metamodel::Versioning">
<ellipse fill="none" stroke="#6666ff" cx="594.32" cy="-1167.87" rx="114.28" ry="18"/>
<text text-anchor="middle" x="594.32" y="-1164.17" font-family="FreeSans" font-size="14.00" fill="#6666ff">Metamodel::Versioning</text>
</a>
</g>
</g>
<!-- Metamodel::ConcreteRoleHOW&#45;&gt;Metamodel::Versioning -->
<g id="edge4" class="edge">
<title>Metamodel::ConcreteRoleHOW&#45;&gt;Metamodel::Versioning</title>
<path fill="none" stroke="#6666ff" d="M530.98,-798.4C541.62,-860.46 576.56,-1064.29 589.47,-1139.59"/>
<polygon fill="#6666ff" stroke="#6666ff" points="586.07,-1140.47 591.21,-1149.73 592.97,-1139.28 586.07,-1140.47"/>
</g>
<!-- Metamodel::PrivateMethodContainer -->
<g id="node6" class="node">
<title>Metamodel::PrivateMethodContainer</title>
<g id="a_node6"><a xlink:href="/type/Metamodel::PrivateMethodContainer" xlink:title="Metamodel::PrivateMethodContainer">
<ellipse fill="none" stroke="#6666ff" cx="338.31" cy="-1123.86" rx="174.67" ry="18"/>
<text text-anchor="middle" x="338.31" y="-1120.16" font-family="FreeSans" font-size="14.00" fill="#6666ff">Metamodel::PrivateMethodContainer</text>
</a>
</g>
</g>
<!-- Metamodel::ConcreteRoleHOW&#45;&gt;Metamodel::PrivateMethodContainer -->
<g id="edge5" class="edge">
<title>Metamodel::ConcreteRoleHOW&#45;&gt;Metamodel::PrivateMethodContainer</title>
<path fill="none" stroke="#6666ff" d="M517.94,-798.21C486.73,-854.8 390.44,-1029.37 353.21,-1096.85"/>
<polygon fill="#6666ff" stroke="#6666ff" points="350.13,-1095.19 348.37,-1105.64 356.26,-1098.57 350.13,-1095.19"/>
</g>
<!-- Metamodel::MethodContainer -->
<g id="node7" class="node">
<title>Metamodel::MethodContainer</title>
<g id="a_node7"><a xlink:href="/type/Metamodel::MethodContainer" xlink:title="Metamodel::MethodContainer">
<ellipse fill="none" stroke="#6666ff" cx="143.64" cy="-676.28" rx="143.77" ry="18"/>
<text text-anchor="middle" x="143.64" y="-672.58" font-family="FreeSans" font-size="14.00" fill="#6666ff">Metamodel::MethodContainer</text>
</a>
</g>
</g>
<!-- Metamodel::ConcreteRoleHOW&#45;&gt;Metamodel::MethodContainer -->
<g id="edge6" class="edge">
<title>Metamodel::ConcreteRoleHOW&#45;&gt;Metamodel::MethodContainer</title>
<path fill="none" stroke="#6666ff" d="M466.98,-763.75C398.27,-745.16 286.65,-714.97 214.19,-695.36"/>
<polygon fill="#6666ff" stroke="#6666ff" points="214.8,-691.9 204.23,-692.67 212.97,-698.66 214.8,-691.9"/>
</g>
<!-- Metamodel::MultiMethodContainer -->
<g id="node8" class="node">
<title>Metamodel::MultiMethodContainer</title>
<g id="a_node8"><a xlink:href="/type/Metamodel::MultiMethodContainer" xlink:title="Metamodel::MultiMethodContainer">
<ellipse fill="none" stroke="#6666ff" cx="821.67" cy="-1046.56" rx="165.97" ry="18"/>
<text text-anchor="middle" x="821.67" y="-1042.86" font-family="FreeSans" font-size="14.00" fill="#6666ff">Metamodel::MultiMethodContainer</text>
</a>
</g>
</g>
<!-- Metamodel::ConcreteRoleHOW&#45;&gt;Metamodel::MultiMethodContainer -->
<g id="edge7" class="edge">
<title>Metamodel::ConcreteRoleHOW&#45;&gt;Metamodel::MultiMethodContainer</title>
<path fill="none" stroke="#6666ff" d="M547.6,-798.11C598.7,-844.44 735.44,-968.39 794.2,-1021.67"/>
<polygon fill="#6666ff" stroke="#6666ff" points="791.87,-1024.28 801.63,-1028.4 796.57,-1019.09 791.87,-1024.28"/>
</g>
<!-- Metamodel::AttributeContainer -->
<g id="node9" class="node">
<title>Metamodel::AttributeContainer</title>
<g id="a_node9"><a xlink:href="/type/Metamodel::AttributeContainer" xlink:title="Metamodel::AttributeContainer">
<ellipse fill="none" stroke="#6666ff" cx="298.72" cy="-478.83" rx="150.27" ry="18"/>
<text text-anchor="middle" x="298.72" y="-475.13" font-family="FreeSans" font-size="14.00" fill="#6666ff">Metamodel::AttributeContainer</text>
</a>
</g>
</g>
<!-- Metamodel::ConcreteRoleHOW&#45;&gt;Metamodel::AttributeContainer -->
<g id="edge8" class="edge">
<title>Metamodel::ConcreteRoleHOW&#45;&gt;Metamodel::AttributeContainer</title>
<path fill="none" stroke="#6666ff" d="M514.22,-762.27C475.46,-711.3 364.61,-565.49 318.85,-505.31"/>
<polygon fill="#6666ff" stroke="#6666ff" points="321.43,-502.91 312.59,-497.07 315.85,-507.15 321.43,-502.91"/>
</g>
<!-- Metamodel::RoleContainer -->
<g id="node10" class="node">
<title>Metamodel::RoleContainer</title>
<g id="a_node10"><a xlink:href="/type/Metamodel::RoleContainer" xlink:title="Metamodel::RoleContainer">
<ellipse fill="none" stroke="#6666ff" cx="838.42" cy="-579.08" rx="129.98" ry="18"/>
<text text-anchor="middle" x="838.42" y="-575.38" font-family="FreeSans" font-size="14.00" fill="#6666ff">Metamodel::RoleContainer</text>
</a>
</g>
</g>
<!-- Metamodel::ConcreteRoleHOW&#45;&gt;Metamodel::RoleContainer -->
<g id="edge9" class="edge">
<title>Metamodel::ConcreteRoleHOW&#45;&gt;Metamodel::RoleContainer</title>
<path fill="none" stroke="#6666ff" d="M555.43,-762.37C611.71,-725.92 739.83,-642.93 802.53,-602.33"/>
<polygon fill="#6666ff" stroke="#6666ff" points="804.43,-605.26 810.92,-596.89 800.63,-599.38 804.43,-605.26"/>
</g>
<!-- Metamodel::MultipleInheritance -->
<g id="node11" class="node">
<title>Metamodel::MultipleInheritance</title>
<g id="a_node11"><a xlink:href="/type/Metamodel::MultipleInheritance" xlink:title="Metamodel::MultipleInheritance">
<ellipse fill="none" stroke="#6666ff" cx="927.07" cy="-813.43" rx="153.27" ry="18"/>
<text text-anchor="middle" x="927.07" y="-809.73" font-family="FreeSans" font-size="14.00" fill="#6666ff">Metamodel::MultipleInheritance</text>
</a>
</g>
</g>
<!-- Metamodel::ConcreteRoleHOW&#45;&gt;Metamodel::MultipleInheritance -->
<g id="edge10" class="edge">
<title>Metamodel::ConcreteRoleHOW&#45;&gt;Metamodel::MultipleInheritance</title>
<path fill="none" stroke="#6666ff" d="M650.63,-790.43C695.35,-794.16 746.15,-798.38 791.89,-802.19"/>
<polygon fill="#6666ff" stroke="#6666ff" points="791.62,-805.68 801.87,-803.02 792.2,-798.7 791.62,-805.68"/>
</g>
<!-- Mu -->
<g id="node2" class="node">
<title>Mu</title>
<g id="a_node2"><a xlink:href="/type/Mu" xlink:title="Mu">
<ellipse fill="none" stroke="#000000" cx="710.92" cy="-18" rx="27" ry="18"/>
<text text-anchor="middle" x="710.92" y="-14.3" font-family="FreeSans" font-size="14.00" fill="#000000">Mu</text>
</a>
</g>
</g>
<!-- Any&#45;&gt;Mu -->
<g id="edge2" class="edge">
<title>Any&#45;&gt;Mu</title>
<path fill="none" stroke="#000000" d="M607.64,-353.07C625.4,-295.46 680.93,-115.29 702.36,-45.76"/>
<polygon fill="#000000" stroke="#000000" points="705.78,-46.55 705.39,-35.96 699.09,-44.48 705.78,-46.55"/>
</g>
</g>
</svg>
