<?xml version="1.0" encoding="UTF-8" standalone="no"?>
<!DOCTYPE svg PUBLIC "-//W3C//DTD SVG 1.1//EN"
 "http://www.w3.org/Graphics/SVG/1.1/DTD/svg11.dtd">
<!-- Generated by graphviz version 2.42.3 (0)
 -->
<!-- Title: perl6&#45;type&#45;graph Pages: 1 -->
<svg width="204pt" height="260pt"
 viewBox="0.00 0.00 203.74 260.00" xmlns="http://www.w3.org/2000/svg" xmlns:xlink="http://www.w3.org/1999/xlink">
<g id="graph0" class="graph" transform="scale(1 1) rotate(0) translate(4 256)">
<title>perl6&#45;type&#45;graph</title>
<polygon fill="white" stroke="transparent" points="-4,4 -4,-256 199.74,-256 199.74,4 -4,4"/>
<!-- Setty -->
<g id="node1" class="node">
<title>Setty</title>
<g id="a_node1"><a xlink:href="/type/Setty" xlink:title="Setty">
<ellipse fill="none" stroke="#6666ff" cx="68.74" cy="-90" rx="34.39" ry="18"/>
<text text-anchor="middle" x="68.74" y="-86.3" font-family="FreeSans" font-size="14.00" fill="#6666ff">Setty</text>
</a>
</g>
</g>
<!-- QuantHash -->
<g id="node3" class="node">
<title>QuantHash</title>
<g id="a_node3"><a xlink:href="/type/QuantHash" xlink:title="QuantHash">
<ellipse fill="none" stroke="#6666ff" cx="61.74" cy="-162" rx="61.99" ry="18"/>
<text text-anchor="middle" x="61.74" y="-158.3" font-family="FreeSans" font-size="14.00" fill="#6666ff">QuantHash</text>
</a>
</g>
</g>
<!-- Setty&#45;&gt;QuantHash -->
<g id="edge4" class="edge">
<title>Setty&#45;&gt;QuantHash</title>
<path fill="none" stroke="#6666ff" d="M67.01,-108.3C66.24,-116.02 65.32,-125.29 64.46,-133.89"/>
<polygon fill="#6666ff" stroke="#6666ff" points="60.97,-133.6 63.45,-143.9 67.93,-134.29 60.97,-133.6"/>
</g>
<!-- Associative -->
<g id="node2" class="node">
<title>Associative</title>
<g id="a_node2"><a xlink:href="/type/Associative" xlink:title="Associative">
<ellipse fill="none" stroke="#6666ff" cx="61.74" cy="-234" rx="61.99" ry="18"/>
<text text-anchor="middle" x="61.74" y="-230.3" font-family="FreeSans" font-size="14.00" fill="#6666ff">Associative</text>
</a>
</g>
</g>
<!-- QuantHash&#45;&gt;Associative -->
<g id="edge5" class="edge">
<title>QuantHash&#45;&gt;Associative</title>
<path fill="none" stroke="#6666ff" d="M61.74,-180.3C61.74,-188.02 61.74,-197.29 61.74,-205.89"/>
<polygon fill="#6666ff" stroke="#6666ff" points="58.24,-205.9 61.74,-215.9 65.24,-205.9 58.24,-205.9"/>
</g>
<!-- Mu -->
<g id="node4" class="node">
<title>Mu</title>
<g id="a_node4"><a xlink:href="/type/Mu" xlink:title="Mu">
<ellipse fill="none" stroke="#000000" cx="168.74" cy="-162" rx="27" ry="18"/>
<text text-anchor="middle" x="168.74" y="-158.3" font-family="FreeSans" font-size="14.00" fill="#000000">Mu</text>
</a>
</g>
</g>
<!-- Any -->
<g id="node5" class="node">
<title>Any</title>
<g id="a_node5"><a xlink:href="/type/Any" xlink:title="Any">
<ellipse fill="none" stroke="#000000" cx="161.74" cy="-90" rx="28.7" ry="18"/>
<text text-anchor="middle" x="161.74" y="-86.3" font-family="FreeSans" font-size="14.00" fill="#000000">Any</text>
</a>
</g>
</g>
<!-- Any&#45;&gt;Mu -->
<g id="edge1" class="edge">
<title>Any&#45;&gt;Mu</title>
<path fill="none" stroke="#000000" d="M163.47,-108.3C164.25,-116.02 165.17,-125.29 166.03,-133.89"/>
<polygon fill="#000000" stroke="#000000" points="162.56,-134.29 167.03,-143.9 169.52,-133.6 162.56,-134.29"/>
</g>
<!-- SetHash -->
<g id="node6" class="node">
<title>SetHash</title>
<g id="a_node6"><a xlink:href="/type/SetHash" xlink:title="SetHash">
<ellipse fill="none" stroke="#000000" cx="68.74" cy="-18" rx="48.19" ry="18"/>
<text text-anchor="middle" x="68.74" y="-14.3" font-family="FreeSans" font-size="14.00" fill="#000000">SetHash</text>
</a>
</g>
</g>
<!-- SetHash&#45;&gt;Setty -->
<g id="edge6" class="edge">
<title>SetHash&#45;&gt;Setty</title>
<path fill="none" stroke="#6666ff" d="M68.74,-36.3C68.74,-44.02 68.74,-53.29 68.74,-61.89"/>
<polygon fill="#6666ff" stroke="#6666ff" points="65.24,-61.9 68.74,-71.9 72.24,-61.9 65.24,-61.9"/>
</g>
<!-- SetHash&#45;&gt;Any -->
<g id="edge2" class="edge">
<title>SetHash&#45;&gt;Any</title>
<path fill="none" stroke="#000000" d="M89.38,-34.54C103.07,-44.84 121.14,-58.44 135.8,-69.47"/>
<polygon fill="#000000" stroke="#000000" points="133.89,-72.41 143.98,-75.63 138.1,-66.82 133.89,-72.41"/>
</g>
<!-- Set -->
<g id="node7" class="node">
<title>Set</title>
<g id="a_node7"><a xlink:href="/type/Set" xlink:title="Set">
<ellipse fill="none" stroke="#000000" cx="161.74" cy="-18" rx="27" ry="18"/>
<text text-anchor="middle" x="161.74" y="-14.3" font-family="FreeSans" font-size="14.00" fill="#000000">Set</text>
</a>
</g>
</g>
<!-- Set&#45;&gt;Setty -->
<g id="edge7" class="edge">
<title>Set&#45;&gt;Setty</title>
<path fill="none" stroke="#6666ff" d="M144.25,-32.17C130.67,-42.39 111.58,-56.76 96,-68.49"/>
<polygon fill="#6666ff" stroke="#6666ff" points="93.64,-65.88 87.76,-74.69 97.85,-71.47 93.64,-65.88"/>
</g>
<!-- Set&#45;&gt;Any -->
<g id="edge3" class="edge">
<title>Set&#45;&gt;Any</title>
<path fill="none" stroke="#000000" d="M161.74,-36.3C161.74,-44.02 161.74,-53.29 161.74,-61.89"/>
<polygon fill="#000000" stroke="#000000" points="158.24,-61.9 161.74,-71.9 165.24,-61.9 158.24,-61.9"/>
</g>
</g>
</svg>
