<?xml version="1.0" encoding="UTF-8" standalone="no"?>
<!DOCTYPE svg PUBLIC "-//W3C//DTD SVG 1.1//EN"
 "http://www.w3.org/Graphics/SVG/1.1/DTD/svg11.dtd">
<!-- Generated by graphviz version 2.42.3 (0)
 -->
<!-- Title: perl6&#45;type&#45;graph Pages: 1 -->
<svg width="1938pt" height="1771pt"
 viewBox="0.00 0.00 1937.72 1770.94" xmlns="http://www.w3.org/2000/svg" xmlns:xlink="http://www.w3.org/1999/xlink">
<g id="graph0" class="graph" transform="scale(1 1) rotate(0) translate(4 1766.94)">
<title>perl6&#45;type&#45;graph</title>
<polygon fill="white" stroke="transparent" points="-4,4 -4,-1766.94 1933.72,-1766.94 1933.72,4 -4,4"/>
<!-- Metamodel::BUILDPLAN -->
<g id="node1" class="node">
<title>Metamodel::BUILDPLAN</title>
<g id="a_node1"><a xlink:href="/type/Metamodel::BUILDPLAN" xlink:title="Metamodel::BUILDPLAN">
<ellipse fill="none" stroke="#6666ff" cx="275.78" cy="-721.03" rx="118.08" ry="18"/>
<text text-anchor="middle" x="275.78" y="-717.33" font-family="FreeSans" font-size="14.00" fill="#6666ff">Metamodel::BUILDPLAN</text>
</a>
</g>
</g>
<!-- Mu -->
<g id="node2" class="node">
<title>Mu</title>
<g id="a_node2"><a xlink:href="/type/Mu" xlink:title="Mu">
<ellipse fill="none" stroke="#000000" cx="1902.72" cy="-497.51" rx="27" ry="18"/>
<text text-anchor="middle" x="1902.72" y="-493.81" font-family="FreeSans" font-size="14.00" fill="#000000">Mu</text>
</a>
</g>
</g>
<!-- Any -->
<g id="node3" class="node">
<title>Any</title>
<g id="a_node3"><a xlink:href="/type/Any" xlink:title="Any">
<ellipse fill="none" stroke="#000000" cx="1350.43" cy="-657.96" rx="28.7" ry="18"/>
<text text-anchor="middle" x="1350.43" y="-654.26" font-family="FreeSans" font-size="14.00" fill="#000000">Any</text>
</a>
</g>
</g>
<!-- Any&#45;&gt;Mu -->
<g id="edge1" class="edge">
<title>Any&#45;&gt;Mu</title>
<path fill="none" stroke="#000000" d="M1376.69,-650.33C1467.16,-624.05 1765.86,-537.27 1868.07,-507.58"/>
<polygon fill="#000000" stroke="#000000" points="1869.26,-510.88 1877.89,-504.73 1867.31,-504.16 1869.26,-510.88"/>
</g>
<!-- Metamodel::Naming -->
<g id="node4" class="node">
<title>Metamodel::Naming</title>
<g id="a_node4"><a xlink:href="/type/Metamodel::Naming" xlink:title="Metamodel::Naming">
<ellipse fill="none" stroke="#6666ff" cx="792.61" cy="-1343.25" rx="101.28" ry="18"/>
<text text-anchor="middle" x="792.61" y="-1339.55" font-family="FreeSans" font-size="14.00" fill="#6666ff">Metamodel::Naming</text>
</a>
</g>
</g>
<!-- Metamodel::Stashing -->
<g id="node5" class="node">
<title>Metamodel::Stashing</title>
<g id="a_node5"><a xlink:href="/type/Metamodel::Stashing" xlink:title="Metamodel::Stashing">
<ellipse fill="none" stroke="#6666ff" cx="1183.68" cy="-1020.89" rx="105.88" ry="18"/>
<text text-anchor="middle" x="1183.68" y="-1017.19" font-family="FreeSans" font-size="14.00" fill="#6666ff">Metamodel::Stashing</text>
</a>
</g>
</g>
<!-- Metamodel::AttributeContainer -->
<g id="node6" class="node">
<title>Metamodel::AttributeContainer</title>
<g id="a_node6"><a xlink:href="/type/Metamodel::AttributeContainer" xlink:title="Metamodel::AttributeContainer">
<ellipse fill="none" stroke="#6666ff" cx="423.8" cy="-1070.45" rx="150.27" ry="18"/>
<text text-anchor="middle" x="423.8" y="-1066.75" font-family="FreeSans" font-size="14.00" fill="#6666ff">Metamodel::AttributeContainer</text>
</a>
</g>
</g>
<!-- Metamodel::MethodContainer -->
<g id="node7" class="node">
<title>Metamodel::MethodContainer</title>
<g id="a_node7"><a xlink:href="/type/Metamodel::MethodContainer" xlink:title="Metamodel::MethodContainer">
<ellipse fill="none" stroke="#6666ff" cx="417.54" cy="-581.08" rx="143.77" ry="18"/>
<text text-anchor="middle" x="417.54" y="-577.38" font-family="FreeSans" font-size="14.00" fill="#6666ff">Metamodel::MethodContainer</text>
</a>
</g>
</g>
<!-- Metamodel::MultiMethodContainer -->
<g id="node8" class="node">
<title>Metamodel::MultiMethodContainer</title>
<g id="a_node8"><a xlink:href="/type/Metamodel::MultiMethodContainer" xlink:title="Metamodel::MultiMethodContainer">
<ellipse fill="none" stroke="#6666ff" cx="1327.08" cy="-858.73" rx="165.97" ry="18"/>
<text text-anchor="middle" x="1327.08" y="-855.03" font-family="FreeSans" font-size="14.00" fill="#6666ff">Metamodel::MultiMethodContainer</text>
</a>
</g>
</g>
<!-- Metamodel::RoleContainer -->
<g id="node9" class="node">
<title>Metamodel::RoleContainer</title>
<g id="a_node9"><a xlink:href="/type/Metamodel::RoleContainer" xlink:title="Metamodel::RoleContainer">
<ellipse fill="none" stroke="#6666ff" cx="565.79" cy="-487.35" rx="129.98" ry="18"/>
<text text-anchor="middle" x="565.79" y="-483.65" font-family="FreeSans" font-size="14.00" fill="#6666ff">Metamodel::RoleContainer</text>
</a>
</g>
</g>
<!-- Metamodel::BaseType -->
<g id="node10" class="node">
<title>Metamodel::BaseType</title>
<g id="a_node10"><a xlink:href="/type/Metamodel::BaseType" xlink:title="Metamodel::BaseType">
<ellipse fill="none" stroke="#6666ff" cx="1046.83" cy="-18" rx="109.38" ry="18"/>
<text text-anchor="middle" x="1046.83" y="-14.3" font-family="FreeSans" font-size="14.00" fill="#6666ff">Metamodel::BaseType</text>
</a>
</g>
</g>
<!-- Metamodel::MROBasedMethodDispatch -->
<g id="node11" class="node">
<title>Metamodel::MROBasedMethodDispatch</title>
<g id="a_node11"><a xlink:href="/type/Metamodel::MROBasedMethodDispatch" xlink:title="Metamodel::MROBasedMethodDispatch">
<ellipse fill="none" stroke="#6666ff" cx="762.87" cy="-430.27" rx="188.47" ry="18"/>
<text text-anchor="middle" x="762.87" y="-426.57" font-family="FreeSans" font-size="14.00" fill="#6666ff">Metamodel::MROBasedMethodDispatch</text>
</a>
</g>
</g>
<!-- Metamodel::MROBasedTypeChecking -->
<g id="node12" class="node">
<title>Metamodel::MROBasedTypeChecking</title>
<g id="a_node12"><a xlink:href="/type/Metamodel::MROBasedTypeChecking" xlink:title="Metamodel::MROBasedTypeChecking">
<ellipse fill="none" stroke="#6666ff" cx="374.07" cy="-867.32" rx="178.97" ry="18"/>
<text text-anchor="middle" x="374.07" y="-863.62" font-family="FreeSans" font-size="14.00" fill="#6666ff">Metamodel::MROBasedTypeChecking</text>
</a>
</g>
</g>
<!-- Metamodel::BoolificationProtocol -->
<g id="node13" class="node">
<title>Metamodel::BoolificationProtocol</title>
<g id="a_node13"><a xlink:href="/type/Metamodel::BoolificationProtocol" xlink:title="Metamodel::BoolificationProtocol">
<ellipse fill="none" stroke="#6666ff" cx="1385.65" cy="-1110.37" rx="157.07" ry="18"/>
<text text-anchor="middle" x="1385.65" y="-1106.67" font-family="FreeSans" font-size="14.00" fill="#6666ff">Metamodel::BoolificationProtocol</text>
</a>
</g>
</g>
<!-- Metamodel::Mixins -->
<g id="node14" class="node">
<title>Metamodel::Mixins</title>
<g id="a_node14"><a xlink:href="/type/Metamodel::Mixins" xlink:title="Metamodel::Mixins">
<ellipse fill="none" stroke="#6666ff" cx="1141.41" cy="-1273.69" rx="94.78" ry="18"/>
<text text-anchor="middle" x="1141.41" y="-1269.99" font-family="FreeSans" font-size="14.00" fill="#6666ff">Metamodel::Mixins</text>
</a>
</g>
</g>
<!-- Metamodel::EnumHOW -->
<g id="node15" class="node">
<title>Metamodel::EnumHOW</title>
<g id="a_node15"><a xlink:href="/type/Metamodel::EnumHOW" xlink:title="Metamodel::EnumHOW">
<ellipse fill="none" stroke="#000000" cx="896.28" cy="-717.46" rx="115.88" ry="18"/>
<text text-anchor="middle" x="896.28" y="-713.76" font-family="FreeSans" font-size="14.00" fill="#000000">Metamodel::EnumHOW</text>
</a>
</g>
</g>
<!-- Metamodel::EnumHOW&#45;&gt;Metamodel::BUILDPLAN -->
<g id="edge13" class="edge">
<title>Metamodel::EnumHOW&#45;&gt;Metamodel::BUILDPLAN</title>
<path fill="none" stroke="#6666ff" d="M780.66,-718.13C673.81,-718.74 515.3,-719.65 404.47,-720.29"/>
<polygon fill="#6666ff" stroke="#6666ff" points="404.22,-716.79 394.24,-720.35 404.26,-723.79 404.22,-716.79"/>
</g>
<!-- Metamodel::EnumHOW&#45;&gt;Any -->
<g id="edge2" class="edge">
<title>Metamodel::EnumHOW&#45;&gt;Any</title>
<path fill="none" stroke="#000000" d="M984.92,-705.85C1084.32,-692.82 1240.94,-672.3 1312.5,-662.93"/>
<polygon fill="#000000" stroke="#000000" points="1312.96,-666.4 1322.42,-661.63 1312.05,-659.46 1312.96,-666.4"/>
</g>
<!-- Metamodel::EnumHOW&#45;&gt;Metamodel::Naming -->
<g id="edge4" class="edge">
<title>Metamodel::EnumHOW&#45;&gt;Metamodel::Naming</title>
<path fill="none" stroke="#6666ff" d="M896.24,-735.62C896.09,-809.5 895.54,-1083.6 895.54,-1083.6 895.54,-1083.6 830.17,-1248.52 803.62,-1315.49"/>
<polygon fill="#6666ff" stroke="#6666ff" points="800.28,-1314.4 799.85,-1324.99 806.79,-1316.98 800.28,-1314.4"/>
</g>
<!-- Metamodel::EnumHOW&#45;&gt;Metamodel::Stashing -->
<g id="edge5" class="edge">
<title>Metamodel::EnumHOW&#45;&gt;Metamodel::Stashing</title>
<path fill="none" stroke="#6666ff" d="M913.39,-735.53C962.31,-787.18 1102.85,-935.55 1159.54,-995.41"/>
<polygon fill="#6666ff" stroke="#6666ff" points="1157.23,-998.06 1166.65,-1002.92 1162.31,-993.25 1157.23,-998.06"/>
</g>
<!-- Metamodel::EnumHOW&#45;&gt;Metamodel::AttributeContainer -->
<g id="edge6" class="edge">
<title>Metamodel::EnumHOW&#45;&gt;Metamodel::AttributeContainer</title>
<path fill="none" stroke="#6666ff" d="M872.52,-735.21C794.3,-793.65 544.7,-980.13 455.7,-1046.62"/>
<polygon fill="#6666ff" stroke="#6666ff" points="453.52,-1043.88 447.6,-1052.67 457.7,-1049.49 453.52,-1043.88"/>
</g>
<!-- Metamodel::EnumHOW&#45;&gt;Metamodel::MethodContainer -->
<g id="edge7" class="edge">
<title>Metamodel::EnumHOW&#45;&gt;Metamodel::MethodContainer</title>
<path fill="none" stroke="#6666ff" d="M840.42,-701.55C752.16,-676.41 580.71,-627.56 485.46,-600.43"/>
<polygon fill="#6666ff" stroke="#6666ff" points="486.22,-597.01 475.64,-597.63 484.3,-603.74 486.22,-597.01"/>
</g>
<!-- Metamodel::EnumHOW&#45;&gt;Metamodel::MultiMethodContainer -->
<g id="edge8" class="edge">
<title>Metamodel::EnumHOW&#45;&gt;Metamodel::MultiMethodContainer</title>
<path fill="none" stroke="#6666ff" d="M946.12,-733.8C1025.13,-759.71 1179,-810.17 1265.04,-838.38"/>
<polygon fill="#6666ff" stroke="#6666ff" points="1264.08,-841.75 1274.68,-841.55 1266.27,-835.1 1264.08,-841.75"/>
</g>
<!-- Metamodel::EnumHOW&#45;&gt;Metamodel::RoleContainer -->
<g id="edge9" class="edge">
<title>Metamodel::EnumHOW&#45;&gt;Metamodel::RoleContainer</title>
<path fill="none" stroke="#6666ff" d="M870.89,-699.79C812.02,-658.79 666.14,-557.22 599.72,-510.97"/>
<polygon fill="#6666ff" stroke="#6666ff" points="601.47,-507.93 591.26,-505.09 597.47,-513.67 601.47,-507.93"/>
</g>
<!-- Metamodel::EnumHOW&#45;&gt;Metamodel::BaseType -->
<g id="edge10" class="edge">
<title>Metamodel::EnumHOW&#45;&gt;Metamodel::BaseType</title>
<path fill="none" stroke="#6666ff" d="M898.58,-699.2C904.59,-651.54 920.3,-527.04 920.3,-527.04 920.3,-527.04 952.94,-430.45 952.94,-430.45 952.94,-430.45 1019.44,-138.32 1040.51,-45.77"/>
<polygon fill="#6666ff" stroke="#6666ff" points="1043.93,-46.52 1042.74,-35.99 1037.11,-44.96 1043.93,-46.52"/>
</g>
<!-- Metamodel::EnumHOW&#45;&gt;Metamodel::MROBasedMethodDispatch -->
<g id="edge11" class="edge">
<title>Metamodel::EnumHOW&#45;&gt;Metamodel::MROBasedMethodDispatch</title>
<path fill="none" stroke="#6666ff" d="M887.93,-699.5C865.34,-650.86 802.86,-516.35 775.72,-457.94"/>
<polygon fill="#6666ff" stroke="#6666ff" points="778.77,-456.19 771.38,-448.59 772.42,-459.14 778.77,-456.19"/>
</g>
<!-- Metamodel::EnumHOW&#45;&gt;Metamodel::MROBasedTypeChecking -->
<g id="edge12" class="edge">
<title>Metamodel::EnumHOW&#45;&gt;Metamodel::MROBasedTypeChecking</title>
<path fill="none" stroke="#6666ff" d="M840.89,-733.36C744.89,-760.91 547.87,-817.45 443.12,-847.51"/>
<polygon fill="#6666ff" stroke="#6666ff" points="441.92,-844.21 433.27,-850.33 443.85,-850.94 441.92,-844.21"/>
</g>
<!-- Metamodel::EnumHOW&#45;&gt;Metamodel::BoolificationProtocol -->
<g id="edge14" class="edge">
<title>Metamodel::EnumHOW&#45;&gt;Metamodel::BoolificationProtocol</title>
<path fill="none" stroke="#6666ff" d="M919.51,-735.32C1004.16,-800.4 1291.21,-1021.07 1291.21,-1021.07 1291.21,-1021.07 1331.09,-1058.78 1359.02,-1085.19"/>
<polygon fill="#6666ff" stroke="#6666ff" points="1356.87,-1087.97 1366.54,-1092.3 1361.68,-1082.89 1356.87,-1087.97"/>
</g>
<!-- Metamodel::EnumHOW&#45;&gt;Metamodel::Mixins -->
<g id="edge15" class="edge">
<title>Metamodel::EnumHOW&#45;&gt;Metamodel::Mixins</title>
<path fill="none" stroke="#6666ff" d="M904.29,-735.65C940.19,-817.11 1086.29,-1148.61 1129.39,-1246.41"/>
<polygon fill="#6666ff" stroke="#6666ff" points="1126.22,-1247.9 1133.46,-1255.64 1132.63,-1245.07 1126.22,-1247.9"/>
</g>
<!-- Metamodel::Documenting -->
<g id="node16" class="node">
<title>Metamodel::Documenting</title>
<g id="a_node16"><a xlink:href="/type/Metamodel::Documenting" xlink:title="Metamodel::Documenting">
<ellipse fill="none" stroke="#6666ff" cx="1048.64" cy="-527.14" rx="126.98" ry="18"/>
<text text-anchor="middle" x="1048.64" y="-523.44" font-family="FreeSans" font-size="14.00" fill="#6666ff">Metamodel::Documenting</text>
</a>
</g>
</g>
<!-- Metamodel::Versioning -->
<g id="node17" class="node">
<title>Metamodel::Versioning</title>
<g id="a_node17"><a xlink:href="/type/Metamodel::Versioning" xlink:title="Metamodel::Versioning">
<ellipse fill="none" stroke="#6666ff" cx="1332.12" cy="-1526.03" rx="114.28" ry="18"/>
<text text-anchor="middle" x="1332.12" y="-1522.33" font-family="FreeSans" font-size="14.00" fill="#6666ff">Metamodel::Versioning</text>
</a>
</g>
</g>
<!-- Metamodel::Finalization -->
<g id="node18" class="node">
<title>Metamodel::Finalization</title>
<g id="a_node18"><a xlink:href="/type/Metamodel::Finalization" xlink:title="Metamodel::Finalization">
<ellipse fill="none" stroke="#6666ff" cx="574.61" cy="-1702.92" rx="116.98" ry="18"/>
<text text-anchor="middle" x="574.61" y="-1699.22" font-family="FreeSans" font-size="14.00" fill="#6666ff">Metamodel::Finalization</text>
</a>
</g>
</g>
<!-- Metamodel::PrivateMethodContainer -->
<g id="node19" class="node">
<title>Metamodel::PrivateMethodContainer</title>
<g id="a_node19"><a xlink:href="/type/Metamodel::PrivateMethodContainer" xlink:title="Metamodel::PrivateMethodContainer">
<ellipse fill="none" stroke="#6666ff" cx="384.68" cy="-1588.59" rx="174.67" ry="18"/>
<text text-anchor="middle" x="384.68" y="-1584.89" font-family="FreeSans" font-size="14.00" fill="#6666ff">Metamodel::PrivateMethodContainer</text>
</a>
</g>
</g>
<!-- Metamodel::MultipleInheritance -->
<g id="node20" class="node">
<title>Metamodel::MultipleInheritance</title>
<g id="a_node20"><a xlink:href="/type/Metamodel::MultipleInheritance" xlink:title="Metamodel::MultipleInheritance">
<ellipse fill="none" stroke="#6666ff" cx="853.02" cy="-1744.94" rx="153.27" ry="18"/>
<text text-anchor="middle" x="853.02" y="-1741.24" font-family="FreeSans" font-size="14.00" fill="#6666ff">Metamodel::MultipleInheritance</text>
</a>
</g>
</g>
<!-- Metamodel::DefaultParent -->
<g id="node21" class="node">
<title>Metamodel::DefaultParent</title>
<g id="a_node21"><a xlink:href="/type/Metamodel::DefaultParent" xlink:title="Metamodel::DefaultParent">
<ellipse fill="none" stroke="#6666ff" cx="218.97" cy="-1416.4" rx="128.08" ry="18"/>
<text text-anchor="middle" x="218.97" y="-1412.7" font-family="FreeSans" font-size="14.00" fill="#6666ff">Metamodel::DefaultParent</text>
</a>
</g>
</g>
<!-- Metamodel::C3MRO -->
<g id="node22" class="node">
<title>Metamodel::C3MRO</title>
<g id="a_node22"><a xlink:href="/type/Metamodel::C3MRO" xlink:title="Metamodel::C3MRO">
<ellipse fill="none" stroke="#6666ff" cx="100.09" cy="-1164.04" rx="100.18" ry="18"/>
<text text-anchor="middle" x="100.09" y="-1160.34" font-family="FreeSans" font-size="14.00" fill="#6666ff">Metamodel::C3MRO</text>
</a>
</g>
</g>
<!-- Metamodel::Trusting -->
<g id="node23" class="node">
<title>Metamodel::Trusting</title>
<g id="a_node23"><a xlink:href="/type/Metamodel::Trusting" xlink:title="Metamodel::Trusting">
<ellipse fill="none" stroke="#6666ff" cx="1086.38" cy="-1687.04" rx="102.88" ry="18"/>
<text text-anchor="middle" x="1086.38" y="-1683.34" font-family="FreeSans" font-size="14.00" fill="#6666ff">Metamodel::Trusting</text>
</a>
</g>
</g>
<!-- Metamodel::ClassHOW -->
<g id="node24" class="node">
<title>Metamodel::ClassHOW</title>
<g id="a_node24"><a xlink:href="/type/Metamodel::ClassHOW" xlink:title="Metamodel::ClassHOW">
<ellipse fill="none" stroke="#000000" cx="780.85" cy="-1083.53" rx="113.18" ry="18"/>
<text text-anchor="middle" x="780.85" y="-1079.83" font-family="FreeSans" font-size="14.00" fill="#000000">Metamodel::ClassHOW</text>
</a>
</g>
</g>
<!-- Metamodel::ClassHOW&#45;&gt;Metamodel::BUILDPLAN -->
<g id="edge32" class="edge">
<title>Metamodel::ClassHOW&#45;&gt;Metamodel::BUILDPLAN</title>
<path fill="none" stroke="#6666ff" d="M761.94,-1065.47C707.51,-1013.52 554.4,-867.38 554.4,-867.38 554.4,-867.38 395.8,-784.07 317.92,-743.16"/>
<polygon fill="#6666ff" stroke="#6666ff" points="319.32,-739.94 308.84,-738.39 316.06,-746.14 319.32,-739.94"/>
</g>
<!-- Metamodel::ClassHOW&#45;&gt;Any -->
<g id="edge3" class="edge">
<title>Metamodel::ClassHOW&#45;&gt;Any</title>
<path fill="none" stroke="#000000" d="M804.6,-1065.78C896.37,-997.22 1227.43,-749.86 1323.88,-677.79"/>
<polygon fill="#000000" stroke="#000000" points="1326.05,-680.54 1331.96,-671.75 1321.86,-674.94 1326.05,-680.54"/>
</g>
<!-- Metamodel::ClassHOW&#45;&gt;Metamodel::Naming -->
<g id="edge16" class="edge">
<title>Metamodel::ClassHOW&#45;&gt;Metamodel::Naming</title>
<path fill="none" stroke="#6666ff" d="M781.68,-1101.79C783.7,-1146.4 788.9,-1261.19 791.33,-1314.83"/>
<polygon fill="#6666ff" stroke="#6666ff" points="787.84,-1315.17 791.79,-1325.01 794.83,-1314.86 787.84,-1315.17"/>
</g>
<!-- Metamodel::ClassHOW&#45;&gt;Metamodel::Stashing -->
<g id="edge19" class="edge">
<title>Metamodel::ClassHOW&#45;&gt;Metamodel::Stashing</title>
<path fill="none" stroke="#6666ff" d="M861.89,-1070.93C929.55,-1060.41 1025.85,-1045.43 1095.45,-1034.61"/>
<polygon fill="#6666ff" stroke="#6666ff" points="1096.17,-1038.04 1105.51,-1033.05 1095.09,-1031.13 1096.17,-1038.04"/>
</g>
<!-- Metamodel::ClassHOW&#45;&gt;Metamodel::AttributeContainer -->
<g id="edge20" class="edge">
<title>Metamodel::ClassHOW&#45;&gt;Metamodel::AttributeContainer</title>
<path fill="none" stroke="#6666ff" d="M670.32,-1079.48C641.03,-1078.41 608.87,-1077.23 577.72,-1076.09"/>
<polygon fill="#6666ff" stroke="#6666ff" points="577.77,-1072.59 567.65,-1075.72 577.52,-1079.58 577.77,-1072.59"/>
</g>
<!-- Metamodel::ClassHOW&#45;&gt;Metamodel::MethodContainer -->
<g id="edge22" class="edge">
<title>Metamodel::ClassHOW&#45;&gt;Metamodel::MethodContainer</title>
<path fill="none" stroke="#6666ff" d="M767.92,-1065.64C713.3,-990.1 501.3,-696.92 436.48,-607.27"/>
<polygon fill="#6666ff" stroke="#6666ff" points="439.2,-605.06 430.5,-599.01 433.53,-609.16 439.2,-605.06"/>
</g>
<!-- Metamodel::ClassHOW&#45;&gt;Metamodel::MultiMethodContainer -->
<g id="edge24" class="edge">
<title>Metamodel::ClassHOW&#45;&gt;Metamodel::MultiMethodContainer</title>
<path fill="none" stroke="#6666ff" d="M821.91,-1066.63C919.81,-1026.34 1166.86,-924.67 1275.02,-880.16"/>
<polygon fill="#6666ff" stroke="#6666ff" points="1276.51,-883.33 1284.42,-876.29 1273.84,-876.86 1276.51,-883.33"/>
</g>
<!-- Metamodel::ClassHOW&#45;&gt;Metamodel::RoleContainer -->
<g id="edge25" class="edge">
<title>Metamodel::ClassHOW&#45;&gt;Metamodel::RoleContainer</title>
<path fill="none" stroke="#6666ff" d="M774.3,-1065.36C743.47,-979.9 612.85,-617.79 575.69,-514.79"/>
<polygon fill="#6666ff" stroke="#6666ff" points="578.98,-513.6 572.3,-505.38 572.4,-515.97 578.98,-513.6"/>
</g>
<!-- Metamodel::ClassHOW&#45;&gt;Metamodel::MROBasedMethodDispatch -->
<g id="edge29" class="edge">
<title>Metamodel::ClassHOW&#45;&gt;Metamodel::MROBasedMethodDispatch</title>
<path fill="none" stroke="#6666ff" d="M780.36,-1065.37C777.85,-974.53 766.7,-569.32 763.64,-458.41"/>
<polygon fill="#6666ff" stroke="#6666ff" points="767.14,-458.23 763.37,-448.33 760.14,-458.42 767.14,-458.23"/>
</g>
<!-- Metamodel::ClassHOW&#45;&gt;Metamodel::MROBasedTypeChecking -->
<g id="edge30" class="edge">
<title>Metamodel::ClassHOW&#45;&gt;Metamodel::MROBasedTypeChecking</title>
<path fill="none" stroke="#6666ff" d="M748.25,-1066.2C675.09,-1027.32 497.9,-933.14 416.38,-889.81"/>
<polygon fill="#6666ff" stroke="#6666ff" points="417.87,-886.64 407.4,-885.04 414.58,-892.82 417.87,-886.64"/>
</g>
<!-- Metamodel::ClassHOW&#45;&gt;Metamodel::BoolificationProtocol -->
<g id="edge34" class="edge">
<title>Metamodel::ClassHOW&#45;&gt;Metamodel::BoolificationProtocol</title>
<path fill="none" stroke="#6666ff" d="M890.03,-1088.37C984.55,-1092.57 1122.4,-1098.69 1228.74,-1103.41"/>
<polygon fill="#6666ff" stroke="#6666ff" points="1228.78,-1106.91 1238.93,-1103.86 1229.09,-1099.92 1228.78,-1106.91"/>
</g>
<!-- Metamodel::ClassHOW&#45;&gt;Metamodel::Mixins -->
<g id="edge33" class="edge">
<title>Metamodel::ClassHOW&#45;&gt;Metamodel::Mixins</title>
<path fill="none" stroke="#6666ff" d="M813.81,-1100.91C879.69,-1135.65 1027.54,-1213.63 1099.91,-1251.8"/>
<polygon fill="#6666ff" stroke="#6666ff" points="1098.71,-1255.12 1109.18,-1256.69 1101.97,-1248.93 1098.71,-1255.12"/>
</g>
<!-- Metamodel::ClassHOW&#45;&gt;Metamodel::Documenting -->
<g id="edge17" class="edge">
<title>Metamodel::ClassHOW&#45;&gt;Metamodel::Documenting</title>
<path fill="none" stroke="#6666ff" d="M792.4,-1065.38C839.35,-991.54 1013.56,-717.57 1013.56,-717.57 1013.56,-717.57 1033.64,-608.6 1043.41,-555.52"/>
<polygon fill="#6666ff" stroke="#6666ff" points="1046.91,-555.87 1045.28,-545.4 1040.02,-554.6 1046.91,-555.87"/>
</g>
<!-- Metamodel::ClassHOW&#45;&gt;Metamodel::Versioning -->
<g id="edge18" class="edge">
<title>Metamodel::ClassHOW&#45;&gt;Metamodel::Versioning</title>
<path fill="none" stroke="#6666ff" d="M803.15,-1101.42C889.65,-1170.85 1203.16,-1422.51 1302.03,-1501.88"/>
<polygon fill="#6666ff" stroke="#6666ff" points="1299.86,-1504.63 1309.85,-1508.16 1304.24,-1499.17 1299.86,-1504.63"/>
</g>
<!-- Metamodel::ClassHOW&#45;&gt;Metamodel::Finalization -->
<g id="edge21" class="edge">
<title>Metamodel::ClassHOW&#45;&gt;Metamodel::Finalization</title>
<path fill="none" stroke="#6666ff" d="M774.44,-1101.79C753.67,-1160.9 689.62,-1343.22 689.62,-1343.22 689.62,-1343.22 610.64,-1590.25 583.58,-1674.88"/>
<polygon fill="#6666ff" stroke="#6666ff" points="580.18,-1674 580.47,-1684.59 586.85,-1676.13 580.18,-1674"/>
</g>
<!-- Metamodel::ClassHOW&#45;&gt;Metamodel::PrivateMethodContainer -->
<g id="edge23" class="edge">
<title>Metamodel::ClassHOW&#45;&gt;Metamodel::PrivateMethodContainer</title>
<path fill="none" stroke="#6666ff" d="M766.75,-1101.5C707.13,-1177.51 475.56,-1472.73 405.12,-1562.53"/>
<polygon fill="#6666ff" stroke="#6666ff" points="402.24,-1560.54 398.82,-1570.57 407.75,-1564.86 402.24,-1560.54"/>
</g>
<!-- Metamodel::ClassHOW&#45;&gt;Metamodel::MultipleInheritance -->
<g id="edge26" class="edge">
<title>Metamodel::ClassHOW&#45;&gt;Metamodel::MultipleInheritance</title>
<path fill="none" stroke="#6666ff" d="M788.92,-1101.79C815.04,-1160.92 895.6,-1343.28 895.6,-1343.28 895.6,-1343.28 865.7,-1625.34 856.01,-1716.73"/>
<polygon fill="#6666ff" stroke="#6666ff" points="852.5,-1716.58 854.93,-1726.9 859.46,-1717.32 852.5,-1716.58"/>
</g>
<!-- Metamodel::ClassHOW&#45;&gt;Metamodel::DefaultParent -->
<g id="edge27" class="edge">
<title>Metamodel::ClassHOW&#45;&gt;Metamodel::DefaultParent</title>
<path fill="none" stroke="#6666ff" d="M751.44,-1100.95C657.31,-1156.72 363.5,-1330.78 257.55,-1393.54"/>
<polygon fill="#6666ff" stroke="#6666ff" points="255.59,-1390.63 248.77,-1398.74 259.16,-1396.66 255.59,-1390.63"/>
</g>
<!-- Metamodel::ClassHOW&#45;&gt;Metamodel::C3MRO -->
<g id="edge28" class="edge">
<title>Metamodel::ClassHOW&#45;&gt;Metamodel::C3MRO</title>
<path fill="none" stroke="#6666ff" d="M689.75,-1094.3C560.42,-1109.59 324.82,-1137.46 193.99,-1152.93"/>
<polygon fill="#6666ff" stroke="#6666ff" points="193.5,-1149.46 183.98,-1154.11 194.32,-1156.42 193.5,-1149.46"/>
</g>
<!-- Metamodel::ClassHOW&#45;&gt;Metamodel::Trusting -->
<g id="edge31" class="edge">
<title>Metamodel::ClassHOW&#45;&gt;Metamodel::Trusting</title>
<path fill="none" stroke="#6666ff" d="M790,-1101.59C833.57,-1187.66 1020.19,-1556.29 1072.63,-1659.87"/>
<polygon fill="#6666ff" stroke="#6666ff" points="1069.63,-1661.71 1077.27,-1669.05 1075.88,-1658.55 1069.63,-1661.71"/>
</g>
</g>
</svg>
