<?xml version="1.0" encoding="UTF-8" standalone="no"?>
<!DOCTYPE svg PUBLIC "-//W3C//DTD SVG 1.1//EN"
 "http://www.w3.org/Graphics/SVG/1.1/DTD/svg11.dtd">
<!-- Generated by graphviz version 2.42.3 (0)
 -->
<!-- Title: perl6&#45;type&#45;graph Pages: 1 -->
<svg width="326pt" height="332pt"
 viewBox="0.00 0.00 326.47 332.00" xmlns="http://www.w3.org/2000/svg" xmlns:xlink="http://www.w3.org/1999/xlink">
<g id="graph0" class="graph" transform="scale(1 1) rotate(0) translate(4 328)">
<title>perl6&#45;type&#45;graph</title>
<polygon fill="white" stroke="transparent" points="-4,4 -4,-328 322.47,-328 322.47,4 -4,4"/>
<!-- X::PseudoPackage::InDeclaration -->
<g id="node1" class="node">
<title>X::PseudoPackage::InDeclaration</title>
<g id="a_node1"><a xlink:href="/type/X::PseudoPackage::InDeclaration" xlink:title="X::PseudoPackage::InDeclaration">
<ellipse fill="none" stroke="#000000" cx="159.24" cy="-18" rx="159.47" ry="18"/>
<text text-anchor="middle" x="159.24" y="-14.3" font-family="FreeSans" font-size="14.00" fill="#000000">X::PseudoPackage::InDeclaration</text>
</a>
</g>
</g>
<!-- Exception -->
<g id="node4" class="node">
<title>Exception</title>
<g id="a_node4"><a xlink:href="/type/Exception" xlink:title="Exception">
<ellipse fill="none" stroke="#000000" cx="159.24" cy="-162" rx="55.49" ry="18"/>
<text text-anchor="middle" x="159.24" y="-158.3" font-family="FreeSans" font-size="14.00" fill="#000000">Exception</text>
</a>
</g>
</g>
<!-- X::PseudoPackage::InDeclaration&#45;&gt;Exception -->
<g id="edge1" class="edge">
<title>X::PseudoPackage::InDeclaration&#45;&gt;Exception</title>
<path fill="none" stroke="#000000" d="M153.12,-36.06C147.57,-51.55 140.24,-72 140.24,-72 140.24,-72 140.24,-108 140.24,-108 140.24,-108 144.98,-121.24 149.73,-134.48"/>
<polygon fill="#000000" stroke="#000000" points="146.45,-135.71 153.12,-143.94 153.04,-133.34 146.45,-135.71"/>
</g>
<!-- X::Comp -->
<g id="node5" class="node">
<title>X::Comp</title>
<g id="a_node5"><a xlink:href="/type/X::Comp" xlink:title="X::Comp">
<ellipse fill="none" stroke="#6666ff" cx="198.24" cy="-90" rx="49.29" ry="18"/>
<text text-anchor="middle" x="198.24" y="-86.3" font-family="FreeSans" font-size="14.00" fill="#6666ff">X::Comp</text>
</a>
</g>
</g>
<!-- X::PseudoPackage::InDeclaration&#45;&gt;X::Comp -->
<g id="edge5" class="edge">
<title>X::PseudoPackage::InDeclaration&#45;&gt;X::Comp</title>
<path fill="none" stroke="#6666ff" d="M168.88,-36.3C173.36,-44.36 178.79,-54.11 183.76,-63.02"/>
<polygon fill="#6666ff" stroke="#6666ff" points="180.78,-64.86 188.71,-71.9 186.9,-61.46 180.78,-64.86"/>
</g>
<!-- Mu -->
<g id="node2" class="node">
<title>Mu</title>
<g id="a_node2"><a xlink:href="/type/Mu" xlink:title="Mu">
<ellipse fill="none" stroke="#000000" cx="159.24" cy="-306" rx="27" ry="18"/>
<text text-anchor="middle" x="159.24" y="-302.3" font-family="FreeSans" font-size="14.00" fill="#000000">Mu</text>
</a>
</g>
</g>
<!-- Any -->
<g id="node3" class="node">
<title>Any</title>
<g id="a_node3"><a xlink:href="/type/Any" xlink:title="Any">
<ellipse fill="none" stroke="#000000" cx="159.24" cy="-234" rx="28.7" ry="18"/>
<text text-anchor="middle" x="159.24" y="-230.3" font-family="FreeSans" font-size="14.00" fill="#000000">Any</text>
</a>
</g>
</g>
<!-- Any&#45;&gt;Mu -->
<g id="edge2" class="edge">
<title>Any&#45;&gt;Mu</title>
<path fill="none" stroke="#000000" d="M159.24,-252.3C159.24,-260.02 159.24,-269.29 159.24,-277.89"/>
<polygon fill="#000000" stroke="#000000" points="155.74,-277.9 159.24,-287.9 162.74,-277.9 155.74,-277.9"/>
</g>
<!-- Exception&#45;&gt;Any -->
<g id="edge3" class="edge">
<title>Exception&#45;&gt;Any</title>
<path fill="none" stroke="#000000" d="M159.24,-180.3C159.24,-188.02 159.24,-197.29 159.24,-205.89"/>
<polygon fill="#000000" stroke="#000000" points="155.74,-205.9 159.24,-215.9 162.74,-205.9 155.74,-205.9"/>
</g>
<!-- X::Comp&#45;&gt;Exception -->
<g id="edge4" class="edge">
<title>X::Comp&#45;&gt;Exception</title>
<path fill="none" stroke="#000000" d="M188.8,-107.95C184.2,-116.2 178.57,-126.3 173.46,-135.46"/>
<polygon fill="#000000" stroke="#000000" points="170.4,-133.77 168.59,-144.21 176.51,-137.18 170.4,-133.77"/>
</g>
</g>
</svg>
