<?xml version="1.0" encoding="UTF-8" standalone="no"?>
<!DOCTYPE svg PUBLIC "-//W3C//DTD SVG 1.1//EN"
 "http://www.w3.org/Graphics/SVG/1.1/DTD/svg11.dtd">
<!-- Generated by graphviz version 2.42.3 (0)
 -->
<!-- Title: perl6&#45;type&#45;graph Pages: 1 -->
<svg width="622pt" height="652pt"
 viewBox="0.00 0.00 621.53 652.46" xmlns="http://www.w3.org/2000/svg" xmlns:xlink="http://www.w3.org/1999/xlink">
<g id="graph0" class="graph" transform="scale(1 1) rotate(0) translate(4 648.46)">
<title>perl6&#45;type&#45;graph</title>
<polygon fill="white" stroke="transparent" points="-4,4 -4,-648.46 617.53,-648.46 617.53,4 -4,4"/>
<!-- Metamodel::CurriedRoleHOW -->
<g id="node1" class="node">
<title>Metamodel::CurriedRoleHOW</title>
<g id="a_node1"><a xlink:href="/type/Metamodel::CurriedRoleHOW" xlink:title="Metamodel::CurriedRoleHOW">
<ellipse fill="none" stroke="#000000" cx="353.63" cy="-433.23" rx="142.17" ry="18"/>
<text text-anchor="middle" x="353.63" y="-429.53" font-family="FreeSans" font-size="14.00" fill="#000000">Metamodel::CurriedRoleHOW</text>
</a>
</g>
</g>
<!-- Any -->
<g id="node3" class="node">
<title>Any</title>
<g id="a_node3"><a xlink:href="/type/Any" xlink:title="Any">
<ellipse fill="none" stroke="#000000" cx="440.28" cy="-217.99" rx="28.7" ry="18"/>
<text text-anchor="middle" x="440.28" y="-214.29" font-family="FreeSans" font-size="14.00" fill="#000000">Any</text>
</a>
</g>
</g>
<!-- Metamodel::CurriedRoleHOW&#45;&gt;Any -->
<g id="edge1" class="edge">
<title>Metamodel::CurriedRoleHOW&#45;&gt;Any</title>
<path fill="none" stroke="#000000" d="M360.87,-415.25C376.11,-377.39 411.57,-289.31 429.49,-244.79"/>
<polygon fill="#000000" stroke="#000000" points="432.75,-246.05 433.24,-235.47 426.26,-243.44 432.75,-246.05"/>
</g>
<!-- Metamodel::RolePunning -->
<g id="node4" class="node">
<title>Metamodel::RolePunning</title>
<g id="a_node4"><a xlink:href="/type/Metamodel::RolePunning" xlink:title="Metamodel::RolePunning">
<ellipse fill="none" stroke="#6666ff" cx="122.84" cy="-477.23" rx="122.68" ry="18"/>
<text text-anchor="middle" x="122.84" y="-473.53" font-family="FreeSans" font-size="14.00" fill="#6666ff">Metamodel::RolePunning</text>
</a>
</g>
</g>
<!-- Metamodel::CurriedRoleHOW&#45;&gt;Metamodel::RolePunning -->
<g id="edge3" class="edge">
<title>Metamodel::CurriedRoleHOW&#45;&gt;Metamodel::RolePunning</title>
<path fill="none" stroke="#6666ff" d="M274.85,-448.25C253.22,-452.37 229.68,-456.86 207.72,-461.05"/>
<polygon fill="#6666ff" stroke="#6666ff" points="206.93,-457.64 197.76,-462.95 208.24,-464.51 206.93,-457.64"/>
</g>
<!-- Metamodel::TypePretense -->
<g id="node5" class="node">
<title>Metamodel::TypePretense</title>
<g id="a_node5"><a xlink:href="/type/Metamodel::TypePretense" xlink:title="Metamodel::TypePretense">
<ellipse fill="none" stroke="#6666ff" cx="487.44" cy="-626.46" rx="126.18" ry="18"/>
<text text-anchor="middle" x="487.44" y="-622.76" font-family="FreeSans" font-size="14.00" fill="#6666ff">Metamodel::TypePretense</text>
</a>
</g>
</g>
<!-- Metamodel::CurriedRoleHOW&#45;&gt;Metamodel::TypePretense -->
<g id="edge4" class="edge">
<title>Metamodel::CurriedRoleHOW&#45;&gt;Metamodel::TypePretense</title>
<path fill="none" stroke="#6666ff" d="M366.22,-451.41C389.99,-485.73 441.56,-560.21 469.16,-600.05"/>
<polygon fill="#6666ff" stroke="#6666ff" points="466.41,-602.24 474.98,-608.47 472.17,-598.25 466.41,-602.24"/>
</g>
<!-- Mu -->
<g id="node2" class="node">
<title>Mu</title>
<g id="a_node2"><a xlink:href="/type/Mu" xlink:title="Mu">
<ellipse fill="none" stroke="#000000" cx="534.97" cy="-18" rx="27" ry="18"/>
<text text-anchor="middle" x="534.97" y="-14.3" font-family="FreeSans" font-size="14.00" fill="#000000">Mu</text>
</a>
</g>
</g>
<!-- Any&#45;&gt;Mu -->
<g id="edge2" class="edge">
<title>Any&#45;&gt;Mu</title>
<path fill="none" stroke="#000000" d="M448.51,-200.6C465.14,-165.49 502.77,-86 522.45,-44.44"/>
<polygon fill="#000000" stroke="#000000" points="525.7,-45.75 526.82,-35.22 519.38,-42.76 525.7,-45.75"/>
</g>
</g>
</svg>
