<?xml version="1.0" encoding="UTF-8" standalone="no"?>
<!DOCTYPE svg PUBLIC "-//W3C//DTD SVG 1.1//EN"
 "http://www.w3.org/Graphics/SVG/1.1/DTD/svg11.dtd">
<!-- Generated by graphviz version 2.42.3 (0)
 -->
<!-- Title: perl6&#45;type&#45;graph Pages: 1 -->
<svg width="198pt" height="188pt"
 viewBox="0.00 0.00 197.79 188.00" xmlns="http://www.w3.org/2000/svg" xmlns:xlink="http://www.w3.org/1999/xlink">
<g id="graph0" class="graph" transform="scale(1 1) rotate(0) translate(4 184)">
<title>perl6&#45;type&#45;graph</title>
<polygon fill="white" stroke="transparent" points="-4,4 -4,-184 193.79,-184 193.79,4 -4,4"/>
<!-- Dateish -->
<g id="node1" class="node">
<title>Dateish</title>
<g id="a_node1"><a xlink:href="/type/Dateish" xlink:title="Dateish">
<ellipse fill="none" stroke="#6666ff" cx="59.95" cy="-90" rx="44.69" ry="18"/>
<text text-anchor="middle" x="59.95" y="-86.3" font-family="FreeSans" font-size="14.00" fill="#6666ff">Dateish</text>
</a>
</g>
</g>
<!-- Mu -->
<g id="node2" class="node">
<title>Mu</title>
<g id="a_node2"><a xlink:href="/type/Mu" xlink:title="Mu">
<ellipse fill="none" stroke="#000000" cx="153.95" cy="-162" rx="27" ry="18"/>
<text text-anchor="middle" x="153.95" y="-158.3" font-family="FreeSans" font-size="14.00" fill="#000000">Mu</text>
</a>
</g>
</g>
<!-- Any -->
<g id="node3" class="node">
<title>Any</title>
<g id="a_node3"><a xlink:href="/type/Any" xlink:title="Any">
<ellipse fill="none" stroke="#000000" cx="153.95" cy="-90" rx="28.7" ry="18"/>
<text text-anchor="middle" x="153.95" y="-86.3" font-family="FreeSans" font-size="14.00" fill="#000000">Any</text>
</a>
</g>
</g>
<!-- Any&#45;&gt;Mu -->
<g id="edge1" class="edge">
<title>Any&#45;&gt;Mu</title>
<path fill="none" stroke="#000000" d="M153.95,-108.3C153.95,-116.02 153.95,-125.29 153.95,-133.89"/>
<polygon fill="#000000" stroke="#000000" points="150.45,-133.9 153.95,-143.9 157.45,-133.9 150.45,-133.9"/>
</g>
<!-- DateTime -->
<g id="node4" class="node">
<title>DateTime</title>
<g id="a_node4"><a xlink:href="/type/DateTime" xlink:title="DateTime">
<ellipse fill="none" stroke="#000000" cx="53.95" cy="-18" rx="53.89" ry="18"/>
<text text-anchor="middle" x="53.95" y="-14.3" font-family="FreeSans" font-size="14.00" fill="#000000">DateTime</text>
</a>
</g>
</g>
<!-- DateTime&#45;&gt;Dateish -->
<g id="edge4" class="edge">
<title>DateTime&#45;&gt;Dateish</title>
<path fill="none" stroke="#6666ff" d="M55.43,-36.3C56.09,-44.02 56.88,-53.29 57.62,-61.89"/>
<polygon fill="#6666ff" stroke="#6666ff" points="54.14,-62.23 58.48,-71.9 61.11,-61.63 54.14,-62.23"/>
</g>
<!-- DateTime&#45;&gt;Any -->
<g id="edge2" class="edge">
<title>DateTime&#45;&gt;Any</title>
<path fill="none" stroke="#000000" d="M76.14,-34.54C91.19,-45.07 111.17,-59.06 127.11,-70.22"/>
<polygon fill="#000000" stroke="#000000" points="125.3,-73.22 135.5,-76.09 129.31,-67.49 125.3,-73.22"/>
</g>
<!-- Date -->
<g id="node5" class="node">
<title>Date</title>
<g id="a_node5"><a xlink:href="/type/Date" xlink:title="Date">
<ellipse fill="none" stroke="#000000" cx="157.95" cy="-18" rx="31.7" ry="18"/>
<text text-anchor="middle" x="157.95" y="-14.3" font-family="FreeSans" font-size="14.00" fill="#000000">Date</text>
</a>
</g>
</g>
<!-- Date&#45;&gt;Dateish -->
<g id="edge5" class="edge">
<title>Date&#45;&gt;Dateish</title>
<path fill="none" stroke="#6666ff" d="M139.05,-32.5C125.06,-42.49 105.74,-56.29 89.69,-67.75"/>
<polygon fill="#6666ff" stroke="#6666ff" points="87.27,-65.18 81.16,-73.84 91.34,-70.88 87.27,-65.18"/>
</g>
<!-- Date&#45;&gt;Any -->
<g id="edge3" class="edge">
<title>Date&#45;&gt;Any</title>
<path fill="none" stroke="#000000" d="M156.96,-36.3C156.52,-44.02 155.99,-53.29 155.49,-61.89"/>
<polygon fill="#000000" stroke="#000000" points="152,-61.71 154.92,-71.9 158.99,-62.11 152,-61.71"/>
</g>
</g>
</svg>
