<?xml version="1.0" encoding="UTF-8" standalone="no"?>
<!DOCTYPE svg PUBLIC "-//W3C//DTD SVG 1.1//EN"
 "http://www.w3.org/Graphics/SVG/1.1/DTD/svg11.dtd">
<!-- Generated by graphviz version 2.42.3 (0)
 -->
<!-- Title: perl6&#45;type&#45;graph Pages: 1 -->
<svg width="206pt" height="188pt"
 viewBox="0.00 0.00 206.34 188.00" xmlns="http://www.w3.org/2000/svg" xmlns:xlink="http://www.w3.org/1999/xlink">
<g id="graph0" class="graph" transform="scale(1 1) rotate(0) translate(4 184)">
<title>perl6&#45;type&#45;graph</title>
<polygon fill="white" stroke="transparent" points="-4,4 -4,-184 202.34,-184 202.34,4 -4,4"/>
<!-- Pair -->
<g id="node1" class="node">
<title>Pair</title>
<g id="a_node1"><a xlink:href="/type/Pair" xlink:title="Pair">
<ellipse fill="none" stroke="#000000" cx="82.6" cy="-18" rx="27.9" ry="18"/>
<text text-anchor="middle" x="82.6" y="-14.3" font-family="FreeSans" font-size="14.00" fill="#000000">Pair</text>
</a>
</g>
</g>
<!-- Any -->
<g id="node3" class="node">
<title>Any</title>
<g id="a_node3"><a xlink:href="/type/Any" xlink:title="Any">
<ellipse fill="none" stroke="#000000" cx="28.6" cy="-90" rx="28.7" ry="18"/>
<text text-anchor="middle" x="28.6" y="-86.3" font-family="FreeSans" font-size="14.00" fill="#000000">Any</text>
</a>
</g>
</g>
<!-- Pair&#45;&gt;Any -->
<g id="edge1" class="edge">
<title>Pair&#45;&gt;Any</title>
<path fill="none" stroke="#000000" d="M70.61,-34.54C63.62,-43.6 54.66,-55.21 46.81,-65.39"/>
<polygon fill="#000000" stroke="#000000" points="43.89,-63.45 40.55,-73.51 49.43,-67.73 43.89,-63.45"/>
</g>
<!-- Associative -->
<g id="node4" class="node">
<title>Associative</title>
<g id="a_node4"><a xlink:href="/type/Associative" xlink:title="Associative">
<ellipse fill="none" stroke="#6666ff" cx="136.6" cy="-90" rx="61.99" ry="18"/>
<text text-anchor="middle" x="136.6" y="-86.3" font-family="FreeSans" font-size="14.00" fill="#6666ff">Associative</text>
</a>
</g>
</g>
<!-- Pair&#45;&gt;Associative -->
<g id="edge3" class="edge">
<title>Pair&#45;&gt;Associative</title>
<path fill="none" stroke="#6666ff" d="M94.58,-34.54C101.28,-43.22 109.79,-54.25 117.4,-64.11"/>
<polygon fill="#6666ff" stroke="#6666ff" points="114.63,-66.26 123.51,-72.04 120.18,-61.98 114.63,-66.26"/>
</g>
<!-- Mu -->
<g id="node2" class="node">
<title>Mu</title>
<g id="a_node2"><a xlink:href="/type/Mu" xlink:title="Mu">
<ellipse fill="none" stroke="#000000" cx="28.6" cy="-162" rx="27" ry="18"/>
<text text-anchor="middle" x="28.6" y="-158.3" font-family="FreeSans" font-size="14.00" fill="#000000">Mu</text>
</a>
</g>
</g>
<!-- Any&#45;&gt;Mu -->
<g id="edge2" class="edge">
<title>Any&#45;&gt;Mu</title>
<path fill="none" stroke="#000000" d="M28.6,-108.3C28.6,-116.02 28.6,-125.29 28.6,-133.89"/>
<polygon fill="#000000" stroke="#000000" points="25.1,-133.9 28.6,-143.9 32.1,-133.9 25.1,-133.9"/>
</g>
</g>
</svg>
