<?xml version="1.0" encoding="UTF-8" standalone="no"?>
<!DOCTYPE svg PUBLIC "-//W3C//DTD SVG 1.1//EN"
 "http://www.w3.org/Graphics/SVG/1.1/DTD/svg11.dtd">
<!-- Generated by graphviz version 2.42.3 (0)
 -->
<!-- Title: perl6&#45;type&#45;graph Pages: 1 -->
<svg width="241pt" height="332pt"
 viewBox="0.00 0.00 240.68 332.00" xmlns="http://www.w3.org/2000/svg" xmlns:xlink="http://www.w3.org/1999/xlink">
<g id="graph0" class="graph" transform="scale(1 1) rotate(0) translate(4 328)">
<title>perl6&#45;type&#45;graph</title>
<polygon fill="white" stroke="transparent" points="-4,4 -4,-328 236.68,-328 236.68,4 -4,4"/>
<!-- X::Redeclaration::Outer -->
<g id="node1" class="node">
<title>X::Redeclaration::Outer</title>
<g id="a_node1"><a xlink:href="/type/X::Redeclaration::Outer" xlink:title="X::Redeclaration::Outer">
<ellipse fill="none" stroke="#000000" cx="116.34" cy="-18" rx="116.18" ry="18"/>
<text text-anchor="middle" x="116.34" y="-14.3" font-family="FreeSans" font-size="14.00" fill="#000000">X::Redeclaration::Outer</text>
</a>
</g>
</g>
<!-- Exception -->
<g id="node4" class="node">
<title>Exception</title>
<g id="a_node4"><a xlink:href="/type/Exception" xlink:title="Exception">
<ellipse fill="none" stroke="#000000" cx="116.34" cy="-162" rx="55.49" ry="18"/>
<text text-anchor="middle" x="116.34" y="-158.3" font-family="FreeSans" font-size="14.00" fill="#000000">Exception</text>
</a>
</g>
</g>
<!-- X::Redeclaration::Outer&#45;&gt;Exception -->
<g id="edge1" class="edge">
<title>X::Redeclaration::Outer&#45;&gt;Exception</title>
<path fill="none" stroke="#000000" d="M110.22,-36.06C104.67,-51.55 97.34,-72 97.34,-72 97.34,-72 97.34,-108 97.34,-108 97.34,-108 102.09,-121.24 106.83,-134.48"/>
<polygon fill="#000000" stroke="#000000" points="103.55,-135.71 110.22,-143.94 110.14,-133.34 103.55,-135.71"/>
</g>
<!-- X::Comp -->
<g id="node5" class="node">
<title>X::Comp</title>
<g id="a_node5"><a xlink:href="/type/X::Comp" xlink:title="X::Comp">
<ellipse fill="none" stroke="#6666ff" cx="155.34" cy="-90" rx="49.29" ry="18"/>
<text text-anchor="middle" x="155.34" y="-86.3" font-family="FreeSans" font-size="14.00" fill="#6666ff">X::Comp</text>
</a>
</g>
</g>
<!-- X::Redeclaration::Outer&#45;&gt;X::Comp -->
<g id="edge5" class="edge">
<title>X::Redeclaration::Outer&#45;&gt;X::Comp</title>
<path fill="none" stroke="#6666ff" d="M125.78,-35.95C130.38,-44.2 136.01,-54.3 141.11,-63.46"/>
<polygon fill="#6666ff" stroke="#6666ff" points="138.06,-65.18 145.99,-72.21 144.18,-61.77 138.06,-65.18"/>
</g>
<!-- Mu -->
<g id="node2" class="node">
<title>Mu</title>
<g id="a_node2"><a xlink:href="/type/Mu" xlink:title="Mu">
<ellipse fill="none" stroke="#000000" cx="116.34" cy="-306" rx="27" ry="18"/>
<text text-anchor="middle" x="116.34" y="-302.3" font-family="FreeSans" font-size="14.00" fill="#000000">Mu</text>
</a>
</g>
</g>
<!-- Any -->
<g id="node3" class="node">
<title>Any</title>
<g id="a_node3"><a xlink:href="/type/Any" xlink:title="Any">
<ellipse fill="none" stroke="#000000" cx="116.34" cy="-234" rx="28.7" ry="18"/>
<text text-anchor="middle" x="116.34" y="-230.3" font-family="FreeSans" font-size="14.00" fill="#000000">Any</text>
</a>
</g>
</g>
<!-- Any&#45;&gt;Mu -->
<g id="edge2" class="edge">
<title>Any&#45;&gt;Mu</title>
<path fill="none" stroke="#000000" d="M116.34,-252.3C116.34,-260.02 116.34,-269.29 116.34,-277.89"/>
<polygon fill="#000000" stroke="#000000" points="112.84,-277.9 116.34,-287.9 119.84,-277.9 112.84,-277.9"/>
</g>
<!-- Exception&#45;&gt;Any -->
<g id="edge3" class="edge">
<title>Exception&#45;&gt;Any</title>
<path fill="none" stroke="#000000" d="M116.34,-180.3C116.34,-188.02 116.34,-197.29 116.34,-205.89"/>
<polygon fill="#000000" stroke="#000000" points="112.84,-205.9 116.34,-215.9 119.84,-205.9 112.84,-205.9"/>
</g>
<!-- X::Comp&#45;&gt;Exception -->
<g id="edge4" class="edge">
<title>X::Comp&#45;&gt;Exception</title>
<path fill="none" stroke="#000000" d="M145.9,-107.95C141.3,-116.2 135.67,-126.3 130.57,-135.46"/>
<polygon fill="#000000" stroke="#000000" points="127.5,-133.77 125.69,-144.21 133.62,-137.18 127.5,-133.77"/>
</g>
</g>
</svg>
