<?xml version="1.0" encoding="UTF-8" standalone="no"?>
<!DOCTYPE svg PUBLIC "-//W3C//DTD SVG 1.1//EN"
 "http://www.w3.org/Graphics/SVG/1.1/DTD/svg11.dtd">
<!-- Generated by graphviz version 2.42.3 (0)
 -->
<!-- Title: perl6&#45;type&#45;graph Pages: 1 -->
<svg width="345pt" height="404pt"
 viewBox="0.00 0.00 345.18 404.00" xmlns="http://www.w3.org/2000/svg" xmlns:xlink="http://www.w3.org/1999/xlink">
<g id="graph0" class="graph" transform="scale(1 1) rotate(0) translate(4 400)">
<title>perl6&#45;type&#45;graph</title>
<polygon fill="white" stroke="transparent" points="-4,4 -4,-400 341.18,-400 341.18,4 -4,4"/>
<!-- X::Syntax::Term::MissingInitializer -->
<g id="node1" class="node">
<title>X::Syntax::Term::MissingInitializer</title>
<g id="a_node1"><a xlink:href="/type/X::Syntax::Term::MissingInitializer" xlink:title="X::Syntax::Term::MissingInitializer">
<ellipse fill="none" stroke="#000000" cx="163.79" cy="-18" rx="163.57" ry="18"/>
<text text-anchor="middle" x="163.79" y="-14.3" font-family="FreeSans" font-size="14.00" fill="#000000">X::Syntax::Term::MissingInitializer</text>
</a>
</g>
</g>
<!-- Exception -->
<g id="node4" class="node">
<title>Exception</title>
<g id="a_node4"><a xlink:href="/type/Exception" xlink:title="Exception">
<ellipse fill="none" stroke="#000000" cx="186.79" cy="-234" rx="55.49" ry="18"/>
<text text-anchor="middle" x="186.79" y="-230.3" font-family="FreeSans" font-size="14.00" fill="#000000">Exception</text>
</a>
</g>
</g>
<!-- X::Syntax::Term::MissingInitializer&#45;&gt;Exception -->
<g id="edge1" class="edge">
<title>X::Syntax::Term::MissingInitializer&#45;&gt;Exception</title>
<path fill="none" stroke="#000000" d="M161.75,-36.15C162.2,-73.34 171.43,-161.63 179.26,-206.23"/>
<polygon fill="#000000" stroke="#000000" points="175.82,-206.88 181.11,-216.06 182.7,-205.59 175.82,-206.88"/>
</g>
<!-- X::Syntax::Term::MissingInitializer&#45;&gt;Exception -->
<g id="edge2" class="edge">
<title>X::Syntax::Term::MissingInitializer&#45;&gt;Exception</title>
<path fill="none" stroke="#000000" d="M169.51,-36.15C177.02,-73.17 186.71,-160.82 188.53,-205.61"/>
<polygon fill="#000000" stroke="#000000" points="185.04,-205.87 188.82,-215.77 192.04,-205.67 185.04,-205.87"/>
</g>
<!-- X::Syntax -->
<g id="node6" class="node">
<title>X::Syntax</title>
<g id="a_node6"><a xlink:href="/type/X::Syntax" xlink:title="X::Syntax">
<ellipse fill="none" stroke="#6666ff" cx="254.79" cy="-90" rx="53.89" ry="18"/>
<text text-anchor="middle" x="254.79" y="-86.3" font-family="FreeSans" font-size="14.00" fill="#6666ff">X::Syntax</text>
</a>
</g>
</g>
<!-- X::Syntax::Term::MissingInitializer&#45;&gt;X::Syntax -->
<g id="edge7" class="edge">
<title>X::Syntax::Term::MissingInitializer&#45;&gt;X::Syntax</title>
<path fill="none" stroke="#6666ff" d="M185.81,-35.95C197.9,-45.24 213.02,-56.87 226.02,-66.87"/>
<polygon fill="#6666ff" stroke="#6666ff" points="224.15,-69.85 234.21,-73.17 228.41,-64.3 224.15,-69.85"/>
</g>
<!-- Mu -->
<g id="node2" class="node">
<title>Mu</title>
<g id="a_node2"><a xlink:href="/type/Mu" xlink:title="Mu">
<ellipse fill="none" stroke="#000000" cx="186.79" cy="-378" rx="27" ry="18"/>
<text text-anchor="middle" x="186.79" y="-374.3" font-family="FreeSans" font-size="14.00" fill="#000000">Mu</text>
</a>
</g>
</g>
<!-- Any -->
<g id="node3" class="node">
<title>Any</title>
<g id="a_node3"><a xlink:href="/type/Any" xlink:title="Any">
<ellipse fill="none" stroke="#000000" cx="186.79" cy="-306" rx="28.7" ry="18"/>
<text text-anchor="middle" x="186.79" y="-302.3" font-family="FreeSans" font-size="14.00" fill="#000000">Any</text>
</a>
</g>
</g>
<!-- Any&#45;&gt;Mu -->
<g id="edge3" class="edge">
<title>Any&#45;&gt;Mu</title>
<path fill="none" stroke="#000000" d="M186.79,-324.3C186.79,-332.02 186.79,-341.29 186.79,-349.89"/>
<polygon fill="#000000" stroke="#000000" points="183.29,-349.9 186.79,-359.9 190.29,-349.9 183.29,-349.9"/>
</g>
<!-- Exception&#45;&gt;Any -->
<g id="edge4" class="edge">
<title>Exception&#45;&gt;Any</title>
<path fill="none" stroke="#000000" d="M186.79,-252.3C186.79,-260.02 186.79,-269.29 186.79,-277.89"/>
<polygon fill="#000000" stroke="#000000" points="183.29,-277.9 186.79,-287.9 190.29,-277.9 183.29,-277.9"/>
</g>
<!-- X::Comp -->
<g id="node5" class="node">
<title>X::Comp</title>
<g id="a_node5"><a xlink:href="/type/X::Comp" xlink:title="X::Comp">
<ellipse fill="none" stroke="#6666ff" cx="287.79" cy="-162" rx="49.29" ry="18"/>
<text text-anchor="middle" x="287.79" y="-158.3" font-family="FreeSans" font-size="14.00" fill="#6666ff">X::Comp</text>
</a>
</g>
</g>
<!-- X::Comp&#45;&gt;Exception -->
<g id="edge5" class="edge">
<title>X::Comp&#45;&gt;Exception</title>
<path fill="none" stroke="#000000" d="M265.87,-178.19C251.77,-187.96 233.24,-200.8 217.66,-211.6"/>
<polygon fill="#000000" stroke="#000000" points="215.58,-208.78 209.36,-217.36 219.57,-214.54 215.58,-208.78"/>
</g>
<!-- X::Syntax&#45;&gt;Exception -->
<g id="edge6" class="edge">
<title>X::Syntax&#45;&gt;Exception</title>
<path fill="none" stroke="#000000" d="M246.72,-107.85C234.96,-132.4 213.01,-178.23 199.19,-207.09"/>
<polygon fill="#000000" stroke="#000000" points="196,-205.64 194.84,-216.18 202.32,-208.67 196,-205.64"/>
</g>
<!-- X::Syntax&#45;&gt;X::Comp -->
<g id="edge8" class="edge">
<title>X::Syntax&#45;&gt;X::Comp</title>
<path fill="none" stroke="#6666ff" d="M262.77,-107.95C266.58,-116.03 271.23,-125.88 275.48,-134.89"/>
<polygon fill="#6666ff" stroke="#6666ff" points="272.44,-136.66 279.87,-144.21 278.77,-133.67 272.44,-136.66"/>
</g>
</g>
</svg>
