<?xml version="1.0" encoding="UTF-8" standalone="no"?>
<!DOCTYPE svg PUBLIC "-//W3C//DTD SVG 1.1//EN"
 "http://www.w3.org/Graphics/SVG/1.1/DTD/svg11.dtd">
<!-- Generated by graphviz version 2.42.3 (0)
 -->
<!-- Title: perl6&#45;type&#45;graph Pages: 1 -->
<svg width="2021pt" height="1752pt"
 viewBox="0.00 0.00 2021.41 1752.23" xmlns="http://www.w3.org/2000/svg" xmlns:xlink="http://www.w3.org/1999/xlink">
<g id="graph0" class="graph" transform="scale(1 1) rotate(0) translate(4 1748.23)">
<title>perl6&#45;type&#45;graph</title>
<polygon fill="white" stroke="transparent" points="-4,4 -4,-1748.23 2017.41,-1748.23 2017.41,4 -4,4"/>
<!-- Metamodel::MultipleInheritance -->
<g id="node1" class="node">
<title>Metamodel::MultipleInheritance</title>
<g id="a_node1"><a xlink:href="/type/Metamodel::MultipleInheritance" xlink:title="Metamodel::MultipleInheritance">
<ellipse fill="none" stroke="#6666ff" cx="987.54" cy="-935.14" rx="153.27" ry="18"/>
<text text-anchor="middle" x="987.54" y="-931.44" font-family="FreeSans" font-size="14.00" fill="#6666ff">Metamodel::MultipleInheritance</text>
</a>
</g>
</g>
<!-- Mu -->
<g id="node2" class="node">
<title>Mu</title>
<g id="a_node2"><a xlink:href="/type/Mu" xlink:title="Mu">
<ellipse fill="none" stroke="#000000" cx="600.93" cy="-18" rx="27" ry="18"/>
<text text-anchor="middle" x="600.93" y="-14.3" font-family="FreeSans" font-size="14.00" fill="#000000">Mu</text>
</a>
</g>
</g>
<!-- Any -->
<g id="node3" class="node">
<title>Any</title>
<g id="a_node3"><a xlink:href="/type/Any" xlink:title="Any">
<ellipse fill="none" stroke="#000000" cx="713.84" cy="-583.61" rx="28.7" ry="18"/>
<text text-anchor="middle" x="713.84" y="-579.91" font-family="FreeSans" font-size="14.00" fill="#000000">Any</text>
</a>
</g>
</g>
<!-- Any&#45;&gt;Mu -->
<g id="edge1" class="edge">
<title>Any&#45;&gt;Mu</title>
<path fill="none" stroke="#000000" d="M704.55,-566.54C693.19,-545.66 675.47,-513.07 675.47,-513.07 675.47,-513.07 620.92,-150.76 605.15,-46.04"/>
<polygon fill="#000000" stroke="#000000" points="608.58,-45.28 603.63,-35.91 601.66,-46.32 608.58,-45.28"/>
</g>
<!-- Metamodel::Naming -->
<g id="node4" class="node">
<title>Metamodel::Naming</title>
<g id="a_node4"><a xlink:href="/type/Metamodel::Naming" xlink:title="Metamodel::Naming">
<ellipse fill="none" stroke="#6666ff" cx="1140.74" cy="-1235.11" rx="101.28" ry="18"/>
<text text-anchor="middle" x="1140.74" y="-1231.41" font-family="FreeSans" font-size="14.00" fill="#6666ff">Metamodel::Naming</text>
</a>
</g>
</g>
<!-- Metamodel::Documenting -->
<g id="node5" class="node">
<title>Metamodel::Documenting</title>
<g id="a_node5"><a xlink:href="/type/Metamodel::Documenting" xlink:title="Metamodel::Documenting">
<ellipse fill="none" stroke="#6666ff" cx="1063.71" cy="-1419.05" rx="126.98" ry="18"/>
<text text-anchor="middle" x="1063.71" y="-1415.35" font-family="FreeSans" font-size="14.00" fill="#6666ff">Metamodel::Documenting</text>
</a>
</g>
</g>
<!-- Metamodel::Versioning -->
<g id="node6" class="node">
<title>Metamodel::Versioning</title>
<g id="a_node6"><a xlink:href="/type/Metamodel::Versioning" xlink:title="Metamodel::Versioning">
<ellipse fill="none" stroke="#6666ff" cx="1099.41" cy="-1095.49" rx="114.28" ry="18"/>
<text text-anchor="middle" x="1099.41" y="-1091.79" font-family="FreeSans" font-size="14.00" fill="#6666ff">Metamodel::Versioning</text>
</a>
</g>
</g>
<!-- Metamodel::MethodContainer -->
<g id="node7" class="node">
<title>Metamodel::MethodContainer</title>
<g id="a_node7"><a xlink:href="/type/Metamodel::MethodContainer" xlink:title="Metamodel::MethodContainer">
<ellipse fill="none" stroke="#6666ff" cx="820.7" cy="-513.17" rx="143.77" ry="18"/>
<text text-anchor="middle" x="820.7" y="-509.47" font-family="FreeSans" font-size="14.00" fill="#6666ff">Metamodel::MethodContainer</text>
</a>
</g>
</g>
<!-- Metamodel::PrivateMethodContainer -->
<g id="node8" class="node">
<title>Metamodel::PrivateMethodContainer</title>
<g id="a_node8"><a xlink:href="/type/Metamodel::PrivateMethodContainer" xlink:title="Metamodel::PrivateMethodContainer">
<ellipse fill="none" stroke="#6666ff" cx="1352.88" cy="-1288.36" rx="174.67" ry="18"/>
<text text-anchor="middle" x="1352.88" y="-1284.66" font-family="FreeSans" font-size="14.00" fill="#6666ff">Metamodel::PrivateMethodContainer</text>
</a>
</g>
</g>
<!-- Metamodel::MultiMethodContainer -->
<g id="node9" class="node">
<title>Metamodel::MultiMethodContainer</title>
<g id="a_node9"><a xlink:href="/type/Metamodel::MultiMethodContainer" xlink:title="Metamodel::MultiMethodContainer">
<ellipse fill="none" stroke="#6666ff" cx="1138.32" cy="-519.96" rx="165.97" ry="18"/>
<text text-anchor="middle" x="1138.32" y="-516.26" font-family="FreeSans" font-size="14.00" fill="#6666ff">Metamodel::MultiMethodContainer</text>
</a>
</g>
</g>
<!-- Metamodel::AttributeContainer -->
<g id="node10" class="node">
<title>Metamodel::AttributeContainer</title>
<g id="a_node10"><a xlink:href="/type/Metamodel::AttributeContainer" xlink:title="Metamodel::AttributeContainer">
<ellipse fill="none" stroke="#6666ff" cx="1397.84" cy="-1145.59" rx="150.27" ry="18"/>
<text text-anchor="middle" x="1397.84" y="-1141.89" font-family="FreeSans" font-size="14.00" fill="#6666ff">Metamodel::AttributeContainer</text>
</a>
</g>
</g>
<!-- Metamodel::RoleContainer -->
<g id="node11" class="node">
<title>Metamodel::RoleContainer</title>
<g id="a_node11"><a xlink:href="/type/Metamodel::RoleContainer" xlink:title="Metamodel::RoleContainer">
<ellipse fill="none" stroke="#6666ff" cx="993.53" cy="-723.25" rx="129.98" ry="18"/>
<text text-anchor="middle" x="993.53" y="-719.55" font-family="FreeSans" font-size="14.00" fill="#6666ff">Metamodel::RoleContainer</text>
</a>
</g>
</g>
<!-- Metamodel::Stashing -->
<g id="node12" class="node">
<title>Metamodel::Stashing</title>
<g id="a_node12"><a xlink:href="/type/Metamodel::Stashing" xlink:title="Metamodel::Stashing">
<ellipse fill="none" stroke="#6666ff" cx="632.29" cy="-738.69" rx="105.88" ry="18"/>
<text text-anchor="middle" x="632.29" y="-734.99" font-family="FreeSans" font-size="14.00" fill="#6666ff">Metamodel::Stashing</text>
</a>
</g>
</g>
<!-- Metamodel::TypePretense -->
<g id="node13" class="node">
<title>Metamodel::TypePretense</title>
<g id="a_node13"><a xlink:href="/type/Metamodel::TypePretense" xlink:title="Metamodel::TypePretense">
<ellipse fill="none" stroke="#6666ff" cx="1710.18" cy="-349.75" rx="126.18" ry="18"/>
<text text-anchor="middle" x="1710.18" y="-346.05" font-family="FreeSans" font-size="14.00" fill="#6666ff">Metamodel::TypePretense</text>
</a>
</g>
</g>
<!-- Metamodel::RolePunning -->
<g id="node14" class="node">
<title>Metamodel::RolePunning</title>
<g id="a_node14"><a xlink:href="/type/Metamodel::RolePunning" xlink:title="Metamodel::RolePunning">
<ellipse fill="none" stroke="#6666ff" cx="1890.57" cy="-762.38" rx="122.68" ry="18"/>
<text text-anchor="middle" x="1890.57" y="-758.68" font-family="FreeSans" font-size="14.00" fill="#6666ff">Metamodel::RolePunning</text>
</a>
</g>
</g>
<!-- Metamodel::ParametricRoleHOW -->
<g id="node15" class="node">
<title>Metamodel::ParametricRoleHOW</title>
<g id="a_node15"><a xlink:href="/type/Metamodel::ParametricRoleHOW" xlink:title="Metamodel::ParametricRoleHOW">
<ellipse fill="none" stroke="#000000" cx="1332.22" cy="-793.72" rx="157.07" ry="18"/>
<text text-anchor="middle" x="1332.22" y="-790.02" font-family="FreeSans" font-size="14.00" fill="#000000">Metamodel::ParametricRoleHOW</text>
</a>
</g>
</g>
<!-- Metamodel::ParametricRoleHOW&#45;&gt;Metamodel::MultipleInheritance -->
<g id="edge14" class="edge">
<title>Metamodel::ParametricRoleHOW&#45;&gt;Metamodel::MultipleInheritance</title>
<path fill="none" stroke="#6666ff" d="M1289.96,-811.06C1226.69,-837.02 1107.51,-885.92 1039.17,-913.95"/>
<polygon fill="#6666ff" stroke="#6666ff" points="1037.8,-910.73 1029.88,-917.76 1040.46,-917.21 1037.8,-910.73"/>
</g>
<!-- Metamodel::ParametricRoleHOW&#45;&gt;Any -->
<g id="edge2" class="edge">
<title>Metamodel::ParametricRoleHOW&#45;&gt;Any</title>
<path fill="none" stroke="#000000" d="M1282.26,-776.56C1210.49,-751.91 1086.77,-709.42 1086.77,-709.42 1086.77,-709.42 841.33,-626.62 748.68,-595.37"/>
<polygon fill="#000000" stroke="#000000" points="749.77,-592.04 739.18,-592.16 747.53,-598.67 749.77,-592.04"/>
</g>
<!-- Metamodel::ParametricRoleHOW&#45;&gt;Metamodel::Naming -->
<g id="edge6" class="edge">
<title>Metamodel::ParametricRoleHOW&#45;&gt;Metamodel::Naming</title>
<path fill="none" stroke="#6666ff" d="M1325.09,-812.14C1299.73,-877.67 1215.4,-1095.54 1215.4,-1095.54 1215.4,-1095.54 1176.76,-1167.76 1155.08,-1208.3"/>
<polygon fill="#6666ff" stroke="#6666ff" points="1151.98,-1206.68 1150.35,-1217.15 1158.15,-1209.98 1151.98,-1206.68"/>
</g>
<!-- Metamodel::ParametricRoleHOW&#45;&gt;Metamodel::Documenting -->
<g id="edge7" class="edge">
<title>Metamodel::ParametricRoleHOW&#45;&gt;Metamodel::Documenting</title>
<path fill="none" stroke="#6666ff" d="M1327.72,-812.13C1310,-884.52 1246.1,-1145.49 1246.1,-1145.49 1246.1,-1145.49 1243.73,-1235.17 1243.73,-1235.17 1243.73,-1235.17 1176.45,-1288.24 1176.45,-1288.24 1176.45,-1288.24 1118.56,-1355.41 1085.74,-1393.49"/>
<polygon fill="#6666ff" stroke="#6666ff" points="1083.03,-1391.28 1079.15,-1401.14 1088.33,-1395.85 1083.03,-1391.28"/>
</g>
<!-- Metamodel::ParametricRoleHOW&#45;&gt;Metamodel::Versioning -->
<g id="edge8" class="edge">
<title>Metamodel::ParametricRoleHOW&#45;&gt;Metamodel::Versioning</title>
<path fill="none" stroke="#6666ff" d="M1318.36,-811.69C1278.89,-862.85 1165.82,-1009.41 1119.53,-1069.41"/>
<polygon fill="#6666ff" stroke="#6666ff" points="1116.54,-1067.55 1113.2,-1077.61 1122.08,-1071.83 1116.54,-1067.55"/>
</g>
<!-- Metamodel::ParametricRoleHOW&#45;&gt;Metamodel::MethodContainer -->
<g id="edge9" class="edge">
<title>Metamodel::ParametricRoleHOW&#45;&gt;Metamodel::MethodContainer</title>
<path fill="none" stroke="#6666ff" d="M1299.84,-775.95C1210.5,-726.96 960.66,-589.93 861.76,-535.69"/>
<polygon fill="#6666ff" stroke="#6666ff" points="863.4,-532.6 852.95,-530.86 860.03,-538.73 863.4,-532.6"/>
</g>
<!-- Metamodel::ParametricRoleHOW&#45;&gt;Metamodel::PrivateMethodContainer -->
<g id="edge10" class="edge">
<title>Metamodel::ParametricRoleHOW&#45;&gt;Metamodel::PrivateMethodContainer</title>
<path fill="none" stroke="#6666ff" d="M1327.72,-812.13C1310,-884.52 1246.1,-1145.49 1246.1,-1145.49 1246.1,-1145.49 1302.34,-1220.74 1333.19,-1262.02"/>
<polygon fill="#6666ff" stroke="#6666ff" points="1330.56,-1264.35 1339.35,-1270.27 1336.17,-1260.16 1330.56,-1264.35"/>
</g>
<!-- Metamodel::ParametricRoleHOW&#45;&gt;Metamodel::MultiMethodContainer -->
<g id="edge11" class="edge">
<title>Metamodel::ParametricRoleHOW&#45;&gt;Metamodel::MultiMethodContainer</title>
<path fill="none" stroke="#6666ff" d="M1311.81,-775.86C1278.23,-746.48 1215.02,-691.19 1215.02,-691.19 1215.02,-691.19 1172.18,-595.55 1150.54,-547.23"/>
<polygon fill="#6666ff" stroke="#6666ff" points="1153.67,-545.65 1146.39,-537.96 1147.28,-548.51 1153.67,-545.65"/>
</g>
<!-- Metamodel::ParametricRoleHOW&#45;&gt;Metamodel::AttributeContainer -->
<g id="edge12" class="edge">
<title>Metamodel::ParametricRoleHOW&#45;&gt;Metamodel::AttributeContainer</title>
<path fill="none" stroke="#6666ff" d="M1335.66,-812.14C1346.42,-869.86 1379.54,-1047.47 1392.53,-1117.13"/>
<polygon fill="#6666ff" stroke="#6666ff" points="1389.16,-1118.16 1394.44,-1127.35 1396.04,-1116.88 1389.16,-1118.16"/>
</g>
<!-- Metamodel::ParametricRoleHOW&#45;&gt;Metamodel::RoleContainer -->
<g id="edge13" class="edge">
<title>Metamodel::ParametricRoleHOW&#45;&gt;Metamodel::RoleContainer</title>
<path fill="none" stroke="#6666ff" d="M1256.21,-777.9C1202.6,-766.75 1130.84,-751.82 1075.87,-740.38"/>
<polygon fill="#6666ff" stroke="#6666ff" points="1076.31,-736.9 1065.81,-738.29 1074.88,-743.75 1076.31,-736.9"/>
</g>
<!-- Metamodel::ParametricRoleHOW&#45;&gt;Metamodel::Stashing -->
<g id="edge15" class="edge">
<title>Metamodel::ParametricRoleHOW&#45;&gt;Metamodel::Stashing</title>
<path fill="none" stroke="#6666ff" d="M1202.21,-783.5C1068.68,-773 863.31,-756.85 738.99,-747.08"/>
<polygon fill="#6666ff" stroke="#6666ff" points="738.95,-743.56 728.7,-746.27 738.4,-750.54 738.95,-743.56"/>
</g>
<!-- Metamodel::ParametricRoleHOW&#45;&gt;Metamodel::TypePretense -->
<g id="edge16" class="edge">
<title>Metamodel::ParametricRoleHOW&#45;&gt;Metamodel::TypePretense</title>
<path fill="none" stroke="#6666ff" d="M1364.22,-775.9C1416.84,-746.6 1515.89,-691.45 1515.89,-691.45 1515.89,-691.45 1648.39,-458.42 1694.55,-377.24"/>
<polygon fill="#6666ff" stroke="#6666ff" points="1697.83,-378.54 1699.73,-368.12 1691.75,-375.08 1697.83,-378.54"/>
</g>
<!-- Metamodel::ParametricRoleHOW&#45;&gt;Metamodel::RolePunning -->
<g id="edge17" class="edge">
<title>Metamodel::ParametricRoleHOW&#45;&gt;Metamodel::RolePunning</title>
<path fill="none" stroke="#6666ff" d="M1473.48,-785.79C1563.45,-780.74 1678.93,-774.26 1765.57,-769.4"/>
<polygon fill="#6666ff" stroke="#6666ff" points="1765.93,-772.88 1775.72,-768.83 1765.54,-765.9 1765.93,-772.88"/>
</g>
<!-- Metamodel::ConcreteRoleHOW -->
<g id="node16" class="node">
<title>Metamodel::ConcreteRoleHOW</title>
<g id="a_node16"><a xlink:href="/type/Metamodel::ConcreteRoleHOW" xlink:title="Metamodel::ConcreteRoleHOW">
<ellipse fill="none" stroke="#000000" cx="1365.46" cy="-691.32" rx="148.67" ry="18"/>
<text text-anchor="middle" x="1365.46" y="-687.62" font-family="FreeSans" font-size="14.00" fill="#000000">Metamodel::ConcreteRoleHOW</text>
</a>
</g>
</g>
<!-- Metamodel::ConcreteRoleHOW&#45;&gt;Metamodel::MultipleInheritance -->
<g id="edge25" class="edge">
<title>Metamodel::ConcreteRoleHOW&#45;&gt;Metamodel::MultipleInheritance</title>
<path fill="none" stroke="#6666ff" d="M1332.43,-708.9C1277.5,-738.13 1173.34,-793.57 1173.34,-793.57 1173.34,-793.57 1072.18,-870.64 1019.15,-911.05"/>
<polygon fill="#6666ff" stroke="#6666ff" points="1016.91,-908.36 1011.07,-917.21 1021.15,-913.93 1016.91,-908.36"/>
</g>
<!-- Metamodel::ConcreteRoleHOW&#45;&gt;Any -->
<g id="edge3" class="edge">
<title>Metamodel::ConcreteRoleHOW&#45;&gt;Any</title>
<path fill="none" stroke="#000000" d="M1277.24,-676.74C1133.18,-652.93 853.32,-606.67 751.79,-589.89"/>
<polygon fill="#000000" stroke="#000000" points="752.13,-586.4 741.7,-588.22 750.99,-593.3 752.13,-586.4"/>
</g>
<!-- Metamodel::ConcreteRoleHOW&#45;&gt;Metamodel::Naming -->
<g id="edge18" class="edge">
<title>Metamodel::ConcreteRoleHOW&#45;&gt;Metamodel::Naming</title>
<path fill="none" stroke="#6666ff" d="M1332.43,-708.9C1277.5,-738.13 1173.34,-793.57 1173.34,-793.57 1173.34,-793.57 1215.4,-1095.54 1215.4,-1095.54 1215.4,-1095.54 1176.76,-1167.76 1155.08,-1208.3"/>
<polygon fill="#6666ff" stroke="#6666ff" points="1151.98,-1206.68 1150.35,-1217.15 1158.15,-1209.98 1151.98,-1206.68"/>
</g>
<!-- Metamodel::ConcreteRoleHOW&#45;&gt;Metamodel::Versioning -->
<g id="edge19" class="edge">
<title>Metamodel::ConcreteRoleHOW&#45;&gt;Metamodel::Versioning</title>
<path fill="none" stroke="#6666ff" d="M1332.43,-708.9C1277.5,-738.13 1173.34,-793.57 1173.34,-793.57 1173.34,-793.57 1142.53,-935.21 1142.53,-935.21 1142.53,-935.21 1119.31,-1021.53 1106.95,-1067.47"/>
<polygon fill="#6666ff" stroke="#6666ff" points="1103.49,-1066.85 1104.27,-1077.41 1110.25,-1068.66 1103.49,-1066.85"/>
</g>
<!-- Metamodel::ConcreteRoleHOW&#45;&gt;Metamodel::MethodContainer -->
<g id="edge21" class="edge">
<title>Metamodel::ConcreteRoleHOW&#45;&gt;Metamodel::MethodContainer</title>
<path fill="none" stroke="#6666ff" d="M1313.72,-674.4C1212.89,-641.43 990.52,-568.71 882.29,-533.31"/>
<polygon fill="#6666ff" stroke="#6666ff" points="883.09,-529.89 872.5,-530.11 880.91,-536.54 883.09,-529.89"/>
</g>
<!-- Metamodel::ConcreteRoleHOW&#45;&gt;Metamodel::PrivateMethodContainer -->
<g id="edge20" class="edge">
<title>Metamodel::ConcreteRoleHOW&#45;&gt;Metamodel::PrivateMethodContainer</title>
<path fill="none" stroke="#6666ff" d="M1332.43,-708.9C1277.5,-738.13 1173.34,-793.57 1173.34,-793.57 1173.34,-793.57 1246.1,-1145.49 1246.1,-1145.49 1246.1,-1145.49 1302.34,-1220.74 1333.19,-1262.02"/>
<polygon fill="#6666ff" stroke="#6666ff" points="1330.56,-1264.35 1339.35,-1270.27 1336.17,-1260.16 1330.56,-1264.35"/>
</g>
<!-- Metamodel::ConcreteRoleHOW&#45;&gt;Metamodel::MultiMethodContainer -->
<g id="edge22" class="edge">
<title>Metamodel::ConcreteRoleHOW&#45;&gt;Metamodel::MultiMethodContainer</title>
<path fill="none" stroke="#6666ff" d="M1341.58,-673.3C1300.51,-642.32 1216.49,-578.93 1170.37,-544.14"/>
<polygon fill="#6666ff" stroke="#6666ff" points="1172.31,-541.22 1162.22,-537.99 1168.1,-546.8 1172.31,-541.22"/>
</g>
<!-- Metamodel::ConcreteRoleHOW&#45;&gt;Metamodel::AttributeContainer -->
<g id="edge23" class="edge">
<title>Metamodel::ConcreteRoleHOW&#45;&gt;Metamodel::AttributeContainer</title>
<path fill="none" stroke="#6666ff" d="M1387.34,-709.18C1423.34,-738.56 1491.11,-793.87 1491.11,-793.87 1491.11,-793.87 1427.47,-1033.84 1405.33,-1117.35"/>
<polygon fill="#6666ff" stroke="#6666ff" points="1401.9,-1116.62 1402.72,-1127.18 1408.67,-1118.41 1401.9,-1116.62"/>
</g>
<!-- Metamodel::ConcreteRoleHOW&#45;&gt;Metamodel::RoleContainer -->
<g id="edge24" class="edge">
<title>Metamodel::ConcreteRoleHOW&#45;&gt;Metamodel::RoleContainer</title>
<path fill="none" stroke="#6666ff" d="M1243.93,-701.75C1202.33,-705.33 1155.82,-709.32 1114.28,-712.89"/>
<polygon fill="#6666ff" stroke="#6666ff" points="1113.77,-709.42 1104.11,-713.76 1114.37,-716.39 1113.77,-709.42"/>
</g>
<!-- Metamodel::Finalization -->
<g id="node17" class="node">
<title>Metamodel::Finalization</title>
<g id="a_node17"><a xlink:href="/type/Metamodel::Finalization" xlink:title="Metamodel::Finalization">
<ellipse fill="none" stroke="#6666ff" cx="253.91" cy="-677.3" rx="116.98" ry="18"/>
<text text-anchor="middle" x="253.91" y="-673.6" font-family="FreeSans" font-size="14.00" fill="#6666ff">Metamodel::Finalization</text>
</a>
</g>
</g>
<!-- Metamodel::DefaultParent -->
<g id="node18" class="node">
<title>Metamodel::DefaultParent</title>
<g id="a_node18"><a xlink:href="/type/Metamodel::DefaultParent" xlink:title="Metamodel::DefaultParent">
<ellipse fill="none" stroke="#6666ff" cx="200.51" cy="-1452.8" rx="128.08" ry="18"/>
<text text-anchor="middle" x="200.51" y="-1449.1" font-family="FreeSans" font-size="14.00" fill="#6666ff">Metamodel::DefaultParent</text>
</a>
</g>
</g>
<!-- Metamodel::C3MRO -->
<g id="node19" class="node">
<title>Metamodel::C3MRO</title>
<g id="a_node19"><a xlink:href="/type/Metamodel::C3MRO" xlink:title="Metamodel::C3MRO">
<ellipse fill="none" stroke="#6666ff" cx="184.07" cy="-1239.99" rx="100.18" ry="18"/>
<text text-anchor="middle" x="184.07" y="-1236.29" font-family="FreeSans" font-size="14.00" fill="#6666ff">Metamodel::C3MRO</text>
</a>
</g>
</g>
<!-- Metamodel::MROBasedMethodDispatch -->
<g id="node20" class="node">
<title>Metamodel::MROBasedMethodDispatch</title>
<g id="a_node20"><a xlink:href="/type/Metamodel::MROBasedMethodDispatch" xlink:title="Metamodel::MROBasedMethodDispatch">
<ellipse fill="none" stroke="#6666ff" cx="397.48" cy="-1499.93" rx="188.47" ry="18"/>
<text text-anchor="middle" x="397.48" y="-1496.23" font-family="FreeSans" font-size="14.00" fill="#6666ff">Metamodel::MROBasedMethodDispatch</text>
</a>
</g>
</g>
<!-- Metamodel::MROBasedTypeChecking -->
<g id="node21" class="node">
<title>Metamodel::MROBasedTypeChecking</title>
<g id="a_node21"><a xlink:href="/type/Metamodel::MROBasedTypeChecking" xlink:title="Metamodel::MROBasedTypeChecking">
<ellipse fill="none" stroke="#6666ff" cx="178.73" cy="-1054.15" rx="178.97" ry="18"/>
<text text-anchor="middle" x="178.73" y="-1050.45" font-family="FreeSans" font-size="14.00" fill="#6666ff">Metamodel::MROBasedTypeChecking</text>
</a>
</g>
</g>
<!-- Metamodel::Trusting -->
<g id="node22" class="node">
<title>Metamodel::Trusting</title>
<g id="a_node22"><a xlink:href="/type/Metamodel::Trusting" xlink:title="Metamodel::Trusting">
<ellipse fill="none" stroke="#6666ff" cx="136.36" cy="-865.18" rx="102.88" ry="18"/>
<text text-anchor="middle" x="136.36" y="-861.48" font-family="FreeSans" font-size="14.00" fill="#6666ff">Metamodel::Trusting</text>
</a>
</g>
</g>
<!-- Metamodel::BUILDPLAN -->
<g id="node23" class="node">
<title>Metamodel::BUILDPLAN</title>
<g id="a_node23"><a xlink:href="/type/Metamodel::BUILDPLAN" xlink:title="Metamodel::BUILDPLAN">
<ellipse fill="none" stroke="#6666ff" cx="733.55" cy="-1718.66" rx="118.08" ry="18"/>
<text text-anchor="middle" x="733.55" y="-1714.96" font-family="FreeSans" font-size="14.00" fill="#6666ff">Metamodel::BUILDPLAN</text>
</a>
</g>
</g>
<!-- Metamodel::Mixins -->
<g id="node24" class="node">
<title>Metamodel::Mixins</title>
<g id="a_node24"><a xlink:href="/type/Metamodel::Mixins" xlink:title="Metamodel::Mixins">
<ellipse fill="none" stroke="#6666ff" cx="954.82" cy="-1726.23" rx="94.78" ry="18"/>
<text text-anchor="middle" x="954.82" y="-1722.53" font-family="FreeSans" font-size="14.00" fill="#6666ff">Metamodel::Mixins</text>
</a>
</g>
</g>
<!-- Metamodel::BoolificationProtocol -->
<g id="node25" class="node">
<title>Metamodel::BoolificationProtocol</title>
<g id="a_node25"><a xlink:href="/type/Metamodel::BoolificationProtocol" xlink:title="Metamodel::BoolificationProtocol">
<ellipse fill="none" stroke="#6666ff" cx="449.94" cy="-1677.36" rx="157.07" ry="18"/>
<text text-anchor="middle" x="449.94" y="-1673.66" font-family="FreeSans" font-size="14.00" fill="#6666ff">Metamodel::BoolificationProtocol</text>
</a>
</g>
</g>
<!-- Metamodel::ClassHOW -->
<g id="node26" class="node">
<title>Metamodel::ClassHOW</title>
<g id="a_node26"><a xlink:href="/type/Metamodel::ClassHOW" xlink:title="Metamodel::ClassHOW">
<ellipse fill="none" stroke="#000000" cx="772.27" cy="-1132.02" rx="113.18" ry="18"/>
<text text-anchor="middle" x="772.27" y="-1128.32" font-family="FreeSans" font-size="14.00" fill="#000000">Metamodel::ClassHOW</text>
</a>
</g>
</g>
<!-- Metamodel::ClassHOW&#45;&gt;Metamodel::MultipleInheritance -->
<g id="edge36" class="edge">
<title>Metamodel::ClassHOW&#45;&gt;Metamodel::MultipleInheritance</title>
<path fill="none" stroke="#6666ff" d="M791.75,-1114.2C830.32,-1078.93 916.45,-1000.15 960.49,-959.88"/>
<polygon fill="#6666ff" stroke="#6666ff" points="962.93,-962.39 967.95,-953.06 958.2,-957.22 962.93,-962.39"/>
</g>
<!-- Metamodel::ClassHOW&#45;&gt;Any -->
<g id="edge4" class="edge">
<title>Metamodel::ClassHOW&#45;&gt;Any</title>
<path fill="none" stroke="#000000" d="M770.77,-1113.84C764.39,-1036.49 739.83,-738.71 739.83,-738.71 739.83,-738.71 726.03,-656.35 718.54,-611.67"/>
<polygon fill="#000000" stroke="#000000" points="721.98,-610.99 716.87,-601.71 715.07,-612.15 721.98,-610.99"/>
</g>
<!-- Metamodel::ClassHOW&#45;&gt;Metamodel::Naming -->
<g id="edge26" class="edge">
<title>Metamodel::ClassHOW&#45;&gt;Metamodel::Naming</title>
<path fill="none" stroke="#6666ff" d="M828.23,-1147.68C894.91,-1166.33 1006.1,-1197.44 1076.31,-1217.09"/>
<polygon fill="#6666ff" stroke="#6666ff" points="1075.78,-1220.57 1086.36,-1219.9 1077.67,-1213.83 1075.78,-1220.57"/>
</g>
<!-- Metamodel::ClassHOW&#45;&gt;Metamodel::Documenting -->
<g id="edge27" class="edge">
<title>Metamodel::ClassHOW&#45;&gt;Metamodel::Documenting</title>
<path fill="none" stroke="#6666ff" d="M790.5,-1149.97C840.59,-1199.31 980.42,-1337.02 1038.22,-1393.94"/>
<polygon fill="#6666ff" stroke="#6666ff" points="1035.91,-1396.58 1045.49,-1401.1 1040.82,-1391.59 1035.91,-1396.58"/>
</g>
<!-- Metamodel::ClassHOW&#45;&gt;Metamodel::Versioning -->
<g id="edge28" class="edge">
<title>Metamodel::ClassHOW&#45;&gt;Metamodel::Versioning</title>
<path fill="none" stroke="#6666ff" d="M865.14,-1121.65C905.97,-1117.09 954.09,-1111.71 996.05,-1107.03"/>
<polygon fill="#6666ff" stroke="#6666ff" points="996.47,-1110.5 1006.02,-1105.92 995.7,-1103.55 996.47,-1110.5"/>
</g>
<!-- Metamodel::ClassHOW&#45;&gt;Metamodel::MethodContainer -->
<g id="edge32" class="edge">
<title>Metamodel::ClassHOW&#45;&gt;Metamodel::MethodContainer</title>
<path fill="none" stroke="#6666ff" d="M773.69,-1113.83C780.54,-1026.3 810.13,-648.21 818.5,-541.38"/>
<polygon fill="#6666ff" stroke="#6666ff" points="821.99,-541.6 819.28,-531.36 815.01,-541.06 821.99,-541.6"/>
</g>
<!-- Metamodel::ClassHOW&#45;&gt;Metamodel::PrivateMethodContainer -->
<g id="edge33" class="edge">
<title>Metamodel::ClassHOW&#45;&gt;Metamodel::PrivateMethodContainer</title>
<path fill="none" stroke="#6666ff" d="M842.22,-1146.16C966.71,-1171.34 1213.76,-1221.29 1213.76,-1221.29 1213.76,-1221.29 1243.73,-1235.17 1243.73,-1235.17 1243.73,-1235.17 1277.45,-1251.6 1307.4,-1266.2"/>
<polygon fill="#6666ff" stroke="#6666ff" points="1306.01,-1269.41 1316.53,-1270.65 1309.08,-1263.12 1306.01,-1269.41"/>
</g>
<!-- Metamodel::ClassHOW&#45;&gt;Metamodel::MultiMethodContainer -->
<g id="edge34" class="edge">
<title>Metamodel::ClassHOW&#45;&gt;Metamodel::MultiMethodContainer</title>
<path fill="none" stroke="#6666ff" d="M776.23,-1113.93C793.59,-1034.81 861.94,-723.21 861.94,-723.21 861.94,-723.21 1032.04,-598.12 1105.35,-544.2"/>
<polygon fill="#6666ff" stroke="#6666ff" points="1107.81,-546.74 1113.8,-537.99 1103.67,-541.1 1107.81,-546.74"/>
</g>
<!-- Metamodel::ClassHOW&#45;&gt;Metamodel::AttributeContainer -->
<g id="edge30" class="edge">
<title>Metamodel::ClassHOW&#45;&gt;Metamodel::AttributeContainer</title>
<path fill="none" stroke="#6666ff" d="M884.47,-1134.45C983.52,-1136.6 1128.98,-1139.76 1239.8,-1142.16"/>
<polygon fill="#6666ff" stroke="#6666ff" points="1240,-1145.67 1250.08,-1142.39 1240.15,-1138.67 1240,-1145.67"/>
</g>
<!-- Metamodel::ClassHOW&#45;&gt;Metamodel::RoleContainer -->
<g id="edge35" class="edge">
<title>Metamodel::ClassHOW&#45;&gt;Metamodel::RoleContainer</title>
<path fill="none" stroke="#6666ff" d="M777.83,-1113.84C792.75,-1065.08 832.56,-935.06 832.56,-935.06 832.56,-935.06 930.56,-806.11 973.63,-749.44"/>
<polygon fill="#6666ff" stroke="#6666ff" points="976.54,-751.39 979.81,-741.31 970.97,-747.16 976.54,-751.39"/>
</g>
<!-- Metamodel::ClassHOW&#45;&gt;Metamodel::Stashing -->
<g id="edge29" class="edge">
<title>Metamodel::ClassHOW&#45;&gt;Metamodel::Stashing</title>
<path fill="none" stroke="#6666ff" d="M765.8,-1113.84C743.41,-1050.92 669.13,-842.2 642.17,-766.45"/>
<polygon fill="#6666ff" stroke="#6666ff" points="645.34,-764.93 638.69,-756.68 638.75,-767.27 645.34,-764.93"/>
</g>
<!-- Metamodel::ClassHOW&#45;&gt;Metamodel::Finalization -->
<g id="edge31" class="edge">
<title>Metamodel::ClassHOW&#45;&gt;Metamodel::Finalization</title>
<path fill="none" stroke="#6666ff" d="M751.95,-1114.19C671.46,-1043.59 374.92,-783.46 281.97,-701.91"/>
<polygon fill="#6666ff" stroke="#6666ff" points="284.19,-699.21 274.37,-695.25 279.58,-704.47 284.19,-699.21"/>
</g>
<!-- Metamodel::ClassHOW&#45;&gt;Metamodel::DefaultParent -->
<g id="edge37" class="edge">
<title>Metamodel::ClassHOW&#45;&gt;Metamodel::DefaultParent</title>
<path fill="none" stroke="#6666ff" d="M741.12,-1149.49C644.32,-1203.8 348.74,-1369.64 240.64,-1430.28"/>
<polygon fill="#6666ff" stroke="#6666ff" points="238.69,-1427.37 231.68,-1435.31 242.11,-1433.47 238.69,-1427.37"/>
</g>
<!-- Metamodel::ClassHOW&#45;&gt;Metamodel::C3MRO -->
<g id="edge38" class="edge">
<title>Metamodel::ClassHOW&#45;&gt;Metamodel::C3MRO</title>
<path fill="none" stroke="#6666ff" d="M698.07,-1145.64C587.14,-1166 378.92,-1204.22 264.48,-1225.23"/>
<polygon fill="#6666ff" stroke="#6666ff" points="263.58,-1221.83 254.38,-1227.08 264.85,-1228.72 263.58,-1221.83"/>
</g>
<!-- Metamodel::ClassHOW&#45;&gt;Metamodel::MROBasedMethodDispatch -->
<g id="edge39" class="edge">
<title>Metamodel::ClassHOW&#45;&gt;Metamodel::MROBasedMethodDispatch</title>
<path fill="none" stroke="#6666ff" d="M753.94,-1150.01C692.54,-1210.29 494.01,-1405.18 423.02,-1474.87"/>
<polygon fill="#6666ff" stroke="#6666ff" points="420.46,-1472.47 415.78,-1481.97 425.37,-1477.47 420.46,-1472.47"/>
</g>
<!-- Metamodel::ClassHOW&#45;&gt;Metamodel::MROBasedTypeChecking -->
<g id="edge40" class="edge">
<title>Metamodel::ClassHOW&#45;&gt;Metamodel::MROBasedTypeChecking</title>
<path fill="none" stroke="#6666ff" d="M696.34,-1118.63C657.26,-1111.74 617.7,-1104.76 617.7,-1104.76 617.7,-1104.76 435.99,-1083.81 306.39,-1068.87"/>
<polygon fill="#6666ff" stroke="#6666ff" points="306.71,-1065.38 296.37,-1067.71 305.9,-1072.33 306.71,-1065.38"/>
</g>
<!-- Metamodel::ClassHOW&#45;&gt;Metamodel::Trusting -->
<g id="edge41" class="edge">
<title>Metamodel::ClassHOW&#45;&gt;Metamodel::Trusting</title>
<path fill="none" stroke="#6666ff" d="M732,-1115.13C620.36,-1068.28 307.09,-936.83 185.48,-885.8"/>
<polygon fill="#6666ff" stroke="#6666ff" points="186.61,-882.48 176.03,-881.83 183.9,-888.93 186.61,-882.48"/>
</g>
<!-- Metamodel::ClassHOW&#45;&gt;Metamodel::BUILDPLAN -->
<g id="edge42" class="edge">
<title>Metamodel::ClassHOW&#45;&gt;Metamodel::BUILDPLAN</title>
<path fill="none" stroke="#6666ff" d="M771.06,-1150.22C765.5,-1234.47 742.24,-1586.86 735.43,-1690.11"/>
<polygon fill="#6666ff" stroke="#6666ff" points="731.92,-1690.17 734.75,-1700.38 738.9,-1690.63 731.92,-1690.17"/>
</g>
<!-- Metamodel::ClassHOW&#45;&gt;Metamodel::Mixins -->
<g id="edge43" class="edge">
<title>Metamodel::ClassHOW&#45;&gt;Metamodel::Mixins</title>
<path fill="none" stroke="#6666ff" d="M777.83,-1150.13C803.94,-1235.12 914.41,-1594.7 946.22,-1698.23"/>
<polygon fill="#6666ff" stroke="#6666ff" points="942.93,-1699.44 949.21,-1707.97 949.62,-1697.39 942.93,-1699.44"/>
</g>
<!-- Metamodel::ClassHOW&#45;&gt;Metamodel::BoolificationProtocol -->
<g id="edge44" class="edge">
<title>Metamodel::ClassHOW&#45;&gt;Metamodel::BoolificationProtocol</title>
<path fill="none" stroke="#6666ff" d="M763.23,-1150.02C726.15,-1223.91 587.56,-1500.04 587.56,-1500.04 587.56,-1500.04 508.32,-1602.15 470.09,-1651.39"/>
<polygon fill="#6666ff" stroke="#6666ff" points="467.26,-1649.34 463.89,-1659.38 472.79,-1653.63 467.26,-1649.34"/>
</g>
<!-- Metamodel::NativeHOW -->
<g id="node27" class="node">
<title>Metamodel::NativeHOW</title>
<g id="a_node27"><a xlink:href="/type/Metamodel::NativeHOW" xlink:title="Metamodel::NativeHOW">
<ellipse fill="none" stroke="#000000" cx="532.7" cy="-1118.58" rx="118.08" ry="18"/>
<text text-anchor="middle" x="532.7" y="-1114.88" font-family="FreeSans" font-size="14.00" fill="#000000">Metamodel::NativeHOW</text>
</a>
</g>
</g>
<!-- Metamodel::NativeHOW&#45;&gt;Metamodel::MultipleInheritance -->
<g id="edge49" class="edge">
<title>Metamodel::NativeHOW&#45;&gt;Metamodel::MultipleInheritance</title>
<path fill="none" stroke="#6666ff" d="M574.68,-1101.65C658.05,-1068.03 844.29,-992.91 935.37,-956.18"/>
<polygon fill="#6666ff" stroke="#6666ff" points="936.71,-959.41 944.67,-952.43 934.09,-952.92 936.71,-959.41"/>
</g>
<!-- Metamodel::NativeHOW&#45;&gt;Any -->
<g id="edge5" class="edge">
<title>Metamodel::NativeHOW&#45;&gt;Any</title>
<path fill="none" stroke="#000000" d="M542.55,-1100.52C583.72,-1025.02 739.83,-738.71 739.83,-738.71 739.83,-738.71 726.03,-656.35 718.54,-611.67"/>
<polygon fill="#000000" stroke="#000000" points="721.98,-610.99 716.87,-601.71 715.07,-612.15 721.98,-610.99"/>
</g>
<!-- Metamodel::NativeHOW&#45;&gt;Metamodel::Naming -->
<g id="edge45" class="edge">
<title>Metamodel::NativeHOW&#45;&gt;Metamodel::Naming</title>
<path fill="none" stroke="#6666ff" d="M606.35,-1132.7C721.4,-1154.75 942.85,-1197.19 1061.34,-1219.9"/>
<polygon fill="#6666ff" stroke="#6666ff" points="1060.96,-1223.39 1071.44,-1221.83 1062.27,-1216.51 1060.96,-1223.39"/>
</g>
<!-- Metamodel::NativeHOW&#45;&gt;Metamodel::Documenting -->
<g id="edge46" class="edge">
<title>Metamodel::NativeHOW&#45;&gt;Metamodel::Documenting</title>
<path fill="none" stroke="#6666ff" d="M563.55,-1136.04C654.65,-1187.59 922.49,-1339.14 1024.05,-1396.61"/>
<polygon fill="#6666ff" stroke="#6666ff" points="1022.36,-1399.67 1032.78,-1401.55 1025.8,-1393.58 1022.36,-1399.67"/>
</g>
<!-- Metamodel::NativeHOW&#45;&gt;Metamodel::Versioning -->
<g id="edge47" class="edge">
<title>Metamodel::NativeHOW&#45;&gt;Metamodel::Versioning</title>
<path fill="none" stroke="#6666ff" d="M647.04,-1113.92C743.22,-1110 880.34,-1104.41 978.36,-1100.42"/>
<polygon fill="#6666ff" stroke="#6666ff" points="978.77,-1103.91 988.62,-1100 978.49,-1096.91 978.77,-1103.91"/>
</g>
<!-- Metamodel::NativeHOW&#45;&gt;Metamodel::Stashing -->
<g id="edge48" class="edge">
<title>Metamodel::NativeHOW&#45;&gt;Metamodel::Stashing</title>
<path fill="none" stroke="#6666ff" d="M537.44,-1100.51C553.43,-1039.52 605.5,-840.91 624.91,-766.86"/>
<polygon fill="#6666ff" stroke="#6666ff" points="628.38,-767.43 627.53,-756.87 621.61,-765.65 628.38,-767.43"/>
</g>
<!-- Metamodel::NativeHOW&#45;&gt;Metamodel::C3MRO -->
<g id="edge50" class="edge">
<title>Metamodel::NativeHOW&#45;&gt;Metamodel::C3MRO</title>
<path fill="none" stroke="#6666ff" d="M485.32,-1135.08C421.44,-1157.33 307.88,-1196.87 239.92,-1220.54"/>
<polygon fill="#6666ff" stroke="#6666ff" points="238.53,-1217.31 230.24,-1223.91 240.83,-1223.93 238.53,-1217.31"/>
</g>
<!-- Metamodel::NativeHOW&#45;&gt;Metamodel::MROBasedMethodDispatch -->
<g id="edge51" class="edge">
<title>Metamodel::NativeHOW&#45;&gt;Metamodel::MROBasedMethodDispatch</title>
<path fill="none" stroke="#6666ff" d="M526.27,-1136.72C504.52,-1198.07 433.58,-1398.14 407.35,-1472.11"/>
<polygon fill="#6666ff" stroke="#6666ff" points="404,-1471.09 403.95,-1481.69 410.59,-1473.43 404,-1471.09"/>
</g>
<!-- Metamodel::NativeHOW&#45;&gt;Metamodel::MROBasedTypeChecking -->
<g id="edge52" class="edge">
<title>Metamodel::NativeHOW&#45;&gt;Metamodel::MROBasedTypeChecking</title>
<path fill="none" stroke="#6666ff" d="M456.77,-1104.76C403.78,-1095.11 332.62,-1082.16 275.56,-1071.77"/>
<polygon fill="#6666ff" stroke="#6666ff" points="275.9,-1068.28 265.44,-1069.93 274.65,-1075.16 275.9,-1068.28"/>
</g>
</g>
</svg>
