<?xml version="1.0" encoding="UTF-8" standalone="no"?>
<!DOCTYPE svg PUBLIC "-//W3C//DTD SVG 1.1//EN"
 "http://www.w3.org/Graphics/SVG/1.1/DTD/svg11.dtd">
<!-- Generated by graphviz version 2.42.3 (0)
 -->
<!-- Title: perl6&#45;type&#45;graph Pages: 1 -->
<svg width="2316pt" height="1727pt"
 viewBox="0.00 0.00 2315.66 1726.65" xmlns="http://www.w3.org/2000/svg" xmlns:xlink="http://www.w3.org/1999/xlink">
<g id="graph0" class="graph" transform="scale(1 1) rotate(0) translate(4 1722.65)">
<title>perl6&#45;type&#45;graph</title>
<polygon fill="white" stroke="transparent" points="-4,4 -4,-1722.65 2311.66,-1722.65 2311.66,4 -4,4"/>
<!-- Metamodel::RolePunning -->
<g id="node1" class="node">
<title>Metamodel::RolePunning</title>
<g id="a_node1"><a xlink:href="/type/Metamodel::RolePunning" xlink:title="Metamodel::RolePunning">
<ellipse fill="none" stroke="#6666ff" cx="1136.25" cy="-821.92" rx="122.68" ry="18"/>
<text text-anchor="middle" x="1136.25" y="-818.22" font-family="FreeSans" font-size="14.00" fill="#6666ff">Metamodel::RolePunning</text>
</a>
</g>
</g>
<!-- Mu -->
<g id="node2" class="node">
<title>Mu</title>
<g id="a_node2"><a xlink:href="/type/Mu" xlink:title="Mu">
<ellipse fill="none" stroke="#000000" cx="1154.88" cy="-18" rx="27" ry="18"/>
<text text-anchor="middle" x="1154.88" y="-14.3" font-family="FreeSans" font-size="14.00" fill="#000000">Mu</text>
</a>
</g>
</g>
<!-- Any -->
<g id="node3" class="node">
<title>Any</title>
<g id="a_node3"><a xlink:href="/type/Any" xlink:title="Any">
<ellipse fill="none" stroke="#000000" cx="1187.2" cy="-598.92" rx="28.7" ry="18"/>
<text text-anchor="middle" x="1187.2" y="-595.22" font-family="FreeSans" font-size="14.00" fill="#000000">Any</text>
</a>
</g>
</g>
<!-- Any&#45;&gt;Mu -->
<g id="edge1" class="edge">
<title>Any&#45;&gt;Mu</title>
<path fill="none" stroke="#000000" d="M1186.19,-580.89C1181.55,-497.47 1162.14,-148.52 1156.46,-46.27"/>
<polygon fill="#000000" stroke="#000000" points="1159.94,-45.89 1155.89,-36.1 1152.95,-46.28 1159.94,-45.89"/>
</g>
<!-- Metamodel::Naming -->
<g id="node4" class="node">
<title>Metamodel::Naming</title>
<g id="a_node4"><a xlink:href="/type/Metamodel::Naming" xlink:title="Metamodel::Naming">
<ellipse fill="none" stroke="#6666ff" cx="1050.45" cy="-1492.71" rx="101.28" ry="18"/>
<text text-anchor="middle" x="1050.45" y="-1489.01" font-family="FreeSans" font-size="14.00" fill="#6666ff">Metamodel::Naming</text>
</a>
</g>
</g>
<!-- Metamodel::Stashing -->
<g id="node5" class="node">
<title>Metamodel::Stashing</title>
<g id="a_node5"><a xlink:href="/type/Metamodel::Stashing" xlink:title="Metamodel::Stashing">
<ellipse fill="none" stroke="#6666ff" cx="1149.28" cy="-1333.32" rx="105.88" ry="18"/>
<text text-anchor="middle" x="1149.28" y="-1329.62" font-family="FreeSans" font-size="14.00" fill="#6666ff">Metamodel::Stashing</text>
</a>
</g>
</g>
<!-- Metamodel::TypePretense -->
<g id="node6" class="node">
<title>Metamodel::TypePretense</title>
<g id="a_node6"><a xlink:href="/type/Metamodel::TypePretense" xlink:title="Metamodel::TypePretense">
<ellipse fill="none" stroke="#6666ff" cx="1054.49" cy="-992.9" rx="126.18" ry="18"/>
<text text-anchor="middle" x="1054.49" y="-989.2" font-family="FreeSans" font-size="14.00" fill="#6666ff">Metamodel::TypePretense</text>
</a>
</g>
</g>
<!-- Metamodel::BoolificationProtocol -->
<g id="node7" class="node">
<title>Metamodel::BoolificationProtocol</title>
<g id="a_node7"><a xlink:href="/type/Metamodel::BoolificationProtocol" xlink:title="Metamodel::BoolificationProtocol">
<ellipse fill="none" stroke="#6666ff" cx="157.29" cy="-1096.5" rx="157.07" ry="18"/>
<text text-anchor="middle" x="157.29" y="-1092.8" font-family="FreeSans" font-size="14.00" fill="#6666ff">Metamodel::BoolificationProtocol</text>
</a>
</g>
</g>
<!-- Metamodel::ParametricRoleGroupHOW -->
<g id="node8" class="node">
<title>Metamodel::ParametricRoleGroupHOW</title>
<g id="a_node8"><a xlink:href="/type/Metamodel::ParametricRoleGroupHOW" xlink:title="Metamodel::ParametricRoleGroupHOW">
<ellipse fill="none" stroke="#000000" cx="686.2" cy="-1054.33" rx="184.67" ry="18"/>
<text text-anchor="middle" x="686.2" y="-1050.63" font-family="FreeSans" font-size="14.00" fill="#000000">Metamodel::ParametricRoleGroupHOW</text>
</a>
</g>
</g>
<!-- Metamodel::ParametricRoleGroupHOW&#45;&gt;Metamodel::RolePunning -->
<g id="edge8" class="edge">
<title>Metamodel::ParametricRoleGroupHOW&#45;&gt;Metamodel::RolePunning</title>
<path fill="none" stroke="#6666ff" d="M720.77,-1036.48C801.97,-994.54 1004.74,-889.84 1093.5,-844"/>
<polygon fill="#6666ff" stroke="#6666ff" points="1095.2,-847.06 1102.48,-839.36 1091.99,-840.84 1095.2,-847.06"/>
</g>
<!-- Metamodel::ParametricRoleGroupHOW&#45;&gt;Any -->
<g id="edge2" class="edge">
<title>Metamodel::ParametricRoleGroupHOW&#45;&gt;Any</title>
<path fill="none" stroke="#000000" d="M706.15,-1036.2C785.39,-964.17 1077.75,-698.41 1163.44,-620.51"/>
<polygon fill="#000000" stroke="#000000" points="1165.81,-623.09 1170.85,-613.77 1161.1,-617.91 1165.81,-623.09"/>
</g>
<!-- Metamodel::ParametricRoleGroupHOW&#45;&gt;Metamodel::Naming -->
<g id="edge5" class="edge">
<title>Metamodel::ParametricRoleGroupHOW&#45;&gt;Metamodel::Naming</title>
<path fill="none" stroke="#6666ff" d="M701.16,-1072.33C758.12,-1140.89 961.64,-1385.83 1028.79,-1466.64"/>
<polygon fill="#6666ff" stroke="#6666ff" points="1026.49,-1469.35 1035.57,-1474.8 1031.87,-1464.87 1026.49,-1469.35"/>
</g>
<!-- Metamodel::ParametricRoleGroupHOW&#45;&gt;Metamodel::Stashing -->
<g id="edge6" class="edge">
<title>Metamodel::ParametricRoleGroupHOW&#45;&gt;Metamodel::Stashing</title>
<path fill="none" stroke="#6666ff" d="M715.87,-1072.21C796.93,-1121.04 1022.02,-1256.65 1111.7,-1310.68"/>
<polygon fill="#6666ff" stroke="#6666ff" points="1110.08,-1313.79 1120.45,-1315.95 1113.69,-1307.79 1110.08,-1313.79"/>
</g>
<!-- Metamodel::ParametricRoleGroupHOW&#45;&gt;Metamodel::TypePretense -->
<g id="edge7" class="edge">
<title>Metamodel::ParametricRoleGroupHOW&#45;&gt;Metamodel::TypePretense</title>
<path fill="none" stroke="#6666ff" d="M779.61,-1038.75C835.7,-1029.39 906.76,-1017.54 962.58,-1008.23"/>
<polygon fill="#6666ff" stroke="#6666ff" points="963.17,-1011.68 972.46,-1006.58 962.02,-1004.77 963.17,-1011.68"/>
</g>
<!-- Metamodel::ParametricRoleGroupHOW&#45;&gt;Metamodel::BoolificationProtocol -->
<g id="edge9" class="edge">
<title>Metamodel::ParametricRoleGroupHOW&#45;&gt;Metamodel::BoolificationProtocol</title>
<path fill="none" stroke="#6666ff" d="M543.07,-1065.74C466.5,-1071.85 372.62,-1079.33 296.63,-1085.39"/>
<polygon fill="#6666ff" stroke="#6666ff" points="296.2,-1081.91 286.51,-1086.2 296.76,-1088.89 296.2,-1081.91"/>
</g>
<!-- Metamodel::Documenting -->
<g id="node9" class="node">
<title>Metamodel::Documenting</title>
<g id="a_node9"><a xlink:href="/type/Metamodel::Documenting" xlink:title="Metamodel::Documenting">
<ellipse fill="none" stroke="#6666ff" cx="1707.48" cy="-549.28" rx="126.98" ry="18"/>
<text text-anchor="middle" x="1707.48" y="-545.58" font-family="FreeSans" font-size="14.00" fill="#6666ff">Metamodel::Documenting</text>
</a>
</g>
</g>
<!-- Metamodel::Versioning -->
<g id="node10" class="node">
<title>Metamodel::Versioning</title>
<g id="a_node10"><a xlink:href="/type/Metamodel::Versioning" xlink:title="Metamodel::Versioning">
<ellipse fill="none" stroke="#6666ff" cx="2094.95" cy="-830.42" rx="114.28" ry="18"/>
<text text-anchor="middle" x="2094.95" y="-826.72" font-family="FreeSans" font-size="14.00" fill="#6666ff">Metamodel::Versioning</text>
</a>
</g>
</g>
<!-- Metamodel::MethodContainer -->
<g id="node11" class="node">
<title>Metamodel::MethodContainer</title>
<g id="a_node11"><a xlink:href="/type/Metamodel::MethodContainer" xlink:title="Metamodel::MethodContainer">
<ellipse fill="none" stroke="#6666ff" cx="1946.7" cy="-620.27" rx="143.77" ry="18"/>
<text text-anchor="middle" x="1946.7" y="-616.57" font-family="FreeSans" font-size="14.00" fill="#6666ff">Metamodel::MethodContainer</text>
</a>
</g>
</g>
<!-- Metamodel::PrivateMethodContainer -->
<g id="node12" class="node">
<title>Metamodel::PrivateMethodContainer</title>
<g id="a_node12"><a xlink:href="/type/Metamodel::PrivateMethodContainer" xlink:title="Metamodel::PrivateMethodContainer">
<ellipse fill="none" stroke="#6666ff" cx="1432" cy="-1700.65" rx="174.67" ry="18"/>
<text text-anchor="middle" x="1432" y="-1696.95" font-family="FreeSans" font-size="14.00" fill="#6666ff">Metamodel::PrivateMethodContainer</text>
</a>
</g>
</g>
<!-- Metamodel::MultiMethodContainer -->
<g id="node13" class="node">
<title>Metamodel::MultiMethodContainer</title>
<g id="a_node13"><a xlink:href="/type/Metamodel::MultiMethodContainer" xlink:title="Metamodel::MultiMethodContainer">
<ellipse fill="none" stroke="#6666ff" cx="2098.86" cy="-1336.8" rx="165.97" ry="18"/>
<text text-anchor="middle" x="2098.86" y="-1333.1" font-family="FreeSans" font-size="14.00" fill="#6666ff">Metamodel::MultiMethodContainer</text>
</a>
</g>
</g>
<!-- Metamodel::AttributeContainer -->
<g id="node14" class="node">
<title>Metamodel::AttributeContainer</title>
<g id="a_node14"><a xlink:href="/type/Metamodel::AttributeContainer" xlink:title="Metamodel::AttributeContainer">
<ellipse fill="none" stroke="#6666ff" cx="1943.15" cy="-1546.77" rx="150.27" ry="18"/>
<text text-anchor="middle" x="1943.15" y="-1543.07" font-family="FreeSans" font-size="14.00" fill="#6666ff">Metamodel::AttributeContainer</text>
</a>
</g>
</g>
<!-- Metamodel::RoleContainer -->
<g id="node15" class="node">
<title>Metamodel::RoleContainer</title>
<g id="a_node15"><a xlink:href="/type/Metamodel::RoleContainer" xlink:title="Metamodel::RoleContainer">
<ellipse fill="none" stroke="#6666ff" cx="1744.85" cy="-1667.91" rx="129.98" ry="18"/>
<text text-anchor="middle" x="1744.85" y="-1664.21" font-family="FreeSans" font-size="14.00" fill="#6666ff">Metamodel::RoleContainer</text>
</a>
</g>
</g>
<!-- Metamodel::MultipleInheritance -->
<g id="node16" class="node">
<title>Metamodel::MultipleInheritance</title>
<g id="a_node16"><a xlink:href="/type/Metamodel::MultipleInheritance" xlink:title="Metamodel::MultipleInheritance">
<ellipse fill="none" stroke="#6666ff" cx="2154.28" cy="-1081.21" rx="153.27" ry="18"/>
<text text-anchor="middle" x="2154.28" y="-1077.51" font-family="FreeSans" font-size="14.00" fill="#6666ff">Metamodel::MultipleInheritance</text>
</a>
</g>
</g>
<!-- Metamodel::ParametricRoleHOW -->
<g id="node17" class="node">
<title>Metamodel::ParametricRoleHOW</title>
<g id="a_node17"><a xlink:href="/type/Metamodel::ParametricRoleHOW" xlink:title="Metamodel::ParametricRoleHOW">
<ellipse fill="none" stroke="#000000" cx="1587.64" cy="-1100.63" rx="157.07" ry="18"/>
<text text-anchor="middle" x="1587.64" y="-1096.93" font-family="FreeSans" font-size="14.00" fill="#000000">Metamodel::ParametricRoleHOW</text>
</a>
</g>
</g>
<!-- Metamodel::ParametricRoleHOW&#45;&gt;Metamodel::RolePunning -->
<g id="edge21" class="edge">
<title>Metamodel::ParametricRoleHOW&#45;&gt;Metamodel::RolePunning</title>
<path fill="none" stroke="#6666ff" d="M1558.72,-1082.77C1479.8,-1034.05 1260.82,-898.84 1173.19,-844.74"/>
<polygon fill="#6666ff" stroke="#6666ff" points="1174.99,-841.73 1164.64,-839.45 1171.31,-847.69 1174.99,-841.73"/>
</g>
<!-- Metamodel::ParametricRoleHOW&#45;&gt;Any -->
<g id="edge3" class="edge">
<title>Metamodel::ParametricRoleHOW&#45;&gt;Any</title>
<path fill="none" stroke="#000000" d="M1573.15,-1082.48C1512.16,-1006.06 1276.19,-710.42 1206.61,-623.24"/>
<polygon fill="#000000" stroke="#000000" points="1209.2,-620.88 1200.23,-615.24 1203.73,-625.24 1209.2,-620.88"/>
</g>
<!-- Metamodel::ParametricRoleHOW&#45;&gt;Metamodel::Naming -->
<g id="edge10" class="edge">
<title>Metamodel::ParametricRoleHOW&#45;&gt;Metamodel::Naming</title>
<path fill="none" stroke="#6666ff" d="M1563.16,-1118.5C1476.1,-1182.05 1181.36,-1397.16 1082.83,-1469.08"/>
<polygon fill="#6666ff" stroke="#6666ff" points="1080.47,-1466.47 1074.46,-1475.19 1084.6,-1472.12 1080.47,-1466.47"/>
</g>
<!-- Metamodel::ParametricRoleHOW&#45;&gt;Metamodel::Stashing -->
<g id="edge19" class="edge">
<title>Metamodel::ParametricRoleHOW&#45;&gt;Metamodel::Stashing</title>
<path fill="none" stroke="#6666ff" d="M1554.33,-1118.31C1475.39,-1160.22 1277.08,-1265.48 1190.64,-1311.37"/>
<polygon fill="#6666ff" stroke="#6666ff" points="1188.84,-1308.36 1181.65,-1316.14 1192.12,-1314.54 1188.84,-1308.36"/>
</g>
<!-- Metamodel::ParametricRoleHOW&#45;&gt;Metamodel::TypePretense -->
<g id="edge20" class="edge">
<title>Metamodel::ParametricRoleHOW&#45;&gt;Metamodel::TypePretense</title>
<path fill="none" stroke="#6666ff" d="M1510.12,-1084.97C1410.75,-1064.89 1239.2,-1030.22 1137.33,-1009.64"/>
<polygon fill="#6666ff" stroke="#6666ff" points="1137.89,-1006.18 1127.4,-1007.63 1136.5,-1013.04 1137.89,-1006.18"/>
</g>
<!-- Metamodel::ParametricRoleHOW&#45;&gt;Metamodel::Documenting -->
<g id="edge11" class="edge">
<title>Metamodel::ParametricRoleHOW&#45;&gt;Metamodel::Documenting</title>
<path fill="none" stroke="#6666ff" d="M1591.56,-1082.6C1609.06,-1002.11 1680.09,-675.31 1701.41,-577.23"/>
<polygon fill="#6666ff" stroke="#6666ff" points="1704.83,-577.96 1703.53,-567.45 1697.99,-576.48 1704.83,-577.96"/>
</g>
<!-- Metamodel::ParametricRoleHOW&#45;&gt;Metamodel::Versioning -->
<g id="edge12" class="edge">
<title>Metamodel::ParametricRoleHOW&#45;&gt;Metamodel::Versioning</title>
<path fill="none" stroke="#6666ff" d="M1620.93,-1082.9C1710.3,-1035.3 1955.35,-904.77 2053.49,-852.49"/>
<polygon fill="#6666ff" stroke="#6666ff" points="2055.34,-855.47 2062.52,-847.68 2052.05,-849.3 2055.34,-855.47"/>
</g>
<!-- Metamodel::ParametricRoleHOW&#45;&gt;Metamodel::MethodContainer -->
<g id="edge13" class="edge">
<title>Metamodel::ParametricRoleHOW&#45;&gt;Metamodel::MethodContainer</title>
<path fill="none" stroke="#6666ff" d="M1601.06,-1082.68C1655.77,-1009.48 1862.14,-733.4 1927.04,-646.58"/>
<polygon fill="#6666ff" stroke="#6666ff" points="1930.03,-648.42 1933.21,-638.32 1924.42,-644.23 1930.03,-648.42"/>
</g>
<!-- Metamodel::ParametricRoleHOW&#45;&gt;Metamodel::PrivateMethodContainer -->
<g id="edge14" class="edge">
<title>Metamodel::ParametricRoleHOW&#45;&gt;Metamodel::PrivateMethodContainer</title>
<path fill="none" stroke="#6666ff" d="M1582.9,-1118.92C1560.61,-1204.84 1466.24,-1568.64 1439.24,-1672.73"/>
<polygon fill="#6666ff" stroke="#6666ff" points="1435.83,-1671.95 1436.7,-1682.51 1442.6,-1673.71 1435.83,-1671.95"/>
</g>
<!-- Metamodel::ParametricRoleHOW&#45;&gt;Metamodel::MultiMethodContainer -->
<g id="edge15" class="edge">
<title>Metamodel::ParametricRoleHOW&#45;&gt;Metamodel::MultiMethodContainer</title>
<path fill="none" stroke="#6666ff" d="M1625.65,-1118.19C1717.33,-1160.55 1950.51,-1268.27 2051.27,-1314.82"/>
<polygon fill="#6666ff" stroke="#6666ff" points="2050.06,-1318.11 2060.6,-1319.13 2052.99,-1311.76 2050.06,-1318.11"/>
</g>
<!-- Metamodel::ParametricRoleHOW&#45;&gt;Metamodel::AttributeContainer -->
<g id="edge16" class="edge">
<title>Metamodel::ParametricRoleHOW&#45;&gt;Metamodel::AttributeContainer</title>
<path fill="none" stroke="#6666ff" d="M1602.02,-1118.67C1657.4,-1188.18 1857.1,-1438.78 1922.36,-1520.67"/>
<polygon fill="#6666ff" stroke="#6666ff" points="1919.62,-1522.86 1928.59,-1528.5 1925.1,-1518.5 1919.62,-1522.86"/>
</g>
<!-- Metamodel::ParametricRoleHOW&#45;&gt;Metamodel::RoleContainer -->
<g id="edge17" class="edge">
<title>Metamodel::ParametricRoleHOW&#45;&gt;Metamodel::RoleContainer</title>
<path fill="none" stroke="#6666ff" d="M1592.69,-1118.86C1615.56,-1201.38 1709.45,-1540.16 1737.13,-1640.06"/>
<polygon fill="#6666ff" stroke="#6666ff" points="1733.77,-1641.05 1739.82,-1649.75 1740.52,-1639.18 1733.77,-1641.05"/>
</g>
<!-- Metamodel::ParametricRoleHOW&#45;&gt;Metamodel::MultipleInheritance -->
<g id="edge18" class="edge">
<title>Metamodel::ParametricRoleHOW&#45;&gt;Metamodel::MultipleInheritance</title>
<path fill="none" stroke="#6666ff" d="M1738.37,-1095.47C1818.08,-1092.73 1915.85,-1089.38 1996.57,-1086.62"/>
<polygon fill="#6666ff" stroke="#6666ff" points="1996.96,-1090.11 2006.84,-1086.27 1996.72,-1083.11 1996.96,-1090.11"/>
</g>
<!-- Metamodel::CurriedRoleHOW -->
<g id="node18" class="node">
<title>Metamodel::CurriedRoleHOW</title>
<g id="a_node18"><a xlink:href="/type/Metamodel::CurriedRoleHOW" xlink:title="Metamodel::CurriedRoleHOW">
<ellipse fill="none" stroke="#000000" cx="749.91" cy="-472.23" rx="142.17" ry="18"/>
<text text-anchor="middle" x="749.91" y="-468.53" font-family="FreeSans" font-size="14.00" fill="#000000">Metamodel::CurriedRoleHOW</text>
</a>
</g>
</g>
<!-- Metamodel::CurriedRoleHOW&#45;&gt;Metamodel::RolePunning -->
<g id="edge22" class="edge">
<title>Metamodel::CurriedRoleHOW&#45;&gt;Metamodel::RolePunning</title>
<path fill="none" stroke="#6666ff" d="M769.86,-490.3C833.97,-548.32 1034.75,-730.06 1108.62,-796.92"/>
<polygon fill="#6666ff" stroke="#6666ff" points="1106.41,-799.64 1116.18,-803.76 1111.11,-794.45 1106.41,-799.64"/>
</g>
<!-- Metamodel::CurriedRoleHOW&#45;&gt;Any -->
<g id="edge4" class="edge">
<title>Metamodel::CurriedRoleHOW&#45;&gt;Any</title>
<path fill="none" stroke="#000000" d="M807.07,-488.79C898.5,-515.28 1075.05,-566.43 1151,-588.43"/>
<polygon fill="#000000" stroke="#000000" points="1150.45,-591.92 1161.03,-591.34 1152.4,-585.19 1150.45,-591.92"/>
</g>
<!-- Metamodel::CurriedRoleHOW&#45;&gt;Metamodel::TypePretense -->
<g id="edge23" class="edge">
<title>Metamodel::CurriedRoleHOW&#45;&gt;Metamodel::TypePretense</title>
<path fill="none" stroke="#6666ff" d="M760.57,-490.46C806.12,-568.33 984.56,-873.36 1038.78,-966.04"/>
<polygon fill="#6666ff" stroke="#6666ff" points="1035.84,-967.96 1043.91,-974.82 1041.89,-964.42 1035.84,-967.96"/>
</g>
</g>
</svg>
