<?xml version="1.0" encoding="UTF-8" standalone="no"?>
<!DOCTYPE svg PUBLIC "-//W3C//DTD SVG 1.1//EN"
 "http://www.w3.org/Graphics/SVG/1.1/DTD/svg11.dtd">
<!-- Generated by graphviz version 2.42.3 (0)
 -->
<!-- Title: perl6&#45;type&#45;graph Pages: 1 -->
<svg width="718pt" height="404pt"
 viewBox="0.00 0.00 717.77 404.00" xmlns="http://www.w3.org/2000/svg" xmlns:xlink="http://www.w3.org/1999/xlink">
<g id="graph0" class="graph" transform="scale(1 1) rotate(0) translate(4 400)">
<title>perl6&#45;type&#45;graph</title>
<polygon fill="white" stroke="transparent" points="-4,4 -4,-400 713.77,-400 713.77,4 -4,4"/>
<!-- X::Pod -->
<g id="node1" class="node">
<title>X::Pod</title>
<g id="a_node1"><a xlink:href="/type/X::Pod" xlink:title="X::Pod">
<ellipse fill="none" stroke="#6666ff" cx="328.58" cy="-90" rx="39.79" ry="18"/>
<text text-anchor="middle" x="328.58" y="-86.3" font-family="FreeSans" font-size="14.00" fill="#6666ff">X::Pod</text>
</a>
</g>
</g>
<!-- Mu -->
<g id="node2" class="node">
<title>Mu</title>
<g id="a_node2"><a xlink:href="/type/Mu" xlink:title="Mu">
<ellipse fill="none" stroke="#000000" cx="439.58" cy="-378" rx="27" ry="18"/>
<text text-anchor="middle" x="439.58" y="-374.3" font-family="FreeSans" font-size="14.00" fill="#000000">Mu</text>
</a>
</g>
</g>
<!-- Any -->
<g id="node3" class="node">
<title>Any</title>
<g id="a_node3"><a xlink:href="/type/Any" xlink:title="Any">
<ellipse fill="none" stroke="#000000" cx="439.58" cy="-306" rx="28.7" ry="18"/>
<text text-anchor="middle" x="439.58" y="-302.3" font-family="FreeSans" font-size="14.00" fill="#000000">Any</text>
</a>
</g>
</g>
<!-- Any&#45;&gt;Mu -->
<g id="edge1" class="edge">
<title>Any&#45;&gt;Mu</title>
<path fill="none" stroke="#000000" d="M439.58,-324.3C439.58,-332.02 439.58,-341.29 439.58,-349.89"/>
<polygon fill="#000000" stroke="#000000" points="436.08,-349.9 439.58,-359.9 443.08,-349.9 436.08,-349.9"/>
</g>
<!-- Exception -->
<g id="node4" class="node">
<title>Exception</title>
<g id="a_node4"><a xlink:href="/type/Exception" xlink:title="Exception">
<ellipse fill="none" stroke="#000000" cx="439.58" cy="-234" rx="55.49" ry="18"/>
<text text-anchor="middle" x="439.58" y="-230.3" font-family="FreeSans" font-size="14.00" fill="#000000">Exception</text>
</a>
</g>
</g>
<!-- Exception&#45;&gt;Any -->
<g id="edge2" class="edge">
<title>Exception&#45;&gt;Any</title>
<path fill="none" stroke="#000000" d="M439.58,-252.3C439.58,-260.02 439.58,-269.29 439.58,-277.89"/>
<polygon fill="#000000" stroke="#000000" points="436.08,-277.9 439.58,-287.9 443.08,-277.9 436.08,-277.9"/>
</g>
<!-- X::Comp -->
<g id="node5" class="node">
<title>X::Comp</title>
<g id="a_node5"><a xlink:href="/type/X::Comp" xlink:title="X::Comp">
<ellipse fill="none" stroke="#6666ff" cx="401.58" cy="-162" rx="49.29" ry="18"/>
<text text-anchor="middle" x="401.58" y="-158.3" font-family="FreeSans" font-size="14.00" fill="#6666ff">X::Comp</text>
</a>
</g>
</g>
<!-- X::Comp&#45;&gt;Exception -->
<g id="edge3" class="edge">
<title>X::Comp&#45;&gt;Exception</title>
<path fill="none" stroke="#000000" d="M410.78,-179.95C415.22,-188.11 420.63,-198.09 425.56,-207.18"/>
<polygon fill="#000000" stroke="#000000" points="422.62,-209.09 430.47,-216.21 428.77,-205.75 422.62,-209.09"/>
</g>
<!-- X::Syntax -->
<g id="node6" class="node">
<title>X::Syntax</title>
<g id="a_node6"><a xlink:href="/type/X::Syntax" xlink:title="X::Syntax">
<ellipse fill="none" stroke="#6666ff" cx="453.58" cy="-90" rx="53.89" ry="18"/>
<text text-anchor="middle" x="453.58" y="-86.3" font-family="FreeSans" font-size="14.00" fill="#6666ff">X::Syntax</text>
</a>
</g>
</g>
<!-- X::Syntax&#45;&gt;Exception -->
<g id="edge4" class="edge">
<title>X::Syntax&#45;&gt;Exception</title>
<path fill="none" stroke="#000000" d="M455.52,-108.06C457.27,-123.55 459.58,-144 459.58,-144 459.58,-144 459.58,-180 459.58,-180 459.58,-180 454.59,-193.24 449.59,-206.48"/>
<polygon fill="#000000" stroke="#000000" points="446.28,-205.35 446.02,-215.94 452.83,-207.82 446.28,-205.35"/>
</g>
<!-- X::Syntax&#45;&gt;X::Comp -->
<g id="edge7" class="edge">
<title>X::Syntax&#45;&gt;X::Comp</title>
<path fill="none" stroke="#6666ff" d="M441.26,-107.59C434.91,-116.13 427.05,-126.72 420,-136.21"/>
<polygon fill="#6666ff" stroke="#6666ff" points="416.97,-134.42 413.82,-144.53 422.59,-138.59 416.97,-134.42"/>
</g>
<!-- X::Syntax::Pod::BeginWithoutIdentifier -->
<g id="node7" class="node">
<title>X::Syntax::Pod::BeginWithoutIdentifier</title>
<g id="a_node7"><a xlink:href="/type/X::Syntax::Pod::BeginWithoutIdentifier" xlink:title="X::Syntax::Pod::BeginWithoutIdentifier">
<ellipse fill="none" stroke="#000000" cx="184.58" cy="-18" rx="184.67" ry="18"/>
<text text-anchor="middle" x="184.58" y="-14.3" font-family="FreeSans" font-size="14.00" fill="#000000">X::Syntax::Pod::BeginWithoutIdentifier</text>
</a>
</g>
</g>
<!-- X::Syntax::Pod::BeginWithoutIdentifier&#45;&gt;X::Pod -->
<g id="edge9" class="edge">
<title>X::Syntax::Pod::BeginWithoutIdentifier&#45;&gt;X::Pod</title>
<path fill="none" stroke="#6666ff" d="M219.08,-35.77C241.5,-46.67 270.66,-60.84 293.25,-71.82"/>
<polygon fill="#6666ff" stroke="#6666ff" points="291.96,-75.09 302.49,-76.31 295.02,-68.79 291.96,-75.09"/>
</g>
<!-- X::Syntax::Pod::BeginWithoutIdentifier&#45;&gt;Exception -->
<g id="edge5" class="edge">
<title>X::Syntax::Pod::BeginWithoutIdentifier&#45;&gt;Exception</title>
<path fill="none" stroke="#000000" d="M201.6,-36.23C242.62,-77.76 343.58,-180 343.58,-180 343.58,-180 376.56,-198.21 403.86,-213.28"/>
<polygon fill="#000000" stroke="#000000" points="402.4,-216.47 412.84,-218.24 405.78,-210.34 402.4,-216.47"/>
</g>
<!-- X::Syntax::Pod::BeginWithoutIdentifier&#45;&gt;X::Syntax -->
<g id="edge8" class="edge">
<title>X::Syntax::Pod::BeginWithoutIdentifier&#45;&gt;X::Syntax</title>
<path fill="none" stroke="#6666ff" d="M246.3,-35.06C293.6,-47.37 358.08,-64.15 402.51,-75.71"/>
<polygon fill="#6666ff" stroke="#6666ff" points="401.67,-79.11 412.22,-78.24 403.43,-72.33 401.67,-79.11"/>
</g>
<!-- X::Syntax::Pod::BeginWithoutEnd -->
<g id="node8" class="node">
<title>X::Syntax::Pod::BeginWithoutEnd</title>
<g id="a_node8"><a xlink:href="/type/X::Syntax::Pod::BeginWithoutEnd" xlink:title="X::Syntax::Pod::BeginWithoutEnd">
<ellipse fill="none" stroke="#000000" cx="548.58" cy="-18" rx="161.37" ry="18"/>
<text text-anchor="middle" x="548.58" y="-14.3" font-family="FreeSans" font-size="14.00" fill="#000000">X::Syntax::Pod::BeginWithoutEnd</text>
</a>
</g>
</g>
<!-- X::Syntax::Pod::BeginWithoutEnd&#45;&gt;X::Pod -->
<g id="edge11" class="edge">
<title>X::Syntax::Pod::BeginWithoutEnd&#45;&gt;X::Pod</title>
<path fill="none" stroke="#6666ff" d="M497.83,-35.15C458.98,-47.51 406.06,-64.35 369.8,-75.89"/>
<polygon fill="#6666ff" stroke="#6666ff" points="368.51,-72.62 360.04,-78.99 370.63,-79.29 368.51,-72.62"/>
</g>
<!-- X::Syntax::Pod::BeginWithoutEnd&#45;&gt;Exception -->
<g id="edge6" class="edge">
<title>X::Syntax::Pod::BeginWithoutEnd&#45;&gt;Exception</title>
<path fill="none" stroke="#000000" d="M542.41,-36.16C533.11,-62.02 516.58,-108 516.58,-108 516.58,-108 473.58,-180 473.58,-180 473.58,-180 464.65,-193.93 455.94,-207.51"/>
<polygon fill="#000000" stroke="#000000" points="452.8,-205.92 450.34,-216.23 458.69,-209.7 452.8,-205.92"/>
</g>
<!-- X::Syntax::Pod::BeginWithoutEnd&#45;&gt;X::Syntax -->
<g id="edge10" class="edge">
<title>X::Syntax::Pod::BeginWithoutEnd&#45;&gt;X::Syntax</title>
<path fill="none" stroke="#6666ff" d="M525.59,-35.95C512.76,-45.39 496.66,-57.26 482.93,-67.37"/>
<polygon fill="#6666ff" stroke="#6666ff" points="480.72,-64.66 474.74,-73.41 484.87,-70.29 480.72,-64.66"/>
</g>
</g>
</svg>
