<?xml version="1.0" encoding="UTF-8" standalone="no"?>
<!DOCTYPE svg PUBLIC "-//W3C//DTD SVG 1.1//EN"
 "http://www.w3.org/Graphics/SVG/1.1/DTD/svg11.dtd">
<!-- Generated by graphviz version 2.42.3 (0)
 -->
<!-- Title: perl6&#45;type&#45;graph Pages: 1 -->
<svg width="537pt" height="332pt"
 viewBox="0.00 0.00 536.59 332.00" xmlns="http://www.w3.org/2000/svg" xmlns:xlink="http://www.w3.org/1999/xlink">
<g id="graph0" class="graph" transform="scale(1 1) rotate(0) translate(4 328)">
<title>perl6&#45;type&#45;graph</title>
<polygon fill="white" stroke="transparent" points="-4,4 -4,-328 532.59,-328 532.59,4 -4,4"/>
<!-- IO::Spec -->
<g id="node1" class="node">
<title>IO::Spec</title>
<g id="a_node1"><a xlink:href="/type/IO::Spec" xlink:title="IO::Spec">
<ellipse fill="none" stroke="#000000" cx="272.19" cy="-162" rx="48.99" ry="18"/>
<text text-anchor="middle" x="272.19" y="-158.3" font-family="FreeSans" font-size="14.00" fill="#000000">IO::Spec</text>
</a>
</g>
</g>
<!-- Any -->
<g id="node3" class="node">
<title>Any</title>
<g id="a_node3"><a xlink:href="/type/Any" xlink:title="Any">
<ellipse fill="none" stroke="#000000" cx="272.19" cy="-234" rx="28.7" ry="18"/>
<text text-anchor="middle" x="272.19" y="-230.3" font-family="FreeSans" font-size="14.00" fill="#000000">Any</text>
</a>
</g>
</g>
<!-- IO::Spec&#45;&gt;Any -->
<g id="edge1" class="edge">
<title>IO::Spec&#45;&gt;Any</title>
<path fill="none" stroke="#000000" d="M272.19,-180.3C272.19,-188.02 272.19,-197.29 272.19,-205.89"/>
<polygon fill="#000000" stroke="#000000" points="268.69,-205.9 272.19,-215.9 275.69,-205.9 268.69,-205.9"/>
</g>
<!-- Mu -->
<g id="node2" class="node">
<title>Mu</title>
<g id="a_node2"><a xlink:href="/type/Mu" xlink:title="Mu">
<ellipse fill="none" stroke="#000000" cx="272.19" cy="-306" rx="27" ry="18"/>
<text text-anchor="middle" x="272.19" y="-302.3" font-family="FreeSans" font-size="14.00" fill="#000000">Mu</text>
</a>
</g>
</g>
<!-- Any&#45;&gt;Mu -->
<g id="edge2" class="edge">
<title>Any&#45;&gt;Mu</title>
<path fill="none" stroke="#000000" d="M272.19,-252.3C272.19,-260.02 272.19,-269.29 272.19,-277.89"/>
<polygon fill="#000000" stroke="#000000" points="268.69,-277.9 272.19,-287.9 275.69,-277.9 268.69,-277.9"/>
</g>
<!-- IO::Spec::Unix -->
<g id="node4" class="node">
<title>IO::Spec::Unix</title>
<g id="a_node4"><a xlink:href="/type/IO::Spec::Unix" xlink:title="IO::Spec::Unix">
<ellipse fill="none" stroke="#000000" cx="272.19" cy="-90" rx="75.29" ry="18"/>
<text text-anchor="middle" x="272.19" y="-86.3" font-family="FreeSans" font-size="14.00" fill="#000000">IO::Spec::Unix</text>
</a>
</g>
</g>
<!-- IO::Spec::Unix&#45;&gt;IO::Spec -->
<g id="edge3" class="edge">
<title>IO::Spec::Unix&#45;&gt;IO::Spec</title>
<path fill="none" stroke="#000000" d="M272.19,-108.3C272.19,-116.02 272.19,-125.29 272.19,-133.89"/>
<polygon fill="#000000" stroke="#000000" points="268.69,-133.9 272.19,-143.9 275.69,-133.9 268.69,-133.9"/>
</g>
<!-- IO::Spec::Win32 -->
<g id="node5" class="node">
<title>IO::Spec::Win32</title>
<g id="a_node5"><a xlink:href="/type/IO::Spec::Win32" xlink:title="IO::Spec::Win32">
<ellipse fill="none" stroke="#000000" cx="83.19" cy="-18" rx="83.39" ry="18"/>
<text text-anchor="middle" x="83.19" y="-14.3" font-family="FreeSans" font-size="14.00" fill="#000000">IO::Spec::Win32</text>
</a>
</g>
</g>
<!-- IO::Spec::Win32&#45;&gt;IO::Spec::Unix -->
<g id="edge4" class="edge">
<title>IO::Spec::Win32&#45;&gt;IO::Spec::Unix</title>
<path fill="none" stroke="#000000" d="M123.27,-33.85C152.51,-44.67 192.29,-59.4 223.37,-70.92"/>
<polygon fill="#000000" stroke="#000000" points="222.55,-74.34 233.14,-74.54 224.98,-67.78 222.55,-74.34"/>
</g>
<!-- IO::Spec::Cygwin -->
<g id="node6" class="node">
<title>IO::Spec::Cygwin</title>
<g id="a_node6"><a xlink:href="/type/IO::Spec::Cygwin" xlink:title="IO::Spec::Cygwin">
<ellipse fill="none" stroke="#000000" cx="272.19" cy="-18" rx="87.99" ry="18"/>
<text text-anchor="middle" x="272.19" y="-14.3" font-family="FreeSans" font-size="14.00" fill="#000000">IO::Spec::Cygwin</text>
</a>
</g>
</g>
<!-- IO::Spec::Cygwin&#45;&gt;IO::Spec::Unix -->
<g id="edge5" class="edge">
<title>IO::Spec::Cygwin&#45;&gt;IO::Spec::Unix</title>
<path fill="none" stroke="#000000" d="M272.19,-36.3C272.19,-44.02 272.19,-53.29 272.19,-61.89"/>
<polygon fill="#000000" stroke="#000000" points="268.69,-61.9 272.19,-71.9 275.69,-61.9 268.69,-61.9"/>
</g>
<!-- IO::Spec::QNX -->
<g id="node7" class="node">
<title>IO::Spec::QNX</title>
<g id="a_node7"><a xlink:href="/type/IO::Spec::QNX" xlink:title="IO::Spec::QNX">
<ellipse fill="none" stroke="#000000" cx="453.19" cy="-18" rx="75.29" ry="18"/>
<text text-anchor="middle" x="453.19" y="-14.3" font-family="FreeSans" font-size="14.00" fill="#000000">IO::Spec::QNX</text>
</a>
</g>
</g>
<!-- IO::Spec::QNX&#45;&gt;IO::Spec::Unix -->
<g id="edge6" class="edge">
<title>IO::Spec::QNX&#45;&gt;IO::Spec::Unix</title>
<path fill="none" stroke="#000000" d="M415.25,-33.67C387.37,-44.45 349.32,-59.17 319.47,-70.72"/>
<polygon fill="#000000" stroke="#000000" points="318.15,-67.47 310.09,-74.35 320.68,-74 318.15,-67.47"/>
</g>
</g>
</svg>
