<?xml version="1.0" encoding="UTF-8" standalone="no"?>
<!DOCTYPE svg PUBLIC "-//W3C//DTD SVG 1.1//EN"
 "http://www.w3.org/Graphics/SVG/1.1/DTD/svg11.dtd">
<!-- Generated by graphviz version 2.42.3 (0)
 -->
<!-- Title: perl6&#45;type&#45;graph Pages: 1 -->
<svg width="834pt" height="788pt"
 viewBox="0.00 0.00 834.42 788.12" xmlns="http://www.w3.org/2000/svg" xmlns:xlink="http://www.w3.org/1999/xlink">
<g id="graph0" class="graph" transform="scale(1 1) rotate(0) translate(4 784.12)">
<title>perl6&#45;type&#45;graph</title>
<polygon fill="white" stroke="transparent" points="-4,4 -4,-784.12 830.42,-784.12 830.42,4 -4,4"/>
<!-- Metamodel::ModuleHOW -->
<g id="node1" class="node">
<title>Metamodel::ModuleHOW</title>
<g id="a_node1"><a xlink:href="/type/Metamodel::ModuleHOW" xlink:title="Metamodel::ModuleHOW">
<ellipse fill="none" stroke="#000000" cx="393.61" cy="-464.26" rx="122.38" ry="18"/>
<text text-anchor="middle" x="393.61" y="-460.56" font-family="FreeSans" font-size="14.00" fill="#000000">Metamodel::ModuleHOW</text>
</a>
</g>
</g>
<!-- Any -->
<g id="node3" class="node">
<title>Any</title>
<g id="a_node3"><a xlink:href="/type/Any" xlink:title="Any">
<ellipse fill="none" stroke="#000000" cx="596.5" cy="-220.82" rx="28.7" ry="18"/>
<text text-anchor="middle" x="596.5" y="-217.12" font-family="FreeSans" font-size="14.00" fill="#000000">Any</text>
</a>
</g>
</g>
<!-- Metamodel::ModuleHOW&#45;&gt;Any -->
<g id="edge1" class="edge">
<title>Metamodel::ModuleHOW&#45;&gt;Any</title>
<path fill="none" stroke="#000000" d="M408.53,-446.36C444.52,-403.18 536.11,-293.28 576.66,-244.62"/>
<polygon fill="#000000" stroke="#000000" points="579.45,-246.74 583.17,-236.82 574.08,-242.26 579.45,-246.74"/>
</g>
<!-- Metamodel::Naming -->
<g id="node4" class="node">
<title>Metamodel::Naming</title>
<g id="a_node4"><a xlink:href="/type/Metamodel::Naming" xlink:title="Metamodel::Naming">
<ellipse fill="none" stroke="#6666ff" cx="116.81" cy="-599.34" rx="101.28" ry="18"/>
<text text-anchor="middle" x="116.81" y="-595.64" font-family="FreeSans" font-size="14.00" fill="#6666ff">Metamodel::Naming</text>
</a>
</g>
</g>
<!-- Metamodel::ModuleHOW&#45;&gt;Metamodel::Naming -->
<g id="edge3" class="edge">
<title>Metamodel::ModuleHOW&#45;&gt;Metamodel::Naming</title>
<path fill="none" stroke="#6666ff" d="M358.27,-481.51C307.85,-506.12 215.31,-551.27 160.6,-577.97"/>
<polygon fill="#6666ff" stroke="#6666ff" points="158.96,-574.88 151.5,-582.41 162.03,-581.17 158.96,-574.88"/>
</g>
<!-- Metamodel::Documenting -->
<g id="node5" class="node">
<title>Metamodel::Documenting</title>
<g id="a_node5"><a xlink:href="/type/Metamodel::Documenting" xlink:title="Metamodel::Documenting">
<ellipse fill="none" stroke="#6666ff" cx="562.19" cy="-726.82" rx="126.98" ry="18"/>
<text text-anchor="middle" x="562.19" y="-723.12" font-family="FreeSans" font-size="14.00" fill="#6666ff">Metamodel::Documenting</text>
</a>
</g>
</g>
<!-- Metamodel::ModuleHOW&#45;&gt;Metamodel::Documenting -->
<g id="edge4" class="edge">
<title>Metamodel::ModuleHOW&#45;&gt;Metamodel::Documenting</title>
<path fill="none" stroke="#6666ff" d="M405.2,-482.31C434.31,-527.65 510.64,-646.54 545,-700.05"/>
<polygon fill="#6666ff" stroke="#6666ff" points="542.17,-702.12 550.52,-708.65 548.06,-698.34 542.17,-702.12"/>
</g>
<!-- Metamodel::Versioning -->
<g id="node6" class="node">
<title>Metamodel::Versioning</title>
<g id="a_node6"><a xlink:href="/type/Metamodel::Versioning" xlink:title="Metamodel::Versioning">
<ellipse fill="none" stroke="#6666ff" cx="313.04" cy="-762.12" rx="114.28" ry="18"/>
<text text-anchor="middle" x="313.04" y="-758.42" font-family="FreeSans" font-size="14.00" fill="#6666ff">Metamodel::Versioning</text>
</a>
</g>
</g>
<!-- Metamodel::ModuleHOW&#45;&gt;Metamodel::Versioning -->
<g id="edge5" class="edge">
<title>Metamodel::ModuleHOW&#45;&gt;Metamodel::Versioning</title>
<path fill="none" stroke="#6666ff" d="M388.69,-482.45C375.12,-532.61 337.08,-673.23 320.7,-733.79"/>
<polygon fill="#6666ff" stroke="#6666ff" points="317.23,-733.23 317.99,-743.79 323.98,-735.05 317.23,-733.23"/>
</g>
<!-- Metamodel::Stashing -->
<g id="node7" class="node">
<title>Metamodel::Stashing</title>
<g id="a_node7"><a xlink:href="/type/Metamodel::Stashing" xlink:title="Metamodel::Stashing">
<ellipse fill="none" stroke="#6666ff" cx="105.94" cy="-346.5" rx="105.88" ry="18"/>
<text text-anchor="middle" x="105.94" y="-342.8" font-family="FreeSans" font-size="14.00" fill="#6666ff">Metamodel::Stashing</text>
</a>
</g>
</g>
<!-- Metamodel::ModuleHOW&#45;&gt;Metamodel::Stashing -->
<g id="edge6" class="edge">
<title>Metamodel::ModuleHOW&#45;&gt;Metamodel::Stashing</title>
<path fill="none" stroke="#6666ff" d="M352.09,-447.27C300.31,-426.07 211.87,-389.86 156.29,-367.11"/>
<polygon fill="#6666ff" stroke="#6666ff" points="157.57,-363.85 146.98,-363.3 154.91,-370.33 157.57,-363.85"/>
</g>
<!-- Metamodel::TypePretense -->
<g id="node8" class="node">
<title>Metamodel::TypePretense</title>
<g id="a_node8"><a xlink:href="/type/Metamodel::TypePretense" xlink:title="Metamodel::TypePretense">
<ellipse fill="none" stroke="#6666ff" cx="689.79" cy="-519.48" rx="126.18" ry="18"/>
<text text-anchor="middle" x="689.79" y="-515.78" font-family="FreeSans" font-size="14.00" fill="#6666ff">Metamodel::TypePretense</text>
</a>
</g>
</g>
<!-- Metamodel::ModuleHOW&#45;&gt;Metamodel::TypePretense -->
<g id="edge7" class="edge">
<title>Metamodel::ModuleHOW&#45;&gt;Metamodel::TypePretense</title>
<path fill="none" stroke="#6666ff" d="M469.5,-478.41C510.28,-486.01 560.73,-495.42 603.05,-503.31"/>
<polygon fill="#6666ff" stroke="#6666ff" points="602.6,-506.78 613.07,-505.18 603.88,-499.9 602.6,-506.78"/>
</g>
<!-- Metamodel::MethodDelegation -->
<g id="node9" class="node">
<title>Metamodel::MethodDelegation</title>
<g id="a_node9"><a xlink:href="/type/Metamodel::MethodDelegation" xlink:title="Metamodel::MethodDelegation">
<ellipse fill="none" stroke="#6666ff" cx="286.4" cy="-180.37" rx="148.37" ry="18"/>
<text text-anchor="middle" x="286.4" y="-176.67" font-family="FreeSans" font-size="14.00" fill="#6666ff">Metamodel::MethodDelegation</text>
</a>
</g>
</g>
<!-- Metamodel::ModuleHOW&#45;&gt;Metamodel::MethodDelegation -->
<g id="edge8" class="edge">
<title>Metamodel::ModuleHOW&#45;&gt;Metamodel::MethodDelegation</title>
<path fill="none" stroke="#6666ff" d="M386.74,-446.07C368.47,-397.7 318.61,-265.66 296.82,-207.96"/>
<polygon fill="#6666ff" stroke="#6666ff" points="300.02,-206.53 293.22,-198.41 293.48,-209 300.02,-206.53"/>
</g>
<!-- Mu -->
<g id="node2" class="node">
<title>Mu</title>
<g id="a_node2"><a xlink:href="/type/Mu" xlink:title="Mu">
<ellipse fill="none" stroke="#000000" cx="799.42" cy="-18" rx="27" ry="18"/>
<text text-anchor="middle" x="799.42" y="-14.3" font-family="FreeSans" font-size="14.00" fill="#000000">Mu</text>
</a>
</g>
</g>
<!-- Any&#45;&gt;Mu -->
<g id="edge2" class="edge">
<title>Any&#45;&gt;Mu</title>
<path fill="none" stroke="#000000" d="M611.75,-205.58C647.24,-170.11 735.48,-81.9 777.07,-40.34"/>
<polygon fill="#000000" stroke="#000000" points="779.67,-42.69 784.27,-33.14 774.72,-37.74 779.67,-42.69"/>
</g>
</g>
</svg>
