<?xml version="1.0" encoding="UTF-8" standalone="no"?>
<!DOCTYPE svg PUBLIC "-//W3C//DTD SVG 1.1//EN"
 "http://www.w3.org/Graphics/SVG/1.1/DTD/svg11.dtd">
<!-- Generated by graphviz version 2.42.3 (0)
 -->
<!-- Title: perl6&#45;type&#45;graph Pages: 1 -->
<svg width="599pt" height="649pt"
 viewBox="0.00 0.00 598.93 649.46" xmlns="http://www.w3.org/2000/svg" xmlns:xlink="http://www.w3.org/1999/xlink">
<g id="graph0" class="graph" transform="scale(1 1) rotate(0) translate(4 645.46)">
<title>perl6&#45;type&#45;graph</title>
<polygon fill="white" stroke="transparent" points="-4,4 -4,-645.46 594.93,-645.46 594.93,4 -4,4"/>
<!-- Metamodel::SubsetHOW -->
<g id="node1" class="node">
<title>Metamodel::SubsetHOW</title>
<g id="a_node1"><a xlink:href="/type/Metamodel::SubsetHOW" xlink:title="Metamodel::SubsetHOW">
<ellipse fill="none" stroke="#000000" cx="331.04" cy="-431.18" rx="120.48" ry="18"/>
<text text-anchor="middle" x="331.04" y="-427.48" font-family="FreeSans" font-size="14.00" fill="#000000">Metamodel::SubsetHOW</text>
</a>
</g>
</g>
<!-- Any -->
<g id="node3" class="node">
<title>Any</title>
<g id="a_node3"><a xlink:href="/type/Any" xlink:title="Any">
<ellipse fill="none" stroke="#000000" cx="417.26" cy="-217.01" rx="28.7" ry="18"/>
<text text-anchor="middle" x="417.26" y="-213.31" font-family="FreeSans" font-size="14.00" fill="#000000">Any</text>
</a>
</g>
</g>
<!-- Metamodel::SubsetHOW&#45;&gt;Any -->
<g id="edge1" class="edge">
<title>Metamodel::SubsetHOW&#45;&gt;Any</title>
<path fill="none" stroke="#000000" d="M338.4,-412.92C353.58,-375.19 388.49,-288.48 406.33,-244.16"/>
<polygon fill="#000000" stroke="#000000" points="409.69,-245.2 410.17,-234.62 403.19,-242.59 409.69,-245.2"/>
</g>
<!-- Metamodel::Naming -->
<g id="node4" class="node">
<title>Metamodel::Naming</title>
<g id="a_node4"><a xlink:href="/type/Metamodel::Naming" xlink:title="Metamodel::Naming">
<ellipse fill="none" stroke="#6666ff" cx="101.39" cy="-474.97" rx="101.28" ry="18"/>
<text text-anchor="middle" x="101.39" y="-471.27" font-family="FreeSans" font-size="14.00" fill="#6666ff">Metamodel::Naming</text>
</a>
</g>
</g>
<!-- Metamodel::SubsetHOW&#45;&gt;Metamodel::Naming -->
<g id="edge3" class="edge">
<title>Metamodel::SubsetHOW&#45;&gt;Metamodel::Naming</title>
<path fill="none" stroke="#6666ff" d="M256.48,-445.4C232.19,-450.03 205.15,-455.18 180.54,-459.88"/>
<polygon fill="#6666ff" stroke="#6666ff" points="179.69,-456.48 170.52,-461.79 181,-463.35 179.69,-456.48"/>
</g>
<!-- Metamodel::Documenting -->
<g id="node5" class="node">
<title>Metamodel::Documenting</title>
<g id="a_node5"><a xlink:href="/type/Metamodel::Documenting" xlink:title="Metamodel::Documenting">
<ellipse fill="none" stroke="#6666ff" cx="464.19" cy="-623.46" rx="126.98" ry="18"/>
<text text-anchor="middle" x="464.19" y="-619.76" font-family="FreeSans" font-size="14.00" fill="#6666ff">Metamodel::Documenting</text>
</a>
</g>
</g>
<!-- Metamodel::SubsetHOW&#45;&gt;Metamodel::Documenting -->
<g id="edge4" class="edge">
<title>Metamodel::SubsetHOW&#45;&gt;Metamodel::Documenting</title>
<path fill="none" stroke="#6666ff" d="M343.57,-449.27C367.16,-483.34 418.28,-557.16 445.79,-596.88"/>
<polygon fill="#6666ff" stroke="#6666ff" points="443.03,-599.05 451.6,-605.28 448.79,-595.06 443.03,-599.05"/>
</g>
<!-- Mu -->
<g id="node2" class="node">
<title>Mu</title>
<g id="a_node2"><a xlink:href="/type/Mu" xlink:title="Mu">
<ellipse fill="none" stroke="#000000" cx="511.49" cy="-18" rx="27" ry="18"/>
<text text-anchor="middle" x="511.49" y="-14.3" font-family="FreeSans" font-size="14.00" fill="#000000">Mu</text>
</a>
</g>
</g>
<!-- Any&#45;&gt;Mu -->
<g id="edge2" class="edge">
<title>Any&#45;&gt;Mu</title>
<path fill="none" stroke="#000000" d="M425.46,-199.7C441.96,-164.85 479.27,-86.06 498.89,-44.62"/>
<polygon fill="#000000" stroke="#000000" points="502.13,-45.95 503.25,-35.41 495.8,-42.95 502.13,-45.95"/>
</g>
</g>
</svg>
