<?xml version="1.0" encoding="UTF-8" standalone="no"?>
<!DOCTYPE svg PUBLIC "-//W3C//DTD SVG 1.1//EN"
 "http://www.w3.org/Graphics/SVG/1.1/DTD/svg11.dtd">
<!-- Generated by graphviz version 2.42.3 (0)
 -->
<!-- Title: perl6&#45;type&#45;graph Pages: 1 -->
<svg width="268pt" height="404pt"
 viewBox="0.00 0.00 267.98 404.00" xmlns="http://www.w3.org/2000/svg" xmlns:xlink="http://www.w3.org/1999/xlink">
<g id="graph0" class="graph" transform="scale(1 1) rotate(0) translate(4 400)">
<title>perl6&#45;type&#45;graph</title>
<polygon fill="white" stroke="transparent" points="-4,4 -4,-400 263.98,-400 263.98,4 -4,4"/>
<!-- X::Syntax::Variable::Match -->
<g id="node1" class="node">
<title>X::Syntax::Variable::Match</title>
<g id="a_node1"><a xlink:href="/type/X::Syntax::Variable::Match" xlink:title="X::Syntax::Variable::Match">
<ellipse fill="none" stroke="#000000" cx="129.99" cy="-18" rx="129.98" ry="18"/>
<text text-anchor="middle" x="129.99" y="-14.3" font-family="FreeSans" font-size="14.00" fill="#000000">X::Syntax::Variable::Match</text>
</a>
</g>
</g>
<!-- Exception -->
<g id="node4" class="node">
<title>Exception</title>
<g id="a_node4"><a xlink:href="/type/Exception" xlink:title="Exception">
<ellipse fill="none" stroke="#000000" cx="126.99" cy="-234" rx="55.49" ry="18"/>
<text text-anchor="middle" x="126.99" y="-230.3" font-family="FreeSans" font-size="14.00" fill="#000000">Exception</text>
</a>
</g>
</g>
<!-- X::Syntax::Variable::Match&#45;&gt;Exception -->
<g id="edge1" class="edge">
<title>X::Syntax::Variable::Match&#45;&gt;Exception</title>
<path fill="none" stroke="#000000" d="M122.91,-36.06C116.48,-51.55 107.99,-72 107.99,-72 107.99,-72 107.99,-108 107.99,-108 107.99,-108 117.26,-169.01 122.85,-205.78"/>
<polygon fill="#000000" stroke="#000000" points="119.42,-206.52 124.39,-215.88 126.34,-205.47 119.42,-206.52"/>
</g>
<!-- X::Syntax -->
<g id="node6" class="node">
<title>X::Syntax</title>
<g id="a_node6"><a xlink:href="/type/X::Syntax" xlink:title="X::Syntax">
<ellipse fill="none" stroke="#6666ff" cx="170.99" cy="-90" rx="53.89" ry="18"/>
<text text-anchor="middle" x="170.99" y="-86.3" font-family="FreeSans" font-size="14.00" fill="#6666ff">X::Syntax</text>
</a>
</g>
</g>
<!-- X::Syntax::Variable::Match&#45;&gt;X::Syntax -->
<g id="edge6" class="edge">
<title>X::Syntax::Variable::Match&#45;&gt;X::Syntax</title>
<path fill="none" stroke="#6666ff" d="M140.12,-36.3C144.84,-44.36 150.55,-54.11 155.77,-63.02"/>
<polygon fill="#6666ff" stroke="#6666ff" points="152.9,-65.04 160.97,-71.9 158.94,-61.5 152.9,-65.04"/>
</g>
<!-- Mu -->
<g id="node2" class="node">
<title>Mu</title>
<g id="a_node2"><a xlink:href="/type/Mu" xlink:title="Mu">
<ellipse fill="none" stroke="#000000" cx="126.99" cy="-378" rx="27" ry="18"/>
<text text-anchor="middle" x="126.99" y="-374.3" font-family="FreeSans" font-size="14.00" fill="#000000">Mu</text>
</a>
</g>
</g>
<!-- Any -->
<g id="node3" class="node">
<title>Any</title>
<g id="a_node3"><a xlink:href="/type/Any" xlink:title="Any">
<ellipse fill="none" stroke="#000000" cx="126.99" cy="-306" rx="28.7" ry="18"/>
<text text-anchor="middle" x="126.99" y="-302.3" font-family="FreeSans" font-size="14.00" fill="#000000">Any</text>
</a>
</g>
</g>
<!-- Any&#45;&gt;Mu -->
<g id="edge2" class="edge">
<title>Any&#45;&gt;Mu</title>
<path fill="none" stroke="#000000" d="M126.99,-324.3C126.99,-332.02 126.99,-341.29 126.99,-349.89"/>
<polygon fill="#000000" stroke="#000000" points="123.49,-349.9 126.99,-359.9 130.49,-349.9 123.49,-349.9"/>
</g>
<!-- Exception&#45;&gt;Any -->
<g id="edge3" class="edge">
<title>Exception&#45;&gt;Any</title>
<path fill="none" stroke="#000000" d="M126.99,-252.3C126.99,-260.02 126.99,-269.29 126.99,-277.89"/>
<polygon fill="#000000" stroke="#000000" points="123.49,-277.9 126.99,-287.9 130.49,-277.9 123.49,-277.9"/>
</g>
<!-- X::Comp -->
<g id="node5" class="node">
<title>X::Comp</title>
<g id="a_node5"><a xlink:href="/type/X::Comp" xlink:title="X::Comp">
<ellipse fill="none" stroke="#6666ff" cx="203.99" cy="-162" rx="49.29" ry="18"/>
<text text-anchor="middle" x="203.99" y="-158.3" font-family="FreeSans" font-size="14.00" fill="#6666ff">X::Comp</text>
</a>
</g>
</g>
<!-- X::Comp&#45;&gt;Exception -->
<g id="edge4" class="edge">
<title>X::Comp&#45;&gt;Exception</title>
<path fill="none" stroke="#000000" d="M186.52,-178.88C176.35,-188.13 163.36,-199.93 152.11,-210.16"/>
<polygon fill="#000000" stroke="#000000" points="149.7,-207.62 144.66,-216.94 154.41,-212.8 149.7,-207.62"/>
</g>
<!-- X::Syntax&#45;&gt;Exception -->
<g id="edge5" class="edge">
<title>X::Syntax&#45;&gt;Exception</title>
<path fill="none" stroke="#000000" d="M162.94,-108.06C155.63,-123.55 145.99,-144 145.99,-144 145.99,-144 138.34,-179.83 132.75,-206.03"/>
<polygon fill="#000000" stroke="#000000" points="129.32,-205.33 130.65,-215.84 136.16,-206.79 129.32,-205.33"/>
</g>
<!-- X::Syntax&#45;&gt;X::Comp -->
<g id="edge7" class="edge">
<title>X::Syntax&#45;&gt;X::Comp</title>
<path fill="none" stroke="#6666ff" d="M178.98,-107.95C182.79,-116.03 187.43,-125.88 191.68,-134.89"/>
<polygon fill="#6666ff" stroke="#6666ff" points="188.64,-136.66 196.07,-144.21 194.98,-133.67 188.64,-136.66"/>
</g>
</g>
</svg>
