<?xml version="1.0" encoding="UTF-8" standalone="no"?>
<!DOCTYPE svg PUBLIC "-//W3C//DTD SVG 1.1//EN"
 "http://www.w3.org/Graphics/SVG/1.1/DTD/svg11.dtd">
<!-- Generated by graphviz version 2.42.3 (0)
 -->
<!-- Title: perl6&#45;type&#45;graph Pages: 1 -->
<svg width="1750pt" height="1416pt"
 viewBox="0.00 0.00 1749.92 1415.84" xmlns="http://www.w3.org/2000/svg" xmlns:xlink="http://www.w3.org/1999/xlink">
<g id="graph0" class="graph" transform="scale(1 1) rotate(0) translate(4 1411.84)">
<title>perl6&#45;type&#45;graph</title>
<polygon fill="white" stroke="transparent" points="-4,4 -4,-1411.84 1745.92,-1411.84 1745.92,4 -4,4"/>
<!-- Metamodel::MethodContainer -->
<g id="node1" class="node">
<title>Metamodel::MethodContainer</title>
<g id="a_node1"><a xlink:href="/type/Metamodel::MethodContainer" xlink:title="Metamodel::MethodContainer">
<ellipse fill="none" stroke="#6666ff" cx="861.5" cy="-840.06" rx="143.77" ry="18"/>
<text text-anchor="middle" x="861.5" y="-836.36" font-family="FreeSans" font-size="14.00" fill="#6666ff">Metamodel::MethodContainer</text>
</a>
</g>
</g>
<!-- Mu -->
<g id="node2" class="node">
<title>Mu</title>
<g id="a_node2"><a xlink:href="/type/Mu" xlink:title="Mu">
<ellipse fill="none" stroke="#000000" cx="1063.95" cy="-18" rx="27" ry="18"/>
<text text-anchor="middle" x="1063.95" y="-14.3" font-family="FreeSans" font-size="14.00" fill="#000000">Mu</text>
</a>
</g>
</g>
<!-- Any -->
<g id="node3" class="node">
<title>Any</title>
<g id="a_node3"><a xlink:href="/type/Any" xlink:title="Any">
<ellipse fill="none" stroke="#000000" cx="913.63" cy="-426.82" rx="28.7" ry="18"/>
<text text-anchor="middle" x="913.63" y="-423.12" font-family="FreeSans" font-size="14.00" fill="#000000">Any</text>
</a>
</g>
</g>
<!-- Any&#45;&gt;Mu -->
<g id="edge1" class="edge">
<title>Any&#45;&gt;Mu</title>
<path fill="none" stroke="#000000" d="M920.09,-409.26C943.7,-345.05 1025.43,-122.76 1054,-45.06"/>
<polygon fill="#000000" stroke="#000000" points="1057.35,-46.09 1057.52,-35.5 1050.78,-43.68 1057.35,-46.09"/>
</g>
<!-- Metamodel::Naming -->
<g id="node4" class="node">
<title>Metamodel::Naming</title>
<g id="a_node4"><a xlink:href="/type/Metamodel::Naming" xlink:title="Metamodel::Naming">
<ellipse fill="none" stroke="#6666ff" cx="877.15" cy="-966.35" rx="101.28" ry="18"/>
<text text-anchor="middle" x="877.15" y="-962.65" font-family="FreeSans" font-size="14.00" fill="#6666ff">Metamodel::Naming</text>
</a>
</g>
</g>
<!-- Metamodel::Documenting -->
<g id="node5" class="node">
<title>Metamodel::Documenting</title>
<g id="a_node5"><a xlink:href="/type/Metamodel::Documenting" xlink:title="Metamodel::Documenting">
<ellipse fill="none" stroke="#6666ff" cx="896.47" cy="-1292.77" rx="126.98" ry="18"/>
<text text-anchor="middle" x="896.47" y="-1289.07" font-family="FreeSans" font-size="14.00" fill="#6666ff">Metamodel::Documenting</text>
</a>
</g>
</g>
<!-- Metamodel::Versioning -->
<g id="node6" class="node">
<title>Metamodel::Versioning</title>
<g id="a_node6"><a xlink:href="/type/Metamodel::Versioning" xlink:title="Metamodel::Versioning">
<ellipse fill="none" stroke="#6666ff" cx="1055.1" cy="-1173.29" rx="114.28" ry="18"/>
<text text-anchor="middle" x="1055.1" y="-1169.59" font-family="FreeSans" font-size="14.00" fill="#6666ff">Metamodel::Versioning</text>
</a>
</g>
</g>
<!-- Metamodel::PrivateMethodContainer -->
<g id="node7" class="node">
<title>Metamodel::PrivateMethodContainer</title>
<g id="a_node7"><a xlink:href="/type/Metamodel::PrivateMethodContainer" xlink:title="Metamodel::PrivateMethodContainer">
<ellipse fill="none" stroke="#6666ff" cx="1080.44" cy="-1079.36" rx="174.67" ry="18"/>
<text text-anchor="middle" x="1080.44" y="-1075.66" font-family="FreeSans" font-size="14.00" fill="#6666ff">Metamodel::PrivateMethodContainer</text>
</a>
</g>
</g>
<!-- Metamodel::MultiMethodContainer -->
<g id="node8" class="node">
<title>Metamodel::MultiMethodContainer</title>
<g id="a_node8"><a xlink:href="/type/Metamodel::MultiMethodContainer" xlink:title="Metamodel::MultiMethodContainer">
<ellipse fill="none" stroke="#6666ff" cx="895.51" cy="-715.29" rx="165.97" ry="18"/>
<text text-anchor="middle" x="895.51" y="-711.59" font-family="FreeSans" font-size="14.00" fill="#6666ff">Metamodel::MultiMethodContainer</text>
</a>
</g>
</g>
<!-- Metamodel::AttributeContainer -->
<g id="node9" class="node">
<title>Metamodel::AttributeContainer</title>
<g id="a_node9"><a xlink:href="/type/Metamodel::AttributeContainer" xlink:title="Metamodel::AttributeContainer">
<ellipse fill="none" stroke="#6666ff" cx="810.97" cy="-500.72" rx="150.27" ry="18"/>
<text text-anchor="middle" x="810.97" y="-497.02" font-family="FreeSans" font-size="14.00" fill="#6666ff">Metamodel::AttributeContainer</text>
</a>
</g>
</g>
<!-- Metamodel::RoleContainer -->
<g id="node10" class="node">
<title>Metamodel::RoleContainer</title>
<g id="a_node10"><a xlink:href="/type/Metamodel::RoleContainer" xlink:title="Metamodel::RoleContainer">
<ellipse fill="none" stroke="#6666ff" cx="846.8" cy="-605.87" rx="129.98" ry="18"/>
<text text-anchor="middle" x="846.8" y="-602.17" font-family="FreeSans" font-size="14.00" fill="#6666ff">Metamodel::RoleContainer</text>
</a>
</g>
</g>
<!-- Metamodel::MultipleInheritance -->
<g id="node11" class="node">
<title>Metamodel::MultipleInheritance</title>
<g id="a_node11"><a xlink:href="/type/Metamodel::MultipleInheritance" xlink:title="Metamodel::MultipleInheritance">
<ellipse fill="none" stroke="#6666ff" cx="1056.74" cy="-550.88" rx="153.27" ry="18"/>
<text text-anchor="middle" x="1056.74" y="-547.18" font-family="FreeSans" font-size="14.00" fill="#6666ff">Metamodel::MultipleInheritance</text>
</a>
</g>
</g>
<!-- Metamodel::Stashing -->
<g id="node12" class="node">
<title>Metamodel::Stashing</title>
<g id="a_node12"><a xlink:href="/type/Metamodel::Stashing" xlink:title="Metamodel::Stashing">
<ellipse fill="none" stroke="#6666ff" cx="717.86" cy="-1088.53" rx="105.88" ry="18"/>
<text text-anchor="middle" x="717.86" y="-1084.83" font-family="FreeSans" font-size="14.00" fill="#6666ff">Metamodel::Stashing</text>
</a>
</g>
</g>
<!-- Metamodel::TypePretense -->
<g id="node13" class="node">
<title>Metamodel::TypePretense</title>
<g id="a_node13"><a xlink:href="/type/Metamodel::TypePretense" xlink:title="Metamodel::TypePretense">
<ellipse fill="none" stroke="#6666ff" cx="1615.83" cy="-699.42" rx="126.18" ry="18"/>
<text text-anchor="middle" x="1615.83" y="-695.72" font-family="FreeSans" font-size="14.00" fill="#6666ff">Metamodel::TypePretense</text>
</a>
</g>
</g>
<!-- Metamodel::RolePunning -->
<g id="node14" class="node">
<title>Metamodel::RolePunning</title>
<g id="a_node14"><a xlink:href="/type/Metamodel::RolePunning" xlink:title="Metamodel::RolePunning">
<ellipse fill="none" stroke="#6666ff" cx="1587.81" cy="-1051.78" rx="122.68" ry="18"/>
<text text-anchor="middle" x="1587.81" y="-1048.08" font-family="FreeSans" font-size="14.00" fill="#6666ff">Metamodel::RolePunning</text>
</a>
</g>
</g>
<!-- Metamodel::ParametricRoleHOW -->
<g id="node15" class="node">
<title>Metamodel::ParametricRoleHOW</title>
<g id="a_node15"><a xlink:href="/type/Metamodel::ParametricRoleHOW" xlink:title="Metamodel::ParametricRoleHOW">
<ellipse fill="none" stroke="#000000" cx="1192.5" cy="-846.96" rx="157.07" ry="18"/>
<text text-anchor="middle" x="1192.5" y="-843.26" font-family="FreeSans" font-size="14.00" fill="#000000">Metamodel::ParametricRoleHOW</text>
</a>
</g>
</g>
<!-- Metamodel::ParametricRoleHOW&#45;&gt;Metamodel::MethodContainer -->
<g id="edge9" class="edge">
<title>Metamodel::ParametricRoleHOW&#45;&gt;Metamodel::MethodContainer</title>
<path fill="none" stroke="#6666ff" d="M1037.66,-843.73C1029.62,-843.57 1021.54,-843.4 1013.5,-843.23"/>
<polygon fill="#6666ff" stroke="#6666ff" points="1013.42,-839.73 1003.35,-843.02 1013.28,-846.73 1013.42,-839.73"/>
</g>
<!-- Metamodel::ParametricRoleHOW&#45;&gt;Any -->
<g id="edge2" class="edge">
<title>Metamodel::ParametricRoleHOW&#45;&gt;Any</title>
<path fill="none" stroke="#000000" d="M1176.41,-828.84C1126.61,-772.78 978.39,-605.89 978.39,-605.89 978.39,-605.89 901.75,-550.82 901.75,-550.82 901.75,-550.82 962.7,-500.76 962.7,-500.76 962.7,-500.76 944.58,-473.46 930.36,-452.04"/>
<polygon fill="#000000" stroke="#000000" points="933.21,-450 924.77,-443.6 927.38,-453.87 933.21,-450"/>
</g>
<!-- Metamodel::ParametricRoleHOW&#45;&gt;Metamodel::Naming -->
<g id="edge6" class="edge">
<title>Metamodel::ParametricRoleHOW&#45;&gt;Metamodel::Naming</title>
<path fill="none" stroke="#6666ff" d="M1146.98,-864.2C1089.43,-885.99 990.53,-923.43 929.79,-946.42"/>
<polygon fill="#6666ff" stroke="#6666ff" points="928.49,-943.17 920.38,-949.98 930.97,-949.72 928.49,-943.17"/>
</g>
<!-- Metamodel::ParametricRoleHOW&#45;&gt;Metamodel::Documenting -->
<g id="edge7" class="edge">
<title>Metamodel::ParametricRoleHOW&#45;&gt;Metamodel::Documenting</title>
<path fill="none" stroke="#6666ff" d="M1170.34,-864.81C1102.79,-919.2 904.01,-1079.25 904.01,-1079.25 904.01,-1079.25 899.53,-1206.06 897.47,-1264.23"/>
<polygon fill="#6666ff" stroke="#6666ff" points="893.96,-1264.45 897.11,-1274.57 900.96,-1264.7 893.96,-1264.45"/>
</g>
<!-- Metamodel::ParametricRoleHOW&#45;&gt;Metamodel::Versioning -->
<g id="edge8" class="edge">
<title>Metamodel::ParametricRoleHOW&#45;&gt;Metamodel::Versioning</title>
<path fill="none" stroke="#6666ff" d="M1197.55,-865.21C1212.73,-920.02 1256.87,-1079.47 1256.87,-1079.47 1256.87,-1079.47 1160.9,-1124.09 1101.34,-1151.79"/>
<polygon fill="#6666ff" stroke="#6666ff" points="1099.7,-1148.69 1092.11,-1156.08 1102.65,-1155.04 1099.7,-1148.69"/>
</g>
<!-- Metamodel::ParametricRoleHOW&#45;&gt;Metamodel::PrivateMethodContainer -->
<g id="edge10" class="edge">
<title>Metamodel::ParametricRoleHOW&#45;&gt;Metamodel::PrivateMethodContainer</title>
<path fill="none" stroke="#6666ff" d="M1183.71,-865.2C1164.11,-905.84 1116.76,-1004.05 1093.62,-1052.04"/>
<polygon fill="#6666ff" stroke="#6666ff" points="1090.38,-1050.68 1089.19,-1061.21 1096.69,-1053.72 1090.38,-1050.68"/>
</g>
<!-- Metamodel::ParametricRoleHOW&#45;&gt;Metamodel::MultiMethodContainer -->
<g id="edge11" class="edge">
<title>Metamodel::ParametricRoleHOW&#45;&gt;Metamodel::MultiMethodContainer</title>
<path fill="none" stroke="#6666ff" d="M1153.06,-829.48C1099.25,-805.62 1002.87,-762.89 944.5,-737.01"/>
<polygon fill="#6666ff" stroke="#6666ff" points="945.67,-733.7 935.11,-732.85 942.84,-740.1 945.67,-733.7"/>
</g>
<!-- Metamodel::ParametricRoleHOW&#45;&gt;Metamodel::AttributeContainer -->
<g id="edge12" class="edge">
<title>Metamodel::ParametricRoleHOW&#45;&gt;Metamodel::AttributeContainer</title>
<path fill="none" stroke="#6666ff" d="M1176.41,-828.84C1126.61,-772.78 978.39,-605.89 978.39,-605.89 978.39,-605.89 897.18,-554.88 847.88,-523.91"/>
<polygon fill="#6666ff" stroke="#6666ff" points="849.7,-520.92 839.37,-518.56 845.97,-526.85 849.7,-520.92"/>
</g>
<!-- Metamodel::ParametricRoleHOW&#45;&gt;Metamodel::RoleContainer -->
<g id="edge13" class="edge">
<title>Metamodel::ParametricRoleHOW&#45;&gt;Metamodel::RoleContainer</title>
<path fill="none" stroke="#6666ff" d="M1174.74,-828.95C1139.23,-792.91 1062.85,-715.39 1062.85,-715.39 1062.85,-715.39 953.59,-660.01 890.47,-628.01"/>
<polygon fill="#6666ff" stroke="#6666ff" points="892.02,-624.87 881.51,-623.47 888.85,-631.11 892.02,-624.87"/>
</g>
<!-- Metamodel::ParametricRoleHOW&#45;&gt;Metamodel::MultipleInheritance -->
<g id="edge14" class="edge">
<title>Metamodel::ParametricRoleHOW&#45;&gt;Metamodel::MultipleInheritance</title>
<path fill="none" stroke="#6666ff" d="M1178.52,-829.03C1146.1,-787.44 1068.54,-687.92 1068.54,-687.92 1068.54,-687.92 1062.62,-619.19 1059.17,-579.08"/>
<polygon fill="#6666ff" stroke="#6666ff" points="1062.65,-578.74 1058.31,-569.08 1055.68,-579.34 1062.65,-578.74"/>
</g>
<!-- Metamodel::ParametricRoleHOW&#45;&gt;Metamodel::Stashing -->
<g id="edge15" class="edge">
<title>Metamodel::ParametricRoleHOW&#45;&gt;Metamodel::Stashing</title>
<path fill="none" stroke="#6666ff" d="M1160.71,-864.84C1101.47,-898.16 980.15,-966.4 980.15,-966.4 980.15,-966.4 838.75,-1032.23 763.59,-1067.23"/>
<polygon fill="#6666ff" stroke="#6666ff" points="761.91,-1064.15 754.33,-1071.54 764.87,-1070.5 761.91,-1064.15"/>
</g>
<!-- Metamodel::ParametricRoleHOW&#45;&gt;Metamodel::TypePretense -->
<g id="edge16" class="edge">
<title>Metamodel::ParametricRoleHOW&#45;&gt;Metamodel::TypePretense</title>
<path fill="none" stroke="#6666ff" d="M1241.89,-829.75C1320.67,-802.29 1474.4,-748.71 1558.13,-719.53"/>
<polygon fill="#6666ff" stroke="#6666ff" points="1559.44,-722.78 1567.73,-716.19 1557.14,-716.17 1559.44,-722.78"/>
</g>
<!-- Metamodel::ParametricRoleHOW&#45;&gt;Metamodel::RolePunning -->
<g id="edge17" class="edge">
<title>Metamodel::ParametricRoleHOW&#45;&gt;Metamodel::RolePunning</title>
<path fill="none" stroke="#6666ff" d="M1226.54,-864.6C1298.53,-901.9 1466.04,-988.69 1545.08,-1029.64"/>
<polygon fill="#6666ff" stroke="#6666ff" points="1543.77,-1032.91 1554.26,-1034.4 1547,-1026.69 1543.77,-1032.91"/>
</g>
<!-- Metamodel::ConcreteRoleHOW -->
<g id="node16" class="node">
<title>Metamodel::ConcreteRoleHOW</title>
<g id="a_node16"><a xlink:href="/type/Metamodel::ConcreteRoleHOW" xlink:title="Metamodel::ConcreteRoleHOW">
<ellipse fill="none" stroke="#000000" cx="1218.97" cy="-688" rx="148.67" ry="18"/>
<text text-anchor="middle" x="1218.97" y="-684.3" font-family="FreeSans" font-size="14.00" fill="#000000">Metamodel::ConcreteRoleHOW</text>
</a>
</g>
</g>
<!-- Metamodel::ConcreteRoleHOW&#45;&gt;Metamodel::MethodContainer -->
<g id="edge21" class="edge">
<title>Metamodel::ConcreteRoleHOW&#45;&gt;Metamodel::MethodContainer</title>
<path fill="none" stroke="#6666ff" d="M1177.97,-705.44C1112.06,-733.48 982.77,-788.48 911.54,-818.78"/>
<polygon fill="#6666ff" stroke="#6666ff" points="910.14,-815.57 902.31,-822.7 912.88,-822.01 910.14,-815.57"/>
</g>
<!-- Metamodel::ConcreteRoleHOW&#45;&gt;Any -->
<g id="edge3" class="edge">
<title>Metamodel::ConcreteRoleHOW&#45;&gt;Any</title>
<path fill="none" stroke="#000000" d="M1218.01,-669.8C1216.04,-632.51 1211.72,-550.93 1211.72,-550.93 1211.72,-550.93 1024.61,-473.03 946.87,-440.66"/>
<polygon fill="#000000" stroke="#000000" points="948.1,-437.38 937.52,-436.77 945.41,-443.85 948.1,-437.38"/>
</g>
<!-- Metamodel::ConcreteRoleHOW&#45;&gt;Metamodel::Naming -->
<g id="edge18" class="edge">
<title>Metamodel::ConcreteRoleHOW&#45;&gt;Metamodel::Naming</title>
<path fill="none" stroke="#6666ff" d="M1197.07,-705.83C1137.86,-754.05 974.55,-887.04 907,-942.04"/>
<polygon fill="#6666ff" stroke="#6666ff" points="904.42,-939.63 898.87,-948.66 908.84,-945.06 904.42,-939.63"/>
</g>
<!-- Metamodel::ConcreteRoleHOW&#45;&gt;Metamodel::Versioning -->
<g id="edge19" class="edge">
<title>Metamodel::ConcreteRoleHOW&#45;&gt;Metamodel::Versioning</title>
<path fill="none" stroke="#6666ff" d="M1233.91,-705.94C1268.53,-747.54 1351.38,-847.08 1351.38,-847.08 1351.38,-847.08 1256.87,-1079.47 1256.87,-1079.47 1256.87,-1079.47 1160.9,-1124.09 1101.34,-1151.79"/>
<polygon fill="#6666ff" stroke="#6666ff" points="1099.7,-1148.69 1092.11,-1156.08 1102.65,-1155.04 1099.7,-1148.69"/>
</g>
<!-- Metamodel::ConcreteRoleHOW&#45;&gt;Metamodel::PrivateMethodContainer -->
<g id="edge20" class="edge">
<title>Metamodel::ConcreteRoleHOW&#45;&gt;Metamodel::PrivateMethodContainer</title>
<path fill="none" stroke="#6666ff" d="M1198.07,-705.91C1149.6,-747.45 1033.62,-846.85 1033.62,-846.85 1033.62,-846.85 1062.31,-989.34 1074.78,-1051.23"/>
<polygon fill="#6666ff" stroke="#6666ff" points="1071.36,-1052 1076.77,-1061.12 1078.22,-1050.62 1071.36,-1052"/>
</g>
<!-- Metamodel::ConcreteRoleHOW&#45;&gt;Metamodel::MultiMethodContainer -->
<g id="edge22" class="edge">
<title>Metamodel::ConcreteRoleHOW&#45;&gt;Metamodel::MultiMethodContainer</title>
<path fill="none" stroke="#6666ff" d="M1096.69,-698.31C1077.1,-699.97 1056.69,-701.69 1036.7,-703.38"/>
<polygon fill="#6666ff" stroke="#6666ff" points="1036.28,-699.9 1026.61,-704.23 1036.87,-706.87 1036.28,-699.9"/>
</g>
<!-- Metamodel::ConcreteRoleHOW&#45;&gt;Metamodel::AttributeContainer -->
<g id="edge23" class="edge">
<title>Metamodel::ConcreteRoleHOW&#45;&gt;Metamodel::AttributeContainer</title>
<path fill="none" stroke="#6666ff" d="M1178.8,-670.62C1093.44,-633.71 901.75,-550.82 901.75,-550.82 901.75,-550.82 875.86,-536.54 851.73,-523.22"/>
<polygon fill="#6666ff" stroke="#6666ff" points="853.42,-520.16 842.97,-518.39 850.04,-526.28 853.42,-520.16"/>
</g>
<!-- Metamodel::ConcreteRoleHOW&#45;&gt;Metamodel::RoleContainer -->
<g id="edge24" class="edge">
<title>Metamodel::ConcreteRoleHOW&#45;&gt;Metamodel::RoleContainer</title>
<path fill="none" stroke="#6666ff" d="M1147.22,-672.16C1083.83,-658.17 991.54,-637.81 926.01,-623.35"/>
<polygon fill="#6666ff" stroke="#6666ff" points="926.66,-619.91 916.14,-621.17 925.15,-626.74 926.66,-619.91"/>
</g>
<!-- Metamodel::ConcreteRoleHOW&#45;&gt;Metamodel::MultipleInheritance -->
<g id="edge25" class="edge">
<title>Metamodel::ConcreteRoleHOW&#45;&gt;Metamodel::MultipleInheritance</title>
<path fill="none" stroke="#6666ff" d="M1197.77,-670.07C1169.1,-645.85 1117.89,-602.56 1085.7,-575.36"/>
<polygon fill="#6666ff" stroke="#6666ff" points="1087.85,-572.59 1077.95,-568.81 1083.33,-577.94 1087.85,-572.59"/>
</g>
<!-- Metamodel::BaseType -->
<g id="node17" class="node">
<title>Metamodel::BaseType</title>
<g id="a_node17"><a xlink:href="/type/Metamodel::BaseType" xlink:title="Metamodel::BaseType">
<ellipse fill="none" stroke="#6666ff" cx="336.31" cy="-123.57" rx="109.38" ry="18"/>
<text text-anchor="middle" x="336.31" y="-119.87" font-family="FreeSans" font-size="14.00" fill="#6666ff">Metamodel::BaseType</text>
</a>
</g>
</g>
<!-- Metamodel::MROBasedMethodDispatch -->
<g id="node18" class="node">
<title>Metamodel::MROBasedMethodDispatch</title>
<g id="a_node18"><a xlink:href="/type/Metamodel::MROBasedMethodDispatch" xlink:title="Metamodel::MROBasedMethodDispatch">
<ellipse fill="none" stroke="#6666ff" cx="290.54" cy="-1000.38" rx="188.47" ry="18"/>
<text text-anchor="middle" x="290.54" y="-996.68" font-family="FreeSans" font-size="14.00" fill="#6666ff">Metamodel::MROBasedMethodDispatch</text>
</a>
</g>
</g>
<!-- Metamodel::MROBasedTypeChecking -->
<g id="node19" class="node">
<title>Metamodel::MROBasedTypeChecking</title>
<g id="a_node19"><a xlink:href="/type/Metamodel::MROBasedTypeChecking" xlink:title="Metamodel::MROBasedTypeChecking">
<ellipse fill="none" stroke="#6666ff" cx="178.73" cy="-783.04" rx="178.97" ry="18"/>
<text text-anchor="middle" x="178.73" y="-779.34" font-family="FreeSans" font-size="14.00" fill="#6666ff">Metamodel::MROBasedTypeChecking</text>
</a>
</g>
</g>
<!-- Metamodel::BUILDPLAN -->
<g id="node20" class="node">
<title>Metamodel::BUILDPLAN</title>
<g id="a_node20"><a xlink:href="/type/Metamodel::BUILDPLAN" xlink:title="Metamodel::BUILDPLAN">
<ellipse fill="none" stroke="#6666ff" cx="181.7" cy="-914.89" rx="118.08" ry="18"/>
<text text-anchor="middle" x="181.7" y="-911.19" font-family="FreeSans" font-size="14.00" fill="#6666ff">Metamodel::BUILDPLAN</text>
</a>
</g>
</g>
<!-- Metamodel::BoolificationProtocol -->
<g id="node21" class="node">
<title>Metamodel::BoolificationProtocol</title>
<g id="a_node21"><a xlink:href="/type/Metamodel::BoolificationProtocol" xlink:title="Metamodel::BoolificationProtocol">
<ellipse fill="none" stroke="#6666ff" cx="263.04" cy="-525.21" rx="157.07" ry="18"/>
<text text-anchor="middle" x="263.04" y="-521.51" font-family="FreeSans" font-size="14.00" fill="#6666ff">Metamodel::BoolificationProtocol</text>
</a>
</g>
</g>
<!-- Metamodel::Mixins -->
<g id="node22" class="node">
<title>Metamodel::Mixins</title>
<g id="a_node22"><a xlink:href="/type/Metamodel::Mixins" xlink:title="Metamodel::Mixins">
<ellipse fill="none" stroke="#6666ff" cx="191.43" cy="-652.11" rx="94.78" ry="18"/>
<text text-anchor="middle" x="191.43" y="-648.41" font-family="FreeSans" font-size="14.00" fill="#6666ff">Metamodel::Mixins</text>
</a>
</g>
</g>
<!-- Metamodel::EnumHOW -->
<g id="node23" class="node">
<title>Metamodel::EnumHOW</title>
<g id="a_node23"><a xlink:href="/type/Metamodel::EnumHOW" xlink:title="Metamodel::EnumHOW">
<ellipse fill="none" stroke="#000000" cx="522.98" cy="-620.09" rx="115.88" ry="18"/>
<text text-anchor="middle" x="522.98" y="-616.39" font-family="FreeSans" font-size="14.00" fill="#000000">Metamodel::EnumHOW</text>
</a>
</g>
</g>
<!-- Metamodel::EnumHOW&#45;&gt;Metamodel::MethodContainer -->
<g id="edge29" class="edge">
<title>Metamodel::EnumHOW&#45;&gt;Metamodel::MethodContainer</title>
<path fill="none" stroke="#6666ff" d="M550.11,-637.72C610.78,-677.14 757.39,-772.41 825.55,-816.7"/>
<polygon fill="#6666ff" stroke="#6666ff" points="823.95,-819.83 834.24,-822.35 827.77,-813.96 823.95,-819.83"/>
</g>
<!-- Metamodel::EnumHOW&#45;&gt;Any -->
<g id="edge4" class="edge">
<title>Metamodel::EnumHOW&#45;&gt;Any</title>
<path fill="none" stroke="#000000" d="M543.38,-602.21C581.39,-568.9 659.23,-500.68 659.23,-500.68 659.23,-500.68 703.89,-486.84 703.89,-486.84 703.89,-486.84 817.72,-454.27 877.66,-437.12"/>
<polygon fill="#000000" stroke="#000000" points="878.84,-440.42 887.49,-434.3 876.92,-433.69 878.84,-440.42"/>
</g>
<!-- Metamodel::EnumHOW&#45;&gt;Metamodel::Naming -->
<g id="edge26" class="edge">
<title>Metamodel::EnumHOW&#45;&gt;Metamodel::Naming</title>
<path fill="none" stroke="#6666ff" d="M538.8,-638.08C584.96,-690.6 716.27,-839.97 716.27,-839.97 716.27,-839.97 800.2,-905.89 846.82,-942.52"/>
<polygon fill="#6666ff" stroke="#6666ff" points="844.76,-945.35 854.78,-948.77 849.08,-939.84 844.76,-945.35"/>
</g>
<!-- Metamodel::EnumHOW&#45;&gt;Metamodel::MultiMethodContainer -->
<g id="edge30" class="edge">
<title>Metamodel::EnumHOW&#45;&gt;Metamodel::MultiMethodContainer</title>
<path fill="none" stroke="#6666ff" d="M583.25,-635.49C647.92,-652.02 750.74,-678.29 820.58,-696.14"/>
<polygon fill="#6666ff" stroke="#6666ff" points="820.08,-699.62 830.64,-698.71 821.82,-692.84 820.08,-699.62"/>
</g>
<!-- Metamodel::EnumHOW&#45;&gt;Metamodel::AttributeContainer -->
<g id="edge28" class="edge">
<title>Metamodel::EnumHOW&#45;&gt;Metamodel::AttributeContainer</title>
<path fill="none" stroke="#6666ff" d="M563.94,-603.11C615.46,-581.76 703.95,-545.08 759.86,-521.91"/>
<polygon fill="#6666ff" stroke="#6666ff" points="761.32,-525.09 769.22,-518.03 758.64,-518.62 761.32,-525.09"/>
</g>
<!-- Metamodel::EnumHOW&#45;&gt;Metamodel::RoleContainer -->
<g id="edge31" class="edge">
<title>Metamodel::EnumHOW&#45;&gt;Metamodel::RoleContainer</title>
<path fill="none" stroke="#6666ff" d="M634.42,-615.2C659.54,-614.09 686.45,-612.91 712.4,-611.77"/>
<polygon fill="#6666ff" stroke="#6666ff" points="712.83,-615.26 722.67,-611.32 712.53,-608.26 712.83,-615.26"/>
</g>
<!-- Metamodel::EnumHOW&#45;&gt;Metamodel::Stashing -->
<g id="edge27" class="edge">
<title>Metamodel::EnumHOW&#45;&gt;Metamodel::Stashing</title>
<path fill="none" stroke="#6666ff" d="M536.24,-638.2C579.13,-696.84 711.44,-877.69 711.44,-877.69 711.44,-877.69 715.23,-1002.31 716.99,-1059.93"/>
<polygon fill="#6666ff" stroke="#6666ff" points="713.49,-1060.3 717.3,-1070.18 720.49,-1060.08 713.49,-1060.3"/>
</g>
<!-- Metamodel::EnumHOW&#45;&gt;Metamodel::BaseType -->
<g id="edge32" class="edge">
<title>Metamodel::EnumHOW&#45;&gt;Metamodel::BaseType</title>
<path fill="none" stroke="#6666ff" d="M523.01,-601.77C523.1,-549.79 523.34,-405.17 523.34,-405.17 523.34,-405.17 400.82,-220.7 354.11,-150.37"/>
<polygon fill="#6666ff" stroke="#6666ff" points="356.74,-148 348.3,-141.61 350.91,-151.88 356.74,-148"/>
</g>
<!-- Metamodel::EnumHOW&#45;&gt;Metamodel::MROBasedMethodDispatch -->
<g id="edge33" class="edge">
<title>Metamodel::EnumHOW&#45;&gt;Metamodel::MROBasedMethodDispatch</title>
<path fill="none" stroke="#6666ff" d="M511.93,-638.18C474.38,-699.61 351.59,-900.51 306.95,-973.54"/>
<polygon fill="#6666ff" stroke="#6666ff" points="303.89,-971.83 301.67,-982.19 309.87,-975.48 303.89,-971.83"/>
</g>
<!-- Metamodel::EnumHOW&#45;&gt;Metamodel::MROBasedTypeChecking -->
<g id="edge34" class="edge">
<title>Metamodel::EnumHOW&#45;&gt;Metamodel::MROBasedTypeChecking</title>
<path fill="none" stroke="#6666ff" d="M486.79,-637.22C423.98,-666.95 294.85,-728.08 225.39,-760.96"/>
<polygon fill="#6666ff" stroke="#6666ff" points="223.54,-757.96 216,-765.4 226.53,-764.29 223.54,-757.96"/>
</g>
<!-- Metamodel::EnumHOW&#45;&gt;Metamodel::BUILDPLAN -->
<g id="edge35" class="edge">
<title>Metamodel::EnumHOW&#45;&gt;Metamodel::BUILDPLAN</title>
<path fill="none" stroke="#6666ff" d="M504.82,-638.16C462.14,-680.63 359.06,-783.17 359.06,-783.17 359.06,-783.17 264.82,-853.16 213.73,-891.1"/>
<polygon fill="#6666ff" stroke="#6666ff" points="211.56,-888.35 205.62,-897.12 215.74,-893.97 211.56,-888.35"/>
</g>
<!-- Metamodel::EnumHOW&#45;&gt;Metamodel::BoolificationProtocol -->
<g id="edge36" class="edge">
<title>Metamodel::EnumHOW&#45;&gt;Metamodel::BoolificationProtocol</title>
<path fill="none" stroke="#6666ff" d="M477.41,-603.45C433.54,-587.45 367.09,-563.19 319.81,-545.93"/>
<polygon fill="#6666ff" stroke="#6666ff" points="320.92,-542.61 310.32,-542.47 318.52,-549.19 320.92,-542.61"/>
</g>
<!-- Metamodel::EnumHOW&#45;&gt;Metamodel::Mixins -->
<g id="edge37" class="edge">
<title>Metamodel::EnumHOW&#45;&gt;Metamodel::Mixins</title>
<path fill="none" stroke="#6666ff" d="M424.41,-629.61C380.66,-633.83 329.41,-638.78 286.13,-642.96"/>
<polygon fill="#6666ff" stroke="#6666ff" points="285.79,-639.48 276.17,-643.93 286.46,-646.45 285.79,-639.48"/>
</g>
<!-- Metamodel::Finalization -->
<g id="node24" class="node">
<title>Metamodel::Finalization</title>
<g id="a_node24"><a xlink:href="/type/Metamodel::Finalization" xlink:title="Metamodel::Finalization">
<ellipse fill="none" stroke="#6666ff" cx="410.25" cy="-1324.01" rx="116.98" ry="18"/>
<text text-anchor="middle" x="410.25" y="-1320.31" font-family="FreeSans" font-size="14.00" fill="#6666ff">Metamodel::Finalization</text>
</a>
</g>
</g>
<!-- Metamodel::DefaultParent -->
<g id="node25" class="node">
<title>Metamodel::DefaultParent</title>
<g id="a_node25"><a xlink:href="/type/Metamodel::DefaultParent" xlink:title="Metamodel::DefaultParent">
<ellipse fill="none" stroke="#6666ff" cx="256.68" cy="-1225.06" rx="128.08" ry="18"/>
<text text-anchor="middle" x="256.68" y="-1221.36" font-family="FreeSans" font-size="14.00" fill="#6666ff">Metamodel::DefaultParent</text>
</a>
</g>
</g>
<!-- Metamodel::C3MRO -->
<g id="node26" class="node">
<title>Metamodel::C3MRO</title>
<g id="a_node26"><a xlink:href="/type/Metamodel::C3MRO" xlink:title="Metamodel::C3MRO">
<ellipse fill="none" stroke="#6666ff" cx="421.65" cy="-404.99" rx="100.18" ry="18"/>
<text text-anchor="middle" x="421.65" y="-401.29" font-family="FreeSans" font-size="14.00" fill="#6666ff">Metamodel::C3MRO</text>
</a>
</g>
</g>
<!-- Metamodel::Trusting -->
<g id="node27" class="node">
<title>Metamodel::Trusting</title>
<g id="a_node27"><a xlink:href="/type/Metamodel::Trusting" xlink:title="Metamodel::Trusting">
<ellipse fill="none" stroke="#6666ff" cx="575.23" cy="-1389.84" rx="102.88" ry="18"/>
<text text-anchor="middle" x="575.23" y="-1386.14" font-family="FreeSans" font-size="14.00" fill="#6666ff">Metamodel::Trusting</text>
</a>
</g>
</g>
<!-- Metamodel::ClassHOW -->
<g id="node28" class="node">
<title>Metamodel::ClassHOW</title>
<g id="a_node28"><a xlink:href="/type/Metamodel::ClassHOW" xlink:title="Metamodel::ClassHOW">
<ellipse fill="none" stroke="#000000" cx="596.75" cy="-877.53" rx="113.18" ry="18"/>
<text text-anchor="middle" x="596.75" y="-873.83" font-family="FreeSans" font-size="14.00" fill="#000000">Metamodel::ClassHOW</text>
</a>
</g>
</g>
<!-- Metamodel::ClassHOW&#45;&gt;Metamodel::MethodContainer -->
<g id="edge44" class="edge">
<title>Metamodel::ClassHOW&#45;&gt;Metamodel::MethodContainer</title>
<path fill="none" stroke="#6666ff" d="M681.61,-865.52C705.27,-862.17 731.27,-858.49 755.97,-855"/>
<polygon fill="#6666ff" stroke="#6666ff" points="756.68,-858.43 766.09,-853.57 755.7,-851.5 756.68,-858.43"/>
</g>
<!-- Metamodel::ClassHOW&#45;&gt;Any -->
<g id="edge5" class="edge">
<title>Metamodel::ClassHOW&#45;&gt;Any</title>
<path fill="none" stroke="#000000" d="M599.81,-859.43C609.72,-800.84 640.27,-620.11 640.27,-620.11 640.27,-620.11 659.23,-500.68 659.23,-500.68 659.23,-500.68 703.89,-486.84 703.89,-486.84 703.89,-486.84 817.72,-454.27 877.66,-437.12"/>
<polygon fill="#000000" stroke="#000000" points="878.84,-440.42 887.49,-434.3 876.92,-433.69 878.84,-440.42"/>
</g>
<!-- Metamodel::ClassHOW&#45;&gt;Metamodel::Naming -->
<g id="edge38" class="edge">
<title>Metamodel::ClassHOW&#45;&gt;Metamodel::Naming</title>
<path fill="none" stroke="#6666ff" d="M647.85,-893.72C695.69,-908.87 767.15,-931.5 817.56,-947.47"/>
<polygon fill="#6666ff" stroke="#6666ff" points="816.75,-950.89 827.34,-950.57 818.87,-944.21 816.75,-950.89"/>
</g>
<!-- Metamodel::ClassHOW&#45;&gt;Metamodel::Documenting -->
<g id="edge39" class="edge">
<title>Metamodel::ClassHOW&#45;&gt;Metamodel::Documenting</title>
<path fill="none" stroke="#6666ff" d="M616.24,-895.53C671.54,-946.59 825.39,-1088.66 825.39,-1088.66 825.39,-1088.66 867.38,-1209.23 886.81,-1265.04"/>
<polygon fill="#6666ff" stroke="#6666ff" points="883.56,-1266.37 890.16,-1274.66 890.18,-1264.07 883.56,-1266.37"/>
</g>
<!-- Metamodel::ClassHOW&#45;&gt;Metamodel::Versioning -->
<g id="edge40" class="edge">
<title>Metamodel::ClassHOW&#45;&gt;Metamodel::Versioning</title>
<path fill="none" stroke="#6666ff" d="M623.48,-895.08C698.23,-944.16 904.01,-1079.25 904.01,-1079.25 904.01,-1079.25 973.74,-1122.65 1018.46,-1150.48"/>
<polygon fill="#6666ff" stroke="#6666ff" points="1016.7,-1153.51 1027.04,-1155.82 1020.4,-1147.56 1016.7,-1153.51"/>
</g>
<!-- Metamodel::ClassHOW&#45;&gt;Metamodel::PrivateMethodContainer -->
<g id="edge45" class="edge">
<title>Metamodel::ClassHOW&#45;&gt;Metamodel::PrivateMethodContainer</title>
<path fill="none" stroke="#6666ff" d="M631.38,-894.86C683.01,-920.69 774.16,-966.3 774.16,-966.3 774.16,-966.3 804.14,-980.17 804.14,-980.17 804.14,-980.17 941.37,-1029.44 1022.41,-1058.53"/>
<polygon fill="#6666ff" stroke="#6666ff" points="1021.4,-1061.89 1032,-1061.97 1023.77,-1055.3 1021.4,-1061.89"/>
</g>
<!-- Metamodel::ClassHOW&#45;&gt;Metamodel::MultiMethodContainer -->
<g id="edge46" class="edge">
<title>Metamodel::ClassHOW&#45;&gt;Metamodel::MultiMethodContainer</title>
<path fill="none" stroke="#6666ff" d="M628.72,-860.17C683.13,-830.62 793.68,-770.59 853.99,-737.84"/>
<polygon fill="#6666ff" stroke="#6666ff" points="855.75,-740.87 862.86,-733.02 852.41,-734.71 855.75,-740.87"/>
</g>
<!-- Metamodel::ClassHOW&#45;&gt;Metamodel::AttributeContainer -->
<g id="edge42" class="edge">
<title>Metamodel::ClassHOW&#45;&gt;Metamodel::AttributeContainer</title>
<path fill="none" stroke="#6666ff" d="M604.71,-859.29C631.27,-798.37 715.21,-605.85 715.21,-605.85 715.21,-605.85 759.1,-557.67 787.45,-526.54"/>
<polygon fill="#6666ff" stroke="#6666ff" points="790.14,-528.79 794.29,-519.04 784.97,-524.07 790.14,-528.79"/>
</g>
<!-- Metamodel::ClassHOW&#45;&gt;Metamodel::RoleContainer -->
<g id="edge47" class="edge">
<title>Metamodel::ClassHOW&#45;&gt;Metamodel::RoleContainer</title>
<path fill="none" stroke="#6666ff" d="M611.32,-859.54C645.54,-817.27 728.18,-715.19 728.18,-715.19 728.18,-715.19 784.95,-662.87 819.95,-630.62"/>
<polygon fill="#6666ff" stroke="#6666ff" points="822.5,-633.03 827.48,-623.68 817.75,-627.88 822.5,-633.03"/>
</g>
<!-- Metamodel::ClassHOW&#45;&gt;Metamodel::MultipleInheritance -->
<g id="edge48" class="edge">
<title>Metamodel::ClassHOW&#45;&gt;Metamodel::MultipleInheritance</title>
<path fill="none" stroke="#6666ff" d="M611.32,-859.54C645.54,-817.27 728.18,-715.19 728.18,-715.19 728.18,-715.19 978.39,-605.89 978.39,-605.89 978.39,-605.89 1001.65,-589.56 1022.82,-574.69"/>
<polygon fill="#6666ff" stroke="#6666ff" points="1024.91,-577.5 1031.08,-568.89 1020.89,-571.77 1024.91,-577.5"/>
</g>
<!-- Metamodel::ClassHOW&#45;&gt;Metamodel::Stashing -->
<g id="edge41" class="edge">
<title>Metamodel::ClassHOW&#45;&gt;Metamodel::Stashing</title>
<path fill="none" stroke="#6666ff" d="M607.07,-895.52C628.39,-932.66 677.36,-1017.98 702.44,-1061.67"/>
<polygon fill="#6666ff" stroke="#6666ff" points="699.54,-1063.65 707.56,-1070.58 705.61,-1060.17 699.54,-1063.65"/>
</g>
<!-- Metamodel::ClassHOW&#45;&gt;Metamodel::MROBasedMethodDispatch -->
<g id="edge51" class="edge">
<title>Metamodel::ClassHOW&#45;&gt;Metamodel::MROBasedMethodDispatch</title>
<path fill="none" stroke="#6666ff" d="M554.81,-894.36C499.93,-916.38 403.7,-954.99 343.74,-979.04"/>
<polygon fill="#6666ff" stroke="#6666ff" points="342.42,-975.8 334.44,-982.77 345.03,-982.3 342.42,-975.8"/>
</g>
<!-- Metamodel::ClassHOW&#45;&gt;Metamodel::MROBasedTypeChecking -->
<g id="edge52" class="edge">
<title>Metamodel::ClassHOW&#45;&gt;Metamodel::MROBasedTypeChecking</title>
<path fill="none" stroke="#6666ff" d="M531.43,-862.77C458.66,-846.32 340.83,-819.68 261.61,-801.78"/>
<polygon fill="#6666ff" stroke="#6666ff" points="262.19,-798.32 251.67,-799.53 260.65,-805.15 262.19,-798.32"/>
</g>
<!-- Metamodel::ClassHOW&#45;&gt;Metamodel::BUILDPLAN -->
<g id="edge54" class="edge">
<title>Metamodel::ClassHOW&#45;&gt;Metamodel::BUILDPLAN</title>
<path fill="none" stroke="#6666ff" d="M498.13,-886.41C436.68,-891.94 357.47,-899.07 293.67,-904.81"/>
<polygon fill="#6666ff" stroke="#6666ff" points="293.21,-901.34 283.57,-905.72 293.84,-908.31 293.21,-901.34"/>
</g>
<!-- Metamodel::ClassHOW&#45;&gt;Metamodel::BoolificationProtocol -->
<g id="edge56" class="edge">
<title>Metamodel::ClassHOW&#45;&gt;Metamodel::BoolificationProtocol</title>
<path fill="none" stroke="#6666ff" d="M579.74,-859.58C524.62,-801.38 350.78,-617.85 286.9,-550.4"/>
<polygon fill="#6666ff" stroke="#6666ff" points="289.43,-547.99 280.01,-543.13 284.35,-552.8 289.43,-547.99"/>
</g>
<!-- Metamodel::ClassHOW&#45;&gt;Metamodel::Mixins -->
<g id="edge55" class="edge">
<title>Metamodel::ClassHOW&#45;&gt;Metamodel::Mixins</title>
<path fill="none" stroke="#6666ff" d="M565.62,-860.22C492.79,-819.72 311.42,-718.84 230.96,-674.09"/>
<polygon fill="#6666ff" stroke="#6666ff" points="232.56,-670.98 222.12,-669.17 229.15,-677.09 232.56,-670.98"/>
</g>
<!-- Metamodel::ClassHOW&#45;&gt;Metamodel::Finalization -->
<g id="edge43" class="edge">
<title>Metamodel::ClassHOW&#45;&gt;Metamodel::Finalization</title>
<path fill="none" stroke="#6666ff" d="M589.21,-895.59C560.33,-964.72 456.66,-1212.91 421.79,-1296.38"/>
<polygon fill="#6666ff" stroke="#6666ff" points="418.51,-1295.15 417.89,-1305.73 424.97,-1297.85 418.51,-1295.15"/>
</g>
<!-- Metamodel::ClassHOW&#45;&gt;Metamodel::DefaultParent -->
<g id="edge49" class="edge">
<title>Metamodel::ClassHOW&#45;&gt;Metamodel::DefaultParent</title>
<path fill="none" stroke="#6666ff" d="M579.86,-895.41C547.66,-929.52 480.62,-1000.49 480.62,-1000.49 480.62,-1000.49 340.62,-1140.88 282.01,-1199.66"/>
<polygon fill="#6666ff" stroke="#6666ff" points="279.21,-1197.51 274.62,-1207.06 284.16,-1202.45 279.21,-1197.51"/>
</g>
<!-- Metamodel::ClassHOW&#45;&gt;Metamodel::C3MRO -->
<g id="edge50" class="edge">
<title>Metamodel::ClassHOW&#45;&gt;Metamodel::C3MRO</title>
<path fill="none" stroke="#6666ff" d="M583.31,-859.43C539.83,-800.83 405.69,-620.07 405.69,-620.07 405.69,-620.07 421.92,-525.25 421.92,-525.25 421.92,-525.25 421.8,-468.82 421.72,-433.27"/>
<polygon fill="#6666ff" stroke="#6666ff" points="425.21,-432.98 421.69,-422.99 418.21,-433 425.21,-432.98"/>
</g>
<!-- Metamodel::ClassHOW&#45;&gt;Metamodel::Trusting -->
<g id="edge53" class="edge">
<title>Metamodel::ClassHOW&#45;&gt;Metamodel::Trusting</title>
<path fill="none" stroke="#6666ff" d="M595.98,-895.77C592.76,-972.41 580.32,-1268.77 576.41,-1361.76"/>
<polygon fill="#6666ff" stroke="#6666ff" points="572.91,-1361.69 575.99,-1371.83 579.9,-1361.98 572.91,-1361.69"/>
</g>
</g>
</svg>
