<?xml version="1.0" encoding="UTF-8" standalone="no"?>
<!DOCTYPE svg PUBLIC "-//W3C//DTD SVG 1.1//EN"
 "http://www.w3.org/Graphics/SVG/1.1/DTD/svg11.dtd">
<!-- Generated by graphviz version 2.42.3 (0)
 -->
<!-- Title: perl6&#45;type&#45;graph Pages: 1 -->
<svg width="284pt" height="188pt"
 viewBox="0.00 0.00 283.69 188.00" xmlns="http://www.w3.org/2000/svg" xmlns:xlink="http://www.w3.org/1999/xlink">
<g id="graph0" class="graph" transform="scale(1 1) rotate(0) translate(4 184)">
<title>perl6&#45;type&#45;graph</title>
<polygon fill="white" stroke="transparent" points="-4,4 -4,-184 279.69,-184 279.69,4 -4,4"/>
<!-- Distribution::Path -->
<g id="node1" class="node">
<title>Distribution::Path</title>
<g id="a_node1"><a xlink:href="/type/Distribution::Path" xlink:title="Distribution::Path">
<ellipse fill="none" stroke="#000000" cx="101.6" cy="-18" rx="89.08" ry="18"/>
<text text-anchor="middle" x="101.6" y="-14.3" font-family="FreeSans" font-size="14.00" fill="#000000">Distribution::Path</text>
</a>
</g>
</g>
<!-- Any -->
<g id="node3" class="node">
<title>Any</title>
<g id="a_node3"><a xlink:href="/type/Any" xlink:title="Any">
<ellipse fill="none" stroke="#000000" cx="28.6" cy="-90" rx="28.7" ry="18"/>
<text text-anchor="middle" x="28.6" y="-86.3" font-family="FreeSans" font-size="14.00" fill="#000000">Any</text>
</a>
</g>
</g>
<!-- Distribution::Path&#45;&gt;Any -->
<g id="edge1" class="edge">
<title>Distribution::Path&#45;&gt;Any</title>
<path fill="none" stroke="#000000" d="M83.93,-35.95C74.01,-45.45 61.54,-57.41 50.96,-67.56"/>
<polygon fill="#000000" stroke="#000000" points="48.44,-65.13 43.64,-74.58 53.28,-70.18 48.44,-65.13"/>
</g>
<!-- Distribution::Locally -->
<g id="node5" class="node">
<title>Distribution::Locally</title>
<g id="a_node5"><a xlink:href="/type/Distribution::Locally" xlink:title="Distribution::Locally">
<ellipse fill="none" stroke="#6666ff" cx="175.6" cy="-90" rx="100.18" ry="18"/>
<text text-anchor="middle" x="175.6" y="-86.3" font-family="FreeSans" font-size="14.00" fill="#6666ff">Distribution::Locally</text>
</a>
</g>
</g>
<!-- Distribution::Path&#45;&gt;Distribution::Locally -->
<g id="edge3" class="edge">
<title>Distribution::Path&#45;&gt;Distribution::Locally</title>
<path fill="none" stroke="#6666ff" d="M119.51,-35.95C128.78,-44.72 140.26,-55.57 150.4,-65.17"/>
<polygon fill="#6666ff" stroke="#6666ff" points="148.18,-67.88 157.85,-72.21 152.99,-62.8 148.18,-67.88"/>
</g>
<!-- Mu -->
<g id="node2" class="node">
<title>Mu</title>
<g id="a_node2"><a xlink:href="/type/Mu" xlink:title="Mu">
<ellipse fill="none" stroke="#000000" cx="28.6" cy="-162" rx="27" ry="18"/>
<text text-anchor="middle" x="28.6" y="-158.3" font-family="FreeSans" font-size="14.00" fill="#000000">Mu</text>
</a>
</g>
</g>
<!-- Any&#45;&gt;Mu -->
<g id="edge2" class="edge">
<title>Any&#45;&gt;Mu</title>
<path fill="none" stroke="#000000" d="M28.6,-108.3C28.6,-116.02 28.6,-125.29 28.6,-133.89"/>
<polygon fill="#000000" stroke="#000000" points="25.1,-133.9 28.6,-143.9 32.1,-133.9 25.1,-133.9"/>
</g>
<!-- Distribution -->
<g id="node4" class="node">
<title>Distribution</title>
<g id="a_node4"><a xlink:href="/type/Distribution" xlink:title="Distribution">
<ellipse fill="none" stroke="#6666ff" cx="175.6" cy="-162" rx="63.89" ry="18"/>
<text text-anchor="middle" x="175.6" y="-158.3" font-family="FreeSans" font-size="14.00" fill="#6666ff">Distribution</text>
</a>
</g>
</g>
<!-- Distribution::Locally&#45;&gt;Distribution -->
<g id="edge4" class="edge">
<title>Distribution::Locally&#45;&gt;Distribution</title>
<path fill="none" stroke="#6666ff" d="M175.6,-108.3C175.6,-116.02 175.6,-125.29 175.6,-133.89"/>
<polygon fill="#6666ff" stroke="#6666ff" points="172.1,-133.9 175.6,-143.9 179.1,-133.9 172.1,-133.9"/>
</g>
</g>
</svg>
