<?xml version="1.0" encoding="UTF-8" standalone="no"?>
<!DOCTYPE svg PUBLIC "-//W3C//DTD SVG 1.1//EN"
 "http://www.w3.org/Graphics/SVG/1.1/DTD/svg11.dtd">
<!-- Generated by graphviz version 2.42.3 (0)
 -->
<!-- Title: perl6&#45;type&#45;graph Pages: 1 -->
<svg width="369pt" height="404pt"
 viewBox="0.00 0.00 369.37 404.00" xmlns="http://www.w3.org/2000/svg" xmlns:xlink="http://www.w3.org/1999/xlink">
<g id="graph0" class="graph" transform="scale(1 1) rotate(0) translate(4 400)">
<title>perl6&#45;type&#45;graph</title>
<polygon fill="white" stroke="transparent" points="-4,4 -4,-400 365.37,-400 365.37,4 -4,4"/>
<!-- X::Backslash::UnrecognizedSequence -->
<g id="node1" class="node">
<title>X::Backslash::UnrecognizedSequence</title>
<g id="a_node1"><a xlink:href="/type/X::Backslash::UnrecognizedSequence" xlink:title="X::Backslash::UnrecognizedSequence">
<ellipse fill="none" stroke="#000000" cx="180.68" cy="-18" rx="180.87" ry="18"/>
<text text-anchor="middle" x="180.68" y="-14.3" font-family="FreeSans" font-size="14.00" fill="#000000">X::Backslash::UnrecognizedSequence</text>
</a>
</g>
</g>
<!-- Exception -->
<g id="node4" class="node">
<title>Exception</title>
<g id="a_node4"><a xlink:href="/type/Exception" xlink:title="Exception">
<ellipse fill="none" stroke="#000000" cx="203.68" cy="-234" rx="55.49" ry="18"/>
<text text-anchor="middle" x="203.68" y="-230.3" font-family="FreeSans" font-size="14.00" fill="#000000">Exception</text>
</a>
</g>
</g>
<!-- X::Backslash::UnrecognizedSequence&#45;&gt;Exception -->
<g id="edge1" class="edge">
<title>X::Backslash::UnrecognizedSequence&#45;&gt;Exception</title>
<path fill="none" stroke="#000000" d="M178.65,-36.15C179.09,-73.34 188.33,-161.63 196.16,-206.23"/>
<polygon fill="#000000" stroke="#000000" points="192.72,-206.88 198.01,-216.06 199.6,-205.59 192.72,-206.88"/>
</g>
<!-- X::Backslash::UnrecognizedSequence&#45;&gt;Exception -->
<g id="edge2" class="edge">
<title>X::Backslash::UnrecognizedSequence&#45;&gt;Exception</title>
<path fill="none" stroke="#000000" d="M186.4,-36.15C193.92,-73.17 203.61,-160.82 205.43,-205.61"/>
<polygon fill="#000000" stroke="#000000" points="201.94,-205.87 205.72,-215.77 208.94,-205.67 201.94,-205.87"/>
</g>
<!-- X::Syntax -->
<g id="node6" class="node">
<title>X::Syntax</title>
<g id="a_node6"><a xlink:href="/type/X::Syntax" xlink:title="X::Syntax">
<ellipse fill="none" stroke="#6666ff" cx="271.68" cy="-90" rx="53.89" ry="18"/>
<text text-anchor="middle" x="271.68" y="-86.3" font-family="FreeSans" font-size="14.00" fill="#6666ff">X::Syntax</text>
</a>
</g>
</g>
<!-- X::Backslash::UnrecognizedSequence&#45;&gt;X::Syntax -->
<g id="edge7" class="edge">
<title>X::Backslash::UnrecognizedSequence&#45;&gt;X::Syntax</title>
<path fill="none" stroke="#6666ff" d="M202.71,-35.95C214.79,-45.24 229.92,-56.87 242.92,-66.87"/>
<polygon fill="#6666ff" stroke="#6666ff" points="241.05,-69.85 251.11,-73.17 245.31,-64.3 241.05,-69.85"/>
</g>
<!-- Mu -->
<g id="node2" class="node">
<title>Mu</title>
<g id="a_node2"><a xlink:href="/type/Mu" xlink:title="Mu">
<ellipse fill="none" stroke="#000000" cx="203.68" cy="-378" rx="27" ry="18"/>
<text text-anchor="middle" x="203.68" y="-374.3" font-family="FreeSans" font-size="14.00" fill="#000000">Mu</text>
</a>
</g>
</g>
<!-- Any -->
<g id="node3" class="node">
<title>Any</title>
<g id="a_node3"><a xlink:href="/type/Any" xlink:title="Any">
<ellipse fill="none" stroke="#000000" cx="203.68" cy="-306" rx="28.7" ry="18"/>
<text text-anchor="middle" x="203.68" y="-302.3" font-family="FreeSans" font-size="14.00" fill="#000000">Any</text>
</a>
</g>
</g>
<!-- Any&#45;&gt;Mu -->
<g id="edge3" class="edge">
<title>Any&#45;&gt;Mu</title>
<path fill="none" stroke="#000000" d="M203.68,-324.3C203.68,-332.02 203.68,-341.29 203.68,-349.89"/>
<polygon fill="#000000" stroke="#000000" points="200.18,-349.9 203.68,-359.9 207.18,-349.9 200.18,-349.9"/>
</g>
<!-- Exception&#45;&gt;Any -->
<g id="edge4" class="edge">
<title>Exception&#45;&gt;Any</title>
<path fill="none" stroke="#000000" d="M203.68,-252.3C203.68,-260.02 203.68,-269.29 203.68,-277.89"/>
<polygon fill="#000000" stroke="#000000" points="200.18,-277.9 203.68,-287.9 207.18,-277.9 200.18,-277.9"/>
</g>
<!-- X::Comp -->
<g id="node5" class="node">
<title>X::Comp</title>
<g id="a_node5"><a xlink:href="/type/X::Comp" xlink:title="X::Comp">
<ellipse fill="none" stroke="#6666ff" cx="304.68" cy="-162" rx="49.29" ry="18"/>
<text text-anchor="middle" x="304.68" y="-158.3" font-family="FreeSans" font-size="14.00" fill="#6666ff">X::Comp</text>
</a>
</g>
</g>
<!-- X::Comp&#45;&gt;Exception -->
<g id="edge5" class="edge">
<title>X::Comp&#45;&gt;Exception</title>
<path fill="none" stroke="#000000" d="M282.77,-178.19C268.67,-187.96 250.14,-200.8 234.56,-211.6"/>
<polygon fill="#000000" stroke="#000000" points="232.48,-208.78 226.26,-217.36 236.47,-214.54 232.48,-208.78"/>
</g>
<!-- X::Syntax&#45;&gt;Exception -->
<g id="edge6" class="edge">
<title>X::Syntax&#45;&gt;Exception</title>
<path fill="none" stroke="#000000" d="M263.62,-107.85C251.86,-132.4 229.91,-178.23 216.09,-207.09"/>
<polygon fill="#000000" stroke="#000000" points="212.9,-205.64 211.74,-216.18 219.22,-208.67 212.9,-205.64"/>
</g>
<!-- X::Syntax&#45;&gt;X::Comp -->
<g id="edge8" class="edge">
<title>X::Syntax&#45;&gt;X::Comp</title>
<path fill="none" stroke="#6666ff" d="M279.67,-107.95C283.48,-116.03 288.13,-125.88 292.37,-134.89"/>
<polygon fill="#6666ff" stroke="#6666ff" points="289.34,-136.66 296.77,-144.21 295.67,-133.67 289.34,-136.66"/>
</g>
</g>
</svg>
