<?xml version="1.0" encoding="UTF-8" standalone="no"?>
<!DOCTYPE svg PUBLIC "-//W3C//DTD SVG 1.1//EN"
 "http://www.w3.org/Graphics/SVG/1.1/DTD/svg11.dtd">
<!-- Generated by graphviz version 2.42.3 (0)
 -->
<!-- Title: perl6&#45;type&#45;graph Pages: 1 -->
<svg width="376pt" height="404pt"
 viewBox="0.00 0.00 375.87 404.00" xmlns="http://www.w3.org/2000/svg" xmlns:xlink="http://www.w3.org/1999/xlink">
<g id="graph0" class="graph" transform="scale(1 1) rotate(0) translate(4 400)">
<title>perl6&#45;type&#45;graph</title>
<polygon fill="white" stroke="transparent" points="-4,4 -4,-400 371.87,-400 371.87,4 -4,4"/>
<!-- X::Syntax::Number::RadixOutOfRange -->
<g id="node1" class="node">
<title>X::Syntax::Number::RadixOutOfRange</title>
<g id="a_node1"><a xlink:href="/type/X::Syntax::Number::RadixOutOfRange" xlink:title="X::Syntax::Number::RadixOutOfRange">
<ellipse fill="none" stroke="#000000" cx="183.93" cy="-18" rx="183.87" ry="18"/>
<text text-anchor="middle" x="183.93" y="-14.3" font-family="FreeSans" font-size="14.00" fill="#000000">X::Syntax::Number::RadixOutOfRange</text>
</a>
</g>
</g>
<!-- Exception -->
<g id="node4" class="node">
<title>Exception</title>
<g id="a_node4"><a xlink:href="/type/Exception" xlink:title="Exception">
<ellipse fill="none" stroke="#000000" cx="180.93" cy="-234" rx="55.49" ry="18"/>
<text text-anchor="middle" x="180.93" y="-230.3" font-family="FreeSans" font-size="14.00" fill="#000000">Exception</text>
</a>
</g>
</g>
<!-- X::Syntax::Number::RadixOutOfRange&#45;&gt;Exception -->
<g id="edge1" class="edge">
<title>X::Syntax::Number::RadixOutOfRange&#45;&gt;Exception</title>
<path fill="none" stroke="#000000" d="M176.85,-36.06C170.42,-51.55 161.93,-72 161.93,-72 161.93,-72 161.93,-108 161.93,-108 161.93,-108 171.21,-169.01 176.8,-205.78"/>
<polygon fill="#000000" stroke="#000000" points="173.37,-206.52 178.33,-215.88 180.29,-205.47 173.37,-206.52"/>
</g>
<!-- X::Syntax -->
<g id="node6" class="node">
<title>X::Syntax</title>
<g id="a_node6"><a xlink:href="/type/X::Syntax" xlink:title="X::Syntax">
<ellipse fill="none" stroke="#6666ff" cx="224.93" cy="-90" rx="53.89" ry="18"/>
<text text-anchor="middle" x="224.93" y="-86.3" font-family="FreeSans" font-size="14.00" fill="#6666ff">X::Syntax</text>
</a>
</g>
</g>
<!-- X::Syntax::Number::RadixOutOfRange&#45;&gt;X::Syntax -->
<g id="edge6" class="edge">
<title>X::Syntax::Number::RadixOutOfRange&#45;&gt;X::Syntax</title>
<path fill="none" stroke="#6666ff" d="M194.07,-36.3C198.79,-44.36 204.5,-54.11 209.72,-63.02"/>
<polygon fill="#6666ff" stroke="#6666ff" points="206.84,-65.04 214.92,-71.9 212.88,-61.5 206.84,-65.04"/>
</g>
<!-- Mu -->
<g id="node2" class="node">
<title>Mu</title>
<g id="a_node2"><a xlink:href="/type/Mu" xlink:title="Mu">
<ellipse fill="none" stroke="#000000" cx="180.93" cy="-378" rx="27" ry="18"/>
<text text-anchor="middle" x="180.93" y="-374.3" font-family="FreeSans" font-size="14.00" fill="#000000">Mu</text>
</a>
</g>
</g>
<!-- Any -->
<g id="node3" class="node">
<title>Any</title>
<g id="a_node3"><a xlink:href="/type/Any" xlink:title="Any">
<ellipse fill="none" stroke="#000000" cx="180.93" cy="-306" rx="28.7" ry="18"/>
<text text-anchor="middle" x="180.93" y="-302.3" font-family="FreeSans" font-size="14.00" fill="#000000">Any</text>
</a>
</g>
</g>
<!-- Any&#45;&gt;Mu -->
<g id="edge2" class="edge">
<title>Any&#45;&gt;Mu</title>
<path fill="none" stroke="#000000" d="M180.93,-324.3C180.93,-332.02 180.93,-341.29 180.93,-349.89"/>
<polygon fill="#000000" stroke="#000000" points="177.43,-349.9 180.93,-359.9 184.43,-349.9 177.43,-349.9"/>
</g>
<!-- Exception&#45;&gt;Any -->
<g id="edge3" class="edge">
<title>Exception&#45;&gt;Any</title>
<path fill="none" stroke="#000000" d="M180.93,-252.3C180.93,-260.02 180.93,-269.29 180.93,-277.89"/>
<polygon fill="#000000" stroke="#000000" points="177.43,-277.9 180.93,-287.9 184.43,-277.9 177.43,-277.9"/>
</g>
<!-- X::Comp -->
<g id="node5" class="node">
<title>X::Comp</title>
<g id="a_node5"><a xlink:href="/type/X::Comp" xlink:title="X::Comp">
<ellipse fill="none" stroke="#6666ff" cx="257.93" cy="-162" rx="49.29" ry="18"/>
<text text-anchor="middle" x="257.93" y="-158.3" font-family="FreeSans" font-size="14.00" fill="#6666ff">X::Comp</text>
</a>
</g>
</g>
<!-- X::Comp&#45;&gt;Exception -->
<g id="edge4" class="edge">
<title>X::Comp&#45;&gt;Exception</title>
<path fill="none" stroke="#000000" d="M240.46,-178.88C230.29,-188.13 217.31,-199.93 206.06,-210.16"/>
<polygon fill="#000000" stroke="#000000" points="203.65,-207.62 198.6,-216.94 208.36,-212.8 203.65,-207.62"/>
</g>
<!-- X::Syntax&#45;&gt;Exception -->
<g id="edge5" class="edge">
<title>X::Syntax&#45;&gt;Exception</title>
<path fill="none" stroke="#000000" d="M216.89,-108.06C209.58,-123.55 199.93,-144 199.93,-144 199.93,-144 192.28,-179.83 186.69,-206.03"/>
<polygon fill="#000000" stroke="#000000" points="183.26,-205.33 184.6,-215.84 190.11,-206.79 183.26,-205.33"/>
</g>
<!-- X::Syntax&#45;&gt;X::Comp -->
<g id="edge7" class="edge">
<title>X::Syntax&#45;&gt;X::Comp</title>
<path fill="none" stroke="#6666ff" d="M232.92,-107.95C236.73,-116.03 241.38,-125.88 245.62,-134.89"/>
<polygon fill="#6666ff" stroke="#6666ff" points="242.59,-136.66 250.02,-144.21 248.92,-133.67 242.59,-136.66"/>
</g>
</g>
</svg>
