<?xml version="1.0" encoding="UTF-8" standalone="no"?>
<!DOCTYPE svg PUBLIC "-//W3C//DTD SVG 1.1//EN"
 "http://www.w3.org/Graphics/SVG/1.1/DTD/svg11.dtd">
<!-- Generated by graphviz version 2.42.3 (0)
 -->
<!-- Title: perl6&#45;type&#45;graph Pages: 1 -->
<svg width="520pt" height="291pt"
 viewBox="0.00 0.00 519.84 290.70" xmlns="http://www.w3.org/2000/svg" xmlns:xlink="http://www.w3.org/1999/xlink">
<g id="graph0" class="graph" transform="scale(1 1) rotate(0) translate(4 286.7)">
<title>perl6&#45;type&#45;graph</title>
<polygon fill="white" stroke="transparent" points="-4,4 -4,-286.7 515.84,-286.7 515.84,4 -4,4"/>
<!-- X::Comp::NYI -->
<g id="node1" class="node">
<title>X::Comp::NYI</title>
<g id="a_node1"><a xlink:href="/type/X::Comp::NYI" xlink:title="X::Comp::NYI">
<ellipse fill="none" stroke="#000000" cx="70.19" cy="-135.27" rx="70.39" ry="18"/>
<text text-anchor="middle" x="70.19" y="-131.57" font-family="FreeSans" font-size="14.00" fill="#000000">X::Comp::NYI</text>
</a>
</g>
</g>
<!-- Exception -->
<g id="node4" class="node">
<title>Exception</title>
<g id="a_node4"><a xlink:href="/type/Exception" xlink:title="Exception">
<ellipse fill="none" stroke="#000000" cx="203.65" cy="-150.21" rx="55.49" ry="18"/>
<text text-anchor="middle" x="203.65" y="-146.51" font-family="FreeSans" font-size="14.00" fill="#000000">Exception</text>
</a>
</g>
</g>
<!-- X::Comp::NYI&#45;&gt;Exception -->
<g id="edge2" class="edge">
<title>X::Comp::NYI&#45;&gt;Exception</title>
<path fill="none" stroke="#000000" d="M134.57,-142.48C136.76,-142.72 138.95,-142.97 141.14,-143.21"/>
<polygon fill="#000000" stroke="#000000" points="140.95,-146.71 151.28,-144.35 141.73,-139.76 140.95,-146.71"/>
</g>
<!-- X::NYI -->
<g id="node5" class="node">
<title>X::NYI</title>
<g id="a_node5"><a xlink:href="/type/X::NYI" xlink:title="X::NYI">
<ellipse fill="none" stroke="#000000" cx="138.23" cy="-18" rx="38.19" ry="18"/>
<text text-anchor="middle" x="138.23" y="-14.3" font-family="FreeSans" font-size="14.00" fill="#000000">X::NYI</text>
</a>
</g>
</g>
<!-- X::Comp::NYI&#45;&gt;X::NYI -->
<g id="edge1" class="edge">
<title>X::Comp::NYI&#45;&gt;X::NYI</title>
<path fill="none" stroke="#000000" d="M80.53,-117.46C91.78,-98.06 109.9,-66.83 122.83,-44.54"/>
<polygon fill="#000000" stroke="#000000" points="126.03,-46 128.02,-35.59 119.97,-42.49 126.03,-46"/>
</g>
<!-- X::Comp -->
<g id="node6" class="node">
<title>X::Comp</title>
<g id="a_node6"><a xlink:href="/type/X::Comp" xlink:title="X::Comp">
<ellipse fill="none" stroke="#6666ff" cx="110.69" cy="-264.7" rx="49.29" ry="18"/>
<text text-anchor="middle" x="110.69" y="-261" font-family="FreeSans" font-size="14.00" fill="#6666ff">X::Comp</text>
</a>
</g>
</g>
<!-- X::Comp::NYI&#45;&gt;X::Comp -->
<g id="edge7" class="edge">
<title>X::Comp::NYI&#45;&gt;X::Comp</title>
<path fill="none" stroke="#6666ff" d="M75.82,-153.27C82.59,-174.88 94.01,-211.38 101.93,-236.69"/>
<polygon fill="#6666ff" stroke="#6666ff" points="98.65,-237.94 104.98,-246.44 105.33,-235.85 98.65,-237.94"/>
</g>
<!-- Mu -->
<g id="node2" class="node">
<title>Mu</title>
<g id="a_node2"><a xlink:href="/type/Mu" xlink:title="Mu">
<ellipse fill="none" stroke="#000000" cx="484.84" cy="-174.04" rx="27" ry="18"/>
<text text-anchor="middle" x="484.84" y="-170.34" font-family="FreeSans" font-size="14.00" fill="#000000">Mu</text>
</a>
</g>
</g>
<!-- Any -->
<g id="node3" class="node">
<title>Any</title>
<g id="a_node3"><a xlink:href="/type/Any" xlink:title="Any">
<ellipse fill="none" stroke="#000000" cx="346.69" cy="-167.1" rx="28.7" ry="18"/>
<text text-anchor="middle" x="346.69" y="-163.4" font-family="FreeSans" font-size="14.00" fill="#000000">Any</text>
</a>
</g>
</g>
<!-- Any&#45;&gt;Mu -->
<g id="edge3" class="edge">
<title>Any&#45;&gt;Mu</title>
<path fill="none" stroke="#000000" d="M375.32,-168.54C396.19,-169.59 424.68,-171.02 447.37,-172.16"/>
<polygon fill="#000000" stroke="#000000" points="447.5,-175.67 457.66,-172.67 447.85,-168.68 447.5,-175.67"/>
</g>
<!-- Exception&#45;&gt;Any -->
<g id="edge4" class="edge">
<title>Exception&#45;&gt;Any</title>
<path fill="none" stroke="#000000" d="M255.69,-156.36C273.12,-158.41 292.23,-160.67 308.41,-162.58"/>
<polygon fill="#000000" stroke="#000000" points="308.23,-166.08 318.57,-163.78 309.05,-159.13 308.23,-166.08"/>
</g>
<!-- X::NYI&#45;&gt;Exception -->
<g id="edge5" class="edge">
<title>X::NYI&#45;&gt;Exception</title>
<path fill="none" stroke="#000000" d="M146.91,-35.56C158,-57.95 177.28,-96.92 190.25,-123.13"/>
<polygon fill="#000000" stroke="#000000" points="187.14,-124.75 194.71,-132.16 193.42,-121.64 187.14,-124.75"/>
</g>
<!-- X::Comp&#45;&gt;Exception -->
<g id="edge6" class="edge">
<title>X::Comp&#45;&gt;Exception</title>
<path fill="none" stroke="#000000" d="M124.81,-247.32C140.3,-228.23 165.32,-197.42 183.01,-175.63"/>
<polygon fill="#000000" stroke="#000000" points="185.81,-177.73 189.4,-167.76 180.38,-173.32 185.81,-177.73"/>
</g>
</g>
</svg>
