<?xml version="1.0" encoding="UTF-8" standalone="no"?>
<!DOCTYPE svg PUBLIC "-//W3C//DTD SVG 1.1//EN"
 "http://www.w3.org/Graphics/SVG/1.1/DTD/svg11.dtd">
<!-- Generated by graphviz version 2.42.3 (0)
 -->
<!-- Title: perl6&#45;type&#45;graph Pages: 1 -->
<svg width="1922pt" height="1882pt"
 viewBox="0.00 0.00 1921.58 1882.47" xmlns="http://www.w3.org/2000/svg" xmlns:xlink="http://www.w3.org/1999/xlink">
<g id="graph0" class="graph" transform="scale(1 1) rotate(0) translate(4 1878.47)">
<title>perl6&#45;type&#45;graph</title>
<polygon fill="white" stroke="transparent" points="-4,4 -4,-1878.47 1917.58,-1878.47 1917.58,4 -4,4"/>
<!-- Metamodel::Documenting -->
<g id="node1" class="node">
<title>Metamodel::Documenting</title>
<g id="a_node1"><a xlink:href="/type/Metamodel::Documenting" xlink:title="Metamodel::Documenting">
<ellipse fill="none" stroke="#6666ff" cx="1012.7" cy="-869.48" rx="126.98" ry="18"/>
<text text-anchor="middle" x="1012.7" y="-865.78" font-family="FreeSans" font-size="14.00" fill="#6666ff">Metamodel::Documenting</text>
</a>
</g>
</g>
<!-- Mu -->
<g id="node2" class="node">
<title>Mu</title>
<g id="a_node2"><a xlink:href="/type/Mu" xlink:title="Mu">
<ellipse fill="none" stroke="#000000" cx="1648.37" cy="-554.31" rx="27" ry="18"/>
<text text-anchor="middle" x="1648.37" y="-550.61" font-family="FreeSans" font-size="14.00" fill="#000000">Mu</text>
</a>
</g>
</g>
<!-- Any -->
<g id="node3" class="node">
<title>Any</title>
<g id="a_node3"><a xlink:href="/type/Any" xlink:title="Any">
<ellipse fill="none" stroke="#000000" cx="1176.06" cy="-873.72" rx="28.7" ry="18"/>
<text text-anchor="middle" x="1176.06" y="-870.02" font-family="FreeSans" font-size="14.00" fill="#000000">Any</text>
</a>
</g>
</g>
<!-- Any&#45;&gt;Mu -->
<g id="edge1" class="edge">
<title>Any&#45;&gt;Mu</title>
<path fill="none" stroke="#000000" d="M1195.75,-860.4C1270.2,-810.06 1534.58,-631.27 1620.89,-572.9"/>
<polygon fill="#000000" stroke="#000000" points="1623.05,-575.66 1629.37,-567.16 1619.13,-569.86 1623.05,-575.66"/>
</g>
<!-- Metamodel::Naming -->
<g id="node4" class="node">
<title>Metamodel::Naming</title>
<g id="a_node4"><a xlink:href="/type/Metamodel::Naming" xlink:title="Metamodel::Naming">
<ellipse fill="none" stroke="#6666ff" cx="1065.73" cy="-973.66" rx="101.28" ry="18"/>
<text text-anchor="middle" x="1065.73" y="-969.96" font-family="FreeSans" font-size="14.00" fill="#6666ff">Metamodel::Naming</text>
</a>
</g>
</g>
<!-- Metamodel::Versioning -->
<g id="node5" class="node">
<title>Metamodel::Versioning</title>
<g id="a_node5"><a xlink:href="/type/Metamodel::Versioning" xlink:title="Metamodel::Versioning">
<ellipse fill="none" stroke="#6666ff" cx="808.14" cy="-931.48" rx="114.28" ry="18"/>
<text text-anchor="middle" x="808.14" y="-927.78" font-family="FreeSans" font-size="14.00" fill="#6666ff">Metamodel::Versioning</text>
</a>
</g>
</g>
<!-- Metamodel::MethodContainer -->
<g id="node6" class="node">
<title>Metamodel::MethodContainer</title>
<g id="a_node6"><a xlink:href="/type/Metamodel::MethodContainer" xlink:title="Metamodel::MethodContainer">
<ellipse fill="none" stroke="#6666ff" cx="1037.38" cy="-1505.26" rx="143.77" ry="18"/>
<text text-anchor="middle" x="1037.38" y="-1501.56" font-family="FreeSans" font-size="14.00" fill="#6666ff">Metamodel::MethodContainer</text>
</a>
</g>
</g>
<!-- Metamodel::PrivateMethodContainer -->
<g id="node7" class="node">
<title>Metamodel::PrivateMethodContainer</title>
<g id="a_node7"><a xlink:href="/type/Metamodel::PrivateMethodContainer" xlink:title="Metamodel::PrivateMethodContainer">
<ellipse fill="none" stroke="#6666ff" cx="871.91" cy="-1718.69" rx="174.67" ry="18"/>
<text text-anchor="middle" x="871.91" y="-1714.99" font-family="FreeSans" font-size="14.00" fill="#6666ff">Metamodel::PrivateMethodContainer</text>
</a>
</g>
</g>
<!-- Metamodel::MultiMethodContainer -->
<g id="node8" class="node">
<title>Metamodel::MultiMethodContainer</title>
<g id="a_node8"><a xlink:href="/type/Metamodel::MultiMethodContainer" xlink:title="Metamodel::MultiMethodContainer">
<ellipse fill="none" stroke="#6666ff" cx="1220.71" cy="-1687.33" rx="165.97" ry="18"/>
<text text-anchor="middle" x="1220.71" y="-1683.63" font-family="FreeSans" font-size="14.00" fill="#6666ff">Metamodel::MultiMethodContainer</text>
</a>
</g>
</g>
<!-- Metamodel::AttributeContainer -->
<g id="node9" class="node">
<title>Metamodel::AttributeContainer</title>
<g id="a_node9"><a xlink:href="/type/Metamodel::AttributeContainer" xlink:title="Metamodel::AttributeContainer">
<ellipse fill="none" stroke="#6666ff" cx="812.27" cy="-1563.96" rx="150.27" ry="18"/>
<text text-anchor="middle" x="812.27" y="-1560.26" font-family="FreeSans" font-size="14.00" fill="#6666ff">Metamodel::AttributeContainer</text>
</a>
</g>
</g>
<!-- Metamodel::RoleContainer -->
<g id="node10" class="node">
<title>Metamodel::RoleContainer</title>
<g id="a_node10"><a xlink:href="/type/Metamodel::RoleContainer" xlink:title="Metamodel::RoleContainer">
<ellipse fill="none" stroke="#6666ff" cx="1272.01" cy="-1549.29" rx="129.98" ry="18"/>
<text text-anchor="middle" x="1272.01" y="-1545.59" font-family="FreeSans" font-size="14.00" fill="#6666ff">Metamodel::RoleContainer</text>
</a>
</g>
</g>
<!-- Metamodel::MultipleInheritance -->
<g id="node11" class="node">
<title>Metamodel::MultipleInheritance</title>
<g id="a_node11"><a xlink:href="/type/Metamodel::MultipleInheritance" xlink:title="Metamodel::MultipleInheritance">
<ellipse fill="none" stroke="#6666ff" cx="709" cy="-1106.53" rx="153.27" ry="18"/>
<text text-anchor="middle" x="709" y="-1102.83" font-family="FreeSans" font-size="14.00" fill="#6666ff">Metamodel::MultipleInheritance</text>
</a>
</g>
</g>
<!-- Metamodel::Stashing -->
<g id="node12" class="node">
<title>Metamodel::Stashing</title>
<g id="a_node12"><a xlink:href="/type/Metamodel::Stashing" xlink:title="Metamodel::Stashing">
<ellipse fill="none" stroke="#6666ff" cx="859.83" cy="-777.33" rx="105.88" ry="18"/>
<text text-anchor="middle" x="859.83" y="-773.63" font-family="FreeSans" font-size="14.00" fill="#6666ff">Metamodel::Stashing</text>
</a>
</g>
</g>
<!-- Metamodel::TypePretense -->
<g id="node13" class="node">
<title>Metamodel::TypePretense</title>
<g id="a_node13"><a xlink:href="/type/Metamodel::TypePretense" xlink:title="Metamodel::TypePretense">
<ellipse fill="none" stroke="#6666ff" cx="1622.43" cy="-788.8" rx="126.18" ry="18"/>
<text text-anchor="middle" x="1622.43" y="-785.1" font-family="FreeSans" font-size="14.00" fill="#6666ff">Metamodel::TypePretense</text>
</a>
</g>
</g>
<!-- Metamodel::RolePunning -->
<g id="node14" class="node">
<title>Metamodel::RolePunning</title>
<g id="a_node14"><a xlink:href="/type/Metamodel::RolePunning" xlink:title="Metamodel::RolePunning">
<ellipse fill="none" stroke="#6666ff" cx="1790.74" cy="-1437.14" rx="122.68" ry="18"/>
<text text-anchor="middle" x="1790.74" y="-1433.44" font-family="FreeSans" font-size="14.00" fill="#6666ff">Metamodel::RolePunning</text>
</a>
</g>
</g>
<!-- Metamodel::ParametricRoleHOW -->
<g id="node15" class="node">
<title>Metamodel::ParametricRoleHOW</title>
<g id="a_node15"><a xlink:href="/type/Metamodel::ParametricRoleHOW" xlink:title="Metamodel::ParametricRoleHOW">
<ellipse fill="none" stroke="#000000" cx="1266.55" cy="-1225.93" rx="157.07" ry="18"/>
<text text-anchor="middle" x="1266.55" y="-1222.23" font-family="FreeSans" font-size="14.00" fill="#000000">Metamodel::ParametricRoleHOW</text>
</a>
</g>
</g>
<!-- Metamodel::ParametricRoleHOW&#45;&gt;Metamodel::Documenting -->
<g id="edge9" class="edge">
<title>Metamodel::ParametricRoleHOW&#45;&gt;Metamodel::Documenting</title>
<path fill="none" stroke="#6666ff" d="M1259.51,-1207.8C1237.08,-1149.98 1168.72,-973.76 1168.72,-973.76 1168.72,-973.76 1093.67,-923.59 1047.67,-892.85"/>
<polygon fill="#6666ff" stroke="#6666ff" points="1049.43,-889.82 1039.17,-887.17 1045.54,-895.63 1049.43,-889.82"/>
</g>
<!-- Metamodel::ParametricRoleHOW&#45;&gt;Any -->
<g id="edge2" class="edge">
<title>Metamodel::ParametricRoleHOW&#45;&gt;Any</title>
<path fill="none" stroke="#000000" d="M1261.81,-1207.49C1246.9,-1149.47 1200.89,-970.38 1183.14,-901.3"/>
<polygon fill="#000000" stroke="#000000" points="1186.52,-900.37 1180.64,-891.56 1179.74,-902.11 1186.52,-900.37"/>
</g>
<!-- Metamodel::ParametricRoleHOW&#45;&gt;Metamodel::Naming -->
<g id="edge8" class="edge">
<title>Metamodel::ParametricRoleHOW&#45;&gt;Metamodel::Naming</title>
<path fill="none" stroke="#6666ff" d="M1252.11,-1207.79C1217.01,-1163.7 1127.13,-1050.79 1086.38,-999.59"/>
<polygon fill="#6666ff" stroke="#6666ff" points="1089.01,-997.28 1080.04,-991.64 1083.53,-1001.64 1089.01,-997.28"/>
</g>
<!-- Metamodel::ParametricRoleHOW&#45;&gt;Metamodel::Versioning -->
<g id="edge10" class="edge">
<title>Metamodel::ParametricRoleHOW&#45;&gt;Metamodel::Versioning</title>
<path fill="none" stroke="#6666ff" d="M1238.91,-1208.18C1159.84,-1157.39 932.76,-1011.53 844.15,-954.61"/>
<polygon fill="#6666ff" stroke="#6666ff" points="845.83,-951.53 835.53,-949.07 842.05,-957.42 845.83,-951.53"/>
</g>
<!-- Metamodel::ParametricRoleHOW&#45;&gt;Metamodel::MethodContainer -->
<g id="edge11" class="edge">
<title>Metamodel::ParametricRoleHOW&#45;&gt;Metamodel::MethodContainer</title>
<path fill="none" stroke="#6666ff" d="M1251.51,-1244.26C1211.92,-1292.52 1104.69,-1423.21 1058.75,-1479.21"/>
<polygon fill="#6666ff" stroke="#6666ff" points="1055.81,-1477.28 1052.17,-1487.23 1061.22,-1481.72 1055.81,-1477.28"/>
</g>
<!-- Metamodel::ParametricRoleHOW&#45;&gt;Metamodel::PrivateMethodContainer -->
<g id="edge12" class="edge">
<title>Metamodel::ParametricRoleHOW&#45;&gt;Metamodel::PrivateMethodContainer</title>
<path fill="none" stroke="#6666ff" d="M1261.04,-1244.26C1242.37,-1306.41 1182.62,-1505.28 1182.62,-1505.28 1182.62,-1505.28 987.06,-1639.6 906.23,-1695.12"/>
<polygon fill="#6666ff" stroke="#6666ff" points="904.13,-1692.32 897.87,-1700.86 908.09,-1698.09 904.13,-1692.32"/>
</g>
<!-- Metamodel::ParametricRoleHOW&#45;&gt;Metamodel::MultiMethodContainer -->
<g id="edge13" class="edge">
<title>Metamodel::ParametricRoleHOW&#45;&gt;Metamodel::MultiMethodContainer</title>
<path fill="none" stroke="#6666ff" d="M1261.04,-1244.26C1242.37,-1306.41 1182.62,-1505.28 1182.62,-1505.28 1182.62,-1505.28 1140.43,-1549.16 1140.43,-1549.16 1140.43,-1549.16 1181.76,-1620.3 1205.11,-1660.48"/>
<polygon fill="#6666ff" stroke="#6666ff" points="1202.17,-1662.38 1210.22,-1669.26 1208.22,-1658.86 1202.17,-1662.38"/>
</g>
<!-- Metamodel::ParametricRoleHOW&#45;&gt;Metamodel::AttributeContainer -->
<g id="edge14" class="edge">
<title>Metamodel::ParametricRoleHOW&#45;&gt;Metamodel::AttributeContainer</title>
<path fill="none" stroke="#6666ff" d="M1242.45,-1243.87C1166.29,-1300.54 930.78,-1475.78 844.43,-1540.03"/>
<polygon fill="#6666ff" stroke="#6666ff" points="842.25,-1537.29 836.31,-1546.07 846.42,-1542.91 842.25,-1537.29"/>
</g>
<!-- Metamodel::ParametricRoleHOW&#45;&gt;Metamodel::RoleContainer -->
<g id="edge15" class="edge">
<title>Metamodel::ParametricRoleHOW&#45;&gt;Metamodel::RoleContainer</title>
<path fill="none" stroke="#6666ff" d="M1266.86,-1244.25C1267.77,-1298.05 1270.44,-1455.93 1271.53,-1520.88"/>
<polygon fill="#6666ff" stroke="#6666ff" points="1268.04,-1521.24 1271.71,-1531.18 1275.04,-1521.13 1268.04,-1521.24"/>
</g>
<!-- Metamodel::ParametricRoleHOW&#45;&gt;Metamodel::MultipleInheritance -->
<g id="edge16" class="edge">
<title>Metamodel::ParametricRoleHOW&#45;&gt;Metamodel::MultipleInheritance</title>
<path fill="none" stroke="#6666ff" d="M1192.22,-1210.02C1088.58,-1187.82 901.19,-1147.69 792.74,-1124.47"/>
<polygon fill="#6666ff" stroke="#6666ff" points="793.32,-1121.01 782.81,-1122.34 791.86,-1127.86 793.32,-1121.01"/>
</g>
<!-- Metamodel::ParametricRoleHOW&#45;&gt;Metamodel::Stashing -->
<g id="edge17" class="edge">
<title>Metamodel::ParametricRoleHOW&#45;&gt;Metamodel::Stashing</title>
<path fill="none" stroke="#6666ff" d="M1244.7,-1207.78C1175.04,-1149.92 962.74,-973.56 962.74,-973.56 962.74,-973.56 884.37,-869.37 884.37,-869.37 884.37,-869.37 874.51,-832.39 867.29,-805.31"/>
<polygon fill="#6666ff" stroke="#6666ff" points="870.63,-804.27 864.67,-795.51 863.87,-806.08 870.63,-804.27"/>
</g>
<!-- Metamodel::ParametricRoleHOW&#45;&gt;Metamodel::TypePretense -->
<g id="edge18" class="edge">
<title>Metamodel::ParametricRoleHOW&#45;&gt;Metamodel::TypePretense</title>
<path fill="none" stroke="#6666ff" d="M1280.98,-1207.76C1326.31,-1150.68 1462.81,-978.76 1462.81,-978.76 1462.81,-978.76 1556.84,-866.85 1600.56,-814.83"/>
<polygon fill="#6666ff" stroke="#6666ff" points="1603.37,-816.93 1607.13,-807.02 1598.01,-812.42 1603.37,-816.93"/>
</g>
<!-- Metamodel::ParametricRoleHOW&#45;&gt;Metamodel::RolePunning -->
<g id="edge19" class="edge">
<title>Metamodel::ParametricRoleHOW&#45;&gt;Metamodel::RolePunning</title>
<path fill="none" stroke="#6666ff" d="M1309.89,-1243.4C1405.87,-1282.07 1635.99,-1374.79 1739.16,-1416.36"/>
<polygon fill="#6666ff" stroke="#6666ff" points="1737.86,-1419.61 1748.45,-1420.1 1740.48,-1413.12 1737.86,-1419.61"/>
</g>
<!-- Metamodel::MethodDelegation -->
<g id="node16" class="node">
<title>Metamodel::MethodDelegation</title>
<g id="a_node16"><a xlink:href="/type/Metamodel::MethodDelegation" xlink:title="Metamodel::MethodDelegation">
<ellipse fill="none" stroke="#6666ff" cx="1215.1" cy="-18" rx="148.37" ry="18"/>
<text text-anchor="middle" x="1215.1" y="-14.3" font-family="FreeSans" font-size="14.00" fill="#6666ff">Metamodel::MethodDelegation</text>
</a>
</g>
</g>
<!-- Metamodel::ModuleHOW -->
<g id="node17" class="node">
<title>Metamodel::ModuleHOW</title>
<g id="a_node17"><a xlink:href="/type/Metamodel::ModuleHOW" xlink:title="Metamodel::ModuleHOW">
<ellipse fill="none" stroke="#000000" cx="1056.92" cy="-466.84" rx="122.38" ry="18"/>
<text text-anchor="middle" x="1056.92" y="-463.14" font-family="FreeSans" font-size="14.00" fill="#000000">Metamodel::ModuleHOW</text>
</a>
</g>
</g>
<!-- Metamodel::ModuleHOW&#45;&gt;Metamodel::Documenting -->
<g id="edge21" class="edge">
<title>Metamodel::ModuleHOW&#45;&gt;Metamodel::Documenting</title>
<path fill="none" stroke="#6666ff" d="M1054.94,-484.93C1047.92,-548.79 1024.28,-764.07 1015.78,-841.47"/>
<polygon fill="#6666ff" stroke="#6666ff" points="1012.3,-841.12 1014.69,-851.45 1019.26,-841.89 1012.3,-841.12"/>
</g>
<!-- Metamodel::ModuleHOW&#45;&gt;Any -->
<g id="edge3" class="edge">
<title>Metamodel::ModuleHOW&#45;&gt;Any</title>
<path fill="none" stroke="#000000" d="M1062.2,-484.85C1081.03,-549.19 1145.1,-767.98 1167.91,-845.89"/>
<polygon fill="#000000" stroke="#000000" points="1164.68,-847.31 1170.85,-855.92 1171.39,-845.34 1164.68,-847.31"/>
</g>
<!-- Metamodel::ModuleHOW&#45;&gt;Metamodel::Naming -->
<g id="edge20" class="edge">
<title>Metamodel::ModuleHOW&#45;&gt;Metamodel::Naming</title>
<path fill="none" stroke="#6666ff" d="M1060.7,-484.93C1077.07,-563.3 1141.04,-869.58 1141.04,-869.58 1141.04,-869.58 1107.11,-916.48 1084.8,-947.31"/>
<polygon fill="#6666ff" stroke="#6666ff" points="1081.88,-945.38 1078.85,-955.53 1087.55,-949.48 1081.88,-945.38"/>
</g>
<!-- Metamodel::ModuleHOW&#45;&gt;Metamodel::Versioning -->
<g id="edge22" class="edge">
<title>Metamodel::ModuleHOW&#45;&gt;Metamodel::Versioning</title>
<path fill="none" stroke="#6666ff" d="M1051.72,-484.88C1032.61,-551.16 967.37,-777.4 967.37,-777.4 967.37,-777.4 879.21,-862.7 834.09,-906.37"/>
<polygon fill="#6666ff" stroke="#6666ff" points="831.47,-904.03 826.71,-913.5 836.34,-909.07 831.47,-904.03"/>
</g>
<!-- Metamodel::ModuleHOW&#45;&gt;Metamodel::Stashing -->
<g id="edge23" class="edge">
<title>Metamodel::ModuleHOW&#45;&gt;Metamodel::Stashing</title>
<path fill="none" stroke="#6666ff" d="M1045.48,-484.88C1012.34,-537.07 916.22,-688.49 876.9,-750.44"/>
<polygon fill="#6666ff" stroke="#6666ff" points="873.71,-748.92 871.31,-759.24 879.62,-752.68 873.71,-748.92"/>
</g>
<!-- Metamodel::ModuleHOW&#45;&gt;Metamodel::TypePretense -->
<g id="edge24" class="edge">
<title>Metamodel::ModuleHOW&#45;&gt;Metamodel::TypePretense</title>
<path fill="none" stroke="#6666ff" d="M1087.73,-484.38C1183.47,-538.89 1475.82,-705.33 1582.73,-766.2"/>
<polygon fill="#6666ff" stroke="#6666ff" points="1581.17,-769.34 1591.6,-771.25 1584.64,-763.26 1581.17,-769.34"/>
</g>
<!-- Metamodel::ModuleHOW&#45;&gt;Metamodel::MethodDelegation -->
<g id="edge25" class="edge">
<title>Metamodel::ModuleHOW&#45;&gt;Metamodel::MethodDelegation</title>
<path fill="none" stroke="#6666ff" d="M1063.32,-448.69C1087.79,-379.26 1175.56,-130.2 1205.22,-46.02"/>
<polygon fill="#6666ff" stroke="#6666ff" points="1208.6,-46.97 1208.62,-36.38 1202,-44.65 1208.6,-46.97"/>
</g>
<!-- Metamodel::Finalization -->
<g id="node18" class="node">
<title>Metamodel::Finalization</title>
<g id="a_node18"><a xlink:href="/type/Metamodel::Finalization" xlink:title="Metamodel::Finalization">
<ellipse fill="none" stroke="#6666ff" cx="242.65" cy="-1546.74" rx="116.98" ry="18"/>
<text text-anchor="middle" x="242.65" y="-1543.04" font-family="FreeSans" font-size="14.00" fill="#6666ff">Metamodel::Finalization</text>
</a>
</g>
</g>
<!-- Metamodel::DefaultParent -->
<g id="node19" class="node">
<title>Metamodel::DefaultParent</title>
<g id="a_node19"><a xlink:href="/type/Metamodel::DefaultParent" xlink:title="Metamodel::DefaultParent">
<ellipse fill="none" stroke="#6666ff" cx="153.4" cy="-1391.34" rx="128.08" ry="18"/>
<text text-anchor="middle" x="153.4" y="-1387.64" font-family="FreeSans" font-size="14.00" fill="#6666ff">Metamodel::DefaultParent</text>
</a>
</g>
</g>
<!-- Metamodel::C3MRO -->
<g id="node20" class="node">
<title>Metamodel::C3MRO</title>
<g id="a_node20"><a xlink:href="/type/Metamodel::C3MRO" xlink:title="Metamodel::C3MRO">
<ellipse fill="none" stroke="#6666ff" cx="310.34" cy="-1162.75" rx="100.18" ry="18"/>
<text text-anchor="middle" x="310.34" y="-1159.05" font-family="FreeSans" font-size="14.00" fill="#6666ff">Metamodel::C3MRO</text>
</a>
</g>
</g>
<!-- Metamodel::MROBasedMethodDispatch -->
<g id="node21" class="node">
<title>Metamodel::MROBasedMethodDispatch</title>
<g id="a_node21"><a xlink:href="/type/Metamodel::MROBasedMethodDispatch" xlink:title="Metamodel::MROBasedMethodDispatch">
<ellipse fill="none" stroke="#6666ff" cx="188.48" cy="-1058.01" rx="188.47" ry="18"/>
<text text-anchor="middle" x="188.48" y="-1054.31" font-family="FreeSans" font-size="14.00" fill="#6666ff">Metamodel::MROBasedMethodDispatch</text>
</a>
</g>
</g>
<!-- Metamodel::MROBasedTypeChecking -->
<g id="node22" class="node">
<title>Metamodel::MROBasedTypeChecking</title>
<g id="a_node22"><a xlink:href="/type/Metamodel::MROBasedTypeChecking" xlink:title="Metamodel::MROBasedTypeChecking">
<ellipse fill="none" stroke="#6666ff" cx="275.49" cy="-936.11" rx="178.97" ry="18"/>
<text text-anchor="middle" x="275.49" y="-932.41" font-family="FreeSans" font-size="14.00" fill="#6666ff">Metamodel::MROBasedTypeChecking</text>
</a>
</g>
</g>
<!-- Metamodel::Trusting -->
<g id="node23" class="node">
<title>Metamodel::Trusting</title>
<g id="a_node23"><a xlink:href="/type/Metamodel::Trusting" xlink:title="Metamodel::Trusting">
<ellipse fill="none" stroke="#6666ff" cx="478.73" cy="-1780.15" rx="102.88" ry="18"/>
<text text-anchor="middle" x="478.73" y="-1776.45" font-family="FreeSans" font-size="14.00" fill="#6666ff">Metamodel::Trusting</text>
</a>
</g>
</g>
<!-- Metamodel::BUILDPLAN -->
<g id="node24" class="node">
<title>Metamodel::BUILDPLAN</title>
<g id="a_node24"><a xlink:href="/type/Metamodel::BUILDPLAN" xlink:title="Metamodel::BUILDPLAN">
<ellipse fill="none" stroke="#6666ff" cx="641.09" cy="-1856.47" rx="118.08" ry="18"/>
<text text-anchor="middle" x="641.09" y="-1852.77" font-family="FreeSans" font-size="14.00" fill="#6666ff">Metamodel::BUILDPLAN</text>
</a>
</g>
</g>
<!-- Metamodel::Mixins -->
<g id="node25" class="node">
<title>Metamodel::Mixins</title>
<g id="a_node25"><a xlink:href="/type/Metamodel::Mixins" xlink:title="Metamodel::Mixins">
<ellipse fill="none" stroke="#6666ff" cx="343.67" cy="-1678.83" rx="94.78" ry="18"/>
<text text-anchor="middle" x="343.67" y="-1675.13" font-family="FreeSans" font-size="14.00" fill="#6666ff">Metamodel::Mixins</text>
</a>
</g>
</g>
<!-- Metamodel::BoolificationProtocol -->
<g id="node26" class="node">
<title>Metamodel::BoolificationProtocol</title>
<g id="a_node26"><a xlink:href="/type/Metamodel::BoolificationProtocol" xlink:title="Metamodel::BoolificationProtocol">
<ellipse fill="none" stroke="#6666ff" cx="317.05" cy="-804.96" rx="157.07" ry="18"/>
<text text-anchor="middle" x="317.05" y="-801.26" font-family="FreeSans" font-size="14.00" fill="#6666ff">Metamodel::BoolificationProtocol</text>
</a>
</g>
</g>
<!-- Metamodel::ClassHOW -->
<g id="node27" class="node">
<title>Metamodel::ClassHOW</title>
<g id="a_node27"><a xlink:href="/type/Metamodel::ClassHOW" xlink:title="Metamodel::ClassHOW">
<ellipse fill="none" stroke="#000000" cx="681.04" cy="-1299.31" rx="113.18" ry="18"/>
<text text-anchor="middle" x="681.04" y="-1295.61" font-family="FreeSans" font-size="14.00" fill="#000000">Metamodel::ClassHOW</text>
</a>
</g>
</g>
<!-- Metamodel::ClassHOW&#45;&gt;Metamodel::Documenting -->
<g id="edge27" class="edge">
<title>Metamodel::ClassHOW&#45;&gt;Metamodel::Documenting</title>
<path fill="none" stroke="#6666ff" d="M698.25,-1281.19C743.79,-1233.23 863.98,-1106.65 863.98,-1106.65 863.98,-1106.65 957.07,-958.19 995.96,-896.19"/>
<polygon fill="#6666ff" stroke="#6666ff" points="998.93,-898.03 1001.28,-887.69 993,-894.31 998.93,-898.03"/>
</g>
<!-- Metamodel::ClassHOW&#45;&gt;Any -->
<g id="edge4" class="edge">
<title>Metamodel::ClassHOW&#45;&gt;Any</title>
<path fill="none" stroke="#000000" d="M698.25,-1281.19C743.79,-1233.23 863.98,-1106.65 863.98,-1106.65 863.98,-1106.65 962.74,-973.56 962.74,-973.56 962.74,-973.56 1083.69,-916.95 1143.44,-888.98"/>
<polygon fill="#000000" stroke="#000000" points="1145.25,-892 1152.82,-884.59 1142.28,-885.66 1145.25,-892"/>
</g>
<!-- Metamodel::ClassHOW&#45;&gt;Metamodel::Naming -->
<g id="edge26" class="edge">
<title>Metamodel::ClassHOW&#45;&gt;Metamodel::Naming</title>
<path fill="none" stroke="#6666ff" d="M702,-1281.57C766.46,-1227 961.95,-1061.51 1036.46,-998.44"/>
<polygon fill="#6666ff" stroke="#6666ff" points="1039.15,-1000.75 1044.52,-991.62 1034.63,-995.41 1039.15,-1000.75"/>
</g>
<!-- Metamodel::ClassHOW&#45;&gt;Metamodel::Versioning -->
<g id="edge28" class="edge">
<title>Metamodel::ClassHOW&#45;&gt;Metamodel::Versioning</title>
<path fill="none" stroke="#6666ff" d="M698.25,-1281.19C743.79,-1233.23 863.98,-1106.65 863.98,-1106.65 863.98,-1106.65 832.77,-1008.75 817.01,-959.32"/>
<polygon fill="#6666ff" stroke="#6666ff" points="820.28,-958.03 813.9,-949.57 813.61,-960.16 820.28,-958.03"/>
</g>
<!-- Metamodel::ClassHOW&#45;&gt;Metamodel::MethodContainer -->
<g id="edge32" class="edge">
<title>Metamodel::ClassHOW&#45;&gt;Metamodel::MethodContainer</title>
<path fill="none" stroke="#6666ff" d="M711.12,-1316.69C775.4,-1353.85 926.16,-1440.98 997.98,-1482.49"/>
<polygon fill="#6666ff" stroke="#6666ff" points="996.35,-1485.58 1006.75,-1487.56 999.85,-1479.52 996.35,-1485.58"/>
</g>
<!-- Metamodel::ClassHOW&#45;&gt;Metamodel::PrivateMethodContainer -->
<g id="edge33" class="edge">
<title>Metamodel::ClassHOW&#45;&gt;Metamodel::PrivateMethodContainer</title>
<path fill="none" stroke="#6666ff" d="M679.63,-1317.49C675,-1377.25 660.53,-1563.82 660.53,-1563.82 660.53,-1563.82 779.5,-1650.98 838.94,-1694.53"/>
<polygon fill="#6666ff" stroke="#6666ff" points="837.12,-1697.54 847.25,-1700.62 841.25,-1691.89 837.12,-1697.54"/>
</g>
<!-- Metamodel::ClassHOW&#45;&gt;Metamodel::MultiMethodContainer -->
<g id="edge34" class="edge">
<title>Metamodel::ClassHOW&#45;&gt;Metamodel::MultiMethodContainer</title>
<path fill="none" stroke="#6666ff" d="M699.41,-1317.23C750.77,-1367.33 892.14,-1505.24 892.14,-1505.24 892.14,-1505.24 1091.57,-1615.76 1179.69,-1664.59"/>
<polygon fill="#6666ff" stroke="#6666ff" points="1178.17,-1667.75 1188.61,-1669.54 1181.56,-1661.63 1178.17,-1667.75"/>
</g>
<!-- Metamodel::ClassHOW&#45;&gt;Metamodel::AttributeContainer -->
<g id="edge30" class="edge">
<title>Metamodel::ClassHOW&#45;&gt;Metamodel::AttributeContainer</title>
<path fill="none" stroke="#6666ff" d="M690.06,-1317.5C712.68,-1363.11 771.9,-1482.55 798.72,-1536.64"/>
<polygon fill="#6666ff" stroke="#6666ff" points="795.61,-1538.24 803.18,-1545.65 801.88,-1535.13 795.61,-1538.24"/>
</g>
<!-- Metamodel::ClassHOW&#45;&gt;Metamodel::RoleContainer -->
<g id="edge35" class="edge">
<title>Metamodel::ClassHOW&#45;&gt;Metamodel::RoleContainer</title>
<path fill="none" stroke="#6666ff" d="M722.09,-1316.17C841.88,-1365.36 1182.62,-1505.28 1182.62,-1505.28 1182.62,-1505.28 1205.08,-1516.34 1227.48,-1527.37"/>
<polygon fill="#6666ff" stroke="#6666ff" points="1226.16,-1530.62 1236.68,-1531.9 1229.26,-1524.34 1226.16,-1530.62"/>
</g>
<!-- Metamodel::ClassHOW&#45;&gt;Metamodel::MultipleInheritance -->
<g id="edge36" class="edge">
<title>Metamodel::ClassHOW&#45;&gt;Metamodel::MultipleInheritance</title>
<path fill="none" stroke="#6666ff" d="M683.67,-1281.18C688.56,-1247.45 699.09,-1174.86 704.91,-1134.7"/>
<polygon fill="#6666ff" stroke="#6666ff" points="708.38,-1135.16 706.36,-1124.76 701.46,-1134.16 708.38,-1135.16"/>
</g>
<!-- Metamodel::ClassHOW&#45;&gt;Metamodel::Stashing -->
<g id="edge29" class="edge">
<title>Metamodel::ClassHOW&#45;&gt;Metamodel::Stashing</title>
<path fill="none" stroke="#6666ff" d="M698.25,-1281.19C743.79,-1233.23 863.98,-1106.65 863.98,-1106.65 863.98,-1106.65 924.13,-931.52 924.13,-931.52 924.13,-931.52 884.37,-869.37 884.37,-869.37 884.37,-869.37 874.51,-832.39 867.29,-805.31"/>
<polygon fill="#6666ff" stroke="#6666ff" points="870.63,-804.27 864.67,-795.51 863.87,-806.08 870.63,-804.27"/>
</g>
<!-- Metamodel::ClassHOW&#45;&gt;Metamodel::Finalization -->
<g id="edge31" class="edge">
<title>Metamodel::ClassHOW&#45;&gt;Metamodel::Finalization</title>
<path fill="none" stroke="#6666ff" d="M650.22,-1316.71C572.47,-1360.59 368.49,-1475.71 282.16,-1524.44"/>
<polygon fill="#6666ff" stroke="#6666ff" points="280.43,-1521.39 273.44,-1529.36 283.87,-1527.49 280.43,-1521.39"/>
</g>
<!-- Metamodel::ClassHOW&#45;&gt;Metamodel::DefaultParent -->
<g id="edge37" class="edge">
<title>Metamodel::ClassHOW&#45;&gt;Metamodel::DefaultParent</title>
<path fill="none" stroke="#6666ff" d="M604.6,-1312.65C508.97,-1329.33 345.43,-1357.85 243.72,-1375.59"/>
<polygon fill="#6666ff" stroke="#6666ff" points="243.02,-1372.16 233.77,-1377.32 244.22,-1379.05 243.02,-1372.16"/>
</g>
<!-- Metamodel::ClassHOW&#45;&gt;Metamodel::C3MRO -->
<g id="edge38" class="edge">
<title>Metamodel::ClassHOW&#45;&gt;Metamodel::C3MRO</title>
<path fill="none" stroke="#6666ff" d="M635.96,-1282.7C567.36,-1257.43 437.02,-1209.41 363.76,-1182.43"/>
<polygon fill="#6666ff" stroke="#6666ff" points="364.85,-1179.09 354.25,-1178.92 362.43,-1185.66 364.85,-1179.09"/>
</g>
<!-- Metamodel::ClassHOW&#45;&gt;Metamodel::MROBasedMethodDispatch -->
<g id="edge39" class="edge">
<title>Metamodel::ClassHOW&#45;&gt;Metamodel::MROBasedMethodDispatch</title>
<path fill="none" stroke="#6666ff" d="M646.97,-1282.03C574.59,-1245.31 412.03,-1162.86 412.03,-1162.86 412.03,-1162.86 382.66,-1148.97 382.66,-1148.97 382.66,-1148.97 293.14,-1107.03 235.66,-1080.11"/>
<polygon fill="#6666ff" stroke="#6666ff" points="236.92,-1076.84 226.38,-1075.76 233.95,-1083.18 236.92,-1076.84"/>
</g>
<!-- Metamodel::ClassHOW&#45;&gt;Metamodel::MROBasedTypeChecking -->
<g id="edge40" class="edge">
<title>Metamodel::ClassHOW&#45;&gt;Metamodel::MROBasedTypeChecking</title>
<path fill="none" stroke="#6666ff" d="M661.21,-1281.55C594.92,-1222.19 380.93,-1030.54 303.66,-961.34"/>
<polygon fill="#6666ff" stroke="#6666ff" points="305.55,-958.34 295.77,-954.27 300.88,-963.55 305.55,-958.34"/>
</g>
<!-- Metamodel::ClassHOW&#45;&gt;Metamodel::Trusting -->
<g id="edge41" class="edge">
<title>Metamodel::ClassHOW&#45;&gt;Metamodel::Trusting</title>
<path fill="none" stroke="#6666ff" d="M673.48,-1317.29C642.78,-1390.26 527.32,-1664.68 490.26,-1752.76"/>
<polygon fill="#6666ff" stroke="#6666ff" points="486.99,-1751.51 486.33,-1762.09 493.44,-1754.23 486.99,-1751.51"/>
</g>
<!-- Metamodel::ClassHOW&#45;&gt;Metamodel::BUILDPLAN -->
<g id="edge42" class="edge">
<title>Metamodel::ClassHOW&#45;&gt;Metamodel::BUILDPLAN</title>
<path fill="none" stroke="#6666ff" d="M679.63,-1317.49C675,-1377.25 660.53,-1563.82 660.53,-1563.82 660.53,-1563.82 647.9,-1754.06 643,-1827.78"/>
<polygon fill="#6666ff" stroke="#6666ff" points="639.48,-1827.96 642.31,-1838.17 646.46,-1828.42 639.48,-1827.96"/>
</g>
<!-- Metamodel::ClassHOW&#45;&gt;Metamodel::Mixins -->
<g id="edge43" class="edge">
<title>Metamodel::ClassHOW&#45;&gt;Metamodel::Mixins</title>
<path fill="none" stroke="#6666ff" d="M665,-1317.36C610.28,-1378.92 430.82,-1580.8 366.7,-1652.93"/>
<polygon fill="#6666ff" stroke="#6666ff" points="363.85,-1650.87 359.82,-1660.67 369.08,-1655.52 363.85,-1650.87"/>
</g>
<!-- Metamodel::ClassHOW&#45;&gt;Metamodel::BoolificationProtocol -->
<g id="edge44" class="edge">
<title>Metamodel::ClassHOW&#45;&gt;Metamodel::BoolificationProtocol</title>
<path fill="none" stroke="#6666ff" d="M669.09,-1281.17C637.47,-1233.15 554.02,-1106.41 554.02,-1106.41 554.02,-1106.41 455.82,-936.3 455.82,-936.3 455.82,-936.3 383.96,-868.29 343.66,-830.15"/>
<polygon fill="#6666ff" stroke="#6666ff" points="345.72,-827.28 336.05,-822.95 340.91,-832.37 345.72,-827.28"/>
</g>
<!-- Metamodel::PackageHOW -->
<g id="node28" class="node">
<title>Metamodel::PackageHOW</title>
<g id="a_node28"><a xlink:href="/type/Metamodel::PackageHOW" xlink:title="Metamodel::PackageHOW">
<ellipse fill="none" stroke="#000000" cx="1313.96" cy="-482.64" rx="126.98" ry="18"/>
<text text-anchor="middle" x="1313.96" y="-478.94" font-family="FreeSans" font-size="14.00" fill="#000000">Metamodel::PackageHOW</text>
</a>
</g>
</g>
<!-- Metamodel::PackageHOW&#45;&gt;Metamodel::Documenting -->
<g id="edge46" class="edge">
<title>Metamodel::PackageHOW&#45;&gt;Metamodel::Documenting</title>
<path fill="none" stroke="#6666ff" d="M1299.83,-500.78C1251.21,-563.22 1090.6,-769.46 1033.27,-843.08"/>
<polygon fill="#6666ff" stroke="#6666ff" points="1030.18,-841.34 1026.8,-851.38 1035.71,-845.64 1030.18,-841.34"/>
</g>
<!-- Metamodel::PackageHOW&#45;&gt;Any -->
<g id="edge5" class="edge">
<title>Metamodel::PackageHOW&#45;&gt;Any</title>
<path fill="none" stroke="#000000" d="M1307.59,-500.72C1285.53,-563.27 1212.35,-770.8 1185.79,-846.11"/>
<polygon fill="#000000" stroke="#000000" points="1182.39,-845.24 1182.36,-855.83 1188.99,-847.57 1182.39,-845.24"/>
</g>
<!-- Metamodel::PackageHOW&#45;&gt;Metamodel::Naming -->
<g id="edge45" class="edge">
<title>Metamodel::PackageHOW&#45;&gt;Metamodel::Naming</title>
<path fill="none" stroke="#6666ff" d="M1305.85,-500.78C1271.67,-577.28 1141.04,-869.58 1141.04,-869.58 1141.04,-869.58 1107.11,-916.48 1084.8,-947.31"/>
<polygon fill="#6666ff" stroke="#6666ff" points="1081.88,-945.38 1078.85,-955.53 1087.55,-949.48 1081.88,-945.38"/>
</g>
<!-- Metamodel::PackageHOW&#45;&gt;Metamodel::Stashing -->
<g id="edge47" class="edge">
<title>Metamodel::PackageHOW&#45;&gt;Metamodel::Stashing</title>
<path fill="none" stroke="#6666ff" d="M1286.57,-500.41C1208.15,-551.3 982.75,-697.56 895.2,-754.38"/>
<polygon fill="#6666ff" stroke="#6666ff" points="893.16,-751.53 886.67,-759.91 896.97,-757.4 893.16,-751.53"/>
</g>
<!-- Metamodel::PackageHOW&#45;&gt;Metamodel::TypePretense -->
<g id="edge48" class="edge">
<title>Metamodel::PackageHOW&#45;&gt;Metamodel::TypePretense</title>
<path fill="none" stroke="#6666ff" d="M1332.33,-500.87C1384.95,-553.09 1536.29,-703.31 1596.89,-763.46"/>
<polygon fill="#6666ff" stroke="#6666ff" points="1594.59,-766.1 1604.15,-770.66 1599.52,-761.14 1594.59,-766.1"/>
</g>
<!-- Metamodel::PackageHOW&#45;&gt;Metamodel::MethodDelegation -->
<g id="edge49" class="edge">
<title>Metamodel::PackageHOW&#45;&gt;Metamodel::MethodDelegation</title>
<path fill="none" stroke="#6666ff" d="M1310.08,-464.42C1294.9,-393.07 1239.41,-132.27 1221.05,-45.95"/>
<polygon fill="#6666ff" stroke="#6666ff" points="1224.45,-45.14 1218.95,-36.09 1217.61,-46.6 1224.45,-45.14"/>
</g>
<!-- Metamodel::NativeHOW -->
<g id="node29" class="node">
<title>Metamodel::NativeHOW</title>
<g id="a_node29"><a xlink:href="/type/Metamodel::NativeHOW" xlink:title="Metamodel::NativeHOW">
<ellipse fill="none" stroke="#000000" cx="595.4" cy="-681.39" rx="118.08" ry="18"/>
<text text-anchor="middle" x="595.4" y="-677.69" font-family="FreeSans" font-size="14.00" fill="#000000">Metamodel::NativeHOW</text>
</a>
</g>
</g>
<!-- Metamodel::NativeHOW&#45;&gt;Metamodel::Documenting -->
<g id="edge51" class="edge">
<title>Metamodel::NativeHOW&#45;&gt;Metamodel::Documenting</title>
<path fill="none" stroke="#6666ff" d="M624.18,-698.98C669.47,-726.65 752.29,-777.25 752.29,-777.25 752.29,-777.25 783.5,-791.13 783.5,-791.13 783.5,-791.13 886.15,-826.22 954.06,-849.43"/>
<polygon fill="#6666ff" stroke="#6666ff" points="953.22,-852.84 963.82,-852.77 955.48,-846.22 953.22,-852.84"/>
</g>
<!-- Metamodel::NativeHOW&#45;&gt;Any -->
<g id="edge6" class="edge">
<title>Metamodel::NativeHOW&#45;&gt;Any</title>
<path fill="none" stroke="#000000" d="M658.7,-696.65C757.24,-720.4 936.15,-763.52 936.15,-763.52 936.15,-763.52 967.37,-777.4 967.37,-777.4 967.37,-777.4 1085.12,-831.75 1143.72,-858.79"/>
<polygon fill="#000000" stroke="#000000" points="1142.38,-862.03 1152.93,-863.04 1145.31,-855.68 1142.38,-862.03"/>
</g>
<!-- Metamodel::NativeHOW&#45;&gt;Metamodel::Naming -->
<g id="edge50" class="edge">
<title>Metamodel::NativeHOW&#45;&gt;Metamodel::Naming</title>
<path fill="none" stroke="#6666ff" d="M622.59,-699.08C694.52,-745.87 884.37,-869.37 884.37,-869.37 884.37,-869.37 973.64,-920.71 1026.92,-951.34"/>
<polygon fill="#6666ff" stroke="#6666ff" points="1025.37,-954.49 1035.78,-956.44 1028.86,-948.42 1025.37,-954.49"/>
</g>
<!-- Metamodel::NativeHOW&#45;&gt;Metamodel::Versioning -->
<g id="edge52" class="edge">
<title>Metamodel::NativeHOW&#45;&gt;Metamodel::Versioning</title>
<path fill="none" stroke="#6666ff" d="M610.7,-699.38C647.79,-742.98 742.64,-854.48 785.95,-905.4"/>
<polygon fill="#6666ff" stroke="#6666ff" points="783.55,-907.97 792.69,-913.32 788.88,-903.44 783.55,-907.97"/>
</g>
<!-- Metamodel::NativeHOW&#45;&gt;Metamodel::MultipleInheritance -->
<g id="edge54" class="edge">
<title>Metamodel::NativeHOW&#45;&gt;Metamodel::MultipleInheritance</title>
<path fill="none" stroke="#6666ff" d="M600.21,-699.39C617.95,-765.79 679.83,-997.37 701.46,-1078.33"/>
<polygon fill="#6666ff" stroke="#6666ff" points="698.16,-1079.54 704.13,-1088.29 704.93,-1077.73 698.16,-1079.54"/>
</g>
<!-- Metamodel::NativeHOW&#45;&gt;Metamodel::Stashing -->
<g id="edge53" class="edge">
<title>Metamodel::NativeHOW&#45;&gt;Metamodel::Stashing</title>
<path fill="none" stroke="#6666ff" d="M641.16,-697.99C686.66,-714.5 756.48,-739.83 804.93,-757.41"/>
<polygon fill="#6666ff" stroke="#6666ff" points="804.03,-760.81 814.63,-760.93 806.42,-754.23 804.03,-760.81"/>
</g>
<!-- Metamodel::NativeHOW&#45;&gt;Metamodel::C3MRO -->
<g id="edge55" class="edge">
<title>Metamodel::NativeHOW&#45;&gt;Metamodel::C3MRO</title>
<path fill="none" stroke="#6666ff" d="M585.37,-699.73C553.36,-758.17 455.82,-936.3 455.82,-936.3 455.82,-936.3 378.57,-1058.06 378.57,-1058.06 378.57,-1058.06 348.09,-1104.83 327.87,-1135.85"/>
<polygon fill="#6666ff" stroke="#6666ff" points="324.76,-1134.22 322.23,-1144.51 330.62,-1138.04 324.76,-1134.22"/>
</g>
<!-- Metamodel::NativeHOW&#45;&gt;Metamodel::MROBasedMethodDispatch -->
<g id="edge56" class="edge">
<title>Metamodel::NativeHOW&#45;&gt;Metamodel::MROBasedMethodDispatch</title>
<path fill="none" stroke="#6666ff" d="M585.37,-699.73C553.36,-758.17 455.82,-936.3 455.82,-936.3 455.82,-936.3 313.9,-1000.91 236.87,-1035.98"/>
<polygon fill="#6666ff" stroke="#6666ff" points="235.01,-1032.98 227.36,-1040.31 237.91,-1039.36 235.01,-1032.98"/>
</g>
<!-- Metamodel::NativeHOW&#45;&gt;Metamodel::MROBasedTypeChecking -->
<g id="edge57" class="edge">
<title>Metamodel::NativeHOW&#45;&gt;Metamodel::MROBasedTypeChecking</title>
<path fill="none" stroke="#6666ff" d="M578.03,-699.38C544.9,-733.68 475.93,-805.08 475.93,-805.08 475.93,-805.08 369.09,-874.93 311.42,-912.63"/>
<polygon fill="#6666ff" stroke="#6666ff" points="309.4,-909.77 302.94,-918.17 313.23,-915.63 309.4,-909.77"/>
</g>
<!-- Metamodel::SubsetHOW -->
<g id="node30" class="node">
<title>Metamodel::SubsetHOW</title>
<g id="a_node30"><a xlink:href="/type/Metamodel::SubsetHOW" xlink:title="Metamodel::SubsetHOW">
<ellipse fill="none" stroke="#000000" cx="1584.65" cy="-978.83" rx="120.48" ry="18"/>
<text text-anchor="middle" x="1584.65" y="-975.13" font-family="FreeSans" font-size="14.00" fill="#000000">Metamodel::SubsetHOW</text>
</a>
</g>
</g>
<!-- Metamodel::SubsetHOW&#45;&gt;Metamodel::Documenting -->
<g id="edge59" class="edge">
<title>Metamodel::SubsetHOW&#45;&gt;Metamodel::Documenting</title>
<path fill="none" stroke="#6666ff" d="M1510.47,-964.65C1404.55,-944.39 1210.45,-907.28 1098.49,-885.88"/>
<polygon fill="#6666ff" stroke="#6666ff" points="1099.06,-882.42 1088.58,-883.98 1097.74,-889.3 1099.06,-882.42"/>
</g>
<!-- Metamodel::SubsetHOW&#45;&gt;Any -->
<g id="edge7" class="edge">
<title>Metamodel::SubsetHOW&#45;&gt;Any</title>
<path fill="none" stroke="#000000" d="M1523.92,-963.21C1437.68,-941.02 1282.43,-901.08 1212.25,-883.03"/>
<polygon fill="#000000" stroke="#000000" points="1213.09,-879.63 1202.53,-880.53 1211.34,-886.41 1213.09,-879.63"/>
</g>
<!-- Metamodel::SubsetHOW&#45;&gt;Metamodel::Naming -->
<g id="edge58" class="edge">
<title>Metamodel::SubsetHOW&#45;&gt;Metamodel::Naming</title>
<path fill="none" stroke="#6666ff" d="M1464.62,-977.63C1378.04,-976.77 1261.98,-975.62 1177.38,-974.77"/>
<polygon fill="#6666ff" stroke="#6666ff" points="1177.26,-971.27 1167.22,-974.67 1177.19,-978.27 1177.26,-971.27"/>
</g>
</g>
</svg>
