<?xml version="1.0" encoding="UTF-8" standalone="no"?>
<!DOCTYPE svg PUBLIC "-//W3C//DTD SVG 1.1//EN"
 "http://www.w3.org/Graphics/SVG/1.1/DTD/svg11.dtd">
<!-- Generated by graphviz version 2.42.3 (0)
 -->
<!-- Title: perl6&#45;type&#45;graph Pages: 1 -->
<svg width="226pt" height="260pt"
 viewBox="0.00 0.00 226.38 260.00" xmlns="http://www.w3.org/2000/svg" xmlns:xlink="http://www.w3.org/1999/xlink">
<g id="graph0" class="graph" transform="scale(1 1) rotate(0) translate(4 256)">
<title>perl6&#45;type&#45;graph</title>
<polygon fill="white" stroke="transparent" points="-4,4 -4,-256 222.38,-256 222.38,4 -4,4"/>
<!-- MOP -->
<g id="node1" class="node">
<title>MOP</title>
<g id="a_node1"><a xlink:href="/type/MOP" xlink:title="MOP">
<ellipse fill="none" stroke="#000000" cx="57.19" cy="-90" rx="31.4" ry="18"/>
<text text-anchor="middle" x="57.19" y="-86.3" font-family="FreeSans" font-size="14.00" fill="#000000">MOP</text>
</a>
</g>
</g>
<!-- Any -->
<g id="node3" class="node">
<title>Any</title>
<g id="a_node3"><a xlink:href="/type/Any" xlink:title="Any">
<ellipse fill="none" stroke="#000000" cx="109.19" cy="-162" rx="28.7" ry="18"/>
<text text-anchor="middle" x="109.19" y="-158.3" font-family="FreeSans" font-size="14.00" fill="#000000">Any</text>
</a>
</g>
</g>
<!-- MOP&#45;&gt;Any -->
<g id="edge1" class="edge">
<title>MOP&#45;&gt;Any</title>
<path fill="none" stroke="#000000" d="M68.99,-106.88C75.57,-115.74 83.91,-126.96 91.28,-136.88"/>
<polygon fill="#000000" stroke="#000000" points="88.66,-139.24 97.44,-145.18 94.28,-135.06 88.66,-139.24"/>
</g>
<!-- Mu -->
<g id="node2" class="node">
<title>Mu</title>
<g id="a_node2"><a xlink:href="/type/Mu" xlink:title="Mu">
<ellipse fill="none" stroke="#000000" cx="109.19" cy="-234" rx="27" ry="18"/>
<text text-anchor="middle" x="109.19" y="-230.3" font-family="FreeSans" font-size="14.00" fill="#000000">Mu</text>
</a>
</g>
</g>
<!-- Any&#45;&gt;Mu -->
<g id="edge2" class="edge">
<title>Any&#45;&gt;Mu</title>
<path fill="none" stroke="#000000" d="M109.19,-180.3C109.19,-188.02 109.19,-197.29 109.19,-205.89"/>
<polygon fill="#000000" stroke="#000000" points="105.69,-205.9 109.19,-215.9 112.69,-205.9 105.69,-205.9"/>
</g>
<!-- Exception -->
<g id="node4" class="node">
<title>Exception</title>
<g id="a_node4"><a xlink:href="/type/Exception" xlink:title="Exception">
<ellipse fill="none" stroke="#000000" cx="161.19" cy="-90" rx="55.49" ry="18"/>
<text text-anchor="middle" x="161.19" y="-86.3" font-family="FreeSans" font-size="14.00" fill="#000000">Exception</text>
</a>
</g>
</g>
<!-- Exception&#45;&gt;Any -->
<g id="edge3" class="edge">
<title>Exception&#45;&gt;Any</title>
<path fill="none" stroke="#000000" d="M148.87,-107.59C142.27,-116.47 134.03,-127.56 126.77,-137.33"/>
<polygon fill="#000000" stroke="#000000" points="123.87,-135.37 120.71,-145.49 129.49,-139.55 123.87,-135.37"/>
</g>
<!-- X::Attribute::Required -->
<g id="node5" class="node">
<title>X::Attribute::Required</title>
<g id="a_node5"><a xlink:href="/type/X::Attribute::Required" xlink:title="X::Attribute::Required">
<ellipse fill="none" stroke="#000000" cx="109.19" cy="-18" rx="109.38" ry="18"/>
<text text-anchor="middle" x="109.19" y="-14.3" font-family="FreeSans" font-size="14.00" fill="#000000">X::Attribute::Required</text>
</a>
</g>
</g>
<!-- X::Attribute::Required&#45;&gt;MOP -->
<g id="edge5" class="edge">
<title>X::Attribute::Required&#45;&gt;MOP</title>
<path fill="none" stroke="#6666ff" d="M96.6,-35.95C90.16,-44.62 82.2,-55.33 75.13,-64.85"/>
<polygon fill="#6666ff" stroke="#6666ff" points="72.1,-63.06 68.95,-73.17 77.72,-67.23 72.1,-63.06"/>
</g>
<!-- X::Attribute::Required&#45;&gt;Exception -->
<g id="edge4" class="edge">
<title>X::Attribute::Required&#45;&gt;Exception</title>
<path fill="none" stroke="#000000" d="M121.78,-35.95C128.04,-44.37 135.73,-54.72 142.64,-64.03"/>
<polygon fill="#000000" stroke="#000000" points="139.95,-66.27 148.72,-72.21 145.56,-62.1 139.95,-66.27"/>
</g>
</g>
</svg>
