<?xml version="1.0" encoding="UTF-8" standalone="no"?>
<!DOCTYPE svg PUBLIC "-//W3C//DTD SVG 1.1//EN"
 "http://www.w3.org/Graphics/SVG/1.1/DTD/svg11.dtd">
<!-- Generated by graphviz version 2.42.3 (0)
 -->
<!-- Title: perl6&#45;type&#45;graph Pages: 1 -->
<svg width="311pt" height="332pt"
 viewBox="0.00 0.00 310.87 332.00" xmlns="http://www.w3.org/2000/svg" xmlns:xlink="http://www.w3.org/1999/xlink">
<g id="graph0" class="graph" transform="scale(1 1) rotate(0) translate(4 328)">
<title>perl6&#45;type&#45;graph</title>
<polygon fill="white" stroke="transparent" points="-4,4 -4,-328 306.87,-328 306.87,4 -4,4"/>
<!-- X::Method::Private::Unqualified -->
<g id="node1" class="node">
<title>X::Method::Private::Unqualified</title>
<g id="a_node1"><a xlink:href="/type/X::Method::Private::Unqualified" xlink:title="X::Method::Private::Unqualified">
<ellipse fill="none" stroke="#000000" cx="151.44" cy="-18" rx="151.37" ry="18"/>
<text text-anchor="middle" x="151.44" y="-14.3" font-family="FreeSans" font-size="14.00" fill="#000000">X::Method::Private::Unqualified</text>
</a>
</g>
</g>
<!-- Exception -->
<g id="node4" class="node">
<title>Exception</title>
<g id="a_node4"><a xlink:href="/type/Exception" xlink:title="Exception">
<ellipse fill="none" stroke="#000000" cx="151.44" cy="-162" rx="55.49" ry="18"/>
<text text-anchor="middle" x="151.44" y="-158.3" font-family="FreeSans" font-size="14.00" fill="#000000">Exception</text>
</a>
</g>
</g>
<!-- X::Method::Private::Unqualified&#45;&gt;Exception -->
<g id="edge1" class="edge">
<title>X::Method::Private::Unqualified&#45;&gt;Exception</title>
<path fill="none" stroke="#000000" d="M145.32,-36.06C139.77,-51.55 132.44,-72 132.44,-72 132.44,-72 132.44,-108 132.44,-108 132.44,-108 137.18,-121.24 141.93,-134.48"/>
<polygon fill="#000000" stroke="#000000" points="138.65,-135.71 145.32,-143.94 145.24,-133.34 138.65,-135.71"/>
</g>
<!-- X::Comp -->
<g id="node5" class="node">
<title>X::Comp</title>
<g id="a_node5"><a xlink:href="/type/X::Comp" xlink:title="X::Comp">
<ellipse fill="none" stroke="#6666ff" cx="190.44" cy="-90" rx="49.29" ry="18"/>
<text text-anchor="middle" x="190.44" y="-86.3" font-family="FreeSans" font-size="14.00" fill="#6666ff">X::Comp</text>
</a>
</g>
</g>
<!-- X::Method::Private::Unqualified&#45;&gt;X::Comp -->
<g id="edge5" class="edge">
<title>X::Method::Private::Unqualified&#45;&gt;X::Comp</title>
<path fill="none" stroke="#6666ff" d="M161.08,-36.3C165.56,-44.36 171,-54.11 175.96,-63.02"/>
<polygon fill="#6666ff" stroke="#6666ff" points="172.98,-64.86 180.91,-71.9 179.1,-61.46 172.98,-64.86"/>
</g>
<!-- Mu -->
<g id="node2" class="node">
<title>Mu</title>
<g id="a_node2"><a xlink:href="/type/Mu" xlink:title="Mu">
<ellipse fill="none" stroke="#000000" cx="151.44" cy="-306" rx="27" ry="18"/>
<text text-anchor="middle" x="151.44" y="-302.3" font-family="FreeSans" font-size="14.00" fill="#000000">Mu</text>
</a>
</g>
</g>
<!-- Any -->
<g id="node3" class="node">
<title>Any</title>
<g id="a_node3"><a xlink:href="/type/Any" xlink:title="Any">
<ellipse fill="none" stroke="#000000" cx="151.44" cy="-234" rx="28.7" ry="18"/>
<text text-anchor="middle" x="151.44" y="-230.3" font-family="FreeSans" font-size="14.00" fill="#000000">Any</text>
</a>
</g>
</g>
<!-- Any&#45;&gt;Mu -->
<g id="edge2" class="edge">
<title>Any&#45;&gt;Mu</title>
<path fill="none" stroke="#000000" d="M151.44,-252.3C151.44,-260.02 151.44,-269.29 151.44,-277.89"/>
<polygon fill="#000000" stroke="#000000" points="147.94,-277.9 151.44,-287.9 154.94,-277.9 147.94,-277.9"/>
</g>
<!-- Exception&#45;&gt;Any -->
<g id="edge3" class="edge">
<title>Exception&#45;&gt;Any</title>
<path fill="none" stroke="#000000" d="M151.44,-180.3C151.44,-188.02 151.44,-197.29 151.44,-205.89"/>
<polygon fill="#000000" stroke="#000000" points="147.94,-205.9 151.44,-215.9 154.94,-205.9 147.94,-205.9"/>
</g>
<!-- X::Comp&#45;&gt;Exception -->
<g id="edge4" class="edge">
<title>X::Comp&#45;&gt;Exception</title>
<path fill="none" stroke="#000000" d="M181,-107.95C176.4,-116.2 170.77,-126.3 165.66,-135.46"/>
<polygon fill="#000000" stroke="#000000" points="162.6,-133.77 160.79,-144.21 168.71,-137.18 162.6,-133.77"/>
</g>
</g>
</svg>
