<?xml version="1.0" encoding="UTF-8" standalone="no"?>
<!DOCTYPE svg PUBLIC "-//W3C//DTD SVG 1.1//EN"
 "http://www.w3.org/Graphics/SVG/1.1/DTD/svg11.dtd">
<!-- Generated by graphviz version 2.42.3 (0)
 -->
<!-- Title: perl6&#45;type&#45;graph Pages: 1 -->
<svg width="2068pt" height="2284pt"
 viewBox="0.00 0.00 2067.70 2283.70" xmlns="http://www.w3.org/2000/svg" xmlns:xlink="http://www.w3.org/1999/xlink">
<g id="graph0" class="graph" transform="scale(1 1) rotate(0) translate(4 2279.7)">
<title>perl6&#45;type&#45;graph</title>
<polygon fill="white" stroke="transparent" points="-4,4 -4,-2279.7 2063.7,-2279.7 2063.7,4 -4,4"/>
<!-- Metamodel::Stashing -->
<g id="node1" class="node">
<title>Metamodel::Stashing</title>
<g id="a_node1"><a xlink:href="/type/Metamodel::Stashing" xlink:title="Metamodel::Stashing">
<ellipse fill="none" stroke="#6666ff" cx="996.1" cy="-1127.15" rx="105.88" ry="18"/>
<text text-anchor="middle" x="996.1" y="-1123.45" font-family="FreeSans" font-size="14.00" fill="#6666ff">Metamodel::Stashing</text>
</a>
</g>
</g>
<!-- Mu -->
<g id="node2" class="node">
<title>Mu</title>
<g id="a_node2"><a xlink:href="/type/Mu" xlink:title="Mu">
<ellipse fill="none" stroke="#000000" cx="2032.7" cy="-1086.12" rx="27" ry="18"/>
<text text-anchor="middle" x="2032.7" y="-1082.42" font-family="FreeSans" font-size="14.00" fill="#000000">Mu</text>
</a>
</g>
</g>
<!-- Any -->
<g id="node3" class="node">
<title>Any</title>
<g id="a_node3"><a xlink:href="/type/Any" xlink:title="Any">
<ellipse fill="none" stroke="#000000" cx="1320.11" cy="-1096.87" rx="28.7" ry="18"/>
<text text-anchor="middle" x="1320.11" y="-1093.17" font-family="FreeSans" font-size="14.00" fill="#000000">Any</text>
</a>
</g>
</g>
<!-- Any&#45;&gt;Mu -->
<g id="edge1" class="edge">
<title>Any&#45;&gt;Mu</title>
<path fill="none" stroke="#000000" d="M1348.92,-1096.44C1461.13,-1094.74 1868.85,-1088.59 1995.14,-1086.68"/>
<polygon fill="#000000" stroke="#000000" points="1995.51,-1090.18 2005.45,-1086.53 1995.4,-1083.18 1995.51,-1090.18"/>
</g>
<!-- Metamodel::Naming -->
<g id="node4" class="node">
<title>Metamodel::Naming</title>
<g id="a_node4"><a xlink:href="/type/Metamodel::Naming" xlink:title="Metamodel::Naming">
<ellipse fill="none" stroke="#6666ff" cx="1153.8" cy="-1083.11" rx="101.28" ry="18"/>
<text text-anchor="middle" x="1153.8" y="-1079.41" font-family="FreeSans" font-size="14.00" fill="#6666ff">Metamodel::Naming</text>
</a>
</g>
</g>
<!-- Metamodel::Documenting -->
<g id="node5" class="node">
<title>Metamodel::Documenting</title>
<g id="a_node5"><a xlink:href="/type/Metamodel::Documenting" xlink:title="Metamodel::Documenting">
<ellipse fill="none" stroke="#6666ff" cx="758.46" cy="-1364.8" rx="126.98" ry="18"/>
<text text-anchor="middle" x="758.46" y="-1361.1" font-family="FreeSans" font-size="14.00" fill="#6666ff">Metamodel::Documenting</text>
</a>
</g>
</g>
<!-- Metamodel::Versioning -->
<g id="node6" class="node">
<title>Metamodel::Versioning</title>
<g id="a_node6"><a xlink:href="/type/Metamodel::Versioning" xlink:title="Metamodel::Versioning">
<ellipse fill="none" stroke="#6666ff" cx="530.36" cy="-1320.76" rx="114.28" ry="18"/>
<text text-anchor="middle" x="530.36" y="-1317.06" font-family="FreeSans" font-size="14.00" fill="#6666ff">Metamodel::Versioning</text>
</a>
</g>
</g>
<!-- Metamodel::MultipleInheritance -->
<g id="node7" class="node">
<title>Metamodel::MultipleInheritance</title>
<g id="a_node7"><a xlink:href="/type/Metamodel::MultipleInheritance" xlink:title="Metamodel::MultipleInheritance">
<ellipse fill="none" stroke="#6666ff" cx="357.47" cy="-1039.83" rx="153.27" ry="18"/>
<text text-anchor="middle" x="357.47" y="-1036.13" font-family="FreeSans" font-size="14.00" fill="#6666ff">Metamodel::MultipleInheritance</text>
</a>
</g>
</g>
<!-- Metamodel::C3MRO -->
<g id="node8" class="node">
<title>Metamodel::C3MRO</title>
<g id="a_node8"><a xlink:href="/type/Metamodel::C3MRO" xlink:title="Metamodel::C3MRO">
<ellipse fill="none" stroke="#6666ff" cx="312.6" cy="-336.32" rx="100.18" ry="18"/>
<text text-anchor="middle" x="312.6" y="-332.62" font-family="FreeSans" font-size="14.00" fill="#6666ff">Metamodel::C3MRO</text>
</a>
</g>
</g>
<!-- Metamodel::MROBasedMethodDispatch -->
<g id="node9" class="node">
<title>Metamodel::MROBasedMethodDispatch</title>
<g id="a_node9"><a xlink:href="/type/Metamodel::MROBasedMethodDispatch" xlink:title="Metamodel::MROBasedMethodDispatch">
<ellipse fill="none" stroke="#6666ff" cx="609.43" cy="-297.04" rx="188.47" ry="18"/>
<text text-anchor="middle" x="609.43" y="-293.34" font-family="FreeSans" font-size="14.00" fill="#6666ff">Metamodel::MROBasedMethodDispatch</text>
</a>
</g>
</g>
<!-- Metamodel::MROBasedTypeChecking -->
<g id="node10" class="node">
<title>Metamodel::MROBasedTypeChecking</title>
<g id="a_node10"><a xlink:href="/type/Metamodel::MROBasedTypeChecking" xlink:title="Metamodel::MROBasedTypeChecking">
<ellipse fill="none" stroke="#6666ff" cx="733.55" cy="-217.93" rx="178.97" ry="18"/>
<text text-anchor="middle" x="733.55" y="-214.23" font-family="FreeSans" font-size="14.00" fill="#6666ff">Metamodel::MROBasedTypeChecking</text>
</a>
</g>
</g>
<!-- Metamodel::NativeHOW -->
<g id="node11" class="node">
<title>Metamodel::NativeHOW</title>
<g id="a_node11"><a xlink:href="/type/Metamodel::NativeHOW" xlink:title="Metamodel::NativeHOW">
<ellipse fill="none" stroke="#000000" cx="567.29" cy="-861.82" rx="118.08" ry="18"/>
<text text-anchor="middle" x="567.29" y="-858.12" font-family="FreeSans" font-size="14.00" fill="#000000">Metamodel::NativeHOW</text>
</a>
</g>
</g>
<!-- Metamodel::NativeHOW&#45;&gt;Metamodel::Stashing -->
<g id="edge12" class="edge">
<title>Metamodel::NativeHOW&#45;&gt;Metamodel::Stashing</title>
<path fill="none" stroke="#6666ff" d="M595.76,-879.43C671.02,-926 875.21,-1052.35 959.23,-1104.33"/>
<polygon fill="#6666ff" stroke="#6666ff" points="957.57,-1107.43 967.92,-1109.71 961.26,-1101.48 957.57,-1107.43"/>
</g>
<!-- Metamodel::NativeHOW&#45;&gt;Any -->
<g id="edge2" class="edge">
<title>Metamodel::NativeHOW&#45;&gt;Any</title>
<path fill="none" stroke="#000000" d="M619.33,-878.07C763.06,-922.94 1162.89,-1047.79 1284.54,-1085.77"/>
<polygon fill="#000000" stroke="#000000" points="1283.54,-1089.12 1294.13,-1088.76 1285.63,-1082.44 1283.54,-1089.12"/>
</g>
<!-- Metamodel::NativeHOW&#45;&gt;Metamodel::Naming -->
<g id="edge9" class="edge">
<title>Metamodel::NativeHOW&#45;&gt;Metamodel::Naming</title>
<path fill="none" stroke="#6666ff" d="M611.86,-878.63C718.23,-918.77 986.58,-1020.02 1100.9,-1063.15"/>
<polygon fill="#6666ff" stroke="#6666ff" points="1099.91,-1066.52 1110.5,-1066.77 1102.38,-1059.97 1099.91,-1066.52"/>
</g>
<!-- Metamodel::NativeHOW&#45;&gt;Metamodel::Documenting -->
<g id="edge10" class="edge">
<title>Metamodel::NativeHOW&#45;&gt;Metamodel::Documenting</title>
<path fill="none" stroke="#6666ff" d="M574.21,-880.02C602.99,-955.73 713.33,-1246.05 747.99,-1337.23"/>
<polygon fill="#6666ff" stroke="#6666ff" points="744.73,-1338.52 751.56,-1346.62 751.28,-1336.03 744.73,-1338.52"/>
</g>
<!-- Metamodel::NativeHOW&#45;&gt;Metamodel::Versioning -->
<g id="edge11" class="edge">
<title>Metamodel::NativeHOW&#45;&gt;Metamodel::Versioning</title>
<path fill="none" stroke="#6666ff" d="M568.61,-879.86C573.54,-947.27 590.6,-1180.46 590.6,-1180.46 590.6,-1180.46 559.69,-1252.45 542.15,-1293.29"/>
<polygon fill="#6666ff" stroke="#6666ff" points="538.84,-1292.13 538.11,-1302.7 545.27,-1294.9 538.84,-1292.13"/>
</g>
<!-- Metamodel::NativeHOW&#45;&gt;Metamodel::MultipleInheritance -->
<g id="edge13" class="edge">
<title>Metamodel::NativeHOW&#45;&gt;Metamodel::MultipleInheritance</title>
<path fill="none" stroke="#6666ff" d="M546.41,-879.54C508.72,-911.51 429.29,-978.9 386.4,-1015.29"/>
<polygon fill="#6666ff" stroke="#6666ff" points="383.95,-1012.78 378.59,-1021.92 388.48,-1018.12 383.95,-1012.78"/>
</g>
<!-- Metamodel::NativeHOW&#45;&gt;Metamodel::C3MRO -->
<g id="edge14" class="edge">
<title>Metamodel::NativeHOW&#45;&gt;Metamodel::C3MRO</title>
<path fill="none" stroke="#6666ff" d="M558.53,-843.73C520.68,-765.64 371.17,-457.15 325.75,-363.45"/>
<polygon fill="#6666ff" stroke="#6666ff" points="328.85,-361.8 321.33,-354.33 322.55,-364.86 328.85,-361.8"/>
</g>
<!-- Metamodel::NativeHOW&#45;&gt;Metamodel::MROBasedMethodDispatch -->
<g id="edge15" class="edge">
<title>Metamodel::NativeHOW&#45;&gt;Metamodel::MROBasedMethodDispatch</title>
<path fill="none" stroke="#6666ff" d="M568.65,-843.67C574.76,-761.68 599.84,-425.59 607.31,-325.38"/>
<polygon fill="#6666ff" stroke="#6666ff" points="610.82,-325.36 608.08,-315.13 603.84,-324.84 610.82,-325.36"/>
</g>
<!-- Metamodel::NativeHOW&#45;&gt;Metamodel::MROBasedTypeChecking -->
<g id="edge16" class="edge">
<title>Metamodel::NativeHOW&#45;&gt;Metamodel::MROBasedTypeChecking</title>
<path fill="none" stroke="#6666ff" d="M574.76,-843.67C614.5,-747.02 799.51,-297.14 799.51,-297.14 799.51,-297.14 774.28,-266.84 755.02,-243.72"/>
<polygon fill="#6666ff" stroke="#6666ff" points="757.6,-241.35 748.51,-235.9 752.22,-245.82 757.6,-241.35"/>
</g>
<!-- Metamodel::AttributeContainer -->
<g id="node12" class="node">
<title>Metamodel::AttributeContainer</title>
<g id="a_node12"><a xlink:href="/type/Metamodel::AttributeContainer" xlink:title="Metamodel::AttributeContainer">
<ellipse fill="none" stroke="#6666ff" cx="843.88" cy="-840.14" rx="150.27" ry="18"/>
<text text-anchor="middle" x="843.88" y="-836.44" font-family="FreeSans" font-size="14.00" fill="#6666ff">Metamodel::AttributeContainer</text>
</a>
</g>
</g>
<!-- Metamodel::Finalization -->
<g id="node13" class="node">
<title>Metamodel::Finalization</title>
<g id="a_node13"><a xlink:href="/type/Metamodel::Finalization" xlink:title="Metamodel::Finalization">
<ellipse fill="none" stroke="#6666ff" cx="1227.32" cy="-72.82" rx="116.98" ry="18"/>
<text text-anchor="middle" x="1227.32" y="-69.12" font-family="FreeSans" font-size="14.00" fill="#6666ff">Metamodel::Finalization</text>
</a>
</g>
</g>
<!-- Metamodel::MethodContainer -->
<g id="node14" class="node">
<title>Metamodel::MethodContainer</title>
<g id="a_node14"><a xlink:href="/type/Metamodel::MethodContainer" xlink:title="Metamodel::MethodContainer">
<ellipse fill="none" stroke="#6666ff" cx="1263.91" cy="-740.1" rx="143.77" ry="18"/>
<text text-anchor="middle" x="1263.91" y="-736.4" font-family="FreeSans" font-size="14.00" fill="#6666ff">Metamodel::MethodContainer</text>
</a>
</g>
</g>
<!-- Metamodel::PrivateMethodContainer -->
<g id="node15" class="node">
<title>Metamodel::PrivateMethodContainer</title>
<g id="a_node15"><a xlink:href="/type/Metamodel::PrivateMethodContainer" xlink:title="Metamodel::PrivateMethodContainer">
<ellipse fill="none" stroke="#6666ff" cx="414.17" cy="-1180.45" rx="174.67" ry="18"/>
<text text-anchor="middle" x="414.17" y="-1176.75" font-family="FreeSans" font-size="14.00" fill="#6666ff">Metamodel::PrivateMethodContainer</text>
</a>
</g>
</g>
<!-- Metamodel::MultiMethodContainer -->
<g id="node16" class="node">
<title>Metamodel::MultiMethodContainer</title>
<g id="a_node16"><a xlink:href="/type/Metamodel::MultiMethodContainer" xlink:title="Metamodel::MultiMethodContainer">
<ellipse fill="none" stroke="#6666ff" cx="1423.44" cy="-581.04" rx="165.97" ry="18"/>
<text text-anchor="middle" x="1423.44" y="-577.34" font-family="FreeSans" font-size="14.00" fill="#6666ff">Metamodel::MultiMethodContainer</text>
</a>
</g>
</g>
<!-- Metamodel::RoleContainer -->
<g id="node17" class="node">
<title>Metamodel::RoleContainer</title>
<g id="a_node17"><a xlink:href="/type/Metamodel::RoleContainer" xlink:title="Metamodel::RoleContainer">
<ellipse fill="none" stroke="#6666ff" cx="1476.65" cy="-809.86" rx="129.98" ry="18"/>
<text text-anchor="middle" x="1476.65" y="-806.16" font-family="FreeSans" font-size="14.00" fill="#6666ff">Metamodel::RoleContainer</text>
</a>
</g>
</g>
<!-- Metamodel::DefaultParent -->
<g id="node18" class="node">
<title>Metamodel::DefaultParent</title>
<g id="a_node18"><a xlink:href="/type/Metamodel::DefaultParent" xlink:title="Metamodel::DefaultParent">
<ellipse fill="none" stroke="#6666ff" cx="128.04" cy="-696.3" rx="128.08" ry="18"/>
<text text-anchor="middle" x="128.04" y="-692.6" font-family="FreeSans" font-size="14.00" fill="#6666ff">Metamodel::DefaultParent</text>
</a>
</g>
</g>
<!-- Metamodel::Trusting -->
<g id="node19" class="node">
<title>Metamodel::Trusting</title>
<g id="a_node19"><a xlink:href="/type/Metamodel::Trusting" xlink:title="Metamodel::Trusting">
<ellipse fill="none" stroke="#6666ff" cx="165.33" cy="-451.33" rx="102.88" ry="18"/>
<text text-anchor="middle" x="165.33" y="-447.63" font-family="FreeSans" font-size="14.00" fill="#6666ff">Metamodel::Trusting</text>
</a>
</g>
</g>
<!-- Metamodel::BUILDPLAN -->
<g id="node20" class="node">
<title>Metamodel::BUILDPLAN</title>
<g id="a_node20"><a xlink:href="/type/Metamodel::BUILDPLAN" xlink:title="Metamodel::BUILDPLAN">
<ellipse fill="none" stroke="#6666ff" cx="797.34" cy="-18" rx="118.08" ry="18"/>
<text text-anchor="middle" x="797.34" y="-14.3" font-family="FreeSans" font-size="14.00" fill="#6666ff">Metamodel::BUILDPLAN</text>
</a>
</g>
</g>
<!-- Metamodel::Mixins -->
<g id="node21" class="node">
<title>Metamodel::Mixins</title>
<g id="a_node21"><a xlink:href="/type/Metamodel::Mixins" xlink:title="Metamodel::Mixins">
<ellipse fill="none" stroke="#6666ff" cx="1018.55" cy="-28.79" rx="94.78" ry="18"/>
<text text-anchor="middle" x="1018.55" y="-25.09" font-family="FreeSans" font-size="14.00" fill="#6666ff">Metamodel::Mixins</text>
</a>
</g>
</g>
<!-- Metamodel::BoolificationProtocol -->
<g id="node22" class="node">
<title>Metamodel::BoolificationProtocol</title>
<g id="a_node22"><a xlink:href="/type/Metamodel::BoolificationProtocol" xlink:title="Metamodel::BoolificationProtocol">
<ellipse fill="none" stroke="#6666ff" cx="1615.9" cy="-625.59" rx="157.07" ry="18"/>
<text text-anchor="middle" x="1615.9" y="-621.89" font-family="FreeSans" font-size="14.00" fill="#6666ff">Metamodel::BoolificationProtocol</text>
</a>
</g>
</g>
<!-- Metamodel::ClassHOW -->
<g id="node23" class="node">
<title>Metamodel::ClassHOW</title>
<g id="a_node23"><a xlink:href="/type/Metamodel::ClassHOW" xlink:title="Metamodel::ClassHOW">
<ellipse fill="none" stroke="#000000" cx="863.34" cy="-652.29" rx="113.18" ry="18"/>
<text text-anchor="middle" x="863.34" y="-648.59" font-family="FreeSans" font-size="14.00" fill="#000000">Metamodel::ClassHOW</text>
</a>
</g>
</g>
<!-- Metamodel::ClassHOW&#45;&gt;Metamodel::Stashing -->
<g id="edge20" class="edge">
<title>Metamodel::ClassHOW&#45;&gt;Metamodel::Stashing</title>
<path fill="none" stroke="#6666ff" d="M876.02,-670.32C909.13,-717.39 995.61,-840.33 995.61,-840.33 995.61,-840.33 995.92,-1025.92 996.05,-1098.52"/>
<polygon fill="#6666ff" stroke="#6666ff" points="992.55,-1098.78 996.06,-1108.77 999.55,-1098.76 992.55,-1098.78"/>
</g>
<!-- Metamodel::ClassHOW&#45;&gt;Any -->
<g id="edge3" class="edge">
<title>Metamodel::ClassHOW&#45;&gt;Any</title>
<path fill="none" stroke="#000000" d="M881.81,-670.27C953.94,-740.48 1216.56,-996.09 1296.72,-1074.11"/>
<polygon fill="#000000" stroke="#000000" points="1294.71,-1077.04 1304.32,-1081.5 1299.59,-1072.02 1294.71,-1077.04"/>
</g>
<!-- Metamodel::ClassHOW&#45;&gt;Metamodel::Naming -->
<g id="edge17" class="edge">
<title>Metamodel::ClassHOW&#45;&gt;Metamodel::Naming</title>
<path fill="none" stroke="#6666ff" d="M876.02,-670.32C909.13,-717.39 995.61,-840.33 995.61,-840.33 995.61,-840.33 1095.1,-993.01 1136.28,-1056.21"/>
<polygon fill="#6666ff" stroke="#6666ff" points="1133.52,-1058.39 1141.91,-1064.86 1139.39,-1054.57 1133.52,-1058.39"/>
</g>
<!-- Metamodel::ClassHOW&#45;&gt;Metamodel::Documenting -->
<g id="edge18" class="edge">
<title>Metamodel::ClassHOW&#45;&gt;Metamodel::Documenting</title>
<path fill="none" stroke="#6666ff" d="M846.92,-670.29C804.08,-717.26 692.15,-839.96 692.15,-839.96 692.15,-839.96 741.1,-1227.38 754.89,-1336.5"/>
<polygon fill="#6666ff" stroke="#6666ff" points="751.46,-1337.25 756.18,-1346.73 758.4,-1336.37 751.46,-1337.25"/>
</g>
<!-- Metamodel::ClassHOW&#45;&gt;Metamodel::Versioning -->
<g id="edge19" class="edge">
<title>Metamodel::ClassHOW&#45;&gt;Metamodel::Versioning</title>
<path fill="none" stroke="#6666ff" d="M846.92,-670.29C804.08,-717.26 692.15,-839.96 692.15,-839.96 692.15,-839.96 687.18,-861.95 687.18,-861.95 687.18,-861.95 590.6,-1180.46 590.6,-1180.46 590.6,-1180.46 559.69,-1252.45 542.15,-1293.29"/>
<polygon fill="#6666ff" stroke="#6666ff" points="538.84,-1292.13 538.11,-1302.7 545.27,-1294.9 538.84,-1292.13"/>
</g>
<!-- Metamodel::ClassHOW&#45;&gt;Metamodel::MultipleInheritance -->
<g id="edge27" class="edge">
<title>Metamodel::ClassHOW&#45;&gt;Metamodel::MultipleInheritance</title>
<path fill="none" stroke="#6666ff" d="M846.92,-670.29C804.08,-717.26 692.15,-839.96 692.15,-839.96 692.15,-839.96 687.18,-861.95 687.18,-861.95 687.18,-861.95 488.03,-969.39 399.29,-1017.27"/>
<polygon fill="#6666ff" stroke="#6666ff" points="397.43,-1014.3 390.29,-1022.12 400.76,-1020.46 397.43,-1014.3"/>
</g>
<!-- Metamodel::ClassHOW&#45;&gt;Metamodel::C3MRO -->
<g id="edge29" class="edge">
<title>Metamodel::ClassHOW&#45;&gt;Metamodel::C3MRO</title>
<path fill="none" stroke="#6666ff" d="M832.94,-634.86C739.37,-581.17 455.66,-418.4 351.5,-358.63"/>
<polygon fill="#6666ff" stroke="#6666ff" points="352.98,-355.45 342.57,-353.51 349.5,-361.52 352.98,-355.45"/>
</g>
<!-- Metamodel::ClassHOW&#45;&gt;Metamodel::MROBasedMethodDispatch -->
<g id="edge30" class="edge">
<title>Metamodel::ClassHOW&#45;&gt;Metamodel::MROBasedMethodDispatch</title>
<path fill="none" stroke="#6666ff" d="M850.4,-634.19C808.63,-575.75 677.26,-391.95 628.18,-323.27"/>
<polygon fill="#6666ff" stroke="#6666ff" points="631,-321.21 622.34,-315.11 625.31,-325.28 631,-321.21"/>
</g>
<!-- Metamodel::ClassHOW&#45;&gt;Metamodel::MROBasedTypeChecking -->
<g id="edge31" class="edge">
<title>Metamodel::ClassHOW&#45;&gt;Metamodel::MROBasedTypeChecking</title>
<path fill="none" stroke="#6666ff" d="M860.08,-634.19C847.08,-561.82 799.51,-297.14 799.51,-297.14 799.51,-297.14 774.28,-266.84 755.02,-243.72"/>
<polygon fill="#6666ff" stroke="#6666ff" points="757.6,-241.35 748.51,-235.9 752.22,-245.82 757.6,-241.35"/>
</g>
<!-- Metamodel::ClassHOW&#45;&gt;Metamodel::AttributeContainer -->
<g id="edge21" class="edge">
<title>Metamodel::ClassHOW&#45;&gt;Metamodel::AttributeContainer</title>
<path fill="none" stroke="#6666ff" d="M861.47,-670.31C858.08,-703.04 850.88,-772.53 846.82,-811.71"/>
<polygon fill="#6666ff" stroke="#6666ff" points="843.32,-811.6 845.77,-821.91 850.28,-812.32 843.32,-811.6"/>
</g>
<!-- Metamodel::ClassHOW&#45;&gt;Metamodel::Finalization -->
<g id="edge22" class="edge">
<title>Metamodel::ClassHOW&#45;&gt;Metamodel::Finalization</title>
<path fill="none" stroke="#6666ff" d="M874.63,-634.32C927.17,-550.68 1147.76,-199.48 1210.57,-99.49"/>
<polygon fill="#6666ff" stroke="#6666ff" points="1213.63,-101.21 1215.98,-90.88 1207.7,-97.48 1213.63,-101.21"/>
</g>
<!-- Metamodel::ClassHOW&#45;&gt;Metamodel::MethodContainer -->
<g id="edge23" class="edge">
<title>Metamodel::ClassHOW&#45;&gt;Metamodel::MethodContainer</title>
<path fill="none" stroke="#6666ff" d="M929.93,-666.89C999.34,-682.11 1108.18,-705.96 1182.61,-722.28"/>
<polygon fill="#6666ff" stroke="#6666ff" points="1181.91,-725.7 1192.42,-724.43 1183.4,-718.87 1181.91,-725.7"/>
</g>
<!-- Metamodel::ClassHOW&#45;&gt;Metamodel::PrivateMethodContainer -->
<g id="edge24" class="edge">
<title>Metamodel::ClassHOW&#45;&gt;Metamodel::PrivateMethodContainer</title>
<path fill="none" stroke="#6666ff" d="M846.92,-670.29C804.08,-717.26 692.15,-839.96 692.15,-839.96 692.15,-839.96 687.18,-861.95 687.18,-861.95 687.18,-861.95 501.18,-1078.93 436.23,-1154.71"/>
<polygon fill="#6666ff" stroke="#6666ff" points="433.48,-1152.54 429.63,-1162.41 438.79,-1157.09 433.48,-1152.54"/>
</g>
<!-- Metamodel::ClassHOW&#45;&gt;Metamodel::MultiMethodContainer -->
<g id="edge25" class="edge">
<title>Metamodel::ClassHOW&#45;&gt;Metamodel::MultiMethodContainer</title>
<path fill="none" stroke="#6666ff" d="M951.78,-641.04C1047.34,-628.89 1200.09,-609.45 1305.74,-596.01"/>
<polygon fill="#6666ff" stroke="#6666ff" points="1306.34,-599.46 1315.82,-594.73 1305.46,-592.52 1306.34,-599.46"/>
</g>
<!-- Metamodel::ClassHOW&#45;&gt;Metamodel::RoleContainer -->
<g id="edge26" class="edge">
<title>Metamodel::ClassHOW&#45;&gt;Metamodel::RoleContainer</title>
<path fill="none" stroke="#6666ff" d="M911.06,-668.68C984.97,-694.06 1118.68,-739.98 1118.68,-739.98 1118.68,-739.98 1160.61,-753.87 1160.61,-753.87 1160.61,-753.87 1293.03,-777.33 1386.44,-793.88"/>
<polygon fill="#6666ff" stroke="#6666ff" points="1386.03,-797.36 1396.49,-795.66 1387.25,-790.47 1386.03,-797.36"/>
</g>
<!-- Metamodel::ClassHOW&#45;&gt;Metamodel::DefaultParent -->
<g id="edge28" class="edge">
<title>Metamodel::ClassHOW&#45;&gt;Metamodel::DefaultParent</title>
<path fill="none" stroke="#6666ff" d="M757.2,-658.65C624.67,-666.58 398.12,-680.14 256.09,-688.64"/>
<polygon fill="#6666ff" stroke="#6666ff" points="255.78,-685.15 246.01,-689.24 256.2,-692.14 255.78,-685.15"/>
</g>
<!-- Metamodel::ClassHOW&#45;&gt;Metamodel::Trusting -->
<g id="edge32" class="edge">
<title>Metamodel::ClassHOW&#45;&gt;Metamodel::Trusting</title>
<path fill="none" stroke="#6666ff" d="M808.57,-636.53C680.96,-599.79 364.42,-508.65 228.73,-469.59"/>
<polygon fill="#6666ff" stroke="#6666ff" points="229.47,-466.16 218.89,-466.75 227.53,-472.88 229.47,-466.16"/>
</g>
<!-- Metamodel::ClassHOW&#45;&gt;Metamodel::BUILDPLAN -->
<g id="edge33" class="edge">
<title>Metamodel::ClassHOW&#45;&gt;Metamodel::BUILDPLAN</title>
<path fill="none" stroke="#6666ff" d="M865.44,-634.19C875.01,-552 913.88,-218.03 913.88,-218.03 913.88,-218.03 844.8,-99.46 813.01,-44.9"/>
<polygon fill="#6666ff" stroke="#6666ff" points="815.95,-42.98 807.89,-36.1 809.9,-46.51 815.95,-42.98"/>
</g>
<!-- Metamodel::ClassHOW&#45;&gt;Metamodel::Mixins -->
<g id="edge34" class="edge">
<title>Metamodel::ClassHOW&#45;&gt;Metamodel::Mixins</title>
<path fill="none" stroke="#6666ff" d="M867.81,-634.31C889.65,-546.58 985.01,-163.51 1011.62,-56.59"/>
<polygon fill="#6666ff" stroke="#6666ff" points="1015.03,-57.4 1014.05,-46.85 1008.24,-55.71 1015.03,-57.4"/>
</g>
<!-- Metamodel::ClassHOW&#45;&gt;Metamodel::BoolificationProtocol -->
<g id="edge35" class="edge">
<title>Metamodel::ClassHOW&#45;&gt;Metamodel::BoolificationProtocol</title>
<path fill="none" stroke="#6666ff" d="M973.98,-648.37C1100.95,-643.86 1310.3,-636.43 1455.24,-631.29"/>
<polygon fill="#6666ff" stroke="#6666ff" points="1455.69,-634.77 1465.56,-630.92 1455.44,-627.78 1455.69,-634.77"/>
</g>
<!-- Metamodel::TypePretense -->
<g id="node24" class="node">
<title>Metamodel::TypePretense</title>
<g id="a_node24"><a xlink:href="/type/Metamodel::TypePretense" xlink:title="Metamodel::TypePretense">
<ellipse fill="none" stroke="#6666ff" cx="1438.02" cy="-1832.45" rx="126.18" ry="18"/>
<text text-anchor="middle" x="1438.02" y="-1828.75" font-family="FreeSans" font-size="14.00" fill="#6666ff">Metamodel::TypePretense</text>
</a>
</g>
</g>
<!-- Metamodel::MethodDelegation -->
<g id="node25" class="node">
<title>Metamodel::MethodDelegation</title>
<g id="a_node25"><a xlink:href="/type/Metamodel::MethodDelegation" xlink:title="Metamodel::MethodDelegation">
<ellipse fill="none" stroke="#6666ff" cx="862.38" cy="-2257.7" rx="148.37" ry="18"/>
<text text-anchor="middle" x="862.38" y="-2254" font-family="FreeSans" font-size="14.00" fill="#6666ff">Metamodel::MethodDelegation</text>
</a>
</g>
</g>
<!-- Metamodel::ModuleHOW -->
<g id="node26" class="node">
<title>Metamodel::ModuleHOW</title>
<g id="a_node26"><a xlink:href="/type/Metamodel::ModuleHOW" xlink:title="Metamodel::ModuleHOW">
<ellipse fill="none" stroke="#000000" cx="1060.32" cy="-1677.05" rx="122.38" ry="18"/>
<text text-anchor="middle" x="1060.32" y="-1673.35" font-family="FreeSans" font-size="14.00" fill="#000000">Metamodel::ModuleHOW</text>
</a>
</g>
</g>
<!-- Metamodel::ModuleHOW&#45;&gt;Metamodel::Stashing -->
<g id="edge39" class="edge">
<title>Metamodel::ModuleHOW&#45;&gt;Metamodel::Stashing</title>
<path fill="none" stroke="#6666ff" d="M1055.09,-1658.84C1035.22,-1589.65 965.55,-1347.02 965.55,-1347.02 965.55,-1347.02 983.85,-1215.27 992.12,-1155.74"/>
<polygon fill="#6666ff" stroke="#6666ff" points="995.63,-1155.9 993.54,-1145.52 988.7,-1154.94 995.63,-1155.9"/>
</g>
<!-- Metamodel::ModuleHOW&#45;&gt;Any -->
<g id="edge4" class="edge">
<title>Metamodel::ModuleHOW&#45;&gt;Any</title>
<path fill="none" stroke="#000000" d="M1072.62,-1658.85C1119.37,-1589.68 1283.32,-1347.14 1283.32,-1347.14 1283.32,-1347.14 1306.39,-1190.21 1315.99,-1124.89"/>
<polygon fill="#000000" stroke="#000000" points="1319.47,-1125.27 1317.46,-1114.87 1312.54,-1124.26 1319.47,-1125.27"/>
</g>
<!-- Metamodel::ModuleHOW&#45;&gt;Metamodel::Naming -->
<g id="edge36" class="edge">
<title>Metamodel::ModuleHOW&#45;&gt;Metamodel::Naming</title>
<path fill="none" stroke="#6666ff" d="M1055.09,-1658.84C1035.22,-1589.65 965.55,-1347.02 965.55,-1347.02 965.55,-1347.02 1087.16,-1176.53 1134.9,-1109.61"/>
<polygon fill="#6666ff" stroke="#6666ff" points="1137.9,-1111.42 1140.86,-1101.25 1132.21,-1107.36 1137.9,-1111.42"/>
</g>
<!-- Metamodel::ModuleHOW&#45;&gt;Metamodel::Documenting -->
<g id="edge37" class="edge">
<title>Metamodel::ModuleHOW&#45;&gt;Metamodel::Documenting</title>
<path fill="none" stroke="#6666ff" d="M1042.78,-1658.92C991.62,-1605.99 842.4,-1451.63 783.14,-1390.32"/>
<polygon fill="#6666ff" stroke="#6666ff" points="785.51,-1387.74 776.05,-1382.98 780.48,-1392.61 785.51,-1387.74"/>
</g>
<!-- Metamodel::ModuleHOW&#45;&gt;Metamodel::Versioning -->
<g id="edge38" class="edge">
<title>Metamodel::ModuleHOW&#45;&gt;Metamodel::Versioning</title>
<path fill="none" stroke="#6666ff" d="M1034.04,-1659.38C946.35,-1600.43 663.81,-1410.48 564.92,-1344"/>
<polygon fill="#6666ff" stroke="#6666ff" points="566.73,-1341 556.48,-1338.32 562.83,-1346.81 566.73,-1341"/>
</g>
<!-- Metamodel::ModuleHOW&#45;&gt;Metamodel::TypePretense -->
<g id="edge40" class="edge">
<title>Metamodel::ModuleHOW&#45;&gt;Metamodel::TypePretense</title>
<path fill="none" stroke="#6666ff" d="M1101.82,-1694.13C1171.47,-1722.78 1311.65,-1780.46 1387.13,-1811.51"/>
<polygon fill="#6666ff" stroke="#6666ff" points="1385.87,-1814.78 1396.45,-1815.35 1388.54,-1808.3 1385.87,-1814.78"/>
</g>
<!-- Metamodel::ModuleHOW&#45;&gt;Metamodel::MethodDelegation -->
<g id="edge41" class="edge">
<title>Metamodel::ModuleHOW&#45;&gt;Metamodel::MethodDelegation</title>
<path fill="none" stroke="#6666ff" d="M1074.55,-1695.2C1090.29,-1715.25 1113.43,-1744.75 1113.43,-1744.75 1113.43,-1744.75 927.81,-2124.02 875.79,-2230.31"/>
<polygon fill="#6666ff" stroke="#6666ff" points="872.57,-2228.92 871.32,-2239.44 878.86,-2232 872.57,-2228.92"/>
</g>
<!-- Metamodel::RolePunning -->
<g id="node27" class="node">
<title>Metamodel::RolePunning</title>
<g id="a_node27"><a xlink:href="/type/Metamodel::RolePunning" xlink:title="Metamodel::RolePunning">
<ellipse fill="none" stroke="#6666ff" cx="1722.27" cy="-1688.62" rx="122.68" ry="18"/>
<text text-anchor="middle" x="1722.27" y="-1684.92" font-family="FreeSans" font-size="14.00" fill="#6666ff">Metamodel::RolePunning</text>
</a>
</g>
</g>
<!-- Metamodel::ParametricRoleGroupHOW -->
<g id="node28" class="node">
<title>Metamodel::ParametricRoleGroupHOW</title>
<g id="a_node28"><a xlink:href="/type/Metamodel::ParametricRoleGroupHOW" xlink:title="Metamodel::ParametricRoleGroupHOW">
<ellipse fill="none" stroke="#000000" cx="1695.9" cy="-1298.96" rx="184.67" ry="18"/>
<text text-anchor="middle" x="1695.9" y="-1295.26" font-family="FreeSans" font-size="14.00" fill="#000000">Metamodel::ParametricRoleGroupHOW</text>
</a>
</g>
</g>
<!-- Metamodel::ParametricRoleGroupHOW&#45;&gt;Metamodel::Stashing -->
<g id="edge43" class="edge">
<title>Metamodel::ParametricRoleGroupHOW&#45;&gt;Metamodel::Stashing</title>
<path fill="none" stroke="#6666ff" d="M1627.53,-1282.18C1494.32,-1249.47 1201.32,-1177.53 1066.51,-1144.44"/>
<polygon fill="#6666ff" stroke="#6666ff" points="1067.23,-1141.01 1056.69,-1142.02 1065.56,-1147.81 1067.23,-1141.01"/>
</g>
<!-- Metamodel::ParametricRoleGroupHOW&#45;&gt;Any -->
<g id="edge5" class="edge">
<title>Metamodel::ParametricRoleGroupHOW&#45;&gt;Any</title>
<path fill="none" stroke="#000000" d="M1662.88,-1281.21C1591.04,-1242.57 1421.37,-1151.33 1351.26,-1113.62"/>
<polygon fill="#000000" stroke="#000000" points="1352.51,-1110.32 1342.05,-1108.67 1349.2,-1116.49 1352.51,-1110.32"/>
</g>
<!-- Metamodel::ParametricRoleGroupHOW&#45;&gt;Metamodel::Naming -->
<g id="edge42" class="edge">
<title>Metamodel::ParametricRoleGroupHOW&#45;&gt;Metamodel::Naming</title>
<path fill="none" stroke="#6666ff" d="M1651.54,-1281.3C1551.86,-1241.61 1310.63,-1145.56 1204.9,-1103.45"/>
<polygon fill="#6666ff" stroke="#6666ff" points="1205.98,-1100.12 1195.4,-1099.67 1203.4,-1106.62 1205.98,-1100.12"/>
</g>
<!-- Metamodel::ParametricRoleGroupHOW&#45;&gt;Metamodel::BoolificationProtocol -->
<g id="edge46" class="edge">
<title>Metamodel::ParametricRoleGroupHOW&#45;&gt;Metamodel::BoolificationProtocol</title>
<path fill="none" stroke="#6666ff" d="M1693.76,-1280.95C1682.78,-1188.46 1632.68,-766.81 1619.23,-653.62"/>
<polygon fill="#6666ff" stroke="#6666ff" points="1622.7,-653.17 1618.05,-643.65 1615.75,-654 1622.7,-653.17"/>
</g>
<!-- Metamodel::ParametricRoleGroupHOW&#45;&gt;Metamodel::TypePretense -->
<g id="edge44" class="edge">
<title>Metamodel::ParametricRoleGroupHOW&#45;&gt;Metamodel::TypePretense</title>
<path fill="none" stroke="#6666ff" d="M1687.18,-1317.02C1649.06,-1395.86 1497.1,-1710.23 1451.21,-1805.16"/>
<polygon fill="#6666ff" stroke="#6666ff" points="1447.95,-1803.87 1446.75,-1814.4 1454.25,-1806.92 1447.95,-1803.87"/>
</g>
<!-- Metamodel::ParametricRoleGroupHOW&#45;&gt;Metamodel::RolePunning -->
<g id="edge45" class="edge">
<title>Metamodel::ParametricRoleGroupHOW&#45;&gt;Metamodel::RolePunning</title>
<path fill="none" stroke="#6666ff" d="M1697.12,-1316.98C1701.32,-1379.03 1715.21,-1584.29 1720.34,-1660.13"/>
<polygon fill="#6666ff" stroke="#6666ff" points="1716.87,-1660.61 1721.04,-1670.35 1723.85,-1660.13 1716.87,-1660.61"/>
</g>
<!-- Metamodel::PackageHOW -->
<g id="node29" class="node">
<title>Metamodel::PackageHOW</title>
<g id="a_node29"><a xlink:href="/type/Metamodel::PackageHOW" xlink:title="Metamodel::PackageHOW">
<ellipse fill="none" stroke="#000000" cx="985.1" cy="-1744.57" rx="126.98" ry="18"/>
<text text-anchor="middle" x="985.1" y="-1740.87" font-family="FreeSans" font-size="14.00" fill="#000000">Metamodel::PackageHOW</text>
</a>
</g>
</g>
<!-- Metamodel::PackageHOW&#45;&gt;Metamodel::Stashing -->
<g id="edge49" class="edge">
<title>Metamodel::PackageHOW&#45;&gt;Metamodel::Stashing</title>
<path fill="none" stroke="#6666ff" d="M972.08,-1726.46C957.7,-1706.44 936.53,-1676.98 936.53,-1676.98 936.53,-1676.98 965.55,-1347.02 965.55,-1347.02 965.55,-1347.02 983.85,-1215.27 992.12,-1155.74"/>
<polygon fill="#6666ff" stroke="#6666ff" points="995.63,-1155.9 993.54,-1145.52 988.7,-1154.94 995.63,-1155.9"/>
</g>
<!-- Metamodel::PackageHOW&#45;&gt;Any -->
<g id="edge6" class="edge">
<title>Metamodel::PackageHOW&#45;&gt;Any</title>
<path fill="none" stroke="#000000" d="M1035.6,-1727.91C1083.28,-1712.17 1147.52,-1690.96 1147.52,-1690.96 1147.52,-1690.96 1184.1,-1677.13 1184.1,-1677.13 1184.1,-1677.13 1283.32,-1347.14 1283.32,-1347.14 1283.32,-1347.14 1306.39,-1190.21 1315.99,-1124.89"/>
<polygon fill="#000000" stroke="#000000" points="1319.47,-1125.27 1317.46,-1114.87 1312.54,-1124.26 1319.47,-1125.27"/>
</g>
<!-- Metamodel::PackageHOW&#45;&gt;Metamodel::Naming -->
<g id="edge47" class="edge">
<title>Metamodel::PackageHOW&#45;&gt;Metamodel::Naming</title>
<path fill="none" stroke="#6666ff" d="M972.08,-1726.46C957.7,-1706.44 936.53,-1676.98 936.53,-1676.98 936.53,-1676.98 965.55,-1347.02 965.55,-1347.02 965.55,-1347.02 1087.16,-1176.53 1134.9,-1109.61"/>
<polygon fill="#6666ff" stroke="#6666ff" points="1137.9,-1111.42 1140.86,-1101.25 1132.21,-1107.36 1137.9,-1111.42"/>
</g>
<!-- Metamodel::PackageHOW&#45;&gt;Metamodel::Documenting -->
<g id="edge48" class="edge">
<title>Metamodel::PackageHOW&#45;&gt;Metamodel::Documenting</title>
<path fill="none" stroke="#6666ff" d="M972.08,-1726.46C957.7,-1706.44 936.53,-1676.98 936.53,-1676.98 936.53,-1676.98 817.23,-1467.83 773.93,-1391.91"/>
<polygon fill="#6666ff" stroke="#6666ff" points="776.8,-1389.88 768.81,-1382.93 770.72,-1393.35 776.8,-1389.88"/>
</g>
<!-- Metamodel::PackageHOW&#45;&gt;Metamodel::TypePretense -->
<g id="edge50" class="edge">
<title>Metamodel::PackageHOW&#45;&gt;Metamodel::TypePretense</title>
<path fill="none" stroke="#6666ff" d="M1060.15,-1759.13C1140.83,-1774.79 1268.85,-1799.63 1353.15,-1815.98"/>
<polygon fill="#6666ff" stroke="#6666ff" points="1352.73,-1819.47 1363.21,-1817.93 1354.06,-1812.59 1352.73,-1819.47"/>
</g>
<!-- Metamodel::PackageHOW&#45;&gt;Metamodel::MethodDelegation -->
<g id="edge51" class="edge">
<title>Metamodel::PackageHOW&#45;&gt;Metamodel::MethodDelegation</title>
<path fill="none" stroke="#6666ff" d="M980.73,-1762.84C962.36,-1839.68 891.24,-2137.04 869.04,-2229.86"/>
<polygon fill="#6666ff" stroke="#6666ff" points="865.62,-2229.12 866.7,-2239.66 872.43,-2230.74 865.62,-2229.12"/>
</g>
<!-- Metamodel::BaseType -->
<g id="node30" class="node">
<title>Metamodel::BaseType</title>
<g id="a_node30"><a xlink:href="/type/Metamodel::BaseType" xlink:title="Metamodel::BaseType">
<ellipse fill="none" stroke="#6666ff" cx="1762.34" cy="-22.37" rx="109.38" ry="18"/>
<text text-anchor="middle" x="1762.34" y="-18.67" font-family="FreeSans" font-size="14.00" fill="#6666ff">Metamodel::BaseType</text>
</a>
</g>
</g>
<!-- Metamodel::EnumHOW -->
<g id="node31" class="node">
<title>Metamodel::EnumHOW</title>
<g id="a_node31"><a xlink:href="/type/Metamodel::EnumHOW" xlink:title="Metamodel::EnumHOW">
<ellipse fill="none" stroke="#000000" cx="1203.61" cy="-444.92" rx="115.88" ry="18"/>
<text text-anchor="middle" x="1203.61" y="-441.22" font-family="FreeSans" font-size="14.00" fill="#000000">Metamodel::EnumHOW</text>
</a>
</g>
</g>
<!-- Metamodel::EnumHOW&#45;&gt;Metamodel::Stashing -->
<g id="edge53" class="edge">
<title>Metamodel::EnumHOW&#45;&gt;Metamodel::Stashing</title>
<path fill="none" stroke="#6666ff" d="M1198.06,-463.17C1169.5,-557.08 1039.07,-985.87 1004.52,-1099.46"/>
<polygon fill="#6666ff" stroke="#6666ff" points="1001.13,-1098.58 1001.57,-1109.16 1007.83,-1100.61 1001.13,-1098.58"/>
</g>
<!-- Metamodel::EnumHOW&#45;&gt;Any -->
<g id="edge7" class="edge">
<title>Metamodel::EnumHOW&#45;&gt;Any</title>
<path fill="none" stroke="#000000" d="M1198.43,-462.94C1179.99,-527 1118.68,-739.98 1118.68,-739.98 1118.68,-739.98 1259.12,-988.82 1305.47,-1070.93"/>
<polygon fill="#000000" stroke="#000000" points="1302.43,-1072.67 1310.39,-1079.66 1308.53,-1069.23 1302.43,-1072.67"/>
</g>
<!-- Metamodel::EnumHOW&#45;&gt;Metamodel::Naming -->
<g id="edge52" class="edge">
<title>Metamodel::EnumHOW&#45;&gt;Metamodel::Naming</title>
<path fill="none" stroke="#6666ff" d="M1198.43,-462.94C1179.99,-527 1118.68,-739.98 1118.68,-739.98 1118.68,-739.98 1142.44,-972.08 1150.87,-1054.5"/>
<polygon fill="#6666ff" stroke="#6666ff" points="1147.41,-1055.07 1151.91,-1064.66 1154.38,-1054.36 1147.41,-1055.07"/>
</g>
<!-- Metamodel::EnumHOW&#45;&gt;Metamodel::MROBasedMethodDispatch -->
<g id="edge59" class="edge">
<title>Metamodel::EnumHOW&#45;&gt;Metamodel::MROBasedMethodDispatch</title>
<path fill="none" stroke="#6666ff" d="M1142.26,-429.66C1033.39,-402.56 806.64,-346.12 687.07,-316.37"/>
<polygon fill="#6666ff" stroke="#6666ff" points="687.8,-312.94 677.25,-313.92 686.11,-319.73 687.8,-312.94"/>
</g>
<!-- Metamodel::EnumHOW&#45;&gt;Metamodel::MROBasedTypeChecking -->
<g id="edge60" class="edge">
<title>Metamodel::EnumHOW&#45;&gt;Metamodel::MROBasedTypeChecking</title>
<path fill="none" stroke="#6666ff" d="M1167.9,-427.68C1083.7,-387.01 872.84,-285.19 779.38,-240.06"/>
<polygon fill="#6666ff" stroke="#6666ff" points="780.7,-236.81 770.18,-235.62 777.66,-243.12 780.7,-236.81"/>
</g>
<!-- Metamodel::EnumHOW&#45;&gt;Metamodel::AttributeContainer -->
<g id="edge54" class="edge">
<title>Metamodel::EnumHOW&#45;&gt;Metamodel::AttributeContainer</title>
<path fill="none" stroke="#6666ff" d="M1187.22,-462.93C1129.4,-526.46 934.81,-740.24 867.24,-814.48"/>
<polygon fill="#6666ff" stroke="#6666ff" points="864.51,-812.28 860.37,-822.03 869.69,-816.99 864.51,-812.28"/>
</g>
<!-- Metamodel::EnumHOW&#45;&gt;Metamodel::MethodContainer -->
<g id="edge55" class="edge">
<title>Metamodel::EnumHOW&#45;&gt;Metamodel::MethodContainer</title>
<path fill="none" stroke="#6666ff" d="M1207.3,-462.94C1217.45,-512.66 1245.92,-652.01 1258.18,-712.02"/>
<polygon fill="#6666ff" stroke="#6666ff" points="1254.77,-712.84 1260.2,-721.94 1261.63,-711.44 1254.77,-712.84"/>
</g>
<!-- Metamodel::EnumHOW&#45;&gt;Metamodel::MultiMethodContainer -->
<g id="edge56" class="edge">
<title>Metamodel::EnumHOW&#45;&gt;Metamodel::MultiMethodContainer</title>
<path fill="none" stroke="#6666ff" d="M1231.9,-462.44C1271.17,-486.76 1342.3,-530.8 1385.95,-557.83"/>
<polygon fill="#6666ff" stroke="#6666ff" points="1384.22,-560.87 1394.56,-563.16 1387.9,-554.92 1384.22,-560.87"/>
</g>
<!-- Metamodel::EnumHOW&#45;&gt;Metamodel::RoleContainer -->
<g id="edge57" class="edge">
<title>Metamodel::EnumHOW&#45;&gt;Metamodel::RoleContainer</title>
<path fill="none" stroke="#6666ff" d="M1210.58,-462.99C1224.86,-499.98 1256.11,-580.93 1256.11,-580.93 1256.11,-580.93 1394.63,-724.73 1452.11,-784.39"/>
<polygon fill="#6666ff" stroke="#6666ff" points="1449.88,-787.12 1459.34,-791.9 1454.93,-782.27 1449.88,-787.12"/>
</g>
<!-- Metamodel::EnumHOW&#45;&gt;Metamodel::BUILDPLAN -->
<g id="edge61" class="edge">
<title>Metamodel::EnumHOW&#45;&gt;Metamodel::BUILDPLAN</title>
<path fill="none" stroke="#6666ff" d="M1186.42,-426.85C1122.17,-359.34 896.1,-121.78 821.46,-43.34"/>
<polygon fill="#6666ff" stroke="#6666ff" points="823.75,-40.67 814.32,-35.84 818.68,-45.5 823.75,-40.67"/>
</g>
<!-- Metamodel::EnumHOW&#45;&gt;Metamodel::Mixins -->
<g id="edge63" class="edge">
<title>Metamodel::EnumHOW&#45;&gt;Metamodel::Mixins</title>
<path fill="none" stroke="#6666ff" d="M1195.54,-426.78C1166.32,-361.07 1065.92,-135.32 1030.8,-56.34"/>
<polygon fill="#6666ff" stroke="#6666ff" points="1033.92,-54.75 1026.66,-47.03 1027.52,-57.59 1033.92,-54.75"/>
</g>
<!-- Metamodel::EnumHOW&#45;&gt;Metamodel::BoolificationProtocol -->
<g id="edge62" class="edge">
<title>Metamodel::EnumHOW&#45;&gt;Metamodel::BoolificationProtocol</title>
<path fill="none" stroke="#6666ff" d="M1250.7,-461.49C1353.88,-497.8 1590.77,-581.15 1590.77,-581.15 1590.77,-581.15 1595.43,-589.39 1600.74,-598.78"/>
<polygon fill="#6666ff" stroke="#6666ff" points="1597.71,-600.53 1605.68,-607.51 1603.8,-597.08 1597.71,-600.53"/>
</g>
<!-- Metamodel::EnumHOW&#45;&gt;Metamodel::BaseType -->
<g id="edge58" class="edge">
<title>Metamodel::EnumHOW&#45;&gt;Metamodel::BaseType</title>
<path fill="none" stroke="#6666ff" d="M1227.27,-427.04C1316.16,-359.81 1630.3,-122.23 1731.02,-46.06"/>
<polygon fill="#6666ff" stroke="#6666ff" points="1733.13,-48.85 1739,-40.03 1728.91,-43.27 1733.13,-48.85"/>
</g>
<!-- Metamodel::ParametricRoleHOW -->
<g id="node32" class="node">
<title>Metamodel::ParametricRoleHOW</title>
<g id="a_node32"><a xlink:href="/type/Metamodel::ParametricRoleHOW" xlink:title="Metamodel::ParametricRoleHOW">
<ellipse fill="none" stroke="#000000" cx="1124.43" cy="-1347.08" rx="157.07" ry="18"/>
<text text-anchor="middle" x="1124.43" y="-1343.38" font-family="FreeSans" font-size="14.00" fill="#000000">Metamodel::ParametricRoleHOW</text>
</a>
</g>
</g>
<!-- Metamodel::ParametricRoleHOW&#45;&gt;Metamodel::Stashing -->
<g id="edge73" class="edge">
<title>Metamodel::ParametricRoleHOW&#45;&gt;Metamodel::Stashing</title>
<path fill="none" stroke="#6666ff" d="M1113.93,-1329.08C1091.36,-1290.4 1038.13,-1199.19 1011.64,-1153.79"/>
<polygon fill="#6666ff" stroke="#6666ff" points="1014.63,-1151.96 1006.56,-1145.09 1008.58,-1155.49 1014.63,-1151.96"/>
</g>
<!-- Metamodel::ParametricRoleHOW&#45;&gt;Any -->
<g id="edge8" class="edge">
<title>Metamodel::ParametricRoleHOW&#45;&gt;Any</title>
<path fill="none" stroke="#000000" d="M1138.51,-1329.08C1173.05,-1284.91 1262.05,-1171.11 1301.18,-1121.08"/>
<polygon fill="#000000" stroke="#000000" points="1304.04,-1123.1 1307.45,-1113.06 1298.53,-1118.78 1304.04,-1123.1"/>
</g>
<!-- Metamodel::ParametricRoleHOW&#45;&gt;Metamodel::Naming -->
<g id="edge64" class="edge">
<title>Metamodel::ParametricRoleHOW&#45;&gt;Metamodel::Naming</title>
<path fill="none" stroke="#6666ff" d="M1126.45,-1328.93C1131.48,-1283.73 1144.6,-1165.8 1150.66,-1111.38"/>
<polygon fill="#6666ff" stroke="#6666ff" points="1154.14,-1111.71 1151.77,-1101.38 1147.18,-1110.93 1154.14,-1111.71"/>
</g>
<!-- Metamodel::ParametricRoleHOW&#45;&gt;Metamodel::Documenting -->
<g id="edge65" class="edge">
<title>Metamodel::ParametricRoleHOW&#45;&gt;Metamodel::Documenting</title>
<path fill="none" stroke="#6666ff" d="M979.53,-1354.09C949.61,-1355.54 918.27,-1357.06 888.9,-1358.48"/>
<polygon fill="#6666ff" stroke="#6666ff" points="888.42,-1355 878.61,-1358.98 888.76,-1361.99 888.42,-1355"/>
</g>
<!-- Metamodel::ParametricRoleHOW&#45;&gt;Metamodel::Versioning -->
<g id="edge66" class="edge">
<title>Metamodel::ParametricRoleHOW&#45;&gt;Metamodel::Versioning</title>
<path fill="none" stroke="#6666ff" d="M977.58,-1340.57C876.97,-1336.11 745.15,-1330.27 650.74,-1326.09"/>
<polygon fill="#6666ff" stroke="#6666ff" points="650.71,-1322.59 640.57,-1325.64 650.4,-1329.58 650.71,-1322.59"/>
</g>
<!-- Metamodel::ParametricRoleHOW&#45;&gt;Metamodel::MultipleInheritance -->
<g id="edge72" class="edge">
<title>Metamodel::ParametricRoleHOW&#45;&gt;Metamodel::MultipleInheritance</title>
<path fill="none" stroke="#6666ff" d="M1081,-1329.68C949.19,-1276.88 554.03,-1118.57 410.4,-1061.03"/>
<polygon fill="#6666ff" stroke="#6666ff" points="411.49,-1057.7 400.9,-1057.23 408.89,-1064.2 411.49,-1057.7"/>
</g>
<!-- Metamodel::ParametricRoleHOW&#45;&gt;Metamodel::AttributeContainer -->
<g id="edge70" class="edge">
<title>Metamodel::ParametricRoleHOW&#45;&gt;Metamodel::AttributeContainer</title>
<path fill="none" stroke="#6666ff" d="M1122.7,-1328.71C1117.7,-1275.86 1103.64,-1127.19 1103.64,-1127.19 1103.64,-1127.19 1050.81,-1082.97 1050.81,-1082.97 1050.81,-1082.97 919.6,-929 866.14,-866.27"/>
<polygon fill="#6666ff" stroke="#6666ff" points="868.58,-863.74 859.43,-858.39 863.25,-868.28 868.58,-863.74"/>
</g>
<!-- Metamodel::ParametricRoleHOW&#45;&gt;Metamodel::MethodContainer -->
<g id="edge67" class="edge">
<title>Metamodel::ParametricRoleHOW&#45;&gt;Metamodel::MethodContainer</title>
<path fill="none" stroke="#6666ff" d="M1133.53,-1328.94C1163.43,-1269.34 1256.79,-1083.25 1256.79,-1083.25 1256.79,-1083.25 1261.61,-851.13 1263.32,-768.71"/>
<polygon fill="#6666ff" stroke="#6666ff" points="1266.82,-768.62 1263.53,-758.55 1259.82,-768.47 1266.82,-768.62"/>
</g>
<!-- Metamodel::ParametricRoleHOW&#45;&gt;Metamodel::PrivateMethodContainer -->
<g id="edge68" class="edge">
<title>Metamodel::ParametricRoleHOW&#45;&gt;Metamodel::PrivateMethodContainer</title>
<path fill="none" stroke="#6666ff" d="M1055.36,-1330.87C923.1,-1299.84 634.78,-1232.2 494.3,-1199.25"/>
<polygon fill="#6666ff" stroke="#6666ff" points="494.98,-1195.81 484.45,-1196.93 493.38,-1202.63 494.98,-1195.81"/>
</g>
<!-- Metamodel::ParametricRoleHOW&#45;&gt;Metamodel::MultiMethodContainer -->
<g id="edge69" class="edge">
<title>Metamodel::ParametricRoleHOW&#45;&gt;Metamodel::MultiMethodContainer</title>
<path fill="none" stroke="#6666ff" d="M1133.53,-1328.94C1163.43,-1269.34 1256.79,-1083.25 1256.79,-1083.25 1256.79,-1083.25 1345.06,-809.81 1345.06,-809.81 1345.06,-809.81 1409.15,-740.21 1409.15,-740.21 1409.15,-740.21 1416.77,-655.27 1420.88,-609.49"/>
<polygon fill="#6666ff" stroke="#6666ff" points="1424.39,-609.57 1421.8,-599.3 1417.42,-608.95 1424.39,-609.57"/>
</g>
<!-- Metamodel::ParametricRoleHOW&#45;&gt;Metamodel::RoleContainer -->
<g id="edge71" class="edge">
<title>Metamodel::ParametricRoleHOW&#45;&gt;Metamodel::RoleContainer</title>
<path fill="none" stroke="#6666ff" d="M1136.35,-1328.9C1188.56,-1249.26 1397.22,-931.01 1459.2,-836.47"/>
<polygon fill="#6666ff" stroke="#6666ff" points="1462.18,-838.32 1464.73,-828.04 1456.32,-834.48 1462.18,-838.32"/>
</g>
<!-- Metamodel::ParametricRoleHOW&#45;&gt;Metamodel::TypePretense -->
<g id="edge74" class="edge">
<title>Metamodel::ParametricRoleHOW&#45;&gt;Metamodel::TypePretense</title>
<path fill="none" stroke="#6666ff" d="M1136.15,-1365.22C1183.94,-1439.19 1364.21,-1718.21 1420.87,-1805.9"/>
<polygon fill="#6666ff" stroke="#6666ff" points="1418.04,-1807.97 1426.41,-1814.47 1423.92,-1804.18 1418.04,-1807.97"/>
</g>
<!-- Metamodel::ParametricRoleHOW&#45;&gt;Metamodel::RolePunning -->
<g id="edge75" class="edge">
<title>Metamodel::ParametricRoleHOW&#45;&gt;Metamodel::RolePunning</title>
<path fill="none" stroke="#6666ff" d="M1155.73,-1364.96C1256.33,-1422.43 1571.31,-1602.38 1682.73,-1666.03"/>
<polygon fill="#6666ff" stroke="#6666ff" points="1681.22,-1669.2 1691.64,-1671.12 1684.69,-1663.12 1681.22,-1669.2"/>
</g>
</g>
</svg>
