<?xml version="1.0" encoding="UTF-8" standalone="no"?>
<!DOCTYPE svg PUBLIC "-//W3C//DTD SVG 1.1//EN"
 "http://www.w3.org/Graphics/SVG/1.1/DTD/svg11.dtd">
<!-- Generated by graphviz version 2.42.3 (0)
 -->
<!-- Title: perl6&#45;type&#45;graph Pages: 1 -->
<svg width="319pt" height="404pt"
 viewBox="0.00 0.00 319.29 404.00" xmlns="http://www.w3.org/2000/svg" xmlns:xlink="http://www.w3.org/1999/xlink">
<g id="graph0" class="graph" transform="scale(1 1) rotate(0) translate(4 400)">
<title>perl6&#45;type&#45;graph</title>
<polygon fill="white" stroke="transparent" points="-4,4 -4,-400 315.29,-400 315.29,4 -4,4"/>
<!-- Hash -->
<g id="node1" class="node">
<title>Hash</title>
<g id="a_node1"><a xlink:href="/type/Hash" xlink:title="Hash">
<ellipse fill="none" stroke="#000000" cx="124.55" cy="-90" rx="33.6" ry="18"/>
<text text-anchor="middle" x="124.55" y="-86.3" font-family="FreeSans" font-size="14.00" fill="#000000">Hash</text>
</a>
</g>
</g>
<!-- Map -->
<g id="node7" class="node">
<title>Map</title>
<g id="a_node7"><a xlink:href="/type/Map" xlink:title="Map">
<ellipse fill="none" stroke="#000000" cx="124.55" cy="-162" rx="29.8" ry="18"/>
<text text-anchor="middle" x="124.55" y="-158.3" font-family="FreeSans" font-size="14.00" fill="#000000">Map</text>
</a>
</g>
</g>
<!-- Hash&#45;&gt;Map -->
<g id="edge1" class="edge">
<title>Hash&#45;&gt;Map</title>
<path fill="none" stroke="#000000" d="M124.55,-108.3C124.55,-116.02 124.55,-125.29 124.55,-133.89"/>
<polygon fill="#000000" stroke="#000000" points="121.05,-133.9 124.55,-143.9 128.05,-133.9 121.05,-133.9"/>
</g>
<!-- Mu -->
<g id="node2" class="node">
<title>Mu</title>
<g id="a_node2"><a xlink:href="/type/Mu" xlink:title="Mu">
<ellipse fill="none" stroke="#000000" cx="30.55" cy="-378" rx="27" ry="18"/>
<text text-anchor="middle" x="30.55" y="-374.3" font-family="FreeSans" font-size="14.00" fill="#000000">Mu</text>
</a>
</g>
</g>
<!-- Any -->
<g id="node3" class="node">
<title>Any</title>
<g id="a_node3"><a xlink:href="/type/Any" xlink:title="Any">
<ellipse fill="none" stroke="#000000" cx="30.55" cy="-306" rx="28.7" ry="18"/>
<text text-anchor="middle" x="30.55" y="-302.3" font-family="FreeSans" font-size="14.00" fill="#000000">Any</text>
</a>
</g>
</g>
<!-- Any&#45;&gt;Mu -->
<g id="edge2" class="edge">
<title>Any&#45;&gt;Mu</title>
<path fill="none" stroke="#000000" d="M30.55,-324.3C30.55,-332.02 30.55,-341.29 30.55,-349.89"/>
<polygon fill="#000000" stroke="#000000" points="27.05,-349.9 30.55,-359.9 34.05,-349.9 27.05,-349.9"/>
</g>
<!-- Cool -->
<g id="node4" class="node">
<title>Cool</title>
<g id="a_node4"><a xlink:href="/type/Cool" xlink:title="Cool">
<ellipse fill="none" stroke="#000000" cx="30.55" cy="-234" rx="30.59" ry="18"/>
<text text-anchor="middle" x="30.55" y="-230.3" font-family="FreeSans" font-size="14.00" fill="#000000">Cool</text>
</a>
</g>
</g>
<!-- Cool&#45;&gt;Any -->
<g id="edge3" class="edge">
<title>Cool&#45;&gt;Any</title>
<path fill="none" stroke="#000000" d="M30.55,-252.3C30.55,-260.02 30.55,-269.29 30.55,-277.89"/>
<polygon fill="#000000" stroke="#000000" points="27.05,-277.9 30.55,-287.9 34.05,-277.9 27.05,-277.9"/>
</g>
<!-- Iterable -->
<g id="node5" class="node">
<title>Iterable</title>
<g id="a_node5"><a xlink:href="/type/Iterable" xlink:title="Iterable">
<ellipse fill="none" stroke="#6666ff" cx="124.55" cy="-234" rx="45.49" ry="18"/>
<text text-anchor="middle" x="124.55" y="-230.3" font-family="FreeSans" font-size="14.00" fill="#6666ff">Iterable</text>
</a>
</g>
</g>
<!-- Associative -->
<g id="node6" class="node">
<title>Associative</title>
<g id="a_node6"><a xlink:href="/type/Associative" xlink:title="Associative">
<ellipse fill="none" stroke="#6666ff" cx="249.55" cy="-234" rx="61.99" ry="18"/>
<text text-anchor="middle" x="249.55" y="-230.3" font-family="FreeSans" font-size="14.00" fill="#6666ff">Associative</text>
</a>
</g>
</g>
<!-- Map&#45;&gt;Cool -->
<g id="edge4" class="edge">
<title>Map&#45;&gt;Cool</title>
<path fill="none" stroke="#000000" d="M106.42,-176.5C92.47,-186.89 72.97,-201.41 57.23,-213.13"/>
<polygon fill="#000000" stroke="#000000" points="54.87,-210.53 48.94,-219.31 59.05,-216.14 54.87,-210.53"/>
</g>
<!-- Map&#45;&gt;Iterable -->
<g id="edge6" class="edge">
<title>Map&#45;&gt;Iterable</title>
<path fill="none" stroke="#6666ff" d="M124.55,-180.3C124.55,-188.02 124.55,-197.29 124.55,-205.89"/>
<polygon fill="#6666ff" stroke="#6666ff" points="121.05,-205.9 124.55,-215.9 128.05,-205.9 121.05,-205.9"/>
</g>
<!-- Map&#45;&gt;Associative -->
<g id="edge7" class="edge">
<title>Map&#45;&gt;Associative</title>
<path fill="none" stroke="#6666ff" d="M145.75,-174.87C164.16,-185.18 191.21,-200.33 213.09,-212.58"/>
<polygon fill="#6666ff" stroke="#6666ff" points="211.67,-215.8 222.1,-217.63 215.09,-209.69 211.67,-215.8"/>
</g>
<!-- Stash -->
<g id="node8" class="node">
<title>Stash</title>
<g id="a_node8"><a xlink:href="/type/Stash" xlink:title="Stash">
<ellipse fill="none" stroke="#000000" cx="124.55" cy="-18" rx="36.29" ry="18"/>
<text text-anchor="middle" x="124.55" y="-14.3" font-family="FreeSans" font-size="14.00" fill="#000000">Stash</text>
</a>
</g>
</g>
<!-- Stash&#45;&gt;Hash -->
<g id="edge5" class="edge">
<title>Stash&#45;&gt;Hash</title>
<path fill="none" stroke="#000000" d="M124.55,-36.3C124.55,-44.02 124.55,-53.29 124.55,-61.89"/>
<polygon fill="#000000" stroke="#000000" points="121.05,-61.9 124.55,-71.9 128.05,-61.9 121.05,-61.9"/>
</g>
</g>
</svg>
