<?xml version="1.0" encoding="UTF-8" standalone="no"?>
<!DOCTYPE svg PUBLIC "-//W3C//DTD SVG 1.1//EN"
 "http://www.w3.org/Graphics/SVG/1.1/DTD/svg11.dtd">
<!-- Generated by graphviz version 2.42.3 (0)
 -->
<!-- Title: perl6&#45;type&#45;graph Pages: 1 -->
<svg width="293pt" height="188pt"
 viewBox="0.00 0.00 292.95 188.00" xmlns="http://www.w3.org/2000/svg" xmlns:xlink="http://www.w3.org/1999/xlink">
<g id="graph0" class="graph" transform="scale(1 1) rotate(0) translate(4 184)">
<title>perl6&#45;type&#45;graph</title>
<polygon fill="white" stroke="transparent" points="-4,4 -4,-184 288.95,-184 288.95,4 -4,4"/>
<!-- Blob -->
<g id="node1" class="node">
<title>Blob</title>
<g id="a_node1"><a xlink:href="/type/Blob" xlink:title="Blob">
<ellipse fill="none" stroke="#6666ff" cx="168.95" cy="-90" rx="30.59" ry="18"/>
<text text-anchor="middle" x="168.95" y="-86.3" font-family="FreeSans" font-size="14.00" fill="#6666ff">Blob</text>
</a>
</g>
</g>
<!-- Positional -->
<g id="node2" class="node">
<title>Positional</title>
<g id="a_node2"><a xlink:href="/type/Positional" xlink:title="Positional">
<ellipse fill="none" stroke="#6666ff" cx="53.95" cy="-162" rx="53.89" ry="18"/>
<text text-anchor="middle" x="53.95" y="-158.3" font-family="FreeSans" font-size="14.00" fill="#6666ff">Positional</text>
</a>
</g>
</g>
<!-- Blob&#45;&gt;Positional -->
<g id="edge3" class="edge">
<title>Blob&#45;&gt;Positional</title>
<path fill="none" stroke="#6666ff" d="M148.39,-103.51C131.47,-113.81 107.15,-128.62 87.42,-140.62"/>
<polygon fill="#6666ff" stroke="#6666ff" points="85.45,-137.73 78.73,-145.91 89.09,-143.7 85.45,-137.73"/>
</g>
<!-- Stringy -->
<g id="node3" class="node">
<title>Stringy</title>
<g id="a_node3"><a xlink:href="/type/Stringy" xlink:title="Stringy">
<ellipse fill="none" stroke="#6666ff" cx="168.95" cy="-162" rx="43.59" ry="18"/>
<text text-anchor="middle" x="168.95" y="-158.3" font-family="FreeSans" font-size="14.00" fill="#6666ff">Stringy</text>
</a>
</g>
</g>
<!-- Blob&#45;&gt;Stringy -->
<g id="edge4" class="edge">
<title>Blob&#45;&gt;Stringy</title>
<path fill="none" stroke="#6666ff" d="M168.95,-108.3C168.95,-116.02 168.95,-125.29 168.95,-133.89"/>
<polygon fill="#6666ff" stroke="#6666ff" points="165.45,-133.9 168.95,-143.9 172.45,-133.9 165.45,-133.9"/>
</g>
<!-- Mu -->
<g id="node4" class="node">
<title>Mu</title>
<g id="a_node4"><a xlink:href="/type/Mu" xlink:title="Mu">
<ellipse fill="none" stroke="#000000" cx="257.95" cy="-162" rx="27" ry="18"/>
<text text-anchor="middle" x="257.95" y="-158.3" font-family="FreeSans" font-size="14.00" fill="#000000">Mu</text>
</a>
</g>
</g>
<!-- Any -->
<g id="node5" class="node">
<title>Any</title>
<g id="a_node5"><a xlink:href="/type/Any" xlink:title="Any">
<ellipse fill="none" stroke="#000000" cx="251.95" cy="-90" rx="28.7" ry="18"/>
<text text-anchor="middle" x="251.95" y="-86.3" font-family="FreeSans" font-size="14.00" fill="#000000">Any</text>
</a>
</g>
</g>
<!-- Any&#45;&gt;Mu -->
<g id="edge1" class="edge">
<title>Any&#45;&gt;Mu</title>
<path fill="none" stroke="#000000" d="M253.43,-108.3C254.09,-116.02 254.88,-125.29 255.62,-133.89"/>
<polygon fill="#000000" stroke="#000000" points="252.14,-134.23 256.48,-143.9 259.11,-133.63 252.14,-134.23"/>
</g>
<!-- utf8 -->
<g id="node6" class="node">
<title>utf8</title>
<g id="a_node6"><a xlink:href="/type/utf8" xlink:title="utf8">
<ellipse fill="none" stroke="#000000" cx="243.95" cy="-18" rx="29.5" ry="18"/>
<text text-anchor="middle" x="243.95" y="-14.3" font-family="FreeSans" font-size="14.00" fill="#000000">utf8</text>
</a>
</g>
</g>
<!-- utf8&#45;&gt;Blob -->
<g id="edge5" class="edge">
<title>utf8&#45;&gt;Blob</title>
<path fill="none" stroke="#6666ff" d="M228.41,-33.5C217.92,-43.29 203.89,-56.39 192.09,-67.4"/>
<polygon fill="#6666ff" stroke="#6666ff" points="189.65,-64.89 184.72,-74.27 194.42,-70.01 189.65,-64.89"/>
</g>
<!-- utf8&#45;&gt;Any -->
<g id="edge2" class="edge">
<title>utf8&#45;&gt;Any</title>
<path fill="none" stroke="#000000" d="M245.92,-36.3C246.8,-44.02 247.86,-53.29 248.85,-61.89"/>
<polygon fill="#000000" stroke="#000000" points="245.38,-62.36 249.99,-71.9 252.33,-61.56 245.38,-62.36"/>
</g>
<!-- Buf -->
<g id="node7" class="node">
<title>Buf</title>
<g id="a_node7"><a xlink:href="/type/Buf" xlink:title="Buf">
<ellipse fill="none" stroke="#6666ff" cx="168.95" cy="-18" rx="27" ry="18"/>
<text text-anchor="middle" x="168.95" y="-14.3" font-family="FreeSans" font-size="14.00" fill="#6666ff">Buf</text>
</a>
</g>
</g>
<!-- Buf&#45;&gt;Blob -->
<g id="edge6" class="edge">
<title>Buf&#45;&gt;Blob</title>
<path fill="none" stroke="#6666ff" d="M168.95,-36.3C168.95,-44.02 168.95,-53.29 168.95,-61.89"/>
<polygon fill="#6666ff" stroke="#6666ff" points="165.45,-61.9 168.95,-71.9 172.45,-61.9 165.45,-61.9"/>
</g>
</g>
</svg>
