<?xml version="1.0" encoding="UTF-8" standalone="no"?>
<!DOCTYPE svg PUBLIC "-//W3C//DTD SVG 1.1//EN"
 "http://www.w3.org/Graphics/SVG/1.1/DTD/svg11.dtd">
<!-- Generated by graphviz version 2.42.3 (0)
 -->
<!-- Title: perl6&#45;type&#45;graph Pages: 1 -->
<svg width="176pt" height="188pt"
 viewBox="0.00 0.00 175.74 188.00" xmlns="http://www.w3.org/2000/svg" xmlns:xlink="http://www.w3.org/1999/xlink">
<g id="graph0" class="graph" transform="scale(1 1) rotate(0) translate(4 184)">
<title>perl6&#45;type&#45;graph</title>
<polygon fill="white" stroke="transparent" points="-4,4 -4,-184 171.74,-184 171.74,4 -4,4"/>
<!-- ForeignCode -->
<g id="node1" class="node">
<title>ForeignCode</title>
<g id="a_node1"><a xlink:href="/type/ForeignCode" xlink:title="ForeignCode">
<ellipse fill="none" stroke="#000000" cx="74.6" cy="-18" rx="66.89" ry="18"/>
<text text-anchor="middle" x="74.6" y="-14.3" font-family="FreeSans" font-size="14.00" fill="#000000">ForeignCode</text>
</a>
</g>
</g>
<!-- Any -->
<g id="node3" class="node">
<title>Any</title>
<g id="a_node3"><a xlink:href="/type/Any" xlink:title="Any">
<ellipse fill="none" stroke="#000000" cx="28.6" cy="-90" rx="28.7" ry="18"/>
<text text-anchor="middle" x="28.6" y="-86.3" font-family="FreeSans" font-size="14.00" fill="#000000">Any</text>
</a>
</g>
</g>
<!-- ForeignCode&#45;&gt;Any -->
<g id="edge1" class="edge">
<title>ForeignCode&#45;&gt;Any</title>
<path fill="none" stroke="#000000" d="M63.46,-35.95C57.82,-44.53 50.87,-55.11 44.66,-64.56"/>
<polygon fill="#000000" stroke="#000000" points="41.57,-62.89 39,-73.17 47.42,-66.74 41.57,-62.89"/>
</g>
<!-- Callable -->
<g id="node4" class="node">
<title>Callable</title>
<g id="a_node4"><a xlink:href="/type/Callable" xlink:title="Callable">
<ellipse fill="none" stroke="#6666ff" cx="121.6" cy="-90" rx="46.29" ry="18"/>
<text text-anchor="middle" x="121.6" y="-86.3" font-family="FreeSans" font-size="14.00" fill="#6666ff">Callable</text>
</a>
</g>
</g>
<!-- ForeignCode&#45;&gt;Callable -->
<g id="edge3" class="edge">
<title>ForeignCode&#45;&gt;Callable</title>
<path fill="none" stroke="#6666ff" d="M85.97,-35.95C91.57,-44.29 98.44,-54.51 104.64,-63.75"/>
<polygon fill="#6666ff" stroke="#6666ff" points="101.84,-65.86 110.32,-72.21 107.66,-61.96 101.84,-65.86"/>
</g>
<!-- Mu -->
<g id="node2" class="node">
<title>Mu</title>
<g id="a_node2"><a xlink:href="/type/Mu" xlink:title="Mu">
<ellipse fill="none" stroke="#000000" cx="28.6" cy="-162" rx="27" ry="18"/>
<text text-anchor="middle" x="28.6" y="-158.3" font-family="FreeSans" font-size="14.00" fill="#000000">Mu</text>
</a>
</g>
</g>
<!-- Any&#45;&gt;Mu -->
<g id="edge2" class="edge">
<title>Any&#45;&gt;Mu</title>
<path fill="none" stroke="#000000" d="M28.6,-108.3C28.6,-116.02 28.6,-125.29 28.6,-133.89"/>
<polygon fill="#000000" stroke="#000000" points="25.1,-133.9 28.6,-143.9 32.1,-133.9 25.1,-133.9"/>
</g>
</g>
</svg>
