<?xml version="1.0" encoding="UTF-8" standalone="no"?>
<!DOCTYPE svg PUBLIC "-//W3C//DTD SVG 1.1//EN"
 "http://www.w3.org/Graphics/SVG/1.1/DTD/svg11.dtd">
<!-- Generated by graphviz version 2.42.3 (0)
 -->
<!-- Title: perl6&#45;type&#45;graph Pages: 1 -->
<svg width="1672pt" height="1513pt"
 viewBox="0.00 0.00 1671.56 1512.99" xmlns="http://www.w3.org/2000/svg" xmlns:xlink="http://www.w3.org/1999/xlink">
<g id="graph0" class="graph" transform="scale(1 1) rotate(0) translate(4 1508.99)">
<title>perl6&#45;type&#45;graph</title>
<polygon fill="white" stroke="transparent" points="-4,4 -4,-1508.99 1667.56,-1508.99 1667.56,4 -4,4"/>
<!-- Metamodel::C3MRO -->
<g id="node1" class="node">
<title>Metamodel::C3MRO</title>
<g id="a_node1"><a xlink:href="/type/Metamodel::C3MRO" xlink:title="Metamodel::C3MRO">
<ellipse fill="none" stroke="#6666ff" cx="779.75" cy="-505.64" rx="100.18" ry="18"/>
<text text-anchor="middle" x="779.75" y="-501.94" font-family="FreeSans" font-size="14.00" fill="#6666ff">Metamodel::C3MRO</text>
</a>
</g>
</g>
<!-- Mu -->
<g id="node2" class="node">
<title>Mu</title>
<g id="a_node2"><a xlink:href="/type/Mu" xlink:title="Mu">
<ellipse fill="none" stroke="#000000" cx="1636.56" cy="-18" rx="27" ry="18"/>
<text text-anchor="middle" x="1636.56" y="-14.3" font-family="FreeSans" font-size="14.00" fill="#000000">Mu</text>
</a>
</g>
</g>
<!-- Any -->
<g id="node3" class="node">
<title>Any</title>
<g id="a_node3"><a xlink:href="/type/Any" xlink:title="Any">
<ellipse fill="none" stroke="#000000" cx="1236.67" cy="-362.49" rx="28.7" ry="18"/>
<text text-anchor="middle" x="1236.67" y="-358.79" font-family="FreeSans" font-size="14.00" fill="#000000">Any</text>
</a>
</g>
</g>
<!-- Any&#45;&gt;Mu -->
<g id="edge1" class="edge">
<title>Any&#45;&gt;Mu</title>
<path fill="none" stroke="#000000" d="M1253.6,-347.9C1316.58,-293.65 1537.55,-103.29 1611.92,-39.22"/>
<polygon fill="#000000" stroke="#000000" points="1614.56,-41.57 1619.85,-32.39 1609.99,-36.27 1614.56,-41.57"/>
</g>
<!-- Metamodel::Naming -->
<g id="node4" class="node">
<title>Metamodel::Naming</title>
<g id="a_node4"><a xlink:href="/type/Metamodel::Naming" xlink:title="Metamodel::Naming">
<ellipse fill="none" stroke="#6666ff" cx="1088.49" cy="-696.7" rx="101.28" ry="18"/>
<text text-anchor="middle" x="1088.49" y="-693" font-family="FreeSans" font-size="14.00" fill="#6666ff">Metamodel::Naming</text>
</a>
</g>
</g>
<!-- Metamodel::Documenting -->
<g id="node5" class="node">
<title>Metamodel::Documenting</title>
<g id="a_node5"><a xlink:href="/type/Metamodel::Documenting" xlink:title="Metamodel::Documenting">
<ellipse fill="none" stroke="#6666ff" cx="1019.06" cy="-446.7" rx="126.98" ry="18"/>
<text text-anchor="middle" x="1019.06" y="-443" font-family="FreeSans" font-size="14.00" fill="#6666ff">Metamodel::Documenting</text>
</a>
</g>
</g>
<!-- Metamodel::Versioning -->
<g id="node6" class="node">
<title>Metamodel::Versioning</title>
<g id="a_node6"><a xlink:href="/type/Metamodel::Versioning" xlink:title="Metamodel::Versioning">
<ellipse fill="none" stroke="#6666ff" cx="492.87" cy="-605.83" rx="114.28" ry="18"/>
<text text-anchor="middle" x="492.87" y="-602.13" font-family="FreeSans" font-size="14.00" fill="#6666ff">Metamodel::Versioning</text>
</a>
</g>
</g>
<!-- Metamodel::Stashing -->
<g id="node7" class="node">
<title>Metamodel::Stashing</title>
<g id="a_node7"><a xlink:href="/type/Metamodel::Stashing" xlink:title="Metamodel::Stashing">
<ellipse fill="none" stroke="#6666ff" cx="310.35" cy="-461.64" rx="105.88" ry="18"/>
<text text-anchor="middle" x="310.35" y="-457.94" font-family="FreeSans" font-size="14.00" fill="#6666ff">Metamodel::Stashing</text>
</a>
</g>
</g>
<!-- Metamodel::MultipleInheritance -->
<g id="node8" class="node">
<title>Metamodel::MultipleInheritance</title>
<g id="a_node8"><a xlink:href="/type/Metamodel::MultipleInheritance" xlink:title="Metamodel::MultipleInheritance">
<ellipse fill="none" stroke="#6666ff" cx="1269.76" cy="-599.7" rx="153.27" ry="18"/>
<text text-anchor="middle" x="1269.76" y="-596" font-family="FreeSans" font-size="14.00" fill="#6666ff">Metamodel::MultipleInheritance</text>
</a>
</g>
</g>
<!-- Metamodel::MROBasedMethodDispatch -->
<g id="node9" class="node">
<title>Metamodel::MROBasedMethodDispatch</title>
<g id="a_node9"><a xlink:href="/type/Metamodel::MROBasedMethodDispatch" xlink:title="Metamodel::MROBasedMethodDispatch">
<ellipse fill="none" stroke="#6666ff" cx="352.56" cy="-302.57" rx="188.47" ry="18"/>
<text text-anchor="middle" x="352.56" y="-298.87" font-family="FreeSans" font-size="14.00" fill="#6666ff">Metamodel::MROBasedMethodDispatch</text>
</a>
</g>
</g>
<!-- Metamodel::MROBasedTypeChecking -->
<g id="node10" class="node">
<title>Metamodel::MROBasedTypeChecking</title>
<g id="a_node10"><a xlink:href="/type/Metamodel::MROBasedTypeChecking" xlink:title="Metamodel::MROBasedTypeChecking">
<ellipse fill="none" stroke="#6666ff" cx="727.82" cy="-292" rx="178.97" ry="18"/>
<text text-anchor="middle" x="727.82" y="-288.3" font-family="FreeSans" font-size="14.00" fill="#6666ff">Metamodel::MROBasedTypeChecking</text>
</a>
</g>
</g>
<!-- Metamodel::NativeHOW -->
<g id="node11" class="node">
<title>Metamodel::NativeHOW</title>
<g id="a_node11"><a xlink:href="/type/Metamodel::NativeHOW" xlink:title="Metamodel::NativeHOW">
<ellipse fill="none" stroke="#000000" cx="891.42" cy="-116.14" rx="118.08" ry="18"/>
<text text-anchor="middle" x="891.42" y="-112.44" font-family="FreeSans" font-size="14.00" fill="#000000">Metamodel::NativeHOW</text>
</a>
</g>
</g>
<!-- Metamodel::NativeHOW&#45;&gt;Metamodel::C3MRO -->
<g id="edge9" class="edge">
<title>Metamodel::NativeHOW&#45;&gt;Metamodel::C3MRO</title>
<path fill="none" stroke="#6666ff" d="M893.15,-134.31C897.42,-179.27 908.15,-292.11 908.15,-292.11 908.15,-292.11 830.62,-421.04 796.05,-478.53"/>
<polygon fill="#6666ff" stroke="#6666ff" points="792.85,-477.06 790.7,-487.43 798.85,-480.67 792.85,-477.06"/>
</g>
<!-- Metamodel::NativeHOW&#45;&gt;Any -->
<g id="edge2" class="edge">
<title>Metamodel::NativeHOW&#45;&gt;Any</title>
<path fill="none" stroke="#000000" d="M916.25,-133.86C979.14,-178.73 1144.32,-296.59 1209.59,-343.16"/>
<polygon fill="#000000" stroke="#000000" points="1207.58,-346.03 1217.75,-348.99 1211.65,-340.33 1207.58,-346.03"/>
</g>
<!-- Metamodel::NativeHOW&#45;&gt;Metamodel::Naming -->
<g id="edge4" class="edge">
<title>Metamodel::NativeHOW&#45;&gt;Metamodel::Naming</title>
<path fill="none" stroke="#6666ff" d="M893.15,-134.31C897.42,-179.27 908.15,-292.11 908.15,-292.11 908.15,-292.11 890.73,-446.57 890.73,-446.57 890.73,-446.57 1017.3,-606.66 1067.93,-670.69"/>
<polygon fill="#6666ff" stroke="#6666ff" points="1065.32,-673.04 1074.27,-678.71 1070.81,-668.7 1065.32,-673.04"/>
</g>
<!-- Metamodel::NativeHOW&#45;&gt;Metamodel::Documenting -->
<g id="edge5" class="edge">
<title>Metamodel::NativeHOW&#45;&gt;Metamodel::Documenting</title>
<path fill="none" stroke="#6666ff" d="M898.47,-134.38C919.65,-189.24 982.87,-352.97 1008.29,-418.82"/>
<polygon fill="#6666ff" stroke="#6666ff" points="1005.17,-420.45 1012.04,-428.51 1011.7,-417.92 1005.17,-420.45"/>
</g>
<!-- Metamodel::NativeHOW&#45;&gt;Metamodel::Versioning -->
<g id="edge6" class="edge">
<title>Metamodel::NativeHOW&#45;&gt;Metamodel::Versioning</title>
<path fill="none" stroke="#6666ff" d="M893.15,-134.31C897.42,-179.27 908.15,-292.11 908.15,-292.11 908.15,-292.11 621.78,-508.44 524.65,-581.82"/>
<polygon fill="#6666ff" stroke="#6666ff" points="522.25,-579.24 516.38,-588.06 526.47,-584.83 522.25,-579.24"/>
</g>
<!-- Metamodel::NativeHOW&#45;&gt;Metamodel::Stashing -->
<g id="edge7" class="edge">
<title>Metamodel::NativeHOW&#45;&gt;Metamodel::Stashing</title>
<path fill="none" stroke="#6666ff" d="M857.5,-133.47C770.73,-177.81 547.49,-291.88 547.49,-291.88 547.49,-291.88 542.64,-302.64 542.64,-302.64 542.64,-302.64 409.41,-393.84 344.75,-438.09"/>
<polygon fill="#6666ff" stroke="#6666ff" points="342.37,-435.48 336.1,-444.01 346.33,-441.25 342.37,-435.48"/>
</g>
<!-- Metamodel::NativeHOW&#45;&gt;Metamodel::MultipleInheritance -->
<g id="edge8" class="edge">
<title>Metamodel::NativeHOW&#45;&gt;Metamodel::MultipleInheritance</title>
<path fill="none" stroke="#6666ff" d="M905.56,-134.21C963.27,-207.97 1181.1,-486.38 1249.25,-573.48"/>
<polygon fill="#6666ff" stroke="#6666ff" points="1246.63,-575.81 1255.54,-581.53 1252.14,-571.5 1246.63,-575.81"/>
</g>
<!-- Metamodel::NativeHOW&#45;&gt;Metamodel::MROBasedMethodDispatch -->
<g id="edge10" class="edge">
<title>Metamodel::NativeHOW&#45;&gt;Metamodel::MROBasedMethodDispatch</title>
<path fill="none" stroke="#6666ff" d="M843.6,-132.68C745.31,-166.69 520.78,-244.37 412.78,-281.74"/>
<polygon fill="#6666ff" stroke="#6666ff" points="411.31,-278.54 403.01,-285.12 413.6,-285.16 411.31,-278.54"/>
</g>
<!-- Metamodel::NativeHOW&#45;&gt;Metamodel::MROBasedTypeChecking -->
<g id="edge11" class="edge">
<title>Metamodel::NativeHOW&#45;&gt;Metamodel::MROBasedTypeChecking</title>
<path fill="none" stroke="#6666ff" d="M874.83,-133.97C845.76,-165.22 785.49,-230.01 751.84,-266.17"/>
<polygon fill="#6666ff" stroke="#6666ff" points="748.94,-264.15 744.69,-273.86 754.07,-268.92 748.94,-264.15"/>
</g>
<!-- Metamodel::AttributeContainer -->
<g id="node12" class="node">
<title>Metamodel::AttributeContainer</title>
<g id="a_node12"><a xlink:href="/type/Metamodel::AttributeContainer" xlink:title="Metamodel::AttributeContainer">
<ellipse fill="none" stroke="#6666ff" cx="291.06" cy="-1125.7" rx="150.27" ry="18"/>
<text text-anchor="middle" x="291.06" y="-1122" font-family="FreeSans" font-size="14.00" fill="#6666ff">Metamodel::AttributeContainer</text>
</a>
</g>
</g>
<!-- Metamodel::Finalization -->
<g id="node13" class="node">
<title>Metamodel::Finalization</title>
<g id="a_node13"><a xlink:href="/type/Metamodel::Finalization" xlink:title="Metamodel::Finalization">
<ellipse fill="none" stroke="#6666ff" cx="1183.66" cy="-1252.63" rx="116.98" ry="18"/>
<text text-anchor="middle" x="1183.66" y="-1248.93" font-family="FreeSans" font-size="14.00" fill="#6666ff">Metamodel::Finalization</text>
</a>
</g>
</g>
<!-- Metamodel::MethodContainer -->
<g id="node14" class="node">
<title>Metamodel::MethodContainer</title>
<g id="a_node14"><a xlink:href="/type/Metamodel::MethodContainer" xlink:title="Metamodel::MethodContainer">
<ellipse fill="none" stroke="#6666ff" cx="1064.2" cy="-1415.29" rx="143.77" ry="18"/>
<text text-anchor="middle" x="1064.2" y="-1411.59" font-family="FreeSans" font-size="14.00" fill="#6666ff">Metamodel::MethodContainer</text>
</a>
</g>
</g>
<!-- Metamodel::PrivateMethodContainer -->
<g id="node15" class="node">
<title>Metamodel::PrivateMethodContainer</title>
<g id="a_node15"><a xlink:href="/type/Metamodel::PrivateMethodContainer" xlink:title="Metamodel::PrivateMethodContainer">
<ellipse fill="none" stroke="#6666ff" cx="869.04" cy="-1362.43" rx="174.67" ry="18"/>
<text text-anchor="middle" x="869.04" y="-1358.73" font-family="FreeSans" font-size="14.00" fill="#6666ff">Metamodel::PrivateMethodContainer</text>
</a>
</g>
</g>
<!-- Metamodel::MultiMethodContainer -->
<g id="node16" class="node">
<title>Metamodel::MultiMethodContainer</title>
<g id="a_node16"><a xlink:href="/type/Metamodel::MultiMethodContainer" xlink:title="Metamodel::MultiMethodContainer">
<ellipse fill="none" stroke="#6666ff" cx="1386.61" cy="-933.57" rx="165.97" ry="18"/>
<text text-anchor="middle" x="1386.61" y="-929.87" font-family="FreeSans" font-size="14.00" fill="#6666ff">Metamodel::MultiMethodContainer</text>
</a>
</g>
</g>
<!-- Metamodel::RoleContainer -->
<g id="node17" class="node">
<title>Metamodel::RoleContainer</title>
<g id="a_node17"><a xlink:href="/type/Metamodel::RoleContainer" xlink:title="Metamodel::RoleContainer">
<ellipse fill="none" stroke="#6666ff" cx="1319.17" cy="-1123.33" rx="129.98" ry="18"/>
<text text-anchor="middle" x="1319.17" y="-1119.63" font-family="FreeSans" font-size="14.00" fill="#6666ff">Metamodel::RoleContainer</text>
</a>
</g>
</g>
<!-- Metamodel::DefaultParent -->
<g id="node18" class="node">
<title>Metamodel::DefaultParent</title>
<g id="a_node18"><a xlink:href="/type/Metamodel::DefaultParent" xlink:title="Metamodel::DefaultParent">
<ellipse fill="none" stroke="#6666ff" cx="578.44" cy="-1307.17" rx="128.08" ry="18"/>
<text text-anchor="middle" x="578.44" y="-1303.47" font-family="FreeSans" font-size="14.00" fill="#6666ff">Metamodel::DefaultParent</text>
</a>
</g>
</g>
<!-- Metamodel::Trusting -->
<g id="node19" class="node">
<title>Metamodel::Trusting</title>
<g id="a_node19"><a xlink:href="/type/Metamodel::Trusting" xlink:title="Metamodel::Trusting">
<ellipse fill="none" stroke="#6666ff" cx="339.66" cy="-1323.98" rx="102.88" ry="18"/>
<text text-anchor="middle" x="339.66" y="-1320.28" font-family="FreeSans" font-size="14.00" fill="#6666ff">Metamodel::Trusting</text>
</a>
</g>
</g>
<!-- Metamodel::BUILDPLAN -->
<g id="node20" class="node">
<title>Metamodel::BUILDPLAN</title>
<g id="a_node20"><a xlink:href="/type/Metamodel::BUILDPLAN" xlink:title="Metamodel::BUILDPLAN">
<ellipse fill="none" stroke="#6666ff" cx="690.63" cy="-1486.99" rx="118.08" ry="18"/>
<text text-anchor="middle" x="690.63" y="-1483.29" font-family="FreeSans" font-size="14.00" fill="#6666ff">Metamodel::BUILDPLAN</text>
</a>
</g>
</g>
<!-- Metamodel::Mixins -->
<g id="node21" class="node">
<title>Metamodel::Mixins</title>
<g id="a_node21"><a xlink:href="/type/Metamodel::Mixins" xlink:title="Metamodel::Mixins">
<ellipse fill="none" stroke="#6666ff" cx="183.58" cy="-969.21" rx="94.78" ry="18"/>
<text text-anchor="middle" x="183.58" y="-965.51" font-family="FreeSans" font-size="14.00" fill="#6666ff">Metamodel::Mixins</text>
</a>
</g>
</g>
<!-- Metamodel::BoolificationProtocol -->
<g id="node22" class="node">
<title>Metamodel::BoolificationProtocol</title>
<g id="a_node22"><a xlink:href="/type/Metamodel::BoolificationProtocol" xlink:title="Metamodel::BoolificationProtocol">
<ellipse fill="none" stroke="#6666ff" cx="157.29" cy="-764.85" rx="157.07" ry="18"/>
<text text-anchor="middle" x="157.29" y="-761.15" font-family="FreeSans" font-size="14.00" fill="#6666ff">Metamodel::BoolificationProtocol</text>
</a>
</g>
</g>
<!-- Metamodel::ClassHOW -->
<g id="node23" class="node">
<title>Metamodel::ClassHOW</title>
<g id="a_node23"><a xlink:href="/type/Metamodel::ClassHOW" xlink:title="Metamodel::ClassHOW">
<ellipse fill="none" stroke="#000000" cx="771.43" cy="-887.5" rx="113.18" ry="18"/>
<text text-anchor="middle" x="771.43" y="-883.8" font-family="FreeSans" font-size="14.00" fill="#000000">Metamodel::ClassHOW</text>
</a>
</g>
</g>
<!-- Metamodel::ClassHOW&#45;&gt;Metamodel::C3MRO -->
<g id="edge24" class="edge">
<title>Metamodel::ClassHOW&#45;&gt;Metamodel::C3MRO</title>
<path fill="none" stroke="#6666ff" d="M771.83,-869.34C773.16,-808.03 777.51,-608.38 779.14,-533.95"/>
<polygon fill="#6666ff" stroke="#6666ff" points="782.64,-533.98 779.36,-523.91 775.64,-533.83 782.64,-533.98"/>
</g>
<!-- Metamodel::ClassHOW&#45;&gt;Any -->
<g id="edge3" class="edge">
<title>Metamodel::ClassHOW&#45;&gt;Any</title>
<path fill="none" stroke="#000000" d="M787.45,-869.43C857.48,-790.4 1136.84,-475.15 1215.79,-386.05"/>
<polygon fill="#000000" stroke="#000000" points="1218.57,-388.19 1222.59,-378.38 1213.34,-383.55 1218.57,-388.19"/>
</g>
<!-- Metamodel::ClassHOW&#45;&gt;Metamodel::Naming -->
<g id="edge12" class="edge">
<title>Metamodel::ClassHOW&#45;&gt;Metamodel::Naming</title>
<path fill="none" stroke="#6666ff" d="M800.41,-870.07C858.08,-835.36 987.17,-757.68 1051.12,-719.19"/>
<polygon fill="#6666ff" stroke="#6666ff" points="1052.93,-722.18 1059.7,-714.03 1049.32,-716.19 1052.93,-722.18"/>
</g>
<!-- Metamodel::ClassHOW&#45;&gt;Metamodel::Documenting -->
<g id="edge13" class="edge">
<title>Metamodel::ClassHOW&#45;&gt;Metamodel::Documenting</title>
<path fill="none" stroke="#6666ff" d="M781.6,-869.4C820.17,-800.75 957.57,-556.17 1003.77,-473.91"/>
<polygon fill="#6666ff" stroke="#6666ff" points="1007.1,-475.14 1008.94,-464.71 1000.99,-471.71 1007.1,-475.14"/>
</g>
<!-- Metamodel::ClassHOW&#45;&gt;Metamodel::Versioning -->
<g id="edge14" class="edge">
<title>Metamodel::ClassHOW&#45;&gt;Metamodel::Versioning</title>
<path fill="none" stroke="#6666ff" d="M753.58,-869.45C705.53,-820.86 573.32,-687.18 517.87,-631.11"/>
<polygon fill="#6666ff" stroke="#6666ff" points="520.09,-628.38 510.57,-623.73 515.11,-633.3 520.09,-628.38"/>
</g>
<!-- Metamodel::ClassHOW&#45;&gt;Metamodel::Stashing -->
<g id="edge15" class="edge">
<title>Metamodel::ClassHOW&#45;&gt;Metamodel::Stashing</title>
<path fill="none" stroke="#6666ff" d="M746.75,-869.88C660.37,-808.21 376.88,-605.8 376.88,-605.8 376.88,-605.8 342.1,-530.44 322.84,-488.69"/>
<polygon fill="#6666ff" stroke="#6666ff" points="326.01,-487.22 318.64,-479.6 319.65,-490.15 326.01,-487.22"/>
</g>
<!-- Metamodel::ClassHOW&#45;&gt;Metamodel::MultipleInheritance -->
<g id="edge22" class="edge">
<title>Metamodel::ClassHOW&#45;&gt;Metamodel::MultipleInheritance</title>
<path fill="none" stroke="#6666ff" d="M809.08,-870.42C912.18,-823.63 1191.48,-696.89 1191.48,-696.89 1191.48,-696.89 1225.34,-654.85 1248.52,-626.06"/>
<polygon fill="#6666ff" stroke="#6666ff" points="1251.49,-627.96 1255.03,-617.98 1246.03,-623.57 1251.49,-627.96"/>
</g>
<!-- Metamodel::ClassHOW&#45;&gt;Metamodel::MROBasedMethodDispatch -->
<g id="edge25" class="edge">
<title>Metamodel::ClassHOW&#45;&gt;Metamodel::MROBasedMethodDispatch</title>
<path fill="none" stroke="#6666ff" d="M761.01,-869.46C725.13,-807.29 608.86,-605.86 608.86,-605.86 608.86,-605.86 436.54,-401.95 374.49,-328.52"/>
<polygon fill="#6666ff" stroke="#6666ff" points="376.95,-326.01 367.83,-320.63 371.61,-330.53 376.95,-326.01"/>
</g>
<!-- Metamodel::ClassHOW&#45;&gt;Metamodel::MROBasedTypeChecking -->
<g id="edge26" class="edge">
<title>Metamodel::ClassHOW&#45;&gt;Metamodel::MROBasedTypeChecking</title>
<path fill="none" stroke="#6666ff" d="M766.99,-869.33C748.44,-793.42 678.07,-505.49 678.07,-505.49 678.07,-505.49 707.74,-378.17 721.25,-320.17"/>
<polygon fill="#6666ff" stroke="#6666ff" points="724.71,-320.73 723.58,-310.2 717.9,-319.14 724.71,-320.73"/>
</g>
<!-- Metamodel::ClassHOW&#45;&gt;Metamodel::AttributeContainer -->
<g id="edge16" class="edge">
<title>Metamodel::ClassHOW&#45;&gt;Metamodel::AttributeContainer</title>
<path fill="none" stroke="#6666ff" d="M736.5,-904.83C650.83,-947.31 430.42,-1056.6 335.56,-1103.64"/>
<polygon fill="#6666ff" stroke="#6666ff" points="333.91,-1100.54 326.51,-1108.12 337.02,-1106.82 333.91,-1100.54"/>
</g>
<!-- Metamodel::ClassHOW&#45;&gt;Metamodel::Finalization -->
<g id="edge17" class="edge">
<title>Metamodel::ClassHOW&#45;&gt;Metamodel::Finalization</title>
<path fill="none" stroke="#6666ff" d="M791.59,-905.36C859.26,-965.3 1078.38,-1159.37 1156.05,-1228.17"/>
<polygon fill="#6666ff" stroke="#6666ff" points="1153.73,-1230.79 1163.54,-1234.8 1158.37,-1225.55 1153.73,-1230.79"/>
</g>
<!-- Metamodel::ClassHOW&#45;&gt;Metamodel::MethodContainer -->
<g id="edge18" class="edge">
<title>Metamodel::ClassHOW&#45;&gt;Metamodel::MethodContainer</title>
<path fill="none" stroke="#6666ff" d="M781.84,-905.54C831.9,-992.32 1045.47,-1362.54 1045.47,-1362.54 1045.47,-1362.54 1049.83,-1374.82 1054.34,-1387.53"/>
<polygon fill="#6666ff" stroke="#6666ff" points="1051.11,-1388.88 1057.75,-1397.13 1057.71,-1386.54 1051.11,-1388.88"/>
</g>
<!-- Metamodel::ClassHOW&#45;&gt;Metamodel::PrivateMethodContainer -->
<g id="edge19" class="edge">
<title>Metamodel::ClassHOW&#45;&gt;Metamodel::PrivateMethodContainer</title>
<path fill="none" stroke="#6666ff" d="M775.14,-905.54C789.98,-977.76 845.19,-1246.36 863.27,-1334.34"/>
<polygon fill="#6666ff" stroke="#6666ff" points="859.89,-1335.28 865.33,-1344.37 866.74,-1333.87 859.89,-1335.28"/>
</g>
<!-- Metamodel::ClassHOW&#45;&gt;Metamodel::MultiMethodContainer -->
<g id="edge20" class="edge">
<title>Metamodel::ClassHOW&#45;&gt;Metamodel::MultiMethodContainer</title>
<path fill="none" stroke="#6666ff" d="M874.05,-895.19C974.02,-902.67 1126.99,-914.13 1239.81,-922.58"/>
<polygon fill="#6666ff" stroke="#6666ff" points="1239.68,-926.08 1249.92,-923.34 1240.21,-919.1 1239.68,-926.08"/>
</g>
<!-- Metamodel::ClassHOW&#45;&gt;Metamodel::RoleContainer -->
<g id="edge21" class="edge">
<title>Metamodel::ClassHOW&#45;&gt;Metamodel::RoleContainer</title>
<path fill="none" stroke="#6666ff" d="M810.82,-904.46C908.57,-946.55 1162.08,-1055.69 1269.69,-1102.02"/>
<polygon fill="#6666ff" stroke="#6666ff" points="1268.46,-1105.3 1279.03,-1106.04 1271.23,-1098.88 1268.46,-1105.3"/>
</g>
<!-- Metamodel::ClassHOW&#45;&gt;Metamodel::DefaultParent -->
<g id="edge23" class="edge">
<title>Metamodel::ClassHOW&#45;&gt;Metamodel::DefaultParent</title>
<path fill="none" stroke="#6666ff" d="M763.14,-905.54C732.76,-971.59 627.46,-1200.56 590.99,-1279.87"/>
<polygon fill="#6666ff" stroke="#6666ff" points="587.7,-1278.66 586.7,-1289.21 594.06,-1281.58 587.7,-1278.66"/>
</g>
<!-- Metamodel::ClassHOW&#45;&gt;Metamodel::Trusting -->
<g id="edge27" class="edge">
<title>Metamodel::ClassHOW&#45;&gt;Metamodel::Trusting</title>
<path fill="none" stroke="#6666ff" d="M753.7,-905.43C685.91,-973.96 442.98,-1219.54 364.38,-1298.99"/>
<polygon fill="#6666ff" stroke="#6666ff" points="361.84,-1296.58 357.3,-1306.15 366.82,-1301.5 361.84,-1296.58"/>
</g>
<!-- Metamodel::ClassHOW&#45;&gt;Metamodel::BUILDPLAN -->
<g id="edge28" class="edge">
<title>Metamodel::ClassHOW&#45;&gt;Metamodel::BUILDPLAN</title>
<path fill="none" stroke="#6666ff" d="M768.71,-905.54C756.58,-985.89 708.07,-1307.27 708.07,-1307.27 708.07,-1307.27 692.61,-1362.32 692.61,-1362.32 692.61,-1362.32 691.66,-1421.94 691.07,-1458.72"/>
<polygon fill="#6666ff" stroke="#6666ff" points="687.57,-1458.81 690.91,-1468.86 694.57,-1458.92 687.57,-1458.81"/>
</g>
<!-- Metamodel::ClassHOW&#45;&gt;Metamodel::Mixins -->
<g id="edge29" class="edge">
<title>Metamodel::ClassHOW&#45;&gt;Metamodel::Mixins</title>
<path fill="none" stroke="#6666ff" d="M685.95,-899.38C574.94,-914.81 382.2,-941.61 270.49,-957.13"/>
<polygon fill="#6666ff" stroke="#6666ff" points="269.69,-953.71 260.27,-958.55 270.66,-960.64 269.69,-953.71"/>
</g>
<!-- Metamodel::ClassHOW&#45;&gt;Metamodel::BoolificationProtocol -->
<g id="edge30" class="edge">
<title>Metamodel::ClassHOW&#45;&gt;Metamodel::BoolificationProtocol</title>
<path fill="none" stroke="#6666ff" d="M700.68,-873.37C588.09,-850.89 368.36,-807 245.61,-782.49"/>
<polygon fill="#6666ff" stroke="#6666ff" points="245.99,-779 235.5,-780.47 244.62,-785.86 245.99,-779"/>
</g>
</g>
</svg>
