<?xml version="1.0" encoding="UTF-8" standalone="no"?>
<!DOCTYPE svg PUBLIC "-//W3C//DTD SVG 1.1//EN"
 "http://www.w3.org/Graphics/SVG/1.1/DTD/svg11.dtd">
<!-- Generated by graphviz version 2.42.3 (0)
 -->
<!-- Title: perl6&#45;type&#45;graph Pages: 1 -->
<svg width="579pt" height="317pt"
 viewBox="0.00 0.00 578.57 317.14" xmlns="http://www.w3.org/2000/svg" xmlns:xlink="http://www.w3.org/1999/xlink">
<g id="graph0" class="graph" transform="scale(1 1) rotate(0) translate(4 313.14)">
<title>perl6&#45;type&#45;graph</title>
<polygon fill="white" stroke="transparent" points="-4,4 -4,-313.14 574.57,-313.14 574.57,4 -4,4"/>
<!-- X::Comp::AdHoc -->
<g id="node1" class="node">
<title>X::Comp::AdHoc</title>
<g id="a_node1"><a xlink:href="/type/X::Comp::AdHoc" xlink:title="X::Comp::AdHoc">
<ellipse fill="none" stroke="#000000" cx="84.49" cy="-147.83" rx="84.49" ry="18"/>
<text text-anchor="middle" x="84.49" y="-144.13" font-family="FreeSans" font-size="14.00" fill="#000000">X::Comp::AdHoc</text>
</a>
</g>
</g>
<!-- Exception -->
<g id="node4" class="node">
<title>Exception</title>
<g id="a_node4"><a xlink:href="/type/Exception" xlink:title="Exception">
<ellipse fill="none" stroke="#000000" cx="232.24" cy="-164.38" rx="55.49" ry="18"/>
<text text-anchor="middle" x="232.24" y="-160.68" font-family="FreeSans" font-size="14.00" fill="#000000">Exception</text>
</a>
</g>
</g>
<!-- X::Comp::AdHoc&#45;&gt;Exception -->
<g id="edge2" class="edge">
<title>X::Comp::AdHoc&#45;&gt;Exception</title>
<path fill="none" stroke="#000000" d="M159.67,-156.25C163.09,-156.63 166.51,-157.02 169.89,-157.4"/>
<polygon fill="#000000" stroke="#000000" points="169.59,-160.88 179.92,-158.52 170.37,-153.93 169.59,-160.88"/>
</g>
<!-- X::AdHoc -->
<g id="node5" class="node">
<title>X::AdHoc</title>
<g id="a_node5"><a xlink:href="/type/X::AdHoc" xlink:title="X::AdHoc">
<ellipse fill="none" stroke="#000000" cx="159.82" cy="-18" rx="51.99" ry="18"/>
<text text-anchor="middle" x="159.82" y="-14.3" font-family="FreeSans" font-size="14.00" fill="#000000">X::AdHoc</text>
</a>
</g>
</g>
<!-- X::Comp::AdHoc&#45;&gt;X::AdHoc -->
<g id="edge1" class="edge">
<title>X::Comp::AdHoc&#45;&gt;X::AdHoc</title>
<path fill="none" stroke="#000000" d="M94.97,-129.78C107.78,-107.69 129.59,-70.09 144.35,-44.67"/>
<polygon fill="#000000" stroke="#000000" points="147.44,-46.31 149.43,-35.9 141.39,-42.79 147.44,-46.31"/>
</g>
<!-- X::Comp -->
<g id="node6" class="node">
<title>X::Comp</title>
<g id="a_node6"><a xlink:href="/type/X::Comp" xlink:title="X::Comp">
<ellipse fill="none" stroke="#6666ff" cx="129.33" cy="-291.14" rx="49.29" ry="18"/>
<text text-anchor="middle" x="129.33" y="-287.44" font-family="FreeSans" font-size="14.00" fill="#6666ff">X::Comp</text>
</a>
</g>
</g>
<!-- X::Comp::AdHoc&#45;&gt;X::Comp -->
<g id="edge7" class="edge">
<title>X::Comp::AdHoc&#45;&gt;X::Comp</title>
<path fill="none" stroke="#6666ff" d="M90.17,-165.98C97.85,-190.53 111.63,-234.55 120.62,-263.3"/>
<polygon fill="#6666ff" stroke="#6666ff" points="117.37,-264.64 123.7,-273.14 124.05,-262.55 117.37,-264.64"/>
</g>
<!-- Mu -->
<g id="node2" class="node">
<title>Mu</title>
<g id="a_node2"><a xlink:href="/type/Mu" xlink:title="Mu">
<ellipse fill="none" stroke="#000000" cx="543.57" cy="-190.76" rx="27" ry="18"/>
<text text-anchor="middle" x="543.57" y="-187.06" font-family="FreeSans" font-size="14.00" fill="#000000">Mu</text>
</a>
</g>
</g>
<!-- Any -->
<g id="node3" class="node">
<title>Any</title>
<g id="a_node3"><a xlink:href="/type/Any" xlink:title="Any">
<ellipse fill="none" stroke="#000000" cx="390.62" cy="-183.08" rx="28.7" ry="18"/>
<text text-anchor="middle" x="390.62" y="-179.38" font-family="FreeSans" font-size="14.00" fill="#000000">Any</text>
</a>
</g>
</g>
<!-- Any&#45;&gt;Mu -->
<g id="edge3" class="edge">
<title>Any&#45;&gt;Mu</title>
<path fill="none" stroke="#000000" d="M419.39,-184.52C443.99,-185.76 479.55,-187.54 506.32,-188.89"/>
<polygon fill="#000000" stroke="#000000" points="506.31,-192.39 516.47,-189.4 506.66,-185.4 506.31,-192.39"/>
</g>
<!-- Exception&#45;&gt;Any -->
<g id="edge4" class="edge">
<title>Exception&#45;&gt;Any</title>
<path fill="none" stroke="#000000" d="M284.54,-170.55C306.64,-173.16 331.9,-176.15 352.23,-178.55"/>
<polygon fill="#000000" stroke="#000000" points="352.03,-182.05 362.37,-179.74 352.85,-175.09 352.03,-182.05"/>
</g>
<!-- X::AdHoc&#45;&gt;Exception -->
<g id="edge5" class="edge">
<title>X::AdHoc&#45;&gt;Exception</title>
<path fill="none" stroke="#000000" d="M168.7,-35.95C181.19,-61.19 204.04,-107.39 218.67,-136.95"/>
<polygon fill="#000000" stroke="#000000" points="215.72,-138.87 223.29,-146.28 221.99,-135.77 215.72,-138.87"/>
</g>
<!-- X::Comp&#45;&gt;Exception -->
<g id="edge6" class="edge">
<title>X::Comp&#45;&gt;Exception</title>
<path fill="none" stroke="#000000" d="M143.42,-273.78C161.03,-252.09 191.3,-214.81 211.54,-189.88"/>
<polygon fill="#000000" stroke="#000000" points="214.4,-191.9 217.99,-181.93 208.97,-187.49 214.4,-191.9"/>
</g>
</g>
</svg>
