<?xml version="1.0" encoding="UTF-8" standalone="no"?>
<!DOCTYPE svg PUBLIC "-//W3C//DTD SVG 1.1//EN"
 "http://www.w3.org/Graphics/SVG/1.1/DTD/svg11.dtd">
<!-- Generated by graphviz version 2.42.3 (0)
 -->
<!-- Title: perl6&#45;type&#45;graph Pages: 1 -->
<svg width="283pt" height="332pt"
 viewBox="0.00 0.00 283.29 332.00" xmlns="http://www.w3.org/2000/svg" xmlns:xlink="http://www.w3.org/1999/xlink">
<g id="graph0" class="graph" transform="scale(1 1) rotate(0) translate(4 328)">
<title>perl6&#45;type&#45;graph</title>
<polygon fill="white" stroke="transparent" points="-4,4 -4,-328 279.29,-328 279.29,4 -4,4"/>
<!-- NumStr -->
<g id="node1" class="node">
<title>NumStr</title>
<g id="a_node1"><a xlink:href="/type/NumStr" xlink:title="NumStr">
<ellipse fill="none" stroke="#000000" cx="138.75" cy="-18" rx="45.49" ry="18"/>
<text text-anchor="middle" x="138.75" y="-14.3" font-family="FreeSans" font-size="14.00" fill="#000000">NumStr</text>
</a>
</g>
</g>
<!-- Num -->
<g id="node7" class="node">
<title>Num</title>
<g id="a_node7"><a xlink:href="/type/Num" xlink:title="Num">
<ellipse fill="none" stroke="#000000" cx="100.75" cy="-90" rx="32.49" ry="18"/>
<text text-anchor="middle" x="100.75" y="-86.3" font-family="FreeSans" font-size="14.00" fill="#000000">Num</text>
</a>
</g>
</g>
<!-- NumStr&#45;&gt;Num -->
<g id="edge1" class="edge">
<title>NumStr&#45;&gt;Num</title>
<path fill="none" stroke="#000000" d="M129.55,-35.95C125.11,-44.11 119.7,-54.09 114.76,-63.18"/>
<polygon fill="#000000" stroke="#000000" points="111.55,-61.75 109.86,-72.21 117.71,-65.09 111.55,-61.75"/>
</g>
<!-- Str -->
<g id="node9" class="node">
<title>Str</title>
<g id="a_node9"><a xlink:href="/type/Str" xlink:title="Str">
<ellipse fill="none" stroke="#000000" cx="177.75" cy="-90" rx="27" ry="18"/>
<text text-anchor="middle" x="177.75" y="-86.3" font-family="FreeSans" font-size="14.00" fill="#000000">Str</text>
</a>
</g>
</g>
<!-- NumStr&#45;&gt;Str -->
<g id="edge2" class="edge">
<title>NumStr&#45;&gt;Str</title>
<path fill="none" stroke="#000000" d="M148.19,-35.95C152.85,-44.32 158.58,-54.6 163.74,-63.87"/>
<polygon fill="#000000" stroke="#000000" points="160.74,-65.66 168.66,-72.69 166.85,-62.25 160.74,-65.66"/>
</g>
<!-- Mu -->
<g id="node2" class="node">
<title>Mu</title>
<g id="a_node2"><a xlink:href="/type/Mu" xlink:title="Mu">
<ellipse fill="none" stroke="#000000" cx="143.75" cy="-306" rx="27" ry="18"/>
<text text-anchor="middle" x="143.75" y="-302.3" font-family="FreeSans" font-size="14.00" fill="#000000">Mu</text>
</a>
</g>
</g>
<!-- Any -->
<g id="node3" class="node">
<title>Any</title>
<g id="a_node3"><a xlink:href="/type/Any" xlink:title="Any">
<ellipse fill="none" stroke="#000000" cx="143.75" cy="-234" rx="28.7" ry="18"/>
<text text-anchor="middle" x="143.75" y="-230.3" font-family="FreeSans" font-size="14.00" fill="#000000">Any</text>
</a>
</g>
</g>
<!-- Any&#45;&gt;Mu -->
<g id="edge3" class="edge">
<title>Any&#45;&gt;Mu</title>
<path fill="none" stroke="#000000" d="M143.75,-252.3C143.75,-260.02 143.75,-269.29 143.75,-277.89"/>
<polygon fill="#000000" stroke="#000000" points="140.25,-277.9 143.75,-287.9 147.25,-277.9 140.25,-277.9"/>
</g>
<!-- Cool -->
<g id="node4" class="node">
<title>Cool</title>
<g id="a_node4"><a xlink:href="/type/Cool" xlink:title="Cool">
<ellipse fill="none" stroke="#000000" cx="139.75" cy="-162" rx="30.59" ry="18"/>
<text text-anchor="middle" x="139.75" y="-158.3" font-family="FreeSans" font-size="14.00" fill="#000000">Cool</text>
</a>
</g>
</g>
<!-- Cool&#45;&gt;Any -->
<g id="edge4" class="edge">
<title>Cool&#45;&gt;Any</title>
<path fill="none" stroke="#000000" d="M140.73,-180.3C141.18,-188.02 141.7,-197.29 142.2,-205.89"/>
<polygon fill="#000000" stroke="#000000" points="138.7,-206.11 142.77,-215.9 145.69,-205.71 138.7,-206.11"/>
</g>
<!-- Numeric -->
<g id="node5" class="node">
<title>Numeric</title>
<g id="a_node5"><a xlink:href="/type/Numeric" xlink:title="Numeric">
<ellipse fill="none" stroke="#6666ff" cx="48.75" cy="-234" rx="48.99" ry="18"/>
<text text-anchor="middle" x="48.75" y="-230.3" font-family="FreeSans" font-size="14.00" fill="#6666ff">Numeric</text>
</a>
</g>
</g>
<!-- Real -->
<g id="node6" class="node">
<title>Real</title>
<g id="a_node6"><a xlink:href="/type/Real" xlink:title="Real">
<ellipse fill="none" stroke="#6666ff" cx="56.75" cy="-162" rx="30.59" ry="18"/>
<text text-anchor="middle" x="56.75" y="-158.3" font-family="FreeSans" font-size="14.00" fill="#6666ff">Real</text>
</a>
</g>
</g>
<!-- Real&#45;&gt;Numeric -->
<g id="edge7" class="edge">
<title>Real&#45;&gt;Numeric</title>
<path fill="none" stroke="#6666ff" d="M54.77,-180.3C53.89,-188.02 52.83,-197.29 51.84,-205.89"/>
<polygon fill="#6666ff" stroke="#6666ff" points="48.36,-205.56 50.7,-215.9 55.31,-206.36 48.36,-205.56"/>
</g>
<!-- Num&#45;&gt;Cool -->
<g id="edge5" class="edge">
<title>Num&#45;&gt;Cool</title>
<path fill="none" stroke="#000000" d="M109.99,-107.59C114.65,-115.96 120.41,-126.29 125.61,-135.63"/>
<polygon fill="#000000" stroke="#000000" points="122.64,-137.5 130.57,-144.53 128.76,-134.09 122.64,-137.5"/>
</g>
<!-- Num&#45;&gt;Real -->
<g id="edge8" class="edge">
<title>Num&#45;&gt;Real</title>
<path fill="none" stroke="#6666ff" d="M90.54,-107.24C85.15,-115.81 78.43,-126.51 72.4,-136.1"/>
<polygon fill="#6666ff" stroke="#6666ff" points="69.25,-134.52 66.9,-144.85 75.18,-138.25 69.25,-134.52"/>
</g>
<!-- Stringy -->
<g id="node8" class="node">
<title>Stringy</title>
<g id="a_node8"><a xlink:href="/type/Stringy" xlink:title="Stringy">
<ellipse fill="none" stroke="#6666ff" cx="231.75" cy="-162" rx="43.59" ry="18"/>
<text text-anchor="middle" x="231.75" y="-158.3" font-family="FreeSans" font-size="14.00" fill="#6666ff">Stringy</text>
</a>
</g>
</g>
<!-- Str&#45;&gt;Cool -->
<g id="edge6" class="edge">
<title>Str&#45;&gt;Cool</title>
<path fill="none" stroke="#000000" d="M168.93,-107.24C164.39,-115.6 158.75,-125.98 153.65,-135.39"/>
<polygon fill="#000000" stroke="#000000" points="150.47,-133.91 148.78,-144.37 156.62,-137.25 150.47,-133.91"/>
</g>
<!-- Str&#45;&gt;Stringy -->
<g id="edge9" class="edge">
<title>Str&#45;&gt;Stringy</title>
<path fill="none" stroke="#6666ff" d="M189.73,-106.54C196.53,-115.35 205.19,-126.57 212.87,-136.54"/>
<polygon fill="#6666ff" stroke="#6666ff" points="210.16,-138.75 219.04,-144.53 215.71,-134.48 210.16,-138.75"/>
</g>
</g>
</svg>
