<?xml version="1.0" encoding="UTF-8" standalone="no"?>
<!DOCTYPE svg PUBLIC "-//W3C//DTD SVG 1.1//EN"
 "http://www.w3.org/Graphics/SVG/1.1/DTD/svg11.dtd">
<!-- Generated by graphviz version 2.42.3 (0)
 -->
<!-- Title: perl6&#45;type&#45;graph Pages: 1 -->
<svg width="260pt" height="332pt"
 viewBox="0.00 0.00 260.18 332.00" xmlns="http://www.w3.org/2000/svg" xmlns:xlink="http://www.w3.org/1999/xlink">
<g id="graph0" class="graph" transform="scale(1 1) rotate(0) translate(4 328)">
<title>perl6&#45;type&#45;graph</title>
<polygon fill="white" stroke="transparent" points="-4,4 -4,-328 256.18,-328 256.18,4 -4,4"/>
<!-- X::Augment::NoSuchType -->
<g id="node1" class="node">
<title>X::Augment::NoSuchType</title>
<g id="a_node1"><a xlink:href="/type/X::Augment::NoSuchType" xlink:title="X::Augment::NoSuchType">
<ellipse fill="none" stroke="#000000" cx="126.09" cy="-18" rx="126.18" ry="18"/>
<text text-anchor="middle" x="126.09" y="-14.3" font-family="FreeSans" font-size="14.00" fill="#000000">X::Augment::NoSuchType</text>
</a>
</g>
</g>
<!-- Exception -->
<g id="node4" class="node">
<title>Exception</title>
<g id="a_node4"><a xlink:href="/type/Exception" xlink:title="Exception">
<ellipse fill="none" stroke="#000000" cx="126.09" cy="-162" rx="55.49" ry="18"/>
<text text-anchor="middle" x="126.09" y="-158.3" font-family="FreeSans" font-size="14.00" fill="#000000">Exception</text>
</a>
</g>
</g>
<!-- X::Augment::NoSuchType&#45;&gt;Exception -->
<g id="edge1" class="edge">
<title>X::Augment::NoSuchType&#45;&gt;Exception</title>
<path fill="none" stroke="#000000" d="M119.97,-36.06C114.42,-51.55 107.09,-72 107.09,-72 107.09,-72 107.09,-108 107.09,-108 107.09,-108 111.83,-121.24 116.58,-134.48"/>
<polygon fill="#000000" stroke="#000000" points="113.3,-135.71 119.97,-143.94 119.89,-133.34 113.3,-135.71"/>
</g>
<!-- X::Comp -->
<g id="node5" class="node">
<title>X::Comp</title>
<g id="a_node5"><a xlink:href="/type/X::Comp" xlink:title="X::Comp">
<ellipse fill="none" stroke="#6666ff" cx="165.09" cy="-90" rx="49.29" ry="18"/>
<text text-anchor="middle" x="165.09" y="-86.3" font-family="FreeSans" font-size="14.00" fill="#6666ff">X::Comp</text>
</a>
</g>
</g>
<!-- X::Augment::NoSuchType&#45;&gt;X::Comp -->
<g id="edge5" class="edge">
<title>X::Augment::NoSuchType&#45;&gt;X::Comp</title>
<path fill="none" stroke="#6666ff" d="M135.73,-36.3C140.22,-44.36 145.65,-54.11 150.61,-63.02"/>
<polygon fill="#6666ff" stroke="#6666ff" points="147.63,-64.86 155.56,-71.9 153.75,-61.46 147.63,-64.86"/>
</g>
<!-- Mu -->
<g id="node2" class="node">
<title>Mu</title>
<g id="a_node2"><a xlink:href="/type/Mu" xlink:title="Mu">
<ellipse fill="none" stroke="#000000" cx="126.09" cy="-306" rx="27" ry="18"/>
<text text-anchor="middle" x="126.09" y="-302.3" font-family="FreeSans" font-size="14.00" fill="#000000">Mu</text>
</a>
</g>
</g>
<!-- Any -->
<g id="node3" class="node">
<title>Any</title>
<g id="a_node3"><a xlink:href="/type/Any" xlink:title="Any">
<ellipse fill="none" stroke="#000000" cx="126.09" cy="-234" rx="28.7" ry="18"/>
<text text-anchor="middle" x="126.09" y="-230.3" font-family="FreeSans" font-size="14.00" fill="#000000">Any</text>
</a>
</g>
</g>
<!-- Any&#45;&gt;Mu -->
<g id="edge2" class="edge">
<title>Any&#45;&gt;Mu</title>
<path fill="none" stroke="#000000" d="M126.09,-252.3C126.09,-260.02 126.09,-269.29 126.09,-277.89"/>
<polygon fill="#000000" stroke="#000000" points="122.59,-277.9 126.09,-287.9 129.59,-277.9 122.59,-277.9"/>
</g>
<!-- Exception&#45;&gt;Any -->
<g id="edge3" class="edge">
<title>Exception&#45;&gt;Any</title>
<path fill="none" stroke="#000000" d="M126.09,-180.3C126.09,-188.02 126.09,-197.29 126.09,-205.89"/>
<polygon fill="#000000" stroke="#000000" points="122.59,-205.9 126.09,-215.9 129.59,-205.9 122.59,-205.9"/>
</g>
<!-- X::Comp&#45;&gt;Exception -->
<g id="edge4" class="edge">
<title>X::Comp&#45;&gt;Exception</title>
<path fill="none" stroke="#000000" d="M155.65,-107.95C151.05,-116.2 145.42,-126.3 140.32,-135.46"/>
<polygon fill="#000000" stroke="#000000" points="137.25,-133.77 135.44,-144.21 143.37,-137.18 137.25,-133.77"/>
</g>
</g>
</svg>
