<?xml version="1.0" encoding="UTF-8" standalone="no"?>
<!DOCTYPE svg PUBLIC "-//W3C//DTD SVG 1.1//EN"
 "http://www.w3.org/Graphics/SVG/1.1/DTD/svg11.dtd">
<!-- Generated by graphviz version 2.42.3 (0)
 -->
<!-- Title: perl6&#45;type&#45;graph Pages: 1 -->
<svg width="207pt" height="404pt"
 viewBox="0.00 0.00 207.39 404.00" xmlns="http://www.w3.org/2000/svg" xmlns:xlink="http://www.w3.org/1999/xlink">
<g id="graph0" class="graph" transform="scale(1 1) rotate(0) translate(4 400)">
<title>perl6&#45;type&#45;graph</title>
<polygon fill="white" stroke="transparent" points="-4,4 -4,-400 203.39,-400 203.39,4 -4,4"/>
<!-- X::IO::Dir -->
<g id="node1" class="node">
<title>X::IO::Dir</title>
<g id="a_node1"><a xlink:href="/type/X::IO::Dir" xlink:title="X::IO::Dir">
<ellipse fill="none" stroke="#000000" cx="52" cy="-18" rx="51.99" ry="18"/>
<text text-anchor="middle" x="52" y="-14.3" font-family="FreeSans" font-size="14.00" fill="#000000">X::IO::Dir</text>
</a>
</g>
</g>
<!-- Exception -->
<g id="node4" class="node">
<title>Exception</title>
<g id="a_node4"><a xlink:href="/type/Exception" xlink:title="Exception">
<ellipse fill="none" stroke="#000000" cx="75" cy="-234" rx="55.49" ry="18"/>
<text text-anchor="middle" x="75" y="-230.3" font-family="FreeSans" font-size="14.00" fill="#000000">Exception</text>
</a>
</g>
</g>
<!-- X::IO::Dir&#45;&gt;Exception -->
<g id="edge1" class="edge">
<title>X::IO::Dir&#45;&gt;Exception</title>
<path fill="none" stroke="#000000" d="M49.96,-36.15C50.41,-73.34 59.64,-161.63 67.47,-206.23"/>
<polygon fill="#000000" stroke="#000000" points="64.03,-206.88 69.32,-216.06 70.91,-205.59 64.03,-206.88"/>
</g>
<!-- X::IO::Dir&#45;&gt;Exception -->
<g id="edge2" class="edge">
<title>X::IO::Dir&#45;&gt;Exception</title>
<path fill="none" stroke="#000000" d="M57.72,-36.15C65.23,-73.17 74.92,-160.82 76.74,-205.61"/>
<polygon fill="#000000" stroke="#000000" points="73.25,-205.87 77.03,-215.77 80.25,-205.67 73.25,-205.87"/>
</g>
<!-- X::IO -->
<g id="node6" class="node">
<title>X::IO</title>
<g id="a_node6"><a xlink:href="/type/X::IO" xlink:title="X::IO">
<ellipse fill="none" stroke="#6666ff" cx="122" cy="-90" rx="33.29" ry="18"/>
<text text-anchor="middle" x="122" y="-86.3" font-family="FreeSans" font-size="14.00" fill="#6666ff">X::IO</text>
</a>
</g>
</g>
<!-- X::IO::Dir&#45;&gt;X::IO -->
<g id="edge7" class="edge">
<title>X::IO::Dir&#45;&gt;X::IO</title>
<path fill="none" stroke="#6666ff" d="M68.23,-35.24C77.59,-44.6 89.49,-56.5 99.72,-66.72"/>
<polygon fill="#6666ff" stroke="#6666ff" points="97.26,-69.21 106.81,-73.81 102.21,-64.27 97.26,-69.21"/>
</g>
<!-- Mu -->
<g id="node2" class="node">
<title>Mu</title>
<g id="a_node2"><a xlink:href="/type/Mu" xlink:title="Mu">
<ellipse fill="none" stroke="#000000" cx="75" cy="-378" rx="27" ry="18"/>
<text text-anchor="middle" x="75" y="-374.3" font-family="FreeSans" font-size="14.00" fill="#000000">Mu</text>
</a>
</g>
</g>
<!-- Any -->
<g id="node3" class="node">
<title>Any</title>
<g id="a_node3"><a xlink:href="/type/Any" xlink:title="Any">
<ellipse fill="none" stroke="#000000" cx="75" cy="-306" rx="28.7" ry="18"/>
<text text-anchor="middle" x="75" y="-302.3" font-family="FreeSans" font-size="14.00" fill="#000000">Any</text>
</a>
</g>
</g>
<!-- Any&#45;&gt;Mu -->
<g id="edge3" class="edge">
<title>Any&#45;&gt;Mu</title>
<path fill="none" stroke="#000000" d="M75,-324.3C75,-332.02 75,-341.29 75,-349.89"/>
<polygon fill="#000000" stroke="#000000" points="71.5,-349.9 75,-359.9 78.5,-349.9 71.5,-349.9"/>
</g>
<!-- Exception&#45;&gt;Any -->
<g id="edge4" class="edge">
<title>Exception&#45;&gt;Any</title>
<path fill="none" stroke="#000000" d="M75,-252.3C75,-260.02 75,-269.29 75,-277.89"/>
<polygon fill="#000000" stroke="#000000" points="71.5,-277.9 75,-287.9 78.5,-277.9 71.5,-277.9"/>
</g>
<!-- X::OS -->
<g id="node5" class="node">
<title>X::OS</title>
<g id="a_node5"><a xlink:href="/type/X::OS" xlink:title="X::OS">
<ellipse fill="none" stroke="#6666ff" cx="163" cy="-162" rx="36.29" ry="18"/>
<text text-anchor="middle" x="163" y="-158.3" font-family="FreeSans" font-size="14.00" fill="#6666ff">X::OS</text>
</a>
</g>
</g>
<!-- X::OS&#45;&gt;Exception -->
<g id="edge5" class="edge">
<title>X::OS&#45;&gt;Exception</title>
<path fill="none" stroke="#000000" d="M144.33,-177.85C132.38,-187.35 116.65,-199.86 103.19,-210.57"/>
<polygon fill="#000000" stroke="#000000" points="100.81,-207.99 95.16,-216.96 105.17,-213.47 100.81,-207.99"/>
</g>
<!-- X::IO&#45;&gt;Exception -->
<g id="edge6" class="edge">
<title>X::IO&#45;&gt;Exception</title>
<path fill="none" stroke="#000000" d="M116.42,-107.85C108.41,-132.06 93.55,-176.95 83.98,-205.87"/>
<polygon fill="#000000" stroke="#000000" points="80.53,-205.14 80.71,-215.73 87.18,-207.34 80.53,-205.14"/>
</g>
<!-- X::IO&#45;&gt;X::OS -->
<g id="edge8" class="edge">
<title>X::IO&#45;&gt;X::OS</title>
<path fill="none" stroke="#6666ff" d="M131.71,-107.59C136.61,-115.96 142.67,-126.29 148.14,-135.63"/>
<polygon fill="#6666ff" stroke="#6666ff" points="145.27,-137.67 153.35,-144.53 151.31,-134.13 145.27,-137.67"/>
</g>
</g>
</svg>
