<?xml version="1.0" encoding="UTF-8" standalone="no"?>
<!DOCTYPE svg PUBLIC "-//W3C//DTD SVG 1.1//EN"
 "http://www.w3.org/Graphics/SVG/1.1/DTD/svg11.dtd">
<!-- Generated by graphviz version 2.42.3 (0)
 -->
<!-- Title: perl6&#45;type&#45;graph Pages: 1 -->
<svg width="1661pt" height="2320pt"
 viewBox="0.00 0.00 1660.53 2320.44" xmlns="http://www.w3.org/2000/svg" xmlns:xlink="http://www.w3.org/1999/xlink">
<g id="graph0" class="graph" transform="scale(1 1) rotate(0) translate(4 2316.44)">
<title>perl6&#45;type&#45;graph</title>
<polygon fill="white" stroke="transparent" points="-4,4 -4,-2316.44 1656.53,-2316.44 1656.53,4 -4,4"/>
<!-- Metamodel::BoolificationProtocol -->
<g id="node1" class="node">
<title>Metamodel::BoolificationProtocol</title>
<g id="a_node1"><a xlink:href="/type/Metamodel::BoolificationProtocol" xlink:title="Metamodel::BoolificationProtocol">
<ellipse fill="none" stroke="#6666ff" cx="702.65" cy="-1290.07" rx="157.07" ry="18"/>
<text text-anchor="middle" x="702.65" y="-1286.37" font-family="FreeSans" font-size="14.00" fill="#6666ff">Metamodel::BoolificationProtocol</text>
</a>
</g>
</g>
<!-- Mu -->
<g id="node2" class="node">
<title>Mu</title>
<g id="a_node2"><a xlink:href="/type/Mu" xlink:title="Mu">
<ellipse fill="none" stroke="#000000" cx="1625.53" cy="-1600.81" rx="27" ry="18"/>
<text text-anchor="middle" x="1625.53" y="-1597.11" font-family="FreeSans" font-size="14.00" fill="#000000">Mu</text>
</a>
</g>
</g>
<!-- Any -->
<g id="node3" class="node">
<title>Any</title>
<g id="a_node3"><a xlink:href="/type/Any" xlink:title="Any">
<ellipse fill="none" stroke="#000000" cx="1120.92" cy="-1317.65" rx="28.7" ry="18"/>
<text text-anchor="middle" x="1120.92" y="-1313.95" font-family="FreeSans" font-size="14.00" fill="#000000">Any</text>
</a>
</g>
</g>
<!-- Any&#45;&gt;Mu -->
<g id="edge1" class="edge">
<title>Any&#45;&gt;Mu</title>
<path fill="none" stroke="#000000" d="M1142.28,-1329.64C1222.17,-1374.47 1503.5,-1532.34 1595.89,-1584.18"/>
<polygon fill="#000000" stroke="#000000" points="1594.29,-1587.3 1604.73,-1589.14 1597.72,-1581.19 1594.29,-1587.3"/>
</g>
<!-- Metamodel::Naming -->
<g id="node4" class="node">
<title>Metamodel::Naming</title>
<g id="a_node4"><a xlink:href="/type/Metamodel::Naming" xlink:title="Metamodel::Naming">
<ellipse fill="none" stroke="#6666ff" cx="969.44" cy="-1287.28" rx="101.28" ry="18"/>
<text text-anchor="middle" x="969.44" y="-1283.58" font-family="FreeSans" font-size="14.00" fill="#6666ff">Metamodel::Naming</text>
</a>
</g>
</g>
<!-- Metamodel::Documenting -->
<g id="node5" class="node">
<title>Metamodel::Documenting</title>
<g id="a_node5"><a xlink:href="/type/Metamodel::Documenting" xlink:title="Metamodel::Documenting">
<ellipse fill="none" stroke="#6666ff" cx="1510.28" cy="-568.82" rx="126.98" ry="18"/>
<text text-anchor="middle" x="1510.28" y="-565.12" font-family="FreeSans" font-size="14.00" fill="#6666ff">Metamodel::Documenting</text>
</a>
</g>
</g>
<!-- Metamodel::Versioning -->
<g id="node6" class="node">
<title>Metamodel::Versioning</title>
<g id="a_node6"><a xlink:href="/type/Metamodel::Versioning" xlink:title="Metamodel::Versioning">
<ellipse fill="none" stroke="#6666ff" cx="183.19" cy="-1096.93" rx="114.28" ry="18"/>
<text text-anchor="middle" x="183.19" y="-1093.23" font-family="FreeSans" font-size="14.00" fill="#6666ff">Metamodel::Versioning</text>
</a>
</g>
</g>
<!-- Metamodel::Stashing -->
<g id="node7" class="node">
<title>Metamodel::Stashing</title>
<g id="a_node7"><a xlink:href="/type/Metamodel::Stashing" xlink:title="Metamodel::Stashing">
<ellipse fill="none" stroke="#6666ff" cx="431.32" cy="-1272.87" rx="105.88" ry="18"/>
<text text-anchor="middle" x="431.32" y="-1269.17" font-family="FreeSans" font-size="14.00" fill="#6666ff">Metamodel::Stashing</text>
</a>
</g>
</g>
<!-- Metamodel::AttributeContainer -->
<g id="node8" class="node">
<title>Metamodel::AttributeContainer</title>
<g id="a_node8"><a xlink:href="/type/Metamodel::AttributeContainer" xlink:title="Metamodel::AttributeContainer">
<ellipse fill="none" stroke="#6666ff" cx="1242.23" cy="-321.74" rx="150.27" ry="18"/>
<text text-anchor="middle" x="1242.23" y="-318.04" font-family="FreeSans" font-size="14.00" fill="#6666ff">Metamodel::AttributeContainer</text>
</a>
</g>
</g>
<!-- Metamodel::Finalization -->
<g id="node9" class="node">
<title>Metamodel::Finalization</title>
<g id="a_node9"><a xlink:href="/type/Metamodel::Finalization" xlink:title="Metamodel::Finalization">
<ellipse fill="none" stroke="#6666ff" cx="195.56" cy="-431.14" rx="116.98" ry="18"/>
<text text-anchor="middle" x="195.56" y="-427.44" font-family="FreeSans" font-size="14.00" fill="#6666ff">Metamodel::Finalization</text>
</a>
</g>
</g>
<!-- Metamodel::MethodContainer -->
<g id="node10" class="node">
<title>Metamodel::MethodContainer</title>
<g id="a_node10"><a xlink:href="/type/Metamodel::MethodContainer" xlink:title="Metamodel::MethodContainer">
<ellipse fill="none" stroke="#6666ff" cx="825.94" cy="-324.18" rx="143.77" ry="18"/>
<text text-anchor="middle" x="825.94" y="-320.48" font-family="FreeSans" font-size="14.00" fill="#6666ff">Metamodel::MethodContainer</text>
</a>
</g>
</g>
<!-- Metamodel::PrivateMethodContainer -->
<g id="node11" class="node">
<title>Metamodel::PrivateMethodContainer</title>
<g id="a_node11"><a xlink:href="/type/Metamodel::PrivateMethodContainer" xlink:title="Metamodel::PrivateMethodContainer">
<ellipse fill="none" stroke="#6666ff" cx="442.72" cy="-203.89" rx="174.67" ry="18"/>
<text text-anchor="middle" x="442.72" y="-200.19" font-family="FreeSans" font-size="14.00" fill="#6666ff">Metamodel::PrivateMethodContainer</text>
</a>
</g>
</g>
<!-- Metamodel::MultiMethodContainer -->
<g id="node12" class="node">
<title>Metamodel::MultiMethodContainer</title>
<g id="a_node12"><a xlink:href="/type/Metamodel::MultiMethodContainer" xlink:title="Metamodel::MultiMethodContainer">
<ellipse fill="none" stroke="#6666ff" cx="501.42" cy="-463.42" rx="165.97" ry="18"/>
<text text-anchor="middle" x="501.42" y="-459.72" font-family="FreeSans" font-size="14.00" fill="#6666ff">Metamodel::MultiMethodContainer</text>
</a>
</g>
</g>
<!-- Metamodel::RoleContainer -->
<g id="node13" class="node">
<title>Metamodel::RoleContainer</title>
<g id="a_node13"><a xlink:href="/type/Metamodel::RoleContainer" xlink:title="Metamodel::RoleContainer">
<ellipse fill="none" stroke="#6666ff" cx="1251.88" cy="-514.38" rx="129.98" ry="18"/>
<text text-anchor="middle" x="1251.88" y="-510.68" font-family="FreeSans" font-size="14.00" fill="#6666ff">Metamodel::RoleContainer</text>
</a>
</g>
</g>
<!-- Metamodel::MultipleInheritance -->
<g id="node14" class="node">
<title>Metamodel::MultipleInheritance</title>
<g id="a_node14"><a xlink:href="/type/Metamodel::MultipleInheritance" xlink:title="Metamodel::MultipleInheritance">
<ellipse fill="none" stroke="#6666ff" cx="1478.23" cy="-925.19" rx="153.27" ry="18"/>
<text text-anchor="middle" x="1478.23" y="-921.49" font-family="FreeSans" font-size="14.00" fill="#6666ff">Metamodel::MultipleInheritance</text>
</a>
</g>
</g>
<!-- Metamodel::DefaultParent -->
<g id="node15" class="node">
<title>Metamodel::DefaultParent</title>
<g id="a_node15"><a xlink:href="/type/Metamodel::DefaultParent" xlink:title="Metamodel::DefaultParent">
<ellipse fill="none" stroke="#6666ff" cx="1296.54" cy="-1105.96" rx="128.08" ry="18"/>
<text text-anchor="middle" x="1296.54" y="-1102.26" font-family="FreeSans" font-size="14.00" fill="#6666ff">Metamodel::DefaultParent</text>
</a>
</g>
</g>
<!-- Metamodel::C3MRO -->
<g id="node16" class="node">
<title>Metamodel::C3MRO</title>
<g id="a_node16"><a xlink:href="/type/Metamodel::C3MRO" xlink:title="Metamodel::C3MRO">
<ellipse fill="none" stroke="#6666ff" cx="860.83" cy="-60.9" rx="100.18" ry="18"/>
<text text-anchor="middle" x="860.83" y="-57.2" font-family="FreeSans" font-size="14.00" fill="#6666ff">Metamodel::C3MRO</text>
</a>
</g>
</g>
<!-- Metamodel::MROBasedMethodDispatch -->
<g id="node17" class="node">
<title>Metamodel::MROBasedMethodDispatch</title>
<g id="a_node17"><a xlink:href="/type/Metamodel::MROBasedMethodDispatch" xlink:title="Metamodel::MROBasedMethodDispatch">
<ellipse fill="none" stroke="#6666ff" cx="1064.52" cy="-255.5" rx="188.47" ry="18"/>
<text text-anchor="middle" x="1064.52" y="-251.8" font-family="FreeSans" font-size="14.00" fill="#6666ff">Metamodel::MROBasedMethodDispatch</text>
</a>
</g>
</g>
<!-- Metamodel::MROBasedTypeChecking -->
<g id="node18" class="node">
<title>Metamodel::MROBasedTypeChecking</title>
<g id="a_node18"><a xlink:href="/type/Metamodel::MROBasedTypeChecking" xlink:title="Metamodel::MROBasedTypeChecking">
<ellipse fill="none" stroke="#6666ff" cx="354.9" cy="-693.21" rx="178.97" ry="18"/>
<text text-anchor="middle" x="354.9" y="-689.51" font-family="FreeSans" font-size="14.00" fill="#6666ff">Metamodel::MROBasedTypeChecking</text>
</a>
</g>
</g>
<!-- Metamodel::Trusting -->
<g id="node19" class="node">
<title>Metamodel::Trusting</title>
<g id="a_node19"><a xlink:href="/type/Metamodel::Trusting" xlink:title="Metamodel::Trusting">
<ellipse fill="none" stroke="#6666ff" cx="102.69" cy="-776.02" rx="102.88" ry="18"/>
<text text-anchor="middle" x="102.69" y="-772.32" font-family="FreeSans" font-size="14.00" fill="#6666ff">Metamodel::Trusting</text>
</a>
</g>
</g>
<!-- Metamodel::BUILDPLAN -->
<g id="node20" class="node">
<title>Metamodel::BUILDPLAN</title>
<g id="a_node20"><a xlink:href="/type/Metamodel::BUILDPLAN" xlink:title="Metamodel::BUILDPLAN">
<ellipse fill="none" stroke="#6666ff" cx="399.89" cy="-947.1" rx="118.08" ry="18"/>
<text text-anchor="middle" x="399.89" y="-943.4" font-family="FreeSans" font-size="14.00" fill="#6666ff">Metamodel::BUILDPLAN</text>
</a>
</g>
</g>
<!-- Metamodel::Mixins -->
<g id="node21" class="node">
<title>Metamodel::Mixins</title>
<g id="a_node21"><a xlink:href="/type/Metamodel::Mixins" xlink:title="Metamodel::Mixins">
<ellipse fill="none" stroke="#6666ff" cx="1278.82" cy="-767.21" rx="94.78" ry="18"/>
<text text-anchor="middle" x="1278.82" y="-763.51" font-family="FreeSans" font-size="14.00" fill="#6666ff">Metamodel::Mixins</text>
</a>
</g>
</g>
<!-- Metamodel::ClassHOW -->
<g id="node22" class="node">
<title>Metamodel::ClassHOW</title>
<g id="a_node22"><a xlink:href="/type/Metamodel::ClassHOW" xlink:title="Metamodel::ClassHOW">
<ellipse fill="none" stroke="#000000" cx="794.24" cy="-749.17" rx="113.18" ry="18"/>
<text text-anchor="middle" x="794.24" y="-745.47" font-family="FreeSans" font-size="14.00" fill="#000000">Metamodel::ClassHOW</text>
</a>
</g>
</g>
<!-- Metamodel::ClassHOW&#45;&gt;Metamodel::BoolificationProtocol -->
<g id="edge23" class="edge">
<title>Metamodel::ClassHOW&#45;&gt;Metamodel::BoolificationProtocol</title>
<path fill="none" stroke="#6666ff" d="M782.41,-767.3C774.51,-779.41 765.57,-793.12 765.57,-793.12 765.57,-793.12 719.63,-1156 706.26,-1261.58"/>
<polygon fill="#6666ff" stroke="#6666ff" points="702.75,-1261.44 704.97,-1271.8 709.7,-1262.32 702.75,-1261.44"/>
</g>
<!-- Metamodel::ClassHOW&#45;&gt;Any -->
<g id="edge2" class="edge">
<title>Metamodel::ClassHOW&#45;&gt;Any</title>
<path fill="none" stroke="#000000" d="M782.41,-767.3C774.51,-779.41 765.57,-793.12 765.57,-793.12 765.57,-793.12 1033.45,-1188.54 1104.04,-1292.74"/>
<polygon fill="#000000" stroke="#000000" points="1101.2,-1294.77 1109.7,-1301.09 1106.99,-1290.85 1101.2,-1294.77"/>
</g>
<!-- Metamodel::ClassHOW&#45;&gt;Metamodel::Naming -->
<g id="edge5" class="edge">
<title>Metamodel::ClassHOW&#45;&gt;Metamodel::Naming</title>
<path fill="none" stroke="#6666ff" d="M782.41,-767.3C774.51,-779.41 765.57,-793.12 765.57,-793.12 765.57,-793.12 915.04,-1155.42 958.01,-1259.58"/>
<polygon fill="#6666ff" stroke="#6666ff" points="954.89,-1261.19 961.94,-1269.1 961.36,-1258.52 954.89,-1261.19"/>
</g>
<!-- Metamodel::ClassHOW&#45;&gt;Metamodel::Documenting -->
<g id="edge6" class="edge">
<title>Metamodel::ClassHOW&#45;&gt;Metamodel::Documenting</title>
<path fill="none" stroke="#6666ff" d="M854.67,-733.95C985.97,-700.88 1296.78,-622.59 1438.1,-587"/>
<polygon fill="#6666ff" stroke="#6666ff" points="1439.13,-590.35 1447.98,-584.51 1437.42,-583.56 1439.13,-590.35"/>
</g>
<!-- Metamodel::ClassHOW&#45;&gt;Metamodel::Versioning -->
<g id="edge7" class="edge">
<title>Metamodel::ClassHOW&#45;&gt;Metamodel::Versioning</title>
<path fill="none" stroke="#6666ff" d="M769.4,-767.09C701.84,-815.84 519.78,-947.21 519.78,-947.21 519.78,-947.21 323.41,-1034.56 230.65,-1075.82"/>
<polygon fill="#6666ff" stroke="#6666ff" points="229.19,-1072.64 221.47,-1079.9 232.03,-1079.03 229.19,-1072.64"/>
</g>
<!-- Metamodel::ClassHOW&#45;&gt;Metamodel::Stashing -->
<g id="edge8" class="edge">
<title>Metamodel::ClassHOW&#45;&gt;Metamodel::Stashing</title>
<path fill="none" stroke="#6666ff" d="M781.75,-767.2C727.66,-845.26 513.48,-1154.32 449.47,-1246.67"/>
<polygon fill="#6666ff" stroke="#6666ff" points="446.58,-1244.71 443.76,-1254.92 452.33,-1248.69 446.58,-1244.71"/>
</g>
<!-- Metamodel::ClassHOW&#45;&gt;Metamodel::AttributeContainer -->
<g id="edge9" class="edge">
<title>Metamodel::ClassHOW&#45;&gt;Metamodel::AttributeContainer</title>
<path fill="none" stroke="#6666ff" d="M812.92,-731.35C883.51,-664 1134.12,-424.9 1216.08,-346.7"/>
<polygon fill="#6666ff" stroke="#6666ff" points="1218.65,-349.08 1223.47,-339.64 1213.82,-344.01 1218.65,-349.08"/>
</g>
<!-- Metamodel::ClassHOW&#45;&gt;Metamodel::Finalization -->
<g id="edge10" class="edge">
<title>Metamodel::ClassHOW&#45;&gt;Metamodel::Finalization</title>
<path fill="none" stroke="#6666ff" d="M761.63,-731.85C660.17,-677.95 350.15,-513.26 237.25,-453.28"/>
<polygon fill="#6666ff" stroke="#6666ff" points="238.68,-450.08 228.2,-448.48 235.39,-456.26 238.68,-450.08"/>
</g>
<!-- Metamodel::ClassHOW&#45;&gt;Metamodel::MethodContainer -->
<g id="edge11" class="edge">
<title>Metamodel::ClassHOW&#45;&gt;Metamodel::MethodContainer</title>
<path fill="none" stroke="#6666ff" d="M795.6,-730.91C800.57,-664.3 817.75,-434.03 823.8,-352.81"/>
<polygon fill="#6666ff" stroke="#6666ff" points="827.33,-352.61 824.58,-342.38 820.35,-352.09 827.33,-352.61"/>
</g>
<!-- Metamodel::ClassHOW&#45;&gt;Metamodel::PrivateMethodContainer -->
<g id="edge12" class="edge">
<title>Metamodel::ClassHOW&#45;&gt;Metamodel::PrivateMethodContainer</title>
<path fill="none" stroke="#6666ff" d="M786.2,-730.86C758.51,-667.8 668.76,-463.44 668.76,-463.44 668.76,-463.44 522.82,-295.86 465.47,-230.01"/>
<polygon fill="#6666ff" stroke="#6666ff" points="467.82,-227.39 458.61,-222.14 462.54,-231.98 467.82,-227.39"/>
</g>
<!-- Metamodel::ClassHOW&#45;&gt;Metamodel::MultiMethodContainer -->
<g id="edge13" class="edge">
<title>Metamodel::ClassHOW&#45;&gt;Metamodel::MultiMethodContainer</title>
<path fill="none" stroke="#6666ff" d="M775.93,-731.3C725.72,-682.3 585.78,-545.74 527.46,-488.82"/>
<polygon fill="#6666ff" stroke="#6666ff" points="529.71,-486.13 520.11,-481.65 524.82,-491.14 529.71,-486.13"/>
</g>
<!-- Metamodel::ClassHOW&#45;&gt;Metamodel::RoleContainer -->
<g id="edge14" class="edge">
<title>Metamodel::ClassHOW&#45;&gt;Metamodel::RoleContainer</title>
<path fill="none" stroke="#6666ff" d="M827.89,-731.91C909.53,-690.02 1118.04,-583.05 1208.69,-536.53"/>
<polygon fill="#6666ff" stroke="#6666ff" points="1210.57,-539.51 1217.87,-531.83 1207.37,-533.28 1210.57,-539.51"/>
</g>
<!-- Metamodel::ClassHOW&#45;&gt;Metamodel::MultipleInheritance -->
<g id="edge15" class="edge">
<title>Metamodel::ClassHOW&#45;&gt;Metamodel::MultipleInheritance</title>
<path fill="none" stroke="#6666ff" d="M870.33,-762.54C916.28,-770.61 966.01,-779.35 966.01,-779.35 966.01,-779.35 1270.15,-865.95 1409.71,-905.68"/>
<polygon fill="#6666ff" stroke="#6666ff" points="1408.89,-909.09 1419.47,-908.46 1410.81,-902.36 1408.89,-909.09"/>
</g>
<!-- Metamodel::ClassHOW&#45;&gt;Metamodel::DefaultParent -->
<g id="edge16" class="edge">
<title>Metamodel::ClassHOW&#45;&gt;Metamodel::DefaultParent</title>
<path fill="none" stroke="#6666ff" d="M870.33,-762.54C916.28,-770.61 966.01,-779.35 966.01,-779.35 966.01,-779.35 1000.14,-793.23 1000.14,-793.23 1000.14,-793.23 1201.15,-1005.32 1272.1,-1080.18"/>
<polygon fill="#6666ff" stroke="#6666ff" points="1269.9,-1082.95 1279.32,-1087.8 1274.98,-1078.13 1269.9,-1082.95"/>
</g>
<!-- Metamodel::ClassHOW&#45;&gt;Metamodel::C3MRO -->
<g id="edge17" class="edge">
<title>Metamodel::ClassHOW&#45;&gt;Metamodel::C3MRO</title>
<path fill="none" stroke="#6666ff" d="M789.44,-731.18C767.83,-650.27 680.7,-324.08 680.7,-324.08 680.7,-324.08 797.07,-154.06 842.74,-87.33"/>
<polygon fill="#6666ff" stroke="#6666ff" points="845.68,-89.22 848.44,-78.99 839.91,-85.27 845.68,-89.22"/>
</g>
<!-- Metamodel::ClassHOW&#45;&gt;Metamodel::MROBasedMethodDispatch -->
<g id="edge18" class="edge">
<title>Metamodel::ClassHOW&#45;&gt;Metamodel::MROBasedMethodDispatch</title>
<path fill="none" stroke="#6666ff" d="M804.18,-731.02C845.12,-656.24 1000.81,-371.87 1049.72,-282.53"/>
<polygon fill="#6666ff" stroke="#6666ff" points="1052.9,-284.01 1054.63,-273.56 1046.76,-280.65 1052.9,-284.01"/>
</g>
<!-- Metamodel::ClassHOW&#45;&gt;Metamodel::MROBasedTypeChecking -->
<g id="edge19" class="edge">
<title>Metamodel::ClassHOW&#45;&gt;Metamodel::MROBasedTypeChecking</title>
<path fill="none" stroke="#6666ff" d="M705.86,-737.91C639.81,-729.5 548.74,-717.9 475.93,-708.62"/>
<polygon fill="#6666ff" stroke="#6666ff" points="476.14,-705.12 465.78,-707.33 475.26,-712.07 476.14,-705.12"/>
</g>
<!-- Metamodel::ClassHOW&#45;&gt;Metamodel::Trusting -->
<g id="edge20" class="edge">
<title>Metamodel::ClassHOW&#45;&gt;Metamodel::Trusting</title>
<path fill="none" stroke="#6666ff" d="M684.28,-753.44C555.34,-758.45 342.85,-766.7 213.53,-771.72"/>
<polygon fill="#6666ff" stroke="#6666ff" points="213.07,-768.23 203.21,-772.12 213.34,-775.23 213.07,-768.23"/>
</g>
<!-- Metamodel::ClassHOW&#45;&gt;Metamodel::BUILDPLAN -->
<g id="edge21" class="edge">
<title>Metamodel::ClassHOW&#45;&gt;Metamodel::BUILDPLAN</title>
<path fill="none" stroke="#6666ff" d="M759.94,-766.39C688.27,-802.36 522.77,-885.42 443.61,-925.16"/>
<polygon fill="#6666ff" stroke="#6666ff" points="441.77,-922.17 434.4,-929.78 444.91,-928.42 441.77,-922.17"/>
</g>
<!-- Metamodel::ClassHOW&#45;&gt;Metamodel::Mixins -->
<g id="edge22" class="edge">
<title>Metamodel::ClassHOW&#45;&gt;Metamodel::Mixins</title>
<path fill="none" stroke="#6666ff" d="M904.5,-753.28C985.79,-756.3 1095.62,-760.39 1175.27,-763.36"/>
<polygon fill="#6666ff" stroke="#6666ff" points="1175.2,-766.86 1185.32,-763.73 1175.46,-759.86 1175.2,-766.86"/>
</g>
<!-- Metamodel::TypePretense -->
<g id="node23" class="node">
<title>Metamodel::TypePretense</title>
<g id="a_node23"><a xlink:href="/type/Metamodel::TypePretense" xlink:title="Metamodel::TypePretense">
<ellipse fill="none" stroke="#6666ff" cx="393.59" cy="-2232.67" rx="126.18" ry="18"/>
<text text-anchor="middle" x="393.59" y="-2228.97" font-family="FreeSans" font-size="14.00" fill="#6666ff">Metamodel::TypePretense</text>
</a>
</g>
</g>
<!-- Metamodel::RolePunning -->
<g id="node24" class="node">
<title>Metamodel::RolePunning</title>
<g id="a_node24"><a xlink:href="/type/Metamodel::RolePunning" xlink:title="Metamodel::RolePunning">
<ellipse fill="none" stroke="#6666ff" cx="1010.47" cy="-2294.44" rx="122.68" ry="18"/>
<text text-anchor="middle" x="1010.47" y="-2290.74" font-family="FreeSans" font-size="14.00" fill="#6666ff">Metamodel::RolePunning</text>
</a>
</g>
</g>
<!-- Metamodel::ParametricRoleGroupHOW -->
<g id="node25" class="node">
<title>Metamodel::ParametricRoleGroupHOW</title>
<g id="a_node25"><a xlink:href="/type/Metamodel::ParametricRoleGroupHOW" xlink:title="Metamodel::ParametricRoleGroupHOW">
<ellipse fill="none" stroke="#000000" cx="764.89" cy="-1801.94" rx="184.67" ry="18"/>
<text text-anchor="middle" x="764.89" y="-1798.24" font-family="FreeSans" font-size="14.00" fill="#000000">Metamodel::ParametricRoleGroupHOW</text>
</a>
</g>
</g>
<!-- Metamodel::ParametricRoleGroupHOW&#45;&gt;Metamodel::BoolificationProtocol -->
<g id="edge28" class="edge">
<title>Metamodel::ParametricRoleGroupHOW&#45;&gt;Metamodel::BoolificationProtocol</title>
<path fill="none" stroke="#6666ff" d="M762.67,-1783.72C753.36,-1707.15 717.36,-1411.04 706.07,-1318.13"/>
<polygon fill="#6666ff" stroke="#6666ff" points="709.52,-1317.58 704.84,-1308.07 702.58,-1318.42 709.52,-1317.58"/>
</g>
<!-- Metamodel::ParametricRoleGroupHOW&#45;&gt;Any -->
<g id="edge3" class="edge">
<title>Metamodel::ParametricRoleGroupHOW&#45;&gt;Any</title>
<path fill="none" stroke="#000000" d="M778.2,-1783.84C832.87,-1709.46 1040.31,-1427.31 1102.92,-1342.14"/>
<polygon fill="#000000" stroke="#000000" points="1105.75,-1344.21 1108.85,-1334.08 1100.11,-1340.06 1105.75,-1344.21"/>
</g>
<!-- Metamodel::ParametricRoleGroupHOW&#45;&gt;Metamodel::Naming -->
<g id="edge24" class="edge">
<title>Metamodel::ParametricRoleGroupHOW&#45;&gt;Metamodel::Naming</title>
<path fill="none" stroke="#6666ff" d="M772.05,-1783.92C802.51,-1707.27 921.48,-1407.94 958.43,-1314.97"/>
<polygon fill="#6666ff" stroke="#6666ff" points="961.79,-1316 962.23,-1305.41 955.29,-1313.41 961.79,-1316"/>
</g>
<!-- Metamodel::ParametricRoleGroupHOW&#45;&gt;Metamodel::Stashing -->
<g id="edge25" class="edge">
<title>Metamodel::ParametricRoleGroupHOW&#45;&gt;Metamodel::Stashing</title>
<path fill="none" stroke="#6666ff" d="M753.41,-1783.73C703.74,-1704.95 507.23,-1393.27 448.18,-1299.62"/>
<polygon fill="#6666ff" stroke="#6666ff" points="451.05,-1297.6 442.75,-1291.01 445.13,-1301.33 451.05,-1297.6"/>
</g>
<!-- Metamodel::ParametricRoleGroupHOW&#45;&gt;Metamodel::TypePretense -->
<g id="edge26" class="edge">
<title>Metamodel::ParametricRoleGroupHOW&#45;&gt;Metamodel::TypePretense</title>
<path fill="none" stroke="#6666ff" d="M749.41,-1819.9C691.02,-1887.63 484.04,-2127.75 415.68,-2207.04"/>
<polygon fill="#6666ff" stroke="#6666ff" points="413.02,-2204.77 409.14,-2214.63 418.32,-2209.34 413.02,-2204.77"/>
</g>
<!-- Metamodel::ParametricRoleGroupHOW&#45;&gt;Metamodel::RolePunning -->
<g id="edge27" class="edge">
<title>Metamodel::ParametricRoleGroupHOW&#45;&gt;Metamodel::RolePunning</title>
<path fill="none" stroke="#6666ff" d="M773.92,-1820.05C811.08,-1894.57 952.29,-2177.77 996.89,-2267.21"/>
<polygon fill="#6666ff" stroke="#6666ff" points="993.89,-2269.04 1001.48,-2276.43 1000.15,-2265.92 993.89,-2269.04"/>
</g>
<!-- Metamodel::BaseType -->
<g id="node26" class="node">
<title>Metamodel::BaseType</title>
<g id="a_node26"><a xlink:href="/type/Metamodel::BaseType" xlink:title="Metamodel::BaseType">
<ellipse fill="none" stroke="#6666ff" cx="536.08" cy="-18" rx="109.38" ry="18"/>
<text text-anchor="middle" x="536.08" y="-14.3" font-family="FreeSans" font-size="14.00" fill="#6666ff">Metamodel::BaseType</text>
</a>
</g>
</g>
<!-- Metamodel::EnumHOW -->
<g id="node27" class="node">
<title>Metamodel::EnumHOW</title>
<g id="a_node27"><a xlink:href="/type/Metamodel::EnumHOW" xlink:title="Metamodel::EnumHOW">
<ellipse fill="none" stroke="#000000" cx="882.85" cy="-793.18" rx="115.88" ry="18"/>
<text text-anchor="middle" x="882.85" y="-789.48" font-family="FreeSans" font-size="14.00" fill="#000000">Metamodel::EnumHOW</text>
</a>
</g>
</g>
<!-- Metamodel::EnumHOW&#45;&gt;Metamodel::BoolificationProtocol -->
<g id="edge39" class="edge">
<title>Metamodel::EnumHOW&#45;&gt;Metamodel::BoolificationProtocol</title>
<path fill="none" stroke="#6666ff" d="M876.33,-811.15C849.27,-885.79 745.64,-1171.54 712.74,-1262.26"/>
<polygon fill="#6666ff" stroke="#6666ff" points="709.38,-1261.26 709.26,-1271.86 715.96,-1263.65 709.38,-1261.26"/>
</g>
<!-- Metamodel::EnumHOW&#45;&gt;Any -->
<g id="edge4" class="edge">
<title>Metamodel::EnumHOW&#45;&gt;Any</title>
<path fill="none" stroke="#000000" d="M891.05,-811.23C926.47,-889.26 1066.52,-1197.8 1108.79,-1290.91"/>
<polygon fill="#000000" stroke="#000000" points="1105.69,-1292.55 1113.01,-1300.21 1112.06,-1289.66 1105.69,-1292.55"/>
</g>
<!-- Metamodel::EnumHOW&#45;&gt;Metamodel::Naming -->
<g id="edge29" class="edge">
<title>Metamodel::EnumHOW&#45;&gt;Metamodel::Naming</title>
<path fill="none" stroke="#6666ff" d="M886.04,-811.35C899.1,-885.88 948.63,-1168.5 964.51,-1259.13"/>
<polygon fill="#6666ff" stroke="#6666ff" points="961.1,-1259.95 966.27,-1269.2 967.99,-1258.75 961.1,-1259.95"/>
</g>
<!-- Metamodel::EnumHOW&#45;&gt;Metamodel::Stashing -->
<g id="edge30" class="edge">
<title>Metamodel::EnumHOW&#45;&gt;Metamodel::Stashing</title>
<path fill="none" stroke="#6666ff" d="M865.98,-811.1C796.97,-884.42 536.08,-1161.57 455.31,-1247.39"/>
<polygon fill="#6666ff" stroke="#6666ff" points="452.59,-1245.17 448.28,-1254.85 457.68,-1249.97 452.59,-1245.17"/>
</g>
<!-- Metamodel::EnumHOW&#45;&gt;Metamodel::AttributeContainer -->
<g id="edge31" class="edge">
<title>Metamodel::EnumHOW&#45;&gt;Metamodel::AttributeContainer</title>
<path fill="none" stroke="#6666ff" d="M896.5,-775.27C951.48,-703.16 1156.84,-433.76 1222.16,-348.08"/>
<polygon fill="#6666ff" stroke="#6666ff" points="1225.1,-349.99 1228.38,-339.92 1219.53,-345.75 1225.1,-349.99"/>
</g>
<!-- Metamodel::EnumHOW&#45;&gt;Metamodel::MethodContainer -->
<g id="edge32" class="edge">
<title>Metamodel::EnumHOW&#45;&gt;Metamodel::MethodContainer</title>
<path fill="none" stroke="#6666ff" d="M893.61,-775.1C900.79,-763.03 908.93,-749.35 908.93,-749.35 908.93,-749.35 849.88,-446.87 831.4,-352.17"/>
<polygon fill="#6666ff" stroke="#6666ff" points="834.8,-351.32 829.45,-342.18 827.93,-352.67 834.8,-351.32"/>
</g>
<!-- Metamodel::EnumHOW&#45;&gt;Metamodel::MultiMethodContainer -->
<g id="edge33" class="edge">
<title>Metamodel::EnumHOW&#45;&gt;Metamodel::MultiMethodContainer</title>
<path fill="none" stroke="#6666ff" d="M806.6,-779.63C761.21,-771.57 712.39,-762.9 712.39,-762.9 712.39,-762.9 679.56,-748.99 679.56,-748.99 679.56,-748.99 562.87,-561.92 518.38,-490.6"/>
<polygon fill="#6666ff" stroke="#6666ff" points="521.1,-488.35 512.84,-481.72 515.16,-492.05 521.1,-488.35"/>
</g>
<!-- Metamodel::EnumHOW&#45;&gt;Metamodel::RoleContainer -->
<g id="edge34" class="edge">
<title>Metamodel::EnumHOW&#45;&gt;Metamodel::RoleContainer</title>
<path fill="none" stroke="#6666ff" d="M906.22,-775.52C970.01,-727.33 1147.23,-593.44 1220.03,-538.44"/>
<polygon fill="#6666ff" stroke="#6666ff" points="1222.51,-540.95 1228.38,-532.13 1218.29,-535.37 1222.51,-540.95"/>
</g>
<!-- Metamodel::EnumHOW&#45;&gt;Metamodel::MROBasedMethodDispatch -->
<g id="edge36" class="edge">
<title>Metamodel::EnumHOW&#45;&gt;Metamodel::MROBasedMethodDispatch</title>
<path fill="none" stroke="#6666ff" d="M893.61,-775.1C900.79,-763.03 908.93,-749.35 908.93,-749.35 908.93,-749.35 1022.77,-388 1055.7,-283.49"/>
<polygon fill="#6666ff" stroke="#6666ff" points="1059.13,-284.25 1058.8,-273.66 1052.46,-282.15 1059.13,-284.25"/>
</g>
<!-- Metamodel::EnumHOW&#45;&gt;Metamodel::MROBasedTypeChecking -->
<g id="edge37" class="edge">
<title>Metamodel::EnumHOW&#45;&gt;Metamodel::MROBasedTypeChecking</title>
<path fill="none" stroke="#6666ff" d="M806.6,-779.63C761.21,-771.57 712.39,-762.9 712.39,-762.9 712.39,-762.9 553.36,-731.9 447.44,-711.25"/>
<polygon fill="#6666ff" stroke="#6666ff" points="447.85,-707.76 437.36,-709.28 446.51,-714.63 447.85,-707.76"/>
</g>
<!-- Metamodel::EnumHOW&#45;&gt;Metamodel::BUILDPLAN -->
<g id="edge38" class="edge">
<title>Metamodel::EnumHOW&#45;&gt;Metamodel::BUILDPLAN</title>
<path fill="none" stroke="#6666ff" d="M832.08,-809.36C742.52,-837.9 556.87,-897.07 460.66,-927.73"/>
<polygon fill="#6666ff" stroke="#6666ff" points="459.54,-924.42 451.07,-930.79 461.66,-931.09 459.54,-924.42"/>
</g>
<!-- Metamodel::EnumHOW&#45;&gt;Metamodel::Mixins -->
<g id="edge40" class="edge">
<title>Metamodel::EnumHOW&#45;&gt;Metamodel::Mixins</title>
<path fill="none" stroke="#6666ff" d="M989.49,-786.18C1048.37,-782.32 1121.06,-777.56 1178.85,-773.77"/>
<polygon fill="#6666ff" stroke="#6666ff" points="1179.34,-777.24 1189.09,-773.1 1178.89,-770.26 1179.34,-777.24"/>
</g>
<!-- Metamodel::EnumHOW&#45;&gt;Metamodel::BaseType -->
<g id="edge35" class="edge">
<title>Metamodel::EnumHOW&#45;&gt;Metamodel::BaseType</title>
<path fill="none" stroke="#6666ff" d="M893.61,-775.1C900.79,-763.03 908.93,-749.35 908.93,-749.35 908.93,-749.35 680.7,-324.08 680.7,-324.08 680.7,-324.08 584.65,-120.79 549.1,-45.56"/>
<polygon fill="#6666ff" stroke="#6666ff" points="552.13,-43.78 544.7,-36.23 545.8,-46.77 552.13,-43.78"/>
</g>
</g>
</svg>
