<?xml version="1.0" encoding="UTF-8" standalone="no"?>
<!DOCTYPE svg PUBLIC "-//W3C//DTD SVG 1.1//EN"
 "http://www.w3.org/Graphics/SVG/1.1/DTD/svg11.dtd">
<!-- Generated by graphviz version 2.42.3 (0)
 -->
<!-- Title: perl6&#45;type&#45;graph Pages: 1 -->
<svg width="231pt" height="404pt"
 viewBox="0.00 0.00 230.79 404.00" xmlns="http://www.w3.org/2000/svg" xmlns:xlink="http://www.w3.org/1999/xlink">
<g id="graph0" class="graph" transform="scale(1 1) rotate(0) translate(4 400)">
<title>perl6&#45;type&#45;graph</title>
<polygon fill="white" stroke="transparent" points="-4,4 -4,-400 226.79,-400 226.79,4 -4,4"/>
<!-- X::IO::Symlink -->
<g id="node1" class="node">
<title>X::IO::Symlink</title>
<g id="a_node1"><a xlink:href="/type/X::IO::Symlink" xlink:title="X::IO::Symlink">
<ellipse fill="none" stroke="#000000" cx="75.39" cy="-18" rx="75.29" ry="18"/>
<text text-anchor="middle" x="75.39" y="-14.3" font-family="FreeSans" font-size="14.00" fill="#000000">X::IO::Symlink</text>
</a>
</g>
</g>
<!-- Exception -->
<g id="node4" class="node">
<title>Exception</title>
<g id="a_node4"><a xlink:href="/type/Exception" xlink:title="Exception">
<ellipse fill="none" stroke="#000000" cx="98.39" cy="-234" rx="55.49" ry="18"/>
<text text-anchor="middle" x="98.39" y="-230.3" font-family="FreeSans" font-size="14.00" fill="#000000">Exception</text>
</a>
</g>
</g>
<!-- X::IO::Symlink&#45;&gt;Exception -->
<g id="edge1" class="edge">
<title>X::IO::Symlink&#45;&gt;Exception</title>
<path fill="none" stroke="#000000" d="M73.36,-36.15C73.8,-73.34 83.03,-161.63 90.87,-206.23"/>
<polygon fill="#000000" stroke="#000000" points="87.43,-206.88 92.72,-216.06 94.31,-205.59 87.43,-206.88"/>
</g>
<!-- X::IO::Symlink&#45;&gt;Exception -->
<g id="edge2" class="edge">
<title>X::IO::Symlink&#45;&gt;Exception</title>
<path fill="none" stroke="#000000" d="M81.11,-36.15C88.63,-73.17 98.32,-160.82 100.14,-205.61"/>
<polygon fill="#000000" stroke="#000000" points="96.65,-205.87 100.43,-215.77 103.65,-205.67 96.65,-205.87"/>
</g>
<!-- X::IO -->
<g id="node6" class="node">
<title>X::IO</title>
<g id="a_node6"><a xlink:href="/type/X::IO" xlink:title="X::IO">
<ellipse fill="none" stroke="#6666ff" cx="145.39" cy="-90" rx="33.29" ry="18"/>
<text text-anchor="middle" x="145.39" y="-86.3" font-family="FreeSans" font-size="14.00" fill="#6666ff">X::IO</text>
</a>
</g>
</g>
<!-- X::IO::Symlink&#45;&gt;X::IO -->
<g id="edge7" class="edge">
<title>X::IO::Symlink&#45;&gt;X::IO</title>
<path fill="none" stroke="#6666ff" d="M91.98,-35.59C101.13,-44.74 112.63,-56.24 122.61,-66.22"/>
<polygon fill="#6666ff" stroke="#6666ff" points="120.34,-68.89 129.88,-73.49 125.29,-63.94 120.34,-68.89"/>
</g>
<!-- Mu -->
<g id="node2" class="node">
<title>Mu</title>
<g id="a_node2"><a xlink:href="/type/Mu" xlink:title="Mu">
<ellipse fill="none" stroke="#000000" cx="98.39" cy="-378" rx="27" ry="18"/>
<text text-anchor="middle" x="98.39" y="-374.3" font-family="FreeSans" font-size="14.00" fill="#000000">Mu</text>
</a>
</g>
</g>
<!-- Any -->
<g id="node3" class="node">
<title>Any</title>
<g id="a_node3"><a xlink:href="/type/Any" xlink:title="Any">
<ellipse fill="none" stroke="#000000" cx="98.39" cy="-306" rx="28.7" ry="18"/>
<text text-anchor="middle" x="98.39" y="-302.3" font-family="FreeSans" font-size="14.00" fill="#000000">Any</text>
</a>
</g>
</g>
<!-- Any&#45;&gt;Mu -->
<g id="edge3" class="edge">
<title>Any&#45;&gt;Mu</title>
<path fill="none" stroke="#000000" d="M98.39,-324.3C98.39,-332.02 98.39,-341.29 98.39,-349.89"/>
<polygon fill="#000000" stroke="#000000" points="94.89,-349.9 98.39,-359.9 101.89,-349.9 94.89,-349.9"/>
</g>
<!-- Exception&#45;&gt;Any -->
<g id="edge4" class="edge">
<title>Exception&#45;&gt;Any</title>
<path fill="none" stroke="#000000" d="M98.39,-252.3C98.39,-260.02 98.39,-269.29 98.39,-277.89"/>
<polygon fill="#000000" stroke="#000000" points="94.89,-277.9 98.39,-287.9 101.89,-277.9 94.89,-277.9"/>
</g>
<!-- X::OS -->
<g id="node5" class="node">
<title>X::OS</title>
<g id="a_node5"><a xlink:href="/type/X::OS" xlink:title="X::OS">
<ellipse fill="none" stroke="#6666ff" cx="186.39" cy="-162" rx="36.29" ry="18"/>
<text text-anchor="middle" x="186.39" y="-158.3" font-family="FreeSans" font-size="14.00" fill="#6666ff">X::OS</text>
</a>
</g>
</g>
<!-- X::OS&#45;&gt;Exception -->
<g id="edge5" class="edge">
<title>X::OS&#45;&gt;Exception</title>
<path fill="none" stroke="#000000" d="M167.73,-177.85C155.78,-187.35 140.05,-199.86 126.59,-210.57"/>
<polygon fill="#000000" stroke="#000000" points="124.21,-207.99 118.56,-216.96 128.57,-213.47 124.21,-207.99"/>
</g>
<!-- X::IO&#45;&gt;Exception -->
<g id="edge6" class="edge">
<title>X::IO&#45;&gt;Exception</title>
<path fill="none" stroke="#000000" d="M139.82,-107.85C131.8,-132.06 116.95,-176.95 107.37,-205.87"/>
<polygon fill="#000000" stroke="#000000" points="103.93,-205.14 104.11,-215.73 110.57,-207.34 103.93,-205.14"/>
</g>
<!-- X::IO&#45;&gt;X::OS -->
<g id="edge8" class="edge">
<title>X::IO&#45;&gt;X::OS</title>
<path fill="none" stroke="#6666ff" d="M155.11,-107.59C160.01,-115.96 166.06,-126.29 171.53,-135.63"/>
<polygon fill="#6666ff" stroke="#6666ff" points="168.67,-137.67 176.75,-144.53 174.71,-134.13 168.67,-137.67"/>
</g>
</g>
</svg>
