<?xml version="1.0" encoding="UTF-8" standalone="no"?>
<!DOCTYPE svg PUBLIC "-//W3C//DTD SVG 1.1//EN"
 "http://www.w3.org/Graphics/SVG/1.1/DTD/svg11.dtd">
<!-- Generated by graphviz version 2.42.3 (0)
 -->
<!-- Title: perl6&#45;type&#45;graph Pages: 1 -->
<svg width="2305pt" height="2204pt"
 viewBox="0.00 0.00 2305.03 2204.43" xmlns="http://www.w3.org/2000/svg" xmlns:xlink="http://www.w3.org/1999/xlink">
<g id="graph0" class="graph" transform="scale(1 1) rotate(0) translate(4 2200.43)">
<title>perl6&#45;type&#45;graph</title>
<polygon fill="white" stroke="transparent" points="-4,4 -4,-2200.43 2301.03,-2200.43 2301.03,4 -4,4"/>
<!-- Metamodel::MultipleInheritance -->
<g id="node1" class="node">
<title>Metamodel::MultipleInheritance</title>
<g id="a_node1"><a xlink:href="/type/Metamodel::MultipleInheritance" xlink:title="Metamodel::MultipleInheritance">
<ellipse fill="none" stroke="#6666ff" cx="735.38" cy="-1211.87" rx="153.27" ry="18"/>
<text text-anchor="middle" x="735.38" y="-1208.17" font-family="FreeSans" font-size="14.00" fill="#6666ff">Metamodel::MultipleInheritance</text>
</a>
</g>
</g>
<!-- Mu -->
<g id="node2" class="node">
<title>Mu</title>
<g id="a_node2"><a xlink:href="/type/Mu" xlink:title="Mu">
<ellipse fill="none" stroke="#000000" cx="2270.03" cy="-565.26" rx="27" ry="18"/>
<text text-anchor="middle" x="2270.03" y="-561.56" font-family="FreeSans" font-size="14.00" fill="#000000">Mu</text>
</a>
</g>
</g>
<!-- Any -->
<g id="node3" class="node">
<title>Any</title>
<g id="a_node3"><a xlink:href="/type/Any" xlink:title="Any">
<ellipse fill="none" stroke="#000000" cx="1613.24" cy="-785.83" rx="28.7" ry="18"/>
<text text-anchor="middle" x="1613.24" y="-782.13" font-family="FreeSans" font-size="14.00" fill="#000000">Any</text>
</a>
</g>
</g>
<!-- Any&#45;&gt;Mu -->
<g id="edge1" class="edge">
<title>Any&#45;&gt;Mu</title>
<path fill="none" stroke="#000000" d="M1638.58,-777.32C1740.42,-743.12 2119.88,-615.68 2236.03,-576.67"/>
<polygon fill="#000000" stroke="#000000" points="2237.44,-579.89 2245.81,-573.39 2235.21,-573.25 2237.44,-579.89"/>
</g>
<!-- Metamodel::Naming -->
<g id="node4" class="node">
<title>Metamodel::Naming</title>
<g id="a_node4"><a xlink:href="/type/Metamodel::Naming" xlink:title="Metamodel::Naming">
<ellipse fill="none" stroke="#6666ff" cx="983.3" cy="-1255.89" rx="101.28" ry="18"/>
<text text-anchor="middle" x="983.3" y="-1252.19" font-family="FreeSans" font-size="14.00" fill="#6666ff">Metamodel::Naming</text>
</a>
</g>
</g>
<!-- Metamodel::Documenting -->
<g id="node5" class="node">
<title>Metamodel::Documenting</title>
<g id="a_node5"><a xlink:href="/type/Metamodel::Documenting" xlink:title="Metamodel::Documenting">
<ellipse fill="none" stroke="#6666ff" cx="1442.13" cy="-617.06" rx="126.98" ry="18"/>
<text text-anchor="middle" x="1442.13" y="-613.36" font-family="FreeSans" font-size="14.00" fill="#6666ff">Metamodel::Documenting</text>
</a>
</g>
</g>
<!-- Metamodel::Versioning -->
<g id="node6" class="node">
<title>Metamodel::Versioning</title>
<g id="a_node6"><a xlink:href="/type/Metamodel::Versioning" xlink:title="Metamodel::Versioning">
<ellipse fill="none" stroke="#6666ff" cx="1086.65" cy="-1069.08" rx="114.28" ry="18"/>
<text text-anchor="middle" x="1086.65" y="-1065.38" font-family="FreeSans" font-size="14.00" fill="#6666ff">Metamodel::Versioning</text>
</a>
</g>
</g>
<!-- Metamodel::Stashing -->
<g id="node7" class="node">
<title>Metamodel::Stashing</title>
<g id="a_node7"><a xlink:href="/type/Metamodel::Stashing" xlink:title="Metamodel::Stashing">
<ellipse fill="none" stroke="#6666ff" cx="568.46" cy="-1085.54" rx="105.88" ry="18"/>
<text text-anchor="middle" x="568.46" y="-1081.84" font-family="FreeSans" font-size="14.00" fill="#6666ff">Metamodel::Stashing</text>
</a>
</g>
</g>
<!-- Metamodel::C3MRO -->
<g id="node8" class="node">
<title>Metamodel::C3MRO</title>
<g id="a_node8"><a xlink:href="/type/Metamodel::C3MRO" xlink:title="Metamodel::C3MRO">
<ellipse fill="none" stroke="#6666ff" cx="1154.86" cy="-50.93" rx="100.18" ry="18"/>
<text text-anchor="middle" x="1154.86" y="-47.23" font-family="FreeSans" font-size="14.00" fill="#6666ff">Metamodel::C3MRO</text>
</a>
</g>
</g>
<!-- Metamodel::MROBasedMethodDispatch -->
<g id="node9" class="node">
<title>Metamodel::MROBasedMethodDispatch</title>
<g id="a_node9"><a xlink:href="/type/Metamodel::MROBasedMethodDispatch" xlink:title="Metamodel::MROBasedMethodDispatch">
<ellipse fill="none" stroke="#6666ff" cx="714.74" cy="-148.9" rx="188.47" ry="18"/>
<text text-anchor="middle" x="714.74" y="-145.2" font-family="FreeSans" font-size="14.00" fill="#6666ff">Metamodel::MROBasedMethodDispatch</text>
</a>
</g>
</g>
<!-- Metamodel::MROBasedTypeChecking -->
<g id="node10" class="node">
<title>Metamodel::MROBasedTypeChecking</title>
<g id="a_node10"><a xlink:href="/type/Metamodel::MROBasedTypeChecking" xlink:title="Metamodel::MROBasedTypeChecking">
<ellipse fill="none" stroke="#6666ff" cx="867.88" cy="-18" rx="178.97" ry="18"/>
<text text-anchor="middle" x="867.88" y="-14.3" font-family="FreeSans" font-size="14.00" fill="#6666ff">Metamodel::MROBasedTypeChecking</text>
</a>
</g>
</g>
<!-- Metamodel::NativeHOW -->
<g id="node11" class="node">
<title>Metamodel::NativeHOW</title>
<g id="a_node11"><a xlink:href="/type/Metamodel::NativeHOW" xlink:title="Metamodel::NativeHOW">
<ellipse fill="none" stroke="#000000" cx="1060.73" cy="-544.9" rx="118.08" ry="18"/>
<text text-anchor="middle" x="1060.73" y="-541.2" font-family="FreeSans" font-size="14.00" fill="#000000">Metamodel::NativeHOW</text>
</a>
</g>
</g>
<!-- Metamodel::NativeHOW&#45;&gt;Metamodel::MultipleInheritance -->
<g id="edge10" class="edge">
<title>Metamodel::NativeHOW&#45;&gt;Metamodel::MultipleInheritance</title>
<path fill="none" stroke="#6666ff" d="M1051.86,-563.09C1006.78,-655.5 803.1,-1073.04 748.75,-1184.46"/>
<polygon fill="#6666ff" stroke="#6666ff" points="745.48,-1183.18 744.24,-1193.7 751.77,-1186.25 745.48,-1183.18"/>
</g>
<!-- Metamodel::NativeHOW&#45;&gt;Any -->
<g id="edge2" class="edge">
<title>Metamodel::NativeHOW&#45;&gt;Any</title>
<path fill="none" stroke="#000000" d="M1100.03,-562.04C1203.83,-607.3 1483.97,-729.46 1580.23,-771.44"/>
<polygon fill="#000000" stroke="#000000" points="1578.92,-774.68 1589.48,-775.47 1581.71,-768.27 1578.92,-774.68"/>
</g>
<!-- Metamodel::NativeHOW&#45;&gt;Metamodel::Naming -->
<g id="edge6" class="edge">
<title>Metamodel::NativeHOW&#45;&gt;Metamodel::Naming</title>
<path fill="none" stroke="#6666ff" d="M1057.63,-562.95C1041.8,-655.11 970.66,-1069.03 970.66,-1069.03 970.66,-1069.03 977.83,-1175 981.37,-1227.34"/>
<polygon fill="#6666ff" stroke="#6666ff" points="977.9,-1227.89 982.07,-1237.63 984.89,-1227.42 977.9,-1227.89"/>
</g>
<!-- Metamodel::NativeHOW&#45;&gt;Metamodel::Documenting -->
<g id="edge7" class="edge">
<title>Metamodel::NativeHOW&#45;&gt;Metamodel::Documenting</title>
<path fill="none" stroke="#6666ff" d="M1135.18,-558.99C1198.48,-570.96 1289.42,-588.17 1355.88,-600.74"/>
<polygon fill="#6666ff" stroke="#6666ff" points="1355.44,-604.22 1365.92,-602.64 1356.74,-597.34 1355.44,-604.22"/>
</g>
<!-- Metamodel::NativeHOW&#45;&gt;Metamodel::Versioning -->
<g id="edge8" class="edge">
<title>Metamodel::NativeHOW&#45;&gt;Metamodel::Versioning</title>
<path fill="none" stroke="#6666ff" d="M1061.63,-562.95C1065.46,-640.52 1080.57,-946.01 1085.26,-1040.85"/>
<polygon fill="#6666ff" stroke="#6666ff" points="1081.76,-1041.03 1085.75,-1050.85 1088.75,-1040.69 1081.76,-1041.03"/>
</g>
<!-- Metamodel::NativeHOW&#45;&gt;Metamodel::Stashing -->
<g id="edge9" class="edge">
<title>Metamodel::NativeHOW&#45;&gt;Metamodel::Stashing</title>
<path fill="none" stroke="#6666ff" d="M1050.12,-563.05C1024.87,-606.22 963.3,-711.47 963.3,-711.47 963.3,-711.47 682.89,-977.13 594.69,-1060.69"/>
<polygon fill="#6666ff" stroke="#6666ff" points="592.09,-1058.33 587.24,-1067.75 596.91,-1063.41 592.09,-1058.33"/>
</g>
<!-- Metamodel::NativeHOW&#45;&gt;Metamodel::C3MRO -->
<g id="edge11" class="edge">
<title>Metamodel::NativeHOW&#45;&gt;Metamodel::C3MRO</title>
<path fill="none" stroke="#6666ff" d="M1064.2,-526.74C1078.39,-452.22 1132.23,-169.67 1149.5,-79.07"/>
<polygon fill="#6666ff" stroke="#6666ff" points="1152.98,-79.48 1151.42,-69 1146.11,-78.17 1152.98,-79.48"/>
</g>
<!-- Metamodel::NativeHOW&#45;&gt;Metamodel::MROBasedMethodDispatch -->
<g id="edge12" class="edge">
<title>Metamodel::NativeHOW&#45;&gt;Metamodel::MROBasedMethodDispatch</title>
<path fill="none" stroke="#6666ff" d="M1044.97,-526.86C989.36,-463.21 802.2,-249 737.2,-174.61"/>
<polygon fill="#6666ff" stroke="#6666ff" points="739.81,-172.28 730.6,-167.05 734.54,-176.88 739.81,-172.28"/>
</g>
<!-- Metamodel::NativeHOW&#45;&gt;Metamodel::MROBasedTypeChecking -->
<g id="edge13" class="edge">
<title>Metamodel::NativeHOW&#45;&gt;Metamodel::MROBasedTypeChecking</title>
<path fill="none" stroke="#6666ff" d="M1054.1,-526.77C1025.47,-448.55 912.46,-139.78 877.95,-45.49"/>
<polygon fill="#6666ff" stroke="#6666ff" points="881.22,-44.25 874.49,-36.06 874.64,-46.65 881.22,-44.25"/>
</g>
<!-- Metamodel::AttributeContainer -->
<g id="node12" class="node">
<title>Metamodel::AttributeContainer</title>
<g id="a_node12"><a xlink:href="/type/Metamodel::AttributeContainer" xlink:title="Metamodel::AttributeContainer">
<ellipse fill="none" stroke="#6666ff" cx="659.9" cy="-1508.45" rx="150.27" ry="18"/>
<text text-anchor="middle" x="659.9" y="-1504.75" font-family="FreeSans" font-size="14.00" fill="#6666ff">Metamodel::AttributeContainer</text>
</a>
</g>
</g>
<!-- Metamodel::Finalization -->
<g id="node13" class="node">
<title>Metamodel::Finalization</title>
<g id="a_node13"><a xlink:href="/type/Metamodel::Finalization" xlink:title="Metamodel::Finalization">
<ellipse fill="none" stroke="#6666ff" cx="1375.53" cy="-113.06" rx="116.98" ry="18"/>
<text text-anchor="middle" x="1375.53" y="-109.36" font-family="FreeSans" font-size="14.00" fill="#6666ff">Metamodel::Finalization</text>
</a>
</g>
</g>
<!-- Metamodel::MethodContainer -->
<g id="node14" class="node">
<title>Metamodel::MethodContainer</title>
<g id="a_node14"><a xlink:href="/type/Metamodel::MethodContainer" xlink:title="Metamodel::MethodContainer">
<ellipse fill="none" stroke="#6666ff" cx="1557.78" cy="-1145.73" rx="143.77" ry="18"/>
<text text-anchor="middle" x="1557.78" y="-1142.03" font-family="FreeSans" font-size="14.00" fill="#6666ff">Metamodel::MethodContainer</text>
</a>
</g>
</g>
<!-- Metamodel::PrivateMethodContainer -->
<g id="node15" class="node">
<title>Metamodel::PrivateMethodContainer</title>
<g id="a_node15"><a xlink:href="/type/Metamodel::PrivateMethodContainer" xlink:title="Metamodel::PrivateMethodContainer">
<ellipse fill="none" stroke="#6666ff" cx="830.39" cy="-1592.03" rx="174.67" ry="18"/>
<text text-anchor="middle" x="830.39" y="-1588.33" font-family="FreeSans" font-size="14.00" fill="#6666ff">Metamodel::PrivateMethodContainer</text>
</a>
</g>
</g>
<!-- Metamodel::MultiMethodContainer -->
<g id="node16" class="node">
<title>Metamodel::MultiMethodContainer</title>
<g id="a_node16"><a xlink:href="/type/Metamodel::MultiMethodContainer" xlink:title="Metamodel::MultiMethodContainer">
<ellipse fill="none" stroke="#6666ff" cx="1317.91" cy="-985.02" rx="165.97" ry="18"/>
<text text-anchor="middle" x="1317.91" y="-981.32" font-family="FreeSans" font-size="14.00" fill="#6666ff">Metamodel::MultiMethodContainer</text>
</a>
</g>
</g>
<!-- Metamodel::RoleContainer -->
<g id="node17" class="node">
<title>Metamodel::RoleContainer</title>
<g id="a_node17"><a xlink:href="/type/Metamodel::RoleContainer" xlink:title="Metamodel::RoleContainer">
<ellipse fill="none" stroke="#6666ff" cx="1632.44" cy="-997.08" rx="129.98" ry="18"/>
<text text-anchor="middle" x="1632.44" y="-993.38" font-family="FreeSans" font-size="14.00" fill="#6666ff">Metamodel::RoleContainer</text>
</a>
</g>
</g>
<!-- Metamodel::DefaultParent -->
<g id="node18" class="node">
<title>Metamodel::DefaultParent</title>
<g id="a_node18"><a xlink:href="/type/Metamodel::DefaultParent" xlink:title="Metamodel::DefaultParent">
<ellipse fill="none" stroke="#6666ff" cx="135.45" cy="-1067.24" rx="128.08" ry="18"/>
<text text-anchor="middle" x="135.45" y="-1063.54" font-family="FreeSans" font-size="14.00" fill="#6666ff">Metamodel::DefaultParent</text>
</a>
</g>
</g>
<!-- Metamodel::Trusting -->
<g id="node19" class="node">
<title>Metamodel::Trusting</title>
<g id="a_node19"><a xlink:href="/type/Metamodel::Trusting" xlink:title="Metamodel::Trusting">
<ellipse fill="none" stroke="#6666ff" cx="170.54" cy="-546.48" rx="102.88" ry="18"/>
<text text-anchor="middle" x="170.54" y="-542.78" font-family="FreeSans" font-size="14.00" fill="#6666ff">Metamodel::Trusting</text>
</a>
</g>
</g>
<!-- Metamodel::BUILDPLAN -->
<g id="node20" class="node">
<title>Metamodel::BUILDPLAN</title>
<g id="a_node20"><a xlink:href="/type/Metamodel::BUILDPLAN" xlink:title="Metamodel::BUILDPLAN">
<ellipse fill="none" stroke="#6666ff" cx="118.29" cy="-790.79" rx="118.08" ry="18"/>
<text text-anchor="middle" x="118.29" y="-787.09" font-family="FreeSans" font-size="14.00" fill="#6666ff">Metamodel::BUILDPLAN</text>
</a>
</g>
</g>
<!-- Metamodel::Mixins -->
<g id="node21" class="node">
<title>Metamodel::Mixins</title>
<g id="a_node21"><a xlink:href="/type/Metamodel::Mixins" xlink:title="Metamodel::Mixins">
<ellipse fill="none" stroke="#6666ff" cx="423.21" cy="-114.29" rx="94.78" ry="18"/>
<text text-anchor="middle" x="423.21" y="-110.59" font-family="FreeSans" font-size="14.00" fill="#6666ff">Metamodel::Mixins</text>
</a>
</g>
</g>
<!-- Metamodel::BoolificationProtocol -->
<g id="node22" class="node">
<title>Metamodel::BoolificationProtocol</title>
<g id="a_node22"><a xlink:href="/type/Metamodel::BoolificationProtocol" xlink:title="Metamodel::BoolificationProtocol">
<ellipse fill="none" stroke="#6666ff" cx="287.58" cy="-333.39" rx="157.07" ry="18"/>
<text text-anchor="middle" x="287.58" y="-329.69" font-family="FreeSans" font-size="14.00" fill="#6666ff">Metamodel::BoolificationProtocol</text>
</a>
</g>
</g>
<!-- Metamodel::ClassHOW -->
<g id="node23" class="node">
<title>Metamodel::ClassHOW</title>
<g id="a_node23"><a xlink:href="/type/Metamodel::ClassHOW" xlink:title="Metamodel::ClassHOW">
<ellipse fill="none" stroke="#000000" cx="848.61" cy="-711.43" rx="113.18" ry="18"/>
<text text-anchor="middle" x="848.61" y="-707.73" font-family="FreeSans" font-size="14.00" fill="#000000">Metamodel::ClassHOW</text>
</a>
</g>
</g>
<!-- Metamodel::ClassHOW&#45;&gt;Metamodel::MultipleInheritance -->
<g id="edge24" class="edge">
<title>Metamodel::ClassHOW&#45;&gt;Metamodel::MultipleInheritance</title>
<path fill="none" stroke="#6666ff" d="M844.51,-729.54C827.5,-804.71 762.37,-1092.55 741.71,-1183.89"/>
<polygon fill="#6666ff" stroke="#6666ff" points="738.26,-1183.26 739.47,-1193.79 745.09,-1184.81 738.26,-1183.26"/>
</g>
<!-- Metamodel::ClassHOW&#45;&gt;Any -->
<g id="edge3" class="edge">
<title>Metamodel::ClassHOW&#45;&gt;Any</title>
<path fill="none" stroke="#000000" d="M945.45,-720.85C1115.16,-737.37 1459.24,-770.85 1574.57,-782.07"/>
<polygon fill="#000000" stroke="#000000" points="1574.4,-785.57 1584.69,-783.05 1575.08,-778.6 1574.4,-785.57"/>
</g>
<!-- Metamodel::ClassHOW&#45;&gt;Metamodel::Naming -->
<g id="edge14" class="edge">
<title>Metamodel::ClassHOW&#45;&gt;Metamodel::Naming</title>
<path fill="none" stroke="#6666ff" d="M853.09,-729.55C872.84,-809.4 952.24,-1130.32 976.33,-1227.72"/>
<polygon fill="#6666ff" stroke="#6666ff" points="973.01,-1228.84 978.81,-1237.71 979.8,-1227.16 973.01,-1228.84"/>
</g>
<!-- Metamodel::ClassHOW&#45;&gt;Metamodel::Documenting -->
<g id="edge15" class="edge">
<title>Metamodel::ClassHOW&#45;&gt;Metamodel::Documenting</title>
<path fill="none" stroke="#6666ff" d="M928.65,-698.7C1037.49,-681.4 1231.85,-650.5 1347.69,-632.08"/>
<polygon fill="#6666ff" stroke="#6666ff" points="1348.29,-635.53 1357.61,-630.5 1347.19,-628.61 1348.29,-635.53"/>
</g>
<!-- Metamodel::ClassHOW&#45;&gt;Metamodel::Versioning -->
<g id="edge16" class="edge">
<title>Metamodel::ClassHOW&#45;&gt;Metamodel::Versioning</title>
<path fill="none" stroke="#6666ff" d="M860.74,-729.66C899.82,-788.38 1022.56,-972.78 1068.8,-1042.25"/>
<polygon fill="#6666ff" stroke="#6666ff" points="1066.09,-1044.51 1074.55,-1050.89 1071.92,-1040.63 1066.09,-1044.51"/>
</g>
<!-- Metamodel::ClassHOW&#45;&gt;Metamodel::Stashing -->
<g id="edge17" class="edge">
<title>Metamodel::ClassHOW&#45;&gt;Metamodel::Stashing</title>
<path fill="none" stroke="#6666ff" d="M835.1,-729.48C789.51,-790.35 641.28,-988.3 587.87,-1059.62"/>
<polygon fill="#6666ff" stroke="#6666ff" points="585.03,-1057.57 581.84,-1067.68 590.63,-1061.77 585.03,-1057.57"/>
</g>
<!-- Metamodel::ClassHOW&#45;&gt;Metamodel::C3MRO -->
<g id="edge26" class="edge">
<title>Metamodel::ClassHOW&#45;&gt;Metamodel::C3MRO</title>
<path fill="none" stroke="#6666ff" d="M856.96,-693.42C899.39,-601.9 1091.11,-188.41 1142.28,-78.07"/>
<polygon fill="#6666ff" stroke="#6666ff" points="1145.48,-79.46 1146.52,-68.92 1139.13,-76.52 1145.48,-79.46"/>
</g>
<!-- Metamodel::ClassHOW&#45;&gt;Metamodel::MROBasedMethodDispatch -->
<g id="edge27" class="edge">
<title>Metamodel::ClassHOW&#45;&gt;Metamodel::MROBasedMethodDispatch</title>
<path fill="none" stroke="#6666ff" d="M844.3,-693.35C824.85,-611.61 745.05,-276.26 721.38,-176.82"/>
<polygon fill="#6666ff" stroke="#6666ff" points="724.75,-175.83 719.03,-166.91 717.94,-177.45 724.75,-175.83"/>
</g>
<!-- Metamodel::ClassHOW&#45;&gt;Metamodel::MROBasedTypeChecking -->
<g id="edge28" class="edge">
<title>Metamodel::ClassHOW&#45;&gt;Metamodel::MROBasedTypeChecking</title>
<path fill="none" stroke="#6666ff" d="M850.41,-693.36C860.04,-597.09 904.82,-149.01 904.82,-149.01 904.82,-149.01 886.73,-84.85 875.87,-46.33"/>
<polygon fill="#6666ff" stroke="#6666ff" points="879.1,-44.89 873.02,-36.22 872.36,-46.79 879.1,-44.89"/>
</g>
<!-- Metamodel::ClassHOW&#45;&gt;Metamodel::AttributeContainer -->
<g id="edge18" class="edge">
<title>Metamodel::ClassHOW&#45;&gt;Metamodel::AttributeContainer</title>
<path fill="none" stroke="#6666ff" d="M840.28,-729.48C805.8,-804.23 676,-1085.65 676,-1085.65 676,-1085.65 580.39,-1211.79 580.39,-1211.79 580.39,-1211.79 632.53,-1406.33 652.36,-1480.33"/>
<polygon fill="#6666ff" stroke="#6666ff" points="649.07,-1481.59 655.04,-1490.34 655.83,-1479.77 649.07,-1481.59"/>
</g>
<!-- Metamodel::ClassHOW&#45;&gt;Metamodel::Finalization -->
<g id="edge19" class="edge">
<title>Metamodel::ClassHOW&#45;&gt;Metamodel::Finalization</title>
<path fill="none" stroke="#6666ff" d="M858.65,-693.29C882.56,-650.12 940.85,-544.86 940.85,-544.86 940.85,-544.86 1257.11,-230.7 1350.11,-138.31"/>
<polygon fill="#6666ff" stroke="#6666ff" points="1352.78,-140.59 1357.41,-131.06 1347.85,-135.63 1352.78,-140.59"/>
</g>
<!-- Metamodel::ClassHOW&#45;&gt;Metamodel::MethodContainer -->
<g id="edge20" class="edge">
<title>Metamodel::ClassHOW&#45;&gt;Metamodel::MethodContainer</title>
<path fill="none" stroke="#6666ff" d="M868.42,-729.37C935.6,-790.21 1150.58,-984.89 1150.58,-984.89 1150.58,-984.89 1394.23,-1081.13 1504.58,-1124.72"/>
<polygon fill="#6666ff" stroke="#6666ff" points="1503.62,-1128.1 1514.2,-1128.52 1506.19,-1121.59 1503.62,-1128.1"/>
</g>
<!-- Metamodel::ClassHOW&#45;&gt;Metamodel::PrivateMethodContainer -->
<g id="edge21" class="edge">
<title>Metamodel::ClassHOW&#45;&gt;Metamodel::PrivateMethodContainer</title>
<path fill="none" stroke="#6666ff" d="M850.12,-729.54C857.6,-819.27 890.36,-1211.94 890.36,-1211.94 890.36,-1211.94 880.31,-1255.84 880.31,-1255.84 880.31,-1255.84 846.54,-1483.24 834.55,-1564"/>
<polygon fill="#6666ff" stroke="#6666ff" points="831.08,-1563.55 833.07,-1573.95 838,-1564.57 831.08,-1563.55"/>
</g>
<!-- Metamodel::ClassHOW&#45;&gt;Metamodel::MultiMethodContainer -->
<g id="edge22" class="edge">
<title>Metamodel::ClassHOW&#45;&gt;Metamodel::MultiMethodContainer</title>
<path fill="none" stroke="#6666ff" d="M878.68,-728.96C960.52,-776.67 1187.23,-908.84 1278.79,-962.22"/>
<polygon fill="#6666ff" stroke="#6666ff" points="1277.08,-965.27 1287.48,-967.29 1280.6,-959.23 1277.08,-965.27"/>
</g>
<!-- Metamodel::ClassHOW&#45;&gt;Metamodel::RoleContainer -->
<g id="edge23" class="edge">
<title>Metamodel::ClassHOW&#45;&gt;Metamodel::RoleContainer</title>
<path fill="none" stroke="#6666ff" d="M894.14,-728.02C1029.24,-777.26 1427.68,-922.46 1575.98,-976.5"/>
<polygon fill="#6666ff" stroke="#6666ff" points="1575.21,-979.95 1585.8,-980.08 1577.61,-973.37 1575.21,-979.95"/>
</g>
<!-- Metamodel::ClassHOW&#45;&gt;Metamodel::DefaultParent -->
<g id="edge25" class="edge">
<title>Metamodel::ClassHOW&#45;&gt;Metamodel::DefaultParent</title>
<path fill="none" stroke="#6666ff" d="M814.21,-728.59C696.56,-787.29 310.27,-980.02 179.31,-1045.35"/>
<polygon fill="#6666ff" stroke="#6666ff" points="177.72,-1042.24 170.33,-1049.83 180.84,-1048.5 177.72,-1042.24"/>
</g>
<!-- Metamodel::ClassHOW&#45;&gt;Metamodel::Trusting -->
<g id="edge29" class="edge">
<title>Metamodel::ClassHOW&#45;&gt;Metamodel::Trusting</title>
<path fill="none" stroke="#6666ff" d="M786.64,-696.36C660.3,-665.62 373.71,-595.91 240.73,-563.56"/>
<polygon fill="#6666ff" stroke="#6666ff" points="241.2,-560.07 230.66,-561.11 239.55,-566.87 241.2,-560.07"/>
</g>
<!-- Metamodel::ClassHOW&#45;&gt;Metamodel::BUILDPLAN -->
<g id="edge30" class="edge">
<title>Metamodel::ClassHOW&#45;&gt;Metamodel::BUILDPLAN</title>
<path fill="none" stroke="#6666ff" d="M755,-721.6C619.03,-736.38 367.57,-763.7 224.72,-779.22"/>
<polygon fill="#6666ff" stroke="#6666ff" points="224.19,-775.76 214.63,-780.32 224.95,-782.72 224.19,-775.76"/>
</g>
<!-- Metamodel::ClassHOW&#45;&gt;Metamodel::Mixins -->
<g id="edge31" class="edge">
<title>Metamodel::ClassHOW&#45;&gt;Metamodel::Mixins</title>
<path fill="none" stroke="#6666ff" d="M835.64,-693.23C774.42,-607.29 514.19,-242.01 441.91,-140.54"/>
<polygon fill="#6666ff" stroke="#6666ff" points="444.73,-138.46 436.07,-132.35 439.03,-142.52 444.73,-138.46"/>
</g>
<!-- Metamodel::ClassHOW&#45;&gt;Metamodel::BoolificationProtocol -->
<g id="edge32" class="edge">
<title>Metamodel::ClassHOW&#45;&gt;Metamodel::BoolificationProtocol</title>
<path fill="none" stroke="#6666ff" d="M822.3,-693.71C730.84,-632.08 426.63,-427.09 322.72,-357.07"/>
<polygon fill="#6666ff" stroke="#6666ff" points="324.41,-353.99 314.16,-351.3 320.49,-359.79 324.41,-353.99"/>
</g>
<!-- Metamodel::TypePretense -->
<g id="node24" class="node">
<title>Metamodel::TypePretense</title>
<g id="a_node24"><a xlink:href="/type/Metamodel::TypePretense" xlink:title="Metamodel::TypePretense">
<ellipse fill="none" stroke="#6666ff" cx="1885.35" cy="-1909.88" rx="126.18" ry="18"/>
<text text-anchor="middle" x="1885.35" y="-1906.18" font-family="FreeSans" font-size="14.00" fill="#6666ff">Metamodel::TypePretense</text>
</a>
</g>
</g>
<!-- Metamodel::RolePunning -->
<g id="node25" class="node">
<title>Metamodel::RolePunning</title>
<g id="a_node25"><a xlink:href="/type/Metamodel::RolePunning" xlink:title="Metamodel::RolePunning">
<ellipse fill="none" stroke="#6666ff" cx="1378.02" cy="-2178.43" rx="122.68" ry="18"/>
<text text-anchor="middle" x="1378.02" y="-2174.73" font-family="FreeSans" font-size="14.00" fill="#6666ff">Metamodel::RolePunning</text>
</a>
</g>
</g>
<!-- Metamodel::ParametricRoleHOW -->
<g id="node26" class="node">
<title>Metamodel::ParametricRoleHOW</title>
<g id="a_node26"><a xlink:href="/type/Metamodel::ParametricRoleHOW" xlink:title="Metamodel::ParametricRoleHOW">
<ellipse fill="none" stroke="#000000" cx="1301.43" cy="-1486.6" rx="157.07" ry="18"/>
<text text-anchor="middle" x="1301.43" y="-1482.9" font-family="FreeSans" font-size="14.00" fill="#000000">Metamodel::ParametricRoleHOW</text>
</a>
</g>
</g>
<!-- Metamodel::ParametricRoleHOW&#45;&gt;Metamodel::MultipleInheritance -->
<g id="edge41" class="edge">
<title>Metamodel::ParametricRoleHOW&#45;&gt;Metamodel::MultipleInheritance</title>
<path fill="none" stroke="#6666ff" d="M1265.16,-1469C1165.93,-1420.84 890.13,-1286.98 780.83,-1233.93"/>
<polygon fill="#6666ff" stroke="#6666ff" points="782.24,-1230.72 771.71,-1229.5 779.18,-1237.02 782.24,-1230.72"/>
</g>
<!-- Metamodel::ParametricRoleHOW&#45;&gt;Any -->
<g id="edge4" class="edge">
<title>Metamodel::ParametricRoleHOW&#45;&gt;Any</title>
<path fill="none" stroke="#000000" d="M1307.4,-1468.26C1330.48,-1397.43 1412.55,-1145.59 1412.55,-1145.59 1412.55,-1145.59 1552.48,-894.75 1598.65,-811.98"/>
<polygon fill="#000000" stroke="#000000" points="1601.74,-813.62 1603.56,-803.18 1595.63,-810.21 1601.74,-813.62"/>
</g>
<!-- Metamodel::ParametricRoleHOW&#45;&gt;Metamodel::Naming -->
<g id="edge33" class="edge">
<title>Metamodel::ParametricRoleHOW&#45;&gt;Metamodel::Naming</title>
<path fill="none" stroke="#6666ff" d="M1276.73,-1468.69C1219.87,-1427.45 1079.7,-1325.8 1015.89,-1279.52"/>
<polygon fill="#6666ff" stroke="#6666ff" points="1017.92,-1276.67 1007.77,-1273.63 1013.81,-1282.33 1017.92,-1276.67"/>
</g>
<!-- Metamodel::ParametricRoleHOW&#45;&gt;Metamodel::Documenting -->
<g id="edge34" class="edge">
<title>Metamodel::ParametricRoleHOW&#45;&gt;Metamodel::Documenting</title>
<path fill="none" stroke="#6666ff" d="M1307.4,-1468.26C1330.48,-1397.43 1412.55,-1145.59 1412.55,-1145.59 1412.55,-1145.59 1485.24,-985.16 1485.24,-985.16 1485.24,-985.16 1455.49,-731.16 1445.42,-645.15"/>
<polygon fill="#6666ff" stroke="#6666ff" points="1448.88,-644.59 1444.24,-635.07 1441.92,-645.4 1448.88,-644.59"/>
</g>
<!-- Metamodel::ParametricRoleHOW&#45;&gt;Metamodel::Versioning -->
<g id="edge35" class="edge">
<title>Metamodel::ParametricRoleHOW&#45;&gt;Metamodel::Versioning</title>
<path fill="none" stroke="#6666ff" d="M1292.06,-1468.39C1258.15,-1402.46 1141.63,-1175.96 1100.87,-1096.72"/>
<polygon fill="#6666ff" stroke="#6666ff" points="1103.76,-1094.68 1096.07,-1087.39 1097.53,-1097.88 1103.76,-1094.68"/>
</g>
<!-- Metamodel::ParametricRoleHOW&#45;&gt;Metamodel::Stashing -->
<g id="edge42" class="edge">
<title>Metamodel::ParametricRoleHOW&#45;&gt;Metamodel::Stashing</title>
<path fill="none" stroke="#6666ff" d="M1284.55,-1468.5C1233.83,-1414.12 1086.29,-1255.94 1086.29,-1255.94 1086.29,-1255.94 1056.33,-1242.07 1056.33,-1242.07 1056.33,-1242.07 758.44,-1146.49 628.21,-1104.71"/>
<polygon fill="#6666ff" stroke="#6666ff" points="628.97,-1101.28 618.38,-1101.56 626.83,-1107.94 628.97,-1101.28"/>
</g>
<!-- Metamodel::ParametricRoleHOW&#45;&gt;Metamodel::AttributeContainer -->
<g id="edge39" class="edge">
<title>Metamodel::ParametricRoleHOW&#45;&gt;Metamodel::AttributeContainer</title>
<path fill="none" stroke="#6666ff" d="M1150.61,-1491.74C1049.44,-1495.18 916.55,-1499.71 814.58,-1503.18"/>
<polygon fill="#6666ff" stroke="#6666ff" points="814.37,-1499.69 804.5,-1503.52 814.61,-1506.68 814.37,-1499.69"/>
</g>
<!-- Metamodel::ParametricRoleHOW&#45;&gt;Metamodel::MethodContainer -->
<g id="edge36" class="edge">
<title>Metamodel::ParametricRoleHOW&#45;&gt;Metamodel::MethodContainer</title>
<path fill="none" stroke="#6666ff" d="M1315.21,-1468.27C1357.91,-1411.5 1488.11,-1238.37 1538.02,-1172.01"/>
<polygon fill="#6666ff" stroke="#6666ff" points="1541.03,-1173.83 1544.24,-1163.73 1535.43,-1169.62 1541.03,-1173.83"/>
</g>
<!-- Metamodel::ParametricRoleHOW&#45;&gt;Metamodel::PrivateMethodContainer -->
<g id="edge37" class="edge">
<title>Metamodel::ParametricRoleHOW&#45;&gt;Metamodel::PrivateMethodContainer</title>
<path fill="none" stroke="#6666ff" d="M1229.63,-1502.67C1144.61,-1521.7 1003.25,-1553.34 913.54,-1573.41"/>
<polygon fill="#6666ff" stroke="#6666ff" points="912.67,-1570.02 903.68,-1575.62 914.2,-1576.85 912.67,-1570.02"/>
</g>
<!-- Metamodel::ParametricRoleHOW&#45;&gt;Metamodel::MultiMethodContainer -->
<g id="edge38" class="edge">
<title>Metamodel::ParametricRoleHOW&#45;&gt;Metamodel::MultiMethodContainer</title>
<path fill="none" stroke="#6666ff" d="M1302.02,-1468.45C1304.5,-1393.18 1313.96,-1105.2 1316.98,-1013.35"/>
<polygon fill="#6666ff" stroke="#6666ff" points="1320.48,-1013.26 1317.31,-1003.15 1313.49,-1013.03 1320.48,-1013.26"/>
</g>
<!-- Metamodel::ParametricRoleHOW&#45;&gt;Metamodel::RoleContainer -->
<g id="edge40" class="edge">
<title>Metamodel::ParametricRoleHOW&#45;&gt;Metamodel::RoleContainer</title>
<path fill="none" stroke="#6666ff" d="M1307.4,-1468.26C1330.48,-1397.43 1412.55,-1145.59 1412.55,-1145.59 1412.55,-1145.59 1535.59,-1062.49 1597.59,-1020.62"/>
<polygon fill="#6666ff" stroke="#6666ff" points="1599.59,-1023.49 1605.92,-1014.99 1595.67,-1017.69 1599.59,-1023.49"/>
</g>
<!-- Metamodel::ParametricRoleHOW&#45;&gt;Metamodel::TypePretense -->
<g id="edge43" class="edge">
<title>Metamodel::ParametricRoleHOW&#45;&gt;Metamodel::TypePretense</title>
<path fill="none" stroke="#6666ff" d="M1293.86,-1504.73C1288.81,-1516.84 1283.08,-1530.55 1283.08,-1530.55 1283.08,-1530.55 1717.83,-1804.37 1848.59,-1886.72"/>
<polygon fill="#6666ff" stroke="#6666ff" points="1846.79,-1889.72 1857.11,-1892.09 1850.52,-1883.8 1846.79,-1889.72"/>
</g>
<!-- Metamodel::ParametricRoleHOW&#45;&gt;Metamodel::RolePunning -->
<g id="edge44" class="edge">
<title>Metamodel::ParametricRoleHOW&#45;&gt;Metamodel::RolePunning</title>
<path fill="none" stroke="#6666ff" d="M1293.86,-1504.73C1288.81,-1516.84 1283.08,-1530.55 1283.08,-1530.55 1283.08,-1530.55 1355.61,-2025.47 1373.88,-2150.17"/>
<polygon fill="#6666ff" stroke="#6666ff" points="1370.47,-2151.04 1375.38,-2160.43 1377.4,-2150.03 1370.47,-2151.04"/>
</g>
<!-- Metamodel::ConcreteRoleHOW -->
<g id="node27" class="node">
<title>Metamodel::ConcreteRoleHOW</title>
<g id="a_node27"><a xlink:href="/type/Metamodel::ConcreteRoleHOW" xlink:title="Metamodel::ConcreteRoleHOW">
<ellipse fill="none" stroke="#000000" cx="1433.52" cy="-1530.6" rx="148.67" ry="18"/>
<text text-anchor="middle" x="1433.52" y="-1526.9" font-family="FreeSans" font-size="14.00" fill="#000000">Metamodel::ConcreteRoleHOW</text>
</a>
</g>
</g>
<!-- Metamodel::ConcreteRoleHOW&#45;&gt;Metamodel::MultipleInheritance -->
<g id="edge52" class="edge">
<title>Metamodel::ConcreteRoleHOW&#45;&gt;Metamodel::MultipleInheritance</title>
<path fill="none" stroke="#6666ff" d="M1329.23,-1517.74C1262.52,-1509.52 1188.44,-1500.38 1188.44,-1500.38 1188.44,-1500.38 1142.54,-1486.49 1142.54,-1486.49 1142.54,-1486.49 868.78,-1301.84 770.21,-1235.36"/>
<polygon fill="#6666ff" stroke="#6666ff" points="772.03,-1232.37 761.78,-1229.68 768.11,-1238.17 772.03,-1232.37"/>
</g>
<!-- Metamodel::ConcreteRoleHOW&#45;&gt;Any -->
<g id="edge5" class="edge">
<title>Metamodel::ConcreteRoleHOW&#45;&gt;Any</title>
<path fill="none" stroke="#000000" d="M1444.57,-1512.5C1451.95,-1500.41 1460.31,-1486.71 1460.31,-1486.71 1460.31,-1486.71 1412.55,-1145.59 1412.55,-1145.59 1412.55,-1145.59 1552.48,-894.75 1598.65,-811.98"/>
<polygon fill="#000000" stroke="#000000" points="1601.74,-813.62 1603.56,-803.18 1595.63,-810.21 1601.74,-813.62"/>
</g>
<!-- Metamodel::ConcreteRoleHOW&#45;&gt;Metamodel::Naming -->
<g id="edge45" class="edge">
<title>Metamodel::ConcreteRoleHOW&#45;&gt;Metamodel::Naming</title>
<path fill="none" stroke="#6666ff" d="M1329.23,-1517.74C1262.52,-1509.52 1188.44,-1500.38 1188.44,-1500.38 1188.44,-1500.38 1142.54,-1486.49 1142.54,-1486.49 1142.54,-1486.49 1043.34,-1342.82 1001.53,-1282.29"/>
<polygon fill="#6666ff" stroke="#6666ff" points="1004.36,-1280.22 995.8,-1273.98 998.6,-1284.2 1004.36,-1280.22"/>
</g>
<!-- Metamodel::ConcreteRoleHOW&#45;&gt;Metamodel::Versioning -->
<g id="edge46" class="edge">
<title>Metamodel::ConcreteRoleHOW&#45;&gt;Metamodel::Versioning</title>
<path fill="none" stroke="#6666ff" d="M1444.57,-1512.5C1451.95,-1500.41 1460.31,-1486.71 1460.31,-1486.71 1460.31,-1486.71 1190.75,-1185.43 1109.54,-1094.66"/>
<polygon fill="#6666ff" stroke="#6666ff" points="1111.99,-1092.15 1102.71,-1087.03 1106.77,-1096.82 1111.99,-1092.15"/>
</g>
<!-- Metamodel::ConcreteRoleHOW&#45;&gt;Metamodel::AttributeContainer -->
<g id="edge50" class="edge">
<title>Metamodel::ConcreteRoleHOW&#45;&gt;Metamodel::AttributeContainer</title>
<path fill="none" stroke="#6666ff" d="M1288.46,-1526.45C1154.01,-1522.6 954.51,-1516.89 816.49,-1512.93"/>
<polygon fill="#6666ff" stroke="#6666ff" points="816.34,-1509.43 806.24,-1512.64 816.14,-1516.42 816.34,-1509.43"/>
</g>
<!-- Metamodel::ConcreteRoleHOW&#45;&gt;Metamodel::MethodContainer -->
<g id="edge48" class="edge">
<title>Metamodel::ConcreteRoleHOW&#45;&gt;Metamodel::MethodContainer</title>
<path fill="none" stroke="#6666ff" d="M1444.57,-1512.5C1451.95,-1500.41 1460.31,-1486.71 1460.31,-1486.71 1460.31,-1486.71 1526.24,-1256.06 1549.65,-1174.16"/>
<polygon fill="#6666ff" stroke="#6666ff" points="1553.16,-1174.64 1552.54,-1164.06 1546.43,-1172.71 1553.16,-1174.64"/>
</g>
<!-- Metamodel::ConcreteRoleHOW&#45;&gt;Metamodel::PrivateMethodContainer -->
<g id="edge47" class="edge">
<title>Metamodel::ConcreteRoleHOW&#45;&gt;Metamodel::PrivateMethodContainer</title>
<path fill="none" stroke="#6666ff" d="M1319.36,-1542.23C1218.54,-1552.5 1071.41,-1567.48 964.9,-1578.33"/>
<polygon fill="#6666ff" stroke="#6666ff" points="964.32,-1574.87 954.72,-1579.36 965.03,-1581.83 964.32,-1574.87"/>
</g>
<!-- Metamodel::ConcreteRoleHOW&#45;&gt;Metamodel::MultiMethodContainer -->
<g id="edge49" class="edge">
<title>Metamodel::ConcreteRoleHOW&#45;&gt;Metamodel::MultiMethodContainer</title>
<path fill="none" stroke="#6666ff" d="M1444.57,-1512.5C1451.95,-1500.41 1460.31,-1486.71 1460.31,-1486.71 1460.31,-1486.71 1355.89,-1118.82 1325.88,-1013.11"/>
<polygon fill="#6666ff" stroke="#6666ff" points="1329.16,-1011.84 1323.06,-1003.18 1322.42,-1013.75 1329.16,-1011.84"/>
</g>
<!-- Metamodel::ConcreteRoleHOW&#45;&gt;Metamodel::RoleContainer -->
<g id="edge51" class="edge">
<title>Metamodel::ConcreteRoleHOW&#45;&gt;Metamodel::RoleContainer</title>
<path fill="none" stroke="#6666ff" d="M1446.16,-1512.56C1499.44,-1436.5 1703.01,-1145.87 1703.01,-1145.87 1703.01,-1145.87 1665.79,-1067.38 1645.41,-1024.41"/>
<polygon fill="#6666ff" stroke="#6666ff" points="1648.55,-1022.86 1641.1,-1015.32 1642.22,-1025.86 1648.55,-1022.86"/>
</g>
</g>
</svg>
