<?xml version="1.0" encoding="UTF-8" standalone="no"?>
<!DOCTYPE svg PUBLIC "-//W3C//DTD SVG 1.1//EN"
 "http://www.w3.org/Graphics/SVG/1.1/DTD/svg11.dtd">
<!-- Generated by graphviz version 2.42.3 (0)
 -->
<!-- Title: perl6&#45;type&#45;graph Pages: 1 -->
<svg width="251pt" height="188pt"
 viewBox="0.00 0.00 251.08 188.00" xmlns="http://www.w3.org/2000/svg" xmlns:xlink="http://www.w3.org/1999/xlink">
<g id="graph0" class="graph" transform="scale(1 1) rotate(0) translate(4 184)">
<title>perl6&#45;type&#45;graph</title>
<polygon fill="white" stroke="transparent" points="-4,4 -4,-184 247.08,-184 247.08,4 -4,4"/>
<!-- CurrentThreadScheduler -->
<g id="node1" class="node">
<title>CurrentThreadScheduler</title>
<g id="a_node1"><a xlink:href="/type/CurrentThreadScheduler" xlink:title="CurrentThreadScheduler">
<ellipse fill="none" stroke="#000000" cx="121.54" cy="-18" rx="121.58" ry="18"/>
<text text-anchor="middle" x="121.54" y="-14.3" font-family="FreeSans" font-size="14.00" fill="#000000">CurrentThreadScheduler</text>
</a>
</g>
</g>
<!-- Any -->
<g id="node3" class="node">
<title>Any</title>
<g id="a_node3"><a xlink:href="/type/Any" xlink:title="Any">
<ellipse fill="none" stroke="#000000" cx="70.54" cy="-90" rx="28.7" ry="18"/>
<text text-anchor="middle" x="70.54" y="-86.3" font-family="FreeSans" font-size="14.00" fill="#000000">Any</text>
</a>
</g>
</g>
<!-- CurrentThreadScheduler&#45;&gt;Any -->
<g id="edge1" class="edge">
<title>CurrentThreadScheduler&#45;&gt;Any</title>
<path fill="none" stroke="#000000" d="M109.19,-35.95C102.87,-44.62 95.07,-55.33 88.13,-64.85"/>
<polygon fill="#000000" stroke="#000000" points="85.13,-63.03 82.07,-73.17 90.79,-67.15 85.13,-63.03"/>
</g>
<!-- Scheduler -->
<g id="node4" class="node">
<title>Scheduler</title>
<g id="a_node4"><a xlink:href="/type/Scheduler" xlink:title="Scheduler">
<ellipse fill="none" stroke="#6666ff" cx="172.54" cy="-90" rx="55.79" ry="18"/>
<text text-anchor="middle" x="172.54" y="-86.3" font-family="FreeSans" font-size="14.00" fill="#6666ff">Scheduler</text>
</a>
</g>
</g>
<!-- CurrentThreadScheduler&#45;&gt;Scheduler -->
<g id="edge3" class="edge">
<title>CurrentThreadScheduler&#45;&gt;Scheduler</title>
<path fill="none" stroke="#6666ff" d="M133.88,-35.95C140.02,-44.37 147.56,-54.72 154.35,-64.03"/>
<polygon fill="#6666ff" stroke="#6666ff" points="151.59,-66.19 160.31,-72.21 157.25,-62.07 151.59,-66.19"/>
</g>
<!-- Mu -->
<g id="node2" class="node">
<title>Mu</title>
<g id="a_node2"><a xlink:href="/type/Mu" xlink:title="Mu">
<ellipse fill="none" stroke="#000000" cx="70.54" cy="-162" rx="27" ry="18"/>
<text text-anchor="middle" x="70.54" y="-158.3" font-family="FreeSans" font-size="14.00" fill="#000000">Mu</text>
</a>
</g>
</g>
<!-- Any&#45;&gt;Mu -->
<g id="edge2" class="edge">
<title>Any&#45;&gt;Mu</title>
<path fill="none" stroke="#000000" d="M70.54,-108.3C70.54,-116.02 70.54,-125.29 70.54,-133.89"/>
<polygon fill="#000000" stroke="#000000" points="67.04,-133.9 70.54,-143.9 74.04,-133.9 67.04,-133.9"/>
</g>
</g>
</svg>
