<?xml version="1.0" encoding="UTF-8" standalone="no"?>
<!DOCTYPE svg PUBLIC "-//W3C//DTD SVG 1.1//EN"
 "http://www.w3.org/Graphics/SVG/1.1/DTD/svg11.dtd">
<!-- Generated by graphviz version 2.42.3 (0)
 -->
<!-- Title: perl6&#45;type&#45;graph Pages: 1 -->
<svg width="170pt" height="260pt"
 viewBox="0.00 0.00 170.49 260.00" xmlns="http://www.w3.org/2000/svg" xmlns:xlink="http://www.w3.org/1999/xlink">
<g id="graph0" class="graph" transform="scale(1 1) rotate(0) translate(4 256)">
<title>perl6&#45;type&#45;graph</title>
<polygon fill="white" stroke="transparent" points="-4,4 -4,-256 166.49,-256 166.49,4 -4,4"/>
<!-- X::Cannot::Lazy -->
<g id="node1" class="node">
<title>X::Cannot::Lazy</title>
<g id="a_node1"><a xlink:href="/type/X::Cannot::Lazy" xlink:title="X::Cannot::Lazy">
<ellipse fill="none" stroke="#000000" cx="81.24" cy="-18" rx="81.49" ry="18"/>
<text text-anchor="middle" x="81.24" y="-14.3" font-family="FreeSans" font-size="14.00" fill="#000000">X::Cannot::Lazy</text>
</a>
</g>
</g>
<!-- Exception -->
<g id="node4" class="node">
<title>Exception</title>
<g id="a_node4"><a xlink:href="/type/Exception" xlink:title="Exception">
<ellipse fill="none" stroke="#000000" cx="81.24" cy="-90" rx="55.49" ry="18"/>
<text text-anchor="middle" x="81.24" y="-86.3" font-family="FreeSans" font-size="14.00" fill="#000000">Exception</text>
</a>
</g>
</g>
<!-- X::Cannot::Lazy&#45;&gt;Exception -->
<g id="edge1" class="edge">
<title>X::Cannot::Lazy&#45;&gt;Exception</title>
<path fill="none" stroke="#000000" d="M81.24,-36.3C81.24,-44.02 81.24,-53.29 81.24,-61.89"/>
<polygon fill="#000000" stroke="#000000" points="77.74,-61.9 81.24,-71.9 84.74,-61.9 77.74,-61.9"/>
</g>
<!-- Mu -->
<g id="node2" class="node">
<title>Mu</title>
<g id="a_node2"><a xlink:href="/type/Mu" xlink:title="Mu">
<ellipse fill="none" stroke="#000000" cx="81.24" cy="-234" rx="27" ry="18"/>
<text text-anchor="middle" x="81.24" y="-230.3" font-family="FreeSans" font-size="14.00" fill="#000000">Mu</text>
</a>
</g>
</g>
<!-- Any -->
<g id="node3" class="node">
<title>Any</title>
<g id="a_node3"><a xlink:href="/type/Any" xlink:title="Any">
<ellipse fill="none" stroke="#000000" cx="81.24" cy="-162" rx="28.7" ry="18"/>
<text text-anchor="middle" x="81.24" y="-158.3" font-family="FreeSans" font-size="14.00" fill="#000000">Any</text>
</a>
</g>
</g>
<!-- Any&#45;&gt;Mu -->
<g id="edge2" class="edge">
<title>Any&#45;&gt;Mu</title>
<path fill="none" stroke="#000000" d="M81.24,-180.3C81.24,-188.02 81.24,-197.29 81.24,-205.89"/>
<polygon fill="#000000" stroke="#000000" points="77.74,-205.9 81.24,-215.9 84.74,-205.9 77.74,-205.9"/>
</g>
<!-- Exception&#45;&gt;Any -->
<g id="edge3" class="edge">
<title>Exception&#45;&gt;Any</title>
<path fill="none" stroke="#000000" d="M81.24,-108.3C81.24,-116.02 81.24,-125.29 81.24,-133.89"/>
<polygon fill="#000000" stroke="#000000" points="77.74,-133.9 81.24,-143.9 84.74,-133.9 77.74,-133.9"/>
</g>
</g>
</svg>
