<?xml version="1.0" encoding="UTF-8" standalone="no"?>
<!DOCTYPE svg PUBLIC "-//W3C//DTD SVG 1.1//EN"
 "http://www.w3.org/Graphics/SVG/1.1/DTD/svg11.dtd">
<!-- Generated by graphviz version 2.42.3 (0)
 -->
<!-- Title: perl6&#45;type&#45;graph Pages: 1 -->
<svg width="376pt" height="332pt"
 viewBox="0.00 0.00 375.87 332.00" xmlns="http://www.w3.org/2000/svg" xmlns:xlink="http://www.w3.org/1999/xlink">
<g id="graph0" class="graph" transform="scale(1 1) rotate(0) translate(4 328)">
<title>perl6&#45;type&#45;graph</title>
<polygon fill="white" stroke="transparent" points="-4,4 -4,-328 371.87,-328 371.87,4 -4,4"/>
<!-- X::Parameter::MultipleTypeConstraints -->
<g id="node1" class="node">
<title>X::Parameter::MultipleTypeConstraints</title>
<g id="a_node1"><a xlink:href="/type/X::Parameter::MultipleTypeConstraints" xlink:title="X::Parameter::MultipleTypeConstraints">
<ellipse fill="none" stroke="#000000" cx="183.93" cy="-18" rx="183.87" ry="18"/>
<text text-anchor="middle" x="183.93" y="-14.3" font-family="FreeSans" font-size="14.00" fill="#000000">X::Parameter::MultipleTypeConstraints</text>
</a>
</g>
</g>
<!-- Exception -->
<g id="node4" class="node">
<title>Exception</title>
<g id="a_node4"><a xlink:href="/type/Exception" xlink:title="Exception">
<ellipse fill="none" stroke="#000000" cx="183.93" cy="-162" rx="55.49" ry="18"/>
<text text-anchor="middle" x="183.93" y="-158.3" font-family="FreeSans" font-size="14.00" fill="#000000">Exception</text>
</a>
</g>
</g>
<!-- X::Parameter::MultipleTypeConstraints&#45;&gt;Exception -->
<g id="edge1" class="edge">
<title>X::Parameter::MultipleTypeConstraints&#45;&gt;Exception</title>
<path fill="none" stroke="#000000" d="M177.82,-36.06C172.26,-51.55 164.93,-72 164.93,-72 164.93,-72 164.93,-108 164.93,-108 164.93,-108 169.68,-121.24 174.43,-134.48"/>
<polygon fill="#000000" stroke="#000000" points="171.15,-135.71 177.82,-143.94 177.74,-133.34 171.15,-135.71"/>
</g>
<!-- X::Comp -->
<g id="node5" class="node">
<title>X::Comp</title>
<g id="a_node5"><a xlink:href="/type/X::Comp" xlink:title="X::Comp">
<ellipse fill="none" stroke="#6666ff" cx="222.93" cy="-90" rx="49.29" ry="18"/>
<text text-anchor="middle" x="222.93" y="-86.3" font-family="FreeSans" font-size="14.00" fill="#6666ff">X::Comp</text>
</a>
</g>
</g>
<!-- X::Parameter::MultipleTypeConstraints&#45;&gt;X::Comp -->
<g id="edge5" class="edge">
<title>X::Parameter::MultipleTypeConstraints&#45;&gt;X::Comp</title>
<path fill="none" stroke="#6666ff" d="M193.57,-36.3C198.06,-44.36 203.49,-54.11 208.46,-63.02"/>
<polygon fill="#6666ff" stroke="#6666ff" points="205.48,-64.86 213.4,-71.9 211.59,-61.46 205.48,-64.86"/>
</g>
<!-- Mu -->
<g id="node2" class="node">
<title>Mu</title>
<g id="a_node2"><a xlink:href="/type/Mu" xlink:title="Mu">
<ellipse fill="none" stroke="#000000" cx="183.93" cy="-306" rx="27" ry="18"/>
<text text-anchor="middle" x="183.93" y="-302.3" font-family="FreeSans" font-size="14.00" fill="#000000">Mu</text>
</a>
</g>
</g>
<!-- Any -->
<g id="node3" class="node">
<title>Any</title>
<g id="a_node3"><a xlink:href="/type/Any" xlink:title="Any">
<ellipse fill="none" stroke="#000000" cx="183.93" cy="-234" rx="28.7" ry="18"/>
<text text-anchor="middle" x="183.93" y="-230.3" font-family="FreeSans" font-size="14.00" fill="#000000">Any</text>
</a>
</g>
</g>
<!-- Any&#45;&gt;Mu -->
<g id="edge2" class="edge">
<title>Any&#45;&gt;Mu</title>
<path fill="none" stroke="#000000" d="M183.93,-252.3C183.93,-260.02 183.93,-269.29 183.93,-277.89"/>
<polygon fill="#000000" stroke="#000000" points="180.43,-277.9 183.93,-287.9 187.43,-277.9 180.43,-277.9"/>
</g>
<!-- Exception&#45;&gt;Any -->
<g id="edge3" class="edge">
<title>Exception&#45;&gt;Any</title>
<path fill="none" stroke="#000000" d="M183.93,-180.3C183.93,-188.02 183.93,-197.29 183.93,-205.89"/>
<polygon fill="#000000" stroke="#000000" points="180.43,-205.9 183.93,-215.9 187.43,-205.9 180.43,-205.9"/>
</g>
<!-- X::Comp&#45;&gt;Exception -->
<g id="edge4" class="edge">
<title>X::Comp&#45;&gt;Exception</title>
<path fill="none" stroke="#000000" d="M213.49,-107.95C208.89,-116.2 203.27,-126.3 198.16,-135.46"/>
<polygon fill="#000000" stroke="#000000" points="195.1,-133.77 193.29,-144.21 201.21,-137.18 195.1,-133.77"/>
</g>
</g>
</svg>
