<?xml version="1.0" encoding="UTF-8" standalone="no"?>
<!DOCTYPE svg PUBLIC "-//W3C//DTD SVG 1.1//EN"
 "http://www.w3.org/Graphics/SVG/1.1/DTD/svg11.dtd">
<!-- Generated by graphviz version 2.42.3 (0)
 -->
<!-- Title: perl6&#45;type&#45;graph Pages: 1 -->
<svg width="276pt" height="404pt"
 viewBox="0.00 0.00 275.64 404.00" xmlns="http://www.w3.org/2000/svg" xmlns:xlink="http://www.w3.org/1999/xlink">
<g id="graph0" class="graph" transform="scale(1 1) rotate(0) translate(4 400)">
<title>perl6&#45;type&#45;graph</title>
<polygon fill="white" stroke="transparent" points="-4,4 -4,-400 271.64,-400 271.64,4 -4,4"/>
<!-- X::Syntax::Missing -->
<g id="node1" class="node">
<title>X::Syntax::Missing</title>
<g id="a_node1"><a xlink:href="/type/X::Syntax::Missing" xlink:title="X::Syntax::Missing">
<ellipse fill="none" stroke="#000000" cx="94.24" cy="-18" rx="94.48" ry="18"/>
<text text-anchor="middle" x="94.24" y="-14.3" font-family="FreeSans" font-size="14.00" fill="#000000">X::Syntax::Missing</text>
</a>
</g>
</g>
<!-- Exception -->
<g id="node4" class="node">
<title>Exception</title>
<g id="a_node4"><a xlink:href="/type/Exception" xlink:title="Exception">
<ellipse fill="none" stroke="#000000" cx="117.24" cy="-234" rx="55.49" ry="18"/>
<text text-anchor="middle" x="117.24" y="-230.3" font-family="FreeSans" font-size="14.00" fill="#000000">Exception</text>
</a>
</g>
</g>
<!-- X::Syntax::Missing&#45;&gt;Exception -->
<g id="edge1" class="edge">
<title>X::Syntax::Missing&#45;&gt;Exception</title>
<path fill="none" stroke="#000000" d="M92.21,-36.15C92.65,-73.34 101.88,-161.63 109.71,-206.23"/>
<polygon fill="#000000" stroke="#000000" points="106.28,-206.88 111.56,-216.06 113.15,-205.59 106.28,-206.88"/>
</g>
<!-- X::Syntax::Missing&#45;&gt;Exception -->
<g id="edge2" class="edge">
<title>X::Syntax::Missing&#45;&gt;Exception</title>
<path fill="none" stroke="#000000" d="M99.96,-36.15C107.48,-73.17 117.17,-160.82 118.99,-205.61"/>
<polygon fill="#000000" stroke="#000000" points="115.5,-205.87 119.27,-215.77 122.49,-205.67 115.5,-205.87"/>
</g>
<!-- X::Syntax -->
<g id="node6" class="node">
<title>X::Syntax</title>
<g id="a_node6"><a xlink:href="/type/X::Syntax" xlink:title="X::Syntax">
<ellipse fill="none" stroke="#6666ff" cx="185.24" cy="-90" rx="53.89" ry="18"/>
<text text-anchor="middle" x="185.24" y="-86.3" font-family="FreeSans" font-size="14.00" fill="#6666ff">X::Syntax</text>
</a>
</g>
</g>
<!-- X::Syntax::Missing&#45;&gt;X::Syntax -->
<g id="edge7" class="edge">
<title>X::Syntax::Missing&#45;&gt;X::Syntax</title>
<path fill="none" stroke="#6666ff" d="M115.81,-35.59C127.97,-44.94 143.31,-56.75 156.48,-66.88"/>
<polygon fill="#6666ff" stroke="#6666ff" points="154.71,-69.93 164.77,-73.25 158.98,-64.38 154.71,-69.93"/>
</g>
<!-- Mu -->
<g id="node2" class="node">
<title>Mu</title>
<g id="a_node2"><a xlink:href="/type/Mu" xlink:title="Mu">
<ellipse fill="none" stroke="#000000" cx="117.24" cy="-378" rx="27" ry="18"/>
<text text-anchor="middle" x="117.24" y="-374.3" font-family="FreeSans" font-size="14.00" fill="#000000">Mu</text>
</a>
</g>
</g>
<!-- Any -->
<g id="node3" class="node">
<title>Any</title>
<g id="a_node3"><a xlink:href="/type/Any" xlink:title="Any">
<ellipse fill="none" stroke="#000000" cx="117.24" cy="-306" rx="28.7" ry="18"/>
<text text-anchor="middle" x="117.24" y="-302.3" font-family="FreeSans" font-size="14.00" fill="#000000">Any</text>
</a>
</g>
</g>
<!-- Any&#45;&gt;Mu -->
<g id="edge3" class="edge">
<title>Any&#45;&gt;Mu</title>
<path fill="none" stroke="#000000" d="M117.24,-324.3C117.24,-332.02 117.24,-341.29 117.24,-349.89"/>
<polygon fill="#000000" stroke="#000000" points="113.74,-349.9 117.24,-359.9 120.74,-349.9 113.74,-349.9"/>
</g>
<!-- Exception&#45;&gt;Any -->
<g id="edge4" class="edge">
<title>Exception&#45;&gt;Any</title>
<path fill="none" stroke="#000000" d="M117.24,-252.3C117.24,-260.02 117.24,-269.29 117.24,-277.89"/>
<polygon fill="#000000" stroke="#000000" points="113.74,-277.9 117.24,-287.9 120.74,-277.9 113.74,-277.9"/>
</g>
<!-- X::Comp -->
<g id="node5" class="node">
<title>X::Comp</title>
<g id="a_node5"><a xlink:href="/type/X::Comp" xlink:title="X::Comp">
<ellipse fill="none" stroke="#6666ff" cx="218.24" cy="-162" rx="49.29" ry="18"/>
<text text-anchor="middle" x="218.24" y="-158.3" font-family="FreeSans" font-size="14.00" fill="#6666ff">X::Comp</text>
</a>
</g>
</g>
<!-- X::Comp&#45;&gt;Exception -->
<g id="edge5" class="edge">
<title>X::Comp&#45;&gt;Exception</title>
<path fill="none" stroke="#000000" d="M196.33,-178.19C182.23,-187.96 163.7,-200.8 148.12,-211.6"/>
<polygon fill="#000000" stroke="#000000" points="146.04,-208.78 139.81,-217.36 150.03,-214.54 146.04,-208.78"/>
</g>
<!-- X::Syntax&#45;&gt;Exception -->
<g id="edge6" class="edge">
<title>X::Syntax&#45;&gt;Exception</title>
<path fill="none" stroke="#000000" d="M177.17,-107.85C165.42,-132.4 143.47,-178.23 129.65,-207.09"/>
<polygon fill="#000000" stroke="#000000" points="126.46,-205.64 125.3,-216.18 132.77,-208.67 126.46,-205.64"/>
</g>
<!-- X::Syntax&#45;&gt;X::Comp -->
<g id="edge8" class="edge">
<title>X::Syntax&#45;&gt;X::Comp</title>
<path fill="none" stroke="#6666ff" d="M193.23,-107.95C197.04,-116.03 201.68,-125.88 205.93,-134.89"/>
<polygon fill="#6666ff" stroke="#6666ff" points="202.9,-136.66 210.33,-144.21 209.23,-133.67 202.9,-136.66"/>
</g>
</g>
</svg>
