<?xml version="1.0" encoding="UTF-8" standalone="no"?>
<!DOCTYPE svg PUBLIC "-//W3C//DTD SVG 1.1//EN"
 "http://www.w3.org/Graphics/SVG/1.1/DTD/svg11.dtd">
<!-- Generated by graphviz version 2.42.3 (0)
 -->
<!-- Title: perl6&#45;type&#45;graph Pages: 1 -->
<svg width="843pt" height="95pt"
 viewBox="0.00 0.00 843.22 95.48" xmlns="http://www.w3.org/2000/svg" xmlns:xlink="http://www.w3.org/1999/xlink">
<g id="graph0" class="graph" transform="scale(1 1) rotate(0) translate(4 91.48)">
<title>perl6&#45;type&#45;graph</title>
<polygon fill="white" stroke="transparent" points="-4,4 -4,-91.48 839.22,-91.48 839.22,4 -4,4"/>
<!-- X::Composition::NotComposable -->
<g id="node1" class="node">
<title>X::Composition::NotComposable</title>
<g id="a_node1"><a xlink:href="/type/X::Composition::NotComposable" xlink:title="X::Composition::NotComposable">
<ellipse fill="none" stroke="#000000" cx="155.99" cy="-59.93" rx="155.97" ry="18"/>
<text text-anchor="middle" x="155.99" y="-56.23" font-family="FreeSans" font-size="14.00" fill="#000000">X::Composition::NotComposable</text>
</a>
</g>
</g>
<!-- Exception -->
<g id="node4" class="node">
<title>Exception</title>
<g id="a_node4"><a xlink:href="/type/Exception" xlink:title="Exception">
<ellipse fill="none" stroke="#000000" cx="375.24" cy="-69.48" rx="55.49" ry="18"/>
<text text-anchor="middle" x="375.24" y="-65.78" font-family="FreeSans" font-size="14.00" fill="#000000">Exception</text>
</a>
</g>
</g>
<!-- X::Composition::NotComposable&#45;&gt;Exception -->
<g id="edge1" class="edge">
<title>X::Composition::NotComposable&#45;&gt;Exception</title>
<path fill="none" stroke="#000000" d="M301.93,-66.29C304.69,-66.41 307.41,-66.53 310.09,-66.64"/>
<polygon fill="#000000" stroke="#000000" points="310.06,-70.15 320.2,-67.09 310.37,-63.15 310.06,-70.15"/>
</g>
<!-- Mu -->
<g id="node2" class="node">
<title>Mu</title>
<g id="a_node2"><a xlink:href="/type/Mu" xlink:title="Mu">
<ellipse fill="none" stroke="#000000" cx="808.22" cy="-18" rx="27" ry="18"/>
<text text-anchor="middle" x="808.22" y="-14.3" font-family="FreeSans" font-size="14.00" fill="#000000">Mu</text>
</a>
</g>
</g>
<!-- Any -->
<g id="node3" class="node">
<title>Any</title>
<g id="a_node3"><a xlink:href="/type/Any" xlink:title="Any">
<ellipse fill="none" stroke="#000000" cx="589.01" cy="-18.32" rx="28.7" ry="18"/>
<text text-anchor="middle" x="589.01" y="-14.62" font-family="FreeSans" font-size="14.00" fill="#000000">Any</text>
</a>
</g>
</g>
<!-- Any&#45;&gt;Mu -->
<g id="edge2" class="edge">
<title>Any&#45;&gt;Mu</title>
<path fill="none" stroke="#000000" d="M617.66,-18.27C656.9,-18.22 727.42,-18.12 770.79,-18.05"/>
<polygon fill="#000000" stroke="#000000" points="770.94,-21.55 780.93,-18.04 770.93,-14.55 770.94,-21.55"/>
</g>
<!-- Exception&#45;&gt;Any -->
<g id="edge3" class="edge">
<title>Exception&#45;&gt;Any</title>
<path fill="none" stroke="#000000" d="M419.79,-58.82C459.05,-49.42 515.55,-35.9 552.27,-27.11"/>
<polygon fill="#000000" stroke="#000000" points="553.16,-30.49 562.07,-24.76 551.53,-23.69 553.16,-30.49"/>
</g>
</g>
</svg>
