<?xml version="1.0" encoding="UTF-8" standalone="no"?>
<!DOCTYPE svg PUBLIC "-//W3C//DTD SVG 1.1//EN"
 "http://www.w3.org/Graphics/SVG/1.1/DTD/svg11.dtd">
<!-- Generated by graphviz version 2.42.3 (0)
 -->
<!-- Title: perl6&#45;type&#45;graph Pages: 1 -->
<svg width="867pt" height="874pt"
 viewBox="0.00 0.00 867.27 874.01" xmlns="http://www.w3.org/2000/svg" xmlns:xlink="http://www.w3.org/1999/xlink">
<g id="graph0" class="graph" transform="scale(1 1) rotate(0) translate(4 870.01)">
<title>perl6&#45;type&#45;graph</title>
<polygon fill="white" stroke="transparent" points="-4,4 -4,-870.01 863.27,-870.01 863.27,4 -4,4"/>
<!-- Metamodel::BaseDispatcher -->
<g id="node1" class="node">
<title>Metamodel::BaseDispatcher</title>
<g id="a_node1"><a xlink:href="/type/Metamodel::BaseDispatcher" xlink:title="Metamodel::BaseDispatcher">
<ellipse fill="none" stroke="#000000" cx="442.84" cy="-564.48" rx="137.28" ry="18"/>
<text text-anchor="middle" x="442.84" y="-560.78" font-family="FreeSans" font-size="14.00" fill="#000000">Metamodel::BaseDispatcher</text>
</a>
</g>
</g>
<!-- Any -->
<g id="node3" class="node">
<title>Any</title>
<g id="a_node3"><a xlink:href="/type/Any" xlink:title="Any">
<ellipse fill="none" stroke="#000000" cx="491.24" cy="-280.32" rx="28.7" ry="18"/>
<text text-anchor="middle" x="491.24" y="-276.62" font-family="FreeSans" font-size="14.00" fill="#000000">Any</text>
</a>
</g>
</g>
<!-- Metamodel::BaseDispatcher&#45;&gt;Any -->
<g id="edge1" class="edge">
<title>Metamodel::BaseDispatcher&#45;&gt;Any</title>
<path fill="none" stroke="#000000" d="M445.94,-546.28C454.17,-497.96 476.61,-366.23 486.48,-308.3"/>
<polygon fill="#000000" stroke="#000000" points="489.94,-308.82 488.17,-298.37 483.04,-307.64 489.94,-308.82"/>
</g>
<!-- Mu -->
<g id="node2" class="node">
<title>Mu</title>
<g id="a_node2"><a xlink:href="/type/Mu" xlink:title="Mu">
<ellipse fill="none" stroke="#000000" cx="555.77" cy="-18" rx="27" ry="18"/>
<text text-anchor="middle" x="555.77" y="-14.3" font-family="FreeSans" font-size="14.00" fill="#000000">Mu</text>
</a>
</g>
</g>
<!-- Any&#45;&gt;Mu -->
<g id="edge2" class="edge">
<title>Any&#45;&gt;Mu</title>
<path fill="none" stroke="#000000" d="M495.68,-262.29C506.76,-217.25 535.7,-99.6 548.95,-45.7"/>
<polygon fill="#000000" stroke="#000000" points="552.4,-46.36 551.39,-35.81 545.6,-44.68 552.4,-46.36"/>
</g>
<!-- Metamodel::MethodDispatcher -->
<g id="node4" class="node">
<title>Metamodel::MethodDispatcher</title>
<g id="a_node4"><a xlink:href="/type/Metamodel::MethodDispatcher" xlink:title="Metamodel::MethodDispatcher">
<ellipse fill="none" stroke="#000000" cx="148.84" cy="-554.43" rx="148.67" ry="18"/>
<text text-anchor="middle" x="148.84" y="-550.73" font-family="FreeSans" font-size="14.00" fill="#000000">Metamodel::MethodDispatcher</text>
</a>
</g>
</g>
<!-- Metamodel::MethodDispatcher&#45;&gt;Metamodel::BaseDispatcher -->
<g id="edge3" class="edge">
<title>Metamodel::MethodDispatcher&#45;&gt;Metamodel::BaseDispatcher</title>
<path fill="none" stroke="#000000" d="M292.39,-559.34C294.85,-559.42 297.31,-559.51 299.77,-559.59"/>
<polygon fill="#000000" stroke="#000000" points="299.76,-563.09 309.87,-559.94 300,-556.1 299.76,-563.09"/>
</g>
<!-- Metamodel::MultiDispatcher -->
<g id="node5" class="node">
<title>Metamodel::MultiDispatcher</title>
<g id="a_node5"><a xlink:href="/type/Metamodel::MultiDispatcher" xlink:title="Metamodel::MultiDispatcher">
<ellipse fill="none" stroke="#000000" cx="722.13" cy="-656.36" rx="137.28" ry="18"/>
<text text-anchor="middle" x="722.13" y="-652.66" font-family="FreeSans" font-size="14.00" fill="#000000">Metamodel::MultiDispatcher</text>
</a>
</g>
</g>
<!-- Metamodel::MultiDispatcher&#45;&gt;Metamodel::BaseDispatcher -->
<g id="edge4" class="edge">
<title>Metamodel::MultiDispatcher&#45;&gt;Metamodel::BaseDispatcher</title>
<path fill="none" stroke="#000000" d="M671.23,-639.61C624.03,-624.09 553.73,-600.96 503.61,-584.47"/>
<polygon fill="#000000" stroke="#000000" points="504.46,-581.07 493.86,-581.27 502.27,-587.72 504.46,-581.07"/>
</g>
<!-- Metamodel::WrapDispatcher -->
<g id="node6" class="node">
<title>Metamodel::WrapDispatcher</title>
<g id="a_node6"><a xlink:href="/type/Metamodel::WrapDispatcher" xlink:title="Metamodel::WrapDispatcher">
<ellipse fill="none" stroke="#000000" cx="393.48" cy="-848.01" rx="138.38" ry="18"/>
<text text-anchor="middle" x="393.48" y="-844.31" font-family="FreeSans" font-size="14.00" fill="#000000">Metamodel::WrapDispatcher</text>
</a>
</g>
</g>
<!-- Metamodel::WrapDispatcher&#45;&gt;Metamodel::BaseDispatcher -->
<g id="edge5" class="edge">
<title>Metamodel::WrapDispatcher&#45;&gt;Metamodel::BaseDispatcher</title>
<path fill="none" stroke="#000000" d="M396.64,-829.85C405.04,-781.64 427.92,-650.21 437.98,-592.4"/>
<polygon fill="#000000" stroke="#000000" points="441.44,-592.95 439.7,-582.5 434.54,-591.75 441.44,-592.95"/>
</g>
</g>
</svg>
