<?xml version="1.0" encoding="UTF-8" standalone="no"?>
<!DOCTYPE svg PUBLIC "-//W3C//DTD SVG 1.1//EN"
 "http://www.w3.org/Graphics/SVG/1.1/DTD/svg11.dtd">
<!-- Generated by graphviz version 2.42.3 (0)
 -->
<!-- Title: perl6&#45;type&#45;graph Pages: 1 -->
<svg width="180pt" height="332pt"
 viewBox="0.00 0.00 179.69 332.00" xmlns="http://www.w3.org/2000/svg" xmlns:xlink="http://www.w3.org/1999/xlink">
<g id="graph0" class="graph" transform="scale(1 1) rotate(0) translate(4 328)">
<title>perl6&#45;type&#45;graph</title>
<polygon fill="white" stroke="transparent" points="-4,4 -4,-328 175.69,-328 175.69,4 -4,4"/>
<!-- Capture -->
<g id="node1" class="node">
<title>Capture</title>
<g id="a_node1"><a xlink:href="/type/Capture" xlink:title="Capture">
<ellipse fill="none" stroke="#000000" cx="46.15" cy="-162" rx="46.29" ry="18"/>
<text text-anchor="middle" x="46.15" y="-158.3" font-family="FreeSans" font-size="14.00" fill="#000000">Capture</text>
</a>
</g>
</g>
<!-- Any -->
<g id="node3" class="node">
<title>Any</title>
<g id="a_node3"><a xlink:href="/type/Any" xlink:title="Any">
<ellipse fill="none" stroke="#000000" cx="93.15" cy="-234" rx="28.7" ry="18"/>
<text text-anchor="middle" x="93.15" y="-230.3" font-family="FreeSans" font-size="14.00" fill="#000000">Any</text>
</a>
</g>
</g>
<!-- Capture&#45;&gt;Any -->
<g id="edge1" class="edge">
<title>Capture&#45;&gt;Any</title>
<path fill="none" stroke="#000000" d="M57.28,-179.59C63.1,-188.26 70.34,-199.03 76.78,-208.62"/>
<polygon fill="#000000" stroke="#000000" points="73.93,-210.66 82.41,-217.01 79.74,-206.76 73.93,-210.66"/>
</g>
<!-- Mu -->
<g id="node2" class="node">
<title>Mu</title>
<g id="a_node2"><a xlink:href="/type/Mu" xlink:title="Mu">
<ellipse fill="none" stroke="#000000" cx="93.15" cy="-306" rx="27" ry="18"/>
<text text-anchor="middle" x="93.15" y="-302.3" font-family="FreeSans" font-size="14.00" fill="#000000">Mu</text>
</a>
</g>
</g>
<!-- Any&#45;&gt;Mu -->
<g id="edge2" class="edge">
<title>Any&#45;&gt;Mu</title>
<path fill="none" stroke="#000000" d="M93.15,-252.3C93.15,-260.02 93.15,-269.29 93.15,-277.89"/>
<polygon fill="#000000" stroke="#000000" points="89.65,-277.9 93.15,-287.9 96.65,-277.9 89.65,-277.9"/>
</g>
<!-- Cool -->
<g id="node4" class="node">
<title>Cool</title>
<g id="a_node4"><a xlink:href="/type/Cool" xlink:title="Cool">
<ellipse fill="none" stroke="#000000" cx="141.15" cy="-162" rx="30.59" ry="18"/>
<text text-anchor="middle" x="141.15" y="-158.3" font-family="FreeSans" font-size="14.00" fill="#000000">Cool</text>
</a>
</g>
</g>
<!-- Cool&#45;&gt;Any -->
<g id="edge3" class="edge">
<title>Cool&#45;&gt;Any</title>
<path fill="none" stroke="#000000" d="M130.25,-178.88C124.18,-187.74 116.49,-198.96 109.68,-208.88"/>
<polygon fill="#000000" stroke="#000000" points="106.76,-206.95 103.99,-217.18 112.54,-210.91 106.76,-206.95"/>
</g>
<!-- Match -->
<g id="node5" class="node">
<title>Match</title>
<g id="a_node5"><a xlink:href="/type/Match" xlink:title="Match">
<ellipse fill="none" stroke="#000000" cx="93.15" cy="-90" rx="38.19" ry="18"/>
<text text-anchor="middle" x="93.15" y="-86.3" font-family="FreeSans" font-size="14.00" fill="#000000">Match</text>
</a>
</g>
</g>
<!-- Match&#45;&gt;Capture -->
<g id="edge4" class="edge">
<title>Match&#45;&gt;Capture</title>
<path fill="none" stroke="#000000" d="M82.01,-107.59C76.41,-115.92 69.51,-126.2 63.26,-135.51"/>
<polygon fill="#000000" stroke="#000000" points="60.2,-133.79 57.53,-144.04 66.01,-137.69 60.2,-133.79"/>
</g>
<!-- Match&#45;&gt;Cool -->
<g id="edge5" class="edge">
<title>Match&#45;&gt;Cool</title>
<path fill="none" stroke="#000000" d="M104.28,-107.24C110.22,-115.89 117.64,-126.73 124.27,-136.4"/>
<polygon fill="#000000" stroke="#000000" points="121.53,-138.58 130.07,-144.85 127.3,-134.63 121.53,-138.58"/>
</g>
<!-- Grammar -->
<g id="node6" class="node">
<title>Grammar</title>
<g id="a_node6"><a xlink:href="/type/Grammar" xlink:title="Grammar">
<ellipse fill="none" stroke="#000000" cx="93.15" cy="-18" rx="53.89" ry="18"/>
<text text-anchor="middle" x="93.15" y="-14.3" font-family="FreeSans" font-size="14.00" fill="#000000">Grammar</text>
</a>
</g>
</g>
<!-- Grammar&#45;&gt;Match -->
<g id="edge6" class="edge">
<title>Grammar&#45;&gt;Match</title>
<path fill="none" stroke="#000000" d="M93.15,-36.3C93.15,-44.02 93.15,-53.29 93.15,-61.89"/>
<polygon fill="#000000" stroke="#000000" points="89.65,-61.9 93.15,-71.9 96.65,-61.9 89.65,-61.9"/>
</g>
</g>
</svg>
