<?xml version="1.0" encoding="UTF-8" standalone="no"?>
<!DOCTYPE svg PUBLIC "-//W3C//DTD SVG 1.1//EN"
 "http://www.w3.org/Graphics/SVG/1.1/DTD/svg11.dtd">
<!-- Generated by graphviz version 2.42.3 (0)
 -->
<!-- Title: perl6&#45;type&#45;graph Pages: 1 -->
<svg width="797pt" height="416pt"
 viewBox="0.00 0.00 797.47 415.67" xmlns="http://www.w3.org/2000/svg" xmlns:xlink="http://www.w3.org/1999/xlink">
<g id="graph0" class="graph" transform="scale(1 1) rotate(0) translate(4 411.67)">
<title>perl6&#45;type&#45;graph</title>
<polygon fill="white" stroke="transparent" points="-4,4 -4,-411.67 793.47,-411.67 793.47,4 -4,4"/>
<!-- X::Comp::Trait::NotOnNative -->
<g id="node1" class="node">
<title>X::Comp::Trait::NotOnNative</title>
<g id="a_node1"><a xlink:href="/type/X::Comp::Trait::NotOnNative" xlink:title="X::Comp::Trait::NotOnNative">
<ellipse fill="none" stroke="#000000" cx="137.79" cy="-194.67" rx="137.58" ry="18"/>
<text text-anchor="middle" x="137.79" y="-190.97" font-family="FreeSans" font-size="14.00" fill="#000000">X::Comp::Trait::NotOnNative</text>
</a>
</g>
</g>
<!-- Exception -->
<g id="node4" class="node">
<title>Exception</title>
<g id="a_node4"><a xlink:href="/type/Exception" xlink:title="Exception">
<ellipse fill="none" stroke="#000000" cx="338.84" cy="-217.18" rx="55.49" ry="18"/>
<text text-anchor="middle" x="338.84" y="-213.48" font-family="FreeSans" font-size="14.00" fill="#000000">Exception</text>
</a>
</g>
</g>
<!-- X::Comp::Trait::NotOnNative&#45;&gt;Exception -->
<g id="edge2" class="edge">
<title>X::Comp::Trait::NotOnNative&#45;&gt;Exception</title>
<path fill="none" stroke="#000000" d="M242.44,-206.39C254.01,-207.68 265.5,-208.97 276.31,-210.18"/>
<polygon fill="#000000" stroke="#000000" points="276.12,-213.68 286.44,-211.31 276.89,-206.72 276.12,-213.68"/>
</g>
<!-- X::Trait::NotOnNative -->
<g id="node5" class="node">
<title>X::Trait::NotOnNative</title>
<g id="a_node5"><a xlink:href="/type/X::Trait::NotOnNative" xlink:title="X::Trait::NotOnNative">
<ellipse fill="none" stroke="#000000" cx="240.28" cy="-18" rx="105.08" ry="18"/>
<text text-anchor="middle" x="240.28" y="-14.3" font-family="FreeSans" font-size="14.00" fill="#000000">X::Trait::NotOnNative</text>
</a>
</g>
</g>
<!-- X::Comp::Trait::NotOnNative&#45;&gt;X::Trait::NotOnNative -->
<g id="edge1" class="edge">
<title>X::Comp::Trait::NotOnNative&#45;&gt;X::Trait::NotOnNative</title>
<path fill="none" stroke="#000000" d="M148.37,-176.43C166.45,-145.27 203.36,-81.64 224.5,-45.21"/>
<polygon fill="#000000" stroke="#000000" points="227.77,-46.55 229.76,-36.14 221.71,-43.04 227.77,-46.55"/>
</g>
<!-- X::Comp -->
<g id="node6" class="node">
<title>X::Comp</title>
<g id="a_node6"><a xlink:href="/type/X::Comp" xlink:title="X::Comp">
<ellipse fill="none" stroke="#6666ff" cx="198.8" cy="-389.67" rx="49.29" ry="18"/>
<text text-anchor="middle" x="198.8" y="-385.97" font-family="FreeSans" font-size="14.00" fill="#6666ff">X::Comp</text>
</a>
</g>
</g>
<!-- X::Comp::Trait::NotOnNative&#45;&gt;X::Comp -->
<g id="edge7" class="edge">
<title>X::Comp::Trait::NotOnNative&#45;&gt;X::Comp</title>
<path fill="none" stroke="#6666ff" d="M143.42,-212.67C154.11,-246.84 177.42,-321.33 190.12,-361.94"/>
<polygon fill="#6666ff" stroke="#6666ff" points="186.86,-363.22 193.18,-371.72 193.54,-361.13 186.86,-363.22"/>
</g>
<!-- Mu -->
<g id="node2" class="node">
<title>Mu</title>
<g id="a_node2"><a xlink:href="/type/Mu" xlink:title="Mu">
<ellipse fill="none" stroke="#000000" cx="762.47" cy="-253.08" rx="27" ry="18"/>
<text text-anchor="middle" x="762.47" y="-249.38" font-family="FreeSans" font-size="14.00" fill="#000000">Mu</text>
</a>
</g>
</g>
<!-- Any -->
<g id="node3" class="node">
<title>Any</title>
<g id="a_node3"><a xlink:href="/type/Any" xlink:title="Any">
<ellipse fill="none" stroke="#000000" cx="554.35" cy="-242.63" rx="28.7" ry="18"/>
<text text-anchor="middle" x="554.35" y="-238.93" font-family="FreeSans" font-size="14.00" fill="#000000">Any</text>
</a>
</g>
</g>
<!-- Any&#45;&gt;Mu -->
<g id="edge3" class="edge">
<title>Any&#45;&gt;Mu</title>
<path fill="none" stroke="#000000" d="M583.29,-244.08C620.38,-245.94 684.74,-249.18 725.39,-251.22"/>
<polygon fill="#000000" stroke="#000000" points="725.27,-254.71 735.43,-251.72 725.62,-247.72 725.27,-254.71"/>
</g>
<!-- Exception&#45;&gt;Any -->
<g id="edge4" class="edge">
<title>Exception&#45;&gt;Any</title>
<path fill="none" stroke="#000000" d="M391.01,-223.34C429.5,-227.89 481.03,-233.97 515.84,-238.08"/>
<polygon fill="#000000" stroke="#000000" points="515.73,-241.59 526.07,-239.29 516.55,-234.64 515.73,-241.59"/>
</g>
<!-- X::Trait::NotOnNative&#45;&gt;Exception -->
<g id="edge5" class="edge">
<title>X::Trait::NotOnNative&#45;&gt;Exception</title>
<path fill="none" stroke="#000000" d="M249.2,-36.03C266.58,-71.13 305.03,-148.84 325.46,-190.15"/>
<polygon fill="#000000" stroke="#000000" points="322.44,-191.93 330.01,-199.34 328.71,-188.82 322.44,-191.93"/>
</g>
<!-- X::Comp&#45;&gt;Exception -->
<g id="edge6" class="edge">
<title>X::Comp&#45;&gt;Exception</title>
<path fill="none" stroke="#000000" d="M213,-372.18C237.85,-341.58 289.31,-278.19 318.13,-242.69"/>
<polygon fill="#000000" stroke="#000000" points="321.02,-244.69 324.6,-234.72 315.58,-240.27 321.02,-244.69"/>
</g>
</g>
</svg>
