<?xml version="1.0" encoding="UTF-8" standalone="no"?>
<!DOCTYPE svg PUBLIC "-//W3C//DTD SVG 1.1//EN"
 "http://www.w3.org/Graphics/SVG/1.1/DTD/svg11.dtd">
<!-- Generated by graphviz version 2.42.3 (0)
 -->
<!-- Title: perl6&#45;type&#45;graph Pages: 1 -->
<svg width="236pt" height="404pt"
 viewBox="0.00 0.00 235.89 404.00" xmlns="http://www.w3.org/2000/svg" xmlns:xlink="http://www.w3.org/1999/xlink">
<g id="graph0" class="graph" transform="scale(1 1) rotate(0) translate(4 400)">
<title>perl6&#45;type&#45;graph</title>
<polygon fill="white" stroke="transparent" points="-4,4 -4,-400 231.89,-400 231.89,4 -4,4"/>
<!-- X::IO::Chmod -->
<g id="node1" class="node">
<title>X::IO::Chmod</title>
<g id="a_node1"><a xlink:href="/type/X::IO::Chmod" xlink:title="X::IO::Chmod">
<ellipse fill="none" stroke="#000000" cx="71.49" cy="-18" rx="71.49" ry="18"/>
<text text-anchor="middle" x="71.49" y="-14.3" font-family="FreeSans" font-size="14.00" fill="#000000">X::IO::Chmod</text>
</a>
</g>
</g>
<!-- Exception -->
<g id="node4" class="node">
<title>Exception</title>
<g id="a_node4"><a xlink:href="/type/Exception" xlink:title="Exception">
<ellipse fill="none" stroke="#000000" cx="71.49" cy="-234" rx="55.49" ry="18"/>
<text text-anchor="middle" x="71.49" y="-230.3" font-family="FreeSans" font-size="14.00" fill="#000000">Exception</text>
</a>
</g>
</g>
<!-- X::IO::Chmod&#45;&gt;Exception -->
<g id="edge1" class="edge">
<title>X::IO::Chmod&#45;&gt;Exception</title>
<path fill="none" stroke="#000000" d="M63.74,-36.15C56.65,-73.26 56.12,-161.25 62.15,-205.95"/>
<polygon fill="#000000" stroke="#000000" points="58.74,-206.75 63.78,-216.06 65.65,-205.64 58.74,-206.75"/>
</g>
<!-- X::IO::Chmod&#45;&gt;Exception -->
<g id="edge2" class="edge">
<title>X::IO::Chmod&#45;&gt;Exception</title>
<path fill="none" stroke="#000000" d="M71.49,-36.15C71.49,-73.17 71.49,-160.82 71.49,-205.61"/>
<polygon fill="#000000" stroke="#000000" points="67.99,-205.77 71.49,-215.77 74.99,-205.77 67.99,-205.77"/>
</g>
<!-- X::IO::Chmod&#45;&gt;Exception -->
<g id="edge3" class="edge">
<title>X::IO::Chmod&#45;&gt;Exception</title>
<path fill="none" stroke="#000000" d="M79.25,-36.15C86.34,-73.26 86.87,-161.25 80.83,-205.95"/>
<polygon fill="#000000" stroke="#000000" points="77.34,-205.64 79.21,-216.06 84.25,-206.75 77.34,-205.64"/>
</g>
<!-- X::IO -->
<g id="node6" class="node">
<title>X::IO</title>
<g id="a_node6"><a xlink:href="/type/X::IO" xlink:title="X::IO">
<ellipse fill="none" stroke="#6666ff" cx="150.49" cy="-90" rx="33.29" ry="18"/>
<text text-anchor="middle" x="150.49" y="-86.3" font-family="FreeSans" font-size="14.00" fill="#6666ff">X::IO</text>
</a>
</g>
</g>
<!-- X::IO::Chmod&#45;&gt;X::IO -->
<g id="edge8" class="edge">
<title>X::IO::Chmod&#45;&gt;X::IO</title>
<path fill="none" stroke="#6666ff" d="M90.22,-35.59C100.97,-45.12 114.59,-57.19 126.16,-67.44"/>
<polygon fill="#6666ff" stroke="#6666ff" points="123.98,-70.18 133.79,-74.2 128.62,-64.94 123.98,-70.18"/>
</g>
<!-- Mu -->
<g id="node2" class="node">
<title>Mu</title>
<g id="a_node2"><a xlink:href="/type/Mu" xlink:title="Mu">
<ellipse fill="none" stroke="#000000" cx="71.49" cy="-378" rx="27" ry="18"/>
<text text-anchor="middle" x="71.49" y="-374.3" font-family="FreeSans" font-size="14.00" fill="#000000">Mu</text>
</a>
</g>
</g>
<!-- Any -->
<g id="node3" class="node">
<title>Any</title>
<g id="a_node3"><a xlink:href="/type/Any" xlink:title="Any">
<ellipse fill="none" stroke="#000000" cx="71.49" cy="-306" rx="28.7" ry="18"/>
<text text-anchor="middle" x="71.49" y="-302.3" font-family="FreeSans" font-size="14.00" fill="#000000">Any</text>
</a>
</g>
</g>
<!-- Any&#45;&gt;Mu -->
<g id="edge4" class="edge">
<title>Any&#45;&gt;Mu</title>
<path fill="none" stroke="#000000" d="M71.49,-324.3C71.49,-332.02 71.49,-341.29 71.49,-349.89"/>
<polygon fill="#000000" stroke="#000000" points="67.99,-349.9 71.49,-359.9 74.99,-349.9 67.99,-349.9"/>
</g>
<!-- Exception&#45;&gt;Any -->
<g id="edge5" class="edge">
<title>Exception&#45;&gt;Any</title>
<path fill="none" stroke="#000000" d="M71.49,-252.3C71.49,-260.02 71.49,-269.29 71.49,-277.89"/>
<polygon fill="#000000" stroke="#000000" points="67.99,-277.9 71.49,-287.9 74.99,-277.9 67.99,-277.9"/>
</g>
<!-- X::OS -->
<g id="node5" class="node">
<title>X::OS</title>
<g id="a_node5"><a xlink:href="/type/X::OS" xlink:title="X::OS">
<ellipse fill="none" stroke="#6666ff" cx="191.49" cy="-162" rx="36.29" ry="18"/>
<text text-anchor="middle" x="191.49" y="-158.3" font-family="FreeSans" font-size="14.00" fill="#6666ff">X::OS</text>
</a>
</g>
</g>
<!-- X::OS&#45;&gt;Exception -->
<g id="edge6" class="edge">
<title>X::OS&#45;&gt;Exception</title>
<path fill="none" stroke="#000000" d="M168.92,-176.17C151.26,-186.47 126.39,-200.98 106.2,-212.75"/>
<polygon fill="#000000" stroke="#000000" points="104.17,-209.89 97.3,-217.95 107.7,-215.93 104.17,-209.89"/>
</g>
<!-- X::IO&#45;&gt;Exception -->
<g id="edge7" class="edge">
<title>X::IO&#45;&gt;Exception</title>
<path fill="none" stroke="#000000" d="M141.65,-107.74C128.04,-133.52 103.49,-180 103.49,-180 103.49,-180 95.08,-193.93 86.88,-207.51"/>
<polygon fill="#000000" stroke="#000000" points="83.79,-205.86 81.62,-216.23 89.78,-209.48 83.79,-205.86"/>
</g>
<!-- X::IO&#45;&gt;X::OS -->
<g id="edge9" class="edge">
<title>X::IO&#45;&gt;X::OS</title>
<path fill="none" stroke="#6666ff" d="M160.21,-107.59C165.11,-115.96 171.16,-126.29 176.63,-135.63"/>
<polygon fill="#6666ff" stroke="#6666ff" points="173.77,-137.67 181.85,-144.53 179.81,-134.13 173.77,-137.67"/>
</g>
</g>
</svg>
