<?xml version="1.0" encoding="UTF-8" standalone="no"?>
<!DOCTYPE svg PUBLIC "-//W3C//DTD SVG 1.1//EN"
 "http://www.w3.org/Graphics/SVG/1.1/DTD/svg11.dtd">
<!-- Generated by graphviz version 2.42.3 (0)
 -->
<!-- Title: perl6&#45;type&#45;graph Pages: 1 -->
<svg width="367pt" height="404pt"
 viewBox="0.00 0.00 366.77 404.00" xmlns="http://www.w3.org/2000/svg" xmlns:xlink="http://www.w3.org/1999/xlink">
<g id="graph0" class="graph" transform="scale(1 1) rotate(0) translate(4 400)">
<title>perl6&#45;type&#45;graph</title>
<polygon fill="white" stroke="transparent" points="-4,4 -4,-400 362.77,-400 362.77,4 -4,4"/>
<!-- X::Syntax::Signature::InvocantMarker -->
<g id="node1" class="node">
<title>X::Syntax::Signature::InvocantMarker</title>
<g id="a_node1"><a xlink:href="/type/X::Syntax::Signature::InvocantMarker" xlink:title="X::Syntax::Signature::InvocantMarker">
<ellipse fill="none" stroke="#000000" cx="179.38" cy="-18" rx="179.27" ry="18"/>
<text text-anchor="middle" x="179.38" y="-14.3" font-family="FreeSans" font-size="14.00" fill="#000000">X::Syntax::Signature::InvocantMarker</text>
</a>
</g>
</g>
<!-- Exception -->
<g id="node4" class="node">
<title>Exception</title>
<g id="a_node4"><a xlink:href="/type/Exception" xlink:title="Exception">
<ellipse fill="none" stroke="#000000" cx="202.38" cy="-234" rx="55.49" ry="18"/>
<text text-anchor="middle" x="202.38" y="-230.3" font-family="FreeSans" font-size="14.00" fill="#000000">Exception</text>
</a>
</g>
</g>
<!-- X::Syntax::Signature::InvocantMarker&#45;&gt;Exception -->
<g id="edge1" class="edge">
<title>X::Syntax::Signature::InvocantMarker&#45;&gt;Exception</title>
<path fill="none" stroke="#000000" d="M177.35,-36.15C177.79,-73.34 187.03,-161.63 194.86,-206.23"/>
<polygon fill="#000000" stroke="#000000" points="191.42,-206.88 196.71,-216.06 198.3,-205.59 191.42,-206.88"/>
</g>
<!-- X::Syntax::Signature::InvocantMarker&#45;&gt;Exception -->
<g id="edge2" class="edge">
<title>X::Syntax::Signature::InvocantMarker&#45;&gt;Exception</title>
<path fill="none" stroke="#000000" d="M185.1,-36.15C192.62,-73.17 202.31,-160.82 204.13,-205.61"/>
<polygon fill="#000000" stroke="#000000" points="200.64,-205.87 204.42,-215.77 207.64,-205.67 200.64,-205.87"/>
</g>
<!-- X::Syntax -->
<g id="node6" class="node">
<title>X::Syntax</title>
<g id="a_node6"><a xlink:href="/type/X::Syntax" xlink:title="X::Syntax">
<ellipse fill="none" stroke="#6666ff" cx="270.38" cy="-90" rx="53.89" ry="18"/>
<text text-anchor="middle" x="270.38" y="-86.3" font-family="FreeSans" font-size="14.00" fill="#6666ff">X::Syntax</text>
</a>
</g>
</g>
<!-- X::Syntax::Signature::InvocantMarker&#45;&gt;X::Syntax -->
<g id="edge7" class="edge">
<title>X::Syntax::Signature::InvocantMarker&#45;&gt;X::Syntax</title>
<path fill="none" stroke="#6666ff" d="M201.41,-35.95C213.49,-45.24 228.62,-56.87 241.62,-66.87"/>
<polygon fill="#6666ff" stroke="#6666ff" points="239.75,-69.85 249.81,-73.17 244.01,-64.3 239.75,-69.85"/>
</g>
<!-- Mu -->
<g id="node2" class="node">
<title>Mu</title>
<g id="a_node2"><a xlink:href="/type/Mu" xlink:title="Mu">
<ellipse fill="none" stroke="#000000" cx="202.38" cy="-378" rx="27" ry="18"/>
<text text-anchor="middle" x="202.38" y="-374.3" font-family="FreeSans" font-size="14.00" fill="#000000">Mu</text>
</a>
</g>
</g>
<!-- Any -->
<g id="node3" class="node">
<title>Any</title>
<g id="a_node3"><a xlink:href="/type/Any" xlink:title="Any">
<ellipse fill="none" stroke="#000000" cx="202.38" cy="-306" rx="28.7" ry="18"/>
<text text-anchor="middle" x="202.38" y="-302.3" font-family="FreeSans" font-size="14.00" fill="#000000">Any</text>
</a>
</g>
</g>
<!-- Any&#45;&gt;Mu -->
<g id="edge3" class="edge">
<title>Any&#45;&gt;Mu</title>
<path fill="none" stroke="#000000" d="M202.38,-324.3C202.38,-332.02 202.38,-341.29 202.38,-349.89"/>
<polygon fill="#000000" stroke="#000000" points="198.88,-349.9 202.38,-359.9 205.88,-349.9 198.88,-349.9"/>
</g>
<!-- Exception&#45;&gt;Any -->
<g id="edge4" class="edge">
<title>Exception&#45;&gt;Any</title>
<path fill="none" stroke="#000000" d="M202.38,-252.3C202.38,-260.02 202.38,-269.29 202.38,-277.89"/>
<polygon fill="#000000" stroke="#000000" points="198.88,-277.9 202.38,-287.9 205.88,-277.9 198.88,-277.9"/>
</g>
<!-- X::Comp -->
<g id="node5" class="node">
<title>X::Comp</title>
<g id="a_node5"><a xlink:href="/type/X::Comp" xlink:title="X::Comp">
<ellipse fill="none" stroke="#6666ff" cx="303.38" cy="-162" rx="49.29" ry="18"/>
<text text-anchor="middle" x="303.38" y="-158.3" font-family="FreeSans" font-size="14.00" fill="#6666ff">X::Comp</text>
</a>
</g>
</g>
<!-- X::Comp&#45;&gt;Exception -->
<g id="edge5" class="edge">
<title>X::Comp&#45;&gt;Exception</title>
<path fill="none" stroke="#000000" d="M281.47,-178.19C267.37,-187.96 248.84,-200.8 233.26,-211.6"/>
<polygon fill="#000000" stroke="#000000" points="231.18,-208.78 224.96,-217.36 235.17,-214.54 231.18,-208.78"/>
</g>
<!-- X::Syntax&#45;&gt;Exception -->
<g id="edge6" class="edge">
<title>X::Syntax&#45;&gt;Exception</title>
<path fill="none" stroke="#000000" d="M262.32,-107.85C250.56,-132.4 228.61,-178.23 214.79,-207.09"/>
<polygon fill="#000000" stroke="#000000" points="211.6,-205.64 210.44,-216.18 217.92,-208.67 211.6,-205.64"/>
</g>
<!-- X::Syntax&#45;&gt;X::Comp -->
<g id="edge8" class="edge">
<title>X::Syntax&#45;&gt;X::Comp</title>
<path fill="none" stroke="#6666ff" d="M278.37,-107.95C282.18,-116.03 286.83,-125.88 291.07,-134.89"/>
<polygon fill="#6666ff" stroke="#6666ff" points="288.04,-136.66 295.47,-144.21 294.37,-133.67 288.04,-136.66"/>
</g>
</g>
</svg>
