<?xml version="1.0" encoding="UTF-8" standalone="no"?>
<!DOCTYPE svg PUBLIC "-//W3C//DTD SVG 1.1//EN"
 "http://www.w3.org/Graphics/SVG/1.1/DTD/svg11.dtd">
<!-- Generated by graphviz version 2.42.3 (0)
 -->
<!-- Title: perl6&#45;type&#45;graph Pages: 1 -->
<svg width="303pt" height="332pt"
 viewBox="0.00 0.00 303.07 332.00" xmlns="http://www.w3.org/2000/svg" xmlns:xlink="http://www.w3.org/1999/xlink">
<g id="graph0" class="graph" transform="scale(1 1) rotate(0) translate(4 328)">
<title>perl6&#45;type&#45;graph</title>
<polygon fill="white" stroke="transparent" points="-4,4 -4,-328 299.07,-328 299.07,4 -4,4"/>
<!-- X::Proc::Async::MustBeStarted -->
<g id="node1" class="node">
<title>X::Proc::Async::MustBeStarted</title>
<g id="a_node1"><a xlink:href="/type/X::Proc::Async::MustBeStarted" xlink:title="X::Proc::Async::MustBeStarted">
<ellipse fill="none" stroke="#000000" cx="147.54" cy="-18" rx="147.57" ry="18"/>
<text text-anchor="middle" x="147.54" y="-14.3" font-family="FreeSans" font-size="14.00" fill="#000000">X::Proc::Async::MustBeStarted</text>
</a>
</g>
</g>
<!-- Exception -->
<g id="node4" class="node">
<title>Exception</title>
<g id="a_node4"><a xlink:href="/type/Exception" xlink:title="Exception">
<ellipse fill="none" stroke="#000000" cx="147.54" cy="-162" rx="55.49" ry="18"/>
<text text-anchor="middle" x="147.54" y="-158.3" font-family="FreeSans" font-size="14.00" fill="#000000">Exception</text>
</a>
</g>
</g>
<!-- X::Proc::Async::MustBeStarted&#45;&gt;Exception -->
<g id="edge1" class="edge">
<title>X::Proc::Async::MustBeStarted&#45;&gt;Exception</title>
<path fill="none" stroke="#000000" d="M137.24,-36.06C127.88,-51.55 115.54,-72 115.54,-72 115.54,-72 115.54,-108 115.54,-108 115.54,-108 123.95,-121.93 132.15,-135.51"/>
<polygon fill="#000000" stroke="#000000" points="129.25,-137.48 137.41,-144.23 135.24,-133.86 129.25,-137.48"/>
</g>
<!-- X::Proc::Async -->
<g id="node5" class="node">
<title>X::Proc::Async</title>
<g id="a_node5"><a xlink:href="/type/X::Proc::Async" xlink:title="X::Proc::Async">
<ellipse fill="none" stroke="#6666ff" cx="199.54" cy="-90" rx="75.29" ry="18"/>
<text text-anchor="middle" x="199.54" y="-86.3" font-family="FreeSans" font-size="14.00" fill="#6666ff">X::Proc::Async</text>
</a>
</g>
</g>
<!-- X::Proc::Async::MustBeStarted&#45;&gt;X::Proc::Async -->
<g id="edge5" class="edge">
<title>X::Proc::Async::MustBeStarted&#45;&gt;X::Proc::Async</title>
<path fill="none" stroke="#6666ff" d="M160.12,-35.95C166.38,-44.37 174.07,-54.72 180.99,-64.03"/>
<polygon fill="#6666ff" stroke="#6666ff" points="178.29,-66.27 187.07,-72.21 183.91,-62.1 178.29,-66.27"/>
</g>
<!-- Mu -->
<g id="node2" class="node">
<title>Mu</title>
<g id="a_node2"><a xlink:href="/type/Mu" xlink:title="Mu">
<ellipse fill="none" stroke="#000000" cx="147.54" cy="-306" rx="27" ry="18"/>
<text text-anchor="middle" x="147.54" y="-302.3" font-family="FreeSans" font-size="14.00" fill="#000000">Mu</text>
</a>
</g>
</g>
<!-- Any -->
<g id="node3" class="node">
<title>Any</title>
<g id="a_node3"><a xlink:href="/type/Any" xlink:title="Any">
<ellipse fill="none" stroke="#000000" cx="147.54" cy="-234" rx="28.7" ry="18"/>
<text text-anchor="middle" x="147.54" y="-230.3" font-family="FreeSans" font-size="14.00" fill="#000000">Any</text>
</a>
</g>
</g>
<!-- Any&#45;&gt;Mu -->
<g id="edge2" class="edge">
<title>Any&#45;&gt;Mu</title>
<path fill="none" stroke="#000000" d="M147.54,-252.3C147.54,-260.02 147.54,-269.29 147.54,-277.89"/>
<polygon fill="#000000" stroke="#000000" points="144.04,-277.9 147.54,-287.9 151.04,-277.9 144.04,-277.9"/>
</g>
<!-- Exception&#45;&gt;Any -->
<g id="edge3" class="edge">
<title>Exception&#45;&gt;Any</title>
<path fill="none" stroke="#000000" d="M147.54,-180.3C147.54,-188.02 147.54,-197.29 147.54,-205.89"/>
<polygon fill="#000000" stroke="#000000" points="144.04,-205.9 147.54,-215.9 151.04,-205.9 144.04,-205.9"/>
</g>
<!-- X::Proc::Async&#45;&gt;Exception -->
<g id="edge4" class="edge">
<title>X::Proc::Async&#45;&gt;Exception</title>
<path fill="none" stroke="#000000" d="M186.95,-107.95C180.69,-116.37 173,-126.72 166.08,-136.03"/>
<polygon fill="#000000" stroke="#000000" points="163.16,-134.1 160.01,-144.21 168.78,-138.27 163.16,-134.1"/>
</g>
</g>
</svg>
