<?xml version="1.0" encoding="UTF-8" standalone="no"?>
<!DOCTYPE svg PUBLIC "-//W3C//DTD SVG 1.1//EN"
 "http://www.w3.org/Graphics/SVG/1.1/DTD/svg11.dtd">
<!-- Generated by graphviz version 2.42.3 (0)
 -->
<!-- Title: perl6&#45;type&#45;graph Pages: 1 -->
<svg width="304pt" height="332pt"
 viewBox="0.00 0.00 304.37 332.00" xmlns="http://www.w3.org/2000/svg" xmlns:xlink="http://www.w3.org/1999/xlink">
<g id="graph0" class="graph" transform="scale(1 1) rotate(0) translate(4 328)">
<title>perl6&#45;type&#45;graph</title>
<polygon fill="white" stroke="transparent" points="-4,4 -4,-328 300.37,-328 300.37,4 -4,4"/>
<!-- X::Proc::Async::AlreadyStarted -->
<g id="node1" class="node">
<title>X::Proc::Async::AlreadyStarted</title>
<g id="a_node1"><a xlink:href="/type/X::Proc::Async::AlreadyStarted" xlink:title="X::Proc::Async::AlreadyStarted">
<ellipse fill="none" stroke="#000000" cx="148.19" cy="-18" rx="148.37" ry="18"/>
<text text-anchor="middle" x="148.19" y="-14.3" font-family="FreeSans" font-size="14.00" fill="#000000">X::Proc::Async::AlreadyStarted</text>
</a>
</g>
</g>
<!-- Exception -->
<g id="node4" class="node">
<title>Exception</title>
<g id="a_node4"><a xlink:href="/type/Exception" xlink:title="Exception">
<ellipse fill="none" stroke="#000000" cx="148.19" cy="-162" rx="55.49" ry="18"/>
<text text-anchor="middle" x="148.19" y="-158.3" font-family="FreeSans" font-size="14.00" fill="#000000">Exception</text>
</a>
</g>
</g>
<!-- X::Proc::Async::AlreadyStarted&#45;&gt;Exception -->
<g id="edge1" class="edge">
<title>X::Proc::Async::AlreadyStarted&#45;&gt;Exception</title>
<path fill="none" stroke="#000000" d="M137.89,-36.06C128.53,-51.55 116.19,-72 116.19,-72 116.19,-72 116.19,-108 116.19,-108 116.19,-108 124.6,-121.93 132.8,-135.51"/>
<polygon fill="#000000" stroke="#000000" points="129.9,-137.48 138.06,-144.23 135.89,-133.86 129.9,-137.48"/>
</g>
<!-- X::Proc::Async -->
<g id="node5" class="node">
<title>X::Proc::Async</title>
<g id="a_node5"><a xlink:href="/type/X::Proc::Async" xlink:title="X::Proc::Async">
<ellipse fill="none" stroke="#6666ff" cx="200.19" cy="-90" rx="75.29" ry="18"/>
<text text-anchor="middle" x="200.19" y="-86.3" font-family="FreeSans" font-size="14.00" fill="#6666ff">X::Proc::Async</text>
</a>
</g>
</g>
<!-- X::Proc::Async::AlreadyStarted&#45;&gt;X::Proc::Async -->
<g id="edge5" class="edge">
<title>X::Proc::Async::AlreadyStarted&#45;&gt;X::Proc::Async</title>
<path fill="none" stroke="#6666ff" d="M160.77,-35.95C167.03,-44.37 174.72,-54.72 181.64,-64.03"/>
<polygon fill="#6666ff" stroke="#6666ff" points="178.94,-66.27 187.72,-72.21 184.56,-62.1 178.94,-66.27"/>
</g>
<!-- Mu -->
<g id="node2" class="node">
<title>Mu</title>
<g id="a_node2"><a xlink:href="/type/Mu" xlink:title="Mu">
<ellipse fill="none" stroke="#000000" cx="148.19" cy="-306" rx="27" ry="18"/>
<text text-anchor="middle" x="148.19" y="-302.3" font-family="FreeSans" font-size="14.00" fill="#000000">Mu</text>
</a>
</g>
</g>
<!-- Any -->
<g id="node3" class="node">
<title>Any</title>
<g id="a_node3"><a xlink:href="/type/Any" xlink:title="Any">
<ellipse fill="none" stroke="#000000" cx="148.19" cy="-234" rx="28.7" ry="18"/>
<text text-anchor="middle" x="148.19" y="-230.3" font-family="FreeSans" font-size="14.00" fill="#000000">Any</text>
</a>
</g>
</g>
<!-- Any&#45;&gt;Mu -->
<g id="edge2" class="edge">
<title>Any&#45;&gt;Mu</title>
<path fill="none" stroke="#000000" d="M148.19,-252.3C148.19,-260.02 148.19,-269.29 148.19,-277.89"/>
<polygon fill="#000000" stroke="#000000" points="144.69,-277.9 148.19,-287.9 151.69,-277.9 144.69,-277.9"/>
</g>
<!-- Exception&#45;&gt;Any -->
<g id="edge3" class="edge">
<title>Exception&#45;&gt;Any</title>
<path fill="none" stroke="#000000" d="M148.19,-180.3C148.19,-188.02 148.19,-197.29 148.19,-205.89"/>
<polygon fill="#000000" stroke="#000000" points="144.69,-205.9 148.19,-215.9 151.69,-205.9 144.69,-205.9"/>
</g>
<!-- X::Proc::Async&#45;&gt;Exception -->
<g id="edge4" class="edge">
<title>X::Proc::Async&#45;&gt;Exception</title>
<path fill="none" stroke="#000000" d="M187.6,-107.95C181.34,-116.37 173.65,-126.72 166.73,-136.03"/>
<polygon fill="#000000" stroke="#000000" points="163.81,-134.1 160.66,-144.21 169.43,-138.27 163.81,-134.1"/>
</g>
</g>
</svg>
