<?xml version="1.0" encoding="UTF-8" standalone="no"?>
<!DOCTYPE svg PUBLIC "-//W3C//DTD SVG 1.1//EN"
 "http://www.w3.org/Graphics/SVG/1.1/DTD/svg11.dtd">
<!-- Generated by graphviz version 2.42.3 (0)
 -->
<!-- Title: perl6&#45;type&#45;graph Pages: 1 -->
<svg width="228pt" height="404pt"
 viewBox="0.00 0.00 228.09 404.00" xmlns="http://www.w3.org/2000/svg" xmlns:xlink="http://www.w3.org/1999/xlink">
<g id="graph0" class="graph" transform="scale(1 1) rotate(0) translate(4 400)">
<title>perl6&#45;type&#45;graph</title>
<polygon fill="white" stroke="transparent" points="-4,4 -4,-400 224.09,-400 224.09,4 -4,4"/>
<!-- X::IO::Chdir -->
<g id="node1" class="node">
<title>X::IO::Chdir</title>
<g id="a_node1"><a xlink:href="/type/X::IO::Chdir" xlink:title="X::IO::Chdir">
<ellipse fill="none" stroke="#000000" cx="63.69" cy="-18" rx="63.89" ry="18"/>
<text text-anchor="middle" x="63.69" y="-14.3" font-family="FreeSans" font-size="14.00" fill="#000000">X::IO::Chdir</text>
</a>
</g>
</g>
<!-- Exception -->
<g id="node4" class="node">
<title>Exception</title>
<g id="a_node4"><a xlink:href="/type/Exception" xlink:title="Exception">
<ellipse fill="none" stroke="#000000" cx="63.69" cy="-234" rx="55.49" ry="18"/>
<text text-anchor="middle" x="63.69" y="-230.3" font-family="FreeSans" font-size="14.00" fill="#000000">Exception</text>
</a>
</g>
</g>
<!-- X::IO::Chdir&#45;&gt;Exception -->
<g id="edge1" class="edge">
<title>X::IO::Chdir&#45;&gt;Exception</title>
<path fill="none" stroke="#000000" d="M55.94,-36.15C48.85,-73.26 48.32,-161.25 54.35,-205.95"/>
<polygon fill="#000000" stroke="#000000" points="50.94,-206.75 55.98,-216.06 57.85,-205.64 50.94,-206.75"/>
</g>
<!-- X::IO::Chdir&#45;&gt;Exception -->
<g id="edge2" class="edge">
<title>X::IO::Chdir&#45;&gt;Exception</title>
<path fill="none" stroke="#000000" d="M63.69,-36.15C63.69,-73.17 63.69,-160.82 63.69,-205.61"/>
<polygon fill="#000000" stroke="#000000" points="60.19,-205.77 63.69,-215.77 67.19,-205.77 60.19,-205.77"/>
</g>
<!-- X::IO::Chdir&#45;&gt;Exception -->
<g id="edge3" class="edge">
<title>X::IO::Chdir&#45;&gt;Exception</title>
<path fill="none" stroke="#000000" d="M71.45,-36.15C78.54,-73.26 79.07,-161.25 73.03,-205.95"/>
<polygon fill="#000000" stroke="#000000" points="69.54,-205.64 71.41,-216.06 76.45,-206.75 69.54,-205.64"/>
</g>
<!-- X::IO -->
<g id="node6" class="node">
<title>X::IO</title>
<g id="a_node6"><a xlink:href="/type/X::IO" xlink:title="X::IO">
<ellipse fill="none" stroke="#6666ff" cx="142.69" cy="-90" rx="33.29" ry="18"/>
<text text-anchor="middle" x="142.69" y="-86.3" font-family="FreeSans" font-size="14.00" fill="#6666ff">X::IO</text>
</a>
</g>
</g>
<!-- X::IO::Chdir&#45;&gt;X::IO -->
<g id="edge8" class="edge">
<title>X::IO::Chdir&#45;&gt;X::IO</title>
<path fill="none" stroke="#6666ff" d="M82.42,-35.59C93.17,-45.12 106.79,-57.19 118.36,-67.44"/>
<polygon fill="#6666ff" stroke="#6666ff" points="116.18,-70.18 125.99,-74.2 120.82,-64.94 116.18,-70.18"/>
</g>
<!-- Mu -->
<g id="node2" class="node">
<title>Mu</title>
<g id="a_node2"><a xlink:href="/type/Mu" xlink:title="Mu">
<ellipse fill="none" stroke="#000000" cx="63.69" cy="-378" rx="27" ry="18"/>
<text text-anchor="middle" x="63.69" y="-374.3" font-family="FreeSans" font-size="14.00" fill="#000000">Mu</text>
</a>
</g>
</g>
<!-- Any -->
<g id="node3" class="node">
<title>Any</title>
<g id="a_node3"><a xlink:href="/type/Any" xlink:title="Any">
<ellipse fill="none" stroke="#000000" cx="63.69" cy="-306" rx="28.7" ry="18"/>
<text text-anchor="middle" x="63.69" y="-302.3" font-family="FreeSans" font-size="14.00" fill="#000000">Any</text>
</a>
</g>
</g>
<!-- Any&#45;&gt;Mu -->
<g id="edge4" class="edge">
<title>Any&#45;&gt;Mu</title>
<path fill="none" stroke="#000000" d="M63.69,-324.3C63.69,-332.02 63.69,-341.29 63.69,-349.89"/>
<polygon fill="#000000" stroke="#000000" points="60.19,-349.9 63.69,-359.9 67.19,-349.9 60.19,-349.9"/>
</g>
<!-- Exception&#45;&gt;Any -->
<g id="edge5" class="edge">
<title>Exception&#45;&gt;Any</title>
<path fill="none" stroke="#000000" d="M63.69,-252.3C63.69,-260.02 63.69,-269.29 63.69,-277.89"/>
<polygon fill="#000000" stroke="#000000" points="60.19,-277.9 63.69,-287.9 67.19,-277.9 60.19,-277.9"/>
</g>
<!-- X::OS -->
<g id="node5" class="node">
<title>X::OS</title>
<g id="a_node5"><a xlink:href="/type/X::OS" xlink:title="X::OS">
<ellipse fill="none" stroke="#6666ff" cx="183.69" cy="-162" rx="36.29" ry="18"/>
<text text-anchor="middle" x="183.69" y="-158.3" font-family="FreeSans" font-size="14.00" fill="#6666ff">X::OS</text>
</a>
</g>
</g>
<!-- X::OS&#45;&gt;Exception -->
<g id="edge6" class="edge">
<title>X::OS&#45;&gt;Exception</title>
<path fill="none" stroke="#000000" d="M161.12,-176.17C143.46,-186.47 118.59,-200.98 98.4,-212.75"/>
<polygon fill="#000000" stroke="#000000" points="96.37,-209.89 89.5,-217.95 99.9,-215.93 96.37,-209.89"/>
</g>
<!-- X::IO&#45;&gt;Exception -->
<g id="edge7" class="edge">
<title>X::IO&#45;&gt;Exception</title>
<path fill="none" stroke="#000000" d="M133.85,-107.74C120.24,-133.52 95.69,-180 95.69,-180 95.69,-180 87.28,-193.93 79.09,-207.51"/>
<polygon fill="#000000" stroke="#000000" points="75.99,-205.86 73.82,-216.23 81.98,-209.48 75.99,-205.86"/>
</g>
<!-- X::IO&#45;&gt;X::OS -->
<g id="edge9" class="edge">
<title>X::IO&#45;&gt;X::OS</title>
<path fill="none" stroke="#6666ff" d="M152.41,-107.59C157.31,-115.96 163.36,-126.29 168.83,-135.63"/>
<polygon fill="#6666ff" stroke="#6666ff" points="165.97,-137.67 174.05,-144.53 172.01,-134.13 165.97,-137.67"/>
</g>
</g>
</svg>
