<?xml version="1.0" encoding="UTF-8" standalone="no"?>
<!DOCTYPE svg PUBLIC "-//W3C//DTD SVG 1.1//EN"
 "http://www.w3.org/Graphics/SVG/1.1/DTD/svg11.dtd">
<!-- Generated by graphviz version 2.42.3 (0)
 -->
<!-- Title: perl6&#45;type&#45;graph Pages: 1 -->
<svg width="388pt" height="188pt"
 viewBox="0.00 0.00 388.33 188.00" xmlns="http://www.w3.org/2000/svg" xmlns:xlink="http://www.w3.org/1999/xlink">
<g id="graph0" class="graph" transform="scale(1 1) rotate(0) translate(4 184)">
<title>perl6&#45;type&#45;graph</title>
<polygon fill="white" stroke="transparent" points="-4,4 -4,-184 384.33,-184 384.33,4 -4,4"/>
<!-- Distribution -->
<g id="node1" class="node">
<title>Distribution</title>
<g id="a_node1"><a xlink:href="/type/Distribution" xlink:title="Distribution">
<ellipse fill="none" stroke="#6666ff" cx="115.04" cy="-162" rx="63.89" ry="18"/>
<text text-anchor="middle" x="115.04" y="-158.3" font-family="FreeSans" font-size="14.00" fill="#6666ff">Distribution</text>
</a>
</g>
</g>
<!-- Distribution::Locally -->
<g id="node2" class="node">
<title>Distribution::Locally</title>
<g id="a_node2"><a xlink:href="/type/Distribution::Locally" xlink:title="Distribution::Locally">
<ellipse fill="none" stroke="#6666ff" cx="115.04" cy="-90" rx="100.18" ry="18"/>
<text text-anchor="middle" x="115.04" y="-86.3" font-family="FreeSans" font-size="14.00" fill="#6666ff">Distribution::Locally</text>
</a>
</g>
</g>
<!-- Distribution::Locally&#45;&gt;Distribution -->
<g id="edge4" class="edge">
<title>Distribution::Locally&#45;&gt;Distribution</title>
<path fill="none" stroke="#6666ff" d="M115.04,-108.3C115.04,-116.02 115.04,-125.29 115.04,-133.89"/>
<polygon fill="#6666ff" stroke="#6666ff" points="111.54,-133.9 115.04,-143.9 118.54,-133.9 111.54,-133.9"/>
</g>
<!-- Mu -->
<g id="node3" class="node">
<title>Mu</title>
<g id="a_node3"><a xlink:href="/type/Mu" xlink:title="Mu">
<ellipse fill="none" stroke="#000000" cx="275.04" cy="-162" rx="27" ry="18"/>
<text text-anchor="middle" x="275.04" y="-158.3" font-family="FreeSans" font-size="14.00" fill="#000000">Mu</text>
</a>
</g>
</g>
<!-- Any -->
<g id="node4" class="node">
<title>Any</title>
<g id="a_node4"><a xlink:href="/type/Any" xlink:title="Any">
<ellipse fill="none" stroke="#000000" cx="275.04" cy="-90" rx="28.7" ry="18"/>
<text text-anchor="middle" x="275.04" y="-86.3" font-family="FreeSans" font-size="14.00" fill="#000000">Any</text>
</a>
</g>
</g>
<!-- Any&#45;&gt;Mu -->
<g id="edge1" class="edge">
<title>Any&#45;&gt;Mu</title>
<path fill="none" stroke="#000000" d="M275.04,-108.3C275.04,-116.02 275.04,-125.29 275.04,-133.89"/>
<polygon fill="#000000" stroke="#000000" points="271.54,-133.9 275.04,-143.9 278.54,-133.9 271.54,-133.9"/>
</g>
<!-- Distribution::Path -->
<g id="node5" class="node">
<title>Distribution::Path</title>
<g id="a_node5"><a xlink:href="/type/Distribution::Path" xlink:title="Distribution::Path">
<ellipse fill="none" stroke="#000000" cx="89.04" cy="-18" rx="89.08" ry="18"/>
<text text-anchor="middle" x="89.04" y="-14.3" font-family="FreeSans" font-size="14.00" fill="#000000">Distribution::Path</text>
</a>
</g>
</g>
<!-- Distribution::Path&#45;&gt;Distribution::Locally -->
<g id="edge5" class="edge">
<title>Distribution::Path&#45;&gt;Distribution::Locally</title>
<path fill="none" stroke="#6666ff" d="M95.47,-36.3C98.4,-44.19 101.93,-53.7 105.18,-62.45"/>
<polygon fill="#6666ff" stroke="#6666ff" points="101.93,-63.74 108.69,-71.9 108.49,-61.3 101.93,-63.74"/>
</g>
<!-- Distribution::Path&#45;&gt;Any -->
<g id="edge2" class="edge">
<title>Distribution::Path&#45;&gt;Any</title>
<path fill="none" stroke="#000000" d="M129.4,-34.19C162.86,-46.78 209.86,-64.47 241.33,-76.31"/>
<polygon fill="#000000" stroke="#000000" points="240.37,-79.69 250.97,-79.94 242.84,-73.14 240.37,-79.69"/>
</g>
<!-- Distribution::Hash -->
<g id="node6" class="node">
<title>Distribution::Hash</title>
<g id="a_node6"><a xlink:href="/type/Distribution::Hash" xlink:title="Distribution::Hash">
<ellipse fill="none" stroke="#000000" cx="288.04" cy="-18" rx="92.08" ry="18"/>
<text text-anchor="middle" x="288.04" y="-14.3" font-family="FreeSans" font-size="14.00" fill="#000000">Distribution::Hash</text>
</a>
</g>
</g>
<!-- Distribution::Hash&#45;&gt;Distribution::Locally -->
<g id="edge6" class="edge">
<title>Distribution::Hash&#45;&gt;Distribution::Locally</title>
<path fill="none" stroke="#6666ff" d="M249.65,-34.54C224.09,-44.88 190.32,-58.54 163,-69.6"/>
<polygon fill="#6666ff" stroke="#6666ff" points="161.58,-66.39 153.63,-73.39 164.21,-72.88 161.58,-66.39"/>
</g>
<!-- Distribution::Hash&#45;&gt;Any -->
<g id="edge3" class="edge">
<title>Distribution::Hash&#45;&gt;Any</title>
<path fill="none" stroke="#000000" d="M284.83,-36.3C283.4,-44.02 281.67,-53.29 280.08,-61.89"/>
<polygon fill="#000000" stroke="#000000" points="276.6,-61.42 278.22,-71.9 283.49,-62.7 276.6,-61.42"/>
</g>
</g>
</svg>
