<?xml version="1.0" encoding="UTF-8" standalone="no"?>
<!DOCTYPE svg PUBLIC "-//W3C//DTD SVG 1.1//EN"
 "http://www.w3.org/Graphics/SVG/1.1/DTD/svg11.dtd">
<!-- Generated by graphviz version 2.42.3 (0)
 -->
<!-- Title: perl6&#45;type&#45;graph Pages: 1 -->
<svg width="280pt" height="404pt"
 viewBox="0.00 0.00 279.54 404.00" xmlns="http://www.w3.org/2000/svg" xmlns:xlink="http://www.w3.org/1999/xlink">
<g id="graph0" class="graph" transform="scale(1 1) rotate(0) translate(4 400)">
<title>perl6&#45;type&#45;graph</title>
<polygon fill="white" stroke="transparent" points="-4,4 -4,-400 275.54,-400 275.54,4 -4,4"/>
<!-- X::Syntax::Perl5Var -->
<g id="node1" class="node">
<title>X::Syntax::Perl5Var</title>
<g id="a_node1"><a xlink:href="/type/X::Syntax::Perl5Var" xlink:title="X::Syntax::Perl5Var">
<ellipse fill="none" stroke="#000000" cx="98.14" cy="-18" rx="98.28" ry="18"/>
<text text-anchor="middle" x="98.14" y="-14.3" font-family="FreeSans" font-size="14.00" fill="#000000">X::Syntax::Perl5Var</text>
</a>
</g>
</g>
<!-- Exception -->
<g id="node4" class="node">
<title>Exception</title>
<g id="a_node4"><a xlink:href="/type/Exception" xlink:title="Exception">
<ellipse fill="none" stroke="#000000" cx="121.14" cy="-234" rx="55.49" ry="18"/>
<text text-anchor="middle" x="121.14" y="-230.3" font-family="FreeSans" font-size="14.00" fill="#000000">Exception</text>
</a>
</g>
</g>
<!-- X::Syntax::Perl5Var&#45;&gt;Exception -->
<g id="edge1" class="edge">
<title>X::Syntax::Perl5Var&#45;&gt;Exception</title>
<path fill="none" stroke="#000000" d="M96.11,-36.15C96.55,-73.34 105.78,-161.63 113.61,-206.23"/>
<polygon fill="#000000" stroke="#000000" points="110.18,-206.88 115.46,-216.06 117.05,-205.59 110.18,-206.88"/>
</g>
<!-- X::Syntax::Perl5Var&#45;&gt;Exception -->
<g id="edge2" class="edge">
<title>X::Syntax::Perl5Var&#45;&gt;Exception</title>
<path fill="none" stroke="#000000" d="M103.86,-36.15C111.38,-73.17 121.07,-160.82 122.89,-205.61"/>
<polygon fill="#000000" stroke="#000000" points="119.4,-205.87 123.17,-215.77 126.39,-205.67 119.4,-205.87"/>
</g>
<!-- X::Syntax -->
<g id="node6" class="node">
<title>X::Syntax</title>
<g id="a_node6"><a xlink:href="/type/X::Syntax" xlink:title="X::Syntax">
<ellipse fill="none" stroke="#6666ff" cx="189.14" cy="-90" rx="53.89" ry="18"/>
<text text-anchor="middle" x="189.14" y="-86.3" font-family="FreeSans" font-size="14.00" fill="#6666ff">X::Syntax</text>
</a>
</g>
</g>
<!-- X::Syntax::Perl5Var&#45;&gt;X::Syntax -->
<g id="edge7" class="edge">
<title>X::Syntax::Perl5Var&#45;&gt;X::Syntax</title>
<path fill="none" stroke="#6666ff" d="M119.71,-35.59C131.87,-44.94 147.21,-56.75 160.38,-66.88"/>
<polygon fill="#6666ff" stroke="#6666ff" points="158.61,-69.93 168.67,-73.25 162.88,-64.38 158.61,-69.93"/>
</g>
<!-- Mu -->
<g id="node2" class="node">
<title>Mu</title>
<g id="a_node2"><a xlink:href="/type/Mu" xlink:title="Mu">
<ellipse fill="none" stroke="#000000" cx="121.14" cy="-378" rx="27" ry="18"/>
<text text-anchor="middle" x="121.14" y="-374.3" font-family="FreeSans" font-size="14.00" fill="#000000">Mu</text>
</a>
</g>
</g>
<!-- Any -->
<g id="node3" class="node">
<title>Any</title>
<g id="a_node3"><a xlink:href="/type/Any" xlink:title="Any">
<ellipse fill="none" stroke="#000000" cx="121.14" cy="-306" rx="28.7" ry="18"/>
<text text-anchor="middle" x="121.14" y="-302.3" font-family="FreeSans" font-size="14.00" fill="#000000">Any</text>
</a>
</g>
</g>
<!-- Any&#45;&gt;Mu -->
<g id="edge3" class="edge">
<title>Any&#45;&gt;Mu</title>
<path fill="none" stroke="#000000" d="M121.14,-324.3C121.14,-332.02 121.14,-341.29 121.14,-349.89"/>
<polygon fill="#000000" stroke="#000000" points="117.64,-349.9 121.14,-359.9 124.64,-349.9 117.64,-349.9"/>
</g>
<!-- Exception&#45;&gt;Any -->
<g id="edge4" class="edge">
<title>Exception&#45;&gt;Any</title>
<path fill="none" stroke="#000000" d="M121.14,-252.3C121.14,-260.02 121.14,-269.29 121.14,-277.89"/>
<polygon fill="#000000" stroke="#000000" points="117.64,-277.9 121.14,-287.9 124.64,-277.9 117.64,-277.9"/>
</g>
<!-- X::Comp -->
<g id="node5" class="node">
<title>X::Comp</title>
<g id="a_node5"><a xlink:href="/type/X::Comp" xlink:title="X::Comp">
<ellipse fill="none" stroke="#6666ff" cx="222.14" cy="-162" rx="49.29" ry="18"/>
<text text-anchor="middle" x="222.14" y="-158.3" font-family="FreeSans" font-size="14.00" fill="#6666ff">X::Comp</text>
</a>
</g>
</g>
<!-- X::Comp&#45;&gt;Exception -->
<g id="edge5" class="edge">
<title>X::Comp&#45;&gt;Exception</title>
<path fill="none" stroke="#000000" d="M200.23,-178.19C186.13,-187.96 167.6,-200.8 152.02,-211.6"/>
<polygon fill="#000000" stroke="#000000" points="149.94,-208.78 143.71,-217.36 153.93,-214.54 149.94,-208.78"/>
</g>
<!-- X::Syntax&#45;&gt;Exception -->
<g id="edge6" class="edge">
<title>X::Syntax&#45;&gt;Exception</title>
<path fill="none" stroke="#000000" d="M181.07,-107.85C169.32,-132.4 147.37,-178.23 133.55,-207.09"/>
<polygon fill="#000000" stroke="#000000" points="130.36,-205.64 129.2,-216.18 136.67,-208.67 130.36,-205.64"/>
</g>
<!-- X::Syntax&#45;&gt;X::Comp -->
<g id="edge8" class="edge">
<title>X::Syntax&#45;&gt;X::Comp</title>
<path fill="none" stroke="#6666ff" d="M197.13,-107.95C200.94,-116.03 205.58,-125.88 209.83,-134.89"/>
<polygon fill="#6666ff" stroke="#6666ff" points="206.8,-136.66 214.23,-144.21 213.13,-133.67 206.8,-136.66"/>
</g>
</g>
</svg>
