<?xml version="1.0" encoding="UTF-8" standalone="no"?>
<!DOCTYPE svg PUBLIC "-//W3C//DTD SVG 1.1//EN"
 "http://www.w3.org/Graphics/SVG/1.1/DTD/svg11.dtd">
<!-- Generated by graphviz version 2.42.3 (0)
 -->
<!-- Title: perl6&#45;type&#45;graph Pages: 1 -->
<svg width="245pt" height="404pt"
 viewBox="0.00 0.00 244.58 404.00" xmlns="http://www.w3.org/2000/svg" xmlns:xlink="http://www.w3.org/1999/xlink">
<g id="graph0" class="graph" transform="scale(1 1) rotate(0) translate(4 400)">
<title>perl6&#45;type&#45;graph</title>
<polygon fill="white" stroke="transparent" points="-4,4 -4,-400 240.58,-400 240.58,4 -4,4"/>
<!-- X::Placeholder::Block -->
<g id="node1" class="node">
<title>X::Placeholder::Block</title>
<g id="a_node1"><a xlink:href="/type/X::Placeholder::Block" xlink:title="X::Placeholder::Block">
<ellipse fill="none" stroke="#000000" cx="118.29" cy="-90" rx="105.08" ry="18"/>
<text text-anchor="middle" x="118.29" y="-86.3" font-family="FreeSans" font-size="14.00" fill="#000000">X::Placeholder::Block</text>
</a>
</g>
</g>
<!-- Exception -->
<g id="node4" class="node">
<title>Exception</title>
<g id="a_node4"><a xlink:href="/type/Exception" xlink:title="Exception">
<ellipse fill="none" stroke="#000000" cx="118.29" cy="-234" rx="55.49" ry="18"/>
<text text-anchor="middle" x="118.29" y="-230.3" font-family="FreeSans" font-size="14.00" fill="#000000">Exception</text>
</a>
</g>
</g>
<!-- X::Placeholder::Block&#45;&gt;Exception -->
<g id="edge1" class="edge">
<title>X::Placeholder::Block&#45;&gt;Exception</title>
<path fill="none" stroke="#000000" d="M112.17,-108.06C106.62,-123.55 99.29,-144 99.29,-144 99.29,-144 99.29,-180 99.29,-180 99.29,-180 104.04,-193.24 108.78,-206.48"/>
<polygon fill="#000000" stroke="#000000" points="105.5,-207.71 112.17,-215.94 112.09,-205.34 105.5,-207.71"/>
</g>
<!-- X::Comp -->
<g id="node5" class="node">
<title>X::Comp</title>
<g id="a_node5"><a xlink:href="/type/X::Comp" xlink:title="X::Comp">
<ellipse fill="none" stroke="#6666ff" cx="157.29" cy="-162" rx="49.29" ry="18"/>
<text text-anchor="middle" x="157.29" y="-158.3" font-family="FreeSans" font-size="14.00" fill="#6666ff">X::Comp</text>
</a>
</g>
</g>
<!-- X::Placeholder::Block&#45;&gt;X::Comp -->
<g id="edge6" class="edge">
<title>X::Placeholder::Block&#45;&gt;X::Comp</title>
<path fill="none" stroke="#6666ff" d="M127.73,-107.95C132.33,-116.2 137.96,-126.3 143.06,-135.46"/>
<polygon fill="#6666ff" stroke="#6666ff" points="140.01,-137.18 147.94,-144.21 146.13,-133.77 140.01,-137.18"/>
</g>
<!-- Mu -->
<g id="node2" class="node">
<title>Mu</title>
<g id="a_node2"><a xlink:href="/type/Mu" xlink:title="Mu">
<ellipse fill="none" stroke="#000000" cx="118.29" cy="-378" rx="27" ry="18"/>
<text text-anchor="middle" x="118.29" y="-374.3" font-family="FreeSans" font-size="14.00" fill="#000000">Mu</text>
</a>
</g>
</g>
<!-- Any -->
<g id="node3" class="node">
<title>Any</title>
<g id="a_node3"><a xlink:href="/type/Any" xlink:title="Any">
<ellipse fill="none" stroke="#000000" cx="118.29" cy="-306" rx="28.7" ry="18"/>
<text text-anchor="middle" x="118.29" y="-302.3" font-family="FreeSans" font-size="14.00" fill="#000000">Any</text>
</a>
</g>
</g>
<!-- Any&#45;&gt;Mu -->
<g id="edge2" class="edge">
<title>Any&#45;&gt;Mu</title>
<path fill="none" stroke="#000000" d="M118.29,-324.3C118.29,-332.02 118.29,-341.29 118.29,-349.89"/>
<polygon fill="#000000" stroke="#000000" points="114.79,-349.9 118.29,-359.9 121.79,-349.9 114.79,-349.9"/>
</g>
<!-- Exception&#45;&gt;Any -->
<g id="edge3" class="edge">
<title>Exception&#45;&gt;Any</title>
<path fill="none" stroke="#000000" d="M118.29,-252.3C118.29,-260.02 118.29,-269.29 118.29,-277.89"/>
<polygon fill="#000000" stroke="#000000" points="114.79,-277.9 118.29,-287.9 121.79,-277.9 114.79,-277.9"/>
</g>
<!-- X::Comp&#45;&gt;Exception -->
<g id="edge4" class="edge">
<title>X::Comp&#45;&gt;Exception</title>
<path fill="none" stroke="#000000" d="M147.85,-179.95C143.25,-188.2 137.62,-198.3 132.52,-207.46"/>
<polygon fill="#000000" stroke="#000000" points="129.45,-205.77 127.64,-216.21 135.57,-209.18 129.45,-205.77"/>
</g>
<!-- X::Placeholder::Mainline -->
<g id="node6" class="node">
<title>X::Placeholder::Mainline</title>
<g id="a_node6"><a xlink:href="/type/X::Placeholder::Mainline" xlink:title="X::Placeholder::Mainline">
<ellipse fill="none" stroke="#000000" cx="118.29" cy="-18" rx="118.08" ry="18"/>
<text text-anchor="middle" x="118.29" y="-14.3" font-family="FreeSans" font-size="14.00" fill="#000000">X::Placeholder::Mainline</text>
</a>
</g>
</g>
<!-- X::Placeholder::Mainline&#45;&gt;X::Placeholder::Block -->
<g id="edge5" class="edge">
<title>X::Placeholder::Mainline&#45;&gt;X::Placeholder::Block</title>
<path fill="none" stroke="#000000" d="M118.29,-36.3C118.29,-44.02 118.29,-53.29 118.29,-61.89"/>
<polygon fill="#000000" stroke="#000000" points="114.79,-61.9 118.29,-71.9 121.79,-61.9 114.79,-61.9"/>
</g>
</g>
</svg>
