<?xml version="1.0" encoding="UTF-8" standalone="no"?>
<!DOCTYPE svg PUBLIC "-//W3C//DTD SVG 1.1//EN"
 "http://www.w3.org/Graphics/SVG/1.1/DTD/svg11.dtd">
<!-- Generated by graphviz version 2.42.3 (0)
 -->
<!-- Title: perl6&#45;type&#45;graph Pages: 1 -->
<svg width="325pt" height="404pt"
 viewBox="0.00 0.00 325.17 404.00" xmlns="http://www.w3.org/2000/svg" xmlns:xlink="http://www.w3.org/1999/xlink">
<g id="graph0" class="graph" transform="scale(1 1) rotate(0) translate(4 400)">
<title>perl6&#45;type&#45;graph</title>
<polygon fill="white" stroke="transparent" points="-4,4 -4,-400 321.17,-400 321.17,4 -4,4"/>
<!-- X::Syntax::Argument::MOPMacro -->
<g id="node1" class="node">
<title>X::Syntax::Argument::MOPMacro</title>
<g id="a_node1"><a xlink:href="/type/X::Syntax::Argument::MOPMacro" xlink:title="X::Syntax::Argument::MOPMacro">
<ellipse fill="none" stroke="#000000" cx="158.59" cy="-18" rx="158.67" ry="18"/>
<text text-anchor="middle" x="158.59" y="-14.3" font-family="FreeSans" font-size="14.00" fill="#000000">X::Syntax::Argument::MOPMacro</text>
</a>
</g>
</g>
<!-- Exception -->
<g id="node4" class="node">
<title>Exception</title>
<g id="a_node4"><a xlink:href="/type/Exception" xlink:title="Exception">
<ellipse fill="none" stroke="#000000" cx="155.59" cy="-234" rx="55.49" ry="18"/>
<text text-anchor="middle" x="155.59" y="-230.3" font-family="FreeSans" font-size="14.00" fill="#000000">Exception</text>
</a>
</g>
</g>
<!-- X::Syntax::Argument::MOPMacro&#45;&gt;Exception -->
<g id="edge1" class="edge">
<title>X::Syntax::Argument::MOPMacro&#45;&gt;Exception</title>
<path fill="none" stroke="#000000" d="M151.5,-36.06C145.07,-51.55 136.59,-72 136.59,-72 136.59,-72 136.59,-108 136.59,-108 136.59,-108 145.86,-169.01 151.45,-205.78"/>
<polygon fill="#000000" stroke="#000000" points="148.02,-206.52 152.98,-215.88 154.94,-205.47 148.02,-206.52"/>
</g>
<!-- X::Syntax -->
<g id="node6" class="node">
<title>X::Syntax</title>
<g id="a_node6"><a xlink:href="/type/X::Syntax" xlink:title="X::Syntax">
<ellipse fill="none" stroke="#6666ff" cx="199.59" cy="-90" rx="53.89" ry="18"/>
<text text-anchor="middle" x="199.59" y="-86.3" font-family="FreeSans" font-size="14.00" fill="#6666ff">X::Syntax</text>
</a>
</g>
</g>
<!-- X::Syntax::Argument::MOPMacro&#45;&gt;X::Syntax -->
<g id="edge6" class="edge">
<title>X::Syntax::Argument::MOPMacro&#45;&gt;X::Syntax</title>
<path fill="none" stroke="#6666ff" d="M168.72,-36.3C173.44,-44.36 179.15,-54.11 184.37,-63.02"/>
<polygon fill="#6666ff" stroke="#6666ff" points="181.49,-65.04 189.57,-71.9 187.53,-61.5 181.49,-65.04"/>
</g>
<!-- Mu -->
<g id="node2" class="node">
<title>Mu</title>
<g id="a_node2"><a xlink:href="/type/Mu" xlink:title="Mu">
<ellipse fill="none" stroke="#000000" cx="155.59" cy="-378" rx="27" ry="18"/>
<text text-anchor="middle" x="155.59" y="-374.3" font-family="FreeSans" font-size="14.00" fill="#000000">Mu</text>
</a>
</g>
</g>
<!-- Any -->
<g id="node3" class="node">
<title>Any</title>
<g id="a_node3"><a xlink:href="/type/Any" xlink:title="Any">
<ellipse fill="none" stroke="#000000" cx="155.59" cy="-306" rx="28.7" ry="18"/>
<text text-anchor="middle" x="155.59" y="-302.3" font-family="FreeSans" font-size="14.00" fill="#000000">Any</text>
</a>
</g>
</g>
<!-- Any&#45;&gt;Mu -->
<g id="edge2" class="edge">
<title>Any&#45;&gt;Mu</title>
<path fill="none" stroke="#000000" d="M155.59,-324.3C155.59,-332.02 155.59,-341.29 155.59,-349.89"/>
<polygon fill="#000000" stroke="#000000" points="152.09,-349.9 155.59,-359.9 159.09,-349.9 152.09,-349.9"/>
</g>
<!-- Exception&#45;&gt;Any -->
<g id="edge3" class="edge">
<title>Exception&#45;&gt;Any</title>
<path fill="none" stroke="#000000" d="M155.59,-252.3C155.59,-260.02 155.59,-269.29 155.59,-277.89"/>
<polygon fill="#000000" stroke="#000000" points="152.09,-277.9 155.59,-287.9 159.09,-277.9 152.09,-277.9"/>
</g>
<!-- X::Comp -->
<g id="node5" class="node">
<title>X::Comp</title>
<g id="a_node5"><a xlink:href="/type/X::Comp" xlink:title="X::Comp">
<ellipse fill="none" stroke="#6666ff" cx="232.59" cy="-162" rx="49.29" ry="18"/>
<text text-anchor="middle" x="232.59" y="-158.3" font-family="FreeSans" font-size="14.00" fill="#6666ff">X::Comp</text>
</a>
</g>
</g>
<!-- X::Comp&#45;&gt;Exception -->
<g id="edge4" class="edge">
<title>X::Comp&#45;&gt;Exception</title>
<path fill="none" stroke="#000000" d="M215.11,-178.88C204.95,-188.13 191.96,-199.93 180.71,-210.16"/>
<polygon fill="#000000" stroke="#000000" points="178.3,-207.62 173.26,-216.94 183.01,-212.8 178.3,-207.62"/>
</g>
<!-- X::Syntax&#45;&gt;Exception -->
<g id="edge5" class="edge">
<title>X::Syntax&#45;&gt;Exception</title>
<path fill="none" stroke="#000000" d="M191.54,-108.06C184.23,-123.55 174.59,-144 174.59,-144 174.59,-144 166.94,-179.83 161.34,-206.03"/>
<polygon fill="#000000" stroke="#000000" points="157.91,-205.33 159.25,-215.84 164.76,-206.79 157.91,-205.33"/>
</g>
<!-- X::Syntax&#45;&gt;X::Comp -->
<g id="edge7" class="edge">
<title>X::Syntax&#45;&gt;X::Comp</title>
<path fill="none" stroke="#6666ff" d="M207.57,-107.95C211.38,-116.03 216.03,-125.88 220.28,-134.89"/>
<polygon fill="#6666ff" stroke="#6666ff" points="217.24,-136.66 224.67,-144.21 223.57,-133.67 217.24,-136.66"/>
</g>
</g>
</svg>
