<?xml version="1.0" encoding="UTF-8" standalone="no"?>
<!DOCTYPE svg PUBLIC "-//W3C//DTD SVG 1.1//EN"
 "http://www.w3.org/Graphics/SVG/1.1/DTD/svg11.dtd">
<!-- Generated by graphviz version 2.42.3 (0)
 -->
<!-- Title: perl6&#45;type&#45;graph Pages: 1 -->
<svg width="837pt" height="845pt"
 viewBox="0.00 0.00 836.59 844.65" xmlns="http://www.w3.org/2000/svg" xmlns:xlink="http://www.w3.org/1999/xlink">
<g id="graph0" class="graph" transform="scale(1 1) rotate(0) translate(4 840.65)">
<title>perl6&#45;type&#45;graph</title>
<polygon fill="white" stroke="transparent" points="-4,4 -4,-840.65 832.59,-840.65 832.59,4 -4,4"/>
<!-- Metamodel::BaseDispatcher -->
<g id="node1" class="node">
<title>Metamodel::BaseDispatcher</title>
<g id="a_node1"><a xlink:href="/type/Metamodel::BaseDispatcher" xlink:title="Metamodel::BaseDispatcher">
<ellipse fill="none" stroke="#000000" cx="422.04" cy="-545.15" rx="137.28" ry="18"/>
<text text-anchor="middle" x="422.04" y="-541.45" font-family="FreeSans" font-size="14.00" fill="#000000">Metamodel::BaseDispatcher</text>
</a>
</g>
</g>
<!-- Any -->
<g id="node3" class="node">
<title>Any</title>
<g id="a_node3"><a xlink:href="/type/Any" xlink:title="Any">
<ellipse fill="none" stroke="#000000" cx="468.73" cy="-271.04" rx="28.7" ry="18"/>
<text text-anchor="middle" x="468.73" y="-267.34" font-family="FreeSans" font-size="14.00" fill="#000000">Any</text>
</a>
</g>
</g>
<!-- Metamodel::BaseDispatcher&#45;&gt;Any -->
<g id="edge1" class="edge">
<title>Metamodel::BaseDispatcher&#45;&gt;Any</title>
<path fill="none" stroke="#000000" d="M425.18,-526.74C433.19,-479.72 454.44,-354.95 463.98,-298.94"/>
<polygon fill="#000000" stroke="#000000" points="467.44,-299.46 465.67,-289.01 460.54,-298.28 467.44,-299.46"/>
</g>
<!-- Mu -->
<g id="node2" class="node">
<title>Mu</title>
<g id="a_node2"><a xlink:href="/type/Mu" xlink:title="Mu">
<ellipse fill="none" stroke="#000000" cx="530.97" cy="-18" rx="27" ry="18"/>
<text text-anchor="middle" x="530.97" y="-14.3" font-family="FreeSans" font-size="14.00" fill="#000000">Mu</text>
</a>
</g>
</g>
<!-- Any&#45;&gt;Mu -->
<g id="edge2" class="edge">
<title>Any&#45;&gt;Mu</title>
<path fill="none" stroke="#000000" d="M473.11,-253.24C483.8,-209.78 511.31,-97.95 524.16,-45.68"/>
<polygon fill="#000000" stroke="#000000" points="527.61,-46.32 526.6,-35.77 520.81,-44.65 527.61,-46.32"/>
</g>
<!-- Metamodel::WrapDispatcher -->
<g id="node4" class="node">
<title>Metamodel::WrapDispatcher</title>
<g id="a_node4"><a xlink:href="/type/Metamodel::WrapDispatcher" xlink:title="Metamodel::WrapDispatcher">
<ellipse fill="none" stroke="#000000" cx="138.44" cy="-535.46" rx="138.38" ry="18"/>
<text text-anchor="middle" x="138.44" y="-531.76" font-family="FreeSans" font-size="14.00" fill="#000000">Metamodel::WrapDispatcher</text>
</a>
</g>
</g>
<!-- Metamodel::WrapDispatcher&#45;&gt;Metamodel::BaseDispatcher -->
<g id="edge3" class="edge">
<title>Metamodel::WrapDispatcher&#45;&gt;Metamodel::BaseDispatcher</title>
<path fill="none" stroke="#000000" d="M272.35,-540.03C274.53,-540.11 276.72,-540.18 278.91,-540.26"/>
<polygon fill="#000000" stroke="#000000" points="279.03,-543.76 289.14,-540.61 279.27,-536.77 279.03,-543.76"/>
</g>
<!-- Metamodel::MultiDispatcher -->
<g id="node5" class="node">
<title>Metamodel::MultiDispatcher</title>
<g id="a_node5"><a xlink:href="/type/Metamodel::MultiDispatcher" xlink:title="Metamodel::MultiDispatcher">
<ellipse fill="none" stroke="#000000" cx="691.45" cy="-633.78" rx="137.28" ry="18"/>
<text text-anchor="middle" x="691.45" y="-630.08" font-family="FreeSans" font-size="14.00" fill="#000000">Metamodel::MultiDispatcher</text>
</a>
</g>
</g>
<!-- Metamodel::MultiDispatcher&#45;&gt;Metamodel::BaseDispatcher -->
<g id="edge4" class="edge">
<title>Metamodel::MultiDispatcher&#45;&gt;Metamodel::BaseDispatcher</title>
<path fill="none" stroke="#000000" d="M640.46,-617C595.65,-602.26 530.36,-580.78 482.84,-565.15"/>
<polygon fill="#000000" stroke="#000000" points="483.88,-561.81 473.28,-562.01 481.69,-568.46 483.88,-561.81"/>
</g>
<!-- Metamodel::MethodDispatcher -->
<g id="node6" class="node">
<title>Metamodel::MethodDispatcher</title>
<g id="a_node6"><a xlink:href="/type/Metamodel::MethodDispatcher" xlink:title="Metamodel::MethodDispatcher">
<ellipse fill="none" stroke="#000000" cx="374.43" cy="-818.65" rx="148.67" ry="18"/>
<text text-anchor="middle" x="374.43" y="-814.95" font-family="FreeSans" font-size="14.00" fill="#000000">Metamodel::MethodDispatcher</text>
</a>
</g>
</g>
<!-- Metamodel::MethodDispatcher&#45;&gt;Metamodel::BaseDispatcher -->
<g id="edge5" class="edge">
<title>Metamodel::MethodDispatcher&#45;&gt;Metamodel::BaseDispatcher</title>
<path fill="none" stroke="#000000" d="M377.63,-800.28C385.77,-753.47 407.36,-629.48 417.12,-573.4"/>
<polygon fill="#000000" stroke="#000000" points="420.59,-573.89 418.86,-563.44 413.69,-572.69 420.59,-573.89"/>
</g>
</g>
</svg>
