<?xml version="1.0" encoding="UTF-8" standalone="no"?>
<!DOCTYPE svg PUBLIC "-//W3C//DTD SVG 1.1//EN"
 "http://www.w3.org/Graphics/SVG/1.1/DTD/svg11.dtd">
<!-- Generated by graphviz version 2.42.3 (0)
 -->
<!-- Title: perl6&#45;type&#45;graph Pages: 1 -->
<svg width="206pt" height="332pt"
 viewBox="0.00 0.00 205.58 332.00" xmlns="http://www.w3.org/2000/svg" xmlns:xlink="http://www.w3.org/1999/xlink">
<g id="graph0" class="graph" transform="scale(1 1) rotate(0) translate(4 328)">
<title>perl6&#45;type&#45;graph</title>
<polygon fill="white" stroke="transparent" points="-4,4 -4,-328 201.58,-328 201.58,4 -4,4"/>
<!-- X::Bind::NativeType -->
<g id="node1" class="node">
<title>X::Bind::NativeType</title>
<g id="a_node1"><a xlink:href="/type/X::Bind::NativeType" xlink:title="X::Bind::NativeType">
<ellipse fill="none" stroke="#000000" cx="98.79" cy="-18" rx="98.58" ry="18"/>
<text text-anchor="middle" x="98.79" y="-14.3" font-family="FreeSans" font-size="14.00" fill="#000000">X::Bind::NativeType</text>
</a>
</g>
</g>
<!-- Exception -->
<g id="node4" class="node">
<title>Exception</title>
<g id="a_node4"><a xlink:href="/type/Exception" xlink:title="Exception">
<ellipse fill="none" stroke="#000000" cx="98.79" cy="-162" rx="55.49" ry="18"/>
<text text-anchor="middle" x="98.79" y="-158.3" font-family="FreeSans" font-size="14.00" fill="#000000">Exception</text>
</a>
</g>
</g>
<!-- X::Bind::NativeType&#45;&gt;Exception -->
<g id="edge1" class="edge">
<title>X::Bind::NativeType&#45;&gt;Exception</title>
<path fill="none" stroke="#000000" d="M92.67,-36.06C87.12,-51.55 79.79,-72 79.79,-72 79.79,-72 79.79,-108 79.79,-108 79.79,-108 84.54,-121.24 89.29,-134.48"/>
<polygon fill="#000000" stroke="#000000" points="86.01,-135.71 92.67,-143.94 92.59,-133.34 86.01,-135.71"/>
</g>
<!-- X::Comp -->
<g id="node5" class="node">
<title>X::Comp</title>
<g id="a_node5"><a xlink:href="/type/X::Comp" xlink:title="X::Comp">
<ellipse fill="none" stroke="#6666ff" cx="137.79" cy="-90" rx="49.29" ry="18"/>
<text text-anchor="middle" x="137.79" y="-86.3" font-family="FreeSans" font-size="14.00" fill="#6666ff">X::Comp</text>
</a>
</g>
</g>
<!-- X::Bind::NativeType&#45;&gt;X::Comp -->
<g id="edge5" class="edge">
<title>X::Bind::NativeType&#45;&gt;X::Comp</title>
<path fill="none" stroke="#6666ff" d="M108.23,-35.95C112.83,-44.2 118.46,-54.3 123.56,-63.46"/>
<polygon fill="#6666ff" stroke="#6666ff" points="120.51,-65.18 128.44,-72.21 126.63,-61.77 120.51,-65.18"/>
</g>
<!-- Mu -->
<g id="node2" class="node">
<title>Mu</title>
<g id="a_node2"><a xlink:href="/type/Mu" xlink:title="Mu">
<ellipse fill="none" stroke="#000000" cx="98.79" cy="-306" rx="27" ry="18"/>
<text text-anchor="middle" x="98.79" y="-302.3" font-family="FreeSans" font-size="14.00" fill="#000000">Mu</text>
</a>
</g>
</g>
<!-- Any -->
<g id="node3" class="node">
<title>Any</title>
<g id="a_node3"><a xlink:href="/type/Any" xlink:title="Any">
<ellipse fill="none" stroke="#000000" cx="98.79" cy="-234" rx="28.7" ry="18"/>
<text text-anchor="middle" x="98.79" y="-230.3" font-family="FreeSans" font-size="14.00" fill="#000000">Any</text>
</a>
</g>
</g>
<!-- Any&#45;&gt;Mu -->
<g id="edge2" class="edge">
<title>Any&#45;&gt;Mu</title>
<path fill="none" stroke="#000000" d="M98.79,-252.3C98.79,-260.02 98.79,-269.29 98.79,-277.89"/>
<polygon fill="#000000" stroke="#000000" points="95.29,-277.9 98.79,-287.9 102.29,-277.9 95.29,-277.9"/>
</g>
<!-- Exception&#45;&gt;Any -->
<g id="edge3" class="edge">
<title>Exception&#45;&gt;Any</title>
<path fill="none" stroke="#000000" d="M98.79,-180.3C98.79,-188.02 98.79,-197.29 98.79,-205.89"/>
<polygon fill="#000000" stroke="#000000" points="95.29,-205.9 98.79,-215.9 102.29,-205.9 95.29,-205.9"/>
</g>
<!-- X::Comp&#45;&gt;Exception -->
<g id="edge4" class="edge">
<title>X::Comp&#45;&gt;Exception</title>
<path fill="none" stroke="#000000" d="M128.35,-107.95C123.75,-116.2 118.12,-126.3 113.02,-135.46"/>
<polygon fill="#000000" stroke="#000000" points="109.95,-133.77 108.15,-144.21 116.07,-137.18 109.95,-133.77"/>
</g>
</g>
</svg>
