<?xml version="1.0" encoding="UTF-8" standalone="no"?>
<!DOCTYPE svg PUBLIC "-//W3C//DTD SVG 1.1//EN"
 "http://www.w3.org/Graphics/SVG/1.1/DTD/svg11.dtd">
<!-- Generated by graphviz version 2.42.3 (0)
 -->
<!-- Title: perl6&#45;type&#45;graph Pages: 1 -->
<svg width="690pt" height="332pt"
 viewBox="0.00 0.00 689.89 332.00" xmlns="http://www.w3.org/2000/svg" xmlns:xlink="http://www.w3.org/1999/xlink">
<g id="graph0" class="graph" transform="scale(1 1) rotate(0) translate(4 328)">
<title>perl6&#45;type&#45;graph</title>
<polygon fill="white" stroke="transparent" points="-4,4 -4,-328 685.89,-328 685.89,4 -4,4"/>
<!-- IO -->
<g id="node1" class="node">
<title>IO</title>
<g id="a_node1"><a xlink:href="/type/IO" xlink:title="IO">
<ellipse fill="none" stroke="#6666ff" cx="264.44" cy="-162" rx="27" ry="18"/>
<text text-anchor="middle" x="264.44" y="-158.3" font-family="FreeSans" font-size="14.00" fill="#6666ff">IO</text>
</a>
</g>
</g>
<!-- Mu -->
<g id="node2" class="node">
<title>Mu</title>
<g id="a_node2"><a xlink:href="/type/Mu" xlink:title="Mu">
<ellipse fill="none" stroke="#000000" cx="274.44" cy="-306" rx="27" ry="18"/>
<text text-anchor="middle" x="274.44" y="-302.3" font-family="FreeSans" font-size="14.00" fill="#000000">Mu</text>
</a>
</g>
</g>
<!-- Any -->
<g id="node3" class="node">
<title>Any</title>
<g id="a_node3"><a xlink:href="/type/Any" xlink:title="Any">
<ellipse fill="none" stroke="#000000" cx="274.44" cy="-234" rx="28.7" ry="18"/>
<text text-anchor="middle" x="274.44" y="-230.3" font-family="FreeSans" font-size="14.00" fill="#000000">Any</text>
</a>
</g>
</g>
<!-- Any&#45;&gt;Mu -->
<g id="edge1" class="edge">
<title>Any&#45;&gt;Mu</title>
<path fill="none" stroke="#000000" d="M274.44,-252.3C274.44,-260.02 274.44,-269.29 274.44,-277.89"/>
<polygon fill="#000000" stroke="#000000" points="270.94,-277.9 274.44,-287.9 277.94,-277.9 270.94,-277.9"/>
</g>
<!-- Cool -->
<g id="node4" class="node">
<title>Cool</title>
<g id="a_node4"><a xlink:href="/type/Cool" xlink:title="Cool">
<ellipse fill="none" stroke="#000000" cx="340.44" cy="-162" rx="30.59" ry="18"/>
<text text-anchor="middle" x="340.44" y="-158.3" font-family="FreeSans" font-size="14.00" fill="#000000">Cool</text>
</a>
</g>
</g>
<!-- Cool&#45;&gt;Any -->
<g id="edge2" class="edge">
<title>Cool&#45;&gt;Any</title>
<path fill="none" stroke="#000000" d="M326.12,-178.19C317.21,-187.64 305.6,-199.96 295.64,-210.52"/>
<polygon fill="#000000" stroke="#000000" points="293.05,-208.16 288.74,-217.84 298.14,-212.97 293.05,-208.16"/>
</g>
<!-- IO::Path -->
<g id="node5" class="node">
<title>IO::Path</title>
<g id="a_node5"><a xlink:href="/type/IO::Path" xlink:title="IO::Path">
<ellipse fill="none" stroke="#000000" cx="338.44" cy="-90" rx="46.59" ry="18"/>
<text text-anchor="middle" x="338.44" y="-86.3" font-family="FreeSans" font-size="14.00" fill="#000000">IO::Path</text>
</a>
</g>
</g>
<!-- IO::Path&#45;&gt;IO -->
<g id="edge9" class="edge">
<title>IO::Path&#45;&gt;IO</title>
<path fill="none" stroke="#6666ff" d="M321.65,-106.88C311.4,-116.59 298.15,-129.11 286.99,-139.67"/>
<polygon fill="#6666ff" stroke="#6666ff" points="284.52,-137.19 279.66,-146.61 289.33,-142.28 284.52,-137.19"/>
</g>
<!-- IO::Path&#45;&gt;Cool -->
<g id="edge3" class="edge">
<title>IO::Path&#45;&gt;Cool</title>
<path fill="none" stroke="#000000" d="M338.94,-108.3C339.16,-116.02 339.42,-125.29 339.67,-133.89"/>
<polygon fill="#000000" stroke="#000000" points="336.17,-134 339.95,-143.9 343.17,-133.8 336.17,-134"/>
</g>
<!-- IO::Special -->
<g id="node6" class="node">
<title>IO::Special</title>
<g id="a_node6"><a xlink:href="/type/IO::Special" xlink:title="IO::Special">
<ellipse fill="none" stroke="#000000" cx="212.44" cy="-90" rx="59.29" ry="18"/>
<text text-anchor="middle" x="212.44" y="-86.3" font-family="FreeSans" font-size="14.00" fill="#000000">IO::Special</text>
</a>
</g>
</g>
<!-- IO::Special&#45;&gt;IO -->
<g id="edge10" class="edge">
<title>IO::Special&#45;&gt;IO</title>
<path fill="none" stroke="#6666ff" d="M225.03,-107.95C231.63,-116.83 239.82,-127.86 247.03,-137.55"/>
<polygon fill="#6666ff" stroke="#6666ff" points="244.26,-139.7 253.04,-145.64 249.88,-135.53 244.26,-139.7"/>
</g>
<!-- IO::Special&#45;&gt;Any -->
<g id="edge4" class="edge">
<title>IO::Special&#45;&gt;Any</title>
<path fill="none" stroke="#000000" d="M215.53,-108.16C220.18,-134.02 228.44,-180 228.44,-180 228.44,-180 242.21,-195.86 254.69,-210.23"/>
<polygon fill="#000000" stroke="#000000" points="252.19,-212.7 261.38,-217.95 257.47,-208.11 252.19,-212.7"/>
</g>
<!-- IO::Path::QNX -->
<g id="node7" class="node">
<title>IO::Path::QNX</title>
<g id="a_node7"><a xlink:href="/type/IO::Path::QNX" xlink:title="IO::Path::QNX">
<ellipse fill="none" stroke="#000000" cx="73.44" cy="-18" rx="73.39" ry="18"/>
<text text-anchor="middle" x="73.44" y="-14.3" font-family="FreeSans" font-size="14.00" fill="#000000">IO::Path::QNX</text>
</a>
</g>
</g>
<!-- IO::Path::QNX&#45;&gt;IO::Path -->
<g id="edge5" class="edge">
<title>IO::Path::QNX&#45;&gt;IO::Path</title>
<path fill="none" stroke="#000000" d="M122.24,-31.49C183.44,-47.16 280.44,-72 280.44,-72 280.44,-72 285.45,-73.47 292.53,-75.54"/>
<polygon fill="#000000" stroke="#000000" points="291.79,-78.97 302.37,-78.43 293.76,-72.26 291.79,-78.97"/>
</g>
<!-- IO::Path::Win32 -->
<g id="node8" class="node">
<title>IO::Path::Win32</title>
<g id="a_node8"><a xlink:href="/type/IO::Path::Win32" xlink:title="IO::Path::Win32">
<ellipse fill="none" stroke="#000000" cx="246.44" cy="-18" rx="81.49" ry="18"/>
<text text-anchor="middle" x="246.44" y="-14.3" font-family="FreeSans" font-size="14.00" fill="#000000">IO::Path::Win32</text>
</a>
</g>
</g>
<!-- IO::Path::Win32&#45;&gt;IO::Path -->
<g id="edge6" class="edge">
<title>IO::Path::Win32&#45;&gt;IO::Path</title>
<path fill="none" stroke="#000000" d="M268.25,-35.59C280.83,-45.16 296.79,-57.31 310.32,-67.6"/>
<polygon fill="#000000" stroke="#000000" points="308.29,-70.46 318.37,-73.73 312.53,-64.89 308.29,-70.46"/>
</g>
<!-- IO::Path::Cygwin -->
<g id="node9" class="node">
<title>IO::Path::Cygwin</title>
<g id="a_node9"><a xlink:href="/type/IO::Path::Cygwin" xlink:title="IO::Path::Cygwin">
<ellipse fill="none" stroke="#000000" cx="431.44" cy="-18" rx="85.59" ry="18"/>
<text text-anchor="middle" x="431.44" y="-14.3" font-family="FreeSans" font-size="14.00" fill="#000000">IO::Path::Cygwin</text>
</a>
</g>
</g>
<!-- IO::Path::Cygwin&#45;&gt;IO::Path -->
<g id="edge7" class="edge">
<title>IO::Path::Cygwin&#45;&gt;IO::Path</title>
<path fill="none" stroke="#000000" d="M409.4,-35.59C396.68,-45.16 380.55,-57.31 366.88,-67.6"/>
<polygon fill="#000000" stroke="#000000" points="364.62,-64.92 358.74,-73.73 368.83,-70.51 364.62,-64.92"/>
</g>
<!-- IO::Path::Unix -->
<g id="node10" class="node">
<title>IO::Path::Unix</title>
<g id="a_node10"><a xlink:href="/type/IO::Path::Unix" xlink:title="IO::Path::Unix">
<ellipse fill="none" stroke="#000000" cx="608.44" cy="-18" rx="73.39" ry="18"/>
<text text-anchor="middle" x="608.44" y="-14.3" font-family="FreeSans" font-size="14.00" fill="#000000">IO::Path::Unix</text>
</a>
</g>
</g>
<!-- IO::Path::Unix&#45;&gt;IO::Path -->
<g id="edge8" class="edge">
<title>IO::Path::Unix&#45;&gt;IO::Path</title>
<path fill="none" stroke="#000000" d="M559.86,-31.6C510.57,-44.37 434.77,-64.03 385.9,-76.7"/>
<polygon fill="#000000" stroke="#000000" points="385,-73.32 376.19,-79.21 386.75,-80.09 385,-73.32"/>
</g>
</g>
</svg>
