<?xml version="1.0" encoding="UTF-8" standalone="no"?>
<!DOCTYPE svg PUBLIC "-//W3C//DTD SVG 1.1//EN"
 "http://www.w3.org/Graphics/SVG/1.1/DTD/svg11.dtd">
<!-- Generated by graphviz version 2.42.3 (0)
 -->
<!-- Title: perl6&#45;type&#45;graph Pages: 1 -->
<svg width="390pt" height="404pt"
 viewBox="0.00 0.00 390.23 404.00" xmlns="http://www.w3.org/2000/svg" xmlns:xlink="http://www.w3.org/1999/xlink">
<g id="graph0" class="graph" transform="scale(1 1) rotate(0) translate(4 400)">
<title>perl6&#45;type&#45;graph</title>
<polygon fill="white" stroke="transparent" points="-4,4 -4,-400 386.23,-400 386.23,4 -4,4"/>
<!-- X::Syntax::Pod::BeginWithoutIdentifier -->
<g id="node1" class="node">
<title>X::Syntax::Pod::BeginWithoutIdentifier</title>
<g id="a_node1"><a xlink:href="/type/X::Syntax::Pod::BeginWithoutIdentifier" xlink:title="X::Syntax::Pod::BeginWithoutIdentifier">
<ellipse fill="none" stroke="#000000" cx="184.58" cy="-18" rx="184.67" ry="18"/>
<text text-anchor="middle" x="184.58" y="-14.3" font-family="FreeSans" font-size="14.00" fill="#000000">X::Syntax::Pod::BeginWithoutIdentifier</text>
</a>
</g>
</g>
<!-- Exception -->
<g id="node4" class="node">
<title>Exception</title>
<g id="a_node4"><a xlink:href="/type/Exception" xlink:title="Exception">
<ellipse fill="none" stroke="#000000" cx="162.58" cy="-234" rx="55.49" ry="18"/>
<text text-anchor="middle" x="162.58" y="-230.3" font-family="FreeSans" font-size="14.00" fill="#000000">Exception</text>
</a>
</g>
</g>
<!-- X::Syntax::Pod::BeginWithoutIdentifier&#45;&gt;Exception -->
<g id="edge1" class="edge">
<title>X::Syntax::Pod::BeginWithoutIdentifier&#45;&gt;Exception</title>
<path fill="none" stroke="#000000" d="M172.27,-36.06C165.14,-51.55 158.58,-72 158.58,-72 158.58,-72 155.86,-159.62 158.05,-205.59"/>
<polygon fill="#000000" stroke="#000000" points="154.57,-206 158.67,-215.77 161.55,-205.57 154.57,-206"/>
</g>
<!-- X::Syntax::Pod::BeginWithoutIdentifier&#45;&gt;Exception -->
<g id="edge2" class="edge">
<title>X::Syntax::Pod::BeginWithoutIdentifier&#45;&gt;Exception</title>
<path fill="none" stroke="#000000" d="M185.95,-36.06C183.14,-51.55 176.58,-72 176.58,-72 176.58,-72 173.86,-159.62 168.82,-205.59"/>
<polygon fill="#000000" stroke="#000000" points="165.32,-205.42 167.56,-215.77 172.26,-206.27 165.32,-205.42"/>
</g>
<!-- X::Syntax -->
<g id="node6" class="node">
<title>X::Syntax</title>
<g id="a_node6"><a xlink:href="/type/X::Syntax" xlink:title="X::Syntax">
<ellipse fill="none" stroke="#6666ff" cx="230.58" cy="-90" rx="53.89" ry="18"/>
<text text-anchor="middle" x="230.58" y="-86.3" font-family="FreeSans" font-size="14.00" fill="#6666ff">X::Syntax</text>
</a>
</g>
</g>
<!-- X::Syntax::Pod::BeginWithoutIdentifier&#45;&gt;X::Syntax -->
<g id="edge7" class="edge">
<title>X::Syntax::Pod::BeginWithoutIdentifier&#45;&gt;X::Syntax</title>
<path fill="none" stroke="#6666ff" d="M195.95,-36.3C201.3,-44.44 207.79,-54.31 213.69,-63.3"/>
<polygon fill="#6666ff" stroke="#6666ff" points="210.93,-65.46 219.34,-71.9 216.78,-61.62 210.93,-65.46"/>
</g>
<!-- X::Pod -->
<g id="node7" class="node">
<title>X::Pod</title>
<g id="a_node7"><a xlink:href="/type/X::Pod" xlink:title="X::Pod">
<ellipse fill="none" stroke="#6666ff" cx="342.58" cy="-90" rx="39.79" ry="18"/>
<text text-anchor="middle" x="342.58" y="-86.3" font-family="FreeSans" font-size="14.00" fill="#6666ff">X::Pod</text>
</a>
</g>
</g>
<!-- X::Syntax::Pod::BeginWithoutIdentifier&#45;&gt;X::Pod -->
<g id="edge8" class="edge">
<title>X::Syntax::Pod::BeginWithoutIdentifier&#45;&gt;X::Pod</title>
<path fill="none" stroke="#6666ff" d="M222.43,-35.77C247.69,-46.96 280.73,-61.6 305.77,-72.69"/>
<polygon fill="#6666ff" stroke="#6666ff" points="304.38,-75.9 314.94,-76.75 307.22,-69.5 304.38,-75.9"/>
</g>
<!-- Mu -->
<g id="node2" class="node">
<title>Mu</title>
<g id="a_node2"><a xlink:href="/type/Mu" xlink:title="Mu">
<ellipse fill="none" stroke="#000000" cx="162.58" cy="-378" rx="27" ry="18"/>
<text text-anchor="middle" x="162.58" y="-374.3" font-family="FreeSans" font-size="14.00" fill="#000000">Mu</text>
</a>
</g>
</g>
<!-- Any -->
<g id="node3" class="node">
<title>Any</title>
<g id="a_node3"><a xlink:href="/type/Any" xlink:title="Any">
<ellipse fill="none" stroke="#000000" cx="162.58" cy="-306" rx="28.7" ry="18"/>
<text text-anchor="middle" x="162.58" y="-302.3" font-family="FreeSans" font-size="14.00" fill="#000000">Any</text>
</a>
</g>
</g>
<!-- Any&#45;&gt;Mu -->
<g id="edge3" class="edge">
<title>Any&#45;&gt;Mu</title>
<path fill="none" stroke="#000000" d="M162.58,-324.3C162.58,-332.02 162.58,-341.29 162.58,-349.89"/>
<polygon fill="#000000" stroke="#000000" points="159.08,-349.9 162.58,-359.9 166.08,-349.9 159.08,-349.9"/>
</g>
<!-- Exception&#45;&gt;Any -->
<g id="edge4" class="edge">
<title>Exception&#45;&gt;Any</title>
<path fill="none" stroke="#000000" d="M162.58,-252.3C162.58,-260.02 162.58,-269.29 162.58,-277.89"/>
<polygon fill="#000000" stroke="#000000" points="159.08,-277.9 162.58,-287.9 166.08,-277.9 159.08,-277.9"/>
</g>
<!-- X::Comp -->
<g id="node5" class="node">
<title>X::Comp</title>
<g id="a_node5"><a xlink:href="/type/X::Comp" xlink:title="X::Comp">
<ellipse fill="none" stroke="#6666ff" cx="263.58" cy="-162" rx="49.29" ry="18"/>
<text text-anchor="middle" x="263.58" y="-158.3" font-family="FreeSans" font-size="14.00" fill="#6666ff">X::Comp</text>
</a>
</g>
</g>
<!-- X::Comp&#45;&gt;Exception -->
<g id="edge5" class="edge">
<title>X::Comp&#45;&gt;Exception</title>
<path fill="none" stroke="#000000" d="M241.67,-178.19C227.57,-187.96 209.04,-200.8 193.46,-211.6"/>
<polygon fill="#000000" stroke="#000000" points="191.38,-208.78 185.16,-217.36 195.37,-214.54 191.38,-208.78"/>
</g>
<!-- X::Syntax&#45;&gt;Exception -->
<g id="edge6" class="edge">
<title>X::Syntax&#45;&gt;Exception</title>
<path fill="none" stroke="#000000" d="M222.52,-107.85C210.76,-132.4 188.81,-178.23 174.99,-207.09"/>
<polygon fill="#000000" stroke="#000000" points="171.8,-205.64 170.64,-216.18 178.12,-208.67 171.8,-205.64"/>
</g>
<!-- X::Syntax&#45;&gt;X::Comp -->
<g id="edge9" class="edge">
<title>X::Syntax&#45;&gt;X::Comp</title>
<path fill="none" stroke="#6666ff" d="M238.57,-107.95C242.38,-116.03 247.03,-125.88 251.27,-134.89"/>
<polygon fill="#6666ff" stroke="#6666ff" points="248.24,-136.66 255.67,-144.21 254.57,-133.67 248.24,-136.66"/>
</g>
</g>
</svg>
