<?xml version="1.0" encoding="UTF-8" standalone="no"?>
<!DOCTYPE svg PUBLIC "-//W3C//DTD SVG 1.1//EN"
 "http://www.w3.org/Graphics/SVG/1.1/DTD/svg11.dtd">
<!-- Generated by graphviz version 2.42.3 (0)
 -->
<!-- Title: perl6&#45;type&#45;graph Pages: 1 -->
<svg width="819pt" height="821pt"
 viewBox="0.00 0.00 819.42 820.70" xmlns="http://www.w3.org/2000/svg" xmlns:xlink="http://www.w3.org/1999/xlink">
<g id="graph0" class="graph" transform="scale(1 1) rotate(0) translate(4 816.7)">
<title>perl6&#45;type&#45;graph</title>
<polygon fill="white" stroke="transparent" points="-4,4 -4,-816.7 815.42,-816.7 815.42,4 -4,4"/>
<!-- Metamodel::PackageHOW -->
<g id="node1" class="node">
<title>Metamodel::PackageHOW</title>
<g id="a_node1"><a xlink:href="/type/Metamodel::PackageHOW" xlink:title="Metamodel::PackageHOW">
<ellipse fill="none" stroke="#000000" cx="380.28" cy="-528.01" rx="126.98" ry="18"/>
<text text-anchor="middle" x="380.28" y="-524.31" font-family="FreeSans" font-size="14.00" fill="#000000">Metamodel::PackageHOW</text>
</a>
</g>
</g>
<!-- Any -->
<g id="node3" class="node">
<title>Any</title>
<g id="a_node3"><a xlink:href="/type/Any" xlink:title="Any">
<ellipse fill="none" stroke="#000000" cx="481.63" cy="-257.08" rx="28.7" ry="18"/>
<text text-anchor="middle" x="481.63" y="-253.38" font-family="FreeSans" font-size="14.00" fill="#000000">Any</text>
</a>
</g>
</g>
<!-- Metamodel::PackageHOW&#45;&gt;Any -->
<g id="edge1" class="edge">
<title>Metamodel::PackageHOW&#45;&gt;Any</title>
<path fill="none" stroke="#000000" d="M387.09,-509.82C404.51,-463.24 450.8,-339.51 471.44,-284.32"/>
<polygon fill="#000000" stroke="#000000" points="474.76,-285.44 474.99,-274.85 468.21,-282.99 474.76,-285.44"/>
</g>
<!-- Metamodel::Naming -->
<g id="node4" class="node">
<title>Metamodel::Naming</title>
<g id="a_node4"><a xlink:href="/type/Metamodel::Naming" xlink:title="Metamodel::Naming">
<ellipse fill="none" stroke="#6666ff" cx="101.39" cy="-594.19" rx="101.28" ry="18"/>
<text text-anchor="middle" x="101.39" y="-590.49" font-family="FreeSans" font-size="14.00" fill="#6666ff">Metamodel::Naming</text>
</a>
</g>
</g>
<!-- Metamodel::PackageHOW&#45;&gt;Metamodel::Naming -->
<g id="edge3" class="edge">
<title>Metamodel::PackageHOW&#45;&gt;Metamodel::Naming</title>
<path fill="none" stroke="#6666ff" d="M314.9,-543.53C272.09,-553.68 216.16,-566.95 172.29,-577.37"/>
<polygon fill="#6666ff" stroke="#6666ff" points="171.47,-573.96 162.55,-579.68 173.09,-580.77 171.47,-573.96"/>
</g>
<!-- Metamodel::Documenting -->
<g id="node5" class="node">
<title>Metamodel::Documenting</title>
<g id="a_node5"><a xlink:href="/type/Metamodel::Documenting" xlink:title="Metamodel::Documenting">
<ellipse fill="none" stroke="#6666ff" cx="547.58" cy="-761.69" rx="126.98" ry="18"/>
<text text-anchor="middle" x="547.58" y="-757.99" font-family="FreeSans" font-size="14.00" fill="#6666ff">Metamodel::Documenting</text>
</a>
</g>
</g>
<!-- Metamodel::PackageHOW&#45;&gt;Metamodel::Documenting -->
<g id="edge4" class="edge">
<title>Metamodel::PackageHOW&#45;&gt;Metamodel::Documenting</title>
<path fill="none" stroke="#6666ff" d="M393.13,-545.96C422.45,-586.91 494.38,-687.38 528.73,-735.36"/>
<polygon fill="#6666ff" stroke="#6666ff" points="526.02,-737.58 534.69,-743.68 531.71,-733.51 526.02,-737.58"/>
</g>
<!-- Metamodel::Stashing -->
<g id="node6" class="node">
<title>Metamodel::Stashing</title>
<g id="a_node6"><a xlink:href="/type/Metamodel::Stashing" xlink:title="Metamodel::Stashing">
<ellipse fill="none" stroke="#6666ff" cx="281.24" cy="-794.7" rx="105.88" ry="18"/>
<text text-anchor="middle" x="281.24" y="-791" font-family="FreeSans" font-size="14.00" fill="#6666ff">Metamodel::Stashing</text>
</a>
</g>
</g>
<!-- Metamodel::PackageHOW&#45;&gt;Metamodel::Stashing -->
<g id="edge5" class="edge">
<title>Metamodel::PackageHOW&#45;&gt;Metamodel::Stashing</title>
<path fill="none" stroke="#6666ff" d="M373.48,-546.34C356.44,-592.22 311.86,-712.24 291.57,-766.88"/>
<polygon fill="#6666ff" stroke="#6666ff" points="288.16,-766 287.96,-776.6 294.73,-768.44 288.16,-766"/>
</g>
<!-- Metamodel::TypePretense -->
<g id="node7" class="node">
<title>Metamodel::TypePretense</title>
<g id="a_node7"><a xlink:href="/type/Metamodel::TypePretense" xlink:title="Metamodel::TypePretense">
<ellipse fill="none" stroke="#6666ff" cx="165.65" cy="-342.09" rx="126.18" ry="18"/>
<text text-anchor="middle" x="165.65" y="-338.39" font-family="FreeSans" font-size="14.00" fill="#6666ff">Metamodel::TypePretense</text>
</a>
</g>
</g>
<!-- Metamodel::PackageHOW&#45;&gt;Metamodel::TypePretense -->
<g id="edge6" class="edge">
<title>Metamodel::PackageHOW&#45;&gt;Metamodel::TypePretense</title>
<path fill="none" stroke="#6666ff" d="M359.7,-510.19C321.08,-476.73 237.7,-404.5 193.87,-366.54"/>
<polygon fill="#6666ff" stroke="#6666ff" points="196.02,-363.77 186.17,-359.86 191.44,-369.06 196.02,-363.77"/>
</g>
<!-- Metamodel::MethodDelegation -->
<g id="node8" class="node">
<title>Metamodel::MethodDelegation</title>
<g id="a_node8"><a xlink:href="/type/Metamodel::MethodDelegation" xlink:title="Metamodel::MethodDelegation">
<ellipse fill="none" stroke="#6666ff" cx="663.24" cy="-531.08" rx="148.37" ry="18"/>
<text text-anchor="middle" x="663.24" y="-527.38" font-family="FreeSans" font-size="14.00" fill="#6666ff">Metamodel::MethodDelegation</text>
</a>
</g>
</g>
<!-- Metamodel::PackageHOW&#45;&gt;Metamodel::MethodDelegation -->
<g id="edge7" class="edge">
<title>Metamodel::PackageHOW&#45;&gt;Metamodel::MethodDelegation</title>
<path fill="none" stroke="#6666ff" d="M506.86,-529.38C506.95,-529.38 507.04,-529.39 507.13,-529.39"/>
<polygon fill="#6666ff" stroke="#6666ff" points="505.23,-532.87 515.27,-529.47 505.31,-525.87 505.23,-532.87"/>
</g>
<!-- Mu -->
<g id="node2" class="node">
<title>Mu</title>
<g id="a_node2"><a xlink:href="/type/Mu" xlink:title="Mu">
<ellipse fill="none" stroke="#000000" cx="594.44" cy="-18" rx="27" ry="18"/>
<text text-anchor="middle" x="594.44" y="-14.3" font-family="FreeSans" font-size="14.00" fill="#000000">Mu</text>
</a>
</g>
</g>
<!-- Any&#45;&gt;Mu -->
<g id="edge2" class="edge">
<title>Any&#45;&gt;Mu</title>
<path fill="none" stroke="#000000" d="M489.93,-239.5C509.53,-197.95 558.82,-93.49 582.02,-44.34"/>
<polygon fill="#000000" stroke="#000000" points="585.19,-45.82 586.29,-35.28 578.86,-42.83 585.19,-45.82"/>
</g>
</g>
</svg>
