<?xml version="1.0" encoding="UTF-8" standalone="no"?>
<!DOCTYPE svg PUBLIC "-//W3C//DTD SVG 1.1//EN"
 "http://www.w3.org/Graphics/SVG/1.1/DTD/svg11.dtd">
<!-- Generated by graphviz version 2.42.3 (0)
 -->
<!-- Title: perl6&#45;type&#45;graph Pages: 1 -->
<svg width="239pt" height="332pt"
 viewBox="0.00 0.00 238.74 332.00" xmlns="http://www.w3.org/2000/svg" xmlns:xlink="http://www.w3.org/1999/xlink">
<g id="graph0" class="graph" transform="scale(1 1) rotate(0) translate(4 328)">
<title>perl6&#45;type&#45;graph</title>
<polygon fill="white" stroke="transparent" points="-4,4 -4,-328 234.74,-328 234.74,4 -4,4"/>
<!-- X::NYI -->
<g id="node1" class="node">
<title>X::NYI</title>
<g id="a_node1"><a xlink:href="/type/X::NYI" xlink:title="X::NYI">
<ellipse fill="none" stroke="#000000" cx="38.35" cy="-90" rx="38.19" ry="18"/>
<text text-anchor="middle" x="38.35" y="-86.3" font-family="FreeSans" font-size="14.00" fill="#000000">X::NYI</text>
</a>
</g>
</g>
<!-- Exception -->
<g id="node4" class="node">
<title>Exception</title>
<g id="a_node4"><a xlink:href="/type/Exception" xlink:title="Exception">
<ellipse fill="none" stroke="#000000" cx="104.35" cy="-162" rx="55.49" ry="18"/>
<text text-anchor="middle" x="104.35" y="-158.3" font-family="FreeSans" font-size="14.00" fill="#000000">Exception</text>
</a>
</g>
</g>
<!-- X::NYI&#45;&gt;Exception -->
<g id="edge1" class="edge">
<title>X::NYI&#45;&gt;Exception</title>
<path fill="none" stroke="#000000" d="M53.32,-106.88C61.81,-115.88 72.59,-127.32 82.05,-137.35"/>
<polygon fill="#000000" stroke="#000000" points="79.56,-139.82 88.97,-144.69 84.66,-135.02 79.56,-139.82"/>
</g>
<!-- Mu -->
<g id="node2" class="node">
<title>Mu</title>
<g id="a_node2"><a xlink:href="/type/Mu" xlink:title="Mu">
<ellipse fill="none" stroke="#000000" cx="104.35" cy="-306" rx="27" ry="18"/>
<text text-anchor="middle" x="104.35" y="-302.3" font-family="FreeSans" font-size="14.00" fill="#000000">Mu</text>
</a>
</g>
</g>
<!-- Any -->
<g id="node3" class="node">
<title>Any</title>
<g id="a_node3"><a xlink:href="/type/Any" xlink:title="Any">
<ellipse fill="none" stroke="#000000" cx="104.35" cy="-234" rx="28.7" ry="18"/>
<text text-anchor="middle" x="104.35" y="-230.3" font-family="FreeSans" font-size="14.00" fill="#000000">Any</text>
</a>
</g>
</g>
<!-- Any&#45;&gt;Mu -->
<g id="edge2" class="edge">
<title>Any&#45;&gt;Mu</title>
<path fill="none" stroke="#000000" d="M104.35,-252.3C104.35,-260.02 104.35,-269.29 104.35,-277.89"/>
<polygon fill="#000000" stroke="#000000" points="100.85,-277.9 104.35,-287.9 107.85,-277.9 100.85,-277.9"/>
</g>
<!-- Exception&#45;&gt;Any -->
<g id="edge3" class="edge">
<title>Exception&#45;&gt;Any</title>
<path fill="none" stroke="#000000" d="M104.35,-180.3C104.35,-188.02 104.35,-197.29 104.35,-205.89"/>
<polygon fill="#000000" stroke="#000000" points="100.85,-205.9 104.35,-215.9 107.85,-205.9 100.85,-205.9"/>
</g>
<!-- X::Comp -->
<g id="node5" class="node">
<title>X::Comp</title>
<g id="a_node5"><a xlink:href="/type/X::Comp" xlink:title="X::Comp">
<ellipse fill="none" stroke="#6666ff" cx="181.35" cy="-90" rx="49.29" ry="18"/>
<text text-anchor="middle" x="181.35" y="-86.3" font-family="FreeSans" font-size="14.00" fill="#6666ff">X::Comp</text>
</a>
</g>
</g>
<!-- X::Comp&#45;&gt;Exception -->
<g id="edge4" class="edge">
<title>X::Comp&#45;&gt;Exception</title>
<path fill="none" stroke="#000000" d="M163.87,-106.88C153.71,-116.13 140.72,-127.93 129.47,-138.16"/>
<polygon fill="#000000" stroke="#000000" points="127.06,-135.62 122.02,-144.94 131.77,-140.8 127.06,-135.62"/>
</g>
<!-- X::Comp::NYI -->
<g id="node6" class="node">
<title>X::Comp::NYI</title>
<g id="a_node6"><a xlink:href="/type/X::Comp::NYI" xlink:title="X::Comp::NYI">
<ellipse fill="none" stroke="#000000" cx="104.35" cy="-18" rx="70.39" ry="18"/>
<text text-anchor="middle" x="104.35" y="-14.3" font-family="FreeSans" font-size="14.00" fill="#000000">X::Comp::NYI</text>
</a>
</g>
</g>
<!-- X::Comp::NYI&#45;&gt;X::NYI -->
<g id="edge5" class="edge">
<title>X::Comp::NYI&#45;&gt;X::NYI</title>
<path fill="none" stroke="#000000" d="M88.71,-35.59C80.28,-44.52 69.75,-55.69 60.5,-65.5"/>
<polygon fill="#000000" stroke="#000000" points="57.73,-63.33 53.42,-73.01 62.83,-68.14 57.73,-63.33"/>
</g>
<!-- X::Comp::NYI&#45;&gt;Exception -->
<g id="edge6" class="edge">
<title>X::Comp::NYI&#45;&gt;Exception</title>
<path fill="none" stroke="#000000" d="M104.35,-36.13C104.35,-60.33 104.35,-104.79 104.35,-133.61"/>
<polygon fill="#000000" stroke="#000000" points="100.85,-133.81 104.35,-143.81 107.85,-133.81 100.85,-133.81"/>
</g>
<!-- X::Comp::NYI&#45;&gt;X::Comp -->
<g id="edge7" class="edge">
<title>X::Comp::NYI&#45;&gt;X::Comp</title>
<path fill="none" stroke="#6666ff" d="M122.59,-35.59C132.61,-44.7 145.19,-56.13 156.14,-66.08"/>
<polygon fill="#6666ff" stroke="#6666ff" points="154.01,-68.87 163.76,-73.01 158.71,-63.7 154.01,-68.87"/>
</g>
</g>
</svg>
