<?xml version="1.0" encoding="UTF-8" standalone="no"?>
<!DOCTYPE svg PUBLIC "-//W3C//DTD SVG 1.1//EN"
 "http://www.w3.org/Graphics/SVG/1.1/DTD/svg11.dtd">
<!-- Generated by graphviz version 2.42.3 (0)
 -->
<!-- Title: perl6&#45;type&#45;graph Pages: 1 -->
<svg width="283pt" height="332pt"
 viewBox="0.00 0.00 283.29 332.00" xmlns="http://www.w3.org/2000/svg" xmlns:xlink="http://www.w3.org/1999/xlink">
<g id="graph0" class="graph" transform="scale(1 1) rotate(0) translate(4 328)">
<title>perl6&#45;type&#45;graph</title>
<polygon fill="white" stroke="transparent" points="-4,4 -4,-328 279.29,-328 279.29,4 -4,4"/>
<!-- IntStr -->
<g id="node1" class="node">
<title>IntStr</title>
<g id="a_node1"><a xlink:href="/type/IntStr" xlink:title="IntStr">
<ellipse fill="none" stroke="#000000" cx="139.75" cy="-18" rx="36.29" ry="18"/>
<text text-anchor="middle" x="139.75" y="-14.3" font-family="FreeSans" font-size="14.00" fill="#000000">IntStr</text>
</a>
</g>
</g>
<!-- Int -->
<g id="node7" class="node">
<title>Int</title>
<g id="a_node7"><a xlink:href="/type/Int" xlink:title="Int">
<ellipse fill="none" stroke="#000000" cx="103.75" cy="-90" rx="27" ry="18"/>
<text text-anchor="middle" x="103.75" y="-86.3" font-family="FreeSans" font-size="14.00" fill="#000000">Int</text>
</a>
</g>
</g>
<!-- IntStr&#45;&gt;Int -->
<g id="edge1" class="edge">
<title>IntStr&#45;&gt;Int</title>
<path fill="none" stroke="#000000" d="M131.21,-35.59C126.91,-43.96 121.6,-54.29 116.79,-63.63"/>
<polygon fill="#000000" stroke="#000000" points="113.68,-62.04 112.22,-72.53 119.9,-65.24 113.68,-62.04"/>
</g>
<!-- Str -->
<g id="node9" class="node">
<title>Str</title>
<g id="a_node9"><a xlink:href="/type/Str" xlink:title="Str">
<ellipse fill="none" stroke="#000000" cx="175.75" cy="-90" rx="27" ry="18"/>
<text text-anchor="middle" x="175.75" y="-86.3" font-family="FreeSans" font-size="14.00" fill="#000000">Str</text>
</a>
</g>
</g>
<!-- IntStr&#45;&gt;Str -->
<g id="edge2" class="edge">
<title>IntStr&#45;&gt;Str</title>
<path fill="none" stroke="#000000" d="M148.28,-35.59C152.58,-43.96 157.89,-54.29 162.7,-63.63"/>
<polygon fill="#000000" stroke="#000000" points="159.59,-65.24 167.28,-72.53 165.81,-62.04 159.59,-65.24"/>
</g>
<!-- Mu -->
<g id="node2" class="node">
<title>Mu</title>
<g id="a_node2"><a xlink:href="/type/Mu" xlink:title="Mu">
<ellipse fill="none" stroke="#000000" cx="143.75" cy="-306" rx="27" ry="18"/>
<text text-anchor="middle" x="143.75" y="-302.3" font-family="FreeSans" font-size="14.00" fill="#000000">Mu</text>
</a>
</g>
</g>
<!-- Any -->
<g id="node3" class="node">
<title>Any</title>
<g id="a_node3"><a xlink:href="/type/Any" xlink:title="Any">
<ellipse fill="none" stroke="#000000" cx="143.75" cy="-234" rx="28.7" ry="18"/>
<text text-anchor="middle" x="143.75" y="-230.3" font-family="FreeSans" font-size="14.00" fill="#000000">Any</text>
</a>
</g>
</g>
<!-- Any&#45;&gt;Mu -->
<g id="edge3" class="edge">
<title>Any&#45;&gt;Mu</title>
<path fill="none" stroke="#000000" d="M143.75,-252.3C143.75,-260.02 143.75,-269.29 143.75,-277.89"/>
<polygon fill="#000000" stroke="#000000" points="140.25,-277.9 143.75,-287.9 147.25,-277.9 140.25,-277.9"/>
</g>
<!-- Cool -->
<g id="node4" class="node">
<title>Cool</title>
<g id="a_node4"><a xlink:href="/type/Cool" xlink:title="Cool">
<ellipse fill="none" stroke="#000000" cx="139.75" cy="-162" rx="30.59" ry="18"/>
<text text-anchor="middle" x="139.75" y="-158.3" font-family="FreeSans" font-size="14.00" fill="#000000">Cool</text>
</a>
</g>
</g>
<!-- Cool&#45;&gt;Any -->
<g id="edge4" class="edge">
<title>Cool&#45;&gt;Any</title>
<path fill="none" stroke="#000000" d="M140.73,-180.3C141.18,-188.02 141.7,-197.29 142.2,-205.89"/>
<polygon fill="#000000" stroke="#000000" points="138.7,-206.11 142.77,-215.9 145.69,-205.71 138.7,-206.11"/>
</g>
<!-- Numeric -->
<g id="node5" class="node">
<title>Numeric</title>
<g id="a_node5"><a xlink:href="/type/Numeric" xlink:title="Numeric">
<ellipse fill="none" stroke="#6666ff" cx="48.75" cy="-234" rx="48.99" ry="18"/>
<text text-anchor="middle" x="48.75" y="-230.3" font-family="FreeSans" font-size="14.00" fill="#6666ff">Numeric</text>
</a>
</g>
</g>
<!-- Real -->
<g id="node6" class="node">
<title>Real</title>
<g id="a_node6"><a xlink:href="/type/Real" xlink:title="Real">
<ellipse fill="none" stroke="#6666ff" cx="56.75" cy="-162" rx="30.59" ry="18"/>
<text text-anchor="middle" x="56.75" y="-158.3" font-family="FreeSans" font-size="14.00" fill="#6666ff">Real</text>
</a>
</g>
</g>
<!-- Real&#45;&gt;Numeric -->
<g id="edge7" class="edge">
<title>Real&#45;&gt;Numeric</title>
<path fill="none" stroke="#6666ff" d="M54.77,-180.3C53.89,-188.02 52.83,-197.29 51.84,-205.89"/>
<polygon fill="#6666ff" stroke="#6666ff" points="48.36,-205.56 50.7,-215.9 55.31,-206.36 48.36,-205.56"/>
</g>
<!-- Int&#45;&gt;Cool -->
<g id="edge5" class="edge">
<title>Int&#45;&gt;Cool</title>
<path fill="none" stroke="#000000" d="M112.1,-107.24C116.39,-115.6 121.74,-125.98 126.58,-135.39"/>
<polygon fill="#000000" stroke="#000000" points="123.51,-137.07 131.19,-144.37 129.73,-133.87 123.51,-137.07"/>
</g>
<!-- Int&#45;&gt;Real -->
<g id="edge8" class="edge">
<title>Int&#45;&gt;Real</title>
<path fill="none" stroke="#6666ff" d="M93.08,-106.88C87.27,-115.53 79.96,-126.42 73.42,-136.17"/>
<polygon fill="#6666ff" stroke="#6666ff" points="70.36,-134.44 67.69,-144.69 76.17,-138.34 70.36,-134.44"/>
</g>
<!-- Stringy -->
<g id="node8" class="node">
<title>Stringy</title>
<g id="a_node8"><a xlink:href="/type/Stringy" xlink:title="Stringy">
<ellipse fill="none" stroke="#6666ff" cx="231.75" cy="-162" rx="43.59" ry="18"/>
<text text-anchor="middle" x="231.75" y="-158.3" font-family="FreeSans" font-size="14.00" fill="#6666ff">Stringy</text>
</a>
</g>
</g>
<!-- Str&#45;&gt;Cool -->
<g id="edge6" class="edge">
<title>Str&#45;&gt;Cool</title>
<path fill="none" stroke="#000000" d="M167.4,-107.24C163.1,-115.6 157.75,-125.98 152.91,-135.39"/>
<polygon fill="#000000" stroke="#000000" points="149.76,-133.87 148.3,-144.37 155.99,-137.07 149.76,-133.87"/>
</g>
<!-- Str&#45;&gt;Stringy -->
<g id="edge9" class="edge">
<title>Str&#45;&gt;Stringy</title>
<path fill="none" stroke="#6666ff" d="M187.9,-106.19C194.93,-114.98 203.96,-126.27 211.99,-136.31"/>
<polygon fill="#6666ff" stroke="#6666ff" points="209.46,-138.75 218.44,-144.37 214.93,-134.38 209.46,-138.75"/>
</g>
</g>
</svg>
