<?xml version="1.0" encoding="UTF-8" standalone="no"?>
<!DOCTYPE svg PUBLIC "-//W3C//DTD SVG 1.1//EN"
 "http://www.w3.org/Graphics/SVG/1.1/DTD/svg11.dtd">
<!-- Generated by graphviz version 2.42.3 (0)
 -->
<!-- Title: perl6&#45;type&#45;graph Pages: 1 -->
<svg width="238pt" height="404pt"
 viewBox="0.00 0.00 237.99 404.00" xmlns="http://www.w3.org/2000/svg" xmlns:xlink="http://www.w3.org/1999/xlink">
<g id="graph0" class="graph" transform="scale(1 1) rotate(0) translate(4 400)">
<title>perl6&#45;type&#45;graph</title>
<polygon fill="white" stroke="transparent" points="-4,4 -4,-400 233.99,-400 233.99,4 -4,4"/>
<!-- X::Syntax::VirtualCall -->
<g id="node1" class="node">
<title>X::Syntax::VirtualCall</title>
<g id="a_node1"><a xlink:href="/type/X::Syntax::VirtualCall" xlink:title="X::Syntax::VirtualCall">
<ellipse fill="none" stroke="#000000" cx="106.59" cy="-18" rx="106.68" ry="18"/>
<text text-anchor="middle" x="106.59" y="-14.3" font-family="FreeSans" font-size="14.00" fill="#000000">X::Syntax::VirtualCall</text>
</a>
</g>
</g>
<!-- Exception -->
<g id="node4" class="node">
<title>Exception</title>
<g id="a_node4"><a xlink:href="/type/Exception" xlink:title="Exception">
<ellipse fill="none" stroke="#000000" cx="103.59" cy="-234" rx="55.49" ry="18"/>
<text text-anchor="middle" x="103.59" y="-230.3" font-family="FreeSans" font-size="14.00" fill="#000000">Exception</text>
</a>
</g>
</g>
<!-- X::Syntax::VirtualCall&#45;&gt;Exception -->
<g id="edge1" class="edge">
<title>X::Syntax::VirtualCall&#45;&gt;Exception</title>
<path fill="none" stroke="#000000" d="M99.51,-36.06C93.08,-51.55 84.59,-72 84.59,-72 84.59,-72 84.59,-108 84.59,-108 84.59,-108 93.86,-169.01 99.45,-205.78"/>
<polygon fill="#000000" stroke="#000000" points="96.03,-206.52 100.99,-215.88 102.95,-205.47 96.03,-206.52"/>
</g>
<!-- X::Syntax -->
<g id="node6" class="node">
<title>X::Syntax</title>
<g id="a_node6"><a xlink:href="/type/X::Syntax" xlink:title="X::Syntax">
<ellipse fill="none" stroke="#6666ff" cx="147.59" cy="-90" rx="53.89" ry="18"/>
<text text-anchor="middle" x="147.59" y="-86.3" font-family="FreeSans" font-size="14.00" fill="#6666ff">X::Syntax</text>
</a>
</g>
</g>
<!-- X::Syntax::VirtualCall&#45;&gt;X::Syntax -->
<g id="edge6" class="edge">
<title>X::Syntax::VirtualCall&#45;&gt;X::Syntax</title>
<path fill="none" stroke="#6666ff" d="M116.52,-35.95C121.35,-44.2 127.27,-54.3 132.63,-63.46"/>
<polygon fill="#6666ff" stroke="#6666ff" points="129.68,-65.35 137.76,-72.21 135.72,-61.81 129.68,-65.35"/>
</g>
<!-- Mu -->
<g id="node2" class="node">
<title>Mu</title>
<g id="a_node2"><a xlink:href="/type/Mu" xlink:title="Mu">
<ellipse fill="none" stroke="#000000" cx="103.59" cy="-378" rx="27" ry="18"/>
<text text-anchor="middle" x="103.59" y="-374.3" font-family="FreeSans" font-size="14.00" fill="#000000">Mu</text>
</a>
</g>
</g>
<!-- Any -->
<g id="node3" class="node">
<title>Any</title>
<g id="a_node3"><a xlink:href="/type/Any" xlink:title="Any">
<ellipse fill="none" stroke="#000000" cx="103.59" cy="-306" rx="28.7" ry="18"/>
<text text-anchor="middle" x="103.59" y="-302.3" font-family="FreeSans" font-size="14.00" fill="#000000">Any</text>
</a>
</g>
</g>
<!-- Any&#45;&gt;Mu -->
<g id="edge2" class="edge">
<title>Any&#45;&gt;Mu</title>
<path fill="none" stroke="#000000" d="M103.59,-324.3C103.59,-332.02 103.59,-341.29 103.59,-349.89"/>
<polygon fill="#000000" stroke="#000000" points="100.09,-349.9 103.59,-359.9 107.09,-349.9 100.09,-349.9"/>
</g>
<!-- Exception&#45;&gt;Any -->
<g id="edge3" class="edge">
<title>Exception&#45;&gt;Any</title>
<path fill="none" stroke="#000000" d="M103.59,-252.3C103.59,-260.02 103.59,-269.29 103.59,-277.89"/>
<polygon fill="#000000" stroke="#000000" points="100.09,-277.9 103.59,-287.9 107.09,-277.9 100.09,-277.9"/>
</g>
<!-- X::Comp -->
<g id="node5" class="node">
<title>X::Comp</title>
<g id="a_node5"><a xlink:href="/type/X::Comp" xlink:title="X::Comp">
<ellipse fill="none" stroke="#6666ff" cx="180.59" cy="-162" rx="49.29" ry="18"/>
<text text-anchor="middle" x="180.59" y="-158.3" font-family="FreeSans" font-size="14.00" fill="#6666ff">X::Comp</text>
</a>
</g>
</g>
<!-- X::Comp&#45;&gt;Exception -->
<g id="edge4" class="edge">
<title>X::Comp&#45;&gt;Exception</title>
<path fill="none" stroke="#000000" d="M163.12,-178.88C152.95,-188.13 139.96,-199.93 128.71,-210.16"/>
<polygon fill="#000000" stroke="#000000" points="126.31,-207.62 121.26,-216.94 131.01,-212.8 126.31,-207.62"/>
</g>
<!-- X::Syntax&#45;&gt;Exception -->
<g id="edge5" class="edge">
<title>X::Syntax&#45;&gt;Exception</title>
<path fill="none" stroke="#000000" d="M139.54,-108.06C132.23,-123.55 122.59,-144 122.59,-144 122.59,-144 114.94,-179.83 109.35,-206.03"/>
<polygon fill="#000000" stroke="#000000" points="105.92,-205.33 107.25,-215.84 112.76,-206.79 105.92,-205.33"/>
</g>
<!-- X::Syntax&#45;&gt;X::Comp -->
<g id="edge7" class="edge">
<title>X::Syntax&#45;&gt;X::Comp</title>
<path fill="none" stroke="#6666ff" d="M155.58,-107.95C159.39,-116.03 164.03,-125.88 168.28,-134.89"/>
<polygon fill="#6666ff" stroke="#6666ff" points="165.25,-136.66 172.68,-144.21 171.58,-133.67 165.25,-136.66"/>
</g>
</g>
</svg>
