<?xml version="1.0" encoding="UTF-8" standalone="no"?>
<!DOCTYPE svg PUBLIC "-//W3C//DTD SVG 1.1//EN"
 "http://www.w3.org/Graphics/SVG/1.1/DTD/svg11.dtd">
<!-- Generated by graphviz version 2.42.3 (0)
 -->
<!-- Title: perl6&#45;type&#45;graph Pages: 1 -->
<svg width="611pt" height="188pt"
 viewBox="0.00 0.00 611.43 188.00" xmlns="http://www.w3.org/2000/svg" xmlns:xlink="http://www.w3.org/1999/xlink">
<g id="graph0" class="graph" transform="scale(1 1) rotate(0) translate(4 184)">
<title>perl6&#45;type&#45;graph</title>
<polygon fill="white" stroke="transparent" points="-4,4 -4,-184 607.43,-184 607.43,4 -4,4"/>
<!-- CompUnit::Repository -->
<g id="node1" class="node">
<title>CompUnit::Repository</title>
<g id="a_node1"><a xlink:href="/type/CompUnit::Repository" xlink:title="CompUnit::Repository">
<ellipse fill="none" stroke="#6666ff" cx="109.84" cy="-90" rx="109.68" ry="18"/>
<text text-anchor="middle" x="109.84" y="-86.3" font-family="FreeSans" font-size="14.00" fill="#6666ff">CompUnit::Repository</text>
</a>
</g>
</g>
<!-- Mu -->
<g id="node2" class="node">
<title>Mu</title>
<g id="a_node2"><a xlink:href="/type/Mu" xlink:title="Mu">
<ellipse fill="none" stroke="#000000" cx="265.84" cy="-162" rx="27" ry="18"/>
<text text-anchor="middle" x="265.84" y="-158.3" font-family="FreeSans" font-size="14.00" fill="#000000">Mu</text>
</a>
</g>
</g>
<!-- Any -->
<g id="node3" class="node">
<title>Any</title>
<g id="a_node3"><a xlink:href="/type/Any" xlink:title="Any">
<ellipse fill="none" stroke="#000000" cx="265.84" cy="-90" rx="28.7" ry="18"/>
<text text-anchor="middle" x="265.84" y="-86.3" font-family="FreeSans" font-size="14.00" fill="#000000">Any</text>
</a>
</g>
</g>
<!-- Any&#45;&gt;Mu -->
<g id="edge1" class="edge">
<title>Any&#45;&gt;Mu</title>
<path fill="none" stroke="#000000" d="M265.84,-108.3C265.84,-116.02 265.84,-125.29 265.84,-133.89"/>
<polygon fill="#000000" stroke="#000000" points="262.34,-133.9 265.84,-143.9 269.34,-133.9 262.34,-133.9"/>
</g>
<!-- CompUnit::Repository::Locally -->
<g id="node4" class="node">
<title>CompUnit::Repository::Locally</title>
<g id="a_node4"><a xlink:href="/type/CompUnit::Repository::Locally" xlink:title="CompUnit::Repository::Locally">
<ellipse fill="none" stroke="#6666ff" cx="457.84" cy="-90" rx="145.67" ry="18"/>
<text text-anchor="middle" x="457.84" y="-86.3" font-family="FreeSans" font-size="14.00" fill="#6666ff">CompUnit::Repository::Locally</text>
</a>
</g>
</g>
<!-- CompUnit::Repository::FileSystem -->
<g id="node5" class="node">
<title>CompUnit::Repository::FileSystem</title>
<g id="a_node5"><a xlink:href="/type/CompUnit::Repository::FileSystem" xlink:title="CompUnit::Repository::FileSystem">
<ellipse fill="none" stroke="#000000" cx="265.84" cy="-18" rx="163.57" ry="18"/>
<text text-anchor="middle" x="265.84" y="-14.3" font-family="FreeSans" font-size="14.00" fill="#000000">CompUnit::Repository::FileSystem</text>
</a>
</g>
</g>
<!-- CompUnit::Repository::FileSystem&#45;&gt;CompUnit::Repository -->
<g id="edge4" class="edge">
<title>CompUnit::Repository::FileSystem&#45;&gt;CompUnit::Repository</title>
<path fill="none" stroke="#6666ff" d="M228.87,-35.59C206.78,-45.5 178.54,-58.17 155.12,-68.68"/>
<polygon fill="#6666ff" stroke="#6666ff" points="153.43,-65.6 145.74,-72.89 156.29,-71.99 153.43,-65.6"/>
</g>
<!-- CompUnit::Repository::FileSystem&#45;&gt;Any -->
<g id="edge2" class="edge">
<title>CompUnit::Repository::FileSystem&#45;&gt;Any</title>
<path fill="none" stroke="#000000" d="M265.84,-36.3C265.84,-44.02 265.84,-53.29 265.84,-61.89"/>
<polygon fill="#000000" stroke="#000000" points="262.34,-61.9 265.84,-71.9 269.34,-61.9 262.34,-61.9"/>
</g>
<!-- CompUnit::Repository::FileSystem&#45;&gt;CompUnit::Repository::Locally -->
<g id="edge3" class="edge">
<title>CompUnit::Repository::FileSystem&#45;&gt;CompUnit::Repository::Locally</title>
<path fill="none" stroke="#6666ff" d="M310.86,-35.41C338.64,-45.54 374.45,-58.6 403.77,-69.29"/>
<polygon fill="#6666ff" stroke="#6666ff" points="402.84,-72.67 413.44,-72.81 405.24,-66.1 402.84,-72.67"/>
</g>
</g>
</svg>
