<?xml version="1.0" encoding="UTF-8" standalone="no"?>
<!DOCTYPE svg PUBLIC "-//W3C//DTD SVG 1.1//EN"
 "http://www.w3.org/Graphics/SVG/1.1/DTD/svg11.dtd">
<!-- Generated by graphviz version 2.42.3 (0)
 -->
<!-- Title: perl6&#45;type&#45;graph Pages: 1 -->
<svg width="300pt" height="404pt"
 viewBox="0.00 0.00 300.47 404.00" xmlns="http://www.w3.org/2000/svg" xmlns:xlink="http://www.w3.org/1999/xlink">
<g id="graph0" class="graph" transform="scale(1 1) rotate(0) translate(4 400)">
<title>perl6&#45;type&#45;graph</title>
<polygon fill="white" stroke="transparent" points="-4,4 -4,-400 296.47,-400 296.47,4 -4,4"/>
<!-- X::Syntax::InfixInTermPosition -->
<g id="node1" class="node">
<title>X::Syntax::InfixInTermPosition</title>
<g id="a_node1"><a xlink:href="/type/X::Syntax::InfixInTermPosition" xlink:title="X::Syntax::InfixInTermPosition">
<ellipse fill="none" stroke="#000000" cx="146.24" cy="-18" rx="146.47" ry="18"/>
<text text-anchor="middle" x="146.24" y="-14.3" font-family="FreeSans" font-size="14.00" fill="#000000">X::Syntax::InfixInTermPosition</text>
</a>
</g>
</g>
<!-- Exception -->
<g id="node4" class="node">
<title>Exception</title>
<g id="a_node4"><a xlink:href="/type/Exception" xlink:title="Exception">
<ellipse fill="none" stroke="#000000" cx="143.24" cy="-234" rx="55.49" ry="18"/>
<text text-anchor="middle" x="143.24" y="-230.3" font-family="FreeSans" font-size="14.00" fill="#000000">Exception</text>
</a>
</g>
</g>
<!-- X::Syntax::InfixInTermPosition&#45;&gt;Exception -->
<g id="edge1" class="edge">
<title>X::Syntax::InfixInTermPosition&#45;&gt;Exception</title>
<path fill="none" stroke="#000000" d="M139.15,-36.06C132.72,-51.55 124.24,-72 124.24,-72 124.24,-72 124.24,-108 124.24,-108 124.24,-108 133.51,-169.01 139.1,-205.78"/>
<polygon fill="#000000" stroke="#000000" points="135.67,-206.52 140.63,-215.88 142.59,-205.47 135.67,-206.52"/>
</g>
<!-- X::Syntax -->
<g id="node6" class="node">
<title>X::Syntax</title>
<g id="a_node6"><a xlink:href="/type/X::Syntax" xlink:title="X::Syntax">
<ellipse fill="none" stroke="#6666ff" cx="187.24" cy="-90" rx="53.89" ry="18"/>
<text text-anchor="middle" x="187.24" y="-86.3" font-family="FreeSans" font-size="14.00" fill="#6666ff">X::Syntax</text>
</a>
</g>
</g>
<!-- X::Syntax::InfixInTermPosition&#45;&gt;X::Syntax -->
<g id="edge6" class="edge">
<title>X::Syntax::InfixInTermPosition&#45;&gt;X::Syntax</title>
<path fill="none" stroke="#6666ff" d="M156.37,-36.3C161.09,-44.36 166.8,-54.11 172.02,-63.02"/>
<polygon fill="#6666ff" stroke="#6666ff" points="169.14,-65.04 177.22,-71.9 175.18,-61.5 169.14,-65.04"/>
</g>
<!-- Mu -->
<g id="node2" class="node">
<title>Mu</title>
<g id="a_node2"><a xlink:href="/type/Mu" xlink:title="Mu">
<ellipse fill="none" stroke="#000000" cx="143.24" cy="-378" rx="27" ry="18"/>
<text text-anchor="middle" x="143.24" y="-374.3" font-family="FreeSans" font-size="14.00" fill="#000000">Mu</text>
</a>
</g>
</g>
<!-- Any -->
<g id="node3" class="node">
<title>Any</title>
<g id="a_node3"><a xlink:href="/type/Any" xlink:title="Any">
<ellipse fill="none" stroke="#000000" cx="143.24" cy="-306" rx="28.7" ry="18"/>
<text text-anchor="middle" x="143.24" y="-302.3" font-family="FreeSans" font-size="14.00" fill="#000000">Any</text>
</a>
</g>
</g>
<!-- Any&#45;&gt;Mu -->
<g id="edge2" class="edge">
<title>Any&#45;&gt;Mu</title>
<path fill="none" stroke="#000000" d="M143.24,-324.3C143.24,-332.02 143.24,-341.29 143.24,-349.89"/>
<polygon fill="#000000" stroke="#000000" points="139.74,-349.9 143.24,-359.9 146.74,-349.9 139.74,-349.9"/>
</g>
<!-- Exception&#45;&gt;Any -->
<g id="edge3" class="edge">
<title>Exception&#45;&gt;Any</title>
<path fill="none" stroke="#000000" d="M143.24,-252.3C143.24,-260.02 143.24,-269.29 143.24,-277.89"/>
<polygon fill="#000000" stroke="#000000" points="139.74,-277.9 143.24,-287.9 146.74,-277.9 139.74,-277.9"/>
</g>
<!-- X::Comp -->
<g id="node5" class="node">
<title>X::Comp</title>
<g id="a_node5"><a xlink:href="/type/X::Comp" xlink:title="X::Comp">
<ellipse fill="none" stroke="#6666ff" cx="220.24" cy="-162" rx="49.29" ry="18"/>
<text text-anchor="middle" x="220.24" y="-158.3" font-family="FreeSans" font-size="14.00" fill="#6666ff">X::Comp</text>
</a>
</g>
</g>
<!-- X::Comp&#45;&gt;Exception -->
<g id="edge4" class="edge">
<title>X::Comp&#45;&gt;Exception</title>
<path fill="none" stroke="#000000" d="M202.76,-178.88C192.6,-188.13 179.61,-199.93 168.36,-210.16"/>
<polygon fill="#000000" stroke="#000000" points="165.95,-207.62 160.91,-216.94 170.66,-212.8 165.95,-207.62"/>
</g>
<!-- X::Syntax&#45;&gt;Exception -->
<g id="edge5" class="edge">
<title>X::Syntax&#45;&gt;Exception</title>
<path fill="none" stroke="#000000" d="M179.19,-108.06C171.88,-123.55 162.24,-144 162.24,-144 162.24,-144 154.59,-179.83 149,-206.03"/>
<polygon fill="#000000" stroke="#000000" points="145.57,-205.33 146.9,-215.84 152.41,-206.79 145.57,-205.33"/>
</g>
<!-- X::Syntax&#45;&gt;X::Comp -->
<g id="edge7" class="edge">
<title>X::Syntax&#45;&gt;X::Comp</title>
<path fill="none" stroke="#6666ff" d="M195.23,-107.95C199.04,-116.03 203.68,-125.88 207.93,-134.89"/>
<polygon fill="#6666ff" stroke="#6666ff" points="204.89,-136.66 212.32,-144.21 211.22,-133.67 204.89,-136.66"/>
</g>
</g>
</svg>
