<?xml version="1.0" encoding="UTF-8" standalone="no"?>
<!DOCTYPE svg PUBLIC "-//W3C//DTD SVG 1.1//EN"
 "http://www.w3.org/Graphics/SVG/1.1/DTD/svg11.dtd">
<!-- Generated by graphviz version 2.42.3 (0)
 -->
<!-- Title: perl6&#45;type&#45;graph Pages: 1 -->
<svg width="287pt" height="332pt"
 viewBox="0.00 0.00 287.48 332.00" xmlns="http://www.w3.org/2000/svg" xmlns:xlink="http://www.w3.org/1999/xlink">
<g id="graph0" class="graph" transform="scale(1 1) rotate(0) translate(4 328)">
<title>perl6&#45;type&#45;graph</title>
<polygon fill="white" stroke="transparent" points="-4,4 -4,-328 283.48,-328 283.48,4 -4,4"/>
<!-- X::DateTime::TimezoneClash -->
<g id="node1" class="node">
<title>X::DateTime::TimezoneClash</title>
<g id="a_node1"><a xlink:href="/type/X::DateTime::TimezoneClash" xlink:title="X::DateTime::TimezoneClash">
<ellipse fill="none" stroke="#000000" cx="139.74" cy="-18" rx="139.98" ry="18"/>
<text text-anchor="middle" x="139.74" y="-14.3" font-family="FreeSans" font-size="14.00" fill="#000000">X::DateTime::TimezoneClash</text>
</a>
</g>
</g>
<!-- Exception -->
<g id="node4" class="node">
<title>Exception</title>
<g id="a_node4"><a xlink:href="/type/Exception" xlink:title="Exception">
<ellipse fill="none" stroke="#000000" cx="139.74" cy="-162" rx="55.49" ry="18"/>
<text text-anchor="middle" x="139.74" y="-158.3" font-family="FreeSans" font-size="14.00" fill="#000000">Exception</text>
</a>
</g>
</g>
<!-- X::DateTime::TimezoneClash&#45;&gt;Exception -->
<g id="edge1" class="edge">
<title>X::DateTime::TimezoneClash&#45;&gt;Exception</title>
<path fill="none" stroke="#000000" d="M131.05,-36.06C123.15,-51.55 112.74,-72 112.74,-72 112.74,-72 112.74,-108 112.74,-108 112.74,-108 119.61,-121.5 126.43,-134.87"/>
<polygon fill="#000000" stroke="#000000" points="123.39,-136.62 131.05,-143.94 129.63,-133.44 123.39,-136.62"/>
</g>
<!-- X::Temporal -->
<g id="node5" class="node">
<title>X::Temporal</title>
<g id="a_node5"><a xlink:href="/type/X::Temporal" xlink:title="X::Temporal">
<ellipse fill="none" stroke="#6666ff" cx="185.74" cy="-90" rx="64.19" ry="18"/>
<text text-anchor="middle" x="185.74" y="-86.3" font-family="FreeSans" font-size="14.00" fill="#6666ff">X::Temporal</text>
</a>
</g>
</g>
<!-- X::DateTime::TimezoneClash&#45;&gt;X::Temporal -->
<g id="edge5" class="edge">
<title>X::DateTime::TimezoneClash&#45;&gt;X::Temporal</title>
<path fill="none" stroke="#6666ff" d="M150.87,-35.95C156.35,-44.29 163.07,-54.51 169.14,-63.75"/>
<polygon fill="#6666ff" stroke="#6666ff" points="166.29,-65.78 174.7,-72.21 172.14,-61.93 166.29,-65.78"/>
</g>
<!-- Mu -->
<g id="node2" class="node">
<title>Mu</title>
<g id="a_node2"><a xlink:href="/type/Mu" xlink:title="Mu">
<ellipse fill="none" stroke="#000000" cx="139.74" cy="-306" rx="27" ry="18"/>
<text text-anchor="middle" x="139.74" y="-302.3" font-family="FreeSans" font-size="14.00" fill="#000000">Mu</text>
</a>
</g>
</g>
<!-- Any -->
<g id="node3" class="node">
<title>Any</title>
<g id="a_node3"><a xlink:href="/type/Any" xlink:title="Any">
<ellipse fill="none" stroke="#000000" cx="139.74" cy="-234" rx="28.7" ry="18"/>
<text text-anchor="middle" x="139.74" y="-230.3" font-family="FreeSans" font-size="14.00" fill="#000000">Any</text>
</a>
</g>
</g>
<!-- Any&#45;&gt;Mu -->
<g id="edge2" class="edge">
<title>Any&#45;&gt;Mu</title>
<path fill="none" stroke="#000000" d="M139.74,-252.3C139.74,-260.02 139.74,-269.29 139.74,-277.89"/>
<polygon fill="#000000" stroke="#000000" points="136.24,-277.9 139.74,-287.9 143.24,-277.9 136.24,-277.9"/>
</g>
<!-- Exception&#45;&gt;Any -->
<g id="edge3" class="edge">
<title>Exception&#45;&gt;Any</title>
<path fill="none" stroke="#000000" d="M139.74,-180.3C139.74,-188.02 139.74,-197.29 139.74,-205.89"/>
<polygon fill="#000000" stroke="#000000" points="136.24,-205.9 139.74,-215.9 143.24,-205.9 136.24,-205.9"/>
</g>
<!-- X::Temporal&#45;&gt;Exception -->
<g id="edge4" class="edge">
<title>X::Temporal&#45;&gt;Exception</title>
<path fill="none" stroke="#000000" d="M174.6,-107.95C169.12,-116.29 162.4,-126.51 156.33,-135.75"/>
<polygon fill="#000000" stroke="#000000" points="153.34,-133.93 150.77,-144.21 159.19,-137.78 153.34,-133.93"/>
</g>
</g>
</svg>
