<?xml version="1.0" encoding="UTF-8" standalone="no"?>
<!DOCTYPE svg PUBLIC "-//W3C//DTD SVG 1.1//EN"
 "http://www.w3.org/Graphics/SVG/1.1/DTD/svg11.dtd">
<!-- Generated by graphviz version 2.42.3 (0)
 -->
<!-- Title: perl6&#45;type&#45;graph Pages: 1 -->
<svg width="205pt" height="188pt"
 viewBox="0.00 0.00 204.79 188.00" xmlns="http://www.w3.org/2000/svg" xmlns:xlink="http://www.w3.org/1999/xlink">
<g id="graph0" class="graph" transform="scale(1 1) rotate(0) translate(4 184)">
<title>perl6&#45;type&#45;graph</title>
<polygon fill="white" stroke="transparent" points="-4,4 -4,-184 200.79,-184 200.79,4 -4,4"/>
<!-- Dateish -->
<g id="node1" class="node">
<title>Dateish</title>
<g id="a_node1"><a xlink:href="/type/Dateish" xlink:title="Dateish">
<ellipse fill="none" stroke="#6666ff" cx="44.85" cy="-90" rx="44.69" ry="18"/>
<text text-anchor="middle" x="44.85" y="-86.3" font-family="FreeSans" font-size="14.00" fill="#6666ff">Dateish</text>
</a>
</g>
</g>
<!-- Mu -->
<g id="node2" class="node">
<title>Mu</title>
<g id="a_node2"><a xlink:href="/type/Mu" xlink:title="Mu">
<ellipse fill="none" stroke="#000000" cx="138.85" cy="-162" rx="27" ry="18"/>
<text text-anchor="middle" x="138.85" y="-158.3" font-family="FreeSans" font-size="14.00" fill="#000000">Mu</text>
</a>
</g>
</g>
<!-- Any -->
<g id="node3" class="node">
<title>Any</title>
<g id="a_node3"><a xlink:href="/type/Any" xlink:title="Any">
<ellipse fill="none" stroke="#000000" cx="138.85" cy="-90" rx="28.7" ry="18"/>
<text text-anchor="middle" x="138.85" y="-86.3" font-family="FreeSans" font-size="14.00" fill="#000000">Any</text>
</a>
</g>
</g>
<!-- Any&#45;&gt;Mu -->
<g id="edge1" class="edge">
<title>Any&#45;&gt;Mu</title>
<path fill="none" stroke="#000000" d="M138.85,-108.3C138.85,-116.02 138.85,-125.29 138.85,-133.89"/>
<polygon fill="#000000" stroke="#000000" points="135.35,-133.9 138.85,-143.9 142.35,-133.9 135.35,-133.9"/>
</g>
<!-- Date -->
<g id="node4" class="node">
<title>Date</title>
<g id="a_node4"><a xlink:href="/type/Date" xlink:title="Date">
<ellipse fill="none" stroke="#000000" cx="38.85" cy="-18" rx="31.7" ry="18"/>
<text text-anchor="middle" x="38.85" y="-14.3" font-family="FreeSans" font-size="14.00" fill="#000000">Date</text>
</a>
</g>
</g>
<!-- Date&#45;&gt;Dateish -->
<g id="edge4" class="edge">
<title>Date&#45;&gt;Dateish</title>
<path fill="none" stroke="#6666ff" d="M40.33,-36.3C40.99,-44.02 41.78,-53.29 42.52,-61.89"/>
<polygon fill="#6666ff" stroke="#6666ff" points="39.04,-62.23 43.38,-71.9 46.01,-61.63 39.04,-62.23"/>
</g>
<!-- Date&#45;&gt;Any -->
<g id="edge2" class="edge">
<title>Date&#45;&gt;Any</title>
<path fill="none" stroke="#000000" d="M58.13,-32.5C73.4,-43.19 94.92,-58.25 111.89,-70.13"/>
<polygon fill="#000000" stroke="#000000" points="110.1,-73.15 120.3,-76.02 114.12,-67.42 110.1,-73.15"/>
</g>
<!-- DateTime -->
<g id="node5" class="node">
<title>DateTime</title>
<g id="a_node5"><a xlink:href="/type/DateTime" xlink:title="DateTime">
<ellipse fill="none" stroke="#000000" cx="142.85" cy="-18" rx="53.89" ry="18"/>
<text text-anchor="middle" x="142.85" y="-14.3" font-family="FreeSans" font-size="14.00" fill="#000000">DateTime</text>
</a>
</g>
</g>
<!-- DateTime&#45;&gt;Dateish -->
<g id="edge5" class="edge">
<title>DateTime&#45;&gt;Dateish</title>
<path fill="none" stroke="#6666ff" d="M121.1,-34.54C107.33,-44.37 89.36,-57.2 74.32,-67.94"/>
<polygon fill="#6666ff" stroke="#6666ff" points="71.96,-65.33 65.86,-73.99 76.03,-71.02 71.96,-65.33"/>
</g>
<!-- DateTime&#45;&gt;Any -->
<g id="edge3" class="edge">
<title>DateTime&#45;&gt;Any</title>
<path fill="none" stroke="#000000" d="M141.86,-36.3C141.42,-44.02 140.89,-53.29 140.4,-61.89"/>
<polygon fill="#000000" stroke="#000000" points="136.9,-61.71 139.82,-71.9 143.89,-62.11 136.9,-61.71"/>
</g>
</g>
</svg>
