<?xml version="1.0" encoding="UTF-8" standalone="no"?>
<!DOCTYPE svg PUBLIC "-//W3C//DTD SVG 1.1//EN"
 "http://www.w3.org/Graphics/SVG/1.1/DTD/svg11.dtd">
<!-- Generated by graphviz version 2.42.3 (0)
 -->
<!-- Title: perl6&#45;type&#45;graph Pages: 1 -->
<svg width="399pt" height="260pt"
 viewBox="0.00 0.00 398.74 260.00" xmlns="http://www.w3.org/2000/svg" xmlns:xlink="http://www.w3.org/1999/xlink">
<g id="graph0" class="graph" transform="scale(1 1) rotate(0) translate(4 256)">
<title>perl6&#45;type&#45;graph</title>
<polygon fill="white" stroke="transparent" points="-4,4 -4,-256 394.74,-256 394.74,4 -4,4"/>
<!-- Sequence -->
<g id="node1" class="node">
<title>Sequence</title>
<g id="a_node1"><a xlink:href="/type/Sequence" xlink:title="Sequence">
<ellipse fill="none" stroke="#6666ff" cx="109.19" cy="-90" rx="55.49" ry="18"/>
<text text-anchor="middle" x="109.19" y="-86.3" font-family="FreeSans" font-size="14.00" fill="#6666ff">Sequence</text>
</a>
</g>
</g>
<!-- PositionalBindFailover -->
<g id="node2" class="node">
<title>PositionalBindFailover</title>
<g id="a_node2"><a xlink:href="/type/PositionalBindFailover" xlink:title="PositionalBindFailover">
<ellipse fill="none" stroke="#6666ff" cx="109.19" cy="-162" rx="109.38" ry="18"/>
<text text-anchor="middle" x="109.19" y="-158.3" font-family="FreeSans" font-size="14.00" fill="#6666ff">PositionalBindFailover</text>
</a>
</g>
</g>
<!-- Sequence&#45;&gt;PositionalBindFailover -->
<g id="edge6" class="edge">
<title>Sequence&#45;&gt;PositionalBindFailover</title>
<path fill="none" stroke="#6666ff" d="M109.19,-108.3C109.19,-116.02 109.19,-125.29 109.19,-133.89"/>
<polygon fill="#6666ff" stroke="#6666ff" points="105.69,-133.9 109.19,-143.9 112.69,-133.9 105.69,-133.9"/>
</g>
<!-- Mu -->
<g id="node3" class="node">
<title>Mu</title>
<g id="a_node3"><a xlink:href="/type/Mu" xlink:title="Mu">
<ellipse fill="none" stroke="#000000" cx="301.19" cy="-234" rx="27" ry="18"/>
<text text-anchor="middle" x="301.19" y="-230.3" font-family="FreeSans" font-size="14.00" fill="#000000">Mu</text>
</a>
</g>
</g>
<!-- Any -->
<g id="node4" class="node">
<title>Any</title>
<g id="a_node4"><a xlink:href="/type/Any" xlink:title="Any">
<ellipse fill="none" stroke="#000000" cx="301.19" cy="-162" rx="28.7" ry="18"/>
<text text-anchor="middle" x="301.19" y="-158.3" font-family="FreeSans" font-size="14.00" fill="#000000">Any</text>
</a>
</g>
</g>
<!-- Any&#45;&gt;Mu -->
<g id="edge1" class="edge">
<title>Any&#45;&gt;Mu</title>
<path fill="none" stroke="#000000" d="M301.19,-180.3C301.19,-188.02 301.19,-197.29 301.19,-205.89"/>
<polygon fill="#000000" stroke="#000000" points="297.69,-205.9 301.19,-215.9 304.69,-205.9 297.69,-205.9"/>
</g>
<!-- Iterable -->
<g id="node5" class="node">
<title>Iterable</title>
<g id="a_node5"><a xlink:href="/type/Iterable" xlink:title="Iterable">
<ellipse fill="none" stroke="#6666ff" cx="228.19" cy="-90" rx="45.49" ry="18"/>
<text text-anchor="middle" x="228.19" y="-86.3" font-family="FreeSans" font-size="14.00" fill="#6666ff">Iterable</text>
</a>
</g>
</g>
<!-- RaceSeq -->
<g id="node6" class="node">
<title>RaceSeq</title>
<g id="a_node6"><a xlink:href="/type/RaceSeq" xlink:title="RaceSeq">
<ellipse fill="none" stroke="#000000" cx="228.19" cy="-18" rx="50.09" ry="18"/>
<text text-anchor="middle" x="228.19" y="-14.3" font-family="FreeSans" font-size="14.00" fill="#000000">RaceSeq</text>
</a>
</g>
</g>
<!-- RaceSeq&#45;&gt;Sequence -->
<g id="edge8" class="edge">
<title>RaceSeq&#45;&gt;Sequence</title>
<path fill="none" stroke="#6666ff" d="M203.24,-33.67C185.95,-43.85 162.69,-57.53 143.63,-68.74"/>
<polygon fill="#6666ff" stroke="#6666ff" points="141.77,-65.77 134.93,-73.86 145.32,-71.81 141.77,-65.77"/>
</g>
<!-- RaceSeq&#45;&gt;Any -->
<g id="edge2" class="edge">
<title>RaceSeq&#45;&gt;Any</title>
<path fill="none" stroke="#000000" d="M244.69,-35.19C260.57,-50.78 282.19,-72 282.19,-72 282.19,-72 289.84,-107.83 295.43,-134.03"/>
<polygon fill="#000000" stroke="#000000" points="292.02,-134.79 297.53,-143.84 298.86,-133.33 292.02,-134.79"/>
</g>
<!-- RaceSeq&#45;&gt;Iterable -->
<g id="edge7" class="edge">
<title>RaceSeq&#45;&gt;Iterable</title>
<path fill="none" stroke="#6666ff" d="M228.19,-36.3C228.19,-44.02 228.19,-53.29 228.19,-61.89"/>
<polygon fill="#6666ff" stroke="#6666ff" points="224.69,-61.9 228.19,-71.9 231.69,-61.9 224.69,-61.9"/>
</g>
<!-- Cool -->
<g id="node7" class="node">
<title>Cool</title>
<g id="a_node7"><a xlink:href="/type/Cool" xlink:title="Cool">
<ellipse fill="none" stroke="#000000" cx="360.19" cy="-90" rx="30.59" ry="18"/>
<text text-anchor="middle" x="360.19" y="-86.3" font-family="FreeSans" font-size="14.00" fill="#000000">Cool</text>
</a>
</g>
</g>
<!-- Cool&#45;&gt;Any -->
<g id="edge3" class="edge">
<title>Cool&#45;&gt;Any</title>
<path fill="none" stroke="#000000" d="M347.1,-106.54C339.38,-115.69 329.47,-127.45 320.83,-137.69"/>
<polygon fill="#000000" stroke="#000000" points="318.02,-135.61 314.25,-145.51 323.37,-140.12 318.02,-135.61"/>
</g>
<!-- Seq -->
<g id="node8" class="node">
<title>Seq</title>
<g id="a_node8"><a xlink:href="/type/Seq" xlink:title="Seq">
<ellipse fill="none" stroke="#000000" cx="324.19" cy="-18" rx="27.9" ry="18"/>
<text text-anchor="middle" x="324.19" y="-14.3" font-family="FreeSans" font-size="14.00" fill="#000000">Seq</text>
</a>
</g>
</g>
<!-- Seq&#45;&gt;Sequence -->
<g id="edge10" class="edge">
<title>Seq&#45;&gt;Sequence</title>
<path fill="none" stroke="#6666ff" d="M301.81,-29.28C294.02,-32.86 287.19,-36 287.19,-36 287.19,-36 211.24,-58.61 158.56,-74.3"/>
<polygon fill="#6666ff" stroke="#6666ff" points="157.28,-71.03 148.69,-77.24 159.28,-77.74 157.28,-71.03"/>
</g>
<!-- Seq&#45;&gt;Iterable -->
<g id="edge9" class="edge">
<title>Seq&#45;&gt;Iterable</title>
<path fill="none" stroke="#6666ff" d="M306.13,-32.17C292.39,-42.19 273.18,-56.19 257.27,-67.79"/>
<polygon fill="#6666ff" stroke="#6666ff" points="254.85,-65.23 248.83,-73.95 258.97,-70.88 254.85,-65.23"/>
</g>
<!-- Seq&#45;&gt;Cool -->
<g id="edge4" class="edge">
<title>Seq&#45;&gt;Cool</title>
<path fill="none" stroke="#000000" d="M332.54,-35.24C336.84,-43.6 342.18,-53.98 347.02,-63.39"/>
<polygon fill="#000000" stroke="#000000" points="343.95,-65.07 351.64,-72.37 350.17,-61.87 343.95,-65.07"/>
</g>
<!-- HyperSeq -->
<g id="node9" class="node">
<title>HyperSeq</title>
<g id="a_node9"><a xlink:href="/type/HyperSeq" xlink:title="HyperSeq">
<ellipse fill="none" stroke="#000000" cx="105.19" cy="-18" rx="55.49" ry="18"/>
<text text-anchor="middle" x="105.19" y="-14.3" font-family="FreeSans" font-size="14.00" fill="#000000">HyperSeq</text>
</a>
</g>
</g>
<!-- HyperSeq&#45;&gt;Sequence -->
<g id="edge12" class="edge">
<title>HyperSeq&#45;&gt;Sequence</title>
<path fill="none" stroke="#6666ff" d="M106.18,-36.3C106.62,-44.02 107.15,-53.29 107.64,-61.89"/>
<polygon fill="#6666ff" stroke="#6666ff" points="104.15,-62.11 108.21,-71.9 111.14,-61.71 104.15,-62.11"/>
</g>
<!-- HyperSeq&#45;&gt;Any -->
<g id="edge5" class="edge">
<title>HyperSeq&#45;&gt;Any</title>
<path fill="none" stroke="#000000" d="M86.86,-35.19C69.22,-50.78 45.19,-72 45.19,-72 45.19,-72 45.19,-108 45.19,-108 45.19,-108 227.19,-144 227.19,-144 227.19,-144 245.94,-148.31 264.56,-152.58"/>
<polygon fill="#000000" stroke="#000000" points="263.94,-156.03 274.47,-154.86 265.51,-149.21 263.94,-156.03"/>
</g>
<!-- HyperSeq&#45;&gt;Iterable -->
<g id="edge11" class="edge">
<title>HyperSeq&#45;&gt;Iterable</title>
<path fill="none" stroke="#6666ff" d="M131.58,-34.02C149.94,-44.47 174.59,-58.49 194.39,-69.76"/>
<polygon fill="#6666ff" stroke="#6666ff" points="192.68,-72.82 203.11,-74.73 196.15,-66.74 192.68,-72.82"/>
</g>
</g>
</svg>
