<?xml version="1.0" encoding="UTF-8" standalone="no"?>
<!DOCTYPE svg PUBLIC "-//W3C//DTD SVG 1.1//EN"
 "http://www.w3.org/Graphics/SVG/1.1/DTD/svg11.dtd">
<!-- Generated by graphviz version 2.42.3 (0)
 -->
<!-- Title: perl6&#45;type&#45;graph Pages: 1 -->
<svg width="340pt" height="404pt"
 viewBox="0.00 0.00 339.98 404.00" xmlns="http://www.w3.org/2000/svg" xmlns:xlink="http://www.w3.org/1999/xlink">
<g id="graph0" class="graph" transform="scale(1 1) rotate(0) translate(4 400)">
<title>perl6&#45;type&#45;graph</title>
<polygon fill="white" stroke="transparent" points="-4,4 -4,-400 335.98,-400 335.98,4 -4,4"/>
<!-- X::Syntax::Comment::Embedded -->
<g id="node1" class="node">
<title>X::Syntax::Comment::Embedded</title>
<g id="a_node1"><a xlink:href="/type/X::Syntax::Comment::Embedded" xlink:title="X::Syntax::Comment::Embedded">
<ellipse fill="none" stroke="#000000" cx="158.59" cy="-18" rx="158.67" ry="18"/>
<text text-anchor="middle" x="158.59" y="-14.3" font-family="FreeSans" font-size="14.00" fill="#000000">X::Syntax::Comment::Embedded</text>
</a>
</g>
</g>
<!-- Exception -->
<g id="node4" class="node">
<title>Exception</title>
<g id="a_node4"><a xlink:href="/type/Exception" xlink:title="Exception">
<ellipse fill="none" stroke="#000000" cx="181.59" cy="-234" rx="55.49" ry="18"/>
<text text-anchor="middle" x="181.59" y="-230.3" font-family="FreeSans" font-size="14.00" fill="#000000">Exception</text>
</a>
</g>
</g>
<!-- X::Syntax::Comment::Embedded&#45;&gt;Exception -->
<g id="edge1" class="edge">
<title>X::Syntax::Comment::Embedded&#45;&gt;Exception</title>
<path fill="none" stroke="#000000" d="M156.55,-36.15C157,-73.34 166.23,-161.63 174.06,-206.23"/>
<polygon fill="#000000" stroke="#000000" points="170.62,-206.88 175.91,-216.06 177.5,-205.59 170.62,-206.88"/>
</g>
<!-- X::Syntax::Comment::Embedded&#45;&gt;Exception -->
<g id="edge2" class="edge">
<title>X::Syntax::Comment::Embedded&#45;&gt;Exception</title>
<path fill="none" stroke="#000000" d="M164.31,-36.15C171.82,-73.17 181.51,-160.82 183.33,-205.61"/>
<polygon fill="#000000" stroke="#000000" points="179.84,-205.87 183.62,-215.77 186.84,-205.67 179.84,-205.87"/>
</g>
<!-- X::Syntax -->
<g id="node6" class="node">
<title>X::Syntax</title>
<g id="a_node6"><a xlink:href="/type/X::Syntax" xlink:title="X::Syntax">
<ellipse fill="none" stroke="#6666ff" cx="249.59" cy="-90" rx="53.89" ry="18"/>
<text text-anchor="middle" x="249.59" y="-86.3" font-family="FreeSans" font-size="14.00" fill="#6666ff">X::Syntax</text>
</a>
</g>
</g>
<!-- X::Syntax::Comment::Embedded&#45;&gt;X::Syntax -->
<g id="edge7" class="edge">
<title>X::Syntax::Comment::Embedded&#45;&gt;X::Syntax</title>
<path fill="none" stroke="#6666ff" d="M180.61,-35.95C192.7,-45.24 207.82,-56.87 220.82,-66.87"/>
<polygon fill="#6666ff" stroke="#6666ff" points="218.95,-69.85 229.01,-73.17 223.22,-64.3 218.95,-69.85"/>
</g>
<!-- Mu -->
<g id="node2" class="node">
<title>Mu</title>
<g id="a_node2"><a xlink:href="/type/Mu" xlink:title="Mu">
<ellipse fill="none" stroke="#000000" cx="181.59" cy="-378" rx="27" ry="18"/>
<text text-anchor="middle" x="181.59" y="-374.3" font-family="FreeSans" font-size="14.00" fill="#000000">Mu</text>
</a>
</g>
</g>
<!-- Any -->
<g id="node3" class="node">
<title>Any</title>
<g id="a_node3"><a xlink:href="/type/Any" xlink:title="Any">
<ellipse fill="none" stroke="#000000" cx="181.59" cy="-306" rx="28.7" ry="18"/>
<text text-anchor="middle" x="181.59" y="-302.3" font-family="FreeSans" font-size="14.00" fill="#000000">Any</text>
</a>
</g>
</g>
<!-- Any&#45;&gt;Mu -->
<g id="edge3" class="edge">
<title>Any&#45;&gt;Mu</title>
<path fill="none" stroke="#000000" d="M181.59,-324.3C181.59,-332.02 181.59,-341.29 181.59,-349.89"/>
<polygon fill="#000000" stroke="#000000" points="178.09,-349.9 181.59,-359.9 185.09,-349.9 178.09,-349.9"/>
</g>
<!-- Exception&#45;&gt;Any -->
<g id="edge4" class="edge">
<title>Exception&#45;&gt;Any</title>
<path fill="none" stroke="#000000" d="M181.59,-252.3C181.59,-260.02 181.59,-269.29 181.59,-277.89"/>
<polygon fill="#000000" stroke="#000000" points="178.09,-277.9 181.59,-287.9 185.09,-277.9 178.09,-277.9"/>
</g>
<!-- X::Comp -->
<g id="node5" class="node">
<title>X::Comp</title>
<g id="a_node5"><a xlink:href="/type/X::Comp" xlink:title="X::Comp">
<ellipse fill="none" stroke="#6666ff" cx="282.59" cy="-162" rx="49.29" ry="18"/>
<text text-anchor="middle" x="282.59" y="-158.3" font-family="FreeSans" font-size="14.00" fill="#6666ff">X::Comp</text>
</a>
</g>
</g>
<!-- X::Comp&#45;&gt;Exception -->
<g id="edge5" class="edge">
<title>X::Comp&#45;&gt;Exception</title>
<path fill="none" stroke="#000000" d="M260.67,-178.19C246.57,-187.96 228.04,-200.8 212.46,-211.6"/>
<polygon fill="#000000" stroke="#000000" points="210.38,-208.78 204.16,-217.36 214.37,-214.54 210.38,-208.78"/>
</g>
<!-- X::Syntax&#45;&gt;Exception -->
<g id="edge6" class="edge">
<title>X::Syntax&#45;&gt;Exception</title>
<path fill="none" stroke="#000000" d="M241.52,-107.85C229.76,-132.4 207.82,-178.23 193.99,-207.09"/>
<polygon fill="#000000" stroke="#000000" points="190.81,-205.64 189.64,-216.18 197.12,-208.67 190.81,-205.64"/>
</g>
<!-- X::Syntax&#45;&gt;X::Comp -->
<g id="edge8" class="edge">
<title>X::Syntax&#45;&gt;X::Comp</title>
<path fill="none" stroke="#6666ff" d="M257.57,-107.95C261.38,-116.03 266.03,-125.88 270.28,-134.89"/>
<polygon fill="#6666ff" stroke="#6666ff" points="267.24,-136.66 274.67,-144.21 273.57,-133.67 267.24,-136.66"/>
</g>
</g>
</svg>
