<?xml version="1.0" encoding="UTF-8" standalone="no"?>
<!DOCTYPE svg PUBLIC "-//W3C//DTD SVG 1.1//EN"
 "http://www.w3.org/Graphics/SVG/1.1/DTD/svg11.dtd">
<!-- Generated by graphviz version 2.42.3 (0)
 -->
<!-- Title: perl6&#45;type&#45;graph Pages: 1 -->
<svg width="1539pt" height="332pt"
 viewBox="0.00 0.00 1538.74 332.00" xmlns="http://www.w3.org/2000/svg" xmlns:xlink="http://www.w3.org/1999/xlink">
<g id="graph0" class="graph" transform="scale(1 1) rotate(0) translate(4 328)">
<title>perl6&#45;type&#45;graph</title>
<polygon fill="white" stroke="transparent" points="-4,4 -4,-328 1534.74,-328 1534.74,4 -4,4"/>
<!-- Cool -->
<g id="node1" class="node">
<title>Cool</title>
<g id="a_node1"><a xlink:href="/type/Cool" xlink:title="Cool">
<ellipse fill="none" stroke="#000000" cx="675.95" cy="-162" rx="30.59" ry="18"/>
<text text-anchor="middle" x="675.95" y="-158.3" font-family="FreeSans" font-size="14.00" fill="#000000">Cool</text>
</a>
</g>
</g>
<!-- Any -->
<g id="node3" class="node">
<title>Any</title>
<g id="a_node3"><a xlink:href="/type/Any" xlink:title="Any">
<ellipse fill="none" stroke="#000000" cx="594.95" cy="-234" rx="28.7" ry="18"/>
<text text-anchor="middle" x="594.95" y="-230.3" font-family="FreeSans" font-size="14.00" fill="#000000">Any</text>
</a>
</g>
</g>
<!-- Cool&#45;&gt;Any -->
<g id="edge1" class="edge">
<title>Cool&#45;&gt;Any</title>
<path fill="none" stroke="#000000" d="M659.16,-177.5C647.5,-187.59 631.78,-201.17 618.81,-212.38"/>
<polygon fill="#000000" stroke="#000000" points="616.43,-209.81 611.15,-218.99 621.01,-215.1 616.43,-209.81"/>
</g>
<!-- Mu -->
<g id="node2" class="node">
<title>Mu</title>
<g id="a_node2"><a xlink:href="/type/Mu" xlink:title="Mu">
<ellipse fill="none" stroke="#000000" cx="594.95" cy="-306" rx="27" ry="18"/>
<text text-anchor="middle" x="594.95" y="-302.3" font-family="FreeSans" font-size="14.00" fill="#000000">Mu</text>
</a>
</g>
</g>
<!-- Any&#45;&gt;Mu -->
<g id="edge2" class="edge">
<title>Any&#45;&gt;Mu</title>
<path fill="none" stroke="#000000" d="M594.95,-252.3C594.95,-260.02 594.95,-269.29 594.95,-277.89"/>
<polygon fill="#000000" stroke="#000000" points="591.45,-277.9 594.95,-287.9 598.45,-277.9 591.45,-277.9"/>
</g>
<!-- Numeric -->
<g id="node4" class="node">
<title>Numeric</title>
<g id="a_node4"><a xlink:href="/type/Numeric" xlink:title="Numeric">
<ellipse fill="none" stroke="#6666ff" cx="1111.95" cy="-234" rx="48.99" ry="18"/>
<text text-anchor="middle" x="1111.95" y="-230.3" font-family="FreeSans" font-size="14.00" fill="#6666ff">Numeric</text>
</a>
</g>
</g>
<!-- Real -->
<g id="node5" class="node">
<title>Real</title>
<g id="a_node5"><a xlink:href="/type/Real" xlink:title="Real">
<ellipse fill="none" stroke="#6666ff" cx="1014.95" cy="-162" rx="30.59" ry="18"/>
<text text-anchor="middle" x="1014.95" y="-158.3" font-family="FreeSans" font-size="14.00" fill="#6666ff">Real</text>
</a>
</g>
</g>
<!-- Real&#45;&gt;Numeric -->
<g id="edge21" class="edge">
<title>Real&#45;&gt;Numeric</title>
<path fill="none" stroke="#6666ff" d="M1033.65,-176.5C1047.4,-186.42 1066.36,-200.11 1082.18,-211.52"/>
<polygon fill="#6666ff" stroke="#6666ff" points="1080.44,-214.58 1090.6,-217.59 1084.54,-208.9 1080.44,-214.58"/>
</g>
<!-- Duration -->
<g id="node6" class="node">
<title>Duration</title>
<g id="a_node6"><a xlink:href="/type/Duration" xlink:title="Duration">
<ellipse fill="none" stroke="#000000" cx="1066.95" cy="-90" rx="50.09" ry="18"/>
<text text-anchor="middle" x="1066.95" y="-86.3" font-family="FreeSans" font-size="14.00" fill="#000000">Duration</text>
</a>
</g>
</g>
<!-- Duration&#45;&gt;Cool -->
<g id="edge3" class="edge">
<title>Duration&#45;&gt;Cool</title>
<path fill="none" stroke="#000000" d="M1028.95,-101.77C1017.04,-105.14 1006.95,-108 1006.95,-108 1006.95,-108 802.74,-140.7 715.12,-154.73"/>
<polygon fill="#000000" stroke="#000000" points="714.35,-151.31 705.03,-156.34 715.46,-158.22 714.35,-151.31"/>
</g>
<!-- Duration&#45;&gt;Real -->
<g id="edge22" class="edge">
<title>Duration&#45;&gt;Real</title>
<path fill="none" stroke="#6666ff" d="M1054.62,-107.59C1048.12,-116.34 1040.02,-127.25 1032.83,-136.92"/>
<polygon fill="#6666ff" stroke="#6666ff" points="1029.98,-134.9 1026.82,-145.01 1035.59,-139.07 1029.98,-134.9"/>
</g>
<!-- Positional -->
<g id="node7" class="node">
<title>Positional</title>
<g id="a_node7"><a xlink:href="/type/Positional" xlink:title="Positional">
<ellipse fill="none" stroke="#6666ff" cx="53.95" cy="-162" rx="53.89" ry="18"/>
<text text-anchor="middle" x="53.95" y="-158.3" font-family="FreeSans" font-size="14.00" fill="#6666ff">Positional</text>
</a>
</g>
</g>
<!-- Iterable -->
<g id="node8" class="node">
<title>Iterable</title>
<g id="a_node8"><a xlink:href="/type/Iterable" xlink:title="Iterable">
<ellipse fill="none" stroke="#6666ff" cx="170.95" cy="-162" rx="45.49" ry="18"/>
<text text-anchor="middle" x="170.95" y="-158.3" font-family="FreeSans" font-size="14.00" fill="#6666ff">Iterable</text>
</a>
</g>
</g>
<!-- List -->
<g id="node9" class="node">
<title>List</title>
<g id="a_node9"><a xlink:href="/type/List" xlink:title="List">
<ellipse fill="none" stroke="#000000" cx="77.95" cy="-90" rx="27" ry="18"/>
<text text-anchor="middle" x="77.95" y="-86.3" font-family="FreeSans" font-size="14.00" fill="#000000">List</text>
</a>
</g>
</g>
<!-- List&#45;&gt;Cool -->
<g id="edge4" class="edge">
<title>List&#45;&gt;Cool</title>
<path fill="none" stroke="#000000" d="M99.3,-101.09C107.05,-104.75 113.95,-108 113.95,-108 113.95,-108 634.95,-144 634.95,-144 634.95,-144 637.86,-145.21 642.13,-146.98"/>
<polygon fill="#000000" stroke="#000000" points="641.04,-150.32 651.62,-150.91 643.72,-143.85 641.04,-150.32"/>
</g>
<!-- List&#45;&gt;Positional -->
<g id="edge23" class="edge">
<title>List&#45;&gt;Positional</title>
<path fill="none" stroke="#6666ff" d="M72.14,-107.95C69.43,-115.82 66.16,-125.38 63.13,-134.21"/>
<polygon fill="#6666ff" stroke="#6666ff" points="59.8,-133.13 59.87,-143.72 66.42,-135.4 59.8,-133.13"/>
</g>
<!-- List&#45;&gt;Iterable -->
<g id="edge24" class="edge">
<title>List&#45;&gt;Iterable</title>
<path fill="none" stroke="#6666ff" d="M95.44,-104.17C108.67,-114.12 127.11,-128.01 142.46,-139.56"/>
<polygon fill="#6666ff" stroke="#6666ff" points="140.52,-142.48 150.62,-145.7 144.73,-136.89 140.52,-142.48"/>
</g>
<!-- Stringy -->
<g id="node10" class="node">
<title>Stringy</title>
<g id="a_node10"><a xlink:href="/type/Stringy" xlink:title="Stringy">
<ellipse fill="none" stroke="#6666ff" cx="1391.95" cy="-162" rx="43.59" ry="18"/>
<text text-anchor="middle" x="1391.95" y="-158.3" font-family="FreeSans" font-size="14.00" fill="#6666ff">Stringy</text>
</a>
</g>
</g>
<!-- Str -->
<g id="node11" class="node">
<title>Str</title>
<g id="a_node11"><a xlink:href="/type/Str" xlink:title="Str">
<ellipse fill="none" stroke="#000000" cx="1391.95" cy="-90" rx="27" ry="18"/>
<text text-anchor="middle" x="1391.95" y="-86.3" font-family="FreeSans" font-size="14.00" fill="#000000">Str</text>
</a>
</g>
</g>
<!-- Str&#45;&gt;Cool -->
<g id="edge5" class="edge">
<title>Str&#45;&gt;Cool</title>
<path fill="none" stroke="#000000" d="M1370.59,-101.09C1362.84,-104.75 1355.95,-108 1355.95,-108 1355.95,-108 862.64,-146.45 716.36,-157.85"/>
<polygon fill="#000000" stroke="#000000" points="715.74,-154.39 706.04,-158.65 716.28,-161.37 715.74,-154.39"/>
</g>
<!-- Str&#45;&gt;Stringy -->
<g id="edge25" class="edge">
<title>Str&#45;&gt;Stringy</title>
<path fill="none" stroke="#6666ff" d="M1391.95,-108.3C1391.95,-116.02 1391.95,-125.29 1391.95,-133.89"/>
<polygon fill="#6666ff" stroke="#6666ff" points="1388.45,-133.9 1391.95,-143.9 1395.45,-133.9 1388.45,-133.9"/>
</g>
<!-- Capture -->
<g id="node12" class="node">
<title>Capture</title>
<g id="a_node12"><a xlink:href="/type/Capture" xlink:title="Capture">
<ellipse fill="none" stroke="#000000" cx="579.95" cy="-162" rx="46.29" ry="18"/>
<text text-anchor="middle" x="579.95" y="-158.3" font-family="FreeSans" font-size="14.00" fill="#000000">Capture</text>
</a>
</g>
</g>
<!-- Capture&#45;&gt;Any -->
<g id="edge6" class="edge">
<title>Capture&#45;&gt;Any</title>
<path fill="none" stroke="#000000" d="M583.58,-179.95C585.25,-187.74 587.27,-197.18 589.14,-205.92"/>
<polygon fill="#000000" stroke="#000000" points="585.73,-206.68 591.24,-215.72 592.57,-205.21 585.73,-206.68"/>
</g>
<!-- Match -->
<g id="node13" class="node">
<title>Match</title>
<g id="a_node13"><a xlink:href="/type/Match" xlink:title="Match">
<ellipse fill="none" stroke="#000000" cx="410.95" cy="-90" rx="38.19" ry="18"/>
<text text-anchor="middle" x="410.95" y="-86.3" font-family="FreeSans" font-size="14.00" fill="#000000">Match</text>
</a>
</g>
</g>
<!-- Match&#45;&gt;Cool -->
<g id="edge8" class="edge">
<title>Match&#45;&gt;Cool</title>
<path fill="none" stroke="#000000" d="M441.49,-100.99C452.81,-104.69 462.95,-108 462.95,-108 462.95,-108 634.95,-144 634.95,-144 634.95,-144 637.86,-145.21 642.13,-146.98"/>
<polygon fill="#000000" stroke="#000000" points="641.04,-150.32 651.62,-150.91 643.72,-143.85 641.04,-150.32"/>
</g>
<!-- Match&#45;&gt;Capture -->
<g id="edge7" class="edge">
<title>Match&#45;&gt;Capture</title>
<path fill="none" stroke="#000000" d="M438.85,-102.56C466.46,-114 509,-131.61 540.15,-144.52"/>
<polygon fill="#000000" stroke="#000000" points="538.84,-147.76 549.42,-148.36 541.52,-141.3 538.84,-147.76"/>
</g>
<!-- Range -->
<g id="node14" class="node">
<title>Range</title>
<g id="a_node14"><a xlink:href="/type/Range" xlink:title="Range">
<ellipse fill="none" stroke="#000000" cx="162.95" cy="-90" rx="39.79" ry="18"/>
<text text-anchor="middle" x="162.95" y="-86.3" font-family="FreeSans" font-size="14.00" fill="#000000">Range</text>
</a>
</g>
</g>
<!-- Range&#45;&gt;Cool -->
<g id="edge9" class="edge">
<title>Range&#45;&gt;Cool</title>
<path fill="none" stroke="#000000" d="M193.42,-101.57C203.39,-105.03 211.95,-108 211.95,-108 211.95,-108 634.95,-144 634.95,-144 634.95,-144 637.86,-145.21 642.13,-146.98"/>
<polygon fill="#000000" stroke="#000000" points="641.04,-150.32 651.62,-150.91 643.72,-143.85 641.04,-150.32"/>
</g>
<!-- Range&#45;&gt;Positional -->
<g id="edge26" class="edge">
<title>Range&#45;&gt;Positional</title>
<path fill="none" stroke="#6666ff" d="M140.89,-105.17C125.31,-115.17 104.18,-128.74 86.65,-140"/>
<polygon fill="#6666ff" stroke="#6666ff" points="84.38,-137.29 77.86,-145.64 88.17,-143.18 84.38,-137.29"/>
</g>
<!-- Range&#45;&gt;Iterable -->
<g id="edge27" class="edge">
<title>Range&#45;&gt;Iterable</title>
<path fill="none" stroke="#6666ff" d="M164.92,-108.3C165.8,-116.02 166.86,-125.29 167.85,-133.89"/>
<polygon fill="#6666ff" stroke="#6666ff" points="164.38,-134.36 168.99,-143.9 171.33,-133.56 164.38,-134.36"/>
</g>
<!-- Rational -->
<g id="node15" class="node">
<title>Rational</title>
<g id="a_node15"><a xlink:href="/type/Rational" xlink:title="Rational">
<ellipse fill="none" stroke="#6666ff" cx="1181.95" cy="-90" rx="47.39" ry="18"/>
<text text-anchor="middle" x="1181.95" y="-86.3" font-family="FreeSans" font-size="14.00" fill="#6666ff">Rational</text>
</a>
</g>
</g>
<!-- Rational&#45;&gt;Real -->
<g id="edge28" class="edge">
<title>Rational&#45;&gt;Real</title>
<path fill="none" stroke="#6666ff" d="M1151.31,-103.84C1122.17,-116.06 1078.43,-134.39 1048.39,-146.98"/>
<polygon fill="#6666ff" stroke="#6666ff" points="1047.02,-143.76 1039.15,-150.85 1049.73,-150.22 1047.02,-143.76"/>
</g>
<!-- Rat -->
<g id="node16" class="node">
<title>Rat</title>
<g id="a_node16"><a xlink:href="/type/Rat" xlink:title="Rat">
<ellipse fill="none" stroke="#000000" cx="955.95" cy="-18" rx="27" ry="18"/>
<text text-anchor="middle" x="955.95" y="-14.3" font-family="FreeSans" font-size="14.00" fill="#000000">Rat</text>
</a>
</g>
</g>
<!-- Rat&#45;&gt;Cool -->
<g id="edge10" class="edge">
<title>Rat&#45;&gt;Cool</title>
<path fill="none" stroke="#000000" d="M931.1,-25.39C876.31,-39.49 749.95,-72 749.95,-72 749.95,-72 717.17,-111.42 695.24,-137.79"/>
<polygon fill="#000000" stroke="#000000" points="692.54,-135.57 688.84,-145.5 697.92,-140.05 692.54,-135.57"/>
</g>
<!-- Rat&#45;&gt;Rational -->
<g id="edge29" class="edge">
<title>Rat&#45;&gt;Rational</title>
<path fill="none" stroke="#6666ff" d="M980.13,-26.49C1017.45,-38.05 1089.66,-60.42 1136.82,-75.02"/>
<polygon fill="#6666ff" stroke="#6666ff" points="1135.9,-78.4 1146.49,-78.02 1137.97,-71.71 1135.9,-78.4"/>
</g>
<!-- StrDistance -->
<g id="node17" class="node">
<title>StrDistance</title>
<g id="a_node17"><a xlink:href="/type/StrDistance" xlink:title="StrDistance">
<ellipse fill="none" stroke="#000000" cx="567.95" cy="-90" rx="63.09" ry="18"/>
<text text-anchor="middle" x="567.95" y="-86.3" font-family="FreeSans" font-size="14.00" fill="#000000">StrDistance</text>
</a>
</g>
</g>
<!-- StrDistance&#45;&gt;Cool -->
<g id="edge11" class="edge">
<title>StrDistance&#45;&gt;Cool</title>
<path fill="none" stroke="#000000" d="M592.18,-106.71C608.6,-117.35 630.36,-131.45 647.58,-142.61"/>
<polygon fill="#000000" stroke="#000000" points="645.83,-145.65 656.12,-148.15 649.63,-139.78 645.83,-145.65"/>
</g>
<!-- Complex -->
<g id="node18" class="node">
<title>Complex</title>
<g id="a_node18"><a xlink:href="/type/Complex" xlink:title="Complex">
<ellipse fill="none" stroke="#000000" cx="1296.95" cy="-90" rx="50.09" ry="18"/>
<text text-anchor="middle" x="1296.95" y="-86.3" font-family="FreeSans" font-size="14.00" fill="#000000">Complex</text>
</a>
</g>
</g>
<!-- Complex&#45;&gt;Cool -->
<g id="edge12" class="edge">
<title>Complex&#45;&gt;Cool</title>
<path fill="none" stroke="#000000" d="M1259.25,-101.86C1247.68,-105.19 1237.95,-108 1237.95,-108 1237.95,-108 845.28,-145.03 716.39,-157.19"/>
<polygon fill="#000000" stroke="#000000" points="715.79,-153.73 706.16,-158.15 716.45,-160.7 715.79,-153.73"/>
</g>
<!-- Complex&#45;&gt;Numeric -->
<g id="edge30" class="edge">
<title>Complex&#45;&gt;Numeric</title>
<path fill="none" stroke="#6666ff" d="M1276.44,-106.74C1243.29,-132.18 1177.86,-182.4 1140.28,-211.25"/>
<polygon fill="#6666ff" stroke="#6666ff" points="1138.06,-208.54 1132.26,-217.41 1142.32,-214.09 1138.06,-208.54"/>
</g>
<!-- Nil -->
<g id="node19" class="node">
<title>Nil</title>
<g id="a_node19"><a xlink:href="/type/Nil" xlink:title="Nil">
<ellipse fill="none" stroke="#000000" cx="675.95" cy="-90" rx="27" ry="18"/>
<text text-anchor="middle" x="675.95" y="-86.3" font-family="FreeSans" font-size="14.00" fill="#000000">Nil</text>
</a>
</g>
</g>
<!-- Nil&#45;&gt;Cool -->
<g id="edge13" class="edge">
<title>Nil&#45;&gt;Cool</title>
<path fill="none" stroke="#000000" d="M675.95,-108.3C675.95,-116.02 675.95,-125.29 675.95,-133.89"/>
<polygon fill="#000000" stroke="#000000" points="672.45,-133.9 675.95,-143.9 679.45,-133.9 672.45,-133.9"/>
</g>
<!-- Int -->
<g id="node20" class="node">
<title>Int</title>
<g id="a_node20"><a xlink:href="/type/Int" xlink:title="Int">
<ellipse fill="none" stroke="#000000" cx="785.95" cy="-90" rx="27" ry="18"/>
<text text-anchor="middle" x="785.95" y="-86.3" font-family="FreeSans" font-size="14.00" fill="#000000">Int</text>
</a>
</g>
</g>
<!-- Int&#45;&gt;Cool -->
<g id="edge14" class="edge">
<title>Int&#45;&gt;Cool</title>
<path fill="none" stroke="#000000" d="M766.78,-103.19C749.6,-114.13 724.14,-130.33 704.54,-142.8"/>
<polygon fill="#000000" stroke="#000000" points="702.56,-139.92 696,-148.24 706.32,-145.82 702.56,-139.92"/>
</g>
<!-- Int&#45;&gt;Real -->
<g id="edge31" class="edge">
<title>Int&#45;&gt;Real</title>
<path fill="none" stroke="#6666ff" d="M807.3,-101.09C815.05,-104.75 821.95,-108 821.95,-108 821.95,-108 921.7,-135.39 977.77,-150.79"/>
<polygon fill="#6666ff" stroke="#6666ff" points="977.13,-154.25 987.7,-153.52 978.99,-147.5 977.13,-154.25"/>
</g>
<!-- Instant -->
<g id="node21" class="node">
<title>Instant</title>
<g id="a_node21"><a xlink:href="/type/Instant" xlink:title="Instant">
<ellipse fill="none" stroke="#000000" cx="872.95" cy="-90" rx="42.49" ry="18"/>
<text text-anchor="middle" x="872.95" y="-86.3" font-family="FreeSans" font-size="14.00" fill="#000000">Instant</text>
</a>
</g>
</g>
<!-- Instant&#45;&gt;Cool -->
<g id="edge15" class="edge">
<title>Instant&#45;&gt;Cool</title>
<path fill="none" stroke="#000000" d="M841.29,-102.25C805.8,-114.86 748.39,-135.26 711.41,-148.4"/>
<polygon fill="#000000" stroke="#000000" points="709.81,-145.25 701.56,-151.9 712.15,-151.85 709.81,-145.25"/>
</g>
<!-- Instant&#45;&gt;Real -->
<g id="edge32" class="edge">
<title>Instant&#45;&gt;Real</title>
<path fill="none" stroke="#6666ff" d="M899.65,-104.17C923.31,-115.83 957.87,-132.87 982.99,-145.25"/>
<polygon fill="#6666ff" stroke="#6666ff" points="981.59,-148.46 992.11,-149.74 984.68,-142.18 981.59,-148.46"/>
</g>
<!-- Associative -->
<g id="node22" class="node">
<title>Associative</title>
<g id="a_node22"><a xlink:href="/type/Associative" xlink:title="Associative">
<ellipse fill="none" stroke="#6666ff" cx="295.95" cy="-162" rx="61.99" ry="18"/>
<text text-anchor="middle" x="295.95" y="-158.3" font-family="FreeSans" font-size="14.00" fill="#6666ff">Associative</text>
</a>
</g>
</g>
<!-- Map -->
<g id="node23" class="node">
<title>Map</title>
<g id="a_node23"><a xlink:href="/type/Map" xlink:title="Map">
<ellipse fill="none" stroke="#000000" cx="250.95" cy="-90" rx="29.8" ry="18"/>
<text text-anchor="middle" x="250.95" y="-86.3" font-family="FreeSans" font-size="14.00" fill="#000000">Map</text>
</a>
</g>
</g>
<!-- Map&#45;&gt;Cool -->
<g id="edge16" class="edge">
<title>Map&#45;&gt;Cool</title>
<path fill="none" stroke="#000000" d="M274.53,-101.28C282.74,-104.86 289.95,-108 289.95,-108 289.95,-108 634.95,-144 634.95,-144 634.95,-144 637.86,-145.21 642.13,-146.98"/>
<polygon fill="#000000" stroke="#000000" points="641.04,-150.32 651.62,-150.91 643.72,-143.85 641.04,-150.32"/>
</g>
<!-- Map&#45;&gt;Iterable -->
<g id="edge33" class="edge">
<title>Map&#45;&gt;Iterable</title>
<path fill="none" stroke="#6666ff" d="M234.76,-105.17C223.82,-114.73 209.15,-127.57 196.63,-138.52"/>
<polygon fill="#6666ff" stroke="#6666ff" points="194,-136.17 188.78,-145.39 198.61,-141.44 194,-136.17"/>
</g>
<!-- Map&#45;&gt;Associative -->
<g id="edge34" class="edge">
<title>Map&#45;&gt;Associative</title>
<path fill="none" stroke="#6666ff" d="M261.38,-107.24C266.73,-115.56 273.38,-125.9 279.41,-135.27"/>
<polygon fill="#6666ff" stroke="#6666ff" points="276.59,-137.36 284.94,-143.88 282.47,-133.57 276.59,-137.36"/>
</g>
<!-- PositionalBindFailover -->
<g id="node24" class="node">
<title>PositionalBindFailover</title>
<g id="a_node24"><a xlink:href="/type/PositionalBindFailover" xlink:title="PositionalBindFailover">
<ellipse fill="none" stroke="#6666ff" cx="430.95" cy="-234" rx="109.38" ry="18"/>
<text text-anchor="middle" x="430.95" y="-230.3" font-family="FreeSans" font-size="14.00" fill="#6666ff">PositionalBindFailover</text>
</a>
</g>
</g>
<!-- Sequence -->
<g id="node25" class="node">
<title>Sequence</title>
<g id="a_node25"><a xlink:href="/type/Sequence" xlink:title="Sequence">
<ellipse fill="none" stroke="#6666ff" cx="430.95" cy="-162" rx="55.49" ry="18"/>
<text text-anchor="middle" x="430.95" y="-158.3" font-family="FreeSans" font-size="14.00" fill="#6666ff">Sequence</text>
</a>
</g>
</g>
<!-- Sequence&#45;&gt;PositionalBindFailover -->
<g id="edge35" class="edge">
<title>Sequence&#45;&gt;PositionalBindFailover</title>
<path fill="none" stroke="#6666ff" d="M430.95,-180.3C430.95,-188.02 430.95,-197.29 430.95,-205.89"/>
<polygon fill="#6666ff" stroke="#6666ff" points="427.45,-205.9 430.95,-215.9 434.45,-205.9 427.45,-205.9"/>
</g>
<!-- Seq -->
<g id="node26" class="node">
<title>Seq</title>
<g id="a_node26"><a xlink:href="/type/Seq" xlink:title="Seq">
<ellipse fill="none" stroke="#000000" cx="326.95" cy="-90" rx="27.9" ry="18"/>
<text text-anchor="middle" x="326.95" y="-86.3" font-family="FreeSans" font-size="14.00" fill="#000000">Seq</text>
</a>
</g>
</g>
<!-- Seq&#45;&gt;Cool -->
<g id="edge17" class="edge">
<title>Seq&#45;&gt;Cool</title>
<path fill="none" stroke="#000000" d="M349.32,-101.28C357.11,-104.86 363.95,-108 363.95,-108 363.95,-108 634.95,-144 634.95,-144 634.95,-144 637.86,-145.21 642.13,-146.98"/>
<polygon fill="#000000" stroke="#000000" points="641.04,-150.32 651.62,-150.91 643.72,-143.85 641.04,-150.32"/>
</g>
<!-- Seq&#45;&gt;Iterable -->
<g id="edge36" class="edge">
<title>Seq&#45;&gt;Iterable</title>
<path fill="none" stroke="#6666ff" d="M304.57,-101.28C296.78,-104.86 289.95,-108 289.95,-108 289.95,-108 244.28,-128.34 209.52,-143.82"/>
<polygon fill="#6666ff" stroke="#6666ff" points="207.77,-140.77 200.06,-148.03 210.61,-147.16 207.77,-140.77"/>
</g>
<!-- Seq&#45;&gt;Sequence -->
<g id="edge37" class="edge">
<title>Seq&#45;&gt;Sequence</title>
<path fill="none" stroke="#6666ff" d="M345.54,-103.51C360.5,-113.59 381.86,-127.96 399.48,-139.82"/>
<polygon fill="#6666ff" stroke="#6666ff" points="397.53,-142.73 407.78,-145.41 401.44,-136.92 397.53,-142.73"/>
</g>
<!-- FatRat -->
<g id="node27" class="node">
<title>FatRat</title>
<g id="a_node27"><a xlink:href="/type/FatRat" xlink:title="FatRat">
<ellipse fill="none" stroke="#000000" cx="786.95" cy="-18" rx="39.79" ry="18"/>
<text text-anchor="middle" x="786.95" y="-14.3" font-family="FreeSans" font-size="14.00" fill="#000000">FatRat</text>
</a>
</g>
</g>
<!-- FatRat&#45;&gt;Cool -->
<g id="edge18" class="edge">
<title>FatRat&#45;&gt;Cool</title>
<path fill="none" stroke="#000000" d="M750.68,-25.61C672.67,-39.81 495.95,-72 495.95,-72 495.95,-72 495.95,-108 495.95,-108 495.95,-108 634.95,-144 634.95,-144 634.95,-144 637.86,-145.21 642.13,-146.98"/>
<polygon fill="#000000" stroke="#000000" points="641.04,-150.32 651.62,-150.91 643.72,-143.85 641.04,-150.32"/>
</g>
<!-- FatRat&#45;&gt;Rational -->
<g id="edge38" class="edge">
<title>FatRat&#45;&gt;Rational</title>
<path fill="none" stroke="#6666ff" d="M823.87,-24.77C911.73,-38.51 1125.95,-72 1125.95,-72 1125.95,-72 1130.12,-73.27 1136.18,-75.11"/>
<polygon fill="#6666ff" stroke="#6666ff" points="1135.58,-78.58 1146.16,-78.14 1137.61,-71.88 1135.58,-78.58"/>
</g>
<!-- Num -->
<g id="node28" class="node">
<title>Num</title>
<g id="a_node28"><a xlink:href="/type/Num" xlink:title="Num">
<ellipse fill="none" stroke="#000000" cx="965.95" cy="-90" rx="32.49" ry="18"/>
<text text-anchor="middle" x="965.95" y="-86.3" font-family="FreeSans" font-size="14.00" fill="#000000">Num</text>
</a>
</g>
</g>
<!-- Num&#45;&gt;Cool -->
<g id="edge19" class="edge">
<title>Num&#45;&gt;Cool</title>
<path fill="none" stroke="#000000" d="M940.54,-101.28C931.7,-104.86 923.95,-108 923.95,-108 923.95,-108 784.25,-137.85 714.55,-152.75"/>
<polygon fill="#000000" stroke="#000000" points="713.44,-149.41 704.39,-154.92 714.9,-156.25 713.44,-149.41"/>
</g>
<!-- Num&#45;&gt;Real -->
<g id="edge39" class="edge">
<title>Num&#45;&gt;Real</title>
<path fill="none" stroke="#6666ff" d="M977.31,-107.24C983.37,-115.89 990.95,-126.73 997.72,-136.4"/>
<polygon fill="#6666ff" stroke="#6666ff" points="995.04,-138.67 1003.64,-144.85 1000.77,-134.65 995.04,-138.67"/>
</g>
<!-- IO -->
<g id="node29" class="node">
<title>IO</title>
<g id="a_node29"><a xlink:href="/type/IO" xlink:title="IO">
<ellipse fill="none" stroke="#6666ff" cx="1483.95" cy="-162" rx="27" ry="18"/>
<text text-anchor="middle" x="1483.95" y="-158.3" font-family="FreeSans" font-size="14.00" fill="#6666ff">IO</text>
</a>
</g>
</g>
<!-- IO::Path -->
<g id="node30" class="node">
<title>IO::Path</title>
<g id="a_node30"><a xlink:href="/type/IO::Path" xlink:title="IO::Path">
<ellipse fill="none" stroke="#000000" cx="1483.95" cy="-90" rx="46.59" ry="18"/>
<text text-anchor="middle" x="1483.95" y="-86.3" font-family="FreeSans" font-size="14.00" fill="#000000">IO::Path</text>
</a>
</g>
</g>
<!-- IO::Path&#45;&gt;Cool -->
<g id="edge20" class="edge">
<title>IO::Path&#45;&gt;Cool</title>
<path fill="none" stroke="#000000" d="M1448.48,-101.77C1437.37,-105.14 1427.95,-108 1427.95,-108 1427.95,-108 872.85,-147.12 716.49,-158.14"/>
<polygon fill="#000000" stroke="#000000" points="716.09,-154.66 706.36,-158.86 716.58,-161.64 716.09,-154.66"/>
</g>
<!-- IO::Path&#45;&gt;IO -->
<g id="edge40" class="edge">
<title>IO::Path&#45;&gt;IO</title>
<path fill="none" stroke="#6666ff" d="M1483.95,-108.3C1483.95,-116.02 1483.95,-125.29 1483.95,-133.89"/>
<polygon fill="#6666ff" stroke="#6666ff" points="1480.45,-133.9 1483.95,-143.9 1487.45,-133.9 1480.45,-133.9"/>
</g>
</g>
</svg>
