<?xml version="1.0" encoding="UTF-8" standalone="no"?>
<!DOCTYPE svg PUBLIC "-//W3C//DTD SVG 1.1//EN"
 "http://www.w3.org/Graphics/SVG/1.1/DTD/svg11.dtd">
<!-- Generated by graphviz version 2.42.3 (0)
 -->
<!-- Title: perl6&#45;type&#45;graph Pages: 1 -->
<svg width="322pt" height="404pt"
 viewBox="0.00 0.00 321.78 404.00" xmlns="http://www.w3.org/2000/svg" xmlns:xlink="http://www.w3.org/1999/xlink">
<g id="graph0" class="graph" transform="scale(1 1) rotate(0) translate(4 400)">
<title>perl6&#45;type&#45;graph</title>
<polygon fill="white" stroke="transparent" points="-4,4 -4,-400 317.78,-400 317.78,4 -4,4"/>
<!-- X::Syntax::Variable::Numeric -->
<g id="node1" class="node">
<title>X::Syntax::Variable::Numeric</title>
<g id="a_node1"><a xlink:href="/type/X::Syntax::Variable::Numeric" xlink:title="X::Syntax::Variable::Numeric">
<ellipse fill="none" stroke="#000000" cx="140.39" cy="-18" rx="140.28" ry="18"/>
<text text-anchor="middle" x="140.39" y="-14.3" font-family="FreeSans" font-size="14.00" fill="#000000">X::Syntax::Variable::Numeric</text>
</a>
</g>
</g>
<!-- Exception -->
<g id="node4" class="node">
<title>Exception</title>
<g id="a_node4"><a xlink:href="/type/Exception" xlink:title="Exception">
<ellipse fill="none" stroke="#000000" cx="163.39" cy="-234" rx="55.49" ry="18"/>
<text text-anchor="middle" x="163.39" y="-230.3" font-family="FreeSans" font-size="14.00" fill="#000000">Exception</text>
</a>
</g>
</g>
<!-- X::Syntax::Variable::Numeric&#45;&gt;Exception -->
<g id="edge1" class="edge">
<title>X::Syntax::Variable::Numeric&#45;&gt;Exception</title>
<path fill="none" stroke="#000000" d="M138.35,-36.15C138.8,-73.34 148.03,-161.63 155.86,-206.23"/>
<polygon fill="#000000" stroke="#000000" points="152.42,-206.88 157.71,-216.06 159.3,-205.59 152.42,-206.88"/>
</g>
<!-- X::Syntax::Variable::Numeric&#45;&gt;Exception -->
<g id="edge2" class="edge">
<title>X::Syntax::Variable::Numeric&#45;&gt;Exception</title>
<path fill="none" stroke="#000000" d="M146.11,-36.15C153.62,-73.17 163.31,-160.82 165.14,-205.61"/>
<polygon fill="#000000" stroke="#000000" points="161.64,-205.87 165.42,-215.77 168.64,-205.67 161.64,-205.87"/>
</g>
<!-- X::Syntax -->
<g id="node6" class="node">
<title>X::Syntax</title>
<g id="a_node6"><a xlink:href="/type/X::Syntax" xlink:title="X::Syntax">
<ellipse fill="none" stroke="#6666ff" cx="231.39" cy="-90" rx="53.89" ry="18"/>
<text text-anchor="middle" x="231.39" y="-86.3" font-family="FreeSans" font-size="14.00" fill="#6666ff">X::Syntax</text>
</a>
</g>
</g>
<!-- X::Syntax::Variable::Numeric&#45;&gt;X::Syntax -->
<g id="edge7" class="edge">
<title>X::Syntax::Variable::Numeric&#45;&gt;X::Syntax</title>
<path fill="none" stroke="#6666ff" d="M162.42,-35.95C174.5,-45.24 189.62,-56.87 202.62,-66.87"/>
<polygon fill="#6666ff" stroke="#6666ff" points="200.75,-69.85 210.81,-73.17 205.02,-64.3 200.75,-69.85"/>
</g>
<!-- Mu -->
<g id="node2" class="node">
<title>Mu</title>
<g id="a_node2"><a xlink:href="/type/Mu" xlink:title="Mu">
<ellipse fill="none" stroke="#000000" cx="163.39" cy="-378" rx="27" ry="18"/>
<text text-anchor="middle" x="163.39" y="-374.3" font-family="FreeSans" font-size="14.00" fill="#000000">Mu</text>
</a>
</g>
</g>
<!-- Any -->
<g id="node3" class="node">
<title>Any</title>
<g id="a_node3"><a xlink:href="/type/Any" xlink:title="Any">
<ellipse fill="none" stroke="#000000" cx="163.39" cy="-306" rx="28.7" ry="18"/>
<text text-anchor="middle" x="163.39" y="-302.3" font-family="FreeSans" font-size="14.00" fill="#000000">Any</text>
</a>
</g>
</g>
<!-- Any&#45;&gt;Mu -->
<g id="edge3" class="edge">
<title>Any&#45;&gt;Mu</title>
<path fill="none" stroke="#000000" d="M163.39,-324.3C163.39,-332.02 163.39,-341.29 163.39,-349.89"/>
<polygon fill="#000000" stroke="#000000" points="159.89,-349.9 163.39,-359.9 166.89,-349.9 159.89,-349.9"/>
</g>
<!-- Exception&#45;&gt;Any -->
<g id="edge4" class="edge">
<title>Exception&#45;&gt;Any</title>
<path fill="none" stroke="#000000" d="M163.39,-252.3C163.39,-260.02 163.39,-269.29 163.39,-277.89"/>
<polygon fill="#000000" stroke="#000000" points="159.89,-277.9 163.39,-287.9 166.89,-277.9 159.89,-277.9"/>
</g>
<!-- X::Comp -->
<g id="node5" class="node">
<title>X::Comp</title>
<g id="a_node5"><a xlink:href="/type/X::Comp" xlink:title="X::Comp">
<ellipse fill="none" stroke="#6666ff" cx="264.39" cy="-162" rx="49.29" ry="18"/>
<text text-anchor="middle" x="264.39" y="-158.3" font-family="FreeSans" font-size="14.00" fill="#6666ff">X::Comp</text>
</a>
</g>
</g>
<!-- X::Comp&#45;&gt;Exception -->
<g id="edge5" class="edge">
<title>X::Comp&#45;&gt;Exception</title>
<path fill="none" stroke="#000000" d="M242.47,-178.19C228.37,-187.96 209.84,-200.8 194.26,-211.6"/>
<polygon fill="#000000" stroke="#000000" points="192.18,-208.78 185.96,-217.36 196.17,-214.54 192.18,-208.78"/>
</g>
<!-- X::Syntax&#45;&gt;Exception -->
<g id="edge6" class="edge">
<title>X::Syntax&#45;&gt;Exception</title>
<path fill="none" stroke="#000000" d="M223.32,-107.85C211.56,-132.4 189.62,-178.23 175.79,-207.09"/>
<polygon fill="#000000" stroke="#000000" points="172.61,-205.64 171.44,-216.18 178.92,-208.67 172.61,-205.64"/>
</g>
<!-- X::Syntax&#45;&gt;X::Comp -->
<g id="edge8" class="edge">
<title>X::Syntax&#45;&gt;X::Comp</title>
<path fill="none" stroke="#6666ff" d="M239.38,-107.95C243.19,-116.03 247.83,-125.88 252.08,-134.89"/>
<polygon fill="#6666ff" stroke="#6666ff" points="249.04,-136.66 256.47,-144.21 255.37,-133.67 249.04,-136.66"/>
</g>
</g>
</svg>
