<?xml version="1.0" encoding="UTF-8" standalone="no"?>
<!DOCTYPE svg PUBLIC "-//W3C//DTD SVG 1.1//EN"
 "http://www.w3.org/Graphics/SVG/1.1/DTD/svg11.dtd">
<!-- Generated by graphviz version 2.42.3 (0)
 -->
<!-- Title: perl6&#45;type&#45;graph Pages: 1 -->
<svg width="1976pt" height="404pt"
 viewBox="0.00 0.00 1976.24 404.00" xmlns="http://www.w3.org/2000/svg" xmlns:xlink="http://www.w3.org/1999/xlink">
<g id="graph0" class="graph" transform="scale(1 1) rotate(0) translate(4 400)">
<title>perl6&#45;type&#45;graph</title>
<polygon fill="white" stroke="transparent" points="-4,4 -4,-400 1972.24,-400 1972.24,4 -4,4"/>
<!-- X::OS -->
<g id="node1" class="node">
<title>X::OS</title>
<g id="a_node1"><a xlink:href="/type/X::OS" xlink:title="X::OS">
<ellipse fill="none" stroke="#6666ff" cx="940.49" cy="-162" rx="36.29" ry="18"/>
<text text-anchor="middle" x="940.49" y="-158.3" font-family="FreeSans" font-size="14.00" fill="#6666ff">X::OS</text>
</a>
</g>
</g>
<!-- Exception -->
<g id="node4" class="node">
<title>Exception</title>
<g id="a_node4"><a xlink:href="/type/Exception" xlink:title="Exception">
<ellipse fill="none" stroke="#000000" cx="1022.49" cy="-234" rx="55.49" ry="18"/>
<text text-anchor="middle" x="1022.49" y="-230.3" font-family="FreeSans" font-size="14.00" fill="#000000">Exception</text>
</a>
</g>
</g>
<!-- X::OS&#45;&gt;Exception -->
<g id="edge1" class="edge">
<title>X::OS&#45;&gt;Exception</title>
<path fill="none" stroke="#000000" d="M957.88,-177.85C968.91,-187.26 983.4,-199.63 995.86,-210.27"/>
<polygon fill="#000000" stroke="#000000" points="993.82,-213.13 1003.7,-216.96 998.37,-207.8 993.82,-213.13"/>
</g>
<!-- Mu -->
<g id="node2" class="node">
<title>Mu</title>
<g id="a_node2"><a xlink:href="/type/Mu" xlink:title="Mu">
<ellipse fill="none" stroke="#000000" cx="1022.49" cy="-378" rx="27" ry="18"/>
<text text-anchor="middle" x="1022.49" y="-374.3" font-family="FreeSans" font-size="14.00" fill="#000000">Mu</text>
</a>
</g>
</g>
<!-- Any -->
<g id="node3" class="node">
<title>Any</title>
<g id="a_node3"><a xlink:href="/type/Any" xlink:title="Any">
<ellipse fill="none" stroke="#000000" cx="1022.49" cy="-306" rx="28.7" ry="18"/>
<text text-anchor="middle" x="1022.49" y="-302.3" font-family="FreeSans" font-size="14.00" fill="#000000">Any</text>
</a>
</g>
</g>
<!-- Any&#45;&gt;Mu -->
<g id="edge2" class="edge">
<title>Any&#45;&gt;Mu</title>
<path fill="none" stroke="#000000" d="M1022.49,-324.3C1022.49,-332.02 1022.49,-341.29 1022.49,-349.89"/>
<polygon fill="#000000" stroke="#000000" points="1018.99,-349.9 1022.49,-359.9 1025.99,-349.9 1018.99,-349.9"/>
</g>
<!-- Exception&#45;&gt;Any -->
<g id="edge3" class="edge">
<title>Exception&#45;&gt;Any</title>
<path fill="none" stroke="#000000" d="M1022.49,-252.3C1022.49,-260.02 1022.49,-269.29 1022.49,-277.89"/>
<polygon fill="#000000" stroke="#000000" points="1018.99,-277.9 1022.49,-287.9 1025.99,-277.9 1018.99,-277.9"/>
</g>
<!-- X::IO -->
<g id="node5" class="node">
<title>X::IO</title>
<g id="a_node5"><a xlink:href="/type/X::IO" xlink:title="X::IO">
<ellipse fill="none" stroke="#6666ff" cx="940.49" cy="-90" rx="33.29" ry="18"/>
<text text-anchor="middle" x="940.49" y="-86.3" font-family="FreeSans" font-size="14.00" fill="#6666ff">X::IO</text>
</a>
</g>
</g>
<!-- X::IO&#45;&gt;X::OS -->
<g id="edge42" class="edge">
<title>X::IO&#45;&gt;X::OS</title>
<path fill="none" stroke="#6666ff" d="M940.49,-108.3C940.49,-116.02 940.49,-125.29 940.49,-133.89"/>
<polygon fill="#6666ff" stroke="#6666ff" points="936.99,-133.9 940.49,-143.9 943.99,-133.9 936.99,-133.9"/>
</g>
<!-- X::IO&#45;&gt;Exception -->
<g id="edge4" class="edge">
<title>X::IO&#45;&gt;Exception</title>
<path fill="none" stroke="#000000" d="M927.24,-106.62C913.96,-122.25 895.49,-144 895.49,-144 895.49,-144 895.49,-180 895.49,-180 895.49,-180 943.24,-199.93 980.19,-215.34"/>
<polygon fill="#000000" stroke="#000000" points="979.21,-218.73 989.79,-219.35 981.91,-212.27 979.21,-218.73"/>
</g>
<!-- X::IO::Chmod -->
<g id="node6" class="node">
<title>X::IO::Chmod</title>
<g id="a_node6"><a xlink:href="/type/X::IO::Chmod" xlink:title="X::IO::Chmod">
<ellipse fill="none" stroke="#000000" cx="71.49" cy="-18" rx="71.49" ry="18"/>
<text text-anchor="middle" x="71.49" y="-14.3" font-family="FreeSans" font-size="14.00" fill="#000000">X::IO::Chmod</text>
</a>
</g>
</g>
<!-- X::IO::Chmod&#45;&gt;Exception -->
<g id="edge5" class="edge">
<title>X::IO::Chmod&#45;&gt;Exception</title>
<path fill="none" stroke="#000000" d="M111.01,-33.01C227.97,-72.18 563.49,-180 563.49,-180 563.49,-180 835.16,-212 960.55,-226.27"/>
<polygon fill="#000000" stroke="#000000" points="960.44,-229.78 970.77,-227.43 961.23,-222.82 960.44,-229.78"/>
</g>
<!-- X::IO::Chmod&#45;&gt;Exception -->
<g id="edge6" class="edge">
<title>X::IO::Chmod&#45;&gt;Exception</title>
<path fill="none" stroke="#000000" d="M116.45,-32.18C241.15,-70.63 581.49,-180 581.49,-180 581.49,-180 840.82,-210.54 961.81,-225.26"/>
<polygon fill="#000000" stroke="#000000" points="961.67,-228.77 972.02,-226.5 962.52,-221.82 961.67,-228.77"/>
</g>
<!-- X::IO::Chmod&#45;&gt;X::IO -->
<g id="edge43" class="edge">
<title>X::IO::Chmod&#45;&gt;X::IO</title>
<path fill="none" stroke="#6666ff" d="M124.62,-30.15C139.89,-33.35 152.49,-36 152.49,-36 152.49,-36 732.74,-75.03 897.4,-86.1"/>
<polygon fill="#6666ff" stroke="#6666ff" points="897.43,-89.61 907.64,-86.79 897.89,-82.63 897.43,-89.61"/>
</g>
<!-- X::IO::Rmdir -->
<g id="node7" class="node">
<title>X::IO::Rmdir</title>
<g id="a_node7"><a xlink:href="/type/X::IO::Rmdir" xlink:title="X::IO::Rmdir">
<ellipse fill="none" stroke="#000000" cx="227.49" cy="-18" rx="66.09" ry="18"/>
<text text-anchor="middle" x="227.49" y="-14.3" font-family="FreeSans" font-size="14.00" fill="#000000">X::IO::Rmdir</text>
</a>
</g>
</g>
<!-- X::IO::Rmdir&#45;&gt;Exception -->
<g id="edge7" class="edge">
<title>X::IO::Rmdir&#45;&gt;Exception</title>
<path fill="none" stroke="#000000" d="M262.88,-33.29C366.89,-72.69 663.49,-180 663.49,-180 663.49,-180 860.18,-209.78 962.46,-224.7"/>
<polygon fill="#000000" stroke="#000000" points="962.25,-228.2 972.65,-226.18 963.26,-221.28 962.25,-228.2"/>
</g>
<!-- X::IO::Rmdir&#45;&gt;Exception -->
<g id="edge8" class="edge">
<title>X::IO::Rmdir&#45;&gt;Exception</title>
<path fill="none" stroke="#000000" d="M268.27,-32.31C379.9,-70.89 681.49,-180 681.49,-180 681.49,-180 867.06,-208.1 964.48,-223.38"/>
<polygon fill="#000000" stroke="#000000" points="964.06,-226.85 974.48,-224.95 965.14,-219.94 964.06,-226.85"/>
</g>
<!-- X::IO::Rmdir&#45;&gt;X::IO -->
<g id="edge44" class="edge">
<title>X::IO::Rmdir&#45;&gt;X::IO</title>
<path fill="none" stroke="#6666ff" d="M276.68,-30.15C290.82,-33.35 302.49,-36 302.49,-36 302.49,-36 755.03,-73.59 897.85,-85.46"/>
<polygon fill="#6666ff" stroke="#6666ff" points="897.72,-88.96 907.98,-86.3 898.3,-81.98 897.72,-88.96"/>
</g>
<!-- X::IO::Rename -->
<g id="node8" class="node">
<title>X::IO::Rename</title>
<g id="a_node8"><a xlink:href="/type/X::IO::Rename" xlink:title="X::IO::Rename">
<ellipse fill="none" stroke="#000000" cx="387.49" cy="-18" rx="76.09" ry="18"/>
<text text-anchor="middle" x="387.49" y="-14.3" font-family="FreeSans" font-size="14.00" fill="#000000">X::IO::Rename</text>
</a>
</g>
</g>
<!-- X::IO::Rename&#45;&gt;Exception -->
<g id="edge9" class="edge">
<title>X::IO::Rename&#45;&gt;Exception</title>
<path fill="none" stroke="#000000" d="M415.2,-34.88C498.63,-75.5 737.49,-180 737.49,-180 737.49,-180 880.18,-208.32 963.97,-223.56"/>
<polygon fill="#000000" stroke="#000000" points="963.42,-227.02 973.88,-225.35 964.66,-220.13 963.42,-227.02"/>
</g>
<!-- X::IO::Rename&#45;&gt;Exception -->
<g id="edge10" class="edge">
<title>X::IO::Rename&#45;&gt;Exception</title>
<path fill="none" stroke="#000000" d="M422.11,-34.15C513.72,-74.23 755.49,-180 755.49,-180 755.49,-180 888.08,-206.32 966.39,-221.86"/>
<polygon fill="#000000" stroke="#000000" points="966.1,-225.37 976.59,-223.89 967.47,-218.51 966.1,-225.37"/>
</g>
<!-- X::IO::Rename&#45;&gt;Exception -->
<g id="edge11" class="edge">
<title>X::IO::Rename&#45;&gt;Exception</title>
<path fill="none" stroke="#000000" d="M428.36,-33.29C528.21,-72.69 773.49,-180 773.49,-180 773.49,-180 896.93,-204.5 970.29,-220.19"/>
<polygon fill="#000000" stroke="#000000" points="969.78,-223.66 980.29,-222.34 971.25,-216.81 969.78,-223.66"/>
</g>
<!-- X::IO::Rename&#45;&gt;X::IO -->
<g id="edge45" class="edge">
<title>X::IO::Rename&#45;&gt;X::IO</title>
<path fill="none" stroke="#6666ff" d="M443.72,-30.24C459.52,-33.41 472.49,-36 472.49,-36 472.49,-36 782.91,-71.15 898.12,-84.2"/>
<polygon fill="#6666ff" stroke="#6666ff" points="898,-87.71 908.33,-85.36 898.78,-80.75 898,-87.71"/>
</g>
<!-- X::IO::Dir -->
<g id="node9" class="node">
<title>X::IO::Dir</title>
<g id="a_node9"><a xlink:href="/type/X::IO::Dir" xlink:title="X::IO::Dir">
<ellipse fill="none" stroke="#000000" cx="533.49" cy="-18" rx="51.99" ry="18"/>
<text text-anchor="middle" x="533.49" y="-14.3" font-family="FreeSans" font-size="14.00" fill="#000000">X::IO::Dir</text>
</a>
</g>
</g>
<!-- X::IO::Dir&#45;&gt;Exception -->
<g id="edge12" class="edge">
<title>X::IO::Dir&#45;&gt;Exception</title>
<path fill="none" stroke="#000000" d="M552.98,-34.73C615.75,-75.24 802.49,-180 802.49,-180 802.49,-180 901.32,-205.93 966.88,-221.51"/>
<polygon fill="#000000" stroke="#000000" points="966.16,-224.94 976.7,-223.83 967.77,-218.13 966.16,-224.94"/>
</g>
<!-- X::IO::Dir&#45;&gt;Exception -->
<g id="edge13" class="edge">
<title>X::IO::Dir&#45;&gt;Exception</title>
<path fill="none" stroke="#000000" d="M559.72,-33.71C630.57,-73.46 820.49,-180 820.49,-180 820.49,-180 911.1,-203.77 970.95,-219.48"/>
<polygon fill="#000000" stroke="#000000" points="970.08,-222.87 980.64,-222.02 971.85,-216.1 970.08,-222.87"/>
</g>
<!-- X::IO::Dir&#45;&gt;Exception -->
<g id="edge14" class="edge">
<title>X::IO::Dir&#45;&gt;Exception</title>
<path fill="none" stroke="#000000" d="M565.18,-32.31C643.99,-70.89 838.49,-180 838.49,-180 838.49,-180 921.67,-201.82 976.52,-217.46"/>
<polygon fill="#000000" stroke="#000000" points="975.83,-220.91 986.41,-220.31 977.76,-214.18 975.83,-220.91"/>
</g>
<!-- X::IO::Dir&#45;&gt;X::IO -->
<g id="edge46" class="edge">
<title>X::IO::Dir&#45;&gt;X::IO</title>
<path fill="none" stroke="#6666ff" d="M572.82,-29.96C584.62,-33.25 594.49,-36 594.49,-36 594.49,-36 806.78,-68.52 898.79,-82.61"/>
<polygon fill="#6666ff" stroke="#6666ff" points="898.46,-86.1 908.87,-84.16 899.52,-79.18 898.46,-86.1"/>
</g>
<!-- X::IO::Cwd -->
<g id="node10" class="node">
<title>X::IO::Cwd</title>
<g id="a_node10"><a xlink:href="/type/X::IO::Cwd" xlink:title="X::IO::Cwd">
<ellipse fill="none" stroke="#000000" cx="661.49" cy="-18" rx="58.49" ry="18"/>
<text text-anchor="middle" x="661.49" y="-14.3" font-family="FreeSans" font-size="14.00" fill="#000000">X::IO::Cwd</text>
</a>
</g>
</g>
<!-- X::IO::Cwd&#45;&gt;Exception -->
<g id="edge15" class="edge">
<title>X::IO::Cwd&#45;&gt;Exception</title>
<path fill="none" stroke="#000000" d="M674.11,-35.62C717.75,-76.76 850.49,-180 850.49,-180 850.49,-180 919.57,-203.77 970.6,-219.48"/>
<polygon fill="#000000" stroke="#000000" points="969.64,-222.84 980.22,-222.4 971.67,-216.14 969.64,-222.84"/>
</g>
<!-- X::IO::Cwd&#45;&gt;Exception -->
<g id="edge16" class="edge">
<title>X::IO::Cwd&#45;&gt;Exception</title>
<path fill="none" stroke="#000000" d="M682.1,-35.03C734.46,-75.75 868.49,-180 868.49,-180 868.49,-180 930.96,-201.5 976.32,-217.11"/>
<polygon fill="#000000" stroke="#000000" points="975.4,-220.49 986,-220.44 977.68,-213.88 975.4,-220.49"/>
</g>
<!-- X::IO::Cwd&#45;&gt;Exception -->
<g id="edge17" class="edge">
<title>X::IO::Cwd&#45;&gt;Exception</title>
<path fill="none" stroke="#000000" d="M689.38,-34.15C750.5,-74.23 886.49,-180 886.49,-180 886.49,-180 943.34,-199.56 983.92,-214.92"/>
<polygon fill="#000000" stroke="#000000" points="982.73,-218.21 993.33,-218.52 985.24,-211.68 982.73,-218.21"/>
</g>
<!-- X::IO::Cwd&#45;&gt;X::IO -->
<g id="edge47" class="edge">
<title>X::IO::Cwd&#45;&gt;X::IO</title>
<path fill="none" stroke="#6666ff" d="M705.06,-30.05C717.86,-33.3 728.49,-36 728.49,-36 728.49,-36 840,-63.88 901.28,-79.2"/>
<polygon fill="#6666ff" stroke="#6666ff" points="900.47,-82.6 911.02,-81.63 902.16,-75.81 900.47,-82.6"/>
</g>
<!-- X::IO::Chdir -->
<g id="node11" class="node">
<title>X::IO::Chdir</title>
<g id="a_node11"><a xlink:href="/type/X::IO::Chdir" xlink:title="X::IO::Chdir">
<ellipse fill="none" stroke="#000000" cx="801.49" cy="-18" rx="63.89" ry="18"/>
<text text-anchor="middle" x="801.49" y="-14.3" font-family="FreeSans" font-size="14.00" fill="#000000">X::IO::Chdir</text>
</a>
</g>
</g>
<!-- X::IO::Chdir&#45;&gt;Exception -->
<g id="edge18" class="edge">
<title>X::IO::Chdir&#45;&gt;Exception</title>
<path fill="none" stroke="#000000" d="M802.23,-36.23C816.34,-77.76 873.49,-180 873.49,-180 873.49,-180 928.85,-202.4 972.54,-218.07"/>
<polygon fill="#000000" stroke="#000000" points="971.63,-221.46 982.22,-221.5 973.96,-214.86 971.63,-221.46"/>
</g>
<!-- X::IO::Chdir&#45;&gt;Exception -->
<g id="edge19" class="edge">
<title>X::IO::Chdir&#45;&gt;Exception</title>
<path fill="none" stroke="#000000" d="M810.96,-35.93C834.06,-77.26 891.49,-180 891.49,-180 891.49,-180 941.46,-200.21 979.67,-215.68"/>
<polygon fill="#000000" stroke="#000000" points="978.52,-218.98 989.1,-219.49 981.14,-212.49 978.52,-218.98"/>
</g>
<!-- X::IO::Chdir&#45;&gt;Exception -->
<g id="edge20" class="edge">
<title>X::IO::Chdir&#45;&gt;Exception</title>
<path fill="none" stroke="#000000" d="M819.31,-35.32C851.5,-76.25 909.49,-180 909.49,-180 909.49,-180 955.24,-198.51 988.95,-213.65"/>
<polygon fill="#000000" stroke="#000000" points="987.54,-216.85 998.09,-217.81 990.44,-210.48 987.54,-216.85"/>
</g>
<!-- X::IO::Chdir&#45;&gt;X::IO -->
<g id="edge48" class="edge">
<title>X::IO::Chdir&#45;&gt;X::IO</title>
<path fill="none" stroke="#6666ff" d="M831.31,-34.02C853.75,-45.32 884.48,-60.79 907.62,-72.45"/>
<polygon fill="#6666ff" stroke="#6666ff" points="906.21,-75.65 916.72,-77.03 909.36,-69.4 906.21,-75.65"/>
</g>
<!-- X::IO::Mkdir -->
<g id="node12" class="node">
<title>X::IO::Mkdir</title>
<g id="a_node12"><a xlink:href="/type/X::IO::Mkdir" xlink:title="X::IO::Mkdir">
<ellipse fill="none" stroke="#000000" cx="947.49" cy="-18" rx="64.19" ry="18"/>
<text text-anchor="middle" x="947.49" y="-14.3" font-family="FreeSans" font-size="14.00" fill="#000000">X::IO::Mkdir</text>
</a>
</g>
</g>
<!-- X::IO::Mkdir&#45;&gt;Exception -->
<g id="edge21" class="edge">
<title>X::IO::Mkdir&#45;&gt;Exception</title>
<path fill="none" stroke="#000000" d="M945.07,-36.06C950.99,-51.55 964.49,-72 964.49,-72 964.49,-72 986.76,-161.61 1005.54,-207.12"/>
<polygon fill="#000000" stroke="#000000" points="1002.38,-208.63 1009.61,-216.38 1008.79,-205.81 1002.38,-208.63"/>
</g>
<!-- X::IO::Mkdir&#45;&gt;Exception -->
<g id="edge22" class="edge">
<title>X::IO::Mkdir&#45;&gt;Exception</title>
<path fill="none" stroke="#000000" d="M958.57,-35.77C968.82,-51.3 982.49,-72 982.49,-72 982.49,-72 1004.36,-159.99 1015.75,-205.88"/>
<polygon fill="#000000" stroke="#000000" points="1012.4,-206.91 1018.21,-215.77 1019.2,-205.22 1012.4,-206.91"/>
</g>
<!-- X::IO::Mkdir&#45;&gt;Exception -->
<g id="edge23" class="edge">
<title>X::IO::Mkdir&#45;&gt;Exception</title>
<path fill="none" stroke="#000000" d="M971.35,-34.9C986.3,-50.51 1000.49,-72 1000.49,-72 1000.49,-72 1022.26,-159.62 1026.46,-205.59"/>
<polygon fill="#000000" stroke="#000000" points="1022.98,-206.01 1027.1,-215.77 1029.96,-205.57 1022.98,-206.01"/>
</g>
<!-- X::IO::Mkdir&#45;&gt;X::IO -->
<g id="edge49" class="edge">
<title>X::IO::Mkdir&#45;&gt;X::IO</title>
<path fill="none" stroke="#6666ff" d="M945.76,-36.3C944.99,-44.02 944.06,-53.29 943.2,-61.89"/>
<polygon fill="#6666ff" stroke="#6666ff" points="939.72,-61.6 942.2,-71.9 946.68,-62.29 939.72,-61.6"/>
</g>
<!-- X::IO::DoesNotExist -->
<g id="node13" class="node">
<title>X::IO::DoesNotExist</title>
<g id="a_node13"><a xlink:href="/type/X::IO::DoesNotExist" xlink:title="X::IO::DoesNotExist">
<ellipse fill="none" stroke="#000000" cx="1128.49" cy="-18" rx="98.58" ry="18"/>
<text text-anchor="middle" x="1128.49" y="-14.3" font-family="FreeSans" font-size="14.00" fill="#000000">X::IO::DoesNotExist</text>
</a>
</g>
</g>
<!-- X::IO::DoesNotExist&#45;&gt;Exception -->
<g id="edge24" class="edge">
<title>X::IO::DoesNotExist&#45;&gt;Exception</title>
<path fill="none" stroke="#000000" d="M1112.49,-35.79C1086.97,-72.81 1042.41,-161.7 1026.39,-206.4"/>
<polygon fill="#000000" stroke="#000000" points="1023.04,-205.4 1023.19,-215.99 1029.68,-207.61 1023.04,-205.4"/>
</g>
<!-- X::IO::DoesNotExist&#45;&gt;Exception -->
<g id="edge25" class="edge">
<title>X::IO::DoesNotExist&#45;&gt;Exception</title>
<path fill="none" stroke="#000000" d="M1120,-36.15C1101.46,-73.57 1057.29,-162.75 1035.34,-207.07"/>
<polygon fill="#000000" stroke="#000000" points="1032.18,-205.55 1030.88,-216.06 1038.46,-208.66 1032.18,-205.55"/>
</g>
<!-- X::IO::DoesNotExist&#45;&gt;Exception -->
<g id="edge26" class="edge">
<title>X::IO::DoesNotExist&#45;&gt;Exception</title>
<path fill="none" stroke="#000000" d="M1127.75,-36.15C1116.26,-73.92 1071.87,-164.38 1043.75,-208.28"/>
<polygon fill="#000000" stroke="#000000" points="1040.81,-206.39 1038.19,-216.65 1046.64,-210.26 1040.81,-206.39"/>
</g>
<!-- X::IO::DoesNotExist&#45;&gt;X::IO -->
<g id="edge50" class="edge">
<title>X::IO::DoesNotExist&#45;&gt;X::IO</title>
<path fill="none" stroke="#6666ff" d="M1087.24,-34.36C1054.27,-46.64 1008.51,-63.68 976.89,-75.45"/>
<polygon fill="#6666ff" stroke="#6666ff" points="975.31,-72.3 967.16,-79.07 977.75,-78.86 975.31,-72.3"/>
</g>
<!-- X::IO::Unlink -->
<g id="node14" class="node">
<title>X::IO::Unlink</title>
<g id="a_node14"><a xlink:href="/type/X::IO::Unlink" xlink:title="X::IO::Unlink">
<ellipse fill="none" stroke="#000000" cx="1312.49" cy="-18" rx="67.69" ry="18"/>
<text text-anchor="middle" x="1312.49" y="-14.3" font-family="FreeSans" font-size="14.00" fill="#000000">X::IO::Unlink</text>
</a>
</g>
</g>
<!-- X::IO::Unlink&#45;&gt;Exception -->
<g id="edge27" class="edge">
<title>X::IO::Unlink&#45;&gt;Exception</title>
<path fill="none" stroke="#000000" d="M1284.23,-34.39C1226.29,-71.51 1097.64,-166.11 1044.91,-209.99"/>
<polygon fill="#000000" stroke="#000000" points="1042.5,-207.45 1037.13,-216.59 1047.02,-212.8 1042.5,-207.45"/>
</g>
<!-- X::IO::Unlink&#45;&gt;Exception -->
<g id="edge28" class="edge">
<title>X::IO::Unlink&#45;&gt;Exception</title>
<path fill="none" stroke="#000000" d="M1290.7,-35.08C1239.22,-73.07 1110.08,-168.37 1051.82,-211.36"/>
<polygon fill="#000000" stroke="#000000" points="1049.72,-208.56 1043.76,-217.31 1053.88,-214.19 1049.72,-208.56"/>
</g>
<!-- X::IO::Unlink&#45;&gt;Exception -->
<g id="edge29" class="edge">
<title>X::IO::Unlink&#45;&gt;Exception</title>
<path fill="none" stroke="#000000" d="M1297.42,-35.79C1252.29,-74.66 1122.37,-170.69 1058.27,-212.73"/>
<polygon fill="#000000" stroke="#000000" points="1056.17,-209.92 1049.68,-218.3 1059.98,-215.8 1056.17,-209.92"/>
</g>
<!-- X::IO::Unlink&#45;&gt;X::IO -->
<g id="edge51" class="edge">
<title>X::IO::Unlink&#45;&gt;X::IO</title>
<path fill="none" stroke="#6666ff" d="M1262.22,-30.24C1248.09,-33.41 1236.49,-36 1236.49,-36 1236.49,-36 1062.78,-67.1 981.51,-81.66"/>
<polygon fill="#6666ff" stroke="#6666ff" points="980.84,-78.22 971.61,-83.43 982.07,-85.11 980.84,-78.22"/>
</g>
<!-- X::IO::Symlink -->
<g id="node15" class="node">
<title>X::IO::Symlink</title>
<g id="a_node15"><a xlink:href="/type/X::IO::Symlink" xlink:title="X::IO::Symlink">
<ellipse fill="none" stroke="#000000" cx="1473.49" cy="-18" rx="75.29" ry="18"/>
<text text-anchor="middle" x="1473.49" y="-14.3" font-family="FreeSans" font-size="14.00" fill="#000000">X::IO::Symlink</text>
</a>
</g>
</g>
<!-- X::IO::Symlink&#45;&gt;Exception -->
<g id="edge30" class="edge">
<title>X::IO::Symlink&#45;&gt;Exception</title>
<path fill="none" stroke="#000000" d="M1435.75,-33.71C1346.58,-73.46 1133.49,-180 1133.49,-180 1133.49,-180 1089.1,-198.24 1056.03,-213.32"/>
<polygon fill="#000000" stroke="#000000" points="1054.23,-210.29 1046.63,-217.67 1057.17,-216.65 1054.23,-210.29"/>
</g>
<!-- X::IO::Symlink&#45;&gt;Exception -->
<g id="edge31" class="edge">
<title>X::IO::Symlink&#45;&gt;Exception</title>
<path fill="none" stroke="#000000" d="M1442.62,-34.44C1362.02,-74.73 1151.49,-180 1151.49,-180 1151.49,-180 1102.29,-200.21 1064.66,-215.68"/>
<polygon fill="#000000" stroke="#000000" points="1063.3,-212.45 1055.38,-219.49 1065.96,-218.93 1063.3,-212.45"/>
</g>
<!-- X::IO::Symlink&#45;&gt;Exception -->
<g id="edge32" class="edge">
<title>X::IO::Symlink&#45;&gt;Exception</title>
<path fill="none" stroke="#000000" d="M1449.8,-35.17C1377.49,-76 1169.49,-180 1169.49,-180 1169.49,-180 1114.98,-202.4 1071.89,-218.07"/>
<polygon fill="#000000" stroke="#000000" points="1070.56,-214.83 1062.33,-221.5 1072.93,-221.42 1070.56,-214.83"/>
</g>
<!-- X::IO::Symlink&#45;&gt;X::IO -->
<g id="edge52" class="edge">
<title>X::IO::Symlink&#45;&gt;X::IO</title>
<path fill="none" stroke="#6666ff" d="M1417.93,-30.24C1402.31,-33.41 1389.49,-36 1389.49,-36 1389.49,-36 1095.04,-70.76 983.04,-83.98"/>
<polygon fill="#6666ff" stroke="#6666ff" points="982.31,-80.54 972.78,-85.19 983.13,-87.49 982.31,-80.54"/>
</g>
<!-- X::IO::Link -->
<g id="node16" class="node">
<title>X::IO::Link</title>
<g id="a_node16"><a xlink:href="/type/X::IO::Link" xlink:title="X::IO::Link">
<ellipse fill="none" stroke="#000000" cx="1624.49" cy="-18" rx="57.69" ry="18"/>
<text text-anchor="middle" x="1624.49" y="-14.3" font-family="FreeSans" font-size="14.00" fill="#000000">X::IO::Link</text>
</a>
</g>
</g>
<!-- X::IO::Link&#45;&gt;Exception -->
<g id="edge33" class="edge">
<title>X::IO::Link&#45;&gt;Exception</title>
<path fill="none" stroke="#000000" d="M1585.6,-31.37C1480.24,-69.07 1200.49,-180 1200.49,-180 1200.49,-180 1121.04,-201.49 1067.95,-217.1"/>
<polygon fill="#000000" stroke="#000000" points="1066.64,-213.84 1058.04,-220.03 1068.63,-220.55 1066.64,-213.84"/>
</g>
<!-- X::IO::Link&#45;&gt;Exception -->
<g id="edge34" class="edge">
<title>X::IO::Link&#45;&gt;Exception</title>
<path fill="none" stroke="#000000" d="M1590.23,-32.59C1492.35,-71.4 1218.49,-180 1218.49,-180 1218.49,-180 1131.42,-203.55 1073.35,-219.25"/>
<polygon fill="#000000" stroke="#000000" points="1072.32,-215.9 1063.58,-221.89 1074.15,-222.66 1072.32,-215.9"/>
</g>
<!-- X::IO::Link&#45;&gt;Exception -->
<g id="edge35" class="edge">
<title>X::IO::Link&#45;&gt;Exception</title>
<path fill="none" stroke="#000000" d="M1595.7,-33.71C1505.16,-73.46 1236.49,-180 1236.49,-180 1236.49,-180 1141.76,-205.62 1077.96,-221.23"/>
<polygon fill="#000000" stroke="#000000" points="1076.9,-217.89 1068.01,-223.65 1078.55,-224.69 1076.9,-217.89"/>
</g>
<!-- X::IO::Link&#45;&gt;X::IO -->
<g id="edge53" class="edge">
<title>X::IO::Link&#45;&gt;X::IO</title>
<path fill="none" stroke="#6666ff" d="M1580.93,-30.05C1568.13,-33.3 1557.49,-36 1557.49,-36 1557.49,-36 1123.68,-73.26 983.57,-85.3"/>
<polygon fill="#6666ff" stroke="#6666ff" points="982.89,-81.84 973.23,-86.19 983.49,-88.82 982.89,-81.84"/>
</g>
<!-- X::IO::Move -->
<g id="node17" class="node">
<title>X::IO::Move</title>
<g id="a_node17"><a xlink:href="/type/X::IO::Move" xlink:title="X::IO::Move">
<ellipse fill="none" stroke="#000000" cx="1763.49" cy="-18" rx="63.09" ry="18"/>
<text text-anchor="middle" x="1763.49" y="-14.3" font-family="FreeSans" font-size="14.00" fill="#000000">X::IO::Move</text>
</a>
</g>
</g>
<!-- X::IO::Move&#45;&gt;Exception -->
<g id="edge36" class="edge">
<title>X::IO::Move&#45;&gt;Exception</title>
<path fill="none" stroke="#000000" d="M1720.19,-31.23C1600.41,-68.81 1276.49,-180 1276.49,-180 1276.49,-180 1150.05,-204.64 1075.29,-220.32"/>
<polygon fill="#000000" stroke="#000000" points="1074.17,-216.98 1065.11,-222.47 1075.61,-223.83 1074.17,-216.98"/>
</g>
<!-- X::IO::Move&#45;&gt;Exception -->
<g id="edge37" class="edge">
<title>X::IO::Move&#45;&gt;Exception</title>
<path fill="none" stroke="#000000" d="M1724.71,-32.31C1612.35,-70.89 1294.49,-180 1294.49,-180 1294.49,-180 1158.15,-206.57 1078.53,-222.08"/>
<polygon fill="#000000" stroke="#000000" points="1077.78,-218.66 1068.63,-224.01 1079.12,-225.53 1077.78,-218.66"/>
</g>
<!-- X::IO::Move&#45;&gt;Exception -->
<g id="edge38" class="edge">
<title>X::IO::Move&#45;&gt;Exception</title>
<path fill="none" stroke="#000000" d="M1730.08,-33.29C1625.09,-72.69 1312.49,-180 1312.49,-180 1312.49,-180 1166.39,-208.47 1081.26,-223.68"/>
<polygon fill="#000000" stroke="#000000" points="1080.42,-220.27 1071.19,-225.46 1081.65,-227.16 1080.42,-220.27"/>
</g>
<!-- X::IO::Move&#45;&gt;X::IO -->
<g id="edge54" class="edge">
<title>X::IO::Move&#45;&gt;X::IO</title>
<path fill="none" stroke="#6666ff" d="M1716.27,-30.15C1702.7,-33.35 1691.49,-36 1691.49,-36 1691.49,-36 1143.27,-74.69 983.62,-85.96"/>
<polygon fill="#6666ff" stroke="#6666ff" points="982.97,-82.49 973.25,-86.69 983.47,-89.48 982.97,-82.49"/>
</g>
<!-- X::IO::Copy -->
<g id="node18" class="node">
<title>X::IO::Copy</title>
<g id="a_node18"><a xlink:href="/type/X::IO::Copy" xlink:title="X::IO::Copy">
<ellipse fill="none" stroke="#000000" cx="1906.49" cy="-18" rx="61.99" ry="18"/>
<text text-anchor="middle" x="1906.49" y="-14.3" font-family="FreeSans" font-size="14.00" fill="#000000">X::IO::Copy</text>
</a>
</g>
</g>
<!-- X::IO::Copy&#45;&gt;Exception -->
<g id="edge39" class="edge">
<title>X::IO::Copy&#45;&gt;Exception</title>
<path fill="none" stroke="#000000" d="M1861.42,-30.45C1730.02,-67.23 1359.49,-180 1359.49,-180 1359.49,-180 1175.64,-207.45 1079.26,-222.84"/>
<polygon fill="#000000" stroke="#000000" points="1078.69,-219.39 1069.37,-224.43 1079.8,-226.3 1078.69,-219.39"/>
</g>
<!-- X::IO::Copy&#45;&gt;Exception -->
<g id="edge40" class="edge">
<title>X::IO::Copy&#45;&gt;Exception</title>
<path fill="none" stroke="#000000" d="M1865.42,-31.5C1741.13,-69.33 1377.49,-180 1377.49,-180 1377.49,-180 1182.99,-209.04 1081.93,-224.13"/>
<polygon fill="#000000" stroke="#000000" points="1081.23,-220.69 1071.85,-225.63 1082.26,-227.62 1081.23,-220.69"/>
</g>
<!-- X::IO::Copy&#45;&gt;Exception -->
<g id="edge41" class="edge">
<title>X::IO::Copy&#45;&gt;Exception</title>
<path fill="none" stroke="#000000" d="M1869.88,-32.59C1752.31,-71.4 1395.49,-180 1395.49,-180 1395.49,-180 1189.6,-210.74 1083.46,-225.4"/>
<polygon fill="#000000" stroke="#000000" points="1082.95,-221.94 1073.52,-226.76 1083.9,-228.87 1082.95,-221.94"/>
</g>
<!-- X::IO::Copy&#45;&gt;X::IO -->
<g id="edge55" class="edge">
<title>X::IO::Copy&#45;&gt;X::IO</title>
<path fill="none" stroke="#6666ff" d="M1860.33,-30.05C1846.77,-33.3 1835.49,-36 1835.49,-36 1835.49,-36 1161.98,-75.88 983.48,-86.45"/>
<polygon fill="#6666ff" stroke="#6666ff" points="983.18,-82.97 973.41,-87.05 983.6,-89.95 983.18,-82.97"/>
</g>
</g>
</svg>
