<?xml version="1.0" encoding="UTF-8" standalone="no"?>
<!DOCTYPE svg PUBLIC "-//W3C//DTD SVG 1.1//EN"
 "http://www.w3.org/Graphics/SVG/1.1/DTD/svg11.dtd">
<!-- Generated by graphviz version 2.42.3 (0)
 -->
<!-- Title: perl6&#45;type&#45;graph Pages: 1 -->
<svg width="209pt" height="332pt"
 viewBox="0.00 0.00 209.48 332.00" xmlns="http://www.w3.org/2000/svg" xmlns:xlink="http://www.w3.org/1999/xlink">
<g id="graph0" class="graph" transform="scale(1 1) rotate(0) translate(4 328)">
<title>perl6&#45;type&#45;graph</title>
<polygon fill="white" stroke="transparent" points="-4,4 -4,-328 205.48,-328 205.48,4 -4,4"/>
<!-- X::Parameter::Twigil -->
<g id="node1" class="node">
<title>X::Parameter::Twigil</title>
<g id="a_node1"><a xlink:href="/type/X::Parameter::Twigil" xlink:title="X::Parameter::Twigil">
<ellipse fill="none" stroke="#000000" cx="100.74" cy="-18" rx="100.98" ry="18"/>
<text text-anchor="middle" x="100.74" y="-14.3" font-family="FreeSans" font-size="14.00" fill="#000000">X::Parameter::Twigil</text>
</a>
</g>
</g>
<!-- Exception -->
<g id="node4" class="node">
<title>Exception</title>
<g id="a_node4"><a xlink:href="/type/Exception" xlink:title="Exception">
<ellipse fill="none" stroke="#000000" cx="100.74" cy="-162" rx="55.49" ry="18"/>
<text text-anchor="middle" x="100.74" y="-158.3" font-family="FreeSans" font-size="14.00" fill="#000000">Exception</text>
</a>
</g>
</g>
<!-- X::Parameter::Twigil&#45;&gt;Exception -->
<g id="edge1" class="edge">
<title>X::Parameter::Twigil&#45;&gt;Exception</title>
<path fill="none" stroke="#000000" d="M94.62,-36.06C89.07,-51.55 81.74,-72 81.74,-72 81.74,-72 81.74,-108 81.74,-108 81.74,-108 86.49,-121.24 91.23,-134.48"/>
<polygon fill="#000000" stroke="#000000" points="87.96,-135.71 94.62,-143.94 94.54,-133.34 87.96,-135.71"/>
</g>
<!-- X::Comp -->
<g id="node5" class="node">
<title>X::Comp</title>
<g id="a_node5"><a xlink:href="/type/X::Comp" xlink:title="X::Comp">
<ellipse fill="none" stroke="#6666ff" cx="139.74" cy="-90" rx="49.29" ry="18"/>
<text text-anchor="middle" x="139.74" y="-86.3" font-family="FreeSans" font-size="14.00" fill="#6666ff">X::Comp</text>
</a>
</g>
</g>
<!-- X::Parameter::Twigil&#45;&gt;X::Comp -->
<g id="edge5" class="edge">
<title>X::Parameter::Twigil&#45;&gt;X::Comp</title>
<path fill="none" stroke="#6666ff" d="M110.18,-35.95C114.78,-44.2 120.41,-54.3 125.51,-63.46"/>
<polygon fill="#6666ff" stroke="#6666ff" points="122.46,-65.18 130.39,-72.21 128.58,-61.77 122.46,-65.18"/>
</g>
<!-- Mu -->
<g id="node2" class="node">
<title>Mu</title>
<g id="a_node2"><a xlink:href="/type/Mu" xlink:title="Mu">
<ellipse fill="none" stroke="#000000" cx="100.74" cy="-306" rx="27" ry="18"/>
<text text-anchor="middle" x="100.74" y="-302.3" font-family="FreeSans" font-size="14.00" fill="#000000">Mu</text>
</a>
</g>
</g>
<!-- Any -->
<g id="node3" class="node">
<title>Any</title>
<g id="a_node3"><a xlink:href="/type/Any" xlink:title="Any">
<ellipse fill="none" stroke="#000000" cx="100.74" cy="-234" rx="28.7" ry="18"/>
<text text-anchor="middle" x="100.74" y="-230.3" font-family="FreeSans" font-size="14.00" fill="#000000">Any</text>
</a>
</g>
</g>
<!-- Any&#45;&gt;Mu -->
<g id="edge2" class="edge">
<title>Any&#45;&gt;Mu</title>
<path fill="none" stroke="#000000" d="M100.74,-252.3C100.74,-260.02 100.74,-269.29 100.74,-277.89"/>
<polygon fill="#000000" stroke="#000000" points="97.24,-277.9 100.74,-287.9 104.24,-277.9 97.24,-277.9"/>
</g>
<!-- Exception&#45;&gt;Any -->
<g id="edge3" class="edge">
<title>Exception&#45;&gt;Any</title>
<path fill="none" stroke="#000000" d="M100.74,-180.3C100.74,-188.02 100.74,-197.29 100.74,-205.89"/>
<polygon fill="#000000" stroke="#000000" points="97.24,-205.9 100.74,-215.9 104.24,-205.9 97.24,-205.9"/>
</g>
<!-- X::Comp&#45;&gt;Exception -->
<g id="edge4" class="edge">
<title>X::Comp&#45;&gt;Exception</title>
<path fill="none" stroke="#000000" d="M130.3,-107.95C125.7,-116.2 120.07,-126.3 114.97,-135.46"/>
<polygon fill="#000000" stroke="#000000" points="111.9,-133.77 110.09,-144.21 118.02,-137.18 111.9,-133.77"/>
</g>
</g>
</svg>
