<?xml version="1.0" encoding="UTF-8" standalone="no"?>
<!DOCTYPE svg PUBLIC "-//W3C//DTD SVG 1.1//EN"
 "http://www.w3.org/Graphics/SVG/1.1/DTD/svg11.dtd">
<!-- Generated by graphviz version 2.42.3 (0)
 -->
<!-- Title: perl6&#45;type&#45;graph Pages: 1 -->
<svg width="324pt" height="404pt"
 viewBox="0.00 0.00 323.64 404.00" xmlns="http://www.w3.org/2000/svg" xmlns:xlink="http://www.w3.org/1999/xlink">
<g id="graph0" class="graph" transform="scale(1 1) rotate(0) translate(4 400)">
<title>perl6&#45;type&#45;graph</title>
<polygon fill="white" stroke="transparent" points="-4,4 -4,-400 319.64,-400 319.64,4 -4,4"/>
<!-- Map -->
<g id="node1" class="node">
<title>Map</title>
<g id="a_node1"><a xlink:href="/type/Map" xlink:title="Map">
<ellipse fill="none" stroke="#000000" cx="128.89" cy="-162" rx="29.8" ry="18"/>
<text text-anchor="middle" x="128.89" y="-158.3" font-family="FreeSans" font-size="14.00" fill="#000000">Map</text>
</a>
</g>
</g>
<!-- Cool -->
<g id="node4" class="node">
<title>Cool</title>
<g id="a_node4"><a xlink:href="/type/Cool" xlink:title="Cool">
<ellipse fill="none" stroke="#000000" cx="34.89" cy="-234" rx="30.59" ry="18"/>
<text text-anchor="middle" x="34.89" y="-230.3" font-family="FreeSans" font-size="14.00" fill="#000000">Cool</text>
</a>
</g>
</g>
<!-- Map&#45;&gt;Cool -->
<g id="edge1" class="edge">
<title>Map&#45;&gt;Cool</title>
<path fill="none" stroke="#000000" d="M110.77,-176.5C96.82,-186.89 77.32,-201.41 61.58,-213.13"/>
<polygon fill="#000000" stroke="#000000" points="59.21,-210.53 53.28,-219.31 63.39,-216.14 59.21,-210.53"/>
</g>
<!-- Iterable -->
<g id="node5" class="node">
<title>Iterable</title>
<g id="a_node5"><a xlink:href="/type/Iterable" xlink:title="Iterable">
<ellipse fill="none" stroke="#6666ff" cx="128.89" cy="-234" rx="45.49" ry="18"/>
<text text-anchor="middle" x="128.89" y="-230.3" font-family="FreeSans" font-size="14.00" fill="#6666ff">Iterable</text>
</a>
</g>
</g>
<!-- Map&#45;&gt;Iterable -->
<g id="edge7" class="edge">
<title>Map&#45;&gt;Iterable</title>
<path fill="none" stroke="#6666ff" d="M128.89,-180.3C128.89,-188.02 128.89,-197.29 128.89,-205.89"/>
<polygon fill="#6666ff" stroke="#6666ff" points="125.39,-205.9 128.89,-215.9 132.39,-205.9 125.39,-205.9"/>
</g>
<!-- Associative -->
<g id="node6" class="node">
<title>Associative</title>
<g id="a_node6"><a xlink:href="/type/Associative" xlink:title="Associative">
<ellipse fill="none" stroke="#6666ff" cx="253.89" cy="-234" rx="61.99" ry="18"/>
<text text-anchor="middle" x="253.89" y="-230.3" font-family="FreeSans" font-size="14.00" fill="#6666ff">Associative</text>
</a>
</g>
</g>
<!-- Map&#45;&gt;Associative -->
<g id="edge8" class="edge">
<title>Map&#45;&gt;Associative</title>
<path fill="none" stroke="#6666ff" d="M150.1,-174.87C168.5,-185.18 195.56,-200.33 217.43,-212.58"/>
<polygon fill="#6666ff" stroke="#6666ff" points="216.01,-215.8 226.45,-217.63 219.44,-209.69 216.01,-215.8"/>
</g>
<!-- Mu -->
<g id="node2" class="node">
<title>Mu</title>
<g id="a_node2"><a xlink:href="/type/Mu" xlink:title="Mu">
<ellipse fill="none" stroke="#000000" cx="34.89" cy="-378" rx="27" ry="18"/>
<text text-anchor="middle" x="34.89" y="-374.3" font-family="FreeSans" font-size="14.00" fill="#000000">Mu</text>
</a>
</g>
</g>
<!-- Any -->
<g id="node3" class="node">
<title>Any</title>
<g id="a_node3"><a xlink:href="/type/Any" xlink:title="Any">
<ellipse fill="none" stroke="#000000" cx="34.89" cy="-306" rx="28.7" ry="18"/>
<text text-anchor="middle" x="34.89" y="-302.3" font-family="FreeSans" font-size="14.00" fill="#000000">Any</text>
</a>
</g>
</g>
<!-- Any&#45;&gt;Mu -->
<g id="edge2" class="edge">
<title>Any&#45;&gt;Mu</title>
<path fill="none" stroke="#000000" d="M34.89,-324.3C34.89,-332.02 34.89,-341.29 34.89,-349.89"/>
<polygon fill="#000000" stroke="#000000" points="31.39,-349.9 34.89,-359.9 38.39,-349.9 31.39,-349.9"/>
</g>
<!-- Cool&#45;&gt;Any -->
<g id="edge3" class="edge">
<title>Cool&#45;&gt;Any</title>
<path fill="none" stroke="#000000" d="M34.89,-252.3C34.89,-260.02 34.89,-269.29 34.89,-277.89"/>
<polygon fill="#000000" stroke="#000000" points="31.39,-277.9 34.89,-287.9 38.39,-277.9 31.39,-277.9"/>
</g>
<!-- PseudoStash -->
<g id="node7" class="node">
<title>PseudoStash</title>
<g id="a_node7"><a xlink:href="/type/PseudoStash" xlink:title="PseudoStash">
<ellipse fill="none" stroke="#000000" cx="68.89" cy="-90" rx="68.79" ry="18"/>
<text text-anchor="middle" x="68.89" y="-86.3" font-family="FreeSans" font-size="14.00" fill="#000000">PseudoStash</text>
</a>
</g>
</g>
<!-- PseudoStash&#45;&gt;Map -->
<g id="edge4" class="edge">
<title>PseudoStash&#45;&gt;Map</title>
<path fill="none" stroke="#000000" d="M83.42,-107.95C91.11,-116.92 100.68,-128.08 109.05,-137.85"/>
<polygon fill="#000000" stroke="#000000" points="106.57,-140.33 115.73,-145.64 111.88,-135.77 106.57,-140.33"/>
</g>
<!-- Hash -->
<g id="node8" class="node">
<title>Hash</title>
<g id="a_node8"><a xlink:href="/type/Hash" xlink:title="Hash">
<ellipse fill="none" stroke="#000000" cx="189.89" cy="-90" rx="33.6" ry="18"/>
<text text-anchor="middle" x="189.89" y="-86.3" font-family="FreeSans" font-size="14.00" fill="#000000">Hash</text>
</a>
</g>
</g>
<!-- Hash&#45;&gt;Map -->
<g id="edge5" class="edge">
<title>Hash&#45;&gt;Map</title>
<path fill="none" stroke="#000000" d="M176.36,-106.54C168.38,-115.69 158.13,-127.45 149.2,-137.69"/>
<polygon fill="#000000" stroke="#000000" points="146.33,-135.67 142.39,-145.51 151.6,-140.27 146.33,-135.67"/>
</g>
<!-- Stash -->
<g id="node9" class="node">
<title>Stash</title>
<g id="a_node9"><a xlink:href="/type/Stash" xlink:title="Stash">
<ellipse fill="none" stroke="#000000" cx="189.89" cy="-18" rx="36.29" ry="18"/>
<text text-anchor="middle" x="189.89" y="-14.3" font-family="FreeSans" font-size="14.00" fill="#000000">Stash</text>
</a>
</g>
</g>
<!-- Stash&#45;&gt;Hash -->
<g id="edge6" class="edge">
<title>Stash&#45;&gt;Hash</title>
<path fill="none" stroke="#000000" d="M189.89,-36.3C189.89,-44.02 189.89,-53.29 189.89,-61.89"/>
<polygon fill="#000000" stroke="#000000" points="186.39,-61.9 189.89,-71.9 193.39,-61.9 186.39,-61.9"/>
</g>
</g>
</svg>
