<?xml version="1.0" encoding="UTF-8" standalone="no"?>
<!DOCTYPE svg PUBLIC "-//W3C//DTD SVG 1.1//EN"
 "http://www.w3.org/Graphics/SVG/1.1/DTD/svg11.dtd">
<!-- Generated by graphviz version 2.42.3 (0)
 -->
<!-- Title: perl6&#45;type&#45;graph Pages: 1 -->
<svg width="1879pt" height="260pt"
 viewBox="0.00 0.00 1879.14 260.00" xmlns="http://www.w3.org/2000/svg" xmlns:xlink="http://www.w3.org/1999/xlink">
<g id="graph0" class="graph" transform="scale(1 1) rotate(0) translate(4 256)">
<title>perl6&#45;type&#45;graph</title>
<polygon fill="white" stroke="transparent" points="-4,4 -4,-256 1875.14,-256 1875.14,4 -4,4"/>
<!-- Pod::Block -->
<g id="node1" class="node">
<title>Pod::Block</title>
<g id="a_node1"><a xlink:href="/type/Pod::Block" xlink:title="Pod::Block">
<ellipse fill="none" stroke="#000000" cx="886.95" cy="-90" rx="57.69" ry="18"/>
<text text-anchor="middle" x="886.95" y="-86.3" font-family="FreeSans" font-size="14.00" fill="#000000">Pod::Block</text>
</a>
</g>
</g>
<!-- Any -->
<g id="node3" class="node">
<title>Any</title>
<g id="a_node3"><a xlink:href="/type/Any" xlink:title="Any">
<ellipse fill="none" stroke="#000000" cx="886.95" cy="-162" rx="28.7" ry="18"/>
<text text-anchor="middle" x="886.95" y="-158.3" font-family="FreeSans" font-size="14.00" fill="#000000">Any</text>
</a>
</g>
</g>
<!-- Pod::Block&#45;&gt;Any -->
<g id="edge1" class="edge">
<title>Pod::Block&#45;&gt;Any</title>
<path fill="none" stroke="#000000" d="M886.95,-108.3C886.95,-116.02 886.95,-125.29 886.95,-133.89"/>
<polygon fill="#000000" stroke="#000000" points="883.45,-133.9 886.95,-143.9 890.45,-133.9 883.45,-133.9"/>
</g>
<!-- Mu -->
<g id="node2" class="node">
<title>Mu</title>
<g id="a_node2"><a xlink:href="/type/Mu" xlink:title="Mu">
<ellipse fill="none" stroke="#000000" cx="886.95" cy="-234" rx="27" ry="18"/>
<text text-anchor="middle" x="886.95" y="-230.3" font-family="FreeSans" font-size="14.00" fill="#000000">Mu</text>
</a>
</g>
</g>
<!-- Any&#45;&gt;Mu -->
<g id="edge2" class="edge">
<title>Any&#45;&gt;Mu</title>
<path fill="none" stroke="#000000" d="M886.95,-180.3C886.95,-188.02 886.95,-197.29 886.95,-205.89"/>
<polygon fill="#000000" stroke="#000000" points="883.45,-205.9 886.95,-215.9 890.45,-205.9 883.45,-205.9"/>
</g>
<!-- Pod::Item -->
<g id="node4" class="node">
<title>Pod::Item</title>
<g id="a_node4"><a xlink:href="/type/Pod::Item" xlink:title="Pod::Item">
<ellipse fill="none" stroke="#000000" cx="53.95" cy="-18" rx="53.89" ry="18"/>
<text text-anchor="middle" x="53.95" y="-14.3" font-family="FreeSans" font-size="14.00" fill="#000000">Pod::Item</text>
</a>
</g>
</g>
<!-- Pod::Item&#45;&gt;Pod::Block -->
<g id="edge3" class="edge">
<title>Pod::Item&#45;&gt;Pod::Block</title>
<path fill="none" stroke="#000000" d="M94.56,-29.96C106.75,-33.25 116.95,-36 116.95,-36 116.95,-36 634.02,-71.59 820.72,-84.44"/>
<polygon fill="#000000" stroke="#000000" points="820.73,-87.95 830.95,-85.15 821.21,-80.97 820.73,-87.95"/>
</g>
<!-- Pod::Block::Code -->
<g id="node5" class="node">
<title>Pod::Block::Code</title>
<g id="a_node5"><a xlink:href="/type/Pod::Block::Code" xlink:title="Pod::Block::Code">
<ellipse fill="none" stroke="#000000" cx="211.95" cy="-18" rx="86.38" ry="18"/>
<text text-anchor="middle" x="211.95" y="-14.3" font-family="FreeSans" font-size="14.00" fill="#000000">Pod::Block::Code</text>
</a>
</g>
</g>
<!-- Pod::Block::Code&#45;&gt;Pod::Block -->
<g id="edge4" class="edge">
<title>Pod::Block::Code&#45;&gt;Pod::Block</title>
<path fill="none" stroke="#000000" d="M275.44,-30.24C293.3,-33.41 307.95,-36 307.95,-36 307.95,-36 671.01,-69.23 822.14,-83.07"/>
<polygon fill="#000000" stroke="#000000" points="821.94,-86.56 832.21,-83.99 822.57,-79.59 821.94,-86.56"/>
</g>
<!-- Pod::Block::Table -->
<g id="node6" class="node">
<title>Pod::Block::Table</title>
<g id="a_node6"><a xlink:href="/type/Pod::Block::Table" xlink:title="Pod::Block::Table">
<ellipse fill="none" stroke="#000000" cx="403.95" cy="-18" rx="87.18" ry="18"/>
<text text-anchor="middle" x="403.95" y="-14.3" font-family="FreeSans" font-size="14.00" fill="#000000">Pod::Block::Table</text>
</a>
</g>
</g>
<!-- Pod::Block::Table&#45;&gt;Pod::Block -->
<g id="edge5" class="edge">
<title>Pod::Block::Table&#45;&gt;Pod::Block</title>
<path fill="none" stroke="#000000" d="M467.71,-30.29C485.44,-33.43 499.95,-36 499.95,-36 499.95,-36 716,-65.59 825.24,-80.55"/>
<polygon fill="#000000" stroke="#000000" points="824.77,-84.02 835.15,-81.91 825.72,-77.08 824.77,-84.02"/>
</g>
<!-- Pod::Block::Comment -->
<g id="node7" class="node">
<title>Pod::Block::Comment</title>
<g id="a_node7"><a xlink:href="/type/Pod::Block::Comment" xlink:title="Pod::Block::Comment">
<ellipse fill="none" stroke="#000000" cx="615.95" cy="-18" rx="107.48" ry="18"/>
<text text-anchor="middle" x="615.95" y="-14.3" font-family="FreeSans" font-size="14.00" fill="#000000">Pod::Block::Comment</text>
</a>
</g>
</g>
<!-- Pod::Block::Comment&#45;&gt;Pod::Block -->
<g id="edge6" class="edge">
<title>Pod::Block::Comment&#45;&gt;Pod::Block</title>
<path fill="none" stroke="#000000" d="M671.77,-33.42C719.26,-45.69 787.01,-63.19 833.73,-75.26"/>
<polygon fill="#000000" stroke="#000000" points="833.11,-78.71 843.67,-77.82 834.86,-71.93 833.11,-78.71"/>
</g>
<!-- Pod::Defn -->
<g id="node8" class="node">
<title>Pod::Defn</title>
<g id="a_node8"><a xlink:href="/type/Pod::Defn" xlink:title="Pod::Defn">
<ellipse fill="none" stroke="#000000" cx="795.95" cy="-18" rx="54.69" ry="18"/>
<text text-anchor="middle" x="795.95" y="-14.3" font-family="FreeSans" font-size="14.00" fill="#000000">Pod::Defn</text>
</a>
</g>
</g>
<!-- Pod::Defn&#45;&gt;Pod::Block -->
<g id="edge7" class="edge">
<title>Pod::Defn&#45;&gt;Pod::Block</title>
<path fill="none" stroke="#000000" d="M816.59,-34.88C828.84,-44.3 844.55,-56.39 858.02,-66.75"/>
<polygon fill="#000000" stroke="#000000" points="856,-69.61 866.06,-72.94 860.27,-64.07 856,-69.61"/>
</g>
<!-- Pod::Block::Declarator -->
<g id="node9" class="node">
<title>Pod::Block::Declarator</title>
<g id="a_node9"><a xlink:href="/type/Pod::Block::Declarator" xlink:title="Pod::Block::Declarator">
<ellipse fill="none" stroke="#000000" cx="978.95" cy="-18" rx="110.48" ry="18"/>
<text text-anchor="middle" x="978.95" y="-14.3" font-family="FreeSans" font-size="14.00" fill="#000000">Pod::Block::Declarator</text>
</a>
</g>
</g>
<!-- Pod::Block::Declarator&#45;&gt;Pod::Block -->
<g id="edge8" class="edge">
<title>Pod::Block::Declarator&#45;&gt;Pod::Block</title>
<path fill="none" stroke="#000000" d="M956.67,-35.95C944.46,-45.24 929.17,-56.87 916.03,-66.87"/>
<polygon fill="#000000" stroke="#000000" points="913.59,-64.33 907.75,-73.17 917.83,-69.9 913.59,-64.33"/>
</g>
<!-- Pod::FormattingCode -->
<g id="node10" class="node">
<title>Pod::FormattingCode</title>
<g id="a_node10"><a xlink:href="/type/Pod::FormattingCode" xlink:title="Pod::FormattingCode">
<ellipse fill="none" stroke="#000000" cx="1212.95" cy="-18" rx="105.08" ry="18"/>
<text text-anchor="middle" x="1212.95" y="-14.3" font-family="FreeSans" font-size="14.00" fill="#000000">Pod::FormattingCode</text>
</a>
</g>
</g>
<!-- Pod::FormattingCode&#45;&gt;Pod::Block -->
<g id="edge9" class="edge">
<title>Pod::FormattingCode&#45;&gt;Pod::Block</title>
<path fill="none" stroke="#000000" d="M1150.09,-32.5C1090.22,-45.35 1000.92,-64.53 943.31,-76.9"/>
<polygon fill="#000000" stroke="#000000" points="942.33,-73.53 933.29,-79.05 943.8,-80.37 942.33,-73.53"/>
</g>
<!-- Pod::Heading -->
<g id="node11" class="node">
<title>Pod::Heading</title>
<g id="a_node11"><a xlink:href="/type/Pod::Heading" xlink:title="Pod::Heading">
<ellipse fill="none" stroke="#000000" cx="1406.95" cy="-18" rx="70.69" ry="18"/>
<text text-anchor="middle" x="1406.95" y="-14.3" font-family="FreeSans" font-size="14.00" fill="#000000">Pod::Heading</text>
</a>
</g>
</g>
<!-- Pod::Heading&#45;&gt;Pod::Block -->
<g id="edge10" class="edge">
<title>Pod::Heading&#45;&gt;Pod::Block</title>
<path fill="none" stroke="#000000" d="M1354.48,-30.15C1339.4,-33.35 1326.95,-36 1326.95,-36 1326.95,-36 1071.6,-66.76 949.95,-81.41"/>
<polygon fill="#000000" stroke="#000000" points="949.53,-77.94 940.02,-82.61 950.37,-84.89 949.53,-77.94"/>
</g>
<!-- Pod::Block::Named -->
<g id="node12" class="node">
<title>Pod::Block::Named</title>
<g id="a_node12"><a xlink:href="/type/Pod::Block::Named" xlink:title="Pod::Block::Named">
<ellipse fill="none" stroke="#000000" cx="1590.95" cy="-18" rx="95.58" ry="18"/>
<text text-anchor="middle" x="1590.95" y="-14.3" font-family="FreeSans" font-size="14.00" fill="#000000">Pod::Block::Named</text>
</a>
</g>
</g>
<!-- Pod::Block::Named&#45;&gt;Pod::Block -->
<g id="edge11" class="edge">
<title>Pod::Block::Named&#45;&gt;Pod::Block</title>
<path fill="none" stroke="#000000" d="M1521.29,-30.39C1502.34,-33.48 1486.95,-36 1486.95,-36 1486.95,-36 1107.53,-69.51 952.13,-83.24"/>
<polygon fill="#000000" stroke="#000000" points="951.44,-79.79 941.78,-84.16 952.05,-86.76 951.44,-79.79"/>
</g>
<!-- Pod::Block::Para -->
<g id="node13" class="node">
<title>Pod::Block::Para</title>
<g id="a_node13"><a xlink:href="/type/Pod::Block::Para" xlink:title="Pod::Block::Para">
<ellipse fill="none" stroke="#000000" cx="1787.95" cy="-18" rx="83.39" ry="18"/>
<text text-anchor="middle" x="1787.95" y="-14.3" font-family="FreeSans" font-size="14.00" fill="#000000">Pod::Block::Para</text>
</a>
</g>
</g>
<!-- Pod::Block::Para&#45;&gt;Pod::Block -->
<g id="edge12" class="edge">
<title>Pod::Block::Para&#45;&gt;Pod::Block</title>
<path fill="none" stroke="#000000" d="M1726.84,-30.29C1709.84,-33.43 1695.95,-36 1695.95,-36 1695.95,-36 1145.85,-72.04 952.88,-84.68"/>
<polygon fill="#000000" stroke="#000000" points="952.62,-81.19 942.87,-85.34 953.08,-88.17 952.62,-81.19"/>
</g>
</g>
</svg>
