<?xml version="1.0" encoding="UTF-8" standalone="no"?>
<!DOCTYPE svg PUBLIC "-//W3C//DTD SVG 1.1//EN"
 "http://www.w3.org/Graphics/SVG/1.1/DTD/svg11.dtd">
<!-- Generated by graphviz version 2.42.3 (0)
 -->
<!-- Title: perl6&#45;type&#45;graph Pages: 1 -->
<svg width="389pt" height="404pt"
 viewBox="0.00 0.00 388.87 404.00" xmlns="http://www.w3.org/2000/svg" xmlns:xlink="http://www.w3.org/1999/xlink">
<g id="graph0" class="graph" transform="scale(1 1) rotate(0) translate(4 400)">
<title>perl6&#45;type&#45;graph</title>
<polygon fill="white" stroke="transparent" points="-4,4 -4,-400 384.87,-400 384.87,4 -4,4"/>
<!-- X::Syntax::AddCategorical::TooFewParts -->
<g id="node1" class="node">
<title>X::Syntax::AddCategorical::TooFewParts</title>
<g id="a_node1"><a xlink:href="/type/X::Syntax::AddCategorical::TooFewParts" xlink:title="X::Syntax::AddCategorical::TooFewParts">
<ellipse fill="none" stroke="#000000" cx="190.43" cy="-18" rx="190.37" ry="18"/>
<text text-anchor="middle" x="190.43" y="-14.3" font-family="FreeSans" font-size="14.00" fill="#000000">X::Syntax::AddCategorical::TooFewParts</text>
</a>
</g>
</g>
<!-- Exception -->
<g id="node4" class="node">
<title>Exception</title>
<g id="a_node4"><a xlink:href="/type/Exception" xlink:title="Exception">
<ellipse fill="none" stroke="#000000" cx="213.43" cy="-234" rx="55.49" ry="18"/>
<text text-anchor="middle" x="213.43" y="-230.3" font-family="FreeSans" font-size="14.00" fill="#000000">Exception</text>
</a>
</g>
</g>
<!-- X::Syntax::AddCategorical::TooFewParts&#45;&gt;Exception -->
<g id="edge1" class="edge">
<title>X::Syntax::AddCategorical::TooFewParts&#45;&gt;Exception</title>
<path fill="none" stroke="#000000" d="M188.4,-36.15C188.84,-73.34 198.07,-161.63 205.91,-206.23"/>
<polygon fill="#000000" stroke="#000000" points="202.47,-206.88 207.76,-216.06 209.35,-205.59 202.47,-206.88"/>
</g>
<!-- X::Syntax::AddCategorical::TooFewParts&#45;&gt;Exception -->
<g id="edge2" class="edge">
<title>X::Syntax::AddCategorical::TooFewParts&#45;&gt;Exception</title>
<path fill="none" stroke="#000000" d="M196.15,-36.15C203.67,-73.17 213.36,-160.82 215.18,-205.61"/>
<polygon fill="#000000" stroke="#000000" points="211.69,-205.87 215.47,-215.77 218.68,-205.67 211.69,-205.87"/>
</g>
<!-- X::Syntax -->
<g id="node6" class="node">
<title>X::Syntax</title>
<g id="a_node6"><a xlink:href="/type/X::Syntax" xlink:title="X::Syntax">
<ellipse fill="none" stroke="#6666ff" cx="281.43" cy="-90" rx="53.89" ry="18"/>
<text text-anchor="middle" x="281.43" y="-86.3" font-family="FreeSans" font-size="14.00" fill="#6666ff">X::Syntax</text>
</a>
</g>
</g>
<!-- X::Syntax::AddCategorical::TooFewParts&#45;&gt;X::Syntax -->
<g id="edge7" class="edge">
<title>X::Syntax::AddCategorical::TooFewParts&#45;&gt;X::Syntax</title>
<path fill="none" stroke="#6666ff" d="M212.46,-35.95C224.54,-45.24 239.67,-56.87 252.67,-66.87"/>
<polygon fill="#6666ff" stroke="#6666ff" points="250.79,-69.85 260.85,-73.17 255.06,-64.3 250.79,-69.85"/>
</g>
<!-- Mu -->
<g id="node2" class="node">
<title>Mu</title>
<g id="a_node2"><a xlink:href="/type/Mu" xlink:title="Mu">
<ellipse fill="none" stroke="#000000" cx="213.43" cy="-378" rx="27" ry="18"/>
<text text-anchor="middle" x="213.43" y="-374.3" font-family="FreeSans" font-size="14.00" fill="#000000">Mu</text>
</a>
</g>
</g>
<!-- Any -->
<g id="node3" class="node">
<title>Any</title>
<g id="a_node3"><a xlink:href="/type/Any" xlink:title="Any">
<ellipse fill="none" stroke="#000000" cx="213.43" cy="-306" rx="28.7" ry="18"/>
<text text-anchor="middle" x="213.43" y="-302.3" font-family="FreeSans" font-size="14.00" fill="#000000">Any</text>
</a>
</g>
</g>
<!-- Any&#45;&gt;Mu -->
<g id="edge3" class="edge">
<title>Any&#45;&gt;Mu</title>
<path fill="none" stroke="#000000" d="M213.43,-324.3C213.43,-332.02 213.43,-341.29 213.43,-349.89"/>
<polygon fill="#000000" stroke="#000000" points="209.93,-349.9 213.43,-359.9 216.93,-349.9 209.93,-349.9"/>
</g>
<!-- Exception&#45;&gt;Any -->
<g id="edge4" class="edge">
<title>Exception&#45;&gt;Any</title>
<path fill="none" stroke="#000000" d="M213.43,-252.3C213.43,-260.02 213.43,-269.29 213.43,-277.89"/>
<polygon fill="#000000" stroke="#000000" points="209.93,-277.9 213.43,-287.9 216.93,-277.9 209.93,-277.9"/>
</g>
<!-- X::Comp -->
<g id="node5" class="node">
<title>X::Comp</title>
<g id="a_node5"><a xlink:href="/type/X::Comp" xlink:title="X::Comp">
<ellipse fill="none" stroke="#6666ff" cx="314.43" cy="-162" rx="49.29" ry="18"/>
<text text-anchor="middle" x="314.43" y="-158.3" font-family="FreeSans" font-size="14.00" fill="#6666ff">X::Comp</text>
</a>
</g>
</g>
<!-- X::Comp&#45;&gt;Exception -->
<g id="edge5" class="edge">
<title>X::Comp&#45;&gt;Exception</title>
<path fill="none" stroke="#000000" d="M292.52,-178.19C278.42,-187.96 259.89,-200.8 244.31,-211.6"/>
<polygon fill="#000000" stroke="#000000" points="242.23,-208.78 236.01,-217.36 246.22,-214.54 242.23,-208.78"/>
</g>
<!-- X::Syntax&#45;&gt;Exception -->
<g id="edge6" class="edge">
<title>X::Syntax&#45;&gt;Exception</title>
<path fill="none" stroke="#000000" d="M273.37,-107.85C261.61,-132.4 239.66,-178.23 225.84,-207.09"/>
<polygon fill="#000000" stroke="#000000" points="222.65,-205.64 221.49,-216.18 228.97,-208.67 222.65,-205.64"/>
</g>
<!-- X::Syntax&#45;&gt;X::Comp -->
<g id="edge8" class="edge">
<title>X::Syntax&#45;&gt;X::Comp</title>
<path fill="none" stroke="#6666ff" d="M289.42,-107.95C293.23,-116.03 297.88,-125.88 302.12,-134.89"/>
<polygon fill="#6666ff" stroke="#6666ff" points="299.09,-136.66 306.52,-144.21 305.42,-133.67 299.09,-136.66"/>
</g>
</g>
</svg>
