<?xml version="1.0" encoding="UTF-8" standalone="no"?>
<!DOCTYPE svg PUBLIC "-//W3C//DTD SVG 1.1//EN"
 "http://www.w3.org/Graphics/SVG/1.1/DTD/svg11.dtd">
<!-- Generated by graphviz version 2.42.3 (0)
 -->
<!-- Title: perl6&#45;type&#45;graph Pages: 1 -->
<svg width="2056pt" height="1707pt"
 viewBox="0.00 0.00 2056.00 1706.99" xmlns="http://www.w3.org/2000/svg" xmlns:xlink="http://www.w3.org/1999/xlink">
<g id="graph0" class="graph" transform="scale(1 1) rotate(0) translate(4 1702.99)">
<title>perl6&#45;type&#45;graph</title>
<polygon fill="white" stroke="transparent" points="-4,4 -4,-1702.99 2052,-1702.99 2052,4 -4,4"/>
<!-- Metamodel::MROBasedTypeChecking -->
<g id="node1" class="node">
<title>Metamodel::MROBasedTypeChecking</title>
<g id="a_node1"><a xlink:href="/type/Metamodel::MROBasedTypeChecking" xlink:title="Metamodel::MROBasedTypeChecking">
<ellipse fill="none" stroke="#6666ff" cx="653.66" cy="-771.2" rx="178.97" ry="18"/>
<text text-anchor="middle" x="653.66" y="-767.5" font-family="FreeSans" font-size="14.00" fill="#6666ff">Metamodel::MROBasedTypeChecking</text>
</a>
</g>
</g>
<!-- Mu -->
<g id="node2" class="node">
<title>Mu</title>
<g id="a_node2"><a xlink:href="/type/Mu" xlink:title="Mu">
<ellipse fill="none" stroke="#000000" cx="1628.55" cy="-18" rx="27" ry="18"/>
<text text-anchor="middle" x="1628.55" y="-14.3" font-family="FreeSans" font-size="14.00" fill="#000000">Mu</text>
</a>
</g>
</g>
<!-- Any -->
<g id="node3" class="node">
<title>Any</title>
<g id="a_node3"><a xlink:href="/type/Any" xlink:title="Any">
<ellipse fill="none" stroke="#000000" cx="1141.98" cy="-479.35" rx="28.7" ry="18"/>
<text text-anchor="middle" x="1141.98" y="-475.65" font-family="FreeSans" font-size="14.00" fill="#000000">Any</text>
</a>
</g>
</g>
<!-- Any&#45;&gt;Mu -->
<g id="edge1" class="edge">
<title>Any&#45;&gt;Mu</title>
<path fill="none" stroke="#000000" d="M1157.89,-464.26C1229.37,-396.5 1520.9,-120.07 1605.46,-39.9"/>
<polygon fill="#000000" stroke="#000000" points="1607.91,-42.39 1612.76,-32.97 1603.09,-37.31 1607.91,-42.39"/>
</g>
<!-- Metamodel::Naming -->
<g id="node4" class="node">
<title>Metamodel::Naming</title>
<g id="a_node4"><a xlink:href="/type/Metamodel::Naming" xlink:title="Metamodel::Naming">
<ellipse fill="none" stroke="#6666ff" cx="1334.75" cy="-748.49" rx="101.28" ry="18"/>
<text text-anchor="middle" x="1334.75" y="-744.79" font-family="FreeSans" font-size="14.00" fill="#6666ff">Metamodel::Naming</text>
</a>
</g>
</g>
<!-- Metamodel::Documenting -->
<g id="node5" class="node">
<title>Metamodel::Documenting</title>
<g id="a_node5"><a xlink:href="/type/Metamodel::Documenting" xlink:title="Metamodel::Documenting">
<ellipse fill="none" stroke="#6666ff" cx="1305.33" cy="-471.6" rx="126.98" ry="18"/>
<text text-anchor="middle" x="1305.33" y="-467.9" font-family="FreeSans" font-size="14.00" fill="#6666ff">Metamodel::Documenting</text>
</a>
</g>
</g>
<!-- Metamodel::Versioning -->
<g id="node6" class="node">
<title>Metamodel::Versioning</title>
<g id="a_node6"><a xlink:href="/type/Metamodel::Versioning" xlink:title="Metamodel::Versioning">
<ellipse fill="none" stroke="#6666ff" cx="289.16" cy="-646.85" rx="114.28" ry="18"/>
<text text-anchor="middle" x="289.16" y="-643.15" font-family="FreeSans" font-size="14.00" fill="#6666ff">Metamodel::Versioning</text>
</a>
</g>
</g>
<!-- Metamodel::Stashing -->
<g id="node7" class="node">
<title>Metamodel::Stashing</title>
<g id="a_node7"><a xlink:href="/type/Metamodel::Stashing" xlink:title="Metamodel::Stashing">
<ellipse fill="none" stroke="#6666ff" cx="851.98" cy="-638.89" rx="105.88" ry="18"/>
<text text-anchor="middle" x="851.98" y="-635.19" font-family="FreeSans" font-size="14.00" fill="#6666ff">Metamodel::Stashing</text>
</a>
</g>
</g>
<!-- Metamodel::MultipleInheritance -->
<g id="node8" class="node">
<title>Metamodel::MultipleInheritance</title>
<g id="a_node8"><a xlink:href="/type/Metamodel::MultipleInheritance" xlink:title="Metamodel::MultipleInheritance">
<ellipse fill="none" stroke="#6666ff" cx="510.69" cy="-377.96" rx="153.27" ry="18"/>
<text text-anchor="middle" x="510.69" y="-374.26" font-family="FreeSans" font-size="14.00" fill="#6666ff">Metamodel::MultipleInheritance</text>
</a>
</g>
</g>
<!-- Metamodel::C3MRO -->
<g id="node9" class="node">
<title>Metamodel::C3MRO</title>
<g id="a_node9"><a xlink:href="/type/Metamodel::C3MRO" xlink:title="Metamodel::C3MRO">
<ellipse fill="none" stroke="#6666ff" cx="341.6" cy="-463.03" rx="100.18" ry="18"/>
<text text-anchor="middle" x="341.6" y="-459.33" font-family="FreeSans" font-size="14.00" fill="#6666ff">Metamodel::C3MRO</text>
</a>
</g>
</g>
<!-- Metamodel::MROBasedMethodDispatch -->
<g id="node10" class="node">
<title>Metamodel::MROBasedMethodDispatch</title>
<g id="a_node10"><a xlink:href="/type/Metamodel::MROBasedMethodDispatch" xlink:title="Metamodel::MROBasedMethodDispatch">
<ellipse fill="none" stroke="#6666ff" cx="1036.61" cy="-717.89" rx="188.47" ry="18"/>
<text text-anchor="middle" x="1036.61" y="-714.19" font-family="FreeSans" font-size="14.00" fill="#6666ff">Metamodel::MROBasedMethodDispatch</text>
</a>
</g>
</g>
<!-- Metamodel::NativeHOW -->
<g id="node11" class="node">
<title>Metamodel::NativeHOW</title>
<g id="a_node11"><a xlink:href="/type/Metamodel::NativeHOW" xlink:title="Metamodel::NativeHOW">
<ellipse fill="none" stroke="#000000" cx="836.18" cy="-197.57" rx="118.08" ry="18"/>
<text text-anchor="middle" x="836.18" y="-193.87" font-family="FreeSans" font-size="14.00" fill="#000000">Metamodel::NativeHOW</text>
</a>
</g>
</g>
<!-- Metamodel::NativeHOW&#45;&gt;Metamodel::MROBasedTypeChecking -->
<g id="edge12" class="edge">
<title>Metamodel::NativeHOW&#45;&gt;Metamodel::MROBasedTypeChecking</title>
<path fill="none" stroke="#6666ff" d="M830.42,-215.68C804.02,-298.64 694.6,-642.52 662.53,-743.31"/>
<polygon fill="#6666ff" stroke="#6666ff" points="659.12,-742.49 659.42,-753.08 665.79,-744.61 659.12,-742.49"/>
</g>
<!-- Metamodel::NativeHOW&#45;&gt;Any -->
<g id="edge2" class="edge">
<title>Metamodel::NativeHOW&#45;&gt;Any</title>
<path fill="none" stroke="#000000" d="M855.78,-215.62C909.54,-265.16 1059.24,-403.1 1117.93,-457.19"/>
<polygon fill="#000000" stroke="#000000" points="1115.86,-460.04 1125.59,-464.25 1120.61,-454.9 1115.86,-460.04"/>
</g>
<!-- Metamodel::NativeHOW&#45;&gt;Metamodel::Naming -->
<g id="edge5" class="edge">
<title>Metamodel::NativeHOW&#45;&gt;Metamodel::Naming</title>
<path fill="none" stroke="#6666ff" d="M852.49,-215.59C925.87,-296.67 1225.65,-627.93 1311.61,-722.92"/>
<polygon fill="#6666ff" stroke="#6666ff" points="1309.27,-725.54 1318.57,-730.61 1314.46,-720.85 1309.27,-725.54"/>
</g>
<!-- Metamodel::NativeHOW&#45;&gt;Metamodel::Documenting -->
<g id="edge6" class="edge">
<title>Metamodel::NativeHOW&#45;&gt;Metamodel::Documenting</title>
<path fill="none" stroke="#6666ff" d="M866.24,-215.13C948.15,-262.97 1175.23,-395.61 1266.56,-448.95"/>
<polygon fill="#6666ff" stroke="#6666ff" points="1264.82,-451.99 1275.22,-454.01 1268.35,-445.94 1264.82,-451.99"/>
</g>
<!-- Metamodel::NativeHOW&#45;&gt;Metamodel::Versioning -->
<g id="edge7" class="edge">
<title>Metamodel::NativeHOW&#45;&gt;Metamodel::Versioning</title>
<path fill="none" stroke="#6666ff" d="M819.21,-215.53C776.08,-261.17 665.68,-378.01 665.68,-378.01 665.68,-378.01 414.12,-557.63 322.25,-623.23"/>
<polygon fill="#6666ff" stroke="#6666ff" points="319.97,-620.55 313.87,-629.21 324.04,-626.25 319.97,-620.55"/>
</g>
<!-- Metamodel::NativeHOW&#45;&gt;Metamodel::Stashing -->
<g id="edge8" class="edge">
<title>Metamodel::NativeHOW&#45;&gt;Metamodel::Stashing</title>
<path fill="none" stroke="#6666ff" d="M836.83,-215.69C839.28,-284.15 847.99,-527.31 850.97,-610.63"/>
<polygon fill="#6666ff" stroke="#6666ff" points="847.48,-610.99 851.33,-620.86 854.47,-610.74 847.48,-610.99"/>
</g>
<!-- Metamodel::NativeHOW&#45;&gt;Metamodel::MultipleInheritance -->
<g id="edge9" class="edge">
<title>Metamodel::NativeHOW&#45;&gt;Metamodel::MultipleInheritance</title>
<path fill="none" stroke="#6666ff" d="M804.68,-215.03C745.4,-247.88 617.36,-318.85 551.55,-355.31"/>
<polygon fill="#6666ff" stroke="#6666ff" points="549.75,-352.31 542.7,-360.22 553.14,-358.44 549.75,-352.31"/>
</g>
<!-- Metamodel::NativeHOW&#45;&gt;Metamodel::C3MRO -->
<g id="edge10" class="edge">
<title>Metamodel::NativeHOW&#45;&gt;Metamodel::C3MRO</title>
<path fill="none" stroke="#6666ff" d="M819.21,-215.53C776.08,-261.17 665.68,-378.01 665.68,-378.01 665.68,-378.01 619.99,-391.86 619.99,-391.86 619.99,-391.86 491.48,-424.71 409.09,-445.78"/>
<polygon fill="#6666ff" stroke="#6666ff" points="408.1,-442.42 399.28,-448.29 409.83,-449.2 408.1,-442.42"/>
</g>
<!-- Metamodel::NativeHOW&#45;&gt;Metamodel::MROBasedMethodDispatch -->
<g id="edge11" class="edge">
<title>Metamodel::NativeHOW&#45;&gt;Metamodel::MROBasedMethodDispatch</title>
<path fill="none" stroke="#6666ff" d="M843.2,-215.78C873.11,-293.44 990.12,-597.19 1026.05,-690.48"/>
<polygon fill="#6666ff" stroke="#6666ff" points="1022.79,-691.75 1029.65,-699.82 1029.32,-689.23 1022.79,-691.75"/>
</g>
<!-- Metamodel::AttributeContainer -->
<g id="node12" class="node">
<title>Metamodel::AttributeContainer</title>
<g id="a_node12"><a xlink:href="/type/Metamodel::AttributeContainer" xlink:title="Metamodel::AttributeContainer">
<ellipse fill="none" stroke="#6666ff" cx="911.89" cy="-1680.99" rx="150.27" ry="18"/>
<text text-anchor="middle" x="911.89" y="-1677.29" font-family="FreeSans" font-size="14.00" fill="#6666ff">Metamodel::AttributeContainer</text>
</a>
</g>
</g>
<!-- Metamodel::Finalization -->
<g id="node13" class="node">
<title>Metamodel::Finalization</title>
<g id="a_node13"><a xlink:href="/type/Metamodel::Finalization" xlink:title="Metamodel::Finalization">
<ellipse fill="none" stroke="#6666ff" cx="359.34" cy="-1597.76" rx="116.98" ry="18"/>
<text text-anchor="middle" x="359.34" y="-1594.06" font-family="FreeSans" font-size="14.00" fill="#6666ff">Metamodel::Finalization</text>
</a>
</g>
</g>
<!-- Metamodel::MethodContainer -->
<g id="node14" class="node">
<title>Metamodel::MethodContainer</title>
<g id="a_node14"><a xlink:href="/type/Metamodel::MethodContainer" xlink:title="Metamodel::MethodContainer">
<ellipse fill="none" stroke="#6666ff" cx="1256.75" cy="-1542.62" rx="143.77" ry="18"/>
<text text-anchor="middle" x="1256.75" y="-1538.92" font-family="FreeSans" font-size="14.00" fill="#6666ff">Metamodel::MethodContainer</text>
</a>
</g>
</g>
<!-- Metamodel::PrivateMethodContainer -->
<g id="node15" class="node">
<title>Metamodel::PrivateMethodContainer</title>
<g id="a_node15"><a xlink:href="/type/Metamodel::PrivateMethodContainer" xlink:title="Metamodel::PrivateMethodContainer">
<ellipse fill="none" stroke="#6666ff" cx="207.55" cy="-1378.11" rx="174.67" ry="18"/>
<text text-anchor="middle" x="207.55" y="-1374.41" font-family="FreeSans" font-size="14.00" fill="#6666ff">Metamodel::PrivateMethodContainer</text>
</a>
</g>
</g>
<!-- Metamodel::MultiMethodContainer -->
<g id="node16" class="node">
<title>Metamodel::MultiMethodContainer</title>
<g id="a_node16"><a xlink:href="/type/Metamodel::MultiMethodContainer" xlink:title="Metamodel::MultiMethodContainer">
<ellipse fill="none" stroke="#6666ff" cx="1408.37" cy="-1364.17" rx="165.97" ry="18"/>
<text text-anchor="middle" x="1408.37" y="-1360.47" font-family="FreeSans" font-size="14.00" fill="#6666ff">Metamodel::MultiMethodContainer</text>
</a>
</g>
</g>
<!-- Metamodel::RoleContainer -->
<g id="node17" class="node">
<title>Metamodel::RoleContainer</title>
<g id="a_node17"><a xlink:href="/type/Metamodel::RoleContainer" xlink:title="Metamodel::RoleContainer">
<ellipse fill="none" stroke="#6666ff" cx="1500.43" cy="-1030.53" rx="129.98" ry="18"/>
<text text-anchor="middle" x="1500.43" y="-1026.83" font-family="FreeSans" font-size="14.00" fill="#6666ff">Metamodel::RoleContainer</text>
</a>
</g>
</g>
<!-- Metamodel::DefaultParent -->
<g id="node18" class="node">
<title>Metamodel::DefaultParent</title>
<g id="a_node18"><a xlink:href="/type/Metamodel::DefaultParent" xlink:title="Metamodel::DefaultParent">
<ellipse fill="none" stroke="#6666ff" cx="133.27" cy="-1160.88" rx="128.08" ry="18"/>
<text text-anchor="middle" x="133.27" y="-1157.18" font-family="FreeSans" font-size="14.00" fill="#6666ff">Metamodel::DefaultParent</text>
</a>
</g>
</g>
<!-- Metamodel::Trusting -->
<g id="node19" class="node">
<title>Metamodel::Trusting</title>
<g id="a_node19"><a xlink:href="/type/Metamodel::Trusting" xlink:title="Metamodel::Trusting">
<ellipse fill="none" stroke="#6666ff" cx="102.69" cy="-934.46" rx="102.88" ry="18"/>
<text text-anchor="middle" x="102.69" y="-930.76" font-family="FreeSans" font-size="14.00" fill="#6666ff">Metamodel::Trusting</text>
</a>
</g>
</g>
<!-- Metamodel::BUILDPLAN -->
<g id="node20" class="node">
<title>Metamodel::BUILDPLAN</title>
<g id="a_node20"><a xlink:href="/type/Metamodel::BUILDPLAN" xlink:title="Metamodel::BUILDPLAN">
<ellipse fill="none" stroke="#6666ff" cx="1076.43" cy="-1588.2" rx="118.08" ry="18"/>
<text text-anchor="middle" x="1076.43" y="-1584.5" font-family="FreeSans" font-size="14.00" fill="#6666ff">Metamodel::BUILDPLAN</text>
</a>
</g>
</g>
<!-- Metamodel::Mixins -->
<g id="node21" class="node">
<title>Metamodel::Mixins</title>
<g id="a_node21"><a xlink:href="/type/Metamodel::Mixins" xlink:title="Metamodel::Mixins">
<ellipse fill="none" stroke="#6666ff" cx="649.88" cy="-1399.62" rx="94.78" ry="18"/>
<text text-anchor="middle" x="649.88" y="-1395.92" font-family="FreeSans" font-size="14.00" fill="#6666ff">Metamodel::Mixins</text>
</a>
</g>
</g>
<!-- Metamodel::BoolificationProtocol -->
<g id="node22" class="node">
<title>Metamodel::BoolificationProtocol</title>
<g id="a_node22"><a xlink:href="/type/Metamodel::BoolificationProtocol" xlink:title="Metamodel::BoolificationProtocol">
<ellipse fill="none" stroke="#6666ff" cx="760.27" cy="-1574" rx="157.07" ry="18"/>
<text text-anchor="middle" x="760.27" y="-1570.3" font-family="FreeSans" font-size="14.00" fill="#6666ff">Metamodel::BoolificationProtocol</text>
</a>
</g>
</g>
<!-- Metamodel::ClassHOW -->
<g id="node23" class="node">
<title>Metamodel::ClassHOW</title>
<g id="a_node23"><a xlink:href="/type/Metamodel::ClassHOW" xlink:title="Metamodel::ClassHOW">
<ellipse fill="none" stroke="#000000" cx="780.66" cy="-1046.83" rx="113.18" ry="18"/>
<text text-anchor="middle" x="780.66" y="-1043.13" font-family="FreeSans" font-size="14.00" fill="#000000">Metamodel::ClassHOW</text>
</a>
</g>
</g>
<!-- Metamodel::ClassHOW&#45;&gt;Metamodel::MROBasedTypeChecking -->
<g id="edge27" class="edge">
<title>Metamodel::ClassHOW&#45;&gt;Metamodel::MROBasedTypeChecking</title>
<path fill="none" stroke="#6666ff" d="M772.33,-1028.74C750.62,-981.63 692.22,-854.88 666.32,-798.68"/>
<polygon fill="#6666ff" stroke="#6666ff" points="669.39,-796.97 662.02,-789.35 663.03,-799.9 669.39,-796.97"/>
</g>
<!-- Metamodel::ClassHOW&#45;&gt;Any -->
<g id="edge3" class="edge">
<title>Metamodel::ClassHOW&#45;&gt;Any</title>
<path fill="none" stroke="#000000" d="M784.3,-1028.67C798.11,-959.7 846.53,-717.84 846.53,-717.84 846.53,-717.84 959.52,-638.98 959.52,-638.98 959.52,-638.98 1067.6,-544.42 1117.4,-500.86"/>
<polygon fill="#000000" stroke="#000000" points="1119.92,-503.3 1125.14,-494.08 1115.31,-498.03 1119.92,-503.3"/>
</g>
<!-- Metamodel::ClassHOW&#45;&gt;Metamodel::Naming -->
<g id="edge13" class="edge">
<title>Metamodel::ClassHOW&#45;&gt;Metamodel::Naming</title>
<path fill="none" stroke="#6666ff" d="M812.85,-1029.5C908.02,-978.25 1188.05,-827.48 1293.74,-770.57"/>
<polygon fill="#6666ff" stroke="#6666ff" points="1295.68,-773.5 1302.82,-765.68 1292.36,-767.34 1295.68,-773.5"/>
</g>
<!-- Metamodel::ClassHOW&#45;&gt;Metamodel::Documenting -->
<g id="edge14" class="edge">
<title>Metamodel::ClassHOW&#45;&gt;Metamodel::Documenting</title>
<path fill="none" stroke="#6666ff" d="M804.64,-1029.14C897.29,-960.83 1226.69,-717.94 1226.69,-717.94 1226.69,-717.94 1275.77,-564.19 1296.39,-499.62"/>
<polygon fill="#6666ff" stroke="#6666ff" points="1299.84,-500.3 1299.55,-489.71 1293.18,-498.17 1299.84,-500.3"/>
</g>
<!-- Metamodel::ClassHOW&#45;&gt;Metamodel::Versioning -->
<g id="edge15" class="edge">
<title>Metamodel::ClassHOW&#45;&gt;Metamodel::Versioning</title>
<path fill="none" stroke="#6666ff" d="M758.91,-1029.12C680.09,-964.98 409.36,-744.66 318.88,-671.03"/>
<polygon fill="#6666ff" stroke="#6666ff" points="320.91,-668.17 310.94,-664.57 316.49,-673.6 320.91,-668.17"/>
</g>
<!-- Metamodel::ClassHOW&#45;&gt;Metamodel::Stashing -->
<g id="edge16" class="edge">
<title>Metamodel::ClassHOW&#45;&gt;Metamodel::Stashing</title>
<path fill="none" stroke="#6666ff" d="M784.16,-1028.75C796.03,-967.46 833.99,-771.33 833.99,-771.33 833.99,-771.33 842.85,-706.13 848.13,-667.23"/>
<polygon fill="#6666ff" stroke="#6666ff" points="851.64,-667.41 849.52,-657.03 844.7,-666.46 851.64,-667.41"/>
</g>
<!-- Metamodel::ClassHOW&#45;&gt;Metamodel::MultipleInheritance -->
<g id="edge23" class="edge">
<title>Metamodel::ClassHOW&#45;&gt;Metamodel::MultipleInheritance</title>
<path fill="none" stroke="#6666ff" d="M784.16,-1028.75C796.03,-967.46 833.99,-771.33 833.99,-771.33 833.99,-771.33 603.76,-491.2 531.87,-403.73"/>
<polygon fill="#6666ff" stroke="#6666ff" points="534.48,-401.39 525.43,-395.88 529.07,-405.83 534.48,-401.39"/>
</g>
<!-- Metamodel::ClassHOW&#45;&gt;Metamodel::C3MRO -->
<g id="edge25" class="edge">
<title>Metamodel::ClassHOW&#45;&gt;Metamodel::C3MRO</title>
<path fill="none" stroke="#6666ff" d="M760.5,-1028.73C692.13,-967.38 473.33,-771.07 473.33,-771.07 473.33,-771.07 385.83,-566.48 353.46,-490.77"/>
<polygon fill="#6666ff" stroke="#6666ff" points="356.59,-489.2 349.44,-481.38 350.16,-491.95 356.59,-489.2"/>
</g>
<!-- Metamodel::ClassHOW&#45;&gt;Metamodel::MROBasedMethodDispatch -->
<g id="edge26" class="edge">
<title>Metamodel::ClassHOW&#45;&gt;Metamodel::MROBasedMethodDispatch</title>
<path fill="none" stroke="#6666ff" d="M794.79,-1028.67C837.62,-973.63 966.13,-808.47 1016.27,-744.04"/>
<polygon fill="#6666ff" stroke="#6666ff" points="1019.15,-746.03 1022.53,-735.99 1013.63,-741.73 1019.15,-746.03"/>
</g>
<!-- Metamodel::ClassHOW&#45;&gt;Metamodel::AttributeContainer -->
<g id="edge17" class="edge">
<title>Metamodel::ClassHOW&#45;&gt;Metamodel::AttributeContainer</title>
<path fill="none" stroke="#6666ff" d="M785.43,-1064.98C809.78,-1157.69 919.16,-1574.08 919.16,-1574.08 919.16,-1574.08 915.96,-1621.12 913.8,-1652.79"/>
<polygon fill="#6666ff" stroke="#6666ff" points="910.31,-1652.64 913.12,-1662.86 917.29,-1653.12 910.31,-1652.64"/>
</g>
<!-- Metamodel::ClassHOW&#45;&gt;Metamodel::Finalization -->
<g id="edge18" class="edge">
<title>Metamodel::ClassHOW&#45;&gt;Metamodel::Finalization</title>
<path fill="none" stroke="#6666ff" d="M766.89,-1064.84C704.94,-1145.85 452.05,-1476.53 379.11,-1571.9"/>
<polygon fill="#6666ff" stroke="#6666ff" points="376.31,-1569.81 373.01,-1579.88 381.87,-1574.06 376.31,-1569.81"/>
</g>
<!-- Metamodel::ClassHOW&#45;&gt;Metamodel::MethodContainer -->
<g id="edge19" class="edge">
<title>Metamodel::ClassHOW&#45;&gt;Metamodel::MethodContainer</title>
<path fill="none" stroke="#6666ff" d="M797.89,-1064.76C870.06,-1139.92 1148.26,-1429.64 1232.46,-1517.33"/>
<polygon fill="#6666ff" stroke="#6666ff" points="1230.09,-1519.91 1239.54,-1524.7 1235.14,-1515.06 1230.09,-1519.91"/>
</g>
<!-- Metamodel::ClassHOW&#45;&gt;Metamodel::PrivateMethodContainer -->
<g id="edge20" class="edge">
<title>Metamodel::ClassHOW&#45;&gt;Metamodel::PrivateMethodContainer</title>
<path fill="none" stroke="#6666ff" d="M750.26,-1064.4C653.9,-1120.1 355.37,-1292.67 247.2,-1355.2"/>
<polygon fill="#6666ff" stroke="#6666ff" points="245.14,-1352.34 238.24,-1360.38 248.65,-1358.4 245.14,-1352.34"/>
</g>
<!-- Metamodel::ClassHOW&#45;&gt;Metamodel::MultiMethodContainer -->
<g id="edge21" class="edge">
<title>Metamodel::ClassHOW&#45;&gt;Metamodel::MultiMethodContainer</title>
<path fill="none" stroke="#6666ff" d="M814.86,-1064.11C921.09,-1117.82 1245.41,-1281.79 1364.18,-1341.84"/>
<polygon fill="#6666ff" stroke="#6666ff" points="1362.87,-1345.09 1373.37,-1346.48 1366.02,-1338.85 1362.87,-1345.09"/>
</g>
<!-- Metamodel::ClassHOW&#45;&gt;Metamodel::RoleContainer -->
<g id="edge22" class="edge">
<title>Metamodel::ClassHOW&#45;&gt;Metamodel::RoleContainer</title>
<path fill="none" stroke="#6666ff" d="M892.73,-1044.29C1019.27,-1041.42 1225.25,-1036.76 1361.8,-1033.67"/>
<polygon fill="#6666ff" stroke="#6666ff" points="1362,-1037.16 1371.92,-1033.44 1361.84,-1030.16 1362,-1037.16"/>
</g>
<!-- Metamodel::ClassHOW&#45;&gt;Metamodel::DefaultParent -->
<g id="edge24" class="edge">
<title>Metamodel::ClassHOW&#45;&gt;Metamodel::DefaultParent</title>
<path fill="none" stroke="#6666ff" d="M704.81,-1060.19C584.86,-1081.32 351.83,-1122.38 223.48,-1144.99"/>
<polygon fill="#6666ff" stroke="#6666ff" points="222.53,-1141.6 213.29,-1146.78 223.74,-1148.5 222.53,-1141.6"/>
</g>
<!-- Metamodel::ClassHOW&#45;&gt;Metamodel::Trusting -->
<g id="edge28" class="edge">
<title>Metamodel::ClassHOW&#45;&gt;Metamodel::Trusting</title>
<path fill="none" stroke="#6666ff" d="M702.23,-1033.83C573.82,-1012.54 319.8,-970.44 187.41,-948.5"/>
<polygon fill="#6666ff" stroke="#6666ff" points="187.76,-945.01 177.32,-946.83 186.61,-951.92 187.76,-945.01"/>
</g>
<!-- Metamodel::ClassHOW&#45;&gt;Metamodel::BUILDPLAN -->
<g id="edge29" class="edge">
<title>Metamodel::ClassHOW&#45;&gt;Metamodel::BUILDPLAN</title>
<path fill="none" stroke="#6666ff" d="M790.5,-1064.84C834.02,-1144.48 1009.27,-1465.28 1061.6,-1561.07"/>
<polygon fill="#6666ff" stroke="#6666ff" points="1058.68,-1563.03 1066.55,-1570.12 1064.83,-1559.67 1058.68,-1563.03"/>
</g>
<!-- Metamodel::ClassHOW&#45;&gt;Metamodel::Mixins -->
<g id="edge30" class="edge">
<title>Metamodel::ClassHOW&#45;&gt;Metamodel::Mixins</title>
<path fill="none" stroke="#6666ff" d="M774,-1064.81C752.67,-1122.35 685.96,-1302.31 660.19,-1371.83"/>
<polygon fill="#6666ff" stroke="#6666ff" points="656.89,-1370.66 656.69,-1381.25 663.45,-1373.09 656.89,-1370.66"/>
</g>
<!-- Metamodel::ClassHOW&#45;&gt;Metamodel::BoolificationProtocol -->
<g id="edge31" class="edge">
<title>Metamodel::ClassHOW&#45;&gt;Metamodel::BoolificationProtocol</title>
<path fill="none" stroke="#6666ff" d="M779.96,-1064.97C776.94,-1143.07 765.03,-1450.91 761.36,-1545.92"/>
<polygon fill="#6666ff" stroke="#6666ff" points="757.86,-1545.8 760.97,-1555.93 764.85,-1546.08 757.86,-1545.8"/>
</g>
<!-- Metamodel::BaseType -->
<g id="node24" class="node">
<title>Metamodel::BaseType</title>
<g id="a_node24"><a xlink:href="/type/Metamodel::BaseType" xlink:title="Metamodel::BaseType">
<ellipse fill="none" stroke="#6666ff" cx="1938.81" cy="-1330.91" rx="109.38" ry="18"/>
<text text-anchor="middle" x="1938.81" y="-1327.21" font-family="FreeSans" font-size="14.00" fill="#6666ff">Metamodel::BaseType</text>
</a>
</g>
</g>
<!-- Metamodel::EnumHOW -->
<g id="node25" class="node">
<title>Metamodel::EnumHOW</title>
<g id="a_node25"><a xlink:href="/type/Metamodel::EnumHOW" xlink:title="Metamodel::EnumHOW">
<ellipse fill="none" stroke="#000000" cx="1198.74" cy="-1143.8" rx="115.88" ry="18"/>
<text text-anchor="middle" x="1198.74" y="-1140.1" font-family="FreeSans" font-size="14.00" fill="#000000">Metamodel::EnumHOW</text>
</a>
</g>
</g>
<!-- Metamodel::EnumHOW&#45;&gt;Metamodel::MROBasedTypeChecking -->
<g id="edge40" class="edge">
<title>Metamodel::EnumHOW&#45;&gt;Metamodel::MROBasedTypeChecking</title>
<path fill="none" stroke="#6666ff" d="M1172.82,-1126.08C1083.59,-1065.09 789.15,-863.82 688.08,-794.73"/>
<polygon fill="#6666ff" stroke="#6666ff" points="689.97,-791.78 679.74,-789.03 686.02,-797.56 689.97,-791.78"/>
</g>
<!-- Metamodel::EnumHOW&#45;&gt;Any -->
<g id="edge4" class="edge">
<title>Metamodel::EnumHOW&#45;&gt;Any</title>
<path fill="none" stroke="#000000" d="M1199.92,-1125.78C1205.24,-1044.72 1226.69,-717.94 1226.69,-717.94 1226.69,-717.94 1174.07,-569.73 1151.78,-506.94"/>
<polygon fill="#000000" stroke="#000000" points="1154.99,-505.54 1148.35,-497.28 1148.4,-507.88 1154.99,-505.54"/>
</g>
<!-- Metamodel::EnumHOW&#45;&gt;Metamodel::Naming -->
<g id="edge32" class="edge">
<title>Metamodel::EnumHOW&#45;&gt;Metamodel::Naming</title>
<path fill="none" stroke="#6666ff" d="M1204.94,-1125.79C1226.58,-1062.89 1298.89,-852.73 1325.13,-776.45"/>
<polygon fill="#6666ff" stroke="#6666ff" points="1328.57,-777.2 1328.52,-766.61 1321.95,-774.93 1328.57,-777.2"/>
</g>
<!-- Metamodel::EnumHOW&#45;&gt;Metamodel::Stashing -->
<g id="edge33" class="edge">
<title>Metamodel::EnumHOW&#45;&gt;Metamodel::Stashing</title>
<path fill="none" stroke="#6666ff" d="M1183.83,-1125.77C1116.79,-1044.7 846.53,-717.84 846.53,-717.84 846.53,-717.84 848.45,-690.03 850.01,-667.42"/>
<polygon fill="#6666ff" stroke="#6666ff" points="853.52,-667.42 850.72,-657.2 846.54,-666.93 853.52,-667.42"/>
</g>
<!-- Metamodel::EnumHOW&#45;&gt;Metamodel::MROBasedMethodDispatch -->
<g id="edge39" class="edge">
<title>Metamodel::EnumHOW&#45;&gt;Metamodel::MROBasedMethodDispatch</title>
<path fill="none" stroke="#6666ff" d="M1191.88,-1125.77C1166.5,-1059.12 1077.88,-826.31 1047.18,-745.65"/>
<polygon fill="#6666ff" stroke="#6666ff" points="1050.39,-744.26 1043.57,-736.16 1043.85,-746.75 1050.39,-744.26"/>
</g>
<!-- Metamodel::EnumHOW&#45;&gt;Metamodel::AttributeContainer -->
<g id="edge34" class="edge">
<title>Metamodel::EnumHOW&#45;&gt;Metamodel::AttributeContainer</title>
<path fill="none" stroke="#6666ff" d="M1188.94,-1161.77C1143.63,-1244.88 956.54,-1588.07 956.54,-1588.07 956.54,-1588.07 938.28,-1626.07 925.12,-1653.46"/>
<polygon fill="#6666ff" stroke="#6666ff" points="921.89,-1652.1 920.71,-1662.63 928.2,-1655.14 921.89,-1652.1"/>
</g>
<!-- Metamodel::EnumHOW&#45;&gt;Metamodel::MethodContainer -->
<g id="edge35" class="edge">
<title>Metamodel::EnumHOW&#45;&gt;Metamodel::MethodContainer</title>
<path fill="none" stroke="#6666ff" d="M1201.38,-1161.98C1210.61,-1225.43 1241.45,-1437.45 1252.64,-1514.4"/>
<polygon fill="#6666ff" stroke="#6666ff" points="1249.18,-1514.94 1254.09,-1524.34 1256.11,-1513.94 1249.18,-1514.94"/>
</g>
<!-- Metamodel::EnumHOW&#45;&gt;Metamodel::MultiMethodContainer -->
<g id="edge36" class="edge">
<title>Metamodel::EnumHOW&#45;&gt;Metamodel::MultiMethodContainer</title>
<path fill="none" stroke="#6666ff" d="M1215.89,-1161.84C1253.15,-1201 1341.52,-1293.9 1384.32,-1338.89"/>
<polygon fill="#6666ff" stroke="#6666ff" points="1381.84,-1341.37 1391.27,-1346.2 1386.91,-1336.54 1381.84,-1341.37"/>
</g>
<!-- Metamodel::EnumHOW&#45;&gt;Metamodel::RoleContainer -->
<g id="edge37" class="edge">
<title>Metamodel::EnumHOW&#45;&gt;Metamodel::RoleContainer</title>
<path fill="none" stroke="#6666ff" d="M1243.26,-1127.09C1297.13,-1106.86 1387.83,-1072.81 1445.86,-1051.02"/>
<polygon fill="#6666ff" stroke="#6666ff" points="1447.11,-1054.29 1455.24,-1047.5 1444.65,-1047.73 1447.11,-1054.29"/>
</g>
<!-- Metamodel::EnumHOW&#45;&gt;Metamodel::BUILDPLAN -->
<g id="edge41" class="edge">
<title>Metamodel::EnumHOW&#45;&gt;Metamodel::BUILDPLAN</title>
<path fill="none" stroke="#6666ff" d="M1193.72,-1162.05C1174.71,-1231.13 1107.08,-1476.84 1084.12,-1560.26"/>
<polygon fill="#6666ff" stroke="#6666ff" points="1080.7,-1559.48 1081.42,-1570.05 1087.45,-1561.34 1080.7,-1559.48"/>
</g>
<!-- Metamodel::EnumHOW&#45;&gt;Metamodel::Mixins -->
<g id="edge43" class="edge">
<title>Metamodel::EnumHOW&#45;&gt;Metamodel::Mixins</title>
<path fill="none" stroke="#6666ff" d="M1161.88,-1160.98C1064.58,-1206.33 801.12,-1329.13 695.04,-1378.58"/>
<polygon fill="#6666ff" stroke="#6666ff" points="693.46,-1375.45 685.87,-1382.85 696.41,-1381.8 693.46,-1375.45"/>
</g>
<!-- Metamodel::EnumHOW&#45;&gt;Metamodel::BoolificationProtocol -->
<g id="edge42" class="edge">
<title>Metamodel::EnumHOW&#45;&gt;Metamodel::BoolificationProtocol</title>
<path fill="none" stroke="#6666ff" d="M1180.46,-1161.74C1111.37,-1229.52 866.09,-1470.18 785.87,-1548.89"/>
<polygon fill="#6666ff" stroke="#6666ff" points="783.32,-1546.49 778.63,-1555.99 788.22,-1551.48 783.32,-1546.49"/>
</g>
<!-- Metamodel::EnumHOW&#45;&gt;Metamodel::BaseType -->
<g id="edge38" class="edge">
<title>Metamodel::EnumHOW&#45;&gt;Metamodel::BaseType</title>
<path fill="none" stroke="#6666ff" d="M1259.62,-1159.19C1395.86,-1193.64 1724.69,-1276.77 1868.97,-1313.25"/>
<polygon fill="#6666ff" stroke="#6666ff" points="1868.48,-1316.74 1879.03,-1315.8 1870.2,-1309.95 1868.48,-1316.74"/>
</g>
</g>
</svg>
