<?xml version="1.0" encoding="UTF-8" standalone="no"?>
<!DOCTYPE svg PUBLIC "-//W3C//DTD SVG 1.1//EN"
 "http://www.w3.org/Graphics/SVG/1.1/DTD/svg11.dtd">
<!-- Generated by graphviz version 2.42.3 (0)
 -->
<!-- Title: perl6&#45;type&#45;graph Pages: 1 -->
<svg width="217pt" height="332pt"
 viewBox="0.00 0.00 217.28 332.00" xmlns="http://www.w3.org/2000/svg" xmlns:xlink="http://www.w3.org/1999/xlink">
<g id="graph0" class="graph" transform="scale(1 1) rotate(0) translate(4 328)">
<title>perl6&#45;type&#45;graph</title>
<polygon fill="white" stroke="transparent" points="-4,4 -4,-328 213.28,-328 213.28,4 -4,4"/>
<!-- X::Package::Stubbed -->
<g id="node1" class="node">
<title>X::Package::Stubbed</title>
<g id="a_node1"><a xlink:href="/type/X::Package::Stubbed" xlink:title="X::Package::Stubbed">
<ellipse fill="none" stroke="#000000" cx="104.64" cy="-18" rx="104.78" ry="18"/>
<text text-anchor="middle" x="104.64" y="-14.3" font-family="FreeSans" font-size="14.00" fill="#000000">X::Package::Stubbed</text>
</a>
</g>
</g>
<!-- Exception -->
<g id="node4" class="node">
<title>Exception</title>
<g id="a_node4"><a xlink:href="/type/Exception" xlink:title="Exception">
<ellipse fill="none" stroke="#000000" cx="104.64" cy="-162" rx="55.49" ry="18"/>
<text text-anchor="middle" x="104.64" y="-158.3" font-family="FreeSans" font-size="14.00" fill="#000000">Exception</text>
</a>
</g>
</g>
<!-- X::Package::Stubbed&#45;&gt;Exception -->
<g id="edge1" class="edge">
<title>X::Package::Stubbed&#45;&gt;Exception</title>
<path fill="none" stroke="#000000" d="M98.52,-36.06C92.97,-51.55 85.64,-72 85.64,-72 85.64,-72 85.64,-108 85.64,-108 85.64,-108 90.39,-121.24 95.13,-134.48"/>
<polygon fill="#000000" stroke="#000000" points="91.86,-135.71 98.52,-143.94 98.44,-133.34 91.86,-135.71"/>
</g>
<!-- X::Comp -->
<g id="node5" class="node">
<title>X::Comp</title>
<g id="a_node5"><a xlink:href="/type/X::Comp" xlink:title="X::Comp">
<ellipse fill="none" stroke="#6666ff" cx="143.64" cy="-90" rx="49.29" ry="18"/>
<text text-anchor="middle" x="143.64" y="-86.3" font-family="FreeSans" font-size="14.00" fill="#6666ff">X::Comp</text>
</a>
</g>
</g>
<!-- X::Package::Stubbed&#45;&gt;X::Comp -->
<g id="edge5" class="edge">
<title>X::Package::Stubbed&#45;&gt;X::Comp</title>
<path fill="none" stroke="#6666ff" d="M114.08,-35.95C118.68,-44.2 124.31,-54.3 129.41,-63.46"/>
<polygon fill="#6666ff" stroke="#6666ff" points="126.36,-65.18 134.29,-72.21 132.48,-61.77 126.36,-65.18"/>
</g>
<!-- Mu -->
<g id="node2" class="node">
<title>Mu</title>
<g id="a_node2"><a xlink:href="/type/Mu" xlink:title="Mu">
<ellipse fill="none" stroke="#000000" cx="104.64" cy="-306" rx="27" ry="18"/>
<text text-anchor="middle" x="104.64" y="-302.3" font-family="FreeSans" font-size="14.00" fill="#000000">Mu</text>
</a>
</g>
</g>
<!-- Any -->
<g id="node3" class="node">
<title>Any</title>
<g id="a_node3"><a xlink:href="/type/Any" xlink:title="Any">
<ellipse fill="none" stroke="#000000" cx="104.64" cy="-234" rx="28.7" ry="18"/>
<text text-anchor="middle" x="104.64" y="-230.3" font-family="FreeSans" font-size="14.00" fill="#000000">Any</text>
</a>
</g>
</g>
<!-- Any&#45;&gt;Mu -->
<g id="edge2" class="edge">
<title>Any&#45;&gt;Mu</title>
<path fill="none" stroke="#000000" d="M104.64,-252.3C104.64,-260.02 104.64,-269.29 104.64,-277.89"/>
<polygon fill="#000000" stroke="#000000" points="101.14,-277.9 104.64,-287.9 108.14,-277.9 101.14,-277.9"/>
</g>
<!-- Exception&#45;&gt;Any -->
<g id="edge3" class="edge">
<title>Exception&#45;&gt;Any</title>
<path fill="none" stroke="#000000" d="M104.64,-180.3C104.64,-188.02 104.64,-197.29 104.64,-205.89"/>
<polygon fill="#000000" stroke="#000000" points="101.14,-205.9 104.64,-215.9 108.14,-205.9 101.14,-205.9"/>
</g>
<!-- X::Comp&#45;&gt;Exception -->
<g id="edge4" class="edge">
<title>X::Comp&#45;&gt;Exception</title>
<path fill="none" stroke="#000000" d="M134.2,-107.95C129.6,-116.2 123.97,-126.3 118.87,-135.46"/>
<polygon fill="#000000" stroke="#000000" points="115.8,-133.77 113.99,-144.21 121.92,-137.18 115.8,-133.77"/>
</g>
</g>
</svg>
