<?xml version="1.0" encoding="UTF-8" standalone="no"?>
<!DOCTYPE svg PUBLIC "-//W3C//DTD SVG 1.1//EN"
 "http://www.w3.org/Graphics/SVG/1.1/DTD/svg11.dtd">
<!-- Generated by graphviz version 2.42.3 (0)
 -->
<!-- Title: perl6&#45;type&#45;graph Pages: 1 -->
<svg width="134pt" height="188pt"
 viewBox="0.00 0.00 134.09 188.00" xmlns="http://www.w3.org/2000/svg" xmlns:xlink="http://www.w3.org/1999/xlink">
<g id="graph0" class="graph" transform="scale(1 1) rotate(0) translate(4 184)">
<title>perl6&#45;type&#45;graph</title>
<polygon fill="white" stroke="transparent" points="-4,4 -4,-184 130.09,-184 130.09,4 -4,4"/>
<!-- Proc::Async -->
<g id="node1" class="node">
<title>Proc::Async</title>
<g id="a_node1"><a xlink:href="/type/Proc::Async" xlink:title="Proc::Async">
<ellipse fill="none" stroke="#000000" cx="63.04" cy="-18" rx="63.09" ry="18"/>
<text text-anchor="middle" x="63.04" y="-14.3" font-family="FreeSans" font-size="14.00" fill="#000000">Proc::Async</text>
</a>
</g>
</g>
<!-- Any -->
<g id="node3" class="node">
<title>Any</title>
<g id="a_node3"><a xlink:href="/type/Any" xlink:title="Any">
<ellipse fill="none" stroke="#000000" cx="63.04" cy="-90" rx="28.7" ry="18"/>
<text text-anchor="middle" x="63.04" y="-86.3" font-family="FreeSans" font-size="14.00" fill="#000000">Any</text>
</a>
</g>
</g>
<!-- Proc::Async&#45;&gt;Any -->
<g id="edge1" class="edge">
<title>Proc::Async&#45;&gt;Any</title>
<path fill="none" stroke="#000000" d="M63.04,-36.3C63.04,-44.02 63.04,-53.29 63.04,-61.89"/>
<polygon fill="#000000" stroke="#000000" points="59.54,-61.9 63.04,-71.9 66.54,-61.9 59.54,-61.9"/>
</g>
<!-- Mu -->
<g id="node2" class="node">
<title>Mu</title>
<g id="a_node2"><a xlink:href="/type/Mu" xlink:title="Mu">
<ellipse fill="none" stroke="#000000" cx="63.04" cy="-162" rx="27" ry="18"/>
<text text-anchor="middle" x="63.04" y="-158.3" font-family="FreeSans" font-size="14.00" fill="#000000">Mu</text>
</a>
</g>
</g>
<!-- Any&#45;&gt;Mu -->
<g id="edge2" class="edge">
<title>Any&#45;&gt;Mu</title>
<path fill="none" stroke="#000000" d="M63.04,-108.3C63.04,-116.02 63.04,-125.29 63.04,-133.89"/>
<polygon fill="#000000" stroke="#000000" points="59.54,-133.9 63.04,-143.9 66.54,-133.9 59.54,-133.9"/>
</g>
</g>
</svg>
