<?xml version="1.0" encoding="UTF-8" standalone="no"?>
<!DOCTYPE svg PUBLIC "-//W3C//DTD SVG 1.1//EN"
 "http://www.w3.org/Graphics/SVG/1.1/DTD/svg11.dtd">
<!-- Generated by graphviz version 2.42.3 (0)
 -->
<!-- Title: perl6&#45;type&#45;graph Pages: 1 -->
<svg width="310pt" height="404pt"
 viewBox="0.00 0.00 310.08 404.00" xmlns="http://www.w3.org/2000/svg" xmlns:xlink="http://www.w3.org/1999/xlink">
<g id="graph0" class="graph" transform="scale(1 1) rotate(0) translate(4 400)">
<title>perl6&#45;type&#45;graph</title>
<polygon fill="white" stroke="transparent" points="-4,4 -4,-400 306.08,-400 306.08,4 -4,4"/>
<!-- X::Syntax::NonAssociative -->
<g id="node1" class="node">
<title>X::Syntax::NonAssociative</title>
<g id="a_node1"><a xlink:href="/type/X::Syntax::NonAssociative" xlink:title="X::Syntax::NonAssociative">
<ellipse fill="none" stroke="#000000" cx="128.69" cy="-18" rx="128.88" ry="18"/>
<text text-anchor="middle" x="128.69" y="-14.3" font-family="FreeSans" font-size="14.00" fill="#000000">X::Syntax::NonAssociative</text>
</a>
</g>
</g>
<!-- Exception -->
<g id="node4" class="node">
<title>Exception</title>
<g id="a_node4"><a xlink:href="/type/Exception" xlink:title="Exception">
<ellipse fill="none" stroke="#000000" cx="151.69" cy="-234" rx="55.49" ry="18"/>
<text text-anchor="middle" x="151.69" y="-230.3" font-family="FreeSans" font-size="14.00" fill="#000000">Exception</text>
</a>
</g>
</g>
<!-- X::Syntax::NonAssociative&#45;&gt;Exception -->
<g id="edge1" class="edge">
<title>X::Syntax::NonAssociative&#45;&gt;Exception</title>
<path fill="none" stroke="#000000" d="M126.65,-36.15C127.1,-73.34 136.33,-161.63 144.16,-206.23"/>
<polygon fill="#000000" stroke="#000000" points="140.72,-206.88 146.01,-216.06 147.6,-205.59 140.72,-206.88"/>
</g>
<!-- X::Syntax::NonAssociative&#45;&gt;Exception -->
<g id="edge2" class="edge">
<title>X::Syntax::NonAssociative&#45;&gt;Exception</title>
<path fill="none" stroke="#000000" d="M134.41,-36.15C141.92,-73.17 151.62,-160.82 153.44,-205.61"/>
<polygon fill="#000000" stroke="#000000" points="149.94,-205.87 153.72,-215.77 156.94,-205.67 149.94,-205.87"/>
</g>
<!-- X::Syntax -->
<g id="node6" class="node">
<title>X::Syntax</title>
<g id="a_node6"><a xlink:href="/type/X::Syntax" xlink:title="X::Syntax">
<ellipse fill="none" stroke="#6666ff" cx="219.69" cy="-90" rx="53.89" ry="18"/>
<text text-anchor="middle" x="219.69" y="-86.3" font-family="FreeSans" font-size="14.00" fill="#6666ff">X::Syntax</text>
</a>
</g>
</g>
<!-- X::Syntax::NonAssociative&#45;&gt;X::Syntax -->
<g id="edge7" class="edge">
<title>X::Syntax::NonAssociative&#45;&gt;X::Syntax</title>
<path fill="none" stroke="#6666ff" d="M150.72,-35.95C162.8,-45.24 177.92,-56.87 190.92,-66.87"/>
<polygon fill="#6666ff" stroke="#6666ff" points="189.05,-69.85 199.11,-73.17 193.32,-64.3 189.05,-69.85"/>
</g>
<!-- Mu -->
<g id="node2" class="node">
<title>Mu</title>
<g id="a_node2"><a xlink:href="/type/Mu" xlink:title="Mu">
<ellipse fill="none" stroke="#000000" cx="151.69" cy="-378" rx="27" ry="18"/>
<text text-anchor="middle" x="151.69" y="-374.3" font-family="FreeSans" font-size="14.00" fill="#000000">Mu</text>
</a>
</g>
</g>
<!-- Any -->
<g id="node3" class="node">
<title>Any</title>
<g id="a_node3"><a xlink:href="/type/Any" xlink:title="Any">
<ellipse fill="none" stroke="#000000" cx="151.69" cy="-306" rx="28.7" ry="18"/>
<text text-anchor="middle" x="151.69" y="-302.3" font-family="FreeSans" font-size="14.00" fill="#000000">Any</text>
</a>
</g>
</g>
<!-- Any&#45;&gt;Mu -->
<g id="edge3" class="edge">
<title>Any&#45;&gt;Mu</title>
<path fill="none" stroke="#000000" d="M151.69,-324.3C151.69,-332.02 151.69,-341.29 151.69,-349.89"/>
<polygon fill="#000000" stroke="#000000" points="148.19,-349.9 151.69,-359.9 155.19,-349.9 148.19,-349.9"/>
</g>
<!-- Exception&#45;&gt;Any -->
<g id="edge4" class="edge">
<title>Exception&#45;&gt;Any</title>
<path fill="none" stroke="#000000" d="M151.69,-252.3C151.69,-260.02 151.69,-269.29 151.69,-277.89"/>
<polygon fill="#000000" stroke="#000000" points="148.19,-277.9 151.69,-287.9 155.19,-277.9 148.19,-277.9"/>
</g>
<!-- X::Comp -->
<g id="node5" class="node">
<title>X::Comp</title>
<g id="a_node5"><a xlink:href="/type/X::Comp" xlink:title="X::Comp">
<ellipse fill="none" stroke="#6666ff" cx="252.69" cy="-162" rx="49.29" ry="18"/>
<text text-anchor="middle" x="252.69" y="-158.3" font-family="FreeSans" font-size="14.00" fill="#6666ff">X::Comp</text>
</a>
</g>
</g>
<!-- X::Comp&#45;&gt;Exception -->
<g id="edge5" class="edge">
<title>X::Comp&#45;&gt;Exception</title>
<path fill="none" stroke="#000000" d="M230.77,-178.19C216.67,-187.96 198.14,-200.8 182.57,-211.6"/>
<polygon fill="#000000" stroke="#000000" points="180.49,-208.78 174.26,-217.36 184.47,-214.54 180.49,-208.78"/>
</g>
<!-- X::Syntax&#45;&gt;Exception -->
<g id="edge6" class="edge">
<title>X::Syntax&#45;&gt;Exception</title>
<path fill="none" stroke="#000000" d="M211.62,-107.85C199.86,-132.4 177.92,-178.23 164.1,-207.09"/>
<polygon fill="#000000" stroke="#000000" points="160.91,-205.64 159.75,-216.18 167.22,-208.67 160.91,-205.64"/>
</g>
<!-- X::Syntax&#45;&gt;X::Comp -->
<g id="edge8" class="edge">
<title>X::Syntax&#45;&gt;X::Comp</title>
<path fill="none" stroke="#6666ff" d="M227.68,-107.95C231.49,-116.03 236.13,-125.88 240.38,-134.89"/>
<polygon fill="#6666ff" stroke="#6666ff" points="237.34,-136.66 244.77,-144.21 243.68,-133.67 237.34,-136.66"/>
</g>
</g>
</svg>
