<?xml version="1.0" encoding="UTF-8" standalone="no"?>
<!DOCTYPE svg PUBLIC "-//W3C//DTD SVG 1.1//EN"
 "http://www.w3.org/Graphics/SVG/1.1/DTD/svg11.dtd">
<!-- Generated by graphviz version 2.42.3 (0)
 -->
<!-- Title: perl6&#45;type&#45;graph Pages: 1 -->
<svg width="220pt" height="188pt"
 viewBox="0.00 0.00 220.49 188.00" xmlns="http://www.w3.org/2000/svg" xmlns:xlink="http://www.w3.org/1999/xlink">
<g id="graph0" class="graph" transform="scale(1 1) rotate(0) translate(4 184)">
<title>perl6&#45;type&#45;graph</title>
<polygon fill="white" stroke="transparent" points="-4,4 -4,-184 216.49,-184 216.49,4 -4,4"/>
<!-- Buf -->
<g id="node1" class="node">
<title>Buf</title>
<g id="a_node1"><a xlink:href="/type/Buf" xlink:title="Buf">
<ellipse fill="none" stroke="#6666ff" cx="110.95" cy="-18" rx="27" ry="18"/>
<text text-anchor="middle" x="110.95" y="-14.3" font-family="FreeSans" font-size="14.00" fill="#6666ff">Buf</text>
</a>
</g>
</g>
<!-- Blob -->
<g id="node4" class="node">
<title>Blob</title>
<g id="a_node4"><a xlink:href="/type/Blob" xlink:title="Blob">
<ellipse fill="none" stroke="#6666ff" cx="110.95" cy="-90" rx="30.59" ry="18"/>
<text text-anchor="middle" x="110.95" y="-86.3" font-family="FreeSans" font-size="14.00" fill="#6666ff">Blob</text>
</a>
</g>
</g>
<!-- Buf&#45;&gt;Blob -->
<g id="edge1" class="edge">
<title>Buf&#45;&gt;Blob</title>
<path fill="none" stroke="#6666ff" d="M110.95,-36.3C110.95,-44.02 110.95,-53.29 110.95,-61.89"/>
<polygon fill="#6666ff" stroke="#6666ff" points="107.45,-61.9 110.95,-71.9 114.45,-61.9 107.45,-61.9"/>
</g>
<!-- Positional -->
<g id="node2" class="node">
<title>Positional</title>
<g id="a_node2"><a xlink:href="/type/Positional" xlink:title="Positional">
<ellipse fill="none" stroke="#6666ff" cx="53.95" cy="-162" rx="53.89" ry="18"/>
<text text-anchor="middle" x="53.95" y="-158.3" font-family="FreeSans" font-size="14.00" fill="#6666ff">Positional</text>
</a>
</g>
</g>
<!-- Stringy -->
<g id="node3" class="node">
<title>Stringy</title>
<g id="a_node3"><a xlink:href="/type/Stringy" xlink:title="Stringy">
<ellipse fill="none" stroke="#6666ff" cx="168.95" cy="-162" rx="43.59" ry="18"/>
<text text-anchor="middle" x="168.95" y="-158.3" font-family="FreeSans" font-size="14.00" fill="#6666ff">Stringy</text>
</a>
</g>
</g>
<!-- Blob&#45;&gt;Positional -->
<g id="edge2" class="edge">
<title>Blob&#45;&gt;Positional</title>
<path fill="none" stroke="#6666ff" d="M98.3,-106.54C91.12,-115.35 81.98,-126.57 73.87,-136.54"/>
<polygon fill="#6666ff" stroke="#6666ff" points="70.95,-134.57 67.35,-144.53 76.38,-138.99 70.95,-134.57"/>
</g>
<!-- Blob&#45;&gt;Stringy -->
<g id="edge3" class="edge">
<title>Blob&#45;&gt;Stringy</title>
<path fill="none" stroke="#6666ff" d="M123.82,-106.54C131.12,-115.35 140.42,-126.57 148.68,-136.54"/>
<polygon fill="#6666ff" stroke="#6666ff" points="146.23,-139.07 155.3,-144.53 151.62,-134.6 146.23,-139.07"/>
</g>
</g>
</svg>
