<?xml version="1.0" encoding="UTF-8" standalone="no"?>
<!DOCTYPE svg PUBLIC "-//W3C//DTD SVG 1.1//EN"
 "http://www.w3.org/Graphics/SVG/1.1/DTD/svg11.dtd">
<!-- Generated by graphviz version 2.42.3 (0)
 -->
<!-- Title: perl6&#45;type&#45;graph Pages: 1 -->
<svg width="328pt" height="404pt"
 viewBox="0.00 0.00 327.63 404.00" xmlns="http://www.w3.org/2000/svg" xmlns:xlink="http://www.w3.org/1999/xlink">
<g id="graph0" class="graph" transform="scale(1 1) rotate(0) translate(4 400)">
<title>perl6&#45;type&#45;graph</title>
<polygon fill="white" stroke="transparent" points="-4,4 -4,-400 323.63,-400 323.63,4 -4,4"/>
<!-- X::Syntax::InfixInTermPosition -->
<g id="node1" class="node">
<title>X::Syntax::InfixInTermPosition</title>
<g id="a_node1"><a xlink:href="/type/X::Syntax::InfixInTermPosition" xlink:title="X::Syntax::InfixInTermPosition">
<ellipse fill="none" stroke="#000000" cx="146.24" cy="-18" rx="146.47" ry="18"/>
<text text-anchor="middle" x="146.24" y="-14.3" font-family="FreeSans" font-size="14.00" fill="#000000">X::Syntax::InfixInTermPosition</text>
</a>
</g>
</g>
<!-- Exception -->
<g id="node4" class="node">
<title>Exception</title>
<g id="a_node4"><a xlink:href="/type/Exception" xlink:title="Exception">
<ellipse fill="none" stroke="#000000" cx="169.24" cy="-234" rx="55.49" ry="18"/>
<text text-anchor="middle" x="169.24" y="-230.3" font-family="FreeSans" font-size="14.00" fill="#000000">Exception</text>
</a>
</g>
</g>
<!-- X::Syntax::InfixInTermPosition&#45;&gt;Exception -->
<g id="edge1" class="edge">
<title>X::Syntax::InfixInTermPosition&#45;&gt;Exception</title>
<path fill="none" stroke="#000000" d="M144.2,-36.15C144.65,-73.34 153.88,-161.63 161.71,-206.23"/>
<polygon fill="#000000" stroke="#000000" points="158.27,-206.88 163.56,-216.06 165.15,-205.59 158.27,-206.88"/>
</g>
<!-- X::Syntax::InfixInTermPosition&#45;&gt;Exception -->
<g id="edge2" class="edge">
<title>X::Syntax::InfixInTermPosition&#45;&gt;Exception</title>
<path fill="none" stroke="#000000" d="M151.96,-36.15C159.47,-73.17 169.16,-160.82 170.99,-205.61"/>
<polygon fill="#000000" stroke="#000000" points="167.49,-205.87 171.27,-215.77 174.49,-205.67 167.49,-205.87"/>
</g>
<!-- X::Syntax -->
<g id="node6" class="node">
<title>X::Syntax</title>
<g id="a_node6"><a xlink:href="/type/X::Syntax" xlink:title="X::Syntax">
<ellipse fill="none" stroke="#6666ff" cx="237.24" cy="-90" rx="53.89" ry="18"/>
<text text-anchor="middle" x="237.24" y="-86.3" font-family="FreeSans" font-size="14.00" fill="#6666ff">X::Syntax</text>
</a>
</g>
</g>
<!-- X::Syntax::InfixInTermPosition&#45;&gt;X::Syntax -->
<g id="edge7" class="edge">
<title>X::Syntax::InfixInTermPosition&#45;&gt;X::Syntax</title>
<path fill="none" stroke="#6666ff" d="M168.27,-35.95C180.35,-45.24 195.47,-56.87 208.47,-66.87"/>
<polygon fill="#6666ff" stroke="#6666ff" points="206.6,-69.85 216.66,-73.17 210.87,-64.3 206.6,-69.85"/>
</g>
<!-- Mu -->
<g id="node2" class="node">
<title>Mu</title>
<g id="a_node2"><a xlink:href="/type/Mu" xlink:title="Mu">
<ellipse fill="none" stroke="#000000" cx="169.24" cy="-378" rx="27" ry="18"/>
<text text-anchor="middle" x="169.24" y="-374.3" font-family="FreeSans" font-size="14.00" fill="#000000">Mu</text>
</a>
</g>
</g>
<!-- Any -->
<g id="node3" class="node">
<title>Any</title>
<g id="a_node3"><a xlink:href="/type/Any" xlink:title="Any">
<ellipse fill="none" stroke="#000000" cx="169.24" cy="-306" rx="28.7" ry="18"/>
<text text-anchor="middle" x="169.24" y="-302.3" font-family="FreeSans" font-size="14.00" fill="#000000">Any</text>
</a>
</g>
</g>
<!-- Any&#45;&gt;Mu -->
<g id="edge3" class="edge">
<title>Any&#45;&gt;Mu</title>
<path fill="none" stroke="#000000" d="M169.24,-324.3C169.24,-332.02 169.24,-341.29 169.24,-349.89"/>
<polygon fill="#000000" stroke="#000000" points="165.74,-349.9 169.24,-359.9 172.74,-349.9 165.74,-349.9"/>
</g>
<!-- Exception&#45;&gt;Any -->
<g id="edge4" class="edge">
<title>Exception&#45;&gt;Any</title>
<path fill="none" stroke="#000000" d="M169.24,-252.3C169.24,-260.02 169.24,-269.29 169.24,-277.89"/>
<polygon fill="#000000" stroke="#000000" points="165.74,-277.9 169.24,-287.9 172.74,-277.9 165.74,-277.9"/>
</g>
<!-- X::Comp -->
<g id="node5" class="node">
<title>X::Comp</title>
<g id="a_node5"><a xlink:href="/type/X::Comp" xlink:title="X::Comp">
<ellipse fill="none" stroke="#6666ff" cx="270.24" cy="-162" rx="49.29" ry="18"/>
<text text-anchor="middle" x="270.24" y="-158.3" font-family="FreeSans" font-size="14.00" fill="#6666ff">X::Comp</text>
</a>
</g>
</g>
<!-- X::Comp&#45;&gt;Exception -->
<g id="edge5" class="edge">
<title>X::Comp&#45;&gt;Exception</title>
<path fill="none" stroke="#000000" d="M248.32,-178.19C234.22,-187.96 215.69,-200.8 200.11,-211.6"/>
<polygon fill="#000000" stroke="#000000" points="198.03,-208.78 191.81,-217.36 202.02,-214.54 198.03,-208.78"/>
</g>
<!-- X::Syntax&#45;&gt;Exception -->
<g id="edge6" class="edge">
<title>X::Syntax&#45;&gt;Exception</title>
<path fill="none" stroke="#000000" d="M229.17,-107.85C217.41,-132.4 195.47,-178.23 181.64,-207.09"/>
<polygon fill="#000000" stroke="#000000" points="178.46,-205.64 177.29,-216.18 184.77,-208.67 178.46,-205.64"/>
</g>
<!-- X::Syntax&#45;&gt;X::Comp -->
<g id="edge8" class="edge">
<title>X::Syntax&#45;&gt;X::Comp</title>
<path fill="none" stroke="#6666ff" d="M245.23,-107.95C249.04,-116.03 253.68,-125.88 257.93,-134.89"/>
<polygon fill="#6666ff" stroke="#6666ff" points="254.89,-136.66 262.32,-144.21 261.22,-133.67 254.89,-136.66"/>
</g>
</g>
</svg>
