<?xml version="1.0" encoding="UTF-8" standalone="no"?>
<!DOCTYPE svg PUBLIC "-//W3C//DTD SVG 1.1//EN"
 "http://www.w3.org/Graphics/SVG/1.1/DTD/svg11.dtd">
<!-- Generated by graphviz version 2.42.3 (0)
 -->
<!-- Title: perl6&#45;type&#45;graph Pages: 1 -->
<svg width="170pt" height="332pt"
 viewBox="0.00 0.00 170.24 332.00" xmlns="http://www.w3.org/2000/svg" xmlns:xlink="http://www.w3.org/1999/xlink">
<g id="graph0" class="graph" transform="scale(1 1) rotate(0) translate(4 328)">
<title>perl6&#45;type&#45;graph</title>
<polygon fill="white" stroke="transparent" points="-4,4 -4,-328 166.24,-328 166.24,4 -4,4"/>
<!-- CX::Proceed -->
<g id="node1" class="node">
<title>CX::Proceed</title>
<g id="a_node1"><a xlink:href="/type/CX::Proceed" xlink:title="CX::Proceed">
<ellipse fill="none" stroke="#000000" cx="64.99" cy="-18" rx="64.99" ry="18"/>
<text text-anchor="middle" x="64.99" y="-14.3" font-family="FreeSans" font-size="14.00" fill="#000000">CX::Proceed</text>
</a>
</g>
</g>
<!-- Exception -->
<g id="node4" class="node">
<title>Exception</title>
<g id="a_node4"><a xlink:href="/type/Exception" xlink:title="Exception">
<ellipse fill="none" stroke="#000000" cx="64.99" cy="-162" rx="55.49" ry="18"/>
<text text-anchor="middle" x="64.99" y="-158.3" font-family="FreeSans" font-size="14.00" fill="#000000">Exception</text>
</a>
</g>
</g>
<!-- CX::Proceed&#45;&gt;Exception -->
<g id="edge1" class="edge">
<title>CX::Proceed&#45;&gt;Exception</title>
<path fill="none" stroke="#000000" d="M57.91,-36.06C51.48,-51.55 42.99,-72 42.99,-72 42.99,-72 42.99,-108 42.99,-108 42.99,-108 48.49,-121.24 53.99,-134.48"/>
<polygon fill="#000000" stroke="#000000" points="50.85,-136.04 57.91,-143.94 57.31,-133.36 50.85,-136.04"/>
</g>
<!-- X::Control -->
<g id="node5" class="node">
<title>X::Control</title>
<g id="a_node5"><a xlink:href="/type/X::Control" xlink:title="X::Control">
<ellipse fill="none" stroke="#6666ff" cx="106.99" cy="-90" rx="55.49" ry="18"/>
<text text-anchor="middle" x="106.99" y="-86.3" font-family="FreeSans" font-size="14.00" fill="#6666ff">X::Control</text>
</a>
</g>
</g>
<!-- CX::Proceed&#45;&gt;X::Control -->
<g id="edge5" class="edge">
<title>CX::Proceed&#45;&gt;X::Control</title>
<path fill="none" stroke="#6666ff" d="M75.16,-35.95C80.11,-44.2 86.17,-54.3 91.67,-63.46"/>
<polygon fill="#6666ff" stroke="#6666ff" points="88.77,-65.44 96.92,-72.21 94.78,-61.84 88.77,-65.44"/>
</g>
<!-- Mu -->
<g id="node2" class="node">
<title>Mu</title>
<g id="a_node2"><a xlink:href="/type/Mu" xlink:title="Mu">
<ellipse fill="none" stroke="#000000" cx="64.99" cy="-306" rx="27" ry="18"/>
<text text-anchor="middle" x="64.99" y="-302.3" font-family="FreeSans" font-size="14.00" fill="#000000">Mu</text>
</a>
</g>
</g>
<!-- Any -->
<g id="node3" class="node">
<title>Any</title>
<g id="a_node3"><a xlink:href="/type/Any" xlink:title="Any">
<ellipse fill="none" stroke="#000000" cx="64.99" cy="-234" rx="28.7" ry="18"/>
<text text-anchor="middle" x="64.99" y="-230.3" font-family="FreeSans" font-size="14.00" fill="#000000">Any</text>
</a>
</g>
</g>
<!-- Any&#45;&gt;Mu -->
<g id="edge2" class="edge">
<title>Any&#45;&gt;Mu</title>
<path fill="none" stroke="#000000" d="M64.99,-252.3C64.99,-260.02 64.99,-269.29 64.99,-277.89"/>
<polygon fill="#000000" stroke="#000000" points="61.49,-277.9 64.99,-287.9 68.49,-277.9 61.49,-277.9"/>
</g>
<!-- Exception&#45;&gt;Any -->
<g id="edge3" class="edge">
<title>Exception&#45;&gt;Any</title>
<path fill="none" stroke="#000000" d="M64.99,-180.3C64.99,-188.02 64.99,-197.29 64.99,-205.89"/>
<polygon fill="#000000" stroke="#000000" points="61.49,-205.9 64.99,-215.9 68.49,-205.9 61.49,-205.9"/>
</g>
<!-- X::Control&#45;&gt;Exception -->
<g id="edge4" class="edge">
<title>X::Control&#45;&gt;Exception</title>
<path fill="none" stroke="#000000" d="M96.83,-107.95C91.87,-116.2 85.82,-126.3 80.32,-135.46"/>
<polygon fill="#000000" stroke="#000000" points="77.21,-133.84 75.07,-144.21 83.21,-137.44 77.21,-133.84"/>
</g>
</g>
</svg>
