<?xml version="1.0" encoding="UTF-8" standalone="no"?>
<!DOCTYPE svg PUBLIC "-//W3C//DTD SVG 1.1//EN"
 "http://www.w3.org/Graphics/SVG/1.1/DTD/svg11.dtd">
<!-- Generated by graphviz version 2.42.3 (0)
 -->
<!-- Title: perl6&#45;type&#45;graph Pages: 1 -->
<svg width="77pt" height="188pt"
 viewBox="0.00 0.00 76.89 188.00" xmlns="http://www.w3.org/2000/svg" xmlns:xlink="http://www.w3.org/1999/xlink">
<g id="graph0" class="graph" transform="scale(1 1) rotate(0) translate(4 184)">
<title>perl6&#45;type&#45;graph</title>
<polygon fill="white" stroke="transparent" points="-4,4 -4,-184 72.89,-184 72.89,4 -4,4"/>
<!-- Label -->
<g id="node1" class="node">
<title>Label</title>
<g id="a_node1"><a xlink:href="/type/Label" xlink:title="Label">
<ellipse fill="none" stroke="#000000" cx="34.45" cy="-18" rx="34.39" ry="18"/>
<text text-anchor="middle" x="34.45" y="-14.3" font-family="FreeSans" font-size="14.00" fill="#000000">Label</text>
</a>
</g>
</g>
<!-- Any -->
<g id="node3" class="node">
<title>Any</title>
<g id="a_node3"><a xlink:href="/type/Any" xlink:title="Any">
<ellipse fill="none" stroke="#000000" cx="34.45" cy="-90" rx="28.7" ry="18"/>
<text text-anchor="middle" x="34.45" y="-86.3" font-family="FreeSans" font-size="14.00" fill="#000000">Any</text>
</a>
</g>
</g>
<!-- Label&#45;&gt;Any -->
<g id="edge1" class="edge">
<title>Label&#45;&gt;Any</title>
<path fill="none" stroke="#000000" d="M34.45,-36.3C34.45,-44.02 34.45,-53.29 34.45,-61.89"/>
<polygon fill="#000000" stroke="#000000" points="30.95,-61.9 34.45,-71.9 37.95,-61.9 30.95,-61.9"/>
</g>
<!-- Mu -->
<g id="node2" class="node">
<title>Mu</title>
<g id="a_node2"><a xlink:href="/type/Mu" xlink:title="Mu">
<ellipse fill="none" stroke="#000000" cx="34.45" cy="-162" rx="27" ry="18"/>
<text text-anchor="middle" x="34.45" y="-158.3" font-family="FreeSans" font-size="14.00" fill="#000000">Mu</text>
</a>
</g>
</g>
<!-- Any&#45;&gt;Mu -->
<g id="edge2" class="edge">
<title>Any&#45;&gt;Mu</title>
<path fill="none" stroke="#000000" d="M34.45,-108.3C34.45,-116.02 34.45,-125.29 34.45,-133.89"/>
<polygon fill="#000000" stroke="#000000" points="30.95,-133.9 34.45,-143.9 37.95,-133.9 30.95,-133.9"/>
</g>
</g>
</svg>
