<?xml version="1.0" encoding="UTF-8" standalone="no"?>
<!DOCTYPE svg PUBLIC "-//W3C//DTD SVG 1.1//EN"
 "http://www.w3.org/Graphics/SVG/1.1/DTD/svg11.dtd">
<!-- Generated by graphviz version 2.42.3 (0)
 -->
<!-- Title: perl6&#45;type&#45;graph Pages: 1 -->
<svg width="337pt" height="404pt"
 viewBox="0.00 0.00 336.73 404.00" xmlns="http://www.w3.org/2000/svg" xmlns:xlink="http://www.w3.org/1999/xlink">
<g id="graph0" class="graph" transform="scale(1 1) rotate(0) translate(4 400)">
<title>perl6&#45;type&#45;graph</title>
<polygon fill="white" stroke="transparent" points="-4,4 -4,-400 332.73,-400 332.73,4 -4,4"/>
<!-- X::Backslash::NonVariableDollar -->
<g id="node1" class="node">
<title>X::Backslash::NonVariableDollar</title>
<g id="a_node1"><a xlink:href="/type/X::Backslash::NonVariableDollar" xlink:title="X::Backslash::NonVariableDollar">
<ellipse fill="none" stroke="#000000" cx="155.34" cy="-18" rx="155.17" ry="18"/>
<text text-anchor="middle" x="155.34" y="-14.3" font-family="FreeSans" font-size="14.00" fill="#000000">X::Backslash::NonVariableDollar</text>
</a>
</g>
</g>
<!-- Exception -->
<g id="node4" class="node">
<title>Exception</title>
<g id="a_node4"><a xlink:href="/type/Exception" xlink:title="Exception">
<ellipse fill="none" stroke="#000000" cx="178.34" cy="-234" rx="55.49" ry="18"/>
<text text-anchor="middle" x="178.34" y="-230.3" font-family="FreeSans" font-size="14.00" fill="#000000">Exception</text>
</a>
</g>
</g>
<!-- X::Backslash::NonVariableDollar&#45;&gt;Exception -->
<g id="edge1" class="edge">
<title>X::Backslash::NonVariableDollar&#45;&gt;Exception</title>
<path fill="none" stroke="#000000" d="M153.3,-36.15C153.75,-73.34 162.98,-161.63 170.81,-206.23"/>
<polygon fill="#000000" stroke="#000000" points="167.37,-206.88 172.66,-216.06 174.25,-205.59 167.37,-206.88"/>
</g>
<!-- X::Backslash::NonVariableDollar&#45;&gt;Exception -->
<g id="edge2" class="edge">
<title>X::Backslash::NonVariableDollar&#45;&gt;Exception</title>
<path fill="none" stroke="#000000" d="M161.06,-36.15C168.57,-73.17 178.26,-160.82 180.08,-205.61"/>
<polygon fill="#000000" stroke="#000000" points="176.59,-205.87 180.37,-215.77 183.59,-205.67 176.59,-205.87"/>
</g>
<!-- X::Syntax -->
<g id="node6" class="node">
<title>X::Syntax</title>
<g id="a_node6"><a xlink:href="/type/X::Syntax" xlink:title="X::Syntax">
<ellipse fill="none" stroke="#6666ff" cx="246.34" cy="-90" rx="53.89" ry="18"/>
<text text-anchor="middle" x="246.34" y="-86.3" font-family="FreeSans" font-size="14.00" fill="#6666ff">X::Syntax</text>
</a>
</g>
</g>
<!-- X::Backslash::NonVariableDollar&#45;&gt;X::Syntax -->
<g id="edge7" class="edge">
<title>X::Backslash::NonVariableDollar&#45;&gt;X::Syntax</title>
<path fill="none" stroke="#6666ff" d="M177.36,-35.95C189.45,-45.24 204.57,-56.87 217.57,-66.87"/>
<polygon fill="#6666ff" stroke="#6666ff" points="215.7,-69.85 225.76,-73.17 219.97,-64.3 215.7,-69.85"/>
</g>
<!-- Mu -->
<g id="node2" class="node">
<title>Mu</title>
<g id="a_node2"><a xlink:href="/type/Mu" xlink:title="Mu">
<ellipse fill="none" stroke="#000000" cx="178.34" cy="-378" rx="27" ry="18"/>
<text text-anchor="middle" x="178.34" y="-374.3" font-family="FreeSans" font-size="14.00" fill="#000000">Mu</text>
</a>
</g>
</g>
<!-- Any -->
<g id="node3" class="node">
<title>Any</title>
<g id="a_node3"><a xlink:href="/type/Any" xlink:title="Any">
<ellipse fill="none" stroke="#000000" cx="178.34" cy="-306" rx="28.7" ry="18"/>
<text text-anchor="middle" x="178.34" y="-302.3" font-family="FreeSans" font-size="14.00" fill="#000000">Any</text>
</a>
</g>
</g>
<!-- Any&#45;&gt;Mu -->
<g id="edge3" class="edge">
<title>Any&#45;&gt;Mu</title>
<path fill="none" stroke="#000000" d="M178.34,-324.3C178.34,-332.02 178.34,-341.29 178.34,-349.89"/>
<polygon fill="#000000" stroke="#000000" points="174.84,-349.9 178.34,-359.9 181.84,-349.9 174.84,-349.9"/>
</g>
<!-- Exception&#45;&gt;Any -->
<g id="edge4" class="edge">
<title>Exception&#45;&gt;Any</title>
<path fill="none" stroke="#000000" d="M178.34,-252.3C178.34,-260.02 178.34,-269.29 178.34,-277.89"/>
<polygon fill="#000000" stroke="#000000" points="174.84,-277.9 178.34,-287.9 181.84,-277.9 174.84,-277.9"/>
</g>
<!-- X::Comp -->
<g id="node5" class="node">
<title>X::Comp</title>
<g id="a_node5"><a xlink:href="/type/X::Comp" xlink:title="X::Comp">
<ellipse fill="none" stroke="#6666ff" cx="279.34" cy="-162" rx="49.29" ry="18"/>
<text text-anchor="middle" x="279.34" y="-158.3" font-family="FreeSans" font-size="14.00" fill="#6666ff">X::Comp</text>
</a>
</g>
</g>
<!-- X::Comp&#45;&gt;Exception -->
<g id="edge5" class="edge">
<title>X::Comp&#45;&gt;Exception</title>
<path fill="none" stroke="#000000" d="M257.42,-178.19C243.32,-187.96 224.79,-200.8 209.21,-211.6"/>
<polygon fill="#000000" stroke="#000000" points="207.13,-208.78 200.91,-217.36 211.12,-214.54 207.13,-208.78"/>
</g>
<!-- X::Syntax&#45;&gt;Exception -->
<g id="edge6" class="edge">
<title>X::Syntax&#45;&gt;Exception</title>
<path fill="none" stroke="#000000" d="M238.27,-107.85C226.51,-132.4 204.57,-178.23 190.74,-207.09"/>
<polygon fill="#000000" stroke="#000000" points="187.56,-205.64 186.39,-216.18 193.87,-208.67 187.56,-205.64"/>
</g>
<!-- X::Syntax&#45;&gt;X::Comp -->
<g id="edge8" class="edge">
<title>X::Syntax&#45;&gt;X::Comp</title>
<path fill="none" stroke="#6666ff" d="M254.32,-107.95C258.13,-116.03 262.78,-125.88 267.03,-134.89"/>
<polygon fill="#6666ff" stroke="#6666ff" points="263.99,-136.66 271.42,-144.21 270.32,-133.67 263.99,-136.66"/>
</g>
</g>
</svg>
