<?xml version="1.0" encoding="UTF-8" standalone="no"?>
<!DOCTYPE svg PUBLIC "-//W3C//DTD SVG 1.1//EN"
 "http://www.w3.org/Graphics/SVG/1.1/DTD/svg11.dtd">
<!-- Generated by graphviz version 2.42.3 (0)
 -->
<!-- Title: perl6&#45;type&#45;graph Pages: 1 -->
<svg width="188pt" height="260pt"
 viewBox="0.00 0.00 187.59 260.00" xmlns="http://www.w3.org/2000/svg" xmlns:xlink="http://www.w3.org/1999/xlink">
<g id="graph0" class="graph" transform="scale(1 1) rotate(0) translate(4 256)">
<title>perl6&#45;type&#45;graph</title>
<polygon fill="white" stroke="transparent" points="-4,4 -4,-256 183.59,-256 183.59,4 -4,4"/>
<!-- Perl -->
<g id="node1" class="node">
<title>Perl</title>
<g id="a_node1"><a xlink:href="/type/Perl" xlink:title="Perl">
<ellipse fill="none" stroke="#000000" cx="77.6" cy="-18" rx="27.9" ry="18"/>
<text text-anchor="middle" x="77.6" y="-14.3" font-family="FreeSans" font-size="14.00" fill="#000000">Perl</text>
</a>
</g>
</g>
<!-- Raku -->
<g id="node5" class="node">
<title>Raku</title>
<g id="a_node5"><a xlink:href="/type/Raku" xlink:title="Raku">
<ellipse fill="none" stroke="#000000" cx="77.6" cy="-90" rx="33.6" ry="18"/>
<text text-anchor="middle" x="77.6" y="-86.3" font-family="FreeSans" font-size="14.00" fill="#000000">Raku</text>
</a>
</g>
</g>
<!-- Perl&#45;&gt;Raku -->
<g id="edge1" class="edge">
<title>Perl&#45;&gt;Raku</title>
<path fill="none" stroke="#000000" d="M77.6,-36.3C77.6,-44.02 77.6,-53.29 77.6,-61.89"/>
<polygon fill="#000000" stroke="#000000" points="74.1,-61.9 77.6,-71.9 81.1,-61.9 74.1,-61.9"/>
</g>
<!-- Mu -->
<g id="node2" class="node">
<title>Mu</title>
<g id="a_node2"><a xlink:href="/type/Mu" xlink:title="Mu">
<ellipse fill="none" stroke="#000000" cx="28.6" cy="-234" rx="27" ry="18"/>
<text text-anchor="middle" x="28.6" y="-230.3" font-family="FreeSans" font-size="14.00" fill="#000000">Mu</text>
</a>
</g>
</g>
<!-- Any -->
<g id="node3" class="node">
<title>Any</title>
<g id="a_node3"><a xlink:href="/type/Any" xlink:title="Any">
<ellipse fill="none" stroke="#000000" cx="28.6" cy="-162" rx="28.7" ry="18"/>
<text text-anchor="middle" x="28.6" y="-158.3" font-family="FreeSans" font-size="14.00" fill="#000000">Any</text>
</a>
</g>
</g>
<!-- Any&#45;&gt;Mu -->
<g id="edge2" class="edge">
<title>Any&#45;&gt;Mu</title>
<path fill="none" stroke="#000000" d="M28.6,-180.3C28.6,-188.02 28.6,-197.29 28.6,-205.89"/>
<polygon fill="#000000" stroke="#000000" points="25.1,-205.9 28.6,-215.9 32.1,-205.9 25.1,-205.9"/>
</g>
<!-- Systemic -->
<g id="node4" class="node">
<title>Systemic</title>
<g id="a_node4"><a xlink:href="/type/Systemic" xlink:title="Systemic">
<ellipse fill="none" stroke="#6666ff" cx="127.6" cy="-162" rx="51.99" ry="18"/>
<text text-anchor="middle" x="127.6" y="-158.3" font-family="FreeSans" font-size="14.00" fill="#6666ff">Systemic</text>
</a>
</g>
</g>
<!-- Raku&#45;&gt;Any -->
<g id="edge3" class="edge">
<title>Raku&#45;&gt;Any</title>
<path fill="none" stroke="#000000" d="M66.23,-107.24C60.02,-116.11 52.21,-127.26 45.32,-137.11"/>
<polygon fill="#000000" stroke="#000000" points="42.43,-135.13 39.56,-145.33 48.17,-139.15 42.43,-135.13"/>
</g>
<!-- Raku&#45;&gt;Systemic -->
<g id="edge4" class="edge">
<title>Raku&#45;&gt;Systemic</title>
<path fill="none" stroke="#6666ff" d="M89.19,-107.24C95.29,-115.77 102.9,-126.42 109.73,-135.98"/>
<polygon fill="#6666ff" stroke="#6666ff" points="107.06,-138.26 115.72,-144.37 112.75,-134.19 107.06,-138.26"/>
</g>
</g>
</svg>
