<?xml version="1.0" encoding="UTF-8" standalone="no"?>
<!DOCTYPE svg PUBLIC "-//W3C//DTD SVG 1.1//EN"
 "http://www.w3.org/Graphics/SVG/1.1/DTD/svg11.dtd">
<!-- Generated by graphviz version 2.42.3 (0)
 -->
<!-- Title: perl6&#45;type&#45;graph Pages: 1 -->
<svg width="178pt" height="260pt"
 viewBox="0.00 0.00 178.49 260.00" xmlns="http://www.w3.org/2000/svg" xmlns:xlink="http://www.w3.org/1999/xlink">
<g id="graph0" class="graph" transform="scale(1 1) rotate(0) translate(4 256)">
<title>perl6&#45;type&#45;graph</title>
<polygon fill="white" stroke="transparent" points="-4,4 -4,-256 174.49,-256 174.49,4 -4,4"/>
<!-- WhateverCode -->
<g id="node1" class="node">
<title>WhateverCode</title>
<g id="a_node1"><a xlink:href="/type/WhateverCode" xlink:title="WhateverCode">
<ellipse fill="none" stroke="#000000" cx="77.34" cy="-18" rx="77.19" ry="18"/>
<text text-anchor="middle" x="77.34" y="-14.3" font-family="FreeSans" font-size="14.00" fill="#000000">WhateverCode</text>
</a>
</g>
</g>
<!-- Code -->
<g id="node5" class="node">
<title>Code</title>
<g id="a_node5"><a xlink:href="/type/Code" xlink:title="Code">
<ellipse fill="none" stroke="#000000" cx="77.34" cy="-90" rx="33.6" ry="18"/>
<text text-anchor="middle" x="77.34" y="-86.3" font-family="FreeSans" font-size="14.00" fill="#000000">Code</text>
</a>
</g>
</g>
<!-- WhateverCode&#45;&gt;Code -->
<g id="edge1" class="edge">
<title>WhateverCode&#45;&gt;Code</title>
<path fill="none" stroke="#000000" d="M77.34,-36.3C77.34,-44.02 77.34,-53.29 77.34,-61.89"/>
<polygon fill="#000000" stroke="#000000" points="73.84,-61.9 77.34,-71.9 80.84,-61.9 73.84,-61.9"/>
</g>
<!-- Mu -->
<g id="node2" class="node">
<title>Mu</title>
<g id="a_node2"><a xlink:href="/type/Mu" xlink:title="Mu">
<ellipse fill="none" stroke="#000000" cx="31.34" cy="-234" rx="27" ry="18"/>
<text text-anchor="middle" x="31.34" y="-230.3" font-family="FreeSans" font-size="14.00" fill="#000000">Mu</text>
</a>
</g>
</g>
<!-- Any -->
<g id="node3" class="node">
<title>Any</title>
<g id="a_node3"><a xlink:href="/type/Any" xlink:title="Any">
<ellipse fill="none" stroke="#000000" cx="31.34" cy="-162" rx="28.7" ry="18"/>
<text text-anchor="middle" x="31.34" y="-158.3" font-family="FreeSans" font-size="14.00" fill="#000000">Any</text>
</a>
</g>
</g>
<!-- Any&#45;&gt;Mu -->
<g id="edge2" class="edge">
<title>Any&#45;&gt;Mu</title>
<path fill="none" stroke="#000000" d="M31.34,-180.3C31.34,-188.02 31.34,-197.29 31.34,-205.89"/>
<polygon fill="#000000" stroke="#000000" points="27.84,-205.9 31.34,-215.9 34.84,-205.9 27.84,-205.9"/>
</g>
<!-- Callable -->
<g id="node4" class="node">
<title>Callable</title>
<g id="a_node4"><a xlink:href="/type/Callable" xlink:title="Callable">
<ellipse fill="none" stroke="#6666ff" cx="124.34" cy="-162" rx="46.29" ry="18"/>
<text text-anchor="middle" x="124.34" y="-158.3" font-family="FreeSans" font-size="14.00" fill="#6666ff">Callable</text>
</a>
</g>
</g>
<!-- Code&#45;&gt;Any -->
<g id="edge3" class="edge">
<title>Code&#45;&gt;Any</title>
<path fill="none" stroke="#000000" d="M66.67,-107.24C60.98,-115.89 53.87,-126.73 47.51,-136.4"/>
<polygon fill="#000000" stroke="#000000" points="44.52,-134.57 41.95,-144.85 50.37,-138.42 44.52,-134.57"/>
</g>
<!-- Code&#45;&gt;Callable -->
<g id="edge4" class="edge">
<title>Code&#45;&gt;Callable</title>
<path fill="none" stroke="#6666ff" d="M88.24,-107.24C93.97,-115.77 101.12,-126.42 107.54,-135.98"/>
<polygon fill="#6666ff" stroke="#6666ff" points="104.69,-138.02 113.17,-144.37 110.51,-134.11 104.69,-138.02"/>
</g>
</g>
</svg>
