<?xml version="1.0" encoding="UTF-8" standalone="no"?>
<!DOCTYPE svg PUBLIC "-//W3C//DTD SVG 1.1//EN"
 "http://www.w3.org/Graphics/SVG/1.1/DTD/svg11.dtd">
<!-- Generated by graphviz version 2.42.3 (0)
 -->
<!-- Title: perl6&#45;type&#45;graph Pages: 1 -->
<svg width="160pt" height="332pt"
 viewBox="0.00 0.00 160.49 332.00" xmlns="http://www.w3.org/2000/svg" xmlns:xlink="http://www.w3.org/1999/xlink">
<g id="graph0" class="graph" transform="scale(1 1) rotate(0) translate(4 328)">
<title>perl6&#45;type&#45;graph</title>
<polygon fill="white" stroke="transparent" points="-4,4 -4,-328 156.49,-328 156.49,4 -4,4"/>
<!-- CX::Done -->
<g id="node1" class="node">
<title>CX::Done</title>
<g id="a_node1"><a xlink:href="/type/CX::Done" xlink:title="CX::Done">
<ellipse fill="none" stroke="#000000" cx="55.25" cy="-18" rx="52.79" ry="18"/>
<text text-anchor="middle" x="55.25" y="-14.3" font-family="FreeSans" font-size="14.00" fill="#000000">CX::Done</text>
</a>
</g>
</g>
<!-- Exception -->
<g id="node4" class="node">
<title>Exception</title>
<g id="a_node4"><a xlink:href="/type/Exception" xlink:title="Exception">
<ellipse fill="none" stroke="#000000" cx="55.25" cy="-162" rx="55.49" ry="18"/>
<text text-anchor="middle" x="55.25" y="-158.3" font-family="FreeSans" font-size="14.00" fill="#000000">Exception</text>
</a>
</g>
</g>
<!-- CX::Done&#45;&gt;Exception -->
<g id="edge1" class="edge">
<title>CX::Done&#45;&gt;Exception</title>
<path fill="none" stroke="#000000" d="M48.16,-36.06C41.73,-51.55 33.25,-72 33.25,-72 33.25,-72 33.25,-108 33.25,-108 33.25,-108 38.74,-121.24 44.24,-134.48"/>
<polygon fill="#000000" stroke="#000000" points="41.1,-136.04 48.16,-143.94 47.56,-133.36 41.1,-136.04"/>
</g>
<!-- X::Control -->
<g id="node5" class="node">
<title>X::Control</title>
<g id="a_node5"><a xlink:href="/type/X::Control" xlink:title="X::Control">
<ellipse fill="none" stroke="#6666ff" cx="97.25" cy="-90" rx="55.49" ry="18"/>
<text text-anchor="middle" x="97.25" y="-86.3" font-family="FreeSans" font-size="14.00" fill="#6666ff">X::Control</text>
</a>
</g>
</g>
<!-- CX::Done&#45;&gt;X::Control -->
<g id="edge5" class="edge">
<title>CX::Done&#45;&gt;X::Control</title>
<path fill="none" stroke="#6666ff" d="M65.41,-35.95C70.36,-44.2 76.42,-54.3 81.92,-63.46"/>
<polygon fill="#6666ff" stroke="#6666ff" points="79.03,-65.44 87.17,-72.21 85.03,-61.84 79.03,-65.44"/>
</g>
<!-- Mu -->
<g id="node2" class="node">
<title>Mu</title>
<g id="a_node2"><a xlink:href="/type/Mu" xlink:title="Mu">
<ellipse fill="none" stroke="#000000" cx="55.25" cy="-306" rx="27" ry="18"/>
<text text-anchor="middle" x="55.25" y="-302.3" font-family="FreeSans" font-size="14.00" fill="#000000">Mu</text>
</a>
</g>
</g>
<!-- Any -->
<g id="node3" class="node">
<title>Any</title>
<g id="a_node3"><a xlink:href="/type/Any" xlink:title="Any">
<ellipse fill="none" stroke="#000000" cx="55.25" cy="-234" rx="28.7" ry="18"/>
<text text-anchor="middle" x="55.25" y="-230.3" font-family="FreeSans" font-size="14.00" fill="#000000">Any</text>
</a>
</g>
</g>
<!-- Any&#45;&gt;Mu -->
<g id="edge2" class="edge">
<title>Any&#45;&gt;Mu</title>
<path fill="none" stroke="#000000" d="M55.25,-252.3C55.25,-260.02 55.25,-269.29 55.25,-277.89"/>
<polygon fill="#000000" stroke="#000000" points="51.75,-277.9 55.25,-287.9 58.75,-277.9 51.75,-277.9"/>
</g>
<!-- Exception&#45;&gt;Any -->
<g id="edge3" class="edge">
<title>Exception&#45;&gt;Any</title>
<path fill="none" stroke="#000000" d="M55.25,-180.3C55.25,-188.02 55.25,-197.29 55.25,-205.89"/>
<polygon fill="#000000" stroke="#000000" points="51.75,-205.9 55.25,-215.9 58.75,-205.9 51.75,-205.9"/>
</g>
<!-- X::Control&#45;&gt;Exception -->
<g id="edge4" class="edge">
<title>X::Control&#45;&gt;Exception</title>
<path fill="none" stroke="#000000" d="M87.08,-107.95C82.13,-116.2 76.07,-126.3 70.57,-135.46"/>
<polygon fill="#000000" stroke="#000000" points="67.46,-133.84 65.32,-144.21 73.46,-137.44 67.46,-133.84"/>
</g>
</g>
</svg>
