<?xml version="1.0" encoding="UTF-8" standalone="no"?>
<!DOCTYPE svg PUBLIC "-//W3C//DTD SVG 1.1//EN"
 "http://www.w3.org/Graphics/SVG/1.1/DTD/svg11.dtd">
<!-- Generated by graphviz version 2.42.3 (0)
 -->
<!-- Title: perl6&#45;type&#45;graph Pages: 1 -->
<svg width="352pt" height="404pt"
 viewBox="0.00 0.00 352.33 404.00" xmlns="http://www.w3.org/2000/svg" xmlns:xlink="http://www.w3.org/1999/xlink">
<g id="graph0" class="graph" transform="scale(1 1) rotate(0) translate(4 400)">
<title>perl6&#45;type&#45;graph</title>
<polygon fill="white" stroke="transparent" points="-4,4 -4,-400 348.33,-400 348.33,4 -4,4"/>
<!-- X::Syntax::Regex::MalformedRange -->
<g id="node1" class="node">
<title>X::Syntax::Regex::MalformedRange</title>
<g id="a_node1"><a xlink:href="/type/X::Syntax::Regex::MalformedRange" xlink:title="X::Syntax::Regex::MalformedRange">
<ellipse fill="none" stroke="#000000" cx="170.93" cy="-18" rx="170.87" ry="18"/>
<text text-anchor="middle" x="170.93" y="-14.3" font-family="FreeSans" font-size="14.00" fill="#000000">X::Syntax::Regex::MalformedRange</text>
</a>
</g>
</g>
<!-- Exception -->
<g id="node4" class="node">
<title>Exception</title>
<g id="a_node4"><a xlink:href="/type/Exception" xlink:title="Exception">
<ellipse fill="none" stroke="#000000" cx="193.93" cy="-234" rx="55.49" ry="18"/>
<text text-anchor="middle" x="193.93" y="-230.3" font-family="FreeSans" font-size="14.00" fill="#000000">Exception</text>
</a>
</g>
</g>
<!-- X::Syntax::Regex::MalformedRange&#45;&gt;Exception -->
<g id="edge1" class="edge">
<title>X::Syntax::Regex::MalformedRange&#45;&gt;Exception</title>
<path fill="none" stroke="#000000" d="M168.9,-36.15C169.35,-73.34 178.58,-161.63 186.41,-206.23"/>
<polygon fill="#000000" stroke="#000000" points="182.97,-206.88 188.26,-216.06 189.85,-205.59 182.97,-206.88"/>
</g>
<!-- X::Syntax::Regex::MalformedRange&#45;&gt;Exception -->
<g id="edge2" class="edge">
<title>X::Syntax::Regex::MalformedRange&#45;&gt;Exception</title>
<path fill="none" stroke="#000000" d="M176.66,-36.15C184.17,-73.17 193.86,-160.82 195.68,-205.61"/>
<polygon fill="#000000" stroke="#000000" points="192.19,-205.87 195.97,-215.77 199.19,-205.67 192.19,-205.87"/>
</g>
<!-- X::Syntax -->
<g id="node6" class="node">
<title>X::Syntax</title>
<g id="a_node6"><a xlink:href="/type/X::Syntax" xlink:title="X::Syntax">
<ellipse fill="none" stroke="#6666ff" cx="261.93" cy="-90" rx="53.89" ry="18"/>
<text text-anchor="middle" x="261.93" y="-86.3" font-family="FreeSans" font-size="14.00" fill="#6666ff">X::Syntax</text>
</a>
</g>
</g>
<!-- X::Syntax::Regex::MalformedRange&#45;&gt;X::Syntax -->
<g id="edge7" class="edge">
<title>X::Syntax::Regex::MalformedRange&#45;&gt;X::Syntax</title>
<path fill="none" stroke="#6666ff" d="M192.96,-35.95C205.05,-45.24 220.17,-56.87 233.17,-66.87"/>
<polygon fill="#6666ff" stroke="#6666ff" points="231.3,-69.85 241.36,-73.17 235.56,-64.3 231.3,-69.85"/>
</g>
<!-- Mu -->
<g id="node2" class="node">
<title>Mu</title>
<g id="a_node2"><a xlink:href="/type/Mu" xlink:title="Mu">
<ellipse fill="none" stroke="#000000" cx="193.93" cy="-378" rx="27" ry="18"/>
<text text-anchor="middle" x="193.93" y="-374.3" font-family="FreeSans" font-size="14.00" fill="#000000">Mu</text>
</a>
</g>
</g>
<!-- Any -->
<g id="node3" class="node">
<title>Any</title>
<g id="a_node3"><a xlink:href="/type/Any" xlink:title="Any">
<ellipse fill="none" stroke="#000000" cx="193.93" cy="-306" rx="28.7" ry="18"/>
<text text-anchor="middle" x="193.93" y="-302.3" font-family="FreeSans" font-size="14.00" fill="#000000">Any</text>
</a>
</g>
</g>
<!-- Any&#45;&gt;Mu -->
<g id="edge3" class="edge">
<title>Any&#45;&gt;Mu</title>
<path fill="none" stroke="#000000" d="M193.93,-324.3C193.93,-332.02 193.93,-341.29 193.93,-349.89"/>
<polygon fill="#000000" stroke="#000000" points="190.43,-349.9 193.93,-359.9 197.43,-349.9 190.43,-349.9"/>
</g>
<!-- Exception&#45;&gt;Any -->
<g id="edge4" class="edge">
<title>Exception&#45;&gt;Any</title>
<path fill="none" stroke="#000000" d="M193.93,-252.3C193.93,-260.02 193.93,-269.29 193.93,-277.89"/>
<polygon fill="#000000" stroke="#000000" points="190.43,-277.9 193.93,-287.9 197.43,-277.9 190.43,-277.9"/>
</g>
<!-- X::Comp -->
<g id="node5" class="node">
<title>X::Comp</title>
<g id="a_node5"><a xlink:href="/type/X::Comp" xlink:title="X::Comp">
<ellipse fill="none" stroke="#6666ff" cx="294.93" cy="-162" rx="49.29" ry="18"/>
<text text-anchor="middle" x="294.93" y="-158.3" font-family="FreeSans" font-size="14.00" fill="#6666ff">X::Comp</text>
</a>
</g>
</g>
<!-- X::Comp&#45;&gt;Exception -->
<g id="edge5" class="edge">
<title>X::Comp&#45;&gt;Exception</title>
<path fill="none" stroke="#000000" d="M273.02,-178.19C258.92,-187.96 240.39,-200.8 224.81,-211.6"/>
<polygon fill="#000000" stroke="#000000" points="222.73,-208.78 216.51,-217.36 226.72,-214.54 222.73,-208.78"/>
</g>
<!-- X::Syntax&#45;&gt;Exception -->
<g id="edge6" class="edge">
<title>X::Syntax&#45;&gt;Exception</title>
<path fill="none" stroke="#000000" d="M253.87,-107.85C242.11,-132.4 220.16,-178.23 206.34,-207.09"/>
<polygon fill="#000000" stroke="#000000" points="203.15,-205.64 201.99,-216.18 209.47,-208.67 203.15,-205.64"/>
</g>
<!-- X::Syntax&#45;&gt;X::Comp -->
<g id="edge8" class="edge">
<title>X::Syntax&#45;&gt;X::Comp</title>
<path fill="none" stroke="#6666ff" d="M269.92,-107.95C273.73,-116.03 278.38,-125.88 282.63,-134.89"/>
<polygon fill="#6666ff" stroke="#6666ff" points="279.59,-136.66 287.02,-144.21 285.92,-133.67 279.59,-136.66"/>
</g>
</g>
</svg>
