<?xml version="1.0" encoding="UTF-8" standalone="no"?>
<!DOCTYPE svg PUBLIC "-//W3C//DTD SVG 1.1//EN"
 "http://www.w3.org/Graphics/SVG/1.1/DTD/svg11.dtd">
<!-- Generated by graphviz version 2.42.3 (0)
 -->
<!-- Title: perl6&#45;type&#45;graph Pages: 1 -->
<svg width="875pt" height="332pt"
 viewBox="0.00 0.00 874.68 332.00" xmlns="http://www.w3.org/2000/svg" xmlns:xlink="http://www.w3.org/1999/xlink">
<g id="graph0" class="graph" transform="scale(1 1) rotate(0) translate(4 328)">
<title>perl6&#45;type&#45;graph</title>
<polygon fill="white" stroke="transparent" points="-4,4 -4,-328 870.68,-328 870.68,4 -4,4"/>
<!-- X::Temporal -->
<g id="node1" class="node">
<title>X::Temporal</title>
<g id="a_node1"><a xlink:href="/type/X::Temporal" xlink:title="X::Temporal">
<ellipse fill="none" stroke="#6666ff" cx="379.94" cy="-90" rx="64.19" ry="18"/>
<text text-anchor="middle" x="379.94" y="-86.3" font-family="FreeSans" font-size="14.00" fill="#6666ff">X::Temporal</text>
</a>
</g>
</g>
<!-- Exception -->
<g id="node4" class="node">
<title>Exception</title>
<g id="a_node4"><a xlink:href="/type/Exception" xlink:title="Exception">
<ellipse fill="none" stroke="#000000" cx="425.94" cy="-162" rx="55.49" ry="18"/>
<text text-anchor="middle" x="425.94" y="-158.3" font-family="FreeSans" font-size="14.00" fill="#000000">Exception</text>
</a>
</g>
</g>
<!-- X::Temporal&#45;&gt;Exception -->
<g id="edge1" class="edge">
<title>X::Temporal&#45;&gt;Exception</title>
<path fill="none" stroke="#000000" d="M391.07,-107.95C396.55,-116.29 403.27,-126.51 409.34,-135.75"/>
<polygon fill="#000000" stroke="#000000" points="406.49,-137.78 414.91,-144.21 412.34,-133.93 406.49,-137.78"/>
</g>
<!-- Mu -->
<g id="node2" class="node">
<title>Mu</title>
<g id="a_node2"><a xlink:href="/type/Mu" xlink:title="Mu">
<ellipse fill="none" stroke="#000000" cx="425.94" cy="-306" rx="27" ry="18"/>
<text text-anchor="middle" x="425.94" y="-302.3" font-family="FreeSans" font-size="14.00" fill="#000000">Mu</text>
</a>
</g>
</g>
<!-- Any -->
<g id="node3" class="node">
<title>Any</title>
<g id="a_node3"><a xlink:href="/type/Any" xlink:title="Any">
<ellipse fill="none" stroke="#000000" cx="425.94" cy="-234" rx="28.7" ry="18"/>
<text text-anchor="middle" x="425.94" y="-230.3" font-family="FreeSans" font-size="14.00" fill="#000000">Any</text>
</a>
</g>
</g>
<!-- Any&#45;&gt;Mu -->
<g id="edge2" class="edge">
<title>Any&#45;&gt;Mu</title>
<path fill="none" stroke="#000000" d="M425.94,-252.3C425.94,-260.02 425.94,-269.29 425.94,-277.89"/>
<polygon fill="#000000" stroke="#000000" points="422.44,-277.9 425.94,-287.9 429.44,-277.9 422.44,-277.9"/>
</g>
<!-- Exception&#45;&gt;Any -->
<g id="edge3" class="edge">
<title>Exception&#45;&gt;Any</title>
<path fill="none" stroke="#000000" d="M425.94,-180.3C425.94,-188.02 425.94,-197.29 425.94,-205.89"/>
<polygon fill="#000000" stroke="#000000" points="422.44,-205.9 425.94,-215.9 429.44,-205.9 422.44,-205.9"/>
</g>
<!-- X::Temporal::InvalidFormat -->
<g id="node5" class="node">
<title>X::Temporal::InvalidFormat</title>
<g id="a_node5"><a xlink:href="/type/X::Temporal::InvalidFormat" xlink:title="X::Temporal::InvalidFormat">
<ellipse fill="none" stroke="#000000" cx="131.94" cy="-18" rx="131.88" ry="18"/>
<text text-anchor="middle" x="131.94" y="-14.3" font-family="FreeSans" font-size="14.00" fill="#000000">X::Temporal::InvalidFormat</text>
</a>
</g>
</g>
<!-- X::Temporal::InvalidFormat&#45;&gt;X::Temporal -->
<g id="edge7" class="edge">
<title>X::Temporal::InvalidFormat&#45;&gt;X::Temporal</title>
<path fill="none" stroke="#6666ff" d="M186.67,-34.45C228.18,-46.16 284.94,-62.19 326.2,-73.83"/>
<polygon fill="#6666ff" stroke="#6666ff" points="325.5,-77.27 336.08,-76.62 327.4,-70.53 325.5,-77.27"/>
</g>
<!-- X::Temporal::InvalidFormat&#45;&gt;Exception -->
<g id="edge4" class="edge">
<title>X::Temporal::InvalidFormat&#45;&gt;Exception</title>
<path fill="none" stroke="#000000" d="M164.44,-35.53C215.05,-61.27 306.94,-108 306.94,-108 306.94,-108 350.78,-127.53 385.25,-142.88"/>
<polygon fill="#000000" stroke="#000000" points="384.11,-146.2 394.67,-147.07 386.96,-139.81 384.11,-146.2"/>
</g>
<!-- X::DateTime::InvalidDeltaUnit -->
<g id="node6" class="node">
<title>X::DateTime::InvalidDeltaUnit</title>
<g id="a_node6"><a xlink:href="/type/X::DateTime::InvalidDeltaUnit" xlink:title="X::DateTime::InvalidDeltaUnit">
<ellipse fill="none" stroke="#000000" cx="425.94" cy="-18" rx="143.77" ry="18"/>
<text text-anchor="middle" x="425.94" y="-14.3" font-family="FreeSans" font-size="14.00" fill="#000000">X::DateTime::InvalidDeltaUnit</text>
</a>
</g>
</g>
<!-- X::DateTime::InvalidDeltaUnit&#45;&gt;X::Temporal -->
<g id="edge8" class="edge">
<title>X::DateTime::InvalidDeltaUnit&#45;&gt;X::Temporal</title>
<path fill="none" stroke="#6666ff" d="M414.57,-36.3C409.22,-44.44 402.73,-54.31 396.83,-63.3"/>
<polygon fill="#6666ff" stroke="#6666ff" points="393.75,-61.62 391.18,-71.9 399.6,-65.46 393.75,-61.62"/>
</g>
<!-- X::DateTime::InvalidDeltaUnit&#45;&gt;Exception -->
<g id="edge5" class="edge">
<title>X::DateTime::InvalidDeltaUnit&#45;&gt;Exception</title>
<path fill="none" stroke="#000000" d="M434.63,-36.06C442.52,-51.55 452.94,-72 452.94,-72 452.94,-72 452.94,-108 452.94,-108 452.94,-108 446.06,-121.5 439.25,-134.87"/>
<polygon fill="#000000" stroke="#000000" points="436.05,-133.44 434.63,-143.94 442.29,-136.62 436.05,-133.44"/>
</g>
<!-- X::DateTime::TimezoneClash -->
<g id="node7" class="node">
<title>X::DateTime::TimezoneClash</title>
<g id="a_node7"><a xlink:href="/type/X::DateTime::TimezoneClash" xlink:title="X::DateTime::TimezoneClash">
<ellipse fill="none" stroke="#000000" cx="726.94" cy="-18" rx="139.98" ry="18"/>
<text text-anchor="middle" x="726.94" y="-14.3" font-family="FreeSans" font-size="14.00" fill="#000000">X::DateTime::TimezoneClash</text>
</a>
</g>
</g>
<!-- X::DateTime::TimezoneClash&#45;&gt;X::Temporal -->
<g id="edge9" class="edge">
<title>X::DateTime::TimezoneClash&#45;&gt;X::Temporal</title>
<path fill="none" stroke="#6666ff" d="M655.04,-33.5C591.61,-46.3 500.21,-64.74 440.45,-76.79"/>
<polygon fill="#6666ff" stroke="#6666ff" points="439.52,-73.41 430.41,-78.82 440.91,-80.27 439.52,-73.41"/>
</g>
<!-- X::DateTime::TimezoneClash&#45;&gt;Exception -->
<g id="edge6" class="edge">
<title>X::DateTime::TimezoneClash&#45;&gt;Exception</title>
<path fill="none" stroke="#000000" d="M691.82,-35.57C635.41,-62.18 524.95,-114.29 465.72,-142.23"/>
<polygon fill="#000000" stroke="#000000" points="463.87,-139.24 456.32,-146.67 466.85,-145.57 463.87,-139.24"/>
</g>
</g>
</svg>
