<?xml version="1.0" encoding="UTF-8" standalone="no"?>
<!DOCTYPE svg PUBLIC "-//W3C//DTD SVG 1.1//EN"
 "http://www.w3.org/Graphics/SVG/1.1/DTD/svg11.dtd">
<!-- Generated by graphviz version 2.42.3 (0)
 -->
<!-- Title: perl6&#45;type&#45;graph Pages: 1 -->
<svg width="264pt" height="332pt"
 viewBox="0.00 0.00 264.08 332.00" xmlns="http://www.w3.org/2000/svg" xmlns:xlink="http://www.w3.org/1999/xlink">
<g id="graph0" class="graph" transform="scale(1 1) rotate(0) translate(4 328)">
<title>perl6&#45;type&#45;graph</title>
<polygon fill="white" stroke="transparent" points="-4,4 -4,-328 260.08,-328 260.08,4 -4,4"/>
<!-- X::Parameter::Placeholder -->
<g id="node1" class="node">
<title>X::Parameter::Placeholder</title>
<g id="a_node1"><a xlink:href="/type/X::Parameter::Placeholder" xlink:title="X::Parameter::Placeholder">
<ellipse fill="none" stroke="#000000" cx="128.04" cy="-18" rx="128.08" ry="18"/>
<text text-anchor="middle" x="128.04" y="-14.3" font-family="FreeSans" font-size="14.00" fill="#000000">X::Parameter::Placeholder</text>
</a>
</g>
</g>
<!-- Exception -->
<g id="node4" class="node">
<title>Exception</title>
<g id="a_node4"><a xlink:href="/type/Exception" xlink:title="Exception">
<ellipse fill="none" stroke="#000000" cx="128.04" cy="-162" rx="55.49" ry="18"/>
<text text-anchor="middle" x="128.04" y="-158.3" font-family="FreeSans" font-size="14.00" fill="#000000">Exception</text>
</a>
</g>
</g>
<!-- X::Parameter::Placeholder&#45;&gt;Exception -->
<g id="edge1" class="edge">
<title>X::Parameter::Placeholder&#45;&gt;Exception</title>
<path fill="none" stroke="#000000" d="M121.92,-36.06C116.37,-51.55 109.04,-72 109.04,-72 109.04,-72 109.04,-108 109.04,-108 109.04,-108 113.78,-121.24 118.53,-134.48"/>
<polygon fill="#000000" stroke="#000000" points="115.25,-135.71 121.92,-143.94 121.84,-133.34 115.25,-135.71"/>
</g>
<!-- X::Comp -->
<g id="node5" class="node">
<title>X::Comp</title>
<g id="a_node5"><a xlink:href="/type/X::Comp" xlink:title="X::Comp">
<ellipse fill="none" stroke="#6666ff" cx="167.04" cy="-90" rx="49.29" ry="18"/>
<text text-anchor="middle" x="167.04" y="-86.3" font-family="FreeSans" font-size="14.00" fill="#6666ff">X::Comp</text>
</a>
</g>
</g>
<!-- X::Parameter::Placeholder&#45;&gt;X::Comp -->
<g id="edge5" class="edge">
<title>X::Parameter::Placeholder&#45;&gt;X::Comp</title>
<path fill="none" stroke="#6666ff" d="M137.68,-36.3C142.17,-44.36 147.6,-54.11 152.56,-63.02"/>
<polygon fill="#6666ff" stroke="#6666ff" points="149.58,-64.86 157.51,-71.9 155.7,-61.46 149.58,-64.86"/>
</g>
<!-- Mu -->
<g id="node2" class="node">
<title>Mu</title>
<g id="a_node2"><a xlink:href="/type/Mu" xlink:title="Mu">
<ellipse fill="none" stroke="#000000" cx="128.04" cy="-306" rx="27" ry="18"/>
<text text-anchor="middle" x="128.04" y="-302.3" font-family="FreeSans" font-size="14.00" fill="#000000">Mu</text>
</a>
</g>
</g>
<!-- Any -->
<g id="node3" class="node">
<title>Any</title>
<g id="a_node3"><a xlink:href="/type/Any" xlink:title="Any">
<ellipse fill="none" stroke="#000000" cx="128.04" cy="-234" rx="28.7" ry="18"/>
<text text-anchor="middle" x="128.04" y="-230.3" font-family="FreeSans" font-size="14.00" fill="#000000">Any</text>
</a>
</g>
</g>
<!-- Any&#45;&gt;Mu -->
<g id="edge2" class="edge">
<title>Any&#45;&gt;Mu</title>
<path fill="none" stroke="#000000" d="M128.04,-252.3C128.04,-260.02 128.04,-269.29 128.04,-277.89"/>
<polygon fill="#000000" stroke="#000000" points="124.54,-277.9 128.04,-287.9 131.54,-277.9 124.54,-277.9"/>
</g>
<!-- Exception&#45;&gt;Any -->
<g id="edge3" class="edge">
<title>Exception&#45;&gt;Any</title>
<path fill="none" stroke="#000000" d="M128.04,-180.3C128.04,-188.02 128.04,-197.29 128.04,-205.89"/>
<polygon fill="#000000" stroke="#000000" points="124.54,-205.9 128.04,-215.9 131.54,-205.9 124.54,-205.9"/>
</g>
<!-- X::Comp&#45;&gt;Exception -->
<g id="edge4" class="edge">
<title>X::Comp&#45;&gt;Exception</title>
<path fill="none" stroke="#000000" d="M157.6,-107.95C153,-116.2 147.37,-126.3 142.27,-135.46"/>
<polygon fill="#000000" stroke="#000000" points="139.2,-133.77 137.39,-144.21 145.32,-137.18 139.2,-133.77"/>
</g>
</g>
</svg>
