<?xml version="1.0" encoding="UTF-8" standalone="no"?>
<!DOCTYPE svg PUBLIC "-//W3C//DTD SVG 1.1//EN"
 "http://www.w3.org/Graphics/SVG/1.1/DTD/svg11.dtd">
<!-- Generated by graphviz version 2.42.3 (0)
 -->
<!-- Title: perl6&#45;type&#45;graph Pages: 1 -->
<svg width="336pt" height="404pt"
 viewBox="0.00 0.00 335.57 404.00" xmlns="http://www.w3.org/2000/svg" xmlns:xlink="http://www.w3.org/1999/xlink">
<g id="graph0" class="graph" transform="scale(1 1) rotate(0) translate(4 400)">
<title>perl6&#45;type&#45;graph</title>
<polygon fill="white" stroke="transparent" points="-4,4 -4,-400 331.57,-400 331.57,4 -4,4"/>
<!-- X::Syntax::Term::MissingInitializer -->
<g id="node1" class="node">
<title>X::Syntax::Term::MissingInitializer</title>
<g id="a_node1"><a xlink:href="/type/X::Syntax::Term::MissingInitializer" xlink:title="X::Syntax::Term::MissingInitializer">
<ellipse fill="none" stroke="#000000" cx="163.79" cy="-18" rx="163.57" ry="18"/>
<text text-anchor="middle" x="163.79" y="-14.3" font-family="FreeSans" font-size="14.00" fill="#000000">X::Syntax::Term::MissingInitializer</text>
</a>
</g>
</g>
<!-- Exception -->
<g id="node4" class="node">
<title>Exception</title>
<g id="a_node4"><a xlink:href="/type/Exception" xlink:title="Exception">
<ellipse fill="none" stroke="#000000" cx="160.79" cy="-234" rx="55.49" ry="18"/>
<text text-anchor="middle" x="160.79" y="-230.3" font-family="FreeSans" font-size="14.00" fill="#000000">Exception</text>
</a>
</g>
</g>
<!-- X::Syntax::Term::MissingInitializer&#45;&gt;Exception -->
<g id="edge1" class="edge">
<title>X::Syntax::Term::MissingInitializer&#45;&gt;Exception</title>
<path fill="none" stroke="#000000" d="M156.7,-36.06C150.27,-51.55 141.79,-72 141.79,-72 141.79,-72 141.79,-108 141.79,-108 141.79,-108 151.06,-169.01 156.65,-205.78"/>
<polygon fill="#000000" stroke="#000000" points="153.22,-206.52 158.18,-215.88 160.14,-205.47 153.22,-206.52"/>
</g>
<!-- X::Syntax -->
<g id="node6" class="node">
<title>X::Syntax</title>
<g id="a_node6"><a xlink:href="/type/X::Syntax" xlink:title="X::Syntax">
<ellipse fill="none" stroke="#6666ff" cx="204.79" cy="-90" rx="53.89" ry="18"/>
<text text-anchor="middle" x="204.79" y="-86.3" font-family="FreeSans" font-size="14.00" fill="#6666ff">X::Syntax</text>
</a>
</g>
</g>
<!-- X::Syntax::Term::MissingInitializer&#45;&gt;X::Syntax -->
<g id="edge6" class="edge">
<title>X::Syntax::Term::MissingInitializer&#45;&gt;X::Syntax</title>
<path fill="none" stroke="#6666ff" d="M173.92,-36.3C178.64,-44.36 184.35,-54.11 189.57,-63.02"/>
<polygon fill="#6666ff" stroke="#6666ff" points="186.69,-65.04 194.77,-71.9 192.73,-61.5 186.69,-65.04"/>
</g>
<!-- Mu -->
<g id="node2" class="node">
<title>Mu</title>
<g id="a_node2"><a xlink:href="/type/Mu" xlink:title="Mu">
<ellipse fill="none" stroke="#000000" cx="160.79" cy="-378" rx="27" ry="18"/>
<text text-anchor="middle" x="160.79" y="-374.3" font-family="FreeSans" font-size="14.00" fill="#000000">Mu</text>
</a>
</g>
</g>
<!-- Any -->
<g id="node3" class="node">
<title>Any</title>
<g id="a_node3"><a xlink:href="/type/Any" xlink:title="Any">
<ellipse fill="none" stroke="#000000" cx="160.79" cy="-306" rx="28.7" ry="18"/>
<text text-anchor="middle" x="160.79" y="-302.3" font-family="FreeSans" font-size="14.00" fill="#000000">Any</text>
</a>
</g>
</g>
<!-- Any&#45;&gt;Mu -->
<g id="edge2" class="edge">
<title>Any&#45;&gt;Mu</title>
<path fill="none" stroke="#000000" d="M160.79,-324.3C160.79,-332.02 160.79,-341.29 160.79,-349.89"/>
<polygon fill="#000000" stroke="#000000" points="157.29,-349.9 160.79,-359.9 164.29,-349.9 157.29,-349.9"/>
</g>
<!-- Exception&#45;&gt;Any -->
<g id="edge3" class="edge">
<title>Exception&#45;&gt;Any</title>
<path fill="none" stroke="#000000" d="M160.79,-252.3C160.79,-260.02 160.79,-269.29 160.79,-277.89"/>
<polygon fill="#000000" stroke="#000000" points="157.29,-277.9 160.79,-287.9 164.29,-277.9 157.29,-277.9"/>
</g>
<!-- X::Comp -->
<g id="node5" class="node">
<title>X::Comp</title>
<g id="a_node5"><a xlink:href="/type/X::Comp" xlink:title="X::Comp">
<ellipse fill="none" stroke="#6666ff" cx="237.79" cy="-162" rx="49.29" ry="18"/>
<text text-anchor="middle" x="237.79" y="-158.3" font-family="FreeSans" font-size="14.00" fill="#6666ff">X::Comp</text>
</a>
</g>
</g>
<!-- X::Comp&#45;&gt;Exception -->
<g id="edge4" class="edge">
<title>X::Comp&#45;&gt;Exception</title>
<path fill="none" stroke="#000000" d="M220.31,-178.88C210.15,-188.13 197.16,-199.93 185.91,-210.16"/>
<polygon fill="#000000" stroke="#000000" points="183.5,-207.62 178.46,-216.94 188.21,-212.8 183.5,-207.62"/>
</g>
<!-- X::Syntax&#45;&gt;Exception -->
<g id="edge5" class="edge">
<title>X::Syntax&#45;&gt;Exception</title>
<path fill="none" stroke="#000000" d="M196.74,-108.06C189.43,-123.55 179.79,-144 179.79,-144 179.79,-144 172.14,-179.83 166.54,-206.03"/>
<polygon fill="#000000" stroke="#000000" points="163.11,-205.33 164.45,-215.84 169.96,-206.79 163.11,-205.33"/>
</g>
<!-- X::Syntax&#45;&gt;X::Comp -->
<g id="edge7" class="edge">
<title>X::Syntax&#45;&gt;X::Comp</title>
<path fill="none" stroke="#6666ff" d="M212.77,-107.95C216.58,-116.03 221.23,-125.88 225.48,-134.89"/>
<polygon fill="#6666ff" stroke="#6666ff" points="222.44,-136.66 229.87,-144.21 228.77,-133.67 222.44,-136.66"/>
</g>
</g>
</svg>
