<?xml version="1.0" encoding="UTF-8" standalone="no"?>
<!DOCTYPE svg PUBLIC "-//W3C//DTD SVG 1.1//EN"
 "http://www.w3.org/Graphics/SVG/1.1/DTD/svg11.dtd">
<!-- Generated by graphviz version 2.42.3 (0)
 -->
<!-- Title: perl6&#45;type&#45;graph Pages: 1 -->
<svg width="361pt" height="260pt"
 viewBox="0.00 0.00 360.74 260.00" xmlns="http://www.w3.org/2000/svg" xmlns:xlink="http://www.w3.org/1999/xlink">
<g id="graph0" class="graph" transform="scale(1 1) rotate(0) translate(4 256)">
<title>perl6&#45;type&#45;graph</title>
<polygon fill="white" stroke="transparent" points="-4,4 -4,-256 356.74,-256 356.74,4 -4,4"/>
<!-- Seq -->
<g id="node1" class="node">
<title>Seq</title>
<g id="a_node1"><a xlink:href="/type/Seq" xlink:title="Seq">
<ellipse fill="none" stroke="#000000" cx="124.55" cy="-18" rx="27.9" ry="18"/>
<text text-anchor="middle" x="124.55" y="-14.3" font-family="FreeSans" font-size="14.00" fill="#000000">Seq</text>
</a>
</g>
</g>
<!-- Cool -->
<g id="node4" class="node">
<title>Cool</title>
<g id="a_node4"><a xlink:href="/type/Cool" xlink:title="Cool">
<ellipse fill="none" stroke="#000000" cx="30.55" cy="-90" rx="30.59" ry="18"/>
<text text-anchor="middle" x="30.55" y="-86.3" font-family="FreeSans" font-size="14.00" fill="#000000">Cool</text>
</a>
</g>
</g>
<!-- Seq&#45;&gt;Cool -->
<g id="edge1" class="edge">
<title>Seq&#45;&gt;Cool</title>
<path fill="none" stroke="#000000" d="M106.87,-32.17C92.87,-42.59 73.09,-57.32 57.17,-69.17"/>
<polygon fill="#000000" stroke="#000000" points="54.72,-66.64 48.79,-75.42 58.9,-72.25 54.72,-66.64"/>
</g>
<!-- Iterable -->
<g id="node5" class="node">
<title>Iterable</title>
<g id="a_node5"><a xlink:href="/type/Iterable" xlink:title="Iterable">
<ellipse fill="none" stroke="#6666ff" cx="124.55" cy="-90" rx="45.49" ry="18"/>
<text text-anchor="middle" x="124.55" y="-86.3" font-family="FreeSans" font-size="14.00" fill="#6666ff">Iterable</text>
</a>
</g>
</g>
<!-- Seq&#45;&gt;Iterable -->
<g id="edge4" class="edge">
<title>Seq&#45;&gt;Iterable</title>
<path fill="none" stroke="#6666ff" d="M124.55,-36.3C124.55,-44.02 124.55,-53.29 124.55,-61.89"/>
<polygon fill="#6666ff" stroke="#6666ff" points="121.05,-61.9 124.55,-71.9 128.05,-61.9 121.05,-61.9"/>
</g>
<!-- Sequence -->
<g id="node7" class="node">
<title>Sequence</title>
<g id="a_node7"><a xlink:href="/type/Sequence" xlink:title="Sequence">
<ellipse fill="none" stroke="#6666ff" cx="243.55" cy="-90" rx="55.49" ry="18"/>
<text text-anchor="middle" x="243.55" y="-86.3" font-family="FreeSans" font-size="14.00" fill="#6666ff">Sequence</text>
</a>
</g>
</g>
<!-- Seq&#45;&gt;Sequence -->
<g id="edge5" class="edge">
<title>Seq&#45;&gt;Sequence</title>
<path fill="none" stroke="#6666ff" d="M144.47,-30.72C162.07,-41.07 188.12,-56.4 209.1,-68.73"/>
<polygon fill="#6666ff" stroke="#6666ff" points="207.34,-71.76 217.74,-73.82 210.89,-65.73 207.34,-71.76"/>
</g>
<!-- Mu -->
<g id="node2" class="node">
<title>Mu</title>
<g id="a_node2"><a xlink:href="/type/Mu" xlink:title="Mu">
<ellipse fill="none" stroke="#000000" cx="30.55" cy="-234" rx="27" ry="18"/>
<text text-anchor="middle" x="30.55" y="-230.3" font-family="FreeSans" font-size="14.00" fill="#000000">Mu</text>
</a>
</g>
</g>
<!-- Any -->
<g id="node3" class="node">
<title>Any</title>
<g id="a_node3"><a xlink:href="/type/Any" xlink:title="Any">
<ellipse fill="none" stroke="#000000" cx="30.55" cy="-162" rx="28.7" ry="18"/>
<text text-anchor="middle" x="30.55" y="-158.3" font-family="FreeSans" font-size="14.00" fill="#000000">Any</text>
</a>
</g>
</g>
<!-- Any&#45;&gt;Mu -->
<g id="edge2" class="edge">
<title>Any&#45;&gt;Mu</title>
<path fill="none" stroke="#000000" d="M30.55,-180.3C30.55,-188.02 30.55,-197.29 30.55,-205.89"/>
<polygon fill="#000000" stroke="#000000" points="27.05,-205.9 30.55,-215.9 34.05,-205.9 27.05,-205.9"/>
</g>
<!-- Cool&#45;&gt;Any -->
<g id="edge3" class="edge">
<title>Cool&#45;&gt;Any</title>
<path fill="none" stroke="#000000" d="M30.55,-108.3C30.55,-116.02 30.55,-125.29 30.55,-133.89"/>
<polygon fill="#000000" stroke="#000000" points="27.05,-133.9 30.55,-143.9 34.05,-133.9 27.05,-133.9"/>
</g>
<!-- PositionalBindFailover -->
<g id="node6" class="node">
<title>PositionalBindFailover</title>
<g id="a_node6"><a xlink:href="/type/PositionalBindFailover" xlink:title="PositionalBindFailover">
<ellipse fill="none" stroke="#6666ff" cx="243.55" cy="-162" rx="109.38" ry="18"/>
<text text-anchor="middle" x="243.55" y="-158.3" font-family="FreeSans" font-size="14.00" fill="#6666ff">PositionalBindFailover</text>
</a>
</g>
</g>
<!-- Sequence&#45;&gt;PositionalBindFailover -->
<g id="edge6" class="edge">
<title>Sequence&#45;&gt;PositionalBindFailover</title>
<path fill="none" stroke="#6666ff" d="M243.55,-108.3C243.55,-116.02 243.55,-125.29 243.55,-133.89"/>
<polygon fill="#6666ff" stroke="#6666ff" points="240.05,-133.9 243.55,-143.9 247.05,-133.9 240.05,-133.9"/>
</g>
</g>
</svg>
