<?xml version="1.0" encoding="UTF-8" standalone="no"?>
<!DOCTYPE svg PUBLIC "-//W3C//DTD SVG 1.1//EN"
 "http://www.w3.org/Graphics/SVG/1.1/DTD/svg11.dtd">
<!-- Generated by graphviz version 2.42.3 (0)
 -->
<!-- Title: perl6&#45;type&#45;graph Pages: 1 -->
<svg width="295pt" height="332pt"
 viewBox="0.00 0.00 295.27 332.00" xmlns="http://www.w3.org/2000/svg" xmlns:xlink="http://www.w3.org/1999/xlink">
<g id="graph0" class="graph" transform="scale(1 1) rotate(0) translate(4 328)">
<title>perl6&#45;type&#45;graph</title>
<polygon fill="white" stroke="transparent" points="-4,4 -4,-328 291.27,-328 291.27,4 -4,4"/>
<!-- X::Proc::Async::CharsOrBytes -->
<g id="node1" class="node">
<title>X::Proc::Async::CharsOrBytes</title>
<g id="a_node1"><a xlink:href="/type/X::Proc::Async::CharsOrBytes" xlink:title="X::Proc::Async::CharsOrBytes">
<ellipse fill="none" stroke="#000000" cx="143.64" cy="-18" rx="143.77" ry="18"/>
<text text-anchor="middle" x="143.64" y="-14.3" font-family="FreeSans" font-size="14.00" fill="#000000">X::Proc::Async::CharsOrBytes</text>
</a>
</g>
</g>
<!-- Exception -->
<g id="node4" class="node">
<title>Exception</title>
<g id="a_node4"><a xlink:href="/type/Exception" xlink:title="Exception">
<ellipse fill="none" stroke="#000000" cx="143.64" cy="-162" rx="55.49" ry="18"/>
<text text-anchor="middle" x="143.64" y="-158.3" font-family="FreeSans" font-size="14.00" fill="#000000">Exception</text>
</a>
</g>
</g>
<!-- X::Proc::Async::CharsOrBytes&#45;&gt;Exception -->
<g id="edge1" class="edge">
<title>X::Proc::Async::CharsOrBytes&#45;&gt;Exception</title>
<path fill="none" stroke="#000000" d="M133.34,-36.06C123.98,-51.55 111.64,-72 111.64,-72 111.64,-72 111.64,-108 111.64,-108 111.64,-108 120.05,-121.93 128.25,-135.51"/>
<polygon fill="#000000" stroke="#000000" points="125.35,-137.48 133.51,-144.23 131.34,-133.86 125.35,-137.48"/>
</g>
<!-- X::Proc::Async -->
<g id="node5" class="node">
<title>X::Proc::Async</title>
<g id="a_node5"><a xlink:href="/type/X::Proc::Async" xlink:title="X::Proc::Async">
<ellipse fill="none" stroke="#6666ff" cx="195.64" cy="-90" rx="75.29" ry="18"/>
<text text-anchor="middle" x="195.64" y="-86.3" font-family="FreeSans" font-size="14.00" fill="#6666ff">X::Proc::Async</text>
</a>
</g>
</g>
<!-- X::Proc::Async::CharsOrBytes&#45;&gt;X::Proc::Async -->
<g id="edge5" class="edge">
<title>X::Proc::Async::CharsOrBytes&#45;&gt;X::Proc::Async</title>
<path fill="none" stroke="#6666ff" d="M156.23,-35.95C162.48,-44.37 170.17,-54.72 177.09,-64.03"/>
<polygon fill="#6666ff" stroke="#6666ff" points="174.39,-66.27 183.17,-72.21 180.01,-62.1 174.39,-66.27"/>
</g>
<!-- Mu -->
<g id="node2" class="node">
<title>Mu</title>
<g id="a_node2"><a xlink:href="/type/Mu" xlink:title="Mu">
<ellipse fill="none" stroke="#000000" cx="143.64" cy="-306" rx="27" ry="18"/>
<text text-anchor="middle" x="143.64" y="-302.3" font-family="FreeSans" font-size="14.00" fill="#000000">Mu</text>
</a>
</g>
</g>
<!-- Any -->
<g id="node3" class="node">
<title>Any</title>
<g id="a_node3"><a xlink:href="/type/Any" xlink:title="Any">
<ellipse fill="none" stroke="#000000" cx="143.64" cy="-234" rx="28.7" ry="18"/>
<text text-anchor="middle" x="143.64" y="-230.3" font-family="FreeSans" font-size="14.00" fill="#000000">Any</text>
</a>
</g>
</g>
<!-- Any&#45;&gt;Mu -->
<g id="edge2" class="edge">
<title>Any&#45;&gt;Mu</title>
<path fill="none" stroke="#000000" d="M143.64,-252.3C143.64,-260.02 143.64,-269.29 143.64,-277.89"/>
<polygon fill="#000000" stroke="#000000" points="140.14,-277.9 143.64,-287.9 147.14,-277.9 140.14,-277.9"/>
</g>
<!-- Exception&#45;&gt;Any -->
<g id="edge3" class="edge">
<title>Exception&#45;&gt;Any</title>
<path fill="none" stroke="#000000" d="M143.64,-180.3C143.64,-188.02 143.64,-197.29 143.64,-205.89"/>
<polygon fill="#000000" stroke="#000000" points="140.14,-205.9 143.64,-215.9 147.14,-205.9 140.14,-205.9"/>
</g>
<!-- X::Proc::Async&#45;&gt;Exception -->
<g id="edge4" class="edge">
<title>X::Proc::Async&#45;&gt;Exception</title>
<path fill="none" stroke="#000000" d="M183.05,-107.95C176.79,-116.37 169.1,-126.72 162.18,-136.03"/>
<polygon fill="#000000" stroke="#000000" points="159.26,-134.1 156.11,-144.21 164.88,-138.27 159.26,-134.1"/>
</g>
</g>
</svg>
