<?xml version="1.0" encoding="UTF-8" standalone="no"?>
<!DOCTYPE svg PUBLIC "-//W3C//DTD SVG 1.1//EN"
 "http://www.w3.org/Graphics/SVG/1.1/DTD/svg11.dtd">
<!-- Generated by graphviz version 2.42.3 (0)
 -->
<!-- Title: perl6&#45;type&#45;graph Pages: 1 -->
<svg width="180pt" height="332pt"
 viewBox="0.00 0.00 180.34 332.00" xmlns="http://www.w3.org/2000/svg" xmlns:xlink="http://www.w3.org/1999/xlink">
<g id="graph0" class="graph" transform="scale(1 1) rotate(0) translate(4 328)">
<title>perl6&#45;type&#45;graph</title>
<polygon fill="white" stroke="transparent" points="-4,4 -4,-328 176.34,-328 176.34,4 -4,4"/>
<!-- Order -->
<g id="node1" class="node">
<title>Order</title>
<g id="a_node1"><a xlink:href="/type/Order" xlink:title="Order">
<ellipse fill="none" stroke="#33bb33" cx="75.6" cy="-18" rx="37.09" ry="18"/>
<text text-anchor="middle" x="75.6" y="-14.3" font-family="FreeSans" font-size="14.00" fill="#33bb33">Order</text>
</a>
</g>
</g>
<!-- Int -->
<g id="node7" class="node">
<title>Int</title>
<g id="a_node7"><a xlink:href="/type/Int" xlink:title="Int">
<ellipse fill="none" stroke="#000000" cx="75.6" cy="-90" rx="27" ry="18"/>
<text text-anchor="middle" x="75.6" y="-86.3" font-family="FreeSans" font-size="14.00" fill="#000000">Int</text>
</a>
</g>
</g>
<!-- Order&#45;&gt;Int -->
<g id="edge1" class="edge">
<title>Order&#45;&gt;Int</title>
<path fill="none" stroke="#000000" d="M75.6,-36.3C75.6,-44.02 75.6,-53.29 75.6,-61.89"/>
<polygon fill="#000000" stroke="#000000" points="72.1,-61.9 75.6,-71.9 79.1,-61.9 72.1,-61.9"/>
</g>
<!-- Mu -->
<g id="node2" class="node">
<title>Mu</title>
<g id="a_node2"><a xlink:href="/type/Mu" xlink:title="Mu">
<ellipse fill="none" stroke="#000000" cx="28.6" cy="-306" rx="27" ry="18"/>
<text text-anchor="middle" x="28.6" y="-302.3" font-family="FreeSans" font-size="14.00" fill="#000000">Mu</text>
</a>
</g>
</g>
<!-- Any -->
<g id="node3" class="node">
<title>Any</title>
<g id="a_node3"><a xlink:href="/type/Any" xlink:title="Any">
<ellipse fill="none" stroke="#000000" cx="28.6" cy="-234" rx="28.7" ry="18"/>
<text text-anchor="middle" x="28.6" y="-230.3" font-family="FreeSans" font-size="14.00" fill="#000000">Any</text>
</a>
</g>
</g>
<!-- Any&#45;&gt;Mu -->
<g id="edge2" class="edge">
<title>Any&#45;&gt;Mu</title>
<path fill="none" stroke="#000000" d="M28.6,-252.3C28.6,-260.02 28.6,-269.29 28.6,-277.89"/>
<polygon fill="#000000" stroke="#000000" points="25.1,-277.9 28.6,-287.9 32.1,-277.9 25.1,-277.9"/>
</g>
<!-- Cool -->
<g id="node4" class="node">
<title>Cool</title>
<g id="a_node4"><a xlink:href="/type/Cool" xlink:title="Cool">
<ellipse fill="none" stroke="#000000" cx="32.6" cy="-162" rx="30.59" ry="18"/>
<text text-anchor="middle" x="32.6" y="-158.3" font-family="FreeSans" font-size="14.00" fill="#000000">Cool</text>
</a>
</g>
</g>
<!-- Cool&#45;&gt;Any -->
<g id="edge3" class="edge">
<title>Cool&#45;&gt;Any</title>
<path fill="none" stroke="#000000" d="M31.61,-180.3C31.17,-188.02 30.64,-197.29 30.15,-205.89"/>
<polygon fill="#000000" stroke="#000000" points="26.65,-205.71 29.57,-215.9 33.64,-206.11 26.65,-205.71"/>
</g>
<!-- Numeric -->
<g id="node5" class="node">
<title>Numeric</title>
<g id="a_node5"><a xlink:href="/type/Numeric" xlink:title="Numeric">
<ellipse fill="none" stroke="#6666ff" cx="123.6" cy="-234" rx="48.99" ry="18"/>
<text text-anchor="middle" x="123.6" y="-230.3" font-family="FreeSans" font-size="14.00" fill="#6666ff">Numeric</text>
</a>
</g>
</g>
<!-- Real -->
<g id="node6" class="node">
<title>Real</title>
<g id="a_node6"><a xlink:href="/type/Real" xlink:title="Real">
<ellipse fill="none" stroke="#6666ff" cx="119.6" cy="-162" rx="30.59" ry="18"/>
<text text-anchor="middle" x="119.6" y="-158.3" font-family="FreeSans" font-size="14.00" fill="#6666ff">Real</text>
</a>
</g>
</g>
<!-- Real&#45;&gt;Numeric -->
<g id="edge5" class="edge">
<title>Real&#45;&gt;Numeric</title>
<path fill="none" stroke="#6666ff" d="M120.59,-180.3C121.03,-188.02 121.56,-197.29 122.05,-205.89"/>
<polygon fill="#6666ff" stroke="#6666ff" points="118.56,-206.11 122.62,-215.9 125.54,-205.71 118.56,-206.11"/>
</g>
<!-- Int&#45;&gt;Cool -->
<g id="edge4" class="edge">
<title>Int&#45;&gt;Cool</title>
<path fill="none" stroke="#000000" d="M65.84,-106.88C60.53,-115.53 53.84,-126.42 47.85,-136.17"/>
<polygon fill="#000000" stroke="#000000" points="44.87,-134.34 42.61,-144.69 50.83,-138 44.87,-134.34"/>
</g>
<!-- Int&#45;&gt;Real -->
<g id="edge6" class="edge">
<title>Int&#45;&gt;Real</title>
<path fill="none" stroke="#6666ff" d="M85.58,-106.88C91.02,-115.53 97.86,-126.42 103.99,-136.17"/>
<polygon fill="#6666ff" stroke="#6666ff" points="101.06,-138.09 109.35,-144.69 106.99,-134.36 101.06,-138.09"/>
</g>
</g>
</svg>
