<?xml version="1.0" encoding="UTF-8" standalone="no"?>
<!DOCTYPE svg PUBLIC "-//W3C//DTD SVG 1.1//EN"
 "http://www.w3.org/Graphics/SVG/1.1/DTD/svg11.dtd">
<!-- Generated by graphviz version 2.42.3 (0)
 -->
<!-- Title: perl6&#45;type&#45;graph Pages: 1 -->
<svg width="2293pt" height="2420pt"
 viewBox="0.00 0.00 2292.62 2419.64" xmlns="http://www.w3.org/2000/svg" xmlns:xlink="http://www.w3.org/1999/xlink">
<g id="graph0" class="graph" transform="scale(1 1) rotate(0) translate(4 2415.64)">
<title>perl6&#45;type&#45;graph</title>
<polygon fill="white" stroke="transparent" points="-4,4 -4,-2415.64 2288.62,-2415.64 2288.62,4 -4,4"/>
<!-- Metamodel::Documenting -->
<g id="node1" class="node">
<title>Metamodel::Documenting</title>
<g id="a_node1"><a xlink:href="/type/Metamodel::Documenting" xlink:title="Metamodel::Documenting">
<ellipse fill="none" stroke="#6666ff" cx="820.61" cy="-1457.69" rx="126.98" ry="18"/>
<text text-anchor="middle" x="820.61" y="-1453.99" font-family="FreeSans" font-size="14.00" fill="#6666ff">Metamodel::Documenting</text>
</a>
</g>
</g>
<!-- Mu -->
<g id="node2" class="node">
<title>Mu</title>
<g id="a_node2"><a xlink:href="/type/Mu" xlink:title="Mu">
<ellipse fill="none" stroke="#000000" cx="2032.51" cy="-1396.63" rx="27" ry="18"/>
<text text-anchor="middle" x="2032.51" y="-1392.93" font-family="FreeSans" font-size="14.00" fill="#000000">Mu</text>
</a>
</g>
</g>
<!-- Any -->
<g id="node3" class="node">
<title>Any</title>
<g id="a_node3"><a xlink:href="/type/Any" xlink:title="Any">
<ellipse fill="none" stroke="#000000" cx="1286.02" cy="-1369.8" rx="28.7" ry="18"/>
<text text-anchor="middle" x="1286.02" y="-1366.1" font-family="FreeSans" font-size="14.00" fill="#000000">Any</text>
</a>
</g>
</g>
<!-- Any&#45;&gt;Mu -->
<g id="edge1" class="edge">
<title>Any&#45;&gt;Mu</title>
<path fill="none" stroke="#000000" d="M1314.83,-1370.84C1430.93,-1375.01 1864.57,-1390.59 1995.1,-1395.28"/>
<polygon fill="#000000" stroke="#000000" points="1995.26,-1398.79 2005.38,-1395.65 1995.51,-1391.8 1995.26,-1398.79"/>
</g>
<!-- Metamodel::Naming -->
<g id="node4" class="node">
<title>Metamodel::Naming</title>
<g id="a_node4"><a xlink:href="/type/Metamodel::Naming" xlink:title="Metamodel::Naming">
<ellipse fill="none" stroke="#6666ff" cx="1056.76" cy="-1421.28" rx="101.28" ry="18"/>
<text text-anchor="middle" x="1056.76" y="-1417.58" font-family="FreeSans" font-size="14.00" fill="#6666ff">Metamodel::Naming</text>
</a>
</g>
</g>
<!-- Metamodel::Versioning -->
<g id="node5" class="node">
<title>Metamodel::Versioning</title>
<g id="a_node5"><a xlink:href="/type/Metamodel::Versioning" xlink:title="Metamodel::Versioning">
<ellipse fill="none" stroke="#6666ff" cx="1297.14" cy="-1068.18" rx="114.28" ry="18"/>
<text text-anchor="middle" x="1297.14" y="-1064.48" font-family="FreeSans" font-size="14.00" fill="#6666ff">Metamodel::Versioning</text>
</a>
</g>
</g>
<!-- Metamodel::Stashing -->
<g id="node6" class="node">
<title>Metamodel::Stashing</title>
<g id="a_node6"><a xlink:href="/type/Metamodel::Stashing" xlink:title="Metamodel::Stashing">
<ellipse fill="none" stroke="#6666ff" cx="1140.68" cy="-1282.65" rx="105.88" ry="18"/>
<text text-anchor="middle" x="1140.68" y="-1278.95" font-family="FreeSans" font-size="14.00" fill="#6666ff">Metamodel::Stashing</text>
</a>
</g>
</g>
<!-- Metamodel::MultipleInheritance -->
<g id="node7" class="node">
<title>Metamodel::MultipleInheritance</title>
<g id="a_node7"><a xlink:href="/type/Metamodel::MultipleInheritance" xlink:title="Metamodel::MultipleInheritance">
<ellipse fill="none" stroke="#6666ff" cx="1230.46" cy="-525.77" rx="153.27" ry="18"/>
<text text-anchor="middle" x="1230.46" y="-522.07" font-family="FreeSans" font-size="14.00" fill="#6666ff">Metamodel::MultipleInheritance</text>
</a>
</g>
</g>
<!-- Metamodel::C3MRO -->
<g id="node8" class="node">
<title>Metamodel::C3MRO</title>
<g id="a_node8"><a xlink:href="/type/Metamodel::C3MRO" xlink:title="Metamodel::C3MRO">
<ellipse fill="none" stroke="#6666ff" cx="881.2" cy="-238.31" rx="100.18" ry="18"/>
<text text-anchor="middle" x="881.2" y="-234.61" font-family="FreeSans" font-size="14.00" fill="#6666ff">Metamodel::C3MRO</text>
</a>
</g>
</g>
<!-- Metamodel::MROBasedMethodDispatch -->
<g id="node9" class="node">
<title>Metamodel::MROBasedMethodDispatch</title>
<g id="a_node9"><a xlink:href="/type/Metamodel::MROBasedMethodDispatch" xlink:title="Metamodel::MROBasedMethodDispatch">
<ellipse fill="none" stroke="#6666ff" cx="401.4" cy="-577.59" rx="188.47" ry="18"/>
<text text-anchor="middle" x="401.4" y="-573.89" font-family="FreeSans" font-size="14.00" fill="#6666ff">Metamodel::MROBasedMethodDispatch</text>
</a>
</g>
</g>
<!-- Metamodel::MROBasedTypeChecking -->
<g id="node10" class="node">
<title>Metamodel::MROBasedTypeChecking</title>
<g id="a_node10"><a xlink:href="/type/Metamodel::MROBasedTypeChecking" xlink:title="Metamodel::MROBasedTypeChecking">
<ellipse fill="none" stroke="#6666ff" cx="624.13" cy="-298.72" rx="178.97" ry="18"/>
<text text-anchor="middle" x="624.13" y="-295.02" font-family="FreeSans" font-size="14.00" fill="#6666ff">Metamodel::MROBasedTypeChecking</text>
</a>
</g>
</g>
<!-- Metamodel::NativeHOW -->
<g id="node11" class="node">
<title>Metamodel::NativeHOW</title>
<g id="a_node11"><a xlink:href="/type/Metamodel::NativeHOW" xlink:title="Metamodel::NativeHOW">
<ellipse fill="none" stroke="#000000" cx="964.35" cy="-878.63" rx="118.08" ry="18"/>
<text text-anchor="middle" x="964.35" y="-874.93" font-family="FreeSans" font-size="14.00" fill="#000000">Metamodel::NativeHOW</text>
</a>
</g>
</g>
<!-- Metamodel::NativeHOW&#45;&gt;Metamodel::Documenting -->
<g id="edge9" class="edge">
<title>Metamodel::NativeHOW&#45;&gt;Metamodel::Documenting</title>
<path fill="none" stroke="#6666ff" d="M959.81,-896.92C939,-980.75 852.66,-1328.56 827.51,-1429.88"/>
<polygon fill="#6666ff" stroke="#6666ff" points="824.09,-1429.14 825.08,-1439.69 830.88,-1430.83 824.09,-1429.14"/>
</g>
<!-- Metamodel::NativeHOW&#45;&gt;Any -->
<g id="edge2" class="edge">
<title>Metamodel::NativeHOW&#45;&gt;Any</title>
<path fill="none" stroke="#000000" d="M977.1,-896.78C1032.34,-975.4 1248.22,-1282.66 1248.22,-1282.66 1248.22,-1282.66 1263.24,-1317.29 1274.35,-1342.89"/>
<polygon fill="#000000" stroke="#000000" points="1271.18,-1344.39 1278.37,-1352.17 1277.6,-1341.6 1271.18,-1344.39"/>
</g>
<!-- Metamodel::NativeHOW&#45;&gt;Metamodel::Naming -->
<g id="edge8" class="edge">
<title>Metamodel::NativeHOW&#45;&gt;Metamodel::Naming</title>
<path fill="none" stroke="#6666ff" d="M967.44,-896.78C980.83,-975.39 1033.14,-1282.63 1033.14,-1282.63 1033.14,-1282.63 1045.05,-1352.52 1051.95,-1393.06"/>
<polygon fill="#6666ff" stroke="#6666ff" points="1048.54,-1393.89 1053.67,-1403.16 1055.44,-1392.71 1048.54,-1393.89"/>
</g>
<!-- Metamodel::NativeHOW&#45;&gt;Metamodel::Versioning -->
<g id="edge10" class="edge">
<title>Metamodel::NativeHOW&#45;&gt;Metamodel::Versioning</title>
<path fill="none" stroke="#6666ff" d="M995.07,-896.13C1055.61,-930.61 1190.33,-1007.35 1257.49,-1045.6"/>
<polygon fill="#6666ff" stroke="#6666ff" points="1256.08,-1048.82 1266.5,-1050.73 1259.55,-1042.74 1256.08,-1048.82"/>
</g>
<!-- Metamodel::NativeHOW&#45;&gt;Metamodel::Stashing -->
<g id="edge11" class="edge">
<title>Metamodel::NativeHOW&#45;&gt;Metamodel::Stashing</title>
<path fill="none" stroke="#6666ff" d="M972.27,-896.78C1000.3,-960.99 1094.9,-1177.76 1128.62,-1255.02"/>
<polygon fill="#6666ff" stroke="#6666ff" points="1125.57,-1256.79 1132.78,-1264.55 1131.99,-1253.99 1125.57,-1256.79"/>
</g>
<!-- Metamodel::NativeHOW&#45;&gt;Metamodel::MultipleInheritance -->
<g id="edge12" class="edge">
<title>Metamodel::NativeHOW&#45;&gt;Metamodel::MultipleInheritance</title>
<path fill="none" stroke="#6666ff" d="M977.92,-860.65C1021.69,-802.6 1159.37,-620.04 1210.81,-551.82"/>
<polygon fill="#6666ff" stroke="#6666ff" points="1213.7,-553.81 1216.92,-543.72 1208.11,-549.59 1213.7,-553.81"/>
</g>
<!-- Metamodel::NativeHOW&#45;&gt;Metamodel::C3MRO -->
<g id="edge13" class="edge">
<title>Metamodel::NativeHOW&#45;&gt;Metamodel::C3MRO</title>
<path fill="none" stroke="#6666ff" d="M962,-860.5C950.37,-770.98 899.09,-376.07 884.87,-266.56"/>
<polygon fill="#6666ff" stroke="#6666ff" points="888.33,-266.05 883.57,-256.59 881.39,-266.96 888.33,-266.05"/>
</g>
<!-- Metamodel::NativeHOW&#45;&gt;Metamodel::MROBasedMethodDispatch -->
<g id="edge14" class="edge">
<title>Metamodel::NativeHOW&#45;&gt;Metamodel::MROBasedMethodDispatch</title>
<path fill="none" stroke="#6666ff" d="M925.75,-861.61C849.92,-828.15 688.81,-757.08 688.81,-757.08 688.81,-757.08 516.26,-649.32 438.55,-600.79"/>
<polygon fill="#6666ff" stroke="#6666ff" points="440.34,-597.79 430.01,-595.46 436.63,-603.72 440.34,-597.79"/>
</g>
<!-- Metamodel::NativeHOW&#45;&gt;Metamodel::MROBasedTypeChecking -->
<g id="edge15" class="edge">
<title>Metamodel::NativeHOW&#45;&gt;Metamodel::MROBasedTypeChecking</title>
<path fill="none" stroke="#6666ff" d="M957.44,-860.45C944.56,-826.57 918.19,-757.17 918.19,-757.17 918.19,-757.17 703.63,-422.66 641.06,-325.12"/>
<polygon fill="#6666ff" stroke="#6666ff" points="644,-323.22 635.66,-316.69 638.11,-327 644,-323.22"/>
</g>
<!-- Metamodel::AttributeContainer -->
<g id="node12" class="node">
<title>Metamodel::AttributeContainer</title>
<g id="a_node12"><a xlink:href="/type/Metamodel::AttributeContainer" xlink:title="Metamodel::AttributeContainer">
<ellipse fill="none" stroke="#6666ff" cx="756.89" cy="-1016.86" rx="150.27" ry="18"/>
<text text-anchor="middle" x="756.89" y="-1013.16" font-family="FreeSans" font-size="14.00" fill="#6666ff">Metamodel::AttributeContainer</text>
</a>
</g>
</g>
<!-- Metamodel::Finalization -->
<g id="node13" class="node">
<title>Metamodel::Finalization</title>
<g id="a_node13"><a xlink:href="/type/Metamodel::Finalization" xlink:title="Metamodel::Finalization">
<ellipse fill="none" stroke="#6666ff" cx="860" cy="-18" rx="116.98" ry="18"/>
<text text-anchor="middle" x="860" y="-14.3" font-family="FreeSans" font-size="14.00" fill="#6666ff">Metamodel::Finalization</text>
</a>
</g>
</g>
<!-- Metamodel::MethodContainer -->
<g id="node14" class="node">
<title>Metamodel::MethodContainer</title>
<g id="a_node14"><a xlink:href="/type/Metamodel::MethodContainer" xlink:title="Metamodel::MethodContainer">
<ellipse fill="none" stroke="#6666ff" cx="1518.21" cy="-592.26" rx="143.77" ry="18"/>
<text text-anchor="middle" x="1518.21" y="-588.56" font-family="FreeSans" font-size="14.00" fill="#6666ff">Metamodel::MethodContainer</text>
</a>
</g>
</g>
<!-- Metamodel::PrivateMethodContainer -->
<g id="node15" class="node">
<title>Metamodel::PrivateMethodContainer</title>
<g id="a_node15"><a xlink:href="/type/Metamodel::PrivateMethodContainer" xlink:title="Metamodel::PrivateMethodContainer">
<ellipse fill="none" stroke="#6666ff" cx="641.83" cy="-1211.23" rx="174.67" ry="18"/>
<text text-anchor="middle" x="641.83" y="-1207.53" font-family="FreeSans" font-size="14.00" fill="#6666ff">Metamodel::PrivateMethodContainer</text>
</a>
</g>
</g>
<!-- Metamodel::MultiMethodContainer -->
<g id="node16" class="node">
<title>Metamodel::MultiMethodContainer</title>
<g id="a_node16"><a xlink:href="/type/Metamodel::MultiMethodContainer" xlink:title="Metamodel::MultiMethodContainer">
<ellipse fill="none" stroke="#6666ff" cx="1297.24" cy="-316.39" rx="165.97" ry="18"/>
<text text-anchor="middle" x="1297.24" y="-312.69" font-family="FreeSans" font-size="14.00" fill="#6666ff">Metamodel::MultiMethodContainer</text>
</a>
</g>
</g>
<!-- Metamodel::RoleContainer -->
<g id="node17" class="node">
<title>Metamodel::RoleContainer</title>
<g id="a_node17"><a xlink:href="/type/Metamodel::RoleContainer" xlink:title="Metamodel::RoleContainer">
<ellipse fill="none" stroke="#6666ff" cx="1474.13" cy="-416.55" rx="129.98" ry="18"/>
<text text-anchor="middle" x="1474.13" y="-412.85" font-family="FreeSans" font-size="14.00" fill="#6666ff">Metamodel::RoleContainer</text>
</a>
</g>
</g>
<!-- Metamodel::DefaultParent -->
<g id="node18" class="node">
<title>Metamodel::DefaultParent</title>
<g id="a_node18"><a xlink:href="/type/Metamodel::DefaultParent" xlink:title="Metamodel::DefaultParent">
<ellipse fill="none" stroke="#6666ff" cx="202.65" cy="-1232.23" rx="128.08" ry="18"/>
<text text-anchor="middle" x="202.65" y="-1228.53" font-family="FreeSans" font-size="14.00" fill="#6666ff">Metamodel::DefaultParent</text>
</a>
</g>
</g>
<!-- Metamodel::Trusting -->
<g id="node19" class="node">
<title>Metamodel::Trusting</title>
<g id="a_node19"><a xlink:href="/type/Metamodel::Trusting" xlink:title="Metamodel::Trusting">
<ellipse fill="none" stroke="#6666ff" cx="104.12" cy="-771.33" rx="102.88" ry="18"/>
<text text-anchor="middle" x="104.12" y="-767.63" font-family="FreeSans" font-size="14.00" fill="#6666ff">Metamodel::Trusting</text>
</a>
</g>
</g>
<!-- Metamodel::BUILDPLAN -->
<g id="node20" class="node">
<title>Metamodel::BUILDPLAN</title>
<g id="a_node20"><a xlink:href="/type/Metamodel::BUILDPLAN" xlink:title="Metamodel::BUILDPLAN">
<ellipse fill="none" stroke="#6666ff" cx="125.13" cy="-1007.58" rx="118.08" ry="18"/>
<text text-anchor="middle" x="125.13" y="-1003.88" font-family="FreeSans" font-size="14.00" fill="#6666ff">Metamodel::BUILDPLAN</text>
</a>
</g>
</g>
<!-- Metamodel::Mixins -->
<g id="node21" class="node">
<title>Metamodel::Mixins</title>
<g id="a_node21"><a xlink:href="/type/Metamodel::Mixins" xlink:title="Metamodel::Mixins">
<ellipse fill="none" stroke="#6666ff" cx="380.04" cy="-199.64" rx="94.78" ry="18"/>
<text text-anchor="middle" x="380.04" y="-195.94" font-family="FreeSans" font-size="14.00" fill="#6666ff">Metamodel::Mixins</text>
</a>
</g>
</g>
<!-- Metamodel::BoolificationProtocol -->
<g id="node22" class="node">
<title>Metamodel::BoolificationProtocol</title>
<g id="a_node22"><a xlink:href="/type/Metamodel::BoolificationProtocol" xlink:title="Metamodel::BoolificationProtocol">
<ellipse fill="none" stroke="#6666ff" cx="157.29" cy="-485.2" rx="157.07" ry="18"/>
<text text-anchor="middle" x="157.29" y="-481.5" font-family="FreeSans" font-size="14.00" fill="#6666ff">Metamodel::BoolificationProtocol</text>
</a>
</g>
</g>
<!-- Metamodel::ClassHOW -->
<g id="node23" class="node">
<title>Metamodel::ClassHOW</title>
<g id="a_node23"><a xlink:href="/type/Metamodel::ClassHOW" xlink:title="Metamodel::ClassHOW">
<ellipse fill="none" stroke="#000000" cx="803.5" cy="-757.13" rx="113.18" ry="18"/>
<text text-anchor="middle" x="803.5" y="-753.43" font-family="FreeSans" font-size="14.00" fill="#000000">Metamodel::ClassHOW</text>
</a>
</g>
</g>
<!-- Metamodel::ClassHOW&#45;&gt;Metamodel::Documenting -->
<g id="edge17" class="edge">
<title>Metamodel::ClassHOW&#45;&gt;Metamodel::Documenting</title>
<path fill="none" stroke="#6666ff" d="M809.63,-775.3C821.06,-809.16 844.47,-878.52 844.47,-878.52 844.47,-878.52 908.62,-1016.93 908.62,-1016.93 908.62,-1016.93 845.6,-1332.55 826.21,-1429.63"/>
<polygon fill="#6666ff" stroke="#6666ff" points="822.75,-1429.1 824.22,-1439.59 829.61,-1430.47 822.75,-1429.1"/>
</g>
<!-- Metamodel::ClassHOW&#45;&gt;Any -->
<g id="edge3" class="edge">
<title>Metamodel::ClassHOW&#45;&gt;Any</title>
<path fill="none" stroke="#000000" d="M809.63,-775.3C821.06,-809.16 844.47,-878.52 844.47,-878.52 844.47,-878.52 1248.22,-1282.66 1248.22,-1282.66 1248.22,-1282.66 1263.24,-1317.29 1274.35,-1342.89"/>
<polygon fill="#000000" stroke="#000000" points="1271.18,-1344.39 1278.37,-1352.17 1277.6,-1341.6 1271.18,-1344.39"/>
</g>
<!-- Metamodel::ClassHOW&#45;&gt;Metamodel::Naming -->
<g id="edge16" class="edge">
<title>Metamodel::ClassHOW&#45;&gt;Metamodel::Naming</title>
<path fill="none" stroke="#6666ff" d="M809.63,-775.3C821.06,-809.16 844.47,-878.52 844.47,-878.52 844.47,-878.52 908.62,-1016.93 908.62,-1016.93 908.62,-1016.93 1013.29,-1302.62 1046.67,-1393.72"/>
<polygon fill="#6666ff" stroke="#6666ff" points="1043.38,-1394.94 1050.11,-1403.12 1049.96,-1392.53 1043.38,-1394.94"/>
</g>
<!-- Metamodel::ClassHOW&#45;&gt;Metamodel::Versioning -->
<g id="edge18" class="edge">
<title>Metamodel::ClassHOW&#45;&gt;Metamodel::Versioning</title>
<path fill="none" stroke="#6666ff" d="M842.53,-774.04C919.67,-807.46 1084.24,-878.75 1084.24,-878.75 1084.24,-878.75 1211.83,-992.27 1269.47,-1043.55"/>
<polygon fill="#6666ff" stroke="#6666ff" points="1267.32,-1046.33 1277.11,-1050.36 1271.97,-1041.1 1267.32,-1046.33"/>
</g>
<!-- Metamodel::ClassHOW&#45;&gt;Metamodel::Stashing -->
<g id="edge19" class="edge">
<title>Metamodel::ClassHOW&#45;&gt;Metamodel::Stashing</title>
<path fill="none" stroke="#6666ff" d="M809.63,-775.3C821.06,-809.16 844.47,-878.52 844.47,-878.52 844.47,-878.52 1055.93,-1167.01 1121.52,-1256.5"/>
<polygon fill="#6666ff" stroke="#6666ff" points="1118.83,-1258.76 1127.57,-1264.76 1124.48,-1254.62 1118.83,-1258.76"/>
</g>
<!-- Metamodel::ClassHOW&#45;&gt;Metamodel::MultipleInheritance -->
<g id="edge26" class="edge">
<title>Metamodel::ClassHOW&#45;&gt;Metamodel::MultipleInheritance</title>
<path fill="none" stroke="#6666ff" d="M835.59,-739.74C911.84,-698.42 1103.84,-594.38 1188.85,-548.32"/>
<polygon fill="#6666ff" stroke="#6666ff" points="1190.58,-551.36 1197.7,-543.52 1187.24,-545.21 1190.58,-551.36"/>
</g>
<!-- Metamodel::ClassHOW&#45;&gt;Metamodel::C3MRO -->
<g id="edge28" class="edge">
<title>Metamodel::ClassHOW&#45;&gt;Metamodel::C3MRO</title>
<path fill="none" stroke="#6666ff" d="M806.22,-738.97C817.78,-661.77 862.9,-360.49 876.98,-266.49"/>
<polygon fill="#6666ff" stroke="#6666ff" points="880.48,-266.73 878.5,-256.32 873.56,-265.69 880.48,-266.73"/>
</g>
<!-- Metamodel::ClassHOW&#45;&gt;Metamodel::MROBasedMethodDispatch -->
<g id="edge29" class="edge">
<title>Metamodel::ClassHOW&#45;&gt;Metamodel::MROBasedMethodDispatch</title>
<path fill="none" stroke="#6666ff" d="M765.31,-740.08C692.03,-707.36 531.77,-635.8 450.61,-599.56"/>
<polygon fill="#6666ff" stroke="#6666ff" points="451.67,-596.2 441.11,-595.32 448.81,-602.6 451.67,-596.2"/>
</g>
<!-- Metamodel::ClassHOW&#45;&gt;Metamodel::MROBasedTypeChecking -->
<g id="edge30" class="edge">
<title>Metamodel::ClassHOW&#45;&gt;Metamodel::MROBasedTypeChecking</title>
<path fill="none" stroke="#6666ff" d="M796.47,-739.16C768.96,-668.85 668.49,-412.1 635.04,-326.61"/>
<polygon fill="#6666ff" stroke="#6666ff" points="638.21,-325.1 631.31,-317.06 631.69,-327.65 638.21,-325.1"/>
</g>
<!-- Metamodel::ClassHOW&#45;&gt;Metamodel::AttributeContainer -->
<g id="edge20" class="edge">
<title>Metamodel::ClassHOW&#45;&gt;Metamodel::AttributeContainer</title>
<path fill="none" stroke="#6666ff" d="M800.22,-775.39C792.21,-820.01 771.61,-934.8 761.99,-988.44"/>
<polygon fill="#6666ff" stroke="#6666ff" points="758.48,-988.15 760.16,-998.61 765.37,-989.39 758.48,-988.15"/>
</g>
<!-- Metamodel::ClassHOW&#45;&gt;Metamodel::Finalization -->
<g id="edge21" class="edge">
<title>Metamodel::ClassHOW&#45;&gt;Metamodel::Finalization</title>
<path fill="none" stroke="#6666ff" d="M803.54,-738.88C803.71,-653.65 804.46,-298.85 804.46,-298.85 804.46,-298.85 779.51,-238.17 779.51,-238.17 779.51,-238.17 828.38,-104.51 849.96,-45.47"/>
<polygon fill="#6666ff" stroke="#6666ff" points="853.27,-46.61 853.42,-36.02 846.7,-44.21 853.27,-46.61"/>
</g>
<!-- Metamodel::ClassHOW&#45;&gt;Metamodel::MethodContainer -->
<g id="edge22" class="edge">
<title>Metamodel::ClassHOW&#45;&gt;Metamodel::MethodContainer</title>
<path fill="none" stroke="#6666ff" d="M867.87,-742.28C999.05,-712.02 1296.95,-643.3 1439.43,-610.43"/>
<polygon fill="#6666ff" stroke="#6666ff" points="1440.46,-613.79 1449.42,-608.13 1438.89,-606.97 1440.46,-613.79"/>
</g>
<!-- Metamodel::ClassHOW&#45;&gt;Metamodel::PrivateMethodContainer -->
<g id="edge23" class="edge">
<title>Metamodel::ClassHOW&#45;&gt;Metamodel::PrivateMethodContainer</title>
<path fill="none" stroke="#6666ff" d="M789.55,-775.39C744.4,-834.49 605.15,-1016.78 605.15,-1016.78 605.15,-1016.78 626.33,-1129.06 636.5,-1182.98"/>
<polygon fill="#6666ff" stroke="#6666ff" points="633.09,-1183.76 638.38,-1192.94 639.97,-1182.46 633.09,-1183.76"/>
</g>
<!-- Metamodel::ClassHOW&#45;&gt;Metamodel::MultiMethodContainer -->
<g id="edge24" class="edge">
<title>Metamodel::ClassHOW&#45;&gt;Metamodel::MultiMethodContainer</title>
<path fill="none" stroke="#6666ff" d="M823.46,-739.31C900.69,-670.37 1179.97,-421.07 1269.45,-341.2"/>
<polygon fill="#6666ff" stroke="#6666ff" points="1271.89,-343.71 1277.02,-334.44 1267.23,-338.49 1271.89,-343.71"/>
</g>
<!-- Metamodel::ClassHOW&#45;&gt;Metamodel::RoleContainer -->
<g id="edge25" class="edge">
<title>Metamodel::ClassHOW&#45;&gt;Metamodel::RoleContainer</title>
<path fill="none" stroke="#6666ff" d="M845.82,-740.31C979.73,-687.08 1385.44,-525.82 1385.44,-525.82 1385.44,-525.82 1426.96,-474.67 1453.18,-442.36"/>
<polygon fill="#6666ff" stroke="#6666ff" points="1455.9,-444.57 1459.48,-434.6 1450.46,-440.16 1455.9,-444.57"/>
</g>
<!-- Metamodel::ClassHOW&#45;&gt;Metamodel::DefaultParent -->
<g id="edge27" class="edge">
<title>Metamodel::ClassHOW&#45;&gt;Metamodel::DefaultParent</title>
<path fill="none" stroke="#6666ff" d="M781.04,-774.89C688.84,-847.79 339.26,-1124.21 233.29,-1208.01"/>
<polygon fill="#6666ff" stroke="#6666ff" points="230.9,-1205.43 225.22,-1214.38 235.24,-1210.92 230.9,-1205.43"/>
</g>
<!-- Metamodel::ClassHOW&#45;&gt;Metamodel::Trusting -->
<g id="edge31" class="edge">
<title>Metamodel::ClassHOW&#45;&gt;Metamodel::Trusting</title>
<path fill="none" stroke="#6666ff" d="M691.13,-759.41C560.64,-762.06 346.67,-766.41 216.27,-769.06"/>
<polygon fill="#6666ff" stroke="#6666ff" points="216.18,-765.56 206.25,-769.26 216.32,-772.56 216.18,-765.56"/>
</g>
<!-- Metamodel::ClassHOW&#45;&gt;Metamodel::BUILDPLAN -->
<g id="edge32" class="edge">
<title>Metamodel::ClassHOW&#45;&gt;Metamodel::BUILDPLAN</title>
<path fill="none" stroke="#6666ff" d="M758.73,-773.66C638.86,-817.91 310.93,-938.98 180.09,-987.29"/>
<polygon fill="#6666ff" stroke="#6666ff" points="178.82,-984.03 170.65,-990.77 181.24,-990.59 178.82,-984.03"/>
</g>
<!-- Metamodel::ClassHOW&#45;&gt;Metamodel::Mixins -->
<g id="edge33" class="edge">
<title>Metamodel::ClassHOW&#45;&gt;Metamodel::Mixins</title>
<path fill="none" stroke="#6666ff" d="M789.4,-739.15C722.89,-654.38 443.8,-298.59 443.8,-298.59 443.8,-298.59 416.16,-255.69 397.27,-226.38"/>
<polygon fill="#6666ff" stroke="#6666ff" points="400.09,-224.3 391.73,-217.79 394.21,-228.09 400.09,-224.3"/>
</g>
<!-- Metamodel::ClassHOW&#45;&gt;Metamodel::BoolificationProtocol -->
<g id="edge34" class="edge">
<title>Metamodel::ClassHOW&#45;&gt;Metamodel::BoolificationProtocol</title>
<path fill="none" stroke="#6666ff" d="M782.39,-739.27C728.76,-693.9 591.48,-577.74 591.48,-577.74 591.48,-577.74 536.82,-563.84 536.82,-563.84 536.82,-563.84 355.57,-526.28 243.58,-503.08"/>
<polygon fill="#6666ff" stroke="#6666ff" points="244.14,-499.62 233.63,-501.02 242.72,-506.48 244.14,-499.62"/>
</g>
<!-- Metamodel::TypePretense -->
<g id="node24" class="node">
<title>Metamodel::TypePretense</title>
<g id="a_node24"><a xlink:href="/type/Metamodel::TypePretense" xlink:title="Metamodel::TypePretense">
<ellipse fill="none" stroke="#6666ff" cx="1870.66" cy="-1628.29" rx="126.18" ry="18"/>
<text text-anchor="middle" x="1870.66" y="-1624.59" font-family="FreeSans" font-size="14.00" fill="#6666ff">Metamodel::TypePretense</text>
</a>
</g>
</g>
<!-- Metamodel::MethodDelegation -->
<g id="node25" class="node">
<title>Metamodel::MethodDelegation</title>
<g id="a_node25"><a xlink:href="/type/Metamodel::MethodDelegation" xlink:title="Metamodel::MethodDelegation">
<ellipse fill="none" stroke="#6666ff" cx="1484.18" cy="-2393.64" rx="148.37" ry="18"/>
<text text-anchor="middle" x="1484.18" y="-2389.94" font-family="FreeSans" font-size="14.00" fill="#6666ff">Metamodel::MethodDelegation</text>
</a>
</g>
</g>
<!-- Metamodel::ModuleHOW -->
<g id="node26" class="node">
<title>Metamodel::ModuleHOW</title>
<g id="a_node26"><a xlink:href="/type/Metamodel::ModuleHOW" xlink:title="Metamodel::ModuleHOW">
<ellipse fill="none" stroke="#000000" cx="1428.48" cy="-1775.28" rx="122.38" ry="18"/>
<text text-anchor="middle" x="1428.48" y="-1771.58" font-family="FreeSans" font-size="14.00" fill="#000000">Metamodel::ModuleHOW</text>
</a>
</g>
</g>
<!-- Metamodel::ModuleHOW&#45;&gt;Metamodel::Documenting -->
<g id="edge36" class="edge">
<title>Metamodel::ModuleHOW&#45;&gt;Metamodel::Documenting</title>
<path fill="none" stroke="#6666ff" d="M1394.93,-1757.76C1291.56,-1703.75 977.98,-1539.92 863.25,-1479.97"/>
<polygon fill="#6666ff" stroke="#6666ff" points="864.54,-1476.7 854.05,-1475.17 861.29,-1482.9 864.54,-1476.7"/>
</g>
<!-- Metamodel::ModuleHOW&#45;&gt;Any -->
<g id="edge4" class="edge">
<title>Metamodel::ModuleHOW&#45;&gt;Any</title>
<path fill="none" stroke="#000000" d="M1422.08,-1757.07C1399.39,-1692.48 1322.65,-1474.07 1295.58,-1397"/>
<polygon fill="#000000" stroke="#000000" points="1298.86,-1395.78 1292.24,-1387.51 1292.25,-1398.1 1298.86,-1395.78"/>
</g>
<!-- Metamodel::ModuleHOW&#45;&gt;Metamodel::Naming -->
<g id="edge35" class="edge">
<title>Metamodel::ModuleHOW&#45;&gt;Metamodel::Naming</title>
<path fill="none" stroke="#6666ff" d="M1409.79,-1757.49C1348.57,-1699.18 1153.91,-1513.8 1082.96,-1446.23"/>
<polygon fill="#6666ff" stroke="#6666ff" points="1085.36,-1443.69 1075.71,-1439.33 1080.54,-1448.76 1085.36,-1443.69"/>
</g>
<!-- Metamodel::ModuleHOW&#45;&gt;Metamodel::Versioning -->
<g id="edge37" class="edge">
<title>Metamodel::ModuleHOW&#45;&gt;Metamodel::Versioning</title>
<path fill="none" stroke="#6666ff" d="M1425.1,-1757.09C1407.27,-1661.09 1324.09,-1213.26 1302.35,-1096.22"/>
<polygon fill="#6666ff" stroke="#6666ff" points="1305.77,-1095.44 1300.5,-1086.25 1298.88,-1096.72 1305.77,-1095.44"/>
</g>
<!-- Metamodel::ModuleHOW&#45;&gt;Metamodel::Stashing -->
<g id="edge38" class="edge">
<title>Metamodel::ModuleHOW&#45;&gt;Metamodel::Stashing</title>
<path fill="none" stroke="#6666ff" d="M1417.89,-1757.17C1374.26,-1682.48 1208.19,-1398.2 1156.28,-1309.35"/>
<polygon fill="#6666ff" stroke="#6666ff" points="1159.27,-1307.54 1151.21,-1300.67 1153.23,-1311.07 1159.27,-1307.54"/>
</g>
<!-- Metamodel::ModuleHOW&#45;&gt;Metamodel::TypePretense -->
<g id="edge39" class="edge">
<title>Metamodel::ModuleHOW&#45;&gt;Metamodel::TypePretense</title>
<path fill="none" stroke="#6666ff" d="M1478.34,-1758.71C1560.31,-1731.46 1723.17,-1677.32 1811.08,-1648.1"/>
<polygon fill="#6666ff" stroke="#6666ff" points="1812.26,-1651.4 1820.64,-1644.92 1810.05,-1644.75 1812.26,-1651.4"/>
</g>
<!-- Metamodel::ModuleHOW&#45;&gt;Metamodel::MethodDelegation -->
<g id="edge40" class="edge">
<title>Metamodel::ModuleHOW&#45;&gt;Metamodel::MethodDelegation</title>
<path fill="none" stroke="#6666ff" d="M1430.11,-1793.46C1437.99,-1880.92 1472.03,-2258.71 1481.64,-2365.45"/>
<polygon fill="#6666ff" stroke="#6666ff" points="1478.16,-2365.82 1482.55,-2375.47 1485.13,-2365.2 1478.16,-2365.82"/>
</g>
<!-- Metamodel::PackageHOW -->
<g id="node27" class="node">
<title>Metamodel::PackageHOW</title>
<g id="a_node27"><a xlink:href="/type/Metamodel::PackageHOW" xlink:title="Metamodel::PackageHOW">
<ellipse fill="none" stroke="#000000" cx="1265.97" cy="-1913.9" rx="126.98" ry="18"/>
<text text-anchor="middle" x="1265.97" y="-1910.2" font-family="FreeSans" font-size="14.00" fill="#000000">Metamodel::PackageHOW</text>
</a>
</g>
</g>
<!-- Metamodel::PackageHOW&#45;&gt;Metamodel::Documenting -->
<g id="edge42" class="edge">
<title>Metamodel::PackageHOW&#45;&gt;Metamodel::Documenting</title>
<path fill="none" stroke="#6666ff" d="M1248.51,-1896.01C1179.65,-1825.47 926.69,-1566.36 845.72,-1483.41"/>
<polygon fill="#6666ff" stroke="#6666ff" points="847.92,-1480.66 838.43,-1475.95 842.91,-1485.55 847.92,-1480.66"/>
</g>
<!-- Metamodel::PackageHOW&#45;&gt;Any -->
<g id="edge5" class="edge">
<title>Metamodel::PackageHOW&#45;&gt;Any</title>
<path fill="none" stroke="#000000" d="M1266.64,-1895.79C1269.58,-1816.07 1281.38,-1495.94 1284.98,-1398.25"/>
<polygon fill="#000000" stroke="#000000" points="1288.48,-1398.1 1285.35,-1387.98 1281.49,-1397.84 1288.48,-1398.1"/>
</g>
<!-- Metamodel::PackageHOW&#45;&gt;Metamodel::Naming -->
<g id="edge41" class="edge">
<title>Metamodel::PackageHOW&#45;&gt;Metamodel::Naming</title>
<path fill="none" stroke="#6666ff" d="M1258.28,-1895.78C1226.62,-1821.24 1106.32,-1537.98 1068.33,-1448.53"/>
<polygon fill="#6666ff" stroke="#6666ff" points="1071.55,-1447.14 1064.42,-1439.3 1065.1,-1449.88 1071.55,-1447.14"/>
</g>
<!-- Metamodel::PackageHOW&#45;&gt;Metamodel::Stashing -->
<g id="edge43" class="edge">
<title>Metamodel::PackageHOW&#45;&gt;Metamodel::Stashing</title>
<path fill="none" stroke="#6666ff" d="M1262.36,-1895.69C1244.73,-1806.87 1167.75,-1419.04 1146.27,-1310.79"/>
<polygon fill="#6666ff" stroke="#6666ff" points="1149.69,-1310.06 1144.31,-1300.93 1142.82,-1311.42 1149.69,-1310.06"/>
</g>
<!-- Metamodel::PackageHOW&#45;&gt;Metamodel::TypePretense -->
<g id="edge44" class="edge">
<title>Metamodel::PackageHOW&#45;&gt;Metamodel::TypePretense</title>
<path fill="none" stroke="#6666ff" d="M1302.89,-1896.46C1408.02,-1846.81 1708.83,-1704.73 1824.54,-1650.08"/>
<polygon fill="#6666ff" stroke="#6666ff" points="1826.3,-1653.12 1833.85,-1645.68 1823.31,-1646.79 1826.3,-1653.12"/>
</g>
<!-- Metamodel::PackageHOW&#45;&gt;Metamodel::MethodDelegation -->
<g id="edge45" class="edge">
<title>Metamodel::PackageHOW&#45;&gt;Metamodel::MethodDelegation</title>
<path fill="none" stroke="#6666ff" d="M1274.26,-1932.12C1307.58,-2005.37 1431.89,-2278.67 1471.78,-2366.37"/>
<polygon fill="#6666ff" stroke="#6666ff" points="1468.68,-2368.01 1476,-2375.66 1475.05,-2365.11 1468.68,-2368.01"/>
</g>
<!-- Metamodel::SubsetHOW -->
<g id="node28" class="node">
<title>Metamodel::SubsetHOW</title>
<g id="a_node28"><a xlink:href="/type/Metamodel::SubsetHOW" xlink:title="Metamodel::SubsetHOW">
<ellipse fill="none" stroke="#000000" cx="759.36" cy="-1947.77" rx="120.48" ry="18"/>
<text text-anchor="middle" x="759.36" y="-1944.07" font-family="FreeSans" font-size="14.00" fill="#000000">Metamodel::SubsetHOW</text>
</a>
</g>
</g>
<!-- Metamodel::SubsetHOW&#45;&gt;Metamodel::Documenting -->
<g id="edge47" class="edge">
<title>Metamodel::SubsetHOW&#45;&gt;Metamodel::Documenting</title>
<path fill="none" stroke="#6666ff" d="M761.61,-1929.74C770.84,-1855.9 805.81,-1576.13 817.08,-1485.92"/>
<polygon fill="#6666ff" stroke="#6666ff" points="820.57,-1486.24 818.34,-1475.88 813.62,-1485.37 820.57,-1486.24"/>
</g>
<!-- Metamodel::SubsetHOW&#45;&gt;Any -->
<g id="edge6" class="edge">
<title>Metamodel::SubsetHOW&#45;&gt;Any</title>
<path fill="none" stroke="#000000" d="M775.69,-1929.84C852.54,-1845.51 1177.89,-1488.47 1264.67,-1393.24"/>
<polygon fill="#000000" stroke="#000000" points="1267.49,-1395.34 1271.64,-1385.59 1262.32,-1390.62 1267.49,-1395.34"/>
</g>
<!-- Metamodel::SubsetHOW&#45;&gt;Metamodel::Naming -->
<g id="edge46" class="edge">
<title>Metamodel::SubsetHOW&#45;&gt;Metamodel::Naming</title>
<path fill="none" stroke="#6666ff" d="M769.59,-1929.64C813.83,-1851.33 988.73,-1541.72 1041.57,-1448.18"/>
<polygon fill="#6666ff" stroke="#6666ff" points="1044.7,-1449.76 1046.57,-1439.33 1038.6,-1446.32 1044.7,-1449.76"/>
</g>
<!-- Metamodel::RolePunning -->
<g id="node29" class="node">
<title>Metamodel::RolePunning</title>
<g id="a_node29"><a xlink:href="/type/Metamodel::RolePunning" xlink:title="Metamodel::RolePunning">
<ellipse fill="none" stroke="#6666ff" cx="2161.78" cy="-885.99" rx="122.68" ry="18"/>
<text text-anchor="middle" x="2161.78" y="-882.29" font-family="FreeSans" font-size="14.00" fill="#6666ff">Metamodel::RolePunning</text>
</a>
</g>
</g>
<!-- Metamodel::ParametricRoleHOW -->
<g id="node30" class="node">
<title>Metamodel::ParametricRoleHOW</title>
<g id="a_node30"><a xlink:href="/type/Metamodel::ParametricRoleHOW" xlink:title="Metamodel::ParametricRoleHOW">
<ellipse fill="none" stroke="#000000" cx="1511.5" cy="-1024.01" rx="157.07" ry="18"/>
<text text-anchor="middle" x="1511.5" y="-1020.31" font-family="FreeSans" font-size="14.00" fill="#000000">Metamodel::ParametricRoleHOW</text>
</a>
</g>
</g>
<!-- Metamodel::ParametricRoleHOW&#45;&gt;Metamodel::Documenting -->
<g id="edge49" class="edge">
<title>Metamodel::ParametricRoleHOW&#45;&gt;Metamodel::Documenting</title>
<path fill="none" stroke="#6666ff" d="M1478.62,-1041.79C1370.54,-1100.22 1033.14,-1282.63 1033.14,-1282.63 1033.14,-1282.63 908.22,-1385.53 849.92,-1433.55"/>
<polygon fill="#6666ff" stroke="#6666ff" points="847.65,-1430.88 842.16,-1439.94 852.1,-1436.29 847.65,-1430.88"/>
</g>
<!-- Metamodel::ParametricRoleHOW&#45;&gt;Any -->
<g id="edge7" class="edge">
<title>Metamodel::ParametricRoleHOW&#45;&gt;Any</title>
<path fill="none" stroke="#000000" d="M1499.69,-1042.12C1462.22,-1099.59 1345.88,-1278 1302.53,-1344.49"/>
<polygon fill="#000000" stroke="#000000" points="1299.44,-1342.82 1296.91,-1353.11 1305.31,-1346.64 1299.44,-1342.82"/>
</g>
<!-- Metamodel::ParametricRoleHOW&#45;&gt;Metamodel::Naming -->
<g id="edge48" class="edge">
<title>Metamodel::ParametricRoleHOW&#45;&gt;Metamodel::Naming</title>
<path fill="none" stroke="#6666ff" d="M1492.99,-1042.2C1433.06,-1101.07 1248.22,-1282.66 1248.22,-1282.66 1248.22,-1282.66 1143.98,-1358.14 1089.33,-1397.7"/>
<polygon fill="#6666ff" stroke="#6666ff" points="1087.06,-1395.03 1081.01,-1403.73 1091.16,-1400.7 1087.06,-1395.03"/>
</g>
<!-- Metamodel::ParametricRoleHOW&#45;&gt;Metamodel::Versioning -->
<g id="edge50" class="edge">
<title>Metamodel::ParametricRoleHOW&#45;&gt;Metamodel::Versioning</title>
<path fill="none" stroke="#6666ff" d="M1435.02,-1039.77C1416.08,-1043.67 1395.74,-1047.86 1376.66,-1051.8"/>
<polygon fill="#6666ff" stroke="#6666ff" points="1375.89,-1048.38 1366.81,-1053.83 1377.31,-1055.24 1375.89,-1048.38"/>
</g>
<!-- Metamodel::ParametricRoleHOW&#45;&gt;Metamodel::Stashing -->
<g id="edge57" class="edge">
<title>Metamodel::ParametricRoleHOW&#45;&gt;Metamodel::Stashing</title>
<path fill="none" stroke="#6666ff" d="M1486.01,-1041.79C1420.76,-1087.3 1247.65,-1208.03 1174.29,-1259.2"/>
<polygon fill="#6666ff" stroke="#6666ff" points="1172.06,-1256.49 1165.86,-1265.09 1176.06,-1262.24 1172.06,-1256.49"/>
</g>
<!-- Metamodel::ParametricRoleHOW&#45;&gt;Metamodel::MultipleInheritance -->
<g id="edge56" class="edge">
<title>Metamodel::ParametricRoleHOW&#45;&gt;Metamodel::MultipleInheritance</title>
<path fill="none" stroke="#6666ff" d="M1501.33,-1005.99C1458.94,-930.83 1296.15,-642.23 1245.55,-552.53"/>
<polygon fill="#6666ff" stroke="#6666ff" points="1248.58,-550.76 1240.61,-543.77 1242.48,-554.2 1248.58,-550.76"/>
</g>
<!-- Metamodel::ParametricRoleHOW&#45;&gt;Metamodel::AttributeContainer -->
<g id="edge54" class="edge">
<title>Metamodel::ParametricRoleHOW&#45;&gt;Metamodel::AttributeContainer</title>
<path fill="none" stroke="#6666ff" d="M1354.68,-1022.53C1226.56,-1021.31 1046.17,-1019.6 917.12,-1018.38"/>
<polygon fill="#6666ff" stroke="#6666ff" points="916.78,-1014.87 906.75,-1018.28 916.72,-1021.87 916.78,-1014.87"/>
</g>
<!-- Metamodel::ParametricRoleHOW&#45;&gt;Metamodel::MethodContainer -->
<g id="edge51" class="edge">
<title>Metamodel::ParametricRoleHOW&#45;&gt;Metamodel::MethodContainer</title>
<path fill="none" stroke="#6666ff" d="M1511.78,-1006.01C1512.82,-938.81 1516.5,-702.28 1517.77,-620.4"/>
<polygon fill="#6666ff" stroke="#6666ff" points="1521.27,-620.39 1517.93,-610.34 1514.27,-620.29 1521.27,-620.39"/>
</g>
<!-- Metamodel::ParametricRoleHOW&#45;&gt;Metamodel::PrivateMethodContainer -->
<g id="edge52" class="edge">
<title>Metamodel::ParametricRoleHOW&#45;&gt;Metamodel::PrivateMethodContainer</title>
<path fill="none" stroke="#6666ff" d="M1394,-1036.02C1311.31,-1044.48 1215.29,-1054.29 1215.29,-1054.29 1215.29,-1054.29 867.04,-1149.6 713.31,-1191.67"/>
<polygon fill="#6666ff" stroke="#6666ff" points="712.19,-1188.35 703.47,-1194.36 714.04,-1195.1 712.19,-1188.35"/>
</g>
<!-- Metamodel::ParametricRoleHOW&#45;&gt;Metamodel::MultiMethodContainer -->
<g id="edge53" class="edge">
<title>Metamodel::ParametricRoleHOW&#45;&gt;Metamodel::MultiMethodContainer</title>
<path fill="none" stroke="#6666ff" d="M1505.72,-1006.01C1479.51,-924.27 1372.97,-592.15 1372.97,-592.15 1372.97,-592.15 1385.44,-525.82 1385.44,-525.82 1385.44,-525.82 1332.87,-401 1308.9,-344.09"/>
<polygon fill="#6666ff" stroke="#6666ff" points="1312.02,-342.47 1304.91,-334.61 1305.57,-345.19 1312.02,-342.47"/>
</g>
<!-- Metamodel::ParametricRoleHOW&#45;&gt;Metamodel::RoleContainer -->
<g id="edge55" class="edge">
<title>Metamodel::ParametricRoleHOW&#45;&gt;Metamodel::RoleContainer</title>
<path fill="none" stroke="#6666ff" d="M1505.72,-1006.01C1479.51,-924.27 1372.97,-592.15 1372.97,-592.15 1372.97,-592.15 1430.22,-492.77 1458.58,-443.54"/>
<polygon fill="#6666ff" stroke="#6666ff" points="1461.72,-445.1 1463.68,-434.68 1455.66,-441.6 1461.72,-445.1"/>
</g>
<!-- Metamodel::ParametricRoleHOW&#45;&gt;Metamodel::TypePretense -->
<g id="edge58" class="edge">
<title>Metamodel::ParametricRoleHOW&#45;&gt;Metamodel::TypePretense</title>
<path fill="none" stroke="#6666ff" d="M1522.25,-1042.1C1573.52,-1128.36 1793.29,-1498.12 1854.68,-1601.4"/>
<polygon fill="#6666ff" stroke="#6666ff" points="1851.84,-1603.47 1859.96,-1610.28 1857.86,-1599.89 1851.84,-1603.47"/>
</g>
<!-- Metamodel::ParametricRoleHOW&#45;&gt;Metamodel::RolePunning -->
<g id="edge59" class="edge">
<title>Metamodel::ParametricRoleHOW&#45;&gt;Metamodel::RolePunning</title>
<path fill="none" stroke="#6666ff" d="M1586.41,-1008.11C1709.81,-981.92 1954.76,-929.93 2081.55,-903.02"/>
<polygon fill="#6666ff" stroke="#6666ff" points="2082.53,-906.39 2091.59,-900.89 2081.08,-899.54 2082.53,-906.39"/>
</g>
</g>
</svg>
