<?xml version="1.0" encoding="UTF-8" standalone="no"?>
<!DOCTYPE svg PUBLIC "-//W3C//DTD SVG 1.1//EN"
 "http://www.w3.org/Graphics/SVG/1.1/DTD/svg11.dtd">
<!-- Generated by graphviz version 2.42.3 (0)
 -->
<!-- Title: perl6&#45;type&#45;graph Pages: 1 -->
<svg width="256pt" height="188pt"
 viewBox="0.00 0.00 255.95 188.00" xmlns="http://www.w3.org/2000/svg" xmlns:xlink="http://www.w3.org/1999/xlink">
<g id="graph0" class="graph" transform="scale(1 1) rotate(0) translate(4 184)">
<title>perl6&#45;type&#45;graph</title>
<polygon fill="white" stroke="transparent" points="-4,4 -4,-184 251.95,-184 251.95,4 -4,4"/>
<!-- Systemic -->
<g id="node1" class="node">
<title>Systemic</title>
<g id="a_node1"><a xlink:href="/type/Systemic" xlink:title="Systemic">
<ellipse fill="none" stroke="#6666ff" cx="74.95" cy="-90" rx="51.99" ry="18"/>
<text text-anchor="middle" x="74.95" y="-86.3" font-family="FreeSans" font-size="14.00" fill="#6666ff">Systemic</text>
</a>
</g>
</g>
<!-- Mu -->
<g id="node2" class="node">
<title>Mu</title>
<g id="a_node2"><a xlink:href="/type/Mu" xlink:title="Mu">
<ellipse fill="none" stroke="#000000" cx="173.95" cy="-162" rx="27" ry="18"/>
<text text-anchor="middle" x="173.95" y="-158.3" font-family="FreeSans" font-size="14.00" fill="#000000">Mu</text>
</a>
</g>
</g>
<!-- Any -->
<g id="node3" class="node">
<title>Any</title>
<g id="a_node3"><a xlink:href="/type/Any" xlink:title="Any">
<ellipse fill="none" stroke="#000000" cx="173.95" cy="-90" rx="28.7" ry="18"/>
<text text-anchor="middle" x="173.95" y="-86.3" font-family="FreeSans" font-size="14.00" fill="#000000">Any</text>
</a>
</g>
</g>
<!-- Any&#45;&gt;Mu -->
<g id="edge1" class="edge">
<title>Any&#45;&gt;Mu</title>
<path fill="none" stroke="#000000" d="M173.95,-108.3C173.95,-116.02 173.95,-125.29 173.95,-133.89"/>
<polygon fill="#000000" stroke="#000000" points="170.45,-133.9 173.95,-143.9 177.45,-133.9 170.45,-133.9"/>
</g>
<!-- Perl -->
<g id="node4" class="node">
<title>Perl</title>
<g id="a_node4"><a xlink:href="/type/Perl" xlink:title="Perl">
<ellipse fill="none" stroke="#000000" cx="27.95" cy="-18" rx="27.9" ry="18"/>
<text text-anchor="middle" x="27.95" y="-14.3" font-family="FreeSans" font-size="14.00" fill="#000000">Perl</text>
</a>
</g>
</g>
<!-- Perl&#45;&gt;Systemic -->
<g id="edge5" class="edge">
<title>Perl&#45;&gt;Systemic</title>
<path fill="none" stroke="#6666ff" d="M38.61,-34.88C44.34,-43.41 51.52,-54.11 57.99,-63.75"/>
<polygon fill="#6666ff" stroke="#6666ff" points="55.19,-65.85 63.67,-72.2 61,-61.95 55.19,-65.85"/>
</g>
<!-- Perl&#45;&gt;Any -->
<g id="edge2" class="edge">
<title>Perl&#45;&gt;Any</title>
<path fill="none" stroke="#000000" d="M49.81,-29.48C74.43,-41.28 114.65,-60.57 142.61,-73.97"/>
<polygon fill="#000000" stroke="#000000" points="141.41,-77.28 151.94,-78.45 144.44,-70.97 141.41,-77.28"/>
</g>
<!-- Compiler -->
<g id="node5" class="node">
<title>Compiler</title>
<g id="a_node5"><a xlink:href="/type/Compiler" xlink:title="Compiler">
<ellipse fill="none" stroke="#000000" cx="124.95" cy="-18" rx="51.19" ry="18"/>
<text text-anchor="middle" x="124.95" y="-14.3" font-family="FreeSans" font-size="14.00" fill="#000000">Compiler</text>
</a>
</g>
</g>
<!-- Compiler&#45;&gt;Systemic -->
<g id="edge6" class="edge">
<title>Compiler&#45;&gt;Systemic</title>
<path fill="none" stroke="#6666ff" d="M113.1,-35.59C107.08,-44.01 99.65,-54.42 92.95,-63.8"/>
<polygon fill="#6666ff" stroke="#6666ff" points="90.02,-61.87 87.06,-72.04 95.72,-65.94 90.02,-61.87"/>
</g>
<!-- Compiler&#45;&gt;Any -->
<g id="edge3" class="edge">
<title>Compiler&#45;&gt;Any</title>
<path fill="none" stroke="#000000" d="M136.56,-35.59C142.63,-44.26 150.17,-55.03 156.88,-64.62"/>
<polygon fill="#000000" stroke="#000000" points="154.15,-66.83 162.76,-73.01 159.89,-62.81 154.15,-66.83"/>
</g>
<!-- VM -->
<g id="node6" class="node">
<title>VM</title>
<g id="a_node6"><a xlink:href="/type/VM" xlink:title="VM">
<ellipse fill="none" stroke="#000000" cx="220.95" cy="-18" rx="27" ry="18"/>
<text text-anchor="middle" x="220.95" y="-14.3" font-family="FreeSans" font-size="14.00" fill="#000000">VM</text>
</a>
</g>
</g>
<!-- VM&#45;&gt;Systemic -->
<g id="edge7" class="edge">
<title>VM&#45;&gt;Systemic</title>
<path fill="none" stroke="#6666ff" d="M199.72,-29.18C177.15,-40 140.98,-57.34 113.38,-70.57"/>
<polygon fill="#6666ff" stroke="#6666ff" points="111.52,-67.58 104.01,-75.06 114.54,-73.9 111.52,-67.58"/>
</g>
<!-- VM&#45;&gt;Any -->
<g id="edge4" class="edge">
<title>VM&#45;&gt;Any</title>
<path fill="none" stroke="#000000" d="M210.28,-34.88C204.39,-43.66 196.95,-54.74 190.34,-64.58"/>
<polygon fill="#000000" stroke="#000000" points="187.24,-62.93 184.57,-73.18 193.05,-66.83 187.24,-62.93"/>
</g>
</g>
</svg>
