<?xml version="1.0" encoding="UTF-8" standalone="no"?>
<!DOCTYPE svg PUBLIC "-//W3C//DTD SVG 1.1//EN"
 "http://www.w3.org/Graphics/SVG/1.1/DTD/svg11.dtd">
<!-- Generated by graphviz version 2.42.3 (0)
 -->
<!-- Title: perl6&#45;type&#45;graph Pages: 1 -->
<svg width="222pt" height="260pt"
 viewBox="0.00 0.00 222.48 260.00" xmlns="http://www.w3.org/2000/svg" xmlns:xlink="http://www.w3.org/1999/xlink">
<g id="graph0" class="graph" transform="scale(1 1) rotate(0) translate(4 256)">
<title>perl6&#45;type&#45;graph</title>
<polygon fill="white" stroke="transparent" points="-4,4 -4,-256 218.48,-256 218.48,4 -4,4"/>
<!-- Pod::Block::Comment -->
<g id="node1" class="node">
<title>Pod::Block::Comment</title>
<g id="a_node1"><a xlink:href="/type/Pod::Block::Comment" xlink:title="Pod::Block::Comment">
<ellipse fill="none" stroke="#000000" cx="107.24" cy="-18" rx="107.48" ry="18"/>
<text text-anchor="middle" x="107.24" y="-14.3" font-family="FreeSans" font-size="14.00" fill="#000000">Pod::Block::Comment</text>
</a>
</g>
</g>
<!-- Pod::Block -->
<g id="node4" class="node">
<title>Pod::Block</title>
<g id="a_node4"><a xlink:href="/type/Pod::Block" xlink:title="Pod::Block">
<ellipse fill="none" stroke="#000000" cx="107.24" cy="-90" rx="57.69" ry="18"/>
<text text-anchor="middle" x="107.24" y="-86.3" font-family="FreeSans" font-size="14.00" fill="#000000">Pod::Block</text>
</a>
</g>
</g>
<!-- Pod::Block::Comment&#45;&gt;Pod::Block -->
<g id="edge1" class="edge">
<title>Pod::Block::Comment&#45;&gt;Pod::Block</title>
<path fill="none" stroke="#000000" d="M107.24,-36.3C107.24,-44.02 107.24,-53.29 107.24,-61.89"/>
<polygon fill="#000000" stroke="#000000" points="103.74,-61.9 107.24,-71.9 110.74,-61.9 103.74,-61.9"/>
</g>
<!-- Mu -->
<g id="node2" class="node">
<title>Mu</title>
<g id="a_node2"><a xlink:href="/type/Mu" xlink:title="Mu">
<ellipse fill="none" stroke="#000000" cx="107.24" cy="-234" rx="27" ry="18"/>
<text text-anchor="middle" x="107.24" y="-230.3" font-family="FreeSans" font-size="14.00" fill="#000000">Mu</text>
</a>
</g>
</g>
<!-- Any -->
<g id="node3" class="node">
<title>Any</title>
<g id="a_node3"><a xlink:href="/type/Any" xlink:title="Any">
<ellipse fill="none" stroke="#000000" cx="107.24" cy="-162" rx="28.7" ry="18"/>
<text text-anchor="middle" x="107.24" y="-158.3" font-family="FreeSans" font-size="14.00" fill="#000000">Any</text>
</a>
</g>
</g>
<!-- Any&#45;&gt;Mu -->
<g id="edge2" class="edge">
<title>Any&#45;&gt;Mu</title>
<path fill="none" stroke="#000000" d="M107.24,-180.3C107.24,-188.02 107.24,-197.29 107.24,-205.89"/>
<polygon fill="#000000" stroke="#000000" points="103.74,-205.9 107.24,-215.9 110.74,-205.9 103.74,-205.9"/>
</g>
<!-- Pod::Block&#45;&gt;Any -->
<g id="edge3" class="edge">
<title>Pod::Block&#45;&gt;Any</title>
<path fill="none" stroke="#000000" d="M107.24,-108.3C107.24,-116.02 107.24,-125.29 107.24,-133.89"/>
<polygon fill="#000000" stroke="#000000" points="103.74,-133.9 107.24,-143.9 110.74,-133.9 103.74,-133.9"/>
</g>
</g>
</svg>
