<?xml version="1.0" encoding="UTF-8" standalone="no"?>
<!DOCTYPE svg PUBLIC "-//W3C//DTD SVG 1.1//EN"
 "http://www.w3.org/Graphics/SVG/1.1/DTD/svg11.dtd">
<!-- Generated by graphviz version 2.42.3 (0)
 -->
<!-- Title: perl6&#45;type&#45;graph Pages: 1 -->
<svg width="1430pt" height="1551pt"
 viewBox="0.00 0.00 1429.84 1551.44" xmlns="http://www.w3.org/2000/svg" xmlns:xlink="http://www.w3.org/1999/xlink">
<g id="graph0" class="graph" transform="scale(1 1) rotate(0) translate(4 1547.44)">
<title>perl6&#45;type&#45;graph</title>
<polygon fill="white" stroke="transparent" points="-4,4 -4,-1547.44 1425.84,-1547.44 1425.84,4 -4,4"/>
<!-- Metamodel::EnumHOW -->
<g id="node1" class="node">
<title>Metamodel::EnumHOW</title>
<g id="a_node1"><a xlink:href="/type/Metamodel::EnumHOW" xlink:title="Metamodel::EnumHOW">
<ellipse fill="none" stroke="#000000" cx="717.13" cy="-1001.25" rx="115.88" ry="18"/>
<text text-anchor="middle" x="717.13" y="-997.55" font-family="FreeSans" font-size="14.00" fill="#000000">Metamodel::EnumHOW</text>
</a>
</g>
</g>
<!-- Any -->
<g id="node3" class="node">
<title>Any</title>
<g id="a_node3"><a xlink:href="/type/Any" xlink:title="Any">
<ellipse fill="none" stroke="#000000" cx="969.6" cy="-445.48" rx="28.7" ry="18"/>
<text text-anchor="middle" x="969.6" y="-441.78" font-family="FreeSans" font-size="14.00" fill="#000000">Any</text>
</a>
</g>
</g>
<!-- Metamodel::EnumHOW&#45;&gt;Any -->
<g id="edge1" class="edge">
<title>Metamodel::EnumHOW&#45;&gt;Any</title>
<path fill="none" stroke="#000000" d="M725.39,-983.07C762.45,-901.5 913.5,-568.98 957.51,-472.09"/>
<polygon fill="#000000" stroke="#000000" points="960.71,-473.51 961.66,-462.96 954.34,-470.61 960.71,-473.51"/>
</g>
<!-- Metamodel::Naming -->
<g id="node4" class="node">
<title>Metamodel::Naming</title>
<g id="a_node4"><a xlink:href="/type/Metamodel::Naming" xlink:title="Metamodel::Naming">
<ellipse fill="none" stroke="#6666ff" cx="434.84" cy="-1456.43" rx="101.28" ry="18"/>
<text text-anchor="middle" x="434.84" y="-1452.73" font-family="FreeSans" font-size="14.00" fill="#6666ff">Metamodel::Naming</text>
</a>
</g>
</g>
<!-- Metamodel::EnumHOW&#45;&gt;Metamodel::Naming -->
<g id="edge3" class="edge">
<title>Metamodel::EnumHOW&#45;&gt;Metamodel::Naming</title>
<path fill="none" stroke="#6666ff" d="M705.89,-1019.37C662.21,-1089.82 503.55,-1345.64 451.5,-1429.56"/>
<polygon fill="#6666ff" stroke="#6666ff" points="448.41,-1427.91 446.11,-1438.26 454.36,-1431.6 448.41,-1427.91"/>
</g>
<!-- Metamodel::Stashing -->
<g id="node5" class="node">
<title>Metamodel::Stashing</title>
<g id="a_node5"><a xlink:href="/type/Metamodel::Stashing" xlink:title="Metamodel::Stashing">
<ellipse fill="none" stroke="#6666ff" cx="1111.21" cy="-1332.17" rx="105.88" ry="18"/>
<text text-anchor="middle" x="1111.21" y="-1328.47" font-family="FreeSans" font-size="14.00" fill="#6666ff">Metamodel::Stashing</text>
</a>
</g>
</g>
<!-- Metamodel::EnumHOW&#45;&gt;Metamodel::Stashing -->
<g id="edge4" class="edge">
<title>Metamodel::EnumHOW&#45;&gt;Metamodel::Stashing</title>
<path fill="none" stroke="#6666ff" d="M738.32,-1019.04C804.34,-1074.48 1006.43,-1244.19 1082.15,-1307.78"/>
<polygon fill="#6666ff" stroke="#6666ff" points="1080.01,-1310.54 1089.91,-1314.29 1084.51,-1305.18 1080.01,-1310.54"/>
</g>
<!-- Metamodel::AttributeContainer -->
<g id="node6" class="node">
<title>Metamodel::AttributeContainer</title>
<g id="a_node6"><a xlink:href="/type/Metamodel::AttributeContainer" xlink:title="Metamodel::AttributeContainer">
<ellipse fill="none" stroke="#6666ff" cx="261.24" cy="-1269.27" rx="150.27" ry="18"/>
<text text-anchor="middle" x="261.24" y="-1265.57" font-family="FreeSans" font-size="14.00" fill="#6666ff">Metamodel::AttributeContainer</text>
</a>
</g>
</g>
<!-- Metamodel::EnumHOW&#45;&gt;Metamodel::AttributeContainer -->
<g id="edge5" class="edge">
<title>Metamodel::EnumHOW&#45;&gt;Metamodel::AttributeContainer</title>
<path fill="none" stroke="#6666ff" d="M687.22,-1018.84C607.36,-1065.79 389.15,-1194.07 299.98,-1246.5"/>
<polygon fill="#6666ff" stroke="#6666ff" points="298.11,-1243.54 291.26,-1251.62 301.66,-1249.57 298.11,-1243.54"/>
</g>
<!-- Metamodel::MethodContainer -->
<g id="node7" class="node">
<title>Metamodel::MethodContainer</title>
<g id="a_node7"><a xlink:href="/type/Metamodel::MethodContainer" xlink:title="Metamodel::MethodContainer">
<ellipse fill="none" stroke="#6666ff" cx="225.78" cy="-781.08" rx="143.77" ry="18"/>
<text text-anchor="middle" x="225.78" y="-777.38" font-family="FreeSans" font-size="14.00" fill="#6666ff">Metamodel::MethodContainer</text>
</a>
</g>
</g>
<!-- Metamodel::EnumHOW&#45;&gt;Metamodel::MethodContainer -->
<g id="edge6" class="edge">
<title>Metamodel::EnumHOW&#45;&gt;Metamodel::MethodContainer</title>
<path fill="none" stroke="#6666ff" d="M678.99,-984.16C590.5,-944.51 371.41,-846.33 273.9,-802.64"/>
<polygon fill="#6666ff" stroke="#6666ff" points="275.14,-799.36 264.58,-798.46 272.27,-805.75 275.14,-799.36"/>
</g>
<!-- Metamodel::MultiMethodContainer -->
<g id="node8" class="node">
<title>Metamodel::MultiMethodContainer</title>
<g id="a_node8"><a xlink:href="/type/Metamodel::MultiMethodContainer" xlink:title="Metamodel::MultiMethodContainer">
<ellipse fill="none" stroke="#6666ff" cx="1256.11" cy="-862.83" rx="165.97" ry="18"/>
<text text-anchor="middle" x="1256.11" y="-859.13" font-family="FreeSans" font-size="14.00" fill="#6666ff">Metamodel::MultiMethodContainer</text>
</a>
</g>
</g>
<!-- Metamodel::EnumHOW&#45;&gt;Metamodel::MultiMethodContainer -->
<g id="edge7" class="edge">
<title>Metamodel::EnumHOW&#45;&gt;Metamodel::MultiMethodContainer</title>
<path fill="none" stroke="#6666ff" d="M777.13,-985.84C876.11,-960.42 1073.39,-909.76 1181.31,-882.04"/>
<polygon fill="#6666ff" stroke="#6666ff" points="1182.34,-885.39 1191.15,-879.51 1180.6,-878.61 1182.34,-885.39"/>
</g>
<!-- Metamodel::RoleContainer -->
<g id="node9" class="node">
<title>Metamodel::RoleContainer</title>
<g id="a_node9"><a xlink:href="/type/Metamodel::RoleContainer" xlink:title="Metamodel::RoleContainer">
<ellipse fill="none" stroke="#6666ff" cx="371.53" cy="-573.47" rx="129.98" ry="18"/>
<text text-anchor="middle" x="371.53" y="-569.77" font-family="FreeSans" font-size="14.00" fill="#6666ff">Metamodel::RoleContainer</text>
</a>
</g>
</g>
<!-- Metamodel::EnumHOW&#45;&gt;Metamodel::RoleContainer -->
<g id="edge8" class="edge">
<title>Metamodel::EnumHOW&#45;&gt;Metamodel::RoleContainer</title>
<path fill="none" stroke="#6666ff" d="M702.5,-983.14C648.09,-915.78 457.19,-679.5 392.87,-599.88"/>
<polygon fill="#6666ff" stroke="#6666ff" points="395.36,-597.4 386.35,-591.82 389.91,-601.8 395.36,-597.4"/>
</g>
<!-- Metamodel::BaseType -->
<g id="node10" class="node">
<title>Metamodel::BaseType</title>
<g id="a_node10"><a xlink:href="/type/Metamodel::BaseType" xlink:title="Metamodel::BaseType">
<ellipse fill="none" stroke="#6666ff" cx="1009.18" cy="-724.14" rx="109.38" ry="18"/>
<text text-anchor="middle" x="1009.18" y="-720.44" font-family="FreeSans" font-size="14.00" fill="#6666ff">Metamodel::BaseType</text>
</a>
</g>
</g>
<!-- Metamodel::EnumHOW&#45;&gt;Metamodel::BaseType -->
<g id="edge9" class="edge">
<title>Metamodel::EnumHOW&#45;&gt;Metamodel::BaseType</title>
<path fill="none" stroke="#6666ff" d="M736.3,-983.07C787.06,-934.9 925.09,-803.93 983.03,-748.96"/>
<polygon fill="#6666ff" stroke="#6666ff" points="985.49,-751.45 990.33,-742.03 980.67,-746.37 985.49,-751.45"/>
</g>
<!-- Metamodel::MROBasedMethodDispatch -->
<g id="node11" class="node">
<title>Metamodel::MROBasedMethodDispatch</title>
<g id="a_node11"><a xlink:href="/type/Metamodel::MROBasedMethodDispatch" xlink:title="Metamodel::MROBasedMethodDispatch">
<ellipse fill="none" stroke="#6666ff" cx="614.51" cy="-499.79" rx="188.47" ry="18"/>
<text text-anchor="middle" x="614.51" y="-496.09" font-family="FreeSans" font-size="14.00" fill="#6666ff">Metamodel::MROBasedMethodDispatch</text>
</a>
</g>
</g>
<!-- Metamodel::EnumHOW&#45;&gt;Metamodel::MROBasedMethodDispatch -->
<g id="edge10" class="edge">
<title>Metamodel::EnumHOW&#45;&gt;Metamodel::MROBasedMethodDispatch</title>
<path fill="none" stroke="#6666ff" d="M713.42,-983.11C698,-907.78 638.98,-619.34 620.25,-527.82"/>
<polygon fill="#6666ff" stroke="#6666ff" points="623.65,-527 618.22,-517.9 616.79,-528.4 623.65,-527"/>
</g>
<!-- Metamodel::MROBasedTypeChecking -->
<g id="node12" class="node">
<title>Metamodel::MROBasedTypeChecking</title>
<g id="a_node12"><a xlink:href="/type/Metamodel::MROBasedTypeChecking" xlink:title="Metamodel::MROBasedTypeChecking">
<ellipse fill="none" stroke="#6666ff" cx="178.73" cy="-1029.31" rx="178.97" ry="18"/>
<text text-anchor="middle" x="178.73" y="-1025.61" font-family="FreeSans" font-size="14.00" fill="#6666ff">Metamodel::MROBasedTypeChecking</text>
</a>
</g>
</g>
<!-- Metamodel::EnumHOW&#45;&gt;Metamodel::MROBasedTypeChecking -->
<g id="edge11" class="edge">
<title>Metamodel::EnumHOW&#45;&gt;Metamodel::MROBasedTypeChecking</title>
<path fill="none" stroke="#6666ff" d="M607.21,-1006.98C532.51,-1010.87 432.26,-1016.1 347.51,-1020.52"/>
<polygon fill="#6666ff" stroke="#6666ff" points="347.32,-1017.02 337.52,-1021.04 347.69,-1024.01 347.32,-1017.02"/>
</g>
<!-- Metamodel::BUILDPLAN -->
<g id="node13" class="node">
<title>Metamodel::BUILDPLAN</title>
<g id="a_node13"><a xlink:href="/type/Metamodel::BUILDPLAN" xlink:title="Metamodel::BUILDPLAN">
<ellipse fill="none" stroke="#6666ff" cx="1267.12" cy="-1137.37" rx="118.08" ry="18"/>
<text text-anchor="middle" x="1267.12" y="-1133.67" font-family="FreeSans" font-size="14.00" fill="#6666ff">Metamodel::BUILDPLAN</text>
</a>
</g>
</g>
<!-- Metamodel::EnumHOW&#45;&gt;Metamodel::BUILDPLAN -->
<g id="edge12" class="edge">
<title>Metamodel::EnumHOW&#45;&gt;Metamodel::BUILDPLAN</title>
<path fill="none" stroke="#6666ff" d="M778.89,-1016.53C881.34,-1041.89 1085.94,-1092.53 1194.91,-1119.5"/>
<polygon fill="#6666ff" stroke="#6666ff" points="1194.28,-1122.95 1204.83,-1121.96 1195.97,-1116.16 1194.28,-1122.95"/>
</g>
<!-- Metamodel::BoolificationProtocol -->
<g id="node14" class="node">
<title>Metamodel::BoolificationProtocol</title>
<g id="a_node14"><a xlink:href="/type/Metamodel::BoolificationProtocol" xlink:title="Metamodel::BoolificationProtocol">
<ellipse fill="none" stroke="#6666ff" cx="939.43" cy="-1513.11" rx="157.07" ry="18"/>
<text text-anchor="middle" x="939.43" y="-1509.41" font-family="FreeSans" font-size="14.00" fill="#6666ff">Metamodel::BoolificationProtocol</text>
</a>
</g>
</g>
<!-- Metamodel::EnumHOW&#45;&gt;Metamodel::BoolificationProtocol -->
<g id="edge13" class="edge">
<title>Metamodel::EnumHOW&#45;&gt;Metamodel::BoolificationProtocol</title>
<path fill="none" stroke="#6666ff" d="M725.05,-1019.47C758.4,-1096.27 887.68,-1393.95 927.62,-1485.9"/>
<polygon fill="#6666ff" stroke="#6666ff" points="924.42,-1487.33 931.62,-1495.11 930.84,-1484.55 924.42,-1487.33"/>
</g>
<!-- Metamodel::Mixins -->
<g id="node15" class="node">
<title>Metamodel::Mixins</title>
<g id="a_node15"><a xlink:href="/type/Metamodel::Mixins" xlink:title="Metamodel::Mixins">
<ellipse fill="none" stroke="#6666ff" cx="679.23" cy="-1525.44" rx="94.78" ry="18"/>
<text text-anchor="middle" x="679.23" y="-1521.74" font-family="FreeSans" font-size="14.00" fill="#6666ff">Metamodel::Mixins</text>
</a>
</g>
</g>
<!-- Metamodel::EnumHOW&#45;&gt;Metamodel::Mixins -->
<g id="edge14" class="edge">
<title>Metamodel::EnumHOW&#45;&gt;Metamodel::Mixins</title>
<path fill="none" stroke="#6666ff" d="M715.83,-1019.29C710.22,-1096.87 688.13,-1402.36 681.27,-1497.2"/>
<polygon fill="#6666ff" stroke="#6666ff" points="677.78,-1496.98 680.55,-1507.21 684.76,-1497.48 677.78,-1496.98"/>
</g>
<!-- Mu -->
<g id="node2" class="node">
<title>Mu</title>
<g id="a_node2"><a xlink:href="/type/Mu" xlink:title="Mu">
<ellipse fill="none" stroke="#000000" cx="1232.65" cy="-18" rx="27" ry="18"/>
<text text-anchor="middle" x="1232.65" y="-14.3" font-family="FreeSans" font-size="14.00" fill="#000000">Mu</text>
</a>
</g>
</g>
<!-- Any&#45;&gt;Mu -->
<g id="edge2" class="edge">
<title>Any&#45;&gt;Mu</title>
<path fill="none" stroke="#000000" d="M980.08,-428.45C1020.66,-362.5 1167.73,-123.51 1216.68,-43.96"/>
<polygon fill="#000000" stroke="#000000" points="1219.89,-45.42 1222.15,-35.07 1213.93,-41.75 1219.89,-45.42"/>
</g>
</g>
</svg>
