<?xml version="1.0" encoding="UTF-8" standalone="no"?>
<!DOCTYPE svg PUBLIC "-//W3C//DTD SVG 1.1//EN"
 "http://www.w3.org/Graphics/SVG/1.1/DTD/svg11.dtd">
<!-- Generated by graphviz version 2.42.3 (0)
 -->
<!-- Title: perl6&#45;type&#45;graph Pages: 1 -->
<svg width="219pt" height="404pt"
 viewBox="0.00 0.00 219.09 404.00" xmlns="http://www.w3.org/2000/svg" xmlns:xlink="http://www.w3.org/1999/xlink">
<g id="graph0" class="graph" transform="scale(1 1) rotate(0) translate(4 400)">
<title>perl6&#45;type&#45;graph</title>
<polygon fill="white" stroke="transparent" points="-4,4 -4,-400 215.09,-400 215.09,4 -4,4"/>
<!-- X::IO::Chdir -->
<g id="node1" class="node">
<title>X::IO::Chdir</title>
<g id="a_node1"><a xlink:href="/type/X::IO::Chdir" xlink:title="X::IO::Chdir">
<ellipse fill="none" stroke="#000000" cx="63.69" cy="-18" rx="63.89" ry="18"/>
<text text-anchor="middle" x="63.69" y="-14.3" font-family="FreeSans" font-size="14.00" fill="#000000">X::IO::Chdir</text>
</a>
</g>
</g>
<!-- Exception -->
<g id="node4" class="node">
<title>Exception</title>
<g id="a_node4"><a xlink:href="/type/Exception" xlink:title="Exception">
<ellipse fill="none" stroke="#000000" cx="86.69" cy="-234" rx="55.49" ry="18"/>
<text text-anchor="middle" x="86.69" y="-230.3" font-family="FreeSans" font-size="14.00" fill="#000000">Exception</text>
</a>
</g>
</g>
<!-- X::IO::Chdir&#45;&gt;Exception -->
<g id="edge1" class="edge">
<title>X::IO::Chdir&#45;&gt;Exception</title>
<path fill="none" stroke="#000000" d="M61.66,-36.15C62.1,-73.34 71.34,-161.63 79.17,-206.23"/>
<polygon fill="#000000" stroke="#000000" points="75.73,-206.88 81.02,-216.06 82.61,-205.59 75.73,-206.88"/>
</g>
<!-- X::IO::Chdir&#45;&gt;Exception -->
<g id="edge2" class="edge">
<title>X::IO::Chdir&#45;&gt;Exception</title>
<path fill="none" stroke="#000000" d="M69.42,-36.15C76.93,-73.17 86.62,-160.82 88.44,-205.61"/>
<polygon fill="#000000" stroke="#000000" points="84.95,-205.87 88.73,-215.77 91.95,-205.67 84.95,-205.87"/>
</g>
<!-- X::IO -->
<g id="node6" class="node">
<title>X::IO</title>
<g id="a_node6"><a xlink:href="/type/X::IO" xlink:title="X::IO">
<ellipse fill="none" stroke="#6666ff" cx="133.69" cy="-90" rx="33.29" ry="18"/>
<text text-anchor="middle" x="133.69" y="-86.3" font-family="FreeSans" font-size="14.00" fill="#6666ff">X::IO</text>
</a>
</g>
</g>
<!-- X::IO::Chdir&#45;&gt;X::IO -->
<g id="edge7" class="edge">
<title>X::IO::Chdir&#45;&gt;X::IO</title>
<path fill="none" stroke="#6666ff" d="M80.28,-35.59C89.43,-44.74 100.93,-56.24 110.91,-66.22"/>
<polygon fill="#6666ff" stroke="#6666ff" points="108.64,-68.89 118.18,-73.49 113.59,-63.94 108.64,-68.89"/>
</g>
<!-- Mu -->
<g id="node2" class="node">
<title>Mu</title>
<g id="a_node2"><a xlink:href="/type/Mu" xlink:title="Mu">
<ellipse fill="none" stroke="#000000" cx="86.69" cy="-378" rx="27" ry="18"/>
<text text-anchor="middle" x="86.69" y="-374.3" font-family="FreeSans" font-size="14.00" fill="#000000">Mu</text>
</a>
</g>
</g>
<!-- Any -->
<g id="node3" class="node">
<title>Any</title>
<g id="a_node3"><a xlink:href="/type/Any" xlink:title="Any">
<ellipse fill="none" stroke="#000000" cx="86.69" cy="-306" rx="28.7" ry="18"/>
<text text-anchor="middle" x="86.69" y="-302.3" font-family="FreeSans" font-size="14.00" fill="#000000">Any</text>
</a>
</g>
</g>
<!-- Any&#45;&gt;Mu -->
<g id="edge3" class="edge">
<title>Any&#45;&gt;Mu</title>
<path fill="none" stroke="#000000" d="M86.69,-324.3C86.69,-332.02 86.69,-341.29 86.69,-349.89"/>
<polygon fill="#000000" stroke="#000000" points="83.19,-349.9 86.69,-359.9 90.19,-349.9 83.19,-349.9"/>
</g>
<!-- Exception&#45;&gt;Any -->
<g id="edge4" class="edge">
<title>Exception&#45;&gt;Any</title>
<path fill="none" stroke="#000000" d="M86.69,-252.3C86.69,-260.02 86.69,-269.29 86.69,-277.89"/>
<polygon fill="#000000" stroke="#000000" points="83.19,-277.9 86.69,-287.9 90.19,-277.9 83.19,-277.9"/>
</g>
<!-- X::OS -->
<g id="node5" class="node">
<title>X::OS</title>
<g id="a_node5"><a xlink:href="/type/X::OS" xlink:title="X::OS">
<ellipse fill="none" stroke="#6666ff" cx="174.69" cy="-162" rx="36.29" ry="18"/>
<text text-anchor="middle" x="174.69" y="-158.3" font-family="FreeSans" font-size="14.00" fill="#6666ff">X::OS</text>
</a>
</g>
</g>
<!-- X::OS&#45;&gt;Exception -->
<g id="edge5" class="edge">
<title>X::OS&#45;&gt;Exception</title>
<path fill="none" stroke="#000000" d="M156.03,-177.85C144.08,-187.35 128.35,-199.86 114.89,-210.57"/>
<polygon fill="#000000" stroke="#000000" points="112.51,-207.99 106.86,-216.96 116.87,-213.47 112.51,-207.99"/>
</g>
<!-- X::IO&#45;&gt;Exception -->
<g id="edge6" class="edge">
<title>X::IO&#45;&gt;Exception</title>
<path fill="none" stroke="#000000" d="M128.12,-107.85C120.11,-132.06 105.25,-176.95 95.67,-205.87"/>
<polygon fill="#000000" stroke="#000000" points="92.23,-205.14 92.41,-215.73 98.87,-207.34 92.23,-205.14"/>
</g>
<!-- X::IO&#45;&gt;X::OS -->
<g id="edge8" class="edge">
<title>X::IO&#45;&gt;X::OS</title>
<path fill="none" stroke="#6666ff" d="M143.41,-107.59C148.31,-115.96 154.36,-126.29 159.83,-135.63"/>
<polygon fill="#6666ff" stroke="#6666ff" points="156.97,-137.67 165.05,-144.53 163.01,-134.13 156.97,-137.67"/>
</g>
</g>
</svg>
