<?xml version="1.0" encoding="UTF-8" standalone="no"?>
<!DOCTYPE svg PUBLIC "-//W3C//DTD SVG 1.1//EN"
 "http://www.w3.org/Graphics/SVG/1.1/DTD/svg11.dtd">
<!-- Generated by graphviz version 2.42.3 (0)
 -->
<!-- Title: perl6&#45;type&#45;graph Pages: 1 -->
<svg width="293pt" height="188pt"
 viewBox="0.00 0.00 292.55 188.00" xmlns="http://www.w3.org/2000/svg" xmlns:xlink="http://www.w3.org/1999/xlink">
<g id="graph0" class="graph" transform="scale(1 1) rotate(0) translate(4 184)">
<title>perl6&#45;type&#45;graph</title>
<polygon fill="white" stroke="transparent" points="-4,4 -4,-184 288.55,-184 288.55,4 -4,4"/>
<!-- utf8 -->
<g id="node1" class="node">
<title>utf8</title>
<g id="a_node1"><a xlink:href="/type/utf8" xlink:title="utf8">
<ellipse fill="none" stroke="#000000" cx="76" cy="-18" rx="29.5" ry="18"/>
<text text-anchor="middle" x="76" y="-14.3" font-family="FreeSans" font-size="14.00" fill="#000000">utf8</text>
</a>
</g>
</g>
<!-- Any -->
<g id="node3" class="node">
<title>Any</title>
<g id="a_node3"><a xlink:href="/type/Any" xlink:title="Any">
<ellipse fill="none" stroke="#000000" cx="38" cy="-90" rx="28.7" ry="18"/>
<text text-anchor="middle" x="38" y="-86.3" font-family="FreeSans" font-size="14.00" fill="#000000">Any</text>
</a>
</g>
</g>
<!-- utf8&#45;&gt;Any -->
<g id="edge1" class="edge">
<title>utf8&#45;&gt;Any</title>
<path fill="none" stroke="#000000" d="M67.19,-35.24C62.58,-43.72 56.84,-54.29 51.68,-63.8"/>
<polygon fill="#000000" stroke="#000000" points="48.46,-62.39 46.77,-72.85 54.61,-65.73 48.46,-62.39"/>
</g>
<!-- Blob -->
<g id="node6" class="node">
<title>Blob</title>
<g id="a_node6"><a xlink:href="/type/Blob" xlink:title="Blob">
<ellipse fill="none" stroke="#6666ff" cx="126" cy="-90" rx="30.59" ry="18"/>
<text text-anchor="middle" x="126" y="-86.3" font-family="FreeSans" font-size="14.00" fill="#6666ff">Blob</text>
</a>
</g>
</g>
<!-- utf8&#45;&gt;Blob -->
<g id="edge3" class="edge">
<title>utf8&#45;&gt;Blob</title>
<path fill="none" stroke="#6666ff" d="M87.35,-34.88C93.67,-43.74 101.69,-54.96 108.77,-64.88"/>
<polygon fill="#6666ff" stroke="#6666ff" points="106.04,-67.08 114.7,-73.18 111.73,-63.01 106.04,-67.08"/>
</g>
<!-- Mu -->
<g id="node2" class="node">
<title>Mu</title>
<g id="a_node2"><a xlink:href="/type/Mu" xlink:title="Mu">
<ellipse fill="none" stroke="#000000" cx="27" cy="-162" rx="27" ry="18"/>
<text text-anchor="middle" x="27" y="-158.3" font-family="FreeSans" font-size="14.00" fill="#000000">Mu</text>
</a>
</g>
</g>
<!-- Any&#45;&gt;Mu -->
<g id="edge2" class="edge">
<title>Any&#45;&gt;Mu</title>
<path fill="none" stroke="#000000" d="M35.34,-107.95C34.13,-115.65 32.66,-124.97 31.3,-133.64"/>
<polygon fill="#000000" stroke="#000000" points="27.81,-133.3 29.71,-143.72 34.72,-134.39 27.81,-133.3"/>
</g>
<!-- Positional -->
<g id="node4" class="node">
<title>Positional</title>
<g id="a_node4"><a xlink:href="/type/Positional" xlink:title="Positional">
<ellipse fill="none" stroke="#6666ff" cx="126" cy="-162" rx="53.89" ry="18"/>
<text text-anchor="middle" x="126" y="-158.3" font-family="FreeSans" font-size="14.00" fill="#6666ff">Positional</text>
</a>
</g>
</g>
<!-- Stringy -->
<g id="node5" class="node">
<title>Stringy</title>
<g id="a_node5"><a xlink:href="/type/Stringy" xlink:title="Stringy">
<ellipse fill="none" stroke="#6666ff" cx="241" cy="-162" rx="43.59" ry="18"/>
<text text-anchor="middle" x="241" y="-158.3" font-family="FreeSans" font-size="14.00" fill="#6666ff">Stringy</text>
</a>
</g>
</g>
<!-- Blob&#45;&gt;Positional -->
<g id="edge4" class="edge">
<title>Blob&#45;&gt;Positional</title>
<path fill="none" stroke="#6666ff" d="M126,-108.3C126,-116.02 126,-125.29 126,-133.89"/>
<polygon fill="#6666ff" stroke="#6666ff" points="122.5,-133.9 126,-143.9 129.5,-133.9 122.5,-133.9"/>
</g>
<!-- Blob&#45;&gt;Stringy -->
<g id="edge5" class="edge">
<title>Blob&#45;&gt;Stringy</title>
<path fill="none" stroke="#6666ff" d="M146.56,-103.51C163.82,-114.02 188.77,-129.21 208.69,-141.33"/>
<polygon fill="#6666ff" stroke="#6666ff" points="207.08,-144.45 217.45,-146.66 210.72,-138.47 207.08,-144.45"/>
</g>
</g>
</svg>
