<?xml version="1.0" encoding="UTF-8" standalone="no"?>
<!DOCTYPE svg PUBLIC "-//W3C//DTD SVG 1.1//EN"
 "http://www.w3.org/Graphics/SVG/1.1/DTD/svg11.dtd">
<!-- Generated by graphviz version 2.42.3 (0)
 -->
<!-- Title: perl6&#45;type&#45;graph Pages: 1 -->
<svg width="188pt" height="188pt"
 viewBox="0.00 0.00 187.59 188.00" xmlns="http://www.w3.org/2000/svg" xmlns:xlink="http://www.w3.org/1999/xlink">
<g id="graph0" class="graph" transform="scale(1 1) rotate(0) translate(4 184)">
<title>perl6&#45;type&#45;graph</title>
<polygon fill="white" stroke="transparent" points="-4,4 -4,-184 183.59,-184 183.59,4 -4,4"/>
<!-- Perl -->
<g id="node1" class="node">
<title>Perl</title>
<g id="a_node1"><a xlink:href="/type/Perl" xlink:title="Perl">
<ellipse fill="none" stroke="#000000" cx="77.6" cy="-18" rx="27.9" ry="18"/>
<text text-anchor="middle" x="77.6" y="-14.3" font-family="FreeSans" font-size="14.00" fill="#000000">Perl</text>
</a>
</g>
</g>
<!-- Any -->
<g id="node3" class="node">
<title>Any</title>
<g id="a_node3"><a xlink:href="/type/Any" xlink:title="Any">
<ellipse fill="none" stroke="#000000" cx="28.6" cy="-90" rx="28.7" ry="18"/>
<text text-anchor="middle" x="28.6" y="-86.3" font-family="FreeSans" font-size="14.00" fill="#000000">Any</text>
</a>
</g>
</g>
<!-- Perl&#45;&gt;Any -->
<g id="edge1" class="edge">
<title>Perl&#45;&gt;Any</title>
<path fill="none" stroke="#000000" d="M66.48,-34.88C60.28,-43.74 52.42,-54.96 45.48,-64.88"/>
<polygon fill="#000000" stroke="#000000" points="42.54,-62.98 39.67,-73.18 48.27,-66.99 42.54,-62.98"/>
</g>
<!-- Systemic -->
<g id="node4" class="node">
<title>Systemic</title>
<g id="a_node4"><a xlink:href="/type/Systemic" xlink:title="Systemic">
<ellipse fill="none" stroke="#6666ff" cx="127.6" cy="-90" rx="51.99" ry="18"/>
<text text-anchor="middle" x="127.6" y="-86.3" font-family="FreeSans" font-size="14.00" fill="#6666ff">Systemic</text>
</a>
</g>
</g>
<!-- Perl&#45;&gt;Systemic -->
<g id="edge3" class="edge">
<title>Perl&#45;&gt;Systemic</title>
<path fill="none" stroke="#6666ff" d="M88.69,-34.54C94.84,-43.13 102.62,-54.03 109.61,-63.81"/>
<polygon fill="#6666ff" stroke="#6666ff" points="106.82,-65.94 115.48,-72.04 112.52,-61.87 106.82,-65.94"/>
</g>
<!-- Mu -->
<g id="node2" class="node">
<title>Mu</title>
<g id="a_node2"><a xlink:href="/type/Mu" xlink:title="Mu">
<ellipse fill="none" stroke="#000000" cx="28.6" cy="-162" rx="27" ry="18"/>
<text text-anchor="middle" x="28.6" y="-158.3" font-family="FreeSans" font-size="14.00" fill="#000000">Mu</text>
</a>
</g>
</g>
<!-- Any&#45;&gt;Mu -->
<g id="edge2" class="edge">
<title>Any&#45;&gt;Mu</title>
<path fill="none" stroke="#000000" d="M28.6,-108.3C28.6,-116.02 28.6,-125.29 28.6,-133.89"/>
<polygon fill="#000000" stroke="#000000" points="25.1,-133.9 28.6,-143.9 32.1,-133.9 25.1,-133.9"/>
</g>
</g>
</svg>
