<?xml version="1.0" encoding="UTF-8" standalone="no"?>
<!DOCTYPE svg PUBLIC "-//W3C//DTD SVG 1.1//EN"
 "http://www.w3.org/Graphics/SVG/1.1/DTD/svg11.dtd">
<!-- Generated by graphviz version 2.42.3 (0)
 -->
<!-- Title: perl6&#45;type&#45;graph Pages: 1 -->
<svg width="633pt" height="332pt"
 viewBox="0.00 0.00 632.54 332.00" xmlns="http://www.w3.org/2000/svg" xmlns:xlink="http://www.w3.org/1999/xlink">
<g id="graph0" class="graph" transform="scale(1 1) rotate(0) translate(4 328)">
<title>perl6&#45;type&#45;graph</title>
<polygon fill="white" stroke="transparent" points="-4,4 -4,-328 628.54,-328 628.54,4 -4,4"/>
<!-- Positional -->
<g id="node1" class="node">
<title>Positional</title>
<g id="a_node1"><a xlink:href="/type/Positional" xlink:title="Positional">
<ellipse fill="none" stroke="#6666ff" cx="296.25" cy="-162" rx="53.89" ry="18"/>
<text text-anchor="middle" x="296.25" y="-158.3" font-family="FreeSans" font-size="14.00" fill="#6666ff">Positional</text>
</a>
</g>
</g>
<!-- Mu -->
<g id="node2" class="node">
<title>Mu</title>
<g id="a_node2"><a xlink:href="/type/Mu" xlink:title="Mu">
<ellipse fill="none" stroke="#000000" cx="214.25" cy="-306" rx="27" ry="18"/>
<text text-anchor="middle" x="214.25" y="-302.3" font-family="FreeSans" font-size="14.00" fill="#000000">Mu</text>
</a>
</g>
</g>
<!-- Any -->
<g id="node3" class="node">
<title>Any</title>
<g id="a_node3"><a xlink:href="/type/Any" xlink:title="Any">
<ellipse fill="none" stroke="#000000" cx="214.25" cy="-234" rx="28.7" ry="18"/>
<text text-anchor="middle" x="214.25" y="-230.3" font-family="FreeSans" font-size="14.00" fill="#000000">Any</text>
</a>
</g>
</g>
<!-- Any&#45;&gt;Mu -->
<g id="edge1" class="edge">
<title>Any&#45;&gt;Mu</title>
<path fill="none" stroke="#000000" d="M214.25,-252.3C214.25,-260.02 214.25,-269.29 214.25,-277.89"/>
<polygon fill="#000000" stroke="#000000" points="210.75,-277.9 214.25,-287.9 217.75,-277.9 210.75,-277.9"/>
</g>
<!-- Cool -->
<g id="node4" class="node">
<title>Cool</title>
<g id="a_node4"><a xlink:href="/type/Cool" xlink:title="Cool">
<ellipse fill="none" stroke="#000000" cx="398.25" cy="-162" rx="30.59" ry="18"/>
<text text-anchor="middle" x="398.25" y="-158.3" font-family="FreeSans" font-size="14.00" fill="#000000">Cool</text>
</a>
</g>
</g>
<!-- Cool&#45;&gt;Any -->
<g id="edge2" class="edge">
<title>Cool&#45;&gt;Any</title>
<path fill="none" stroke="#000000" d="M374.21,-173.48C366.19,-176.97 359.25,-180 359.25,-180 359.25,-180 290.86,-205 248.02,-220.66"/>
<polygon fill="#000000" stroke="#000000" points="246.71,-217.41 238.52,-224.13 249.11,-223.98 246.71,-217.41"/>
</g>
<!-- Iterable -->
<g id="node5" class="node">
<title>Iterable</title>
<g id="a_node5"><a xlink:href="/type/Iterable" xlink:title="Iterable">
<ellipse fill="none" stroke="#6666ff" cx="492.25" cy="-162" rx="45.49" ry="18"/>
<text text-anchor="middle" x="492.25" y="-158.3" font-family="FreeSans" font-size="14.00" fill="#6666ff">Iterable</text>
</a>
</g>
</g>
<!-- List -->
<g id="node6" class="node">
<title>List</title>
<g id="a_node6"><a xlink:href="/type/List" xlink:title="List">
<ellipse fill="none" stroke="#000000" cx="492.25" cy="-90" rx="27" ry="18"/>
<text text-anchor="middle" x="492.25" y="-86.3" font-family="FreeSans" font-size="14.00" fill="#000000">List</text>
</a>
</g>
</g>
<!-- List&#45;&gt;Positional -->
<g id="edge13" class="edge">
<title>List&#45;&gt;Positional</title>
<path fill="none" stroke="#6666ff" d="M469.22,-99.7C458.15,-103.88 447.25,-108 447.25,-108 447.25,-108 386,-129.5 341.52,-145.11"/>
<polygon fill="#6666ff" stroke="#6666ff" points="340.31,-141.83 332.03,-148.44 342.63,-148.43 340.31,-141.83"/>
</g>
<!-- List&#45;&gt;Cool -->
<g id="edge3" class="edge">
<title>List&#45;&gt;Cool</title>
<path fill="none" stroke="#000000" d="M474.57,-104.17C460.57,-114.59 440.79,-129.32 424.87,-141.17"/>
<polygon fill="#000000" stroke="#000000" points="422.42,-138.64 416.49,-147.42 426.6,-144.25 422.42,-138.64"/>
</g>
<!-- List&#45;&gt;Iterable -->
<g id="edge14" class="edge">
<title>List&#45;&gt;Iterable</title>
<path fill="none" stroke="#6666ff" d="M492.25,-108.3C492.25,-116.02 492.25,-125.29 492.25,-133.89"/>
<polygon fill="#6666ff" stroke="#6666ff" points="488.75,-133.9 492.25,-143.9 495.75,-133.9 488.75,-133.9"/>
</g>
<!-- Stringy -->
<g id="node7" class="node">
<title>Stringy</title>
<g id="a_node7"><a xlink:href="/type/Stringy" xlink:title="Stringy">
<ellipse fill="none" stroke="#6666ff" cx="126.25" cy="-162" rx="43.59" ry="18"/>
<text text-anchor="middle" x="126.25" y="-158.3" font-family="FreeSans" font-size="14.00" fill="#6666ff">Stringy</text>
</a>
</g>
</g>
<!-- Uni -->
<g id="node8" class="node">
<title>Uni</title>
<g id="a_node8"><a xlink:href="/type/Uni" xlink:title="Uni">
<ellipse fill="none" stroke="#000000" cx="272.25" cy="-90" rx="27" ry="18"/>
<text text-anchor="middle" x="272.25" y="-86.3" font-family="FreeSans" font-size="14.00" fill="#000000">Uni</text>
</a>
</g>
</g>
<!-- Uni&#45;&gt;Positional -->
<g id="edge15" class="edge">
<title>Uni&#45;&gt;Positional</title>
<path fill="none" stroke="#6666ff" d="M278.06,-107.95C280.76,-115.82 284.04,-125.38 287.06,-134.21"/>
<polygon fill="#6666ff" stroke="#6666ff" points="283.77,-135.4 290.32,-143.72 290.39,-133.13 283.77,-135.4"/>
</g>
<!-- Uni&#45;&gt;Any -->
<g id="edge4" class="edge">
<title>Uni&#45;&gt;Any</title>
<path fill="none" stroke="#000000" d="M260.76,-106.62C249.25,-122.25 233.25,-144 233.25,-144 233.25,-144 225.6,-179.83 220.01,-206.03"/>
<polygon fill="#000000" stroke="#000000" points="216.58,-205.33 217.91,-215.84 223.42,-206.79 216.58,-205.33"/>
</g>
<!-- Uni&#45;&gt;Stringy -->
<g id="edge16" class="edge">
<title>Uni&#45;&gt;Stringy</title>
<path fill="none" stroke="#6666ff" d="M251.02,-101.18C227.85,-112.28 190.36,-130.26 162.51,-143.61"/>
<polygon fill="#6666ff" stroke="#6666ff" points="160.98,-140.47 153.47,-147.95 164.01,-146.78 160.98,-140.47"/>
</g>
<!-- Blob -->
<g id="node9" class="node">
<title>Blob</title>
<g id="a_node9"><a xlink:href="/type/Blob" xlink:title="Blob">
<ellipse fill="none" stroke="#6666ff" cx="119.25" cy="-90" rx="30.59" ry="18"/>
<text text-anchor="middle" x="119.25" y="-86.3" font-family="FreeSans" font-size="14.00" fill="#6666ff">Blob</text>
</a>
</g>
</g>
<!-- Blob&#45;&gt;Positional -->
<g id="edge17" class="edge">
<title>Blob&#45;&gt;Positional</title>
<path fill="none" stroke="#6666ff" d="M143.86,-100.73C172.16,-111.93 219.14,-130.51 253.47,-144.08"/>
<polygon fill="#6666ff" stroke="#6666ff" points="252.2,-147.34 262.79,-147.77 254.77,-140.83 252.2,-147.34"/>
</g>
<!-- Blob&#45;&gt;Stringy -->
<g id="edge18" class="edge">
<title>Blob&#45;&gt;Stringy</title>
<path fill="none" stroke="#6666ff" d="M120.98,-108.3C121.75,-116.02 122.68,-125.29 123.54,-133.89"/>
<polygon fill="#6666ff" stroke="#6666ff" points="120.06,-134.29 124.54,-143.9 127.02,-133.6 120.06,-134.29"/>
</g>
<!-- Range -->
<g id="node10" class="node">
<title>Range</title>
<g id="a_node10"><a xlink:href="/type/Range" xlink:title="Range">
<ellipse fill="none" stroke="#000000" cx="398.25" cy="-90" rx="39.79" ry="18"/>
<text text-anchor="middle" x="398.25" y="-86.3" font-family="FreeSans" font-size="14.00" fill="#000000">Range</text>
</a>
</g>
</g>
<!-- Range&#45;&gt;Positional -->
<g id="edge19" class="edge">
<title>Range&#45;&gt;Positional</title>
<path fill="none" stroke="#6666ff" d="M377.11,-105.5C362.74,-115.37 343.47,-128.59 327.35,-139.65"/>
<polygon fill="#6666ff" stroke="#6666ff" points="325.03,-137 318.77,-145.54 329,-142.77 325.03,-137"/>
</g>
<!-- Range&#45;&gt;Cool -->
<g id="edge5" class="edge">
<title>Range&#45;&gt;Cool</title>
<path fill="none" stroke="#000000" d="M398.25,-108.3C398.25,-116.02 398.25,-125.29 398.25,-133.89"/>
<polygon fill="#000000" stroke="#000000" points="394.75,-133.9 398.25,-143.9 401.75,-133.9 394.75,-133.9"/>
</g>
<!-- Range&#45;&gt;Iterable -->
<g id="edge20" class="edge">
<title>Range&#45;&gt;Iterable</title>
<path fill="none" stroke="#6666ff" d="M418.18,-105.85C431.34,-115.64 448.78,-128.63 463.44,-139.55"/>
<polygon fill="#6666ff" stroke="#6666ff" points="461.58,-142.53 471.69,-145.69 465.76,-136.91 461.58,-142.53"/>
</g>
<!-- Array -->
<g id="node11" class="node">
<title>Array</title>
<g id="a_node11"><a xlink:href="/type/Array" xlink:title="Array">
<ellipse fill="none" stroke="#000000" cx="516.25" cy="-18" rx="36" ry="18"/>
<text text-anchor="middle" x="516.25" y="-14.3" font-family="FreeSans" font-size="14.00" fill="#000000">Array</text>
</a>
</g>
</g>
<!-- Array&#45;&gt;List -->
<g id="edge6" class="edge">
<title>Array&#45;&gt;List</title>
<path fill="none" stroke="#000000" d="M510.44,-35.95C507.7,-43.94 504.36,-53.67 501.3,-62.6"/>
<polygon fill="#000000" stroke="#000000" points="497.94,-61.62 498,-72.21 504.56,-63.89 497.94,-61.62"/>
</g>
<!-- Slip -->
<g id="node12" class="node">
<title>Slip</title>
<g id="a_node12"><a xlink:href="/type/Slip" xlink:title="Slip">
<ellipse fill="none" stroke="#000000" cx="597.25" cy="-18" rx="27.1" ry="18"/>
<text text-anchor="middle" x="597.25" y="-14.3" font-family="FreeSans" font-size="14.00" fill="#000000">Slip</text>
</a>
</g>
</g>
<!-- Slip&#45;&gt;List -->
<g id="edge7" class="edge">
<title>Slip&#45;&gt;List</title>
<path fill="none" stroke="#000000" d="M578.48,-31.51C561.98,-42.51 537.77,-58.65 519.2,-71.03"/>
<polygon fill="#000000" stroke="#000000" points="517.24,-68.13 510.86,-76.59 521.12,-73.96 517.24,-68.13"/>
</g>
<!-- NFKC -->
<g id="node13" class="node">
<title>NFKC</title>
<g id="a_node13"><a xlink:href="/type/NFKC" xlink:title="NFKC">
<ellipse fill="none" stroke="#000000" cx="183.25" cy="-18" rx="35.19" ry="18"/>
<text text-anchor="middle" x="183.25" y="-14.3" font-family="FreeSans" font-size="14.00" fill="#000000">NFKC</text>
</a>
</g>
</g>
<!-- NFKC&#45;&gt;Uni -->
<g id="edge8" class="edge">
<title>NFKC&#45;&gt;Uni</title>
<path fill="none" stroke="#000000" d="M201.69,-33.5C214.88,-43.88 232.8,-57.97 247.27,-69.36"/>
<polygon fill="#000000" stroke="#000000" points="245.31,-72.27 255.34,-75.7 249.64,-66.77 245.31,-72.27"/>
</g>
<!-- NFKD -->
<g id="node14" class="node">
<title>NFKD</title>
<g id="a_node14"><a xlink:href="/type/NFKD" xlink:title="NFKD">
<ellipse fill="none" stroke="#000000" cx="272.25" cy="-18" rx="36" ry="18"/>
<text text-anchor="middle" x="272.25" y="-14.3" font-family="FreeSans" font-size="14.00" fill="#000000">NFKD</text>
</a>
</g>
</g>
<!-- NFKD&#45;&gt;Uni -->
<g id="edge9" class="edge">
<title>NFKD&#45;&gt;Uni</title>
<path fill="none" stroke="#000000" d="M272.25,-36.3C272.25,-44.02 272.25,-53.29 272.25,-61.89"/>
<polygon fill="#000000" stroke="#000000" points="268.75,-61.9 272.25,-71.9 275.75,-61.9 268.75,-61.9"/>
</g>
<!-- NFC -->
<g id="node15" class="node">
<title>NFC</title>
<g id="a_node15"><a xlink:href="/type/NFC" xlink:title="NFC">
<ellipse fill="none" stroke="#000000" cx="355.25" cy="-18" rx="29.5" ry="18"/>
<text text-anchor="middle" x="355.25" y="-14.3" font-family="FreeSans" font-size="14.00" fill="#000000">NFC</text>
</a>
</g>
</g>
<!-- NFC&#45;&gt;Uni -->
<g id="edge10" class="edge">
<title>NFC&#45;&gt;Uni</title>
<path fill="none" stroke="#000000" d="M338.45,-33.17C326.37,-43.36 309.89,-57.25 296.4,-68.63"/>
<polygon fill="#000000" stroke="#000000" points="293.84,-66.21 288.45,-75.33 298.35,-71.56 293.84,-66.21"/>
</g>
<!-- NFD -->
<g id="node16" class="node">
<title>NFD</title>
<g id="a_node16"><a xlink:href="/type/NFD" xlink:title="NFD">
<ellipse fill="none" stroke="#000000" cx="432.25" cy="-18" rx="29.8" ry="18"/>
<text text-anchor="middle" x="432.25" y="-14.3" font-family="FreeSans" font-size="14.00" fill="#000000">NFD</text>
</a>
</g>
</g>
<!-- NFD&#45;&gt;Uni -->
<g id="edge11" class="edge">
<title>NFD&#45;&gt;Uni</title>
<path fill="none" stroke="#000000" d="M408.64,-29.33C380.79,-41.51 334.4,-61.81 303.57,-75.3"/>
<polygon fill="#000000" stroke="#000000" points="301.91,-72.2 294.15,-79.42 304.72,-78.62 301.91,-72.2"/>
</g>
<!-- utf8 -->
<g id="node17" class="node">
<title>utf8</title>
<g id="a_node17"><a xlink:href="/type/utf8" xlink:title="utf8">
<ellipse fill="none" stroke="#000000" cx="29.25" cy="-18" rx="29.5" ry="18"/>
<text text-anchor="middle" x="29.25" y="-14.3" font-family="FreeSans" font-size="14.00" fill="#000000">utf8</text>
</a>
</g>
</g>
<!-- utf8&#45;&gt;Any -->
<g id="edge12" class="edge">
<title>utf8&#45;&gt;Any</title>
<path fill="none" stroke="#000000" d="M33.87,-35.93C45.17,-77.26 73.25,-180 73.25,-180 73.25,-180 139.12,-204.76 180.81,-220.43"/>
<polygon fill="#000000" stroke="#000000" points="179.74,-223.77 190.33,-224.01 182.2,-217.21 179.74,-223.77"/>
</g>
<!-- utf8&#45;&gt;Blob -->
<g id="edge21" class="edge">
<title>utf8&#45;&gt;Blob</title>
<path fill="none" stroke="#6666ff" d="M46.6,-32.5C59.87,-42.82 78.39,-57.22 93.41,-68.9"/>
<polygon fill="#6666ff" stroke="#6666ff" points="91.29,-71.69 101.33,-75.07 95.59,-66.16 91.29,-71.69"/>
</g>
<!-- Buf -->
<g id="node18" class="node">
<title>Buf</title>
<g id="a_node18"><a xlink:href="/type/Buf" xlink:title="Buf">
<ellipse fill="none" stroke="#6666ff" cx="103.25" cy="-18" rx="27" ry="18"/>
<text text-anchor="middle" x="103.25" y="-14.3" font-family="FreeSans" font-size="14.00" fill="#6666ff">Buf</text>
</a>
</g>
</g>
<!-- Buf&#45;&gt;Blob -->
<g id="edge22" class="edge">
<title>Buf&#45;&gt;Blob</title>
<path fill="none" stroke="#6666ff" d="M107.12,-35.95C108.9,-43.74 111.06,-53.18 113.06,-61.92"/>
<polygon fill="#6666ff" stroke="#6666ff" points="109.66,-62.76 115.3,-71.72 116.48,-61.2 109.66,-62.76"/>
</g>
</g>
</svg>
