<?xml version="1.0" encoding="UTF-8" standalone="no"?>
<!DOCTYPE svg PUBLIC "-//W3C//DTD SVG 1.1//EN"
 "http://www.w3.org/Graphics/SVG/1.1/DTD/svg11.dtd">
<!-- Generated by graphviz version 2.42.3 (0)
 -->
<!-- Title: perl6&#45;type&#45;graph Pages: 1 -->
<svg width="306pt" height="332pt"
 viewBox="0.00 0.00 305.67 332.00" xmlns="http://www.w3.org/2000/svg" xmlns:xlink="http://www.w3.org/1999/xlink">
<g id="graph0" class="graph" transform="scale(1 1) rotate(0) translate(4 328)">
<title>perl6&#45;type&#45;graph</title>
<polygon fill="white" stroke="transparent" points="-4,4 -4,-328 301.67,-328 301.67,4 -4,4"/>
<!-- X::Method::Private::Permission -->
<g id="node1" class="node">
<title>X::Method::Private::Permission</title>
<g id="a_node1"><a xlink:href="/type/X::Method::Private::Permission" xlink:title="X::Method::Private::Permission">
<ellipse fill="none" stroke="#000000" cx="148.84" cy="-18" rx="148.67" ry="18"/>
<text text-anchor="middle" x="148.84" y="-14.3" font-family="FreeSans" font-size="14.00" fill="#000000">X::Method::Private::Permission</text>
</a>
</g>
</g>
<!-- Exception -->
<g id="node4" class="node">
<title>Exception</title>
<g id="a_node4"><a xlink:href="/type/Exception" xlink:title="Exception">
<ellipse fill="none" stroke="#000000" cx="148.84" cy="-162" rx="55.49" ry="18"/>
<text text-anchor="middle" x="148.84" y="-158.3" font-family="FreeSans" font-size="14.00" fill="#000000">Exception</text>
</a>
</g>
</g>
<!-- X::Method::Private::Permission&#45;&gt;Exception -->
<g id="edge1" class="edge">
<title>X::Method::Private::Permission&#45;&gt;Exception</title>
<path fill="none" stroke="#000000" d="M142.72,-36.06C137.17,-51.55 129.84,-72 129.84,-72 129.84,-72 129.84,-108 129.84,-108 129.84,-108 134.58,-121.24 139.33,-134.48"/>
<polygon fill="#000000" stroke="#000000" points="136.05,-135.71 142.72,-143.94 142.64,-133.34 136.05,-135.71"/>
</g>
<!-- X::Comp -->
<g id="node5" class="node">
<title>X::Comp</title>
<g id="a_node5"><a xlink:href="/type/X::Comp" xlink:title="X::Comp">
<ellipse fill="none" stroke="#6666ff" cx="187.84" cy="-90" rx="49.29" ry="18"/>
<text text-anchor="middle" x="187.84" y="-86.3" font-family="FreeSans" font-size="14.00" fill="#6666ff">X::Comp</text>
</a>
</g>
</g>
<!-- X::Method::Private::Permission&#45;&gt;X::Comp -->
<g id="edge5" class="edge">
<title>X::Method::Private::Permission&#45;&gt;X::Comp</title>
<path fill="none" stroke="#6666ff" d="M158.48,-36.3C162.96,-44.36 168.4,-54.11 173.36,-63.02"/>
<polygon fill="#6666ff" stroke="#6666ff" points="170.38,-64.86 178.31,-71.9 176.5,-61.46 170.38,-64.86"/>
</g>
<!-- Mu -->
<g id="node2" class="node">
<title>Mu</title>
<g id="a_node2"><a xlink:href="/type/Mu" xlink:title="Mu">
<ellipse fill="none" stroke="#000000" cx="148.84" cy="-306" rx="27" ry="18"/>
<text text-anchor="middle" x="148.84" y="-302.3" font-family="FreeSans" font-size="14.00" fill="#000000">Mu</text>
</a>
</g>
</g>
<!-- Any -->
<g id="node3" class="node">
<title>Any</title>
<g id="a_node3"><a xlink:href="/type/Any" xlink:title="Any">
<ellipse fill="none" stroke="#000000" cx="148.84" cy="-234" rx="28.7" ry="18"/>
<text text-anchor="middle" x="148.84" y="-230.3" font-family="FreeSans" font-size="14.00" fill="#000000">Any</text>
</a>
</g>
</g>
<!-- Any&#45;&gt;Mu -->
<g id="edge2" class="edge">
<title>Any&#45;&gt;Mu</title>
<path fill="none" stroke="#000000" d="M148.84,-252.3C148.84,-260.02 148.84,-269.29 148.84,-277.89"/>
<polygon fill="#000000" stroke="#000000" points="145.34,-277.9 148.84,-287.9 152.34,-277.9 145.34,-277.9"/>
</g>
<!-- Exception&#45;&gt;Any -->
<g id="edge3" class="edge">
<title>Exception&#45;&gt;Any</title>
<path fill="none" stroke="#000000" d="M148.84,-180.3C148.84,-188.02 148.84,-197.29 148.84,-205.89"/>
<polygon fill="#000000" stroke="#000000" points="145.34,-205.9 148.84,-215.9 152.34,-205.9 145.34,-205.9"/>
</g>
<!-- X::Comp&#45;&gt;Exception -->
<g id="edge4" class="edge">
<title>X::Comp&#45;&gt;Exception</title>
<path fill="none" stroke="#000000" d="M178.4,-107.95C173.8,-116.2 168.17,-126.3 163.06,-135.46"/>
<polygon fill="#000000" stroke="#000000" points="160,-133.77 158.19,-144.21 166.12,-137.18 160,-133.77"/>
</g>
</g>
</svg>
