<?xml version="1.0" encoding="UTF-8" standalone="no"?>
<!DOCTYPE svg PUBLIC "-//W3C//DTD SVG 1.1//EN"
 "http://www.w3.org/Graphics/SVG/1.1/DTD/svg11.dtd">
<!-- Generated by graphviz version 2.42.3 (0)
 -->
<!-- Title: perl6&#45;type&#45;graph Pages: 1 -->
<svg width="270pt" height="404pt"
 viewBox="0.00 0.00 270.44 404.00" xmlns="http://www.w3.org/2000/svg" xmlns:xlink="http://www.w3.org/1999/xlink">
<g id="graph0" class="graph" transform="scale(1 1) rotate(0) translate(4 400)">
<title>perl6&#45;type&#45;graph</title>
<polygon fill="white" stroke="transparent" points="-4,4 -4,-400 266.44,-400 266.44,4 -4,4"/>
<!-- X::Syntax::NoSelf -->
<g id="node1" class="node">
<title>X::Syntax::NoSelf</title>
<g id="a_node1"><a xlink:href="/type/X::Syntax::NoSelf" xlink:title="X::Syntax::NoSelf">
<ellipse fill="none" stroke="#000000" cx="89.04" cy="-18" rx="89.08" ry="18"/>
<text text-anchor="middle" x="89.04" y="-14.3" font-family="FreeSans" font-size="14.00" fill="#000000">X::Syntax::NoSelf</text>
</a>
</g>
</g>
<!-- Exception -->
<g id="node4" class="node">
<title>Exception</title>
<g id="a_node4"><a xlink:href="/type/Exception" xlink:title="Exception">
<ellipse fill="none" stroke="#000000" cx="112.04" cy="-234" rx="55.49" ry="18"/>
<text text-anchor="middle" x="112.04" y="-230.3" font-family="FreeSans" font-size="14.00" fill="#000000">Exception</text>
</a>
</g>
</g>
<!-- X::Syntax::NoSelf&#45;&gt;Exception -->
<g id="edge1" class="edge">
<title>X::Syntax::NoSelf&#45;&gt;Exception</title>
<path fill="none" stroke="#000000" d="M87.01,-36.15C87.45,-73.34 96.68,-161.63 104.51,-206.23"/>
<polygon fill="#000000" stroke="#000000" points="101.08,-206.88 106.37,-216.06 107.96,-205.59 101.08,-206.88"/>
</g>
<!-- X::Syntax::NoSelf&#45;&gt;Exception -->
<g id="edge2" class="edge">
<title>X::Syntax::NoSelf&#45;&gt;Exception</title>
<path fill="none" stroke="#000000" d="M94.76,-36.15C102.28,-73.17 111.97,-160.82 113.79,-205.61"/>
<polygon fill="#000000" stroke="#000000" points="110.3,-205.87 114.08,-215.77 117.29,-205.67 110.3,-205.87"/>
</g>
<!-- X::Syntax -->
<g id="node6" class="node">
<title>X::Syntax</title>
<g id="a_node6"><a xlink:href="/type/X::Syntax" xlink:title="X::Syntax">
<ellipse fill="none" stroke="#6666ff" cx="180.04" cy="-90" rx="53.89" ry="18"/>
<text text-anchor="middle" x="180.04" y="-86.3" font-family="FreeSans" font-size="14.00" fill="#6666ff">X::Syntax</text>
</a>
</g>
</g>
<!-- X::Syntax::NoSelf&#45;&gt;X::Syntax -->
<g id="edge7" class="edge">
<title>X::Syntax::NoSelf&#45;&gt;X::Syntax</title>
<path fill="none" stroke="#6666ff" d="M110.61,-35.59C122.77,-44.94 138.11,-56.75 151.28,-66.88"/>
<polygon fill="#6666ff" stroke="#6666ff" points="149.51,-69.93 159.57,-73.25 153.78,-64.38 149.51,-69.93"/>
</g>
<!-- Mu -->
<g id="node2" class="node">
<title>Mu</title>
<g id="a_node2"><a xlink:href="/type/Mu" xlink:title="Mu">
<ellipse fill="none" stroke="#000000" cx="112.04" cy="-378" rx="27" ry="18"/>
<text text-anchor="middle" x="112.04" y="-374.3" font-family="FreeSans" font-size="14.00" fill="#000000">Mu</text>
</a>
</g>
</g>
<!-- Any -->
<g id="node3" class="node">
<title>Any</title>
<g id="a_node3"><a xlink:href="/type/Any" xlink:title="Any">
<ellipse fill="none" stroke="#000000" cx="112.04" cy="-306" rx="28.7" ry="18"/>
<text text-anchor="middle" x="112.04" y="-302.3" font-family="FreeSans" font-size="14.00" fill="#000000">Any</text>
</a>
</g>
</g>
<!-- Any&#45;&gt;Mu -->
<g id="edge3" class="edge">
<title>Any&#45;&gt;Mu</title>
<path fill="none" stroke="#000000" d="M112.04,-324.3C112.04,-332.02 112.04,-341.29 112.04,-349.89"/>
<polygon fill="#000000" stroke="#000000" points="108.54,-349.9 112.04,-359.9 115.54,-349.9 108.54,-349.9"/>
</g>
<!-- Exception&#45;&gt;Any -->
<g id="edge4" class="edge">
<title>Exception&#45;&gt;Any</title>
<path fill="none" stroke="#000000" d="M112.04,-252.3C112.04,-260.02 112.04,-269.29 112.04,-277.89"/>
<polygon fill="#000000" stroke="#000000" points="108.54,-277.9 112.04,-287.9 115.54,-277.9 108.54,-277.9"/>
</g>
<!-- X::Comp -->
<g id="node5" class="node">
<title>X::Comp</title>
<g id="a_node5"><a xlink:href="/type/X::Comp" xlink:title="X::Comp">
<ellipse fill="none" stroke="#6666ff" cx="213.04" cy="-162" rx="49.29" ry="18"/>
<text text-anchor="middle" x="213.04" y="-158.3" font-family="FreeSans" font-size="14.00" fill="#6666ff">X::Comp</text>
</a>
</g>
</g>
<!-- X::Comp&#45;&gt;Exception -->
<g id="edge5" class="edge">
<title>X::Comp&#45;&gt;Exception</title>
<path fill="none" stroke="#000000" d="M191.13,-178.19C177.03,-187.96 158.5,-200.8 142.92,-211.6"/>
<polygon fill="#000000" stroke="#000000" points="140.84,-208.78 134.61,-217.36 144.83,-214.54 140.84,-208.78"/>
</g>
<!-- X::Syntax&#45;&gt;Exception -->
<g id="edge6" class="edge">
<title>X::Syntax&#45;&gt;Exception</title>
<path fill="none" stroke="#000000" d="M171.97,-107.85C160.22,-132.4 138.27,-178.23 124.45,-207.09"/>
<polygon fill="#000000" stroke="#000000" points="121.26,-205.64 120.1,-216.18 127.57,-208.67 121.26,-205.64"/>
</g>
<!-- X::Syntax&#45;&gt;X::Comp -->
<g id="edge8" class="edge">
<title>X::Syntax&#45;&gt;X::Comp</title>
<path fill="none" stroke="#6666ff" d="M188.03,-107.95C191.84,-116.03 196.48,-125.88 200.73,-134.89"/>
<polygon fill="#6666ff" stroke="#6666ff" points="197.7,-136.66 205.13,-144.21 204.03,-133.67 197.7,-136.66"/>
</g>
</g>
</svg>
