<?xml version="1.0" encoding="UTF-8" standalone="no"?>
<!DOCTYPE svg PUBLIC "-//W3C//DTD SVG 1.1//EN"
 "http://www.w3.org/Graphics/SVG/1.1/DTD/svg11.dtd">
<!-- Generated by graphviz version 2.42.3 (0)
 -->
<!-- Title: perl6&#45;type&#45;graph Pages: 1 -->
<svg width="330pt" height="404pt"
 viewBox="0.00 0.00 330.37 404.00" xmlns="http://www.w3.org/2000/svg" xmlns:xlink="http://www.w3.org/1999/xlink">
<g id="graph0" class="graph" transform="scale(1 1) rotate(0) translate(4 400)">
<title>perl6&#45;type&#45;graph</title>
<polygon fill="white" stroke="transparent" points="-4,4 -4,-400 326.37,-400 326.37,4 -4,4"/>
<!-- X::Syntax::Pod::BeginWithoutEnd -->
<g id="node1" class="node">
<title>X::Syntax::Pod::BeginWithoutEnd</title>
<g id="a_node1"><a xlink:href="/type/X::Syntax::Pod::BeginWithoutEnd" xlink:title="X::Syntax::Pod::BeginWithoutEnd">
<ellipse fill="none" stroke="#000000" cx="161.19" cy="-18" rx="161.37" ry="18"/>
<text text-anchor="middle" x="161.19" y="-14.3" font-family="FreeSans" font-size="14.00" fill="#000000">X::Syntax::Pod::BeginWithoutEnd</text>
</a>
</g>
</g>
<!-- Exception -->
<g id="node4" class="node">
<title>Exception</title>
<g id="a_node4"><a xlink:href="/type/Exception" xlink:title="Exception">
<ellipse fill="none" stroke="#000000" cx="117.19" cy="-234" rx="55.49" ry="18"/>
<text text-anchor="middle" x="117.19" y="-230.3" font-family="FreeSans" font-size="14.00" fill="#000000">Exception</text>
</a>
</g>
</g>
<!-- X::Syntax::Pod::BeginWithoutEnd&#45;&gt;Exception -->
<g id="edge1" class="edge">
<title>X::Syntax::Pod::BeginWithoutEnd&#45;&gt;Exception</title>
<path fill="none" stroke="#000000" d="M140.91,-36.06C122.49,-51.55 98.19,-72 98.19,-72 98.19,-72 98.19,-108 98.19,-108 98.19,-108 107.46,-169.01 113.05,-205.78"/>
<polygon fill="#000000" stroke="#000000" points="109.62,-206.52 114.58,-215.88 116.54,-205.47 109.62,-206.52"/>
</g>
<!-- X::Syntax -->
<g id="node6" class="node">
<title>X::Syntax</title>
<g id="a_node6"><a xlink:href="/type/X::Syntax" xlink:title="X::Syntax">
<ellipse fill="none" stroke="#6666ff" cx="161.19" cy="-90" rx="53.89" ry="18"/>
<text text-anchor="middle" x="161.19" y="-86.3" font-family="FreeSans" font-size="14.00" fill="#6666ff">X::Syntax</text>
</a>
</g>
</g>
<!-- X::Syntax::Pod::BeginWithoutEnd&#45;&gt;X::Syntax -->
<g id="edge6" class="edge">
<title>X::Syntax::Pod::BeginWithoutEnd&#45;&gt;X::Syntax</title>
<path fill="none" stroke="#6666ff" d="M161.19,-36.3C161.19,-44.02 161.19,-53.29 161.19,-61.89"/>
<polygon fill="#6666ff" stroke="#6666ff" points="157.69,-61.9 161.19,-71.9 164.69,-61.9 157.69,-61.9"/>
</g>
<!-- X::Pod -->
<g id="node7" class="node">
<title>X::Pod</title>
<g id="a_node7"><a xlink:href="/type/X::Pod" xlink:title="X::Pod">
<ellipse fill="none" stroke="#6666ff" cx="273.19" cy="-90" rx="39.79" ry="18"/>
<text text-anchor="middle" x="273.19" y="-86.3" font-family="FreeSans" font-size="14.00" fill="#6666ff">X::Pod</text>
</a>
</g>
</g>
<!-- X::Syntax::Pod::BeginWithoutEnd&#45;&gt;X::Pod -->
<g id="edge7" class="edge">
<title>X::Syntax::Pod::BeginWithoutEnd&#45;&gt;X::Pod</title>
<path fill="none" stroke="#6666ff" d="M188.01,-35.77C204.32,-45.96 225.22,-59.02 242.23,-69.65"/>
<polygon fill="#6666ff" stroke="#6666ff" points="240.39,-72.63 250.73,-74.96 244.1,-66.7 240.39,-72.63"/>
</g>
<!-- Mu -->
<g id="node2" class="node">
<title>Mu</title>
<g id="a_node2"><a xlink:href="/type/Mu" xlink:title="Mu">
<ellipse fill="none" stroke="#000000" cx="117.19" cy="-378" rx="27" ry="18"/>
<text text-anchor="middle" x="117.19" y="-374.3" font-family="FreeSans" font-size="14.00" fill="#000000">Mu</text>
</a>
</g>
</g>
<!-- Any -->
<g id="node3" class="node">
<title>Any</title>
<g id="a_node3"><a xlink:href="/type/Any" xlink:title="Any">
<ellipse fill="none" stroke="#000000" cx="117.19" cy="-306" rx="28.7" ry="18"/>
<text text-anchor="middle" x="117.19" y="-302.3" font-family="FreeSans" font-size="14.00" fill="#000000">Any</text>
</a>
</g>
</g>
<!-- Any&#45;&gt;Mu -->
<g id="edge2" class="edge">
<title>Any&#45;&gt;Mu</title>
<path fill="none" stroke="#000000" d="M117.19,-324.3C117.19,-332.02 117.19,-341.29 117.19,-349.89"/>
<polygon fill="#000000" stroke="#000000" points="113.69,-349.9 117.19,-359.9 120.69,-349.9 113.69,-349.9"/>
</g>
<!-- Exception&#45;&gt;Any -->
<g id="edge3" class="edge">
<title>Exception&#45;&gt;Any</title>
<path fill="none" stroke="#000000" d="M117.19,-252.3C117.19,-260.02 117.19,-269.29 117.19,-277.89"/>
<polygon fill="#000000" stroke="#000000" points="113.69,-277.9 117.19,-287.9 120.69,-277.9 113.69,-277.9"/>
</g>
<!-- X::Comp -->
<g id="node5" class="node">
<title>X::Comp</title>
<g id="a_node5"><a xlink:href="/type/X::Comp" xlink:title="X::Comp">
<ellipse fill="none" stroke="#6666ff" cx="194.19" cy="-162" rx="49.29" ry="18"/>
<text text-anchor="middle" x="194.19" y="-158.3" font-family="FreeSans" font-size="14.00" fill="#6666ff">X::Comp</text>
</a>
</g>
</g>
<!-- X::Comp&#45;&gt;Exception -->
<g id="edge4" class="edge">
<title>X::Comp&#45;&gt;Exception</title>
<path fill="none" stroke="#000000" d="M176.71,-178.88C166.55,-188.13 153.56,-199.93 142.31,-210.16"/>
<polygon fill="#000000" stroke="#000000" points="139.9,-207.62 134.86,-216.94 144.61,-212.8 139.9,-207.62"/>
</g>
<!-- X::Syntax&#45;&gt;Exception -->
<g id="edge5" class="edge">
<title>X::Syntax&#45;&gt;Exception</title>
<path fill="none" stroke="#000000" d="M153.14,-108.06C145.83,-123.55 136.19,-144 136.19,-144 136.19,-144 128.54,-179.83 122.94,-206.03"/>
<polygon fill="#000000" stroke="#000000" points="119.51,-205.33 120.85,-215.84 126.36,-206.79 119.51,-205.33"/>
</g>
<!-- X::Syntax&#45;&gt;X::Comp -->
<g id="edge8" class="edge">
<title>X::Syntax&#45;&gt;X::Comp</title>
<path fill="none" stroke="#6666ff" d="M169.17,-107.95C172.98,-116.03 177.63,-125.88 181.88,-134.89"/>
<polygon fill="#6666ff" stroke="#6666ff" points="178.84,-136.66 186.27,-144.21 185.17,-133.67 178.84,-136.66"/>
</g>
</g>
</svg>
