<?xml version="1.0" encoding="UTF-8" standalone="no"?>
<!DOCTYPE svg PUBLIC "-//W3C//DTD SVG 1.1//EN"
 "http://www.w3.org/Graphics/SVG/1.1/DTD/svg11.dtd">
<!-- Generated by graphviz version 2.42.3 (0)
 -->
<!-- Title: perl6&#45;type&#45;graph Pages: 1 -->
<svg width="248pt" height="332pt"
 viewBox="0.00 0.00 248.48 332.00" xmlns="http://www.w3.org/2000/svg" xmlns:xlink="http://www.w3.org/1999/xlink">
<g id="graph0" class="graph" transform="scale(1 1) rotate(0) translate(4 328)">
<title>perl6&#45;type&#45;graph</title>
<polygon fill="white" stroke="transparent" points="-4,4 -4,-328 244.48,-328 244.48,4 -4,4"/>
<!-- X::Import::OnlystarProto -->
<g id="node1" class="node">
<title>X::Import::OnlystarProto</title>
<g id="a_node1"><a xlink:href="/type/X::Import::OnlystarProto" xlink:title="X::Import::OnlystarProto">
<ellipse fill="none" stroke="#000000" cx="120.24" cy="-18" rx="120.48" ry="18"/>
<text text-anchor="middle" x="120.24" y="-14.3" font-family="FreeSans" font-size="14.00" fill="#000000">X::Import::OnlystarProto</text>
</a>
</g>
</g>
<!-- Exception -->
<g id="node4" class="node">
<title>Exception</title>
<g id="a_node4"><a xlink:href="/type/Exception" xlink:title="Exception">
<ellipse fill="none" stroke="#000000" cx="120.24" cy="-162" rx="55.49" ry="18"/>
<text text-anchor="middle" x="120.24" y="-158.3" font-family="FreeSans" font-size="14.00" fill="#000000">Exception</text>
</a>
</g>
</g>
<!-- X::Import::OnlystarProto&#45;&gt;Exception -->
<g id="edge1" class="edge">
<title>X::Import::OnlystarProto&#45;&gt;Exception</title>
<path fill="none" stroke="#000000" d="M114.12,-36.06C108.57,-51.55 101.24,-72 101.24,-72 101.24,-72 101.24,-108 101.24,-108 101.24,-108 105.99,-121.24 110.73,-134.48"/>
<polygon fill="#000000" stroke="#000000" points="107.45,-135.71 114.12,-143.94 114.04,-133.34 107.45,-135.71"/>
</g>
<!-- X::Comp -->
<g id="node5" class="node">
<title>X::Comp</title>
<g id="a_node5"><a xlink:href="/type/X::Comp" xlink:title="X::Comp">
<ellipse fill="none" stroke="#6666ff" cx="159.24" cy="-90" rx="49.29" ry="18"/>
<text text-anchor="middle" x="159.24" y="-86.3" font-family="FreeSans" font-size="14.00" fill="#6666ff">X::Comp</text>
</a>
</g>
</g>
<!-- X::Import::OnlystarProto&#45;&gt;X::Comp -->
<g id="edge5" class="edge">
<title>X::Import::OnlystarProto&#45;&gt;X::Comp</title>
<path fill="none" stroke="#6666ff" d="M129.68,-35.95C134.28,-44.2 139.91,-54.3 145.01,-63.46"/>
<polygon fill="#6666ff" stroke="#6666ff" points="141.96,-65.18 149.89,-72.21 148.08,-61.77 141.96,-65.18"/>
</g>
<!-- Mu -->
<g id="node2" class="node">
<title>Mu</title>
<g id="a_node2"><a xlink:href="/type/Mu" xlink:title="Mu">
<ellipse fill="none" stroke="#000000" cx="120.24" cy="-306" rx="27" ry="18"/>
<text text-anchor="middle" x="120.24" y="-302.3" font-family="FreeSans" font-size="14.00" fill="#000000">Mu</text>
</a>
</g>
</g>
<!-- Any -->
<g id="node3" class="node">
<title>Any</title>
<g id="a_node3"><a xlink:href="/type/Any" xlink:title="Any">
<ellipse fill="none" stroke="#000000" cx="120.24" cy="-234" rx="28.7" ry="18"/>
<text text-anchor="middle" x="120.24" y="-230.3" font-family="FreeSans" font-size="14.00" fill="#000000">Any</text>
</a>
</g>
</g>
<!-- Any&#45;&gt;Mu -->
<g id="edge2" class="edge">
<title>Any&#45;&gt;Mu</title>
<path fill="none" stroke="#000000" d="M120.24,-252.3C120.24,-260.02 120.24,-269.29 120.24,-277.89"/>
<polygon fill="#000000" stroke="#000000" points="116.74,-277.9 120.24,-287.9 123.74,-277.9 116.74,-277.9"/>
</g>
<!-- Exception&#45;&gt;Any -->
<g id="edge3" class="edge">
<title>Exception&#45;&gt;Any</title>
<path fill="none" stroke="#000000" d="M120.24,-180.3C120.24,-188.02 120.24,-197.29 120.24,-205.89"/>
<polygon fill="#000000" stroke="#000000" points="116.74,-205.9 120.24,-215.9 123.74,-205.9 116.74,-205.9"/>
</g>
<!-- X::Comp&#45;&gt;Exception -->
<g id="edge4" class="edge">
<title>X::Comp&#45;&gt;Exception</title>
<path fill="none" stroke="#000000" d="M149.8,-107.95C145.2,-116.2 139.57,-126.3 134.47,-135.46"/>
<polygon fill="#000000" stroke="#000000" points="131.4,-133.77 129.59,-144.21 137.52,-137.18 131.4,-133.77"/>
</g>
</g>
</svg>
