<?xml version="1.0" encoding="UTF-8" standalone="no"?>
<!DOCTYPE svg PUBLIC "-//W3C//DTD SVG 1.1//EN"
 "http://www.w3.org/Graphics/SVG/1.1/DTD/svg11.dtd">
<!-- Generated by graphviz version 2.42.3 (0)
 -->
<!-- Title: perl6&#45;type&#45;graph Pages: 1 -->
<svg width="277pt" height="332pt"
 viewBox="0.00 0.00 277.08 332.00" xmlns="http://www.w3.org/2000/svg" xmlns:xlink="http://www.w3.org/1999/xlink">
<g id="graph0" class="graph" transform="scale(1 1) rotate(0) translate(4 328)">
<title>perl6&#45;type&#45;graph</title>
<polygon fill="white" stroke="transparent" points="-4,4 -4,-328 273.08,-328 273.08,4 -4,4"/>
<!-- X::Numeric::Real -->
<g id="node1" class="node">
<title>X::Numeric::Real</title>
<g id="a_node1"><a xlink:href="/type/X::Numeric::Real" xlink:title="X::Numeric::Real">
<ellipse fill="none" stroke="#000000" cx="134.54" cy="-18" rx="86.38" ry="18"/>
<text text-anchor="middle" x="134.54" y="-14.3" font-family="FreeSans" font-size="14.00" fill="#000000">X::Numeric::Real</text>
</a>
</g>
</g>
<!-- X::Numeric::CannotConvert -->
<g id="node5" class="node">
<title>X::Numeric::CannotConvert</title>
<g id="a_node5"><a xlink:href="/type/X::Numeric::CannotConvert" xlink:title="X::Numeric::CannotConvert">
<ellipse fill="none" stroke="#000000" cx="134.54" cy="-90" rx="134.58" ry="18"/>
<text text-anchor="middle" x="134.54" y="-86.3" font-family="FreeSans" font-size="14.00" fill="#000000">X::Numeric::CannotConvert</text>
</a>
</g>
</g>
<!-- X::Numeric::Real&#45;&gt;X::Numeric::CannotConvert -->
<g id="edge1" class="edge">
<title>X::Numeric::Real&#45;&gt;X::Numeric::CannotConvert</title>
<path fill="none" stroke="#000000" d="M134.54,-36.3C134.54,-44.02 134.54,-53.29 134.54,-61.89"/>
<polygon fill="#000000" stroke="#000000" points="131.04,-61.9 134.54,-71.9 138.04,-61.9 131.04,-61.9"/>
</g>
<!-- Mu -->
<g id="node2" class="node">
<title>Mu</title>
<g id="a_node2"><a xlink:href="/type/Mu" xlink:title="Mu">
<ellipse fill="none" stroke="#000000" cx="134.54" cy="-306" rx="27" ry="18"/>
<text text-anchor="middle" x="134.54" y="-302.3" font-family="FreeSans" font-size="14.00" fill="#000000">Mu</text>
</a>
</g>
</g>
<!-- Any -->
<g id="node3" class="node">
<title>Any</title>
<g id="a_node3"><a xlink:href="/type/Any" xlink:title="Any">
<ellipse fill="none" stroke="#000000" cx="134.54" cy="-234" rx="28.7" ry="18"/>
<text text-anchor="middle" x="134.54" y="-230.3" font-family="FreeSans" font-size="14.00" fill="#000000">Any</text>
</a>
</g>
</g>
<!-- Any&#45;&gt;Mu -->
<g id="edge2" class="edge">
<title>Any&#45;&gt;Mu</title>
<path fill="none" stroke="#000000" d="M134.54,-252.3C134.54,-260.02 134.54,-269.29 134.54,-277.89"/>
<polygon fill="#000000" stroke="#000000" points="131.04,-277.9 134.54,-287.9 138.04,-277.9 131.04,-277.9"/>
</g>
<!-- Exception -->
<g id="node4" class="node">
<title>Exception</title>
<g id="a_node4"><a xlink:href="/type/Exception" xlink:title="Exception">
<ellipse fill="none" stroke="#000000" cx="134.54" cy="-162" rx="55.49" ry="18"/>
<text text-anchor="middle" x="134.54" y="-158.3" font-family="FreeSans" font-size="14.00" fill="#000000">Exception</text>
</a>
</g>
</g>
<!-- Exception&#45;&gt;Any -->
<g id="edge3" class="edge">
<title>Exception&#45;&gt;Any</title>
<path fill="none" stroke="#000000" d="M134.54,-180.3C134.54,-188.02 134.54,-197.29 134.54,-205.89"/>
<polygon fill="#000000" stroke="#000000" points="131.04,-205.9 134.54,-215.9 138.04,-205.9 131.04,-205.9"/>
</g>
<!-- X::Numeric::CannotConvert&#45;&gt;Exception -->
<g id="edge4" class="edge">
<title>X::Numeric::CannotConvert&#45;&gt;Exception</title>
<path fill="none" stroke="#000000" d="M134.54,-108.3C134.54,-116.02 134.54,-125.29 134.54,-133.89"/>
<polygon fill="#000000" stroke="#000000" points="131.04,-133.9 134.54,-143.9 138.04,-133.9 131.04,-133.9"/>
</g>
</g>
</svg>
