<?xml version="1.0" encoding="UTF-8" standalone="no"?>
<!DOCTYPE svg PUBLIC "-//W3C//DTD SVG 1.1//EN"
 "http://www.w3.org/Graphics/SVG/1.1/DTD/svg11.dtd">
<!-- Generated by graphviz version 2.42.3 (0)
 -->
<!-- Title: perl6&#45;type&#45;graph Pages: 1 -->
<svg width="1238pt" height="332pt"
 viewBox="0.00 0.00 1237.69 332.00" xmlns="http://www.w3.org/2000/svg" xmlns:xlink="http://www.w3.org/1999/xlink">
<g id="graph0" class="graph" transform="scale(1 1) rotate(0) translate(4 328)">
<title>perl6&#45;type&#45;graph</title>
<polygon fill="white" stroke="transparent" points="-4,4 -4,-328 1233.69,-328 1233.69,4 -4,4"/>
<!-- Numeric -->
<g id="node1" class="node">
<title>Numeric</title>
<g id="a_node1"><a xlink:href="/type/Numeric" xlink:title="Numeric">
<ellipse fill="none" stroke="#6666ff" cx="862" cy="-234" rx="48.99" ry="18"/>
<text text-anchor="middle" x="862" y="-230.3" font-family="FreeSans" font-size="14.00" fill="#6666ff">Numeric</text>
</a>
</g>
</g>
<!-- Real -->
<g id="node2" class="node">
<title>Real</title>
<g id="a_node2"><a xlink:href="/type/Real" xlink:title="Real">
<ellipse fill="none" stroke="#6666ff" cx="488" cy="-162" rx="30.59" ry="18"/>
<text text-anchor="middle" x="488" y="-158.3" font-family="FreeSans" font-size="14.00" fill="#6666ff">Real</text>
</a>
</g>
</g>
<!-- Real&#45;&gt;Numeric -->
<g id="edge24" class="edge">
<title>Real&#45;&gt;Numeric</title>
<path fill="none" stroke="#6666ff" d="M514.19,-171.4C527.54,-175.68 541,-180 541,-180 541,-180 717.15,-209.08 808.48,-224.16"/>
<polygon fill="#6666ff" stroke="#6666ff" points="807.94,-227.62 818.37,-225.8 809.08,-220.71 807.94,-227.62"/>
</g>
<!-- Mu -->
<g id="node3" class="node">
<title>Mu</title>
<g id="a_node3"><a xlink:href="/type/Mu" xlink:title="Mu">
<ellipse fill="none" stroke="#000000" cx="581" cy="-306" rx="27" ry="18"/>
<text text-anchor="middle" x="581" y="-302.3" font-family="FreeSans" font-size="14.00" fill="#000000">Mu</text>
</a>
</g>
</g>
<!-- Any -->
<g id="node4" class="node">
<title>Any</title>
<g id="a_node4"><a xlink:href="/type/Any" xlink:title="Any">
<ellipse fill="none" stroke="#000000" cx="581" cy="-234" rx="28.7" ry="18"/>
<text text-anchor="middle" x="581" y="-230.3" font-family="FreeSans" font-size="14.00" fill="#000000">Any</text>
</a>
</g>
</g>
<!-- Any&#45;&gt;Mu -->
<g id="edge1" class="edge">
<title>Any&#45;&gt;Mu</title>
<path fill="none" stroke="#000000" d="M581,-252.3C581,-260.02 581,-269.29 581,-277.89"/>
<polygon fill="#000000" stroke="#000000" points="577.5,-277.9 581,-287.9 584.5,-277.9 577.5,-277.9"/>
</g>
<!-- Cool -->
<g id="node5" class="node">
<title>Cool</title>
<g id="a_node5"><a xlink:href="/type/Cool" xlink:title="Cool">
<ellipse fill="none" stroke="#000000" cx="581" cy="-162" rx="30.59" ry="18"/>
<text text-anchor="middle" x="581" y="-158.3" font-family="FreeSans" font-size="14.00" fill="#000000">Cool</text>
</a>
</g>
</g>
<!-- Cool&#45;&gt;Any -->
<g id="edge2" class="edge">
<title>Cool&#45;&gt;Any</title>
<path fill="none" stroke="#000000" d="M581,-180.3C581,-188.02 581,-197.29 581,-205.89"/>
<polygon fill="#000000" stroke="#000000" points="577.5,-205.9 581,-215.9 584.5,-205.9 577.5,-205.9"/>
</g>
<!-- Complex -->
<g id="node6" class="node">
<title>Complex</title>
<g id="a_node6"><a xlink:href="/type/Complex" xlink:title="Complex">
<ellipse fill="none" stroke="#000000" cx="1034" cy="-90" rx="50.09" ry="18"/>
<text text-anchor="middle" x="1034" y="-86.3" font-family="FreeSans" font-size="14.00" fill="#000000">Complex</text>
</a>
</g>
</g>
<!-- Complex&#45;&gt;Numeric -->
<g id="edge25" class="edge">
<title>Complex&#45;&gt;Numeric</title>
<path fill="none" stroke="#6666ff" d="M1025.9,-108.16C1013.7,-134.02 992,-180 992,-180 992,-180 940.96,-200.81 902.84,-216.35"/>
<polygon fill="#6666ff" stroke="#6666ff" points="901.41,-213.15 893.47,-220.17 904.05,-219.64 901.41,-213.15"/>
</g>
<!-- Complex&#45;&gt;Cool -->
<g id="edge3" class="edge">
<title>Complex&#45;&gt;Cool</title>
<path fill="none" stroke="#000000" d="M996.3,-101.86C984.74,-105.19 975,-108 975,-108 975,-108 720.57,-142.23 620.63,-155.67"/>
<polygon fill="#000000" stroke="#000000" points="620.06,-152.21 610.61,-157.02 620.99,-159.15 620.06,-152.21"/>
</g>
<!-- Stringy -->
<g id="node7" class="node">
<title>Stringy</title>
<g id="a_node7"><a xlink:href="/type/Stringy" xlink:title="Stringy">
<ellipse fill="none" stroke="#6666ff" cx="939" cy="-162" rx="43.59" ry="18"/>
<text text-anchor="middle" x="939" y="-158.3" font-family="FreeSans" font-size="14.00" fill="#6666ff">Stringy</text>
</a>
</g>
</g>
<!-- Str -->
<g id="node8" class="node">
<title>Str</title>
<g id="a_node8"><a xlink:href="/type/Str" xlink:title="Str">
<ellipse fill="none" stroke="#000000" cx="939" cy="-90" rx="27" ry="18"/>
<text text-anchor="middle" x="939" y="-86.3" font-family="FreeSans" font-size="14.00" fill="#000000">Str</text>
</a>
</g>
</g>
<!-- Str&#45;&gt;Cool -->
<g id="edge4" class="edge">
<title>Str&#45;&gt;Cool</title>
<path fill="none" stroke="#000000" d="M913.25,-96.03C851.21,-108.17 693.16,-139.07 619.66,-153.44"/>
<polygon fill="#000000" stroke="#000000" points="618.6,-150.08 609.46,-155.44 619.94,-156.95 618.6,-150.08"/>
</g>
<!-- Str&#45;&gt;Stringy -->
<g id="edge26" class="edge">
<title>Str&#45;&gt;Stringy</title>
<path fill="none" stroke="#6666ff" d="M939,-108.3C939,-116.02 939,-125.29 939,-133.89"/>
<polygon fill="#6666ff" stroke="#6666ff" points="935.5,-133.9 939,-143.9 942.5,-133.9 935.5,-133.9"/>
</g>
<!-- ComplexStr -->
<g id="node9" class="node">
<title>ComplexStr</title>
<g id="a_node9"><a xlink:href="/type/ComplexStr" xlink:title="ComplexStr">
<ellipse fill="none" stroke="#000000" cx="1166" cy="-18" rx="63.89" ry="18"/>
<text text-anchor="middle" x="1166" y="-14.3" font-family="FreeSans" font-size="14.00" fill="#000000">ComplexStr</text>
</a>
</g>
</g>
<!-- ComplexStr&#45;&gt;Complex -->
<g id="edge5" class="edge">
<title>ComplexStr&#45;&gt;Complex</title>
<path fill="none" stroke="#000000" d="M1137.36,-34.19C1117.54,-44.7 1091.03,-58.76 1069.82,-70.01"/>
<polygon fill="#000000" stroke="#000000" points="1067.98,-67.02 1060.79,-74.79 1071.26,-73.2 1067.98,-67.02"/>
</g>
<!-- ComplexStr&#45;&gt;Str -->
<g id="edge6" class="edge">
<title>ComplexStr&#45;&gt;Str</title>
<path fill="none" stroke="#000000" d="M1122.18,-31.16C1065.79,-46.81 975,-72 975,-72 975,-72 972.82,-73.03 969.53,-74.58"/>
<polygon fill="#000000" stroke="#000000" points="967.91,-71.48 960.36,-78.91 970.89,-77.81 967.91,-71.48"/>
</g>
<!-- Duration -->
<g id="node10" class="node">
<title>Duration</title>
<g id="a_node10"><a xlink:href="/type/Duration" xlink:title="Duration">
<ellipse fill="none" stroke="#000000" cx="336" cy="-90" rx="50.09" ry="18"/>
<text text-anchor="middle" x="336" y="-86.3" font-family="FreeSans" font-size="14.00" fill="#000000">Duration</text>
</a>
</g>
</g>
<!-- Duration&#45;&gt;Real -->
<g id="edge27" class="edge">
<title>Duration&#45;&gt;Real</title>
<path fill="none" stroke="#6666ff" d="M365.67,-104.66C391.37,-116.5 428.5,-133.6 455.1,-145.85"/>
<polygon fill="#6666ff" stroke="#6666ff" points="453.84,-149.12 464.39,-150.13 456.77,-142.76 453.84,-149.12"/>
</g>
<!-- Duration&#45;&gt;Cool -->
<g id="edge7" class="edge">
<title>Duration&#45;&gt;Cool</title>
<path fill="none" stroke="#000000" d="M373.7,-101.86C385.26,-105.19 395,-108 395,-108 395,-108 528,-144 528,-144 528,-144 535.73,-146.48 545.28,-149.54"/>
<polygon fill="#000000" stroke="#000000" points="544.22,-152.88 554.81,-152.6 546.36,-146.21 544.22,-152.88"/>
</g>
<!-- Int -->
<g id="node11" class="node">
<title>Int</title>
<g id="a_node11"><a xlink:href="/type/Int" xlink:title="Int">
<ellipse fill="none" stroke="#000000" cx="609" cy="-90" rx="27" ry="18"/>
<text text-anchor="middle" x="609" y="-86.3" font-family="FreeSans" font-size="14.00" fill="#000000">Int</text>
</a>
</g>
</g>
<!-- Int&#45;&gt;Real -->
<g id="edge28" class="edge">
<title>Int&#45;&gt;Real</title>
<path fill="none" stroke="#6666ff" d="M589.29,-102.4C569.98,-113.57 540.31,-130.74 518.06,-143.61"/>
<polygon fill="#6666ff" stroke="#6666ff" points="516.24,-140.62 509.33,-148.66 519.74,-146.68 516.24,-140.62"/>
</g>
<!-- Int&#45;&gt;Cool -->
<g id="edge8" class="edge">
<title>Int&#45;&gt;Cool</title>
<path fill="none" stroke="#000000" d="M602.36,-107.59C599.13,-115.66 595.17,-125.57 591.54,-134.65"/>
<polygon fill="#000000" stroke="#000000" points="588.25,-133.46 587.78,-144.04 594.75,-136.06 588.25,-133.46"/>
</g>
<!-- Instant -->
<g id="node12" class="node">
<title>Instant</title>
<g id="a_node12"><a xlink:href="/type/Instant" xlink:title="Instant">
<ellipse fill="none" stroke="#000000" cx="446" cy="-90" rx="42.49" ry="18"/>
<text text-anchor="middle" x="446" y="-86.3" font-family="FreeSans" font-size="14.00" fill="#000000">Instant</text>
</a>
</g>
</g>
<!-- Instant&#45;&gt;Real -->
<g id="edge29" class="edge">
<title>Instant&#45;&gt;Real</title>
<path fill="none" stroke="#6666ff" d="M455.95,-107.59C461.03,-116.05 467.3,-126.51 472.95,-135.92"/>
<polygon fill="#6666ff" stroke="#6666ff" points="469.97,-137.76 478.12,-144.53 475.97,-134.15 469.97,-137.76"/>
</g>
<!-- Instant&#45;&gt;Cool -->
<g id="edge9" class="edge">
<title>Instant&#45;&gt;Cool</title>
<path fill="none" stroke="#000000" d="M471.71,-104.33C493.86,-115.82 525.91,-132.44 549.58,-144.71"/>
<polygon fill="#000000" stroke="#000000" points="548.03,-147.85 558.52,-149.35 551.26,-141.63 548.03,-147.85"/>
</g>
<!-- Rational -->
<g id="node13" class="node">
<title>Rational</title>
<g id="a_node13"><a xlink:href="/type/Rational" xlink:title="Rational">
<ellipse fill="none" stroke="#6666ff" cx="112" cy="-90" rx="47.39" ry="18"/>
<text text-anchor="middle" x="112" y="-86.3" font-family="FreeSans" font-size="14.00" fill="#6666ff">Rational</text>
</a>
</g>
</g>
<!-- Rational&#45;&gt;Real -->
<g id="edge30" class="edge">
<title>Rational&#45;&gt;Real</title>
<path fill="none" stroke="#6666ff" d="M153.68,-98.76C226.94,-112.4 377.78,-140.48 449.06,-153.75"/>
<polygon fill="#6666ff" stroke="#6666ff" points="448.51,-157.21 458.98,-155.6 449.79,-150.33 448.51,-157.21"/>
</g>
<!-- Num -->
<g id="node14" class="node">
<title>Num</title>
<g id="a_node14"><a xlink:href="/type/Num" xlink:title="Num">
<ellipse fill="none" stroke="#000000" cx="686" cy="-90" rx="32.49" ry="18"/>
<text text-anchor="middle" x="686" y="-86.3" font-family="FreeSans" font-size="14.00" fill="#000000">Num</text>
</a>
</g>
</g>
<!-- Num&#45;&gt;Real -->
<g id="edge31" class="edge">
<title>Num&#45;&gt;Real</title>
<path fill="none" stroke="#6666ff" d="M660.73,-101.48C652.3,-104.97 645,-108 645,-108 645,-108 569.94,-133.34 523.62,-148.98"/>
<polygon fill="#6666ff" stroke="#6666ff" points="522.28,-145.73 513.93,-152.25 524.52,-152.37 522.28,-145.73"/>
</g>
<!-- Num&#45;&gt;Cool -->
<g id="edge10" class="edge">
<title>Num&#45;&gt;Cool</title>
<path fill="none" stroke="#000000" d="M665.75,-104.5C649.57,-115.29 626.71,-130.53 608.81,-142.46"/>
<polygon fill="#000000" stroke="#000000" points="606.85,-139.56 600.47,-148.02 610.73,-145.38 606.85,-139.56"/>
</g>
<!-- Signal -->
<g id="node15" class="node">
<title>Signal</title>
<g id="a_node15"><a xlink:href="/type/Signal" xlink:title="Signal">
<ellipse fill="none" stroke="#33bb33" cx="402" cy="-18" rx="38.19" ry="18"/>
<text text-anchor="middle" x="402" y="-14.3" font-family="FreeSans" font-size="14.00" fill="#33bb33">Signal</text>
</a>
</g>
</g>
<!-- Signal&#45;&gt;Int -->
<g id="edge11" class="edge">
<title>Signal&#45;&gt;Int</title>
<path fill="none" stroke="#000000" d="M431.5,-29.67C440.94,-33.09 449,-36 449,-36 449,-36 568,-72 568,-72 568,-72 571.88,-73.61 577.25,-75.84"/>
<polygon fill="#000000" stroke="#000000" points="576,-79.11 586.58,-79.7 578.68,-72.64 576,-79.11"/>
</g>
<!-- atomicint -->
<g id="node16" class="node">
<title>atomicint</title>
<g id="a_node16"><a xlink:href="/type/atomicint" xlink:title="atomicint">
<ellipse fill="none" stroke="#000000" cx="511" cy="-18" rx="52.79" ry="18"/>
<text text-anchor="middle" x="511" y="-14.3" font-family="FreeSans" font-size="14.00" fill="#000000">atomicint</text>
</a>
</g>
</g>
<!-- atomicint&#45;&gt;Int -->
<g id="edge12" class="edge">
<title>atomicint&#45;&gt;Int</title>
<path fill="none" stroke="#000000" d="M532.75,-34.54C547.59,-45.14 567.33,-59.24 583.01,-70.43"/>
<polygon fill="#000000" stroke="#000000" points="581.07,-73.35 591.24,-76.31 585.14,-67.65 581.07,-73.35"/>
</g>
<!-- int -->
<g id="node17" class="node">
<title>int</title>
<g id="a_node17"><a xlink:href="/type/int" xlink:title="int">
<ellipse fill="none" stroke="#000000" cx="609" cy="-18" rx="27" ry="18"/>
<text text-anchor="middle" x="609" y="-14.3" font-family="FreeSans" font-size="14.00" fill="#000000">int</text>
</a>
</g>
</g>
<!-- int&#45;&gt;Int -->
<g id="edge13" class="edge">
<title>int&#45;&gt;Int</title>
<path fill="none" stroke="#000000" d="M609,-36.3C609,-44.02 609,-53.29 609,-61.89"/>
<polygon fill="#000000" stroke="#000000" points="605.5,-61.9 609,-71.9 612.5,-61.9 605.5,-61.9"/>
</g>
<!-- Bool -->
<g id="node18" class="node">
<title>Bool</title>
<g id="a_node18"><a xlink:href="/type/Bool" xlink:title="Bool">
<ellipse fill="none" stroke="#33bb33" cx="685" cy="-18" rx="30.59" ry="18"/>
<text text-anchor="middle" x="685" y="-14.3" font-family="FreeSans" font-size="14.00" fill="#33bb33">Bool</text>
</a>
</g>
</g>
<!-- Bool&#45;&gt;Int -->
<g id="edge14" class="edge">
<title>Bool&#45;&gt;Int</title>
<path fill="none" stroke="#000000" d="M669.25,-33.5C658.41,-43.49 643.84,-56.91 631.74,-68.06"/>
<polygon fill="#000000" stroke="#000000" points="629.19,-65.64 624.21,-74.99 633.94,-70.79 629.19,-65.64"/>
</g>
<!-- IntStr -->
<g id="node19" class="node">
<title>IntStr</title>
<g id="a_node19"><a xlink:href="/type/IntStr" xlink:title="IntStr">
<ellipse fill="none" stroke="#000000" cx="939" cy="-18" rx="36.29" ry="18"/>
<text text-anchor="middle" x="939" y="-14.3" font-family="FreeSans" font-size="14.00" fill="#000000">IntStr</text>
</a>
</g>
</g>
<!-- IntStr&#45;&gt;Str -->
<g id="edge16" class="edge">
<title>IntStr&#45;&gt;Str</title>
<path fill="none" stroke="#000000" d="M939,-36.3C939,-44.02 939,-53.29 939,-61.89"/>
<polygon fill="#000000" stroke="#000000" points="935.5,-61.9 939,-71.9 942.5,-61.9 935.5,-61.9"/>
</g>
<!-- IntStr&#45;&gt;Int -->
<g id="edge15" class="edge">
<title>IntStr&#45;&gt;Int</title>
<path fill="none" stroke="#000000" d="M910.65,-29.48C901.19,-32.97 893,-36 893,-36 893,-36 645,-72 645,-72 645,-72 642.82,-73.03 639.53,-74.58"/>
<polygon fill="#000000" stroke="#000000" points="637.91,-71.48 630.36,-78.91 640.89,-77.81 637.91,-71.48"/>
</g>
<!-- PromiseStatus -->
<g id="node20" class="node">
<title>PromiseStatus</title>
<g id="a_node20"><a xlink:href="/type/PromiseStatus" xlink:title="PromiseStatus">
<ellipse fill="none" stroke="#33bb33" cx="809" cy="-18" rx="75.29" ry="18"/>
<text text-anchor="middle" x="809" y="-14.3" font-family="FreeSans" font-size="14.00" fill="#33bb33">PromiseStatus</text>
</a>
</g>
</g>
<!-- PromiseStatus&#45;&gt;Int -->
<g id="edge17" class="edge">
<title>PromiseStatus&#45;&gt;Int</title>
<path fill="none" stroke="#000000" d="M765.91,-32.93C717.32,-48.63 645,-72 645,-72 645,-72 642.82,-73.03 639.53,-74.58"/>
<polygon fill="#000000" stroke="#000000" points="637.91,-71.48 630.36,-78.91 640.89,-77.81 637.91,-71.48"/>
</g>
<!-- Endian -->
<g id="node21" class="node">
<title>Endian</title>
<g id="a_node21"><a xlink:href="/type/Endian" xlink:title="Endian">
<ellipse fill="none" stroke="#33bb33" cx="212" cy="-18" rx="42.49" ry="18"/>
<text text-anchor="middle" x="212" y="-14.3" font-family="FreeSans" font-size="14.00" fill="#33bb33">Endian</text>
</a>
</g>
</g>
<!-- Endian&#45;&gt;Int -->
<g id="edge18" class="edge">
<title>Endian&#45;&gt;Int</title>
<path fill="none" stroke="#000000" d="M244.3,-29.77C254.42,-33.14 263,-36 263,-36 263,-36 568,-72 568,-72 568,-72 571.88,-73.61 577.25,-75.84"/>
<polygon fill="#000000" stroke="#000000" points="576,-79.11 586.58,-79.7 578.68,-72.64 576,-79.11"/>
</g>
<!-- Order -->
<g id="node22" class="node">
<title>Order</title>
<g id="a_node22"><a xlink:href="/type/Order" xlink:title="Order">
<ellipse fill="none" stroke="#33bb33" cx="309" cy="-18" rx="37.09" ry="18"/>
<text text-anchor="middle" x="309" y="-14.3" font-family="FreeSans" font-size="14.00" fill="#33bb33">Order</text>
</a>
</g>
</g>
<!-- Order&#45;&gt;Int -->
<g id="edge19" class="edge">
<title>Order&#45;&gt;Int</title>
<path fill="none" stroke="#000000" d="M337.61,-29.57C346.96,-33.03 355,-36 355,-36 355,-36 568,-72 568,-72 568,-72 571.88,-73.61 577.25,-75.84"/>
<polygon fill="#000000" stroke="#000000" points="576,-79.11 586.58,-79.7 578.68,-72.64 576,-79.11"/>
</g>
<!-- NumStr -->
<g id="node23" class="node">
<title>NumStr</title>
<g id="a_node23"><a xlink:href="/type/NumStr" xlink:title="NumStr">
<ellipse fill="none" stroke="#000000" cx="1039" cy="-18" rx="45.49" ry="18"/>
<text text-anchor="middle" x="1039" y="-14.3" font-family="FreeSans" font-size="14.00" fill="#000000">NumStr</text>
</a>
</g>
</g>
<!-- NumStr&#45;&gt;Str -->
<g id="edge21" class="edge">
<title>NumStr&#45;&gt;Str</title>
<path fill="none" stroke="#000000" d="M1017.3,-34.19C1002.08,-44.84 981.65,-59.15 965.47,-70.47"/>
<polygon fill="#000000" stroke="#000000" points="963.17,-67.81 956.98,-76.41 967.18,-73.55 963.17,-67.81"/>
</g>
<!-- NumStr&#45;&gt;Num -->
<g id="edge20" class="edge">
<title>NumStr&#45;&gt;Num</title>
<path fill="none" stroke="#000000" d="M1004.17,-29.77C993.25,-33.14 984,-36 984,-36 984,-36 807.83,-67.33 726.4,-81.82"/>
<polygon fill="#000000" stroke="#000000" points="725.72,-78.38 716.49,-83.58 726.95,-85.27 725.72,-78.38"/>
</g>
<!-- Rat -->
<g id="node24" class="node">
<title>Rat</title>
<g id="a_node24"><a xlink:href="/type/Rat" xlink:title="Rat">
<ellipse fill="none" stroke="#000000" cx="27" cy="-18" rx="27" ry="18"/>
<text text-anchor="middle" x="27" y="-14.3" font-family="FreeSans" font-size="14.00" fill="#000000">Rat</text>
</a>
</g>
</g>
<!-- Rat&#45;&gt;Cool -->
<g id="edge22" class="edge">
<title>Rat&#45;&gt;Cool</title>
<path fill="none" stroke="#000000" d="M48.36,-29.09C56.11,-32.75 63,-36 63,-36 63,-36 497,-72 497,-72 497,-72 530,-108 530,-108 530,-108 545.55,-124.16 559.48,-138.63"/>
<polygon fill="#000000" stroke="#000000" points="557.07,-141.18 566.52,-145.95 562.11,-136.32 557.07,-141.18"/>
</g>
<!-- Rat&#45;&gt;Rational -->
<g id="edge32" class="edge">
<title>Rat&#45;&gt;Rational</title>
<path fill="none" stroke="#6666ff" d="M43.39,-32.5C55.25,-42.26 71.53,-55.67 85.26,-66.98"/>
<polygon fill="#6666ff" stroke="#6666ff" points="83.05,-69.69 92.99,-73.35 87.5,-64.29 83.05,-69.69"/>
</g>
<!-- FatRat -->
<g id="node25" class="node">
<title>FatRat</title>
<g id="a_node25"><a xlink:href="/type/FatRat" xlink:title="FatRat">
<ellipse fill="none" stroke="#000000" cx="112" cy="-18" rx="39.79" ry="18"/>
<text text-anchor="middle" x="112" y="-14.3" font-family="FreeSans" font-size="14.00" fill="#000000">FatRat</text>
</a>
</g>
</g>
<!-- FatRat&#45;&gt;Cool -->
<g id="edge23" class="edge">
<title>FatRat&#45;&gt;Cool</title>
<path fill="none" stroke="#000000" d="M142.48,-29.57C152.44,-33.03 161,-36 161,-36 161,-36 530,-72 530,-72 530,-72 551.54,-109.59 566.63,-135.92"/>
<polygon fill="#000000" stroke="#000000" points="563.64,-137.74 571.65,-144.68 569.71,-134.26 563.64,-137.74"/>
</g>
<!-- FatRat&#45;&gt;Rational -->
<g id="edge33" class="edge">
<title>FatRat&#45;&gt;Rational</title>
<path fill="none" stroke="#6666ff" d="M112,-36.3C112,-44.02 112,-53.29 112,-61.89"/>
<polygon fill="#6666ff" stroke="#6666ff" points="108.5,-61.9 112,-71.9 115.5,-61.9 108.5,-61.9"/>
</g>
</g>
</svg>
