<?xml version="1.0" encoding="UTF-8" standalone="no"?>
<!DOCTYPE svg PUBLIC "-//W3C//DTD SVG 1.1//EN"
 "http://www.w3.org/Graphics/SVG/1.1/DTD/svg11.dtd">
<!-- Generated by graphviz version 2.42.3 (0)
 -->
<!-- Title: perl6&#45;type&#45;graph Pages: 1 -->
<svg width="338pt" height="404pt"
 viewBox="0.00 0.00 338.03 404.00" xmlns="http://www.w3.org/2000/svg" xmlns:xlink="http://www.w3.org/1999/xlink">
<g id="graph0" class="graph" transform="scale(1 1) rotate(0) translate(4 400)">
<title>perl6&#45;type&#45;graph</title>
<polygon fill="white" stroke="transparent" points="-4,4 -4,-400 334.03,-400 334.03,4 -4,4"/>
<!-- X::Syntax::Regex::Unterminated -->
<g id="node1" class="node">
<title>X::Syntax::Regex::Unterminated</title>
<g id="a_node1"><a xlink:href="/type/X::Syntax::Regex::Unterminated" xlink:title="X::Syntax::Regex::Unterminated">
<ellipse fill="none" stroke="#000000" cx="156.64" cy="-18" rx="156.77" ry="18"/>
<text text-anchor="middle" x="156.64" y="-14.3" font-family="FreeSans" font-size="14.00" fill="#000000">X::Syntax::Regex::Unterminated</text>
</a>
</g>
</g>
<!-- Exception -->
<g id="node4" class="node">
<title>Exception</title>
<g id="a_node4"><a xlink:href="/type/Exception" xlink:title="Exception">
<ellipse fill="none" stroke="#000000" cx="179.64" cy="-234" rx="55.49" ry="18"/>
<text text-anchor="middle" x="179.64" y="-230.3" font-family="FreeSans" font-size="14.00" fill="#000000">Exception</text>
</a>
</g>
</g>
<!-- X::Syntax::Regex::Unterminated&#45;&gt;Exception -->
<g id="edge1" class="edge">
<title>X::Syntax::Regex::Unterminated&#45;&gt;Exception</title>
<path fill="none" stroke="#000000" d="M154.6,-36.15C155.05,-73.34 164.28,-161.63 172.11,-206.23"/>
<polygon fill="#000000" stroke="#000000" points="168.67,-206.88 173.96,-216.06 175.55,-205.59 168.67,-206.88"/>
</g>
<!-- X::Syntax::Regex::Unterminated&#45;&gt;Exception -->
<g id="edge2" class="edge">
<title>X::Syntax::Regex::Unterminated&#45;&gt;Exception</title>
<path fill="none" stroke="#000000" d="M162.36,-36.15C169.87,-73.17 179.56,-160.82 181.38,-205.61"/>
<polygon fill="#000000" stroke="#000000" points="177.89,-205.87 181.67,-215.77 184.89,-205.67 177.89,-205.87"/>
</g>
<!-- X::Syntax -->
<g id="node6" class="node">
<title>X::Syntax</title>
<g id="a_node6"><a xlink:href="/type/X::Syntax" xlink:title="X::Syntax">
<ellipse fill="none" stroke="#6666ff" cx="247.64" cy="-90" rx="53.89" ry="18"/>
<text text-anchor="middle" x="247.64" y="-86.3" font-family="FreeSans" font-size="14.00" fill="#6666ff">X::Syntax</text>
</a>
</g>
</g>
<!-- X::Syntax::Regex::Unterminated&#45;&gt;X::Syntax -->
<g id="edge7" class="edge">
<title>X::Syntax::Regex::Unterminated&#45;&gt;X::Syntax</title>
<path fill="none" stroke="#6666ff" d="M178.66,-35.95C190.75,-45.24 205.87,-56.87 218.87,-66.87"/>
<polygon fill="#6666ff" stroke="#6666ff" points="217,-69.85 227.06,-73.17 221.27,-64.3 217,-69.85"/>
</g>
<!-- Mu -->
<g id="node2" class="node">
<title>Mu</title>
<g id="a_node2"><a xlink:href="/type/Mu" xlink:title="Mu">
<ellipse fill="none" stroke="#000000" cx="179.64" cy="-378" rx="27" ry="18"/>
<text text-anchor="middle" x="179.64" y="-374.3" font-family="FreeSans" font-size="14.00" fill="#000000">Mu</text>
</a>
</g>
</g>
<!-- Any -->
<g id="node3" class="node">
<title>Any</title>
<g id="a_node3"><a xlink:href="/type/Any" xlink:title="Any">
<ellipse fill="none" stroke="#000000" cx="179.64" cy="-306" rx="28.7" ry="18"/>
<text text-anchor="middle" x="179.64" y="-302.3" font-family="FreeSans" font-size="14.00" fill="#000000">Any</text>
</a>
</g>
</g>
<!-- Any&#45;&gt;Mu -->
<g id="edge3" class="edge">
<title>Any&#45;&gt;Mu</title>
<path fill="none" stroke="#000000" d="M179.64,-324.3C179.64,-332.02 179.64,-341.29 179.64,-349.89"/>
<polygon fill="#000000" stroke="#000000" points="176.14,-349.9 179.64,-359.9 183.14,-349.9 176.14,-349.9"/>
</g>
<!-- Exception&#45;&gt;Any -->
<g id="edge4" class="edge">
<title>Exception&#45;&gt;Any</title>
<path fill="none" stroke="#000000" d="M179.64,-252.3C179.64,-260.02 179.64,-269.29 179.64,-277.89"/>
<polygon fill="#000000" stroke="#000000" points="176.14,-277.9 179.64,-287.9 183.14,-277.9 176.14,-277.9"/>
</g>
<!-- X::Comp -->
<g id="node5" class="node">
<title>X::Comp</title>
<g id="a_node5"><a xlink:href="/type/X::Comp" xlink:title="X::Comp">
<ellipse fill="none" stroke="#6666ff" cx="280.64" cy="-162" rx="49.29" ry="18"/>
<text text-anchor="middle" x="280.64" y="-158.3" font-family="FreeSans" font-size="14.00" fill="#6666ff">X::Comp</text>
</a>
</g>
</g>
<!-- X::Comp&#45;&gt;Exception -->
<g id="edge5" class="edge">
<title>X::Comp&#45;&gt;Exception</title>
<path fill="none" stroke="#000000" d="M258.72,-178.19C244.62,-187.96 226.09,-200.8 210.51,-211.6"/>
<polygon fill="#000000" stroke="#000000" points="208.43,-208.78 202.21,-217.36 212.42,-214.54 208.43,-208.78"/>
</g>
<!-- X::Syntax&#45;&gt;Exception -->
<g id="edge6" class="edge">
<title>X::Syntax&#45;&gt;Exception</title>
<path fill="none" stroke="#000000" d="M239.57,-107.85C227.81,-132.4 205.87,-178.23 192.04,-207.09"/>
<polygon fill="#000000" stroke="#000000" points="188.86,-205.64 187.69,-216.18 195.17,-208.67 188.86,-205.64"/>
</g>
<!-- X::Syntax&#45;&gt;X::Comp -->
<g id="edge8" class="edge">
<title>X::Syntax&#45;&gt;X::Comp</title>
<path fill="none" stroke="#6666ff" d="M255.62,-107.95C259.43,-116.03 264.08,-125.88 268.33,-134.89"/>
<polygon fill="#6666ff" stroke="#6666ff" points="265.29,-136.66 272.72,-144.21 271.62,-133.67 265.29,-136.66"/>
</g>
</g>
</svg>
