<?xml version="1.0" encoding="UTF-8" standalone="no"?>
<!DOCTYPE svg PUBLIC "-//W3C//DTD SVG 1.1//EN"
 "http://www.w3.org/Graphics/SVG/1.1/DTD/svg11.dtd">
<!-- Generated by graphviz version 2.42.3 (0)
 -->
<!-- Title: perl6&#45;type&#45;graph Pages: 1 -->
<svg width="1849pt" height="1827pt"
 viewBox="0.00 0.00 1848.91 1826.73" xmlns="http://www.w3.org/2000/svg" xmlns:xlink="http://www.w3.org/1999/xlink">
<g id="graph0" class="graph" transform="scale(1 1) rotate(0) translate(4 1822.73)">
<title>perl6&#45;type&#45;graph</title>
<polygon fill="white" stroke="transparent" points="-4,4 -4,-1822.73 1844.91,-1822.73 1844.91,4 -4,4"/>
<!-- Metamodel::MROBasedTypeChecking -->
<g id="node1" class="node">
<title>Metamodel::MROBasedTypeChecking</title>
<g id="a_node1"><a xlink:href="/type/Metamodel::MROBasedTypeChecking" xlink:title="Metamodel::MROBasedTypeChecking">
<ellipse fill="none" stroke="#6666ff" cx="538.04" cy="-783.79" rx="178.97" ry="18"/>
<text text-anchor="middle" x="538.04" y="-780.09" font-family="FreeSans" font-size="14.00" fill="#6666ff">Metamodel::MROBasedTypeChecking</text>
</a>
</g>
</g>
<!-- Mu -->
<g id="node2" class="node">
<title>Mu</title>
<g id="a_node2"><a xlink:href="/type/Mu" xlink:title="Mu">
<ellipse fill="none" stroke="#000000" cx="1813.91" cy="-382.13" rx="27" ry="18"/>
<text text-anchor="middle" x="1813.91" y="-378.43" font-family="FreeSans" font-size="14.00" fill="#000000">Mu</text>
</a>
</g>
</g>
<!-- Any -->
<g id="node3" class="node">
<title>Any</title>
<g id="a_node3"><a xlink:href="/type/Any" xlink:title="Any">
<ellipse fill="none" stroke="#000000" cx="1263.28" cy="-609.08" rx="28.7" ry="18"/>
<text text-anchor="middle" x="1263.28" y="-605.38" font-family="FreeSans" font-size="14.00" fill="#000000">Any</text>
</a>
</g>
</g>
<!-- Any&#45;&gt;Mu -->
<g id="edge1" class="edge">
<title>Any&#45;&gt;Mu</title>
<path fill="none" stroke="#000000" d="M1287.29,-599.18C1375.33,-562.89 1680.52,-437.11 1781.32,-395.56"/>
<polygon fill="#000000" stroke="#000000" points="1782.78,-398.75 1790.69,-391.7 1780.11,-392.28 1782.78,-398.75"/>
</g>
<!-- Metamodel::Naming -->
<g id="node4" class="node">
<title>Metamodel::Naming</title>
<g id="a_node4"><a xlink:href="/type/Metamodel::Naming" xlink:title="Metamodel::Naming">
<ellipse fill="none" stroke="#6666ff" cx="849.41" cy="-1410.75" rx="101.28" ry="18"/>
<text text-anchor="middle" x="849.41" y="-1407.05" font-family="FreeSans" font-size="14.00" fill="#6666ff">Metamodel::Naming</text>
</a>
</g>
</g>
<!-- Metamodel::Stashing -->
<g id="node5" class="node">
<title>Metamodel::Stashing</title>
<g id="a_node5"><a xlink:href="/type/Metamodel::Stashing" xlink:title="Metamodel::Stashing">
<ellipse fill="none" stroke="#6666ff" cx="1212.49" cy="-1137.14" rx="105.88" ry="18"/>
<text text-anchor="middle" x="1212.49" y="-1133.44" font-family="FreeSans" font-size="14.00" fill="#6666ff">Metamodel::Stashing</text>
</a>
</g>
</g>
<!-- Metamodel::AttributeContainer -->
<g id="node6" class="node">
<title>Metamodel::AttributeContainer</title>
<g id="a_node6"><a xlink:href="/type/Metamodel::AttributeContainer" xlink:title="Metamodel::AttributeContainer">
<ellipse fill="none" stroke="#6666ff" cx="293.11" cy="-949.24" rx="150.27" ry="18"/>
<text text-anchor="middle" x="293.11" y="-945.54" font-family="FreeSans" font-size="14.00" fill="#6666ff">Metamodel::AttributeContainer</text>
</a>
</g>
</g>
<!-- Metamodel::MethodContainer -->
<g id="node7" class="node">
<title>Metamodel::MethodContainer</title>
<g id="a_node7"><a xlink:href="/type/Metamodel::MethodContainer" xlink:title="Metamodel::MethodContainer">
<ellipse fill="none" stroke="#6666ff" cx="399.56" cy="-558.27" rx="143.77" ry="18"/>
<text text-anchor="middle" x="399.56" y="-554.57" font-family="FreeSans" font-size="14.00" fill="#6666ff">Metamodel::MethodContainer</text>
</a>
</g>
</g>
<!-- Metamodel::MultiMethodContainer -->
<g id="node8" class="node">
<title>Metamodel::MultiMethodContainer</title>
<g id="a_node8"><a xlink:href="/type/Metamodel::MultiMethodContainer" xlink:title="Metamodel::MultiMethodContainer">
<ellipse fill="none" stroke="#6666ff" cx="1414.49" cy="-895.76" rx="165.97" ry="18"/>
<text text-anchor="middle" x="1414.49" y="-892.06" font-family="FreeSans" font-size="14.00" fill="#6666ff">Metamodel::MultiMethodContainer</text>
</a>
</g>
</g>
<!-- Metamodel::RoleContainer -->
<g id="node9" class="node">
<title>Metamodel::RoleContainer</title>
<g id="a_node9"><a xlink:href="/type/Metamodel::RoleContainer" xlink:title="Metamodel::RoleContainer">
<ellipse fill="none" stroke="#6666ff" cx="597.31" cy="-449.02" rx="129.98" ry="18"/>
<text text-anchor="middle" x="597.31" y="-445.32" font-family="FreeSans" font-size="14.00" fill="#6666ff">Metamodel::RoleContainer</text>
</a>
</g>
</g>
<!-- Metamodel::BaseType -->
<g id="node10" class="node">
<title>Metamodel::BaseType</title>
<g id="a_node10"><a xlink:href="/type/Metamodel::BaseType" xlink:title="Metamodel::BaseType">
<ellipse fill="none" stroke="#6666ff" cx="1079.24" cy="-18" rx="109.38" ry="18"/>
<text text-anchor="middle" x="1079.24" y="-14.3" font-family="FreeSans" font-size="14.00" fill="#6666ff">Metamodel::BaseType</text>
</a>
</g>
</g>
<!-- Metamodel::MROBasedMethodDispatch -->
<g id="node11" class="node">
<title>Metamodel::MROBasedMethodDispatch</title>
<g id="a_node11"><a xlink:href="/type/Metamodel::MROBasedMethodDispatch" xlink:title="Metamodel::MROBasedMethodDispatch">
<ellipse fill="none" stroke="#6666ff" cx="824.19" cy="-498.98" rx="188.47" ry="18"/>
<text text-anchor="middle" x="824.19" y="-495.28" font-family="FreeSans" font-size="14.00" fill="#6666ff">Metamodel::MROBasedMethodDispatch</text>
</a>
</g>
</g>
<!-- Metamodel::BUILDPLAN -->
<g id="node12" class="node">
<title>Metamodel::BUILDPLAN</title>
<g id="a_node12"><a xlink:href="/type/Metamodel::BUILDPLAN" xlink:title="Metamodel::BUILDPLAN">
<ellipse fill="none" stroke="#6666ff" cx="232.99" cy="-749.47" rx="118.08" ry="18"/>
<text text-anchor="middle" x="232.99" y="-745.77" font-family="FreeSans" font-size="14.00" fill="#6666ff">Metamodel::BUILDPLAN</text>
</a>
</g>
</g>
<!-- Metamodel::BoolificationProtocol -->
<g id="node13" class="node">
<title>Metamodel::BoolificationProtocol</title>
<g id="a_node13"><a xlink:href="/type/Metamodel::BoolificationProtocol" xlink:title="Metamodel::BoolificationProtocol">
<ellipse fill="none" stroke="#6666ff" cx="1483.77" cy="-1174.14" rx="157.07" ry="18"/>
<text text-anchor="middle" x="1483.77" y="-1170.44" font-family="FreeSans" font-size="14.00" fill="#6666ff">Metamodel::BoolificationProtocol</text>
</a>
</g>
</g>
<!-- Metamodel::Mixins -->
<g id="node14" class="node">
<title>Metamodel::Mixins</title>
<g id="a_node14"><a xlink:href="/type/Metamodel::Mixins" xlink:title="Metamodel::Mixins">
<ellipse fill="none" stroke="#6666ff" cx="1197.75" cy="-1347.15" rx="94.78" ry="18"/>
<text text-anchor="middle" x="1197.75" y="-1343.45" font-family="FreeSans" font-size="14.00" fill="#6666ff">Metamodel::Mixins</text>
</a>
</g>
</g>
<!-- Metamodel::EnumHOW -->
<g id="node15" class="node">
<title>Metamodel::EnumHOW</title>
<g id="a_node15"><a xlink:href="/type/Metamodel::EnumHOW" xlink:title="Metamodel::EnumHOW">
<ellipse fill="none" stroke="#000000" cx="933.39" cy="-726.38" rx="115.88" ry="18"/>
<text text-anchor="middle" x="933.39" y="-722.68" font-family="FreeSans" font-size="14.00" fill="#000000">Metamodel::EnumHOW</text>
</a>
</g>
</g>
<!-- Metamodel::EnumHOW&#45;&gt;Metamodel::MROBasedTypeChecking -->
<g id="edge13" class="edge">
<title>Metamodel::EnumHOW&#45;&gt;Metamodel::MROBasedTypeChecking</title>
<path fill="none" stroke="#6666ff" d="M848.58,-738.69C790.64,-747.1 713.26,-758.34 650.23,-767.49"/>
<polygon fill="#6666ff" stroke="#6666ff" points="649.64,-764.04 640.25,-768.94 650.65,-770.97 649.64,-764.04"/>
</g>
<!-- Metamodel::EnumHOW&#45;&gt;Any -->
<g id="edge2" class="edge">
<title>Metamodel::EnumHOW&#45;&gt;Any</title>
<path fill="none" stroke="#000000" d="M979.95,-709.82C1046.94,-686 1168.99,-642.6 1228.62,-621.4"/>
<polygon fill="#000000" stroke="#000000" points="1230.07,-624.6 1238.32,-617.95 1227.73,-618 1230.07,-624.6"/>
</g>
<!-- Metamodel::EnumHOW&#45;&gt;Metamodel::Naming -->
<g id="edge5" class="edge">
<title>Metamodel::EnumHOW&#45;&gt;Metamodel::Naming</title>
<path fill="none" stroke="#6666ff" d="M937.66,-744.56C953.61,-812.5 1008.8,-1047.54 1008.8,-1047.54 1008.8,-1047.54 898.39,-1299.14 861.36,-1383.53"/>
<polygon fill="#6666ff" stroke="#6666ff" points="858.13,-1382.18 857.32,-1392.74 864.54,-1384.99 858.13,-1382.18"/>
</g>
<!-- Metamodel::EnumHOW&#45;&gt;Metamodel::Stashing -->
<g id="edge6" class="edge">
<title>Metamodel::EnumHOW&#45;&gt;Metamodel::Stashing</title>
<path fill="none" stroke="#6666ff" d="M945.56,-744.29C989.72,-809.28 1141.66,-1032.9 1194.34,-1110.42"/>
<polygon fill="#6666ff" stroke="#6666ff" points="1191.74,-1112.83 1200.26,-1119.13 1197.53,-1108.9 1191.74,-1112.83"/>
</g>
<!-- Metamodel::EnumHOW&#45;&gt;Metamodel::AttributeContainer -->
<g id="edge7" class="edge">
<title>Metamodel::EnumHOW&#45;&gt;Metamodel::AttributeContainer</title>
<path fill="none" stroke="#6666ff" d="M886.05,-742.85C771.15,-782.85 477.74,-884.98 351.89,-928.78"/>
<polygon fill="#6666ff" stroke="#6666ff" points="350.69,-925.49 342.4,-932.09 352.99,-932.1 350.69,-925.49"/>
</g>
<!-- Metamodel::EnumHOW&#45;&gt;Metamodel::MethodContainer -->
<g id="edge8" class="edge">
<title>Metamodel::EnumHOW&#45;&gt;Metamodel::MethodContainer</title>
<path fill="none" stroke="#6666ff" d="M881.72,-710.1C783.27,-679.1 569.13,-611.67 462.51,-578.09"/>
<polygon fill="#6666ff" stroke="#6666ff" points="463.43,-574.71 452.84,-575.05 461.33,-581.39 463.43,-574.71"/>
</g>
<!-- Metamodel::EnumHOW&#45;&gt;Metamodel::MultiMethodContainer -->
<g id="edge9" class="edge">
<title>Metamodel::EnumHOW&#45;&gt;Metamodel::MultiMethodContainer</title>
<path fill="none" stroke="#6666ff" d="M964.47,-743.75C1007.49,-767.8 1079.95,-808.31 1079.95,-808.31 1079.95,-808.31 1113.69,-822.19 1113.69,-822.19 1113.69,-822.19 1248.04,-855.05 1337.16,-876.85"/>
<polygon fill="#6666ff" stroke="#6666ff" points="1336.44,-880.27 1346.98,-879.25 1338.1,-873.47 1336.44,-880.27"/>
</g>
<!-- Metamodel::EnumHOW&#45;&gt;Metamodel::RoleContainer -->
<g id="edge10" class="edge">
<title>Metamodel::EnumHOW&#45;&gt;Metamodel::RoleContainer</title>
<path fill="none" stroke="#6666ff" d="M909.9,-708.52C839.35,-654.89 634.11,-498.88 634.11,-498.88 634.11,-498.88 625.54,-487.27 616.68,-475.26"/>
<polygon fill="#6666ff" stroke="#6666ff" points="619.35,-472.98 610.59,-467.02 613.72,-477.14 619.35,-472.98"/>
</g>
<!-- Metamodel::EnumHOW&#45;&gt;Metamodel::BaseType -->
<g id="edge11" class="edge">
<title>Metamodel::EnumHOW&#45;&gt;Metamodel::BaseType</title>
<path fill="none" stroke="#6666ff" d="M939.87,-708.16C959.06,-654.22 1014.27,-499.09 1014.27,-499.09 1014.27,-499.09 1061.51,-149.34 1075.43,-46.26"/>
<polygon fill="#6666ff" stroke="#6666ff" points="1078.91,-46.65 1076.78,-36.27 1071.97,-45.71 1078.91,-46.65"/>
</g>
<!-- Metamodel::EnumHOW&#45;&gt;Metamodel::MROBasedMethodDispatch -->
<g id="edge12" class="edge">
<title>Metamodel::EnumHOW&#45;&gt;Metamodel::MROBasedMethodDispatch</title>
<path fill="none" stroke="#6666ff" d="M924.64,-708.15C905.5,-668.3 859.85,-573.24 837.28,-526.24"/>
<polygon fill="#6666ff" stroke="#6666ff" points="840.32,-524.48 832.83,-516.98 834.01,-527.51 840.32,-524.48"/>
</g>
<!-- Metamodel::EnumHOW&#45;&gt;Metamodel::BUILDPLAN -->
<g id="edge14" class="edge">
<title>Metamodel::EnumHOW&#45;&gt;Metamodel::BUILDPLAN</title>
<path fill="none" stroke="#6666ff" d="M820.08,-730.11C693.76,-734.28 490.05,-740.99 358.86,-745.32"/>
<polygon fill="#6666ff" stroke="#6666ff" points="358.64,-741.82 348.76,-745.65 358.87,-748.82 358.64,-741.82"/>
</g>
<!-- Metamodel::EnumHOW&#45;&gt;Metamodel::BoolificationProtocol -->
<g id="edge15" class="edge">
<title>Metamodel::EnumHOW&#45;&gt;Metamodel::BoolificationProtocol</title>
<path fill="none" stroke="#6666ff" d="M955.3,-744.2C1041.26,-814.13 1355.46,-1069.76 1454.01,-1149.92"/>
<polygon fill="#6666ff" stroke="#6666ff" points="1451.83,-1152.66 1461.8,-1156.26 1456.25,-1147.23 1451.83,-1152.66"/>
</g>
<!-- Metamodel::EnumHOW&#45;&gt;Metamodel::Mixins -->
<g id="edge16" class="edge">
<title>Metamodel::EnumHOW&#45;&gt;Metamodel::Mixins</title>
<path fill="none" stroke="#6666ff" d="M940.98,-744.55C974.18,-824.03 1104.95,-1137.07 1104.95,-1137.07 1104.95,-1137.07 1160.49,-1262.79 1185.63,-1319.72"/>
<polygon fill="#6666ff" stroke="#6666ff" points="1182.43,-1321.14 1189.67,-1328.87 1188.83,-1318.31 1182.43,-1321.14"/>
</g>
<!-- Metamodel::Documenting -->
<g id="node16" class="node">
<title>Metamodel::Documenting</title>
<g id="a_node16"><a xlink:href="/type/Metamodel::Documenting" xlink:title="Metamodel::Documenting">
<ellipse fill="none" stroke="#6666ff" cx="1195.5" cy="-1606.07" rx="126.98" ry="18"/>
<text text-anchor="middle" x="1195.5" y="-1602.37" font-family="FreeSans" font-size="14.00" fill="#6666ff">Metamodel::Documenting</text>
</a>
</g>
</g>
<!-- Metamodel::Versioning -->
<g id="node17" class="node">
<title>Metamodel::Versioning</title>
<g id="a_node17"><a xlink:href="/type/Metamodel::Versioning" xlink:title="Metamodel::Versioning">
<ellipse fill="none" stroke="#6666ff" cx="1195.94" cy="-808.37" rx="114.28" ry="18"/>
<text text-anchor="middle" x="1195.94" y="-804.67" font-family="FreeSans" font-size="14.00" fill="#6666ff">Metamodel::Versioning</text>
</a>
</g>
</g>
<!-- Metamodel::Finalization -->
<g id="node18" class="node">
<title>Metamodel::Finalization</title>
<g id="a_node18"><a xlink:href="/type/Metamodel::Finalization" xlink:title="Metamodel::Finalization">
<ellipse fill="none" stroke="#6666ff" cx="700.8" cy="-1800.73" rx="116.98" ry="18"/>
<text text-anchor="middle" x="700.8" y="-1797.03" font-family="FreeSans" font-size="14.00" fill="#6666ff">Metamodel::Finalization</text>
</a>
</g>
</g>
<!-- Metamodel::PrivateMethodContainer -->
<g id="node19" class="node">
<title>Metamodel::PrivateMethodContainer</title>
<g id="a_node19"><a xlink:href="/type/Metamodel::PrivateMethodContainer" xlink:title="Metamodel::PrivateMethodContainer">
<ellipse fill="none" stroke="#6666ff" cx="405.79" cy="-1712.78" rx="174.67" ry="18"/>
<text text-anchor="middle" x="405.79" y="-1709.08" font-family="FreeSans" font-size="14.00" fill="#6666ff">Metamodel::PrivateMethodContainer</text>
</a>
</g>
</g>
<!-- Metamodel::MultipleInheritance -->
<g id="node20" class="node">
<title>Metamodel::MultipleInheritance</title>
<g id="a_node20"><a xlink:href="/type/Metamodel::MultipleInheritance" xlink:title="Metamodel::MultipleInheritance">
<ellipse fill="none" stroke="#6666ff" cx="464.71" cy="-1478.04" rx="153.27" ry="18"/>
<text text-anchor="middle" x="464.71" y="-1474.34" font-family="FreeSans" font-size="14.00" fill="#6666ff">Metamodel::MultipleInheritance</text>
</a>
</g>
</g>
<!-- Metamodel::DefaultParent -->
<g id="node21" class="node">
<title>Metamodel::DefaultParent</title>
<g id="a_node21"><a xlink:href="/type/Metamodel::DefaultParent" xlink:title="Metamodel::DefaultParent">
<ellipse fill="none" stroke="#6666ff" cx="128.04" cy="-1422.39" rx="128.08" ry="18"/>
<text text-anchor="middle" x="128.04" y="-1418.69" font-family="FreeSans" font-size="14.00" fill="#6666ff">Metamodel::DefaultParent</text>
</a>
</g>
</g>
<!-- Metamodel::C3MRO -->
<g id="node22" class="node">
<title>Metamodel::C3MRO</title>
<g id="a_node22"><a xlink:href="/type/Metamodel::C3MRO" xlink:title="Metamodel::C3MRO">
<ellipse fill="none" stroke="#6666ff" cx="245.82" cy="-1214.95" rx="100.18" ry="18"/>
<text text-anchor="middle" x="245.82" y="-1211.25" font-family="FreeSans" font-size="14.00" fill="#6666ff">Metamodel::C3MRO</text>
</a>
</g>
</g>
<!-- Metamodel::Trusting -->
<g id="node23" class="node">
<title>Metamodel::Trusting</title>
<g id="a_node23"><a xlink:href="/type/Metamodel::Trusting" xlink:title="Metamodel::Trusting">
<ellipse fill="none" stroke="#6666ff" cx="988.5" cy="-1799.2" rx="102.88" ry="18"/>
<text text-anchor="middle" x="988.5" y="-1795.5" font-family="FreeSans" font-size="14.00" fill="#6666ff">Metamodel::Trusting</text>
</a>
</g>
</g>
<!-- Metamodel::ClassHOW -->
<g id="node24" class="node">
<title>Metamodel::ClassHOW</title>
<g id="a_node24"><a xlink:href="/type/Metamodel::ClassHOW" xlink:title="Metamodel::ClassHOW">
<ellipse fill="none" stroke="#000000" cx="760.02" cy="-1127.4" rx="113.18" ry="18"/>
<text text-anchor="middle" x="760.02" y="-1123.7" font-family="FreeSans" font-size="14.00" fill="#000000">Metamodel::ClassHOW</text>
</a>
</g>
</g>
<!-- Metamodel::ClassHOW&#45;&gt;Metamodel::MROBasedTypeChecking -->
<g id="edge31" class="edge">
<title>Metamodel::ClassHOW&#45;&gt;Metamodel::MROBasedTypeChecking</title>
<path fill="none" stroke="#6666ff" d="M748.4,-1109.41C711.85,-1052.83 599.08,-878.28 555.49,-810.8"/>
<polygon fill="#6666ff" stroke="#6666ff" points="558.18,-808.51 549.81,-802.01 552.3,-812.31 558.18,-808.51"/>
</g>
<!-- Metamodel::ClassHOW&#45;&gt;Any -->
<g id="edge3" class="edge">
<title>Metamodel::ClassHOW&#45;&gt;Any</title>
<path fill="none" stroke="#000000" d="M762.07,-1109.22C764.72,-1085.58 769.03,-1047.28 769.03,-1047.28 769.03,-1047.28 1139.11,-719.16 1238.8,-630.78"/>
<polygon fill="#000000" stroke="#000000" points="1241.39,-633.16 1246.55,-623.91 1236.75,-627.92 1241.39,-633.16"/>
</g>
<!-- Metamodel::ClassHOW&#45;&gt;Metamodel::Naming -->
<g id="edge17" class="edge">
<title>Metamodel::ClassHOW&#45;&gt;Metamodel::Naming</title>
<path fill="none" stroke="#6666ff" d="M765.75,-1145.56C780.95,-1193.74 822.39,-1325.08 840.61,-1382.86"/>
<polygon fill="#6666ff" stroke="#6666ff" points="837.39,-1384.27 843.73,-1392.75 844.06,-1382.16 837.39,-1384.27"/>
</g>
<!-- Metamodel::ClassHOW&#45;&gt;Metamodel::Stashing -->
<g id="edge20" class="edge">
<title>Metamodel::ClassHOW&#45;&gt;Metamodel::Stashing</title>
<path fill="none" stroke="#6666ff" d="M872.16,-1129.81C940.63,-1131.29 1027.99,-1133.17 1097.06,-1134.66"/>
<polygon fill="#6666ff" stroke="#6666ff" points="1097.04,-1138.16 1107.11,-1134.87 1097.19,-1131.16 1097.04,-1138.16"/>
</g>
<!-- Metamodel::ClassHOW&#45;&gt;Metamodel::AttributeContainer -->
<g id="edge21" class="edge">
<title>Metamodel::ClassHOW&#45;&gt;Metamodel::AttributeContainer</title>
<path fill="none" stroke="#6666ff" d="M716.1,-1110.64C630.48,-1077.97 441.48,-1005.85 347.86,-970.13"/>
<polygon fill="#6666ff" stroke="#6666ff" points="348.88,-966.78 338.29,-966.48 346.39,-973.32 348.88,-966.78"/>
</g>
<!-- Metamodel::ClassHOW&#45;&gt;Metamodel::MethodContainer -->
<g id="edge23" class="edge">
<title>Metamodel::ClassHOW&#45;&gt;Metamodel::MethodContainer</title>
<path fill="none" stroke="#6666ff" d="M757.78,-1108.93C749.13,-1037.59 718.37,-783.92 718.37,-783.92 718.37,-783.92 515.32,-640.2 433.31,-582.16"/>
<polygon fill="#6666ff" stroke="#6666ff" points="435.03,-579.08 424.85,-576.16 430.99,-584.8 435.03,-579.08"/>
</g>
<!-- Metamodel::ClassHOW&#45;&gt;Metamodel::MultiMethodContainer -->
<g id="edge25" class="edge">
<title>Metamodel::ClassHOW&#45;&gt;Metamodel::MultiMethodContainer</title>
<path fill="none" stroke="#6666ff" d="M811.88,-1111.33C874.96,-1091.78 973.13,-1061.36 973.13,-1061.36 973.13,-1061.36 1239.58,-961.39 1358.43,-916.8"/>
<polygon fill="#6666ff" stroke="#6666ff" points="1359.96,-919.96 1368.09,-913.17 1357.5,-913.41 1359.96,-919.96"/>
</g>
<!-- Metamodel::ClassHOW&#45;&gt;Metamodel::RoleContainer -->
<g id="edge26" class="edge">
<title>Metamodel::ClassHOW&#45;&gt;Metamodel::RoleContainer</title>
<path fill="none" stroke="#6666ff" d="M757.78,-1108.93C749.13,-1037.59 718.37,-783.92 718.37,-783.92 718.37,-783.92 636.15,-556.46 607.22,-476.45"/>
<polygon fill="#6666ff" stroke="#6666ff" points="610.51,-475.24 603.82,-467.02 603.92,-477.62 610.51,-475.24"/>
</g>
<!-- Metamodel::ClassHOW&#45;&gt;Metamodel::MROBasedMethodDispatch -->
<g id="edge30" class="edge">
<title>Metamodel::ClassHOW&#45;&gt;Metamodel::MROBasedMethodDispatch</title>
<path fill="none" stroke="#6666ff" d="M761.87,-1109.27C770.89,-1020.94 810.25,-635.54 821.3,-527.33"/>
<polygon fill="#6666ff" stroke="#6666ff" points="824.8,-527.49 822.33,-517.18 817.83,-526.78 824.8,-527.49"/>
</g>
<!-- Metamodel::ClassHOW&#45;&gt;Metamodel::BUILDPLAN -->
<g id="edge33" class="edge">
<title>Metamodel::ClassHOW&#45;&gt;Metamodel::BUILDPLAN</title>
<path fill="none" stroke="#6666ff" d="M735.31,-1109.68C649.38,-1048.06 363.52,-843.07 265.95,-773.11"/>
<polygon fill="#6666ff" stroke="#6666ff" points="267.81,-770.13 257.65,-767.15 263.73,-775.82 267.81,-770.13"/>
</g>
<!-- Metamodel::ClassHOW&#45;&gt;Metamodel::BoolificationProtocol -->
<g id="edge35" class="edge">
<title>Metamodel::ClassHOW&#45;&gt;Metamodel::BoolificationProtocol</title>
<path fill="none" stroke="#6666ff" d="M864.87,-1134.21C998.42,-1142.87 1212.09,-1156.74 1212.09,-1156.74 1212.09,-1156.74 1272.33,-1160.6 1336.08,-1164.68"/>
<polygon fill="#6666ff" stroke="#6666ff" points="1336.13,-1168.19 1346.34,-1165.34 1336.58,-1161.21 1336.13,-1168.19"/>
</g>
<!-- Metamodel::ClassHOW&#45;&gt;Metamodel::Mixins -->
<g id="edge34" class="edge">
<title>Metamodel::ClassHOW&#45;&gt;Metamodel::Mixins</title>
<path fill="none" stroke="#6666ff" d="M794.37,-1144.64C873.51,-1184.37 1068.54,-1282.28 1155.14,-1325.75"/>
<polygon fill="#6666ff" stroke="#6666ff" points="1153.65,-1328.93 1164.16,-1330.28 1156.79,-1322.67 1153.65,-1328.93"/>
</g>
<!-- Metamodel::ClassHOW&#45;&gt;Metamodel::Documenting -->
<g id="edge18" class="edge">
<title>Metamodel::ClassHOW&#45;&gt;Metamodel::Documenting</title>
<path fill="none" stroke="#6666ff" d="M776.3,-1145.29C842.86,-1218.45 1094.46,-1495.01 1172.37,-1580.64"/>
<polygon fill="#6666ff" stroke="#6666ff" points="1169.82,-1583.05 1179.14,-1588.09 1175,-1578.34 1169.82,-1583.05"/>
</g>
<!-- Metamodel::ClassHOW&#45;&gt;Metamodel::Versioning -->
<g id="edge19" class="edge">
<title>Metamodel::ClassHOW&#45;&gt;Metamodel::Versioning</title>
<path fill="none" stroke="#6666ff" d="M811.88,-1111.33C874.96,-1091.78 973.13,-1061.36 973.13,-1061.36 973.13,-1061.36 1008.8,-1047.54 1008.8,-1047.54 1008.8,-1047.54 1126.98,-896.51 1175.51,-834.48"/>
<polygon fill="#6666ff" stroke="#6666ff" points="1178.47,-836.38 1181.88,-826.34 1172.96,-832.06 1178.47,-836.38"/>
</g>
<!-- Metamodel::ClassHOW&#45;&gt;Metamodel::Finalization -->
<g id="edge22" class="edge">
<title>Metamodel::ClassHOW&#45;&gt;Metamodel::Finalization</title>
<path fill="none" stroke="#6666ff" d="M758.44,-1145.41C750.3,-1237.9 713.22,-1659.51 703.27,-1772.7"/>
<polygon fill="#6666ff" stroke="#6666ff" points="699.78,-1772.4 702.39,-1782.67 706.75,-1773.01 699.78,-1772.4"/>
</g>
<!-- Metamodel::ClassHOW&#45;&gt;Metamodel::PrivateMethodContainer -->
<g id="edge24" class="edge">
<title>Metamodel::ClassHOW&#45;&gt;Metamodel::PrivateMethodContainer</title>
<path fill="none" stroke="#6666ff" d="M752.68,-1145.76C723.8,-1217.94 619.7,-1478.17 619.7,-1478.17 619.7,-1478.17 484.7,-1626.23 429.19,-1687.11"/>
<polygon fill="#6666ff" stroke="#6666ff" points="426.37,-1685.01 422.22,-1694.76 431.54,-1689.73 426.37,-1685.01"/>
</g>
<!-- Metamodel::ClassHOW&#45;&gt;Metamodel::MultipleInheritance -->
<g id="edge27" class="edge">
<title>Metamodel::ClassHOW&#45;&gt;Metamodel::MultipleInheritance</title>
<path fill="none" stroke="#6666ff" d="M744.97,-1145.27C696.41,-1202.94 543.69,-1384.26 486.57,-1452.09"/>
<polygon fill="#6666ff" stroke="#6666ff" points="483.85,-1449.88 480.09,-1459.79 489.21,-1454.39 483.85,-1449.88"/>
</g>
<!-- Metamodel::ClassHOW&#45;&gt;Metamodel::DefaultParent -->
<g id="edge28" class="edge">
<title>Metamodel::ClassHOW&#45;&gt;Metamodel::DefaultParent</title>
<path fill="none" stroke="#6666ff" d="M723.31,-1144.53C614.69,-1195.24 294.95,-1344.48 174.58,-1400.67"/>
<polygon fill="#6666ff" stroke="#6666ff" points="172.83,-1397.62 165.25,-1405.02 175.79,-1403.97 172.83,-1397.62"/>
</g>
<!-- Metamodel::ClassHOW&#45;&gt;Metamodel::C3MRO -->
<g id="edge29" class="edge">
<title>Metamodel::ClassHOW&#45;&gt;Metamodel::C3MRO</title>
<path fill="none" stroke="#6666ff" d="M682.76,-1140.55C587.58,-1156.76 426.52,-1184.18 328.79,-1200.82"/>
<polygon fill="#6666ff" stroke="#6666ff" points="327.93,-1197.42 318.66,-1202.55 329.11,-1204.32 327.93,-1197.42"/>
</g>
<!-- Metamodel::ClassHOW&#45;&gt;Metamodel::Trusting -->
<g id="edge32" class="edge">
<title>Metamodel::ClassHOW&#45;&gt;Metamodel::Trusting</title>
<path fill="none" stroke="#6666ff" d="M772.35,-1145.56C814.81,-1208.13 952.4,-1410.89 952.4,-1410.89 952.4,-1410.89 977.58,-1681.75 985.88,-1771.04"/>
<polygon fill="#6666ff" stroke="#6666ff" points="982.4,-1771.36 986.81,-1780.99 989.37,-1770.71 982.4,-1771.36"/>
</g>
<!-- Metamodel::NativeHOW -->
<g id="node25" class="node">
<title>Metamodel::NativeHOW</title>
<g id="a_node25"><a xlink:href="/type/Metamodel::NativeHOW" xlink:title="Metamodel::NativeHOW">
<ellipse fill="none" stroke="#000000" cx="888.92" cy="-1047.41" rx="118.08" ry="18"/>
<text text-anchor="middle" x="888.92" y="-1043.71" font-family="FreeSans" font-size="14.00" fill="#000000">Metamodel::NativeHOW</text>
</a>
</g>
</g>
<!-- Metamodel::NativeHOW&#45;&gt;Metamodel::MROBasedTypeChecking -->
<g id="edge43" class="edge">
<title>Metamodel::NativeHOW&#45;&gt;Metamodel::MROBasedTypeChecking</title>
<path fill="none" stroke="#6666ff" d="M865.35,-1029.71C804.07,-983.67 639.69,-860.16 569.98,-807.79"/>
<polygon fill="#6666ff" stroke="#6666ff" points="572.06,-804.97 561.97,-801.76 567.86,-810.57 572.06,-804.97"/>
</g>
<!-- Metamodel::NativeHOW&#45;&gt;Any -->
<g id="edge4" class="edge">
<title>Metamodel::NativeHOW&#45;&gt;Any</title>
<path fill="none" stroke="#000000" d="M903.27,-1029.44C947.7,-973.84 1079.95,-808.31 1079.95,-808.31 1079.95,-808.31 1193.7,-684.7 1242,-632.21"/>
<polygon fill="#000000" stroke="#000000" points="1244.7,-634.44 1248.89,-624.71 1239.55,-629.7 1244.7,-634.44"/>
</g>
<!-- Metamodel::NativeHOW&#45;&gt;Metamodel::Naming -->
<g id="edge36" class="edge">
<title>Metamodel::NativeHOW&#45;&gt;Metamodel::Naming</title>
<path fill="none" stroke="#6666ff" d="M886.96,-1065.43C880.56,-1124.27 860.25,-1311.09 852.48,-1382.56"/>
<polygon fill="#6666ff" stroke="#6666ff" points="848.98,-1382.31 851.38,-1392.63 855.94,-1383.06 848.98,-1382.31"/>
</g>
<!-- Metamodel::NativeHOW&#45;&gt;Metamodel::Stashing -->
<g id="edge39" class="edge">
<title>Metamodel::NativeHOW&#45;&gt;Metamodel::Stashing</title>
<path fill="none" stroke="#6666ff" d="M946.02,-1063.25C1002.27,-1078.85 1088.12,-1102.65 1147.09,-1119.01"/>
<polygon fill="#6666ff" stroke="#6666ff" points="1146.47,-1122.47 1157.04,-1121.77 1148.34,-1115.72 1146.47,-1122.47"/>
</g>
<!-- Metamodel::NativeHOW&#45;&gt;Metamodel::MROBasedMethodDispatch -->
<g id="edge42" class="edge">
<title>Metamodel::NativeHOW&#45;&gt;Metamodel::MROBasedMethodDispatch</title>
<path fill="none" stroke="#6666ff" d="M884.79,-1029.23C869.39,-961.31 816.1,-726.34 816.1,-726.34 816.1,-726.34 821.01,-588.23 823.18,-527.3"/>
<polygon fill="#6666ff" stroke="#6666ff" points="826.68,-527.32 823.54,-517.2 819.69,-527.07 826.68,-527.32"/>
</g>
<!-- Metamodel::NativeHOW&#45;&gt;Metamodel::Documenting -->
<g id="edge37" class="edge">
<title>Metamodel::NativeHOW&#45;&gt;Metamodel::Documenting</title>
<path fill="none" stroke="#6666ff" d="M898.77,-1065.37C943.4,-1146.7 1126.79,-1480.87 1180.6,-1578.91"/>
<polygon fill="#6666ff" stroke="#6666ff" points="1177.65,-1580.82 1185.53,-1587.91 1183.79,-1577.46 1177.65,-1580.82"/>
</g>
<!-- Metamodel::NativeHOW&#45;&gt;Metamodel::Versioning -->
<g id="edge38" class="edge">
<title>Metamodel::NativeHOW&#45;&gt;Metamodel::Versioning</title>
<path fill="none" stroke="#6666ff" d="M911.74,-1029.64C966.03,-987.37 1102.91,-880.8 1164.75,-832.65"/>
<polygon fill="#6666ff" stroke="#6666ff" points="1167.22,-835.16 1172.97,-826.26 1162.92,-829.64 1167.22,-835.16"/>
</g>
<!-- Metamodel::NativeHOW&#45;&gt;Metamodel::MultipleInheritance -->
<g id="edge40" class="edge">
<title>Metamodel::NativeHOW&#45;&gt;Metamodel::MultipleInheritance</title>
<path fill="none" stroke="#6666ff" d="M885.69,-1065.59C881.5,-1089.22 874.71,-1127.51 874.71,-1127.51 874.71,-1127.51 586.22,-1374.16 493.23,-1453.66"/>
<polygon fill="#6666ff" stroke="#6666ff" points="490.94,-1451.02 485.61,-1460.18 495.48,-1456.34 490.94,-1451.02"/>
</g>
<!-- Metamodel::NativeHOW&#45;&gt;Metamodel::C3MRO -->
<g id="edge41" class="edge">
<title>Metamodel::NativeHOW&#45;&gt;Metamodel::C3MRO</title>
<path fill="none" stroke="#6666ff" d="M828.99,-1063.02C708.77,-1094.34 438.91,-1164.65 312.96,-1197.46"/>
<polygon fill="#6666ff" stroke="#6666ff" points="311.84,-1194.13 303.05,-1200.04 313.61,-1200.91 311.84,-1194.13"/>
</g>
</g>
</svg>
