<?xml version="1.0" encoding="UTF-8" standalone="no"?>
<!DOCTYPE svg PUBLIC "-//W3C//DTD SVG 1.1//EN"
 "http://www.w3.org/Graphics/SVG/1.1/DTD/svg11.dtd">
<!-- Generated by graphviz version 2.42.3 (0)
 -->
<!-- Title: perl6&#45;type&#45;graph Pages: 1 -->
<svg width="1055pt" height="1163pt"
 viewBox="0.00 0.00 1055.13 1163.08" xmlns="http://www.w3.org/2000/svg" xmlns:xlink="http://www.w3.org/1999/xlink">
<g id="graph0" class="graph" transform="scale(1 1) rotate(0) translate(4 1159.08)">
<title>perl6&#45;type&#45;graph</title>
<polygon fill="white" stroke="transparent" points="-4,4 -4,-1159.08 1051.13,-1159.08 1051.13,4 -4,4"/>
<!-- Metamodel::NativeHOW -->
<g id="node1" class="node">
<title>Metamodel::NativeHOW</title>
<g id="a_node1"><a xlink:href="/type/Metamodel::NativeHOW" xlink:title="Metamodel::NativeHOW">
<ellipse fill="none" stroke="#000000" cx="479.88" cy="-759.81" rx="118.08" ry="18"/>
<text text-anchor="middle" x="479.88" y="-756.11" font-family="FreeSans" font-size="14.00" fill="#000000">Metamodel::NativeHOW</text>
</a>
</g>
</g>
<!-- Any -->
<g id="node3" class="node">
<title>Any</title>
<g id="a_node3"><a xlink:href="/type/Any" xlink:title="Any">
<ellipse fill="none" stroke="#000000" cx="552.12" cy="-361.61" rx="28.7" ry="18"/>
<text text-anchor="middle" x="552.12" y="-357.91" font-family="FreeSans" font-size="14.00" fill="#000000">Any</text>
</a>
</g>
</g>
<!-- Metamodel::NativeHOW&#45;&gt;Any -->
<g id="edge1" class="edge">
<title>Metamodel::NativeHOW&#45;&gt;Any</title>
<path fill="none" stroke="#000000" d="M483.17,-741.67C494.67,-678.31 533.07,-466.61 547.01,-389.78"/>
<polygon fill="#000000" stroke="#000000" points="550.47,-390.33 548.81,-379.86 543.58,-389.08 550.47,-390.33"/>
</g>
<!-- Metamodel::Naming -->
<g id="node4" class="node">
<title>Metamodel::Naming</title>
<g id="a_node4"><a xlink:href="/type/Metamodel::Naming" xlink:title="Metamodel::Naming">
<ellipse fill="none" stroke="#6666ff" cx="125.51" cy="-907.89" rx="101.28" ry="18"/>
<text text-anchor="middle" x="125.51" y="-904.19" font-family="FreeSans" font-size="14.00" fill="#6666ff">Metamodel::Naming</text>
</a>
</g>
</g>
<!-- Metamodel::NativeHOW&#45;&gt;Metamodel::Naming -->
<g id="edge3" class="edge">
<title>Metamodel::NativeHOW&#45;&gt;Metamodel::Naming</title>
<path fill="none" stroke="#6666ff" d="M439.23,-776.8C373.86,-804.11 245.57,-857.72 174.98,-887.22"/>
<polygon fill="#6666ff" stroke="#6666ff" points="173.3,-884.13 165.42,-891.21 175.99,-890.59 173.3,-884.13"/>
</g>
<!-- Metamodel::Documenting -->
<g id="node5" class="node">
<title>Metamodel::Documenting</title>
<g id="a_node5"><a xlink:href="/type/Metamodel::Documenting" xlink:title="Metamodel::Documenting">
<ellipse fill="none" stroke="#6666ff" cx="544.56" cy="-1137.08" rx="126.98" ry="18"/>
<text text-anchor="middle" x="544.56" y="-1133.38" font-family="FreeSans" font-size="14.00" fill="#6666ff">Metamodel::Documenting</text>
</a>
</g>
</g>
<!-- Metamodel::NativeHOW&#45;&gt;Metamodel::Documenting -->
<g id="edge4" class="edge">
<title>Metamodel::NativeHOW&#45;&gt;Metamodel::Documenting</title>
<path fill="none" stroke="#6666ff" d="M483,-778.01C493.44,-838.89 527.19,-1035.78 539.77,-1109.16"/>
<polygon fill="#6666ff" stroke="#6666ff" points="536.33,-1109.8 541.47,-1119.06 543.23,-1108.62 536.33,-1109.8"/>
</g>
<!-- Metamodel::Versioning -->
<g id="node6" class="node">
<title>Metamodel::Versioning</title>
<g id="a_node6"><a xlink:href="/type/Metamodel::Versioning" xlink:title="Metamodel::Versioning">
<ellipse fill="none" stroke="#6666ff" cx="295.4" cy="-1094.25" rx="114.28" ry="18"/>
<text text-anchor="middle" x="295.4" y="-1090.55" font-family="FreeSans" font-size="14.00" fill="#6666ff">Metamodel::Versioning</text>
</a>
</g>
</g>
<!-- Metamodel::NativeHOW&#45;&gt;Metamodel::Versioning -->
<g id="edge5" class="edge">
<title>Metamodel::NativeHOW&#45;&gt;Metamodel::Versioning</title>
<path fill="none" stroke="#6666ff" d="M469.96,-777.79C439.43,-833.14 346.74,-1001.18 310.32,-1067.21"/>
<polygon fill="#6666ff" stroke="#6666ff" points="307.13,-1065.73 305.37,-1076.18 313.26,-1069.12 307.13,-1065.73"/>
</g>
<!-- Metamodel::Stashing -->
<g id="node7" class="node">
<title>Metamodel::Stashing</title>
<g id="a_node7"><a xlink:href="/type/Metamodel::Stashing" xlink:title="Metamodel::Stashing">
<ellipse fill="none" stroke="#6666ff" cx="105.94" cy="-658.65" rx="105.88" ry="18"/>
<text text-anchor="middle" x="105.94" y="-654.95" font-family="FreeSans" font-size="14.00" fill="#6666ff">Metamodel::Stashing</text>
</a>
</g>
</g>
<!-- Metamodel::NativeHOW&#45;&gt;Metamodel::Stashing -->
<g id="edge6" class="edge">
<title>Metamodel::NativeHOW&#45;&gt;Metamodel::Stashing</title>
<path fill="none" stroke="#6666ff" d="M421.86,-744.12C354.37,-725.86 243.15,-695.77 172.29,-676.6"/>
<polygon fill="#6666ff" stroke="#6666ff" points="173.13,-673.2 162.56,-673.97 171.3,-679.96 173.13,-673.2"/>
</g>
<!-- Metamodel::MultipleInheritance -->
<g id="node8" class="node">
<title>Metamodel::MultipleInheritance</title>
<g id="a_node8"><a xlink:href="/type/Metamodel::MultipleInheritance" xlink:title="Metamodel::MultipleInheritance">
<ellipse fill="none" stroke="#6666ff" cx="765.81" cy="-1019.02" rx="153.27" ry="18"/>
<text text-anchor="middle" x="765.81" y="-1015.32" font-family="FreeSans" font-size="14.00" fill="#6666ff">Metamodel::MultipleInheritance</text>
</a>
</g>
</g>
<!-- Metamodel::NativeHOW&#45;&gt;Metamodel::MultipleInheritance -->
<g id="edge7" class="edge">
<title>Metamodel::NativeHOW&#45;&gt;Metamodel::MultipleInheritance</title>
<path fill="none" stroke="#6666ff" d="M499.53,-777.63C549.42,-822.85 681.07,-942.19 738.44,-994.2"/>
<polygon fill="#6666ff" stroke="#6666ff" points="736.26,-996.96 746.02,-1001.08 740.96,-991.77 736.26,-996.96"/>
</g>
<!-- Metamodel::C3MRO -->
<g id="node9" class="node">
<title>Metamodel::C3MRO</title>
<g id="a_node9"><a xlink:href="/type/Metamodel::C3MRO" xlink:title="Metamodel::C3MRO">
<ellipse fill="none" stroke="#6666ff" cx="256.87" cy="-466.49" rx="100.18" ry="18"/>
<text text-anchor="middle" x="256.87" y="-462.79" font-family="FreeSans" font-size="14.00" fill="#6666ff">Metamodel::C3MRO</text>
</a>
</g>
</g>
<!-- Metamodel::NativeHOW&#45;&gt;Metamodel::C3MRO -->
<g id="edge8" class="edge">
<title>Metamodel::NativeHOW&#45;&gt;Metamodel::C3MRO</title>
<path fill="none" stroke="#6666ff" d="M466.27,-741.9C428.32,-691.99 321.24,-551.15 276.69,-492.56"/>
<polygon fill="#6666ff" stroke="#6666ff" points="279.43,-490.38 270.59,-484.54 273.86,-494.62 279.43,-490.38"/>
</g>
<!-- Metamodel::MROBasedMethodDispatch -->
<g id="node10" class="node">
<title>Metamodel::MROBasedMethodDispatch</title>
<g id="a_node10"><a xlink:href="/type/Metamodel::MROBasedMethodDispatch" xlink:title="Metamodel::MROBasedMethodDispatch">
<ellipse fill="none" stroke="#6666ff" cx="782.12" cy="-564.05" rx="188.47" ry="18"/>
<text text-anchor="middle" x="782.12" y="-560.35" font-family="FreeSans" font-size="14.00" fill="#6666ff">Metamodel::MROBasedMethodDispatch</text>
</a>
</g>
</g>
<!-- Metamodel::NativeHOW&#45;&gt;Metamodel::MROBasedMethodDispatch -->
<g id="edge9" class="edge">
<title>Metamodel::NativeHOW&#45;&gt;Metamodel::MROBasedMethodDispatch</title>
<path fill="none" stroke="#6666ff" d="M506.97,-742.27C561.52,-706.93 684.62,-627.2 745.96,-587.47"/>
<polygon fill="#6666ff" stroke="#6666ff" points="748.06,-590.28 754.55,-581.91 744.25,-584.41 748.06,-590.28"/>
</g>
<!-- Metamodel::MROBasedTypeChecking -->
<g id="node11" class="node">
<title>Metamodel::MROBasedTypeChecking</title>
<g id="a_node11"><a xlink:href="/type/Metamodel::MROBasedTypeChecking" xlink:title="Metamodel::MROBasedTypeChecking">
<ellipse fill="none" stroke="#6666ff" cx="868.39" cy="-792.13" rx="178.97" ry="18"/>
<text text-anchor="middle" x="868.39" y="-788.43" font-family="FreeSans" font-size="14.00" fill="#6666ff">Metamodel::MROBasedTypeChecking</text>
</a>
</g>
</g>
<!-- Metamodel::NativeHOW&#45;&gt;Metamodel::MROBasedTypeChecking -->
<g id="edge10" class="edge">
<title>Metamodel::NativeHOW&#45;&gt;Metamodel::MROBasedTypeChecking</title>
<path fill="none" stroke="#6666ff" d="M583.74,-768.45C625.73,-771.94 674.97,-776.04 720.58,-779.83"/>
<polygon fill="#6666ff" stroke="#6666ff" points="720.3,-783.32 730.55,-780.66 720.88,-776.35 720.3,-783.32"/>
</g>
<!-- Mu -->
<g id="node2" class="node">
<title>Mu</title>
<g id="a_node2"><a xlink:href="/type/Mu" xlink:title="Mu">
<ellipse fill="none" stroke="#000000" cx="658.03" cy="-18" rx="27" ry="18"/>
<text text-anchor="middle" x="658.03" y="-14.3" font-family="FreeSans" font-size="14.00" fill="#000000">Mu</text>
</a>
</g>
</g>
<!-- Any&#45;&gt;Mu -->
<g id="edge2" class="edge">
<title>Any&#45;&gt;Mu</title>
<path fill="none" stroke="#000000" d="M557.67,-343.62C575.08,-287.14 628.72,-113.11 649.6,-45.37"/>
<polygon fill="#000000" stroke="#000000" points="652.94,-46.4 652.54,-35.81 646.25,-44.34 652.94,-46.4"/>
</g>
</g>
</svg>
