<?xml version="1.0" encoding="UTF-8" standalone="no"?>
<!DOCTYPE svg PUBLIC "-//W3C//DTD SVG 1.1//EN"
 "http://www.w3.org/Graphics/SVG/1.1/DTD/svg11.dtd">
<!-- Generated by graphviz version 2.42.3 (0)
 -->
<!-- Title: perl6&#45;type&#45;graph Pages: 1 -->
<svg width="861pt" height="476pt"
 viewBox="0.00 0.00 861.00 476.00" xmlns="http://www.w3.org/2000/svg" xmlns:xlink="http://www.w3.org/1999/xlink">
<g id="graph0" class="graph" transform="scale(1 1) rotate(0) translate(4 472)">
<title>perl6&#45;type&#45;graph</title>
<polygon fill="white" stroke="transparent" points="-4,4 -4,-472 857,-472 857,4 -4,4"/>
<!-- Associative -->
<g id="node1" class="node">
<title>Associative</title>
<g id="a_node1"><a xlink:href="/type/Associative" xlink:title="Associative">
<ellipse fill="none" stroke="#6666ff" cx="282" cy="-450" rx="61.99" ry="18"/>
<text text-anchor="middle" x="282" y="-446.3" font-family="FreeSans" font-size="14.00" fill="#6666ff">Associative</text>
</a>
</g>
</g>
<!-- Mu -->
<g id="node2" class="node">
<title>Mu</title>
<g id="a_node2"><a xlink:href="/type/Mu" xlink:title="Mu">
<ellipse fill="none" stroke="#000000" cx="416" cy="-378" rx="27" ry="18"/>
<text text-anchor="middle" x="416" y="-374.3" font-family="FreeSans" font-size="14.00" fill="#000000">Mu</text>
</a>
</g>
</g>
<!-- Any -->
<g id="node3" class="node">
<title>Any</title>
<g id="a_node3"><a xlink:href="/type/Any" xlink:title="Any">
<ellipse fill="none" stroke="#000000" cx="423" cy="-306" rx="28.7" ry="18"/>
<text text-anchor="middle" x="423" y="-302.3" font-family="FreeSans" font-size="14.00" fill="#000000">Any</text>
</a>
</g>
</g>
<!-- Any&#45;&gt;Mu -->
<g id="edge1" class="edge">
<title>Any&#45;&gt;Mu</title>
<path fill="none" stroke="#000000" d="M421.27,-324.3C420.5,-332.02 419.57,-341.29 418.71,-349.89"/>
<polygon fill="#000000" stroke="#000000" points="415.22,-349.6 417.71,-359.9 422.19,-350.29 415.22,-349.6"/>
</g>
<!-- Telemetry -->
<g id="node4" class="node">
<title>Telemetry</title>
<g id="a_node4"><a xlink:href="/type/Telemetry" xlink:title="Telemetry">
<ellipse fill="none" stroke="#000000" cx="326" cy="-234" rx="55.49" ry="18"/>
<text text-anchor="middle" x="326" y="-230.3" font-family="FreeSans" font-size="14.00" fill="#000000">Telemetry</text>
</a>
</g>
</g>
<!-- Telemetry&#45;&gt;Any -->
<g id="edge2" class="edge">
<title>Telemetry&#45;&gt;Any</title>
<path fill="none" stroke="#000000" d="M348.01,-250.88C362.4,-261.27 381.28,-274.89 396.5,-285.88"/>
<polygon fill="#000000" stroke="#000000" points="394.81,-288.98 404.97,-291.99 398.91,-283.3 394.81,-288.98"/>
</g>
<!-- Telemetry::Period -->
<g id="node5" class="node">
<title>Telemetry::Period</title>
<g id="a_node5"><a xlink:href="/type/Telemetry::Period" xlink:title="Telemetry::Period">
<ellipse fill="none" stroke="#000000" cx="599" cy="-162" rx="89.08" ry="18"/>
<text text-anchor="middle" x="599" y="-158.3" font-family="FreeSans" font-size="14.00" fill="#000000">Telemetry::Period</text>
</a>
</g>
</g>
<!-- Telemetry::Period&#45;&gt;Associative -->
<g id="edge14" class="edge">
<title>Telemetry::Period&#45;&gt;Associative</title>
<path fill="none" stroke="#6666ff" d="M658.55,-175.43C733.63,-191.09 853,-216 853,-216 853,-216 853,-252 853,-252 853,-252 734,-324 734,-324 734,-324 594,-396 594,-396 594,-396 434.75,-423.05 343.8,-438.5"/>
<polygon fill="#6666ff" stroke="#6666ff" points="343.14,-435.06 333.87,-440.19 344.32,-441.96 343.14,-435.06"/>
</g>
<!-- Telemetry::Period&#45;&gt;Telemetry -->
<g id="edge3" class="edge">
<title>Telemetry::Period&#45;&gt;Telemetry</title>
<path fill="none" stroke="#000000" d="M545.72,-176.51C483.8,-192.21 390,-216 390,-216 390,-216 384.98,-217.33 377.75,-219.26"/>
<polygon fill="#000000" stroke="#000000" points="376.38,-216 367.62,-221.95 378.18,-222.76 376.38,-216"/>
</g>
<!-- Pair -->
<g id="node6" class="node">
<title>Pair</title>
<g id="a_node6"><a xlink:href="/type/Pair" xlink:title="Pair">
<ellipse fill="none" stroke="#000000" cx="37" cy="-234" rx="27.9" ry="18"/>
<text text-anchor="middle" x="37" y="-230.3" font-family="FreeSans" font-size="14.00" fill="#000000">Pair</text>
</a>
</g>
</g>
<!-- Pair&#45;&gt;Associative -->
<g id="edge15" class="edge">
<title>Pair&#45;&gt;Associative</title>
<path fill="none" stroke="#6666ff" d="M53.08,-249.04C94.4,-285.14 204.68,-381.46 255.58,-425.92"/>
<polygon fill="#6666ff" stroke="#6666ff" points="253.39,-428.65 263.22,-432.6 257.99,-423.38 253.39,-428.65"/>
</g>
<!-- Pair&#45;&gt;Any -->
<g id="edge4" class="edge">
<title>Pair&#45;&gt;Any</title>
<path fill="none" stroke="#000000" d="M59.18,-245.48C66.59,-248.97 73,-252 73,-252 73,-252 295.09,-285.63 385.45,-299.31"/>
<polygon fill="#000000" stroke="#000000" points="385.12,-302.8 395.54,-300.84 386.17,-295.88 385.12,-302.8"/>
</g>
<!-- QuantHash -->
<g id="node7" class="node">
<title>QuantHash</title>
<g id="a_node7"><a xlink:href="/type/QuantHash" xlink:title="QuantHash">
<ellipse fill="none" stroke="#6666ff" cx="523" cy="-378" rx="61.99" ry="18"/>
<text text-anchor="middle" x="523" y="-374.3" font-family="FreeSans" font-size="14.00" fill="#6666ff">QuantHash</text>
</a>
</g>
</g>
<!-- QuantHash&#45;&gt;Associative -->
<g id="edge16" class="edge">
<title>QuantHash&#45;&gt;Associative</title>
<path fill="none" stroke="#6666ff" d="M480.75,-391.27C439.83,-403.16 377.71,-421.2 333.83,-433.94"/>
<polygon fill="#6666ff" stroke="#6666ff" points="332.83,-430.59 324.21,-436.74 334.79,-437.31 332.83,-430.59"/>
</g>
<!-- Cool -->
<g id="node8" class="node">
<title>Cool</title>
<g id="a_node8"><a xlink:href="/type/Cool" xlink:title="Cool">
<ellipse fill="none" stroke="#000000" cx="113" cy="-234" rx="30.59" ry="18"/>
<text text-anchor="middle" x="113" y="-230.3" font-family="FreeSans" font-size="14.00" fill="#000000">Cool</text>
</a>
</g>
</g>
<!-- Cool&#45;&gt;Any -->
<g id="edge5" class="edge">
<title>Cool&#45;&gt;Any</title>
<path fill="none" stroke="#000000" d="M137.19,-245.28C145.61,-248.86 153,-252 153,-252 153,-252 312.48,-283.3 386.3,-297.8"/>
<polygon fill="#000000" stroke="#000000" points="385.64,-301.23 396.12,-299.72 386.99,-294.36 385.64,-301.23"/>
</g>
<!-- Iterable -->
<g id="node9" class="node">
<title>Iterable</title>
<g id="a_node9"><a xlink:href="/type/Iterable" xlink:title="Iterable">
<ellipse fill="none" stroke="#6666ff" cx="207" cy="-234" rx="45.49" ry="18"/>
<text text-anchor="middle" x="207" y="-230.3" font-family="FreeSans" font-size="14.00" fill="#6666ff">Iterable</text>
</a>
</g>
</g>
<!-- Map -->
<g id="node10" class="node">
<title>Map</title>
<g id="a_node10"><a xlink:href="/type/Map" xlink:title="Map">
<ellipse fill="none" stroke="#000000" cx="113" cy="-162" rx="29.8" ry="18"/>
<text text-anchor="middle" x="113" y="-158.3" font-family="FreeSans" font-size="14.00" fill="#000000">Map</text>
</a>
</g>
</g>
<!-- Map&#45;&gt;Associative -->
<g id="edge18" class="edge">
<title>Map&#45;&gt;Associative</title>
<path fill="none" stroke="#6666ff" d="M90.13,-173.73C57.11,-189.21 0,-216 0,-216 0,-216 0,-252 0,-252 0,-252 177,-396 177,-396 177,-396 213.48,-414.41 243.43,-429.53"/>
<polygon fill="#6666ff" stroke="#6666ff" points="241.97,-432.71 252.47,-434.1 245.12,-426.46 241.97,-432.71"/>
</g>
<!-- Map&#45;&gt;Cool -->
<g id="edge6" class="edge">
<title>Map&#45;&gt;Cool</title>
<path fill="none" stroke="#000000" d="M113,-180.3C113,-188.02 113,-197.29 113,-205.89"/>
<polygon fill="#000000" stroke="#000000" points="109.5,-205.9 113,-215.9 116.5,-205.9 109.5,-205.9"/>
</g>
<!-- Map&#45;&gt;Iterable -->
<g id="edge17" class="edge">
<title>Map&#45;&gt;Iterable</title>
<path fill="none" stroke="#6666ff" d="M131.12,-176.5C144.54,-186.49 163.08,-200.29 178.47,-211.75"/>
<polygon fill="#6666ff" stroke="#6666ff" points="176.54,-214.68 186.65,-217.84 180.72,-209.06 176.54,-214.68"/>
</g>
<!-- Hash -->
<g id="node11" class="node">
<title>Hash</title>
<g id="a_node11"><a xlink:href="/type/Hash" xlink:title="Hash">
<ellipse fill="none" stroke="#000000" cx="53" cy="-90" rx="33.6" ry="18"/>
<text text-anchor="middle" x="53" y="-86.3" font-family="FreeSans" font-size="14.00" fill="#000000">Hash</text>
</a>
</g>
</g>
<!-- Hash&#45;&gt;Map -->
<g id="edge7" class="edge">
<title>Hash&#45;&gt;Map</title>
<path fill="none" stroke="#000000" d="M66.61,-106.88C74.47,-116.05 84.49,-127.74 93.21,-137.91"/>
<polygon fill="#000000" stroke="#000000" points="90.69,-140.35 99.85,-145.66 96,-135.79 90.69,-140.35"/>
</g>
<!-- PseudoStash -->
<g id="node12" class="node">
<title>PseudoStash</title>
<g id="a_node12"><a xlink:href="/type/PseudoStash" xlink:title="PseudoStash">
<ellipse fill="none" stroke="#000000" cx="174" cy="-90" rx="68.79" ry="18"/>
<text text-anchor="middle" x="174" y="-86.3" font-family="FreeSans" font-size="14.00" fill="#000000">PseudoStash</text>
</a>
</g>
</g>
<!-- PseudoStash&#45;&gt;Map -->
<g id="edge8" class="edge">
<title>PseudoStash&#45;&gt;Map</title>
<path fill="none" stroke="#000000" d="M159.23,-107.95C151.41,-116.92 141.69,-128.08 133.18,-137.85"/>
<polygon fill="#000000" stroke="#000000" points="130.31,-135.81 126.38,-145.64 135.59,-140.4 130.31,-135.81"/>
</g>
<!-- Baggy -->
<g id="node13" class="node">
<title>Baggy</title>
<g id="a_node13"><a xlink:href="/type/Baggy" xlink:title="Baggy">
<ellipse fill="none" stroke="#6666ff" cx="685" cy="-306" rx="39.79" ry="18"/>
<text text-anchor="middle" x="685" y="-302.3" font-family="FreeSans" font-size="14.00" fill="#6666ff">Baggy</text>
</a>
</g>
</g>
<!-- Baggy&#45;&gt;QuantHash -->
<g id="edge19" class="edge">
<title>Baggy&#45;&gt;QuantHash</title>
<path fill="none" stroke="#6666ff" d="M657.15,-319.03C631.96,-329.92 594.47,-346.12 565.53,-358.62"/>
<polygon fill="#6666ff" stroke="#6666ff" points="563.86,-355.53 556.07,-362.71 566.64,-361.96 563.86,-355.53"/>
</g>
<!-- Setty -->
<g id="node14" class="node">
<title>Setty</title>
<g id="a_node14"><a xlink:href="/type/Setty" xlink:title="Setty">
<ellipse fill="none" stroke="#6666ff" cx="519" cy="-306" rx="34.39" ry="18"/>
<text text-anchor="middle" x="519" y="-302.3" font-family="FreeSans" font-size="14.00" fill="#6666ff">Setty</text>
</a>
</g>
</g>
<!-- Setty&#45;&gt;QuantHash -->
<g id="edge20" class="edge">
<title>Setty&#45;&gt;QuantHash</title>
<path fill="none" stroke="#6666ff" d="M519.99,-324.3C520.43,-332.02 520.96,-341.29 521.45,-349.89"/>
<polygon fill="#6666ff" stroke="#6666ff" points="517.96,-350.11 522.02,-359.9 524.95,-349.71 517.96,-350.11"/>
</g>
<!-- Stash -->
<g id="node15" class="node">
<title>Stash</title>
<g id="a_node15"><a xlink:href="/type/Stash" xlink:title="Stash">
<ellipse fill="none" stroke="#000000" cx="53" cy="-18" rx="36.29" ry="18"/>
<text text-anchor="middle" x="53" y="-14.3" font-family="FreeSans" font-size="14.00" fill="#000000">Stash</text>
</a>
</g>
</g>
<!-- Stash&#45;&gt;Hash -->
<g id="edge9" class="edge">
<title>Stash&#45;&gt;Hash</title>
<path fill="none" stroke="#000000" d="M53,-36.3C53,-44.02 53,-53.29 53,-61.89"/>
<polygon fill="#000000" stroke="#000000" points="49.5,-61.9 53,-71.9 56.5,-61.9 49.5,-61.9"/>
</g>
<!-- BagHash -->
<g id="node16" class="node">
<title>BagHash</title>
<g id="a_node16"><a xlink:href="/type/BagHash" xlink:title="BagHash">
<ellipse fill="none" stroke="#000000" cx="636" cy="-234" rx="51.19" ry="18"/>
<text text-anchor="middle" x="636" y="-230.3" font-family="FreeSans" font-size="14.00" fill="#000000">BagHash</text>
</a>
</g>
</g>
<!-- BagHash&#45;&gt;Any -->
<g id="edge10" class="edge">
<title>BagHash&#45;&gt;Any</title>
<path fill="none" stroke="#000000" d="M599.87,-246.87C560.12,-259.94 496.71,-280.77 457.59,-293.63"/>
<polygon fill="#000000" stroke="#000000" points="456.37,-290.35 447.96,-296.8 458.55,-297 456.37,-290.35"/>
</g>
<!-- BagHash&#45;&gt;Baggy -->
<g id="edge21" class="edge">
<title>BagHash&#45;&gt;Baggy</title>
<path fill="none" stroke="#6666ff" d="M647.61,-251.59C653.59,-260.13 661.01,-270.72 667.65,-280.21"/>
<polygon fill="#6666ff" stroke="#6666ff" points="664.87,-282.34 673.47,-288.53 670.6,-278.33 664.87,-282.34"/>
</g>
<!-- Mixy -->
<g id="node17" class="node">
<title>Mixy</title>
<g id="a_node17"><a xlink:href="/type/Mixy" xlink:title="Mixy">
<ellipse fill="none" stroke="#6666ff" cx="812" cy="-234" rx="31.7" ry="18"/>
<text text-anchor="middle" x="812" y="-230.3" font-family="FreeSans" font-size="14.00" fill="#6666ff">Mixy</text>
</a>
</g>
</g>
<!-- Mixy&#45;&gt;Baggy -->
<g id="edge22" class="edge">
<title>Mixy&#45;&gt;Baggy</title>
<path fill="none" stroke="#6666ff" d="M789.88,-247.19C770.14,-258.07 740.96,-274.16 718.38,-286.6"/>
<polygon fill="#6666ff" stroke="#6666ff" points="716.54,-283.62 709.47,-291.51 719.92,-289.75 716.54,-283.62"/>
</g>
<!-- Bag -->
<g id="node18" class="node">
<title>Bag</title>
<g id="a_node18"><a xlink:href="/type/Bag" xlink:title="Bag">
<ellipse fill="none" stroke="#000000" cx="734" cy="-234" rx="28.7" ry="18"/>
<text text-anchor="middle" x="734" y="-230.3" font-family="FreeSans" font-size="14.00" fill="#000000">Bag</text>
</a>
</g>
</g>
<!-- Bag&#45;&gt;Any -->
<g id="edge11" class="edge">
<title>Bag&#45;&gt;Any</title>
<path fill="none" stroke="#000000" d="M711.46,-245.09C703.27,-248.75 696,-252 696,-252 696,-252 476,-288 476,-288 476,-288 467.61,-290.69 457.51,-293.93"/>
<polygon fill="#000000" stroke="#000000" points="456.4,-290.61 447.95,-297 458.54,-297.28 456.4,-290.61"/>
</g>
<!-- Bag&#45;&gt;Baggy -->
<g id="edge23" class="edge">
<title>Bag&#45;&gt;Baggy</title>
<path fill="none" stroke="#6666ff" d="M722.88,-250.88C716.77,-259.62 709.05,-270.65 702.17,-280.46"/>
<polygon fill="#6666ff" stroke="#6666ff" points="699.28,-278.49 696.41,-288.69 705.02,-282.51 699.28,-278.49"/>
</g>
<!-- Set -->
<g id="node19" class="node">
<title>Set</title>
<g id="a_node19"><a xlink:href="/type/Set" xlink:title="Set">
<ellipse fill="none" stroke="#000000" cx="426" cy="-234" rx="27" ry="18"/>
<text text-anchor="middle" x="426" y="-230.3" font-family="FreeSans" font-size="14.00" fill="#000000">Set</text>
</a>
</g>
</g>
<!-- Set&#45;&gt;Any -->
<g id="edge12" class="edge">
<title>Set&#45;&gt;Any</title>
<path fill="none" stroke="#000000" d="M425.26,-252.3C424.93,-260.02 424.53,-269.29 424.16,-277.89"/>
<polygon fill="#000000" stroke="#000000" points="420.66,-277.75 423.73,-287.9 427.66,-278.05 420.66,-277.75"/>
</g>
<!-- Set&#45;&gt;Setty -->
<g id="edge24" class="edge">
<title>Set&#45;&gt;Setty</title>
<path fill="none" stroke="#6666ff" d="M443.49,-248.17C457.08,-258.39 476.16,-272.76 491.75,-284.49"/>
<polygon fill="#6666ff" stroke="#6666ff" points="489.89,-287.47 499.99,-290.69 494.1,-281.88 489.89,-287.47"/>
</g>
<!-- SetHash -->
<g id="node20" class="node">
<title>SetHash</title>
<g id="a_node20"><a xlink:href="/type/SetHash" xlink:title="SetHash">
<ellipse fill="none" stroke="#000000" cx="519" cy="-234" rx="48.19" ry="18"/>
<text text-anchor="middle" x="519" y="-230.3" font-family="FreeSans" font-size="14.00" fill="#000000">SetHash</text>
</a>
</g>
</g>
<!-- SetHash&#45;&gt;Any -->
<g id="edge13" class="edge">
<title>SetHash&#45;&gt;Any</title>
<path fill="none" stroke="#000000" d="M497.69,-250.54C483.47,-260.91 464.67,-274.62 449.48,-285.69"/>
<polygon fill="#000000" stroke="#000000" points="447.04,-283.14 441.02,-291.86 451.16,-288.8 447.04,-283.14"/>
</g>
<!-- SetHash&#45;&gt;Setty -->
<g id="edge25" class="edge">
<title>SetHash&#45;&gt;Setty</title>
<path fill="none" stroke="#6666ff" d="M519,-252.3C519,-260.02 519,-269.29 519,-277.89"/>
<polygon fill="#6666ff" stroke="#6666ff" points="515.5,-277.9 519,-287.9 522.5,-277.9 515.5,-277.9"/>
</g>
</g>
</svg>
