<?xml version="1.0" encoding="UTF-8" standalone="no"?>
<!DOCTYPE svg PUBLIC "-//W3C//DTD SVG 1.1//EN"
 "http://www.w3.org/Graphics/SVG/1.1/DTD/svg11.dtd">
<!-- Generated by graphviz version 2.42.3 (0)
 -->
<!-- Title: perl6&#45;type&#45;graph Pages: 1 -->
<svg width="875pt" height="332pt"
 viewBox="0.00 0.00 874.68 332.00" xmlns="http://www.w3.org/2000/svg" xmlns:xlink="http://www.w3.org/1999/xlink">
<g id="graph0" class="graph" transform="scale(1 1) rotate(0) translate(4 328)">
<title>perl6&#45;type&#45;graph</title>
<polygon fill="white" stroke="transparent" points="-4,4 -4,-328 870.68,-328 870.68,4 -4,4"/>
<!-- X::Temporal -->
<g id="node1" class="node">
<title>X::Temporal</title>
<g id="a_node1"><a xlink:href="/type/X::Temporal" xlink:title="X::Temporal">
<ellipse fill="none" stroke="#6666ff" cx="394.74" cy="-90" rx="64.19" ry="18"/>
<text text-anchor="middle" x="394.74" y="-86.3" font-family="FreeSans" font-size="14.00" fill="#6666ff">X::Temporal</text>
</a>
</g>
</g>
<!-- Exception -->
<g id="node4" class="node">
<title>Exception</title>
<g id="a_node4"><a xlink:href="/type/Exception" xlink:title="Exception">
<ellipse fill="none" stroke="#000000" cx="440.74" cy="-162" rx="55.49" ry="18"/>
<text text-anchor="middle" x="440.74" y="-158.3" font-family="FreeSans" font-size="14.00" fill="#000000">Exception</text>
</a>
</g>
</g>
<!-- X::Temporal&#45;&gt;Exception -->
<g id="edge1" class="edge">
<title>X::Temporal&#45;&gt;Exception</title>
<path fill="none" stroke="#000000" d="M405.87,-107.95C411.35,-116.29 418.07,-126.51 424.14,-135.75"/>
<polygon fill="#000000" stroke="#000000" points="421.29,-137.78 429.7,-144.21 427.14,-133.93 421.29,-137.78"/>
</g>
<!-- Mu -->
<g id="node2" class="node">
<title>Mu</title>
<g id="a_node2"><a xlink:href="/type/Mu" xlink:title="Mu">
<ellipse fill="none" stroke="#000000" cx="440.74" cy="-306" rx="27" ry="18"/>
<text text-anchor="middle" x="440.74" y="-302.3" font-family="FreeSans" font-size="14.00" fill="#000000">Mu</text>
</a>
</g>
</g>
<!-- Any -->
<g id="node3" class="node">
<title>Any</title>
<g id="a_node3"><a xlink:href="/type/Any" xlink:title="Any">
<ellipse fill="none" stroke="#000000" cx="440.74" cy="-234" rx="28.7" ry="18"/>
<text text-anchor="middle" x="440.74" y="-230.3" font-family="FreeSans" font-size="14.00" fill="#000000">Any</text>
</a>
</g>
</g>
<!-- Any&#45;&gt;Mu -->
<g id="edge2" class="edge">
<title>Any&#45;&gt;Mu</title>
<path fill="none" stroke="#000000" d="M440.74,-252.3C440.74,-260.02 440.74,-269.29 440.74,-277.89"/>
<polygon fill="#000000" stroke="#000000" points="437.24,-277.9 440.74,-287.9 444.24,-277.9 437.24,-277.9"/>
</g>
<!-- Exception&#45;&gt;Any -->
<g id="edge3" class="edge">
<title>Exception&#45;&gt;Any</title>
<path fill="none" stroke="#000000" d="M440.74,-180.3C440.74,-188.02 440.74,-197.29 440.74,-205.89"/>
<polygon fill="#000000" stroke="#000000" points="437.24,-205.9 440.74,-215.9 444.24,-205.9 437.24,-205.9"/>
</g>
<!-- X::DateTime::TimezoneClash -->
<g id="node5" class="node">
<title>X::DateTime::TimezoneClash</title>
<g id="a_node5"><a xlink:href="/type/X::DateTime::TimezoneClash" xlink:title="X::DateTime::TimezoneClash">
<ellipse fill="none" stroke="#000000" cx="139.74" cy="-18" rx="139.98" ry="18"/>
<text text-anchor="middle" x="139.74" y="-14.3" font-family="FreeSans" font-size="14.00" fill="#000000">X::DateTime::TimezoneClash</text>
</a>
</g>
</g>
<!-- X::DateTime::TimezoneClash&#45;&gt;X::Temporal -->
<g id="edge7" class="edge">
<title>X::DateTime::TimezoneClash&#45;&gt;X::Temporal</title>
<path fill="none" stroke="#6666ff" d="M196.33,-34.54C239.39,-46.36 298.27,-62.52 340.69,-74.16"/>
<polygon fill="#6666ff" stroke="#6666ff" points="339.99,-77.6 350.56,-76.87 341.84,-70.85 339.99,-77.6"/>
</g>
<!-- X::DateTime::TimezoneClash&#45;&gt;Exception -->
<g id="edge4" class="edge">
<title>X::DateTime::TimezoneClash&#45;&gt;Exception</title>
<path fill="none" stroke="#000000" d="M173.54,-35.53C226.18,-61.27 321.74,-108 321.74,-108 321.74,-108 365.58,-127.53 400.04,-142.88"/>
<polygon fill="#000000" stroke="#000000" points="398.91,-146.2 409.47,-147.07 401.76,-139.81 398.91,-146.2"/>
</g>
<!-- X::DateTime::InvalidDeltaUnit -->
<g id="node6" class="node">
<title>X::DateTime::InvalidDeltaUnit</title>
<g id="a_node6"><a xlink:href="/type/X::DateTime::InvalidDeltaUnit" xlink:title="X::DateTime::InvalidDeltaUnit">
<ellipse fill="none" stroke="#000000" cx="440.74" cy="-18" rx="143.77" ry="18"/>
<text text-anchor="middle" x="440.74" y="-14.3" font-family="FreeSans" font-size="14.00" fill="#000000">X::DateTime::InvalidDeltaUnit</text>
</a>
</g>
</g>
<!-- X::DateTime::InvalidDeltaUnit&#45;&gt;X::Temporal -->
<g id="edge8" class="edge">
<title>X::DateTime::InvalidDeltaUnit&#45;&gt;X::Temporal</title>
<path fill="none" stroke="#6666ff" d="M429.37,-36.3C424.02,-44.44 417.53,-54.31 411.63,-63.3"/>
<polygon fill="#6666ff" stroke="#6666ff" points="408.54,-61.62 405.98,-71.9 414.39,-65.46 408.54,-61.62"/>
</g>
<!-- X::DateTime::InvalidDeltaUnit&#45;&gt;Exception -->
<g id="edge5" class="edge">
<title>X::DateTime::InvalidDeltaUnit&#45;&gt;Exception</title>
<path fill="none" stroke="#000000" d="M449.43,-36.06C457.32,-51.55 467.74,-72 467.74,-72 467.74,-72 467.74,-108 467.74,-108 467.74,-108 460.86,-121.5 454.05,-134.87"/>
<polygon fill="#000000" stroke="#000000" points="450.85,-133.44 449.43,-143.94 457.09,-136.62 450.85,-133.44"/>
</g>
<!-- X::Temporal::InvalidFormat -->
<g id="node7" class="node">
<title>X::Temporal::InvalidFormat</title>
<g id="a_node7"><a xlink:href="/type/X::Temporal::InvalidFormat" xlink:title="X::Temporal::InvalidFormat">
<ellipse fill="none" stroke="#000000" cx="734.74" cy="-18" rx="131.88" ry="18"/>
<text text-anchor="middle" x="734.74" y="-14.3" font-family="FreeSans" font-size="14.00" fill="#000000">X::Temporal::InvalidFormat</text>
</a>
</g>
</g>
<!-- X::Temporal::InvalidFormat&#45;&gt;X::Temporal -->
<g id="edge9" class="edge">
<title>X::Temporal::InvalidFormat&#45;&gt;X::Temporal</title>
<path fill="none" stroke="#6666ff" d="M665.11,-33.33C603.22,-46.08 513.67,-64.51 454.85,-76.62"/>
<polygon fill="#6666ff" stroke="#6666ff" points="454.05,-73.22 444.96,-78.66 455.46,-80.07 454.05,-73.22"/>
</g>
<!-- X::Temporal::InvalidFormat&#45;&gt;Exception -->
<g id="edge6" class="edge">
<title>X::Temporal::InvalidFormat&#45;&gt;Exception</title>
<path fill="none" stroke="#000000" d="M700.72,-35.43C645.74,-61.98 537.66,-114.19 479.68,-142.19"/>
<polygon fill="#000000" stroke="#000000" points="477.96,-139.13 470.48,-146.64 481,-145.44 477.96,-139.13"/>
</g>
</g>
</svg>
