<?xml version="1.0" encoding="UTF-8" standalone="no"?>
<!DOCTYPE svg PUBLIC "-//W3C//DTD SVG 1.1//EN"
 "http://www.w3.org/Graphics/SVG/1.1/DTD/svg11.dtd">
<!-- Generated by graphviz version 2.42.3 (0)
 -->
<!-- Title: perl6&#45;type&#45;graph Pages: 1 -->
<svg width="165pt" height="332pt"
 viewBox="0.00 0.00 165.04 332.00" xmlns="http://www.w3.org/2000/svg" xmlns:xlink="http://www.w3.org/1999/xlink">
<g id="graph0" class="graph" transform="scale(1 1) rotate(0) translate(4 328)">
<title>perl6&#45;type&#45;graph</title>
<polygon fill="white" stroke="transparent" points="-4,4 -4,-328 161.04,-328 161.04,4 -4,4"/>
<!-- CX::Return -->
<g id="node1" class="node">
<title>CX::Return</title>
<g id="a_node1"><a xlink:href="/type/CX::Return" xlink:title="CX::Return">
<ellipse fill="none" stroke="#000000" cx="59.79" cy="-18" rx="59.59" ry="18"/>
<text text-anchor="middle" x="59.79" y="-14.3" font-family="FreeSans" font-size="14.00" fill="#000000">CX::Return</text>
</a>
</g>
</g>
<!-- Exception -->
<g id="node4" class="node">
<title>Exception</title>
<g id="a_node4"><a xlink:href="/type/Exception" xlink:title="Exception">
<ellipse fill="none" stroke="#000000" cx="59.79" cy="-162" rx="55.49" ry="18"/>
<text text-anchor="middle" x="59.79" y="-158.3" font-family="FreeSans" font-size="14.00" fill="#000000">Exception</text>
</a>
</g>
</g>
<!-- CX::Return&#45;&gt;Exception -->
<g id="edge1" class="edge">
<title>CX::Return&#45;&gt;Exception</title>
<path fill="none" stroke="#000000" d="M52.71,-36.06C46.28,-51.55 37.79,-72 37.79,-72 37.79,-72 37.79,-108 37.79,-108 37.79,-108 43.29,-121.24 48.79,-134.48"/>
<polygon fill="#000000" stroke="#000000" points="45.65,-136.04 52.71,-143.94 52.11,-133.36 45.65,-136.04"/>
</g>
<!-- X::Control -->
<g id="node5" class="node">
<title>X::Control</title>
<g id="a_node5"><a xlink:href="/type/X::Control" xlink:title="X::Control">
<ellipse fill="none" stroke="#6666ff" cx="101.79" cy="-90" rx="55.49" ry="18"/>
<text text-anchor="middle" x="101.79" y="-86.3" font-family="FreeSans" font-size="14.00" fill="#6666ff">X::Control</text>
</a>
</g>
</g>
<!-- CX::Return&#45;&gt;X::Control -->
<g id="edge5" class="edge">
<title>CX::Return&#45;&gt;X::Control</title>
<path fill="none" stroke="#6666ff" d="M69.96,-35.95C74.91,-44.2 80.97,-54.3 86.47,-63.46"/>
<polygon fill="#6666ff" stroke="#6666ff" points="83.58,-65.44 91.72,-72.21 89.58,-61.84 83.58,-65.44"/>
</g>
<!-- Mu -->
<g id="node2" class="node">
<title>Mu</title>
<g id="a_node2"><a xlink:href="/type/Mu" xlink:title="Mu">
<ellipse fill="none" stroke="#000000" cx="59.79" cy="-306" rx="27" ry="18"/>
<text text-anchor="middle" x="59.79" y="-302.3" font-family="FreeSans" font-size="14.00" fill="#000000">Mu</text>
</a>
</g>
</g>
<!-- Any -->
<g id="node3" class="node">
<title>Any</title>
<g id="a_node3"><a xlink:href="/type/Any" xlink:title="Any">
<ellipse fill="none" stroke="#000000" cx="59.79" cy="-234" rx="28.7" ry="18"/>
<text text-anchor="middle" x="59.79" y="-230.3" font-family="FreeSans" font-size="14.00" fill="#000000">Any</text>
</a>
</g>
</g>
<!-- Any&#45;&gt;Mu -->
<g id="edge2" class="edge">
<title>Any&#45;&gt;Mu</title>
<path fill="none" stroke="#000000" d="M59.79,-252.3C59.79,-260.02 59.79,-269.29 59.79,-277.89"/>
<polygon fill="#000000" stroke="#000000" points="56.29,-277.9 59.79,-287.9 63.29,-277.9 56.29,-277.9"/>
</g>
<!-- Exception&#45;&gt;Any -->
<g id="edge3" class="edge">
<title>Exception&#45;&gt;Any</title>
<path fill="none" stroke="#000000" d="M59.79,-180.3C59.79,-188.02 59.79,-197.29 59.79,-205.89"/>
<polygon fill="#000000" stroke="#000000" points="56.29,-205.9 59.79,-215.9 63.29,-205.9 56.29,-205.9"/>
</g>
<!-- X::Control&#45;&gt;Exception -->
<g id="edge4" class="edge">
<title>X::Control&#45;&gt;Exception</title>
<path fill="none" stroke="#000000" d="M91.63,-107.95C86.68,-116.2 80.62,-126.3 75.12,-135.46"/>
<polygon fill="#000000" stroke="#000000" points="72.01,-133.84 69.87,-144.21 78.01,-137.44 72.01,-133.84"/>
</g>
</g>
</svg>
