<?xml version="1.0" encoding="UTF-8" standalone="no"?>
<!DOCTYPE svg PUBLIC "-//W3C//DTD SVG 1.1//EN"
 "http://www.w3.org/Graphics/SVG/1.1/DTD/svg11.dtd">
<!-- Generated by graphviz version 2.42.3 (0)
 -->
<!-- Title: perl6&#45;type&#45;graph Pages: 1 -->
<svg width="250pt" height="332pt"
 viewBox="0.00 0.00 249.78 332.00" xmlns="http://www.w3.org/2000/svg" xmlns:xlink="http://www.w3.org/1999/xlink">
<g id="graph0" class="graph" transform="scale(1 1) rotate(0) translate(4 328)">
<title>perl6&#45;type&#45;graph</title>
<polygon fill="white" stroke="transparent" points="-4,4 -4,-328 245.78,-328 245.78,4 -4,4"/>
<!-- X::Import::Redeclaration -->
<g id="node1" class="node">
<title>X::Import::Redeclaration</title>
<g id="a_node1"><a xlink:href="/type/X::Import::Redeclaration" xlink:title="X::Import::Redeclaration">
<ellipse fill="none" stroke="#000000" cx="120.89" cy="-18" rx="120.78" ry="18"/>
<text text-anchor="middle" x="120.89" y="-14.3" font-family="FreeSans" font-size="14.00" fill="#000000">X::Import::Redeclaration</text>
</a>
</g>
</g>
<!-- Exception -->
<g id="node4" class="node">
<title>Exception</title>
<g id="a_node4"><a xlink:href="/type/Exception" xlink:title="Exception">
<ellipse fill="none" stroke="#000000" cx="120.89" cy="-162" rx="55.49" ry="18"/>
<text text-anchor="middle" x="120.89" y="-158.3" font-family="FreeSans" font-size="14.00" fill="#000000">Exception</text>
</a>
</g>
</g>
<!-- X::Import::Redeclaration&#45;&gt;Exception -->
<g id="edge1" class="edge">
<title>X::Import::Redeclaration&#45;&gt;Exception</title>
<path fill="none" stroke="#000000" d="M114.77,-36.06C109.22,-51.55 101.89,-72 101.89,-72 101.89,-72 101.89,-108 101.89,-108 101.89,-108 106.64,-121.24 111.38,-134.48"/>
<polygon fill="#000000" stroke="#000000" points="108.1,-135.71 114.77,-143.94 114.69,-133.34 108.1,-135.71"/>
</g>
<!-- X::Comp -->
<g id="node5" class="node">
<title>X::Comp</title>
<g id="a_node5"><a xlink:href="/type/X::Comp" xlink:title="X::Comp">
<ellipse fill="none" stroke="#6666ff" cx="159.89" cy="-90" rx="49.29" ry="18"/>
<text text-anchor="middle" x="159.89" y="-86.3" font-family="FreeSans" font-size="14.00" fill="#6666ff">X::Comp</text>
</a>
</g>
</g>
<!-- X::Import::Redeclaration&#45;&gt;X::Comp -->
<g id="edge5" class="edge">
<title>X::Import::Redeclaration&#45;&gt;X::Comp</title>
<path fill="none" stroke="#6666ff" d="M130.33,-35.95C134.93,-44.2 140.56,-54.3 145.66,-63.46"/>
<polygon fill="#6666ff" stroke="#6666ff" points="142.61,-65.18 150.54,-72.21 148.73,-61.77 142.61,-65.18"/>
</g>
<!-- Mu -->
<g id="node2" class="node">
<title>Mu</title>
<g id="a_node2"><a xlink:href="/type/Mu" xlink:title="Mu">
<ellipse fill="none" stroke="#000000" cx="120.89" cy="-306" rx="27" ry="18"/>
<text text-anchor="middle" x="120.89" y="-302.3" font-family="FreeSans" font-size="14.00" fill="#000000">Mu</text>
</a>
</g>
</g>
<!-- Any -->
<g id="node3" class="node">
<title>Any</title>
<g id="a_node3"><a xlink:href="/type/Any" xlink:title="Any">
<ellipse fill="none" stroke="#000000" cx="120.89" cy="-234" rx="28.7" ry="18"/>
<text text-anchor="middle" x="120.89" y="-230.3" font-family="FreeSans" font-size="14.00" fill="#000000">Any</text>
</a>
</g>
</g>
<!-- Any&#45;&gt;Mu -->
<g id="edge2" class="edge">
<title>Any&#45;&gt;Mu</title>
<path fill="none" stroke="#000000" d="M120.89,-252.3C120.89,-260.02 120.89,-269.29 120.89,-277.89"/>
<polygon fill="#000000" stroke="#000000" points="117.39,-277.9 120.89,-287.9 124.39,-277.9 117.39,-277.9"/>
</g>
<!-- Exception&#45;&gt;Any -->
<g id="edge3" class="edge">
<title>Exception&#45;&gt;Any</title>
<path fill="none" stroke="#000000" d="M120.89,-180.3C120.89,-188.02 120.89,-197.29 120.89,-205.89"/>
<polygon fill="#000000" stroke="#000000" points="117.39,-205.9 120.89,-215.9 124.39,-205.9 117.39,-205.9"/>
</g>
<!-- X::Comp&#45;&gt;Exception -->
<g id="edge4" class="edge">
<title>X::Comp&#45;&gt;Exception</title>
<path fill="none" stroke="#000000" d="M150.45,-107.95C145.85,-116.2 140.22,-126.3 135.12,-135.46"/>
<polygon fill="#000000" stroke="#000000" points="132.05,-133.77 130.24,-144.21 138.17,-137.18 132.05,-133.77"/>
</g>
</g>
</svg>
