<?xml version="1.0" encoding="UTF-8" standalone="no"?>
<!DOCTYPE svg PUBLIC "-//W3C//DTD SVG 1.1//EN"
 "http://www.w3.org/Graphics/SVG/1.1/DTD/svg11.dtd">
<!-- Generated by graphviz version 2.42.3 (0)
 -->
<!-- Title: perl6&#45;type&#45;graph Pages: 1 -->
<svg width="240pt" height="404pt"
 viewBox="0.00 0.00 240.44 404.00" xmlns="http://www.w3.org/2000/svg" xmlns:xlink="http://www.w3.org/1999/xlink">
<g id="graph0" class="graph" transform="scale(1 1) rotate(0) translate(4 400)">
<title>perl6&#45;type&#45;graph</title>
<polygon fill="white" stroke="transparent" points="-4,4 -4,-400 236.44,-400 236.44,4 -4,4"/>
<!-- X::IO::Rename -->
<g id="node1" class="node">
<title>X::IO::Rename</title>
<g id="a_node1"><a xlink:href="/type/X::IO::Rename" xlink:title="X::IO::Rename">
<ellipse fill="none" stroke="#000000" cx="76.04" cy="-18" rx="76.09" ry="18"/>
<text text-anchor="middle" x="76.04" y="-14.3" font-family="FreeSans" font-size="14.00" fill="#000000">X::IO::Rename</text>
</a>
</g>
</g>
<!-- Exception -->
<g id="node4" class="node">
<title>Exception</title>
<g id="a_node4"><a xlink:href="/type/Exception" xlink:title="Exception">
<ellipse fill="none" stroke="#000000" cx="76.04" cy="-234" rx="55.49" ry="18"/>
<text text-anchor="middle" x="76.04" y="-230.3" font-family="FreeSans" font-size="14.00" fill="#000000">Exception</text>
</a>
</g>
</g>
<!-- X::IO::Rename&#45;&gt;Exception -->
<g id="edge1" class="edge">
<title>X::IO::Rename&#45;&gt;Exception</title>
<path fill="none" stroke="#000000" d="M68.29,-36.15C61.2,-73.26 60.67,-161.25 66.7,-205.95"/>
<polygon fill="#000000" stroke="#000000" points="63.29,-206.75 68.33,-216.06 70.2,-205.64 63.29,-206.75"/>
</g>
<!-- X::IO::Rename&#45;&gt;Exception -->
<g id="edge2" class="edge">
<title>X::IO::Rename&#45;&gt;Exception</title>
<path fill="none" stroke="#000000" d="M76.04,-36.15C76.04,-73.17 76.04,-160.82 76.04,-205.61"/>
<polygon fill="#000000" stroke="#000000" points="72.54,-205.77 76.04,-215.77 79.54,-205.77 72.54,-205.77"/>
</g>
<!-- X::IO::Rename&#45;&gt;Exception -->
<g id="edge3" class="edge">
<title>X::IO::Rename&#45;&gt;Exception</title>
<path fill="none" stroke="#000000" d="M83.8,-36.15C90.89,-73.26 91.42,-161.25 85.38,-205.95"/>
<polygon fill="#000000" stroke="#000000" points="81.89,-205.64 83.76,-216.06 88.8,-206.75 81.89,-205.64"/>
</g>
<!-- X::IO -->
<g id="node6" class="node">
<title>X::IO</title>
<g id="a_node6"><a xlink:href="/type/X::IO" xlink:title="X::IO">
<ellipse fill="none" stroke="#6666ff" cx="155.04" cy="-90" rx="33.29" ry="18"/>
<text text-anchor="middle" x="155.04" y="-86.3" font-family="FreeSans" font-size="14.00" fill="#6666ff">X::IO</text>
</a>
</g>
</g>
<!-- X::IO::Rename&#45;&gt;X::IO -->
<g id="edge8" class="edge">
<title>X::IO::Rename&#45;&gt;X::IO</title>
<path fill="none" stroke="#6666ff" d="M94.77,-35.59C105.52,-45.12 119.14,-57.19 130.71,-67.44"/>
<polygon fill="#6666ff" stroke="#6666ff" points="128.53,-70.18 138.34,-74.2 133.17,-64.94 128.53,-70.18"/>
</g>
<!-- Mu -->
<g id="node2" class="node">
<title>Mu</title>
<g id="a_node2"><a xlink:href="/type/Mu" xlink:title="Mu">
<ellipse fill="none" stroke="#000000" cx="76.04" cy="-378" rx="27" ry="18"/>
<text text-anchor="middle" x="76.04" y="-374.3" font-family="FreeSans" font-size="14.00" fill="#000000">Mu</text>
</a>
</g>
</g>
<!-- Any -->
<g id="node3" class="node">
<title>Any</title>
<g id="a_node3"><a xlink:href="/type/Any" xlink:title="Any">
<ellipse fill="none" stroke="#000000" cx="76.04" cy="-306" rx="28.7" ry="18"/>
<text text-anchor="middle" x="76.04" y="-302.3" font-family="FreeSans" font-size="14.00" fill="#000000">Any</text>
</a>
</g>
</g>
<!-- Any&#45;&gt;Mu -->
<g id="edge4" class="edge">
<title>Any&#45;&gt;Mu</title>
<path fill="none" stroke="#000000" d="M76.04,-324.3C76.04,-332.02 76.04,-341.29 76.04,-349.89"/>
<polygon fill="#000000" stroke="#000000" points="72.54,-349.9 76.04,-359.9 79.54,-349.9 72.54,-349.9"/>
</g>
<!-- Exception&#45;&gt;Any -->
<g id="edge5" class="edge">
<title>Exception&#45;&gt;Any</title>
<path fill="none" stroke="#000000" d="M76.04,-252.3C76.04,-260.02 76.04,-269.29 76.04,-277.89"/>
<polygon fill="#000000" stroke="#000000" points="72.54,-277.9 76.04,-287.9 79.54,-277.9 72.54,-277.9"/>
</g>
<!-- X::OS -->
<g id="node5" class="node">
<title>X::OS</title>
<g id="a_node5"><a xlink:href="/type/X::OS" xlink:title="X::OS">
<ellipse fill="none" stroke="#6666ff" cx="196.04" cy="-162" rx="36.29" ry="18"/>
<text text-anchor="middle" x="196.04" y="-158.3" font-family="FreeSans" font-size="14.00" fill="#6666ff">X::OS</text>
</a>
</g>
</g>
<!-- X::OS&#45;&gt;Exception -->
<g id="edge6" class="edge">
<title>X::OS&#45;&gt;Exception</title>
<path fill="none" stroke="#000000" d="M173.47,-176.17C155.81,-186.47 130.94,-200.98 110.75,-212.75"/>
<polygon fill="#000000" stroke="#000000" points="108.72,-209.89 101.85,-217.95 112.25,-215.93 108.72,-209.89"/>
</g>
<!-- X::IO&#45;&gt;Exception -->
<g id="edge7" class="edge">
<title>X::IO&#45;&gt;Exception</title>
<path fill="none" stroke="#000000" d="M146.2,-107.74C132.59,-133.52 108.04,-180 108.04,-180 108.04,-180 99.63,-193.93 91.43,-207.51"/>
<polygon fill="#000000" stroke="#000000" points="88.34,-205.86 86.17,-216.23 94.33,-209.48 88.34,-205.86"/>
</g>
<!-- X::IO&#45;&gt;X::OS -->
<g id="edge9" class="edge">
<title>X::IO&#45;&gt;X::OS</title>
<path fill="none" stroke="#6666ff" d="M164.76,-107.59C169.66,-115.96 175.71,-126.29 181.18,-135.63"/>
<polygon fill="#6666ff" stroke="#6666ff" points="178.32,-137.67 186.4,-144.53 184.36,-134.13 178.32,-137.67"/>
</g>
</g>
</svg>
