<?xml version="1.0" encoding="UTF-8" standalone="no"?>
<!DOCTYPE svg PUBLIC "-//W3C//DTD SVG 1.1//EN"
 "http://www.w3.org/Graphics/SVG/1.1/DTD/svg11.dtd">
<!-- Generated by graphviz version 2.42.3 (0)
 -->
<!-- Title: perl6&#45;type&#45;graph Pages: 1 -->
<svg width="1017pt" height="111pt"
 viewBox="0.00 0.00 1017.10 110.60" xmlns="http://www.w3.org/2000/svg" xmlns:xlink="http://www.w3.org/1999/xlink">
<g id="graph0" class="graph" transform="scale(1 1) rotate(0) translate(4 106.6)">
<title>perl6&#45;type&#45;graph</title>
<polygon fill="white" stroke="transparent" points="-4,4 -4,-106.6 1013.1,-106.6 1013.1,4 -4,4"/>
<!-- Metamodel::WrapDispatcher -->
<g id="node1" class="node">
<title>Metamodel::WrapDispatcher</title>
<g id="a_node1"><a xlink:href="/type/Metamodel::WrapDispatcher" xlink:title="Metamodel::WrapDispatcher">
<ellipse fill="none" stroke="#000000" cx="138.44" cy="-72.23" rx="138.38" ry="18"/>
<text text-anchor="middle" x="138.44" y="-68.53" font-family="FreeSans" font-size="14.00" fill="#000000">Metamodel::WrapDispatcher</text>
</a>
</g>
</g>
<!-- Metamodel::BaseDispatcher -->
<g id="node4" class="node">
<title>Metamodel::BaseDispatcher</title>
<g id="a_node4"><a xlink:href="/type/Metamodel::BaseDispatcher" xlink:title="Metamodel::BaseDispatcher">
<ellipse fill="none" stroke="#000000" cx="422.04" cy="-84.6" rx="137.28" ry="18"/>
<text text-anchor="middle" x="422.04" y="-80.9" font-family="FreeSans" font-size="14.00" fill="#000000">Metamodel::BaseDispatcher</text>
</a>
</g>
</g>
<!-- Metamodel::WrapDispatcher&#45;&gt;Metamodel::BaseDispatcher -->
<g id="edge1" class="edge">
<title>Metamodel::WrapDispatcher&#45;&gt;Metamodel::BaseDispatcher</title>
<path fill="none" stroke="#000000" d="M269.86,-77.96C273.71,-78.13 277.57,-78.3 281.43,-78.47"/>
<polygon fill="#000000" stroke="#000000" points="281.49,-81.97 291.63,-78.91 281.79,-74.98 281.49,-81.97"/>
</g>
<!-- Mu -->
<g id="node2" class="node">
<title>Mu</title>
<g id="a_node2"><a xlink:href="/type/Mu" xlink:title="Mu">
<ellipse fill="none" stroke="#000000" cx="982.1" cy="-18" rx="27" ry="18"/>
<text text-anchor="middle" x="982.1" y="-14.3" font-family="FreeSans" font-size="14.00" fill="#000000">Mu</text>
</a>
</g>
</g>
<!-- Any -->
<g id="node3" class="node">
<title>Any</title>
<g id="a_node3"><a xlink:href="/type/Any" xlink:title="Any">
<ellipse fill="none" stroke="#000000" cx="698.55" cy="-18.41" rx="28.7" ry="18"/>
<text text-anchor="middle" x="698.55" y="-14.71" font-family="FreeSans" font-size="14.00" fill="#000000">Any</text>
</a>
</g>
</g>
<!-- Any&#45;&gt;Mu -->
<g id="edge2" class="edge">
<title>Any&#45;&gt;Mu</title>
<path fill="none" stroke="#000000" d="M727.3,-18.37C778.99,-18.29 887.57,-18.14 944.87,-18.05"/>
<polygon fill="#000000" stroke="#000000" points="944.95,-21.55 954.94,-18.04 944.94,-14.55 944.95,-21.55"/>
</g>
<!-- Metamodel::BaseDispatcher&#45;&gt;Any -->
<g id="edge3" class="edge">
<title>Metamodel::BaseDispatcher&#45;&gt;Any</title>
<path fill="none" stroke="#000000" d="M488.27,-68.74C542.67,-55.72 617.71,-37.76 661.88,-27.19"/>
<polygon fill="#000000" stroke="#000000" points="662.7,-30.59 671.61,-24.86 661.07,-23.78 662.7,-30.59"/>
</g>
</g>
</svg>
