<?xml version="1.0" encoding="UTF-8" standalone="no"?>
<!DOCTYPE svg PUBLIC "-//W3C//DTD SVG 1.1//EN"
 "http://www.w3.org/Graphics/SVG/1.1/DTD/svg11.dtd">
<!-- Generated by graphviz version 2.42.3 (0)
 -->
<!-- Title: perl6&#45;type&#45;graph Pages: 1 -->
<svg width="240pt" height="404pt"
 viewBox="0.00 0.00 239.94 404.00" xmlns="http://www.w3.org/2000/svg" xmlns:xlink="http://www.w3.org/1999/xlink">
<g id="graph0" class="graph" transform="scale(1 1) rotate(0) translate(4 400)">
<title>perl6&#45;type&#45;graph</title>
<polygon fill="white" stroke="transparent" points="-4,4 -4,-400 235.94,-400 235.94,4 -4,4"/>
<!-- X::Syntax::Malformed -->
<g id="node1" class="node">
<title>X::Syntax::Malformed</title>
<g id="a_node1"><a xlink:href="/type/X::Syntax::Malformed" xlink:title="X::Syntax::Malformed">
<ellipse fill="none" stroke="#000000" cx="108.54" cy="-18" rx="108.58" ry="18"/>
<text text-anchor="middle" x="108.54" y="-14.3" font-family="FreeSans" font-size="14.00" fill="#000000">X::Syntax::Malformed</text>
</a>
</g>
</g>
<!-- Exception -->
<g id="node4" class="node">
<title>Exception</title>
<g id="a_node4"><a xlink:href="/type/Exception" xlink:title="Exception">
<ellipse fill="none" stroke="#000000" cx="105.54" cy="-234" rx="55.49" ry="18"/>
<text text-anchor="middle" x="105.54" y="-230.3" font-family="FreeSans" font-size="14.00" fill="#000000">Exception</text>
</a>
</g>
</g>
<!-- X::Syntax::Malformed&#45;&gt;Exception -->
<g id="edge1" class="edge">
<title>X::Syntax::Malformed&#45;&gt;Exception</title>
<path fill="none" stroke="#000000" d="M101.46,-36.06C95.03,-51.55 86.54,-72 86.54,-72 86.54,-72 86.54,-108 86.54,-108 86.54,-108 95.81,-169.01 101.4,-205.78"/>
<polygon fill="#000000" stroke="#000000" points="97.98,-206.52 102.94,-215.88 104.9,-205.47 97.98,-206.52"/>
</g>
<!-- X::Syntax -->
<g id="node6" class="node">
<title>X::Syntax</title>
<g id="a_node6"><a xlink:href="/type/X::Syntax" xlink:title="X::Syntax">
<ellipse fill="none" stroke="#6666ff" cx="149.54" cy="-90" rx="53.89" ry="18"/>
<text text-anchor="middle" x="149.54" y="-86.3" font-family="FreeSans" font-size="14.00" fill="#6666ff">X::Syntax</text>
</a>
</g>
</g>
<!-- X::Syntax::Malformed&#45;&gt;X::Syntax -->
<g id="edge6" class="edge">
<title>X::Syntax::Malformed&#45;&gt;X::Syntax</title>
<path fill="none" stroke="#6666ff" d="M118.47,-35.95C123.3,-44.2 129.22,-54.3 134.58,-63.46"/>
<polygon fill="#6666ff" stroke="#6666ff" points="131.63,-65.35 139.71,-72.21 137.67,-61.81 131.63,-65.35"/>
</g>
<!-- Mu -->
<g id="node2" class="node">
<title>Mu</title>
<g id="a_node2"><a xlink:href="/type/Mu" xlink:title="Mu">
<ellipse fill="none" stroke="#000000" cx="105.54" cy="-378" rx="27" ry="18"/>
<text text-anchor="middle" x="105.54" y="-374.3" font-family="FreeSans" font-size="14.00" fill="#000000">Mu</text>
</a>
</g>
</g>
<!-- Any -->
<g id="node3" class="node">
<title>Any</title>
<g id="a_node3"><a xlink:href="/type/Any" xlink:title="Any">
<ellipse fill="none" stroke="#000000" cx="105.54" cy="-306" rx="28.7" ry="18"/>
<text text-anchor="middle" x="105.54" y="-302.3" font-family="FreeSans" font-size="14.00" fill="#000000">Any</text>
</a>
</g>
</g>
<!-- Any&#45;&gt;Mu -->
<g id="edge2" class="edge">
<title>Any&#45;&gt;Mu</title>
<path fill="none" stroke="#000000" d="M105.54,-324.3C105.54,-332.02 105.54,-341.29 105.54,-349.89"/>
<polygon fill="#000000" stroke="#000000" points="102.04,-349.9 105.54,-359.9 109.04,-349.9 102.04,-349.9"/>
</g>
<!-- Exception&#45;&gt;Any -->
<g id="edge3" class="edge">
<title>Exception&#45;&gt;Any</title>
<path fill="none" stroke="#000000" d="M105.54,-252.3C105.54,-260.02 105.54,-269.29 105.54,-277.89"/>
<polygon fill="#000000" stroke="#000000" points="102.04,-277.9 105.54,-287.9 109.04,-277.9 102.04,-277.9"/>
</g>
<!-- X::Comp -->
<g id="node5" class="node">
<title>X::Comp</title>
<g id="a_node5"><a xlink:href="/type/X::Comp" xlink:title="X::Comp">
<ellipse fill="none" stroke="#6666ff" cx="182.54" cy="-162" rx="49.29" ry="18"/>
<text text-anchor="middle" x="182.54" y="-158.3" font-family="FreeSans" font-size="14.00" fill="#6666ff">X::Comp</text>
</a>
</g>
</g>
<!-- X::Comp&#45;&gt;Exception -->
<g id="edge4" class="edge">
<title>X::Comp&#45;&gt;Exception</title>
<path fill="none" stroke="#000000" d="M165.07,-178.88C154.9,-188.13 141.91,-199.93 130.66,-210.16"/>
<polygon fill="#000000" stroke="#000000" points="128.26,-207.62 123.21,-216.94 132.96,-212.8 128.26,-207.62"/>
</g>
<!-- X::Syntax&#45;&gt;Exception -->
<g id="edge5" class="edge">
<title>X::Syntax&#45;&gt;Exception</title>
<path fill="none" stroke="#000000" d="M141.49,-108.06C134.18,-123.55 124.54,-144 124.54,-144 124.54,-144 116.89,-179.83 111.3,-206.03"/>
<polygon fill="#000000" stroke="#000000" points="107.87,-205.33 109.2,-215.84 114.71,-206.79 107.87,-205.33"/>
</g>
<!-- X::Syntax&#45;&gt;X::Comp -->
<g id="edge7" class="edge">
<title>X::Syntax&#45;&gt;X::Comp</title>
<path fill="none" stroke="#6666ff" d="M157.53,-107.95C161.34,-116.03 165.98,-125.88 170.23,-134.89"/>
<polygon fill="#6666ff" stroke="#6666ff" points="167.2,-136.66 174.63,-144.21 173.53,-133.67 167.2,-136.66"/>
</g>
</g>
</svg>
