<?xml version="1.0" encoding="UTF-8" standalone="no"?>
<!DOCTYPE svg PUBLIC "-//W3C//DTD SVG 1.1//EN"
 "http://www.w3.org/Graphics/SVG/1.1/DTD/svg11.dtd">
<!-- Generated by graphviz version 2.42.3 (0)
 -->
<!-- Title: perl6&#45;type&#45;graph Pages: 1 -->
<svg width="322pt" height="260pt"
 viewBox="0.00 0.00 321.64 260.00" xmlns="http://www.w3.org/2000/svg" xmlns:xlink="http://www.w3.org/1999/xlink">
<g id="graph0" class="graph" transform="scale(1 1) rotate(0) translate(4 256)">
<title>perl6&#45;type&#45;graph</title>
<polygon fill="white" stroke="transparent" points="-4,4 -4,-256 317.64,-256 317.64,4 -4,4"/>
<!-- Uni -->
<g id="node1" class="node">
<title>Uni</title>
<g id="a_node1"><a xlink:href="/type/Uni" xlink:title="Uni">
<ellipse fill="none" stroke="#000000" cx="147.9" cy="-90" rx="27" ry="18"/>
<text text-anchor="middle" x="147.9" y="-86.3" font-family="FreeSans" font-size="14.00" fill="#000000">Uni</text>
</a>
</g>
</g>
<!-- Any -->
<g id="node3" class="node">
<title>Any</title>
<g id="a_node3"><a xlink:href="/type/Any" xlink:title="Any">
<ellipse fill="none" stroke="#000000" cx="46.9" cy="-162" rx="28.7" ry="18"/>
<text text-anchor="middle" x="46.9" y="-158.3" font-family="FreeSans" font-size="14.00" fill="#000000">Any</text>
</a>
</g>
</g>
<!-- Uni&#45;&gt;Any -->
<g id="edge1" class="edge">
<title>Uni&#45;&gt;Any</title>
<path fill="none" stroke="#000000" d="M129.84,-103.51C114.24,-114.33 91.47,-130.11 73.73,-142.4"/>
<polygon fill="#000000" stroke="#000000" points="71.71,-139.55 65.48,-148.12 75.69,-145.3 71.71,-139.55"/>
</g>
<!-- Positional -->
<g id="node4" class="node">
<title>Positional</title>
<g id="a_node4"><a xlink:href="/type/Positional" xlink:title="Positional">
<ellipse fill="none" stroke="#6666ff" cx="147.9" cy="-162" rx="53.89" ry="18"/>
<text text-anchor="middle" x="147.9" y="-158.3" font-family="FreeSans" font-size="14.00" fill="#6666ff">Positional</text>
</a>
</g>
</g>
<!-- Uni&#45;&gt;Positional -->
<g id="edge7" class="edge">
<title>Uni&#45;&gt;Positional</title>
<path fill="none" stroke="#6666ff" d="M147.9,-108.3C147.9,-116.02 147.9,-125.29 147.9,-133.89"/>
<polygon fill="#6666ff" stroke="#6666ff" points="144.4,-133.9 147.9,-143.9 151.4,-133.9 144.4,-133.9"/>
</g>
<!-- Stringy -->
<g id="node5" class="node">
<title>Stringy</title>
<g id="a_node5"><a xlink:href="/type/Stringy" xlink:title="Stringy">
<ellipse fill="none" stroke="#6666ff" cx="262.9" cy="-162" rx="43.59" ry="18"/>
<text text-anchor="middle" x="262.9" y="-158.3" font-family="FreeSans" font-size="14.00" fill="#6666ff">Stringy</text>
</a>
</g>
</g>
<!-- Uni&#45;&gt;Stringy -->
<g id="edge8" class="edge">
<title>Uni&#45;&gt;Stringy</title>
<path fill="none" stroke="#6666ff" d="M167.15,-102.72C184.41,-113.23 210.1,-128.86 230.52,-141.29"/>
<polygon fill="#6666ff" stroke="#6666ff" points="228.84,-144.37 239.2,-146.58 232.48,-138.39 228.84,-144.37"/>
</g>
<!-- Mu -->
<g id="node2" class="node">
<title>Mu</title>
<g id="a_node2"><a xlink:href="/type/Mu" xlink:title="Mu">
<ellipse fill="none" stroke="#000000" cx="46.9" cy="-234" rx="27" ry="18"/>
<text text-anchor="middle" x="46.9" y="-230.3" font-family="FreeSans" font-size="14.00" fill="#000000">Mu</text>
</a>
</g>
</g>
<!-- Any&#45;&gt;Mu -->
<g id="edge2" class="edge">
<title>Any&#45;&gt;Mu</title>
<path fill="none" stroke="#000000" d="M46.9,-180.3C46.9,-188.02 46.9,-197.29 46.9,-205.89"/>
<polygon fill="#000000" stroke="#000000" points="43.4,-205.9 46.9,-215.9 50.4,-205.9 43.4,-205.9"/>
</g>
<!-- NFD -->
<g id="node6" class="node">
<title>NFD</title>
<g id="a_node6"><a xlink:href="/type/NFD" xlink:title="NFD">
<ellipse fill="none" stroke="#000000" cx="29.9" cy="-18" rx="29.8" ry="18"/>
<text text-anchor="middle" x="29.9" y="-14.3" font-family="FreeSans" font-size="14.00" fill="#000000">NFD</text>
</a>
</g>
</g>
<!-- NFD&#45;&gt;Uni -->
<g id="edge3" class="edge">
<title>NFD&#45;&gt;Uni</title>
<path fill="none" stroke="#000000" d="M50.45,-31.19C69.63,-42.57 98.42,-59.65 119.73,-72.29"/>
<polygon fill="#000000" stroke="#000000" points="117.98,-75.32 128.36,-77.41 121.55,-69.3 117.98,-75.32"/>
</g>
<!-- NFC -->
<g id="node7" class="node">
<title>NFC</title>
<g id="a_node7"><a xlink:href="/type/NFC" xlink:title="NFC">
<ellipse fill="none" stroke="#000000" cx="106.9" cy="-18" rx="29.5" ry="18"/>
<text text-anchor="middle" x="106.9" y="-14.3" font-family="FreeSans" font-size="14.00" fill="#000000">NFC</text>
</a>
</g>
</g>
<!-- NFC&#45;&gt;Uni -->
<g id="edge4" class="edge">
<title>NFC&#45;&gt;Uni</title>
<path fill="none" stroke="#000000" d="M116.41,-35.24C121.43,-43.81 127.69,-54.51 133.31,-64.1"/>
<polygon fill="#000000" stroke="#000000" points="130.37,-65.99 138.44,-72.85 136.41,-62.45 130.37,-65.99"/>
</g>
<!-- NFKC -->
<g id="node8" class="node">
<title>NFKC</title>
<g id="a_node8"><a xlink:href="/type/NFKC" xlink:title="NFKC">
<ellipse fill="none" stroke="#000000" cx="188.9" cy="-18" rx="35.19" ry="18"/>
<text text-anchor="middle" x="188.9" y="-14.3" font-family="FreeSans" font-size="14.00" fill="#000000">NFKC</text>
</a>
</g>
</g>
<!-- NFKC&#45;&gt;Uni -->
<g id="edge5" class="edge">
<title>NFKC&#45;&gt;Uni</title>
<path fill="none" stroke="#000000" d="M179.18,-35.59C174.16,-44.17 167.92,-54.81 162.35,-64.33"/>
<polygon fill="#000000" stroke="#000000" points="159.3,-62.61 157.26,-73.01 165.34,-66.15 159.3,-62.61"/>
</g>
<!-- NFKD -->
<g id="node9" class="node">
<title>NFKD</title>
<g id="a_node9"><a xlink:href="/type/NFKD" xlink:title="NFKD">
<ellipse fill="none" stroke="#000000" cx="277.9" cy="-18" rx="36" ry="18"/>
<text text-anchor="middle" x="277.9" y="-14.3" font-family="FreeSans" font-size="14.00" fill="#000000">NFKD</text>
</a>
</g>
</g>
<!-- NFKD&#45;&gt;Uni -->
<g id="edge6" class="edge">
<title>NFKD&#45;&gt;Uni</title>
<path fill="none" stroke="#000000" d="M254.36,-31.68C232.75,-43.31 200.65,-60.59 177.35,-73.14"/>
<polygon fill="#000000" stroke="#000000" points="175.42,-70.21 168.27,-78.03 178.74,-76.37 175.42,-70.21"/>
</g>
</g>
</svg>
