<?xml version="1.0" encoding="UTF-8" standalone="no"?>
<!DOCTYPE svg PUBLIC "-//W3C//DTD SVG 1.1//EN"
 "http://www.w3.org/Graphics/SVG/1.1/DTD/svg11.dtd">
<!-- Generated by graphviz version 2.42.3 (0)
 -->
<!-- Title: perl6&#45;type&#45;graph Pages: 1 -->
<svg width="222pt" height="404pt"
 viewBox="0.00 0.00 222.24 404.00" xmlns="http://www.w3.org/2000/svg" xmlns:xlink="http://www.w3.org/1999/xlink">
<g id="graph0" class="graph" transform="scale(1 1) rotate(0) translate(4 400)">
<title>perl6&#45;type&#45;graph</title>
<polygon fill="white" stroke="transparent" points="-4,4 -4,-400 218.24,-400 218.24,4 -4,4"/>
<!-- X::IO::Link -->
<g id="node1" class="node">
<title>X::IO::Link</title>
<g id="a_node1"><a xlink:href="/type/X::IO::Link" xlink:title="X::IO::Link">
<ellipse fill="none" stroke="#000000" cx="57.84" cy="-18" rx="57.69" ry="18"/>
<text text-anchor="middle" x="57.84" y="-14.3" font-family="FreeSans" font-size="14.00" fill="#000000">X::IO::Link</text>
</a>
</g>
</g>
<!-- Exception -->
<g id="node4" class="node">
<title>Exception</title>
<g id="a_node4"><a xlink:href="/type/Exception" xlink:title="Exception">
<ellipse fill="none" stroke="#000000" cx="57.84" cy="-234" rx="55.49" ry="18"/>
<text text-anchor="middle" x="57.84" y="-230.3" font-family="FreeSans" font-size="14.00" fill="#000000">Exception</text>
</a>
</g>
</g>
<!-- X::IO::Link&#45;&gt;Exception -->
<g id="edge1" class="edge">
<title>X::IO::Link&#45;&gt;Exception</title>
<path fill="none" stroke="#000000" d="M50.09,-36.15C43,-73.26 42.47,-161.25 48.51,-205.95"/>
<polygon fill="#000000" stroke="#000000" points="45.09,-206.75 50.13,-216.06 52,-205.64 45.09,-206.75"/>
</g>
<!-- X::IO::Link&#45;&gt;Exception -->
<g id="edge2" class="edge">
<title>X::IO::Link&#45;&gt;Exception</title>
<path fill="none" stroke="#000000" d="M57.84,-36.15C57.84,-73.17 57.84,-160.82 57.84,-205.61"/>
<polygon fill="#000000" stroke="#000000" points="54.34,-205.77 57.84,-215.77 61.34,-205.77 54.34,-205.77"/>
</g>
<!-- X::IO::Link&#45;&gt;Exception -->
<g id="edge3" class="edge">
<title>X::IO::Link&#45;&gt;Exception</title>
<path fill="none" stroke="#000000" d="M65.6,-36.15C72.69,-73.26 73.22,-161.25 67.18,-205.95"/>
<polygon fill="#000000" stroke="#000000" points="63.69,-205.64 65.56,-216.06 70.6,-206.75 63.69,-205.64"/>
</g>
<!-- X::IO -->
<g id="node6" class="node">
<title>X::IO</title>
<g id="a_node6"><a xlink:href="/type/X::IO" xlink:title="X::IO">
<ellipse fill="none" stroke="#6666ff" cx="136.84" cy="-90" rx="33.29" ry="18"/>
<text text-anchor="middle" x="136.84" y="-86.3" font-family="FreeSans" font-size="14.00" fill="#6666ff">X::IO</text>
</a>
</g>
</g>
<!-- X::IO::Link&#45;&gt;X::IO -->
<g id="edge8" class="edge">
<title>X::IO::Link&#45;&gt;X::IO</title>
<path fill="none" stroke="#6666ff" d="M76.17,-35.24C86.98,-44.82 100.8,-57.06 112.52,-67.45"/>
<polygon fill="#6666ff" stroke="#6666ff" points="110.43,-70.27 120.24,-74.28 115.07,-65.03 110.43,-70.27"/>
</g>
<!-- Mu -->
<g id="node2" class="node">
<title>Mu</title>
<g id="a_node2"><a xlink:href="/type/Mu" xlink:title="Mu">
<ellipse fill="none" stroke="#000000" cx="57.84" cy="-378" rx="27" ry="18"/>
<text text-anchor="middle" x="57.84" y="-374.3" font-family="FreeSans" font-size="14.00" fill="#000000">Mu</text>
</a>
</g>
</g>
<!-- Any -->
<g id="node3" class="node">
<title>Any</title>
<g id="a_node3"><a xlink:href="/type/Any" xlink:title="Any">
<ellipse fill="none" stroke="#000000" cx="57.84" cy="-306" rx="28.7" ry="18"/>
<text text-anchor="middle" x="57.84" y="-302.3" font-family="FreeSans" font-size="14.00" fill="#000000">Any</text>
</a>
</g>
</g>
<!-- Any&#45;&gt;Mu -->
<g id="edge4" class="edge">
<title>Any&#45;&gt;Mu</title>
<path fill="none" stroke="#000000" d="M57.84,-324.3C57.84,-332.02 57.84,-341.29 57.84,-349.89"/>
<polygon fill="#000000" stroke="#000000" points="54.34,-349.9 57.84,-359.9 61.34,-349.9 54.34,-349.9"/>
</g>
<!-- Exception&#45;&gt;Any -->
<g id="edge5" class="edge">
<title>Exception&#45;&gt;Any</title>
<path fill="none" stroke="#000000" d="M57.84,-252.3C57.84,-260.02 57.84,-269.29 57.84,-277.89"/>
<polygon fill="#000000" stroke="#000000" points="54.34,-277.9 57.84,-287.9 61.34,-277.9 54.34,-277.9"/>
</g>
<!-- X::OS -->
<g id="node5" class="node">
<title>X::OS</title>
<g id="a_node5"><a xlink:href="/type/X::OS" xlink:title="X::OS">
<ellipse fill="none" stroke="#6666ff" cx="177.84" cy="-162" rx="36.29" ry="18"/>
<text text-anchor="middle" x="177.84" y="-158.3" font-family="FreeSans" font-size="14.00" fill="#6666ff">X::OS</text>
</a>
</g>
</g>
<!-- X::OS&#45;&gt;Exception -->
<g id="edge6" class="edge">
<title>X::OS&#45;&gt;Exception</title>
<path fill="none" stroke="#000000" d="M155.27,-176.17C137.61,-186.47 112.74,-200.98 92.55,-212.75"/>
<polygon fill="#000000" stroke="#000000" points="90.52,-209.89 83.65,-217.95 94.05,-215.93 90.52,-209.89"/>
</g>
<!-- X::IO&#45;&gt;Exception -->
<g id="edge7" class="edge">
<title>X::IO&#45;&gt;Exception</title>
<path fill="none" stroke="#000000" d="M128,-107.74C114.39,-133.52 89.84,-180 89.84,-180 89.84,-180 81.43,-193.93 73.24,-207.51"/>
<polygon fill="#000000" stroke="#000000" points="70.14,-205.86 67.97,-216.23 76.13,-209.48 70.14,-205.86"/>
</g>
<!-- X::IO&#45;&gt;X::OS -->
<g id="edge9" class="edge">
<title>X::IO&#45;&gt;X::OS</title>
<path fill="none" stroke="#6666ff" d="M146.56,-107.59C151.46,-115.96 157.51,-126.29 162.99,-135.63"/>
<polygon fill="#6666ff" stroke="#6666ff" points="160.12,-137.67 168.2,-144.53 166.16,-134.13 160.12,-137.67"/>
</g>
</g>
</svg>
