<?xml version="1.0" encoding="UTF-8" standalone="no"?>
<!DOCTYPE svg PUBLIC "-//W3C//DTD SVG 1.1//EN"
 "http://www.w3.org/Graphics/SVG/1.1/DTD/svg11.dtd">
<!-- Generated by graphviz version 2.42.3 (0)
 -->
<!-- Title: perl6&#45;type&#45;graph Pages: 1 -->
<svg width="2074pt" height="1758pt"
 viewBox="0.00 0.00 2074.00 1758.10" xmlns="http://www.w3.org/2000/svg" xmlns:xlink="http://www.w3.org/1999/xlink">
<g id="graph0" class="graph" transform="scale(1 1) rotate(0) translate(4 1754.1)">
<title>perl6&#45;type&#45;graph</title>
<polygon fill="white" stroke="transparent" points="-4,4 -4,-1754.1 2070,-1754.1 2070,4 -4,4"/>
<!-- Metamodel::Mixins -->
<g id="node1" class="node">
<title>Metamodel::Mixins</title>
<g id="a_node1"><a xlink:href="/type/Metamodel::Mixins" xlink:title="Metamodel::Mixins">
<ellipse fill="none" stroke="#6666ff" cx="721.44" cy="-705.05" rx="94.78" ry="18"/>
<text text-anchor="middle" x="721.44" y="-701.35" font-family="FreeSans" font-size="14.00" fill="#6666ff">Metamodel::Mixins</text>
</a>
</g>
</g>
<!-- Mu -->
<g id="node2" class="node">
<title>Mu</title>
<g id="a_node2"><a xlink:href="/type/Mu" xlink:title="Mu">
<ellipse fill="none" stroke="#000000" cx="1594.56" cy="-18" rx="27" ry="18"/>
<text text-anchor="middle" x="1594.56" y="-14.3" font-family="FreeSans" font-size="14.00" fill="#000000">Mu</text>
</a>
</g>
</g>
<!-- Any -->
<g id="node3" class="node">
<title>Any</title>
<g id="a_node3"><a xlink:href="/type/Any" xlink:title="Any">
<ellipse fill="none" stroke="#000000" cx="1277.85" cy="-524.46" rx="28.7" ry="18"/>
<text text-anchor="middle" x="1277.85" y="-520.76" font-family="FreeSans" font-size="14.00" fill="#000000">Any</text>
</a>
</g>
</g>
<!-- Any&#45;&gt;Mu -->
<g id="edge1" class="edge">
<title>Any&#45;&gt;Mu</title>
<path fill="none" stroke="#000000" d="M1288.38,-507.61C1334.98,-433.1 1522.69,-132.93 1578.7,-43.36"/>
<polygon fill="#000000" stroke="#000000" points="1581.81,-44.99 1584.14,-34.66 1575.87,-41.28 1581.81,-44.99"/>
</g>
<!-- Metamodel::Naming -->
<g id="node4" class="node">
<title>Metamodel::Naming</title>
<g id="a_node4"><a xlink:href="/type/Metamodel::Naming" xlink:title="Metamodel::Naming">
<ellipse fill="none" stroke="#6666ff" cx="949.42" cy="-1720.24" rx="101.28" ry="18"/>
<text text-anchor="middle" x="949.42" y="-1716.54" font-family="FreeSans" font-size="14.00" fill="#6666ff">Metamodel::Naming</text>
</a>
</g>
</g>
<!-- Metamodel::Documenting -->
<g id="node5" class="node">
<title>Metamodel::Documenting</title>
<g id="a_node5"><a xlink:href="/type/Metamodel::Documenting" xlink:title="Metamodel::Documenting">
<ellipse fill="none" stroke="#6666ff" cx="1396.52" cy="-1581.06" rx="126.98" ry="18"/>
<text text-anchor="middle" x="1396.52" y="-1577.36" font-family="FreeSans" font-size="14.00" fill="#6666ff">Metamodel::Documenting</text>
</a>
</g>
</g>
<!-- Metamodel::Versioning -->
<g id="node6" class="node">
<title>Metamodel::Versioning</title>
<g id="a_node6"><a xlink:href="/type/Metamodel::Versioning" xlink:title="Metamodel::Versioning">
<ellipse fill="none" stroke="#6666ff" cx="121.26" cy="-1267.24" rx="114.28" ry="18"/>
<text text-anchor="middle" x="121.26" y="-1263.54" font-family="FreeSans" font-size="14.00" fill="#6666ff">Metamodel::Versioning</text>
</a>
</g>
</g>
<!-- Metamodel::Stashing -->
<g id="node7" class="node">
<title>Metamodel::Stashing</title>
<g id="a_node7"><a xlink:href="/type/Metamodel::Stashing" xlink:title="Metamodel::Stashing">
<ellipse fill="none" stroke="#6666ff" cx="881.61" cy="-507.65" rx="105.88" ry="18"/>
<text text-anchor="middle" x="881.61" y="-503.95" font-family="FreeSans" font-size="14.00" fill="#6666ff">Metamodel::Stashing</text>
</a>
</g>
</g>
<!-- Metamodel::AttributeContainer -->
<g id="node8" class="node">
<title>Metamodel::AttributeContainer</title>
<g id="a_node8"><a xlink:href="/type/Metamodel::AttributeContainer" xlink:title="Metamodel::AttributeContainer">
<ellipse fill="none" stroke="#6666ff" cx="1478.93" cy="-974.78" rx="150.27" ry="18"/>
<text text-anchor="middle" x="1478.93" y="-971.08" font-family="FreeSans" font-size="14.00" fill="#6666ff">Metamodel::AttributeContainer</text>
</a>
</g>
</g>
<!-- Metamodel::Finalization -->
<g id="node9" class="node">
<title>Metamodel::Finalization</title>
<g id="a_node9"><a xlink:href="/type/Metamodel::Finalization" xlink:title="Metamodel::Finalization">
<ellipse fill="none" stroke="#6666ff" cx="171.65" cy="-772.66" rx="116.98" ry="18"/>
<text text-anchor="middle" x="171.65" y="-768.96" font-family="FreeSans" font-size="14.00" fill="#6666ff">Metamodel::Finalization</text>
</a>
</g>
</g>
<!-- Metamodel::MethodContainer -->
<g id="node10" class="node">
<title>Metamodel::MethodContainer</title>
<g id="a_node10"><a xlink:href="/type/Metamodel::MethodContainer" xlink:title="Metamodel::MethodContainer">
<ellipse fill="none" stroke="#6666ff" cx="1057.89" cy="-604.02" rx="143.77" ry="18"/>
<text text-anchor="middle" x="1057.89" y="-600.32" font-family="FreeSans" font-size="14.00" fill="#6666ff">Metamodel::MethodContainer</text>
</a>
</g>
</g>
<!-- Metamodel::PrivateMethodContainer -->
<g id="node11" class="node">
<title>Metamodel::PrivateMethodContainer</title>
<g id="a_node11"><a xlink:href="/type/Metamodel::PrivateMethodContainer" xlink:title="Metamodel::PrivateMethodContainer">
<ellipse fill="none" stroke="#6666ff" cx="304.24" cy="-566.21" rx="174.67" ry="18"/>
<text text-anchor="middle" x="304.24" y="-562.51" font-family="FreeSans" font-size="14.00" fill="#6666ff">Metamodel::PrivateMethodContainer</text>
</a>
</g>
</g>
<!-- Metamodel::MultiMethodContainer -->
<g id="node12" class="node">
<title>Metamodel::MultiMethodContainer</title>
<g id="a_node12"><a xlink:href="/type/Metamodel::MultiMethodContainer" xlink:title="Metamodel::MultiMethodContainer">
<ellipse fill="none" stroke="#6666ff" cx="523.33" cy="-1155.77" rx="165.97" ry="18"/>
<text text-anchor="middle" x="523.33" y="-1152.07" font-family="FreeSans" font-size="14.00" fill="#6666ff">Metamodel::MultiMethodContainer</text>
</a>
</g>
</g>
<!-- Metamodel::RoleContainer -->
<g id="node13" class="node">
<title>Metamodel::RoleContainer</title>
<g id="a_node13"><a xlink:href="/type/Metamodel::RoleContainer" xlink:title="Metamodel::RoleContainer">
<ellipse fill="none" stroke="#6666ff" cx="1427.24" cy="-1301.67" rx="129.98" ry="18"/>
<text text-anchor="middle" x="1427.24" y="-1297.97" font-family="FreeSans" font-size="14.00" fill="#6666ff">Metamodel::RoleContainer</text>
</a>
</g>
</g>
<!-- Metamodel::MultipleInheritance -->
<g id="node14" class="node">
<title>Metamodel::MultipleInheritance</title>
<g id="a_node14"><a xlink:href="/type/Metamodel::MultipleInheritance" xlink:title="Metamodel::MultipleInheritance">
<ellipse fill="none" stroke="#6666ff" cx="456.49" cy="-1732.1" rx="153.27" ry="18"/>
<text text-anchor="middle" x="456.49" y="-1728.4" font-family="FreeSans" font-size="14.00" fill="#6666ff">Metamodel::MultipleInheritance</text>
</a>
</g>
</g>
<!-- Metamodel::DefaultParent -->
<g id="node15" class="node">
<title>Metamodel::DefaultParent</title>
<g id="a_node15"><a xlink:href="/type/Metamodel::DefaultParent" xlink:title="Metamodel::DefaultParent">
<ellipse fill="none" stroke="#6666ff" cx="236.72" cy="-1512.41" rx="128.08" ry="18"/>
<text text-anchor="middle" x="236.72" y="-1508.71" font-family="FreeSans" font-size="14.00" fill="#6666ff">Metamodel::DefaultParent</text>
</a>
</g>
</g>
<!-- Metamodel::C3MRO -->
<g id="node16" class="node">
<title>Metamodel::C3MRO</title>
<g id="a_node16"><a xlink:href="/type/Metamodel::C3MRO" xlink:title="Metamodel::C3MRO">
<ellipse fill="none" stroke="#6666ff" cx="520.51" cy="-390.44" rx="100.18" ry="18"/>
<text text-anchor="middle" x="520.51" y="-386.74" font-family="FreeSans" font-size="14.00" fill="#6666ff">Metamodel::C3MRO</text>
</a>
</g>
</g>
<!-- Metamodel::MROBasedMethodDispatch -->
<g id="node17" class="node">
<title>Metamodel::MROBasedMethodDispatch</title>
<g id="a_node17"><a xlink:href="/type/Metamodel::MROBasedMethodDispatch" xlink:title="Metamodel::MROBasedMethodDispatch">
<ellipse fill="none" stroke="#6666ff" cx="1336.87" cy="-767.54" rx="188.47" ry="18"/>
<text text-anchor="middle" x="1336.87" y="-763.84" font-family="FreeSans" font-size="14.00" fill="#6666ff">Metamodel::MROBasedMethodDispatch</text>
</a>
</g>
</g>
<!-- Metamodel::MROBasedTypeChecking -->
<g id="node18" class="node">
<title>Metamodel::MROBasedTypeChecking</title>
<g id="a_node18"><a xlink:href="/type/Metamodel::MROBasedTypeChecking" xlink:title="Metamodel::MROBasedTypeChecking">
<ellipse fill="none" stroke="#6666ff" cx="644.84" cy="-1495.76" rx="178.97" ry="18"/>
<text text-anchor="middle" x="644.84" y="-1492.06" font-family="FreeSans" font-size="14.00" fill="#6666ff">Metamodel::MROBasedTypeChecking</text>
</a>
</g>
</g>
<!-- Metamodel::Trusting -->
<g id="node19" class="node">
<title>Metamodel::Trusting</title>
<g id="a_node19"><a xlink:href="/type/Metamodel::Trusting" xlink:title="Metamodel::Trusting">
<ellipse fill="none" stroke="#6666ff" cx="102.69" cy="-1008.27" rx="102.88" ry="18"/>
<text text-anchor="middle" x="102.69" y="-1004.57" font-family="FreeSans" font-size="14.00" fill="#6666ff">Metamodel::Trusting</text>
</a>
</g>
</g>
<!-- Metamodel::BUILDPLAN -->
<g id="node20" class="node">
<title>Metamodel::BUILDPLAN</title>
<g id="a_node20"><a xlink:href="/type/Metamodel::BUILDPLAN" xlink:title="Metamodel::BUILDPLAN">
<ellipse fill="none" stroke="#6666ff" cx="949.9" cy="-1512.08" rx="118.08" ry="18"/>
<text text-anchor="middle" x="949.9" y="-1508.38" font-family="FreeSans" font-size="14.00" fill="#6666ff">Metamodel::BUILDPLAN</text>
</a>
</g>
</g>
<!-- Metamodel::BoolificationProtocol -->
<g id="node21" class="node">
<title>Metamodel::BoolificationProtocol</title>
<g id="a_node21"><a xlink:href="/type/Metamodel::BoolificationProtocol" xlink:title="Metamodel::BoolificationProtocol">
<ellipse fill="none" stroke="#6666ff" cx="1104.44" cy="-1568.62" rx="157.07" ry="18"/>
<text text-anchor="middle" x="1104.44" y="-1564.92" font-family="FreeSans" font-size="14.00" fill="#6666ff">Metamodel::BoolificationProtocol</text>
</a>
</g>
</g>
<!-- Metamodel::ClassHOW -->
<g id="node22" class="node">
<title>Metamodel::ClassHOW</title>
<g id="a_node22"><a xlink:href="/type/Metamodel::ClassHOW" xlink:title="Metamodel::ClassHOW">
<ellipse fill="none" stroke="#000000" cx="787.79" cy="-1066.02" rx="113.18" ry="18"/>
<text text-anchor="middle" x="787.79" y="-1062.32" font-family="FreeSans" font-size="14.00" fill="#000000">Metamodel::ClassHOW</text>
</a>
</g>
</g>
<!-- Metamodel::ClassHOW&#45;&gt;Metamodel::Mixins -->
<g id="edge21" class="edge">
<title>Metamodel::ClassHOW&#45;&gt;Metamodel::Mixins</title>
<path fill="none" stroke="#6666ff" d="M784.41,-1047.62C773.58,-988.73 739.72,-804.52 726.66,-733.44"/>
<polygon fill="#6666ff" stroke="#6666ff" points="730.06,-732.62 724.81,-723.41 723.18,-733.88 730.06,-732.62"/>
</g>
<!-- Metamodel::ClassHOW&#45;&gt;Any -->
<g id="edge2" class="edge">
<title>Metamodel::ClassHOW&#45;&gt;Any</title>
<path fill="none" stroke="#000000" d="M804.1,-1048C877.21,-967.21 1174.81,-638.32 1256.83,-547.69"/>
<polygon fill="#000000" stroke="#000000" points="1259.54,-549.91 1263.65,-540.15 1254.35,-545.21 1259.54,-549.91"/>
</g>
<!-- Metamodel::ClassHOW&#45;&gt;Metamodel::Naming -->
<g id="edge4" class="edge">
<title>Metamodel::ClassHOW&#45;&gt;Metamodel::Naming</title>
<path fill="none" stroke="#6666ff" d="M789.5,-1084.05C797.4,-1167.48 830.01,-1511.94 830.01,-1511.94 830.01,-1511.94 901.77,-1637.12 934.03,-1693.4"/>
<polygon fill="#6666ff" stroke="#6666ff" points="931.03,-1695.19 939.04,-1702.12 937.1,-1691.71 931.03,-1695.19"/>
</g>
<!-- Metamodel::ClassHOW&#45;&gt;Metamodel::Documenting -->
<g id="edge5" class="edge">
<title>Metamodel::ClassHOW&#45;&gt;Metamodel::Documenting</title>
<path fill="none" stroke="#6666ff" d="M808.75,-1083.75C899.92,-1160.9 1262.26,-1467.47 1367.63,-1556.62"/>
<polygon fill="#6666ff" stroke="#6666ff" points="1365.44,-1559.35 1375.34,-1563.14 1369.96,-1554.01 1365.44,-1559.35"/>
</g>
<!-- Metamodel::ClassHOW&#45;&gt;Metamodel::Versioning -->
<g id="edge6" class="edge">
<title>Metamodel::ClassHOW&#45;&gt;Metamodel::Versioning</title>
<path fill="none" stroke="#6666ff" d="M716.75,-1080.11C606.14,-1102.04 405.31,-1141.87 405.31,-1141.87 405.31,-1141.87 355.99,-1155.71 355.99,-1155.71 355.99,-1155.71 234.92,-1213.23 166.68,-1245.66"/>
<polygon fill="#6666ff" stroke="#6666ff" points="164.95,-1242.6 157.42,-1250.06 167.96,-1248.93 164.95,-1242.6"/>
</g>
<!-- Metamodel::ClassHOW&#45;&gt;Metamodel::Stashing -->
<g id="edge7" class="edge">
<title>Metamodel::ClassHOW&#45;&gt;Metamodel::Stashing</title>
<path fill="none" stroke="#6666ff" d="M790.86,-1047.76C804.57,-966.15 860.29,-634.55 876.91,-535.63"/>
<polygon fill="#6666ff" stroke="#6666ff" points="880.36,-536.21 878.57,-525.77 873.46,-535.05 880.36,-536.21"/>
</g>
<!-- Metamodel::ClassHOW&#45;&gt;Metamodel::AttributeContainer -->
<g id="edge8" class="edge">
<title>Metamodel::ClassHOW&#45;&gt;Metamodel::AttributeContainer</title>
<path fill="none" stroke="#6666ff" d="M874.97,-1054.51C1000.04,-1038 1230.37,-1007.59 1367.59,-989.48"/>
<polygon fill="#6666ff" stroke="#6666ff" points="1368.26,-992.92 1377.72,-988.14 1367.34,-985.98 1368.26,-992.92"/>
</g>
<!-- Metamodel::ClassHOW&#45;&gt;Metamodel::Finalization -->
<g id="edge9" class="edge">
<title>Metamodel::ClassHOW&#45;&gt;Metamodel::Finalization</title>
<path fill="none" stroke="#6666ff" d="M751.55,-1048.77C645.19,-998.12 334.03,-849.98 216.92,-794.22"/>
<polygon fill="#6666ff" stroke="#6666ff" points="218.38,-791.03 207.84,-789.89 215.37,-797.35 218.38,-791.03"/>
</g>
<!-- Metamodel::ClassHOW&#45;&gt;Metamodel::MethodContainer -->
<g id="edge10" class="edge">
<title>Metamodel::ClassHOW&#45;&gt;Metamodel::MethodContainer</title>
<path fill="none" stroke="#6666ff" d="M798.38,-1047.91C840.03,-976.68 992.7,-715.53 1042.25,-630.78"/>
<polygon fill="#6666ff" stroke="#6666ff" points="1045.35,-632.41 1047.37,-622.01 1039.3,-628.88 1045.35,-632.41"/>
</g>
<!-- Metamodel::ClassHOW&#45;&gt;Metamodel::PrivateMethodContainer -->
<g id="edge11" class="edge">
<title>Metamodel::ClassHOW&#45;&gt;Metamodel::PrivateMethodContainer</title>
<path fill="none" stroke="#6666ff" d="M770.3,-1047.94C696.99,-972.17 414.43,-680.11 328.91,-591.71"/>
<polygon fill="#6666ff" stroke="#6666ff" points="331.18,-589.03 321.71,-584.27 326.15,-593.89 331.18,-589.03"/>
</g>
<!-- Metamodel::ClassHOW&#45;&gt;Metamodel::MultiMethodContainer -->
<g id="edge12" class="edge">
<title>Metamodel::ClassHOW&#45;&gt;Metamodel::MultiMethodContainer</title>
<path fill="none" stroke="#6666ff" d="M739.59,-1082.38C695.69,-1097.28 630.68,-1119.34 583.4,-1135.38"/>
<polygon fill="#6666ff" stroke="#6666ff" points="582.24,-1132.08 573.9,-1138.6 584.49,-1138.71 582.24,-1132.08"/>
</g>
<!-- Metamodel::ClassHOW&#45;&gt;Metamodel::RoleContainer -->
<g id="edge13" class="edge">
<title>Metamodel::ClassHOW&#45;&gt;Metamodel::RoleContainer</title>
<path fill="none" stroke="#6666ff" d="M832.76,-1082.59C946.79,-1124.62 1247.05,-1235.27 1371.73,-1281.22"/>
<polygon fill="#6666ff" stroke="#6666ff" points="1370.88,-1284.63 1381.47,-1284.81 1373.3,-1278.06 1370.88,-1284.63"/>
</g>
<!-- Metamodel::ClassHOW&#45;&gt;Metamodel::MultipleInheritance -->
<g id="edge14" class="edge">
<title>Metamodel::ClassHOW&#45;&gt;Metamodel::MultipleInheritance</title>
<path fill="none" stroke="#6666ff" d="M774.31,-1083.94C713.13,-1165.27 464.51,-1495.74 464.51,-1495.74 464.51,-1495.74 459.57,-1641.27 457.44,-1703.95"/>
<polygon fill="#6666ff" stroke="#6666ff" points="453.94,-1703.83 457.1,-1713.95 460.94,-1704.07 453.94,-1703.83"/>
</g>
<!-- Metamodel::ClassHOW&#45;&gt;Metamodel::DefaultParent -->
<g id="edge15" class="edge">
<title>Metamodel::ClassHOW&#45;&gt;Metamodel::DefaultParent</title>
<path fill="none" stroke="#6666ff" d="M768.6,-1083.76C740.3,-1109.93 690.66,-1155.82 690.66,-1155.82 690.66,-1155.82 369.88,-1407.8 267.63,-1488.12"/>
<polygon fill="#6666ff" stroke="#6666ff" points="265.24,-1485.55 259.54,-1494.48 269.57,-1491.05 265.24,-1485.55"/>
</g>
<!-- Metamodel::ClassHOW&#45;&gt;Metamodel::C3MRO -->
<g id="edge16" class="edge">
<title>Metamodel::ClassHOW&#45;&gt;Metamodel::C3MRO</title>
<path fill="none" stroke="#6666ff" d="M779.49,-1047.62C746.31,-974.05 624.95,-704.99 624.95,-704.99 624.95,-704.99 555.26,-495.11 529.73,-418.23"/>
<polygon fill="#6666ff" stroke="#6666ff" points="533.04,-417.1 526.57,-408.71 526.4,-419.3 533.04,-417.1"/>
</g>
<!-- Metamodel::ClassHOW&#45;&gt;Metamodel::MROBasedMethodDispatch -->
<g id="edge17" class="edge">
<title>Metamodel::ClassHOW&#45;&gt;Metamodel::MROBasedMethodDispatch</title>
<path fill="none" stroke="#6666ff" d="M819.69,-1048.68C913.67,-997.6 1189.54,-847.63 1295.11,-790.24"/>
<polygon fill="#6666ff" stroke="#6666ff" points="1297.08,-793.15 1304.2,-785.3 1293.74,-787 1297.08,-793.15"/>
</g>
<!-- Metamodel::ClassHOW&#45;&gt;Metamodel::MROBasedTypeChecking -->
<g id="edge18" class="edge">
<title>Metamodel::ClassHOW&#45;&gt;Metamodel::MROBasedTypeChecking</title>
<path fill="none" stroke="#6666ff" d="M781.74,-1084.21C759.37,-1151.47 681.23,-1386.37 654.16,-1467.75"/>
<polygon fill="#6666ff" stroke="#6666ff" points="650.81,-1466.73 650.98,-1477.32 657.45,-1468.94 650.81,-1466.73"/>
</g>
<!-- Metamodel::ClassHOW&#45;&gt;Metamodel::Trusting -->
<g id="edge19" class="edge">
<title>Metamodel::ClassHOW&#45;&gt;Metamodel::Trusting</title>
<path fill="none" stroke="#6666ff" d="M687.81,-1057.59C558.86,-1046.72 335.72,-1027.91 205.44,-1016.93"/>
<polygon fill="#6666ff" stroke="#6666ff" points="205.71,-1013.44 195.45,-1016.09 205.12,-1020.42 205.71,-1013.44"/>
</g>
<!-- Metamodel::ClassHOW&#45;&gt;Metamodel::BUILDPLAN -->
<g id="edge20" class="edge">
<title>Metamodel::ClassHOW&#45;&gt;Metamodel::BUILDPLAN</title>
<path fill="none" stroke="#6666ff" d="M794.35,-1084.06C819.42,-1153.06 909.38,-1400.58 939.78,-1484.23"/>
<polygon fill="#6666ff" stroke="#6666ff" points="936.56,-1485.61 943.26,-1493.82 943.13,-1483.22 936.56,-1485.61"/>
</g>
<!-- Metamodel::ClassHOW&#45;&gt;Metamodel::BoolificationProtocol -->
<g id="edge22" class="edge">
<title>Metamodel::ClassHOW&#45;&gt;Metamodel::BoolificationProtocol</title>
<path fill="none" stroke="#6666ff" d="M799.2,-1084.07C851.95,-1167.54 1069.78,-1512.22 1069.78,-1512.22 1069.78,-1512.22 1078.95,-1527.14 1087.86,-1541.63"/>
<polygon fill="#6666ff" stroke="#6666ff" points="1085.07,-1543.77 1093.29,-1550.46 1091.03,-1540.11 1085.07,-1543.77"/>
</g>
<!-- Metamodel::BaseType -->
<g id="node23" class="node">
<title>Metamodel::BaseType</title>
<g id="a_node23"><a xlink:href="/type/Metamodel::BaseType" xlink:title="Metamodel::BaseType">
<ellipse fill="none" stroke="#6666ff" cx="1956.81" cy="-1206.86" rx="109.38" ry="18"/>
<text text-anchor="middle" x="1956.81" y="-1203.16" font-family="FreeSans" font-size="14.00" fill="#6666ff">Metamodel::BaseType</text>
</a>
</g>
</g>
<!-- Metamodel::EnumHOW -->
<g id="node24" class="node">
<title>Metamodel::EnumHOW</title>
<g id="a_node24"><a xlink:href="/type/Metamodel::EnumHOW" xlink:title="Metamodel::EnumHOW">
<ellipse fill="none" stroke="#000000" cx="1172.87" cy="-1088.56" rx="115.88" ry="18"/>
<text text-anchor="middle" x="1172.87" y="-1084.86" font-family="FreeSans" font-size="14.00" fill="#000000">Metamodel::EnumHOW</text>
</a>
</g>
</g>
<!-- Metamodel::EnumHOW&#45;&gt;Metamodel::Mixins -->
<g id="edge34" class="edge">
<title>Metamodel::EnumHOW&#45;&gt;Metamodel::Mixins</title>
<path fill="none" stroke="#6666ff" d="M1152,-1070.84C1078.92,-1008.75 834.4,-801.02 750.21,-729.5"/>
<polygon fill="#6666ff" stroke="#6666ff" points="752.23,-726.62 742.34,-722.82 747.7,-731.96 752.23,-726.62"/>
</g>
<!-- Metamodel::EnumHOW&#45;&gt;Any -->
<g id="edge3" class="edge">
<title>Metamodel::EnumHOW&#45;&gt;Any</title>
<path fill="none" stroke="#000000" d="M1171.39,-1070.38C1165.87,-1002.46 1146.79,-767.5 1146.79,-767.5 1146.79,-767.5 1230.03,-613.13 1263.83,-550.45"/>
<polygon fill="#000000" stroke="#000000" points="1266.96,-552.02 1268.63,-541.55 1260.8,-548.69 1266.96,-552.02"/>
</g>
<!-- Metamodel::EnumHOW&#45;&gt;Metamodel::Naming -->
<g id="edge23" class="edge">
<title>Metamodel::EnumHOW&#45;&gt;Metamodel::Naming</title>
<path fill="none" stroke="#6666ff" d="M1168.44,-1106.77C1148.71,-1187.86 1069.78,-1512.22 1069.78,-1512.22 1069.78,-1512.22 945.56,-1568.47 945.56,-1568.47 945.56,-1568.47 947.59,-1648.32 948.71,-1692.19"/>
<polygon fill="#6666ff" stroke="#6666ff" points="945.21,-1692.33 948.97,-1702.24 952.21,-1692.15 945.21,-1692.33"/>
</g>
<!-- Metamodel::EnumHOW&#45;&gt;Metamodel::Stashing -->
<g id="edge24" class="edge">
<title>Metamodel::EnumHOW&#45;&gt;Metamodel::Stashing</title>
<path fill="none" stroke="#6666ff" d="M1163.14,-1070.45C1115.9,-982.48 912.65,-603.97 912.65,-603.97 912.65,-603.97 899.79,-564.07 890.63,-535.63"/>
<polygon fill="#6666ff" stroke="#6666ff" points="893.85,-534.21 887.45,-525.76 887.19,-536.36 893.85,-534.21"/>
</g>
<!-- Metamodel::EnumHOW&#45;&gt;Metamodel::AttributeContainer -->
<g id="edge25" class="edge">
<title>Metamodel::EnumHOW&#45;&gt;Metamodel::AttributeContainer</title>
<path fill="none" stroke="#6666ff" d="M1217.7,-1071.9C1272.2,-1051.64 1364.18,-1017.44 1423.18,-995.5"/>
<polygon fill="#6666ff" stroke="#6666ff" points="1424.57,-998.72 1432.72,-991.96 1422.13,-992.16 1424.57,-998.72"/>
</g>
<!-- Metamodel::EnumHOW&#45;&gt;Metamodel::MethodContainer -->
<g id="edge26" class="edge">
<title>Metamodel::EnumHOW&#45;&gt;Metamodel::MethodContainer</title>
<path fill="none" stroke="#6666ff" d="M1168.57,-1070.45C1151.16,-997.07 1085.77,-721.5 1064.57,-632.17"/>
<polygon fill="#6666ff" stroke="#6666ff" points="1067.92,-631.15 1062.21,-622.22 1061.11,-632.76 1067.92,-631.15"/>
</g>
<!-- Metamodel::EnumHOW&#45;&gt;Metamodel::MultiMethodContainer -->
<g id="edge27" class="edge">
<title>Metamodel::EnumHOW&#45;&gt;Metamodel::MultiMethodContainer</title>
<path fill="none" stroke="#6666ff" d="M1076.33,-1098.55C964.07,-1110.17 778.25,-1129.39 653.36,-1142.31"/>
<polygon fill="#6666ff" stroke="#6666ff" points="652.93,-1138.84 643.35,-1143.35 653.65,-1145.8 652.93,-1138.84"/>
</g>
<!-- Metamodel::EnumHOW&#45;&gt;Metamodel::RoleContainer -->
<g id="edge28" class="edge">
<title>Metamodel::EnumHOW&#45;&gt;Metamodel::RoleContainer</title>
<path fill="none" stroke="#6666ff" d="M1194.12,-1106.37C1239.57,-1144.45 1346.29,-1233.85 1398.05,-1277.22"/>
<polygon fill="#6666ff" stroke="#6666ff" points="1395.96,-1280.03 1405.87,-1283.77 1400.46,-1274.67 1395.96,-1280.03"/>
</g>
<!-- Metamodel::EnumHOW&#45;&gt;Metamodel::MROBasedMethodDispatch -->
<g id="edge30" class="edge">
<title>Metamodel::EnumHOW&#45;&gt;Metamodel::MROBasedMethodDispatch</title>
<path fill="none" stroke="#6666ff" d="M1182.16,-1070.39C1209.61,-1016.64 1290.51,-858.28 1323.07,-794.56"/>
<polygon fill="#6666ff" stroke="#6666ff" points="1326.25,-796.02 1327.68,-785.52 1320.02,-792.83 1326.25,-796.02"/>
</g>
<!-- Metamodel::EnumHOW&#45;&gt;Metamodel::MROBasedTypeChecking -->
<g id="edge31" class="edge">
<title>Metamodel::EnumHOW&#45;&gt;Metamodel::MROBasedTypeChecking</title>
<path fill="none" stroke="#6666ff" d="M1149.84,-1106.32C1065.36,-1171.47 772.39,-1397.4 675.92,-1471.8"/>
<polygon fill="#6666ff" stroke="#6666ff" points="673.77,-1469.03 667.99,-1477.91 678.05,-1474.57 673.77,-1469.03"/>
</g>
<!-- Metamodel::EnumHOW&#45;&gt;Metamodel::BUILDPLAN -->
<g id="edge32" class="edge">
<title>Metamodel::EnumHOW&#45;&gt;Metamodel::BUILDPLAN</title>
<path fill="none" stroke="#6666ff" d="M1163.29,-1106.76C1128.12,-1173.55 1006.04,-1405.44 964.14,-1485.02"/>
<polygon fill="#6666ff" stroke="#6666ff" points="961,-1483.47 959.44,-1493.95 967.2,-1486.73 961,-1483.47"/>
</g>
<!-- Metamodel::EnumHOW&#45;&gt;Metamodel::BoolificationProtocol -->
<g id="edge33" class="edge">
<title>Metamodel::EnumHOW&#45;&gt;Metamodel::BoolificationProtocol</title>
<path fill="none" stroke="#6666ff" d="M1170.27,-1106.8C1159.87,-1179.79 1121.17,-1451.3 1108.49,-1540.22"/>
<polygon fill="#6666ff" stroke="#6666ff" points="1104.99,-1539.97 1107.05,-1550.36 1111.92,-1540.96 1104.99,-1539.97"/>
</g>
<!-- Metamodel::EnumHOW&#45;&gt;Metamodel::BaseType -->
<g id="edge29" class="edge">
<title>Metamodel::EnumHOW&#45;&gt;Metamodel::BaseType</title>
<path fill="none" stroke="#6666ff" d="M1256.02,-1101.11C1404.13,-1123.46 1712.45,-1169.99 1865.93,-1193.15"/>
<polygon fill="#6666ff" stroke="#6666ff" points="1865.86,-1196.68 1876.27,-1194.71 1866.9,-1189.76 1865.86,-1196.68"/>
</g>
</g>
</svg>
