<?xml version="1.0" encoding="UTF-8" standalone="no"?>
<!DOCTYPE svg PUBLIC "-//W3C//DTD SVG 1.1//EN"
 "http://www.w3.org/Graphics/SVG/1.1/DTD/svg11.dtd">
<!-- Generated by graphviz version 2.42.3 (0)
 -->
<!-- Title: perl6&#45;type&#45;graph Pages: 1 -->
<svg width="1238pt" height="332pt"
 viewBox="0.00 0.00 1237.69 332.00" xmlns="http://www.w3.org/2000/svg" xmlns:xlink="http://www.w3.org/1999/xlink">
<g id="graph0" class="graph" transform="scale(1 1) rotate(0) translate(4 328)">
<title>perl6&#45;type&#45;graph</title>
<polygon fill="white" stroke="transparent" points="-4,4 -4,-328 1233.69,-328 1233.69,4 -4,4"/>
<!-- Numeric -->
<g id="node1" class="node">
<title>Numeric</title>
<g id="a_node1"><a xlink:href="/type/Numeric" xlink:title="Numeric">
<ellipse fill="none" stroke="#6666ff" cx="868" cy="-234" rx="48.99" ry="18"/>
<text text-anchor="middle" x="868" y="-230.3" font-family="FreeSans" font-size="14.00" fill="#6666ff">Numeric</text>
</a>
</g>
</g>
<!-- Mu -->
<g id="node2" class="node">
<title>Mu</title>
<g id="a_node2"><a xlink:href="/type/Mu" xlink:title="Mu">
<ellipse fill="none" stroke="#000000" cx="593" cy="-306" rx="27" ry="18"/>
<text text-anchor="middle" x="593" y="-302.3" font-family="FreeSans" font-size="14.00" fill="#000000">Mu</text>
</a>
</g>
</g>
<!-- Any -->
<g id="node3" class="node">
<title>Any</title>
<g id="a_node3"><a xlink:href="/type/Any" xlink:title="Any">
<ellipse fill="none" stroke="#000000" cx="593" cy="-234" rx="28.7" ry="18"/>
<text text-anchor="middle" x="593" y="-230.3" font-family="FreeSans" font-size="14.00" fill="#000000">Any</text>
</a>
</g>
</g>
<!-- Any&#45;&gt;Mu -->
<g id="edge1" class="edge">
<title>Any&#45;&gt;Mu</title>
<path fill="none" stroke="#000000" d="M593,-252.3C593,-260.02 593,-269.29 593,-277.89"/>
<polygon fill="#000000" stroke="#000000" points="589.5,-277.9 593,-287.9 596.5,-277.9 589.5,-277.9"/>
</g>
<!-- Cool -->
<g id="node4" class="node">
<title>Cool</title>
<g id="a_node4"><a xlink:href="/type/Cool" xlink:title="Cool">
<ellipse fill="none" stroke="#000000" cx="593" cy="-162" rx="30.59" ry="18"/>
<text text-anchor="middle" x="593" y="-158.3" font-family="FreeSans" font-size="14.00" fill="#000000">Cool</text>
</a>
</g>
</g>
<!-- Cool&#45;&gt;Any -->
<g id="edge2" class="edge">
<title>Cool&#45;&gt;Any</title>
<path fill="none" stroke="#000000" d="M593,-180.3C593,-188.02 593,-197.29 593,-205.89"/>
<polygon fill="#000000" stroke="#000000" points="589.5,-205.9 593,-215.9 596.5,-205.9 589.5,-205.9"/>
</g>
<!-- Complex -->
<g id="node5" class="node">
<title>Complex</title>
<g id="a_node5"><a xlink:href="/type/Complex" xlink:title="Complex">
<ellipse fill="none" stroke="#000000" cx="1034" cy="-90" rx="50.09" ry="18"/>
<text text-anchor="middle" x="1034" y="-86.3" font-family="FreeSans" font-size="14.00" fill="#000000">Complex</text>
</a>
</g>
</g>
<!-- Complex&#45;&gt;Numeric -->
<g id="edge24" class="edge">
<title>Complex&#45;&gt;Numeric</title>
<path fill="none" stroke="#6666ff" d="M1025.9,-108.16C1013.7,-134.02 992,-180 992,-180 992,-180 944.28,-200.4 908.05,-215.88"/>
<polygon fill="#6666ff" stroke="#6666ff" points="906.47,-212.75 898.65,-219.9 909.22,-219.19 906.47,-212.75"/>
</g>
<!-- Complex&#45;&gt;Cool -->
<g id="edge3" class="edge">
<title>Complex&#45;&gt;Cool</title>
<path fill="none" stroke="#000000" d="M996.3,-101.86C984.74,-105.19 975,-108 975,-108 975,-108 729.97,-142 632.4,-155.53"/>
<polygon fill="#000000" stroke="#000000" points="631.76,-152.09 622.34,-156.93 632.73,-159.02 631.76,-152.09"/>
</g>
<!-- Real -->
<g id="node6" class="node">
<title>Real</title>
<g id="a_node6"><a xlink:href="/type/Real" xlink:title="Real">
<ellipse fill="none" stroke="#6666ff" cx="500" cy="-162" rx="30.59" ry="18"/>
<text text-anchor="middle" x="500" y="-158.3" font-family="FreeSans" font-size="14.00" fill="#6666ff">Real</text>
</a>
</g>
</g>
<!-- Real&#45;&gt;Numeric -->
<g id="edge25" class="edge">
<title>Real&#45;&gt;Numeric</title>
<path fill="none" stroke="#6666ff" d="M526.19,-171.4C539.54,-175.68 553,-180 553,-180 553,-180 724.63,-208.88 814.52,-224"/>
<polygon fill="#6666ff" stroke="#6666ff" points="814.09,-227.48 824.53,-225.69 815.25,-220.58 814.09,-227.48"/>
</g>
<!-- Stringy -->
<g id="node7" class="node">
<title>Stringy</title>
<g id="a_node7"><a xlink:href="/type/Stringy" xlink:title="Stringy">
<ellipse fill="none" stroke="#6666ff" cx="939" cy="-162" rx="43.59" ry="18"/>
<text text-anchor="middle" x="939" y="-158.3" font-family="FreeSans" font-size="14.00" fill="#6666ff">Stringy</text>
</a>
</g>
</g>
<!-- Str -->
<g id="node8" class="node">
<title>Str</title>
<g id="a_node8"><a xlink:href="/type/Str" xlink:title="Str">
<ellipse fill="none" stroke="#000000" cx="939" cy="-90" rx="27" ry="18"/>
<text text-anchor="middle" x="939" y="-86.3" font-family="FreeSans" font-size="14.00" fill="#000000">Str</text>
</a>
</g>
</g>
<!-- Str&#45;&gt;Cool -->
<g id="edge4" class="edge">
<title>Str&#45;&gt;Cool</title>
<path fill="none" stroke="#000000" d="M913.56,-96.15C853.46,-108.31 702.45,-138.86 631.26,-153.26"/>
<polygon fill="#000000" stroke="#000000" points="630.46,-149.85 621.36,-155.26 631.85,-156.71 630.46,-149.85"/>
</g>
<!-- Str&#45;&gt;Stringy -->
<g id="edge26" class="edge">
<title>Str&#45;&gt;Stringy</title>
<path fill="none" stroke="#6666ff" d="M939,-108.3C939,-116.02 939,-125.29 939,-133.89"/>
<polygon fill="#6666ff" stroke="#6666ff" points="935.5,-133.9 939,-143.9 942.5,-133.9 935.5,-133.9"/>
</g>
<!-- ComplexStr -->
<g id="node9" class="node">
<title>ComplexStr</title>
<g id="a_node9"><a xlink:href="/type/ComplexStr" xlink:title="ComplexStr">
<ellipse fill="none" stroke="#000000" cx="1166" cy="-18" rx="63.89" ry="18"/>
<text text-anchor="middle" x="1166" y="-14.3" font-family="FreeSans" font-size="14.00" fill="#000000">ComplexStr</text>
</a>
</g>
</g>
<!-- ComplexStr&#45;&gt;Complex -->
<g id="edge5" class="edge">
<title>ComplexStr&#45;&gt;Complex</title>
<path fill="none" stroke="#000000" d="M1137.36,-34.19C1117.54,-44.7 1091.03,-58.76 1069.82,-70.01"/>
<polygon fill="#000000" stroke="#000000" points="1067.98,-67.02 1060.79,-74.79 1071.26,-73.2 1067.98,-67.02"/>
</g>
<!-- ComplexStr&#45;&gt;Str -->
<g id="edge6" class="edge">
<title>ComplexStr&#45;&gt;Str</title>
<path fill="none" stroke="#000000" d="M1122.18,-31.16C1065.79,-46.81 975,-72 975,-72 975,-72 972.82,-73.03 969.53,-74.58"/>
<polygon fill="#000000" stroke="#000000" points="967.91,-71.48 960.36,-78.91 970.89,-77.81 967.91,-71.48"/>
</g>
<!-- Rational -->
<g id="node10" class="node">
<title>Rational</title>
<g id="a_node10"><a xlink:href="/type/Rational" xlink:title="Rational">
<ellipse fill="none" stroke="#6666ff" cx="112" cy="-90" rx="47.39" ry="18"/>
<text text-anchor="middle" x="112" y="-86.3" font-family="FreeSans" font-size="14.00" fill="#6666ff">Rational</text>
</a>
</g>
</g>
<!-- Rational&#45;&gt;Real -->
<g id="edge27" class="edge">
<title>Rational&#45;&gt;Real</title>
<path fill="none" stroke="#6666ff" d="M153.89,-98.56C229.35,-112.17 387.07,-140.63 460.64,-153.9"/>
<polygon fill="#6666ff" stroke="#6666ff" points="460.4,-157.41 470.86,-155.74 461.64,-150.52 460.4,-157.41"/>
</g>
<!-- Instant -->
<g id="node11" class="node">
<title>Instant</title>
<g id="a_node11"><a xlink:href="/type/Instant" xlink:title="Instant">
<ellipse fill="none" stroke="#000000" cx="458" cy="-90" rx="42.49" ry="18"/>
<text text-anchor="middle" x="458" y="-86.3" font-family="FreeSans" font-size="14.00" fill="#000000">Instant</text>
</a>
</g>
</g>
<!-- Instant&#45;&gt;Cool -->
<g id="edge7" class="edge">
<title>Instant&#45;&gt;Cool</title>
<path fill="none" stroke="#000000" d="M483.71,-104.33C505.86,-115.82 537.91,-132.44 561.58,-144.71"/>
<polygon fill="#000000" stroke="#000000" points="560.03,-147.85 570.52,-149.35 563.26,-141.63 560.03,-147.85"/>
</g>
<!-- Instant&#45;&gt;Real -->
<g id="edge28" class="edge">
<title>Instant&#45;&gt;Real</title>
<path fill="none" stroke="#6666ff" d="M467.95,-107.59C473.03,-116.05 479.3,-126.51 484.95,-135.92"/>
<polygon fill="#6666ff" stroke="#6666ff" points="481.97,-137.76 490.12,-144.53 487.97,-134.15 481.97,-137.76"/>
</g>
<!-- Int -->
<g id="node12" class="node">
<title>Int</title>
<g id="a_node12"><a xlink:href="/type/Int" xlink:title="Int">
<ellipse fill="none" stroke="#000000" cx="621" cy="-90" rx="27" ry="18"/>
<text text-anchor="middle" x="621" y="-86.3" font-family="FreeSans" font-size="14.00" fill="#000000">Int</text>
</a>
</g>
</g>
<!-- Int&#45;&gt;Cool -->
<g id="edge8" class="edge">
<title>Int&#45;&gt;Cool</title>
<path fill="none" stroke="#000000" d="M614.36,-107.59C611.13,-115.66 607.17,-125.57 603.54,-134.65"/>
<polygon fill="#000000" stroke="#000000" points="600.25,-133.46 599.78,-144.04 606.75,-136.06 600.25,-133.46"/>
</g>
<!-- Int&#45;&gt;Real -->
<g id="edge29" class="edge">
<title>Int&#45;&gt;Real</title>
<path fill="none" stroke="#6666ff" d="M601.29,-102.4C581.98,-113.57 552.31,-130.74 530.06,-143.61"/>
<polygon fill="#6666ff" stroke="#6666ff" points="528.24,-140.62 521.33,-148.66 531.74,-146.68 528.24,-140.62"/>
</g>
<!-- Num -->
<g id="node13" class="node">
<title>Num</title>
<g id="a_node13"><a xlink:href="/type/Num" xlink:title="Num">
<ellipse fill="none" stroke="#000000" cx="698" cy="-90" rx="32.49" ry="18"/>
<text text-anchor="middle" x="698" y="-86.3" font-family="FreeSans" font-size="14.00" fill="#000000">Num</text>
</a>
</g>
</g>
<!-- Num&#45;&gt;Cool -->
<g id="edge9" class="edge">
<title>Num&#45;&gt;Cool</title>
<path fill="none" stroke="#000000" d="M677.75,-104.5C661.57,-115.29 638.71,-130.53 620.81,-142.46"/>
<polygon fill="#000000" stroke="#000000" points="618.85,-139.56 612.47,-148.02 622.73,-145.38 618.85,-139.56"/>
</g>
<!-- Num&#45;&gt;Real -->
<g id="edge30" class="edge">
<title>Num&#45;&gt;Real</title>
<path fill="none" stroke="#6666ff" d="M672.73,-101.48C664.3,-104.97 657,-108 657,-108 657,-108 581.94,-133.34 535.62,-148.98"/>
<polygon fill="#6666ff" stroke="#6666ff" points="534.28,-145.73 525.93,-152.25 536.52,-152.37 534.28,-145.73"/>
</g>
<!-- Duration -->
<g id="node14" class="node">
<title>Duration</title>
<g id="a_node14"><a xlink:href="/type/Duration" xlink:title="Duration">
<ellipse fill="none" stroke="#000000" cx="348" cy="-90" rx="50.09" ry="18"/>
<text text-anchor="middle" x="348" y="-86.3" font-family="FreeSans" font-size="14.00" fill="#000000">Duration</text>
</a>
</g>
</g>
<!-- Duration&#45;&gt;Cool -->
<g id="edge10" class="edge">
<title>Duration&#45;&gt;Cool</title>
<path fill="none" stroke="#000000" d="M385.7,-101.86C397.26,-105.19 407,-108 407,-108 407,-108 540,-144 540,-144 540,-144 547.73,-146.48 557.28,-149.54"/>
<polygon fill="#000000" stroke="#000000" points="556.22,-152.88 566.81,-152.6 558.36,-146.21 556.22,-152.88"/>
</g>
<!-- Duration&#45;&gt;Real -->
<g id="edge31" class="edge">
<title>Duration&#45;&gt;Real</title>
<path fill="none" stroke="#6666ff" d="M377.67,-104.66C403.37,-116.5 440.5,-133.6 467.1,-145.85"/>
<polygon fill="#6666ff" stroke="#6666ff" points="465.84,-149.12 476.39,-150.13 468.77,-142.76 465.84,-149.12"/>
</g>
<!-- int -->
<g id="node15" class="node">
<title>int</title>
<g id="a_node15"><a xlink:href="/type/int" xlink:title="int">
<ellipse fill="none" stroke="#000000" cx="539" cy="-18" rx="27" ry="18"/>
<text text-anchor="middle" x="539" y="-14.3" font-family="FreeSans" font-size="14.00" fill="#000000">int</text>
</a>
</g>
</g>
<!-- int&#45;&gt;Int -->
<g id="edge11" class="edge">
<title>int&#45;&gt;Int</title>
<path fill="none" stroke="#000000" d="M555.2,-32.83C567.18,-43.06 583.69,-57.15 597.18,-68.66"/>
<polygon fill="#000000" stroke="#000000" points="595.23,-71.61 605.11,-75.44 599.78,-66.28 595.23,-71.61"/>
</g>
<!-- Order -->
<g id="node16" class="node">
<title>Order</title>
<g id="a_node16"><a xlink:href="/type/Order" xlink:title="Order">
<ellipse fill="none" stroke="#33bb33" cx="621" cy="-18" rx="37.09" ry="18"/>
<text text-anchor="middle" x="621" y="-14.3" font-family="FreeSans" font-size="14.00" fill="#33bb33">Order</text>
</a>
</g>
</g>
<!-- Order&#45;&gt;Int -->
<g id="edge12" class="edge">
<title>Order&#45;&gt;Int</title>
<path fill="none" stroke="#000000" d="M621,-36.3C621,-44.02 621,-53.29 621,-61.89"/>
<polygon fill="#000000" stroke="#000000" points="617.5,-61.9 621,-71.9 624.5,-61.9 617.5,-61.9"/>
</g>
<!-- atomicint -->
<g id="node17" class="node">
<title>atomicint</title>
<g id="a_node17"><a xlink:href="/type/atomicint" xlink:title="atomicint">
<ellipse fill="none" stroke="#000000" cx="729" cy="-18" rx="52.79" ry="18"/>
<text text-anchor="middle" x="729" y="-14.3" font-family="FreeSans" font-size="14.00" fill="#000000">atomicint</text>
</a>
</g>
</g>
<!-- atomicint&#45;&gt;Int -->
<g id="edge13" class="edge">
<title>atomicint&#45;&gt;Int</title>
<path fill="none" stroke="#000000" d="M705.57,-34.19C688.77,-45.08 666.08,-59.78 648.44,-71.22"/>
<polygon fill="#000000" stroke="#000000" points="646.21,-68.49 639.73,-76.86 650.02,-74.36 646.21,-68.49"/>
</g>
<!-- Endian -->
<g id="node18" class="node">
<title>Endian</title>
<g id="a_node18"><a xlink:href="/type/Endian" xlink:title="Endian">
<ellipse fill="none" stroke="#33bb33" cx="842" cy="-18" rx="42.49" ry="18"/>
<text text-anchor="middle" x="842" y="-14.3" font-family="FreeSans" font-size="14.00" fill="#33bb33">Endian</text>
</a>
</g>
</g>
<!-- Endian&#45;&gt;Int -->
<g id="edge14" class="edge">
<title>Endian&#45;&gt;Int</title>
<path fill="none" stroke="#000000" d="M809.7,-29.77C799.58,-33.14 791,-36 791,-36 791,-36 657,-72 657,-72 657,-72 654.82,-73.03 651.53,-74.58"/>
<polygon fill="#000000" stroke="#000000" points="649.91,-71.48 642.36,-78.91 652.89,-77.81 649.91,-71.48"/>
</g>
<!-- Bool -->
<g id="node19" class="node">
<title>Bool</title>
<g id="a_node19"><a xlink:href="/type/Bool" xlink:title="Bool">
<ellipse fill="none" stroke="#33bb33" cx="200" cy="-18" rx="30.59" ry="18"/>
<text text-anchor="middle" x="200" y="-14.3" font-family="FreeSans" font-size="14.00" fill="#33bb33">Bool</text>
</a>
</g>
</g>
<!-- Bool&#45;&gt;Int -->
<g id="edge15" class="edge">
<title>Bool&#45;&gt;Int</title>
<path fill="none" stroke="#000000" d="M224.19,-29.28C232.61,-32.86 240,-36 240,-36 240,-36 580,-72 580,-72 580,-72 583.88,-73.61 589.25,-75.84"/>
<polygon fill="#000000" stroke="#000000" points="588,-79.11 598.58,-79.7 590.68,-72.64 588,-79.11"/>
</g>
<!-- Signal -->
<g id="node20" class="node">
<title>Signal</title>
<g id="a_node20"><a xlink:href="/type/Signal" xlink:title="Signal">
<ellipse fill="none" stroke="#33bb33" cx="287" cy="-18" rx="38.19" ry="18"/>
<text text-anchor="middle" x="287" y="-14.3" font-family="FreeSans" font-size="14.00" fill="#33bb33">Signal</text>
</a>
</g>
</g>
<!-- Signal&#45;&gt;Int -->
<g id="edge16" class="edge">
<title>Signal&#45;&gt;Int</title>
<path fill="none" stroke="#000000" d="M316.58,-29.48C326.46,-32.97 335,-36 335,-36 335,-36 580,-72 580,-72 580,-72 583.88,-73.61 589.25,-75.84"/>
<polygon fill="#000000" stroke="#000000" points="588,-79.11 598.58,-79.7 590.68,-72.64 588,-79.11"/>
</g>
<!-- PromiseStatus -->
<g id="node21" class="node">
<title>PromiseStatus</title>
<g id="a_node21"><a xlink:href="/type/PromiseStatus" xlink:title="PromiseStatus">
<ellipse fill="none" stroke="#33bb33" cx="419" cy="-18" rx="75.29" ry="18"/>
<text text-anchor="middle" x="419" y="-14.3" font-family="FreeSans" font-size="14.00" fill="#33bb33">PromiseStatus</text>
</a>
</g>
</g>
<!-- PromiseStatus&#45;&gt;Int -->
<g id="edge17" class="edge">
<title>PromiseStatus&#45;&gt;Int</title>
<path fill="none" stroke="#000000" d="M461.3,-32.93C509,-48.63 580,-72 580,-72 580,-72 583.88,-73.61 589.25,-75.84"/>
<polygon fill="#000000" stroke="#000000" points="588,-79.11 598.58,-79.7 590.68,-72.64 588,-79.11"/>
</g>
<!-- IntStr -->
<g id="node22" class="node">
<title>IntStr</title>
<g id="a_node22"><a xlink:href="/type/IntStr" xlink:title="IntStr">
<ellipse fill="none" stroke="#000000" cx="939" cy="-18" rx="36.29" ry="18"/>
<text text-anchor="middle" x="939" y="-14.3" font-family="FreeSans" font-size="14.00" fill="#000000">IntStr</text>
</a>
</g>
</g>
<!-- IntStr&#45;&gt;Str -->
<g id="edge19" class="edge">
<title>IntStr&#45;&gt;Str</title>
<path fill="none" stroke="#000000" d="M939,-36.3C939,-44.02 939,-53.29 939,-61.89"/>
<polygon fill="#000000" stroke="#000000" points="935.5,-61.9 939,-71.9 942.5,-61.9 935.5,-61.9"/>
</g>
<!-- IntStr&#45;&gt;Int -->
<g id="edge18" class="edge">
<title>IntStr&#45;&gt;Int</title>
<path fill="none" stroke="#000000" d="M910.65,-29.48C901.19,-32.97 893,-36 893,-36 893,-36 657,-72 657,-72 657,-72 654.82,-73.03 651.53,-74.58"/>
<polygon fill="#000000" stroke="#000000" points="649.91,-71.48 642.36,-78.91 652.89,-77.81 649.91,-71.48"/>
</g>
<!-- NumStr -->
<g id="node23" class="node">
<title>NumStr</title>
<g id="a_node23"><a xlink:href="/type/NumStr" xlink:title="NumStr">
<ellipse fill="none" stroke="#000000" cx="1039" cy="-18" rx="45.49" ry="18"/>
<text text-anchor="middle" x="1039" y="-14.3" font-family="FreeSans" font-size="14.00" fill="#000000">NumStr</text>
</a>
</g>
</g>
<!-- NumStr&#45;&gt;Str -->
<g id="edge21" class="edge">
<title>NumStr&#45;&gt;Str</title>
<path fill="none" stroke="#000000" d="M1017.3,-34.19C1002.08,-44.84 981.65,-59.15 965.47,-70.47"/>
<polygon fill="#000000" stroke="#000000" points="963.17,-67.81 956.98,-76.41 967.18,-73.55 963.17,-67.81"/>
</g>
<!-- NumStr&#45;&gt;Num -->
<g id="edge20" class="edge">
<title>NumStr&#45;&gt;Num</title>
<path fill="none" stroke="#000000" d="M1004.17,-29.77C993.25,-33.14 984,-36 984,-36 984,-36 817.25,-66.9 738.4,-81.51"/>
<polygon fill="#000000" stroke="#000000" points="737.53,-78.11 728.34,-83.38 738.81,-85 737.53,-78.11"/>
</g>
<!-- Rat -->
<g id="node24" class="node">
<title>Rat</title>
<g id="a_node24"><a xlink:href="/type/Rat" xlink:title="Rat">
<ellipse fill="none" stroke="#000000" cx="27" cy="-18" rx="27" ry="18"/>
<text text-anchor="middle" x="27" y="-14.3" font-family="FreeSans" font-size="14.00" fill="#000000">Rat</text>
</a>
</g>
</g>
<!-- Rat&#45;&gt;Cool -->
<g id="edge22" class="edge">
<title>Rat&#45;&gt;Cool</title>
<path fill="none" stroke="#000000" d="M48.36,-29.09C56.11,-32.75 63,-36 63,-36 63,-36 509,-72 509,-72 509,-72 542,-108 542,-108 542,-108 557.55,-124.16 571.48,-138.63"/>
<polygon fill="#000000" stroke="#000000" points="569.07,-141.18 578.52,-145.95 574.11,-136.32 569.07,-141.18"/>
</g>
<!-- Rat&#45;&gt;Rational -->
<g id="edge32" class="edge">
<title>Rat&#45;&gt;Rational</title>
<path fill="none" stroke="#6666ff" d="M43.39,-32.5C55.25,-42.26 71.53,-55.67 85.26,-66.98"/>
<polygon fill="#6666ff" stroke="#6666ff" points="83.05,-69.69 92.99,-73.35 87.5,-64.29 83.05,-69.69"/>
</g>
<!-- FatRat -->
<g id="node25" class="node">
<title>FatRat</title>
<g id="a_node25"><a xlink:href="/type/FatRat" xlink:title="FatRat">
<ellipse fill="none" stroke="#000000" cx="112" cy="-18" rx="39.79" ry="18"/>
<text text-anchor="middle" x="112" y="-14.3" font-family="FreeSans" font-size="14.00" fill="#000000">FatRat</text>
</a>
</g>
</g>
<!-- FatRat&#45;&gt;Cool -->
<g id="edge23" class="edge">
<title>FatRat&#45;&gt;Cool</title>
<path fill="none" stroke="#000000" d="M142.4,-29.77C151.93,-33.14 160,-36 160,-36 160,-36 542,-72 542,-72 542,-72 563.54,-109.59 578.63,-135.92"/>
<polygon fill="#000000" stroke="#000000" points="575.64,-137.74 583.65,-144.68 581.71,-134.26 575.64,-137.74"/>
</g>
<!-- FatRat&#45;&gt;Rational -->
<g id="edge33" class="edge">
<title>FatRat&#45;&gt;Rational</title>
<path fill="none" stroke="#6666ff" d="M112,-36.3C112,-44.02 112,-53.29 112,-61.89"/>
<polygon fill="#6666ff" stroke="#6666ff" points="108.5,-61.9 112,-71.9 115.5,-61.9 108.5,-61.9"/>
</g>
</g>
</svg>
