<?xml version="1.0" encoding="UTF-8" standalone="no"?>
<!DOCTYPE svg PUBLIC "-//W3C//DTD SVG 1.1//EN"
 "http://www.w3.org/Graphics/SVG/1.1/DTD/svg11.dtd">
<!-- Generated by graphviz version 2.42.3 (0)
 -->
<!-- Title: perl6&#45;type&#45;graph Pages: 1 -->
<svg width="1058pt" height="113pt"
 viewBox="0.00 0.00 1058.44 113.04" xmlns="http://www.w3.org/2000/svg" xmlns:xlink="http://www.w3.org/1999/xlink">
<g id="graph0" class="graph" transform="scale(1 1) rotate(0) translate(4 109.04)">
<title>perl6&#45;type&#45;graph</title>
<polygon fill="white" stroke="transparent" points="-4,4 -4,-109.04 1054.44,-109.04 1054.44,4 -4,4"/>
<!-- Metamodel::MethodDispatcher -->
<g id="node1" class="node">
<title>Metamodel::MethodDispatcher</title>
<g id="a_node1"><a xlink:href="/type/Metamodel::MethodDispatcher" xlink:title="Metamodel::MethodDispatcher">
<ellipse fill="none" stroke="#000000" cx="148.84" cy="-74.22" rx="148.67" ry="18"/>
<text text-anchor="middle" x="148.84" y="-70.52" font-family="FreeSans" font-size="14.00" fill="#000000">Metamodel::MethodDispatcher</text>
</a>
</g>
</g>
<!-- Metamodel::BaseDispatcher -->
<g id="node4" class="node">
<title>Metamodel::BaseDispatcher</title>
<g id="a_node4"><a xlink:href="/type/Metamodel::BaseDispatcher" xlink:title="Metamodel::BaseDispatcher">
<ellipse fill="none" stroke="#000000" cx="442.84" cy="-87.04" rx="137.28" ry="18"/>
<text text-anchor="middle" x="442.84" y="-83.34" font-family="FreeSans" font-size="14.00" fill="#000000">Metamodel::BaseDispatcher</text>
</a>
</g>
</g>
<!-- Metamodel::MethodDispatcher&#45;&gt;Metamodel::BaseDispatcher -->
<g id="edge1" class="edge">
<title>Metamodel::MethodDispatcher&#45;&gt;Metamodel::BaseDispatcher</title>
<path fill="none" stroke="#000000" d="M288.95,-80.33C293.36,-80.52 297.78,-80.71 302.19,-80.91"/>
<polygon fill="#000000" stroke="#000000" points="302.31,-84.41 312.46,-81.35 302.62,-77.42 302.31,-84.41"/>
</g>
<!-- Mu -->
<g id="node2" class="node">
<title>Mu</title>
<g id="a_node2"><a xlink:href="/type/Mu" xlink:title="Mu">
<ellipse fill="none" stroke="#000000" cx="1023.44" cy="-18" rx="27" ry="18"/>
<text text-anchor="middle" x="1023.44" y="-14.3" font-family="FreeSans" font-size="14.00" fill="#000000">Mu</text>
</a>
</g>
</g>
<!-- Any -->
<g id="node3" class="node">
<title>Any</title>
<g id="a_node3"><a xlink:href="/type/Any" xlink:title="Any">
<ellipse fill="none" stroke="#000000" cx="729.49" cy="-18.42" rx="28.7" ry="18"/>
<text text-anchor="middle" x="729.49" y="-14.72" font-family="FreeSans" font-size="14.00" fill="#000000">Any</text>
</a>
</g>
</g>
<!-- Any&#45;&gt;Mu -->
<g id="edge2" class="edge">
<title>Any&#45;&gt;Mu</title>
<path fill="none" stroke="#000000" d="M758.21,-18.38C811.77,-18.31 926.83,-18.14 986.24,-18.05"/>
<polygon fill="#000000" stroke="#000000" points="986.32,-21.55 996.31,-18.04 986.31,-14.55 986.32,-21.55"/>
</g>
<!-- Metamodel::BaseDispatcher&#45;&gt;Any -->
<g id="edge3" class="edge">
<title>Metamodel::BaseDispatcher&#45;&gt;Any</title>
<path fill="none" stroke="#000000" d="M508.96,-71.21C565.99,-57.56 646.26,-38.35 692.58,-27.26"/>
<polygon fill="#000000" stroke="#000000" points="693.57,-30.62 702.48,-24.89 691.94,-23.81 693.57,-30.62"/>
</g>
</g>
</svg>
