<?xml version="1.0" encoding="UTF-8" standalone="no"?>
<!DOCTYPE svg PUBLIC "-//W3C//DTD SVG 1.1//EN"
 "http://www.w3.org/Graphics/SVG/1.1/DTD/svg11.dtd">
<!-- Generated by graphviz version 2.42.3 (0)
 -->
<!-- Title: perl6&#45;type&#45;graph Pages: 1 -->
<svg width="374pt" height="332pt"
 viewBox="0.00 0.00 373.99 332.00" xmlns="http://www.w3.org/2000/svg" xmlns:xlink="http://www.w3.org/1999/xlink">
<g id="graph0" class="graph" transform="scale(1 1) rotate(0) translate(4 328)">
<title>perl6&#45;type&#45;graph</title>
<polygon fill="white" stroke="transparent" points="-4,4 -4,-328 369.99,-328 369.99,4 -4,4"/>
<!-- Baggy -->
<g id="node1" class="node">
<title>Baggy</title>
<g id="a_node1"><a xlink:href="/type/Baggy" xlink:title="Baggy">
<ellipse fill="none" stroke="#6666ff" cx="92.6" cy="-162" rx="39.79" ry="18"/>
<text text-anchor="middle" x="92.6" y="-158.3" font-family="FreeSans" font-size="14.00" fill="#6666ff">Baggy</text>
</a>
</g>
</g>
<!-- QuantHash -->
<g id="node3" class="node">
<title>QuantHash</title>
<g id="a_node3"><a xlink:href="/type/QuantHash" xlink:title="QuantHash">
<ellipse fill="none" stroke="#6666ff" cx="92.6" cy="-234" rx="61.99" ry="18"/>
<text text-anchor="middle" x="92.6" y="-230.3" font-family="FreeSans" font-size="14.00" fill="#6666ff">QuantHash</text>
</a>
</g>
</g>
<!-- Baggy&#45;&gt;QuantHash -->
<g id="edge6" class="edge">
<title>Baggy&#45;&gt;QuantHash</title>
<path fill="none" stroke="#6666ff" d="M92.6,-180.3C92.6,-188.02 92.6,-197.29 92.6,-205.89"/>
<polygon fill="#6666ff" stroke="#6666ff" points="89.1,-205.9 92.6,-215.9 96.1,-205.9 89.1,-205.9"/>
</g>
<!-- Associative -->
<g id="node2" class="node">
<title>Associative</title>
<g id="a_node2"><a xlink:href="/type/Associative" xlink:title="Associative">
<ellipse fill="none" stroke="#6666ff" cx="92.6" cy="-306" rx="61.99" ry="18"/>
<text text-anchor="middle" x="92.6" y="-302.3" font-family="FreeSans" font-size="14.00" fill="#6666ff">Associative</text>
</a>
</g>
</g>
<!-- QuantHash&#45;&gt;Associative -->
<g id="edge7" class="edge">
<title>QuantHash&#45;&gt;Associative</title>
<path fill="none" stroke="#6666ff" d="M92.6,-252.3C92.6,-260.02 92.6,-269.29 92.6,-277.89"/>
<polygon fill="#6666ff" stroke="#6666ff" points="89.1,-277.9 92.6,-287.9 96.1,-277.9 89.1,-277.9"/>
</g>
<!-- Mu -->
<g id="node4" class="node">
<title>Mu</title>
<g id="a_node4"><a xlink:href="/type/Mu" xlink:title="Mu">
<ellipse fill="none" stroke="#000000" cx="177.6" cy="-162" rx="27" ry="18"/>
<text text-anchor="middle" x="177.6" y="-158.3" font-family="FreeSans" font-size="14.00" fill="#000000">Mu</text>
</a>
</g>
</g>
<!-- Any -->
<g id="node5" class="node">
<title>Any</title>
<g id="a_node5"><a xlink:href="/type/Any" xlink:title="Any">
<ellipse fill="none" stroke="#000000" cx="166.6" cy="-90" rx="28.7" ry="18"/>
<text text-anchor="middle" x="166.6" y="-86.3" font-family="FreeSans" font-size="14.00" fill="#000000">Any</text>
</a>
</g>
</g>
<!-- Any&#45;&gt;Mu -->
<g id="edge1" class="edge">
<title>Any&#45;&gt;Mu</title>
<path fill="none" stroke="#000000" d="M169.26,-107.95C170.47,-115.65 171.94,-124.97 173.3,-133.64"/>
<polygon fill="#000000" stroke="#000000" points="169.87,-134.39 174.88,-143.72 176.79,-133.3 169.87,-134.39"/>
</g>
<!-- BagHash -->
<g id="node6" class="node">
<title>BagHash</title>
<g id="a_node6"><a xlink:href="/type/BagHash" xlink:title="BagHash">
<ellipse fill="none" stroke="#000000" cx="126.6" cy="-18" rx="51.19" ry="18"/>
<text text-anchor="middle" x="126.6" y="-14.3" font-family="FreeSans" font-size="14.00" fill="#000000">BagHash</text>
</a>
</g>
</g>
<!-- BagHash&#45;&gt;Baggy -->
<g id="edge8" class="edge">
<title>BagHash&#45;&gt;Baggy</title>
<path fill="none" stroke="#6666ff" d="M122.5,-36.13C116.68,-60.44 105.96,-105.18 99.07,-133.99"/>
<polygon fill="#6666ff" stroke="#6666ff" points="95.64,-133.27 96.71,-143.81 102.45,-134.9 95.64,-133.27"/>
</g>
<!-- BagHash&#45;&gt;Any -->
<g id="edge2" class="edge">
<title>BagHash&#45;&gt;Any</title>
<path fill="none" stroke="#000000" d="M136.28,-35.95C141.07,-44.32 146.94,-54.6 152.24,-63.87"/>
<polygon fill="#000000" stroke="#000000" points="149.28,-65.75 157.28,-72.69 155.36,-62.27 149.28,-65.75"/>
</g>
<!-- Mixy -->
<g id="node7" class="node">
<title>Mixy</title>
<g id="a_node7"><a xlink:href="/type/Mixy" xlink:title="Mixy">
<ellipse fill="none" stroke="#6666ff" cx="244.6" cy="-90" rx="31.7" ry="18"/>
<text text-anchor="middle" x="244.6" y="-86.3" font-family="FreeSans" font-size="14.00" fill="#6666ff">Mixy</text>
</a>
</g>
</g>
<!-- Mixy&#45;&gt;Baggy -->
<g id="edge9" class="edge">
<title>Mixy&#45;&gt;Baggy</title>
<path fill="none" stroke="#6666ff" d="M220.51,-102.09C195.77,-113.49 156.96,-131.36 128.58,-144.43"/>
<polygon fill="#6666ff" stroke="#6666ff" points="127,-141.3 119.38,-148.66 129.93,-147.66 127,-141.3"/>
</g>
<!-- Bag -->
<g id="node8" class="node">
<title>Bag</title>
<g id="a_node8"><a xlink:href="/type/Bag" xlink:title="Bag">
<ellipse fill="none" stroke="#000000" cx="28.6" cy="-18" rx="28.7" ry="18"/>
<text text-anchor="middle" x="28.6" y="-14.3" font-family="FreeSans" font-size="14.00" fill="#000000">Bag</text>
</a>
</g>
</g>
<!-- Bag&#45;&gt;Baggy -->
<g id="edge10" class="edge">
<title>Bag&#45;&gt;Baggy</title>
<path fill="none" stroke="#6666ff" d="M36.06,-35.57C47.08,-60.02 67.81,-106 80.87,-134.98"/>
<polygon fill="#6666ff" stroke="#6666ff" points="77.68,-136.42 84.98,-144.1 84.06,-133.54 77.68,-136.42"/>
</g>
<!-- Bag&#45;&gt;Any -->
<g id="edge3" class="edge">
<title>Bag&#45;&gt;Any</title>
<path fill="none" stroke="#000000" d="M50.16,-29.94C73.11,-41.58 109.65,-60.11 135.67,-73.31"/>
<polygon fill="#000000" stroke="#000000" points="134.23,-76.51 144.73,-77.91 137.4,-70.26 134.23,-76.51"/>
</g>
<!-- Mix -->
<g id="node9" class="node">
<title>Mix</title>
<g id="a_node9"><a xlink:href="/type/Mix" xlink:title="Mix">
<ellipse fill="none" stroke="#000000" cx="222.6" cy="-18" rx="27" ry="18"/>
<text text-anchor="middle" x="222.6" y="-14.3" font-family="FreeSans" font-size="14.00" fill="#000000">Mix</text>
</a>
</g>
</g>
<!-- Mix&#45;&gt;Any -->
<g id="edge4" class="edge">
<title>Mix&#45;&gt;Any</title>
<path fill="none" stroke="#000000" d="M210.45,-34.19C203.14,-43.33 193.68,-55.15 185.42,-65.48"/>
<polygon fill="#000000" stroke="#000000" points="182.63,-63.36 179.11,-73.36 188.09,-67.73 182.63,-63.36"/>
</g>
<!-- Mix&#45;&gt;Mixy -->
<g id="edge11" class="edge">
<title>Mix&#45;&gt;Mixy</title>
<path fill="none" stroke="#6666ff" d="M227.92,-35.95C230.44,-43.94 233.49,-53.67 236.3,-62.6"/>
<polygon fill="#6666ff" stroke="#6666ff" points="232.98,-63.72 239.32,-72.21 239.66,-61.62 232.98,-63.72"/>
</g>
<!-- MixHash -->
<g id="node10" class="node">
<title>MixHash</title>
<g id="a_node10"><a xlink:href="/type/MixHash" xlink:title="MixHash">
<ellipse fill="none" stroke="#000000" cx="316.6" cy="-18" rx="49.29" ry="18"/>
<text text-anchor="middle" x="316.6" y="-14.3" font-family="FreeSans" font-size="14.00" fill="#000000">MixHash</text>
</a>
</g>
</g>
<!-- MixHash&#45;&gt;Any -->
<g id="edge5" class="edge">
<title>MixHash&#45;&gt;Any</title>
<path fill="none" stroke="#000000" d="M287.32,-32.66C261.65,-44.64 224.44,-62.01 198.12,-74.29"/>
<polygon fill="#000000" stroke="#000000" points="196.55,-71.16 188.96,-78.56 199.51,-77.5 196.55,-71.16"/>
</g>
<!-- MixHash&#45;&gt;Mixy -->
<g id="edge12" class="edge">
<title>MixHash&#45;&gt;Mixy</title>
<path fill="none" stroke="#6666ff" d="M299.9,-35.24C290.27,-44.6 278.03,-56.5 267.51,-66.72"/>
<polygon fill="#6666ff" stroke="#6666ff" points="264.95,-64.33 260.22,-73.81 269.83,-69.35 264.95,-64.33"/>
</g>
</g>
</svg>
