<?xml version="1.0" encoding="UTF-8" standalone="no"?>
<!DOCTYPE svg PUBLIC "-//W3C//DTD SVG 1.1//EN"
 "http://www.w3.org/Graphics/SVG/1.1/DTD/svg11.dtd">
<!-- Generated by graphviz version 2.42.3 (0)
 -->
<!-- Title: perl6&#45;type&#45;graph Pages: 1 -->
<svg width="864pt" height="476pt"
 viewBox="0.00 0.00 864.00 476.00" xmlns="http://www.w3.org/2000/svg" xmlns:xlink="http://www.w3.org/1999/xlink">
<g id="graph0" class="graph" transform="scale(1 1) rotate(0) translate(4 472)">
<title>perl6&#45;type&#45;graph</title>
<polygon fill="white" stroke="transparent" points="-4,4 -4,-472 860,-472 860,4 -4,4"/>
<!-- Associative -->
<g id="node1" class="node">
<title>Associative</title>
<g id="a_node1"><a xlink:href="/type/Associative" xlink:title="Associative">
<ellipse fill="none" stroke="#6666ff" cx="164" cy="-450" rx="61.99" ry="18"/>
<text text-anchor="middle" x="164" y="-446.3" font-family="FreeSans" font-size="14.00" fill="#6666ff">Associative</text>
</a>
</g>
</g>
<!-- Mu -->
<g id="node2" class="node">
<title>Mu</title>
<g id="a_node2"><a xlink:href="/type/Mu" xlink:title="Mu">
<ellipse fill="none" stroke="#000000" cx="417" cy="-378" rx="27" ry="18"/>
<text text-anchor="middle" x="417" y="-374.3" font-family="FreeSans" font-size="14.00" fill="#000000">Mu</text>
</a>
</g>
</g>
<!-- Any -->
<g id="node3" class="node">
<title>Any</title>
<g id="a_node3"><a xlink:href="/type/Any" xlink:title="Any">
<ellipse fill="none" stroke="#000000" cx="417" cy="-306" rx="28.7" ry="18"/>
<text text-anchor="middle" x="417" y="-302.3" font-family="FreeSans" font-size="14.00" fill="#000000">Any</text>
</a>
</g>
</g>
<!-- Any&#45;&gt;Mu -->
<g id="edge1" class="edge">
<title>Any&#45;&gt;Mu</title>
<path fill="none" stroke="#000000" d="M417,-324.3C417,-332.02 417,-341.29 417,-349.89"/>
<polygon fill="#000000" stroke="#000000" points="413.5,-349.9 417,-359.9 420.5,-349.9 413.5,-349.9"/>
</g>
<!-- Telemetry -->
<g id="node4" class="node">
<title>Telemetry</title>
<g id="a_node4"><a xlink:href="/type/Telemetry" xlink:title="Telemetry">
<ellipse fill="none" stroke="#000000" cx="417" cy="-234" rx="55.49" ry="18"/>
<text text-anchor="middle" x="417" y="-230.3" font-family="FreeSans" font-size="14.00" fill="#000000">Telemetry</text>
</a>
</g>
</g>
<!-- Telemetry&#45;&gt;Any -->
<g id="edge2" class="edge">
<title>Telemetry&#45;&gt;Any</title>
<path fill="none" stroke="#000000" d="M417,-252.3C417,-260.02 417,-269.29 417,-277.89"/>
<polygon fill="#000000" stroke="#000000" points="413.5,-277.9 417,-287.9 420.5,-277.9 413.5,-277.9"/>
</g>
<!-- Telemetry::Period -->
<g id="node5" class="node">
<title>Telemetry::Period</title>
<g id="a_node5"><a xlink:href="/type/Telemetry::Period" xlink:title="Telemetry::Period">
<ellipse fill="none" stroke="#000000" cx="199" cy="-162" rx="89.08" ry="18"/>
<text text-anchor="middle" x="199" y="-158.3" font-family="FreeSans" font-size="14.00" fill="#000000">Telemetry::Period</text>
</a>
</g>
</g>
<!-- Telemetry::Period&#45;&gt;Associative -->
<g id="edge14" class="edge">
<title>Telemetry::Period&#45;&gt;Associative</title>
<path fill="none" stroke="#6666ff" d="M147.49,-176.72C88.53,-192.42 0,-216 0,-216 0,-216 0,-252 0,-252 0,-252 99.43,-371.44 143.45,-424.32"/>
<polygon fill="#6666ff" stroke="#6666ff" points="140.93,-426.76 150.02,-432.2 146.31,-422.28 140.93,-426.76"/>
</g>
<!-- Telemetry::Period&#45;&gt;Telemetry -->
<g id="edge3" class="edge">
<title>Telemetry::Period&#45;&gt;Telemetry</title>
<path fill="none" stroke="#000000" d="M244.43,-177.59C280.98,-189.32 332.17,-205.76 369.3,-217.68"/>
<polygon fill="#000000" stroke="#000000" points="368.3,-221.04 378.89,-220.76 370.44,-214.37 368.3,-221.04"/>
</g>
<!-- QuantHash -->
<g id="node6" class="node">
<title>QuantHash</title>
<g id="a_node6"><a xlink:href="/type/QuantHash" xlink:title="QuantHash">
<ellipse fill="none" stroke="#6666ff" cx="209" cy="-378" rx="61.99" ry="18"/>
<text text-anchor="middle" x="209" y="-374.3" font-family="FreeSans" font-size="14.00" fill="#6666ff">QuantHash</text>
</a>
</g>
</g>
<!-- QuantHash&#45;&gt;Associative -->
<g id="edge15" class="edge">
<title>QuantHash&#45;&gt;Associative</title>
<path fill="none" stroke="#6666ff" d="M198.11,-395.95C192.75,-404.29 186.17,-414.51 180.23,-423.75"/>
<polygon fill="#6666ff" stroke="#6666ff" points="177.26,-421.91 174.79,-432.21 183.14,-425.69 177.26,-421.91"/>
</g>
<!-- Cool -->
<g id="node7" class="node">
<title>Cool</title>
<g id="a_node7"><a xlink:href="/type/Cool" xlink:title="Cool">
<ellipse fill="none" stroke="#000000" cx="630" cy="-234" rx="30.59" ry="18"/>
<text text-anchor="middle" x="630" y="-230.3" font-family="FreeSans" font-size="14.00" fill="#000000">Cool</text>
</a>
</g>
</g>
<!-- Cool&#45;&gt;Any -->
<g id="edge4" class="edge">
<title>Cool&#45;&gt;Any</title>
<path fill="none" stroke="#000000" d="M605.81,-245.28C597.39,-248.86 590,-252 590,-252 590,-252 502.23,-278.89 451.72,-294.36"/>
<polygon fill="#000000" stroke="#000000" points="450.69,-291.02 442.16,-297.29 452.74,-297.71 450.69,-291.02"/>
</g>
<!-- Iterable -->
<g id="node8" class="node">
<title>Iterable</title>
<g id="a_node8"><a xlink:href="/type/Iterable" xlink:title="Iterable">
<ellipse fill="none" stroke="#6666ff" cx="536" cy="-234" rx="45.49" ry="18"/>
<text text-anchor="middle" x="536" y="-230.3" font-family="FreeSans" font-size="14.00" fill="#6666ff">Iterable</text>
</a>
</g>
</g>
<!-- Map -->
<g id="node9" class="node">
<title>Map</title>
<g id="a_node9"><a xlink:href="/type/Map" xlink:title="Map">
<ellipse fill="none" stroke="#000000" cx="630" cy="-162" rx="29.8" ry="18"/>
<text text-anchor="middle" x="630" y="-158.3" font-family="FreeSans" font-size="14.00" fill="#000000">Map</text>
</a>
</g>
</g>
<!-- Map&#45;&gt;Associative -->
<g id="edge17" class="edge">
<title>Map&#45;&gt;Associative</title>
<path fill="none" stroke="#6666ff" d="M657.26,-169.39C717.37,-183.49 856,-216 856,-216 856,-216 856,-252 856,-252 856,-252 770,-324 770,-324 770,-324 453,-396 453,-396 453,-396 309.46,-422.32 224.7,-437.87"/>
<polygon fill="#6666ff" stroke="#6666ff" points="223.88,-434.46 214.67,-439.71 225.14,-441.35 223.88,-434.46"/>
</g>
<!-- Map&#45;&gt;Cool -->
<g id="edge5" class="edge">
<title>Map&#45;&gt;Cool</title>
<path fill="none" stroke="#000000" d="M630,-180.3C630,-188.02 630,-197.29 630,-205.89"/>
<polygon fill="#000000" stroke="#000000" points="626.5,-205.9 630,-215.9 633.5,-205.9 626.5,-205.9"/>
</g>
<!-- Map&#45;&gt;Iterable -->
<g id="edge16" class="edge">
<title>Map&#45;&gt;Iterable</title>
<path fill="none" stroke="#6666ff" d="M611.88,-176.5C598.46,-186.49 579.92,-200.29 564.53,-211.75"/>
<polygon fill="#6666ff" stroke="#6666ff" points="562.28,-209.06 556.35,-217.84 566.46,-214.68 562.28,-209.06"/>
</g>
<!-- Pair -->
<g id="node10" class="node">
<title>Pair</title>
<g id="a_node10"><a xlink:href="/type/Pair" xlink:title="Pair">
<ellipse fill="none" stroke="#000000" cx="119" cy="-234" rx="27.9" ry="18"/>
<text text-anchor="middle" x="119" y="-230.3" font-family="FreeSans" font-size="14.00" fill="#000000">Pair</text>
</a>
</g>
</g>
<!-- Pair&#45;&gt;Associative -->
<g id="edge18" class="edge">
<title>Pair&#45;&gt;Associative</title>
<path fill="none" stroke="#6666ff" d="M121.03,-252.23C125.93,-293.76 138,-396 138,-396 138,-396 144.62,-409.5 151.18,-422.87"/>
<polygon fill="#6666ff" stroke="#6666ff" points="148.08,-424.5 155.63,-431.94 154.37,-421.42 148.08,-424.5"/>
</g>
<!-- Pair&#45;&gt;Any -->
<g id="edge6" class="edge">
<title>Pair&#45;&gt;Any</title>
<path fill="none" stroke="#000000" d="M141.38,-245.28C149.17,-248.86 156,-252 156,-252 156,-252 308.04,-282.87 380.04,-297.49"/>
<polygon fill="#000000" stroke="#000000" points="379.55,-300.97 390.05,-299.53 380.95,-294.11 379.55,-300.97"/>
</g>
<!-- PseudoStash -->
<g id="node11" class="node">
<title>PseudoStash</title>
<g id="a_node11"><a xlink:href="/type/PseudoStash" xlink:title="PseudoStash">
<ellipse fill="none" stroke="#000000" cx="570" cy="-90" rx="68.79" ry="18"/>
<text text-anchor="middle" x="570" y="-86.3" font-family="FreeSans" font-size="14.00" fill="#000000">PseudoStash</text>
</a>
</g>
</g>
<!-- PseudoStash&#45;&gt;Map -->
<g id="edge7" class="edge">
<title>PseudoStash&#45;&gt;Map</title>
<path fill="none" stroke="#000000" d="M584.52,-107.95C592.22,-116.92 601.79,-128.08 610.16,-137.85"/>
<polygon fill="#000000" stroke="#000000" points="607.67,-140.33 616.84,-145.64 612.99,-135.77 607.67,-140.33"/>
</g>
<!-- Hash -->
<g id="node12" class="node">
<title>Hash</title>
<g id="a_node12"><a xlink:href="/type/Hash" xlink:title="Hash">
<ellipse fill="none" stroke="#000000" cx="691" cy="-90" rx="33.6" ry="18"/>
<text text-anchor="middle" x="691" y="-86.3" font-family="FreeSans" font-size="14.00" fill="#000000">Hash</text>
</a>
</g>
</g>
<!-- Hash&#45;&gt;Map -->
<g id="edge8" class="edge">
<title>Hash&#45;&gt;Map</title>
<path fill="none" stroke="#000000" d="M677.46,-106.54C669.49,-115.69 659.24,-127.45 650.31,-137.69"/>
<polygon fill="#000000" stroke="#000000" points="647.43,-135.67 643.5,-145.51 652.71,-140.27 647.43,-135.67"/>
</g>
<!-- Setty -->
<g id="node13" class="node">
<title>Setty</title>
<g id="a_node13"><a xlink:href="/type/Setty" xlink:title="Setty">
<ellipse fill="none" stroke="#6666ff" cx="727" cy="-306" rx="34.39" ry="18"/>
<text text-anchor="middle" x="727" y="-302.3" font-family="FreeSans" font-size="14.00" fill="#6666ff">Setty</text>
</a>
</g>
</g>
<!-- Setty&#45;&gt;QuantHash -->
<g id="edge19" class="edge">
<title>Setty&#45;&gt;QuantHash</title>
<path fill="none" stroke="#6666ff" d="M693.81,-311.49C609.47,-322.88 385.72,-353.12 274.15,-368.2"/>
<polygon fill="#6666ff" stroke="#6666ff" points="273.48,-364.75 264.04,-369.56 274.42,-371.69 273.48,-364.75"/>
</g>
<!-- Baggy -->
<g id="node14" class="node">
<title>Baggy</title>
<g id="a_node14"><a xlink:href="/type/Baggy" xlink:title="Baggy">
<ellipse fill="none" stroke="#6666ff" cx="201" cy="-306" rx="39.79" ry="18"/>
<text text-anchor="middle" x="201" y="-302.3" font-family="FreeSans" font-size="14.00" fill="#6666ff">Baggy</text>
</a>
</g>
</g>
<!-- Baggy&#45;&gt;QuantHash -->
<g id="edge20" class="edge">
<title>Baggy&#45;&gt;QuantHash</title>
<path fill="none" stroke="#6666ff" d="M202.98,-324.3C203.86,-332.02 204.92,-341.29 205.9,-349.89"/>
<polygon fill="#6666ff" stroke="#6666ff" points="202.43,-350.36 207.05,-359.9 209.39,-349.56 202.43,-350.36"/>
</g>
<!-- Stash -->
<g id="node15" class="node">
<title>Stash</title>
<g id="a_node15"><a xlink:href="/type/Stash" xlink:title="Stash">
<ellipse fill="none" stroke="#000000" cx="691" cy="-18" rx="36.29" ry="18"/>
<text text-anchor="middle" x="691" y="-14.3" font-family="FreeSans" font-size="14.00" fill="#000000">Stash</text>
</a>
</g>
</g>
<!-- Stash&#45;&gt;Hash -->
<g id="edge9" class="edge">
<title>Stash&#45;&gt;Hash</title>
<path fill="none" stroke="#000000" d="M691,-36.3C691,-44.02 691,-53.29 691,-61.89"/>
<polygon fill="#000000" stroke="#000000" points="687.5,-61.9 691,-71.9 694.5,-61.9 687.5,-61.9"/>
</g>
<!-- SetHash -->
<g id="node16" class="node">
<title>SetHash</title>
<g id="a_node16"><a xlink:href="/type/SetHash" xlink:title="SetHash">
<ellipse fill="none" stroke="#000000" cx="727" cy="-234" rx="48.19" ry="18"/>
<text text-anchor="middle" x="727" y="-230.3" font-family="FreeSans" font-size="14.00" fill="#000000">SetHash</text>
</a>
</g>
</g>
<!-- SetHash&#45;&gt;Any -->
<g id="edge10" class="edge">
<title>SetHash&#45;&gt;Any</title>
<path fill="none" stroke="#000000" d="M690.58,-245.86C679.41,-249.19 670,-252 670,-252 670,-252 524.65,-282.45 454.29,-297.19"/>
<polygon fill="#000000" stroke="#000000" points="453.15,-293.85 444.08,-299.33 454.58,-300.7 453.15,-293.85"/>
</g>
<!-- SetHash&#45;&gt;Setty -->
<g id="edge21" class="edge">
<title>SetHash&#45;&gt;Setty</title>
<path fill="none" stroke="#6666ff" d="M727,-252.3C727,-260.02 727,-269.29 727,-277.89"/>
<polygon fill="#6666ff" stroke="#6666ff" points="723.5,-277.9 727,-287.9 730.5,-277.9 723.5,-277.9"/>
</g>
<!-- Set -->
<g id="node17" class="node">
<title>Set</title>
<g id="a_node17"><a xlink:href="/type/Set" xlink:title="Set">
<ellipse fill="none" stroke="#000000" cx="820" cy="-234" rx="27" ry="18"/>
<text text-anchor="middle" x="820" y="-230.3" font-family="FreeSans" font-size="14.00" fill="#000000">Set</text>
</a>
</g>
</g>
<!-- Set&#45;&gt;Any -->
<g id="edge11" class="edge">
<title>Set&#45;&gt;Any</title>
<path fill="none" stroke="#000000" d="M798.64,-245.09C790.89,-248.75 784,-252 784,-252 784,-252 548.44,-286.02 454.76,-299.55"/>
<polygon fill="#000000" stroke="#000000" points="453.98,-296.12 444.58,-301.02 454.98,-303.05 453.98,-296.12"/>
</g>
<!-- Set&#45;&gt;Setty -->
<g id="edge22" class="edge">
<title>Set&#45;&gt;Setty</title>
<path fill="none" stroke="#6666ff" d="M802.51,-248.17C788.92,-258.39 769.84,-272.76 754.25,-284.49"/>
<polygon fill="#6666ff" stroke="#6666ff" points="751.9,-281.88 746.01,-290.69 756.11,-287.47 751.9,-281.88"/>
</g>
<!-- Mixy -->
<g id="node18" class="node">
<title>Mixy</title>
<g id="a_node18"><a xlink:href="/type/Mixy" xlink:title="Mixy">
<ellipse fill="none" stroke="#6666ff" cx="41" cy="-234" rx="31.7" ry="18"/>
<text text-anchor="middle" x="41" y="-230.3" font-family="FreeSans" font-size="14.00" fill="#6666ff">Mixy</text>
</a>
</g>
</g>
<!-- Mixy&#45;&gt;Baggy -->
<g id="edge23" class="edge">
<title>Mixy&#45;&gt;Baggy</title>
<path fill="none" stroke="#6666ff" d="M65.65,-245.78C91.91,-257.27 133.78,-275.59 164,-288.81"/>
<polygon fill="#6666ff" stroke="#6666ff" points="162.8,-292.11 173.37,-292.91 165.61,-285.7 162.8,-292.11"/>
</g>
<!-- Bag -->
<g id="node19" class="node">
<title>Bag</title>
<g id="a_node19"><a xlink:href="/type/Bag" xlink:title="Bag">
<ellipse fill="none" stroke="#000000" cx="194" cy="-234" rx="28.7" ry="18"/>
<text text-anchor="middle" x="194" y="-230.3" font-family="FreeSans" font-size="14.00" fill="#000000">Bag</text>
</a>
</g>
</g>
<!-- Bag&#45;&gt;Any -->
<g id="edge12" class="edge">
<title>Bag&#45;&gt;Any</title>
<path fill="none" stroke="#000000" d="M216.54,-245.09C224.73,-248.75 232,-252 232,-252 232,-252 327.71,-279.42 381.45,-294.81"/>
<polygon fill="#000000" stroke="#000000" points="380.7,-298.24 391.28,-297.63 382.63,-291.51 380.7,-298.24"/>
</g>
<!-- Bag&#45;&gt;Baggy -->
<g id="edge24" class="edge">
<title>Bag&#45;&gt;Baggy</title>
<path fill="none" stroke="#6666ff" d="M195.73,-252.3C196.5,-260.02 197.43,-269.29 198.29,-277.89"/>
<polygon fill="#6666ff" stroke="#6666ff" points="194.81,-278.29 199.29,-287.9 201.78,-277.6 194.81,-278.29"/>
</g>
<!-- BagHash -->
<g id="node20" class="node">
<title>BagHash</title>
<g id="a_node20"><a xlink:href="/type/BagHash" xlink:title="BagHash">
<ellipse fill="none" stroke="#000000" cx="292" cy="-234" rx="51.19" ry="18"/>
<text text-anchor="middle" x="292" y="-230.3" font-family="FreeSans" font-size="14.00" fill="#000000">BagHash</text>
</a>
</g>
</g>
<!-- BagHash&#45;&gt;Any -->
<g id="edge13" class="edge">
<title>BagHash&#45;&gt;Any</title>
<path fill="none" stroke="#000000" d="M318.2,-249.67C338.41,-260.99 366.36,-276.64 387.38,-288.41"/>
<polygon fill="#000000" stroke="#000000" points="385.77,-291.52 396.2,-293.35 389.19,-285.41 385.77,-291.52"/>
</g>
<!-- BagHash&#45;&gt;Baggy -->
<g id="edge25" class="edge">
<title>BagHash&#45;&gt;Baggy</title>
<path fill="none" stroke="#6666ff" d="M271.35,-250.88C258.67,-260.64 242.28,-273.25 228.5,-283.84"/>
<polygon fill="#6666ff" stroke="#6666ff" points="226.12,-281.26 220.32,-290.14 230.38,-286.81 226.12,-281.26"/>
</g>
</g>
</svg>
