<?xml version="1.0" encoding="UTF-8" standalone="no"?>
<!DOCTYPE svg PUBLIC "-//W3C//DTD SVG 1.1//EN"
 "http://www.w3.org/Graphics/SVG/1.1/DTD/svg11.dtd">
<!-- Generated by graphviz version 2.42.3 (0)
 -->
<!-- Title: perl6&#45;type&#45;graph Pages: 1 -->
<svg width="1621pt" height="1759pt"
 viewBox="0.00 0.00 1620.88 1759.13" xmlns="http://www.w3.org/2000/svg" xmlns:xlink="http://www.w3.org/1999/xlink">
<g id="graph0" class="graph" transform="scale(1 1) rotate(0) translate(4 1755.13)">
<title>perl6&#45;type&#45;graph</title>
<polygon fill="white" stroke="transparent" points="-4,4 -4,-1755.13 1616.88,-1755.13 1616.88,4 -4,4"/>
<!-- Metamodel::ClassHOW -->
<g id="node1" class="node">
<title>Metamodel::ClassHOW</title>
<g id="a_node1"><a xlink:href="/type/Metamodel::ClassHOW" xlink:title="Metamodel::ClassHOW">
<ellipse fill="none" stroke="#000000" cx="815.35" cy="-1073.8" rx="113.18" ry="18"/>
<text text-anchor="middle" x="815.35" y="-1070.1" font-family="FreeSans" font-size="14.00" fill="#000000">Metamodel::ClassHOW</text>
</a>
</g>
</g>
<!-- Any -->
<g id="node3" class="node">
<title>Any</title>
<g id="a_node3"><a xlink:href="/type/Any" xlink:title="Any">
<ellipse fill="none" stroke="#000000" cx="1148.96" cy="-454.32" rx="28.7" ry="18"/>
<text text-anchor="middle" x="1148.96" y="-450.62" font-family="FreeSans" font-size="14.00" fill="#000000">Any</text>
</a>
</g>
</g>
<!-- Metamodel::ClassHOW&#45;&gt;Any -->
<g id="edge1" class="edge">
<title>Metamodel::ClassHOW&#45;&gt;Any</title>
<path fill="none" stroke="#000000" d="M824.61,-1055.72C857.01,-992.47 963.34,-784.85 963.34,-784.85 963.34,-784.85 1090.5,-558.42 1134.32,-480.38"/>
<polygon fill="#000000" stroke="#000000" points="1137.4,-482.06 1139.24,-471.62 1131.29,-478.63 1137.4,-482.06"/>
</g>
<!-- Metamodel::Naming -->
<g id="node4" class="node">
<title>Metamodel::Naming</title>
<g id="a_node4"><a xlink:href="/type/Metamodel::Naming" xlink:title="Metamodel::Naming">
<ellipse fill="none" stroke="#6666ff" cx="662.74" cy="-1684.69" rx="101.28" ry="18"/>
<text text-anchor="middle" x="662.74" y="-1680.99" font-family="FreeSans" font-size="14.00" fill="#6666ff">Metamodel::Naming</text>
</a>
</g>
</g>
<!-- Metamodel::ClassHOW&#45;&gt;Metamodel::Naming -->
<g id="edge4" class="edge">
<title>Metamodel::ClassHOW&#45;&gt;Metamodel::Naming</title>
<path fill="none" stroke="#6666ff" d="M810.79,-1092.08C789.07,-1179.03 696.18,-1550.83 669.77,-1656.55"/>
<polygon fill="#6666ff" stroke="#6666ff" points="666.32,-1655.93 667.29,-1666.48 673.11,-1657.62 666.32,-1655.93"/>
</g>
<!-- Metamodel::Documenting -->
<g id="node5" class="node">
<title>Metamodel::Documenting</title>
<g id="a_node5"><a xlink:href="/type/Metamodel::Documenting" xlink:title="Metamodel::Documenting">
<ellipse fill="none" stroke="#6666ff" cx="1241.31" cy="-1219.62" rx="126.98" ry="18"/>
<text text-anchor="middle" x="1241.31" y="-1215.92" font-family="FreeSans" font-size="14.00" fill="#6666ff">Metamodel::Documenting</text>
</a>
</g>
</g>
<!-- Metamodel::ClassHOW&#45;&gt;Metamodel::Documenting -->
<g id="edge5" class="edge">
<title>Metamodel::ClassHOW&#45;&gt;Metamodel::Documenting</title>
<path fill="none" stroke="#6666ff" d="M863.39,-1090.24C942.06,-1117.17 1098.09,-1170.59 1182.98,-1199.65"/>
<polygon fill="#6666ff" stroke="#6666ff" points="1181.88,-1202.97 1192.47,-1202.9 1184.14,-1196.35 1181.88,-1202.97"/>
</g>
<!-- Metamodel::Versioning -->
<g id="node6" class="node">
<title>Metamodel::Versioning</title>
<g id="a_node6"><a xlink:href="/type/Metamodel::Versioning" xlink:title="Metamodel::Versioning">
<ellipse fill="none" stroke="#6666ff" cx="496.6" cy="-1301.28" rx="114.28" ry="18"/>
<text text-anchor="middle" x="496.6" y="-1297.58" font-family="FreeSans" font-size="14.00" fill="#6666ff">Metamodel::Versioning</text>
</a>
</g>
</g>
<!-- Metamodel::ClassHOW&#45;&gt;Metamodel::Versioning -->
<g id="edge6" class="edge">
<title>Metamodel::ClassHOW&#45;&gt;Metamodel::Versioning</title>
<path fill="none" stroke="#6666ff" d="M790.61,-1091.46C733.77,-1132.02 593.88,-1231.86 529.72,-1277.64"/>
<polygon fill="#6666ff" stroke="#6666ff" points="527.66,-1274.81 521.55,-1283.47 531.72,-1280.51 527.66,-1274.81"/>
</g>
<!-- Metamodel::Stashing -->
<g id="node7" class="node">
<title>Metamodel::Stashing</title>
<g id="a_node7"><a xlink:href="/type/Metamodel::Stashing" xlink:title="Metamodel::Stashing">
<ellipse fill="none" stroke="#6666ff" cx="290.99" cy="-654.67" rx="105.88" ry="18"/>
<text text-anchor="middle" x="290.99" y="-650.97" font-family="FreeSans" font-size="14.00" fill="#6666ff">Metamodel::Stashing</text>
</a>
</g>
</g>
<!-- Metamodel::ClassHOW&#45;&gt;Metamodel::Stashing -->
<g id="edge7" class="edge">
<title>Metamodel::ClassHOW&#45;&gt;Metamodel::Stashing</title>
<path fill="none" stroke="#6666ff" d="M793.89,-1055.87C734.69,-1006.42 573.48,-871.74 573.48,-871.74 573.48,-871.74 395.55,-735.02 322.12,-678.59"/>
<polygon fill="#6666ff" stroke="#6666ff" points="324.17,-675.75 314.11,-672.43 319.9,-681.3 324.17,-675.75"/>
</g>
<!-- Metamodel::AttributeContainer -->
<g id="node8" class="node">
<title>Metamodel::AttributeContainer</title>
<g id="a_node8"><a xlink:href="/type/Metamodel::AttributeContainer" xlink:title="Metamodel::AttributeContainer">
<ellipse fill="none" stroke="#6666ff" cx="1432.45" cy="-929.9" rx="150.27" ry="18"/>
<text text-anchor="middle" x="1432.45" y="-926.2" font-family="FreeSans" font-size="14.00" fill="#6666ff">Metamodel::AttributeContainer</text>
</a>
</g>
</g>
<!-- Metamodel::ClassHOW&#45;&gt;Metamodel::AttributeContainer -->
<g id="edge8" class="edge">
<title>Metamodel::ClassHOW&#45;&gt;Metamodel::AttributeContainer</title>
<path fill="none" stroke="#6666ff" d="M879.36,-1058.87C993.13,-1032.34 1230.2,-977.06 1353.75,-948.25"/>
<polygon fill="#6666ff" stroke="#6666ff" points="1354.59,-951.65 1363.53,-945.97 1353,-944.83 1354.59,-951.65"/>
</g>
<!-- Metamodel::Finalization -->
<g id="node9" class="node">
<title>Metamodel::Finalization</title>
<g id="a_node9"><a xlink:href="/type/Metamodel::Finalization" xlink:title="Metamodel::Finalization">
<ellipse fill="none" stroke="#6666ff" cx="502.24" cy="-552.53" rx="116.98" ry="18"/>
<text text-anchor="middle" x="502.24" y="-548.83" font-family="FreeSans" font-size="14.00" fill="#6666ff">Metamodel::Finalization</text>
</a>
</g>
</g>
<!-- Metamodel::ClassHOW&#45;&gt;Metamodel::Finalization -->
<g id="edge9" class="edge">
<title>Metamodel::ClassHOW&#45;&gt;Metamodel::Finalization</title>
<path fill="none" stroke="#6666ff" d="M804.58,-1055.85C758.05,-978.4 574.28,-672.46 518.43,-579.48"/>
<polygon fill="#6666ff" stroke="#6666ff" points="521.29,-577.44 513.14,-570.67 515.28,-581.04 521.29,-577.44"/>
</g>
<!-- Metamodel::MethodContainer -->
<g id="node10" class="node">
<title>Metamodel::MethodContainer</title>
<g id="a_node10"><a xlink:href="/type/Metamodel::MethodContainer" xlink:title="Metamodel::MethodContainer">
<ellipse fill="none" stroke="#6666ff" cx="861.35" cy="-553.4" rx="143.77" ry="18"/>
<text text-anchor="middle" x="861.35" y="-549.7" font-family="FreeSans" font-size="14.00" fill="#6666ff">Metamodel::MethodContainer</text>
</a>
</g>
</g>
<!-- Metamodel::ClassHOW&#45;&gt;Metamodel::MethodContainer -->
<g id="edge10" class="edge">
<title>Metamodel::ClassHOW&#45;&gt;Metamodel::MethodContainer</title>
<path fill="none" stroke="#6666ff" d="M816.96,-1055.58C823.81,-978.14 850.52,-675.95 858.85,-581.66"/>
<polygon fill="#6666ff" stroke="#6666ff" points="862.36,-581.73 859.76,-571.47 855.39,-581.12 862.36,-581.73"/>
</g>
<!-- Metamodel::PrivateMethodContainer -->
<g id="node11" class="node">
<title>Metamodel::PrivateMethodContainer</title>
<g id="a_node11"><a xlink:href="/type/Metamodel::PrivateMethodContainer" xlink:title="Metamodel::PrivateMethodContainer">
<ellipse fill="none" stroke="#6666ff" cx="686.46" cy="-430.35" rx="174.67" ry="18"/>
<text text-anchor="middle" x="686.46" y="-426.65" font-family="FreeSans" font-size="14.00" fill="#6666ff">Metamodel::PrivateMethodContainer</text>
</a>
</g>
</g>
<!-- Metamodel::ClassHOW&#45;&gt;Metamodel::PrivateMethodContainer -->
<g id="edge11" class="edge">
<title>Metamodel::ClassHOW&#45;&gt;Metamodel::PrivateMethodContainer</title>
<path fill="none" stroke="#6666ff" d="M811.7,-1055.58C793.66,-965.52 714.01,-567.91 692.07,-458.37"/>
<polygon fill="#6666ff" stroke="#6666ff" points="695.47,-457.53 690.07,-448.41 688.61,-458.9 695.47,-457.53"/>
</g>
<!-- Metamodel::MultiMethodContainer -->
<g id="node12" class="node">
<title>Metamodel::MultiMethodContainer</title>
<g id="a_node12"><a xlink:href="/type/Metamodel::MultiMethodContainer" xlink:title="Metamodel::MultiMethodContainer">
<ellipse fill="none" stroke="#6666ff" cx="165.74" cy="-943.34" rx="165.97" ry="18"/>
<text text-anchor="middle" x="165.74" y="-939.64" font-family="FreeSans" font-size="14.00" fill="#6666ff">Metamodel::MultiMethodContainer</text>
</a>
</g>
</g>
<!-- Metamodel::ClassHOW&#45;&gt;Metamodel::MultiMethodContainer -->
<g id="edge12" class="edge">
<title>Metamodel::ClassHOW&#45;&gt;Metamodel::MultiMethodContainer</title>
<path fill="none" stroke="#6666ff" d="M744.91,-1059.65C625.9,-1035.75 385.3,-987.44 254.79,-961.23"/>
<polygon fill="#6666ff" stroke="#6666ff" points="255.31,-957.76 244.81,-959.22 253.93,-964.62 255.31,-957.76"/>
</g>
<!-- Metamodel::RoleContainer -->
<g id="node13" class="node">
<title>Metamodel::RoleContainer</title>
<g id="a_node13"><a xlink:href="/type/Metamodel::RoleContainer" xlink:title="Metamodel::RoleContainer">
<ellipse fill="none" stroke="#6666ff" cx="1482.89" cy="-1175.61" rx="129.98" ry="18"/>
<text text-anchor="middle" x="1482.89" y="-1171.91" font-family="FreeSans" font-size="14.00" fill="#6666ff">Metamodel::RoleContainer</text>
</a>
</g>
</g>
<!-- Metamodel::ClassHOW&#45;&gt;Metamodel::RoleContainer -->
<g id="edge13" class="edge">
<title>Metamodel::ClassHOW&#45;&gt;Metamodel::RoleContainer</title>
<path fill="none" stroke="#6666ff" d="M897.21,-1086.28C1020.46,-1105.08 1253.29,-1140.59 1385.23,-1160.72"/>
<polygon fill="#6666ff" stroke="#6666ff" points="1384.92,-1164.21 1395.33,-1162.26 1385.97,-1157.29 1384.92,-1164.21"/>
</g>
<!-- Metamodel::MultipleInheritance -->
<g id="node14" class="node">
<title>Metamodel::MultipleInheritance</title>
<g id="a_node14"><a xlink:href="/type/Metamodel::MultipleInheritance" xlink:title="Metamodel::MultipleInheritance">
<ellipse fill="none" stroke="#6666ff" cx="1360.19" cy="-1458.11" rx="153.27" ry="18"/>
<text text-anchor="middle" x="1360.19" y="-1454.41" font-family="FreeSans" font-size="14.00" fill="#6666ff">Metamodel::MultipleInheritance</text>
</a>
</g>
</g>
<!-- Metamodel::ClassHOW&#45;&gt;Metamodel::MultipleInheritance -->
<g id="edge14" class="edge">
<title>Metamodel::ClassHOW&#45;&gt;Metamodel::MultipleInheritance</title>
<path fill="none" stroke="#6666ff" d="M840.54,-1091.56C929.1,-1154.03 1226.24,-1363.63 1326.69,-1434.48"/>
<polygon fill="#6666ff" stroke="#6666ff" points="1324.77,-1437.41 1334.96,-1440.31 1328.81,-1431.69 1324.77,-1437.41"/>
</g>
<!-- Metamodel::DefaultParent -->
<g id="node15" class="node">
<title>Metamodel::DefaultParent</title>
<g id="a_node15"><a xlink:href="/type/Metamodel::DefaultParent" xlink:title="Metamodel::DefaultParent">
<ellipse fill="none" stroke="#6666ff" cx="889.07" cy="-1733.13" rx="128.08" ry="18"/>
<text text-anchor="middle" x="889.07" y="-1729.43" font-family="FreeSans" font-size="14.00" fill="#6666ff">Metamodel::DefaultParent</text>
</a>
</g>
</g>
<!-- Metamodel::ClassHOW&#45;&gt;Metamodel::DefaultParent -->
<g id="edge15" class="edge">
<title>Metamodel::ClassHOW&#45;&gt;Metamodel::DefaultParent</title>
<path fill="none" stroke="#6666ff" d="M817.3,-1091.82C825.74,-1169.92 858.72,-1475.14 858.72,-1475.14 858.72,-1475.14 877.84,-1637.67 885.73,-1704.72"/>
<polygon fill="#6666ff" stroke="#6666ff" points="882.29,-1705.47 886.93,-1714.99 889.24,-1704.65 882.29,-1705.47"/>
</g>
<!-- Metamodel::C3MRO -->
<g id="node16" class="node">
<title>Metamodel::C3MRO</title>
<g id="a_node16"><a xlink:href="/type/Metamodel::C3MRO" xlink:title="Metamodel::C3MRO">
<ellipse fill="none" stroke="#6666ff" cx="1065.03" cy="-784.98" rx="100.18" ry="18"/>
<text text-anchor="middle" x="1065.03" y="-781.28" font-family="FreeSans" font-size="14.00" fill="#6666ff">Metamodel::C3MRO</text>
</a>
</g>
</g>
<!-- Metamodel::ClassHOW&#45;&gt;Metamodel::C3MRO -->
<g id="edge16" class="edge">
<title>Metamodel::ClassHOW&#45;&gt;Metamodel::C3MRO</title>
<path fill="none" stroke="#6666ff" d="M830.97,-1055.73C873.71,-1006.29 992.7,-868.65 1042.58,-810.95"/>
<polygon fill="#6666ff" stroke="#6666ff" points="1045.53,-812.89 1049.42,-803.04 1040.23,-808.31 1045.53,-812.89"/>
</g>
<!-- Metamodel::MROBasedMethodDispatch -->
<g id="node17" class="node">
<title>Metamodel::MROBasedMethodDispatch</title>
<g id="a_node17"><a xlink:href="/type/Metamodel::MROBasedMethodDispatch" xlink:title="Metamodel::MROBasedMethodDispatch">
<ellipse fill="none" stroke="#6666ff" cx="1316.88" cy="-720.11" rx="188.47" ry="18"/>
<text text-anchor="middle" x="1316.88" y="-716.41" font-family="FreeSans" font-size="14.00" fill="#6666ff">Metamodel::MROBasedMethodDispatch</text>
</a>
</g>
</g>
<!-- Metamodel::ClassHOW&#45;&gt;Metamodel::MROBasedMethodDispatch -->
<g id="edge17" class="edge">
<title>Metamodel::ClassHOW&#45;&gt;Metamodel::MROBasedMethodDispatch</title>
<path fill="none" stroke="#6666ff" d="M840.57,-1056.02C923.59,-997.47 1188.46,-810.67 1282.97,-744.03"/>
<polygon fill="#6666ff" stroke="#6666ff" points="1285.16,-746.77 1291.31,-738.14 1281.12,-741.05 1285.16,-746.77"/>
</g>
<!-- Metamodel::MROBasedTypeChecking -->
<g id="node18" class="node">
<title>Metamodel::MROBasedTypeChecking</title>
<g id="a_node18"><a xlink:href="/type/Metamodel::MROBasedTypeChecking" xlink:title="Metamodel::MROBasedTypeChecking">
<ellipse fill="none" stroke="#6666ff" cx="256.83" cy="-1427.86" rx="178.97" ry="18"/>
<text text-anchor="middle" x="256.83" y="-1424.16" font-family="FreeSans" font-size="14.00" fill="#6666ff">Metamodel::MROBasedTypeChecking</text>
</a>
</g>
</g>
<!-- Metamodel::ClassHOW&#45;&gt;Metamodel::MROBasedTypeChecking -->
<g id="edge18" class="edge">
<title>Metamodel::ClassHOW&#45;&gt;Metamodel::MROBasedTypeChecking</title>
<path fill="none" stroke="#6666ff" d="M782.32,-1091.08C680.87,-1144.16 380.61,-1301.25 380.61,-1301.25 380.61,-1301.25 318.01,-1365.28 281.85,-1402.27"/>
<polygon fill="#6666ff" stroke="#6666ff" points="279.05,-1400.13 274.56,-1409.72 284.06,-1405.02 279.05,-1400.13"/>
</g>
<!-- Metamodel::Trusting -->
<g id="node19" class="node">
<title>Metamodel::Trusting</title>
<g id="a_node19"><a xlink:href="/type/Metamodel::Trusting" xlink:title="Metamodel::Trusting">
<ellipse fill="none" stroke="#6666ff" cx="191.07" cy="-1182.16" rx="102.88" ry="18"/>
<text text-anchor="middle" x="191.07" y="-1178.46" font-family="FreeSans" font-size="14.00" fill="#6666ff">Metamodel::Trusting</text>
</a>
</g>
</g>
<!-- Metamodel::ClassHOW&#45;&gt;Metamodel::Trusting -->
<g id="edge19" class="edge">
<title>Metamodel::ClassHOW&#45;&gt;Metamodel::Trusting</title>
<path fill="none" stroke="#6666ff" d="M738.8,-1087.08C621,-1107.53 396.15,-1146.56 274.38,-1167.7"/>
<polygon fill="#6666ff" stroke="#6666ff" points="273.62,-1164.28 264.36,-1169.44 274.81,-1171.17 273.62,-1164.28"/>
</g>
<!-- Metamodel::BUILDPLAN -->
<g id="node20" class="node">
<title>Metamodel::BUILDPLAN</title>
<g id="a_node20"><a xlink:href="/type/Metamodel::BUILDPLAN" xlink:title="Metamodel::BUILDPLAN">
<ellipse fill="none" stroke="#6666ff" cx="453.03" cy="-1604.23" rx="118.08" ry="18"/>
<text text-anchor="middle" x="453.03" y="-1600.53" font-family="FreeSans" font-size="14.00" fill="#6666ff">Metamodel::BUILDPLAN</text>
</a>
</g>
</g>
<!-- Metamodel::ClassHOW&#45;&gt;Metamodel::BUILDPLAN -->
<g id="edge20" class="edge">
<title>Metamodel::ClassHOW&#45;&gt;Metamodel::BUILDPLAN</title>
<path fill="none" stroke="#6666ff" d="M803.09,-1091.75C749.38,-1170.38 534.74,-1484.61 470.98,-1577.95"/>
<polygon fill="#6666ff" stroke="#6666ff" points="468.04,-1576.05 465.29,-1586.28 473.82,-1580 468.04,-1576.05"/>
</g>
<!-- Metamodel::Mixins -->
<g id="node21" class="node">
<title>Metamodel::Mixins</title>
<g id="a_node21"><a xlink:href="/type/Metamodel::Mixins" xlink:title="Metamodel::Mixins">
<ellipse fill="none" stroke="#6666ff" cx="955.21" cy="-1475.2" rx="94.78" ry="18"/>
<text text-anchor="middle" x="955.21" y="-1471.5" font-family="FreeSans" font-size="14.00" fill="#6666ff">Metamodel::Mixins</text>
</a>
</g>
</g>
<!-- Metamodel::ClassHOW&#45;&gt;Metamodel::Mixins -->
<g id="edge21" class="edge">
<title>Metamodel::ClassHOW&#45;&gt;Metamodel::Mixins</title>
<path fill="none" stroke="#6666ff" d="M821.64,-1091.82C843.86,-1155.62 918.9,-1370.99 945.65,-1447.75"/>
<polygon fill="#6666ff" stroke="#6666ff" points="942.35,-1448.93 948.95,-1457.22 948.96,-1446.63 942.35,-1448.93"/>
</g>
<!-- Metamodel::BoolificationProtocol -->
<g id="node22" class="node">
<title>Metamodel::BoolificationProtocol</title>
<g id="a_node22"><a xlink:href="/type/Metamodel::BoolificationProtocol" xlink:title="Metamodel::BoolificationProtocol">
<ellipse fill="none" stroke="#6666ff" cx="414.6" cy="-871.6" rx="157.07" ry="18"/>
<text text-anchor="middle" x="414.6" y="-867.9" font-family="FreeSans" font-size="14.00" fill="#6666ff">Metamodel::BoolificationProtocol</text>
</a>
</g>
</g>
<!-- Metamodel::ClassHOW&#45;&gt;Metamodel::BoolificationProtocol -->
<g id="edge22" class="edge">
<title>Metamodel::ClassHOW&#45;&gt;Metamodel::BoolificationProtocol</title>
<path fill="none" stroke="#6666ff" d="M781.19,-1056.56C708.7,-1019.99 539.58,-934.66 458.92,-893.97"/>
<polygon fill="#6666ff" stroke="#6666ff" points="460.04,-890.61 449.53,-889.23 456.89,-896.86 460.04,-890.61"/>
</g>
<!-- Mu -->
<g id="node2" class="node">
<title>Mu</title>
<g id="a_node2"><a xlink:href="/type/Mu" xlink:title="Mu">
<ellipse fill="none" stroke="#000000" cx="1512.71" cy="-18" rx="27" ry="18"/>
<text text-anchor="middle" x="1512.71" y="-14.3" font-family="FreeSans" font-size="14.00" fill="#000000">Mu</text>
</a>
</g>
</g>
<!-- Any&#45;&gt;Mu -->
<g id="edge2" class="edge">
<title>Any&#45;&gt;Mu</title>
<path fill="none" stroke="#000000" d="M1162.34,-438.27C1217.37,-372.26 1426.49,-121.42 1492.57,-42.16"/>
<polygon fill="#000000" stroke="#000000" points="1495.49,-44.11 1499.21,-34.19 1490.12,-39.63 1495.49,-44.11"/>
</g>
<!-- Metamodel::GrammarHOW -->
<g id="node23" class="node">
<title>Metamodel::GrammarHOW</title>
<g id="a_node23"><a xlink:href="/type/Metamodel::GrammarHOW" xlink:title="Metamodel::GrammarHOW">
<ellipse fill="none" stroke="#000000" cx="1178.46" cy="-1633.7" rx="131.88" ry="18"/>
<text text-anchor="middle" x="1178.46" y="-1630" font-family="FreeSans" font-size="14.00" fill="#000000">Metamodel::GrammarHOW</text>
</a>
</g>
</g>
<!-- Metamodel::GrammarHOW&#45;&gt;Metamodel::ClassHOW -->
<g id="edge3" class="edge">
<title>Metamodel::GrammarHOW&#45;&gt;Metamodel::ClassHOW</title>
<path fill="none" stroke="#000000" d="M1166.79,-1615.7C1113.81,-1534.02 895.81,-1197.86 832.6,-1100.4"/>
<polygon fill="#000000" stroke="#000000" points="835.36,-1098.21 826.98,-1091.73 829.49,-1102.02 835.36,-1098.21"/>
</g>
<!-- Metamodel::GrammarHOW&#45;&gt;Metamodel::DefaultParent -->
<g id="edge23" class="edge">
<title>Metamodel::GrammarHOW&#45;&gt;Metamodel::DefaultParent</title>
<path fill="none" stroke="#6666ff" d="M1129.7,-1650.45C1079.5,-1667.7 1001.28,-1694.58 947.73,-1712.98"/>
<polygon fill="#6666ff" stroke="#6666ff" points="946.35,-1709.75 938.03,-1716.31 948.63,-1716.37 946.35,-1709.75"/>
</g>
</g>
</svg>
