<?xml version="1.0" encoding="UTF-8" standalone="no"?>
<!DOCTYPE svg PUBLIC "-//W3C//DTD SVG 1.1//EN"
 "http://www.w3.org/Graphics/SVG/1.1/DTD/svg11.dtd">
<!-- Generated by graphviz version 2.42.3 (0)
 -->
<!-- Title: perl6&#45;type&#45;graph Pages: 1 -->
<svg width="130pt" height="260pt"
 viewBox="0.00 0.00 130.19 260.00" xmlns="http://www.w3.org/2000/svg" xmlns:xlink="http://www.w3.org/1999/xlink">
<g id="graph0" class="graph" transform="scale(1 1) rotate(0) translate(4 256)">
<title>perl6&#45;type&#45;graph</title>
<polygon fill="white" stroke="transparent" points="-4,4 -4,-256 126.19,-256 126.19,4 -4,4"/>
<!-- ValueObjAt -->
<g id="node1" class="node">
<title>ValueObjAt</title>
<g id="a_node1"><a xlink:href="/type/ValueObjAt" xlink:title="ValueObjAt">
<ellipse fill="none" stroke="#000000" cx="61.09" cy="-18" rx="61.19" ry="18"/>
<text text-anchor="middle" x="61.09" y="-14.3" font-family="FreeSans" font-size="14.00" fill="#000000">ValueObjAt</text>
</a>
</g>
</g>
<!-- ObjAt -->
<g id="node4" class="node">
<title>ObjAt</title>
<g id="a_node4"><a xlink:href="/type/ObjAt" xlink:title="ObjAt">
<ellipse fill="none" stroke="#000000" cx="61.09" cy="-90" rx="36.29" ry="18"/>
<text text-anchor="middle" x="61.09" y="-86.3" font-family="FreeSans" font-size="14.00" fill="#000000">ObjAt</text>
</a>
</g>
</g>
<!-- ValueObjAt&#45;&gt;ObjAt -->
<g id="edge1" class="edge">
<title>ValueObjAt&#45;&gt;ObjAt</title>
<path fill="none" stroke="#000000" d="M61.09,-36.3C61.09,-44.02 61.09,-53.29 61.09,-61.89"/>
<polygon fill="#000000" stroke="#000000" points="57.59,-61.9 61.09,-71.9 64.59,-61.9 57.59,-61.9"/>
</g>
<!-- Mu -->
<g id="node2" class="node">
<title>Mu</title>
<g id="a_node2"><a xlink:href="/type/Mu" xlink:title="Mu">
<ellipse fill="none" stroke="#000000" cx="61.09" cy="-234" rx="27" ry="18"/>
<text text-anchor="middle" x="61.09" y="-230.3" font-family="FreeSans" font-size="14.00" fill="#000000">Mu</text>
</a>
</g>
</g>
<!-- Any -->
<g id="node3" class="node">
<title>Any</title>
<g id="a_node3"><a xlink:href="/type/Any" xlink:title="Any">
<ellipse fill="none" stroke="#000000" cx="61.09" cy="-162" rx="28.7" ry="18"/>
<text text-anchor="middle" x="61.09" y="-158.3" font-family="FreeSans" font-size="14.00" fill="#000000">Any</text>
</a>
</g>
</g>
<!-- Any&#45;&gt;Mu -->
<g id="edge2" class="edge">
<title>Any&#45;&gt;Mu</title>
<path fill="none" stroke="#000000" d="M61.09,-180.3C61.09,-188.02 61.09,-197.29 61.09,-205.89"/>
<polygon fill="#000000" stroke="#000000" points="57.59,-205.9 61.09,-215.9 64.59,-205.9 57.59,-205.9"/>
</g>
<!-- ObjAt&#45;&gt;Any -->
<g id="edge3" class="edge">
<title>ObjAt&#45;&gt;Any</title>
<path fill="none" stroke="#000000" d="M61.09,-108.3C61.09,-116.02 61.09,-125.29 61.09,-133.89"/>
<polygon fill="#000000" stroke="#000000" points="57.59,-133.9 61.09,-143.9 64.59,-133.9 57.59,-133.9"/>
</g>
</g>
</svg>
