<?xml version="1.0" encoding="UTF-8" standalone="no"?>
<!DOCTYPE svg PUBLIC "-//W3C//DTD SVG 1.1//EN"
 "http://www.w3.org/Graphics/SVG/1.1/DTD/svg11.dtd">
<!-- Generated by graphviz version 2.42.3 (0)
 -->
<!-- Title: perl6&#45;type&#45;graph Pages: 1 -->
<svg width="672pt" height="359pt"
 viewBox="0.00 0.00 672.00 359.20" xmlns="http://www.w3.org/2000/svg" xmlns:xlink="http://www.w3.org/1999/xlink">
<g id="graph0" class="graph" transform="scale(1 1) rotate(0) translate(4 355.2)">
<title>perl6&#45;type&#45;graph</title>
<polygon fill="white" stroke="transparent" points="-4,4 -4,-355.2 668,-355.2 668,4 -4,4"/>
<!-- X::Comp::Trait::Scope -->
<g id="node1" class="node">
<title>X::Comp::Trait::Scope</title>
<g id="a_node1"><a xlink:href="/type/X::Comp::Trait::Scope" xlink:title="X::Comp::Trait::Scope">
<ellipse fill="none" stroke="#000000" cx="107.24" cy="-167.83" rx="107.48" ry="18"/>
<text text-anchor="middle" x="107.24" y="-164.13" font-family="FreeSans" font-size="14.00" fill="#000000">X::Comp::Trait::Scope</text>
</a>
</g>
</g>
<!-- Exception -->
<g id="node4" class="node">
<title>Exception</title>
<g id="a_node4"><a xlink:href="/type/Exception" xlink:title="Exception">
<ellipse fill="none" stroke="#000000" cx="277.74" cy="-186.92" rx="55.49" ry="18"/>
<text text-anchor="middle" x="277.74" y="-183.22" font-family="FreeSans" font-size="14.00" fill="#000000">Exception</text>
</a>
</g>
</g>
<!-- X::Comp::Trait::Scope&#45;&gt;Exception -->
<g id="edge2" class="edge">
<title>X::Comp::Trait::Scope&#45;&gt;Exception</title>
<path fill="none" stroke="#000000" d="M196.49,-177.82C202.78,-178.52 209.05,-179.22 215.15,-179.91"/>
<polygon fill="#000000" stroke="#000000" points="214.91,-183.4 225.24,-181.04 215.69,-176.45 214.91,-183.4"/>
</g>
<!-- X::Trait::Scope -->
<g id="node5" class="node">
<title>X::Trait::Scope</title>
<g id="a_node5"><a xlink:href="/type/X::Trait::Scope" xlink:title="X::Trait::Scope">
<ellipse fill="none" stroke="#000000" cx="194.16" cy="-18" rx="75.29" ry="18"/>
<text text-anchor="middle" x="194.16" y="-14.3" font-family="FreeSans" font-size="14.00" fill="#000000">X::Trait::Scope</text>
</a>
</g>
</g>
<!-- X::Comp::Trait::Scope&#45;&gt;X::Trait::Scope -->
<g id="edge1" class="edge">
<title>X::Comp::Trait::Scope&#45;&gt;X::Trait::Scope</title>
<path fill="none" stroke="#000000" d="M117.73,-149.75C132.87,-123.66 160.96,-75.23 178.55,-44.92"/>
<polygon fill="#000000" stroke="#000000" points="181.65,-46.54 183.64,-36.14 175.59,-43.03 181.65,-46.54"/>
</g>
<!-- X::Comp -->
<g id="node6" class="node">
<title>X::Comp</title>
<g id="a_node6"><a xlink:href="/type/X::Comp" xlink:title="X::Comp">
<ellipse fill="none" stroke="#6666ff" cx="158.98" cy="-333.2" rx="49.29" ry="18"/>
<text text-anchor="middle" x="158.98" y="-329.5" font-family="FreeSans" font-size="14.00" fill="#6666ff">X::Comp</text>
</a>
</g>
</g>
<!-- X::Comp::Trait::Scope&#45;&gt;X::Comp -->
<g id="edge7" class="edge">
<title>X::Comp::Trait::Scope&#45;&gt;X::Comp</title>
<path fill="none" stroke="#6666ff" d="M112.88,-185.84C121.9,-214.67 139.64,-271.38 150.29,-305.42"/>
<polygon fill="#6666ff" stroke="#6666ff" points="147.03,-306.71 153.35,-315.21 153.71,-304.62 147.03,-306.71"/>
</g>
<!-- Mu -->
<g id="node2" class="node">
<title>Mu</title>
<g id="a_node2"><a xlink:href="/type/Mu" xlink:title="Mu">
<ellipse fill="none" stroke="#000000" cx="637" cy="-217.36" rx="27" ry="18"/>
<text text-anchor="middle" x="637" y="-213.66" font-family="FreeSans" font-size="14.00" fill="#000000">Mu</text>
</a>
</g>
</g>
<!-- Any -->
<g id="node3" class="node">
<title>Any</title>
<g id="a_node3"><a xlink:href="/type/Any" xlink:title="Any">
<ellipse fill="none" stroke="#000000" cx="460.5" cy="-208.5" rx="28.7" ry="18"/>
<text text-anchor="middle" x="460.5" y="-204.8" font-family="FreeSans" font-size="14.00" fill="#000000">Any</text>
</a>
</g>
</g>
<!-- Any&#45;&gt;Mu -->
<g id="edge3" class="edge">
<title>Any&#45;&gt;Mu</title>
<path fill="none" stroke="#000000" d="M489.25,-209.94C519.4,-211.45 566.88,-213.84 599.85,-215.49"/>
<polygon fill="#000000" stroke="#000000" points="599.84,-219 610,-216 600.19,-212 599.84,-219"/>
</g>
<!-- Exception&#45;&gt;Any -->
<g id="edge4" class="edge">
<title>Exception&#45;&gt;Any</title>
<path fill="none" stroke="#000000" d="M330.11,-193.1C359.45,-196.56 395.38,-200.81 422.09,-203.96"/>
<polygon fill="#000000" stroke="#000000" points="421.86,-207.46 432.2,-205.15 422.68,-200.51 421.86,-207.46"/>
</g>
<!-- X::Trait::Scope&#45;&gt;Exception -->
<g id="edge5" class="edge">
<title>X::Trait::Scope&#45;&gt;Exception</title>
<path fill="none" stroke="#000000" d="M203.11,-36.08C217.81,-65.79 247.17,-125.13 264.36,-159.87"/>
<polygon fill="#000000" stroke="#000000" points="261.29,-161.56 268.86,-168.97 267.56,-158.45 261.29,-161.56"/>
</g>
<!-- X::Comp&#45;&gt;Exception -->
<g id="edge6" class="edge">
<title>X::Comp&#45;&gt;Exception</title>
<path fill="none" stroke="#000000" d="M173.07,-315.84C193.85,-290.25 232.85,-242.21 256.93,-212.55"/>
<polygon fill="#000000" stroke="#000000" points="259.72,-214.67 263.3,-204.7 254.28,-210.26 259.72,-214.67"/>
</g>
</g>
</svg>
