<?xml version="1.0" encoding="UTF-8" standalone="no"?>
<!DOCTYPE svg PUBLIC "-//W3C//DTD SVG 1.1//EN"
 "http://www.w3.org/Graphics/SVG/1.1/DTD/svg11.dtd">
<!-- Generated by graphviz version 2.42.3 (0)
 -->
<!-- Title: perl6&#45;type&#45;graph Pages: 1 -->
<svg width="1557pt" height="1685pt"
 viewBox="0.00 0.00 1557.25 1685.27" xmlns="http://www.w3.org/2000/svg" xmlns:xlink="http://www.w3.org/1999/xlink">
<g id="graph0" class="graph" transform="scale(1 1) rotate(0) translate(4 1681.27)">
<title>perl6&#45;type&#45;graph</title>
<polygon fill="white" stroke="transparent" points="-4,4 -4,-1681.27 1553.25,-1681.27 1553.25,4 -4,4"/>
<!-- Metamodel::Finalization -->
<g id="node1" class="node">
<title>Metamodel::Finalization</title>
<g id="a_node1"><a xlink:href="/type/Metamodel::Finalization" xlink:title="Metamodel::Finalization">
<ellipse fill="none" stroke="#6666ff" cx="317.21" cy="-837.3" rx="116.98" ry="18"/>
<text text-anchor="middle" x="317.21" y="-833.6" font-family="FreeSans" font-size="14.00" fill="#6666ff">Metamodel::Finalization</text>
</a>
</g>
</g>
<!-- Mu -->
<g id="node2" class="node">
<title>Mu</title>
<g id="a_node2"><a xlink:href="/type/Mu" xlink:title="Mu">
<ellipse fill="none" stroke="#000000" cx="1422.6" cy="-18" rx="27" ry="18"/>
<text text-anchor="middle" x="1422.6" y="-14.3" font-family="FreeSans" font-size="14.00" fill="#000000">Mu</text>
</a>
</g>
</g>
<!-- Any -->
<g id="node3" class="node">
<title>Any</title>
<g id="a_node3"><a xlink:href="/type/Any" xlink:title="Any">
<ellipse fill="none" stroke="#000000" cx="1073.43" cy="-442.66" rx="28.7" ry="18"/>
<text text-anchor="middle" x="1073.43" y="-438.96" font-family="FreeSans" font-size="14.00" fill="#000000">Any</text>
</a>
</g>
</g>
<!-- Any&#45;&gt;Mu -->
<g id="edge1" class="edge">
<title>Any&#45;&gt;Mu</title>
<path fill="none" stroke="#000000" d="M1086.69,-426.53C1140.06,-361.63 1339.28,-119.34 1402.92,-41.93"/>
<polygon fill="#000000" stroke="#000000" points="1405.67,-44.09 1409.32,-34.14 1400.27,-39.65 1405.67,-44.09"/>
</g>
<!-- Metamodel::Naming -->
<g id="node4" class="node">
<title>Metamodel::Naming</title>
<g id="a_node4"><a xlink:href="/type/Metamodel::Naming" xlink:title="Metamodel::Naming">
<ellipse fill="none" stroke="#6666ff" cx="682.67" cy="-1646.76" rx="101.28" ry="18"/>
<text text-anchor="middle" x="682.67" y="-1643.06" font-family="FreeSans" font-size="14.00" fill="#6666ff">Metamodel::Naming</text>
</a>
</g>
</g>
<!-- Metamodel::Documenting -->
<g id="node5" class="node">
<title>Metamodel::Documenting</title>
<g id="a_node5"><a xlink:href="/type/Metamodel::Documenting" xlink:title="Metamodel::Documenting">
<ellipse fill="none" stroke="#6666ff" cx="1229.14" cy="-1284.3" rx="126.98" ry="18"/>
<text text-anchor="middle" x="1229.14" y="-1280.6" font-family="FreeSans" font-size="14.00" fill="#6666ff">Metamodel::Documenting</text>
</a>
</g>
</g>
<!-- Metamodel::Versioning -->
<g id="node6" class="node">
<title>Metamodel::Versioning</title>
<g id="a_node6"><a xlink:href="/type/Metamodel::Versioning" xlink:title="Metamodel::Versioning">
<ellipse fill="none" stroke="#6666ff" cx="491.76" cy="-1304.82" rx="114.28" ry="18"/>
<text text-anchor="middle" x="491.76" y="-1301.12" font-family="FreeSans" font-size="14.00" fill="#6666ff">Metamodel::Versioning</text>
</a>
</g>
</g>
<!-- Metamodel::Stashing -->
<g id="node7" class="node">
<title>Metamodel::Stashing</title>
<g id="a_node7"><a xlink:href="/type/Metamodel::Stashing" xlink:title="Metamodel::Stashing">
<ellipse fill="none" stroke="#6666ff" cx="270.12" cy="-611.33" rx="105.88" ry="18"/>
<text text-anchor="middle" x="270.12" y="-607.63" font-family="FreeSans" font-size="14.00" fill="#6666ff">Metamodel::Stashing</text>
</a>
</g>
</g>
<!-- Metamodel::AttributeContainer -->
<g id="node8" class="node">
<title>Metamodel::AttributeContainer</title>
<g id="a_node8"><a xlink:href="/type/Metamodel::AttributeContainer" xlink:title="Metamodel::AttributeContainer">
<ellipse fill="none" stroke="#6666ff" cx="1370.53" cy="-920.2" rx="150.27" ry="18"/>
<text text-anchor="middle" x="1370.53" y="-916.5" font-family="FreeSans" font-size="14.00" fill="#6666ff">Metamodel::AttributeContainer</text>
</a>
</g>
</g>
<!-- Metamodel::MethodContainer -->
<g id="node9" class="node">
<title>Metamodel::MethodContainer</title>
<g id="a_node9"><a xlink:href="/type/Metamodel::MethodContainer" xlink:title="Metamodel::MethodContainer">
<ellipse fill="none" stroke="#6666ff" cx="489.01" cy="-567.31" rx="143.77" ry="18"/>
<text text-anchor="middle" x="489.01" y="-563.61" font-family="FreeSans" font-size="14.00" fill="#6666ff">Metamodel::MethodContainer</text>
</a>
</g>
</g>
<!-- Metamodel::PrivateMethodContainer -->
<g id="node10" class="node">
<title>Metamodel::PrivateMethodContainer</title>
<g id="a_node10"><a xlink:href="/type/Metamodel::PrivateMethodContainer" xlink:title="Metamodel::PrivateMethodContainer">
<ellipse fill="none" stroke="#6666ff" cx="815.52" cy="-576.3" rx="174.67" ry="18"/>
<text text-anchor="middle" x="815.52" y="-572.6" font-family="FreeSans" font-size="14.00" fill="#6666ff">Metamodel::PrivateMethodContainer</text>
</a>
</g>
</g>
<!-- Metamodel::MultiMethodContainer -->
<g id="node11" class="node">
<title>Metamodel::MultiMethodContainer</title>
<g id="a_node11"><a xlink:href="/type/Metamodel::MultiMethodContainer" xlink:title="Metamodel::MultiMethodContainer">
<ellipse fill="none" stroke="#6666ff" cx="649.69" cy="-411.96" rx="165.97" ry="18"/>
<text text-anchor="middle" x="649.69" y="-408.26" font-family="FreeSans" font-size="14.00" fill="#6666ff">Metamodel::MultiMethodContainer</text>
</a>
</g>
</g>
<!-- Metamodel::RoleContainer -->
<g id="node12" class="node">
<title>Metamodel::RoleContainer</title>
<g id="a_node12"><a xlink:href="/type/Metamodel::RoleContainer" xlink:title="Metamodel::RoleContainer">
<ellipse fill="none" stroke="#6666ff" cx="129.99" cy="-953.61" rx="129.98" ry="18"/>
<text text-anchor="middle" x="129.99" y="-949.91" font-family="FreeSans" font-size="14.00" fill="#6666ff">Metamodel::RoleContainer</text>
</a>
</g>
</g>
<!-- Metamodel::MultipleInheritance -->
<g id="node13" class="node">
<title>Metamodel::MultipleInheritance</title>
<g id="a_node13"><a xlink:href="/type/Metamodel::MultipleInheritance" xlink:title="Metamodel::MultipleInheritance">
<ellipse fill="none" stroke="#6666ff" cx="1395.86" cy="-1161.53" rx="153.27" ry="18"/>
<text text-anchor="middle" x="1395.86" y="-1157.83" font-family="FreeSans" font-size="14.00" fill="#6666ff">Metamodel::MultipleInheritance</text>
</a>
</g>
</g>
<!-- Metamodel::DefaultParent -->
<g id="node14" class="node">
<title>Metamodel::DefaultParent</title>
<g id="a_node14"><a xlink:href="/type/Metamodel::DefaultParent" xlink:title="Metamodel::DefaultParent">
<ellipse fill="none" stroke="#6666ff" cx="1208.93" cy="-1514.67" rx="128.08" ry="18"/>
<text text-anchor="middle" x="1208.93" y="-1510.97" font-family="FreeSans" font-size="14.00" fill="#6666ff">Metamodel::DefaultParent</text>
</a>
</g>
</g>
<!-- Metamodel::C3MRO -->
<g id="node15" class="node">
<title>Metamodel::C3MRO</title>
<g id="a_node15"><a xlink:href="/type/Metamodel::C3MRO" xlink:title="Metamodel::C3MRO">
<ellipse fill="none" stroke="#6666ff" cx="940.06" cy="-1659.27" rx="100.18" ry="18"/>
<text text-anchor="middle" x="940.06" y="-1655.57" font-family="FreeSans" font-size="14.00" fill="#6666ff">Metamodel::C3MRO</text>
</a>
</g>
</g>
<!-- Metamodel::MROBasedMethodDispatch -->
<g id="node16" class="node">
<title>Metamodel::MROBasedMethodDispatch</title>
<g id="a_node16"><a xlink:href="/type/Metamodel::MROBasedMethodDispatch" xlink:title="Metamodel::MROBasedMethodDispatch">
<ellipse fill="none" stroke="#6666ff" cx="1076.87" cy="-862.26" rx="188.47" ry="18"/>
<text text-anchor="middle" x="1076.87" y="-858.56" font-family="FreeSans" font-size="14.00" fill="#6666ff">Metamodel::MROBasedMethodDispatch</text>
</a>
</g>
</g>
<!-- Metamodel::MROBasedTypeChecking -->
<g id="node17" class="node">
<title>Metamodel::MROBasedTypeChecking</title>
<g id="a_node17"><a xlink:href="/type/Metamodel::MROBasedTypeChecking" xlink:title="Metamodel::MROBasedTypeChecking">
<ellipse fill="none" stroke="#6666ff" cx="1233.51" cy="-683.2" rx="178.97" ry="18"/>
<text text-anchor="middle" x="1233.51" y="-679.5" font-family="FreeSans" font-size="14.00" fill="#6666ff">Metamodel::MROBasedTypeChecking</text>
</a>
</g>
</g>
<!-- Metamodel::Trusting -->
<g id="node18" class="node">
<title>Metamodel::Trusting</title>
<g id="a_node18"><a xlink:href="/type/Metamodel::Trusting" xlink:title="Metamodel::Trusting">
<ellipse fill="none" stroke="#6666ff" cx="243.25" cy="-1405.21" rx="102.88" ry="18"/>
<text text-anchor="middle" x="243.25" y="-1401.51" font-family="FreeSans" font-size="14.00" fill="#6666ff">Metamodel::Trusting</text>
</a>
</g>
</g>
<!-- Metamodel::BUILDPLAN -->
<g id="node19" class="node">
<title>Metamodel::BUILDPLAN</title>
<g id="a_node19"><a xlink:href="/type/Metamodel::BUILDPLAN" xlink:title="Metamodel::BUILDPLAN">
<ellipse fill="none" stroke="#6666ff" cx="183.88" cy="-1172.81" rx="118.08" ry="18"/>
<text text-anchor="middle" x="183.88" y="-1169.11" font-family="FreeSans" font-size="14.00" fill="#6666ff">Metamodel::BUILDPLAN</text>
</a>
</g>
</g>
<!-- Metamodel::Mixins -->
<g id="node20" class="node">
<title>Metamodel::Mixins</title>
<g id="a_node20"><a xlink:href="/type/Metamodel::Mixins" xlink:title="Metamodel::Mixins">
<ellipse fill="none" stroke="#6666ff" cx="453.31" cy="-1584.86" rx="94.78" ry="18"/>
<text text-anchor="middle" x="453.31" y="-1581.16" font-family="FreeSans" font-size="14.00" fill="#6666ff">Metamodel::Mixins</text>
</a>
</g>
</g>
<!-- Metamodel::BoolificationProtocol -->
<g id="node21" class="node">
<title>Metamodel::BoolificationProtocol</title>
<g id="a_node21"><a xlink:href="/type/Metamodel::BoolificationProtocol" xlink:title="Metamodel::BoolificationProtocol">
<ellipse fill="none" stroke="#6666ff" cx="925.74" cy="-1418.81" rx="157.07" ry="18"/>
<text text-anchor="middle" x="925.74" y="-1415.11" font-family="FreeSans" font-size="14.00" fill="#6666ff">Metamodel::BoolificationProtocol</text>
</a>
</g>
</g>
<!-- Metamodel::ClassHOW -->
<g id="node22" class="node">
<title>Metamodel::ClassHOW</title>
<g id="a_node22"><a xlink:href="/type/Metamodel::ClassHOW" xlink:title="Metamodel::ClassHOW">
<ellipse fill="none" stroke="#000000" cx="759.85" cy="-1037.61" rx="113.18" ry="18"/>
<text text-anchor="middle" x="759.85" y="-1033.91" font-family="FreeSans" font-size="14.00" fill="#000000">Metamodel::ClassHOW</text>
</a>
</g>
</g>
<!-- Metamodel::ClassHOW&#45;&gt;Metamodel::Finalization -->
<g id="edge8" class="edge">
<title>Metamodel::ClassHOW&#45;&gt;Metamodel::Finalization</title>
<path fill="none" stroke="#6666ff" d="M722.12,-1020.53C641.53,-984.06 452.79,-898.65 364.42,-858.66"/>
<polygon fill="#6666ff" stroke="#6666ff" points="365.73,-855.41 355.17,-854.47 362.84,-861.78 365.73,-855.41"/>
</g>
<!-- Metamodel::ClassHOW&#45;&gt;Any -->
<g id="edge2" class="edge">
<title>Metamodel::ClassHOW&#45;&gt;Any</title>
<path fill="none" stroke="#000000" d="M769.41,-1019.48C814.55,-933.83 1006.48,-569.7 1059.7,-468.72"/>
<polygon fill="#000000" stroke="#000000" points="1062.84,-470.27 1064.4,-459.79 1056.65,-467 1062.84,-470.27"/>
</g>
<!-- Metamodel::ClassHOW&#45;&gt;Metamodel::Naming -->
<g id="edge3" class="edge">
<title>Metamodel::ClassHOW&#45;&gt;Metamodel::Naming</title>
<path fill="none" stroke="#6666ff" d="M757.54,-1055.84C746.57,-1142.45 699.68,-1512.54 686.26,-1618.38"/>
<polygon fill="#6666ff" stroke="#6666ff" points="682.75,-1618.24 684.97,-1628.6 689.7,-1619.12 682.75,-1618.24"/>
</g>
<!-- Metamodel::ClassHOW&#45;&gt;Metamodel::Documenting -->
<g id="edge4" class="edge">
<title>Metamodel::ClassHOW&#45;&gt;Metamodel::Documenting</title>
<path fill="none" stroke="#6666ff" d="M792.85,-1054.96C876.06,-1098.69 1094.34,-1213.44 1186.79,-1262.04"/>
<polygon fill="#6666ff" stroke="#6666ff" points="1185.38,-1265.25 1195.86,-1266.8 1188.64,-1259.05 1185.38,-1265.25"/>
</g>
<!-- Metamodel::ClassHOW&#45;&gt;Metamodel::Versioning -->
<g id="edge5" class="edge">
<title>Metamodel::ClassHOW&#45;&gt;Metamodel::Versioning</title>
<path fill="none" stroke="#6666ff" d="M741.85,-1055.56C695.3,-1101.95 570.86,-1225.98 517.09,-1279.57"/>
<polygon fill="#6666ff" stroke="#6666ff" points="514.3,-1277.42 509.69,-1286.95 519.24,-1282.37 514.3,-1277.42"/>
</g>
<!-- Metamodel::ClassHOW&#45;&gt;Metamodel::Stashing -->
<g id="edge6" class="edge">
<title>Metamodel::ClassHOW&#45;&gt;Metamodel::Stashing</title>
<path fill="none" stroke="#6666ff" d="M739.43,-1019.84C662.12,-952.54 387.2,-713.25 298.17,-635.75"/>
<polygon fill="#6666ff" stroke="#6666ff" points="300.47,-633.11 290.62,-629.18 295.87,-638.39 300.47,-633.11"/>
</g>
<!-- Metamodel::ClassHOW&#45;&gt;Metamodel::AttributeContainer -->
<g id="edge7" class="edge">
<title>Metamodel::ClassHOW&#45;&gt;Metamodel::AttributeContainer</title>
<path fill="none" stroke="#6666ff" d="M832,-1023.74C943.9,-1002.23 1159.04,-960.86 1280.8,-937.45"/>
<polygon fill="#6666ff" stroke="#6666ff" points="1281.68,-940.85 1290.84,-935.52 1280.36,-933.97 1281.68,-940.85"/>
</g>
<!-- Metamodel::ClassHOW&#45;&gt;Metamodel::MethodContainer -->
<g id="edge9" class="edge">
<title>Metamodel::ClassHOW&#45;&gt;Metamodel::MethodContainer</title>
<path fill="none" stroke="#6666ff" d="M749.4,-1019.46C707.85,-947.3 554.17,-680.45 504.56,-594.31"/>
<polygon fill="#6666ff" stroke="#6666ff" points="507.46,-592.33 499.43,-585.41 501.39,-595.82 507.46,-592.33"/>
</g>
<!-- Metamodel::ClassHOW&#45;&gt;Metamodel::PrivateMethodContainer -->
<g id="edge10" class="edge">
<title>Metamodel::ClassHOW&#45;&gt;Metamodel::PrivateMethodContainer</title>
<path fill="none" stroke="#6666ff" d="M762.04,-1019.53C770.57,-948.84 801.69,-690.86 812.1,-604.6"/>
<polygon fill="#6666ff" stroke="#6666ff" points="815.6,-604.85 813.32,-594.5 808.65,-604.01 815.6,-604.85"/>
</g>
<!-- Metamodel::ClassHOW&#45;&gt;Metamodel::MultiMethodContainer -->
<g id="edge11" class="edge">
<title>Metamodel::ClassHOW&#45;&gt;Metamodel::MultiMethodContainer</title>
<path fill="none" stroke="#6666ff" d="M755.12,-1019.52C732.79,-934.2 639.09,-576.16 639.09,-576.16 639.09,-576.16 644.83,-487.3 647.86,-440.32"/>
<polygon fill="#6666ff" stroke="#6666ff" points="651.37,-440.37 648.52,-430.16 644.38,-439.92 651.37,-440.37"/>
</g>
<!-- Metamodel::ClassHOW&#45;&gt;Metamodel::RoleContainer -->
<g id="edge12" class="edge">
<title>Metamodel::ClassHOW&#45;&gt;Metamodel::RoleContainer</title>
<path fill="none" stroke="#6666ff" d="M672.94,-1026.02C558.21,-1010.72 356.48,-983.82 233.86,-967.46"/>
<polygon fill="#6666ff" stroke="#6666ff" points="234.08,-963.96 223.7,-966.11 233.15,-970.9 234.08,-963.96"/>
</g>
<!-- Metamodel::ClassHOW&#45;&gt;Metamodel::MultipleInheritance -->
<g id="edge13" class="edge">
<title>Metamodel::ClassHOW&#45;&gt;Metamodel::MultipleInheritance</title>
<path fill="none" stroke="#6666ff" d="M831.58,-1051.58C948.37,-1074.34 1179.36,-1119.35 1306.6,-1144.14"/>
<polygon fill="#6666ff" stroke="#6666ff" points="1306.22,-1147.63 1316.7,-1146.1 1307.56,-1140.76 1306.22,-1147.63"/>
</g>
<!-- Metamodel::ClassHOW&#45;&gt;Metamodel::DefaultParent -->
<g id="edge14" class="edge">
<title>Metamodel::ClassHOW&#45;&gt;Metamodel::DefaultParent</title>
<path fill="none" stroke="#6666ff" d="M776.64,-1055.44C845.27,-1128.35 1104.73,-1403.98 1185.07,-1489.32"/>
<polygon fill="#6666ff" stroke="#6666ff" points="1182.66,-1491.86 1192.06,-1496.75 1187.75,-1487.07 1182.66,-1491.86"/>
</g>
<!-- Metamodel::ClassHOW&#45;&gt;Metamodel::C3MRO -->
<g id="edge15" class="edge">
<title>Metamodel::ClassHOW&#45;&gt;Metamodel::C3MRO</title>
<path fill="none" stroke="#6666ff" d="M760.19,-1055.74C761.58,-1131.49 766.86,-1418.77 766.86,-1418.77 766.86,-1418.77 876.23,-1570.64 921.15,-1633.01"/>
<polygon fill="#6666ff" stroke="#6666ff" points="918.36,-1635.12 927.04,-1641.19 924.04,-1631.03 918.36,-1635.12"/>
</g>
<!-- Metamodel::ClassHOW&#45;&gt;Metamodel::MROBasedMethodDispatch -->
<g id="edge16" class="edge">
<title>Metamodel::ClassHOW&#45;&gt;Metamodel::MROBasedMethodDispatch</title>
<path fill="none" stroke="#6666ff" d="M791.41,-1020.16C849.03,-988.29 971.24,-920.69 1035.46,-885.17"/>
<polygon fill="#6666ff" stroke="#6666ff" points="1037.44,-888.07 1044.5,-880.17 1034.06,-881.95 1037.44,-888.07"/>
</g>
<!-- Metamodel::ClassHOW&#45;&gt;Metamodel::MROBasedTypeChecking -->
<g id="edge17" class="edge">
<title>Metamodel::ClassHOW&#45;&gt;Metamodel::MROBasedTypeChecking</title>
<path fill="none" stroke="#6666ff" d="M772.96,-1019.5C805.39,-974.69 886.79,-862.21 886.79,-862.21 886.79,-862.21 1097.06,-753.65 1190.1,-705.61"/>
<polygon fill="#6666ff" stroke="#6666ff" points="1191.72,-708.72 1199,-701.02 1188.5,-702.5 1191.72,-708.72"/>
</g>
<!-- Metamodel::ClassHOW&#45;&gt;Metamodel::Trusting -->
<g id="edge18" class="edge">
<title>Metamodel::ClassHOW&#45;&gt;Metamodel::Trusting</title>
<path fill="none" stroke="#6666ff" d="M734.36,-1055.34C648.57,-1114.97 375.78,-1304.63 375.78,-1304.63 375.78,-1304.63 313.81,-1351.66 274.62,-1381.4"/>
<polygon fill="#6666ff" stroke="#6666ff" points="272.48,-1378.63 266.63,-1387.46 276.72,-1384.2 272.48,-1378.63"/>
</g>
<!-- Metamodel::ClassHOW&#45;&gt;Metamodel::BUILDPLAN -->
<g id="edge19" class="edge">
<title>Metamodel::ClassHOW&#45;&gt;Metamodel::BUILDPLAN</title>
<path fill="none" stroke="#6666ff" d="M696.29,-1052.53C589.09,-1077.69 372.86,-1128.45 258.59,-1155.27"/>
<polygon fill="#6666ff" stroke="#6666ff" points="257.46,-1151.94 248.52,-1157.64 259.06,-1158.76 257.46,-1151.94"/>
</g>
<!-- Metamodel::ClassHOW&#45;&gt;Metamodel::Mixins -->
<g id="edge20" class="edge">
<title>Metamodel::ClassHOW&#45;&gt;Metamodel::Mixins</title>
<path fill="none" stroke="#6666ff" d="M749.66,-1055.82C704.46,-1136.5 522.14,-1461.98 468.33,-1558.04"/>
<polygon fill="#6666ff" stroke="#6666ff" points="465.23,-1556.42 463.39,-1566.86 471.33,-1559.84 465.23,-1556.42"/>
</g>
<!-- Metamodel::ClassHOW&#45;&gt;Metamodel::BoolificationProtocol -->
<g id="edge21" class="edge">
<title>Metamodel::ClassHOW&#45;&gt;Metamodel::BoolificationProtocol</title>
<path fill="none" stroke="#6666ff" d="M767.74,-1055.74C794.43,-1117.07 881.46,-1317.06 913.64,-1391"/>
<polygon fill="#6666ff" stroke="#6666ff" points="910.61,-1392.8 917.81,-1400.57 917.03,-1390 910.61,-1392.8"/>
</g>
</g>
</svg>
