<?xml version="1.0" encoding="UTF-8" standalone="no"?>
<!DOCTYPE svg PUBLIC "-//W3C//DTD SVG 1.1//EN"
 "http://www.w3.org/Graphics/SVG/1.1/DTD/svg11.dtd">
<!-- Generated by graphviz version 2.42.3 (0)
 -->
<!-- Title: perl6&#45;type&#45;graph Pages: 1 -->
<svg width="1829pt" height="1521pt"
 viewBox="0.00 0.00 1828.55 1521.50" xmlns="http://www.w3.org/2000/svg" xmlns:xlink="http://www.w3.org/1999/xlink">
<g id="graph0" class="graph" transform="scale(1 1) rotate(0) translate(4 1517.5)">
<title>perl6&#45;type&#45;graph</title>
<polygon fill="white" stroke="transparent" points="-4,4 -4,-1517.5 1824.55,-1517.5 1824.55,4 -4,4"/>
<!-- Metamodel::MultiMethodContainer -->
<g id="node1" class="node">
<title>Metamodel::MultiMethodContainer</title>
<g id="a_node1"><a xlink:href="/type/Metamodel::MultiMethodContainer" xlink:title="Metamodel::MultiMethodContainer">
<ellipse fill="none" stroke="#6666ff" cx="897.74" cy="-878.23" rx="165.97" ry="18"/>
<text text-anchor="middle" x="897.74" y="-874.53" font-family="FreeSans" font-size="14.00" fill="#6666ff">Metamodel::MultiMethodContainer</text>
</a>
</g>
</g>
<!-- Mu -->
<g id="node2" class="node">
<title>Mu</title>
<g id="a_node2"><a xlink:href="/type/Mu" xlink:title="Mu">
<ellipse fill="none" stroke="#000000" cx="1091.54" cy="-18" rx="27" ry="18"/>
<text text-anchor="middle" x="1091.54" y="-14.3" font-family="FreeSans" font-size="14.00" fill="#000000">Mu</text>
</a>
</g>
</g>
<!-- Any -->
<g id="node3" class="node">
<title>Any</title>
<g id="a_node3"><a xlink:href="/type/Any" xlink:title="Any">
<ellipse fill="none" stroke="#000000" cx="942.65" cy="-460.31" rx="28.7" ry="18"/>
<text text-anchor="middle" x="942.65" y="-456.61" font-family="FreeSans" font-size="14.00" fill="#000000">Any</text>
</a>
</g>
</g>
<!-- Any&#45;&gt;Mu -->
<g id="edge1" class="edge">
<title>Any&#45;&gt;Mu</title>
<path fill="none" stroke="#000000" d="M948.58,-442.7C971.5,-374.59 1054.45,-128.18 1082.33,-45.36"/>
<polygon fill="#000000" stroke="#000000" points="1085.72,-46.26 1085.6,-35.66 1079.09,-44.02 1085.72,-46.26"/>
</g>
<!-- Metamodel::Naming -->
<g id="node4" class="node">
<title>Metamodel::Naming</title>
<g id="a_node4"><a xlink:href="/type/Metamodel::Naming" xlink:title="Metamodel::Naming">
<ellipse fill="none" stroke="#6666ff" cx="939.85" cy="-1008.49" rx="101.28" ry="18"/>
<text text-anchor="middle" x="939.85" y="-1004.79" font-family="FreeSans" font-size="14.00" fill="#6666ff">Metamodel::Naming</text>
</a>
</g>
</g>
<!-- Metamodel::Documenting -->
<g id="node5" class="node">
<title>Metamodel::Documenting</title>
<g id="a_node5"><a xlink:href="/type/Metamodel::Documenting" xlink:title="Metamodel::Documenting">
<ellipse fill="none" stroke="#6666ff" cx="973.38" cy="-1372.85" rx="126.98" ry="18"/>
<text text-anchor="middle" x="973.38" y="-1369.15" font-family="FreeSans" font-size="14.00" fill="#6666ff">Metamodel::Documenting</text>
</a>
</g>
</g>
<!-- Metamodel::Versioning -->
<g id="node6" class="node">
<title>Metamodel::Versioning</title>
<g id="a_node6"><a xlink:href="/type/Metamodel::Versioning" xlink:title="Metamodel::Versioning">
<ellipse fill="none" stroke="#6666ff" cx="1088.5" cy="-1217.68" rx="114.28" ry="18"/>
<text text-anchor="middle" x="1088.5" y="-1213.98" font-family="FreeSans" font-size="14.00" fill="#6666ff">Metamodel::Versioning</text>
</a>
</g>
</g>
<!-- Metamodel::MethodContainer -->
<g id="node7" class="node">
<title>Metamodel::MethodContainer</title>
<g id="a_node7"><a xlink:href="/type/Metamodel::MethodContainer" xlink:title="Metamodel::MethodContainer">
<ellipse fill="none" stroke="#6666ff" cx="844.88" cy="-653.68" rx="143.77" ry="18"/>
<text text-anchor="middle" x="844.88" y="-649.98" font-family="FreeSans" font-size="14.00" fill="#6666ff">Metamodel::MethodContainer</text>
</a>
</g>
</g>
<!-- Metamodel::PrivateMethodContainer -->
<g id="node8" class="node">
<title>Metamodel::PrivateMethodContainer</title>
<g id="a_node8"><a xlink:href="/type/Metamodel::PrivateMethodContainer" xlink:title="Metamodel::PrivateMethodContainer">
<ellipse fill="none" stroke="#6666ff" cx="1187.02" cy="-1163.61" rx="174.67" ry="18"/>
<text text-anchor="middle" x="1187.02" y="-1159.91" font-family="FreeSans" font-size="14.00" fill="#6666ff">Metamodel::PrivateMethodContainer</text>
</a>
</g>
</g>
<!-- Metamodel::AttributeContainer -->
<g id="node9" class="node">
<title>Metamodel::AttributeContainer</title>
<g id="a_node9"><a xlink:href="/type/Metamodel::AttributeContainer" xlink:title="Metamodel::AttributeContainer">
<ellipse fill="none" stroke="#6666ff" cx="830.46" cy="-525.12" rx="150.27" ry="18"/>
<text text-anchor="middle" x="830.46" y="-521.42" font-family="FreeSans" font-size="14.00" fill="#6666ff">Metamodel::AttributeContainer</text>
</a>
</g>
</g>
<!-- Metamodel::RoleContainer -->
<g id="node10" class="node">
<title>Metamodel::RoleContainer</title>
<g id="a_node10"><a xlink:href="/type/Metamodel::RoleContainer" xlink:title="Metamodel::RoleContainer">
<ellipse fill="none" stroke="#6666ff" cx="946.1" cy="-741.52" rx="129.98" ry="18"/>
<text text-anchor="middle" x="946.1" y="-737.82" font-family="FreeSans" font-size="14.00" fill="#6666ff">Metamodel::RoleContainer</text>
</a>
</g>
</g>
<!-- Metamodel::MultipleInheritance -->
<g id="node11" class="node">
<title>Metamodel::MultipleInheritance</title>
<g id="a_node11"><a xlink:href="/type/Metamodel::MultipleInheritance" xlink:title="Metamodel::MultipleInheritance">
<ellipse fill="none" stroke="#6666ff" cx="1096.62" cy="-569.12" rx="153.27" ry="18"/>
<text text-anchor="middle" x="1096.62" y="-565.42" font-family="FreeSans" font-size="14.00" fill="#6666ff">Metamodel::MultipleInheritance</text>
</a>
</g>
</g>
<!-- Metamodel::Stashing -->
<g id="node12" class="node">
<title>Metamodel::Stashing</title>
<g id="a_node12"><a xlink:href="/type/Metamodel::Stashing" xlink:title="Metamodel::Stashing">
<ellipse fill="none" stroke="#6666ff" cx="775.21" cy="-1157.44" rx="105.88" ry="18"/>
<text text-anchor="middle" x="775.21" y="-1153.74" font-family="FreeSans" font-size="14.00" fill="#6666ff">Metamodel::Stashing</text>
</a>
</g>
</g>
<!-- Metamodel::TypePretense -->
<g id="node13" class="node">
<title>Metamodel::TypePretense</title>
<g id="a_node13"><a xlink:href="/type/Metamodel::TypePretense" xlink:title="Metamodel::TypePretense">
<ellipse fill="none" stroke="#6666ff" cx="1694.46" cy="-691.98" rx="126.18" ry="18"/>
<text text-anchor="middle" x="1694.46" y="-688.28" font-family="FreeSans" font-size="14.00" fill="#6666ff">Metamodel::TypePretense</text>
</a>
</g>
</g>
<!-- Metamodel::RolePunning -->
<g id="node14" class="node">
<title>Metamodel::RolePunning</title>
<g id="a_node14"><a xlink:href="/type/Metamodel::RolePunning" xlink:title="Metamodel::RolePunning">
<ellipse fill="none" stroke="#6666ff" cx="1690.67" cy="-1061.74" rx="122.68" ry="18"/>
<text text-anchor="middle" x="1690.67" y="-1058.04" font-family="FreeSans" font-size="14.00" fill="#6666ff">Metamodel::RolePunning</text>
</a>
</g>
</g>
<!-- Metamodel::ParametricRoleHOW -->
<g id="node15" class="node">
<title>Metamodel::ParametricRoleHOW</title>
<g id="a_node15"><a xlink:href="/type/Metamodel::ParametricRoleHOW" xlink:title="Metamodel::ParametricRoleHOW">
<ellipse fill="none" stroke="#000000" cx="1254.03" cy="-880.53" rx="157.07" ry="18"/>
<text text-anchor="middle" x="1254.03" y="-876.83" font-family="FreeSans" font-size="14.00" fill="#000000">Metamodel::ParametricRoleHOW</text>
</a>
</g>
</g>
<!-- Metamodel::ParametricRoleHOW&#45;&gt;Metamodel::MultiMethodContainer -->
<g id="edge11" class="edge">
<title>Metamodel::ParametricRoleHOW&#45;&gt;Metamodel::MultiMethodContainer</title>
<path fill="none" stroke="#6666ff" d="M1096.98,-879.52C1089.11,-879.47 1081.18,-879.41 1073.27,-879.36"/>
<polygon fill="#6666ff" stroke="#6666ff" points="1073.26,-875.86 1063.24,-879.3 1073.22,-882.86 1073.26,-875.86"/>
</g>
<!-- Metamodel::ParametricRoleHOW&#45;&gt;Any -->
<g id="edge2" class="edge">
<title>Metamodel::ParametricRoleHOW&#45;&gt;Any</title>
<path fill="none" stroke="#000000" d="M1235.89,-862.44C1169.21,-795.96 941.64,-569.06 941.64,-569.06 941.64,-569.06 982.2,-525.16 982.2,-525.16 982.2,-525.16 969.32,-504.04 958.26,-485.91"/>
<polygon fill="#000000" stroke="#000000" points="961.24,-484.06 953.04,-477.35 955.26,-487.71 961.24,-484.06"/>
</g>
<!-- Metamodel::ParametricRoleHOW&#45;&gt;Metamodel::Naming -->
<g id="edge6" class="edge">
<title>Metamodel::ParametricRoleHOW&#45;&gt;Metamodel::Naming</title>
<path fill="none" stroke="#6666ff" d="M1211.33,-897.92C1153.68,-921.4 1051.13,-963.17 989.92,-988.1"/>
<polygon fill="#6666ff" stroke="#6666ff" points="988.4,-984.93 980.46,-991.95 991.04,-991.42 988.4,-984.93"/>
</g>
<!-- Metamodel::ParametricRoleHOW&#45;&gt;Metamodel::Documenting -->
<g id="edge7" class="edge">
<title>Metamodel::ParametricRoleHOW&#45;&gt;Metamodel::Documenting</title>
<path fill="none" stroke="#6666ff" d="M1238.44,-898.66C1184.71,-961.12 1010.59,-1163.51 1010.59,-1163.51 1010.59,-1163.51 972.51,-1217.55 972.51,-1217.55 972.51,-1217.55 972.97,-1299.67 973.22,-1344.48"/>
<polygon fill="#6666ff" stroke="#6666ff" points="969.72,-1344.75 973.28,-1354.73 976.72,-1344.71 969.72,-1344.75"/>
</g>
<!-- Metamodel::ParametricRoleHOW&#45;&gt;Metamodel::Versioning -->
<g id="edge8" class="edge">
<title>Metamodel::ParametricRoleHOW&#45;&gt;Metamodel::Versioning</title>
<path fill="none" stroke="#6666ff" d="M1238.44,-898.66C1184.71,-961.12 1010.59,-1163.51 1010.59,-1163.51 1010.59,-1163.51 1033.72,-1179.59 1054.78,-1194.23"/>
<polygon fill="#6666ff" stroke="#6666ff" points="1052.78,-1197.1 1062.99,-1199.94 1056.78,-1191.36 1052.78,-1197.1"/>
</g>
<!-- Metamodel::ParametricRoleHOW&#45;&gt;Metamodel::MethodContainer -->
<g id="edge9" class="edge">
<title>Metamodel::ParametricRoleHOW&#45;&gt;Metamodel::MethodContainer</title>
<path fill="none" stroke="#6666ff" d="M1231.34,-862.64C1183.71,-825.1 1077.69,-741.53 1077.69,-741.53 1077.69,-741.53 968.58,-700.36 899.75,-674.38"/>
<polygon fill="#6666ff" stroke="#6666ff" points="900.92,-671.08 890.32,-670.82 898.44,-677.63 900.92,-671.08"/>
</g>
<!-- Metamodel::ParametricRoleHOW&#45;&gt;Metamodel::PrivateMethodContainer -->
<g id="edge10" class="edge">
<title>Metamodel::ParametricRoleHOW&#45;&gt;Metamodel::PrivateMethodContainer</title>
<path fill="none" stroke="#6666ff" d="M1249.74,-898.67C1238.37,-946.69 1207.43,-1077.39 1193.72,-1135.32"/>
<polygon fill="#6666ff" stroke="#6666ff" points="1190.27,-1134.72 1191.37,-1145.25 1197.08,-1136.33 1190.27,-1134.72"/>
</g>
<!-- Metamodel::ParametricRoleHOW&#45;&gt;Metamodel::AttributeContainer -->
<g id="edge12" class="edge">
<title>Metamodel::ParametricRoleHOW&#45;&gt;Metamodel::AttributeContainer</title>
<path fill="none" stroke="#6666ff" d="M1232.88,-862.36C1170.26,-808.55 990.12,-653.79 990.12,-653.79 990.12,-653.79 906.83,-586.67 860.57,-549.38"/>
<polygon fill="#6666ff" stroke="#6666ff" points="862.64,-546.56 852.66,-543.01 858.25,-552.01 862.64,-546.56"/>
</g>
<!-- Metamodel::ParametricRoleHOW&#45;&gt;Metamodel::RoleContainer -->
<g id="edge13" class="edge">
<title>Metamodel::ParametricRoleHOW&#45;&gt;Metamodel::RoleContainer</title>
<path fill="none" stroke="#6666ff" d="M1215.35,-863.07C1159.07,-837.66 1054.73,-790.56 993.78,-763.04"/>
<polygon fill="#6666ff" stroke="#6666ff" points="994.94,-759.73 984.39,-758.8 992.06,-766.11 994.94,-759.73"/>
</g>
<!-- Metamodel::ParametricRoleHOW&#45;&gt;Metamodel::MultipleInheritance -->
<g id="edge14" class="edge">
<title>Metamodel::ParametricRoleHOW&#45;&gt;Metamodel::MultipleInheritance</title>
<path fill="none" stroke="#6666ff" d="M1239.7,-862.46C1205.6,-819.44 1122.45,-714.58 1122.45,-714.58 1122.45,-714.58 1109.12,-639.5 1101.61,-597.22"/>
<polygon fill="#6666ff" stroke="#6666ff" points="1105.03,-596.48 1099.84,-587.25 1098.14,-597.71 1105.03,-596.48"/>
</g>
<!-- Metamodel::ParametricRoleHOW&#45;&gt;Metamodel::Stashing -->
<g id="edge15" class="edge">
<title>Metamodel::ParametricRoleHOW&#45;&gt;Metamodel::Stashing</title>
<path fill="none" stroke="#6666ff" d="M1224.67,-898.33C1166.64,-933.5 1042.84,-1008.54 1042.84,-1008.54 1042.84,-1008.54 889.98,-1093.59 815.31,-1135.14"/>
<polygon fill="#6666ff" stroke="#6666ff" points="813.21,-1132.3 806.17,-1140.22 816.61,-1138.41 813.21,-1132.3"/>
</g>
<!-- Metamodel::ParametricRoleHOW&#45;&gt;Metamodel::TypePretense -->
<g id="edge16" class="edge">
<title>Metamodel::ParametricRoleHOW&#45;&gt;Metamodel::TypePretense</title>
<path fill="none" stroke="#6666ff" d="M1294.68,-863.13C1375.84,-828.39 1557.68,-750.54 1645.35,-713.01"/>
<polygon fill="#6666ff" stroke="#6666ff" points="1646.73,-716.22 1654.55,-709.07 1643.98,-709.79 1646.73,-716.22"/>
</g>
<!-- Metamodel::ParametricRoleHOW&#45;&gt;Metamodel::RolePunning -->
<g id="edge17" class="edge">
<title>Metamodel::ParametricRoleHOW&#45;&gt;Metamodel::RolePunning</title>
<path fill="none" stroke="#6666ff" d="M1295.9,-897.91C1376.55,-931.38 1553.15,-1004.67 1640.16,-1040.79"/>
<polygon fill="#6666ff" stroke="#6666ff" points="1638.99,-1044.09 1649.56,-1044.69 1641.67,-1037.62 1638.99,-1044.09"/>
</g>
<!-- Metamodel::ConcreteRoleHOW -->
<g id="node16" class="node">
<title>Metamodel::ConcreteRoleHOW</title>
<g id="a_node16"><a xlink:href="/type/Metamodel::ConcreteRoleHOW" xlink:title="Metamodel::ConcreteRoleHOW">
<ellipse fill="none" stroke="#000000" cx="1272.89" cy="-714.65" rx="148.67" ry="18"/>
<text text-anchor="middle" x="1272.89" y="-710.95" font-family="FreeSans" font-size="14.00" fill="#000000">Metamodel::ConcreteRoleHOW</text>
</a>
</g>
</g>
<!-- Metamodel::ConcreteRoleHOW&#45;&gt;Metamodel::MultiMethodContainer -->
<g id="edge22" class="edge">
<title>Metamodel::ConcreteRoleHOW&#45;&gt;Metamodel::MultiMethodContainer</title>
<path fill="none" stroke="#6666ff" d="M1233.09,-732C1164.11,-762.08 1022.48,-823.84 947.25,-856.64"/>
<polygon fill="#6666ff" stroke="#6666ff" points="945.74,-853.48 937.97,-860.69 948.54,-859.9 945.74,-853.48"/>
</g>
<!-- Metamodel::ConcreteRoleHOW&#45;&gt;Any -->
<g id="edge3" class="edge">
<title>Metamodel::ConcreteRoleHOW&#45;&gt;Any</title>
<path fill="none" stroke="#000000" d="M1270.23,-696.52C1264.53,-657.52 1251.61,-569.18 1251.61,-569.18 1251.61,-569.18 1058.13,-501 977.39,-472.55"/>
<polygon fill="#000000" stroke="#000000" points="978.27,-469.15 967.67,-469.13 975.94,-475.75 978.27,-469.15"/>
</g>
<!-- Metamodel::ConcreteRoleHOW&#45;&gt;Metamodel::Naming -->
<g id="edge18" class="edge">
<title>Metamodel::ConcreteRoleHOW&#45;&gt;Metamodel::Naming</title>
<path fill="none" stroke="#6666ff" d="M1252.55,-732.59C1195.4,-783.01 1033.23,-926.09 967.77,-983.86"/>
<polygon fill="#6666ff" stroke="#6666ff" points="965.09,-981.54 959.91,-990.78 969.73,-986.79 965.09,-981.54"/>
</g>
<!-- Metamodel::ConcreteRoleHOW&#45;&gt;Metamodel::Versioning -->
<g id="edge19" class="edge">
<title>Metamodel::ConcreteRoleHOW&#45;&gt;Metamodel::Versioning</title>
<path fill="none" stroke="#6666ff" d="M1253.53,-732.7C1207.46,-775.67 1095.15,-880.41 1095.15,-880.41 1095.15,-880.41 1010.59,-1163.51 1010.59,-1163.51 1010.59,-1163.51 1033.72,-1179.59 1054.78,-1194.23"/>
<polygon fill="#6666ff" stroke="#6666ff" points="1052.78,-1197.1 1062.99,-1199.94 1056.78,-1191.36 1052.78,-1197.1"/>
</g>
<!-- Metamodel::ConcreteRoleHOW&#45;&gt;Metamodel::MethodContainer -->
<g id="edge21" class="edge">
<title>Metamodel::ConcreteRoleHOW&#45;&gt;Metamodel::MethodContainer</title>
<path fill="none" stroke="#6666ff" d="M1176.3,-700.89C1108.97,-691.3 1019.19,-678.51 950.06,-668.66"/>
<polygon fill="#6666ff" stroke="#6666ff" points="950.41,-665.17 940.01,-667.23 949.42,-672.1 950.41,-665.17"/>
</g>
<!-- Metamodel::ConcreteRoleHOW&#45;&gt;Metamodel::PrivateMethodContainer -->
<g id="edge20" class="edge">
<title>Metamodel::ConcreteRoleHOW&#45;&gt;Metamodel::PrivateMethodContainer</title>
<path fill="none" stroke="#6666ff" d="M1253.53,-732.7C1207.46,-775.67 1095.15,-880.41 1095.15,-880.41 1095.15,-880.41 1154.84,-1064.41 1178,-1135.78"/>
<polygon fill="#6666ff" stroke="#6666ff" points="1174.72,-1137.03 1181.14,-1145.46 1181.38,-1134.87 1174.72,-1137.03"/>
</g>
<!-- Metamodel::ConcreteRoleHOW&#45;&gt;Metamodel::AttributeContainer -->
<g id="edge23" class="edge">
<title>Metamodel::ConcreteRoleHOW&#45;&gt;Metamodel::AttributeContainer</title>
<path fill="none" stroke="#6666ff" d="M1232.06,-697.16C1150.74,-662.32 968.79,-584.37 880.47,-546.54"/>
<polygon fill="#6666ff" stroke="#6666ff" points="881.76,-543.29 871.19,-542.57 879.01,-549.72 881.76,-543.29"/>
</g>
<!-- Metamodel::ConcreteRoleHOW&#45;&gt;Metamodel::RoleContainer -->
<g id="edge24" class="edge">
<title>Metamodel::ConcreteRoleHOW&#45;&gt;Metamodel::RoleContainer</title>
<path fill="none" stroke="#6666ff" d="M1149.34,-724.81C1122.74,-726.99 1094.63,-729.3 1068.09,-731.49"/>
<polygon fill="#6666ff" stroke="#6666ff" points="1067.68,-728.01 1058,-732.32 1068.25,-734.99 1067.68,-728.01"/>
</g>
<!-- Metamodel::ConcreteRoleHOW&#45;&gt;Metamodel::MultipleInheritance -->
<g id="edge25" class="edge">
<title>Metamodel::ConcreteRoleHOW&#45;&gt;Metamodel::MultipleInheritance</title>
<path fill="none" stroke="#6666ff" d="M1251.27,-696.8C1219.95,-670.95 1161.84,-622.97 1126.46,-593.75"/>
<polygon fill="#6666ff" stroke="#6666ff" points="1128.35,-590.78 1118.41,-587.11 1123.89,-596.18 1128.35,-590.78"/>
</g>
<!-- Metamodel::BaseType -->
<g id="node17" class="node">
<title>Metamodel::BaseType</title>
<g id="a_node17"><a xlink:href="/type/Metamodel::BaseType" xlink:title="Metamodel::BaseType">
<ellipse fill="none" stroke="#6666ff" cx="304.43" cy="-164.59" rx="109.38" ry="18"/>
<text text-anchor="middle" x="304.43" y="-160.89" font-family="FreeSans" font-size="14.00" fill="#6666ff">Metamodel::BaseType</text>
</a>
</g>
</g>
<!-- Metamodel::MROBasedMethodDispatch -->
<g id="node18" class="node">
<title>Metamodel::MROBasedMethodDispatch</title>
<g id="a_node18"><a xlink:href="/type/Metamodel::MROBasedMethodDispatch" xlink:title="Metamodel::MROBasedMethodDispatch">
<ellipse fill="none" stroke="#6666ff" cx="315.48" cy="-1104.74" rx="188.47" ry="18"/>
<text text-anchor="middle" x="315.48" y="-1101.04" font-family="FreeSans" font-size="14.00" fill="#6666ff">Metamodel::MROBasedMethodDispatch</text>
</a>
</g>
</g>
<!-- Metamodel::MROBasedTypeChecking -->
<g id="node19" class="node">
<title>Metamodel::MROBasedTypeChecking</title>
<g id="a_node19"><a xlink:href="/type/Metamodel::MROBasedTypeChecking" xlink:title="Metamodel::MROBasedTypeChecking">
<ellipse fill="none" stroke="#6666ff" cx="178.73" cy="-885.82" rx="178.97" ry="18"/>
<text text-anchor="middle" x="178.73" y="-882.12" font-family="FreeSans" font-size="14.00" fill="#6666ff">Metamodel::MROBasedTypeChecking</text>
</a>
</g>
</g>
<!-- Metamodel::BUILDPLAN -->
<g id="node20" class="node">
<title>Metamodel::BUILDPLAN</title>
<g id="a_node20"><a xlink:href="/type/Metamodel::BUILDPLAN" xlink:title="Metamodel::BUILDPLAN">
<ellipse fill="none" stroke="#6666ff" cx="193.34" cy="-1024.55" rx="118.08" ry="18"/>
<text text-anchor="middle" x="193.34" y="-1020.85" font-family="FreeSans" font-size="14.00" fill="#6666ff">Metamodel::BUILDPLAN</text>
</a>
</g>
</g>
<!-- Metamodel::BoolificationProtocol -->
<g id="node21" class="node">
<title>Metamodel::BoolificationProtocol</title>
<g id="a_node21"><a xlink:href="/type/Metamodel::BoolificationProtocol" xlink:title="Metamodel::BoolificationProtocol">
<ellipse fill="none" stroke="#6666ff" cx="241.98" cy="-606.49" rx="157.07" ry="18"/>
<text text-anchor="middle" x="241.98" y="-602.79" font-family="FreeSans" font-size="14.00" fill="#6666ff">Metamodel::BoolificationProtocol</text>
</a>
</g>
</g>
<!-- Metamodel::Mixins -->
<g id="node22" class="node">
<title>Metamodel::Mixins</title>
<g id="a_node22"><a xlink:href="/type/Metamodel::Mixins" xlink:title="Metamodel::Mixins">
<ellipse fill="none" stroke="#6666ff" cx="181.55" cy="-747.42" rx="94.78" ry="18"/>
<text text-anchor="middle" x="181.55" y="-743.72" font-family="FreeSans" font-size="14.00" fill="#6666ff">Metamodel::Mixins</text>
</a>
</g>
</g>
<!-- Metamodel::EnumHOW -->
<g id="node23" class="node">
<title>Metamodel::EnumHOW</title>
<g id="a_node23"><a xlink:href="/type/Metamodel::EnumHOW" xlink:title="Metamodel::EnumHOW">
<ellipse fill="none" stroke="#000000" cx="528.96" cy="-676.81" rx="115.88" ry="18"/>
<text text-anchor="middle" x="528.96" y="-673.11" font-family="FreeSans" font-size="14.00" fill="#000000">Metamodel::EnumHOW</text>
</a>
</g>
</g>
<!-- Metamodel::EnumHOW&#45;&gt;Metamodel::MultiMethodContainer -->
<g id="edge30" class="edge">
<title>Metamodel::EnumHOW&#45;&gt;Metamodel::MultiMethodContainer</title>
<path fill="none" stroke="#6666ff" d="M560.72,-694.16C627.4,-730.58 781.95,-814.99 856.31,-855.6"/>
<polygon fill="#6666ff" stroke="#6666ff" points="854.94,-858.84 865.4,-860.56 858.3,-852.7 854.94,-858.84"/>
</g>
<!-- Metamodel::EnumHOW&#45;&gt;Any -->
<g id="edge4" class="edge">
<title>Metamodel::EnumHOW&#45;&gt;Any</title>
<path fill="none" stroke="#000000" d="M546.73,-658.81C586.4,-618.62 678.73,-525.08 678.73,-525.08 678.73,-525.08 723.39,-511.23 723.39,-511.23 723.39,-511.23 843.47,-483.34 905.9,-468.84"/>
<polygon fill="#000000" stroke="#000000" points="906.81,-472.23 915.76,-466.55 905.23,-465.41 906.81,-472.23"/>
</g>
<!-- Metamodel::EnumHOW&#45;&gt;Metamodel::Naming -->
<g id="edge26" class="edge">
<title>Metamodel::EnumHOW&#45;&gt;Metamodel::Naming</title>
<path fill="none" stroke="#6666ff" d="M546.84,-694.68C596.14,-743.95 730.41,-878.14 730.41,-878.14 730.41,-878.14 843.19,-948.33 903.23,-985.7"/>
<polygon fill="#6666ff" stroke="#6666ff" points="901.69,-988.87 912.03,-991.18 905.39,-982.92 901.69,-988.87"/>
</g>
<!-- Metamodel::EnumHOW&#45;&gt;Metamodel::MethodContainer -->
<g id="edge29" class="edge">
<title>Metamodel::EnumHOW&#45;&gt;Metamodel::MethodContainer</title>
<path fill="none" stroke="#6666ff" d="M633.72,-669.14C658.3,-667.34 684.82,-665.4 710.49,-663.52"/>
<polygon fill="#6666ff" stroke="#6666ff" points="710.95,-666.99 720.67,-662.77 710.44,-660.01 710.95,-666.99"/>
</g>
<!-- Metamodel::EnumHOW&#45;&gt;Metamodel::AttributeContainer -->
<g id="edge28" class="edge">
<title>Metamodel::EnumHOW&#45;&gt;Metamodel::AttributeContainer</title>
<path fill="none" stroke="#6666ff" d="M563.25,-659.56C618.16,-631.94 725.76,-577.8 786.33,-547.32"/>
<polygon fill="#6666ff" stroke="#6666ff" points="787.91,-550.44 795.27,-542.82 784.77,-544.19 787.91,-550.44"/>
</g>
<!-- Metamodel::EnumHOW&#45;&gt;Metamodel::RoleContainer -->
<g id="edge31" class="edge">
<title>Metamodel::EnumHOW&#45;&gt;Metamodel::RoleContainer</title>
<path fill="none" stroke="#6666ff" d="M611.37,-689.6C679.74,-700.2 777.09,-715.3 849.19,-726.48"/>
<polygon fill="#6666ff" stroke="#6666ff" points="848.77,-729.96 859.19,-728.03 849.84,-723.04 848.77,-729.96"/>
</g>
<!-- Metamodel::EnumHOW&#45;&gt;Metamodel::Stashing -->
<g id="edge27" class="edge">
<title>Metamodel::EnumHOW&#45;&gt;Metamodel::Stashing</title>
<path fill="none" stroke="#6666ff" d="M543.02,-694.93C590.68,-756.37 743.21,-952.95 743.21,-952.95 743.21,-952.95 762.04,-1073.25 770.81,-1129.31"/>
<polygon fill="#6666ff" stroke="#6666ff" points="767.37,-1129.96 772.37,-1139.3 774.28,-1128.88 767.37,-1129.96"/>
</g>
<!-- Metamodel::EnumHOW&#45;&gt;Metamodel::BaseType -->
<g id="edge32" class="edge">
<title>Metamodel::EnumHOW&#45;&gt;Metamodel::BaseType</title>
<path fill="none" stroke="#6666ff" d="M526.56,-658.48C519.86,-607.21 501.4,-466.09 501.4,-466.09 501.4,-466.09 370.04,-265.02 321.87,-191.28"/>
<polygon fill="#6666ff" stroke="#6666ff" points="324.57,-189 316.17,-182.54 318.7,-192.83 324.57,-189"/>
</g>
<!-- Metamodel::EnumHOW&#45;&gt;Metamodel::MROBasedMethodDispatch -->
<g id="edge33" class="edge">
<title>Metamodel::EnumHOW&#45;&gt;Metamodel::MROBasedMethodDispatch</title>
<path fill="none" stroke="#6666ff" d="M519.92,-694.93C486.44,-762.04 369.34,-996.77 329.15,-1077.34"/>
<polygon fill="#6666ff" stroke="#6666ff" points="325.97,-1075.87 324.64,-1086.38 332.23,-1079 325.97,-1075.87"/>
</g>
<!-- Metamodel::EnumHOW&#45;&gt;Metamodel::MROBasedTypeChecking -->
<g id="edge34" class="edge">
<title>Metamodel::EnumHOW&#45;&gt;Metamodel::MROBasedTypeChecking</title>
<path fill="none" stroke="#6666ff" d="M499.7,-694.27C436.64,-731.91 287.91,-820.67 217.27,-862.82"/>
<polygon fill="#6666ff" stroke="#6666ff" points="215.44,-859.84 208.65,-867.97 219.03,-865.85 215.44,-859.84"/>
</g>
<!-- Metamodel::EnumHOW&#45;&gt;Metamodel::BUILDPLAN -->
<g id="edge35" class="edge">
<title>Metamodel::EnumHOW&#45;&gt;Metamodel::BUILDPLAN</title>
<path fill="none" stroke="#6666ff" d="M514.18,-695.01C472.84,-745.89 359.06,-885.95 359.06,-885.95 359.06,-885.95 270.03,-960.42 222.48,-1000.19"/>
<polygon fill="#6666ff" stroke="#6666ff" points="220.09,-997.62 214.67,-1006.72 224.58,-1002.99 220.09,-997.62"/>
</g>
<!-- Metamodel::EnumHOW&#45;&gt;Metamodel::BoolificationProtocol -->
<g id="edge36" class="edge">
<title>Metamodel::EnumHOW&#45;&gt;Metamodel::BoolificationProtocol</title>
<path fill="none" stroke="#6666ff" d="M466.69,-661.55C423.23,-650.9 364.94,-636.62 318.62,-625.27"/>
<polygon fill="#6666ff" stroke="#6666ff" points="319.17,-621.8 308.63,-622.82 317.51,-628.6 319.17,-621.8"/>
</g>
<!-- Metamodel::EnumHOW&#45;&gt;Metamodel::Mixins -->
<g id="edge37" class="edge">
<title>Metamodel::EnumHOW&#45;&gt;Metamodel::Mixins</title>
<path fill="none" stroke="#6666ff" d="M458.24,-691.19C399.54,-703.12 316.28,-720.04 256.45,-732.19"/>
<polygon fill="#6666ff" stroke="#6666ff" points="255.41,-728.83 246.31,-734.25 256.81,-735.69 255.41,-728.83"/>
</g>
<!-- Metamodel::Finalization -->
<g id="node24" class="node">
<title>Metamodel::Finalization</title>
<g id="a_node24"><a xlink:href="/type/Metamodel::Finalization" xlink:title="Metamodel::Finalization">
<ellipse fill="none" stroke="#6666ff" cx="467.76" cy="-1439.95" rx="116.98" ry="18"/>
<text text-anchor="middle" x="467.76" y="-1436.25" font-family="FreeSans" font-size="14.00" fill="#6666ff">Metamodel::Finalization</text>
</a>
</g>
</g>
<!-- Metamodel::DefaultParent -->
<g id="node25" class="node">
<title>Metamodel::DefaultParent</title>
<g id="a_node25"><a xlink:href="/type/Metamodel::DefaultParent" xlink:title="Metamodel::DefaultParent">
<ellipse fill="none" stroke="#6666ff" cx="297.53" cy="-1348.73" rx="128.08" ry="18"/>
<text text-anchor="middle" x="297.53" y="-1345.03" font-family="FreeSans" font-size="14.00" fill="#6666ff">Metamodel::DefaultParent</text>
</a>
</g>
</g>
<!-- Metamodel::C3MRO -->
<g id="node26" class="node">
<title>Metamodel::C3MRO</title>
<g id="a_node26"><a xlink:href="/type/Metamodel::C3MRO" xlink:title="Metamodel::C3MRO">
<ellipse fill="none" stroke="#6666ff" cx="399.71" cy="-465.9" rx="100.18" ry="18"/>
<text text-anchor="middle" x="399.71" y="-462.2" font-family="FreeSans" font-size="14.00" fill="#6666ff">Metamodel::C3MRO</text>
</a>
</g>
</g>
<!-- Metamodel::Trusting -->
<g id="node27" class="node">
<title>Metamodel::Trusting</title>
<g id="a_node27"><a xlink:href="/type/Metamodel::Trusting" xlink:title="Metamodel::Trusting">
<ellipse fill="none" stroke="#6666ff" cx="646.36" cy="-1495.5" rx="102.88" ry="18"/>
<text text-anchor="middle" x="646.36" y="-1491.8" font-family="FreeSans" font-size="14.00" fill="#6666ff">Metamodel::Trusting</text>
</a>
</g>
</g>
<!-- Metamodel::ClassHOW -->
<g id="node28" class="node">
<title>Metamodel::ClassHOW</title>
<g id="a_node28"><a xlink:href="/type/Metamodel::ClassHOW" xlink:title="Metamodel::ClassHOW">
<ellipse fill="none" stroke="#000000" cx="628.52" cy="-952.8" rx="113.18" ry="18"/>
<text text-anchor="middle" x="628.52" y="-949.1" font-family="FreeSans" font-size="14.00" fill="#000000">Metamodel::ClassHOW</text>
</a>
</g>
</g>
<!-- Metamodel::ClassHOW&#45;&gt;Metamodel::MultiMethodContainer -->
<g id="edge46" class="edge">
<title>Metamodel::ClassHOW&#45;&gt;Metamodel::MultiMethodContainer</title>
<path fill="none" stroke="#6666ff" d="M684.96,-937.16C726.39,-925.69 782.93,-910.03 827.32,-897.73"/>
<polygon fill="#6666ff" stroke="#6666ff" points="828.46,-901.05 837.17,-895.01 826.59,-894.3 828.46,-901.05"/>
</g>
<!-- Metamodel::ClassHOW&#45;&gt;Any -->
<g id="edge5" class="edge">
<title>Metamodel::ClassHOW&#45;&gt;Any</title>
<path fill="none" stroke="#000000" d="M632.86,-934.53C648.31,-869.56 699.65,-653.56 699.65,-653.56 699.65,-653.56 982.2,-525.16 982.2,-525.16 982.2,-525.16 969.32,-504.04 958.26,-485.91"/>
<polygon fill="#000000" stroke="#000000" points="961.24,-484.06 953.04,-477.35 955.26,-487.71 961.24,-484.06"/>
</g>
<!-- Metamodel::ClassHOW&#45;&gt;Metamodel::Naming -->
<g id="edge38" class="edge">
<title>Metamodel::ClassHOW&#45;&gt;Metamodel::Naming</title>
<path fill="none" stroke="#6666ff" d="M703.88,-966.28C750.59,-974.63 810.58,-985.36 858.38,-993.91"/>
<polygon fill="#6666ff" stroke="#6666ff" points="857.93,-997.39 868.39,-995.7 859.16,-990.5 857.93,-997.39"/>
</g>
<!-- Metamodel::ClassHOW&#45;&gt;Metamodel::Documenting -->
<g id="edge39" class="edge">
<title>Metamodel::ClassHOW&#45;&gt;Metamodel::Documenting</title>
<path fill="none" stroke="#6666ff" d="M650.64,-970.61C712.49,-1020.43 882.75,-1157.58 882.75,-1157.58 882.75,-1157.58 937.51,-1287.65 961.9,-1345.58"/>
<polygon fill="#6666ff" stroke="#6666ff" points="958.7,-1347.01 965.81,-1354.87 965.15,-1344.29 958.7,-1347.01"/>
</g>
<!-- Metamodel::ClassHOW&#45;&gt;Metamodel::Versioning -->
<g id="edge40" class="edge">
<title>Metamodel::ClassHOW&#45;&gt;Metamodel::Versioning</title>
<path fill="none" stroke="#6666ff" d="M658.7,-970.18C739.28,-1016.58 959.45,-1143.36 1049.41,-1195.17"/>
<polygon fill="#6666ff" stroke="#6666ff" points="1047.8,-1198.28 1058.21,-1200.23 1051.29,-1192.21 1047.8,-1198.28"/>
</g>
<!-- Metamodel::ClassHOW&#45;&gt;Metamodel::MethodContainer -->
<g id="edge44" class="edge">
<title>Metamodel::ClassHOW&#45;&gt;Metamodel::MethodContainer</title>
<path fill="none" stroke="#6666ff" d="M641.73,-934.53C678.63,-883.52 782.93,-739.33 825.96,-679.84"/>
<polygon fill="#6666ff" stroke="#6666ff" points="828.82,-681.85 831.85,-671.7 823.15,-677.75 828.82,-681.85"/>
</g>
<!-- Metamodel::ClassHOW&#45;&gt;Metamodel::PrivateMethodContainer -->
<g id="edge45" class="edge">
<title>Metamodel::ClassHOW&#45;&gt;Metamodel::PrivateMethodContainer</title>
<path fill="none" stroke="#6666ff" d="M672.81,-969.51C773.62,-1007.56 1020.01,-1100.57 1131.09,-1142.5"/>
<polygon fill="#6666ff" stroke="#6666ff" points="1130.18,-1145.89 1140.77,-1146.15 1132.65,-1139.34 1130.18,-1145.89"/>
</g>
<!-- Metamodel::ClassHOW&#45;&gt;Metamodel::AttributeContainer -->
<g id="edge42" class="edge">
<title>Metamodel::ClassHOW&#45;&gt;Metamodel::AttributeContainer</title>
<path fill="none" stroke="#6666ff" d="M632.86,-934.53C648.31,-869.56 699.65,-653.56 699.65,-653.56 699.65,-653.56 766.7,-587.73 804.79,-550.32"/>
<polygon fill="#6666ff" stroke="#6666ff" points="807.31,-552.75 812,-543.25 802.41,-547.76 807.31,-552.75"/>
</g>
<!-- Metamodel::ClassHOW&#45;&gt;Metamodel::RoleContainer -->
<g id="edge47" class="edge">
<title>Metamodel::ClassHOW&#45;&gt;Metamodel::RoleContainer</title>
<path fill="none" stroke="#6666ff" d="M652.67,-935.1C682.8,-913.02 730.41,-878.14 730.41,-878.14 730.41,-878.14 847.62,-803.89 909.24,-764.87"/>
<polygon fill="#6666ff" stroke="#6666ff" points="911.33,-767.68 917.9,-759.38 907.58,-761.77 911.33,-767.68"/>
</g>
<!-- Metamodel::ClassHOW&#45;&gt;Metamodel::MultipleInheritance -->
<g id="edge48" class="edge">
<title>Metamodel::ClassHOW&#45;&gt;Metamodel::MultipleInheritance</title>
<path fill="none" stroke="#6666ff" d="M644.38,-934.78C689.36,-883.68 814.51,-741.5 814.51,-741.5 814.51,-741.5 990.12,-653.79 990.12,-653.79 990.12,-653.79 1034.49,-618.51 1065.95,-593.5"/>
<polygon fill="#6666ff" stroke="#6666ff" points="1068.39,-596.04 1074.03,-587.08 1064.03,-590.56 1068.39,-596.04"/>
</g>
<!-- Metamodel::ClassHOW&#45;&gt;Metamodel::Stashing -->
<g id="edge41" class="edge">
<title>Metamodel::ClassHOW&#45;&gt;Metamodel::Stashing</title>
<path fill="none" stroke="#6666ff" d="M641.54,-970.96C667.53,-1007.21 725.94,-1088.7 756.21,-1130.94"/>
<polygon fill="#6666ff" stroke="#6666ff" points="753.55,-1133.24 762.22,-1139.32 759.24,-1129.16 753.55,-1133.24"/>
</g>
<!-- Metamodel::ClassHOW&#45;&gt;Metamodel::MROBasedMethodDispatch -->
<g id="edge51" class="edge">
<title>Metamodel::ClassHOW&#45;&gt;Metamodel::MROBasedMethodDispatch</title>
<path fill="none" stroke="#6666ff" d="M593.22,-969.93C536.34,-997.54 424.42,-1051.86 361.4,-1082.45"/>
<polygon fill="#6666ff" stroke="#6666ff" points="359.57,-1079.45 352.1,-1086.97 362.62,-1085.75 359.57,-1079.45"/>
</g>
<!-- Metamodel::ClassHOW&#45;&gt;Metamodel::MROBasedTypeChecking -->
<g id="edge52" class="edge">
<title>Metamodel::ClassHOW&#45;&gt;Metamodel::MROBasedTypeChecking</title>
<path fill="none" stroke="#6666ff" d="M545.76,-940.47C473.62,-929.73 368.41,-914.07 289.11,-902.26"/>
<polygon fill="#6666ff" stroke="#6666ff" points="289.49,-898.78 279.08,-900.77 288.46,-905.7 289.49,-898.78"/>
</g>
<!-- Metamodel::ClassHOW&#45;&gt;Metamodel::BUILDPLAN -->
<g id="edge54" class="edge">
<title>Metamodel::ClassHOW&#45;&gt;Metamodel::BUILDPLAN</title>
<path fill="none" stroke="#6666ff" d="M549.97,-965.75C475.07,-978.1 362.36,-996.68 283.76,-1009.64"/>
<polygon fill="#6666ff" stroke="#6666ff" points="283.17,-1006.19 273.87,-1011.27 284.3,-1013.1 283.17,-1006.19"/>
</g>
<!-- Metamodel::ClassHOW&#45;&gt;Metamodel::BoolificationProtocol -->
<g id="edge56" class="edge">
<title>Metamodel::ClassHOW&#45;&gt;Metamodel::BoolificationProtocol</title>
<path fill="none" stroke="#6666ff" d="M608.55,-934.91C544.41,-877.44 343.52,-697.46 269.62,-631.25"/>
<polygon fill="#6666ff" stroke="#6666ff" points="271.84,-628.55 262.06,-624.48 267.17,-633.76 271.84,-628.55"/>
</g>
<!-- Metamodel::ClassHOW&#45;&gt;Metamodel::Mixins -->
<g id="edge55" class="edge">
<title>Metamodel::ClassHOW&#45;&gt;Metamodel::Mixins</title>
<path fill="none" stroke="#6666ff" d="M591.18,-935.64C509.6,-898.15 315.68,-809.05 227.1,-768.34"/>
<polygon fill="#6666ff" stroke="#6666ff" points="228.39,-765.09 217.85,-764.09 225.47,-771.45 228.39,-765.09"/>
</g>
<!-- Metamodel::ClassHOW&#45;&gt;Metamodel::Finalization -->
<g id="edge43" class="edge">
<title>Metamodel::ClassHOW&#45;&gt;Metamodel::Finalization</title>
<path fill="none" stroke="#6666ff" d="M622.51,-971C598.11,-1044.94 506.35,-1323.02 476.91,-1412.23"/>
<polygon fill="#6666ff" stroke="#6666ff" points="473.52,-1411.32 473.71,-1421.91 480.17,-1413.51 473.52,-1411.32"/>
</g>
<!-- Metamodel::ClassHOW&#45;&gt;Metamodel::DefaultParent -->
<g id="edge49" class="edge">
<title>Metamodel::ClassHOW&#45;&gt;Metamodel::DefaultParent</title>
<path fill="none" stroke="#6666ff" d="M613.93,-970.84C581.36,-1011.11 505.56,-1104.85 505.56,-1104.85 505.56,-1104.85 373.03,-1260.21 319.53,-1322.93"/>
<polygon fill="#6666ff" stroke="#6666ff" points="316.65,-1320.92 312.82,-1330.8 321.98,-1325.46 316.65,-1320.92"/>
</g>
<!-- Metamodel::ClassHOW&#45;&gt;Metamodel::C3MRO -->
<g id="edge50" class="edge">
<title>Metamodel::ClassHOW&#45;&gt;Metamodel::C3MRO</title>
<path fill="none" stroke="#6666ff" d="M614.29,-934.69C566.05,-873.28 411.67,-676.8 411.67,-676.8 411.67,-676.8 404.6,-552.14 401.33,-494.5"/>
<polygon fill="#6666ff" stroke="#6666ff" points="404.81,-494.03 400.75,-484.25 397.82,-494.43 404.81,-494.03"/>
</g>
<!-- Metamodel::ClassHOW&#45;&gt;Metamodel::Trusting -->
<g id="edge53" class="edge">
<title>Metamodel::ClassHOW&#45;&gt;Metamodel::Trusting</title>
<path fill="none" stroke="#6666ff" d="M629.12,-970.85C631.73,-1050.37 642.23,-1369.68 645.43,-1467.12"/>
<polygon fill="#6666ff" stroke="#6666ff" points="641.94,-1467.49 645.77,-1477.37 648.94,-1467.26 641.94,-1467.49"/>
</g>
</g>
</svg>
