<?xml version="1.0" encoding="UTF-8" standalone="no"?>
<!DOCTYPE svg PUBLIC "-//W3C//DTD SVG 1.1//EN"
 "http://www.w3.org/Graphics/SVG/1.1/DTD/svg11.dtd">
<!-- Generated by graphviz version 2.42.3 (0)
 -->
<!-- Title: perl6&#45;type&#45;graph Pages: 1 -->
<svg width="311pt" height="404pt"
 viewBox="0.00 0.00 311.38 404.00" xmlns="http://www.w3.org/2000/svg" xmlns:xlink="http://www.w3.org/1999/xlink">
<g id="graph0" class="graph" transform="scale(1 1) rotate(0) translate(4 400)">
<title>perl6&#45;type&#45;graph</title>
<polygon fill="white" stroke="transparent" points="-4,4 -4,-400 307.38,-400 307.38,4 -4,4"/>
<!-- X::Syntax::Variable::Match -->
<g id="node1" class="node">
<title>X::Syntax::Variable::Match</title>
<g id="a_node1"><a xlink:href="/type/X::Syntax::Variable::Match" xlink:title="X::Syntax::Variable::Match">
<ellipse fill="none" stroke="#000000" cx="129.99" cy="-18" rx="129.98" ry="18"/>
<text text-anchor="middle" x="129.99" y="-14.3" font-family="FreeSans" font-size="14.00" fill="#000000">X::Syntax::Variable::Match</text>
</a>
</g>
</g>
<!-- Exception -->
<g id="node4" class="node">
<title>Exception</title>
<g id="a_node4"><a xlink:href="/type/Exception" xlink:title="Exception">
<ellipse fill="none" stroke="#000000" cx="152.99" cy="-234" rx="55.49" ry="18"/>
<text text-anchor="middle" x="152.99" y="-230.3" font-family="FreeSans" font-size="14.00" fill="#000000">Exception</text>
</a>
</g>
</g>
<!-- X::Syntax::Variable::Match&#45;&gt;Exception -->
<g id="edge1" class="edge">
<title>X::Syntax::Variable::Match&#45;&gt;Exception</title>
<path fill="none" stroke="#000000" d="M127.95,-36.15C128.4,-73.34 137.63,-161.63 145.46,-206.23"/>
<polygon fill="#000000" stroke="#000000" points="142.02,-206.88 147.31,-216.06 148.9,-205.59 142.02,-206.88"/>
</g>
<!-- X::Syntax::Variable::Match&#45;&gt;Exception -->
<g id="edge2" class="edge">
<title>X::Syntax::Variable::Match&#45;&gt;Exception</title>
<path fill="none" stroke="#000000" d="M135.71,-36.15C143.22,-73.17 152.92,-160.82 154.74,-205.61"/>
<polygon fill="#000000" stroke="#000000" points="151.24,-205.87 155.02,-215.77 158.24,-205.67 151.24,-205.87"/>
</g>
<!-- X::Syntax -->
<g id="node6" class="node">
<title>X::Syntax</title>
<g id="a_node6"><a xlink:href="/type/X::Syntax" xlink:title="X::Syntax">
<ellipse fill="none" stroke="#6666ff" cx="220.99" cy="-90" rx="53.89" ry="18"/>
<text text-anchor="middle" x="220.99" y="-86.3" font-family="FreeSans" font-size="14.00" fill="#6666ff">X::Syntax</text>
</a>
</g>
</g>
<!-- X::Syntax::Variable::Match&#45;&gt;X::Syntax -->
<g id="edge7" class="edge">
<title>X::Syntax::Variable::Match&#45;&gt;X::Syntax</title>
<path fill="none" stroke="#6666ff" d="M152.02,-35.95C164.1,-45.24 179.22,-56.87 192.22,-66.87"/>
<polygon fill="#6666ff" stroke="#6666ff" points="190.35,-69.85 200.41,-73.17 194.62,-64.3 190.35,-69.85"/>
</g>
<!-- Mu -->
<g id="node2" class="node">
<title>Mu</title>
<g id="a_node2"><a xlink:href="/type/Mu" xlink:title="Mu">
<ellipse fill="none" stroke="#000000" cx="152.99" cy="-378" rx="27" ry="18"/>
<text text-anchor="middle" x="152.99" y="-374.3" font-family="FreeSans" font-size="14.00" fill="#000000">Mu</text>
</a>
</g>
</g>
<!-- Any -->
<g id="node3" class="node">
<title>Any</title>
<g id="a_node3"><a xlink:href="/type/Any" xlink:title="Any">
<ellipse fill="none" stroke="#000000" cx="152.99" cy="-306" rx="28.7" ry="18"/>
<text text-anchor="middle" x="152.99" y="-302.3" font-family="FreeSans" font-size="14.00" fill="#000000">Any</text>
</a>
</g>
</g>
<!-- Any&#45;&gt;Mu -->
<g id="edge3" class="edge">
<title>Any&#45;&gt;Mu</title>
<path fill="none" stroke="#000000" d="M152.99,-324.3C152.99,-332.02 152.99,-341.29 152.99,-349.89"/>
<polygon fill="#000000" stroke="#000000" points="149.49,-349.9 152.99,-359.9 156.49,-349.9 149.49,-349.9"/>
</g>
<!-- Exception&#45;&gt;Any -->
<g id="edge4" class="edge">
<title>Exception&#45;&gt;Any</title>
<path fill="none" stroke="#000000" d="M152.99,-252.3C152.99,-260.02 152.99,-269.29 152.99,-277.89"/>
<polygon fill="#000000" stroke="#000000" points="149.49,-277.9 152.99,-287.9 156.49,-277.9 149.49,-277.9"/>
</g>
<!-- X::Comp -->
<g id="node5" class="node">
<title>X::Comp</title>
<g id="a_node5"><a xlink:href="/type/X::Comp" xlink:title="X::Comp">
<ellipse fill="none" stroke="#6666ff" cx="253.99" cy="-162" rx="49.29" ry="18"/>
<text text-anchor="middle" x="253.99" y="-158.3" font-family="FreeSans" font-size="14.00" fill="#6666ff">X::Comp</text>
</a>
</g>
</g>
<!-- X::Comp&#45;&gt;Exception -->
<g id="edge5" class="edge">
<title>X::Comp&#45;&gt;Exception</title>
<path fill="none" stroke="#000000" d="M232.07,-178.19C217.97,-187.96 199.44,-200.8 183.87,-211.6"/>
<polygon fill="#000000" stroke="#000000" points="181.79,-208.78 175.56,-217.36 185.77,-214.54 181.79,-208.78"/>
</g>
<!-- X::Syntax&#45;&gt;Exception -->
<g id="edge6" class="edge">
<title>X::Syntax&#45;&gt;Exception</title>
<path fill="none" stroke="#000000" d="M212.92,-107.85C201.16,-132.4 179.22,-178.23 165.4,-207.09"/>
<polygon fill="#000000" stroke="#000000" points="162.21,-205.64 161.05,-216.18 168.52,-208.67 162.21,-205.64"/>
</g>
<!-- X::Syntax&#45;&gt;X::Comp -->
<g id="edge8" class="edge">
<title>X::Syntax&#45;&gt;X::Comp</title>
<path fill="none" stroke="#6666ff" d="M228.98,-107.95C232.79,-116.03 237.43,-125.88 241.68,-134.89"/>
<polygon fill="#6666ff" stroke="#6666ff" points="238.64,-136.66 246.07,-144.21 244.98,-133.67 238.64,-136.66"/>
</g>
</g>
</svg>
