<?xml version="1.0" encoding="UTF-8" standalone="no"?>
<!DOCTYPE svg PUBLIC "-//W3C//DTD SVG 1.1//EN"
 "http://www.w3.org/Graphics/SVG/1.1/DTD/svg11.dtd">
<!-- Generated by graphviz version 2.42.3 (0)
 -->
<!-- Title: perl6&#45;type&#45;graph Pages: 1 -->
<svg width="632pt" height="332pt"
 viewBox="0.00 0.00 631.99 332.00" xmlns="http://www.w3.org/2000/svg" xmlns:xlink="http://www.w3.org/1999/xlink">
<g id="graph0" class="graph" transform="scale(1 1) rotate(0) translate(4 328)">
<title>perl6&#45;type&#45;graph</title>
<polygon fill="white" stroke="transparent" points="-4,4 -4,-328 627.99,-328 627.99,4 -4,4"/>
<!-- Positional -->
<g id="node1" class="node">
<title>Positional</title>
<g id="a_node1"><a xlink:href="/type/Positional" xlink:title="Positional">
<ellipse fill="none" stroke="#6666ff" cx="338.75" cy="-162" rx="53.89" ry="18"/>
<text text-anchor="middle" x="338.75" y="-158.3" font-family="FreeSans" font-size="14.00" fill="#6666ff">Positional</text>
</a>
</g>
</g>
<!-- Mu -->
<g id="node2" class="node">
<title>Mu</title>
<g id="a_node2"><a xlink:href="/type/Mu" xlink:title="Mu">
<ellipse fill="none" stroke="#000000" cx="420.75" cy="-306" rx="27" ry="18"/>
<text text-anchor="middle" x="420.75" y="-302.3" font-family="FreeSans" font-size="14.00" fill="#000000">Mu</text>
</a>
</g>
</g>
<!-- Any -->
<g id="node3" class="node">
<title>Any</title>
<g id="a_node3"><a xlink:href="/type/Any" xlink:title="Any">
<ellipse fill="none" stroke="#000000" cx="420.75" cy="-234" rx="28.7" ry="18"/>
<text text-anchor="middle" x="420.75" y="-230.3" font-family="FreeSans" font-size="14.00" fill="#000000">Any</text>
</a>
</g>
</g>
<!-- Any&#45;&gt;Mu -->
<g id="edge1" class="edge">
<title>Any&#45;&gt;Mu</title>
<path fill="none" stroke="#000000" d="M420.75,-252.3C420.75,-260.02 420.75,-269.29 420.75,-277.89"/>
<polygon fill="#000000" stroke="#000000" points="417.25,-277.9 420.75,-287.9 424.25,-277.9 417.25,-277.9"/>
</g>
<!-- Cool -->
<g id="node4" class="node">
<title>Cool</title>
<g id="a_node4"><a xlink:href="/type/Cool" xlink:title="Cool">
<ellipse fill="none" stroke="#000000" cx="127.75" cy="-162" rx="30.59" ry="18"/>
<text text-anchor="middle" x="127.75" y="-158.3" font-family="FreeSans" font-size="14.00" fill="#000000">Cool</text>
</a>
</g>
</g>
<!-- Cool&#45;&gt;Any -->
<g id="edge2" class="edge">
<title>Cool&#45;&gt;Any</title>
<path fill="none" stroke="#000000" d="M151.94,-173.28C160.36,-176.86 167.75,-180 167.75,-180 167.75,-180 313.1,-210.45 383.46,-225.19"/>
<polygon fill="#000000" stroke="#000000" points="383.17,-228.7 393.67,-227.33 384.6,-221.85 383.17,-228.7"/>
</g>
<!-- Iterable -->
<g id="node5" class="node">
<title>Iterable</title>
<g id="a_node5"><a xlink:href="/type/Iterable" xlink:title="Iterable">
<ellipse fill="none" stroke="#6666ff" cx="221.75" cy="-162" rx="45.49" ry="18"/>
<text text-anchor="middle" x="221.75" y="-158.3" font-family="FreeSans" font-size="14.00" fill="#6666ff">Iterable</text>
</a>
</g>
</g>
<!-- List -->
<g id="node6" class="node">
<title>List</title>
<g id="a_node6"><a xlink:href="/type/List" xlink:title="List">
<ellipse fill="none" stroke="#000000" cx="127.75" cy="-90" rx="27" ry="18"/>
<text text-anchor="middle" x="127.75" y="-86.3" font-family="FreeSans" font-size="14.00" fill="#000000">List</text>
</a>
</g>
</g>
<!-- List&#45;&gt;Positional -->
<g id="edge13" class="edge">
<title>List&#45;&gt;Positional</title>
<path fill="none" stroke="#6666ff" d="M150.77,-99.7C161.85,-103.88 172.75,-108 172.75,-108 172.75,-108 242.2,-130.18 291.26,-145.84"/>
<polygon fill="#6666ff" stroke="#6666ff" points="290.49,-149.27 301.08,-148.97 292.62,-142.6 290.49,-149.27"/>
</g>
<!-- List&#45;&gt;Cool -->
<g id="edge3" class="edge">
<title>List&#45;&gt;Cool</title>
<path fill="none" stroke="#000000" d="M127.75,-108.3C127.75,-116.02 127.75,-125.29 127.75,-133.89"/>
<polygon fill="#000000" stroke="#000000" points="124.25,-133.9 127.75,-143.9 131.25,-133.9 124.25,-133.9"/>
</g>
<!-- List&#45;&gt;Iterable -->
<g id="edge14" class="edge">
<title>List&#45;&gt;Iterable</title>
<path fill="none" stroke="#6666ff" d="M145.43,-104.17C158.8,-114.12 177.44,-128.01 192.96,-139.56"/>
<polygon fill="#6666ff" stroke="#6666ff" points="191.09,-142.53 201.2,-145.7 195.27,-136.92 191.09,-142.53"/>
</g>
<!-- Range -->
<g id="node7" class="node">
<title>Range</title>
<g id="a_node7"><a xlink:href="/type/Range" xlink:title="Range">
<ellipse fill="none" stroke="#000000" cx="221.75" cy="-90" rx="39.79" ry="18"/>
<text text-anchor="middle" x="221.75" y="-86.3" font-family="FreeSans" font-size="14.00" fill="#000000">Range</text>
</a>
</g>
</g>
<!-- Range&#45;&gt;Positional -->
<g id="edge15" class="edge">
<title>Range&#45;&gt;Positional</title>
<path fill="none" stroke="#6666ff" d="M244.86,-104.83C261.99,-115.08 285.61,-129.21 304.87,-140.73"/>
<polygon fill="#6666ff" stroke="#6666ff" points="303.28,-143.86 313.65,-145.99 306.87,-137.85 303.28,-143.86"/>
</g>
<!-- Range&#45;&gt;Cool -->
<g id="edge4" class="edge">
<title>Range&#45;&gt;Cool</title>
<path fill="none" stroke="#000000" d="M201.81,-105.85C188.03,-116.11 169.53,-129.89 154.47,-141.1"/>
<polygon fill="#000000" stroke="#000000" points="151.99,-138.58 146.06,-147.36 156.17,-144.2 151.99,-138.58"/>
</g>
<!-- Range&#45;&gt;Iterable -->
<g id="edge16" class="edge">
<title>Range&#45;&gt;Iterable</title>
<path fill="none" stroke="#6666ff" d="M221.75,-108.3C221.75,-116.02 221.75,-125.29 221.75,-133.89"/>
<polygon fill="#6666ff" stroke="#6666ff" points="218.25,-133.9 221.75,-143.9 225.25,-133.9 218.25,-133.9"/>
</g>
<!-- Stringy -->
<g id="node8" class="node">
<title>Stringy</title>
<g id="a_node8"><a xlink:href="/type/Stringy" xlink:title="Stringy">
<ellipse fill="none" stroke="#6666ff" cx="499.75" cy="-162" rx="43.59" ry="18"/>
<text text-anchor="middle" x="499.75" y="-158.3" font-family="FreeSans" font-size="14.00" fill="#6666ff">Stringy</text>
</a>
</g>
</g>
<!-- Uni -->
<g id="node9" class="node">
<title>Uni</title>
<g id="a_node9"><a xlink:href="/type/Uni" xlink:title="Uni">
<ellipse fill="none" stroke="#000000" cx="350.75" cy="-90" rx="27" ry="18"/>
<text text-anchor="middle" x="350.75" y="-86.3" font-family="FreeSans" font-size="14.00" fill="#000000">Uni</text>
</a>
</g>
</g>
<!-- Uni&#45;&gt;Positional -->
<g id="edge17" class="edge">
<title>Uni&#45;&gt;Positional</title>
<path fill="none" stroke="#6666ff" d="M347.84,-107.95C346.52,-115.65 344.92,-124.97 343.44,-133.64"/>
<polygon fill="#6666ff" stroke="#6666ff" points="339.95,-133.28 341.71,-143.72 346.85,-134.46 339.95,-133.28"/>
</g>
<!-- Uni&#45;&gt;Any -->
<g id="edge5" class="edge">
<title>Uni&#45;&gt;Any</title>
<path fill="none" stroke="#000000" d="M364.68,-105.48C379.78,-121.17 401.75,-144 401.75,-144 401.75,-144 409.4,-179.83 414.99,-206.03"/>
<polygon fill="#000000" stroke="#000000" points="411.57,-206.79 417.08,-215.84 418.42,-205.33 411.57,-206.79"/>
</g>
<!-- Uni&#45;&gt;Stringy -->
<g id="edge18" class="edge">
<title>Uni&#45;&gt;Stringy</title>
<path fill="none" stroke="#6666ff" d="M372.09,-101.03C395.74,-112.14 434.28,-130.24 462.83,-143.66"/>
<polygon fill="#6666ff" stroke="#6666ff" points="461.56,-146.93 472.1,-148.01 464.54,-140.59 461.56,-146.93"/>
</g>
<!-- Blob -->
<g id="node10" class="node">
<title>Blob</title>
<g id="a_node10"><a xlink:href="/type/Blob" xlink:title="Blob">
<ellipse fill="none" stroke="#6666ff" cx="508.75" cy="-90" rx="30.59" ry="18"/>
<text text-anchor="middle" x="508.75" y="-86.3" font-family="FreeSans" font-size="14.00" fill="#6666ff">Blob</text>
</a>
</g>
</g>
<!-- Blob&#45;&gt;Positional -->
<g id="edge19" class="edge">
<title>Blob&#45;&gt;Positional</title>
<path fill="none" stroke="#6666ff" d="M484.39,-101.03C457.4,-112.14 413.39,-130.27 380.8,-143.68"/>
<polygon fill="#6666ff" stroke="#6666ff" points="379.42,-140.47 371.51,-147.51 382.09,-146.94 379.42,-140.47"/>
</g>
<!-- Blob&#45;&gt;Stringy -->
<g id="edge20" class="edge">
<title>Blob&#45;&gt;Stringy</title>
<path fill="none" stroke="#6666ff" d="M506.52,-108.3C505.53,-116.02 504.34,-125.29 503.23,-133.89"/>
<polygon fill="#6666ff" stroke="#6666ff" points="499.75,-133.53 501.95,-143.9 506.69,-134.42 499.75,-133.53"/>
</g>
<!-- Array -->
<g id="node11" class="node">
<title>Array</title>
<g id="a_node11"><a xlink:href="/type/Array" xlink:title="Array">
<ellipse fill="none" stroke="#000000" cx="35.75" cy="-18" rx="36" ry="18"/>
<text text-anchor="middle" x="35.75" y="-14.3" font-family="FreeSans" font-size="14.00" fill="#000000">Array</text>
</a>
</g>
</g>
<!-- Array&#45;&gt;List -->
<g id="edge6" class="edge">
<title>Array&#45;&gt;List</title>
<path fill="none" stroke="#000000" d="M54.81,-33.5C68.54,-43.95 87.2,-58.15 102.22,-69.58"/>
<polygon fill="#000000" stroke="#000000" points="100.49,-72.66 110.57,-75.93 104.73,-67.09 100.49,-72.66"/>
</g>
<!-- Slip -->
<g id="node12" class="node">
<title>Slip</title>
<g id="a_node12"><a xlink:href="/type/Slip" xlink:title="Slip">
<ellipse fill="none" stroke="#000000" cx="116.75" cy="-18" rx="27.1" ry="18"/>
<text text-anchor="middle" x="116.75" y="-14.3" font-family="FreeSans" font-size="14.00" fill="#000000">Slip</text>
</a>
</g>
</g>
<!-- Slip&#45;&gt;List -->
<g id="edge7" class="edge">
<title>Slip&#45;&gt;List</title>
<path fill="none" stroke="#000000" d="M119.41,-35.95C120.62,-43.65 122.09,-52.97 123.45,-61.64"/>
<polygon fill="#000000" stroke="#000000" points="120.02,-62.39 125.03,-71.72 126.94,-61.3 120.02,-62.39"/>
</g>
<!-- NFD -->
<g id="node13" class="node">
<title>NFD</title>
<g id="a_node13"><a xlink:href="/type/NFD" xlink:title="NFD">
<ellipse fill="none" stroke="#000000" cx="191.75" cy="-18" rx="29.8" ry="18"/>
<text text-anchor="middle" x="191.75" y="-14.3" font-family="FreeSans" font-size="14.00" fill="#000000">NFD</text>
</a>
</g>
</g>
<!-- NFD&#45;&gt;Uni -->
<g id="edge8" class="edge">
<title>NFD&#45;&gt;Uni</title>
<path fill="none" stroke="#000000" d="M215.21,-29.33C242.8,-41.48 288.72,-61.69 319.36,-75.18"/>
<polygon fill="#000000" stroke="#000000" points="318.16,-78.48 328.73,-79.31 320.99,-72.07 318.16,-78.48"/>
</g>
<!-- NFC -->
<g id="node14" class="node">
<title>NFC</title>
<g id="a_node14"><a xlink:href="/type/NFC" xlink:title="NFC">
<ellipse fill="none" stroke="#000000" cx="268.75" cy="-18" rx="29.5" ry="18"/>
<text text-anchor="middle" x="268.75" y="-14.3" font-family="FreeSans" font-size="14.00" fill="#000000">NFC</text>
</a>
</g>
</g>
<!-- NFC&#45;&gt;Uni -->
<g id="edge9" class="edge">
<title>NFC&#45;&gt;Uni</title>
<path fill="none" stroke="#000000" d="M285.34,-33.17C297.28,-43.36 313.55,-57.25 326.88,-68.63"/>
<polygon fill="#000000" stroke="#000000" points="324.86,-71.5 334.74,-75.33 329.4,-66.18 324.86,-71.5"/>
</g>
<!-- NFKC -->
<g id="node15" class="node">
<title>NFKC</title>
<g id="a_node15"><a xlink:href="/type/NFKC" xlink:title="NFKC">
<ellipse fill="none" stroke="#000000" cx="350.75" cy="-18" rx="35.19" ry="18"/>
<text text-anchor="middle" x="350.75" y="-14.3" font-family="FreeSans" font-size="14.00" fill="#000000">NFKC</text>
</a>
</g>
</g>
<!-- NFKC&#45;&gt;Uni -->
<g id="edge10" class="edge">
<title>NFKC&#45;&gt;Uni</title>
<path fill="none" stroke="#000000" d="M350.75,-36.3C350.75,-44.02 350.75,-53.29 350.75,-61.89"/>
<polygon fill="#000000" stroke="#000000" points="347.25,-61.9 350.75,-71.9 354.25,-61.9 347.25,-61.9"/>
</g>
<!-- NFKD -->
<g id="node16" class="node">
<title>NFKD</title>
<g id="a_node16"><a xlink:href="/type/NFKD" xlink:title="NFKD">
<ellipse fill="none" stroke="#000000" cx="439.75" cy="-18" rx="36" ry="18"/>
<text text-anchor="middle" x="439.75" y="-14.3" font-family="FreeSans" font-size="14.00" fill="#000000">NFKD</text>
</a>
</g>
</g>
<!-- NFKD&#45;&gt;Uni -->
<g id="edge11" class="edge">
<title>NFKD&#45;&gt;Uni</title>
<path fill="none" stroke="#000000" d="M421.31,-33.5C408.11,-43.88 390.2,-57.97 375.72,-69.36"/>
<polygon fill="#000000" stroke="#000000" points="373.36,-66.77 367.66,-75.7 377.68,-72.27 373.36,-66.77"/>
</g>
<!-- utf8 -->
<g id="node17" class="node">
<title>utf8</title>
<g id="a_node17"><a xlink:href="/type/utf8" xlink:title="utf8">
<ellipse fill="none" stroke="#000000" cx="594.75" cy="-18" rx="29.5" ry="18"/>
<text text-anchor="middle" x="594.75" y="-14.3" font-family="FreeSans" font-size="14.00" fill="#000000">utf8</text>
</a>
</g>
</g>
<!-- utf8&#45;&gt;Any -->
<g id="edge12" class="edge">
<title>utf8&#45;&gt;Any</title>
<path fill="none" stroke="#000000" d="M590.33,-35.93C579.55,-77.26 552.75,-180 552.75,-180 552.75,-180 492.89,-204.03 453.79,-219.73"/>
<polygon fill="#000000" stroke="#000000" points="452.32,-216.55 444.35,-223.52 454.93,-223.05 452.32,-216.55"/>
</g>
<!-- utf8&#45;&gt;Blob -->
<g id="edge21" class="edge">
<title>utf8&#45;&gt;Blob</title>
<path fill="none" stroke="#6666ff" d="M577.76,-32.83C565.23,-43.02 548,-57.05 533.89,-68.54"/>
<polygon fill="#6666ff" stroke="#6666ff" points="531.54,-65.93 526,-74.96 535.96,-71.36 531.54,-65.93"/>
</g>
<!-- Buf -->
<g id="node18" class="node">
<title>Buf</title>
<g id="a_node18"><a xlink:href="/type/Buf" xlink:title="Buf">
<ellipse fill="none" stroke="#6666ff" cx="520.75" cy="-18" rx="27" ry="18"/>
<text text-anchor="middle" x="520.75" y="-14.3" font-family="FreeSans" font-size="14.00" fill="#6666ff">Buf</text>
</a>
</g>
</g>
<!-- Buf&#45;&gt;Blob -->
<g id="edge22" class="edge">
<title>Buf&#45;&gt;Blob</title>
<path fill="none" stroke="#6666ff" d="M517.84,-35.95C516.52,-43.65 514.92,-52.97 513.44,-61.64"/>
<polygon fill="#6666ff" stroke="#6666ff" points="509.95,-61.28 511.71,-71.72 516.85,-62.46 509.95,-61.28"/>
</g>
</g>
</svg>
