<?xml version="1.0" encoding="UTF-8" standalone="no"?>
<!DOCTYPE svg PUBLIC "-//W3C//DTD SVG 1.1//EN"
 "http://www.w3.org/Graphics/SVG/1.1/DTD/svg11.dtd">
<!-- Generated by graphviz version 2.42.3 (0)
 -->
<!-- Title: perl6&#45;type&#45;graph Pages: 1 -->
<svg width="234pt" height="404pt"
 viewBox="0.00 0.00 234.09 404.00" xmlns="http://www.w3.org/2000/svg" xmlns:xlink="http://www.w3.org/1999/xlink">
<g id="graph0" class="graph" transform="scale(1 1) rotate(0) translate(4 400)">
<title>perl6&#45;type&#45;graph</title>
<polygon fill="white" stroke="transparent" points="-4,4 -4,-400 230.09,-400 230.09,4 -4,4"/>
<!-- X::Syntax::Reserved -->
<g id="node1" class="node">
<title>X::Syntax::Reserved</title>
<g id="a_node1"><a xlink:href="/type/X::Syntax::Reserved" xlink:title="X::Syntax::Reserved">
<ellipse fill="none" stroke="#000000" cx="102.69" cy="-18" rx="102.88" ry="18"/>
<text text-anchor="middle" x="102.69" y="-14.3" font-family="FreeSans" font-size="14.00" fill="#000000">X::Syntax::Reserved</text>
</a>
</g>
</g>
<!-- Exception -->
<g id="node4" class="node">
<title>Exception</title>
<g id="a_node4"><a xlink:href="/type/Exception" xlink:title="Exception">
<ellipse fill="none" stroke="#000000" cx="99.69" cy="-234" rx="55.49" ry="18"/>
<text text-anchor="middle" x="99.69" y="-230.3" font-family="FreeSans" font-size="14.00" fill="#000000">Exception</text>
</a>
</g>
</g>
<!-- X::Syntax::Reserved&#45;&gt;Exception -->
<g id="edge1" class="edge">
<title>X::Syntax::Reserved&#45;&gt;Exception</title>
<path fill="none" stroke="#000000" d="M95.61,-36.06C89.18,-51.55 80.69,-72 80.69,-72 80.69,-72 80.69,-108 80.69,-108 80.69,-108 89.96,-169.01 95.55,-205.78"/>
<polygon fill="#000000" stroke="#000000" points="92.13,-206.52 97.09,-215.88 99.05,-205.47 92.13,-206.52"/>
</g>
<!-- X::Syntax -->
<g id="node6" class="node">
<title>X::Syntax</title>
<g id="a_node6"><a xlink:href="/type/X::Syntax" xlink:title="X::Syntax">
<ellipse fill="none" stroke="#6666ff" cx="143.69" cy="-90" rx="53.89" ry="18"/>
<text text-anchor="middle" x="143.69" y="-86.3" font-family="FreeSans" font-size="14.00" fill="#6666ff">X::Syntax</text>
</a>
</g>
</g>
<!-- X::Syntax::Reserved&#45;&gt;X::Syntax -->
<g id="edge6" class="edge">
<title>X::Syntax::Reserved&#45;&gt;X::Syntax</title>
<path fill="none" stroke="#6666ff" d="M112.62,-35.95C117.45,-44.2 123.37,-54.3 128.73,-63.46"/>
<polygon fill="#6666ff" stroke="#6666ff" points="125.78,-65.35 133.86,-72.21 131.82,-61.81 125.78,-65.35"/>
</g>
<!-- Mu -->
<g id="node2" class="node">
<title>Mu</title>
<g id="a_node2"><a xlink:href="/type/Mu" xlink:title="Mu">
<ellipse fill="none" stroke="#000000" cx="99.69" cy="-378" rx="27" ry="18"/>
<text text-anchor="middle" x="99.69" y="-374.3" font-family="FreeSans" font-size="14.00" fill="#000000">Mu</text>
</a>
</g>
</g>
<!-- Any -->
<g id="node3" class="node">
<title>Any</title>
<g id="a_node3"><a xlink:href="/type/Any" xlink:title="Any">
<ellipse fill="none" stroke="#000000" cx="99.69" cy="-306" rx="28.7" ry="18"/>
<text text-anchor="middle" x="99.69" y="-302.3" font-family="FreeSans" font-size="14.00" fill="#000000">Any</text>
</a>
</g>
</g>
<!-- Any&#45;&gt;Mu -->
<g id="edge2" class="edge">
<title>Any&#45;&gt;Mu</title>
<path fill="none" stroke="#000000" d="M99.69,-324.3C99.69,-332.02 99.69,-341.29 99.69,-349.89"/>
<polygon fill="#000000" stroke="#000000" points="96.19,-349.9 99.69,-359.9 103.19,-349.9 96.19,-349.9"/>
</g>
<!-- Exception&#45;&gt;Any -->
<g id="edge3" class="edge">
<title>Exception&#45;&gt;Any</title>
<path fill="none" stroke="#000000" d="M99.69,-252.3C99.69,-260.02 99.69,-269.29 99.69,-277.89"/>
<polygon fill="#000000" stroke="#000000" points="96.19,-277.9 99.69,-287.9 103.19,-277.9 96.19,-277.9"/>
</g>
<!-- X::Comp -->
<g id="node5" class="node">
<title>X::Comp</title>
<g id="a_node5"><a xlink:href="/type/X::Comp" xlink:title="X::Comp">
<ellipse fill="none" stroke="#6666ff" cx="176.69" cy="-162" rx="49.29" ry="18"/>
<text text-anchor="middle" x="176.69" y="-158.3" font-family="FreeSans" font-size="14.00" fill="#6666ff">X::Comp</text>
</a>
</g>
</g>
<!-- X::Comp&#45;&gt;Exception -->
<g id="edge4" class="edge">
<title>X::Comp&#45;&gt;Exception</title>
<path fill="none" stroke="#000000" d="M159.22,-178.88C149.05,-188.13 136.06,-199.93 124.81,-210.16"/>
<polygon fill="#000000" stroke="#000000" points="122.41,-207.62 117.36,-216.94 127.11,-212.8 122.41,-207.62"/>
</g>
<!-- X::Syntax&#45;&gt;Exception -->
<g id="edge5" class="edge">
<title>X::Syntax&#45;&gt;Exception</title>
<path fill="none" stroke="#000000" d="M135.64,-108.06C128.33,-123.55 118.69,-144 118.69,-144 118.69,-144 111.04,-179.83 105.45,-206.03"/>
<polygon fill="#000000" stroke="#000000" points="102.02,-205.33 103.35,-215.84 108.87,-206.79 102.02,-205.33"/>
</g>
<!-- X::Syntax&#45;&gt;X::Comp -->
<g id="edge7" class="edge">
<title>X::Syntax&#45;&gt;X::Comp</title>
<path fill="none" stroke="#6666ff" d="M151.68,-107.95C155.49,-116.03 160.13,-125.88 164.38,-134.89"/>
<polygon fill="#6666ff" stroke="#6666ff" points="161.35,-136.66 168.78,-144.21 167.68,-133.67 161.35,-136.66"/>
</g>
</g>
</svg>
