<?xml version="1.0" encoding="UTF-8" standalone="no"?>
<!DOCTYPE svg PUBLIC "-//W3C//DTD SVG 1.1//EN"
 "http://www.w3.org/Graphics/SVG/1.1/DTD/svg11.dtd">
<!-- Generated by graphviz version 2.42.3 (0)
 -->
<!-- Title: perl6&#45;type&#45;graph Pages: 1 -->
<svg width="321pt" height="404pt"
 viewBox="0.00 0.00 321.13 404.00" xmlns="http://www.w3.org/2000/svg" xmlns:xlink="http://www.w3.org/1999/xlink">
<g id="graph0" class="graph" transform="scale(1 1) rotate(0) translate(4 400)">
<title>perl6&#45;type&#45;graph</title>
<polygon fill="white" stroke="transparent" points="-4,4 -4,-400 317.13,-400 317.13,4 -4,4"/>
<!-- X::Syntax::Regex::NullRegex -->
<g id="node1" class="node">
<title>X::Syntax::Regex::NullRegex</title>
<g id="a_node1"><a xlink:href="/type/X::Syntax::Regex::NullRegex" xlink:title="X::Syntax::Regex::NullRegex">
<ellipse fill="none" stroke="#000000" cx="139.74" cy="-18" rx="139.98" ry="18"/>
<text text-anchor="middle" x="139.74" y="-14.3" font-family="FreeSans" font-size="14.00" fill="#000000">X::Syntax::Regex::NullRegex</text>
</a>
</g>
</g>
<!-- Exception -->
<g id="node4" class="node">
<title>Exception</title>
<g id="a_node4"><a xlink:href="/type/Exception" xlink:title="Exception">
<ellipse fill="none" stroke="#000000" cx="162.74" cy="-234" rx="55.49" ry="18"/>
<text text-anchor="middle" x="162.74" y="-230.3" font-family="FreeSans" font-size="14.00" fill="#000000">Exception</text>
</a>
</g>
</g>
<!-- X::Syntax::Regex::NullRegex&#45;&gt;Exception -->
<g id="edge1" class="edge">
<title>X::Syntax::Regex::NullRegex&#45;&gt;Exception</title>
<path fill="none" stroke="#000000" d="M137.7,-36.15C138.15,-73.34 147.38,-161.63 155.21,-206.23"/>
<polygon fill="#000000" stroke="#000000" points="151.77,-206.88 157.06,-216.06 158.65,-205.59 151.77,-206.88"/>
</g>
<!-- X::Syntax::Regex::NullRegex&#45;&gt;Exception -->
<g id="edge2" class="edge">
<title>X::Syntax::Regex::NullRegex&#45;&gt;Exception</title>
<path fill="none" stroke="#000000" d="M145.46,-36.15C152.97,-73.17 162.66,-160.82 164.49,-205.61"/>
<polygon fill="#000000" stroke="#000000" points="160.99,-205.87 164.77,-215.77 167.99,-205.67 160.99,-205.87"/>
</g>
<!-- X::Syntax -->
<g id="node6" class="node">
<title>X::Syntax</title>
<g id="a_node6"><a xlink:href="/type/X::Syntax" xlink:title="X::Syntax">
<ellipse fill="none" stroke="#6666ff" cx="230.74" cy="-90" rx="53.89" ry="18"/>
<text text-anchor="middle" x="230.74" y="-86.3" font-family="FreeSans" font-size="14.00" fill="#6666ff">X::Syntax</text>
</a>
</g>
</g>
<!-- X::Syntax::Regex::NullRegex&#45;&gt;X::Syntax -->
<g id="edge7" class="edge">
<title>X::Syntax::Regex::NullRegex&#45;&gt;X::Syntax</title>
<path fill="none" stroke="#6666ff" d="M161.77,-35.95C173.85,-45.24 188.97,-56.87 201.97,-66.87"/>
<polygon fill="#6666ff" stroke="#6666ff" points="200.1,-69.85 210.16,-73.17 204.37,-64.3 200.1,-69.85"/>
</g>
<!-- Mu -->
<g id="node2" class="node">
<title>Mu</title>
<g id="a_node2"><a xlink:href="/type/Mu" xlink:title="Mu">
<ellipse fill="none" stroke="#000000" cx="162.74" cy="-378" rx="27" ry="18"/>
<text text-anchor="middle" x="162.74" y="-374.3" font-family="FreeSans" font-size="14.00" fill="#000000">Mu</text>
</a>
</g>
</g>
<!-- Any -->
<g id="node3" class="node">
<title>Any</title>
<g id="a_node3"><a xlink:href="/type/Any" xlink:title="Any">
<ellipse fill="none" stroke="#000000" cx="162.74" cy="-306" rx="28.7" ry="18"/>
<text text-anchor="middle" x="162.74" y="-302.3" font-family="FreeSans" font-size="14.00" fill="#000000">Any</text>
</a>
</g>
</g>
<!-- Any&#45;&gt;Mu -->
<g id="edge3" class="edge">
<title>Any&#45;&gt;Mu</title>
<path fill="none" stroke="#000000" d="M162.74,-324.3C162.74,-332.02 162.74,-341.29 162.74,-349.89"/>
<polygon fill="#000000" stroke="#000000" points="159.24,-349.9 162.74,-359.9 166.24,-349.9 159.24,-349.9"/>
</g>
<!-- Exception&#45;&gt;Any -->
<g id="edge4" class="edge">
<title>Exception&#45;&gt;Any</title>
<path fill="none" stroke="#000000" d="M162.74,-252.3C162.74,-260.02 162.74,-269.29 162.74,-277.89"/>
<polygon fill="#000000" stroke="#000000" points="159.24,-277.9 162.74,-287.9 166.24,-277.9 159.24,-277.9"/>
</g>
<!-- X::Comp -->
<g id="node5" class="node">
<title>X::Comp</title>
<g id="a_node5"><a xlink:href="/type/X::Comp" xlink:title="X::Comp">
<ellipse fill="none" stroke="#6666ff" cx="263.74" cy="-162" rx="49.29" ry="18"/>
<text text-anchor="middle" x="263.74" y="-158.3" font-family="FreeSans" font-size="14.00" fill="#6666ff">X::Comp</text>
</a>
</g>
</g>
<!-- X::Comp&#45;&gt;Exception -->
<g id="edge5" class="edge">
<title>X::Comp&#45;&gt;Exception</title>
<path fill="none" stroke="#000000" d="M241.82,-178.19C227.72,-187.96 209.19,-200.8 193.61,-211.6"/>
<polygon fill="#000000" stroke="#000000" points="191.53,-208.78 185.31,-217.36 195.52,-214.54 191.53,-208.78"/>
</g>
<!-- X::Syntax&#45;&gt;Exception -->
<g id="edge6" class="edge">
<title>X::Syntax&#45;&gt;Exception</title>
<path fill="none" stroke="#000000" d="M222.67,-107.85C210.91,-132.4 188.97,-178.23 175.14,-207.09"/>
<polygon fill="#000000" stroke="#000000" points="171.96,-205.64 170.79,-216.18 178.27,-208.67 171.96,-205.64"/>
</g>
<!-- X::Syntax&#45;&gt;X::Comp -->
<g id="edge8" class="edge">
<title>X::Syntax&#45;&gt;X::Comp</title>
<path fill="none" stroke="#6666ff" d="M238.73,-107.95C242.54,-116.03 247.18,-125.88 251.43,-134.89"/>
<polygon fill="#6666ff" stroke="#6666ff" points="248.39,-136.66 255.82,-144.21 254.72,-133.67 248.39,-136.66"/>
</g>
</g>
</svg>
