<?xml version="1.0" encoding="UTF-8" standalone="no"?>
<!DOCTYPE svg PUBLIC "-//W3C//DTD SVG 1.1//EN"
 "http://www.w3.org/Graphics/SVG/1.1/DTD/svg11.dtd">
<!-- Generated by graphviz version 2.42.3 (0)
 -->
<!-- Title: perl6&#45;type&#45;graph Pages: 1 -->
<svg width="296pt" height="404pt"
 viewBox="0.00 0.00 295.79 404.00" xmlns="http://www.w3.org/2000/svg" xmlns:xlink="http://www.w3.org/1999/xlink">
<g id="graph0" class="graph" transform="scale(1 1) rotate(0) translate(4 400)">
<title>perl6&#45;type&#45;graph</title>
<polygon fill="white" stroke="transparent" points="-4,4 -4,-400 291.79,-400 291.79,4 -4,4"/>
<!-- X::Syntax::CannotMeta -->
<g id="node1" class="node">
<title>X::Syntax::CannotMeta</title>
<g id="a_node1"><a xlink:href="/type/X::Syntax::CannotMeta" xlink:title="X::Syntax::CannotMeta">
<ellipse fill="none" stroke="#000000" cx="114.39" cy="-18" rx="114.28" ry="18"/>
<text text-anchor="middle" x="114.39" y="-14.3" font-family="FreeSans" font-size="14.00" fill="#000000">X::Syntax::CannotMeta</text>
</a>
</g>
</g>
<!-- Exception -->
<g id="node4" class="node">
<title>Exception</title>
<g id="a_node4"><a xlink:href="/type/Exception" xlink:title="Exception">
<ellipse fill="none" stroke="#000000" cx="137.39" cy="-234" rx="55.49" ry="18"/>
<text text-anchor="middle" x="137.39" y="-230.3" font-family="FreeSans" font-size="14.00" fill="#000000">Exception</text>
</a>
</g>
</g>
<!-- X::Syntax::CannotMeta&#45;&gt;Exception -->
<g id="edge1" class="edge">
<title>X::Syntax::CannotMeta&#45;&gt;Exception</title>
<path fill="none" stroke="#000000" d="M112.36,-36.15C112.8,-73.34 122.03,-161.63 129.86,-206.23"/>
<polygon fill="#000000" stroke="#000000" points="126.42,-206.88 131.71,-216.06 133.3,-205.59 126.42,-206.88"/>
</g>
<!-- X::Syntax::CannotMeta&#45;&gt;Exception -->
<g id="edge2" class="edge">
<title>X::Syntax::CannotMeta&#45;&gt;Exception</title>
<path fill="none" stroke="#000000" d="M120.11,-36.15C127.63,-73.17 137.32,-160.82 139.14,-205.61"/>
<polygon fill="#000000" stroke="#000000" points="135.64,-205.87 139.42,-215.77 142.64,-205.67 135.64,-205.87"/>
</g>
<!-- X::Syntax -->
<g id="node6" class="node">
<title>X::Syntax</title>
<g id="a_node6"><a xlink:href="/type/X::Syntax" xlink:title="X::Syntax">
<ellipse fill="none" stroke="#6666ff" cx="205.39" cy="-90" rx="53.89" ry="18"/>
<text text-anchor="middle" x="205.39" y="-86.3" font-family="FreeSans" font-size="14.00" fill="#6666ff">X::Syntax</text>
</a>
</g>
</g>
<!-- X::Syntax::CannotMeta&#45;&gt;X::Syntax -->
<g id="edge7" class="edge">
<title>X::Syntax::CannotMeta&#45;&gt;X::Syntax</title>
<path fill="none" stroke="#6666ff" d="M136.42,-35.95C148.5,-45.24 163.62,-56.87 176.63,-66.87"/>
<polygon fill="#6666ff" stroke="#6666ff" points="174.75,-69.85 184.81,-73.17 179.02,-64.3 174.75,-69.85"/>
</g>
<!-- Mu -->
<g id="node2" class="node">
<title>Mu</title>
<g id="a_node2"><a xlink:href="/type/Mu" xlink:title="Mu">
<ellipse fill="none" stroke="#000000" cx="137.39" cy="-378" rx="27" ry="18"/>
<text text-anchor="middle" x="137.39" y="-374.3" font-family="FreeSans" font-size="14.00" fill="#000000">Mu</text>
</a>
</g>
</g>
<!-- Any -->
<g id="node3" class="node">
<title>Any</title>
<g id="a_node3"><a xlink:href="/type/Any" xlink:title="Any">
<ellipse fill="none" stroke="#000000" cx="137.39" cy="-306" rx="28.7" ry="18"/>
<text text-anchor="middle" x="137.39" y="-302.3" font-family="FreeSans" font-size="14.00" fill="#000000">Any</text>
</a>
</g>
</g>
<!-- Any&#45;&gt;Mu -->
<g id="edge3" class="edge">
<title>Any&#45;&gt;Mu</title>
<path fill="none" stroke="#000000" d="M137.39,-324.3C137.39,-332.02 137.39,-341.29 137.39,-349.89"/>
<polygon fill="#000000" stroke="#000000" points="133.89,-349.9 137.39,-359.9 140.89,-349.9 133.89,-349.9"/>
</g>
<!-- Exception&#45;&gt;Any -->
<g id="edge4" class="edge">
<title>Exception&#45;&gt;Any</title>
<path fill="none" stroke="#000000" d="M137.39,-252.3C137.39,-260.02 137.39,-269.29 137.39,-277.89"/>
<polygon fill="#000000" stroke="#000000" points="133.89,-277.9 137.39,-287.9 140.89,-277.9 133.89,-277.9"/>
</g>
<!-- X::Comp -->
<g id="node5" class="node">
<title>X::Comp</title>
<g id="a_node5"><a xlink:href="/type/X::Comp" xlink:title="X::Comp">
<ellipse fill="none" stroke="#6666ff" cx="238.39" cy="-162" rx="49.29" ry="18"/>
<text text-anchor="middle" x="238.39" y="-158.3" font-family="FreeSans" font-size="14.00" fill="#6666ff">X::Comp</text>
</a>
</g>
</g>
<!-- X::Comp&#45;&gt;Exception -->
<g id="edge5" class="edge">
<title>X::Comp&#45;&gt;Exception</title>
<path fill="none" stroke="#000000" d="M216.47,-178.19C202.38,-187.96 183.85,-200.8 168.27,-211.6"/>
<polygon fill="#000000" stroke="#000000" points="166.19,-208.78 159.96,-217.36 170.17,-214.54 166.19,-208.78"/>
</g>
<!-- X::Syntax&#45;&gt;Exception -->
<g id="edge6" class="edge">
<title>X::Syntax&#45;&gt;Exception</title>
<path fill="none" stroke="#000000" d="M197.32,-107.85C185.56,-132.4 163.62,-178.23 149.8,-207.09"/>
<polygon fill="#000000" stroke="#000000" points="146.61,-205.64 145.45,-216.18 152.92,-208.67 146.61,-205.64"/>
</g>
<!-- X::Syntax&#45;&gt;X::Comp -->
<g id="edge8" class="edge">
<title>X::Syntax&#45;&gt;X::Comp</title>
<path fill="none" stroke="#6666ff" d="M213.38,-107.95C217.19,-116.03 221.83,-125.88 226.08,-134.89"/>
<polygon fill="#6666ff" stroke="#6666ff" points="223.04,-136.66 230.48,-144.21 229.38,-133.67 223.04,-136.66"/>
</g>
</g>
</svg>
