<?xml version="1.0" encoding="UTF-8" standalone="no"?>
<!DOCTYPE svg PUBLIC "-//W3C//DTD SVG 1.1//EN"
 "http://www.w3.org/Graphics/SVG/1.1/DTD/svg11.dtd">
<!-- Generated by graphviz version 2.42.3 (0)
 -->
<!-- Title: perl6&#45;type&#45;graph Pages: 1 -->
<svg width="159pt" height="332pt"
 viewBox="0.00 0.00 159.44 332.00" xmlns="http://www.w3.org/2000/svg" xmlns:xlink="http://www.w3.org/1999/xlink">
<g id="graph0" class="graph" transform="scale(1 1) rotate(0) translate(4 328)">
<title>perl6&#45;type&#45;graph</title>
<polygon fill="white" stroke="transparent" points="-4,4 -4,-328 155.44,-328 155.44,4 -4,4"/>
<!-- X::Obsolete -->
<g id="node1" class="node">
<title>X::Obsolete</title>
<g id="a_node1"><a xlink:href="/type/X::Obsolete" xlink:title="X::Obsolete">
<ellipse fill="none" stroke="#000000" cx="63.04" cy="-18" rx="63.09" ry="18"/>
<text text-anchor="middle" x="63.04" y="-14.3" font-family="FreeSans" font-size="14.00" fill="#000000">X::Obsolete</text>
</a>
</g>
</g>
<!-- Exception -->
<g id="node4" class="node">
<title>Exception</title>
<g id="a_node4"><a xlink:href="/type/Exception" xlink:title="Exception">
<ellipse fill="none" stroke="#000000" cx="63.04" cy="-162" rx="55.49" ry="18"/>
<text text-anchor="middle" x="63.04" y="-158.3" font-family="FreeSans" font-size="14.00" fill="#000000">Exception</text>
</a>
</g>
</g>
<!-- X::Obsolete&#45;&gt;Exception -->
<g id="edge1" class="edge">
<title>X::Obsolete&#45;&gt;Exception</title>
<path fill="none" stroke="#000000" d="M56.93,-36.06C51.37,-51.55 44.04,-72 44.04,-72 44.04,-72 44.04,-108 44.04,-108 44.04,-108 48.79,-121.24 53.54,-134.48"/>
<polygon fill="#000000" stroke="#000000" points="50.26,-135.71 56.93,-143.94 56.85,-133.34 50.26,-135.71"/>
</g>
<!-- X::Comp -->
<g id="node5" class="node">
<title>X::Comp</title>
<g id="a_node5"><a xlink:href="/type/X::Comp" xlink:title="X::Comp">
<ellipse fill="none" stroke="#6666ff" cx="102.04" cy="-90" rx="49.29" ry="18"/>
<text text-anchor="middle" x="102.04" y="-86.3" font-family="FreeSans" font-size="14.00" fill="#6666ff">X::Comp</text>
</a>
</g>
</g>
<!-- X::Obsolete&#45;&gt;X::Comp -->
<g id="edge5" class="edge">
<title>X::Obsolete&#45;&gt;X::Comp</title>
<path fill="none" stroke="#6666ff" d="M72.49,-35.95C77.08,-44.2 82.71,-54.3 87.82,-63.46"/>
<polygon fill="#6666ff" stroke="#6666ff" points="84.77,-65.18 92.69,-72.21 90.88,-61.77 84.77,-65.18"/>
</g>
<!-- Mu -->
<g id="node2" class="node">
<title>Mu</title>
<g id="a_node2"><a xlink:href="/type/Mu" xlink:title="Mu">
<ellipse fill="none" stroke="#000000" cx="63.04" cy="-306" rx="27" ry="18"/>
<text text-anchor="middle" x="63.04" y="-302.3" font-family="FreeSans" font-size="14.00" fill="#000000">Mu</text>
</a>
</g>
</g>
<!-- Any -->
<g id="node3" class="node">
<title>Any</title>
<g id="a_node3"><a xlink:href="/type/Any" xlink:title="Any">
<ellipse fill="none" stroke="#000000" cx="63.04" cy="-234" rx="28.7" ry="18"/>
<text text-anchor="middle" x="63.04" y="-230.3" font-family="FreeSans" font-size="14.00" fill="#000000">Any</text>
</a>
</g>
</g>
<!-- Any&#45;&gt;Mu -->
<g id="edge2" class="edge">
<title>Any&#45;&gt;Mu</title>
<path fill="none" stroke="#000000" d="M63.04,-252.3C63.04,-260.02 63.04,-269.29 63.04,-277.89"/>
<polygon fill="#000000" stroke="#000000" points="59.54,-277.9 63.04,-287.9 66.54,-277.9 59.54,-277.9"/>
</g>
<!-- Exception&#45;&gt;Any -->
<g id="edge3" class="edge">
<title>Exception&#45;&gt;Any</title>
<path fill="none" stroke="#000000" d="M63.04,-180.3C63.04,-188.02 63.04,-197.29 63.04,-205.89"/>
<polygon fill="#000000" stroke="#000000" points="59.54,-205.9 63.04,-215.9 66.54,-205.9 59.54,-205.9"/>
</g>
<!-- X::Comp&#45;&gt;Exception -->
<g id="edge4" class="edge">
<title>X::Comp&#45;&gt;Exception</title>
<path fill="none" stroke="#000000" d="M92.6,-107.95C88,-116.2 82.38,-126.3 77.27,-135.46"/>
<polygon fill="#000000" stroke="#000000" points="74.21,-133.77 72.4,-144.21 80.32,-137.18 74.21,-133.77"/>
</g>
</g>
</svg>
