<?xml version="1.0" encoding="UTF-8" standalone="no"?>
<!DOCTYPE svg PUBLIC "-//W3C//DTD SVG 1.1//EN"
 "http://www.w3.org/Graphics/SVG/1.1/DTD/svg11.dtd">
<!-- Generated by graphviz version 2.42.3 (0)
 -->
<!-- Title: perl6&#45;type&#45;graph Pages: 1 -->
<svg width="355pt" height="404pt"
 viewBox="0.00 0.00 355.07 404.00" xmlns="http://www.w3.org/2000/svg" xmlns:xlink="http://www.w3.org/1999/xlink">
<g id="graph0" class="graph" transform="scale(1 1) rotate(0) translate(4 400)">
<title>perl6&#45;type&#45;graph</title>
<polygon fill="white" stroke="transparent" points="-4,4 -4,-400 351.07,-400 351.07,4 -4,4"/>
<!-- X::Syntax::Regex::SolitaryQuantifier -->
<g id="node1" class="node">
<title>X::Syntax::Regex::SolitaryQuantifier</title>
<g id="a_node1"><a xlink:href="/type/X::Syntax::Regex::SolitaryQuantifier" xlink:title="X::Syntax::Regex::SolitaryQuantifier">
<ellipse fill="none" stroke="#000000" cx="173.53" cy="-18" rx="173.57" ry="18"/>
<text text-anchor="middle" x="173.53" y="-14.3" font-family="FreeSans" font-size="14.00" fill="#000000">X::Syntax::Regex::SolitaryQuantifier</text>
</a>
</g>
</g>
<!-- Exception -->
<g id="node4" class="node">
<title>Exception</title>
<g id="a_node4"><a xlink:href="/type/Exception" xlink:title="Exception">
<ellipse fill="none" stroke="#000000" cx="170.53" cy="-234" rx="55.49" ry="18"/>
<text text-anchor="middle" x="170.53" y="-230.3" font-family="FreeSans" font-size="14.00" fill="#000000">Exception</text>
</a>
</g>
</g>
<!-- X::Syntax::Regex::SolitaryQuantifier&#45;&gt;Exception -->
<g id="edge1" class="edge">
<title>X::Syntax::Regex::SolitaryQuantifier&#45;&gt;Exception</title>
<path fill="none" stroke="#000000" d="M166.45,-36.06C160.02,-51.55 151.53,-72 151.53,-72 151.53,-72 151.53,-108 151.53,-108 151.53,-108 160.81,-169.01 166.4,-205.78"/>
<polygon fill="#000000" stroke="#000000" points="162.97,-206.52 167.93,-215.88 169.89,-205.47 162.97,-206.52"/>
</g>
<!-- X::Syntax -->
<g id="node6" class="node">
<title>X::Syntax</title>
<g id="a_node6"><a xlink:href="/type/X::Syntax" xlink:title="X::Syntax">
<ellipse fill="none" stroke="#6666ff" cx="214.53" cy="-90" rx="53.89" ry="18"/>
<text text-anchor="middle" x="214.53" y="-86.3" font-family="FreeSans" font-size="14.00" fill="#6666ff">X::Syntax</text>
</a>
</g>
</g>
<!-- X::Syntax::Regex::SolitaryQuantifier&#45;&gt;X::Syntax -->
<g id="edge6" class="edge">
<title>X::Syntax::Regex::SolitaryQuantifier&#45;&gt;X::Syntax</title>
<path fill="none" stroke="#6666ff" d="M183.67,-36.3C188.39,-44.36 194.1,-54.11 199.32,-63.02"/>
<polygon fill="#6666ff" stroke="#6666ff" points="196.44,-65.04 204.52,-71.9 202.48,-61.5 196.44,-65.04"/>
</g>
<!-- Mu -->
<g id="node2" class="node">
<title>Mu</title>
<g id="a_node2"><a xlink:href="/type/Mu" xlink:title="Mu">
<ellipse fill="none" stroke="#000000" cx="170.53" cy="-378" rx="27" ry="18"/>
<text text-anchor="middle" x="170.53" y="-374.3" font-family="FreeSans" font-size="14.00" fill="#000000">Mu</text>
</a>
</g>
</g>
<!-- Any -->
<g id="node3" class="node">
<title>Any</title>
<g id="a_node3"><a xlink:href="/type/Any" xlink:title="Any">
<ellipse fill="none" stroke="#000000" cx="170.53" cy="-306" rx="28.7" ry="18"/>
<text text-anchor="middle" x="170.53" y="-302.3" font-family="FreeSans" font-size="14.00" fill="#000000">Any</text>
</a>
</g>
</g>
<!-- Any&#45;&gt;Mu -->
<g id="edge2" class="edge">
<title>Any&#45;&gt;Mu</title>
<path fill="none" stroke="#000000" d="M170.53,-324.3C170.53,-332.02 170.53,-341.29 170.53,-349.89"/>
<polygon fill="#000000" stroke="#000000" points="167.03,-349.9 170.53,-359.9 174.03,-349.9 167.03,-349.9"/>
</g>
<!-- Exception&#45;&gt;Any -->
<g id="edge3" class="edge">
<title>Exception&#45;&gt;Any</title>
<path fill="none" stroke="#000000" d="M170.53,-252.3C170.53,-260.02 170.53,-269.29 170.53,-277.89"/>
<polygon fill="#000000" stroke="#000000" points="167.03,-277.9 170.53,-287.9 174.03,-277.9 167.03,-277.9"/>
</g>
<!-- X::Comp -->
<g id="node5" class="node">
<title>X::Comp</title>
<g id="a_node5"><a xlink:href="/type/X::Comp" xlink:title="X::Comp">
<ellipse fill="none" stroke="#6666ff" cx="247.53" cy="-162" rx="49.29" ry="18"/>
<text text-anchor="middle" x="247.53" y="-158.3" font-family="FreeSans" font-size="14.00" fill="#6666ff">X::Comp</text>
</a>
</g>
</g>
<!-- X::Comp&#45;&gt;Exception -->
<g id="edge4" class="edge">
<title>X::Comp&#45;&gt;Exception</title>
<path fill="none" stroke="#000000" d="M230.06,-178.88C219.9,-188.13 206.91,-199.93 195.66,-210.16"/>
<polygon fill="#000000" stroke="#000000" points="193.25,-207.62 188.2,-216.94 197.96,-212.8 193.25,-207.62"/>
</g>
<!-- X::Syntax&#45;&gt;Exception -->
<g id="edge5" class="edge">
<title>X::Syntax&#45;&gt;Exception</title>
<path fill="none" stroke="#000000" d="M206.49,-108.06C199.18,-123.55 189.53,-144 189.53,-144 189.53,-144 181.88,-179.83 176.29,-206.03"/>
<polygon fill="#000000" stroke="#000000" points="172.86,-205.33 174.2,-215.84 179.71,-206.79 172.86,-205.33"/>
</g>
<!-- X::Syntax&#45;&gt;X::Comp -->
<g id="edge7" class="edge">
<title>X::Syntax&#45;&gt;X::Comp</title>
<path fill="none" stroke="#6666ff" d="M222.52,-107.95C226.33,-116.03 230.98,-125.88 235.22,-134.89"/>
<polygon fill="#6666ff" stroke="#6666ff" points="232.19,-136.66 239.62,-144.21 238.52,-133.67 232.19,-136.66"/>
</g>
</g>
</svg>
