<?xml version="1.0" encoding="UTF-8" standalone="no"?>
<!DOCTYPE svg PUBLIC "-//W3C//DTD SVG 1.1//EN"
 "http://www.w3.org/Graphics/SVG/1.1/DTD/svg11.dtd">
<!-- Generated by graphviz version 2.42.3 (0)
 -->
<!-- Title: perl6&#45;type&#45;graph Pages: 1 -->
<svg width="1976pt" height="404pt"
 viewBox="0.00 0.00 1976.24 404.00" xmlns="http://www.w3.org/2000/svg" xmlns:xlink="http://www.w3.org/1999/xlink">
<g id="graph0" class="graph" transform="scale(1 1) rotate(0) translate(4 400)">
<title>perl6&#45;type&#45;graph</title>
<polygon fill="white" stroke="transparent" points="-4,4 -4,-400 1972.24,-400 1972.24,4 -4,4"/>
<!-- X::IO -->
<g id="node1" class="node">
<title>X::IO</title>
<g id="a_node1"><a xlink:href="/type/X::IO" xlink:title="X::IO">
<ellipse fill="none" stroke="#6666ff" cx="941.49" cy="-90" rx="33.29" ry="18"/>
<text text-anchor="middle" x="941.49" y="-86.3" font-family="FreeSans" font-size="14.00" fill="#6666ff">X::IO</text>
</a>
</g>
</g>
<!-- Exception -->
<g id="node4" class="node">
<title>Exception</title>
<g id="a_node4"><a xlink:href="/type/Exception" xlink:title="Exception">
<ellipse fill="none" stroke="#000000" cx="1020.49" cy="-234" rx="55.49" ry="18"/>
<text text-anchor="middle" x="1020.49" y="-230.3" font-family="FreeSans" font-size="14.00" fill="#000000">Exception</text>
</a>
</g>
</g>
<!-- X::IO&#45;&gt;Exception -->
<g id="edge1" class="edge">
<title>X::IO&#45;&gt;Exception</title>
<path fill="none" stroke="#000000" d="M950.33,-107.74C963.95,-133.52 988.49,-180 988.49,-180 988.49,-180 996.91,-193.93 1005.1,-207.51"/>
<polygon fill="#000000" stroke="#000000" points="1002.2,-209.48 1010.37,-216.23 1008.2,-205.86 1002.2,-209.48"/>
</g>
<!-- X::OS -->
<g id="node5" class="node">
<title>X::OS</title>
<g id="a_node5"><a xlink:href="/type/X::OS" xlink:title="X::OS">
<ellipse fill="none" stroke="#6666ff" cx="900.49" cy="-162" rx="36.29" ry="18"/>
<text text-anchor="middle" x="900.49" y="-158.3" font-family="FreeSans" font-size="14.00" fill="#6666ff">X::OS</text>
</a>
</g>
</g>
<!-- X::IO&#45;&gt;X::OS -->
<g id="edge42" class="edge">
<title>X::IO&#45;&gt;X::OS</title>
<path fill="none" stroke="#6666ff" d="M931.78,-107.59C926.88,-115.96 920.82,-126.29 915.35,-135.63"/>
<polygon fill="#6666ff" stroke="#6666ff" points="912.17,-134.13 910.14,-144.53 918.21,-137.67 912.17,-134.13"/>
</g>
<!-- Mu -->
<g id="node2" class="node">
<title>Mu</title>
<g id="a_node2"><a xlink:href="/type/Mu" xlink:title="Mu">
<ellipse fill="none" stroke="#000000" cx="1020.49" cy="-378" rx="27" ry="18"/>
<text text-anchor="middle" x="1020.49" y="-374.3" font-family="FreeSans" font-size="14.00" fill="#000000">Mu</text>
</a>
</g>
</g>
<!-- Any -->
<g id="node3" class="node">
<title>Any</title>
<g id="a_node3"><a xlink:href="/type/Any" xlink:title="Any">
<ellipse fill="none" stroke="#000000" cx="1020.49" cy="-306" rx="28.7" ry="18"/>
<text text-anchor="middle" x="1020.49" y="-302.3" font-family="FreeSans" font-size="14.00" fill="#000000">Any</text>
</a>
</g>
</g>
<!-- Any&#45;&gt;Mu -->
<g id="edge2" class="edge">
<title>Any&#45;&gt;Mu</title>
<path fill="none" stroke="#000000" d="M1020.49,-324.3C1020.49,-332.02 1020.49,-341.29 1020.49,-349.89"/>
<polygon fill="#000000" stroke="#000000" points="1016.99,-349.9 1020.49,-359.9 1023.99,-349.9 1016.99,-349.9"/>
</g>
<!-- Exception&#45;&gt;Any -->
<g id="edge3" class="edge">
<title>Exception&#45;&gt;Any</title>
<path fill="none" stroke="#000000" d="M1020.49,-252.3C1020.49,-260.02 1020.49,-269.29 1020.49,-277.89"/>
<polygon fill="#000000" stroke="#000000" points="1016.99,-277.9 1020.49,-287.9 1023.99,-277.9 1016.99,-277.9"/>
</g>
<!-- X::OS&#45;&gt;Exception -->
<g id="edge4" class="edge">
<title>X::OS&#45;&gt;Exception</title>
<path fill="none" stroke="#000000" d="M923.06,-176.17C940.73,-186.47 965.6,-200.98 985.79,-212.75"/>
<polygon fill="#000000" stroke="#000000" points="984.29,-215.93 994.69,-217.95 987.82,-209.89 984.29,-215.93"/>
</g>
<!-- X::IO::Chmod -->
<g id="node6" class="node">
<title>X::IO::Chmod</title>
<g id="a_node6"><a xlink:href="/type/X::IO::Chmod" xlink:title="X::IO::Chmod">
<ellipse fill="none" stroke="#000000" cx="71.49" cy="-18" rx="71.49" ry="18"/>
<text text-anchor="middle" x="71.49" y="-14.3" font-family="FreeSans" font-size="14.00" fill="#000000">X::IO::Chmod</text>
</a>
</g>
</g>
<!-- X::IO::Chmod&#45;&gt;X::IO -->
<g id="edge43" class="edge">
<title>X::IO::Chmod&#45;&gt;X::IO</title>
<path fill="none" stroke="#6666ff" d="M124.62,-30.15C139.89,-33.35 152.49,-36 152.49,-36 152.49,-36 733.48,-75.03 898.35,-86.1"/>
<polygon fill="#6666ff" stroke="#6666ff" points="898.38,-89.61 908.6,-86.79 898.85,-82.63 898.38,-89.61"/>
</g>
<!-- X::IO::Chmod&#45;&gt;Exception -->
<g id="edge5" class="edge">
<title>X::IO::Chmod&#45;&gt;Exception</title>
<path fill="none" stroke="#000000" d="M110.46,-33.15C225.12,-72.43 552.49,-180 552.49,-180 552.49,-180 831.51,-212.22 958.73,-226.41"/>
<polygon fill="#000000" stroke="#000000" points="958.4,-229.9 968.72,-227.53 959.17,-222.94 958.4,-229.9"/>
</g>
<!-- X::IO::Chmod&#45;&gt;Exception -->
<g id="edge6" class="edge">
<title>X::IO::Chmod&#45;&gt;Exception</title>
<path fill="none" stroke="#000000" d="M115.99,-32.31C238.41,-70.89 570.49,-180 570.49,-180 570.49,-180 836.86,-210.76 959.79,-225.41"/>
<polygon fill="#000000" stroke="#000000" points="959.46,-228.9 969.8,-226.61 960.29,-221.95 959.46,-228.9"/>
</g>
<!-- X::IO::Rmdir -->
<g id="node7" class="node">
<title>X::IO::Rmdir</title>
<g id="a_node7"><a xlink:href="/type/X::IO::Rmdir" xlink:title="X::IO::Rmdir">
<ellipse fill="none" stroke="#000000" cx="227.49" cy="-18" rx="66.09" ry="18"/>
<text text-anchor="middle" x="227.49" y="-14.3" font-family="FreeSans" font-size="14.00" fill="#000000">X::IO::Rmdir</text>
</a>
</g>
</g>
<!-- X::IO::Rmdir&#45;&gt;X::IO -->
<g id="edge44" class="edge">
<title>X::IO::Rmdir&#45;&gt;X::IO</title>
<path fill="none" stroke="#6666ff" d="M276.68,-30.15C290.82,-33.35 302.49,-36 302.49,-36 302.49,-36 755.74,-73.59 898.78,-85.46"/>
<polygon fill="#6666ff" stroke="#6666ff" points="898.67,-88.96 908.93,-86.3 899.25,-81.98 898.67,-88.96"/>
</g>
<!-- X::IO::Rmdir&#45;&gt;Exception -->
<g id="edge7" class="edge">
<title>X::IO::Rmdir&#45;&gt;Exception</title>
<path fill="none" stroke="#000000" d="M262,-33.43C362.91,-72.95 649.49,-180 649.49,-180 649.49,-180 854.88,-210.07 960.09,-224.91"/>
<polygon fill="#000000" stroke="#000000" points="959.87,-228.41 970.26,-226.34 960.84,-221.48 959.87,-228.41"/>
</g>
<!-- X::IO::Rmdir&#45;&gt;Exception -->
<g id="edge8" class="edge">
<title>X::IO::Rmdir&#45;&gt;Exception</title>
<path fill="none" stroke="#000000" d="M267.5,-32.45C376.09,-71.14 667.49,-180 667.49,-180 667.49,-180 861.81,-208.45 962.17,-223.66"/>
<polygon fill="#000000" stroke="#000000" points="961.75,-227.14 972.16,-225.18 962.8,-220.22 961.75,-227.14"/>
</g>
<!-- X::IO::Rename -->
<g id="node8" class="node">
<title>X::IO::Rename</title>
<g id="a_node8"><a xlink:href="/type/X::IO::Rename" xlink:title="X::IO::Rename">
<ellipse fill="none" stroke="#000000" cx="387.49" cy="-18" rx="76.09" ry="18"/>
<text text-anchor="middle" x="387.49" y="-14.3" font-family="FreeSans" font-size="14.00" fill="#000000">X::IO::Rename</text>
</a>
</g>
</g>
<!-- X::IO::Rename&#45;&gt;X::IO -->
<g id="edge45" class="edge">
<title>X::IO::Rename&#45;&gt;X::IO</title>
<path fill="none" stroke="#6666ff" d="M443.72,-30.24C459.52,-33.41 472.49,-36 472.49,-36 472.49,-36 783.57,-71.15 899.03,-84.2"/>
<polygon fill="#6666ff" stroke="#6666ff" points="898.93,-87.71 909.26,-85.36 899.71,-80.76 898.93,-87.71"/>
</g>
<!-- X::IO::Rename&#45;&gt;Exception -->
<g id="edge9" class="edge">
<title>X::IO::Rename&#45;&gt;Exception</title>
<path fill="none" stroke="#000000" d="M413.71,-35.03C492.86,-75.75 719.49,-180 719.49,-180 719.49,-180 873.3,-208.8 961.35,-223.94"/>
<polygon fill="#000000" stroke="#000000" points="960.78,-227.4 971.22,-225.63 961.95,-220.5 960.78,-227.4"/>
</g>
<!-- X::IO::Rename&#45;&gt;Exception -->
<g id="edge10" class="edge">
<title>X::IO::Rename&#45;&gt;Exception</title>
<path fill="none" stroke="#000000" d="M420.74,-34.29C508.1,-74.48 737.49,-180 737.49,-180 737.49,-180 881.15,-206.9 963.76,-222.37"/>
<polygon fill="#000000" stroke="#000000" points="963.29,-225.85 973.76,-224.25 964.58,-218.97 963.29,-225.85"/>
</g>
<!-- X::IO::Rename&#45;&gt;Exception -->
<g id="edge11" class="edge">
<title>X::IO::Rename&#45;&gt;Exception</title>
<path fill="none" stroke="#000000" d="M427.1,-33.43C522.77,-72.95 755.49,-180 755.49,-180 755.49,-180 889.4,-205.08 967.13,-220.73"/>
<polygon fill="#000000" stroke="#000000" points="966.75,-224.23 977.24,-222.78 968.14,-217.37 966.75,-224.23"/>
</g>
<!-- X::IO::Dir -->
<g id="node9" class="node">
<title>X::IO::Dir</title>
<g id="a_node9"><a xlink:href="/type/X::IO::Dir" xlink:title="X::IO::Dir">
<ellipse fill="none" stroke="#000000" cx="533.49" cy="-18" rx="51.99" ry="18"/>
<text text-anchor="middle" x="533.49" y="-14.3" font-family="FreeSans" font-size="14.00" fill="#000000">X::IO::Dir</text>
</a>
</g>
</g>
<!-- X::IO::Dir&#45;&gt;X::IO -->
<g id="edge46" class="edge">
<title>X::IO::Dir&#45;&gt;X::IO</title>
<path fill="none" stroke="#6666ff" d="M572.82,-29.96C584.62,-33.25 594.49,-36 594.49,-36 594.49,-36 807.9,-68.6 900,-82.66"/>
<polygon fill="#6666ff" stroke="#6666ff" points="899.67,-86.15 910.09,-84.2 900.73,-79.23 899.67,-86.15"/>
</g>
<!-- X::IO::Dir&#45;&gt;Exception -->
<g id="edge12" class="edge">
<title>X::IO::Dir&#45;&gt;Exception</title>
<path fill="none" stroke="#000000" d="M551.25,-35.03C608.9,-75.75 780.49,-180 780.49,-180 780.49,-180 892.63,-206.77 963.97,-222.26"/>
<polygon fill="#000000" stroke="#000000" points="963.24,-225.68 973.75,-224.37 964.71,-218.84 963.24,-225.68"/>
</g>
<!-- X::IO::Dir&#45;&gt;Exception -->
<g id="edge13" class="edge">
<title>X::IO::Dir&#45;&gt;Exception</title>
<path fill="none" stroke="#000000" d="M558.42,-34.15C624.39,-74.23 798.49,-180 798.49,-180 798.49,-180 901.97,-204.7 967.63,-220.38"/>
<polygon fill="#000000" stroke="#000000" points="966.89,-223.8 977.43,-222.72 968.51,-216.99 966.89,-223.8"/>
</g>
<!-- X::IO::Dir&#45;&gt;Exception -->
<g id="edge14" class="edge">
<title>X::IO::Dir&#45;&gt;Exception</title>
<path fill="none" stroke="#000000" d="M564.15,-32.73C638.17,-71.66 816.49,-180 816.49,-180 816.49,-180 911.72,-202.73 972.38,-218.42"/>
<polygon fill="#000000" stroke="#000000" points="971.61,-221.84 982.17,-220.97 973.37,-215.07 971.61,-221.84"/>
</g>
<!-- X::IO::Cwd -->
<g id="node10" class="node">
<title>X::IO::Cwd</title>
<g id="a_node10"><a xlink:href="/type/X::IO::Cwd" xlink:title="X::IO::Cwd">
<ellipse fill="none" stroke="#000000" cx="661.49" cy="-18" rx="58.49" ry="18"/>
<text text-anchor="middle" x="661.49" y="-14.3" font-family="FreeSans" font-size="14.00" fill="#000000">X::IO::Cwd</text>
</a>
</g>
</g>
<!-- X::IO::Cwd&#45;&gt;X::IO -->
<g id="edge47" class="edge">
<title>X::IO::Cwd&#45;&gt;X::IO</title>
<path fill="none" stroke="#6666ff" d="M705.06,-30.05C717.86,-33.3 728.49,-36 728.49,-36 728.49,-36 840.53,-63.88 902.09,-79.2"/>
<polygon fill="#6666ff" stroke="#6666ff" points="901.33,-82.61 911.88,-81.63 903.02,-75.82 901.33,-82.61"/>
</g>
<!-- X::IO::Cwd&#45;&gt;Exception -->
<g id="edge15" class="edge">
<title>X::IO::Cwd&#45;&gt;Exception</title>
<path fill="none" stroke="#000000" d="M671.49,-35.93C708.27,-77.26 822.49,-180 822.49,-180 822.49,-180 906.95,-204.87 965.95,-220.54"/>
<polygon fill="#000000" stroke="#000000" points="965.35,-224 975.91,-223.16 967.13,-217.23 965.35,-224"/>
</g>
<!-- X::IO::Cwd&#45;&gt;Exception -->
<g id="edge16" class="edge">
<title>X::IO::Cwd&#45;&gt;Exception</title>
<path fill="none" stroke="#000000" d="M679.64,-35.32C725.15,-76.25 840.49,-180 840.49,-180 840.49,-180 918.05,-202.84 971.35,-218.53"/>
<polygon fill="#000000" stroke="#000000" points="970.41,-221.9 980.99,-221.37 972.39,-215.19 970.41,-221.9"/>
</g>
<!-- X::IO::Cwd&#45;&gt;Exception -->
<g id="edge17" class="edge">
<title>X::IO::Cwd&#45;&gt;Exception</title>
<path fill="none" stroke="#000000" d="M687.14,-34.44C741.46,-74.73 858.49,-180 858.49,-180 858.49,-180 929.2,-200.82 977.55,-216.36"/>
<polygon fill="#000000" stroke="#000000" points="976.6,-219.73 987.19,-219.49 978.76,-213.07 976.6,-219.73"/>
</g>
<!-- X::IO::Chdir -->
<g id="node11" class="node">
<title>X::IO::Chdir</title>
<g id="a_node11"><a xlink:href="/type/X::IO::Chdir" xlink:title="X::IO::Chdir">
<ellipse fill="none" stroke="#000000" cx="801.49" cy="-18" rx="63.89" ry="18"/>
<text text-anchor="middle" x="801.49" y="-14.3" font-family="FreeSans" font-size="14.00" fill="#000000">X::IO::Chdir</text>
</a>
</g>
</g>
<!-- X::IO::Chdir&#45;&gt;X::IO -->
<g id="edge48" class="edge">
<title>X::IO::Chdir&#45;&gt;X::IO</title>
<path fill="none" stroke="#6666ff" d="M831.53,-34.02C854.27,-45.39 885.46,-60.99 908.82,-72.67"/>
<polygon fill="#6666ff" stroke="#6666ff" points="907.48,-75.91 917.99,-77.25 910.61,-69.65 907.48,-75.91"/>
</g>
<!-- X::IO::Chdir&#45;&gt;Exception -->
<g id="edge18" class="edge">
<title>X::IO::Chdir&#45;&gt;Exception</title>
<path fill="none" stroke="#000000" d="M798.38,-36.23C803.2,-77.76 837.49,-180 837.49,-180 837.49,-180 912.63,-204.13 967.02,-219.83"/>
<polygon fill="#000000" stroke="#000000" points="966.34,-223.27 976.92,-222.66 968.26,-216.54 966.34,-223.27"/>
</g>
<!-- X::IO::Chdir&#45;&gt;Exception -->
<g id="edge19" class="edge">
<title>X::IO::Chdir&#45;&gt;Exception</title>
<path fill="none" stroke="#000000" d="M807.27,-36.23C821.2,-77.76 855.49,-180 855.49,-180 855.49,-180 924.14,-202.05 972.88,-217.71"/>
<polygon fill="#000000" stroke="#000000" points="972.05,-221.11 982.64,-220.84 974.19,-214.45 972.05,-221.11"/>
</g>
<!-- X::IO::Chdir&#45;&gt;Exception -->
<g id="edge20" class="edge">
<title>X::IO::Chdir&#45;&gt;Exception</title>
<path fill="none" stroke="#000000" d="M815.83,-35.62C838.87,-76.76 873.49,-180 873.49,-180 873.49,-180 936.01,-200.08 979.89,-215.52"/>
<polygon fill="#000000" stroke="#000000" points="978.89,-218.88 989.49,-218.94 981.24,-212.29 978.89,-218.88"/>
</g>
<!-- X::IO::Mkdir -->
<g id="node12" class="node">
<title>X::IO::Mkdir</title>
<g id="a_node12"><a xlink:href="/type/X::IO::Mkdir" xlink:title="X::IO::Mkdir">
<ellipse fill="none" stroke="#000000" cx="947.49" cy="-18" rx="64.19" ry="18"/>
<text text-anchor="middle" x="947.49" y="-14.3" font-family="FreeSans" font-size="14.00" fill="#000000">X::IO::Mkdir</text>
</a>
</g>
</g>
<!-- X::IO::Mkdir&#45;&gt;X::IO -->
<g id="edge49" class="edge">
<title>X::IO::Mkdir&#45;&gt;X::IO</title>
<path fill="none" stroke="#6666ff" d="M946.01,-36.3C945.35,-44.02 944.55,-53.29 943.82,-61.89"/>
<polygon fill="#6666ff" stroke="#6666ff" points="940.33,-61.63 942.96,-71.9 947.3,-62.23 940.33,-61.63"/>
</g>
<!-- X::IO::Mkdir&#45;&gt;Exception -->
<g id="edge21" class="edge">
<title>X::IO::Mkdir&#45;&gt;Exception</title>
<path fill="none" stroke="#000000" d="M945.4,-36.06C951.61,-51.55 965.49,-72 965.49,-72 965.49,-72 986.09,-161.61 1004.02,-207.12"/>
<polygon fill="#000000" stroke="#000000" points="1000.81,-208.52 1007.92,-216.38 1007.26,-205.8 1000.81,-208.52"/>
</g>
<!-- X::IO::Mkdir&#45;&gt;Exception -->
<g id="edge22" class="edge">
<title>X::IO::Mkdir&#45;&gt;Exception</title>
<path fill="none" stroke="#000000" d="M958.88,-35.77C969.43,-51.3 983.49,-72 983.49,-72 983.49,-72 1003.72,-159.99 1014.26,-205.88"/>
<polygon fill="#000000" stroke="#000000" points="1010.88,-206.81 1016.53,-215.77 1017.71,-205.24 1010.88,-206.81"/>
</g>
<!-- X::IO::Mkdir&#45;&gt;Exception -->
<g id="edge23" class="edge">
<title>X::IO::Mkdir&#45;&gt;Exception</title>
<path fill="none" stroke="#000000" d="M971.65,-34.9C986.9,-50.51 1001.49,-72 1001.49,-72 1001.49,-72 1021.63,-159.62 1024.97,-205.59"/>
<polygon fill="#000000" stroke="#000000" points="1021.48,-205.94 1025.43,-215.77 1028.47,-205.62 1021.48,-205.94"/>
</g>
<!-- X::IO::DoesNotExist -->
<g id="node13" class="node">
<title>X::IO::DoesNotExist</title>
<g id="a_node13"><a xlink:href="/type/X::IO::DoesNotExist" xlink:title="X::IO::DoesNotExist">
<ellipse fill="none" stroke="#000000" cx="1128.49" cy="-18" rx="98.58" ry="18"/>
<text text-anchor="middle" x="1128.49" y="-14.3" font-family="FreeSans" font-size="14.00" fill="#000000">X::IO::DoesNotExist</text>
</a>
</g>
</g>
<!-- X::IO::DoesNotExist&#45;&gt;X::IO -->
<g id="edge50" class="edge">
<title>X::IO::DoesNotExist&#45;&gt;X::IO</title>
<path fill="none" stroke="#6666ff" d="M1086.99,-34.54C1054.27,-46.78 1009.09,-63.69 977.8,-75.41"/>
<polygon fill="#6666ff" stroke="#6666ff" points="976.3,-72.23 968.16,-79.02 978.75,-78.79 976.3,-72.23"/>
</g>
<!-- X::IO::DoesNotExist&#45;&gt;Exception -->
<g id="edge24" class="edge">
<title>X::IO::DoesNotExist&#45;&gt;Exception</title>
<path fill="none" stroke="#000000" d="M1112.33,-35.79C1086.47,-72.81 1041.08,-161.7 1024.64,-206.4"/>
<polygon fill="#000000" stroke="#000000" points="1021.28,-205.4 1021.35,-215.99 1027.91,-207.67 1021.28,-205.4"/>
</g>
<!-- X::IO::DoesNotExist&#45;&gt;Exception -->
<g id="edge25" class="edge">
<title>X::IO::DoesNotExist&#45;&gt;Exception</title>
<path fill="none" stroke="#000000" d="M1119.84,-36.15C1100.95,-73.57 1055.95,-162.75 1033.58,-207.07"/>
<polygon fill="#000000" stroke="#000000" points="1030.42,-205.56 1029.04,-216.06 1036.67,-208.71 1030.42,-205.56"/>
</g>
<!-- X::IO::DoesNotExist&#45;&gt;Exception -->
<g id="edge26" class="edge">
<title>X::IO::DoesNotExist&#45;&gt;Exception</title>
<path fill="none" stroke="#000000" d="M1127.59,-36.15C1115.75,-73.92 1070.51,-164.38 1041.98,-208.28"/>
<polygon fill="#000000" stroke="#000000" points="1039.03,-206.4 1036.34,-216.65 1044.83,-210.31 1039.03,-206.4"/>
</g>
<!-- X::IO::Unlink -->
<g id="node14" class="node">
<title>X::IO::Unlink</title>
<g id="a_node14"><a xlink:href="/type/X::IO::Unlink" xlink:title="X::IO::Unlink">
<ellipse fill="none" stroke="#000000" cx="1312.49" cy="-18" rx="67.69" ry="18"/>
<text text-anchor="middle" x="1312.49" y="-14.3" font-family="FreeSans" font-size="14.00" fill="#000000">X::IO::Unlink</text>
</a>
</g>
</g>
<!-- X::IO::Unlink&#45;&gt;X::IO -->
<g id="edge51" class="edge">
<title>X::IO::Unlink&#45;&gt;X::IO</title>
<path fill="none" stroke="#6666ff" d="M1262.22,-30.24C1248.09,-33.41 1236.49,-36 1236.49,-36 1236.49,-36 1063.37,-67.1 982.37,-81.66"/>
<polygon fill="#6666ff" stroke="#6666ff" points="981.73,-78.22 972.51,-83.43 982.97,-85.1 981.73,-78.22"/>
</g>
<!-- X::IO::Unlink&#45;&gt;Exception -->
<g id="edge27" class="edge">
<title>X::IO::Unlink&#45;&gt;Exception</title>
<path fill="none" stroke="#000000" d="M1284.09,-34.39C1225.8,-71.51 1096.26,-166.11 1043.13,-209.99"/>
<polygon fill="#000000" stroke="#000000" points="1040.69,-207.47 1035.28,-216.59 1045.19,-212.83 1040.69,-207.47"/>
</g>
<!-- X::IO::Unlink&#45;&gt;Exception -->
<g id="edge28" class="edge">
<title>X::IO::Unlink&#45;&gt;Exception</title>
<path fill="none" stroke="#000000" d="M1290.55,-35.08C1238.72,-73.07 1108.69,-168.37 1050.02,-211.36"/>
<polygon fill="#000000" stroke="#000000" points="1047.9,-208.58 1041.9,-217.31 1052.04,-214.22 1047.9,-208.58"/>
</g>
<!-- X::IO::Unlink&#45;&gt;Exception -->
<g id="edge29" class="edge">
<title>X::IO::Unlink&#45;&gt;Exception</title>
<path fill="none" stroke="#000000" d="M1297.27,-35.79C1251.77,-74.66 1120.95,-170.69 1056.46,-212.73"/>
<polygon fill="#000000" stroke="#000000" points="1054.33,-209.94 1047.82,-218.3 1058.12,-215.83 1054.33,-209.94"/>
</g>
<!-- X::IO::Symlink -->
<g id="node15" class="node">
<title>X::IO::Symlink</title>
<g id="a_node15"><a xlink:href="/type/X::IO::Symlink" xlink:title="X::IO::Symlink">
<ellipse fill="none" stroke="#000000" cx="1473.49" cy="-18" rx="75.29" ry="18"/>
<text text-anchor="middle" x="1473.49" y="-14.3" font-family="FreeSans" font-size="14.00" fill="#000000">X::IO::Symlink</text>
</a>
</g>
</g>
<!-- X::IO::Symlink&#45;&gt;X::IO -->
<g id="edge52" class="edge">
<title>X::IO::Symlink&#45;&gt;X::IO</title>
<path fill="none" stroke="#6666ff" d="M1417.93,-30.24C1402.31,-33.41 1389.49,-36 1389.49,-36 1389.49,-36 1095.7,-70.76 983.94,-83.98"/>
<polygon fill="#6666ff" stroke="#6666ff" points="983.23,-80.54 973.71,-85.19 984.05,-87.49 983.23,-80.54"/>
</g>
<!-- X::IO::Symlink&#45;&gt;Exception -->
<g id="edge30" class="edge">
<title>X::IO::Symlink&#45;&gt;Exception</title>
<path fill="none" stroke="#000000" d="M1435.66,-33.71C1346.24,-73.46 1132.49,-180 1132.49,-180 1132.49,-180 1087.76,-198.24 1054.4,-213.32"/>
<polygon fill="#000000" stroke="#000000" points="1052.55,-210.32 1044.91,-217.67 1055.46,-216.68 1052.55,-210.32"/>
</g>
<!-- X::IO::Symlink&#45;&gt;Exception -->
<g id="edge31" class="edge">
<title>X::IO::Symlink&#45;&gt;Exception</title>
<path fill="none" stroke="#000000" d="M1442.52,-34.44C1361.68,-74.73 1150.49,-180 1150.49,-180 1150.49,-180 1100.91,-200.21 1062.99,-215.68"/>
<polygon fill="#000000" stroke="#000000" points="1061.57,-212.47 1053.63,-219.49 1064.22,-218.95 1061.57,-212.47"/>
</g>
<!-- X::IO::Symlink&#45;&gt;Exception -->
<g id="edge32" class="edge">
<title>X::IO::Symlink&#45;&gt;Exception</title>
<path fill="none" stroke="#000000" d="M1449.7,-35.17C1377.14,-76 1168.49,-180 1168.49,-180 1168.49,-180 1113.56,-202.4 1070.17,-218.07"/>
<polygon fill="#000000" stroke="#000000" points="1068.79,-214.85 1060.55,-221.5 1071.14,-221.44 1068.79,-214.85"/>
</g>
<!-- X::IO::Link -->
<g id="node16" class="node">
<title>X::IO::Link</title>
<g id="a_node16"><a xlink:href="/type/X::IO::Link" xlink:title="X::IO::Link">
<ellipse fill="none" stroke="#000000" cx="1624.49" cy="-18" rx="57.69" ry="18"/>
<text text-anchor="middle" x="1624.49" y="-14.3" font-family="FreeSans" font-size="14.00" fill="#000000">X::IO::Link</text>
</a>
</g>
</g>
<!-- X::IO::Link&#45;&gt;X::IO -->
<g id="edge53" class="edge">
<title>X::IO::Link&#45;&gt;X::IO</title>
<path fill="none" stroke="#6666ff" d="M1580.93,-30.05C1568.13,-33.3 1557.49,-36 1557.49,-36 1557.49,-36 1124.39,-73.26 984.5,-85.3"/>
<polygon fill="#6666ff" stroke="#6666ff" points="983.84,-81.84 974.18,-86.19 984.44,-88.82 983.84,-81.84"/>
</g>
<!-- X::IO::Link&#45;&gt;Exception -->
<g id="edge33" class="edge">
<title>X::IO::Link&#45;&gt;Exception</title>
<path fill="none" stroke="#000000" d="M1585.53,-31.37C1479.93,-69.07 1199.49,-180 1199.49,-180 1199.49,-180 1119.3,-201.57 1065.92,-217.19"/>
<polygon fill="#000000" stroke="#000000" points="1064.89,-213.85 1056.29,-220.03 1066.87,-220.56 1064.89,-213.85"/>
</g>
<!-- X::IO::Link&#45;&gt;Exception -->
<g id="edge34" class="edge">
<title>X::IO::Link&#45;&gt;Exception</title>
<path fill="none" stroke="#000000" d="M1590.14,-32.59C1492.02,-71.4 1217.49,-180 1217.49,-180 1217.49,-180 1129.98,-203.55 1071.61,-219.25"/>
<polygon fill="#000000" stroke="#000000" points="1070.54,-215.91 1061.79,-221.89 1072.36,-222.67 1070.54,-215.91"/>
</g>
<!-- X::IO::Link&#45;&gt;Exception -->
<g id="edge35" class="edge">
<title>X::IO::Link&#45;&gt;Exception</title>
<path fill="none" stroke="#000000" d="M1595.61,-33.71C1504.82,-73.46 1235.49,-180 1235.49,-180 1235.49,-180 1140.02,-205.69 1075.93,-221.29"/>
<polygon fill="#000000" stroke="#000000" points="1074.83,-217.96 1065.93,-223.71 1076.48,-224.76 1074.83,-217.96"/>
</g>
<!-- X::IO::Move -->
<g id="node17" class="node">
<title>X::IO::Move</title>
<g id="a_node17"><a xlink:href="/type/X::IO::Move" xlink:title="X::IO::Move">
<ellipse fill="none" stroke="#000000" cx="1763.49" cy="-18" rx="63.09" ry="18"/>
<text text-anchor="middle" x="1763.49" y="-14.3" font-family="FreeSans" font-size="14.00" fill="#000000">X::IO::Move</text>
</a>
</g>
</g>
<!-- X::IO::Move&#45;&gt;X::IO -->
<g id="edge54" class="edge">
<title>X::IO::Move&#45;&gt;X::IO</title>
<path fill="none" stroke="#6666ff" d="M1716.27,-30.15C1702.7,-33.35 1691.49,-36 1691.49,-36 1691.49,-36 1144,-74.69 984.57,-85.96"/>
<polygon fill="#6666ff" stroke="#6666ff" points="983.93,-82.49 974.2,-86.69 984.42,-89.47 983.93,-82.49"/>
</g>
<!-- X::IO::Move&#45;&gt;Exception -->
<g id="edge36" class="edge">
<title>X::IO::Move&#45;&gt;Exception</title>
<path fill="none" stroke="#000000" d="M1720.11,-31.23C1600.1,-68.81 1275.49,-180 1275.49,-180 1275.49,-180 1148.59,-204.64 1073.53,-220.32"/>
<polygon fill="#000000" stroke="#000000" points="1072.37,-216.98 1063.3,-222.47 1073.81,-223.83 1072.37,-216.98"/>
</g>
<!-- X::IO::Move&#45;&gt;Exception -->
<g id="edge37" class="edge">
<title>X::IO::Move&#45;&gt;Exception</title>
<path fill="none" stroke="#000000" d="M1724.63,-32.31C1612.03,-70.89 1293.49,-180 1293.49,-180 1293.49,-180 1156.65,-206.57 1076.73,-222.08"/>
<polygon fill="#000000" stroke="#000000" points="1075.95,-218.67 1066.8,-224.01 1077.29,-225.54 1075.95,-218.67"/>
</g>
<!-- X::IO::Move&#45;&gt;Exception -->
<g id="edge38" class="edge">
<title>X::IO::Move&#45;&gt;Exception</title>
<path fill="none" stroke="#000000" d="M1729.99,-33.29C1624.76,-72.69 1311.49,-180 1311.49,-180 1311.49,-180 1164.85,-208.47 1079.43,-223.68"/>
<polygon fill="#000000" stroke="#000000" points="1078.57,-220.27 1069.33,-225.46 1079.79,-227.17 1078.57,-220.27"/>
</g>
<!-- X::IO::Copy -->
<g id="node18" class="node">
<title>X::IO::Copy</title>
<g id="a_node18"><a xlink:href="/type/X::IO::Copy" xlink:title="X::IO::Copy">
<ellipse fill="none" stroke="#000000" cx="1906.49" cy="-18" rx="61.99" ry="18"/>
<text text-anchor="middle" x="1906.49" y="-14.3" font-family="FreeSans" font-size="14.00" fill="#000000">X::IO::Copy</text>
</a>
</g>
</g>
<!-- X::IO::Copy&#45;&gt;X::IO -->
<g id="edge55" class="edge">
<title>X::IO::Copy&#45;&gt;X::IO</title>
<path fill="none" stroke="#6666ff" d="M1860.33,-30.05C1846.77,-33.3 1835.49,-36 1835.49,-36 1835.49,-36 1162.73,-75.88 984.43,-86.45"/>
<polygon fill="#6666ff" stroke="#6666ff" points="984.15,-82.97 974.37,-87.05 984.56,-89.95 984.15,-82.97"/>
</g>
<!-- X::IO::Copy&#45;&gt;Exception -->
<g id="edge39" class="edge">
<title>X::IO::Copy&#45;&gt;Exception</title>
<path fill="none" stroke="#000000" d="M1861.28,-30.45C1729.42,-67.23 1357.49,-180 1357.49,-180 1357.49,-180 1173.64,-207.45 1077.26,-222.84"/>
<polygon fill="#000000" stroke="#000000" points="1076.69,-219.39 1067.37,-224.43 1077.8,-226.3 1076.69,-219.39"/>
</g>
<!-- X::IO::Copy&#45;&gt;Exception -->
<g id="edge40" class="edge">
<title>X::IO::Copy&#45;&gt;Exception</title>
<path fill="none" stroke="#000000" d="M1865.27,-31.5C1740.51,-69.33 1375.49,-180 1375.49,-180 1375.49,-180 1180.99,-209.04 1079.93,-224.13"/>
<polygon fill="#000000" stroke="#000000" points="1079.23,-220.69 1069.85,-225.63 1080.26,-227.62 1079.23,-220.69"/>
</g>
<!-- X::IO::Copy&#45;&gt;Exception -->
<g id="edge41" class="edge">
<title>X::IO::Copy&#45;&gt;Exception</title>
<path fill="none" stroke="#000000" d="M1869.71,-32.59C1751.66,-71.4 1393.49,-180 1393.49,-180 1393.49,-180 1187.6,-210.74 1081.46,-225.4"/>
<polygon fill="#000000" stroke="#000000" points="1080.95,-221.94 1071.52,-226.76 1081.9,-228.87 1080.95,-221.94"/>
</g>
</g>
</svg>
