<?xml version="1.0" encoding="UTF-8" standalone="no"?>
<!DOCTYPE svg PUBLIC "-//W3C//DTD SVG 1.1//EN"
 "http://www.w3.org/Graphics/SVG/1.1/DTD/svg11.dtd">
<!-- Generated by graphviz version 2.42.3 (0)
 -->
<!-- Title: perl6&#45;type&#45;graph Pages: 1 -->
<svg width="2126pt" height="1690pt"
 viewBox="0.00 0.00 2125.72 1690.35" xmlns="http://www.w3.org/2000/svg" xmlns:xlink="http://www.w3.org/1999/xlink">
<g id="graph0" class="graph" transform="scale(1 1) rotate(0) translate(4 1686.35)">
<title>perl6&#45;type&#45;graph</title>
<polygon fill="white" stroke="transparent" points="-4,4 -4,-1686.35 2121.72,-1686.35 2121.72,4 -4,4"/>
<!-- Metamodel::PrivateMethodContainer -->
<g id="node1" class="node">
<title>Metamodel::PrivateMethodContainer</title>
<g id="a_node1"><a xlink:href="/type/Metamodel::PrivateMethodContainer" xlink:title="Metamodel::PrivateMethodContainer">
<ellipse fill="none" stroke="#6666ff" cx="1013.68" cy="-1068.17" rx="174.67" ry="18"/>
<text text-anchor="middle" x="1013.68" y="-1064.47" font-family="FreeSans" font-size="14.00" fill="#6666ff">Metamodel::PrivateMethodContainer</text>
</a>
</g>
</g>
<!-- Mu -->
<g id="node2" class="node">
<title>Mu</title>
<g id="a_node2"><a xlink:href="/type/Mu" xlink:title="Mu">
<ellipse fill="none" stroke="#000000" cx="1405.66" cy="-18" rx="27" ry="18"/>
<text text-anchor="middle" x="1405.66" y="-14.3" font-family="FreeSans" font-size="14.00" fill="#000000">Mu</text>
</a>
</g>
</g>
<!-- Any -->
<g id="node3" class="node">
<title>Any</title>
<g id="a_node3"><a xlink:href="/type/Any" xlink:title="Any">
<ellipse fill="none" stroke="#000000" cx="1201.27" cy="-539.57" rx="28.7" ry="18"/>
<text text-anchor="middle" x="1201.27" y="-535.87" font-family="FreeSans" font-size="14.00" fill="#000000">Any</text>
</a>
</g>
</g>
<!-- Any&#45;&gt;Mu -->
<g id="edge1" class="edge">
<title>Any&#45;&gt;Mu</title>
<path fill="none" stroke="#000000" d="M1208.18,-521.92C1238.33,-444.99 1358.35,-138.73 1394.99,-45.24"/>
<polygon fill="#000000" stroke="#000000" points="1398.36,-46.24 1398.75,-35.65 1391.84,-43.68 1398.36,-46.24"/>
</g>
<!-- Metamodel::Naming -->
<g id="node4" class="node">
<title>Metamodel::Naming</title>
<g id="a_node4"><a xlink:href="/type/Metamodel::Naming" xlink:title="Metamodel::Naming">
<ellipse fill="none" stroke="#6666ff" cx="1186.55" cy="-1378.28" rx="101.28" ry="18"/>
<text text-anchor="middle" x="1186.55" y="-1374.58" font-family="FreeSans" font-size="14.00" fill="#6666ff">Metamodel::Naming</text>
</a>
</g>
</g>
<!-- Metamodel::Documenting -->
<g id="node5" class="node">
<title>Metamodel::Documenting</title>
<g id="a_node5"><a xlink:href="/type/Metamodel::Documenting" xlink:title="Metamodel::Documenting">
<ellipse fill="none" stroke="#6666ff" cx="880.77" cy="-1622.62" rx="126.98" ry="18"/>
<text text-anchor="middle" x="880.77" y="-1618.92" font-family="FreeSans" font-size="14.00" fill="#6666ff">Metamodel::Documenting</text>
</a>
</g>
</g>
<!-- Metamodel::Versioning -->
<g id="node6" class="node">
<title>Metamodel::Versioning</title>
<g id="a_node6"><a xlink:href="/type/Metamodel::Versioning" xlink:title="Metamodel::Versioning">
<ellipse fill="none" stroke="#6666ff" cx="1008.71" cy="-1460.41" rx="114.28" ry="18"/>
<text text-anchor="middle" x="1008.71" y="-1456.71" font-family="FreeSans" font-size="14.00" fill="#6666ff">Metamodel::Versioning</text>
</a>
</g>
</g>
<!-- Metamodel::Stashing -->
<g id="node7" class="node">
<title>Metamodel::Stashing</title>
<g id="a_node7"><a xlink:href="/type/Metamodel::Stashing" xlink:title="Metamodel::Stashing">
<ellipse fill="none" stroke="#6666ff" cx="841.75" cy="-605.24" rx="105.88" ry="18"/>
<text text-anchor="middle" x="841.75" y="-601.54" font-family="FreeSans" font-size="14.00" fill="#6666ff">Metamodel::Stashing</text>
</a>
</g>
</g>
<!-- Metamodel::AttributeContainer -->
<g id="node8" class="node">
<title>Metamodel::AttributeContainer</title>
<g id="a_node8"><a xlink:href="/type/Metamodel::AttributeContainer" xlink:title="Metamodel::AttributeContainer">
<ellipse fill="none" stroke="#6666ff" cx="1278.97" cy="-726.16" rx="150.27" ry="18"/>
<text text-anchor="middle" x="1278.97" y="-722.46" font-family="FreeSans" font-size="14.00" fill="#6666ff">Metamodel::AttributeContainer</text>
</a>
</g>
</g>
<!-- Metamodel::Finalization -->
<g id="node9" class="node">
<title>Metamodel::Finalization</title>
<g id="a_node9"><a xlink:href="/type/Metamodel::Finalization" xlink:title="Metamodel::Finalization">
<ellipse fill="none" stroke="#6666ff" cx="217.51" cy="-650.26" rx="116.98" ry="18"/>
<text text-anchor="middle" x="217.51" y="-646.56" font-family="FreeSans" font-size="14.00" fill="#6666ff">Metamodel::Finalization</text>
</a>
</g>
</g>
<!-- Metamodel::MethodContainer -->
<g id="node10" class="node">
<title>Metamodel::MethodContainer</title>
<g id="a_node10"><a xlink:href="/type/Metamodel::MethodContainer" xlink:title="Metamodel::MethodContainer">
<ellipse fill="none" stroke="#6666ff" cx="1067.85" cy="-875.01" rx="143.77" ry="18"/>
<text text-anchor="middle" x="1067.85" y="-871.31" font-family="FreeSans" font-size="14.00" fill="#6666ff">Metamodel::MethodContainer</text>
</a>
</g>
</g>
<!-- Metamodel::MultiMethodContainer -->
<g id="node11" class="node">
<title>Metamodel::MultiMethodContainer</title>
<g id="a_node11"><a xlink:href="/type/Metamodel::MultiMethodContainer" xlink:title="Metamodel::MultiMethodContainer">
<ellipse fill="none" stroke="#6666ff" cx="1035.03" cy="-682.16" rx="165.97" ry="18"/>
<text text-anchor="middle" x="1035.03" y="-678.46" font-family="FreeSans" font-size="14.00" fill="#6666ff">Metamodel::MultiMethodContainer</text>
</a>
</g>
</g>
<!-- Metamodel::RoleContainer -->
<g id="node12" class="node">
<title>Metamodel::RoleContainer</title>
<g id="a_node12"><a xlink:href="/type/Metamodel::RoleContainer" xlink:title="Metamodel::RoleContainer">
<ellipse fill="none" stroke="#6666ff" cx="963.62" cy="-1271.01" rx="129.98" ry="18"/>
<text text-anchor="middle" x="963.62" y="-1267.31" font-family="FreeSans" font-size="14.00" fill="#6666ff">Metamodel::RoleContainer</text>
</a>
</g>
</g>
<!-- Metamodel::MultipleInheritance -->
<g id="node13" class="node">
<title>Metamodel::MultipleInheritance</title>
<g id="a_node13"><a xlink:href="/type/Metamodel::MultipleInheritance" xlink:title="Metamodel::MultipleInheritance">
<ellipse fill="none" stroke="#6666ff" cx="1236.59" cy="-1515.87" rx="153.27" ry="18"/>
<text text-anchor="middle" x="1236.59" y="-1512.17" font-family="FreeSans" font-size="14.00" fill="#6666ff">Metamodel::MultipleInheritance</text>
</a>
</g>
</g>
<!-- Metamodel::DefaultParent -->
<g id="node14" class="node">
<title>Metamodel::DefaultParent</title>
<g id="a_node14"><a xlink:href="/type/Metamodel::DefaultParent" xlink:title="Metamodel::DefaultParent">
<ellipse fill="none" stroke="#6666ff" cx="488.93" cy="-1664.35" rx="128.08" ry="18"/>
<text text-anchor="middle" x="488.93" y="-1660.65" font-family="FreeSans" font-size="14.00" fill="#6666ff">Metamodel::DefaultParent</text>
</a>
</g>
</g>
<!-- Metamodel::C3MRO -->
<g id="node15" class="node">
<title>Metamodel::C3MRO</title>
<g id="a_node15"><a xlink:href="/type/Metamodel::C3MRO" xlink:title="Metamodel::C3MRO">
<ellipse fill="none" stroke="#6666ff" cx="198.45" cy="-1391.06" rx="100.18" ry="18"/>
<text text-anchor="middle" x="198.45" y="-1387.36" font-family="FreeSans" font-size="14.00" fill="#6666ff">Metamodel::C3MRO</text>
</a>
</g>
</g>
<!-- Metamodel::MROBasedMethodDispatch -->
<g id="node16" class="node">
<title>Metamodel::MROBasedMethodDispatch</title>
<g id="a_node16"><a xlink:href="/type/Metamodel::MROBasedMethodDispatch" xlink:title="Metamodel::MROBasedMethodDispatch">
<ellipse fill="none" stroke="#6666ff" cx="352.84" cy="-506.94" rx="188.47" ry="18"/>
<text text-anchor="middle" x="352.84" y="-503.24" font-family="FreeSans" font-size="14.00" fill="#6666ff">Metamodel::MROBasedMethodDispatch</text>
</a>
</g>
</g>
<!-- Metamodel::MROBasedTypeChecking -->
<g id="node17" class="node">
<title>Metamodel::MROBasedTypeChecking</title>
<g id="a_node17"><a xlink:href="/type/Metamodel::MROBasedTypeChecking" xlink:title="Metamodel::MROBasedTypeChecking">
<ellipse fill="none" stroke="#6666ff" cx="528.38" cy="-393.17" rx="178.97" ry="18"/>
<text text-anchor="middle" x="528.38" y="-389.47" font-family="FreeSans" font-size="14.00" fill="#6666ff">Metamodel::MROBasedTypeChecking</text>
</a>
</g>
</g>
<!-- Metamodel::Trusting -->
<g id="node18" class="node">
<title>Metamodel::Trusting</title>
<g id="a_node18"><a xlink:href="/type/Metamodel::Trusting" xlink:title="Metamodel::Trusting">
<ellipse fill="none" stroke="#6666ff" cx="118.85" cy="-1211.88" rx="102.88" ry="18"/>
<text text-anchor="middle" x="118.85" y="-1208.18" font-family="FreeSans" font-size="14.00" fill="#6666ff">Metamodel::Trusting</text>
</a>
</g>
</g>
<!-- Metamodel::BUILDPLAN -->
<g id="node19" class="node">
<title>Metamodel::BUILDPLAN</title>
<g id="a_node19"><a xlink:href="/type/Metamodel::BUILDPLAN" xlink:title="Metamodel::BUILDPLAN">
<ellipse fill="none" stroke="#6666ff" cx="128.48" cy="-824.28" rx="118.08" ry="18"/>
<text text-anchor="middle" x="128.48" y="-820.58" font-family="FreeSans" font-size="14.00" fill="#6666ff">Metamodel::BUILDPLAN</text>
</a>
</g>
</g>
<!-- Metamodel::Mixins -->
<g id="node20" class="node">
<title>Metamodel::Mixins</title>
<g id="a_node20"><a xlink:href="/type/Metamodel::Mixins" xlink:title="Metamodel::Mixins">
<ellipse fill="none" stroke="#6666ff" cx="94.89" cy="-1017.25" rx="94.78" ry="18"/>
<text text-anchor="middle" x="94.89" y="-1013.55" font-family="FreeSans" font-size="14.00" fill="#6666ff">Metamodel::Mixins</text>
</a>
</g>
</g>
<!-- Metamodel::BoolificationProtocol -->
<g id="node21" class="node">
<title>Metamodel::BoolificationProtocol</title>
<g id="a_node21"><a xlink:href="/type/Metamodel::BoolificationProtocol" xlink:title="Metamodel::BoolificationProtocol">
<ellipse fill="none" stroke="#6666ff" cx="327.01" cy="-1539.68" rx="157.07" ry="18"/>
<text text-anchor="middle" x="327.01" y="-1535.98" font-family="FreeSans" font-size="14.00" fill="#6666ff">Metamodel::BoolificationProtocol</text>
</a>
</g>
</g>
<!-- Metamodel::ClassHOW -->
<g id="node22" class="node">
<title>Metamodel::ClassHOW</title>
<g id="a_node22"><a xlink:href="/type/Metamodel::ClassHOW" xlink:title="Metamodel::ClassHOW">
<ellipse fill="none" stroke="#000000" cx="651.27" cy="-1036.67" rx="113.18" ry="18"/>
<text text-anchor="middle" x="651.27" y="-1032.97" font-family="FreeSans" font-size="14.00" fill="#000000">Metamodel::ClassHOW</text>
</a>
</g>
</g>
<!-- Metamodel::ClassHOW&#45;&gt;Metamodel::PrivateMethodContainer -->
<g id="edge12" class="edge">
<title>Metamodel::ClassHOW&#45;&gt;Metamodel::PrivateMethodContainer</title>
<path fill="none" stroke="#6666ff" d="M750.78,-1045.32C787.48,-1048.51 829.84,-1052.19 869.69,-1055.65"/>
<polygon fill="#6666ff" stroke="#6666ff" points="869.5,-1059.15 879.76,-1056.53 870.1,-1052.18 869.5,-1059.15"/>
</g>
<!-- Metamodel::ClassHOW&#45;&gt;Any -->
<g id="edge2" class="edge">
<title>Metamodel::ClassHOW&#45;&gt;Any</title>
<path fill="none" stroke="#000000" d="M662.3,-1018.59C706.4,-946.33 867.69,-682.05 867.69,-682.05 867.69,-682.05 1083.88,-589.71 1168.17,-553.7"/>
<polygon fill="#000000" stroke="#000000" points="1169.72,-556.85 1177.54,-549.7 1166.97,-550.41 1169.72,-556.85"/>
</g>
<!-- Metamodel::ClassHOW&#45;&gt;Metamodel::Naming -->
<g id="edge5" class="edge">
<title>Metamodel::ClassHOW&#45;&gt;Metamodel::Naming</title>
<path fill="none" stroke="#6666ff" d="M683.92,-1053.91C786.44,-1108.05 1095.2,-1271.11 1095.2,-1271.11 1095.2,-1271.11 1137.52,-1320.76 1164.55,-1352.47"/>
<polygon fill="#6666ff" stroke="#6666ff" points="1161.9,-1354.76 1171.05,-1360.1 1167.23,-1350.22 1161.9,-1354.76"/>
</g>
<!-- Metamodel::ClassHOW&#45;&gt;Metamodel::Documenting -->
<g id="edge6" class="edge">
<title>Metamodel::ClassHOW&#45;&gt;Metamodel::Documenting</title>
<path fill="none" stroke="#6666ff" d="M658.39,-1054.85C691.45,-1139.25 830.04,-1493.11 869.96,-1595.04"/>
<polygon fill="#6666ff" stroke="#6666ff" points="866.71,-1596.33 873.62,-1604.37 873.23,-1593.78 866.71,-1596.33"/>
</g>
<!-- Metamodel::ClassHOW&#45;&gt;Metamodel::Versioning -->
<g id="edge7" class="edge">
<title>Metamodel::ClassHOW&#45;&gt;Metamodel::Versioning</title>
<path fill="none" stroke="#6666ff" d="M665.16,-1054.66C707.48,-1109.51 832.03,-1270.91 832.03,-1270.91 832.03,-1270.91 937.05,-1383.55 985.15,-1435.14"/>
<polygon fill="#6666ff" stroke="#6666ff" points="982.71,-1437.66 992.09,-1442.58 987.83,-1432.88 982.71,-1437.66"/>
</g>
<!-- Metamodel::ClassHOW&#45;&gt;Metamodel::Stashing -->
<g id="edge8" class="edge">
<title>Metamodel::ClassHOW&#45;&gt;Metamodel::Stashing</title>
<path fill="none" stroke="#6666ff" d="M659.21,-1018.68C688.92,-951.39 793.64,-714.21 829.55,-632.87"/>
<polygon fill="#6666ff" stroke="#6666ff" points="832.93,-633.87 833.77,-623.31 826.53,-631.04 832.93,-633.87"/>
</g>
<!-- Metamodel::ClassHOW&#45;&gt;Metamodel::AttributeContainer -->
<g id="edge9" class="edge">
<title>Metamodel::ClassHOW&#45;&gt;Metamodel::AttributeContainer</title>
<path fill="none" stroke="#6666ff" d="M680.57,-1019.2C750.73,-977.37 922.62,-874.88 922.62,-874.88 922.62,-874.88 1129.39,-788.59 1227.92,-747.47"/>
<polygon fill="#6666ff" stroke="#6666ff" points="1229.51,-750.6 1237.39,-743.52 1226.81,-744.14 1229.51,-750.6"/>
</g>
<!-- Metamodel::ClassHOW&#45;&gt;Metamodel::Finalization -->
<g id="edge10" class="edge">
<title>Metamodel::ClassHOW&#45;&gt;Metamodel::Finalization</title>
<path fill="none" stroke="#6666ff" d="M631.22,-1018.8C561.07,-956.31 326.53,-747.37 245.4,-675.1"/>
<polygon fill="#6666ff" stroke="#6666ff" points="247.4,-672.19 237.6,-668.15 242.74,-677.42 247.4,-672.19"/>
</g>
<!-- Metamodel::ClassHOW&#45;&gt;Metamodel::MethodContainer -->
<g id="edge11" class="edge">
<title>Metamodel::ClassHOW&#45;&gt;Metamodel::MethodContainer</title>
<path fill="none" stroke="#6666ff" d="M694.28,-1019.98C770.77,-990.3 930.24,-928.41 1013.93,-895.94"/>
<polygon fill="#6666ff" stroke="#6666ff" points="1015.45,-899.1 1023.51,-892.22 1012.92,-892.57 1015.45,-899.1"/>
</g>
<!-- Metamodel::ClassHOW&#45;&gt;Metamodel::MultiMethodContainer -->
<g id="edge13" class="edge">
<title>Metamodel::ClassHOW&#45;&gt;Metamodel::MultiMethodContainer</title>
<path fill="none" stroke="#6666ff" d="M670.57,-1018.84C733.77,-960.46 934.73,-774.81 1007.98,-707.14"/>
<polygon fill="#6666ff" stroke="#6666ff" points="1010.5,-709.59 1015.47,-700.23 1005.75,-704.44 1010.5,-709.59"/>
</g>
<!-- Metamodel::ClassHOW&#45;&gt;Metamodel::RoleContainer -->
<g id="edge14" class="edge">
<title>Metamodel::ClassHOW&#45;&gt;Metamodel::RoleContainer</title>
<path fill="none" stroke="#6666ff" d="M674.75,-1054.28C730.03,-1095.76 868.49,-1199.64 931.49,-1246.91"/>
<polygon fill="#6666ff" stroke="#6666ff" points="929.77,-1249.99 939.87,-1253.2 933.97,-1244.39 929.77,-1249.99"/>
</g>
<!-- Metamodel::ClassHOW&#45;&gt;Metamodel::MultipleInheritance -->
<g id="edge15" class="edge">
<title>Metamodel::ClassHOW&#45;&gt;Metamodel::MultipleInheritance</title>
<path fill="none" stroke="#6666ff" d="M665.16,-1054.66C707.48,-1109.51 832.03,-1270.91 832.03,-1270.91 832.03,-1270.91 1097.79,-1431.83 1198.51,-1492.82"/>
<polygon fill="#6666ff" stroke="#6666ff" points="1196.8,-1495.87 1207.17,-1498.06 1200.43,-1489.88 1196.8,-1495.87"/>
</g>
<!-- Metamodel::ClassHOW&#45;&gt;Metamodel::DefaultParent -->
<g id="edge16" class="edge">
<title>Metamodel::ClassHOW&#45;&gt;Metamodel::DefaultParent</title>
<path fill="none" stroke="#6666ff" d="M646.59,-1054.78C623.75,-1143.09 524.01,-1528.73 496.17,-1636.36"/>
<polygon fill="#6666ff" stroke="#6666ff" points="492.75,-1635.61 493.63,-1646.17 499.52,-1637.36 492.75,-1635.61"/>
</g>
<!-- Metamodel::ClassHOW&#45;&gt;Metamodel::C3MRO -->
<g id="edge17" class="edge">
<title>Metamodel::ClassHOW&#45;&gt;Metamodel::C3MRO</title>
<path fill="none" stroke="#6666ff" d="M628.51,-1054.48C553.53,-1113.17 314.25,-1300.43 228.99,-1367.16"/>
<polygon fill="#6666ff" stroke="#6666ff" points="226.71,-1364.49 220.99,-1373.41 231.03,-1370.01 226.71,-1364.49"/>
</g>
<!-- Metamodel::ClassHOW&#45;&gt;Metamodel::MROBasedMethodDispatch -->
<g id="edge18" class="edge">
<title>Metamodel::ClassHOW&#45;&gt;Metamodel::MROBasedMethodDispatch</title>
<path fill="none" stroke="#6666ff" d="M641.17,-1018.74C597.07,-940.46 421.24,-628.36 368.12,-534.06"/>
<polygon fill="#6666ff" stroke="#6666ff" points="371.05,-532.13 363.09,-525.13 364.95,-535.56 371.05,-532.13"/>
</g>
<!-- Metamodel::ClassHOW&#45;&gt;Metamodel::MROBasedTypeChecking -->
<g id="edge19" class="edge">
<title>Metamodel::ClassHOW&#45;&gt;Metamodel::MROBasedTypeChecking</title>
<path fill="none" stroke="#6666ff" d="M647.79,-1018.45C630.59,-928.38 554.65,-530.74 533.73,-421.19"/>
<polygon fill="#6666ff" stroke="#6666ff" points="537.14,-420.4 531.83,-411.23 530.26,-421.71 537.14,-420.4"/>
</g>
<!-- Metamodel::ClassHOW&#45;&gt;Metamodel::Trusting -->
<g id="edge20" class="edge">
<title>Metamodel::ClassHOW&#45;&gt;Metamodel::Trusting</title>
<path fill="none" stroke="#6666ff" d="M601.66,-1052.99C502.9,-1085.49 282.18,-1158.13 176.89,-1192.78"/>
<polygon fill="#6666ff" stroke="#6666ff" points="175.78,-1189.47 167.37,-1195.92 177.97,-1196.11 175.78,-1189.47"/>
</g>
<!-- Metamodel::ClassHOW&#45;&gt;Metamodel::BUILDPLAN -->
<g id="edge21" class="edge">
<title>Metamodel::ClassHOW&#45;&gt;Metamodel::BUILDPLAN</title>
<path fill="none" stroke="#6666ff" d="M609.81,-1019.82C515.08,-981.34 282.99,-887.05 179.61,-845.05"/>
<polygon fill="#6666ff" stroke="#6666ff" points="180.89,-841.79 170.31,-841.27 178.26,-848.28 180.89,-841.79"/>
</g>
<!-- Metamodel::ClassHOW&#45;&gt;Metamodel::Mixins -->
<g id="edge22" class="edge">
<title>Metamodel::ClassHOW&#45;&gt;Metamodel::Mixins</title>
<path fill="none" stroke="#6666ff" d="M540.68,-1032.81C441.21,-1029.33 296.15,-1024.27 198.79,-1020.87"/>
<polygon fill="#6666ff" stroke="#6666ff" points="198.75,-1017.37 188.64,-1020.52 198.51,-1024.36 198.75,-1017.37"/>
</g>
<!-- Metamodel::ClassHOW&#45;&gt;Metamodel::BoolificationProtocol -->
<g id="edge23" class="edge">
<title>Metamodel::ClassHOW&#45;&gt;Metamodel::BoolificationProtocol</title>
<path fill="none" stroke="#6666ff" d="M639.54,-1054.87C590.58,-1130.81 402.43,-1422.7 344.25,-1512.94"/>
<polygon fill="#6666ff" stroke="#6666ff" points="341.21,-1511.21 338.73,-1521.51 347.09,-1515 341.21,-1511.21"/>
</g>
<!-- Metamodel::TypePretense -->
<g id="node23" class="node">
<title>Metamodel::TypePretense</title>
<g id="a_node23"><a xlink:href="/type/Metamodel::TypePretense" xlink:title="Metamodel::TypePretense">
<ellipse fill="none" stroke="#6666ff" cx="1928.81" cy="-1417.57" rx="126.18" ry="18"/>
<text text-anchor="middle" x="1928.81" y="-1413.87" font-family="FreeSans" font-size="14.00" fill="#6666ff">Metamodel::TypePretense</text>
</a>
</g>
</g>
<!-- Metamodel::RolePunning -->
<g id="node24" class="node">
<title>Metamodel::RolePunning</title>
<g id="a_node24"><a xlink:href="/type/Metamodel::RolePunning" xlink:title="Metamodel::RolePunning">
<ellipse fill="none" stroke="#6666ff" cx="1994.88" cy="-948.4" rx="122.68" ry="18"/>
<text text-anchor="middle" x="1994.88" y="-944.7" font-family="FreeSans" font-size="14.00" fill="#6666ff">Metamodel::RolePunning</text>
</a>
</g>
</g>
<!-- Metamodel::ParametricRoleHOW -->
<g id="node25" class="node">
<title>Metamodel::ParametricRoleHOW</title>
<g id="a_node25"><a xlink:href="/type/Metamodel::ParametricRoleHOW" xlink:title="Metamodel::ParametricRoleHOW">
<ellipse fill="none" stroke="#000000" cx="1421.43" cy="-1111.59" rx="157.07" ry="18"/>
<text text-anchor="middle" x="1421.43" y="-1107.89" font-family="FreeSans" font-size="14.00" fill="#000000">Metamodel::ParametricRoleHOW</text>
</a>
</g>
</g>
<!-- Metamodel::ParametricRoleHOW&#45;&gt;Metamodel::PrivateMethodContainer -->
<g id="edge28" class="edge">
<title>Metamodel::ParametricRoleHOW&#45;&gt;Metamodel::PrivateMethodContainer</title>
<path fill="none" stroke="#6666ff" d="M1306.22,-1099.32C1256.21,-1094 1197.37,-1087.73 1145.61,-1082.22"/>
<polygon fill="#6666ff" stroke="#6666ff" points="1145.68,-1078.71 1135.36,-1081.13 1144.94,-1085.67 1145.68,-1078.71"/>
</g>
<!-- Metamodel::ParametricRoleHOW&#45;&gt;Any -->
<g id="edge3" class="edge">
<title>Metamodel::ParametricRoleHOW&#45;&gt;Any</title>
<path fill="none" stroke="#000000" d="M1405.56,-1093.57C1380.59,-1065.2 1334.92,-1013.33 1334.92,-1013.33 1334.92,-1013.33 1127.23,-726.11 1127.23,-726.11 1127.23,-726.11 1202.36,-682.27 1202.36,-682.27 1202.36,-682.27 1201.8,-609.3 1201.48,-567.72"/>
<polygon fill="#000000" stroke="#000000" points="1204.98,-567.61 1201.4,-557.64 1197.98,-567.67 1204.98,-567.61"/>
</g>
<!-- Metamodel::ParametricRoleHOW&#45;&gt;Metamodel::Naming -->
<g id="edge24" class="edge">
<title>Metamodel::ParametricRoleHOW&#45;&gt;Metamodel::Naming</title>
<path fill="none" stroke="#6666ff" d="M1405.65,-1129.5C1364.95,-1175.71 1256.3,-1299.08 1209.03,-1352.75"/>
<polygon fill="#6666ff" stroke="#6666ff" points="1206.24,-1350.63 1202.26,-1360.45 1211.49,-1355.26 1206.24,-1350.63"/>
</g>
<!-- Metamodel::ParametricRoleHOW&#45;&gt;Metamodel::Documenting -->
<g id="edge25" class="edge">
<title>Metamodel::ParametricRoleHOW&#45;&gt;Metamodel::Documenting</title>
<path fill="none" stroke="#6666ff" d="M1412.36,-1129.93C1382.56,-1190.2 1289.54,-1378.39 1289.54,-1378.39 1289.54,-1378.39 1020.38,-1539.2 918.88,-1599.85"/>
<polygon fill="#6666ff" stroke="#6666ff" points="916.95,-1596.92 910.16,-1605.06 920.54,-1602.93 916.95,-1596.92"/>
</g>
<!-- Metamodel::ParametricRoleHOW&#45;&gt;Metamodel::Versioning -->
<g id="edge26" class="edge">
<title>Metamodel::ParametricRoleHOW&#45;&gt;Metamodel::Versioning</title>
<path fill="none" stroke="#6666ff" d="M1398.73,-1129.49C1322.98,-1189.26 1083.56,-1378.17 1083.56,-1378.17 1083.56,-1378.17 1053.76,-1410.91 1031.77,-1435.07"/>
<polygon fill="#6666ff" stroke="#6666ff" points="1029.09,-1432.82 1024.95,-1442.57 1034.27,-1437.53 1029.09,-1432.82"/>
</g>
<!-- Metamodel::ParametricRoleHOW&#45;&gt;Metamodel::Stashing -->
<g id="edge33" class="edge">
<title>Metamodel::ParametricRoleHOW&#45;&gt;Metamodel::Stashing</title>
<path fill="none" stroke="#6666ff" d="M1405.43,-1093.43C1356.64,-1038.06 1213.09,-875.14 1213.09,-875.14 1213.09,-875.14 867.69,-682.05 867.69,-682.05 867.69,-682.05 858.58,-655.06 851.15,-633.08"/>
<polygon fill="#6666ff" stroke="#6666ff" points="854.41,-631.8 847.89,-623.45 847.78,-634.04 854.41,-631.8"/>
</g>
<!-- Metamodel::ParametricRoleHOW&#45;&gt;Metamodel::AttributeContainer -->
<g id="edge30" class="edge">
<title>Metamodel::ParametricRoleHOW&#45;&gt;Metamodel::AttributeContainer</title>
<path fill="none" stroke="#6666ff" d="M1405.56,-1093.57C1380.59,-1065.2 1334.92,-1013.33 1334.92,-1013.33 1334.92,-1013.33 1298.71,-827.51 1284.55,-754.82"/>
<polygon fill="#6666ff" stroke="#6666ff" points="1287.9,-753.71 1282.55,-744.56 1281.03,-755.05 1287.9,-753.71"/>
</g>
<!-- Metamodel::ParametricRoleHOW&#45;&gt;Metamodel::MethodContainer -->
<g id="edge27" class="edge">
<title>Metamodel::ParametricRoleHOW&#45;&gt;Metamodel::MethodContainer</title>
<path fill="none" stroke="#6666ff" d="M1394.85,-1093.81C1332.01,-1051.76 1174.25,-946.2 1103.35,-898.76"/>
<polygon fill="#6666ff" stroke="#6666ff" points="1105,-895.65 1094.74,-893 1101.1,-901.47 1105,-895.65"/>
</g>
<!-- Metamodel::ParametricRoleHOW&#45;&gt;Metamodel::MultiMethodContainer -->
<g id="edge29" class="edge">
<title>Metamodel::ParametricRoleHOW&#45;&gt;Metamodel::MultiMethodContainer</title>
<path fill="none" stroke="#6666ff" d="M1405.43,-1093.43C1356.64,-1038.06 1213.09,-875.14 1213.09,-875.14 1213.09,-875.14 1107.25,-760.43 1058.77,-707.89"/>
<polygon fill="#6666ff" stroke="#6666ff" points="1061.13,-705.29 1051.78,-700.31 1055.99,-710.04 1061.13,-705.29"/>
</g>
<!-- Metamodel::ParametricRoleHOW&#45;&gt;Metamodel::RoleContainer -->
<g id="edge31" class="edge">
<title>Metamodel::ParametricRoleHOW&#45;&gt;Metamodel::RoleContainer</title>
<path fill="none" stroke="#6666ff" d="M1372,-1128.8C1286.67,-1158.51 1112.17,-1219.28 1021.39,-1250.9"/>
<polygon fill="#6666ff" stroke="#6666ff" points="1020.1,-1247.64 1011.8,-1254.23 1022.4,-1254.25 1020.1,-1247.64"/>
</g>
<!-- Metamodel::ParametricRoleHOW&#45;&gt;Metamodel::MultipleInheritance -->
<g id="edge32" class="edge">
<title>Metamodel::ParametricRoleHOW&#45;&gt;Metamodel::MultipleInheritance</title>
<path fill="none" stroke="#6666ff" d="M1413.13,-1129.74C1383.75,-1194 1284.57,-1410.92 1249.23,-1488.22"/>
<polygon fill="#6666ff" stroke="#6666ff" points="1245.84,-1487.22 1244.87,-1497.77 1252.21,-1490.13 1245.84,-1487.22"/>
</g>
<!-- Metamodel::ParametricRoleHOW&#45;&gt;Metamodel::TypePretense -->
<g id="edge34" class="edge">
<title>Metamodel::ParametricRoleHOW&#45;&gt;Metamodel::TypePretense</title>
<path fill="none" stroke="#6666ff" d="M1450.9,-1129.36C1537.96,-1181.87 1793.96,-1336.25 1890.96,-1394.75"/>
<polygon fill="#6666ff" stroke="#6666ff" points="1889.2,-1397.77 1899.57,-1399.94 1892.81,-1391.78 1889.2,-1397.77"/>
</g>
<!-- Metamodel::ParametricRoleHOW&#45;&gt;Metamodel::RolePunning -->
<g id="edge35" class="edge">
<title>Metamodel::ParametricRoleHOW&#45;&gt;Metamodel::RolePunning</title>
<path fill="none" stroke="#6666ff" d="M1480.37,-1094.81C1588.01,-1064.18 1815.7,-999.39 1928.57,-967.27"/>
<polygon fill="#6666ff" stroke="#6666ff" points="1929.81,-970.55 1938.47,-964.45 1927.9,-963.82 1929.81,-970.55"/>
</g>
<!-- Metamodel::ConcreteRoleHOW -->
<g id="node26" class="node">
<title>Metamodel::ConcreteRoleHOW</title>
<g id="a_node26"><a xlink:href="/type/Metamodel::ConcreteRoleHOW" xlink:title="Metamodel::ConcreteRoleHOW">
<ellipse fill="none" stroke="#000000" cx="1485.35" cy="-1013.45" rx="148.67" ry="18"/>
<text text-anchor="middle" x="1485.35" y="-1009.75" font-family="FreeSans" font-size="14.00" fill="#000000">Metamodel::ConcreteRoleHOW</text>
</a>
</g>
</g>
<!-- Metamodel::ConcreteRoleHOW&#45;&gt;Metamodel::PrivateMethodContainer -->
<g id="edge38" class="edge">
<title>Metamodel::ConcreteRoleHOW&#45;&gt;Metamodel::PrivateMethodContainer</title>
<path fill="none" stroke="#6666ff" d="M1377.73,-1025.94C1307.1,-1034.13 1214.42,-1044.88 1140.25,-1053.49"/>
<polygon fill="#6666ff" stroke="#6666ff" points="1139.44,-1050.06 1129.91,-1054.69 1140.25,-1057.01 1139.44,-1050.06"/>
</g>
<!-- Metamodel::ConcreteRoleHOW&#45;&gt;Any -->
<g id="edge4" class="edge">
<title>Metamodel::ConcreteRoleHOW&#45;&gt;Any</title>
<path fill="none" stroke="#000000" d="M1481.85,-995.05C1469.79,-931.65 1430.7,-726.21 1430.7,-726.21 1430.7,-726.21 1286.5,-608.9 1226.74,-560.29"/>
<polygon fill="#000000" stroke="#000000" points="1228.85,-557.5 1218.89,-553.9 1224.44,-562.93 1228.85,-557.5"/>
</g>
<!-- Metamodel::ConcreteRoleHOW&#45;&gt;Metamodel::Naming -->
<g id="edge36" class="edge">
<title>Metamodel::ConcreteRoleHOW&#45;&gt;Metamodel::Naming</title>
<path fill="none" stroke="#6666ff" d="M1445.77,-1030.88C1381.75,-1059.06 1262.54,-1111.55 1262.54,-1111.55 1262.54,-1111.55 1214.05,-1281.76 1194.54,-1350.24"/>
<polygon fill="#6666ff" stroke="#6666ff" points="1191.15,-1349.37 1191.77,-1359.95 1197.88,-1351.29 1191.15,-1349.37"/>
</g>
<!-- Metamodel::ConcreteRoleHOW&#45;&gt;Metamodel::Versioning -->
<g id="edge37" class="edge">
<title>Metamodel::ConcreteRoleHOW&#45;&gt;Metamodel::Versioning</title>
<path fill="none" stroke="#6666ff" d="M1445.77,-1030.88C1381.75,-1059.06 1262.54,-1111.55 1262.54,-1111.55 1262.54,-1111.55 1087.23,-1352.49 1028,-1433.9"/>
<polygon fill="#6666ff" stroke="#6666ff" points="1025.05,-1432 1022,-1442.15 1030.71,-1436.12 1025.05,-1432"/>
</g>
<!-- Metamodel::ConcreteRoleHOW&#45;&gt;Metamodel::AttributeContainer -->
<g id="edge41" class="edge">
<title>Metamodel::ConcreteRoleHOW&#45;&gt;Metamodel::AttributeContainer</title>
<path fill="none" stroke="#6666ff" d="M1472.44,-995.48C1437.19,-946.41 1339.16,-809.95 1297.78,-752.35"/>
<polygon fill="#6666ff" stroke="#6666ff" points="1300.55,-750.21 1291.87,-744.13 1294.86,-754.29 1300.55,-750.21"/>
</g>
<!-- Metamodel::ConcreteRoleHOW&#45;&gt;Metamodel::MethodContainer -->
<g id="edge39" class="edge">
<title>Metamodel::ConcreteRoleHOW&#45;&gt;Metamodel::MethodContainer</title>
<path fill="none" stroke="#6666ff" d="M1434.16,-996.48C1356.95,-970.87 1210.99,-922.48 1128.54,-895.14"/>
<polygon fill="#6666ff" stroke="#6666ff" points="1129.41,-891.73 1118.81,-891.91 1127.2,-898.38 1129.41,-891.73"/>
</g>
<!-- Metamodel::ConcreteRoleHOW&#45;&gt;Metamodel::MultiMethodContainer -->
<g id="edge40" class="edge">
<title>Metamodel::ConcreteRoleHOW&#45;&gt;Metamodel::MultiMethodContainer</title>
<path fill="none" stroke="#6666ff" d="M1461.14,-995.64C1385.47,-939.97 1153.35,-769.21 1067.44,-706.01"/>
<polygon fill="#6666ff" stroke="#6666ff" points="1069.49,-703.17 1059.36,-700.06 1065.34,-708.8 1069.49,-703.17"/>
</g>
<!-- Metamodel::ConcreteRoleHOW&#45;&gt;Metamodel::RoleContainer -->
<g id="edge42" class="edge">
<title>Metamodel::ConcreteRoleHOW&#45;&gt;Metamodel::RoleContainer</title>
<path fill="none" stroke="#6666ff" d="M1445.77,-1030.88C1381.75,-1059.06 1262.54,-1111.55 1262.54,-1111.55 1262.54,-1111.55 1087.84,-1204.75 1005.55,-1248.64"/>
<polygon fill="#6666ff" stroke="#6666ff" points="1003.64,-1245.7 996.46,-1253.49 1006.93,-1251.87 1003.64,-1245.7"/>
</g>
<!-- Metamodel::ConcreteRoleHOW&#45;&gt;Metamodel::MultipleInheritance -->
<g id="edge43" class="edge">
<title>Metamodel::ConcreteRoleHOW&#45;&gt;Metamodel::MultipleInheritance</title>
<path fill="none" stroke="#6666ff" d="M1445.77,-1030.88C1381.75,-1059.06 1262.54,-1111.55 1262.54,-1111.55 1262.54,-1111.55 1289.54,-1378.39 1289.54,-1378.39 1289.54,-1378.39 1262.76,-1447.93 1247.29,-1488.1"/>
<polygon fill="#6666ff" stroke="#6666ff" points="1243.95,-1487.03 1243.62,-1497.62 1250.48,-1489.54 1243.95,-1487.03"/>
</g>
</g>
</svg>
