<?xml version="1.0" encoding="UTF-8" standalone="no"?>
<!DOCTYPE svg PUBLIC "-//W3C//DTD SVG 1.1//EN"
 "http://www.w3.org/Graphics/SVG/1.1/DTD/svg11.dtd">
<!-- Generated by graphviz version 2.42.3 (0)
 -->
<!-- Title: perl6&#45;type&#45;graph Pages: 1 -->
<svg width="288pt" height="404pt"
 viewBox="0.00 0.00 287.99 404.00" xmlns="http://www.w3.org/2000/svg" xmlns:xlink="http://www.w3.org/1999/xlink">
<g id="graph0" class="graph" transform="scale(1 1) rotate(0) translate(4 400)">
<title>perl6&#45;type&#45;graph</title>
<polygon fill="white" stroke="transparent" points="-4,4 -4,-400 283.99,-400 283.99,4 -4,4"/>
<!-- X::Syntax::VirtualCall -->
<g id="node1" class="node">
<title>X::Syntax::VirtualCall</title>
<g id="a_node1"><a xlink:href="/type/X::Syntax::VirtualCall" xlink:title="X::Syntax::VirtualCall">
<ellipse fill="none" stroke="#000000" cx="106.59" cy="-18" rx="106.68" ry="18"/>
<text text-anchor="middle" x="106.59" y="-14.3" font-family="FreeSans" font-size="14.00" fill="#000000">X::Syntax::VirtualCall</text>
</a>
</g>
</g>
<!-- Exception -->
<g id="node4" class="node">
<title>Exception</title>
<g id="a_node4"><a xlink:href="/type/Exception" xlink:title="Exception">
<ellipse fill="none" stroke="#000000" cx="129.59" cy="-234" rx="55.49" ry="18"/>
<text text-anchor="middle" x="129.59" y="-230.3" font-family="FreeSans" font-size="14.00" fill="#000000">Exception</text>
</a>
</g>
</g>
<!-- X::Syntax::VirtualCall&#45;&gt;Exception -->
<g id="edge1" class="edge">
<title>X::Syntax::VirtualCall&#45;&gt;Exception</title>
<path fill="none" stroke="#000000" d="M104.56,-36.15C105,-73.34 114.23,-161.63 122.06,-206.23"/>
<polygon fill="#000000" stroke="#000000" points="118.62,-206.88 123.91,-216.06 125.5,-205.59 118.62,-206.88"/>
</g>
<!-- X::Syntax::VirtualCall&#45;&gt;Exception -->
<g id="edge2" class="edge">
<title>X::Syntax::VirtualCall&#45;&gt;Exception</title>
<path fill="none" stroke="#000000" d="M112.31,-36.15C119.83,-73.17 129.52,-160.82 131.34,-205.61"/>
<polygon fill="#000000" stroke="#000000" points="127.85,-205.87 131.62,-215.77 134.84,-205.67 127.85,-205.87"/>
</g>
<!-- X::Syntax -->
<g id="node6" class="node">
<title>X::Syntax</title>
<g id="a_node6"><a xlink:href="/type/X::Syntax" xlink:title="X::Syntax">
<ellipse fill="none" stroke="#6666ff" cx="197.59" cy="-90" rx="53.89" ry="18"/>
<text text-anchor="middle" x="197.59" y="-86.3" font-family="FreeSans" font-size="14.00" fill="#6666ff">X::Syntax</text>
</a>
</g>
</g>
<!-- X::Syntax::VirtualCall&#45;&gt;X::Syntax -->
<g id="edge7" class="edge">
<title>X::Syntax::VirtualCall&#45;&gt;X::Syntax</title>
<path fill="none" stroke="#6666ff" d="M128.62,-35.95C140.7,-45.24 155.82,-56.87 168.83,-66.87"/>
<polygon fill="#6666ff" stroke="#6666ff" points="166.95,-69.85 177.01,-73.17 171.22,-64.3 166.95,-69.85"/>
</g>
<!-- Mu -->
<g id="node2" class="node">
<title>Mu</title>
<g id="a_node2"><a xlink:href="/type/Mu" xlink:title="Mu">
<ellipse fill="none" stroke="#000000" cx="129.59" cy="-378" rx="27" ry="18"/>
<text text-anchor="middle" x="129.59" y="-374.3" font-family="FreeSans" font-size="14.00" fill="#000000">Mu</text>
</a>
</g>
</g>
<!-- Any -->
<g id="node3" class="node">
<title>Any</title>
<g id="a_node3"><a xlink:href="/type/Any" xlink:title="Any">
<ellipse fill="none" stroke="#000000" cx="129.59" cy="-306" rx="28.7" ry="18"/>
<text text-anchor="middle" x="129.59" y="-302.3" font-family="FreeSans" font-size="14.00" fill="#000000">Any</text>
</a>
</g>
</g>
<!-- Any&#45;&gt;Mu -->
<g id="edge3" class="edge">
<title>Any&#45;&gt;Mu</title>
<path fill="none" stroke="#000000" d="M129.59,-324.3C129.59,-332.02 129.59,-341.29 129.59,-349.89"/>
<polygon fill="#000000" stroke="#000000" points="126.09,-349.9 129.59,-359.9 133.09,-349.9 126.09,-349.9"/>
</g>
<!-- Exception&#45;&gt;Any -->
<g id="edge4" class="edge">
<title>Exception&#45;&gt;Any</title>
<path fill="none" stroke="#000000" d="M129.59,-252.3C129.59,-260.02 129.59,-269.29 129.59,-277.89"/>
<polygon fill="#000000" stroke="#000000" points="126.09,-277.9 129.59,-287.9 133.09,-277.9 126.09,-277.9"/>
</g>
<!-- X::Comp -->
<g id="node5" class="node">
<title>X::Comp</title>
<g id="a_node5"><a xlink:href="/type/X::Comp" xlink:title="X::Comp">
<ellipse fill="none" stroke="#6666ff" cx="230.59" cy="-162" rx="49.29" ry="18"/>
<text text-anchor="middle" x="230.59" y="-158.3" font-family="FreeSans" font-size="14.00" fill="#6666ff">X::Comp</text>
</a>
</g>
</g>
<!-- X::Comp&#45;&gt;Exception -->
<g id="edge5" class="edge">
<title>X::Comp&#45;&gt;Exception</title>
<path fill="none" stroke="#000000" d="M208.68,-178.19C194.58,-187.96 176.05,-200.8 160.47,-211.6"/>
<polygon fill="#000000" stroke="#000000" points="158.39,-208.78 152.16,-217.36 162.38,-214.54 158.39,-208.78"/>
</g>
<!-- X::Syntax&#45;&gt;Exception -->
<g id="edge6" class="edge">
<title>X::Syntax&#45;&gt;Exception</title>
<path fill="none" stroke="#000000" d="M189.52,-107.85C177.76,-132.4 155.82,-178.23 142,-207.09"/>
<polygon fill="#000000" stroke="#000000" points="138.81,-205.64 137.65,-216.18 145.12,-208.67 138.81,-205.64"/>
</g>
<!-- X::Syntax&#45;&gt;X::Comp -->
<g id="edge8" class="edge">
<title>X::Syntax&#45;&gt;X::Comp</title>
<path fill="none" stroke="#6666ff" d="M205.58,-107.95C209.39,-116.03 214.03,-125.88 218.28,-134.89"/>
<polygon fill="#6666ff" stroke="#6666ff" points="215.25,-136.66 222.68,-144.21 221.58,-133.67 215.25,-136.66"/>
</g>
</g>
</svg>
