<?xml version="1.0" encoding="UTF-8" standalone="no"?>
<!DOCTYPE svg PUBLIC "-//W3C//DTD SVG 1.1//EN"
 "http://www.w3.org/Graphics/SVG/1.1/DTD/svg11.dtd">
<!-- Generated by graphviz version 2.42.3 (0)
 -->
<!-- Title: perl6&#45;type&#45;graph Pages: 1 -->
<svg width="210pt" height="332pt"
 viewBox="0.00 0.00 210.49 332.00" xmlns="http://www.w3.org/2000/svg" xmlns:xlink="http://www.w3.org/1999/xlink">
<g id="graph0" class="graph" transform="scale(1 1) rotate(0) translate(4 328)">
<title>perl6&#45;type&#45;graph</title>
<polygon fill="white" stroke="transparent" points="-4,4 -4,-328 206.49,-328 206.49,4 -4,4"/>
<!-- CX::Redo -->
<g id="node1" class="node">
<title>CX::Redo</title>
<g id="a_node1"><a xlink:href="/type/CX::Redo" xlink:title="CX::Redo">
<ellipse fill="none" stroke="#000000" cx="101.25" cy="-18" rx="51.99" ry="18"/>
<text text-anchor="middle" x="101.25" y="-14.3" font-family="FreeSans" font-size="14.00" fill="#000000">CX::Redo</text>
</a>
</g>
</g>
<!-- Exception -->
<g id="node4" class="node">
<title>Exception</title>
<g id="a_node4"><a xlink:href="/type/Exception" xlink:title="Exception">
<ellipse fill="none" stroke="#000000" cx="55.25" cy="-162" rx="55.49" ry="18"/>
<text text-anchor="middle" x="55.25" y="-158.3" font-family="FreeSans" font-size="14.00" fill="#000000">Exception</text>
</a>
</g>
</g>
<!-- CX::Redo&#45;&gt;Exception -->
<g id="edge1" class="edge">
<title>CX::Redo&#45;&gt;Exception</title>
<path fill="none" stroke="#000000" d="M88.75,-35.77C81.28,-51.3 74.25,-72 74.25,-72 74.25,-72 62.97,-107.83 57.03,-134.03"/>
<polygon fill="#000000" stroke="#000000" points="53.6,-133.34 54.99,-143.84 60.45,-134.76 53.6,-133.34"/>
</g>
<!-- CX::Redo&#45;&gt;Exception -->
<g id="edge2" class="edge">
<title>CX::Redo&#45;&gt;Exception</title>
<path fill="none" stroke="#000000" d="M102.29,-36.06C99.19,-51.55 92.25,-72 92.25,-72 92.25,-72 80.75,-108.54 70.12,-134.8"/>
<polygon fill="#000000" stroke="#000000" points="66.79,-133.69 66.12,-144.26 73.24,-136.42 66.79,-133.69"/>
</g>
<!-- X::Control -->
<g id="node5" class="node">
<title>X::Control</title>
<g id="a_node5"><a xlink:href="/type/X::Control" xlink:title="X::Control">
<ellipse fill="none" stroke="#6666ff" cx="147.25" cy="-90" rx="55.49" ry="18"/>
<text text-anchor="middle" x="147.25" y="-86.3" font-family="FreeSans" font-size="14.00" fill="#6666ff">X::Control</text>
</a>
</g>
</g>
<!-- CX::Redo&#45;&gt;X::Control -->
<g id="edge6" class="edge">
<title>CX::Redo&#45;&gt;X::Control</title>
<path fill="none" stroke="#6666ff" d="M106.5,-35.95C111.21,-44.5 117.93,-55.03 124.63,-64.44"/>
<polygon fill="#6666ff" stroke="#6666ff" points="121.97,-66.72 130.72,-72.69 127.6,-62.57 121.97,-66.72"/>
</g>
<!-- CX::Redo&#45;&gt;X::Control -->
<g id="edge7" class="edge">
<title>CX::Redo&#45;&gt;X::Control</title>
<path fill="none" stroke="#6666ff" d="M117.71,-35.24C124.05,-43.47 131.01,-53.68 136.7,-62.98"/>
<polygon fill="#6666ff" stroke="#6666ff" points="133.82,-65.01 141.89,-71.88 139.87,-61.48 133.82,-65.01"/>
</g>
<!-- Mu -->
<g id="node2" class="node">
<title>Mu</title>
<g id="a_node2"><a xlink:href="/type/Mu" xlink:title="Mu">
<ellipse fill="none" stroke="#000000" cx="55.25" cy="-306" rx="27" ry="18"/>
<text text-anchor="middle" x="55.25" y="-302.3" font-family="FreeSans" font-size="14.00" fill="#000000">Mu</text>
</a>
</g>
</g>
<!-- Any -->
<g id="node3" class="node">
<title>Any</title>
<g id="a_node3"><a xlink:href="/type/Any" xlink:title="Any">
<ellipse fill="none" stroke="#000000" cx="55.25" cy="-234" rx="28.7" ry="18"/>
<text text-anchor="middle" x="55.25" y="-230.3" font-family="FreeSans" font-size="14.00" fill="#000000">Any</text>
</a>
</g>
</g>
<!-- Any&#45;&gt;Mu -->
<g id="edge3" class="edge">
<title>Any&#45;&gt;Mu</title>
<path fill="none" stroke="#000000" d="M55.25,-252.3C55.25,-260.02 55.25,-269.29 55.25,-277.89"/>
<polygon fill="#000000" stroke="#000000" points="51.75,-277.9 55.25,-287.9 58.75,-277.9 51.75,-277.9"/>
</g>
<!-- Exception&#45;&gt;Any -->
<g id="edge4" class="edge">
<title>Exception&#45;&gt;Any</title>
<path fill="none" stroke="#000000" d="M55.25,-180.3C55.25,-188.02 55.25,-197.29 55.25,-205.89"/>
<polygon fill="#000000" stroke="#000000" points="51.75,-205.9 55.25,-215.9 58.75,-205.9 51.75,-205.9"/>
</g>
<!-- X::Control&#45;&gt;Exception -->
<g id="edge5" class="edge">
<title>X::Control&#45;&gt;Exception</title>
<path fill="none" stroke="#000000" d="M126.37,-106.88C113.9,-116.37 97.88,-128.56 84.2,-138.97"/>
<polygon fill="#000000" stroke="#000000" points="81.88,-136.34 76.04,-145.18 86.12,-141.91 81.88,-136.34"/>
</g>
</g>
</svg>
