<?xml version="1.0" encoding="UTF-8" standalone="no"?>
<!DOCTYPE svg PUBLIC "-//W3C//DTD SVG 1.1//EN"
 "http://www.w3.org/Graphics/SVG/1.1/DTD/svg11.dtd">
<!-- Generated by graphviz version 2.42.3 (0)
 -->
<!-- Title: perl6&#45;type&#45;graph Pages: 1 -->
<svg width="138pt" height="188pt"
 viewBox="0.00 0.00 137.60 188.00" xmlns="http://www.w3.org/2000/svg" xmlns:xlink="http://www.w3.org/1999/xlink">
<g id="graph0" class="graph" transform="scale(1 1) rotate(0) translate(4 184)">
<title>perl6&#45;type&#45;graph</title>
<polygon fill="white" stroke="transparent" points="-4,4 -4,-184 133.6,-184 133.6,4 -4,4"/>
<!-- IO::Special -->
<g id="node1" class="node">
<title>IO::Special</title>
<g id="a_node1"><a xlink:href="/type/IO::Special" xlink:title="IO::Special">
<ellipse fill="none" stroke="#000000" cx="65.6" cy="-18" rx="59.29" ry="18"/>
<text text-anchor="middle" x="65.6" y="-14.3" font-family="FreeSans" font-size="14.00" fill="#000000">IO::Special</text>
</a>
</g>
</g>
<!-- Any -->
<g id="node3" class="node">
<title>Any</title>
<g id="a_node3"><a xlink:href="/type/Any" xlink:title="Any">
<ellipse fill="none" stroke="#000000" cx="28.6" cy="-90" rx="28.7" ry="18"/>
<text text-anchor="middle" x="28.6" y="-86.3" font-family="FreeSans" font-size="14.00" fill="#000000">Any</text>
</a>
</g>
</g>
<!-- IO::Special&#45;&gt;Any -->
<g id="edge1" class="edge">
<title>IO::Special&#45;&gt;Any</title>
<path fill="none" stroke="#000000" d="M56.64,-35.95C52.26,-44.23 46.9,-54.38 42.04,-63.58"/>
<polygon fill="#000000" stroke="#000000" points="38.8,-62.22 37.22,-72.69 44.98,-65.49 38.8,-62.22"/>
</g>
<!-- IO -->
<g id="node4" class="node">
<title>IO</title>
<g id="a_node4"><a xlink:href="/type/IO" xlink:title="IO">
<ellipse fill="none" stroke="#6666ff" cx="102.6" cy="-90" rx="27" ry="18"/>
<text text-anchor="middle" x="102.6" y="-86.3" font-family="FreeSans" font-size="14.00" fill="#6666ff">IO</text>
</a>
</g>
</g>
<!-- IO::Special&#45;&gt;IO -->
<g id="edge3" class="edge">
<title>IO::Special&#45;&gt;IO</title>
<path fill="none" stroke="#6666ff" d="M74.55,-35.95C78.94,-44.23 84.3,-54.38 89.16,-63.58"/>
<polygon fill="#6666ff" stroke="#6666ff" points="86.21,-65.49 93.98,-72.69 92.4,-62.22 86.21,-65.49"/>
</g>
<!-- Mu -->
<g id="node2" class="node">
<title>Mu</title>
<g id="a_node2"><a xlink:href="/type/Mu" xlink:title="Mu">
<ellipse fill="none" stroke="#000000" cx="28.6" cy="-162" rx="27" ry="18"/>
<text text-anchor="middle" x="28.6" y="-158.3" font-family="FreeSans" font-size="14.00" fill="#000000">Mu</text>
</a>
</g>
</g>
<!-- Any&#45;&gt;Mu -->
<g id="edge2" class="edge">
<title>Any&#45;&gt;Mu</title>
<path fill="none" stroke="#000000" d="M28.6,-108.3C28.6,-116.02 28.6,-125.29 28.6,-133.89"/>
<polygon fill="#000000" stroke="#000000" points="25.1,-133.9 28.6,-143.9 32.1,-133.9 25.1,-133.9"/>
</g>
</g>
</svg>
