<?xml version="1.0" encoding="UTF-8" standalone="no"?>
<!DOCTYPE svg PUBLIC "-//W3C//DTD SVG 1.1//EN"
 "http://www.w3.org/Graphics/SVG/1.1/DTD/svg11.dtd">
<!-- Generated by graphviz version 2.42.3 (0)
 -->
<!-- Title: perl6&#45;type&#45;graph Pages: 1 -->
<svg width="261pt" height="332pt"
 viewBox="0.00 0.00 261.48 332.00" xmlns="http://www.w3.org/2000/svg" xmlns:xlink="http://www.w3.org/1999/xlink">
<g id="graph0" class="graph" transform="scale(1 1) rotate(0) translate(4 328)">
<title>perl6&#45;type&#45;graph</title>
<polygon fill="white" stroke="transparent" points="-4,4 -4,-328 257.48,-328 257.48,4 -4,4"/>
<!-- X::Parameter::InvalidType -->
<g id="node1" class="node">
<title>X::Parameter::InvalidType</title>
<g id="a_node1"><a xlink:href="/type/X::Parameter::InvalidType" xlink:title="X::Parameter::InvalidType">
<ellipse fill="none" stroke="#000000" cx="126.74" cy="-18" rx="126.98" ry="18"/>
<text text-anchor="middle" x="126.74" y="-14.3" font-family="FreeSans" font-size="14.00" fill="#000000">X::Parameter::InvalidType</text>
</a>
</g>
</g>
<!-- Exception -->
<g id="node4" class="node">
<title>Exception</title>
<g id="a_node4"><a xlink:href="/type/Exception" xlink:title="Exception">
<ellipse fill="none" stroke="#000000" cx="126.74" cy="-162" rx="55.49" ry="18"/>
<text text-anchor="middle" x="126.74" y="-158.3" font-family="FreeSans" font-size="14.00" fill="#000000">Exception</text>
</a>
</g>
</g>
<!-- X::Parameter::InvalidType&#45;&gt;Exception -->
<g id="edge1" class="edge">
<title>X::Parameter::InvalidType&#45;&gt;Exception</title>
<path fill="none" stroke="#000000" d="M120.62,-36.06C115.07,-51.55 107.74,-72 107.74,-72 107.74,-72 107.74,-108 107.74,-108 107.74,-108 112.48,-121.24 117.23,-134.48"/>
<polygon fill="#000000" stroke="#000000" points="113.95,-135.71 120.62,-143.94 120.54,-133.34 113.95,-135.71"/>
</g>
<!-- X::Comp -->
<g id="node5" class="node">
<title>X::Comp</title>
<g id="a_node5"><a xlink:href="/type/X::Comp" xlink:title="X::Comp">
<ellipse fill="none" stroke="#6666ff" cx="165.74" cy="-90" rx="49.29" ry="18"/>
<text text-anchor="middle" x="165.74" y="-86.3" font-family="FreeSans" font-size="14.00" fill="#6666ff">X::Comp</text>
</a>
</g>
</g>
<!-- X::Parameter::InvalidType&#45;&gt;X::Comp -->
<g id="edge5" class="edge">
<title>X::Parameter::InvalidType&#45;&gt;X::Comp</title>
<path fill="none" stroke="#6666ff" d="M136.38,-36.3C140.87,-44.36 146.3,-54.11 151.26,-63.02"/>
<polygon fill="#6666ff" stroke="#6666ff" points="148.28,-64.86 156.21,-71.9 154.4,-61.46 148.28,-64.86"/>
</g>
<!-- Mu -->
<g id="node2" class="node">
<title>Mu</title>
<g id="a_node2"><a xlink:href="/type/Mu" xlink:title="Mu">
<ellipse fill="none" stroke="#000000" cx="126.74" cy="-306" rx="27" ry="18"/>
<text text-anchor="middle" x="126.74" y="-302.3" font-family="FreeSans" font-size="14.00" fill="#000000">Mu</text>
</a>
</g>
</g>
<!-- Any -->
<g id="node3" class="node">
<title>Any</title>
<g id="a_node3"><a xlink:href="/type/Any" xlink:title="Any">
<ellipse fill="none" stroke="#000000" cx="126.74" cy="-234" rx="28.7" ry="18"/>
<text text-anchor="middle" x="126.74" y="-230.3" font-family="FreeSans" font-size="14.00" fill="#000000">Any</text>
</a>
</g>
</g>
<!-- Any&#45;&gt;Mu -->
<g id="edge2" class="edge">
<title>Any&#45;&gt;Mu</title>
<path fill="none" stroke="#000000" d="M126.74,-252.3C126.74,-260.02 126.74,-269.29 126.74,-277.89"/>
<polygon fill="#000000" stroke="#000000" points="123.24,-277.9 126.74,-287.9 130.24,-277.9 123.24,-277.9"/>
</g>
<!-- Exception&#45;&gt;Any -->
<g id="edge3" class="edge">
<title>Exception&#45;&gt;Any</title>
<path fill="none" stroke="#000000" d="M126.74,-180.3C126.74,-188.02 126.74,-197.29 126.74,-205.89"/>
<polygon fill="#000000" stroke="#000000" points="123.24,-205.9 126.74,-215.9 130.24,-205.9 123.24,-205.9"/>
</g>
<!-- X::Comp&#45;&gt;Exception -->
<g id="edge4" class="edge">
<title>X::Comp&#45;&gt;Exception</title>
<path fill="none" stroke="#000000" d="M156.3,-107.95C151.7,-116.2 146.07,-126.3 140.97,-135.46"/>
<polygon fill="#000000" stroke="#000000" points="137.9,-133.77 136.09,-144.21 144.02,-137.18 137.9,-133.77"/>
</g>
</g>
</svg>
