<?xml version="1.0" encoding="UTF-8" standalone="no"?>
<!DOCTYPE svg PUBLIC "-//W3C//DTD SVG 1.1//EN"
 "http://www.w3.org/Graphics/SVG/1.1/DTD/svg11.dtd">
<!-- Generated by graphviz version 2.42.3 (0)
 -->
<!-- Title: perl6&#45;type&#45;graph Pages: 1 -->
<svg width="369pt" height="404pt"
 viewBox="0.00 0.00 369.37 404.00" xmlns="http://www.w3.org/2000/svg" xmlns:xlink="http://www.w3.org/1999/xlink">
<g id="graph0" class="graph" transform="scale(1 1) rotate(0) translate(4 400)">
<title>perl6&#45;type&#45;graph</title>
<polygon fill="white" stroke="transparent" points="-4,4 -4,-400 365.37,-400 365.37,4 -4,4"/>
<!-- X::Backslash::UnrecognizedSequence -->
<g id="node1" class="node">
<title>X::Backslash::UnrecognizedSequence</title>
<g id="a_node1"><a xlink:href="/type/X::Backslash::UnrecognizedSequence" xlink:title="X::Backslash::UnrecognizedSequence">
<ellipse fill="none" stroke="#000000" cx="180.68" cy="-18" rx="180.87" ry="18"/>
<text text-anchor="middle" x="180.68" y="-14.3" font-family="FreeSans" font-size="14.00" fill="#000000">X::Backslash::UnrecognizedSequence</text>
</a>
</g>
</g>
<!-- Exception -->
<g id="node4" class="node">
<title>Exception</title>
<g id="a_node4"><a xlink:href="/type/Exception" xlink:title="Exception">
<ellipse fill="none" stroke="#000000" cx="177.68" cy="-234" rx="55.49" ry="18"/>
<text text-anchor="middle" x="177.68" y="-230.3" font-family="FreeSans" font-size="14.00" fill="#000000">Exception</text>
</a>
</g>
</g>
<!-- X::Backslash::UnrecognizedSequence&#45;&gt;Exception -->
<g id="edge1" class="edge">
<title>X::Backslash::UnrecognizedSequence&#45;&gt;Exception</title>
<path fill="none" stroke="#000000" d="M173.6,-36.06C167.17,-51.55 158.68,-72 158.68,-72 158.68,-72 158.68,-108 158.68,-108 158.68,-108 167.96,-169.01 173.55,-205.78"/>
<polygon fill="#000000" stroke="#000000" points="170.12,-206.52 175.08,-215.88 177.04,-205.47 170.12,-206.52"/>
</g>
<!-- X::Syntax -->
<g id="node6" class="node">
<title>X::Syntax</title>
<g id="a_node6"><a xlink:href="/type/X::Syntax" xlink:title="X::Syntax">
<ellipse fill="none" stroke="#6666ff" cx="221.68" cy="-90" rx="53.89" ry="18"/>
<text text-anchor="middle" x="221.68" y="-86.3" font-family="FreeSans" font-size="14.00" fill="#6666ff">X::Syntax</text>
</a>
</g>
</g>
<!-- X::Backslash::UnrecognizedSequence&#45;&gt;X::Syntax -->
<g id="edge6" class="edge">
<title>X::Backslash::UnrecognizedSequence&#45;&gt;X::Syntax</title>
<path fill="none" stroke="#6666ff" d="M190.82,-36.3C195.54,-44.36 201.25,-54.11 206.47,-63.02"/>
<polygon fill="#6666ff" stroke="#6666ff" points="203.59,-65.04 211.67,-71.9 209.63,-61.5 203.59,-65.04"/>
</g>
<!-- Mu -->
<g id="node2" class="node">
<title>Mu</title>
<g id="a_node2"><a xlink:href="/type/Mu" xlink:title="Mu">
<ellipse fill="none" stroke="#000000" cx="177.68" cy="-378" rx="27" ry="18"/>
<text text-anchor="middle" x="177.68" y="-374.3" font-family="FreeSans" font-size="14.00" fill="#000000">Mu</text>
</a>
</g>
</g>
<!-- Any -->
<g id="node3" class="node">
<title>Any</title>
<g id="a_node3"><a xlink:href="/type/Any" xlink:title="Any">
<ellipse fill="none" stroke="#000000" cx="177.68" cy="-306" rx="28.7" ry="18"/>
<text text-anchor="middle" x="177.68" y="-302.3" font-family="FreeSans" font-size="14.00" fill="#000000">Any</text>
</a>
</g>
</g>
<!-- Any&#45;&gt;Mu -->
<g id="edge2" class="edge">
<title>Any&#45;&gt;Mu</title>
<path fill="none" stroke="#000000" d="M177.68,-324.3C177.68,-332.02 177.68,-341.29 177.68,-349.89"/>
<polygon fill="#000000" stroke="#000000" points="174.18,-349.9 177.68,-359.9 181.18,-349.9 174.18,-349.9"/>
</g>
<!-- Exception&#45;&gt;Any -->
<g id="edge3" class="edge">
<title>Exception&#45;&gt;Any</title>
<path fill="none" stroke="#000000" d="M177.68,-252.3C177.68,-260.02 177.68,-269.29 177.68,-277.89"/>
<polygon fill="#000000" stroke="#000000" points="174.18,-277.9 177.68,-287.9 181.18,-277.9 174.18,-277.9"/>
</g>
<!-- X::Comp -->
<g id="node5" class="node">
<title>X::Comp</title>
<g id="a_node5"><a xlink:href="/type/X::Comp" xlink:title="X::Comp">
<ellipse fill="none" stroke="#6666ff" cx="254.68" cy="-162" rx="49.29" ry="18"/>
<text text-anchor="middle" x="254.68" y="-158.3" font-family="FreeSans" font-size="14.00" fill="#6666ff">X::Comp</text>
</a>
</g>
</g>
<!-- X::Comp&#45;&gt;Exception -->
<g id="edge4" class="edge">
<title>X::Comp&#45;&gt;Exception</title>
<path fill="none" stroke="#000000" d="M237.21,-178.88C227.04,-188.13 214.06,-199.93 202.81,-210.16"/>
<polygon fill="#000000" stroke="#000000" points="200.4,-207.62 195.35,-216.94 205.11,-212.8 200.4,-207.62"/>
</g>
<!-- X::Syntax&#45;&gt;Exception -->
<g id="edge5" class="edge">
<title>X::Syntax&#45;&gt;Exception</title>
<path fill="none" stroke="#000000" d="M213.64,-108.06C206.33,-123.55 196.68,-144 196.68,-144 196.68,-144 189.03,-179.83 183.44,-206.03"/>
<polygon fill="#000000" stroke="#000000" points="180.01,-205.33 181.35,-215.84 186.86,-206.79 180.01,-205.33"/>
</g>
<!-- X::Syntax&#45;&gt;X::Comp -->
<g id="edge7" class="edge">
<title>X::Syntax&#45;&gt;X::Comp</title>
<path fill="none" stroke="#6666ff" d="M229.67,-107.95C233.48,-116.03 238.13,-125.88 242.37,-134.89"/>
<polygon fill="#6666ff" stroke="#6666ff" points="239.34,-136.66 246.77,-144.21 245.67,-133.67 239.34,-136.66"/>
</g>
</g>
</svg>
