<?xml version="1.0" encoding="UTF-8" standalone="no"?>
<!DOCTYPE svg PUBLIC "-//W3C//DTD SVG 1.1//EN"
 "http://www.w3.org/Graphics/SVG/1.1/DTD/svg11.dtd">
<!-- Generated by graphviz version 2.42.3 (0)
 -->
<!-- Title: perl6&#45;type&#45;graph Pages: 1 -->
<svg width="260pt" height="260pt"
 viewBox="0.00 0.00 259.99 260.00" xmlns="http://www.w3.org/2000/svg" xmlns:xlink="http://www.w3.org/1999/xlink">
<g id="graph0" class="graph" transform="scale(1 1) rotate(0) translate(4 256)">
<title>perl6&#45;type&#45;graph</title>
<polygon fill="white" stroke="transparent" points="-4,4 -4,-256 255.99,-256 255.99,4 -4,4"/>
<!-- Telemetry::Period -->
<g id="node1" class="node">
<title>Telemetry::Period</title>
<g id="a_node1"><a xlink:href="/type/Telemetry::Period" xlink:title="Telemetry::Period">
<ellipse fill="none" stroke="#000000" cx="122.25" cy="-18" rx="89.08" ry="18"/>
<text text-anchor="middle" x="122.25" y="-14.3" font-family="FreeSans" font-size="14.00" fill="#000000">Telemetry::Period</text>
</a>
</g>
</g>
<!-- Telemetry -->
<g id="node4" class="node">
<title>Telemetry</title>
<g id="a_node4"><a xlink:href="/type/Telemetry" xlink:title="Telemetry">
<ellipse fill="none" stroke="#000000" cx="55.25" cy="-90" rx="55.49" ry="18"/>
<text text-anchor="middle" x="55.25" y="-86.3" font-family="FreeSans" font-size="14.00" fill="#000000">Telemetry</text>
</a>
</g>
</g>
<!-- Telemetry::Period&#45;&gt;Telemetry -->
<g id="edge1" class="edge">
<title>Telemetry::Period&#45;&gt;Telemetry</title>
<path fill="none" stroke="#000000" d="M106.03,-35.95C97.59,-44.76 87.15,-55.67 77.92,-65.31"/>
<polygon fill="#000000" stroke="#000000" points="75.24,-63.05 70.85,-72.69 80.3,-67.89 75.24,-63.05"/>
</g>
<!-- Associative -->
<g id="node5" class="node">
<title>Associative</title>
<g id="a_node5"><a xlink:href="/type/Associative" xlink:title="Associative">
<ellipse fill="none" stroke="#6666ff" cx="190.25" cy="-90" rx="61.99" ry="18"/>
<text text-anchor="middle" x="190.25" y="-86.3" font-family="FreeSans" font-size="14.00" fill="#6666ff">Associative</text>
</a>
</g>
</g>
<!-- Telemetry::Period&#45;&gt;Associative -->
<g id="edge4" class="edge">
<title>Telemetry::Period&#45;&gt;Associative</title>
<path fill="none" stroke="#6666ff" d="M138.71,-35.95C147.14,-44.63 157.56,-55.36 166.82,-64.89"/>
<polygon fill="#6666ff" stroke="#6666ff" points="164.46,-67.48 173.94,-72.21 169.48,-62.6 164.46,-67.48"/>
</g>
<!-- Mu -->
<g id="node2" class="node">
<title>Mu</title>
<g id="a_node2"><a xlink:href="/type/Mu" xlink:title="Mu">
<ellipse fill="none" stroke="#000000" cx="55.25" cy="-234" rx="27" ry="18"/>
<text text-anchor="middle" x="55.25" y="-230.3" font-family="FreeSans" font-size="14.00" fill="#000000">Mu</text>
</a>
</g>
</g>
<!-- Any -->
<g id="node3" class="node">
<title>Any</title>
<g id="a_node3"><a xlink:href="/type/Any" xlink:title="Any">
<ellipse fill="none" stroke="#000000" cx="55.25" cy="-162" rx="28.7" ry="18"/>
<text text-anchor="middle" x="55.25" y="-158.3" font-family="FreeSans" font-size="14.00" fill="#000000">Any</text>
</a>
</g>
</g>
<!-- Any&#45;&gt;Mu -->
<g id="edge2" class="edge">
<title>Any&#45;&gt;Mu</title>
<path fill="none" stroke="#000000" d="M55.25,-180.3C55.25,-188.02 55.25,-197.29 55.25,-205.89"/>
<polygon fill="#000000" stroke="#000000" points="51.75,-205.9 55.25,-215.9 58.75,-205.9 51.75,-205.9"/>
</g>
<!-- Telemetry&#45;&gt;Any -->
<g id="edge3" class="edge">
<title>Telemetry&#45;&gt;Any</title>
<path fill="none" stroke="#000000" d="M55.25,-108.3C55.25,-116.02 55.25,-125.29 55.25,-133.89"/>
<polygon fill="#000000" stroke="#000000" points="51.75,-133.9 55.25,-143.9 58.75,-133.9 51.75,-133.9"/>
</g>
</g>
</svg>
