<?xml version="1.0" encoding="UTF-8" standalone="no"?>
<!DOCTYPE svg PUBLIC "-//W3C//DTD SVG 1.1//EN"
 "http://www.w3.org/Graphics/SVG/1.1/DTD/svg11.dtd">
<!-- Generated by graphviz version 2.42.3 (0)
 -->
<!-- Title: perl6&#45;type&#45;graph Pages: 1 -->
<svg width="323pt" height="332pt"
 viewBox="0.00 0.00 322.57 332.00" xmlns="http://www.w3.org/2000/svg" xmlns:xlink="http://www.w3.org/1999/xlink">
<g id="graph0" class="graph" transform="scale(1 1) rotate(0) translate(4 328)">
<title>perl6&#45;type&#45;graph</title>
<polygon fill="white" stroke="transparent" points="-4,4 -4,-328 318.57,-328 318.57,4 -4,4"/>
<!-- X::EXPORTHOW::InvalidDirective -->
<g id="node1" class="node">
<title>X::EXPORTHOW::InvalidDirective</title>
<g id="a_node1"><a xlink:href="/type/X::EXPORTHOW::InvalidDirective" xlink:title="X::EXPORTHOW::InvalidDirective">
<ellipse fill="none" stroke="#000000" cx="157.29" cy="-18" rx="157.07" ry="18"/>
<text text-anchor="middle" x="157.29" y="-14.3" font-family="FreeSans" font-size="14.00" fill="#000000">X::EXPORTHOW::InvalidDirective</text>
</a>
</g>
</g>
<!-- Exception -->
<g id="node4" class="node">
<title>Exception</title>
<g id="a_node4"><a xlink:href="/type/Exception" xlink:title="Exception">
<ellipse fill="none" stroke="#000000" cx="157.29" cy="-162" rx="55.49" ry="18"/>
<text text-anchor="middle" x="157.29" y="-158.3" font-family="FreeSans" font-size="14.00" fill="#000000">Exception</text>
</a>
</g>
</g>
<!-- X::EXPORTHOW::InvalidDirective&#45;&gt;Exception -->
<g id="edge1" class="edge">
<title>X::EXPORTHOW::InvalidDirective&#45;&gt;Exception</title>
<path fill="none" stroke="#000000" d="M151.17,-36.06C145.62,-51.55 138.29,-72 138.29,-72 138.29,-72 138.29,-108 138.29,-108 138.29,-108 143.03,-121.24 147.78,-134.48"/>
<polygon fill="#000000" stroke="#000000" points="144.5,-135.71 151.17,-143.94 151.09,-133.34 144.5,-135.71"/>
</g>
<!-- X::Comp -->
<g id="node5" class="node">
<title>X::Comp</title>
<g id="a_node5"><a xlink:href="/type/X::Comp" xlink:title="X::Comp">
<ellipse fill="none" stroke="#6666ff" cx="196.29" cy="-90" rx="49.29" ry="18"/>
<text text-anchor="middle" x="196.29" y="-86.3" font-family="FreeSans" font-size="14.00" fill="#6666ff">X::Comp</text>
</a>
</g>
</g>
<!-- X::EXPORTHOW::InvalidDirective&#45;&gt;X::Comp -->
<g id="edge5" class="edge">
<title>X::EXPORTHOW::InvalidDirective&#45;&gt;X::Comp</title>
<path fill="none" stroke="#6666ff" d="M166.93,-36.3C171.41,-44.36 176.84,-54.11 181.81,-63.02"/>
<polygon fill="#6666ff" stroke="#6666ff" points="178.83,-64.86 186.76,-71.9 184.95,-61.46 178.83,-64.86"/>
</g>
<!-- Mu -->
<g id="node2" class="node">
<title>Mu</title>
<g id="a_node2"><a xlink:href="/type/Mu" xlink:title="Mu">
<ellipse fill="none" stroke="#000000" cx="157.29" cy="-306" rx="27" ry="18"/>
<text text-anchor="middle" x="157.29" y="-302.3" font-family="FreeSans" font-size="14.00" fill="#000000">Mu</text>
</a>
</g>
</g>
<!-- Any -->
<g id="node3" class="node">
<title>Any</title>
<g id="a_node3"><a xlink:href="/type/Any" xlink:title="Any">
<ellipse fill="none" stroke="#000000" cx="157.29" cy="-234" rx="28.7" ry="18"/>
<text text-anchor="middle" x="157.29" y="-230.3" font-family="FreeSans" font-size="14.00" fill="#000000">Any</text>
</a>
</g>
</g>
<!-- Any&#45;&gt;Mu -->
<g id="edge2" class="edge">
<title>Any&#45;&gt;Mu</title>
<path fill="none" stroke="#000000" d="M157.29,-252.3C157.29,-260.02 157.29,-269.29 157.29,-277.89"/>
<polygon fill="#000000" stroke="#000000" points="153.79,-277.9 157.29,-287.9 160.79,-277.9 153.79,-277.9"/>
</g>
<!-- Exception&#45;&gt;Any -->
<g id="edge3" class="edge">
<title>Exception&#45;&gt;Any</title>
<path fill="none" stroke="#000000" d="M157.29,-180.3C157.29,-188.02 157.29,-197.29 157.29,-205.89"/>
<polygon fill="#000000" stroke="#000000" points="153.79,-205.9 157.29,-215.9 160.79,-205.9 153.79,-205.9"/>
</g>
<!-- X::Comp&#45;&gt;Exception -->
<g id="edge4" class="edge">
<title>X::Comp&#45;&gt;Exception</title>
<path fill="none" stroke="#000000" d="M186.85,-107.95C182.25,-116.2 176.62,-126.3 171.51,-135.46"/>
<polygon fill="#000000" stroke="#000000" points="168.45,-133.77 166.64,-144.21 174.56,-137.18 168.45,-133.77"/>
</g>
</g>
</svg>
