<?xml version="1.0" encoding="UTF-8" standalone="no"?>
<!DOCTYPE svg PUBLIC "-//W3C//DTD SVG 1.1//EN"
 "http://www.w3.org/Graphics/SVG/1.1/DTD/svg11.dtd">
<!-- Generated by graphviz version 2.42.3 (0)
 -->
<!-- Title: perl6&#45;type&#45;graph Pages: 1 -->
<svg width="176pt" height="404pt"
 viewBox="0.00 0.00 175.74 404.00" xmlns="http://www.w3.org/2000/svg" xmlns:xlink="http://www.w3.org/1999/xlink">
<g id="graph0" class="graph" transform="scale(1 1) rotate(0) translate(4 400)">
<title>perl6&#45;type&#45;graph</title>
<polygon fill="white" stroke="transparent" points="-4,4 -4,-400 171.74,-400 171.74,4 -4,4"/>
<!-- Submethod -->
<g id="node1" class="node">
<title>Submethod</title>
<g id="a_node1"><a xlink:href="/type/Submethod" xlink:title="Submethod">
<ellipse fill="none" stroke="#000000" cx="74.6" cy="-18" rx="63.09" ry="18"/>
<text text-anchor="middle" x="74.6" y="-14.3" font-family="FreeSans" font-size="14.00" fill="#000000">Submethod</text>
</a>
</g>
</g>
<!-- Routine -->
<g id="node7" class="node">
<title>Routine</title>
<g id="a_node7"><a xlink:href="/type/Routine" xlink:title="Routine">
<ellipse fill="none" stroke="#000000" cx="74.6" cy="-90" rx="45.49" ry="18"/>
<text text-anchor="middle" x="74.6" y="-86.3" font-family="FreeSans" font-size="14.00" fill="#000000">Routine</text>
</a>
</g>
</g>
<!-- Submethod&#45;&gt;Routine -->
<g id="edge1" class="edge">
<title>Submethod&#45;&gt;Routine</title>
<path fill="none" stroke="#000000" d="M74.6,-36.3C74.6,-44.02 74.6,-53.29 74.6,-61.89"/>
<polygon fill="#000000" stroke="#000000" points="71.1,-61.9 74.6,-71.9 78.1,-61.9 71.1,-61.9"/>
</g>
<!-- Mu -->
<g id="node2" class="node">
<title>Mu</title>
<g id="a_node2"><a xlink:href="/type/Mu" xlink:title="Mu">
<ellipse fill="none" stroke="#000000" cx="28.6" cy="-378" rx="27" ry="18"/>
<text text-anchor="middle" x="28.6" y="-374.3" font-family="FreeSans" font-size="14.00" fill="#000000">Mu</text>
</a>
</g>
</g>
<!-- Any -->
<g id="node3" class="node">
<title>Any</title>
<g id="a_node3"><a xlink:href="/type/Any" xlink:title="Any">
<ellipse fill="none" stroke="#000000" cx="28.6" cy="-306" rx="28.7" ry="18"/>
<text text-anchor="middle" x="28.6" y="-302.3" font-family="FreeSans" font-size="14.00" fill="#000000">Any</text>
</a>
</g>
</g>
<!-- Any&#45;&gt;Mu -->
<g id="edge2" class="edge">
<title>Any&#45;&gt;Mu</title>
<path fill="none" stroke="#000000" d="M28.6,-324.3C28.6,-332.02 28.6,-341.29 28.6,-349.89"/>
<polygon fill="#000000" stroke="#000000" points="25.1,-349.9 28.6,-359.9 32.1,-349.9 25.1,-349.9"/>
</g>
<!-- Callable -->
<g id="node4" class="node">
<title>Callable</title>
<g id="a_node4"><a xlink:href="/type/Callable" xlink:title="Callable">
<ellipse fill="none" stroke="#6666ff" cx="121.6" cy="-306" rx="46.29" ry="18"/>
<text text-anchor="middle" x="121.6" y="-302.3" font-family="FreeSans" font-size="14.00" fill="#6666ff">Callable</text>
</a>
</g>
</g>
<!-- Code -->
<g id="node5" class="node">
<title>Code</title>
<g id="a_node5"><a xlink:href="/type/Code" xlink:title="Code">
<ellipse fill="none" stroke="#000000" cx="74.6" cy="-234" rx="33.6" ry="18"/>
<text text-anchor="middle" x="74.6" y="-230.3" font-family="FreeSans" font-size="14.00" fill="#000000">Code</text>
</a>
</g>
</g>
<!-- Code&#45;&gt;Any -->
<g id="edge3" class="edge">
<title>Code&#45;&gt;Any</title>
<path fill="none" stroke="#000000" d="M63.93,-251.24C58.24,-259.89 51.12,-270.73 44.77,-280.4"/>
<polygon fill="#000000" stroke="#000000" points="41.78,-278.57 39.21,-288.85 47.63,-282.42 41.78,-278.57"/>
</g>
<!-- Code&#45;&gt;Callable -->
<g id="edge6" class="edge">
<title>Code&#45;&gt;Callable</title>
<path fill="none" stroke="#6666ff" d="M85.5,-251.24C91.23,-259.77 98.38,-270.42 104.8,-279.98"/>
<polygon fill="#6666ff" stroke="#6666ff" points="101.95,-282.02 110.43,-288.37 107.76,-278.11 101.95,-282.02"/>
</g>
<!-- Block -->
<g id="node6" class="node">
<title>Block</title>
<g id="a_node6"><a xlink:href="/type/Block" xlink:title="Block">
<ellipse fill="none" stroke="#000000" cx="74.6" cy="-162" rx="35.19" ry="18"/>
<text text-anchor="middle" x="74.6" y="-158.3" font-family="FreeSans" font-size="14.00" fill="#000000">Block</text>
</a>
</g>
</g>
<!-- Block&#45;&gt;Code -->
<g id="edge4" class="edge">
<title>Block&#45;&gt;Code</title>
<path fill="none" stroke="#000000" d="M74.6,-180.3C74.6,-188.02 74.6,-197.29 74.6,-205.89"/>
<polygon fill="#000000" stroke="#000000" points="71.1,-205.9 74.6,-215.9 78.1,-205.9 71.1,-205.9"/>
</g>
<!-- Routine&#45;&gt;Block -->
<g id="edge5" class="edge">
<title>Routine&#45;&gt;Block</title>
<path fill="none" stroke="#000000" d="M74.6,-108.3C74.6,-116.02 74.6,-125.29 74.6,-133.89"/>
<polygon fill="#000000" stroke="#000000" points="71.1,-133.9 74.6,-143.9 78.1,-133.9 71.1,-133.9"/>
</g>
</g>
</svg>
