<?xml version="1.0" encoding="UTF-8" standalone="no"?>
<!DOCTYPE svg PUBLIC "-//W3C//DTD SVG 1.1//EN"
 "http://www.w3.org/Graphics/SVG/1.1/DTD/svg11.dtd">
<!-- Generated by graphviz version 2.42.3 (0)
 -->
<!-- Title: perl6&#45;type&#45;graph Pages: 1 -->
<svg width="291pt" height="404pt"
 viewBox="0.00 0.00 291.24 404.00" xmlns="http://www.w3.org/2000/svg" xmlns:xlink="http://www.w3.org/1999/xlink">
<g id="graph0" class="graph" transform="scale(1 1) rotate(0) translate(4 400)">
<title>perl6&#45;type&#45;graph</title>
<polygon fill="white" stroke="transparent" points="-4,4 -4,-400 287.24,-400 287.24,4 -4,4"/>
<!-- X::Syntax::Name::Null -->
<g id="node1" class="node">
<title>X::Syntax::Name::Null</title>
<g id="a_node1"><a xlink:href="/type/X::Syntax::Name::Null" xlink:title="X::Syntax::Name::Null">
<ellipse fill="none" stroke="#000000" cx="109.84" cy="-18" rx="109.68" ry="18"/>
<text text-anchor="middle" x="109.84" y="-14.3" font-family="FreeSans" font-size="14.00" fill="#000000">X::Syntax::Name::Null</text>
</a>
</g>
</g>
<!-- Exception -->
<g id="node4" class="node">
<title>Exception</title>
<g id="a_node4"><a xlink:href="/type/Exception" xlink:title="Exception">
<ellipse fill="none" stroke="#000000" cx="132.84" cy="-234" rx="55.49" ry="18"/>
<text text-anchor="middle" x="132.84" y="-230.3" font-family="FreeSans" font-size="14.00" fill="#000000">Exception</text>
</a>
</g>
</g>
<!-- X::Syntax::Name::Null&#45;&gt;Exception -->
<g id="edge1" class="edge">
<title>X::Syntax::Name::Null&#45;&gt;Exception</title>
<path fill="none" stroke="#000000" d="M107.81,-36.15C108.25,-73.34 117.48,-161.63 125.31,-206.23"/>
<polygon fill="#000000" stroke="#000000" points="121.87,-206.88 127.16,-216.06 128.75,-205.59 121.87,-206.88"/>
</g>
<!-- X::Syntax::Name::Null&#45;&gt;Exception -->
<g id="edge2" class="edge">
<title>X::Syntax::Name::Null&#45;&gt;Exception</title>
<path fill="none" stroke="#000000" d="M115.56,-36.15C123.08,-73.17 132.77,-160.82 134.59,-205.61"/>
<polygon fill="#000000" stroke="#000000" points="131.09,-205.87 134.87,-215.77 138.09,-205.67 131.09,-205.87"/>
</g>
<!-- X::Syntax -->
<g id="node6" class="node">
<title>X::Syntax</title>
<g id="a_node6"><a xlink:href="/type/X::Syntax" xlink:title="X::Syntax">
<ellipse fill="none" stroke="#6666ff" cx="200.84" cy="-90" rx="53.89" ry="18"/>
<text text-anchor="middle" x="200.84" y="-86.3" font-family="FreeSans" font-size="14.00" fill="#6666ff">X::Syntax</text>
</a>
</g>
</g>
<!-- X::Syntax::Name::Null&#45;&gt;X::Syntax -->
<g id="edge7" class="edge">
<title>X::Syntax::Name::Null&#45;&gt;X::Syntax</title>
<path fill="none" stroke="#6666ff" d="M131.87,-35.95C143.95,-45.24 159.07,-56.87 172.08,-66.87"/>
<polygon fill="#6666ff" stroke="#6666ff" points="170.2,-69.85 180.26,-73.17 174.47,-64.3 170.2,-69.85"/>
</g>
<!-- Mu -->
<g id="node2" class="node">
<title>Mu</title>
<g id="a_node2"><a xlink:href="/type/Mu" xlink:title="Mu">
<ellipse fill="none" stroke="#000000" cx="132.84" cy="-378" rx="27" ry="18"/>
<text text-anchor="middle" x="132.84" y="-374.3" font-family="FreeSans" font-size="14.00" fill="#000000">Mu</text>
</a>
</g>
</g>
<!-- Any -->
<g id="node3" class="node">
<title>Any</title>
<g id="a_node3"><a xlink:href="/type/Any" xlink:title="Any">
<ellipse fill="none" stroke="#000000" cx="132.84" cy="-306" rx="28.7" ry="18"/>
<text text-anchor="middle" x="132.84" y="-302.3" font-family="FreeSans" font-size="14.00" fill="#000000">Any</text>
</a>
</g>
</g>
<!-- Any&#45;&gt;Mu -->
<g id="edge3" class="edge">
<title>Any&#45;&gt;Mu</title>
<path fill="none" stroke="#000000" d="M132.84,-324.3C132.84,-332.02 132.84,-341.29 132.84,-349.89"/>
<polygon fill="#000000" stroke="#000000" points="129.34,-349.9 132.84,-359.9 136.34,-349.9 129.34,-349.9"/>
</g>
<!-- Exception&#45;&gt;Any -->
<g id="edge4" class="edge">
<title>Exception&#45;&gt;Any</title>
<path fill="none" stroke="#000000" d="M132.84,-252.3C132.84,-260.02 132.84,-269.29 132.84,-277.89"/>
<polygon fill="#000000" stroke="#000000" points="129.34,-277.9 132.84,-287.9 136.34,-277.9 129.34,-277.9"/>
</g>
<!-- X::Comp -->
<g id="node5" class="node">
<title>X::Comp</title>
<g id="a_node5"><a xlink:href="/type/X::Comp" xlink:title="X::Comp">
<ellipse fill="none" stroke="#6666ff" cx="233.84" cy="-162" rx="49.29" ry="18"/>
<text text-anchor="middle" x="233.84" y="-158.3" font-family="FreeSans" font-size="14.00" fill="#6666ff">X::Comp</text>
</a>
</g>
</g>
<!-- X::Comp&#45;&gt;Exception -->
<g id="edge5" class="edge">
<title>X::Comp&#45;&gt;Exception</title>
<path fill="none" stroke="#000000" d="M211.92,-178.19C197.83,-187.96 179.3,-200.8 163.72,-211.6"/>
<polygon fill="#000000" stroke="#000000" points="161.64,-208.78 155.41,-217.36 165.63,-214.54 161.64,-208.78"/>
</g>
<!-- X::Syntax&#45;&gt;Exception -->
<g id="edge6" class="edge">
<title>X::Syntax&#45;&gt;Exception</title>
<path fill="none" stroke="#000000" d="M192.77,-107.85C181.01,-132.4 159.07,-178.23 145.25,-207.09"/>
<polygon fill="#000000" stroke="#000000" points="142.06,-205.64 140.9,-216.18 148.37,-208.67 142.06,-205.64"/>
</g>
<!-- X::Syntax&#45;&gt;X::Comp -->
<g id="edge8" class="edge">
<title>X::Syntax&#45;&gt;X::Comp</title>
<path fill="none" stroke="#6666ff" d="M208.83,-107.95C212.64,-116.03 217.28,-125.88 221.53,-134.89"/>
<polygon fill="#6666ff" stroke="#6666ff" points="218.5,-136.66 225.93,-144.21 224.83,-133.67 218.5,-136.66"/>
</g>
</g>
</svg>
