<?xml version="1.0" encoding="UTF-8" standalone="no"?>
<!DOCTYPE svg PUBLIC "-//W3C//DTD SVG 1.1//EN"
 "http://www.w3.org/Graphics/SVG/1.1/DTD/svg11.dtd">
<!-- Generated by graphviz version 2.42.3 (0)
 -->
<!-- Title: perl6&#45;type&#45;graph Pages: 1 -->
<svg width="296pt" height="260pt"
 viewBox="0.00 0.00 296.14 260.00" xmlns="http://www.w3.org/2000/svg" xmlns:xlink="http://www.w3.org/1999/xlink">
<g id="graph0" class="graph" transform="scale(1 1) rotate(0) translate(4 256)">
<title>perl6&#45;type&#45;graph</title>
<polygon fill="white" stroke="transparent" points="-4,4 -4,-256 292.14,-256 292.14,4 -4,4"/>
<!-- NFKD -->
<g id="node1" class="node">
<title>NFKD</title>
<g id="a_node1"><a xlink:href="/type/NFKD" xlink:title="NFKD">
<ellipse fill="none" stroke="#000000" cx="129.6" cy="-18" rx="36" ry="18"/>
<text text-anchor="middle" x="129.6" y="-14.3" font-family="FreeSans" font-size="14.00" fill="#000000">NFKD</text>
</a>
</g>
</g>
<!-- Uni -->
<g id="node6" class="node">
<title>Uni</title>
<g id="a_node6"><a xlink:href="/type/Uni" xlink:title="Uni">
<ellipse fill="none" stroke="#000000" cx="129.6" cy="-90" rx="27" ry="18"/>
<text text-anchor="middle" x="129.6" y="-86.3" font-family="FreeSans" font-size="14.00" fill="#000000">Uni</text>
</a>
</g>
</g>
<!-- NFKD&#45;&gt;Uni -->
<g id="edge1" class="edge">
<title>NFKD&#45;&gt;Uni</title>
<path fill="none" stroke="#000000" d="M129.6,-36.3C129.6,-44.02 129.6,-53.29 129.6,-61.89"/>
<polygon fill="#000000" stroke="#000000" points="126.1,-61.9 129.6,-71.9 133.1,-61.9 126.1,-61.9"/>
</g>
<!-- Mu -->
<g id="node2" class="node">
<title>Mu</title>
<g id="a_node2"><a xlink:href="/type/Mu" xlink:title="Mu">
<ellipse fill="none" stroke="#000000" cx="28.6" cy="-234" rx="27" ry="18"/>
<text text-anchor="middle" x="28.6" y="-230.3" font-family="FreeSans" font-size="14.00" fill="#000000">Mu</text>
</a>
</g>
</g>
<!-- Any -->
<g id="node3" class="node">
<title>Any</title>
<g id="a_node3"><a xlink:href="/type/Any" xlink:title="Any">
<ellipse fill="none" stroke="#000000" cx="28.6" cy="-162" rx="28.7" ry="18"/>
<text text-anchor="middle" x="28.6" y="-158.3" font-family="FreeSans" font-size="14.00" fill="#000000">Any</text>
</a>
</g>
</g>
<!-- Any&#45;&gt;Mu -->
<g id="edge2" class="edge">
<title>Any&#45;&gt;Mu</title>
<path fill="none" stroke="#000000" d="M28.6,-180.3C28.6,-188.02 28.6,-197.29 28.6,-205.89"/>
<polygon fill="#000000" stroke="#000000" points="25.1,-205.9 28.6,-215.9 32.1,-205.9 25.1,-205.9"/>
</g>
<!-- Positional -->
<g id="node4" class="node">
<title>Positional</title>
<g id="a_node4"><a xlink:href="/type/Positional" xlink:title="Positional">
<ellipse fill="none" stroke="#6666ff" cx="129.6" cy="-162" rx="53.89" ry="18"/>
<text text-anchor="middle" x="129.6" y="-158.3" font-family="FreeSans" font-size="14.00" fill="#6666ff">Positional</text>
</a>
</g>
</g>
<!-- Stringy -->
<g id="node5" class="node">
<title>Stringy</title>
<g id="a_node5"><a xlink:href="/type/Stringy" xlink:title="Stringy">
<ellipse fill="none" stroke="#6666ff" cx="244.6" cy="-162" rx="43.59" ry="18"/>
<text text-anchor="middle" x="244.6" y="-158.3" font-family="FreeSans" font-size="14.00" fill="#6666ff">Stringy</text>
</a>
</g>
</g>
<!-- Uni&#45;&gt;Any -->
<g id="edge3" class="edge">
<title>Uni&#45;&gt;Any</title>
<path fill="none" stroke="#000000" d="M111.54,-103.51C95.94,-114.33 73.17,-130.11 55.43,-142.4"/>
<polygon fill="#000000" stroke="#000000" points="53.41,-139.55 47.18,-148.12 57.39,-145.3 53.41,-139.55"/>
</g>
<!-- Uni&#45;&gt;Positional -->
<g id="edge4" class="edge">
<title>Uni&#45;&gt;Positional</title>
<path fill="none" stroke="#6666ff" d="M129.6,-108.3C129.6,-116.02 129.6,-125.29 129.6,-133.89"/>
<polygon fill="#6666ff" stroke="#6666ff" points="126.1,-133.9 129.6,-143.9 133.1,-133.9 126.1,-133.9"/>
</g>
<!-- Uni&#45;&gt;Stringy -->
<g id="edge5" class="edge">
<title>Uni&#45;&gt;Stringy</title>
<path fill="none" stroke="#6666ff" d="M148.85,-102.72C166.11,-113.23 191.8,-128.86 212.22,-141.29"/>
<polygon fill="#6666ff" stroke="#6666ff" points="210.54,-144.37 220.9,-146.58 214.18,-138.39 210.54,-144.37"/>
</g>
</g>
</svg>
