<?xml version="1.0" encoding="UTF-8" standalone="no"?>
<!DOCTYPE svg PUBLIC "-//W3C//DTD SVG 1.1//EN"
 "http://www.w3.org/Graphics/SVG/1.1/DTD/svg11.dtd">
<!-- Generated by graphviz version 2.42.3 (0)
 -->
<!-- Title: perl6&#45;type&#45;graph Pages: 1 -->
<svg width="579pt" height="78pt"
 viewBox="0.00 0.00 578.85 78.17" xmlns="http://www.w3.org/2000/svg" xmlns:xlink="http://www.w3.org/1999/xlink">
<g id="graph0" class="graph" transform="scale(1 1) rotate(0) translate(4 74.17)">
<title>perl6&#45;type&#45;graph</title>
<polygon fill="white" stroke="transparent" points="-4,4 -4,-74.17 574.85,-74.17 574.85,4 -4,4"/>
<!-- Metamodel::ContainerDescriptor -->
<g id="node1" class="node">
<title>Metamodel::ContainerDescriptor</title>
<g id="a_node1"><a xlink:href="/type/Metamodel::ContainerDescriptor" xlink:title="Metamodel::ContainerDescriptor">
<ellipse fill="none" stroke="#000000" cx="157.29" cy="-44.31" rx="157.07" ry="18"/>
<text text-anchor="middle" x="157.29" y="-40.61" font-family="FreeSans" font-size="14.00" fill="#000000">Metamodel::ContainerDescriptor</text>
</a>
</g>
</g>
<!-- Any -->
<g id="node3" class="node">
<title>Any</title>
<g id="a_node3"><a xlink:href="/type/Any" xlink:title="Any">
<ellipse fill="none" stroke="#000000" cx="351.19" cy="-18" rx="28.7" ry="18"/>
<text text-anchor="middle" x="351.19" y="-14.3" font-family="FreeSans" font-size="14.00" fill="#000000">Any</text>
</a>
</g>
</g>
<!-- Metamodel::ContainerDescriptor&#45;&gt;Any -->
<g id="edge1" class="edge">
<title>Metamodel::ContainerDescriptor&#45;&gt;Any</title>
<path fill="none" stroke="#000000" d="M258.78,-30.54C277.99,-27.93 296.96,-25.36 312.67,-23.23"/>
<polygon fill="#000000" stroke="#000000" points="313.54,-26.64 322.98,-21.83 312.6,-19.7 313.54,-26.64"/>
</g>
<!-- Mu -->
<g id="node2" class="node">
<title>Mu</title>
<g id="a_node2"><a xlink:href="/type/Mu" xlink:title="Mu">
<ellipse fill="none" stroke="#000000" cx="543.85" cy="-52.17" rx="27" ry="18"/>
<text text-anchor="middle" x="543.85" y="-48.47" font-family="FreeSans" font-size="14.00" fill="#000000">Mu</text>
</a>
</g>
</g>
<!-- Any&#45;&gt;Mu -->
<g id="edge2" class="edge">
<title>Any&#45;&gt;Mu</title>
<path fill="none" stroke="#000000" d="M378.79,-22.9C412.65,-28.9 470.14,-39.1 507.55,-45.73"/>
<polygon fill="#000000" stroke="#000000" points="507.07,-49.2 517.53,-47.5 508.3,-42.31 507.07,-49.2"/>
</g>
</g>
</svg>
