<?xml version="1.0" encoding="UTF-8" standalone="no"?>
<!DOCTYPE svg PUBLIC "-//W3C//DTD SVG 1.1//EN"
 "http://www.w3.org/Graphics/SVG/1.1/DTD/svg11.dtd">
<!-- Generated by graphviz version 2.42.3 (0)
 -->
<!-- Title: perl6&#45;type&#45;graph Pages: 1 -->
<svg width="377pt" height="404pt"
 viewBox="0.00 0.00 377.17 404.00" xmlns="http://www.w3.org/2000/svg" xmlns:xlink="http://www.w3.org/1999/xlink">
<g id="graph0" class="graph" transform="scale(1 1) rotate(0) translate(4 400)">
<title>perl6&#45;type&#45;graph</title>
<polygon fill="white" stroke="transparent" points="-4,4 -4,-400 373.17,-400 373.17,4 -4,4"/>
<!-- X::Syntax::Regex::SpacesInBareRange -->
<g id="node1" class="node">
<title>X::Syntax::Regex::SpacesInBareRange</title>
<g id="a_node1"><a xlink:href="/type/X::Syntax::Regex::SpacesInBareRange" xlink:title="X::Syntax::Regex::SpacesInBareRange">
<ellipse fill="none" stroke="#000000" cx="184.58" cy="-18" rx="184.67" ry="18"/>
<text text-anchor="middle" x="184.58" y="-14.3" font-family="FreeSans" font-size="14.00" fill="#000000">X::Syntax::Regex::SpacesInBareRange</text>
</a>
</g>
</g>
<!-- Exception -->
<g id="node4" class="node">
<title>Exception</title>
<g id="a_node4"><a xlink:href="/type/Exception" xlink:title="Exception">
<ellipse fill="none" stroke="#000000" cx="207.58" cy="-234" rx="55.49" ry="18"/>
<text text-anchor="middle" x="207.58" y="-230.3" font-family="FreeSans" font-size="14.00" fill="#000000">Exception</text>
</a>
</g>
</g>
<!-- X::Syntax::Regex::SpacesInBareRange&#45;&gt;Exception -->
<g id="edge1" class="edge">
<title>X::Syntax::Regex::SpacesInBareRange&#45;&gt;Exception</title>
<path fill="none" stroke="#000000" d="M182.55,-36.15C182.99,-73.34 192.23,-161.63 200.06,-206.23"/>
<polygon fill="#000000" stroke="#000000" points="196.62,-206.88 201.91,-216.06 203.5,-205.59 196.62,-206.88"/>
</g>
<!-- X::Syntax::Regex::SpacesInBareRange&#45;&gt;Exception -->
<g id="edge2" class="edge">
<title>X::Syntax::Regex::SpacesInBareRange&#45;&gt;Exception</title>
<path fill="none" stroke="#000000" d="M190.3,-36.15C197.82,-73.17 207.51,-160.82 209.33,-205.61"/>
<polygon fill="#000000" stroke="#000000" points="205.84,-205.87 209.62,-215.77 212.84,-205.67 205.84,-205.87"/>
</g>
<!-- X::Syntax -->
<g id="node6" class="node">
<title>X::Syntax</title>
<g id="a_node6"><a xlink:href="/type/X::Syntax" xlink:title="X::Syntax">
<ellipse fill="none" stroke="#6666ff" cx="275.58" cy="-90" rx="53.89" ry="18"/>
<text text-anchor="middle" x="275.58" y="-86.3" font-family="FreeSans" font-size="14.00" fill="#6666ff">X::Syntax</text>
</a>
</g>
</g>
<!-- X::Syntax::Regex::SpacesInBareRange&#45;&gt;X::Syntax -->
<g id="edge7" class="edge">
<title>X::Syntax::Regex::SpacesInBareRange&#45;&gt;X::Syntax</title>
<path fill="none" stroke="#6666ff" d="M206.61,-35.95C218.69,-45.24 233.82,-56.87 246.82,-66.87"/>
<polygon fill="#6666ff" stroke="#6666ff" points="244.95,-69.85 255.01,-73.17 249.21,-64.3 244.95,-69.85"/>
</g>
<!-- Mu -->
<g id="node2" class="node">
<title>Mu</title>
<g id="a_node2"><a xlink:href="/type/Mu" xlink:title="Mu">
<ellipse fill="none" stroke="#000000" cx="207.58" cy="-378" rx="27" ry="18"/>
<text text-anchor="middle" x="207.58" y="-374.3" font-family="FreeSans" font-size="14.00" fill="#000000">Mu</text>
</a>
</g>
</g>
<!-- Any -->
<g id="node3" class="node">
<title>Any</title>
<g id="a_node3"><a xlink:href="/type/Any" xlink:title="Any">
<ellipse fill="none" stroke="#000000" cx="207.58" cy="-306" rx="28.7" ry="18"/>
<text text-anchor="middle" x="207.58" y="-302.3" font-family="FreeSans" font-size="14.00" fill="#000000">Any</text>
</a>
</g>
</g>
<!-- Any&#45;&gt;Mu -->
<g id="edge3" class="edge">
<title>Any&#45;&gt;Mu</title>
<path fill="none" stroke="#000000" d="M207.58,-324.3C207.58,-332.02 207.58,-341.29 207.58,-349.89"/>
<polygon fill="#000000" stroke="#000000" points="204.08,-349.9 207.58,-359.9 211.08,-349.9 204.08,-349.9"/>
</g>
<!-- Exception&#45;&gt;Any -->
<g id="edge4" class="edge">
<title>Exception&#45;&gt;Any</title>
<path fill="none" stroke="#000000" d="M207.58,-252.3C207.58,-260.02 207.58,-269.29 207.58,-277.89"/>
<polygon fill="#000000" stroke="#000000" points="204.08,-277.9 207.58,-287.9 211.08,-277.9 204.08,-277.9"/>
</g>
<!-- X::Comp -->
<g id="node5" class="node">
<title>X::Comp</title>
<g id="a_node5"><a xlink:href="/type/X::Comp" xlink:title="X::Comp">
<ellipse fill="none" stroke="#6666ff" cx="308.58" cy="-162" rx="49.29" ry="18"/>
<text text-anchor="middle" x="308.58" y="-158.3" font-family="FreeSans" font-size="14.00" fill="#6666ff">X::Comp</text>
</a>
</g>
</g>
<!-- X::Comp&#45;&gt;Exception -->
<g id="edge5" class="edge">
<title>X::Comp&#45;&gt;Exception</title>
<path fill="none" stroke="#000000" d="M286.67,-178.19C272.57,-187.96 254.04,-200.8 238.46,-211.6"/>
<polygon fill="#000000" stroke="#000000" points="236.38,-208.78 230.16,-217.36 240.37,-214.54 236.38,-208.78"/>
</g>
<!-- X::Syntax&#45;&gt;Exception -->
<g id="edge6" class="edge">
<title>X::Syntax&#45;&gt;Exception</title>
<path fill="none" stroke="#000000" d="M267.52,-107.85C255.76,-132.4 233.81,-178.23 219.99,-207.09"/>
<polygon fill="#000000" stroke="#000000" points="216.8,-205.64 215.64,-216.18 223.12,-208.67 216.8,-205.64"/>
</g>
<!-- X::Syntax&#45;&gt;X::Comp -->
<g id="edge8" class="edge">
<title>X::Syntax&#45;&gt;X::Comp</title>
<path fill="none" stroke="#6666ff" d="M283.57,-107.95C287.38,-116.03 292.03,-125.88 296.27,-134.89"/>
<polygon fill="#6666ff" stroke="#6666ff" points="293.24,-136.66 300.67,-144.21 299.57,-133.67 293.24,-136.66"/>
</g>
</g>
</svg>
