<?xml version="1.0" encoding="UTF-8" standalone="no"?>
<!DOCTYPE svg PUBLIC "-//W3C//DTD SVG 1.1//EN"
 "http://www.w3.org/Graphics/SVG/1.1/DTD/svg11.dtd">
<!-- Generated by graphviz version 2.42.3 (0)
 -->
<!-- Title: perl6&#45;type&#45;graph Pages: 1 -->
<svg width="375pt" height="332pt"
 viewBox="0.00 0.00 374.60 332.00" xmlns="http://www.w3.org/2000/svg" xmlns:xlink="http://www.w3.org/1999/xlink">
<g id="graph0" class="graph" transform="scale(1 1) rotate(0) translate(4 328)">
<title>perl6&#45;type&#45;graph</title>
<polygon fill="white" stroke="transparent" points="-4,4 -4,-328 370.6,-328 370.6,4 -4,4"/>
<!-- Baggy -->
<g id="node1" class="node">
<title>Baggy</title>
<g id="a_node1"><a xlink:href="/type/Baggy" xlink:title="Baggy">
<ellipse fill="none" stroke="#6666ff" cx="103.6" cy="-162" rx="39.79" ry="18"/>
<text text-anchor="middle" x="103.6" y="-158.3" font-family="FreeSans" font-size="14.00" fill="#6666ff">Baggy</text>
</a>
</g>
</g>
<!-- QuantHash -->
<g id="node3" class="node">
<title>QuantHash</title>
<g id="a_node3"><a xlink:href="/type/QuantHash" xlink:title="QuantHash">
<ellipse fill="none" stroke="#6666ff" cx="103.6" cy="-234" rx="61.99" ry="18"/>
<text text-anchor="middle" x="103.6" y="-230.3" font-family="FreeSans" font-size="14.00" fill="#6666ff">QuantHash</text>
</a>
</g>
</g>
<!-- Baggy&#45;&gt;QuantHash -->
<g id="edge6" class="edge">
<title>Baggy&#45;&gt;QuantHash</title>
<path fill="none" stroke="#6666ff" d="M103.6,-180.3C103.6,-188.02 103.6,-197.29 103.6,-205.89"/>
<polygon fill="#6666ff" stroke="#6666ff" points="100.1,-205.9 103.6,-215.9 107.1,-205.9 100.1,-205.9"/>
</g>
<!-- Associative -->
<g id="node2" class="node">
<title>Associative</title>
<g id="a_node2"><a xlink:href="/type/Associative" xlink:title="Associative">
<ellipse fill="none" stroke="#6666ff" cx="103.6" cy="-306" rx="61.99" ry="18"/>
<text text-anchor="middle" x="103.6" y="-302.3" font-family="FreeSans" font-size="14.00" fill="#6666ff">Associative</text>
</a>
</g>
</g>
<!-- QuantHash&#45;&gt;Associative -->
<g id="edge7" class="edge">
<title>QuantHash&#45;&gt;Associative</title>
<path fill="none" stroke="#6666ff" d="M103.6,-252.3C103.6,-260.02 103.6,-269.29 103.6,-277.89"/>
<polygon fill="#6666ff" stroke="#6666ff" points="100.1,-277.9 103.6,-287.9 107.1,-277.9 100.1,-277.9"/>
</g>
<!-- Mixy -->
<g id="node4" class="node">
<title>Mixy</title>
<g id="a_node4"><a xlink:href="/type/Mixy" xlink:title="Mixy">
<ellipse fill="none" stroke="#6666ff" cx="258.6" cy="-90" rx="31.7" ry="18"/>
<text text-anchor="middle" x="258.6" y="-86.3" font-family="FreeSans" font-size="14.00" fill="#6666ff">Mixy</text>
</a>
</g>
</g>
<!-- Mixy&#45;&gt;Baggy -->
<g id="edge8" class="edge">
<title>Mixy&#45;&gt;Baggy</title>
<path fill="none" stroke="#6666ff" d="M234.38,-101.94C209.13,-113.34 169.27,-131.34 140.19,-144.48"/>
<polygon fill="#6666ff" stroke="#6666ff" points="138.45,-141.42 130.77,-148.73 141.33,-147.8 138.45,-141.42"/>
</g>
<!-- Mu -->
<g id="node5" class="node">
<title>Mu</title>
<g id="a_node5"><a xlink:href="/type/Mu" xlink:title="Mu">
<ellipse fill="none" stroke="#000000" cx="188.6" cy="-162" rx="27" ry="18"/>
<text text-anchor="middle" x="188.6" y="-158.3" font-family="FreeSans" font-size="14.00" fill="#000000">Mu</text>
</a>
</g>
</g>
<!-- Any -->
<g id="node6" class="node">
<title>Any</title>
<g id="a_node6"><a xlink:href="/type/Any" xlink:title="Any">
<ellipse fill="none" stroke="#000000" cx="180.6" cy="-90" rx="28.7" ry="18"/>
<text text-anchor="middle" x="180.6" y="-86.3" font-family="FreeSans" font-size="14.00" fill="#000000">Any</text>
</a>
</g>
</g>
<!-- Any&#45;&gt;Mu -->
<g id="edge1" class="edge">
<title>Any&#45;&gt;Mu</title>
<path fill="none" stroke="#000000" d="M182.57,-108.3C183.46,-116.02 184.52,-125.29 185.5,-133.89"/>
<polygon fill="#000000" stroke="#000000" points="182.03,-134.36 186.64,-143.9 188.98,-133.56 182.03,-134.36"/>
</g>
<!-- Bag -->
<g id="node7" class="node">
<title>Bag</title>
<g id="a_node7"><a xlink:href="/type/Bag" xlink:title="Bag">
<ellipse fill="none" stroke="#000000" cx="28.6" cy="-18" rx="28.7" ry="18"/>
<text text-anchor="middle" x="28.6" y="-14.3" font-family="FreeSans" font-size="14.00" fill="#000000">Bag</text>
</a>
</g>
</g>
<!-- Bag&#45;&gt;Baggy -->
<g id="edge9" class="edge">
<title>Bag&#45;&gt;Baggy</title>
<path fill="none" stroke="#6666ff" d="M37.2,-35.29C50.06,-59.64 74.42,-105.76 89.79,-134.86"/>
<polygon fill="#6666ff" stroke="#6666ff" points="86.86,-136.81 94.63,-144.02 93.05,-133.54 86.86,-136.81"/>
</g>
<!-- Bag&#45;&gt;Any -->
<g id="edge2" class="edge">
<title>Bag&#45;&gt;Any</title>
<path fill="none" stroke="#000000" d="M51.03,-29.33C76.84,-41.22 119.45,-60.84 148.71,-74.31"/>
<polygon fill="#000000" stroke="#000000" points="147.53,-77.62 158.08,-78.63 150.46,-71.27 147.53,-77.62"/>
</g>
<!-- BagHash -->
<g id="node8" class="node">
<title>BagHash</title>
<g id="a_node8"><a xlink:href="/type/BagHash" xlink:title="BagHash">
<ellipse fill="none" stroke="#000000" cx="126.6" cy="-18" rx="51.19" ry="18"/>
<text text-anchor="middle" x="126.6" y="-14.3" font-family="FreeSans" font-size="14.00" fill="#000000">BagHash</text>
</a>
</g>
</g>
<!-- BagHash&#45;&gt;Baggy -->
<g id="edge10" class="edge">
<title>BagHash&#45;&gt;Baggy</title>
<path fill="none" stroke="#6666ff" d="M123.82,-36.13C119.9,-60.33 112.7,-104.79 108.03,-133.61"/>
<polygon fill="#6666ff" stroke="#6666ff" points="104.53,-133.38 106.38,-143.81 111.44,-134.5 104.53,-133.38"/>
</g>
<!-- BagHash&#45;&gt;Any -->
<g id="edge3" class="edge">
<title>BagHash&#45;&gt;Any</title>
<path fill="none" stroke="#000000" d="M139.39,-35.59C146.25,-44.47 154.8,-55.56 162.34,-65.33"/>
<polygon fill="#000000" stroke="#000000" points="159.75,-67.71 168.63,-73.49 165.3,-63.43 159.75,-67.71"/>
</g>
<!-- Mix -->
<g id="node9" class="node">
<title>Mix</title>
<g id="a_node9"><a xlink:href="/type/Mix" xlink:title="Mix">
<ellipse fill="none" stroke="#000000" cx="339.6" cy="-18" rx="27" ry="18"/>
<text text-anchor="middle" x="339.6" y="-14.3" font-family="FreeSans" font-size="14.00" fill="#000000">Mix</text>
</a>
</g>
</g>
<!-- Mix&#45;&gt;Mixy -->
<g id="edge11" class="edge">
<title>Mix&#45;&gt;Mixy</title>
<path fill="none" stroke="#6666ff" d="M323.59,-32.83C312.06,-42.79 296.29,-56.43 283.17,-67.77"/>
<polygon fill="#6666ff" stroke="#6666ff" points="280.68,-65.29 275.4,-74.48 285.26,-70.59 280.68,-65.29"/>
</g>
<!-- Mix&#45;&gt;Any -->
<g id="edge4" class="edge">
<title>Mix&#45;&gt;Any</title>
<path fill="none" stroke="#000000" d="M318.24,-29.09C310.49,-32.75 303.6,-36 303.6,-36 303.6,-36 217.6,-72 217.6,-72 217.6,-72 215.44,-72.99 212.16,-74.5"/>
<polygon fill="#000000" stroke="#000000" points="210.6,-71.36 202.97,-78.72 213.52,-77.72 210.6,-71.36"/>
</g>
<!-- MixHash -->
<g id="node10" class="node">
<title>MixHash</title>
<g id="a_node10"><a xlink:href="/type/MixHash" xlink:title="MixHash">
<ellipse fill="none" stroke="#000000" cx="245.6" cy="-18" rx="49.29" ry="18"/>
<text text-anchor="middle" x="245.6" y="-14.3" font-family="FreeSans" font-size="14.00" fill="#000000">MixHash</text>
</a>
</g>
</g>
<!-- MixHash&#45;&gt;Mixy -->
<g id="edge12" class="edge">
<title>MixHash&#45;&gt;Mixy</title>
<path fill="none" stroke="#6666ff" d="M248.81,-36.3C250.24,-44.02 251.97,-53.29 253.56,-61.89"/>
<polygon fill="#6666ff" stroke="#6666ff" points="250.15,-62.7 255.42,-71.9 257.04,-61.42 250.15,-62.7"/>
</g>
<!-- MixHash&#45;&gt;Any -->
<g id="edge5" class="edge">
<title>MixHash&#45;&gt;Any</title>
<path fill="none" stroke="#000000" d="M230.52,-35.24C221.91,-44.5 210.99,-56.27 201.56,-66.42"/>
<polygon fill="#000000" stroke="#000000" points="198.94,-64.1 194.7,-73.81 204.07,-68.86 198.94,-64.1"/>
</g>
</g>
</svg>
