<?xml version="1.0" encoding="UTF-8" standalone="no"?>
<!DOCTYPE svg PUBLIC "-//W3C//DTD SVG 1.1//EN"
 "http://www.w3.org/Graphics/SVG/1.1/DTD/svg11.dtd">
<!-- Generated by graphviz version 2.42.3 (0)
 -->
<!-- Title: perl6&#45;type&#45;graph Pages: 1 -->
<svg width="200pt" height="188pt"
 viewBox="0.00 0.00 199.74 188.00" xmlns="http://www.w3.org/2000/svg" xmlns:xlink="http://www.w3.org/1999/xlink">
<g id="graph0" class="graph" transform="scale(1 1) rotate(0) translate(4 184)">
<title>perl6&#45;type&#45;graph</title>
<polygon fill="white" stroke="transparent" points="-4,4 -4,-184 195.74,-184 195.74,4 -4,4"/>
<!-- IO::Socket::INET -->
<g id="node1" class="node">
<title>IO::Socket::INET</title>
<g id="a_node1"><a xlink:href="/type/IO::Socket::INET" xlink:title="IO::Socket::INET">
<ellipse fill="none" stroke="#000000" cx="83.19" cy="-18" rx="83.39" ry="18"/>
<text text-anchor="middle" x="83.19" y="-14.3" font-family="FreeSans" font-size="14.00" fill="#000000">IO::Socket::INET</text>
</a>
</g>
</g>
<!-- Any -->
<g id="node3" class="node">
<title>Any</title>
<g id="a_node3"><a xlink:href="/type/Any" xlink:title="Any">
<ellipse fill="none" stroke="#000000" cx="32.19" cy="-90" rx="28.7" ry="18"/>
<text text-anchor="middle" x="32.19" y="-86.3" font-family="FreeSans" font-size="14.00" fill="#000000">Any</text>
</a>
</g>
</g>
<!-- IO::Socket::INET&#45;&gt;Any -->
<g id="edge1" class="edge">
<title>IO::Socket::INET&#45;&gt;Any</title>
<path fill="none" stroke="#000000" d="M70.85,-35.95C64.53,-44.62 56.72,-55.33 49.79,-64.85"/>
<polygon fill="#000000" stroke="#000000" points="46.79,-63.03 43.73,-73.17 52.44,-67.15 46.79,-63.03"/>
</g>
<!-- IO::Socket -->
<g id="node4" class="node">
<title>IO::Socket</title>
<g id="a_node4"><a xlink:href="/type/IO::Socket" xlink:title="IO::Socket">
<ellipse fill="none" stroke="#6666ff" cx="135.19" cy="-90" rx="56.59" ry="18"/>
<text text-anchor="middle" x="135.19" y="-86.3" font-family="FreeSans" font-size="14.00" fill="#6666ff">IO::Socket</text>
</a>
</g>
</g>
<!-- IO::Socket::INET&#45;&gt;IO::Socket -->
<g id="edge3" class="edge">
<title>IO::Socket::INET&#45;&gt;IO::Socket</title>
<path fill="none" stroke="#6666ff" d="M95.78,-35.95C102.04,-44.37 109.73,-54.72 116.65,-64.03"/>
<polygon fill="#6666ff" stroke="#6666ff" points="113.95,-66.27 122.72,-72.21 119.57,-62.1 113.95,-66.27"/>
</g>
<!-- Mu -->
<g id="node2" class="node">
<title>Mu</title>
<g id="a_node2"><a xlink:href="/type/Mu" xlink:title="Mu">
<ellipse fill="none" stroke="#000000" cx="32.19" cy="-162" rx="27" ry="18"/>
<text text-anchor="middle" x="32.19" y="-158.3" font-family="FreeSans" font-size="14.00" fill="#000000">Mu</text>
</a>
</g>
</g>
<!-- Any&#45;&gt;Mu -->
<g id="edge2" class="edge">
<title>Any&#45;&gt;Mu</title>
<path fill="none" stroke="#000000" d="M32.19,-108.3C32.19,-116.02 32.19,-125.29 32.19,-133.89"/>
<polygon fill="#000000" stroke="#000000" points="28.69,-133.9 32.19,-143.9 35.69,-133.9 28.69,-133.9"/>
</g>
</g>
</svg>
