<?xml version="1.0" encoding="UTF-8" standalone="no"?>
<!DOCTYPE svg PUBLIC "-//W3C//DTD SVG 1.1//EN"
 "http://www.w3.org/Graphics/SVG/1.1/DTD/svg11.dtd">
<!-- Generated by graphviz version 2.42.3 (0)
 -->
<!-- Title: perl6&#45;type&#45;graph Pages: 1 -->
<svg width="309pt" height="404pt"
 viewBox="0.00 0.00 308.78 404.00" xmlns="http://www.w3.org/2000/svg" xmlns:xlink="http://www.w3.org/1999/xlink">
<g id="graph0" class="graph" transform="scale(1 1) rotate(0) translate(4 400)">
<title>perl6&#45;type&#45;graph</title>
<polygon fill="white" stroke="transparent" points="-4,4 -4,-400 304.78,-400 304.78,4 -4,4"/>
<!-- X::Syntax::Variable::Twigil -->
<g id="node1" class="node">
<title>X::Syntax::Variable::Twigil</title>
<g id="a_node1"><a xlink:href="/type/X::Syntax::Variable::Twigil" xlink:title="X::Syntax::Variable::Twigil">
<ellipse fill="none" stroke="#000000" cx="127.39" cy="-18" rx="127.28" ry="18"/>
<text text-anchor="middle" x="127.39" y="-14.3" font-family="FreeSans" font-size="14.00" fill="#000000">X::Syntax::Variable::Twigil</text>
</a>
</g>
</g>
<!-- Exception -->
<g id="node4" class="node">
<title>Exception</title>
<g id="a_node4"><a xlink:href="/type/Exception" xlink:title="Exception">
<ellipse fill="none" stroke="#000000" cx="150.39" cy="-234" rx="55.49" ry="18"/>
<text text-anchor="middle" x="150.39" y="-230.3" font-family="FreeSans" font-size="14.00" fill="#000000">Exception</text>
</a>
</g>
</g>
<!-- X::Syntax::Variable::Twigil&#45;&gt;Exception -->
<g id="edge1" class="edge">
<title>X::Syntax::Variable::Twigil&#45;&gt;Exception</title>
<path fill="none" stroke="#000000" d="M125.35,-36.15C125.8,-73.34 135.03,-161.63 142.86,-206.23"/>
<polygon fill="#000000" stroke="#000000" points="139.42,-206.88 144.71,-216.06 146.3,-205.59 139.42,-206.88"/>
</g>
<!-- X::Syntax::Variable::Twigil&#45;&gt;Exception -->
<g id="edge2" class="edge">
<title>X::Syntax::Variable::Twigil&#45;&gt;Exception</title>
<path fill="none" stroke="#000000" d="M133.11,-36.15C140.62,-73.17 150.32,-160.82 152.14,-205.61"/>
<polygon fill="#000000" stroke="#000000" points="148.64,-205.87 152.42,-215.77 155.64,-205.67 148.64,-205.87"/>
</g>
<!-- X::Syntax -->
<g id="node6" class="node">
<title>X::Syntax</title>
<g id="a_node6"><a xlink:href="/type/X::Syntax" xlink:title="X::Syntax">
<ellipse fill="none" stroke="#6666ff" cx="218.39" cy="-90" rx="53.89" ry="18"/>
<text text-anchor="middle" x="218.39" y="-86.3" font-family="FreeSans" font-size="14.00" fill="#6666ff">X::Syntax</text>
</a>
</g>
</g>
<!-- X::Syntax::Variable::Twigil&#45;&gt;X::Syntax -->
<g id="edge7" class="edge">
<title>X::Syntax::Variable::Twigil&#45;&gt;X::Syntax</title>
<path fill="none" stroke="#6666ff" d="M149.42,-35.95C161.5,-45.24 176.62,-56.87 189.62,-66.87"/>
<polygon fill="#6666ff" stroke="#6666ff" points="187.75,-69.85 197.81,-73.17 192.02,-64.3 187.75,-69.85"/>
</g>
<!-- Mu -->
<g id="node2" class="node">
<title>Mu</title>
<g id="a_node2"><a xlink:href="/type/Mu" xlink:title="Mu">
<ellipse fill="none" stroke="#000000" cx="150.39" cy="-378" rx="27" ry="18"/>
<text text-anchor="middle" x="150.39" y="-374.3" font-family="FreeSans" font-size="14.00" fill="#000000">Mu</text>
</a>
</g>
</g>
<!-- Any -->
<g id="node3" class="node">
<title>Any</title>
<g id="a_node3"><a xlink:href="/type/Any" xlink:title="Any">
<ellipse fill="none" stroke="#000000" cx="150.39" cy="-306" rx="28.7" ry="18"/>
<text text-anchor="middle" x="150.39" y="-302.3" font-family="FreeSans" font-size="14.00" fill="#000000">Any</text>
</a>
</g>
</g>
<!-- Any&#45;&gt;Mu -->
<g id="edge3" class="edge">
<title>Any&#45;&gt;Mu</title>
<path fill="none" stroke="#000000" d="M150.39,-324.3C150.39,-332.02 150.39,-341.29 150.39,-349.89"/>
<polygon fill="#000000" stroke="#000000" points="146.89,-349.9 150.39,-359.9 153.89,-349.9 146.89,-349.9"/>
</g>
<!-- Exception&#45;&gt;Any -->
<g id="edge4" class="edge">
<title>Exception&#45;&gt;Any</title>
<path fill="none" stroke="#000000" d="M150.39,-252.3C150.39,-260.02 150.39,-269.29 150.39,-277.89"/>
<polygon fill="#000000" stroke="#000000" points="146.89,-277.9 150.39,-287.9 153.89,-277.9 146.89,-277.9"/>
</g>
<!-- X::Comp -->
<g id="node5" class="node">
<title>X::Comp</title>
<g id="a_node5"><a xlink:href="/type/X::Comp" xlink:title="X::Comp">
<ellipse fill="none" stroke="#6666ff" cx="251.39" cy="-162" rx="49.29" ry="18"/>
<text text-anchor="middle" x="251.39" y="-158.3" font-family="FreeSans" font-size="14.00" fill="#6666ff">X::Comp</text>
</a>
</g>
</g>
<!-- X::Comp&#45;&gt;Exception -->
<g id="edge5" class="edge">
<title>X::Comp&#45;&gt;Exception</title>
<path fill="none" stroke="#000000" d="M229.47,-178.19C215.37,-187.96 196.84,-200.8 181.27,-211.6"/>
<polygon fill="#000000" stroke="#000000" points="179.19,-208.78 172.96,-217.36 183.17,-214.54 179.19,-208.78"/>
</g>
<!-- X::Syntax&#45;&gt;Exception -->
<g id="edge6" class="edge">
<title>X::Syntax&#45;&gt;Exception</title>
<path fill="none" stroke="#000000" d="M210.32,-107.85C198.56,-132.4 176.62,-178.23 162.8,-207.09"/>
<polygon fill="#000000" stroke="#000000" points="159.61,-205.64 158.45,-216.18 165.92,-208.67 159.61,-205.64"/>
</g>
<!-- X::Syntax&#45;&gt;X::Comp -->
<g id="edge8" class="edge">
<title>X::Syntax&#45;&gt;X::Comp</title>
<path fill="none" stroke="#6666ff" d="M226.38,-107.95C230.19,-116.03 234.83,-125.88 239.08,-134.89"/>
<polygon fill="#6666ff" stroke="#6666ff" points="236.04,-136.66 243.47,-144.21 242.38,-133.67 236.04,-136.66"/>
</g>
</g>
</svg>
