<?xml version="1.0" encoding="UTF-8" standalone="no"?>
<!DOCTYPE svg PUBLIC "-//W3C//DTD SVG 1.1//EN"
 "http://www.w3.org/Graphics/SVG/1.1/DTD/svg11.dtd">
<!-- Generated by graphviz version 2.42.3 (0)
 -->
<!-- Title: perl6&#45;type&#45;graph Pages: 1 -->
<svg width="315pt" height="404pt"
 viewBox="0.00 0.00 315.28 404.00" xmlns="http://www.w3.org/2000/svg" xmlns:xlink="http://www.w3.org/1999/xlink">
<g id="graph0" class="graph" transform="scale(1 1) rotate(0) translate(4 400)">
<title>perl6&#45;type&#45;graph</title>
<polygon fill="white" stroke="transparent" points="-4,4 -4,-400 311.28,-400 311.28,4 -4,4"/>
<!-- X::Syntax::Augment::Illegal -->
<g id="node1" class="node">
<title>X::Syntax::Augment::Illegal</title>
<g id="a_node1"><a xlink:href="/type/X::Syntax::Augment::Illegal" xlink:title="X::Syntax::Augment::Illegal">
<ellipse fill="none" stroke="#000000" cx="133.89" cy="-18" rx="133.78" ry="18"/>
<text text-anchor="middle" x="133.89" y="-14.3" font-family="FreeSans" font-size="14.00" fill="#000000">X::Syntax::Augment::Illegal</text>
</a>
</g>
</g>
<!-- Exception -->
<g id="node4" class="node">
<title>Exception</title>
<g id="a_node4"><a xlink:href="/type/Exception" xlink:title="Exception">
<ellipse fill="none" stroke="#000000" cx="156.89" cy="-234" rx="55.49" ry="18"/>
<text text-anchor="middle" x="156.89" y="-230.3" font-family="FreeSans" font-size="14.00" fill="#000000">Exception</text>
</a>
</g>
</g>
<!-- X::Syntax::Augment::Illegal&#45;&gt;Exception -->
<g id="edge1" class="edge">
<title>X::Syntax::Augment::Illegal&#45;&gt;Exception</title>
<path fill="none" stroke="#000000" d="M131.85,-36.15C132.3,-73.34 141.53,-161.63 149.36,-206.23"/>
<polygon fill="#000000" stroke="#000000" points="145.92,-206.88 151.21,-216.06 152.8,-205.59 145.92,-206.88"/>
</g>
<!-- X::Syntax::Augment::Illegal&#45;&gt;Exception -->
<g id="edge2" class="edge">
<title>X::Syntax::Augment::Illegal&#45;&gt;Exception</title>
<path fill="none" stroke="#000000" d="M139.61,-36.15C147.12,-73.17 156.82,-160.82 158.64,-205.61"/>
<polygon fill="#000000" stroke="#000000" points="155.14,-205.87 158.92,-215.77 162.14,-205.67 155.14,-205.87"/>
</g>
<!-- X::Syntax -->
<g id="node6" class="node">
<title>X::Syntax</title>
<g id="a_node6"><a xlink:href="/type/X::Syntax" xlink:title="X::Syntax">
<ellipse fill="none" stroke="#6666ff" cx="224.89" cy="-90" rx="53.89" ry="18"/>
<text text-anchor="middle" x="224.89" y="-86.3" font-family="FreeSans" font-size="14.00" fill="#6666ff">X::Syntax</text>
</a>
</g>
</g>
<!-- X::Syntax::Augment::Illegal&#45;&gt;X::Syntax -->
<g id="edge7" class="edge">
<title>X::Syntax::Augment::Illegal&#45;&gt;X::Syntax</title>
<path fill="none" stroke="#6666ff" d="M155.92,-35.95C168,-45.24 183.12,-56.87 196.12,-66.87"/>
<polygon fill="#6666ff" stroke="#6666ff" points="194.25,-69.85 204.31,-73.17 198.52,-64.3 194.25,-69.85"/>
</g>
<!-- Mu -->
<g id="node2" class="node">
<title>Mu</title>
<g id="a_node2"><a xlink:href="/type/Mu" xlink:title="Mu">
<ellipse fill="none" stroke="#000000" cx="156.89" cy="-378" rx="27" ry="18"/>
<text text-anchor="middle" x="156.89" y="-374.3" font-family="FreeSans" font-size="14.00" fill="#000000">Mu</text>
</a>
</g>
</g>
<!-- Any -->
<g id="node3" class="node">
<title>Any</title>
<g id="a_node3"><a xlink:href="/type/Any" xlink:title="Any">
<ellipse fill="none" stroke="#000000" cx="156.89" cy="-306" rx="28.7" ry="18"/>
<text text-anchor="middle" x="156.89" y="-302.3" font-family="FreeSans" font-size="14.00" fill="#000000">Any</text>
</a>
</g>
</g>
<!-- Any&#45;&gt;Mu -->
<g id="edge3" class="edge">
<title>Any&#45;&gt;Mu</title>
<path fill="none" stroke="#000000" d="M156.89,-324.3C156.89,-332.02 156.89,-341.29 156.89,-349.89"/>
<polygon fill="#000000" stroke="#000000" points="153.39,-349.9 156.89,-359.9 160.39,-349.9 153.39,-349.9"/>
</g>
<!-- Exception&#45;&gt;Any -->
<g id="edge4" class="edge">
<title>Exception&#45;&gt;Any</title>
<path fill="none" stroke="#000000" d="M156.89,-252.3C156.89,-260.02 156.89,-269.29 156.89,-277.89"/>
<polygon fill="#000000" stroke="#000000" points="153.39,-277.9 156.89,-287.9 160.39,-277.9 153.39,-277.9"/>
</g>
<!-- X::Comp -->
<g id="node5" class="node">
<title>X::Comp</title>
<g id="a_node5"><a xlink:href="/type/X::Comp" xlink:title="X::Comp">
<ellipse fill="none" stroke="#6666ff" cx="257.89" cy="-162" rx="49.29" ry="18"/>
<text text-anchor="middle" x="257.89" y="-158.3" font-family="FreeSans" font-size="14.00" fill="#6666ff">X::Comp</text>
</a>
</g>
</g>
<!-- X::Comp&#45;&gt;Exception -->
<g id="edge5" class="edge">
<title>X::Comp&#45;&gt;Exception</title>
<path fill="none" stroke="#000000" d="M235.97,-178.19C221.87,-187.96 203.34,-200.8 187.76,-211.6"/>
<polygon fill="#000000" stroke="#000000" points="185.69,-208.78 179.46,-217.36 189.67,-214.54 185.69,-208.78"/>
</g>
<!-- X::Syntax&#45;&gt;Exception -->
<g id="edge6" class="edge">
<title>X::Syntax&#45;&gt;Exception</title>
<path fill="none" stroke="#000000" d="M216.82,-107.85C205.06,-132.4 183.12,-178.23 169.29,-207.09"/>
<polygon fill="#000000" stroke="#000000" points="166.11,-205.64 164.95,-216.18 172.42,-208.67 166.11,-205.64"/>
</g>
<!-- X::Syntax&#45;&gt;X::Comp -->
<g id="edge8" class="edge">
<title>X::Syntax&#45;&gt;X::Comp</title>
<path fill="none" stroke="#6666ff" d="M232.88,-107.95C236.69,-116.03 241.33,-125.88 245.58,-134.89"/>
<polygon fill="#6666ff" stroke="#6666ff" points="242.54,-136.66 249.97,-144.21 248.87,-133.67 242.54,-136.66"/>
</g>
</g>
</svg>
