<?xml version="1.0" encoding="UTF-8" standalone="no"?>
<!DOCTYPE svg PUBLIC "-//W3C//DTD SVG 1.1//EN"
 "http://www.w3.org/Graphics/SVG/1.1/DTD/svg11.dtd">
<!-- Generated by graphviz version 2.42.3 (0)
 -->
<!-- Title: perl6&#45;type&#45;graph Pages: 1 -->
<svg width="2119pt" height="2025pt"
 viewBox="0.00 0.00 2119.38 2025.19" xmlns="http://www.w3.org/2000/svg" xmlns:xlink="http://www.w3.org/1999/xlink">
<g id="graph0" class="graph" transform="scale(1 1) rotate(0) translate(4 2021.19)">
<title>perl6&#45;type&#45;graph</title>
<polygon fill="white" stroke="transparent" points="-4,4 -4,-2021.19 2115.38,-2021.19 2115.38,4 -4,4"/>
<!-- Metamodel::TypePretense -->
<g id="node1" class="node">
<title>Metamodel::TypePretense</title>
<g id="a_node1"><a xlink:href="/type/Metamodel::TypePretense" xlink:title="Metamodel::TypePretense">
<ellipse fill="none" stroke="#6666ff" cx="831.63" cy="-1047.59" rx="126.18" ry="18"/>
<text text-anchor="middle" x="831.63" y="-1043.89" font-family="FreeSans" font-size="14.00" fill="#6666ff">Metamodel::TypePretense</text>
</a>
</g>
</g>
<!-- Mu -->
<g id="node2" class="node">
<title>Mu</title>
<g id="a_node2"><a xlink:href="/type/Mu" xlink:title="Mu">
<ellipse fill="none" stroke="#000000" cx="1332.23" cy="-1710.78" rx="27" ry="18"/>
<text text-anchor="middle" x="1332.23" y="-1707.08" font-family="FreeSans" font-size="14.00" fill="#000000">Mu</text>
</a>
</g>
</g>
<!-- Any -->
<g id="node3" class="node">
<title>Any</title>
<g id="a_node3"><a xlink:href="/type/Any" xlink:title="Any">
<ellipse fill="none" stroke="#000000" cx="1019.01" cy="-1213.43" rx="28.7" ry="18"/>
<text text-anchor="middle" x="1019.01" y="-1209.73" font-family="FreeSans" font-size="14.00" fill="#000000">Any</text>
</a>
</g>
</g>
<!-- Any&#45;&gt;Mu -->
<g id="edge1" class="edge">
<title>Any&#45;&gt;Mu</title>
<path fill="none" stroke="#000000" d="M1029.61,-1230.26C1075.9,-1303.77 1260.47,-1596.84 1316.21,-1685.34"/>
<polygon fill="#000000" stroke="#000000" points="1313.34,-1687.35 1321.63,-1693.95 1319.26,-1683.62 1313.34,-1687.35"/>
</g>
<!-- Metamodel::Naming -->
<g id="node4" class="node">
<title>Metamodel::Naming</title>
<g id="a_node4"><a xlink:href="/type/Metamodel::Naming" xlink:title="Metamodel::Naming">
<ellipse fill="none" stroke="#6666ff" cx="1017.53" cy="-840.25" rx="101.28" ry="18"/>
<text text-anchor="middle" x="1017.53" y="-836.55" font-family="FreeSans" font-size="14.00" fill="#6666ff">Metamodel::Naming</text>
</a>
</g>
</g>
<!-- Metamodel::Documenting -->
<g id="node5" class="node">
<title>Metamodel::Documenting</title>
<g id="a_node5"><a xlink:href="/type/Metamodel::Documenting" xlink:title="Metamodel::Documenting">
<ellipse fill="none" stroke="#6666ff" cx="1351.62" cy="-514.42" rx="126.98" ry="18"/>
<text text-anchor="middle" x="1351.62" y="-510.72" font-family="FreeSans" font-size="14.00" fill="#6666ff">Metamodel::Documenting</text>
</a>
</g>
</g>
<!-- Metamodel::Versioning -->
<g id="node6" class="node">
<title>Metamodel::Versioning</title>
<g id="a_node6"><a xlink:href="/type/Metamodel::Versioning" xlink:title="Metamodel::Versioning">
<ellipse fill="none" stroke="#6666ff" cx="1253.83" cy="-311.53" rx="114.28" ry="18"/>
<text text-anchor="middle" x="1253.83" y="-307.83" font-family="FreeSans" font-size="14.00" fill="#6666ff">Metamodel::Versioning</text>
</a>
</g>
</g>
<!-- Metamodel::MethodContainer -->
<g id="node7" class="node">
<title>Metamodel::MethodContainer</title>
<g id="a_node7"><a xlink:href="/type/Metamodel::MethodContainer" xlink:title="Metamodel::MethodContainer">
<ellipse fill="none" stroke="#6666ff" cx="179.8" cy="-462.74" rx="143.77" ry="18"/>
<text text-anchor="middle" x="179.8" y="-459.04" font-family="FreeSans" font-size="14.00" fill="#6666ff">Metamodel::MethodContainer</text>
</a>
</g>
</g>
<!-- Metamodel::PrivateMethodContainer -->
<g id="node8" class="node">
<title>Metamodel::PrivateMethodContainer</title>
<g id="a_node8"><a xlink:href="/type/Metamodel::PrivateMethodContainer" xlink:title="Metamodel::PrivateMethodContainer">
<ellipse fill="none" stroke="#6666ff" cx="1048.11" cy="-48.19" rx="174.67" ry="18"/>
<text text-anchor="middle" x="1048.11" y="-44.49" font-family="FreeSans" font-size="14.00" fill="#6666ff">Metamodel::PrivateMethodContainer</text>
</a>
</g>
</g>
<!-- Metamodel::MultiMethodContainer -->
<g id="node9" class="node">
<title>Metamodel::MultiMethodContainer</title>
<g id="a_node9"><a xlink:href="/type/Metamodel::MultiMethodContainer" xlink:title="Metamodel::MultiMethodContainer">
<ellipse fill="none" stroke="#6666ff" cx="302.35" cy="-241.82" rx="165.97" ry="18"/>
<text text-anchor="middle" x="302.35" y="-238.12" font-family="FreeSans" font-size="14.00" fill="#6666ff">Metamodel::MultiMethodContainer</text>
</a>
</g>
</g>
<!-- Metamodel::AttributeContainer -->
<g id="node10" class="node">
<title>Metamodel::AttributeContainer</title>
<g id="a_node10"><a xlink:href="/type/Metamodel::AttributeContainer" xlink:title="Metamodel::AttributeContainer">
<ellipse fill="none" stroke="#6666ff" cx="715.11" cy="-18" rx="150.27" ry="18"/>
<text text-anchor="middle" x="715.11" y="-14.3" font-family="FreeSans" font-size="14.00" fill="#6666ff">Metamodel::AttributeContainer</text>
</a>
</g>
</g>
<!-- Metamodel::RoleContainer -->
<g id="node11" class="node">
<title>Metamodel::RoleContainer</title>
<g id="a_node11"><a xlink:href="/type/Metamodel::RoleContainer" xlink:title="Metamodel::RoleContainer">
<ellipse fill="none" stroke="#6666ff" cx="505.81" cy="-84.21" rx="129.98" ry="18"/>
<text text-anchor="middle" x="505.81" y="-80.51" font-family="FreeSans" font-size="14.00" fill="#6666ff">Metamodel::RoleContainer</text>
</a>
</g>
</g>
<!-- Metamodel::MultipleInheritance -->
<g id="node12" class="node">
<title>Metamodel::MultipleInheritance</title>
<g id="a_node12"><a xlink:href="/type/Metamodel::MultipleInheritance" xlink:title="Metamodel::MultipleInheritance">
<ellipse fill="none" stroke="#6666ff" cx="153.39" cy="-706.62" rx="153.27" ry="18"/>
<text text-anchor="middle" x="153.39" y="-702.92" font-family="FreeSans" font-size="14.00" fill="#6666ff">Metamodel::MultipleInheritance</text>
</a>
</g>
</g>
<!-- Metamodel::Stashing -->
<g id="node13" class="node">
<title>Metamodel::Stashing</title>
<g id="a_node13"><a xlink:href="/type/Metamodel::Stashing" xlink:title="Metamodel::Stashing">
<ellipse fill="none" stroke="#6666ff" cx="1065.38" cy="-978.68" rx="105.88" ry="18"/>
<text text-anchor="middle" x="1065.38" y="-974.98" font-family="FreeSans" font-size="14.00" fill="#6666ff">Metamodel::Stashing</text>
</a>
</g>
</g>
<!-- Metamodel::RolePunning -->
<g id="node14" class="node">
<title>Metamodel::RolePunning</title>
<g id="a_node14"><a xlink:href="/type/Metamodel::RolePunning" xlink:title="Metamodel::RolePunning">
<ellipse fill="none" stroke="#6666ff" cx="347.72" cy="-1054.61" rx="122.68" ry="18"/>
<text text-anchor="middle" x="347.72" y="-1050.91" font-family="FreeSans" font-size="14.00" fill="#6666ff">Metamodel::RolePunning</text>
</a>
</g>
</g>
<!-- Metamodel::ParametricRoleHOW -->
<g id="node15" class="node">
<title>Metamodel::ParametricRoleHOW</title>
<g id="a_node15"><a xlink:href="/type/Metamodel::ParametricRoleHOW" xlink:title="Metamodel::ParametricRoleHOW">
<ellipse fill="none" stroke="#000000" cx="729.98" cy="-574.74" rx="157.07" ry="18"/>
<text text-anchor="middle" x="729.98" y="-571.04" font-family="FreeSans" font-size="14.00" fill="#000000">Metamodel::ParametricRoleHOW</text>
</a>
</g>
</g>
<!-- Metamodel::ParametricRoleHOW&#45;&gt;Metamodel::TypePretense -->
<g id="edge17" class="edge">
<title>Metamodel::ParametricRoleHOW&#45;&gt;Metamodel::TypePretense</title>
<path fill="none" stroke="#6666ff" d="M733.9,-592.98C749.44,-665.24 806.71,-931.66 825.56,-1019.38"/>
<polygon fill="#6666ff" stroke="#6666ff" points="822.19,-1020.36 827.72,-1029.4 829.04,-1018.89 822.19,-1020.36"/>
</g>
<!-- Metamodel::ParametricRoleHOW&#45;&gt;Any -->
<g id="edge2" class="edge">
<title>Metamodel::ParametricRoleHOW&#45;&gt;Any</title>
<path fill="none" stroke="#000000" d="M738.83,-592.99C780.98,-679.9 959.32,-1047.65 959.32,-1047.65 959.32,-1047.65 992.22,-1139.02 1009.17,-1186.1"/>
<polygon fill="#000000" stroke="#000000" points="1005.94,-1187.47 1012.62,-1195.69 1012.52,-1185.1 1005.94,-1187.47"/>
</g>
<!-- Metamodel::ParametricRoleHOW&#45;&gt;Metamodel::Naming -->
<g id="edge7" class="edge">
<title>Metamodel::ParametricRoleHOW&#45;&gt;Metamodel::Naming</title>
<path fill="none" stroke="#6666ff" d="M749.75,-592.99C800.16,-639.54 933.58,-762.74 990.83,-815.59"/>
<polygon fill="#6666ff" stroke="#6666ff" points="988.66,-818.36 998.38,-822.57 993.41,-813.22 988.66,-818.36"/>
</g>
<!-- Metamodel::ParametricRoleHOW&#45;&gt;Metamodel::Documenting -->
<g id="edge8" class="edge">
<title>Metamodel::ParametricRoleHOW&#45;&gt;Metamodel::Documenting</title>
<path fill="none" stroke="#6666ff" d="M850.21,-563.07C961.79,-552.25 1126.73,-536.24 1236.61,-525.58"/>
<polygon fill="#6666ff" stroke="#6666ff" points="1237.12,-529.04 1246.73,-524.6 1236.44,-522.08 1237.12,-529.04"/>
</g>
<!-- Metamodel::ParametricRoleHOW&#45;&gt;Metamodel::Versioning -->
<g id="edge9" class="edge">
<title>Metamodel::ParametricRoleHOW&#45;&gt;Metamodel::Versioning</title>
<path fill="none" stroke="#6666ff" d="M765.17,-557.06C857.93,-510.45 1108.98,-384.31 1210.43,-333.34"/>
<polygon fill="#6666ff" stroke="#6666ff" points="1212.12,-336.4 1219.48,-328.79 1208.98,-330.15 1212.12,-336.4"/>
</g>
<!-- Metamodel::ParametricRoleHOW&#45;&gt;Metamodel::MethodContainer -->
<g id="edge10" class="edge">
<title>Metamodel::ParametricRoleHOW&#45;&gt;Metamodel::MethodContainer</title>
<path fill="none" stroke="#6666ff" d="M652.9,-559.05C550.91,-538.28 371.66,-501.79 265.51,-480.19"/>
<polygon fill="#6666ff" stroke="#6666ff" points="265.97,-476.71 255.48,-478.14 264.58,-483.57 265.97,-476.71"/>
</g>
<!-- Metamodel::ParametricRoleHOW&#45;&gt;Metamodel::PrivateMethodContainer -->
<g id="edge11" class="edge">
<title>Metamodel::ParametricRoleHOW&#45;&gt;Metamodel::PrivateMethodContainer</title>
<path fill="none" stroke="#6666ff" d="M740.93,-556.61C788.3,-478.21 975.72,-168.02 1032.03,-74.81"/>
<polygon fill="#6666ff" stroke="#6666ff" points="1035.03,-76.61 1037.21,-66.24 1029.04,-72.99 1035.03,-76.61"/>
</g>
<!-- Metamodel::ParametricRoleHOW&#45;&gt;Metamodel::MultiMethodContainer -->
<g id="edge12" class="edge">
<title>Metamodel::ParametricRoleHOW&#45;&gt;Metamodel::MultiMethodContainer</title>
<path fill="none" stroke="#6666ff" d="M706.99,-556.84C635.2,-500.95 415.15,-329.64 333.38,-265.98"/>
<polygon fill="#6666ff" stroke="#6666ff" points="335.49,-263.19 325.45,-259.81 331.19,-268.72 335.49,-263.19"/>
</g>
<!-- Metamodel::ParametricRoleHOW&#45;&gt;Metamodel::AttributeContainer -->
<g id="edge13" class="edge">
<title>Metamodel::ParametricRoleHOW&#45;&gt;Metamodel::AttributeContainer</title>
<path fill="none" stroke="#6666ff" d="M729.5,-556.53C727.32,-475.25 718.51,-145.2 715.86,-46.2"/>
<polygon fill="#6666ff" stroke="#6666ff" points="719.36,-45.97 715.59,-36.07 712.36,-46.16 719.36,-45.97"/>
</g>
<!-- Metamodel::ParametricRoleHOW&#45;&gt;Metamodel::RoleContainer -->
<g id="edge14" class="edge">
<title>Metamodel::ParametricRoleHOW&#45;&gt;Metamodel::RoleContainer</title>
<path fill="none" stroke="#6666ff" d="M721.74,-556.7C687.86,-482.56 559.2,-201.05 518.35,-111.64"/>
<polygon fill="#6666ff" stroke="#6666ff" points="521.47,-110.06 514.13,-102.42 515.1,-112.97 521.47,-110.06"/>
</g>
<!-- Metamodel::ParametricRoleHOW&#45;&gt;Metamodel::MultipleInheritance -->
<g id="edge15" class="edge">
<title>Metamodel::ParametricRoleHOW&#45;&gt;Metamodel::MultipleInheritance</title>
<path fill="none" stroke="#6666ff" d="M659.57,-590.84C551.96,-615.46 347.18,-662.3 233.85,-688.22"/>
<polygon fill="#6666ff" stroke="#6666ff" points="232.81,-684.87 223.84,-690.51 234.37,-691.69 232.81,-684.87"/>
</g>
<!-- Metamodel::ParametricRoleHOW&#45;&gt;Metamodel::Stashing -->
<g id="edge16" class="edge">
<title>Metamodel::ParametricRoleHOW&#45;&gt;Metamodel::Stashing</title>
<path fill="none" stroke="#6666ff" d="M742.67,-592.98C784.36,-652.93 914.54,-840.11 914.54,-840.11 914.54,-840.11 995.25,-914.25 1038.59,-954.07"/>
<polygon fill="#6666ff" stroke="#6666ff" points="1036.24,-956.66 1045.97,-960.85 1040.97,-951.51 1036.24,-956.66"/>
</g>
<!-- Metamodel::ParametricRoleHOW&#45;&gt;Metamodel::RolePunning -->
<g id="edge18" class="edge">
<title>Metamodel::ParametricRoleHOW&#45;&gt;Metamodel::RolePunning</title>
<path fill="none" stroke="#6666ff" d="M715.7,-592.67C657.39,-665.87 437.3,-942.16 368.45,-1028.6"/>
<polygon fill="#6666ff" stroke="#6666ff" points="365.58,-1026.58 362.08,-1036.59 371.05,-1030.95 365.58,-1026.58"/>
</g>
<!-- Metamodel::MethodDelegation -->
<g id="node16" class="node">
<title>Metamodel::MethodDelegation</title>
<g id="a_node16"><a xlink:href="/type/Metamodel::MethodDelegation" xlink:title="Metamodel::MethodDelegation">
<ellipse fill="none" stroke="#6666ff" cx="1963.19" cy="-1018.67" rx="148.37" ry="18"/>
<text text-anchor="middle" x="1963.19" y="-1014.97" font-family="FreeSans" font-size="14.00" fill="#6666ff">Metamodel::MethodDelegation</text>
</a>
</g>
</g>
<!-- Metamodel::ModuleHOW -->
<g id="node17" class="node">
<title>Metamodel::ModuleHOW</title>
<g id="a_node17"><a xlink:href="/type/Metamodel::ModuleHOW" xlink:title="Metamodel::ModuleHOW">
<ellipse fill="none" stroke="#000000" cx="1458.42" cy="-872.6" rx="122.38" ry="18"/>
<text text-anchor="middle" x="1458.42" y="-868.9" font-family="FreeSans" font-size="14.00" fill="#000000">Metamodel::ModuleHOW</text>
</a>
</g>
</g>
<!-- Metamodel::ModuleHOW&#45;&gt;Metamodel::TypePretense -->
<g id="edge23" class="edge">
<title>Metamodel::ModuleHOW&#45;&gt;Metamodel::TypePretense</title>
<path fill="none" stroke="#6666ff" d="M1413.97,-889.41C1326.64,-922.43 1141.13,-992.59 1141.13,-992.59 1141.13,-992.59 1012.46,-1015.46 921.05,-1031.7"/>
<polygon fill="#6666ff" stroke="#6666ff" points="920.17,-1028.3 910.93,-1033.5 921.39,-1035.19 920.17,-1028.3"/>
</g>
<!-- Metamodel::ModuleHOW&#45;&gt;Any -->
<g id="edge3" class="edge">
<title>Metamodel::ModuleHOW&#45;&gt;Any</title>
<path fill="none" stroke="#000000" d="M1435.41,-890.44C1360.61,-948.46 1124.59,-1131.53 1045.29,-1193.05"/>
<polygon fill="#000000" stroke="#000000" points="1043.02,-1190.38 1037.26,-1199.27 1047.31,-1195.91 1043.02,-1190.38"/>
</g>
<!-- Metamodel::ModuleHOW&#45;&gt;Metamodel::Naming -->
<g id="edge19" class="edge">
<title>Metamodel::ModuleHOW&#45;&gt;Metamodel::Naming</title>
<path fill="none" stroke="#6666ff" d="M1348.87,-864.56C1279.49,-859.47 1190.3,-852.92 1121.93,-847.91"/>
<polygon fill="#6666ff" stroke="#6666ff" points="1121.8,-844.39 1111.57,-847.15 1121.29,-851.37 1121.8,-844.39"/>
</g>
<!-- Metamodel::ModuleHOW&#45;&gt;Metamodel::Documenting -->
<g id="edge20" class="edge">
<title>Metamodel::ModuleHOW&#45;&gt;Metamodel::Documenting</title>
<path fill="none" stroke="#6666ff" d="M1452.97,-854.34C1435.55,-795.9 1381.05,-613.12 1360.02,-542.58"/>
<polygon fill="#6666ff" stroke="#6666ff" points="1363.26,-541.22 1357.05,-532.64 1356.55,-543.22 1363.26,-541.22"/>
</g>
<!-- Metamodel::ModuleHOW&#45;&gt;Metamodel::Versioning -->
<g id="edge21" class="edge">
<title>Metamodel::ModuleHOW&#45;&gt;Metamodel::Versioning</title>
<path fill="none" stroke="#6666ff" d="M1446.43,-854.33C1398.52,-781.31 1223.28,-514.27 1223.28,-514.27 1223.28,-514.27 1241.17,-395.58 1249.57,-339.82"/>
<polygon fill="#6666ff" stroke="#6666ff" points="1253.04,-340.29 1251.07,-329.88 1246.11,-339.24 1253.04,-340.29"/>
</g>
<!-- Metamodel::ModuleHOW&#45;&gt;Metamodel::Stashing -->
<g id="edge22" class="edge">
<title>Metamodel::ModuleHOW&#45;&gt;Metamodel::Stashing</title>
<path fill="none" stroke="#6666ff" d="M1399.57,-888.48C1327.84,-907.84 1206.93,-940.48 1131.89,-960.73"/>
<polygon fill="#6666ff" stroke="#6666ff" points="1130.81,-957.4 1122.07,-963.38 1132.63,-964.16 1130.81,-957.4"/>
</g>
<!-- Metamodel::ModuleHOW&#45;&gt;Metamodel::MethodDelegation -->
<g id="edge24" class="edge">
<title>Metamodel::ModuleHOW&#45;&gt;Metamodel::MethodDelegation</title>
<path fill="none" stroke="#6666ff" d="M1513.88,-888.65C1607.2,-915.65 1795.25,-970.07 1895.94,-999.21"/>
<polygon fill="#6666ff" stroke="#6666ff" points="1895.12,-1002.62 1905.7,-1002.04 1897.07,-995.89 1895.12,-1002.62"/>
</g>
<!-- Metamodel::BoolificationProtocol -->
<g id="node18" class="node">
<title>Metamodel::BoolificationProtocol</title>
<g id="a_node18"><a xlink:href="/type/Metamodel::BoolificationProtocol" xlink:title="Metamodel::BoolificationProtocol">
<ellipse fill="none" stroke="#6666ff" cx="623.18" cy="-1999.19" rx="157.07" ry="18"/>
<text text-anchor="middle" x="623.18" y="-1995.49" font-family="FreeSans" font-size="14.00" fill="#6666ff">Metamodel::BoolificationProtocol</text>
</a>
</g>
</g>
<!-- Metamodel::ParametricRoleGroupHOW -->
<g id="node19" class="node">
<title>Metamodel::ParametricRoleGroupHOW</title>
<g id="a_node19"><a xlink:href="/type/Metamodel::ParametricRoleGroupHOW" xlink:title="Metamodel::ParametricRoleGroupHOW">
<ellipse fill="none" stroke="#000000" cx="785.62" cy="-1456.72" rx="184.67" ry="18"/>
<text text-anchor="middle" x="785.62" y="-1453.02" font-family="FreeSans" font-size="14.00" fill="#000000">Metamodel::ParametricRoleGroupHOW</text>
</a>
</g>
</g>
<!-- Metamodel::ParametricRoleGroupHOW&#45;&gt;Metamodel::TypePretense -->
<g id="edge27" class="edge">
<title>Metamodel::ParametricRoleGroupHOW&#45;&gt;Metamodel::TypePretense</title>
<path fill="none" stroke="#6666ff" d="M787.65,-1438.61C794.91,-1374.06 819.56,-1154.91 828.42,-1076.11"/>
<polygon fill="#6666ff" stroke="#6666ff" points="831.92,-1076.28 829.56,-1065.95 824.97,-1075.5 831.92,-1076.28"/>
</g>
<!-- Metamodel::ParametricRoleGroupHOW&#45;&gt;Any -->
<g id="edge4" class="edge">
<title>Metamodel::ParametricRoleGroupHOW&#45;&gt;Any</title>
<path fill="none" stroke="#000000" d="M803.16,-1438.43C845.04,-1394.78 950.77,-1284.56 996.91,-1236.47"/>
<polygon fill="#000000" stroke="#000000" points="999.64,-1238.68 1004.04,-1229.04 994.59,-1233.83 999.64,-1238.68"/>
</g>
<!-- Metamodel::ParametricRoleGroupHOW&#45;&gt;Metamodel::Naming -->
<g id="edge25" class="edge">
<title>Metamodel::ParametricRoleGroupHOW&#45;&gt;Metamodel::Naming</title>
<path fill="none" stroke="#6666ff" d="M793.31,-1438.61C826.92,-1359.44 959.32,-1047.65 959.32,-1047.65 959.32,-1047.65 957.84,-978.61 957.84,-978.61 957.84,-978.61 988.31,-907.97 1005.71,-867.64"/>
<polygon fill="#6666ff" stroke="#6666ff" points="1008.98,-868.91 1009.72,-858.34 1002.55,-866.13 1008.98,-868.91"/>
</g>
<!-- Metamodel::ParametricRoleGroupHOW&#45;&gt;Metamodel::Stashing -->
<g id="edge26" class="edge">
<title>Metamodel::ParametricRoleGroupHOW&#45;&gt;Metamodel::Stashing</title>
<path fill="none" stroke="#6666ff" d="M796.24,-1438.56C839.05,-1365.42 998.98,-1092.14 1049.78,-1005.33"/>
<polygon fill="#6666ff" stroke="#6666ff" points="1052.86,-1007 1054.89,-996.6 1046.82,-1003.46 1052.86,-1007"/>
</g>
<!-- Metamodel::ParametricRoleGroupHOW&#45;&gt;Metamodel::RolePunning -->
<g id="edge28" class="edge">
<title>Metamodel::ParametricRoleGroupHOW&#45;&gt;Metamodel::RolePunning</title>
<path fill="none" stroke="#6666ff" d="M765.95,-1438.66C695.64,-1374.09 456.59,-1154.58 375.16,-1079.8"/>
<polygon fill="#6666ff" stroke="#6666ff" points="377.07,-1076.81 367.34,-1072.62 372.33,-1081.96 377.07,-1076.81"/>
</g>
<!-- Metamodel::ParametricRoleGroupHOW&#45;&gt;Metamodel::BoolificationProtocol -->
<g id="edge29" class="edge">
<title>Metamodel::ParametricRoleGroupHOW&#45;&gt;Metamodel::BoolificationProtocol</title>
<path fill="none" stroke="#6666ff" d="M780.21,-1474.77C756.36,-1554.41 660.45,-1874.72 631.49,-1971.41"/>
<polygon fill="#6666ff" stroke="#6666ff" points="628.12,-1970.49 628.6,-1981.07 634.82,-1972.49 628.12,-1970.49"/>
</g>
<!-- Metamodel::PackageHOW -->
<g id="node20" class="node">
<title>Metamodel::PackageHOW</title>
<g id="a_node20"><a xlink:href="/type/Metamodel::PackageHOW" xlink:title="Metamodel::PackageHOW">
<ellipse fill="none" stroke="#000000" cx="1460.12" cy="-1112.26" rx="126.98" ry="18"/>
<text text-anchor="middle" x="1460.12" y="-1108.56" font-family="FreeSans" font-size="14.00" fill="#000000">Metamodel::PackageHOW</text>
</a>
</g>
</g>
<!-- Metamodel::PackageHOW&#45;&gt;Metamodel::TypePretense -->
<g id="edge33" class="edge">
<title>Metamodel::PackageHOW&#45;&gt;Metamodel::TypePretense</title>
<path fill="none" stroke="#6666ff" d="M1357.39,-1101.69C1243.84,-1090 1061.53,-1071.25 944.19,-1059.17"/>
<polygon fill="#6666ff" stroke="#6666ff" points="944.41,-1055.68 934.1,-1058.13 943.69,-1062.64 944.41,-1055.68"/>
</g>
<!-- Metamodel::PackageHOW&#45;&gt;Any -->
<g id="edge5" class="edge">
<title>Metamodel::PackageHOW&#45;&gt;Any</title>
<path fill="none" stroke="#000000" d="M1393.12,-1127.62C1298.97,-1149.22 1130.72,-1187.81 1056.24,-1204.89"/>
<polygon fill="#000000" stroke="#000000" points="1055.33,-1201.51 1046.37,-1207.16 1056.9,-1208.33 1055.33,-1201.51"/>
</g>
<!-- Metamodel::PackageHOW&#45;&gt;Metamodel::Naming -->
<g id="edge30" class="edge">
<title>Metamodel::PackageHOW&#45;&gt;Metamodel::Naming</title>
<path fill="none" stroke="#6666ff" d="M1431.42,-1094.62C1353.99,-1047.04 1140.87,-916.05 1054.55,-863"/>
<polygon fill="#6666ff" stroke="#6666ff" points="1056.23,-859.92 1045.87,-857.67 1052.56,-865.89 1056.23,-859.92"/>
</g>
<!-- Metamodel::PackageHOW&#45;&gt;Metamodel::Documenting -->
<g id="edge31" class="edge">
<title>Metamodel::PackageHOW&#45;&gt;Metamodel::Documenting</title>
<path fill="none" stroke="#6666ff" d="M1450.68,-1094.23C1421.5,-1038.45 1334.63,-872.41 1334.63,-872.41 1334.63,-872.41 1346.25,-627.55 1350.27,-542.84"/>
<polygon fill="#6666ff" stroke="#6666ff" points="1353.77,-542.82 1350.75,-532.66 1346.78,-542.49 1353.77,-542.82"/>
</g>
<!-- Metamodel::PackageHOW&#45;&gt;Metamodel::Stashing -->
<g id="edge32" class="edge">
<title>Metamodel::PackageHOW&#45;&gt;Metamodel::Stashing</title>
<path fill="none" stroke="#6666ff" d="M1410.92,-1095.61C1337.69,-1070.83 1200.31,-1024.34 1122.66,-998.07"/>
<polygon fill="#6666ff" stroke="#6666ff" points="1123.63,-994.7 1113.03,-994.81 1121.38,-1001.33 1123.63,-994.7"/>
</g>
<!-- Metamodel::PackageHOW&#45;&gt;Metamodel::MethodDelegation -->
<g id="edge34" class="edge">
<title>Metamodel::PackageHOW&#45;&gt;Metamodel::MethodDelegation</title>
<path fill="none" stroke="#6666ff" d="M1537.07,-1097.94C1627.19,-1081.18 1776.31,-1053.44 1872.11,-1035.62"/>
<polygon fill="#6666ff" stroke="#6666ff" points="1872.89,-1039.03 1882.08,-1033.76 1871.61,-1032.15 1872.89,-1039.03"/>
</g>
<!-- Metamodel::CurriedRoleHOW -->
<g id="node21" class="node">
<title>Metamodel::CurriedRoleHOW</title>
<g id="a_node21"><a xlink:href="/type/Metamodel::CurriedRoleHOW" xlink:title="Metamodel::CurriedRoleHOW">
<ellipse fill="none" stroke="#000000" cx="450.66" cy="-1469.03" rx="142.17" ry="18"/>
<text text-anchor="middle" x="450.66" y="-1465.33" font-family="FreeSans" font-size="14.00" fill="#000000">Metamodel::CurriedRoleHOW</text>
</a>
</g>
</g>
<!-- Metamodel::CurriedRoleHOW&#45;&gt;Metamodel::TypePretense -->
<g id="edge36" class="edge">
<title>Metamodel::CurriedRoleHOW&#45;&gt;Metamodel::TypePretense</title>
<path fill="none" stroke="#6666ff" d="M467.03,-1450.92C527.48,-1384.05 738.25,-1150.89 808.58,-1073.08"/>
<polygon fill="#6666ff" stroke="#6666ff" points="811.21,-1075.4 815.32,-1065.63 806.02,-1070.7 811.21,-1075.4"/>
</g>
<!-- Metamodel::CurriedRoleHOW&#45;&gt;Any -->
<g id="edge6" class="edge">
<title>Metamodel::CurriedRoleHOW&#45;&gt;Any</title>
<path fill="none" stroke="#000000" d="M489.28,-1451.66C595.06,-1404.09 888.15,-1272.28 986.41,-1228.09"/>
<polygon fill="#000000" stroke="#000000" points="987.88,-1231.27 995.57,-1223.97 985.01,-1224.88 987.88,-1231.27"/>
</g>
<!-- Metamodel::CurriedRoleHOW&#45;&gt;Metamodel::RolePunning -->
<g id="edge35" class="edge">
<title>Metamodel::CurriedRoleHOW&#45;&gt;Metamodel::RolePunning</title>
<path fill="none" stroke="#6666ff" d="M446.17,-1450.96C429.95,-1385.65 374.3,-1161.61 354.66,-1082.53"/>
<polygon fill="#6666ff" stroke="#6666ff" points="358.04,-1081.64 352.24,-1072.78 351.25,-1083.33 358.04,-1081.64"/>
</g>
</g>
</svg>
