<?xml version="1.0" encoding="UTF-8" standalone="no"?>
<!DOCTYPE svg PUBLIC "-//W3C//DTD SVG 1.1//EN"
 "http://www.w3.org/Graphics/SVG/1.1/DTD/svg11.dtd">
<!-- Generated by graphviz version 2.42.3 (0)
 -->
<!-- Title: perl6&#45;type&#45;graph Pages: 1 -->
<svg width="1591pt" height="1772pt"
 viewBox="0.00 0.00 1591.19 1772.17" xmlns="http://www.w3.org/2000/svg" xmlns:xlink="http://www.w3.org/1999/xlink">
<g id="graph0" class="graph" transform="scale(1 1) rotate(0) translate(4 1768.17)">
<title>perl6&#45;type&#45;graph</title>
<polygon fill="white" stroke="transparent" points="-4,4 -4,-1768.17 1587.19,-1768.17 1587.19,4 -4,4"/>
<!-- Metamodel::DefaultParent -->
<g id="node1" class="node">
<title>Metamodel::DefaultParent</title>
<g id="a_node1"><a xlink:href="/type/Metamodel::DefaultParent" xlink:title="Metamodel::DefaultParent">
<ellipse fill="none" stroke="#6666ff" cx="428.56" cy="-1060.13" rx="128.08" ry="18"/>
<text text-anchor="middle" x="428.56" y="-1056.43" font-family="FreeSans" font-size="14.00" fill="#6666ff">Metamodel::DefaultParent</text>
</a>
</g>
</g>
<!-- Mu -->
<g id="node2" class="node">
<title>Mu</title>
<g id="a_node2"><a xlink:href="/type/Mu" xlink:title="Mu">
<ellipse fill="none" stroke="#000000" cx="1443.74" cy="-18" rx="27" ry="18"/>
<text text-anchor="middle" x="1443.74" y="-14.3" font-family="FreeSans" font-size="14.00" fill="#000000">Mu</text>
</a>
</g>
</g>
<!-- Any -->
<g id="node3" class="node">
<title>Any</title>
<g id="a_node3"><a xlink:href="/type/Any" xlink:title="Any">
<ellipse fill="none" stroke="#000000" cx="1123.97" cy="-485.04" rx="28.7" ry="18"/>
<text text-anchor="middle" x="1123.97" y="-481.34" font-family="FreeSans" font-size="14.00" fill="#000000">Any</text>
</a>
</g>
</g>
<!-- Any&#45;&gt;Mu -->
<g id="edge1" class="edge">
<title>Any&#45;&gt;Mu</title>
<path fill="none" stroke="#000000" d="M1135.35,-468.42C1183.33,-398.34 1369.3,-126.72 1426.74,-42.83"/>
<polygon fill="#000000" stroke="#000000" points="1429.73,-44.65 1432.49,-34.42 1423.96,-40.7 1429.73,-44.65"/>
</g>
<!-- Metamodel::Naming -->
<g id="node4" class="node">
<title>Metamodel::Naming</title>
<g id="a_node4"><a xlink:href="/type/Metamodel::Naming" xlink:title="Metamodel::Naming">
<ellipse fill="none" stroke="#6666ff" cx="777.93" cy="-1746.17" rx="101.28" ry="18"/>
<text text-anchor="middle" x="777.93" y="-1742.47" font-family="FreeSans" font-size="14.00" fill="#6666ff">Metamodel::Naming</text>
</a>
</g>
</g>
<!-- Metamodel::Documenting -->
<g id="node5" class="node">
<title>Metamodel::Documenting</title>
<g id="a_node5"><a xlink:href="/type/Metamodel::Documenting" xlink:title="Metamodel::Documenting">
<ellipse fill="none" stroke="#6666ff" cx="1323.65" cy="-1330.31" rx="126.98" ry="18"/>
<text text-anchor="middle" x="1323.65" y="-1326.61" font-family="FreeSans" font-size="14.00" fill="#6666ff">Metamodel::Documenting</text>
</a>
</g>
</g>
<!-- Metamodel::Versioning -->
<g id="node6" class="node">
<title>Metamodel::Versioning</title>
<g id="a_node6"><a xlink:href="/type/Metamodel::Versioning" xlink:title="Metamodel::Versioning">
<ellipse fill="none" stroke="#6666ff" cx="231.88" cy="-1342.62" rx="114.28" ry="18"/>
<text text-anchor="middle" x="231.88" y="-1338.92" font-family="FreeSans" font-size="14.00" fill="#6666ff">Metamodel::Versioning</text>
</a>
</g>
</g>
<!-- Metamodel::Stashing -->
<g id="node7" class="node">
<title>Metamodel::Stashing</title>
<g id="a_node7"><a xlink:href="/type/Metamodel::Stashing" xlink:title="Metamodel::Stashing">
<ellipse fill="none" stroke="#6666ff" cx="296.86" cy="-683.24" rx="105.88" ry="18"/>
<text text-anchor="middle" x="296.86" y="-679.54" font-family="FreeSans" font-size="14.00" fill="#6666ff">Metamodel::Stashing</text>
</a>
</g>
</g>
<!-- Metamodel::AttributeContainer -->
<g id="node8" class="node">
<title>Metamodel::AttributeContainer</title>
<g id="a_node8"><a xlink:href="/type/Metamodel::AttributeContainer" xlink:title="Metamodel::AttributeContainer">
<ellipse fill="none" stroke="#6666ff" cx="1374.8" cy="-970.07" rx="150.27" ry="18"/>
<text text-anchor="middle" x="1374.8" y="-966.37" font-family="FreeSans" font-size="14.00" fill="#6666ff">Metamodel::AttributeContainer</text>
</a>
</g>
</g>
<!-- Metamodel::Finalization -->
<g id="node9" class="node">
<title>Metamodel::Finalization</title>
<g id="a_node9"><a xlink:href="/type/Metamodel::Finalization" xlink:title="Metamodel::Finalization">
<ellipse fill="none" stroke="#6666ff" cx="478.55" cy="-591.06" rx="116.98" ry="18"/>
<text text-anchor="middle" x="478.55" y="-587.36" font-family="FreeSans" font-size="14.00" fill="#6666ff">Metamodel::Finalization</text>
</a>
</g>
</g>
<!-- Metamodel::MethodContainer -->
<g id="node10" class="node">
<title>Metamodel::MethodContainer</title>
<g id="a_node10"><a xlink:href="/type/Metamodel::MethodContainer" xlink:title="Metamodel::MethodContainer">
<ellipse fill="none" stroke="#6666ff" cx="836.35" cy="-569.65" rx="143.77" ry="18"/>
<text text-anchor="middle" x="836.35" y="-565.95" font-family="FreeSans" font-size="14.00" fill="#6666ff">Metamodel::MethodContainer</text>
</a>
</g>
</g>
<!-- Metamodel::PrivateMethodContainer -->
<g id="node11" class="node">
<title>Metamodel::PrivateMethodContainer</title>
<g id="a_node11"><a xlink:href="/type/Metamodel::PrivateMethodContainer" xlink:title="Metamodel::PrivateMethodContainer">
<ellipse fill="none" stroke="#6666ff" cx="648.51" cy="-461.84" rx="174.67" ry="18"/>
<text text-anchor="middle" x="648.51" y="-458.14" font-family="FreeSans" font-size="14.00" fill="#6666ff">Metamodel::PrivateMethodContainer</text>
</a>
</g>
</g>
<!-- Metamodel::MultiMethodContainer -->
<g id="node12" class="node">
<title>Metamodel::MultiMethodContainer</title>
<g id="a_node12"><a xlink:href="/type/Metamodel::MultiMethodContainer" xlink:title="Metamodel::MultiMethodContainer">
<ellipse fill="none" stroke="#6666ff" cx="173.9" cy="-877.15" rx="165.97" ry="18"/>
<text text-anchor="middle" x="173.9" y="-873.45" font-family="FreeSans" font-size="14.00" fill="#6666ff">Metamodel::MultiMethodContainer</text>
</a>
</g>
</g>
<!-- Metamodel::RoleContainer -->
<g id="node13" class="node">
<title>Metamodel::RoleContainer</title>
<g id="a_node13"><a xlink:href="/type/Metamodel::RoleContainer" xlink:title="Metamodel::RoleContainer">
<ellipse fill="none" stroke="#6666ff" cx="1453.2" cy="-1170.72" rx="129.98" ry="18"/>
<text text-anchor="middle" x="1453.2" y="-1167.02" font-family="FreeSans" font-size="14.00" fill="#6666ff">Metamodel::RoleContainer</text>
</a>
</g>
</g>
<!-- Metamodel::MultipleInheritance -->
<g id="node14" class="node">
<title>Metamodel::MultipleInheritance</title>
<g id="a_node14"><a xlink:href="/type/Metamodel::MultipleInheritance" xlink:title="Metamodel::MultipleInheritance">
<ellipse fill="none" stroke="#6666ff" cx="1282.09" cy="-1574.75" rx="153.27" ry="18"/>
<text text-anchor="middle" x="1282.09" y="-1571.05" font-family="FreeSans" font-size="14.00" fill="#6666ff">Metamodel::MultipleInheritance</text>
</a>
</g>
</g>
<!-- Metamodel::C3MRO -->
<g id="node15" class="node">
<title>Metamodel::C3MRO</title>
<g id="a_node15"><a xlink:href="/type/Metamodel::C3MRO" xlink:title="Metamodel::C3MRO">
<ellipse fill="none" stroke="#6666ff" cx="1016.37" cy="-1723.34" rx="100.18" ry="18"/>
<text text-anchor="middle" x="1016.37" y="-1719.64" font-family="FreeSans" font-size="14.00" fill="#6666ff">Metamodel::C3MRO</text>
</a>
</g>
</g>
<!-- Metamodel::MROBasedMethodDispatch -->
<g id="node16" class="node">
<title>Metamodel::MROBasedMethodDispatch</title>
<g id="a_node16"><a xlink:href="/type/Metamodel::MROBasedMethodDispatch" xlink:title="Metamodel::MROBasedMethodDispatch">
<ellipse fill="none" stroke="#6666ff" cx="999.67" cy="-799.46" rx="188.47" ry="18"/>
<text text-anchor="middle" x="999.67" y="-795.76" font-family="FreeSans" font-size="14.00" fill="#6666ff">Metamodel::MROBasedMethodDispatch</text>
</a>
</g>
</g>
<!-- Metamodel::MROBasedTypeChecking -->
<g id="node17" class="node">
<title>Metamodel::MROBasedTypeChecking</title>
<g id="a_node17"><a xlink:href="/type/Metamodel::MROBasedTypeChecking" xlink:title="Metamodel::MROBasedTypeChecking">
<ellipse fill="none" stroke="#6666ff" cx="1346.03" cy="-755.45" rx="178.97" ry="18"/>
<text text-anchor="middle" x="1346.03" y="-751.75" font-family="FreeSans" font-size="14.00" fill="#6666ff">Metamodel::MROBasedTypeChecking</text>
</a>
</g>
</g>
<!-- Metamodel::Trusting -->
<g id="node18" class="node">
<title>Metamodel::Trusting</title>
<g id="a_node18"><a xlink:href="/type/Metamodel::Trusting" xlink:title="Metamodel::Trusting">
<ellipse fill="none" stroke="#6666ff" cx="302.29" cy="-1561.05" rx="102.88" ry="18"/>
<text text-anchor="middle" x="302.29" y="-1557.35" font-family="FreeSans" font-size="14.00" fill="#6666ff">Metamodel::Trusting</text>
</a>
</g>
</g>
<!-- Metamodel::BUILDPLAN -->
<g id="node19" class="node">
<title>Metamodel::BUILDPLAN</title>
<g id="a_node19"><a xlink:href="/type/Metamodel::BUILDPLAN" xlink:title="Metamodel::BUILDPLAN">
<ellipse fill="none" stroke="#6666ff" cx="118.29" cy="-1134.71" rx="118.08" ry="18"/>
<text text-anchor="middle" x="118.29" y="-1131.01" font-family="FreeSans" font-size="14.00" fill="#6666ff">Metamodel::BUILDPLAN</text>
</a>
</g>
</g>
<!-- Metamodel::Mixins -->
<g id="node20" class="node">
<title>Metamodel::Mixins</title>
<g id="a_node20"><a xlink:href="/type/Metamodel::Mixins" xlink:title="Metamodel::Mixins">
<ellipse fill="none" stroke="#6666ff" cx="531.65" cy="-1709.34" rx="94.78" ry="18"/>
<text text-anchor="middle" x="531.65" y="-1705.64" font-family="FreeSans" font-size="14.00" fill="#6666ff">Metamodel::Mixins</text>
</a>
</g>
</g>
<!-- Metamodel::BoolificationProtocol -->
<g id="node21" class="node">
<title>Metamodel::BoolificationProtocol</title>
<g id="a_node21"><a xlink:href="/type/Metamodel::BoolificationProtocol" xlink:title="Metamodel::BoolificationProtocol">
<ellipse fill="none" stroke="#6666ff" cx="1049.55" cy="-1453.87" rx="157.07" ry="18"/>
<text text-anchor="middle" x="1049.55" y="-1450.17" font-family="FreeSans" font-size="14.00" fill="#6666ff">Metamodel::BoolificationProtocol</text>
</a>
</g>
</g>
<!-- Metamodel::ClassHOW -->
<g id="node22" class="node">
<title>Metamodel::ClassHOW</title>
<g id="a_node22"><a xlink:href="/type/Metamodel::ClassHOW" xlink:title="Metamodel::ClassHOW">
<ellipse fill="none" stroke="#000000" cx="793.98" cy="-1100.74" rx="113.18" ry="18"/>
<text text-anchor="middle" x="793.98" y="-1097.04" font-family="FreeSans" font-size="14.00" fill="#000000">Metamodel::ClassHOW</text>
</a>
</g>
</g>
<!-- Metamodel::ClassHOW&#45;&gt;Metamodel::DefaultParent -->
<g id="edge15" class="edge">
<title>Metamodel::ClassHOW&#45;&gt;Metamodel::DefaultParent</title>
<path fill="none" stroke="#6666ff" d="M700.83,-1090.39C651.66,-1084.92 591.01,-1078.18 539.43,-1072.45"/>
<polygon fill="#6666ff" stroke="#6666ff" points="539.57,-1068.94 529.25,-1071.32 538.8,-1075.9 539.57,-1068.94"/>
</g>
<!-- Metamodel::ClassHOW&#45;&gt;Any -->
<g id="edge2" class="edge">
<title>Metamodel::ClassHOW&#45;&gt;Any</title>
<path fill="none" stroke="#000000" d="M794.94,-1082.34C798.33,-1016.9 809.59,-799.33 809.59,-799.33 809.59,-799.33 1028.69,-580.3 1101.07,-507.93"/>
<polygon fill="#000000" stroke="#000000" points="1103.78,-510.17 1108.38,-500.63 1098.83,-505.22 1103.78,-510.17"/>
</g>
<!-- Metamodel::ClassHOW&#45;&gt;Metamodel::Naming -->
<g id="edge4" class="edge">
<title>Metamodel::ClassHOW&#45;&gt;Metamodel::Naming</title>
<path fill="none" stroke="#6666ff" d="M793.53,-1119.02C791.29,-1209.26 781.38,-1607.38 778.64,-1717.73"/>
<polygon fill="#6666ff" stroke="#6666ff" points="775.13,-1717.97 778.38,-1728.06 782.13,-1718.15 775.13,-1717.97"/>
</g>
<!-- Metamodel::ClassHOW&#45;&gt;Metamodel::Documenting -->
<g id="edge5" class="edge">
<title>Metamodel::ClassHOW&#45;&gt;Metamodel::Documenting</title>
<path fill="none" stroke="#6666ff" d="M833.36,-1117.81C928.45,-1159.02 1170.43,-1263.9 1274.66,-1309.08"/>
<polygon fill="#6666ff" stroke="#6666ff" points="1273.44,-1312.37 1284.01,-1313.13 1276.23,-1305.94 1273.44,-1312.37"/>
</g>
<!-- Metamodel::ClassHOW&#45;&gt;Metamodel::Versioning -->
<g id="edge6" class="edge">
<title>Metamodel::ClassHOW&#45;&gt;Metamodel::Versioning</title>
<path fill="none" stroke="#6666ff" d="M754.46,-1117.75C654.27,-1160.86 390.58,-1274.33 280.86,-1321.54"/>
<polygon fill="#6666ff" stroke="#6666ff" points="279.16,-1318.46 271.36,-1325.63 281.93,-1324.89 279.16,-1318.46"/>
</g>
<!-- Metamodel::ClassHOW&#45;&gt;Metamodel::Stashing -->
<g id="edge7" class="edge">
<title>Metamodel::ClassHOW&#45;&gt;Metamodel::Stashing</title>
<path fill="none" stroke="#6666ff" d="M772.62,-1082.8C693.43,-1016.29 416.49,-783.7 325.83,-707.57"/>
<polygon fill="#6666ff" stroke="#6666ff" points="328.05,-704.86 318.14,-701.11 323.55,-710.22 328.05,-704.86"/>
</g>
<!-- Metamodel::ClassHOW&#45;&gt;Metamodel::AttributeContainer -->
<g id="edge8" class="edge">
<title>Metamodel::ClassHOW&#45;&gt;Metamodel::AttributeContainer</title>
<path fill="none" stroke="#6666ff" d="M859.48,-1086.01C966.43,-1061.94 1178.24,-1014.29 1294.23,-988.19"/>
<polygon fill="#6666ff" stroke="#6666ff" points="1295.14,-991.58 1304.12,-985.97 1293.6,-984.75 1295.14,-991.58"/>
</g>
<!-- Metamodel::ClassHOW&#45;&gt;Metamodel::Finalization -->
<g id="edge9" class="edge">
<title>Metamodel::ClassHOW&#45;&gt;Metamodel::Finalization</title>
<path fill="none" stroke="#6666ff" d="M782.76,-1082.6C735.33,-1005.97 551.24,-708.51 494.98,-617.6"/>
<polygon fill="#6666ff" stroke="#6666ff" points="497.88,-615.64 489.64,-608.98 491.93,-619.33 497.88,-615.64"/>
</g>
<!-- Metamodel::ClassHOW&#45;&gt;Metamodel::MethodContainer -->
<g id="edge10" class="edge">
<title>Metamodel::ClassHOW&#45;&gt;Metamodel::MethodContainer</title>
<path fill="none" stroke="#6666ff" d="M794.94,-1082.34C798.33,-1016.9 809.59,-799.33 809.59,-799.33 809.59,-799.33 825.93,-659.15 833.07,-597.82"/>
<polygon fill="#6666ff" stroke="#6666ff" points="836.57,-598.01 834.25,-587.67 829.62,-597.2 836.57,-598.01"/>
</g>
<!-- Metamodel::ClassHOW&#45;&gt;Metamodel::PrivateMethodContainer -->
<g id="edge11" class="edge">
<title>Metamodel::ClassHOW&#45;&gt;Metamodel::PrivateMethodContainer</title>
<path fill="none" stroke="#6666ff" d="M789.87,-1082.65C769.53,-993.33 679.81,-599.3 654.93,-490.03"/>
<polygon fill="#6666ff" stroke="#6666ff" points="658.3,-489.06 652.67,-480.08 651.47,-490.61 658.3,-489.06"/>
</g>
<!-- Metamodel::ClassHOW&#45;&gt;Metamodel::MultiMethodContainer -->
<g id="edge12" class="edge">
<title>Metamodel::ClassHOW&#45;&gt;Metamodel::MultiMethodContainer</title>
<path fill="none" stroke="#6666ff" d="M748.14,-1084.21C637.11,-1044.18 353.96,-942.08 231.63,-897.97"/>
<polygon fill="#6666ff" stroke="#6666ff" points="232.65,-894.62 222.05,-894.52 230.27,-901.2 232.65,-894.62"/>
</g>
<!-- Metamodel::ClassHOW&#45;&gt;Metamodel::RoleContainer -->
<g id="edge13" class="edge">
<title>Metamodel::ClassHOW&#45;&gt;Metamodel::RoleContainer</title>
<path fill="none" stroke="#6666ff" d="M888.08,-1110.73C1007.15,-1123.37 1212.03,-1145.12 1339.66,-1158.67"/>
<polygon fill="#6666ff" stroke="#6666ff" points="1339.54,-1162.17 1349.85,-1159.75 1340.28,-1155.21 1339.54,-1162.17"/>
</g>
<!-- Metamodel::ClassHOW&#45;&gt;Metamodel::MultipleInheritance -->
<g id="edge14" class="edge">
<title>Metamodel::ClassHOW&#45;&gt;Metamodel::MultipleInheritance</title>
<path fill="none" stroke="#6666ff" d="M814.82,-1118.5C898.86,-1190.12 1208.43,-1453.93 1208.43,-1453.93 1208.43,-1453.93 1243.9,-1512.1 1265.61,-1547.71"/>
<polygon fill="#6666ff" stroke="#6666ff" points="1262.87,-1549.95 1271.07,-1556.67 1268.85,-1546.3 1262.87,-1549.95"/>
</g>
<!-- Metamodel::ClassHOW&#45;&gt;Metamodel::C3MRO -->
<g id="edge16" class="edge">
<title>Metamodel::ClassHOW&#45;&gt;Metamodel::C3MRO</title>
<path fill="none" stroke="#6666ff" d="M798.91,-1118.74C818.61,-1190.69 890.66,-1453.82 890.66,-1453.82 890.66,-1453.82 971.59,-1627.32 1003.58,-1695.91"/>
<polygon fill="#6666ff" stroke="#6666ff" points="1000.53,-1697.65 1007.93,-1705.23 1006.87,-1694.69 1000.53,-1697.65"/>
</g>
<!-- Metamodel::ClassHOW&#45;&gt;Metamodel::MROBasedMethodDispatch -->
<g id="edge17" class="edge">
<title>Metamodel::ClassHOW&#45;&gt;Metamodel::MROBasedMethodDispatch</title>
<path fill="none" stroke="#6666ff" d="M806.24,-1082.8C840.95,-1031.95 940.12,-886.68 981.35,-826.3"/>
<polygon fill="#6666ff" stroke="#6666ff" points="984.48,-827.92 987.23,-817.69 978.7,-823.98 984.48,-827.92"/>
</g>
<!-- Metamodel::ClassHOW&#45;&gt;Metamodel::MROBasedTypeChecking -->
<g id="edge18" class="edge">
<title>Metamodel::ClassHOW&#45;&gt;Metamodel::MROBasedTypeChecking</title>
<path fill="none" stroke="#6666ff" d="M822.12,-1083.15C913.92,-1025.73 1204.79,-843.8 1308.69,-778.81"/>
<polygon fill="#6666ff" stroke="#6666ff" points="1310.67,-781.7 1317.29,-773.43 1306.96,-775.77 1310.67,-781.7"/>
</g>
<!-- Metamodel::ClassHOW&#45;&gt;Metamodel::Trusting -->
<g id="edge19" class="edge">
<title>Metamodel::ClassHOW&#45;&gt;Metamodel::Trusting</title>
<path fill="none" stroke="#6666ff" d="M775.01,-1118.51C699.03,-1189.63 416.61,-1454.02 328.63,-1536.39"/>
<polygon fill="#6666ff" stroke="#6666ff" points="326.12,-1533.95 321.21,-1543.34 330.9,-1539.06 326.12,-1533.95"/>
</g>
<!-- Metamodel::ClassHOW&#45;&gt;Metamodel::BUILDPLAN -->
<g id="edge20" class="edge">
<title>Metamodel::ClassHOW&#45;&gt;Metamodel::BUILDPLAN</title>
<path fill="none" stroke="#6666ff" d="M685.8,-1106.18C564.38,-1112.28 367.8,-1122.16 240.81,-1128.55"/>
<polygon fill="#6666ff" stroke="#6666ff" points="240.46,-1125.06 230.65,-1129.06 240.82,-1132.05 240.46,-1125.06"/>
</g>
<!-- Metamodel::ClassHOW&#45;&gt;Metamodel::Mixins -->
<g id="edge21" class="edge">
<title>Metamodel::ClassHOW&#45;&gt;Metamodel::Mixins</title>
<path fill="none" stroke="#6666ff" d="M790.53,-1119.2C777.63,-1188.14 733,-1426.64 733,-1426.64 733,-1426.64 600.56,-1612.58 550.51,-1682.87"/>
<polygon fill="#6666ff" stroke="#6666ff" points="547.5,-1681.05 544.55,-1691.22 553.21,-1685.11 547.5,-1681.05"/>
</g>
<!-- Metamodel::ClassHOW&#45;&gt;Metamodel::BoolificationProtocol -->
<g id="edge22" class="edge">
<title>Metamodel::ClassHOW&#45;&gt;Metamodel::BoolificationProtocol</title>
<path fill="none" stroke="#6666ff" d="M807.01,-1118.74C849.05,-1176.83 981.27,-1359.53 1030.68,-1427.8"/>
<polygon fill="#6666ff" stroke="#6666ff" points="1027.85,-1429.86 1036.55,-1435.91 1033.52,-1425.76 1027.85,-1429.86"/>
</g>
<!-- Metamodel::GrammarHOW -->
<g id="node23" class="node">
<title>Metamodel::GrammarHOW</title>
<g id="a_node23"><a xlink:href="/type/Metamodel::GrammarHOW" xlink:title="Metamodel::GrammarHOW">
<ellipse fill="none" stroke="#000000" cx="599.46" cy="-1426.49" rx="131.88" ry="18"/>
<text text-anchor="middle" x="599.46" y="-1422.79" font-family="FreeSans" font-size="14.00" fill="#000000">Metamodel::GrammarHOW</text>
</a>
</g>
</g>
<!-- Metamodel::GrammarHOW&#45;&gt;Metamodel::DefaultParent -->
<g id="edge23" class="edge">
<title>Metamodel::GrammarHOW&#45;&gt;Metamodel::DefaultParent</title>
<path fill="none" stroke="#6666ff" d="M590.99,-1408.32C563.2,-1348.75 474.72,-1159.08 441.41,-1087.67"/>
<polygon fill="#6666ff" stroke="#6666ff" points="444.49,-1085.99 437.09,-1078.41 438.14,-1088.95 444.49,-1085.99"/>
</g>
<!-- Metamodel::GrammarHOW&#45;&gt;Metamodel::ClassHOW -->
<g id="edge3" class="edge">
<title>Metamodel::GrammarHOW&#45;&gt;Metamodel::ClassHOW</title>
<path fill="none" stroke="#000000" d="M610.2,-1408.51C642.61,-1354.23 739.62,-1191.78 778.05,-1127.42"/>
<polygon fill="#000000" stroke="#000000" points="781.16,-1129.05 783.28,-1118.67 775.15,-1125.46 781.16,-1129.05"/>
</g>
</g>
</svg>
