<?xml version="1.0" encoding="UTF-8" standalone="no"?>
<!DOCTYPE svg PUBLIC "-//W3C//DTD SVG 1.1//EN"
 "http://www.w3.org/Graphics/SVG/1.1/DTD/svg11.dtd">
<!-- Generated by graphviz version 2.42.3 (0)
 -->
<!-- Title: perl6&#45;type&#45;graph Pages: 1 -->
<svg width="320pt" height="332pt"
 viewBox="0.00 0.00 319.97 332.00" xmlns="http://www.w3.org/2000/svg" xmlns:xlink="http://www.w3.org/1999/xlink">
<g id="graph0" class="graph" transform="scale(1 1) rotate(0) translate(4 328)">
<title>perl6&#45;type&#45;graph</title>
<polygon fill="white" stroke="transparent" points="-4,4 -4,-328 315.97,-328 315.97,4 -4,4"/>
<!-- X::Proc::Async::TapBeforeSpawn -->
<g id="node1" class="node">
<title>X::Proc::Async::TapBeforeSpawn</title>
<g id="a_node1"><a xlink:href="/type/X::Proc::Async::TapBeforeSpawn" xlink:title="X::Proc::Async::TapBeforeSpawn">
<ellipse fill="none" stroke="#000000" cx="155.99" cy="-18" rx="155.97" ry="18"/>
<text text-anchor="middle" x="155.99" y="-14.3" font-family="FreeSans" font-size="14.00" fill="#000000">X::Proc::Async::TapBeforeSpawn</text>
</a>
</g>
</g>
<!-- Exception -->
<g id="node4" class="node">
<title>Exception</title>
<g id="a_node4"><a xlink:href="/type/Exception" xlink:title="Exception">
<ellipse fill="none" stroke="#000000" cx="155.99" cy="-162" rx="55.49" ry="18"/>
<text text-anchor="middle" x="155.99" y="-158.3" font-family="FreeSans" font-size="14.00" fill="#000000">Exception</text>
</a>
</g>
</g>
<!-- X::Proc::Async::TapBeforeSpawn&#45;&gt;Exception -->
<g id="edge1" class="edge">
<title>X::Proc::Async::TapBeforeSpawn&#45;&gt;Exception</title>
<path fill="none" stroke="#000000" d="M145.69,-36.06C136.33,-51.55 123.99,-72 123.99,-72 123.99,-72 123.99,-108 123.99,-108 123.99,-108 132.4,-121.93 140.6,-135.51"/>
<polygon fill="#000000" stroke="#000000" points="137.7,-137.48 145.86,-144.23 143.69,-133.86 137.7,-137.48"/>
</g>
<!-- X::Proc::Async -->
<g id="node5" class="node">
<title>X::Proc::Async</title>
<g id="a_node5"><a xlink:href="/type/X::Proc::Async" xlink:title="X::Proc::Async">
<ellipse fill="none" stroke="#6666ff" cx="207.99" cy="-90" rx="75.29" ry="18"/>
<text text-anchor="middle" x="207.99" y="-86.3" font-family="FreeSans" font-size="14.00" fill="#6666ff">X::Proc::Async</text>
</a>
</g>
</g>
<!-- X::Proc::Async::TapBeforeSpawn&#45;&gt;X::Proc::Async -->
<g id="edge5" class="edge">
<title>X::Proc::Async::TapBeforeSpawn&#45;&gt;X::Proc::Async</title>
<path fill="none" stroke="#6666ff" d="M168.57,-35.95C174.83,-44.37 182.52,-54.72 189.44,-64.03"/>
<polygon fill="#6666ff" stroke="#6666ff" points="186.74,-66.27 195.51,-72.21 192.36,-62.1 186.74,-66.27"/>
</g>
<!-- Mu -->
<g id="node2" class="node">
<title>Mu</title>
<g id="a_node2"><a xlink:href="/type/Mu" xlink:title="Mu">
<ellipse fill="none" stroke="#000000" cx="155.99" cy="-306" rx="27" ry="18"/>
<text text-anchor="middle" x="155.99" y="-302.3" font-family="FreeSans" font-size="14.00" fill="#000000">Mu</text>
</a>
</g>
</g>
<!-- Any -->
<g id="node3" class="node">
<title>Any</title>
<g id="a_node3"><a xlink:href="/type/Any" xlink:title="Any">
<ellipse fill="none" stroke="#000000" cx="155.99" cy="-234" rx="28.7" ry="18"/>
<text text-anchor="middle" x="155.99" y="-230.3" font-family="FreeSans" font-size="14.00" fill="#000000">Any</text>
</a>
</g>
</g>
<!-- Any&#45;&gt;Mu -->
<g id="edge2" class="edge">
<title>Any&#45;&gt;Mu</title>
<path fill="none" stroke="#000000" d="M155.99,-252.3C155.99,-260.02 155.99,-269.29 155.99,-277.89"/>
<polygon fill="#000000" stroke="#000000" points="152.49,-277.9 155.99,-287.9 159.49,-277.9 152.49,-277.9"/>
</g>
<!-- Exception&#45;&gt;Any -->
<g id="edge3" class="edge">
<title>Exception&#45;&gt;Any</title>
<path fill="none" stroke="#000000" d="M155.99,-180.3C155.99,-188.02 155.99,-197.29 155.99,-205.89"/>
<polygon fill="#000000" stroke="#000000" points="152.49,-205.9 155.99,-215.9 159.49,-205.9 152.49,-205.9"/>
</g>
<!-- X::Proc::Async&#45;&gt;Exception -->
<g id="edge4" class="edge">
<title>X::Proc::Async&#45;&gt;Exception</title>
<path fill="none" stroke="#000000" d="M195.4,-107.95C189.14,-116.37 181.45,-126.72 174.53,-136.03"/>
<polygon fill="#000000" stroke="#000000" points="171.61,-134.1 168.46,-144.21 177.23,-138.27 171.61,-134.1"/>
</g>
</g>
</svg>
