<?xml version="1.0" encoding="UTF-8" standalone="no"?>
<!DOCTYPE svg PUBLIC "-//W3C//DTD SVG 1.1//EN"
 "http://www.w3.org/Graphics/SVG/1.1/DTD/svg11.dtd">
<!-- Generated by graphviz version 2.42.3 (0)
 -->
<!-- Title: perl6&#45;type&#45;graph Pages: 1 -->
<svg width="213pt" height="404pt"
 viewBox="0.00 0.00 213.24 404.00" xmlns="http://www.w3.org/2000/svg" xmlns:xlink="http://www.w3.org/1999/xlink">
<g id="graph0" class="graph" transform="scale(1 1) rotate(0) translate(4 400)">
<title>perl6&#45;type&#45;graph</title>
<polygon fill="white" stroke="transparent" points="-4,4 -4,-400 209.24,-400 209.24,4 -4,4"/>
<!-- X::IO::Link -->
<g id="node1" class="node">
<title>X::IO::Link</title>
<g id="a_node1"><a xlink:href="/type/X::IO::Link" xlink:title="X::IO::Link">
<ellipse fill="none" stroke="#000000" cx="57.84" cy="-18" rx="57.69" ry="18"/>
<text text-anchor="middle" x="57.84" y="-14.3" font-family="FreeSans" font-size="14.00" fill="#000000">X::IO::Link</text>
</a>
</g>
</g>
<!-- Exception -->
<g id="node4" class="node">
<title>Exception</title>
<g id="a_node4"><a xlink:href="/type/Exception" xlink:title="Exception">
<ellipse fill="none" stroke="#000000" cx="80.84" cy="-234" rx="55.49" ry="18"/>
<text text-anchor="middle" x="80.84" y="-230.3" font-family="FreeSans" font-size="14.00" fill="#000000">Exception</text>
</a>
</g>
</g>
<!-- X::IO::Link&#45;&gt;Exception -->
<g id="edge1" class="edge">
<title>X::IO::Link&#45;&gt;Exception</title>
<path fill="none" stroke="#000000" d="M55.81,-36.15C56.26,-73.34 65.49,-161.63 73.32,-206.23"/>
<polygon fill="#000000" stroke="#000000" points="69.88,-206.88 75.17,-216.06 76.76,-205.59 69.88,-206.88"/>
</g>
<!-- X::IO::Link&#45;&gt;Exception -->
<g id="edge2" class="edge">
<title>X::IO::Link&#45;&gt;Exception</title>
<path fill="none" stroke="#000000" d="M63.57,-36.15C71.08,-73.17 80.77,-160.82 82.59,-205.61"/>
<polygon fill="#000000" stroke="#000000" points="79.1,-205.87 82.88,-215.77 86.1,-205.67 79.1,-205.87"/>
</g>
<!-- X::IO -->
<g id="node6" class="node">
<title>X::IO</title>
<g id="a_node6"><a xlink:href="/type/X::IO" xlink:title="X::IO">
<ellipse fill="none" stroke="#6666ff" cx="127.84" cy="-90" rx="33.29" ry="18"/>
<text text-anchor="middle" x="127.84" y="-86.3" font-family="FreeSans" font-size="14.00" fill="#6666ff">X::IO</text>
</a>
</g>
</g>
<!-- X::IO::Link&#45;&gt;X::IO -->
<g id="edge7" class="edge">
<title>X::IO::Link&#45;&gt;X::IO</title>
<path fill="none" stroke="#6666ff" d="M74.43,-35.59C83.58,-44.74 95.08,-56.24 105.06,-66.22"/>
<polygon fill="#6666ff" stroke="#6666ff" points="102.79,-68.89 112.33,-73.49 107.74,-63.94 102.79,-68.89"/>
</g>
<!-- Mu -->
<g id="node2" class="node">
<title>Mu</title>
<g id="a_node2"><a xlink:href="/type/Mu" xlink:title="Mu">
<ellipse fill="none" stroke="#000000" cx="80.84" cy="-378" rx="27" ry="18"/>
<text text-anchor="middle" x="80.84" y="-374.3" font-family="FreeSans" font-size="14.00" fill="#000000">Mu</text>
</a>
</g>
</g>
<!-- Any -->
<g id="node3" class="node">
<title>Any</title>
<g id="a_node3"><a xlink:href="/type/Any" xlink:title="Any">
<ellipse fill="none" stroke="#000000" cx="80.84" cy="-306" rx="28.7" ry="18"/>
<text text-anchor="middle" x="80.84" y="-302.3" font-family="FreeSans" font-size="14.00" fill="#000000">Any</text>
</a>
</g>
</g>
<!-- Any&#45;&gt;Mu -->
<g id="edge3" class="edge">
<title>Any&#45;&gt;Mu</title>
<path fill="none" stroke="#000000" d="M80.84,-324.3C80.84,-332.02 80.84,-341.29 80.84,-349.89"/>
<polygon fill="#000000" stroke="#000000" points="77.34,-349.9 80.84,-359.9 84.34,-349.9 77.34,-349.9"/>
</g>
<!-- Exception&#45;&gt;Any -->
<g id="edge4" class="edge">
<title>Exception&#45;&gt;Any</title>
<path fill="none" stroke="#000000" d="M80.84,-252.3C80.84,-260.02 80.84,-269.29 80.84,-277.89"/>
<polygon fill="#000000" stroke="#000000" points="77.34,-277.9 80.84,-287.9 84.34,-277.9 77.34,-277.9"/>
</g>
<!-- X::OS -->
<g id="node5" class="node">
<title>X::OS</title>
<g id="a_node5"><a xlink:href="/type/X::OS" xlink:title="X::OS">
<ellipse fill="none" stroke="#6666ff" cx="168.84" cy="-162" rx="36.29" ry="18"/>
<text text-anchor="middle" x="168.84" y="-158.3" font-family="FreeSans" font-size="14.00" fill="#6666ff">X::OS</text>
</a>
</g>
</g>
<!-- X::OS&#45;&gt;Exception -->
<g id="edge5" class="edge">
<title>X::OS&#45;&gt;Exception</title>
<path fill="none" stroke="#000000" d="M150.18,-177.85C138.23,-187.35 122.5,-199.86 109.04,-210.57"/>
<polygon fill="#000000" stroke="#000000" points="106.66,-207.99 101.01,-216.96 111.02,-213.47 106.66,-207.99"/>
</g>
<!-- X::IO&#45;&gt;Exception -->
<g id="edge6" class="edge">
<title>X::IO&#45;&gt;Exception</title>
<path fill="none" stroke="#000000" d="M122.27,-107.85C114.26,-132.06 99.4,-176.95 89.83,-205.87"/>
<polygon fill="#000000" stroke="#000000" points="86.38,-205.14 86.56,-215.73 93.03,-207.34 86.38,-205.14"/>
</g>
<!-- X::IO&#45;&gt;X::OS -->
<g id="edge8" class="edge">
<title>X::IO&#45;&gt;X::OS</title>
<path fill="none" stroke="#6666ff" d="M137.56,-107.59C142.46,-115.96 148.51,-126.29 153.99,-135.63"/>
<polygon fill="#6666ff" stroke="#6666ff" points="151.12,-137.67 159.2,-144.53 157.16,-134.13 151.12,-137.67"/>
</g>
</g>
</svg>
