<?xml version="1.0" encoding="UTF-8" standalone="no"?>
<!DOCTYPE svg PUBLIC "-//W3C//DTD SVG 1.1//EN"
 "http://www.w3.org/Graphics/SVG/1.1/DTD/svg11.dtd">
<!-- Generated by graphviz version 2.42.3 (0)
 -->
<!-- Title: perl6&#45;type&#45;graph Pages: 1 -->
<svg width="295pt" height="332pt"
 viewBox="0.00 0.00 295.27 332.00" xmlns="http://www.w3.org/2000/svg" xmlns:xlink="http://www.w3.org/1999/xlink">
<g id="graph0" class="graph" transform="scale(1 1) rotate(0) translate(4 328)">
<title>perl6&#45;type&#45;graph</title>
<polygon fill="white" stroke="transparent" points="-4,4 -4,-328 291.27,-328 291.27,4 -4,4"/>
<!-- X::DateTime::InvalidDeltaUnit -->
<g id="node1" class="node">
<title>X::DateTime::InvalidDeltaUnit</title>
<g id="a_node1"><a xlink:href="/type/X::DateTime::InvalidDeltaUnit" xlink:title="X::DateTime::InvalidDeltaUnit">
<ellipse fill="none" stroke="#000000" cx="143.64" cy="-18" rx="143.77" ry="18"/>
<text text-anchor="middle" x="143.64" y="-14.3" font-family="FreeSans" font-size="14.00" fill="#000000">X::DateTime::InvalidDeltaUnit</text>
</a>
</g>
</g>
<!-- Exception -->
<g id="node4" class="node">
<title>Exception</title>
<g id="a_node4"><a xlink:href="/type/Exception" xlink:title="Exception">
<ellipse fill="none" stroke="#000000" cx="143.64" cy="-162" rx="55.49" ry="18"/>
<text text-anchor="middle" x="143.64" y="-158.3" font-family="FreeSans" font-size="14.00" fill="#000000">Exception</text>
</a>
</g>
</g>
<!-- X::DateTime::InvalidDeltaUnit&#45;&gt;Exception -->
<g id="edge1" class="edge">
<title>X::DateTime::InvalidDeltaUnit&#45;&gt;Exception</title>
<path fill="none" stroke="#000000" d="M134.95,-36.06C127.05,-51.55 116.64,-72 116.64,-72 116.64,-72 116.64,-108 116.64,-108 116.64,-108 123.51,-121.5 130.33,-134.87"/>
<polygon fill="#000000" stroke="#000000" points="127.29,-136.62 134.95,-143.94 133.52,-133.44 127.29,-136.62"/>
</g>
<!-- X::Temporal -->
<g id="node5" class="node">
<title>X::Temporal</title>
<g id="a_node5"><a xlink:href="/type/X::Temporal" xlink:title="X::Temporal">
<ellipse fill="none" stroke="#6666ff" cx="189.64" cy="-90" rx="64.19" ry="18"/>
<text text-anchor="middle" x="189.64" y="-86.3" font-family="FreeSans" font-size="14.00" fill="#6666ff">X::Temporal</text>
</a>
</g>
</g>
<!-- X::DateTime::InvalidDeltaUnit&#45;&gt;X::Temporal -->
<g id="edge5" class="edge">
<title>X::DateTime::InvalidDeltaUnit&#45;&gt;X::Temporal</title>
<path fill="none" stroke="#6666ff" d="M155.01,-36.3C160.36,-44.44 166.84,-54.31 172.75,-63.3"/>
<polygon fill="#6666ff" stroke="#6666ff" points="169.98,-65.46 178.4,-71.9 175.83,-61.62 169.98,-65.46"/>
</g>
<!-- Mu -->
<g id="node2" class="node">
<title>Mu</title>
<g id="a_node2"><a xlink:href="/type/Mu" xlink:title="Mu">
<ellipse fill="none" stroke="#000000" cx="143.64" cy="-306" rx="27" ry="18"/>
<text text-anchor="middle" x="143.64" y="-302.3" font-family="FreeSans" font-size="14.00" fill="#000000">Mu</text>
</a>
</g>
</g>
<!-- Any -->
<g id="node3" class="node">
<title>Any</title>
<g id="a_node3"><a xlink:href="/type/Any" xlink:title="Any">
<ellipse fill="none" stroke="#000000" cx="143.64" cy="-234" rx="28.7" ry="18"/>
<text text-anchor="middle" x="143.64" y="-230.3" font-family="FreeSans" font-size="14.00" fill="#000000">Any</text>
</a>
</g>
</g>
<!-- Any&#45;&gt;Mu -->
<g id="edge2" class="edge">
<title>Any&#45;&gt;Mu</title>
<path fill="none" stroke="#000000" d="M143.64,-252.3C143.64,-260.02 143.64,-269.29 143.64,-277.89"/>
<polygon fill="#000000" stroke="#000000" points="140.14,-277.9 143.64,-287.9 147.14,-277.9 140.14,-277.9"/>
</g>
<!-- Exception&#45;&gt;Any -->
<g id="edge3" class="edge">
<title>Exception&#45;&gt;Any</title>
<path fill="none" stroke="#000000" d="M143.64,-180.3C143.64,-188.02 143.64,-197.29 143.64,-205.89"/>
<polygon fill="#000000" stroke="#000000" points="140.14,-205.9 143.64,-215.9 147.14,-205.9 140.14,-205.9"/>
</g>
<!-- X::Temporal&#45;&gt;Exception -->
<g id="edge4" class="edge">
<title>X::Temporal&#45;&gt;Exception</title>
<path fill="none" stroke="#000000" d="M178.5,-107.95C173.02,-116.29 166.3,-126.51 160.23,-135.75"/>
<polygon fill="#000000" stroke="#000000" points="157.24,-133.93 154.67,-144.21 163.09,-137.78 157.24,-133.93"/>
</g>
</g>
</svg>
