<?xml version="1.0" encoding="UTF-8" standalone="no"?>
<!DOCTYPE svg PUBLIC "-//W3C//DTD SVG 1.1//EN"
 "http://www.w3.org/Graphics/SVG/1.1/DTD/svg11.dtd">
<!-- Generated by graphviz version 2.42.3 (0)
 -->
<!-- Title: perl6&#45;type&#45;graph Pages: 1 -->
<svg width="1454pt" height="1584pt"
 viewBox="0.00 0.00 1453.95 1583.77" xmlns="http://www.w3.org/2000/svg" xmlns:xlink="http://www.w3.org/1999/xlink">
<g id="graph0" class="graph" transform="scale(1 1) rotate(0) translate(4 1579.77)">
<title>perl6&#45;type&#45;graph</title>
<polygon fill="white" stroke="transparent" points="-4,4 -4,-1579.77 1449.95,-1579.77 1449.95,4 -4,4"/>
<!-- Metamodel::BaseType -->
<g id="node1" class="node">
<title>Metamodel::BaseType</title>
<g id="a_node1"><a xlink:href="/type/Metamodel::BaseType" xlink:title="Metamodel::BaseType">
<ellipse fill="none" stroke="#6666ff" cx="109.19" cy="-966.44" rx="109.38" ry="18"/>
<text text-anchor="middle" x="109.19" y="-962.74" font-family="FreeSans" font-size="14.00" fill="#6666ff">Metamodel::BaseType</text>
</a>
</g>
</g>
<!-- Mu -->
<g id="node2" class="node">
<title>Mu</title>
<g id="a_node2"><a xlink:href="/type/Mu" xlink:title="Mu">
<ellipse fill="none" stroke="#000000" cx="1290.7" cy="-18" rx="27" ry="18"/>
<text text-anchor="middle" x="1290.7" y="-14.3" font-family="FreeSans" font-size="14.00" fill="#000000">Mu</text>
</a>
</g>
</g>
<!-- Any -->
<g id="node3" class="node">
<title>Any</title>
<g id="a_node3"><a xlink:href="/type/Any" xlink:title="Any">
<ellipse fill="none" stroke="#000000" cx="992.53" cy="-451.76" rx="28.7" ry="18"/>
<text text-anchor="middle" x="992.53" y="-448.06" font-family="FreeSans" font-size="14.00" fill="#000000">Any</text>
</a>
</g>
</g>
<!-- Any&#45;&gt;Mu -->
<g id="edge1" class="edge">
<title>Any&#45;&gt;Mu</title>
<path fill="none" stroke="#000000" d="M1004.04,-435.02C1049.79,-368.46 1219.01,-122.29 1273.6,-42.88"/>
<polygon fill="#000000" stroke="#000000" points="1276.61,-44.68 1279.39,-34.46 1270.84,-40.71 1276.61,-44.68"/>
</g>
<!-- Metamodel::Naming -->
<g id="node4" class="node">
<title>Metamodel::Naming</title>
<g id="a_node4"><a xlink:href="/type/Metamodel::Naming" xlink:title="Metamodel::Naming">
<ellipse fill="none" stroke="#6666ff" cx="598.27" cy="-1557.77" rx="101.28" ry="18"/>
<text text-anchor="middle" x="598.27" y="-1554.07" font-family="FreeSans" font-size="14.00" fill="#6666ff">Metamodel::Naming</text>
</a>
</g>
</g>
<!-- Metamodel::Stashing -->
<g id="node5" class="node">
<title>Metamodel::Stashing</title>
<g id="a_node5"><a xlink:href="/type/Metamodel::Stashing" xlink:title="Metamodel::Stashing">
<ellipse fill="none" stroke="#6666ff" cx="1088.14" cy="-1418.46" rx="105.88" ry="18"/>
<text text-anchor="middle" x="1088.14" y="-1414.76" font-family="FreeSans" font-size="14.00" fill="#6666ff">Metamodel::Stashing</text>
</a>
</g>
</g>
<!-- Metamodel::AttributeContainer -->
<g id="node6" class="node">
<title>Metamodel::AttributeContainer</title>
<g id="a_node6"><a xlink:href="/type/Metamodel::AttributeContainer" xlink:title="Metamodel::AttributeContainer">
<ellipse fill="none" stroke="#6666ff" cx="355.49" cy="-1450.67" rx="150.27" ry="18"/>
<text text-anchor="middle" x="355.49" y="-1446.97" font-family="FreeSans" font-size="14.00" fill="#6666ff">Metamodel::AttributeContainer</text>
</a>
</g>
</g>
<!-- Metamodel::MethodContainer -->
<g id="node7" class="node">
<title>Metamodel::MethodContainer</title>
<g id="a_node7"><a xlink:href="/type/Metamodel::MethodContainer" xlink:title="Metamodel::MethodContainer">
<ellipse fill="none" stroke="#6666ff" cx="329.84" cy="-524.44" rx="143.77" ry="18"/>
<text text-anchor="middle" x="329.84" y="-520.74" font-family="FreeSans" font-size="14.00" fill="#6666ff">Metamodel::MethodContainer</text>
</a>
</g>
</g>
<!-- Metamodel::MultiMethodContainer -->
<g id="node8" class="node">
<title>Metamodel::MultiMethodContainer</title>
<g id="a_node8"><a xlink:href="/type/Metamodel::MultiMethodContainer" xlink:title="Metamodel::MultiMethodContainer">
<ellipse fill="none" stroke="#6666ff" cx="1280.21" cy="-930.21" rx="165.97" ry="18"/>
<text text-anchor="middle" x="1280.21" y="-926.51" font-family="FreeSans" font-size="14.00" fill="#6666ff">Metamodel::MultiMethodContainer</text>
</a>
</g>
</g>
<!-- Metamodel::RoleContainer -->
<g id="node9" class="node">
<title>Metamodel::RoleContainer</title>
<g id="a_node9"><a xlink:href="/type/Metamodel::RoleContainer" xlink:title="Metamodel::RoleContainer">
<ellipse fill="none" stroke="#6666ff" cx="276.53" cy="-769.39" rx="129.98" ry="18"/>
<text text-anchor="middle" x="276.53" y="-765.69" font-family="FreeSans" font-size="14.00" fill="#6666ff">Metamodel::RoleContainer</text>
</a>
</g>
</g>
<!-- Metamodel::MROBasedMethodDispatch -->
<g id="node10" class="node">
<title>Metamodel::MROBasedMethodDispatch</title>
<g id="a_node10"><a xlink:href="/type/Metamodel::MROBasedMethodDispatch" xlink:title="Metamodel::MROBasedMethodDispatch">
<ellipse fill="none" stroke="#6666ff" cx="1066.46" cy="-749.67" rx="188.47" ry="18"/>
<text text-anchor="middle" x="1066.46" y="-745.97" font-family="FreeSans" font-size="14.00" fill="#6666ff">Metamodel::MROBasedMethodDispatch</text>
</a>
</g>
</g>
<!-- Metamodel::MROBasedTypeChecking -->
<g id="node11" class="node">
<title>Metamodel::MROBasedTypeChecking</title>
<g id="a_node11"><a xlink:href="/type/Metamodel::MROBasedTypeChecking" xlink:title="Metamodel::MROBasedTypeChecking">
<ellipse fill="none" stroke="#6666ff" cx="660.25" cy="-489.29" rx="178.97" ry="18"/>
<text text-anchor="middle" x="660.25" y="-485.59" font-family="FreeSans" font-size="14.00" fill="#6666ff">Metamodel::MROBasedTypeChecking</text>
</a>
</g>
</g>
<!-- Metamodel::BUILDPLAN -->
<g id="node12" class="node">
<title>Metamodel::BUILDPLAN</title>
<g id="a_node12"><a xlink:href="/type/Metamodel::BUILDPLAN" xlink:title="Metamodel::BUILDPLAN">
<ellipse fill="none" stroke="#6666ff" cx="195.54" cy="-1238.07" rx="118.08" ry="18"/>
<text text-anchor="middle" x="195.54" y="-1234.37" font-family="FreeSans" font-size="14.00" fill="#6666ff">Metamodel::BUILDPLAN</text>
</a>
</g>
</g>
<!-- Metamodel::BoolificationProtocol -->
<g id="node13" class="node">
<title>Metamodel::BoolificationProtocol</title>
<g id="a_node13"><a xlink:href="/type/Metamodel::BoolificationProtocol" xlink:title="Metamodel::BoolificationProtocol">
<ellipse fill="none" stroke="#6666ff" cx="1244.77" cy="-1207.53" rx="157.07" ry="18"/>
<text text-anchor="middle" x="1244.77" y="-1203.83" font-family="FreeSans" font-size="14.00" fill="#6666ff">Metamodel::BoolificationProtocol</text>
</a>
</g>
</g>
<!-- Metamodel::Mixins -->
<g id="node14" class="node">
<title>Metamodel::Mixins</title>
<g id="a_node14"><a xlink:href="/type/Metamodel::Mixins" xlink:title="Metamodel::Mixins">
<ellipse fill="none" stroke="#6666ff" cx="864.63" cy="-1557.65" rx="94.78" ry="18"/>
<text text-anchor="middle" x="864.63" y="-1553.95" font-family="FreeSans" font-size="14.00" fill="#6666ff">Metamodel::Mixins</text>
</a>
</g>
</g>
<!-- Metamodel::EnumHOW -->
<g id="node15" class="node">
<title>Metamodel::EnumHOW</title>
<g id="a_node15"><a xlink:href="/type/Metamodel::EnumHOW" xlink:title="Metamodel::EnumHOW">
<ellipse fill="none" stroke="#000000" cx="704.17" cy="-1013.61" rx="115.88" ry="18"/>
<text text-anchor="middle" x="704.17" y="-1009.91" font-family="FreeSans" font-size="14.00" fill="#000000">Metamodel::EnumHOW</text>
</a>
</g>
</g>
<!-- Metamodel::EnumHOW&#45;&gt;Metamodel::BaseType -->
<g id="edge9" class="edge">
<title>Metamodel::EnumHOW&#45;&gt;Metamodel::BaseType</title>
<path fill="none" stroke="#6666ff" d="M600.88,-1005.42C493.74,-996.92 326.93,-983.7 217.85,-975.05"/>
<polygon fill="#6666ff" stroke="#6666ff" points="218.05,-971.56 207.81,-974.25 217.5,-978.53 218.05,-971.56"/>
</g>
<!-- Metamodel::EnumHOW&#45;&gt;Any -->
<g id="edge2" class="edge">
<title>Metamodel::EnumHOW&#45;&gt;Any</title>
<path fill="none" stroke="#000000" d="M713.44,-995.55C755.57,-913.47 929.09,-575.37 979.03,-478.07"/>
<polygon fill="#000000" stroke="#000000" points="982.27,-479.41 983.73,-468.92 976.05,-476.22 982.27,-479.41"/>
</g>
<!-- Metamodel::EnumHOW&#45;&gt;Metamodel::Naming -->
<g id="edge3" class="edge">
<title>Metamodel::EnumHOW&#45;&gt;Metamodel::Naming</title>
<path fill="none" stroke="#6666ff" d="M700.65,-1031.71C685.12,-1111.52 622.69,-1432.27 603.75,-1529.62"/>
<polygon fill="#6666ff" stroke="#6666ff" points="600.28,-1529.12 601.8,-1539.6 607.15,-1530.45 600.28,-1529.12"/>
</g>
<!-- Metamodel::EnumHOW&#45;&gt;Metamodel::Stashing -->
<g id="edge4" class="edge">
<title>Metamodel::EnumHOW&#45;&gt;Metamodel::Stashing</title>
<path fill="none" stroke="#6666ff" d="M721.17,-1031.53C782.36,-1096.05 991.64,-1316.71 1063.6,-1392.59"/>
<polygon fill="#6666ff" stroke="#6666ff" points="1061.49,-1395.44 1070.91,-1400.29 1066.57,-1390.63 1061.49,-1395.44"/>
</g>
<!-- Metamodel::EnumHOW&#45;&gt;Metamodel::AttributeContainer -->
<g id="edge5" class="edge">
<title>Metamodel::EnumHOW&#45;&gt;Metamodel::AttributeContainer</title>
<path fill="none" stroke="#6666ff" d="M689.86,-1031.56C635.45,-1099.75 441.39,-1343.01 376.67,-1424.13"/>
<polygon fill="#6666ff" stroke="#6666ff" points="373.63,-1422.33 370.13,-1432.33 379.1,-1426.7 373.63,-1422.33"/>
</g>
<!-- Metamodel::EnumHOW&#45;&gt;Metamodel::MethodContainer -->
<g id="edge6" class="edge">
<title>Metamodel::EnumHOW&#45;&gt;Metamodel::MethodContainer</title>
<path fill="none" stroke="#6666ff" d="M690.41,-995.62C633.6,-921.39 417.26,-638.68 349.95,-550.72"/>
<polygon fill="#6666ff" stroke="#6666ff" points="352.59,-548.41 343.74,-542.6 347.03,-552.67 352.59,-548.41"/>
</g>
<!-- Metamodel::EnumHOW&#45;&gt;Metamodel::MultiMethodContainer -->
<g id="edge7" class="edge">
<title>Metamodel::EnumHOW&#45;&gt;Metamodel::MultiMethodContainer</title>
<path fill="none" stroke="#6666ff" d="M789.17,-1001.3C890.23,-986.67 1059.14,-962.22 1170.12,-946.15"/>
<polygon fill="#6666ff" stroke="#6666ff" points="1170.94,-949.56 1180.34,-944.67 1169.94,-942.64 1170.94,-949.56"/>
</g>
<!-- Metamodel::EnumHOW&#45;&gt;Metamodel::RoleContainer -->
<g id="edge8" class="edge">
<title>Metamodel::EnumHOW&#45;&gt;Metamodel::RoleContainer</title>
<path fill="none" stroke="#6666ff" d="M673.76,-996.24C598,-952.98 400.87,-840.4 316.16,-792.02"/>
<polygon fill="#6666ff" stroke="#6666ff" points="317.78,-788.92 307.36,-787 314.3,-794.99 317.78,-788.92"/>
</g>
<!-- Metamodel::EnumHOW&#45;&gt;Metamodel::MROBasedMethodDispatch -->
<g id="edge10" class="edge">
<title>Metamodel::EnumHOW&#45;&gt;Metamodel::MROBasedMethodDispatch</title>
<path fill="none" stroke="#6666ff" d="M728.51,-995.88C791.77,-949.79 961.51,-826.13 1033.48,-773.7"/>
<polygon fill="#6666ff" stroke="#6666ff" points="1035.73,-776.39 1041.75,-767.67 1031.61,-770.73 1035.73,-776.39"/>
</g>
<!-- Metamodel::EnumHOW&#45;&gt;Metamodel::MROBasedTypeChecking -->
<g id="edge11" class="edge">
<title>Metamodel::EnumHOW&#45;&gt;Metamodel::MROBasedTypeChecking</title>
<path fill="none" stroke="#6666ff" d="M702.66,-995.56C696.16,-917.97 670.56,-612.4 662.62,-517.54"/>
<polygon fill="#6666ff" stroke="#6666ff" points="666.1,-517.21 661.78,-507.54 659.12,-517.79 666.1,-517.21"/>
</g>
<!-- Metamodel::EnumHOW&#45;&gt;Metamodel::BUILDPLAN -->
<g id="edge12" class="edge">
<title>Metamodel::EnumHOW&#45;&gt;Metamodel::BUILDPLAN</title>
<path fill="none" stroke="#6666ff" d="M665.53,-1030.66C573.9,-1071.1 343.65,-1172.71 243.42,-1216.94"/>
<polygon fill="#6666ff" stroke="#6666ff" points="241.87,-1213.8 234.13,-1221.04 244.69,-1220.21 241.87,-1213.8"/>
</g>
<!-- Metamodel::EnumHOW&#45;&gt;Metamodel::BoolificationProtocol -->
<g id="edge13" class="edge">
<title>Metamodel::EnumHOW&#45;&gt;Metamodel::BoolificationProtocol</title>
<path fill="none" stroke="#6666ff" d="M750.26,-1030.14C848.79,-1065.48 1079.66,-1148.3 1187.45,-1186.97"/>
<polygon fill="#6666ff" stroke="#6666ff" points="1186.27,-1190.26 1196.87,-1190.34 1188.63,-1183.67 1186.27,-1190.26"/>
</g>
<!-- Metamodel::EnumHOW&#45;&gt;Metamodel::Mixins -->
<g id="edge14" class="edge">
<title>Metamodel::EnumHOW&#45;&gt;Metamodel::Mixins</title>
<path fill="none" stroke="#6666ff" d="M709.51,-1031.71C733.07,-1111.58 827.82,-1432.82 856.42,-1529.79"/>
<polygon fill="#6666ff" stroke="#6666ff" points="853.09,-1530.88 859.27,-1539.48 859.8,-1528.9 853.09,-1530.88"/>
</g>
</g>
</svg>
