<?xml version="1.0" encoding="UTF-8" standalone="no"?>
<!DOCTYPE svg PUBLIC "-//W3C//DTD SVG 1.1//EN"
 "http://www.w3.org/Graphics/SVG/1.1/DTD/svg11.dtd">
<!-- Generated by graphviz version 2.42.3 (0)
 -->
<!-- Title: perl6&#45;type&#45;graph Pages: 1 -->
<svg width="2082pt" height="2263pt"
 viewBox="0.00 0.00 2082.26 2263.22" xmlns="http://www.w3.org/2000/svg" xmlns:xlink="http://www.w3.org/1999/xlink">
<g id="graph0" class="graph" transform="scale(1 1) rotate(0) translate(4 2259.22)">
<title>perl6&#45;type&#45;graph</title>
<polygon fill="white" stroke="transparent" points="-4,4 -4,-2259.22 2078.26,-2259.22 2078.26,4 -4,4"/>
<!-- Metamodel::AttributeContainer -->
<g id="node1" class="node">
<title>Metamodel::AttributeContainer</title>
<g id="a_node1"><a xlink:href="/type/Metamodel::AttributeContainer" xlink:title="Metamodel::AttributeContainer">
<ellipse fill="none" stroke="#6666ff" cx="475.61" cy="-1267.21" rx="150.27" ry="18"/>
<text text-anchor="middle" x="475.61" y="-1263.51" font-family="FreeSans" font-size="14.00" fill="#6666ff">Metamodel::AttributeContainer</text>
</a>
</g>
</g>
<!-- Mu -->
<g id="node2" class="node">
<title>Mu</title>
<g id="a_node2"><a xlink:href="/type/Mu" xlink:title="Mu">
<ellipse fill="none" stroke="#000000" cx="1769.07" cy="-266.45" rx="27" ry="18"/>
<text text-anchor="middle" x="1769.07" y="-262.75" font-family="FreeSans" font-size="14.00" fill="#000000">Mu</text>
</a>
</g>
</g>
<!-- Any -->
<g id="node3" class="node">
<title>Any</title>
<g id="a_node3"><a xlink:href="/type/Any" xlink:title="Any">
<ellipse fill="none" stroke="#000000" cx="1281.12" cy="-888.94" rx="28.7" ry="18"/>
<text text-anchor="middle" x="1281.12" y="-885.24" font-family="FreeSans" font-size="14.00" fill="#000000">Any</text>
</a>
</g>
</g>
<!-- Any&#45;&gt;Mu -->
<g id="edge1" class="edge">
<title>Any&#45;&gt;Mu</title>
<path fill="none" stroke="#000000" d="M1293.92,-872.61C1360.83,-787.25 1670.35,-392.39 1750.22,-290.5"/>
<polygon fill="#000000" stroke="#000000" points="1752.99,-292.64 1756.41,-282.61 1747.48,-288.32 1752.99,-292.64"/>
</g>
<!-- Metamodel::Naming -->
<g id="node4" class="node">
<title>Metamodel::Naming</title>
<g id="a_node4"><a xlink:href="/type/Metamodel::Naming" xlink:title="Metamodel::Naming">
<ellipse fill="none" stroke="#6666ff" cx="518.75" cy="-1417.61" rx="101.28" ry="18"/>
<text text-anchor="middle" x="518.75" y="-1413.91" font-family="FreeSans" font-size="14.00" fill="#6666ff">Metamodel::Naming</text>
</a>
</g>
</g>
<!-- Metamodel::Documenting -->
<g id="node5" class="node">
<title>Metamodel::Documenting</title>
<g id="a_node5"><a xlink:href="/type/Metamodel::Documenting" xlink:title="Metamodel::Documenting">
<ellipse fill="none" stroke="#6666ff" cx="1531.96" cy="-744.38" rx="126.98" ry="18"/>
<text text-anchor="middle" x="1531.96" y="-740.68" font-family="FreeSans" font-size="14.00" fill="#6666ff">Metamodel::Documenting</text>
</a>
</g>
</g>
<!-- Metamodel::Versioning -->
<g id="node6" class="node">
<title>Metamodel::Versioning</title>
<g id="a_node6"><a xlink:href="/type/Metamodel::Versioning" xlink:title="Metamodel::Versioning">
<ellipse fill="none" stroke="#6666ff" cx="406.94" cy="-1049.37" rx="114.28" ry="18"/>
<text text-anchor="middle" x="406.94" y="-1045.67" font-family="FreeSans" font-size="14.00" fill="#6666ff">Metamodel::Versioning</text>
</a>
</g>
</g>
<!-- Metamodel::Stashing -->
<g id="node7" class="node">
<title>Metamodel::Stashing</title>
<g id="a_node7"><a xlink:href="/type/Metamodel::Stashing" xlink:title="Metamodel::Stashing">
<ellipse fill="none" stroke="#6666ff" cx="1015.39" cy="-1200.56" rx="105.88" ry="18"/>
<text text-anchor="middle" x="1015.39" y="-1196.86" font-family="FreeSans" font-size="14.00" fill="#6666ff">Metamodel::Stashing</text>
</a>
</g>
</g>
<!-- Metamodel::Finalization -->
<g id="node8" class="node">
<title>Metamodel::Finalization</title>
<g id="a_node8"><a xlink:href="/type/Metamodel::Finalization" xlink:title="Metamodel::Finalization">
<ellipse fill="none" stroke="#6666ff" cx="1904.79" cy="-1060.98" rx="116.98" ry="18"/>
<text text-anchor="middle" x="1904.79" y="-1057.28" font-family="FreeSans" font-size="14.00" fill="#6666ff">Metamodel::Finalization</text>
</a>
</g>
</g>
<!-- Metamodel::MethodContainer -->
<g id="node9" class="node">
<title>Metamodel::MethodContainer</title>
<g id="a_node9"><a xlink:href="/type/Metamodel::MethodContainer" xlink:title="Metamodel::MethodContainer">
<ellipse fill="none" stroke="#6666ff" cx="744.31" cy="-1132.01" rx="143.77" ry="18"/>
<text text-anchor="middle" x="744.31" y="-1128.31" font-family="FreeSans" font-size="14.00" fill="#6666ff">Metamodel::MethodContainer</text>
</a>
</g>
</g>
<!-- Metamodel::PrivateMethodContainer -->
<g id="node10" class="node">
<title>Metamodel::PrivateMethodContainer</title>
<g id="a_node10"><a xlink:href="/type/Metamodel::PrivateMethodContainer" xlink:title="Metamodel::PrivateMethodContainer">
<ellipse fill="none" stroke="#6666ff" cx="1099.19" cy="-559.89" rx="174.67" ry="18"/>
<text text-anchor="middle" x="1099.19" y="-556.19" font-family="FreeSans" font-size="14.00" fill="#6666ff">Metamodel::PrivateMethodContainer</text>
</a>
</g>
</g>
<!-- Metamodel::MultiMethodContainer -->
<g id="node11" class="node">
<title>Metamodel::MultiMethodContainer</title>
<g id="a_node11"><a xlink:href="/type/Metamodel::MultiMethodContainer" xlink:title="Metamodel::MultiMethodContainer">
<ellipse fill="none" stroke="#6666ff" cx="1023.31" cy="-987.45" rx="165.97" ry="18"/>
<text text-anchor="middle" x="1023.31" y="-983.75" font-family="FreeSans" font-size="14.00" fill="#6666ff">Metamodel::MultiMethodContainer</text>
</a>
</g>
</g>
<!-- Metamodel::RoleContainer -->
<g id="node12" class="node">
<title>Metamodel::RoleContainer</title>
<g id="a_node12"><a xlink:href="/type/Metamodel::RoleContainer" xlink:title="Metamodel::RoleContainer">
<ellipse fill="none" stroke="#6666ff" cx="682.19" cy="-1319.99" rx="129.98" ry="18"/>
<text text-anchor="middle" x="682.19" y="-1316.29" font-family="FreeSans" font-size="14.00" fill="#6666ff">Metamodel::RoleContainer</text>
</a>
</g>
</g>
<!-- Metamodel::MultipleInheritance -->
<g id="node13" class="node">
<title>Metamodel::MultipleInheritance</title>
<g id="a_node13"><a xlink:href="/type/Metamodel::MultipleInheritance" xlink:title="Metamodel::MultipleInheritance">
<ellipse fill="none" stroke="#6666ff" cx="1251.62" cy="-611.34" rx="153.27" ry="18"/>
<text text-anchor="middle" x="1251.62" y="-607.64" font-family="FreeSans" font-size="14.00" fill="#6666ff">Metamodel::MultipleInheritance</text>
</a>
</g>
</g>
<!-- Metamodel::DefaultParent -->
<g id="node14" class="node">
<title>Metamodel::DefaultParent</title>
<g id="a_node14"><a xlink:href="/type/Metamodel::DefaultParent" xlink:title="Metamodel::DefaultParent">
<ellipse fill="none" stroke="#6666ff" cx="1946.22" cy="-1300.17" rx="128.08" ry="18"/>
<text text-anchor="middle" x="1946.22" y="-1296.47" font-family="FreeSans" font-size="14.00" fill="#6666ff">Metamodel::DefaultParent</text>
</a>
</g>
</g>
<!-- Metamodel::C3MRO -->
<g id="node15" class="node">
<title>Metamodel::C3MRO</title>
<g id="a_node15"><a xlink:href="/type/Metamodel::C3MRO" xlink:title="Metamodel::C3MRO">
<ellipse fill="none" stroke="#6666ff" cx="1933.48" cy="-1581.7" rx="100.18" ry="18"/>
<text text-anchor="middle" x="1933.48" y="-1578" font-family="FreeSans" font-size="14.00" fill="#6666ff">Metamodel::C3MRO</text>
</a>
</g>
</g>
<!-- Metamodel::MROBasedMethodDispatch -->
<g id="node16" class="node">
<title>Metamodel::MROBasedMethodDispatch</title>
<g id="a_node16"><a xlink:href="/type/Metamodel::MROBasedMethodDispatch" xlink:title="Metamodel::MROBasedMethodDispatch">
<ellipse fill="none" stroke="#6666ff" cx="1585.77" cy="-1849.84" rx="188.47" ry="18"/>
<text text-anchor="middle" x="1585.77" y="-1846.14" font-family="FreeSans" font-size="14.00" fill="#6666ff">Metamodel::MROBasedMethodDispatch</text>
</a>
</g>
</g>
<!-- Metamodel::MROBasedTypeChecking -->
<g id="node17" class="node">
<title>Metamodel::MROBasedTypeChecking</title>
<g id="a_node17"><a xlink:href="/type/Metamodel::MROBasedTypeChecking" xlink:title="Metamodel::MROBasedTypeChecking">
<ellipse fill="none" stroke="#6666ff" cx="1623.28" cy="-1633.82" rx="178.97" ry="18"/>
<text text-anchor="middle" x="1623.28" y="-1630.12" font-family="FreeSans" font-size="14.00" fill="#6666ff">Metamodel::MROBasedTypeChecking</text>
</a>
</g>
</g>
<!-- Metamodel::Trusting -->
<g id="node18" class="node">
<title>Metamodel::Trusting</title>
<g id="a_node18"><a xlink:href="/type/Metamodel::Trusting" xlink:title="Metamodel::Trusting">
<ellipse fill="none" stroke="#6666ff" cx="756.15" cy="-1949.59" rx="102.88" ry="18"/>
<text text-anchor="middle" x="756.15" y="-1945.89" font-family="FreeSans" font-size="14.00" fill="#6666ff">Metamodel::Trusting</text>
</a>
</g>
</g>
<!-- Metamodel::BUILDPLAN -->
<g id="node19" class="node">
<title>Metamodel::BUILDPLAN</title>
<g id="a_node19"><a xlink:href="/type/Metamodel::BUILDPLAN" xlink:title="Metamodel::BUILDPLAN">
<ellipse fill="none" stroke="#6666ff" cx="1036.36" cy="-2057.91" rx="118.08" ry="18"/>
<text text-anchor="middle" x="1036.36" y="-2054.21" font-family="FreeSans" font-size="14.00" fill="#6666ff">Metamodel::BUILDPLAN</text>
</a>
</g>
</g>
<!-- Metamodel::Mixins -->
<g id="node20" class="node">
<title>Metamodel::Mixins</title>
<g id="a_node20"><a xlink:href="/type/Metamodel::Mixins" xlink:title="Metamodel::Mixins">
<ellipse fill="none" stroke="#6666ff" cx="1257.57" cy="-2048.23" rx="94.78" ry="18"/>
<text text-anchor="middle" x="1257.57" y="-2044.53" font-family="FreeSans" font-size="14.00" fill="#6666ff">Metamodel::Mixins</text>
</a>
</g>
</g>
<!-- Metamodel::BoolificationProtocol -->
<g id="node21" class="node">
<title>Metamodel::BoolificationProtocol</title>
<g id="a_node21"><a xlink:href="/type/Metamodel::BoolificationProtocol" xlink:title="Metamodel::BoolificationProtocol">
<ellipse fill="none" stroke="#6666ff" cx="1446.44" cy="-1985.39" rx="157.07" ry="18"/>
<text text-anchor="middle" x="1446.44" y="-1981.69" font-family="FreeSans" font-size="14.00" fill="#6666ff">Metamodel::BoolificationProtocol</text>
</a>
</g>
</g>
<!-- Metamodel::ClassHOW -->
<g id="node22" class="node">
<title>Metamodel::ClassHOW</title>
<g id="a_node22"><a xlink:href="/type/Metamodel::ClassHOW" xlink:title="Metamodel::ClassHOW">
<ellipse fill="none" stroke="#000000" cx="1248.23" cy="-1363.25" rx="113.18" ry="18"/>
<text text-anchor="middle" x="1248.23" y="-1359.55" font-family="FreeSans" font-size="14.00" fill="#000000">Metamodel::ClassHOW</text>
</a>
</g>
</g>
<!-- Metamodel::ClassHOW&#45;&gt;Metamodel::AttributeContainer -->
<g id="edge10" class="edge">
<title>Metamodel::ClassHOW&#45;&gt;Metamodel::AttributeContainer</title>
<path fill="none" stroke="#6666ff" d="M1158.85,-1352.13C1018.14,-1334.64 745.1,-1300.7 590.18,-1281.45"/>
<polygon fill="#6666ff" stroke="#6666ff" points="590.51,-1277.96 580.15,-1280.2 589.64,-1284.91 590.51,-1277.96"/>
</g>
<!-- Metamodel::ClassHOW&#45;&gt;Any -->
<g id="edge2" class="edge">
<title>Metamodel::ClassHOW&#45;&gt;Any</title>
<path fill="none" stroke="#000000" d="M1249.48,-1345.23C1254.48,-1273.11 1273.08,-1004.86 1279.18,-917"/>
<polygon fill="#000000" stroke="#000000" points="1282.67,-917.19 1279.87,-906.97 1275.69,-916.71 1282.67,-917.19"/>
</g>
<!-- Metamodel::ClassHOW&#45;&gt;Metamodel::Naming -->
<g id="edge6" class="edge">
<title>Metamodel::ClassHOW&#45;&gt;Metamodel::Naming</title>
<path fill="none" stroke="#6666ff" d="M1145.65,-1370.89C1007.15,-1381.21 761.73,-1399.5 622.59,-1409.87"/>
<polygon fill="#6666ff" stroke="#6666ff" points="622.06,-1406.4 612.35,-1410.64 622.58,-1413.38 622.06,-1406.4"/>
</g>
<!-- Metamodel::ClassHOW&#45;&gt;Metamodel::Documenting -->
<g id="edge7" class="edge">
<title>Metamodel::ClassHOW&#45;&gt;Metamodel::Documenting</title>
<path fill="none" stroke="#6666ff" d="M1256.57,-1345.06C1296.78,-1257.35 1470.74,-877.9 1519.32,-771.95"/>
<polygon fill="#6666ff" stroke="#6666ff" points="1522.63,-773.12 1523.62,-762.57 1516.27,-770.2 1522.63,-773.12"/>
</g>
<!-- Metamodel::ClassHOW&#45;&gt;Metamodel::Versioning -->
<g id="edge8" class="edge">
<title>Metamodel::ClassHOW&#45;&gt;Metamodel::Versioning</title>
<path fill="none" stroke="#6666ff" d="M1202.07,-1346.8C1053.76,-1293.96 599.08,-1131.97 599.08,-1131.97 599.08,-1131.97 512.42,-1094.72 455.5,-1070.25"/>
<polygon fill="#6666ff" stroke="#6666ff" points="456.86,-1067.02 446.29,-1066.29 454.09,-1073.45 456.86,-1067.02"/>
</g>
<!-- Metamodel::ClassHOW&#45;&gt;Metamodel::Stashing -->
<g id="edge9" class="edge">
<title>Metamodel::ClassHOW&#45;&gt;Metamodel::Stashing</title>
<path fill="none" stroke="#6666ff" d="M1222.87,-1345.53C1180.71,-1316.07 1096.18,-1257 1049.07,-1224.09"/>
<polygon fill="#6666ff" stroke="#6666ff" points="1050.93,-1221.12 1040.72,-1218.26 1046.92,-1226.85 1050.93,-1221.12"/>
</g>
<!-- Metamodel::ClassHOW&#45;&gt;Metamodel::Finalization -->
<g id="edge11" class="edge">
<title>Metamodel::ClassHOW&#45;&gt;Metamodel::Finalization</title>
<path fill="none" stroke="#6666ff" d="M1285.41,-1346.13C1397.91,-1294.34 1734.5,-1139.38 1858.37,-1082.35"/>
<polygon fill="#6666ff" stroke="#6666ff" points="1859.99,-1085.46 1867.61,-1078.1 1857.07,-1079.1 1859.99,-1085.46"/>
</g>
<!-- Metamodel::ClassHOW&#45;&gt;Metamodel::MethodContainer -->
<g id="edge12" class="edge">
<title>Metamodel::ClassHOW&#45;&gt;Metamodel::MethodContainer</title>
<path fill="none" stroke="#6666ff" d="M1210.77,-1346.05C1120.5,-1304.63 891.11,-1199.37 791.58,-1153.7"/>
<polygon fill="#6666ff" stroke="#6666ff" points="792.92,-1150.46 782.37,-1149.47 790,-1156.83 792.92,-1150.46"/>
</g>
<!-- Metamodel::ClassHOW&#45;&gt;Metamodel::PrivateMethodContainer -->
<g id="edge13" class="edge">
<title>Metamodel::ClassHOW&#45;&gt;Metamodel::PrivateMethodContainer</title>
<path fill="none" stroke="#6666ff" d="M1245.45,-1345.12C1233.95,-1270.07 1190.64,-987.51 1190.64,-987.51 1190.64,-987.51 1096.64,-611.19 1096.64,-611.19 1096.64,-611.19 1097.19,-600.23 1097.77,-588.44"/>
<polygon fill="#6666ff" stroke="#6666ff" points="1101.28,-588.28 1098.28,-578.12 1094.29,-587.94 1101.28,-588.28"/>
</g>
<!-- Metamodel::ClassHOW&#45;&gt;Metamodel::MultiMethodContainer -->
<g id="edge14" class="edge">
<title>Metamodel::ClassHOW&#45;&gt;Metamodel::MultiMethodContainer</title>
<path fill="none" stroke="#6666ff" d="M1237.38,-1345.12C1200.94,-1284.24 1082.8,-1086.85 1039.45,-1014.42"/>
<polygon fill="#6666ff" stroke="#6666ff" points="1042.45,-1012.62 1034.31,-1005.83 1036.45,-1016.21 1042.45,-1012.62"/>
</g>
<!-- Metamodel::ClassHOW&#45;&gt;Metamodel::RoleContainer -->
<g id="edge15" class="edge">
<title>Metamodel::ClassHOW&#45;&gt;Metamodel::RoleContainer</title>
<path fill="none" stroke="#6666ff" d="M1146.05,-1355.44C1050.67,-1348.15 908.14,-1337.26 806.26,-1329.47"/>
<polygon fill="#6666ff" stroke="#6666ff" points="806.46,-1325.98 796.23,-1328.7 805.93,-1332.96 806.46,-1325.98"/>
</g>
<!-- Metamodel::ClassHOW&#45;&gt;Metamodel::MultipleInheritance -->
<g id="edge16" class="edge">
<title>Metamodel::ClassHOW&#45;&gt;Metamodel::MultipleInheritance</title>
<path fill="none" stroke="#6666ff" d="M1248.31,-1345.03C1248.76,-1245 1250.94,-762.43 1251.5,-639.75"/>
<polygon fill="#6666ff" stroke="#6666ff" points="1255,-639.66 1251.54,-629.65 1248,-639.63 1255,-639.66"/>
</g>
<!-- Metamodel::ClassHOW&#45;&gt;Metamodel::DefaultParent -->
<g id="edge17" class="edge">
<title>Metamodel::ClassHOW&#45;&gt;Metamodel::DefaultParent</title>
<path fill="none" stroke="#6666ff" d="M1346.76,-1354.34C1473.42,-1342.9 1693.12,-1323.04 1828.46,-1310.82"/>
<polygon fill="#6666ff" stroke="#6666ff" points="1828.82,-1314.3 1838.46,-1309.91 1828.19,-1307.33 1828.82,-1314.3"/>
</g>
<!-- Metamodel::ClassHOW&#45;&gt;Metamodel::C3MRO -->
<g id="edge18" class="edge">
<title>Metamodel::ClassHOW&#45;&gt;Metamodel::C3MRO</title>
<path fill="none" stroke="#6666ff" d="M1298.9,-1379.4C1423.05,-1418.98 1741.94,-1520.63 1874.41,-1562.86"/>
<polygon fill="#6666ff" stroke="#6666ff" points="1873.41,-1566.22 1884,-1565.92 1875.53,-1559.55 1873.41,-1566.22"/>
</g>
<!-- Metamodel::ClassHOW&#45;&gt;Metamodel::MROBasedMethodDispatch -->
<g id="edge19" class="edge">
<title>Metamodel::ClassHOW&#45;&gt;Metamodel::MROBasedMethodDispatch</title>
<path fill="none" stroke="#6666ff" d="M1260.65,-1381.14C1311.82,-1454.91 1506.56,-1735.64 1567.46,-1823.44"/>
<polygon fill="#6666ff" stroke="#6666ff" points="1564.67,-1825.56 1573.25,-1831.78 1570.42,-1821.57 1564.67,-1825.56"/>
</g>
<!-- Metamodel::ClassHOW&#45;&gt;Metamodel::MROBasedTypeChecking -->
<g id="edge20" class="edge">
<title>Metamodel::ClassHOW&#45;&gt;Metamodel::MROBasedTypeChecking</title>
<path fill="none" stroke="#6666ff" d="M1272.84,-1381C1337.98,-1428 1515.03,-1555.73 1589.52,-1609.47"/>
<polygon fill="#6666ff" stroke="#6666ff" points="1587.93,-1612.64 1598.09,-1615.65 1592.02,-1606.96 1587.93,-1612.64"/>
</g>
<!-- Metamodel::ClassHOW&#45;&gt;Metamodel::Trusting -->
<g id="edge21" class="edge">
<title>Metamodel::ClassHOW&#45;&gt;Metamodel::Trusting</title>
<path fill="none" stroke="#6666ff" d="M1238.53,-1381.21C1204.6,-1444.09 1093.21,-1650.47 1093.21,-1650.47 1093.21,-1650.47 864.75,-1853.21 784.01,-1924.87"/>
<polygon fill="#6666ff" stroke="#6666ff" points="781.38,-1922.52 776.23,-1931.78 786.03,-1927.76 781.38,-1922.52"/>
</g>
<!-- Metamodel::ClassHOW&#45;&gt;Metamodel::BUILDPLAN -->
<g id="edge22" class="edge">
<title>Metamodel::ClassHOW&#45;&gt;Metamodel::BUILDPLAN</title>
<path fill="none" stroke="#6666ff" d="M1242.67,-1381.47C1213.71,-1476.44 1080.04,-1914.72 1044.86,-2030.04"/>
<polygon fill="#6666ff" stroke="#6666ff" points="1041.43,-2029.29 1041.86,-2039.88 1048.13,-2031.33 1041.43,-2029.29"/>
</g>
<!-- Metamodel::ClassHOW&#45;&gt;Metamodel::Mixins -->
<g id="edge23" class="edge">
<title>Metamodel::ClassHOW&#45;&gt;Metamodel::Mixins</title>
<path fill="none" stroke="#6666ff" d="M1248.48,-1381.57C1249.76,-1475.76 1255.62,-1905.51 1257.18,-2020.09"/>
<polygon fill="#6666ff" stroke="#6666ff" points="1253.68,-2020.22 1257.32,-2030.17 1260.68,-2020.12 1253.68,-2020.22"/>
</g>
<!-- Metamodel::ClassHOW&#45;&gt;Metamodel::BoolificationProtocol -->
<g id="edge24" class="edge">
<title>Metamodel::ClassHOW&#45;&gt;Metamodel::BoolificationProtocol</title>
<path fill="none" stroke="#6666ff" d="M1253.74,-1381.43C1280.51,-1469.75 1395.69,-1849.77 1395.69,-1849.77 1395.69,-1849.77 1421.36,-1918.37 1436.19,-1957.99"/>
<polygon fill="#6666ff" stroke="#6666ff" points="1432.92,-1959.24 1439.7,-1967.38 1439.48,-1956.79 1432.92,-1959.24"/>
</g>
<!-- Metamodel::BaseType -->
<g id="node23" class="node">
<title>Metamodel::BaseType</title>
<g id="a_node23"><a xlink:href="/type/Metamodel::BaseType" xlink:title="Metamodel::BaseType">
<ellipse fill="none" stroke="#6666ff" cx="452.15" cy="-2237.22" rx="109.38" ry="18"/>
<text text-anchor="middle" x="452.15" y="-2233.52" font-family="FreeSans" font-size="14.00" fill="#6666ff">Metamodel::BaseType</text>
</a>
</g>
</g>
<!-- Metamodel::EnumHOW -->
<g id="node24" class="node">
<title>Metamodel::EnumHOW</title>
<g id="a_node24"><a xlink:href="/type/Metamodel::EnumHOW" xlink:title="Metamodel::EnumHOW">
<ellipse fill="none" stroke="#000000" cx="975.92" cy="-1650.36" rx="115.88" ry="18"/>
<text text-anchor="middle" x="975.92" y="-1646.66" font-family="FreeSans" font-size="14.00" fill="#000000">Metamodel::EnumHOW</text>
</a>
</g>
</g>
<!-- Metamodel::EnumHOW&#45;&gt;Metamodel::AttributeContainer -->
<g id="edge27" class="edge">
<title>Metamodel::EnumHOW&#45;&gt;Metamodel::AttributeContainer</title>
<path fill="none" stroke="#6666ff" d="M952.8,-1632.64C871.73,-1570.56 600.33,-1362.72 507.26,-1291.44"/>
<polygon fill="#6666ff" stroke="#6666ff" points="509.14,-1288.47 499.07,-1285.17 504.88,-1294.03 509.14,-1288.47"/>
</g>
<!-- Metamodel::EnumHOW&#45;&gt;Any -->
<g id="edge3" class="edge">
<title>Metamodel::EnumHOW&#45;&gt;Any</title>
<path fill="none" stroke="#000000" d="M983.17,-1632.28C1023.64,-1531.3 1221.75,-1037.07 1270.34,-915.83"/>
<polygon fill="#000000" stroke="#000000" points="1273.61,-917.09 1274.08,-906.51 1267.11,-914.49 1273.61,-917.09"/>
</g>
<!-- Metamodel::EnumHOW&#45;&gt;Metamodel::Naming -->
<g id="edge25" class="edge">
<title>Metamodel::EnumHOW&#45;&gt;Metamodel::Naming</title>
<path fill="none" stroke="#6666ff" d="M941.94,-1633.05C859.99,-1591.33 651.67,-1485.28 561.47,-1439.36"/>
<polygon fill="#6666ff" stroke="#6666ff" points="562.85,-1436.13 552.35,-1434.71 559.67,-1442.37 562.85,-1436.13"/>
</g>
<!-- Metamodel::EnumHOW&#45;&gt;Metamodel::Stashing -->
<g id="edge26" class="edge">
<title>Metamodel::EnumHOW&#45;&gt;Metamodel::Stashing</title>
<path fill="none" stroke="#6666ff" d="M977.52,-1632.17C983.61,-1562.73 1005.44,-1314.01 1012.88,-1229.16"/>
<polygon fill="#6666ff" stroke="#6666ff" points="1016.39,-1229.24 1013.78,-1218.98 1009.42,-1228.63 1016.39,-1229.24"/>
</g>
<!-- Metamodel::EnumHOW&#45;&gt;Metamodel::MethodContainer -->
<g id="edge28" class="edge">
<title>Metamodel::EnumHOW&#45;&gt;Metamodel::MethodContainer</title>
<path fill="none" stroke="#6666ff" d="M967.82,-1632.21C933.25,-1554.84 798.04,-1252.25 756.51,-1159.31"/>
<polygon fill="#6666ff" stroke="#6666ff" points="759.63,-1157.71 752.35,-1150.01 753.24,-1160.57 759.63,-1157.71"/>
</g>
<!-- Metamodel::EnumHOW&#45;&gt;Metamodel::MultiMethodContainer -->
<g id="edge29" class="edge">
<title>Metamodel::EnumHOW&#45;&gt;Metamodel::MultiMethodContainer</title>
<path fill="none" stroke="#6666ff" d="M973.17,-1632.16C960.44,-1547.99 907.85,-1200.45 907.85,-1200.45 907.85,-1200.45 977.57,-1071.84 1008.65,-1014.49"/>
<polygon fill="#6666ff" stroke="#6666ff" points="1011.78,-1016.07 1013.47,-1005.61 1005.62,-1012.73 1011.78,-1016.07"/>
</g>
<!-- Metamodel::EnumHOW&#45;&gt;Metamodel::RoleContainer -->
<g id="edge30" class="edge">
<title>Metamodel::EnumHOW&#45;&gt;Metamodel::RoleContainer</title>
<path fill="none" stroke="#6666ff" d="M959.71,-1632.12C910.46,-1576.73 762.48,-1410.29 705.19,-1345.86"/>
<polygon fill="#6666ff" stroke="#6666ff" points="707.61,-1343.31 698.35,-1338.17 702.38,-1347.97 707.61,-1343.31"/>
</g>
<!-- Metamodel::EnumHOW&#45;&gt;Metamodel::MROBasedMethodDispatch -->
<g id="edge32" class="edge">
<title>Metamodel::EnumHOW&#45;&gt;Metamodel::MROBasedMethodDispatch</title>
<path fill="none" stroke="#6666ff" d="M1025.83,-1666.68C1136.34,-1702.83 1401.51,-1789.57 1523.02,-1829.32"/>
<polygon fill="#6666ff" stroke="#6666ff" points="1521.98,-1832.66 1532.57,-1832.44 1524.16,-1826 1521.98,-1832.66"/>
</g>
<!-- Metamodel::EnumHOW&#45;&gt;Metamodel::MROBasedTypeChecking -->
<g id="edge33" class="edge">
<title>Metamodel::EnumHOW&#45;&gt;Metamodel::MROBasedTypeChecking</title>
<path fill="none" stroke="#6666ff" d="M1090.17,-1647.44C1186.88,-1644.97 1327.32,-1641.38 1439.78,-1638.51"/>
<polygon fill="#6666ff" stroke="#6666ff" points="1439.97,-1642.01 1449.88,-1638.25 1439.8,-1635.01 1439.97,-1642.01"/>
</g>
<!-- Metamodel::EnumHOW&#45;&gt;Metamodel::BUILDPLAN -->
<g id="edge34" class="edge">
<title>Metamodel::EnumHOW&#45;&gt;Metamodel::BUILDPLAN</title>
<path fill="none" stroke="#6666ff" d="M978.6,-1668.39C988.13,-1732.69 1020.51,-1951 1032.15,-2029.5"/>
<polygon fill="#6666ff" stroke="#6666ff" points="1028.72,-2030.24 1033.65,-2039.62 1035.65,-2029.21 1028.72,-2030.24"/>
</g>
<!-- Metamodel::EnumHOW&#45;&gt;Metamodel::Mixins -->
<g id="edge36" class="edge">
<title>Metamodel::EnumHOW&#45;&gt;Metamodel::Mixins</title>
<path fill="none" stroke="#6666ff" d="M988.76,-1668.49C1033.84,-1732.18 1185.14,-1945.91 1238.63,-2021.48"/>
<polygon fill="#6666ff" stroke="#6666ff" points="1236.02,-2023.86 1244.66,-2030 1241.74,-2019.81 1236.02,-2023.86"/>
</g>
<!-- Metamodel::EnumHOW&#45;&gt;Metamodel::BoolificationProtocol -->
<g id="edge35" class="edge">
<title>Metamodel::EnumHOW&#45;&gt;Metamodel::BoolificationProtocol</title>
<path fill="none" stroke="#6666ff" d="M1000.89,-1668.13C1079.75,-1724.29 1323.62,-1897.93 1413.09,-1961.64"/>
<polygon fill="#6666ff" stroke="#6666ff" points="1411.08,-1964.51 1421.25,-1967.45 1415.14,-1958.8 1411.08,-1964.51"/>
</g>
<!-- Metamodel::EnumHOW&#45;&gt;Metamodel::BaseType -->
<g id="edge31" class="edge">
<title>Metamodel::EnumHOW&#45;&gt;Metamodel::BaseType</title>
<path fill="none" stroke="#6666ff" d="M956.62,-1668.17C886.86,-1732.57 651.86,-1949.48 651.86,-1949.48 651.86,-1949.48 519.89,-2139.62 470.51,-2210.77"/>
<polygon fill="#6666ff" stroke="#6666ff" points="467.47,-2209.01 464.64,-2219.22 473.22,-2213 467.47,-2209.01"/>
</g>
<!-- Metamodel::TypePretense -->
<g id="node25" class="node">
<title>Metamodel::TypePretense</title>
<g id="a_node25"><a xlink:href="/type/Metamodel::TypePretense" xlink:title="Metamodel::TypePretense">
<ellipse fill="none" stroke="#6666ff" cx="126.09" cy="-317.53" rx="126.18" ry="18"/>
<text text-anchor="middle" x="126.09" y="-313.83" font-family="FreeSans" font-size="14.00" fill="#6666ff">Metamodel::TypePretense</text>
</a>
</g>
</g>
<!-- Metamodel::RolePunning -->
<g id="node26" class="node">
<title>Metamodel::RolePunning</title>
<g id="a_node26"><a xlink:href="/type/Metamodel::RolePunning" xlink:title="Metamodel::RolePunning">
<ellipse fill="none" stroke="#6666ff" cx="559.02" cy="-18" rx="122.68" ry="18"/>
<text text-anchor="middle" x="559.02" y="-14.3" font-family="FreeSans" font-size="14.00" fill="#6666ff">Metamodel::RolePunning</text>
</a>
</g>
</g>
<!-- Metamodel::ParametricRoleHOW -->
<g id="node27" class="node">
<title>Metamodel::ParametricRoleHOW</title>
<g id="a_node27"><a xlink:href="/type/Metamodel::ParametricRoleHOW" xlink:title="Metamodel::ParametricRoleHOW">
<ellipse fill="none" stroke="#000000" cx="715.66" cy="-652.31" rx="157.07" ry="18"/>
<text text-anchor="middle" x="715.66" y="-648.61" font-family="FreeSans" font-size="14.00" fill="#000000">Metamodel::ParametricRoleHOW</text>
</a>
</g>
</g>
<!-- Metamodel::ParametricRoleHOW&#45;&gt;Metamodel::AttributeContainer -->
<g id="edge43" class="edge">
<title>Metamodel::ParametricRoleHOW&#45;&gt;Metamodel::AttributeContainer</title>
<path fill="none" stroke="#6666ff" d="M717.46,-670.58C719.45,-690.77 722.37,-720.48 722.37,-720.48 722.37,-720.48 537.94,-1129.11 487.97,-1239.82"/>
<polygon fill="#6666ff" stroke="#6666ff" points="484.75,-1238.46 483.82,-1249.02 491.13,-1241.34 484.75,-1238.46"/>
</g>
<!-- Metamodel::ParametricRoleHOW&#45;&gt;Any -->
<g id="edge4" class="edge">
<title>Metamodel::ParametricRoleHOW&#45;&gt;Any</title>
<path fill="none" stroke="#000000" d="M757.24,-669.71C864.75,-714.7 1150.32,-834.21 1247.9,-875.04"/>
<polygon fill="#000000" stroke="#000000" points="1246.69,-878.33 1257.27,-878.96 1249.4,-871.87 1246.69,-878.33"/>
</g>
<!-- Metamodel::ParametricRoleHOW&#45;&gt;Metamodel::Naming -->
<g id="edge37" class="edge">
<title>Metamodel::ParametricRoleHOW&#45;&gt;Metamodel::Naming</title>
<path fill="none" stroke="#6666ff" d="M717.46,-670.58C719.45,-690.77 722.37,-720.48 722.37,-720.48 722.37,-720.48 599.08,-1131.97 599.08,-1131.97 599.08,-1131.97 627.35,-1267.3 627.35,-1267.3 627.35,-1267.3 550.61,-1319.85 550.61,-1319.85 550.61,-1319.85 537.3,-1360.7 527.88,-1389.59"/>
<polygon fill="#6666ff" stroke="#6666ff" points="524.52,-1388.63 524.75,-1399.22 531.17,-1390.8 524.52,-1388.63"/>
</g>
<!-- Metamodel::ParametricRoleHOW&#45;&gt;Metamodel::Documenting -->
<g id="edge38" class="edge">
<title>Metamodel::ParametricRoleHOW&#45;&gt;Metamodel::Documenting</title>
<path fill="none" stroke="#6666ff" d="M827.87,-664.96C984.6,-682.64 1267.2,-714.52 1422.46,-732.03"/>
<polygon fill="#6666ff" stroke="#6666ff" points="1422.17,-735.52 1432.49,-733.16 1422.95,-728.56 1422.17,-735.52"/>
</g>
<!-- Metamodel::ParametricRoleHOW&#45;&gt;Metamodel::Versioning -->
<g id="edge39" class="edge">
<title>Metamodel::ParametricRoleHOW&#45;&gt;Metamodel::Versioning</title>
<path fill="none" stroke="#6666ff" d="M717.46,-670.58C719.45,-690.77 722.37,-720.48 722.37,-720.48 722.37,-720.48 505.62,-946.48 431.47,-1023.8"/>
<polygon fill="#6666ff" stroke="#6666ff" points="428.75,-1021.58 424.35,-1031.22 433.8,-1026.43 428.75,-1021.58"/>
</g>
<!-- Metamodel::ParametricRoleHOW&#45;&gt;Metamodel::Stashing -->
<g id="edge46" class="edge">
<title>Metamodel::ParametricRoleHOW&#45;&gt;Metamodel::Stashing</title>
<path fill="none" stroke="#6666ff" d="M723.2,-670.32C752.35,-739.92 855.98,-987.4 855.98,-987.4 855.98,-987.4 953.03,-1117.17 995.68,-1174.2"/>
<polygon fill="#6666ff" stroke="#6666ff" points="993.01,-1176.47 1001.8,-1182.39 998.62,-1172.28 993.01,-1176.47"/>
</g>
<!-- Metamodel::ParametricRoleHOW&#45;&gt;Metamodel::MethodContainer -->
<g id="edge40" class="edge">
<title>Metamodel::ParametricRoleHOW&#45;&gt;Metamodel::MethodContainer</title>
<path fill="none" stroke="#6666ff" d="M717.46,-670.58C719.45,-690.77 722.37,-720.48 722.37,-720.48 722.37,-720.48 737.85,-1010.72 742.8,-1103.71"/>
<polygon fill="#6666ff" stroke="#6666ff" points="739.31,-1104 743.34,-1113.8 746.3,-1103.63 739.31,-1104"/>
</g>
<!-- Metamodel::ParametricRoleHOW&#45;&gt;Metamodel::PrivateMethodContainer -->
<g id="edge41" class="edge">
<title>Metamodel::ParametricRoleHOW&#45;&gt;Metamodel::PrivateMethodContainer</title>
<path fill="none" stroke="#6666ff" d="M783.34,-636C849.55,-620.05 950.33,-595.76 1020.17,-578.93"/>
<polygon fill="#6666ff" stroke="#6666ff" points="1021.34,-582.25 1030.24,-576.51 1019.7,-575.45 1021.34,-582.25"/>
</g>
<!-- Metamodel::ParametricRoleHOW&#45;&gt;Metamodel::MultiMethodContainer -->
<g id="edge42" class="edge">
<title>Metamodel::ParametricRoleHOW&#45;&gt;Metamodel::MultiMethodContainer</title>
<path fill="none" stroke="#6666ff" d="M732.2,-670.33C783.53,-726.24 940.24,-896.96 999.91,-961.95"/>
<polygon fill="#6666ff" stroke="#6666ff" points="997.35,-964.34 1006.69,-969.34 1002.5,-959.61 997.35,-964.34"/>
</g>
<!-- Metamodel::ParametricRoleHOW&#45;&gt;Metamodel::RoleContainer -->
<g id="edge44" class="edge">
<title>Metamodel::ParametricRoleHOW&#45;&gt;Metamodel::RoleContainer</title>
<path fill="none" stroke="#6666ff" d="M717.46,-670.58C719.45,-690.77 722.37,-720.48 722.37,-720.48 722.37,-720.48 599.08,-1131.97 599.08,-1131.97 599.08,-1131.97 647.04,-1240.47 670.09,-1292.62"/>
<polygon fill="#6666ff" stroke="#6666ff" points="666.98,-1294.23 674.22,-1301.96 673.38,-1291.4 666.98,-1294.23"/>
</g>
<!-- Metamodel::ParametricRoleHOW&#45;&gt;Metamodel::MultipleInheritance -->
<g id="edge45" class="edge">
<title>Metamodel::ParametricRoleHOW&#45;&gt;Metamodel::MultipleInheritance</title>
<path fill="none" stroke="#6666ff" d="M846.77,-642.29C927.39,-636.12 1030.61,-628.23 1112.64,-621.96"/>
<polygon fill="#6666ff" stroke="#6666ff" points="1113.09,-625.44 1122.79,-621.19 1112.55,-618.46 1113.09,-625.44"/>
</g>
<!-- Metamodel::ParametricRoleHOW&#45;&gt;Metamodel::TypePretense -->
<g id="edge47" class="edge">
<title>Metamodel::ParametricRoleHOW&#45;&gt;Metamodel::TypePretense</title>
<path fill="none" stroke="#6666ff" d="M684.37,-634.54C584.92,-578.07 276.09,-402.7 165.76,-340.06"/>
<polygon fill="#6666ff" stroke="#6666ff" points="167.36,-336.94 156.94,-335.05 163.91,-343.03 167.36,-336.94"/>
</g>
<!-- Metamodel::ParametricRoleHOW&#45;&gt;Metamodel::RolePunning -->
<g id="edge48" class="edge">
<title>Metamodel::ParametricRoleHOW&#45;&gt;Metamodel::RolePunning</title>
<path fill="none" stroke="#6666ff" d="M711.14,-634.01C689.07,-544.66 592.65,-154.19 565.91,-45.93"/>
<polygon fill="#6666ff" stroke="#6666ff" points="569.28,-44.94 563.48,-36.07 562.48,-46.62 569.28,-44.94"/>
</g>
<!-- Metamodel::ConcreteRoleHOW -->
<g id="node28" class="node">
<title>Metamodel::ConcreteRoleHOW</title>
<g id="a_node28"><a xlink:href="/type/Metamodel::ConcreteRoleHOW" xlink:title="Metamodel::ConcreteRoleHOW">
<ellipse fill="none" stroke="#000000" cx="571.94" cy="-720.32" rx="148.67" ry="18"/>
<text text-anchor="middle" x="571.94" y="-716.62" font-family="FreeSans" font-size="14.00" fill="#000000">Metamodel::ConcreteRoleHOW</text>
</a>
</g>
</g>
<!-- Metamodel::ConcreteRoleHOW&#45;&gt;Metamodel::AttributeContainer -->
<g id="edge54" class="edge">
<title>Metamodel::ConcreteRoleHOW&#45;&gt;Metamodel::AttributeContainer</title>
<path fill="none" stroke="#6666ff" d="M569.24,-738.49C558.96,-807.5 522.93,-1049.5 522.93,-1049.5 522.93,-1049.5 494.58,-1179.95 481.77,-1238.89"/>
<polygon fill="#6666ff" stroke="#6666ff" points="478.27,-1238.5 479.56,-1249.02 485.11,-1239.99 478.27,-1238.5"/>
</g>
<!-- Metamodel::ConcreteRoleHOW&#45;&gt;Any -->
<g id="edge5" class="edge">
<title>Metamodel::ConcreteRoleHOW&#45;&gt;Any</title>
<path fill="none" stroke="#000000" d="M639.62,-736.42C786.67,-771.38 1131.22,-853.3 1244.39,-880.21"/>
<polygon fill="#000000" stroke="#000000" points="1243.76,-883.65 1254.3,-882.56 1245.38,-876.84 1243.76,-883.65"/>
</g>
<!-- Metamodel::ConcreteRoleHOW&#45;&gt;Metamodel::Naming -->
<g id="edge49" class="edge">
<title>Metamodel::ConcreteRoleHOW&#45;&gt;Metamodel::Naming</title>
<path fill="none" stroke="#6666ff" d="M573.14,-738.54C578.39,-818.21 599.08,-1131.97 599.08,-1131.97 599.08,-1131.97 627.35,-1267.3 627.35,-1267.3 627.35,-1267.3 550.61,-1319.85 550.61,-1319.85 550.61,-1319.85 537.3,-1360.7 527.88,-1389.59"/>
<polygon fill="#6666ff" stroke="#6666ff" points="524.52,-1388.63 524.75,-1399.22 531.17,-1390.8 524.52,-1388.63"/>
</g>
<!-- Metamodel::ConcreteRoleHOW&#45;&gt;Metamodel::Versioning -->
<g id="edge50" class="edge">
<title>Metamodel::ConcreteRoleHOW&#45;&gt;Metamodel::Versioning</title>
<path fill="none" stroke="#6666ff" d="M562.84,-738.48C535.4,-793.2 453.39,-956.74 420.66,-1022.02"/>
<polygon fill="#6666ff" stroke="#6666ff" points="417.37,-1020.76 416.02,-1031.27 423.63,-1023.9 417.37,-1020.76"/>
</g>
<!-- Metamodel::ConcreteRoleHOW&#45;&gt;Metamodel::MethodContainer -->
<g id="edge52" class="edge">
<title>Metamodel::ConcreteRoleHOW&#45;&gt;Metamodel::MethodContainer</title>
<path fill="none" stroke="#6666ff" d="M579.57,-738.55C606.88,-803.78 699.9,-1025.93 732.73,-1104.34"/>
<polygon fill="#6666ff" stroke="#6666ff" points="729.68,-1106.13 736.77,-1114 736.14,-1103.43 729.68,-1106.13"/>
</g>
<!-- Metamodel::ConcreteRoleHOW&#45;&gt;Metamodel::PrivateMethodContainer -->
<g id="edge51" class="edge">
<title>Metamodel::ConcreteRoleHOW&#45;&gt;Metamodel::PrivateMethodContainer</title>
<path fill="none" stroke="#6666ff" d="M645.93,-704.67C721.48,-688.68 827.75,-666.2 827.75,-666.2 827.75,-666.2 874.54,-652.35 874.54,-652.35 874.54,-652.35 980.83,-608.61 1047.19,-581.3"/>
<polygon fill="#6666ff" stroke="#6666ff" points="1048.76,-584.43 1056.67,-577.39 1046.09,-577.96 1048.76,-584.43"/>
</g>
<!-- Metamodel::ConcreteRoleHOW&#45;&gt;Metamodel::MultiMethodContainer -->
<g id="edge53" class="edge">
<title>Metamodel::ConcreteRoleHOW&#45;&gt;Metamodel::MultiMethodContainer</title>
<path fill="none" stroke="#6666ff" d="M601.91,-738.06C681.19,-784.98 896.42,-912.35 984.72,-964.61"/>
<polygon fill="#6666ff" stroke="#6666ff" points="982.97,-967.64 993.36,-969.72 986.53,-961.62 982.97,-967.64"/>
</g>
<!-- Metamodel::ConcreteRoleHOW&#45;&gt;Metamodel::RoleContainer -->
<g id="edge55" class="edge">
<title>Metamodel::ConcreteRoleHOW&#45;&gt;Metamodel::RoleContainer</title>
<path fill="none" stroke="#6666ff" d="M573.14,-738.54C578.39,-818.21 599.08,-1131.97 599.08,-1131.97 599.08,-1131.97 647.04,-1240.47 670.09,-1292.62"/>
<polygon fill="#6666ff" stroke="#6666ff" points="666.98,-1294.23 674.22,-1301.96 673.38,-1291.4 666.98,-1294.23"/>
</g>
<!-- Metamodel::ConcreteRoleHOW&#45;&gt;Metamodel::MultipleInheritance -->
<g id="edge56" class="edge">
<title>Metamodel::ConcreteRoleHOW&#45;&gt;Metamodel::MultipleInheritance</title>
<path fill="none" stroke="#6666ff" d="M661.85,-705.91C788.43,-685.61 1018.49,-648.72 1150.75,-627.51"/>
<polygon fill="#6666ff" stroke="#6666ff" points="1151.57,-630.93 1160.89,-625.89 1150.46,-624.01 1151.57,-630.93"/>
</g>
</g>
</svg>
