<?xml version="1.0" encoding="UTF-8" standalone="no"?>
<!DOCTYPE svg PUBLIC "-//W3C//DTD SVG 1.1//EN"
 "http://www.w3.org/Graphics/SVG/1.1/DTD/svg11.dtd">
<!-- Generated by graphviz version 2.42.3 (0)
 -->
<!-- Title: perl6&#45;type&#45;graph Pages: 1 -->
<svg width="252pt" height="332pt"
 viewBox="0.00 0.00 252.38 332.00" xmlns="http://www.w3.org/2000/svg" xmlns:xlink="http://www.w3.org/1999/xlink">
<g id="graph0" class="graph" transform="scale(1 1) rotate(0) translate(4 328)">
<title>perl6&#45;type&#45;graph</title>
<polygon fill="white" stroke="transparent" points="-4,4 -4,-328 248.38,-328 248.38,4 -4,4"/>
<!-- X::EXPORTHOW::Conflict -->
<g id="node1" class="node">
<title>X::EXPORTHOW::Conflict</title>
<g id="a_node1"><a xlink:href="/type/X::EXPORTHOW::Conflict" xlink:title="X::EXPORTHOW::Conflict">
<ellipse fill="none" stroke="#000000" cx="122.19" cy="-18" rx="122.38" ry="18"/>
<text text-anchor="middle" x="122.19" y="-14.3" font-family="FreeSans" font-size="14.00" fill="#000000">X::EXPORTHOW::Conflict</text>
</a>
</g>
</g>
<!-- Exception -->
<g id="node4" class="node">
<title>Exception</title>
<g id="a_node4"><a xlink:href="/type/Exception" xlink:title="Exception">
<ellipse fill="none" stroke="#000000" cx="122.19" cy="-162" rx="55.49" ry="18"/>
<text text-anchor="middle" x="122.19" y="-158.3" font-family="FreeSans" font-size="14.00" fill="#000000">Exception</text>
</a>
</g>
</g>
<!-- X::EXPORTHOW::Conflict&#45;&gt;Exception -->
<g id="edge1" class="edge">
<title>X::EXPORTHOW::Conflict&#45;&gt;Exception</title>
<path fill="none" stroke="#000000" d="M116.07,-36.06C110.52,-51.55 103.19,-72 103.19,-72 103.19,-72 103.19,-108 103.19,-108 103.19,-108 107.94,-121.24 112.68,-134.48"/>
<polygon fill="#000000" stroke="#000000" points="109.4,-135.71 116.07,-143.94 115.99,-133.34 109.4,-135.71"/>
</g>
<!-- X::Comp -->
<g id="node5" class="node">
<title>X::Comp</title>
<g id="a_node5"><a xlink:href="/type/X::Comp" xlink:title="X::Comp">
<ellipse fill="none" stroke="#6666ff" cx="161.19" cy="-90" rx="49.29" ry="18"/>
<text text-anchor="middle" x="161.19" y="-86.3" font-family="FreeSans" font-size="14.00" fill="#6666ff">X::Comp</text>
</a>
</g>
</g>
<!-- X::EXPORTHOW::Conflict&#45;&gt;X::Comp -->
<g id="edge5" class="edge">
<title>X::EXPORTHOW::Conflict&#45;&gt;X::Comp</title>
<path fill="none" stroke="#6666ff" d="M131.83,-36.3C136.32,-44.36 141.75,-54.11 146.71,-63.02"/>
<polygon fill="#6666ff" stroke="#6666ff" points="143.74,-64.86 151.66,-71.9 149.85,-61.46 143.74,-64.86"/>
</g>
<!-- Mu -->
<g id="node2" class="node">
<title>Mu</title>
<g id="a_node2"><a xlink:href="/type/Mu" xlink:title="Mu">
<ellipse fill="none" stroke="#000000" cx="122.19" cy="-306" rx="27" ry="18"/>
<text text-anchor="middle" x="122.19" y="-302.3" font-family="FreeSans" font-size="14.00" fill="#000000">Mu</text>
</a>
</g>
</g>
<!-- Any -->
<g id="node3" class="node">
<title>Any</title>
<g id="a_node3"><a xlink:href="/type/Any" xlink:title="Any">
<ellipse fill="none" stroke="#000000" cx="122.19" cy="-234" rx="28.7" ry="18"/>
<text text-anchor="middle" x="122.19" y="-230.3" font-family="FreeSans" font-size="14.00" fill="#000000">Any</text>
</a>
</g>
</g>
<!-- Any&#45;&gt;Mu -->
<g id="edge2" class="edge">
<title>Any&#45;&gt;Mu</title>
<path fill="none" stroke="#000000" d="M122.19,-252.3C122.19,-260.02 122.19,-269.29 122.19,-277.89"/>
<polygon fill="#000000" stroke="#000000" points="118.69,-277.9 122.19,-287.9 125.69,-277.9 118.69,-277.9"/>
</g>
<!-- Exception&#45;&gt;Any -->
<g id="edge3" class="edge">
<title>Exception&#45;&gt;Any</title>
<path fill="none" stroke="#000000" d="M122.19,-180.3C122.19,-188.02 122.19,-197.29 122.19,-205.89"/>
<polygon fill="#000000" stroke="#000000" points="118.69,-205.9 122.19,-215.9 125.69,-205.9 118.69,-205.9"/>
</g>
<!-- X::Comp&#45;&gt;Exception -->
<g id="edge4" class="edge">
<title>X::Comp&#45;&gt;Exception</title>
<path fill="none" stroke="#000000" d="M151.75,-107.95C147.15,-116.2 141.52,-126.3 136.42,-135.46"/>
<polygon fill="#000000" stroke="#000000" points="133.35,-133.77 131.54,-144.21 139.47,-137.18 133.35,-133.77"/>
</g>
</g>
</svg>
