<?xml version="1.0" encoding="UTF-8" standalone="no"?>
<!DOCTYPE svg PUBLIC "-//W3C//DTD SVG 1.1//EN"
 "http://www.w3.org/Graphics/SVG/1.1/DTD/svg11.dtd">
<!-- Generated by graphviz version 2.42.3 (0)
 -->
<!-- Title: perl6&#45;type&#45;graph Pages: 1 -->
<svg width="309pt" height="404pt"
 viewBox="0.00 0.00 309.43 404.00" xmlns="http://www.w3.org/2000/svg" xmlns:xlink="http://www.w3.org/1999/xlink">
<g id="graph0" class="graph" transform="scale(1 1) rotate(0) translate(4 400)">
<title>perl6&#45;type&#45;graph</title>
<polygon fill="white" stroke="transparent" points="-4,4 -4,-400 305.43,-400 305.43,4 -4,4"/>
<!-- X::Syntax::Extension::Null -->
<g id="node1" class="node">
<title>X::Syntax::Extension::Null</title>
<g id="a_node1"><a xlink:href="/type/X::Syntax::Extension::Null" xlink:title="X::Syntax::Extension::Null">
<ellipse fill="none" stroke="#000000" cx="128.04" cy="-18" rx="128.08" ry="18"/>
<text text-anchor="middle" x="128.04" y="-14.3" font-family="FreeSans" font-size="14.00" fill="#000000">X::Syntax::Extension::Null</text>
</a>
</g>
</g>
<!-- Exception -->
<g id="node4" class="node">
<title>Exception</title>
<g id="a_node4"><a xlink:href="/type/Exception" xlink:title="Exception">
<ellipse fill="none" stroke="#000000" cx="151.04" cy="-234" rx="55.49" ry="18"/>
<text text-anchor="middle" x="151.04" y="-230.3" font-family="FreeSans" font-size="14.00" fill="#000000">Exception</text>
</a>
</g>
</g>
<!-- X::Syntax::Extension::Null&#45;&gt;Exception -->
<g id="edge1" class="edge">
<title>X::Syntax::Extension::Null&#45;&gt;Exception</title>
<path fill="none" stroke="#000000" d="M126,-36.15C126.45,-73.34 135.68,-161.63 143.51,-206.23"/>
<polygon fill="#000000" stroke="#000000" points="140.07,-206.88 145.36,-216.06 146.95,-205.59 140.07,-206.88"/>
</g>
<!-- X::Syntax::Extension::Null&#45;&gt;Exception -->
<g id="edge2" class="edge">
<title>X::Syntax::Extension::Null&#45;&gt;Exception</title>
<path fill="none" stroke="#000000" d="M133.76,-36.15C141.27,-73.17 150.97,-160.82 152.79,-205.61"/>
<polygon fill="#000000" stroke="#000000" points="149.29,-205.87 153.07,-215.77 156.29,-205.67 149.29,-205.87"/>
</g>
<!-- X::Syntax -->
<g id="node6" class="node">
<title>X::Syntax</title>
<g id="a_node6"><a xlink:href="/type/X::Syntax" xlink:title="X::Syntax">
<ellipse fill="none" stroke="#6666ff" cx="219.04" cy="-90" rx="53.89" ry="18"/>
<text text-anchor="middle" x="219.04" y="-86.3" font-family="FreeSans" font-size="14.00" fill="#6666ff">X::Syntax</text>
</a>
</g>
</g>
<!-- X::Syntax::Extension::Null&#45;&gt;X::Syntax -->
<g id="edge7" class="edge">
<title>X::Syntax::Extension::Null&#45;&gt;X::Syntax</title>
<path fill="none" stroke="#6666ff" d="M150.07,-35.95C162.15,-45.24 177.27,-56.87 190.27,-66.87"/>
<polygon fill="#6666ff" stroke="#6666ff" points="188.4,-69.85 198.46,-73.17 192.67,-64.3 188.4,-69.85"/>
</g>
<!-- Mu -->
<g id="node2" class="node">
<title>Mu</title>
<g id="a_node2"><a xlink:href="/type/Mu" xlink:title="Mu">
<ellipse fill="none" stroke="#000000" cx="151.04" cy="-378" rx="27" ry="18"/>
<text text-anchor="middle" x="151.04" y="-374.3" font-family="FreeSans" font-size="14.00" fill="#000000">Mu</text>
</a>
</g>
</g>
<!-- Any -->
<g id="node3" class="node">
<title>Any</title>
<g id="a_node3"><a xlink:href="/type/Any" xlink:title="Any">
<ellipse fill="none" stroke="#000000" cx="151.04" cy="-306" rx="28.7" ry="18"/>
<text text-anchor="middle" x="151.04" y="-302.3" font-family="FreeSans" font-size="14.00" fill="#000000">Any</text>
</a>
</g>
</g>
<!-- Any&#45;&gt;Mu -->
<g id="edge3" class="edge">
<title>Any&#45;&gt;Mu</title>
<path fill="none" stroke="#000000" d="M151.04,-324.3C151.04,-332.02 151.04,-341.29 151.04,-349.89"/>
<polygon fill="#000000" stroke="#000000" points="147.54,-349.9 151.04,-359.9 154.54,-349.9 147.54,-349.9"/>
</g>
<!-- Exception&#45;&gt;Any -->
<g id="edge4" class="edge">
<title>Exception&#45;&gt;Any</title>
<path fill="none" stroke="#000000" d="M151.04,-252.3C151.04,-260.02 151.04,-269.29 151.04,-277.89"/>
<polygon fill="#000000" stroke="#000000" points="147.54,-277.9 151.04,-287.9 154.54,-277.9 147.54,-277.9"/>
</g>
<!-- X::Comp -->
<g id="node5" class="node">
<title>X::Comp</title>
<g id="a_node5"><a xlink:href="/type/X::Comp" xlink:title="X::Comp">
<ellipse fill="none" stroke="#6666ff" cx="252.04" cy="-162" rx="49.29" ry="18"/>
<text text-anchor="middle" x="252.04" y="-158.3" font-family="FreeSans" font-size="14.00" fill="#6666ff">X::Comp</text>
</a>
</g>
</g>
<!-- X::Comp&#45;&gt;Exception -->
<g id="edge5" class="edge">
<title>X::Comp&#45;&gt;Exception</title>
<path fill="none" stroke="#000000" d="M230.12,-178.19C216.02,-187.96 197.49,-200.8 181.92,-211.6"/>
<polygon fill="#000000" stroke="#000000" points="179.84,-208.78 173.61,-217.36 183.82,-214.54 179.84,-208.78"/>
</g>
<!-- X::Syntax&#45;&gt;Exception -->
<g id="edge6" class="edge">
<title>X::Syntax&#45;&gt;Exception</title>
<path fill="none" stroke="#000000" d="M210.97,-107.85C199.21,-132.4 177.27,-178.23 163.45,-207.09"/>
<polygon fill="#000000" stroke="#000000" points="160.26,-205.64 159.1,-216.18 166.57,-208.67 160.26,-205.64"/>
</g>
<!-- X::Syntax&#45;&gt;X::Comp -->
<g id="edge8" class="edge">
<title>X::Syntax&#45;&gt;X::Comp</title>
<path fill="none" stroke="#6666ff" d="M227.03,-107.95C230.84,-116.03 235.48,-125.88 239.73,-134.89"/>
<polygon fill="#6666ff" stroke="#6666ff" points="236.69,-136.66 244.12,-144.21 243.03,-133.67 236.69,-136.66"/>
</g>
</g>
</svg>
