<?xml version="1.0" encoding="UTF-8" standalone="no"?>
<!DOCTYPE svg PUBLIC "-//W3C//DTD SVG 1.1//EN"
 "http://www.w3.org/Graphics/SVG/1.1/DTD/svg11.dtd">
<!-- Generated by graphviz version 2.42.3 (0)
 -->
<!-- Title: perl6&#45;type&#45;graph Pages: 1 -->
<svg width="221pt" height="188pt"
 viewBox="0.00 0.00 220.84 188.00" xmlns="http://www.w3.org/2000/svg" xmlns:xlink="http://www.w3.org/1999/xlink">
<g id="graph0" class="graph" transform="scale(1 1) rotate(0) translate(4 184)">
<title>perl6&#45;type&#45;graph</title>
<polygon fill="white" stroke="transparent" points="-4,4 -4,-184 216.84,-184 216.84,4 -4,4"/>
<!-- ThreadPoolScheduler -->
<g id="node1" class="node">
<title>ThreadPoolScheduler</title>
<g id="a_node1"><a xlink:href="/type/ThreadPoolScheduler" xlink:title="ThreadPoolScheduler">
<ellipse fill="none" stroke="#000000" cx="105.94" cy="-18" rx="105.88" ry="18"/>
<text text-anchor="middle" x="105.94" y="-14.3" font-family="FreeSans" font-size="14.00" fill="#000000">ThreadPoolScheduler</text>
</a>
</g>
</g>
<!-- Any -->
<g id="node3" class="node">
<title>Any</title>
<g id="a_node3"><a xlink:href="/type/Any" xlink:title="Any">
<ellipse fill="none" stroke="#000000" cx="54.94" cy="-90" rx="28.7" ry="18"/>
<text text-anchor="middle" x="54.94" y="-86.3" font-family="FreeSans" font-size="14.00" fill="#000000">Any</text>
</a>
</g>
</g>
<!-- ThreadPoolScheduler&#45;&gt;Any -->
<g id="edge1" class="edge">
<title>ThreadPoolScheduler&#45;&gt;Any</title>
<path fill="none" stroke="#000000" d="M93.59,-35.95C87.28,-44.62 79.47,-55.33 72.53,-64.85"/>
<polygon fill="#000000" stroke="#000000" points="69.53,-63.03 66.47,-73.17 75.19,-67.15 69.53,-63.03"/>
</g>
<!-- Scheduler -->
<g id="node4" class="node">
<title>Scheduler</title>
<g id="a_node4"><a xlink:href="/type/Scheduler" xlink:title="Scheduler">
<ellipse fill="none" stroke="#6666ff" cx="156.94" cy="-90" rx="55.79" ry="18"/>
<text text-anchor="middle" x="156.94" y="-86.3" font-family="FreeSans" font-size="14.00" fill="#6666ff">Scheduler</text>
</a>
</g>
</g>
<!-- ThreadPoolScheduler&#45;&gt;Scheduler -->
<g id="edge3" class="edge">
<title>ThreadPoolScheduler&#45;&gt;Scheduler</title>
<path fill="none" stroke="#6666ff" d="M118.29,-35.95C124.43,-44.37 131.97,-54.72 138.75,-64.03"/>
<polygon fill="#6666ff" stroke="#6666ff" points="135.99,-66.19 144.71,-72.21 141.65,-62.07 135.99,-66.19"/>
</g>
<!-- Mu -->
<g id="node2" class="node">
<title>Mu</title>
<g id="a_node2"><a xlink:href="/type/Mu" xlink:title="Mu">
<ellipse fill="none" stroke="#000000" cx="54.94" cy="-162" rx="27" ry="18"/>
<text text-anchor="middle" x="54.94" y="-158.3" font-family="FreeSans" font-size="14.00" fill="#000000">Mu</text>
</a>
</g>
</g>
<!-- Any&#45;&gt;Mu -->
<g id="edge2" class="edge">
<title>Any&#45;&gt;Mu</title>
<path fill="none" stroke="#000000" d="M54.94,-108.3C54.94,-116.02 54.94,-125.29 54.94,-133.89"/>
<polygon fill="#000000" stroke="#000000" points="51.44,-133.9 54.94,-143.9 58.44,-133.9 51.44,-133.9"/>
</g>
</g>
</svg>
