<?xml version="1.0" encoding="UTF-8" standalone="no"?>
<!DOCTYPE svg PUBLIC "-//W3C//DTD SVG 1.1//EN"
 "http://www.w3.org/Graphics/SVG/1.1/DTD/svg11.dtd">
<!-- Generated by graphviz version 2.42.3 (0)
 -->
<!-- Title: perl6&#45;type&#45;graph Pages: 1 -->
<svg width="303pt" height="332pt"
 viewBox="0.00 0.00 303.04 332.00" xmlns="http://www.w3.org/2000/svg" xmlns:xlink="http://www.w3.org/1999/xlink">
<g id="graph0" class="graph" transform="scale(1 1) rotate(0) translate(4 328)">
<title>perl6&#45;type&#45;graph</title>
<polygon fill="white" stroke="transparent" points="-4,4 -4,-328 299.04,-328 299.04,4 -4,4"/>
<!-- Slip -->
<g id="node1" class="node">
<title>Slip</title>
<g id="a_node1"><a xlink:href="/type/Slip" xlink:title="Slip">
<ellipse fill="none" stroke="#000000" cx="132.55" cy="-18" rx="27.1" ry="18"/>
<text text-anchor="middle" x="132.55" y="-14.3" font-family="FreeSans" font-size="14.00" fill="#000000">Slip</text>
</a>
</g>
</g>
<!-- List -->
<g id="node7" class="node">
<title>List</title>
<g id="a_node7"><a xlink:href="/type/List" xlink:title="List">
<ellipse fill="none" stroke="#000000" cx="132.55" cy="-90" rx="27" ry="18"/>
<text text-anchor="middle" x="132.55" y="-86.3" font-family="FreeSans" font-size="14.00" fill="#000000">List</text>
</a>
</g>
</g>
<!-- Slip&#45;&gt;List -->
<g id="edge1" class="edge">
<title>Slip&#45;&gt;List</title>
<path fill="none" stroke="#000000" d="M132.55,-36.3C132.55,-44.02 132.55,-53.29 132.55,-61.89"/>
<polygon fill="#000000" stroke="#000000" points="129.05,-61.9 132.55,-71.9 136.05,-61.9 129.05,-61.9"/>
</g>
<!-- Mu -->
<g id="node2" class="node">
<title>Mu</title>
<g id="a_node2"><a xlink:href="/type/Mu" xlink:title="Mu">
<ellipse fill="none" stroke="#000000" cx="30.55" cy="-306" rx="27" ry="18"/>
<text text-anchor="middle" x="30.55" y="-302.3" font-family="FreeSans" font-size="14.00" fill="#000000">Mu</text>
</a>
</g>
</g>
<!-- Any -->
<g id="node3" class="node">
<title>Any</title>
<g id="a_node3"><a xlink:href="/type/Any" xlink:title="Any">
<ellipse fill="none" stroke="#000000" cx="30.55" cy="-234" rx="28.7" ry="18"/>
<text text-anchor="middle" x="30.55" y="-230.3" font-family="FreeSans" font-size="14.00" fill="#000000">Any</text>
</a>
</g>
</g>
<!-- Any&#45;&gt;Mu -->
<g id="edge2" class="edge">
<title>Any&#45;&gt;Mu</title>
<path fill="none" stroke="#000000" d="M30.55,-252.3C30.55,-260.02 30.55,-269.29 30.55,-277.89"/>
<polygon fill="#000000" stroke="#000000" points="27.05,-277.9 30.55,-287.9 34.05,-277.9 27.05,-277.9"/>
</g>
<!-- Cool -->
<g id="node4" class="node">
<title>Cool</title>
<g id="a_node4"><a xlink:href="/type/Cool" xlink:title="Cool">
<ellipse fill="none" stroke="#000000" cx="30.55" cy="-162" rx="30.59" ry="18"/>
<text text-anchor="middle" x="30.55" y="-158.3" font-family="FreeSans" font-size="14.00" fill="#000000">Cool</text>
</a>
</g>
</g>
<!-- Cool&#45;&gt;Any -->
<g id="edge3" class="edge">
<title>Cool&#45;&gt;Any</title>
<path fill="none" stroke="#000000" d="M30.55,-180.3C30.55,-188.02 30.55,-197.29 30.55,-205.89"/>
<polygon fill="#000000" stroke="#000000" points="27.05,-205.9 30.55,-215.9 34.05,-205.9 27.05,-205.9"/>
</g>
<!-- Positional -->
<g id="node5" class="node">
<title>Positional</title>
<g id="a_node5"><a xlink:href="/type/Positional" xlink:title="Positional">
<ellipse fill="none" stroke="#6666ff" cx="132.55" cy="-162" rx="53.89" ry="18"/>
<text text-anchor="middle" x="132.55" y="-158.3" font-family="FreeSans" font-size="14.00" fill="#6666ff">Positional</text>
</a>
</g>
</g>
<!-- Iterable -->
<g id="node6" class="node">
<title>Iterable</title>
<g id="a_node6"><a xlink:href="/type/Iterable" xlink:title="Iterable">
<ellipse fill="none" stroke="#6666ff" cx="249.55" cy="-162" rx="45.49" ry="18"/>
<text text-anchor="middle" x="249.55" y="-158.3" font-family="FreeSans" font-size="14.00" fill="#6666ff">Iterable</text>
</a>
</g>
</g>
<!-- List&#45;&gt;Cool -->
<g id="edge4" class="edge">
<title>List&#45;&gt;Cool</title>
<path fill="none" stroke="#000000" d="M114.31,-103.51C98.65,-114.26 75.85,-129.91 57.98,-142.17"/>
<polygon fill="#000000" stroke="#000000" points="55.93,-139.34 49.66,-147.88 59.89,-145.11 55.93,-139.34"/>
</g>
<!-- List&#45;&gt;Positional -->
<g id="edge5" class="edge">
<title>List&#45;&gt;Positional</title>
<path fill="none" stroke="#6666ff" d="M132.55,-108.3C132.55,-116.02 132.55,-125.29 132.55,-133.89"/>
<polygon fill="#6666ff" stroke="#6666ff" points="129.05,-133.9 132.55,-143.9 136.05,-133.9 129.05,-133.9"/>
</g>
<!-- List&#45;&gt;Iterable -->
<g id="edge6" class="edge">
<title>List&#45;&gt;Iterable</title>
<path fill="none" stroke="#6666ff" d="M152.13,-102.72C169.7,-113.23 195.83,-128.86 216.61,-141.29"/>
<polygon fill="#6666ff" stroke="#6666ff" points="215.06,-144.45 225.44,-146.58 218.65,-138.44 215.06,-144.45"/>
</g>
</g>
</svg>
