<?xml version="1.0" encoding="UTF-8" standalone="no"?>
<!DOCTYPE svg PUBLIC "-//W3C//DTD SVG 1.1//EN"
 "http://www.w3.org/Graphics/SVG/1.1/DTD/svg11.dtd">
<!-- Generated by graphviz version 2.42.3 (0)
 -->
<!-- Title: perl6&#45;type&#45;graph Pages: 1 -->
<svg width="371pt" height="332pt"
 viewBox="0.00 0.00 370.67 332.00" xmlns="http://www.w3.org/2000/svg" xmlns:xlink="http://www.w3.org/1999/xlink">
<g id="graph0" class="graph" transform="scale(1 1) rotate(0) translate(4 328)">
<title>perl6&#45;type&#45;graph</title>
<polygon fill="white" stroke="transparent" points="-4,4 -4,-328 366.67,-328 366.67,4 -4,4"/>
<!-- X::EXPORTHOW::NothingToSupersede -->
<g id="node1" class="node">
<title>X::EXPORTHOW::NothingToSupersede</title>
<g id="a_node1"><a xlink:href="/type/X::EXPORTHOW::NothingToSupersede" xlink:title="X::EXPORTHOW::NothingToSupersede">
<ellipse fill="none" stroke="#000000" cx="181.33" cy="-18" rx="181.17" ry="18"/>
<text text-anchor="middle" x="181.33" y="-14.3" font-family="FreeSans" font-size="14.00" fill="#000000">X::EXPORTHOW::NothingToSupersede</text>
</a>
</g>
</g>
<!-- Exception -->
<g id="node4" class="node">
<title>Exception</title>
<g id="a_node4"><a xlink:href="/type/Exception" xlink:title="Exception">
<ellipse fill="none" stroke="#000000" cx="181.33" cy="-162" rx="55.49" ry="18"/>
<text text-anchor="middle" x="181.33" y="-158.3" font-family="FreeSans" font-size="14.00" fill="#000000">Exception</text>
</a>
</g>
</g>
<!-- X::EXPORTHOW::NothingToSupersede&#45;&gt;Exception -->
<g id="edge1" class="edge">
<title>X::EXPORTHOW::NothingToSupersede&#45;&gt;Exception</title>
<path fill="none" stroke="#000000" d="M175.22,-36.06C169.66,-51.55 162.33,-72 162.33,-72 162.33,-72 162.33,-108 162.33,-108 162.33,-108 167.08,-121.24 171.83,-134.48"/>
<polygon fill="#000000" stroke="#000000" points="168.55,-135.71 175.22,-143.94 175.14,-133.34 168.55,-135.71"/>
</g>
<!-- X::Comp -->
<g id="node5" class="node">
<title>X::Comp</title>
<g id="a_node5"><a xlink:href="/type/X::Comp" xlink:title="X::Comp">
<ellipse fill="none" stroke="#6666ff" cx="220.33" cy="-90" rx="49.29" ry="18"/>
<text text-anchor="middle" x="220.33" y="-86.3" font-family="FreeSans" font-size="14.00" fill="#6666ff">X::Comp</text>
</a>
</g>
</g>
<!-- X::EXPORTHOW::NothingToSupersede&#45;&gt;X::Comp -->
<g id="edge5" class="edge">
<title>X::EXPORTHOW::NothingToSupersede&#45;&gt;X::Comp</title>
<path fill="none" stroke="#6666ff" d="M190.97,-36.3C195.46,-44.36 200.89,-54.11 205.86,-63.02"/>
<polygon fill="#6666ff" stroke="#6666ff" points="202.88,-64.86 210.8,-71.9 208.99,-61.46 202.88,-64.86"/>
</g>
<!-- Mu -->
<g id="node2" class="node">
<title>Mu</title>
<g id="a_node2"><a xlink:href="/type/Mu" xlink:title="Mu">
<ellipse fill="none" stroke="#000000" cx="181.33" cy="-306" rx="27" ry="18"/>
<text text-anchor="middle" x="181.33" y="-302.3" font-family="FreeSans" font-size="14.00" fill="#000000">Mu</text>
</a>
</g>
</g>
<!-- Any -->
<g id="node3" class="node">
<title>Any</title>
<g id="a_node3"><a xlink:href="/type/Any" xlink:title="Any">
<ellipse fill="none" stroke="#000000" cx="181.33" cy="-234" rx="28.7" ry="18"/>
<text text-anchor="middle" x="181.33" y="-230.3" font-family="FreeSans" font-size="14.00" fill="#000000">Any</text>
</a>
</g>
</g>
<!-- Any&#45;&gt;Mu -->
<g id="edge2" class="edge">
<title>Any&#45;&gt;Mu</title>
<path fill="none" stroke="#000000" d="M181.33,-252.3C181.33,-260.02 181.33,-269.29 181.33,-277.89"/>
<polygon fill="#000000" stroke="#000000" points="177.83,-277.9 181.33,-287.9 184.83,-277.9 177.83,-277.9"/>
</g>
<!-- Exception&#45;&gt;Any -->
<g id="edge3" class="edge">
<title>Exception&#45;&gt;Any</title>
<path fill="none" stroke="#000000" d="M181.33,-180.3C181.33,-188.02 181.33,-197.29 181.33,-205.89"/>
<polygon fill="#000000" stroke="#000000" points="177.83,-205.9 181.33,-215.9 184.83,-205.9 177.83,-205.9"/>
</g>
<!-- X::Comp&#45;&gt;Exception -->
<g id="edge4" class="edge">
<title>X::Comp&#45;&gt;Exception</title>
<path fill="none" stroke="#000000" d="M210.89,-107.95C206.29,-116.2 200.67,-126.3 195.56,-135.46"/>
<polygon fill="#000000" stroke="#000000" points="192.5,-133.77 190.69,-144.21 198.61,-137.18 192.5,-133.77"/>
</g>
</g>
</svg>
