<?xml version="1.0" encoding="UTF-8" standalone="no"?>
<!DOCTYPE svg PUBLIC "-//W3C//DTD SVG 1.1//EN"
 "http://www.w3.org/Graphics/SVG/1.1/DTD/svg11.dtd">
<!-- Generated by graphviz version 2.42.3 (0)
 -->
<!-- Title: perl6&#45;type&#45;graph Pages: 1 -->
<svg width="240pt" height="116pt"
 viewBox="0.00 0.00 240.24 116.00" xmlns="http://www.w3.org/2000/svg" xmlns:xlink="http://www.w3.org/1999/xlink">
<g id="graph0" class="graph" transform="scale(1 1) rotate(0) translate(4 112)">
<title>perl6&#45;type&#45;graph</title>
<polygon fill="white" stroke="transparent" points="-4,4 -4,-112 236.24,-112 236.24,4 -4,4"/>
<!-- X::Syntax -->
<g id="node1" class="node">
<title>X::Syntax</title>
<g id="a_node1"><a xlink:href="/type/X::Syntax" xlink:title="X::Syntax">
<ellipse fill="none" stroke="#6666ff" cx="119.19" cy="-18" rx="53.89" ry="18"/>
<text text-anchor="middle" x="119.19" y="-14.3" font-family="FreeSans" font-size="14.00" fill="#6666ff">X::Syntax</text>
</a>
</g>
</g>
<!-- Exception -->
<g id="node2" class="node">
<title>Exception</title>
<ellipse fill="none" stroke="black" cx="57.19" cy="-90" rx="57.39" ry="18"/>
<text text-anchor="middle" x="57.19" y="-86.3" font-family="Times,serif" font-size="14.00">Exception</text>
</g>
<!-- X::Syntax&#45;&gt;Exception -->
<g id="edge1" class="edge">
<title>X::Syntax&#45;&gt;Exception</title>
<path fill="none" stroke="#000000" d="M104.5,-35.59C96.78,-44.31 87.17,-55.15 78.64,-64.79"/>
<polygon fill="#000000" stroke="#000000" points="75.79,-62.72 71.78,-72.53 81.03,-67.36 75.79,-62.72"/>
</g>
<!-- X::Comp -->
<g id="node3" class="node">
<title>X::Comp</title>
<ellipse fill="none" stroke="black" cx="182.19" cy="-90" rx="50.09" ry="18"/>
<text text-anchor="middle" x="182.19" y="-86.3" font-family="Times,serif" font-size="14.00">X::Comp</text>
</g>
<!-- X::Syntax&#45;&gt;X::Comp -->
<g id="edge2" class="edge">
<title>X::Syntax&#45;&gt;X::Comp</title>
<path fill="none" stroke="#6666ff" d="M134.13,-35.59C142.05,-44.39 151.93,-55.37 160.67,-65.08"/>
<polygon fill="#6666ff" stroke="#6666ff" points="158.08,-67.44 167.37,-72.53 163.28,-62.76 158.08,-67.44"/>
</g>
</g>
</svg>
