<?xml version="1.0" encoding="UTF-8" standalone="no"?>
<!DOCTYPE svg PUBLIC "-//W3C//DTD SVG 1.1//EN"
 "http://www.w3.org/Graphics/SVG/1.1/DTD/svg11.dtd">
<!-- Generated by graphviz version 2.42.3 (0)
 -->
<!-- Title: perl6&#45;type&#45;graph Pages: 1 -->
<svg width="551pt" height="78pt"
 viewBox="0.00 0.00 551.27 78.24" xmlns="http://www.w3.org/2000/svg" xmlns:xlink="http://www.w3.org/1999/xlink">
<g id="graph0" class="graph" transform="scale(1 1) rotate(0) translate(4 74.24)">
<title>perl6&#45;type&#45;graph</title>
<polygon fill="white" stroke="transparent" points="-4,4 -4,-74.24 547.27,-74.24 547.27,4 -4,4"/>
<!-- X::Comp::Group -->
<g id="node1" class="node">
<title>X::Comp::Group</title>
<g id="a_node1"><a xlink:href="/type/X::Comp::Group" xlink:title="X::Comp::Group">
<ellipse fill="none" stroke="#000000" cx="82.54" cy="-45.88" rx="82.59" ry="18"/>
<text text-anchor="middle" x="82.54" y="-42.18" font-family="FreeSans" font-size="14.00" fill="#000000">X::Comp::Group</text>
</a>
</g>
</g>
<!-- Exception -->
<g id="node4" class="node">
<title>Exception</title>
<g id="a_node4"><a xlink:href="/type/Exception" xlink:title="Exception">
<ellipse fill="none" stroke="#000000" cx="228.35" cy="-52.24" rx="55.49" ry="18"/>
<text text-anchor="middle" x="228.35" y="-48.54" font-family="FreeSans" font-size="14.00" fill="#000000">Exception</text>
</a>
</g>
</g>
<!-- X::Comp::Group&#45;&gt;Exception -->
<g id="edge1" class="edge">
<title>X::Comp::Group&#45;&gt;Exception</title>
<path fill="none" stroke="#000000" d="M163.54,-49.41C163.65,-49.42 163.75,-49.42 163.85,-49.43"/>
<polygon fill="#000000" stroke="#000000" points="163.14,-52.9 173.28,-49.84 163.45,-45.9 163.14,-52.9"/>
</g>
<!-- Mu -->
<g id="node2" class="node">
<title>Mu</title>
<g id="a_node2"><a xlink:href="/type/Mu" xlink:title="Mu">
<ellipse fill="none" stroke="#000000" cx="516.27" cy="-18" rx="27" ry="18"/>
<text text-anchor="middle" x="516.27" y="-14.3" font-family="FreeSans" font-size="14.00" fill="#000000">Mu</text>
</a>
</g>
</g>
<!-- Any -->
<g id="node3" class="node">
<title>Any</title>
<g id="a_node3"><a xlink:href="/type/Any" xlink:title="Any">
<ellipse fill="none" stroke="#000000" cx="370.5" cy="-18.21" rx="28.7" ry="18"/>
<text text-anchor="middle" x="370.5" y="-14.51" font-family="FreeSans" font-size="14.00" fill="#000000">Any</text>
</a>
</g>
</g>
<!-- Any&#45;&gt;Mu -->
<g id="edge2" class="edge">
<title>Any&#45;&gt;Mu</title>
<path fill="none" stroke="#000000" d="M399.3,-18.17C422.1,-18.14 454.11,-18.09 478.89,-18.05"/>
<polygon fill="#000000" stroke="#000000" points="479.02,-21.55 489.01,-18.04 479.01,-14.55 479.02,-21.55"/>
</g>
<!-- Exception&#45;&gt;Any -->
<g id="edge3" class="edge">
<title>Exception&#45;&gt;Any</title>
<path fill="none" stroke="#000000" d="M272.93,-41.56C292.44,-36.89 315.06,-31.48 333.61,-27.04"/>
<polygon fill="#000000" stroke="#000000" points="334.53,-30.42 343.44,-24.69 332.9,-23.61 334.53,-30.42"/>
</g>
</g>
</svg>
