<?xml version="1.0" encoding="UTF-8" standalone="no"?>
<!DOCTYPE svg PUBLIC "-//W3C//DTD SVG 1.1//EN"
 "http://www.w3.org/Graphics/SVG/1.1/DTD/svg11.dtd">
<!-- Generated by graphviz version 2.42.3 (0)
 -->
<!-- Title: perl6&#45;type&#45;graph Pages: 1 -->
<svg width="814pt" height="332pt"
 viewBox="0.00 0.00 814.40 332.00" xmlns="http://www.w3.org/2000/svg" xmlns:xlink="http://www.w3.org/1999/xlink">
<g id="graph0" class="graph" transform="scale(1 1) rotate(0) translate(4 328)">
<title>perl6&#45;type&#45;graph</title>
<polygon fill="white" stroke="transparent" points="-4,4 -4,-328 810.4,-328 810.4,4 -4,4"/>
<!-- Int -->
<g id="node1" class="node">
<title>Int</title>
<g id="a_node1"><a xlink:href="/type/Int" xlink:title="Int">
<ellipse fill="none" stroke="#000000" cx="421" cy="-90" rx="27" ry="18"/>
<text text-anchor="middle" x="421" y="-86.3" font-family="FreeSans" font-size="14.00" fill="#000000">Int</text>
</a>
</g>
</g>
<!-- Cool -->
<g id="node4" class="node">
<title>Cool</title>
<g id="a_node4"><a xlink:href="/type/Cool" xlink:title="Cool">
<ellipse fill="none" stroke="#000000" cx="597" cy="-162" rx="30.59" ry="18"/>
<text text-anchor="middle" x="597" y="-158.3" font-family="FreeSans" font-size="14.00" fill="#000000">Cool</text>
</a>
</g>
</g>
<!-- Int&#45;&gt;Cool -->
<g id="edge1" class="edge">
<title>Int&#45;&gt;Cool</title>
<path fill="none" stroke="#000000" d="M443.65,-100.01C473.94,-112.06 527.92,-133.52 563.08,-147.51"/>
<polygon fill="#000000" stroke="#000000" points="561.87,-150.8 572.46,-151.24 564.46,-144.29 561.87,-150.8"/>
</g>
<!-- Real -->
<g id="node6" class="node">
<title>Real</title>
<g id="a_node6"><a xlink:href="/type/Real" xlink:title="Real">
<ellipse fill="none" stroke="#6666ff" cx="421" cy="-162" rx="30.59" ry="18"/>
<text text-anchor="middle" x="421" y="-158.3" font-family="FreeSans" font-size="14.00" fill="#6666ff">Real</text>
</a>
</g>
</g>
<!-- Int&#45;&gt;Real -->
<g id="edge14" class="edge">
<title>Int&#45;&gt;Real</title>
<path fill="none" stroke="#6666ff" d="M421,-108.3C421,-116.02 421,-125.29 421,-133.89"/>
<polygon fill="#6666ff" stroke="#6666ff" points="417.5,-133.9 421,-143.9 424.5,-133.9 417.5,-133.9"/>
</g>
<!-- Mu -->
<g id="node2" class="node">
<title>Mu</title>
<g id="a_node2"><a xlink:href="/type/Mu" xlink:title="Mu">
<ellipse fill="none" stroke="#000000" cx="597" cy="-306" rx="27" ry="18"/>
<text text-anchor="middle" x="597" y="-302.3" font-family="FreeSans" font-size="14.00" fill="#000000">Mu</text>
</a>
</g>
</g>
<!-- Any -->
<g id="node3" class="node">
<title>Any</title>
<g id="a_node3"><a xlink:href="/type/Any" xlink:title="Any">
<ellipse fill="none" stroke="#000000" cx="597" cy="-234" rx="28.7" ry="18"/>
<text text-anchor="middle" x="597" y="-230.3" font-family="FreeSans" font-size="14.00" fill="#000000">Any</text>
</a>
</g>
</g>
<!-- Any&#45;&gt;Mu -->
<g id="edge2" class="edge">
<title>Any&#45;&gt;Mu</title>
<path fill="none" stroke="#000000" d="M597,-252.3C597,-260.02 597,-269.29 597,-277.89"/>
<polygon fill="#000000" stroke="#000000" points="593.5,-277.9 597,-287.9 600.5,-277.9 593.5,-277.9"/>
</g>
<!-- Cool&#45;&gt;Any -->
<g id="edge3" class="edge">
<title>Cool&#45;&gt;Any</title>
<path fill="none" stroke="#000000" d="M597,-180.3C597,-188.02 597,-197.29 597,-205.89"/>
<polygon fill="#000000" stroke="#000000" points="593.5,-205.9 597,-215.9 600.5,-205.9 593.5,-205.9"/>
</g>
<!-- Numeric -->
<g id="node5" class="node">
<title>Numeric</title>
<g id="a_node5"><a xlink:href="/type/Numeric" xlink:title="Numeric">
<ellipse fill="none" stroke="#6666ff" cx="421" cy="-234" rx="48.99" ry="18"/>
<text text-anchor="middle" x="421" y="-230.3" font-family="FreeSans" font-size="14.00" fill="#6666ff">Numeric</text>
</a>
</g>
</g>
<!-- Real&#45;&gt;Numeric -->
<g id="edge15" class="edge">
<title>Real&#45;&gt;Numeric</title>
<path fill="none" stroke="#6666ff" d="M421,-180.3C421,-188.02 421,-197.29 421,-205.89"/>
<polygon fill="#6666ff" stroke="#6666ff" points="417.5,-205.9 421,-215.9 424.5,-205.9 417.5,-205.9"/>
</g>
<!-- int -->
<g id="node7" class="node">
<title>int</title>
<g id="a_node7"><a xlink:href="/type/int" xlink:title="int">
<ellipse fill="none" stroke="#000000" cx="27" cy="-18" rx="27" ry="18"/>
<text text-anchor="middle" x="27" y="-14.3" font-family="FreeSans" font-size="14.00" fill="#000000">int</text>
</a>
</g>
</g>
<!-- int&#45;&gt;Int -->
<g id="edge4" class="edge">
<title>int&#45;&gt;Int</title>
<path fill="none" stroke="#000000" d="M48.36,-29.09C56.11,-32.75 63,-36 63,-36 63,-36 293.93,-70.19 384.85,-83.65"/>
<polygon fill="#000000" stroke="#000000" points="384.56,-87.14 394.97,-85.15 385.59,-80.22 384.56,-87.14"/>
</g>
<!-- Order -->
<g id="node8" class="node">
<title>Order</title>
<g id="a_node8"><a xlink:href="/type/Order" xlink:title="Order">
<ellipse fill="none" stroke="#33bb33" cx="109" cy="-18" rx="37.09" ry="18"/>
<text text-anchor="middle" x="109" y="-14.3" font-family="FreeSans" font-size="14.00" fill="#33bb33">Order</text>
</a>
</g>
</g>
<!-- Order&#45;&gt;Int -->
<g id="edge5" class="edge">
<title>Order&#45;&gt;Int</title>
<path fill="none" stroke="#000000" d="M137.61,-29.57C146.96,-33.03 155,-36 155,-36 155,-36 312.99,-67.48 385.45,-81.92"/>
<polygon fill="#000000" stroke="#000000" points="385,-85.4 395.49,-83.92 386.37,-78.53 385,-85.4"/>
</g>
<!-- atomicint -->
<g id="node9" class="node">
<title>atomicint</title>
<g id="a_node9"><a xlink:href="/type/atomicint" xlink:title="atomicint">
<ellipse fill="none" stroke="#000000" cx="217" cy="-18" rx="52.79" ry="18"/>
<text text-anchor="middle" x="217" y="-14.3" font-family="FreeSans" font-size="14.00" fill="#000000">atomicint</text>
</a>
</g>
</g>
<!-- atomicint&#45;&gt;Int -->
<g id="edge6" class="edge">
<title>atomicint&#45;&gt;Int</title>
<path fill="none" stroke="#000000" d="M253,-31.35C291.06,-44.41 350.6,-64.84 387.63,-77.55"/>
<polygon fill="#000000" stroke="#000000" points="386.85,-80.98 397.44,-80.92 389.12,-74.36 386.85,-80.98"/>
</g>
<!-- Endian -->
<g id="node10" class="node">
<title>Endian</title>
<g id="a_node10"><a xlink:href="/type/Endian" xlink:title="Endian">
<ellipse fill="none" stroke="#33bb33" cx="330" cy="-18" rx="42.49" ry="18"/>
<text text-anchor="middle" x="330" y="-14.3" font-family="FreeSans" font-size="14.00" fill="#33bb33">Endian</text>
</a>
</g>
</g>
<!-- Endian&#45;&gt;Int -->
<g id="edge7" class="edge">
<title>Endian&#45;&gt;Int</title>
<path fill="none" stroke="#000000" d="M349.75,-34.19C363.29,-44.61 381.38,-58.52 395.94,-69.72"/>
<polygon fill="#000000" stroke="#000000" points="393.99,-72.63 404.05,-75.96 398.25,-67.09 393.99,-72.63"/>
</g>
<!-- Bool -->
<g id="node11" class="node">
<title>Bool</title>
<g id="a_node11"><a xlink:href="/type/Bool" xlink:title="Bool">
<ellipse fill="none" stroke="#33bb33" cx="421" cy="-18" rx="30.59" ry="18"/>
<text text-anchor="middle" x="421" y="-14.3" font-family="FreeSans" font-size="14.00" fill="#33bb33">Bool</text>
</a>
</g>
</g>
<!-- Bool&#45;&gt;Int -->
<g id="edge8" class="edge">
<title>Bool&#45;&gt;Int</title>
<path fill="none" stroke="#000000" d="M421,-36.3C421,-44.02 421,-53.29 421,-61.89"/>
<polygon fill="#000000" stroke="#000000" points="417.5,-61.9 421,-71.9 424.5,-61.9 417.5,-61.9"/>
</g>
<!-- Signal -->
<g id="node12" class="node">
<title>Signal</title>
<g id="a_node12"><a xlink:href="/type/Signal" xlink:title="Signal">
<ellipse fill="none" stroke="#33bb33" cx="508" cy="-18" rx="38.19" ry="18"/>
<text text-anchor="middle" x="508" y="-14.3" font-family="FreeSans" font-size="14.00" fill="#33bb33">Signal</text>
</a>
</g>
</g>
<!-- Signal&#45;&gt;Int -->
<g id="edge9" class="edge">
<title>Signal&#45;&gt;Int</title>
<path fill="none" stroke="#000000" d="M489.55,-33.85C476.71,-44.18 459.45,-58.07 445.46,-69.32"/>
<polygon fill="#000000" stroke="#000000" points="443.26,-66.6 437.66,-75.6 447.64,-72.05 443.26,-66.6"/>
</g>
<!-- PromiseStatus -->
<g id="node13" class="node">
<title>PromiseStatus</title>
<g id="a_node13"><a xlink:href="/type/PromiseStatus" xlink:title="PromiseStatus">
<ellipse fill="none" stroke="#33bb33" cx="640" cy="-18" rx="75.29" ry="18"/>
<text text-anchor="middle" x="640" y="-14.3" font-family="FreeSans" font-size="14.00" fill="#33bb33">PromiseStatus</text>
</a>
</g>
</g>
<!-- PromiseStatus&#45;&gt;Int -->
<g id="edge10" class="edge">
<title>PromiseStatus&#45;&gt;Int</title>
<path fill="none" stroke="#000000" d="M596.73,-32.83C554.97,-46.18 492.61,-66.11 454.49,-78.29"/>
<polygon fill="#000000" stroke="#000000" points="453.35,-74.99 444.89,-81.36 455.48,-81.65 453.35,-74.99"/>
</g>
<!-- Stringy -->
<g id="node14" class="node">
<title>Stringy</title>
<g id="a_node14"><a xlink:href="/type/Stringy" xlink:title="Stringy">
<ellipse fill="none" stroke="#6666ff" cx="729" cy="-162" rx="43.59" ry="18"/>
<text text-anchor="middle" x="729" y="-158.3" font-family="FreeSans" font-size="14.00" fill="#6666ff">Stringy</text>
</a>
</g>
</g>
<!-- Str -->
<g id="node15" class="node">
<title>Str</title>
<g id="a_node15"><a xlink:href="/type/Str" xlink:title="Str">
<ellipse fill="none" stroke="#000000" cx="729" cy="-90" rx="27" ry="18"/>
<text text-anchor="middle" x="729" y="-86.3" font-family="FreeSans" font-size="14.00" fill="#000000">Str</text>
</a>
</g>
</g>
<!-- Str&#45;&gt;Cool -->
<g id="edge11" class="edge">
<title>Str&#45;&gt;Cool</title>
<path fill="none" stroke="#000000" d="M708.38,-101.94C686.9,-113.33 653,-131.3 628.24,-144.43"/>
<polygon fill="#000000" stroke="#000000" points="626.44,-141.43 619.24,-149.2 629.72,-147.61 626.44,-141.43"/>
</g>
<!-- Str&#45;&gt;Stringy -->
<g id="edge16" class="edge">
<title>Str&#45;&gt;Stringy</title>
<path fill="none" stroke="#6666ff" d="M729,-108.3C729,-116.02 729,-125.29 729,-133.89"/>
<polygon fill="#6666ff" stroke="#6666ff" points="725.5,-133.9 729,-143.9 732.5,-133.9 725.5,-133.9"/>
</g>
<!-- IntStr -->
<g id="node16" class="node">
<title>IntStr</title>
<g id="a_node16"><a xlink:href="/type/IntStr" xlink:title="IntStr">
<ellipse fill="none" stroke="#000000" cx="770" cy="-18" rx="36.29" ry="18"/>
<text text-anchor="middle" x="770" y="-14.3" font-family="FreeSans" font-size="14.00" fill="#000000">IntStr</text>
</a>
</g>
</g>
<!-- IntStr&#45;&gt;Int -->
<g id="edge12" class="edge">
<title>IntStr&#45;&gt;Int</title>
<path fill="none" stroke="#000000" d="M741.65,-29.48C732.19,-32.97 724,-36 724,-36 724,-36 537.25,-68.67 456.98,-82.71"/>
<polygon fill="#000000" stroke="#000000" points="456.08,-79.31 446.83,-84.48 457.29,-86.21 456.08,-79.31"/>
</g>
<!-- IntStr&#45;&gt;Str -->
<g id="edge13" class="edge">
<title>IntStr&#45;&gt;Str</title>
<path fill="none" stroke="#000000" d="M760.28,-35.59C755.26,-44.17 749.03,-54.81 743.45,-64.33"/>
<polygon fill="#000000" stroke="#000000" points="740.4,-62.61 738.36,-73.01 746.44,-66.15 740.4,-62.61"/>
</g>
</g>
</svg>
