<?xml version="1.0" encoding="UTF-8" standalone="no"?>
<!DOCTYPE svg PUBLIC "-//W3C//DTD SVG 1.1//EN"
 "http://www.w3.org/Graphics/SVG/1.1/DTD/svg11.dtd">
<!-- Generated by graphviz version 2.42.3 (0)
 -->
<!-- Title: perl6&#45;type&#45;graph Pages: 1 -->
<svg width="332pt" height="260pt"
 viewBox="0.00 0.00 331.64 260.00" xmlns="http://www.w3.org/2000/svg" xmlns:xlink="http://www.w3.org/1999/xlink">
<g id="graph0" class="graph" transform="scale(1 1) rotate(0) translate(4 256)">
<title>perl6&#45;type&#45;graph</title>
<polygon fill="white" stroke="transparent" points="-4,4 -4,-256 327.64,-256 327.64,4 -4,4"/>
<!-- Uni -->
<g id="node1" class="node">
<title>Uni</title>
<g id="a_node1"><a xlink:href="/type/Uni" xlink:title="Uni">
<ellipse fill="none" stroke="#000000" cx="165.1" cy="-90" rx="27" ry="18"/>
<text text-anchor="middle" x="165.1" y="-86.3" font-family="FreeSans" font-size="14.00" fill="#000000">Uni</text>
</a>
</g>
</g>
<!-- Any -->
<g id="node3" class="node">
<title>Any</title>
<g id="a_node3"><a xlink:href="/type/Any" xlink:title="Any">
<ellipse fill="none" stroke="#000000" cx="64.1" cy="-162" rx="28.7" ry="18"/>
<text text-anchor="middle" x="64.1" y="-158.3" font-family="FreeSans" font-size="14.00" fill="#000000">Any</text>
</a>
</g>
</g>
<!-- Uni&#45;&gt;Any -->
<g id="edge1" class="edge">
<title>Uni&#45;&gt;Any</title>
<path fill="none" stroke="#000000" d="M147.04,-103.51C131.44,-114.33 108.67,-130.11 90.93,-142.4"/>
<polygon fill="#000000" stroke="#000000" points="88.91,-139.55 82.68,-148.12 92.89,-145.3 88.91,-139.55"/>
</g>
<!-- Positional -->
<g id="node4" class="node">
<title>Positional</title>
<g id="a_node4"><a xlink:href="/type/Positional" xlink:title="Positional">
<ellipse fill="none" stroke="#6666ff" cx="165.1" cy="-162" rx="53.89" ry="18"/>
<text text-anchor="middle" x="165.1" y="-158.3" font-family="FreeSans" font-size="14.00" fill="#6666ff">Positional</text>
</a>
</g>
</g>
<!-- Uni&#45;&gt;Positional -->
<g id="edge7" class="edge">
<title>Uni&#45;&gt;Positional</title>
<path fill="none" stroke="#6666ff" d="M165.1,-108.3C165.1,-116.02 165.1,-125.29 165.1,-133.89"/>
<polygon fill="#6666ff" stroke="#6666ff" points="161.6,-133.9 165.1,-143.9 168.6,-133.9 161.6,-133.9"/>
</g>
<!-- Stringy -->
<g id="node5" class="node">
<title>Stringy</title>
<g id="a_node5"><a xlink:href="/type/Stringy" xlink:title="Stringy">
<ellipse fill="none" stroke="#6666ff" cx="280.1" cy="-162" rx="43.59" ry="18"/>
<text text-anchor="middle" x="280.1" y="-158.3" font-family="FreeSans" font-size="14.00" fill="#6666ff">Stringy</text>
</a>
</g>
</g>
<!-- Uni&#45;&gt;Stringy -->
<g id="edge8" class="edge">
<title>Uni&#45;&gt;Stringy</title>
<path fill="none" stroke="#6666ff" d="M184.35,-102.72C201.61,-113.23 227.3,-128.86 247.72,-141.29"/>
<polygon fill="#6666ff" stroke="#6666ff" points="246.04,-144.37 256.4,-146.58 249.68,-138.39 246.04,-144.37"/>
</g>
<!-- Mu -->
<g id="node2" class="node">
<title>Mu</title>
<g id="a_node2"><a xlink:href="/type/Mu" xlink:title="Mu">
<ellipse fill="none" stroke="#000000" cx="64.1" cy="-234" rx="27" ry="18"/>
<text text-anchor="middle" x="64.1" y="-230.3" font-family="FreeSans" font-size="14.00" fill="#000000">Mu</text>
</a>
</g>
</g>
<!-- Any&#45;&gt;Mu -->
<g id="edge2" class="edge">
<title>Any&#45;&gt;Mu</title>
<path fill="none" stroke="#000000" d="M64.1,-180.3C64.1,-188.02 64.1,-197.29 64.1,-205.89"/>
<polygon fill="#000000" stroke="#000000" points="60.6,-205.9 64.1,-215.9 67.6,-205.9 60.6,-205.9"/>
</g>
<!-- NFKC -->
<g id="node6" class="node">
<title>NFKC</title>
<g id="a_node6"><a xlink:href="/type/NFKC" xlink:title="NFKC">
<ellipse fill="none" stroke="#000000" cx="35.1" cy="-18" rx="35.19" ry="18"/>
<text text-anchor="middle" x="35.1" y="-14.3" font-family="FreeSans" font-size="14.00" fill="#000000">NFKC</text>
</a>
</g>
</g>
<!-- NFKC&#45;&gt;Uni -->
<g id="edge3" class="edge">
<title>NFKC&#45;&gt;Uni</title>
<path fill="none" stroke="#000000" d="M58.34,-31.51C80,-43.18 112.4,-60.62 135.82,-73.23"/>
<polygon fill="#000000" stroke="#000000" points="134.16,-76.32 144.62,-77.98 137.48,-70.15 134.16,-76.32"/>
</g>
<!-- NFKD -->
<g id="node7" class="node">
<title>NFKD</title>
<g id="a_node7"><a xlink:href="/type/NFKD" xlink:title="NFKD">
<ellipse fill="none" stroke="#000000" cx="124.1" cy="-18" rx="36" ry="18"/>
<text text-anchor="middle" x="124.1" y="-14.3" font-family="FreeSans" font-size="14.00" fill="#000000">NFKD</text>
</a>
</g>
</g>
<!-- NFKD&#45;&gt;Uni -->
<g id="edge4" class="edge">
<title>NFKD&#45;&gt;Uni</title>
<path fill="none" stroke="#000000" d="M133.81,-35.59C138.84,-44.17 145.07,-54.81 150.65,-64.33"/>
<polygon fill="#000000" stroke="#000000" points="147.66,-66.15 155.73,-73.01 153.7,-62.61 147.66,-66.15"/>
</g>
<!-- NFC -->
<g id="node8" class="node">
<title>NFC</title>
<g id="a_node8"><a xlink:href="/type/NFC" xlink:title="NFC">
<ellipse fill="none" stroke="#000000" cx="207.1" cy="-18" rx="29.5" ry="18"/>
<text text-anchor="middle" x="207.1" y="-14.3" font-family="FreeSans" font-size="14.00" fill="#000000">NFC</text>
</a>
</g>
</g>
<!-- NFC&#45;&gt;Uni -->
<g id="edge5" class="edge">
<title>NFC&#45;&gt;Uni</title>
<path fill="none" stroke="#000000" d="M197.36,-35.24C192.21,-43.81 185.79,-54.51 180.04,-64.1"/>
<polygon fill="#000000" stroke="#000000" points="176.93,-62.48 174.79,-72.85 182.93,-66.08 176.93,-62.48"/>
</g>
<!-- NFD -->
<g id="node9" class="node">
<title>NFD</title>
<g id="a_node9"><a xlink:href="/type/NFD" xlink:title="NFD">
<ellipse fill="none" stroke="#000000" cx="284.1" cy="-18" rx="29.8" ry="18"/>
<text text-anchor="middle" x="284.1" y="-14.3" font-family="FreeSans" font-size="14.00" fill="#000000">NFD</text>
</a>
</g>
</g>
<!-- NFD&#45;&gt;Uni -->
<g id="edge6" class="edge">
<title>NFD&#45;&gt;Uni</title>
<path fill="none" stroke="#000000" d="M263.37,-31.19C244.02,-42.57 215,-59.65 193.5,-72.29"/>
<polygon fill="#000000" stroke="#000000" points="191.64,-69.32 184.8,-77.41 195.19,-75.36 191.64,-69.32"/>
</g>
</g>
</svg>
