<?xml version="1.0" encoding="UTF-8" standalone="no"?>
<!DOCTYPE svg PUBLIC "-//W3C//DTD SVG 1.1//EN"
 "http://www.w3.org/Graphics/SVG/1.1/DTD/svg11.dtd">
<!-- Generated by graphviz version 2.42.3 (0)
 -->
<!-- Title: perl6&#45;type&#45;graph Pages: 1 -->
<svg width="1880pt" height="260pt"
 viewBox="0.00 0.00 1880.04 260.00" xmlns="http://www.w3.org/2000/svg" xmlns:xlink="http://www.w3.org/1999/xlink">
<g id="graph0" class="graph" transform="scale(1 1) rotate(0) translate(4 256)">
<title>perl6&#45;type&#45;graph</title>
<polygon fill="white" stroke="transparent" points="-4,4 -4,-256 1876.04,-256 1876.04,4 -4,4"/>
<!-- Pod::Block -->
<g id="node1" class="node">
<title>Pod::Block</title>
<g id="a_node1"><a xlink:href="/type/Pod::Block" xlink:title="Pod::Block">
<ellipse fill="none" stroke="#000000" cx="1040.19" cy="-90" rx="57.69" ry="18"/>
<text text-anchor="middle" x="1040.19" y="-86.3" font-family="FreeSans" font-size="14.00" fill="#000000">Pod::Block</text>
</a>
</g>
</g>
<!-- Any -->
<g id="node3" class="node">
<title>Any</title>
<g id="a_node3"><a xlink:href="/type/Any" xlink:title="Any">
<ellipse fill="none" stroke="#000000" cx="1040.19" cy="-162" rx="28.7" ry="18"/>
<text text-anchor="middle" x="1040.19" y="-158.3" font-family="FreeSans" font-size="14.00" fill="#000000">Any</text>
</a>
</g>
</g>
<!-- Pod::Block&#45;&gt;Any -->
<g id="edge1" class="edge">
<title>Pod::Block&#45;&gt;Any</title>
<path fill="none" stroke="#000000" d="M1040.19,-108.3C1040.19,-116.02 1040.19,-125.29 1040.19,-133.89"/>
<polygon fill="#000000" stroke="#000000" points="1036.69,-133.9 1040.19,-143.9 1043.69,-133.9 1036.69,-133.9"/>
</g>
<!-- Mu -->
<g id="node2" class="node">
<title>Mu</title>
<g id="a_node2"><a xlink:href="/type/Mu" xlink:title="Mu">
<ellipse fill="none" stroke="#000000" cx="1040.19" cy="-234" rx="27" ry="18"/>
<text text-anchor="middle" x="1040.19" y="-230.3" font-family="FreeSans" font-size="14.00" fill="#000000">Mu</text>
</a>
</g>
</g>
<!-- Any&#45;&gt;Mu -->
<g id="edge2" class="edge">
<title>Any&#45;&gt;Mu</title>
<path fill="none" stroke="#000000" d="M1040.19,-180.3C1040.19,-188.02 1040.19,-197.29 1040.19,-205.89"/>
<polygon fill="#000000" stroke="#000000" points="1036.69,-205.9 1040.19,-215.9 1043.69,-205.9 1036.69,-205.9"/>
</g>
<!-- Pod::Block::Para -->
<g id="node4" class="node">
<title>Pod::Block::Para</title>
<g id="a_node4"><a xlink:href="/type/Pod::Block::Para" xlink:title="Pod::Block::Para">
<ellipse fill="none" stroke="#000000" cx="83.19" cy="-18" rx="83.39" ry="18"/>
<text text-anchor="middle" x="83.19" y="-14.3" font-family="FreeSans" font-size="14.00" fill="#000000">Pod::Block::Para</text>
</a>
</g>
</g>
<!-- Pod::Block::Para&#45;&gt;Pod::Block -->
<g id="edge3" class="edge">
<title>Pod::Block::Para&#45;&gt;Pod::Block</title>
<path fill="none" stroke="#000000" d="M144.45,-30.2C161.86,-33.38 176.19,-36 176.19,-36 176.19,-36 771.13,-72.5 973.63,-84.92"/>
<polygon fill="#000000" stroke="#000000" points="973.64,-88.42 983.84,-85.54 974.07,-81.44 973.64,-88.42"/>
</g>
<!-- Pod::Block::Declarator -->
<g id="node5" class="node">
<title>Pod::Block::Declarator</title>
<g id="a_node5"><a xlink:href="/type/Pod::Block::Declarator" xlink:title="Pod::Block::Declarator">
<ellipse fill="none" stroke="#000000" cx="295.19" cy="-18" rx="110.48" ry="18"/>
<text text-anchor="middle" x="295.19" y="-14.3" font-family="FreeSans" font-size="14.00" fill="#000000">Pod::Block::Declarator</text>
</a>
</g>
</g>
<!-- Pod::Block::Declarator&#45;&gt;Pod::Block -->
<g id="edge4" class="edge">
<title>Pod::Block::Declarator&#45;&gt;Pod::Block</title>
<path fill="none" stroke="#000000" d="M375.57,-30.39C397.43,-33.48 415.19,-36 415.19,-36 415.19,-36 815.01,-69.9 975.09,-83.48"/>
<polygon fill="#000000" stroke="#000000" points="975.02,-86.99 985.28,-84.34 975.61,-80.01 975.02,-86.99"/>
</g>
<!-- Pod::Block::Comment -->
<g id="node6" class="node">
<title>Pod::Block::Comment</title>
<g id="a_node6"><a xlink:href="/type/Pod::Block::Comment" xlink:title="Pod::Block::Comment">
<ellipse fill="none" stroke="#000000" cx="531.19" cy="-18" rx="107.48" ry="18"/>
<text text-anchor="middle" x="531.19" y="-14.3" font-family="FreeSans" font-size="14.00" fill="#000000">Pod::Block::Comment</text>
</a>
</g>
</g>
<!-- Pod::Block::Comment&#45;&gt;Pod::Block -->
<g id="edge5" class="edge">
<title>Pod::Block::Comment&#45;&gt;Pod::Block</title>
<path fill="none" stroke="#000000" d="M609.21,-30.43C630.19,-33.51 647.19,-36 647.19,-36 647.19,-36 867.15,-65.66 977.96,-80.61"/>
<polygon fill="#000000" stroke="#000000" points="977.63,-84.09 988.01,-81.96 978.56,-77.16 977.63,-84.09"/>
</g>
<!-- Pod::Block::Table -->
<g id="node7" class="node">
<title>Pod::Block::Table</title>
<g id="a_node7"><a xlink:href="/type/Pod::Block::Table" xlink:title="Pod::Block::Table">
<ellipse fill="none" stroke="#000000" cx="743.19" cy="-18" rx="87.18" ry="18"/>
<text text-anchor="middle" x="743.19" y="-14.3" font-family="FreeSans" font-size="14.00" fill="#000000">Pod::Block::Table</text>
</a>
</g>
</g>
<!-- Pod::Block::Table&#45;&gt;Pod::Block -->
<g id="edge6" class="edge">
<title>Pod::Block::Table&#45;&gt;Pod::Block</title>
<path fill="none" stroke="#000000" d="M798.36,-32C851.79,-44.59 932.31,-63.57 985.56,-76.12"/>
<polygon fill="#000000" stroke="#000000" points="984.96,-79.58 995.5,-78.47 986.57,-72.77 984.96,-79.58"/>
</g>
<!-- Pod::Block::Code -->
<g id="node8" class="node">
<title>Pod::Block::Code</title>
<g id="a_node8"><a xlink:href="/type/Pod::Block::Code" xlink:title="Pod::Block::Code">
<ellipse fill="none" stroke="#000000" cx="935.19" cy="-18" rx="86.38" ry="18"/>
<text text-anchor="middle" x="935.19" y="-14.3" font-family="FreeSans" font-size="14.00" fill="#000000">Pod::Block::Code</text>
</a>
</g>
</g>
<!-- Pod::Block::Code&#45;&gt;Pod::Block -->
<g id="edge7" class="edge">
<title>Pod::Block::Code&#45;&gt;Pod::Block</title>
<path fill="none" stroke="#000000" d="M959.81,-35.41C974.34,-45.1 992.87,-57.45 1008.48,-67.86"/>
<polygon fill="#000000" stroke="#000000" points="1006.55,-70.78 1016.81,-73.41 1010.43,-64.95 1006.55,-70.78"/>
</g>
<!-- Pod::FormattingCode -->
<g id="node9" class="node">
<title>Pod::FormattingCode</title>
<g id="a_node9"><a xlink:href="/type/Pod::FormattingCode" xlink:title="Pod::FormattingCode">
<ellipse fill="none" stroke="#000000" cx="1145.19" cy="-18" rx="105.08" ry="18"/>
<text text-anchor="middle" x="1145.19" y="-14.3" font-family="FreeSans" font-size="14.00" fill="#000000">Pod::FormattingCode</text>
</a>
</g>
</g>
<!-- Pod::FormattingCode&#45;&gt;Pod::Block -->
<g id="edge8" class="edge">
<title>Pod::FormattingCode&#45;&gt;Pod::Block</title>
<path fill="none" stroke="#000000" d="M1120.31,-35.59C1105.91,-45.19 1087.64,-57.37 1072.18,-67.67"/>
<polygon fill="#000000" stroke="#000000" points="1069.84,-65.03 1063.46,-73.49 1073.72,-70.85 1069.84,-65.03"/>
</g>
<!-- Pod::Defn -->
<g id="node10" class="node">
<title>Pod::Defn</title>
<g id="a_node10"><a xlink:href="/type/Pod::Defn" xlink:title="Pod::Defn">
<ellipse fill="none" stroke="#000000" cx="1323.19" cy="-18" rx="54.69" ry="18"/>
<text text-anchor="middle" x="1323.19" y="-14.3" font-family="FreeSans" font-size="14.00" fill="#000000">Pod::Defn</text>
</a>
</g>
</g>
<!-- Pod::Defn&#45;&gt;Pod::Block -->
<g id="edge9" class="edge">
<title>Pod::Defn&#45;&gt;Pod::Block</title>
<path fill="none" stroke="#000000" d="M1281.94,-29.96C1269.55,-33.25 1259.19,-36 1259.19,-36 1259.19,-36 1159.46,-60.14 1094.6,-75.83"/>
<polygon fill="#000000" stroke="#000000" points="1093.41,-72.52 1084.51,-78.27 1095.05,-79.32 1093.41,-72.52"/>
</g>
<!-- Pod::Item -->
<g id="node11" class="node">
<title>Pod::Item</title>
<g id="a_node11"><a xlink:href="/type/Pod::Item" xlink:title="Pod::Item">
<ellipse fill="none" stroke="#000000" cx="1450.19" cy="-18" rx="53.89" ry="18"/>
<text text-anchor="middle" x="1450.19" y="-14.3" font-family="FreeSans" font-size="14.00" fill="#000000">Pod::Item</text>
</a>
</g>
</g>
<!-- Pod::Item&#45;&gt;Pod::Block -->
<g id="edge10" class="edge">
<title>Pod::Item&#45;&gt;Pod::Block</title>
<path fill="none" stroke="#000000" d="M1409.58,-29.96C1397.39,-33.25 1387.19,-36 1387.19,-36 1387.19,-36 1200.45,-64.52 1100.95,-79.72"/>
<polygon fill="#000000" stroke="#000000" points="1100.38,-76.27 1091.02,-81.24 1101.43,-83.19 1100.38,-76.27"/>
</g>
<!-- Pod::Block::Named -->
<g id="node12" class="node">
<title>Pod::Block::Named</title>
<g id="a_node12"><a xlink:href="/type/Pod::Block::Named" xlink:title="Pod::Block::Named">
<ellipse fill="none" stroke="#000000" cx="1617.19" cy="-18" rx="95.58" ry="18"/>
<text text-anchor="middle" x="1617.19" y="-14.3" font-family="FreeSans" font-size="14.00" fill="#000000">Pod::Block::Named</text>
</a>
</g>
</g>
<!-- Pod::Block::Named&#45;&gt;Pod::Block -->
<g id="edge11" class="edge">
<title>Pod::Block::Named&#45;&gt;Pod::Block</title>
<path fill="none" stroke="#000000" d="M1547.53,-30.39C1528.59,-33.48 1513.19,-36 1513.19,-36 1513.19,-36 1232.64,-67.44 1103.67,-81.89"/>
<polygon fill="#000000" stroke="#000000" points="1103.08,-78.43 1093.53,-83.02 1103.86,-85.39 1103.08,-78.43"/>
</g>
<!-- Pod::Heading -->
<g id="node13" class="node">
<title>Pod::Heading</title>
<g id="a_node13"><a xlink:href="/type/Pod::Heading" xlink:title="Pod::Heading">
<ellipse fill="none" stroke="#000000" cx="1801.19" cy="-18" rx="70.69" ry="18"/>
<text text-anchor="middle" x="1801.19" y="-14.3" font-family="FreeSans" font-size="14.00" fill="#000000">Pod::Heading</text>
</a>
</g>
</g>
<!-- Pod::Heading&#45;&gt;Pod::Block -->
<g id="edge12" class="edge">
<title>Pod::Heading&#45;&gt;Pod::Block</title>
<path fill="none" stroke="#000000" d="M1748.94,-30.24C1734.25,-33.41 1722.19,-36 1722.19,-36 1722.19,-36 1276.72,-70.62 1105.84,-83.9"/>
<polygon fill="#000000" stroke="#000000" points="1105.41,-80.42 1095.71,-84.69 1105.96,-87.4 1105.41,-80.42"/>
</g>
</g>
</svg>
