<?xml version="1.0" encoding="UTF-8" standalone="no"?>
<!DOCTYPE svg PUBLIC "-//W3C//DTD SVG 1.1//EN"
 "http://www.w3.org/Graphics/SVG/1.1/DTD/svg11.dtd">
<!-- Generated by graphviz version 2.42.3 (0)
 -->
<!-- Title: perl6&#45;type&#45;graph Pages: 1 -->
<svg width="204pt" height="260pt"
 viewBox="0.00 0.00 203.74 260.00" xmlns="http://www.w3.org/2000/svg" xmlns:xlink="http://www.w3.org/1999/xlink">
<g id="graph0" class="graph" transform="scale(1 1) rotate(0) translate(4 256)">
<title>perl6&#45;type&#45;graph</title>
<polygon fill="white" stroke="transparent" points="-4,4 -4,-256 199.74,-256 199.74,4 -4,4"/>
<!-- Set -->
<g id="node1" class="node">
<title>Set</title>
<g id="a_node1"><a xlink:href="/type/Set" xlink:title="Set">
<ellipse fill="none" stroke="#000000" cx="80" cy="-18" rx="27" ry="18"/>
<text text-anchor="middle" x="80" y="-14.3" font-family="FreeSans" font-size="14.00" fill="#000000">Set</text>
</a>
</g>
</g>
<!-- Any -->
<g id="node3" class="node">
<title>Any</title>
<g id="a_node3"><a xlink:href="/type/Any" xlink:title="Any">
<ellipse fill="none" stroke="#000000" cx="40" cy="-90" rx="28.7" ry="18"/>
<text text-anchor="middle" x="40" y="-86.3" font-family="FreeSans" font-size="14.00" fill="#000000">Any</text>
</a>
</g>
</g>
<!-- Set&#45;&gt;Any -->
<g id="edge1" class="edge">
<title>Set&#45;&gt;Any</title>
<path fill="none" stroke="#000000" d="M70.72,-35.24C65.83,-43.81 59.71,-54.51 54.23,-64.1"/>
<polygon fill="#000000" stroke="#000000" points="51.15,-62.43 49.23,-72.85 57.23,-65.91 51.15,-62.43"/>
</g>
<!-- Setty -->
<g id="node6" class="node">
<title>Setty</title>
<g id="a_node6"><a xlink:href="/type/Setty" xlink:title="Setty">
<ellipse fill="none" stroke="#6666ff" cx="127" cy="-90" rx="34.39" ry="18"/>
<text text-anchor="middle" x="127" y="-86.3" font-family="FreeSans" font-size="14.00" fill="#6666ff">Setty</text>
</a>
</g>
</g>
<!-- Set&#45;&gt;Setty -->
<g id="edge3" class="edge">
<title>Set&#45;&gt;Setty</title>
<path fill="none" stroke="#6666ff" d="M90.67,-34.88C96.47,-43.53 103.79,-54.42 110.33,-64.17"/>
<polygon fill="#6666ff" stroke="#6666ff" points="107.57,-66.34 116.05,-72.69 113.38,-62.44 107.57,-66.34"/>
</g>
<!-- Mu -->
<g id="node2" class="node">
<title>Mu</title>
<g id="a_node2"><a xlink:href="/type/Mu" xlink:title="Mu">
<ellipse fill="none" stroke="#000000" cx="27" cy="-162" rx="27" ry="18"/>
<text text-anchor="middle" x="27" y="-158.3" font-family="FreeSans" font-size="14.00" fill="#000000">Mu</text>
</a>
</g>
</g>
<!-- Any&#45;&gt;Mu -->
<g id="edge2" class="edge">
<title>Any&#45;&gt;Mu</title>
<path fill="none" stroke="#000000" d="M36.85,-107.95C35.42,-115.65 33.69,-124.97 32.08,-133.64"/>
<polygon fill="#000000" stroke="#000000" points="28.59,-133.25 30.21,-143.72 35.48,-134.53 28.59,-133.25"/>
</g>
<!-- Associative -->
<g id="node4" class="node">
<title>Associative</title>
<g id="a_node4"><a xlink:href="/type/Associative" xlink:title="Associative">
<ellipse fill="none" stroke="#6666ff" cx="134" cy="-234" rx="61.99" ry="18"/>
<text text-anchor="middle" x="134" y="-230.3" font-family="FreeSans" font-size="14.00" fill="#6666ff">Associative</text>
</a>
</g>
</g>
<!-- QuantHash -->
<g id="node5" class="node">
<title>QuantHash</title>
<g id="a_node5"><a xlink:href="/type/QuantHash" xlink:title="QuantHash">
<ellipse fill="none" stroke="#6666ff" cx="134" cy="-162" rx="61.99" ry="18"/>
<text text-anchor="middle" x="134" y="-158.3" font-family="FreeSans" font-size="14.00" fill="#6666ff">QuantHash</text>
</a>
</g>
</g>
<!-- QuantHash&#45;&gt;Associative -->
<g id="edge4" class="edge">
<title>QuantHash&#45;&gt;Associative</title>
<path fill="none" stroke="#6666ff" d="M134,-180.3C134,-188.02 134,-197.29 134,-205.89"/>
<polygon fill="#6666ff" stroke="#6666ff" points="130.5,-205.9 134,-215.9 137.5,-205.9 130.5,-205.9"/>
</g>
<!-- Setty&#45;&gt;QuantHash -->
<g id="edge5" class="edge">
<title>Setty&#45;&gt;QuantHash</title>
<path fill="none" stroke="#6666ff" d="M128.73,-108.3C129.5,-116.02 130.43,-125.29 131.29,-133.89"/>
<polygon fill="#6666ff" stroke="#6666ff" points="127.81,-134.29 132.29,-143.9 134.78,-133.6 127.81,-134.29"/>
</g>
</g>
</svg>
