<?xml version="1.0" encoding="UTF-8" standalone="no"?>
<!DOCTYPE svg PUBLIC "-//W3C//DTD SVG 1.1//EN"
 "http://www.w3.org/Graphics/SVG/1.1/DTD/svg11.dtd">
<!-- Generated by graphviz version 2.42.3 (0)
 -->
<!-- Title: perl6&#45;type&#45;graph Pages: 1 -->
<svg width="1012pt" height="110pt"
 viewBox="0.00 0.00 1011.93 110.29" xmlns="http://www.w3.org/2000/svg" xmlns:xlink="http://www.w3.org/1999/xlink">
<g id="graph0" class="graph" transform="scale(1 1) rotate(0) translate(4 106.29)">
<title>perl6&#45;type&#45;graph</title>
<polygon fill="white" stroke="transparent" points="-4,4 -4,-106.29 1007.93,-106.29 1007.93,4 -4,4"/>
<!-- Metamodel::MultiDispatcher -->
<g id="node1" class="node">
<title>Metamodel::MultiDispatcher</title>
<g id="a_node1"><a xlink:href="/type/Metamodel::MultiDispatcher" xlink:title="Metamodel::MultiDispatcher">
<ellipse fill="none" stroke="#000000" cx="137.14" cy="-71.98" rx="137.28" ry="18"/>
<text text-anchor="middle" x="137.14" y="-68.28" font-family="FreeSans" font-size="14.00" fill="#000000">Metamodel::MultiDispatcher</text>
</a>
</g>
</g>
<!-- Metamodel::BaseDispatcher -->
<g id="node4" class="node">
<title>Metamodel::BaseDispatcher</title>
<g id="a_node4"><a xlink:href="/type/Metamodel::BaseDispatcher" xlink:title="Metamodel::BaseDispatcher">
<ellipse fill="none" stroke="#000000" cx="419.44" cy="-84.29" rx="137.28" ry="18"/>
<text text-anchor="middle" x="419.44" y="-80.59" font-family="FreeSans" font-size="14.00" fill="#000000">Metamodel::BaseDispatcher</text>
</a>
</g>
</g>
<!-- Metamodel::MultiDispatcher&#45;&gt;Metamodel::BaseDispatcher -->
<g id="edge1" class="edge">
<title>Metamodel::MultiDispatcher&#45;&gt;Metamodel::BaseDispatcher</title>
<path fill="none" stroke="#000000" d="M267.55,-77.67C271.38,-77.84 275.23,-78 279.08,-78.17"/>
<polygon fill="#000000" stroke="#000000" points="279.11,-81.68 289.25,-78.61 279.42,-74.68 279.11,-81.68"/>
</g>
<!-- Mu -->
<g id="node2" class="node">
<title>Mu</title>
<g id="a_node2"><a xlink:href="/type/Mu" xlink:title="Mu">
<ellipse fill="none" stroke="#000000" cx="976.93" cy="-18" rx="27" ry="18"/>
<text text-anchor="middle" x="976.93" y="-14.3" font-family="FreeSans" font-size="14.00" fill="#000000">Mu</text>
</a>
</g>
</g>
<!-- Any -->
<g id="node3" class="node">
<title>Any</title>
<g id="a_node3"><a xlink:href="/type/Any" xlink:title="Any">
<ellipse fill="none" stroke="#000000" cx="694.68" cy="-18.41" rx="28.7" ry="18"/>
<text text-anchor="middle" x="694.68" y="-14.71" font-family="FreeSans" font-size="14.00" fill="#000000">Any</text>
</a>
</g>
</g>
<!-- Any&#45;&gt;Mu -->
<g id="edge2" class="edge">
<title>Any&#45;&gt;Mu</title>
<path fill="none" stroke="#000000" d="M723.3,-18.37C774.75,-18.29 882.83,-18.14 939.87,-18.05"/>
<polygon fill="#000000" stroke="#000000" points="939.91,-21.55 949.9,-18.04 939.9,-14.55 939.91,-21.55"/>
</g>
<!-- Metamodel::BaseDispatcher&#45;&gt;Any -->
<g id="edge3" class="edge">
<title>Metamodel::BaseDispatcher&#45;&gt;Any</title>
<path fill="none" stroke="#000000" d="M485.72,-68.43C539.76,-55.49 614.1,-37.7 658,-27.19"/>
<polygon fill="#000000" stroke="#000000" points="659.03,-30.54 667.94,-24.81 657.4,-23.73 659.03,-30.54"/>
</g>
</g>
</svg>
