<?xml version="1.0" encoding="UTF-8" standalone="no"?>
<!DOCTYPE svg PUBLIC "-//W3C//DTD SVG 1.1//EN"
 "http://www.w3.org/Graphics/SVG/1.1/DTD/svg11.dtd">
<!-- Generated by graphviz version 2.42.3 (0)
 -->
<!-- Title: perl6&#45;type&#45;graph Pages: 1 -->
<svg width="384pt" height="332pt"
 viewBox="0.00 0.00 384.08 332.00" xmlns="http://www.w3.org/2000/svg" xmlns:xlink="http://www.w3.org/1999/xlink">
<g id="graph0" class="graph" transform="scale(1 1) rotate(0) translate(4 328)">
<title>perl6&#45;type&#45;graph</title>
<polygon fill="white" stroke="transparent" points="-4,4 -4,-328 380.08,-328 380.08,4 -4,4"/>
<!-- X::Trait::NotOnNative -->
<g id="node1" class="node">
<title>X::Trait::NotOnNative</title>
<g id="a_node1"><a xlink:href="/type/X::Trait::NotOnNative" xlink:title="X::Trait::NotOnNative">
<ellipse fill="none" stroke="#000000" cx="105.29" cy="-90" rx="105.08" ry="18"/>
<text text-anchor="middle" x="105.29" y="-86.3" font-family="FreeSans" font-size="14.00" fill="#000000">X::Trait::NotOnNative</text>
</a>
</g>
</g>
<!-- Exception -->
<g id="node4" class="node">
<title>Exception</title>
<g id="a_node4"><a xlink:href="/type/Exception" xlink:title="Exception">
<ellipse fill="none" stroke="#000000" cx="238.29" cy="-162" rx="55.49" ry="18"/>
<text text-anchor="middle" x="238.29" y="-158.3" font-family="FreeSans" font-size="14.00" fill="#000000">Exception</text>
</a>
</g>
</g>
<!-- X::Trait::NotOnNative&#45;&gt;Exception -->
<g id="edge1" class="edge">
<title>X::Trait::NotOnNative&#45;&gt;Exception</title>
<path fill="none" stroke="#000000" d="M136.14,-107.24C155.57,-117.46 180.77,-130.72 201.27,-141.52"/>
<polygon fill="#000000" stroke="#000000" points="199.85,-144.72 210.33,-146.28 203.11,-138.53 199.85,-144.72"/>
</g>
<!-- Mu -->
<g id="node2" class="node">
<title>Mu</title>
<g id="a_node2"><a xlink:href="/type/Mu" xlink:title="Mu">
<ellipse fill="none" stroke="#000000" cx="238.29" cy="-306" rx="27" ry="18"/>
<text text-anchor="middle" x="238.29" y="-302.3" font-family="FreeSans" font-size="14.00" fill="#000000">Mu</text>
</a>
</g>
</g>
<!-- Any -->
<g id="node3" class="node">
<title>Any</title>
<g id="a_node3"><a xlink:href="/type/Any" xlink:title="Any">
<ellipse fill="none" stroke="#000000" cx="238.29" cy="-234" rx="28.7" ry="18"/>
<text text-anchor="middle" x="238.29" y="-230.3" font-family="FreeSans" font-size="14.00" fill="#000000">Any</text>
</a>
</g>
</g>
<!-- Any&#45;&gt;Mu -->
<g id="edge2" class="edge">
<title>Any&#45;&gt;Mu</title>
<path fill="none" stroke="#000000" d="M238.29,-252.3C238.29,-260.02 238.29,-269.29 238.29,-277.89"/>
<polygon fill="#000000" stroke="#000000" points="234.79,-277.9 238.29,-287.9 241.79,-277.9 234.79,-277.9"/>
</g>
<!-- Exception&#45;&gt;Any -->
<g id="edge3" class="edge">
<title>Exception&#45;&gt;Any</title>
<path fill="none" stroke="#000000" d="M238.29,-180.3C238.29,-188.02 238.29,-197.29 238.29,-205.89"/>
<polygon fill="#000000" stroke="#000000" points="234.79,-205.9 238.29,-215.9 241.79,-205.9 234.79,-205.9"/>
</g>
<!-- X::Comp -->
<g id="node5" class="node">
<title>X::Comp</title>
<g id="a_node5"><a xlink:href="/type/X::Comp" xlink:title="X::Comp">
<ellipse fill="none" stroke="#6666ff" cx="315.29" cy="-90" rx="49.29" ry="18"/>
<text text-anchor="middle" x="315.29" y="-86.3" font-family="FreeSans" font-size="14.00" fill="#6666ff">X::Comp</text>
</a>
</g>
</g>
<!-- X::Comp&#45;&gt;Exception -->
<g id="edge4" class="edge">
<title>X::Comp&#45;&gt;Exception</title>
<path fill="none" stroke="#000000" d="M297.82,-106.88C287.65,-116.13 274.66,-127.93 263.41,-138.16"/>
<polygon fill="#000000" stroke="#000000" points="261.01,-135.62 255.96,-144.94 265.71,-140.8 261.01,-135.62"/>
</g>
<!-- X::Comp::Trait::NotOnNative -->
<g id="node6" class="node">
<title>X::Comp::Trait::NotOnNative</title>
<g id="a_node6"><a xlink:href="/type/X::Comp::Trait::NotOnNative" xlink:title="X::Comp::Trait::NotOnNative">
<ellipse fill="none" stroke="#000000" cx="238.29" cy="-18" rx="137.58" ry="18"/>
<text text-anchor="middle" x="238.29" y="-14.3" font-family="FreeSans" font-size="14.00" fill="#000000">X::Comp::Trait::NotOnNative</text>
</a>
</g>
</g>
<!-- X::Comp::Trait::NotOnNative&#45;&gt;X::Trait::NotOnNative -->
<g id="edge5" class="edge">
<title>X::Comp::Trait::NotOnNative&#45;&gt;X::Trait::NotOnNative</title>
<path fill="none" stroke="#000000" d="M206.77,-35.59C188.34,-45.29 164.89,-57.63 145.17,-68.01"/>
<polygon fill="#000000" stroke="#000000" points="143.34,-65.02 136.12,-72.77 146.6,-71.21 143.34,-65.02"/>
</g>
<!-- X::Comp::Trait::NotOnNative&#45;&gt;Exception -->
<g id="edge6" class="edge">
<title>X::Comp::Trait::NotOnNative&#45;&gt;Exception</title>
<path fill="none" stroke="#000000" d="M238.29,-36.13C238.29,-60.33 238.29,-104.79 238.29,-133.61"/>
<polygon fill="#000000" stroke="#000000" points="234.79,-133.81 238.29,-143.81 241.79,-133.81 234.79,-133.81"/>
</g>
<!-- X::Comp::Trait::NotOnNative&#45;&gt;X::Comp -->
<g id="edge7" class="edge">
<title>X::Comp::Trait::NotOnNative&#45;&gt;X::Comp</title>
<path fill="none" stroke="#6666ff" d="M256.93,-35.95C266.89,-45 279.28,-56.27 290.09,-66.09"/>
<polygon fill="#6666ff" stroke="#6666ff" points="287.86,-68.8 297.62,-72.93 292.57,-63.62 287.86,-68.8"/>
</g>
</g>
</svg>
