<?xml version="1.0" encoding="UTF-8" standalone="no"?>
<!DOCTYPE svg PUBLIC "-//W3C//DTD SVG 1.1//EN"
 "http://www.w3.org/Graphics/SVG/1.1/DTD/svg11.dtd">
<!-- Generated by graphviz version 2.42.3 (0)
 -->
<!-- Title: perl6&#45;type&#45;graph Pages: 1 -->
<svg width="777pt" height="718pt"
 viewBox="0.00 0.00 777.21 718.15" xmlns="http://www.w3.org/2000/svg" xmlns:xlink="http://www.w3.org/1999/xlink">
<g id="graph0" class="graph" transform="scale(1 1) rotate(0) translate(4 714.15)">
<title>perl6&#45;type&#45;graph</title>
<polygon fill="white" stroke="transparent" points="-4,4 -4,-714.15 773.21,-714.15 773.21,4 -4,4"/>
<!-- Metamodel::MethodDelegation -->
<g id="node1" class="node">
<title>Metamodel::MethodDelegation</title>
<g id="a_node1"><a xlink:href="/type/Metamodel::MethodDelegation" xlink:title="Metamodel::MethodDelegation">
<ellipse fill="none" stroke="#6666ff" cx="148.19" cy="-386.44" rx="148.37" ry="18"/>
<text text-anchor="middle" x="148.19" y="-382.74" font-family="FreeSans" font-size="14.00" fill="#6666ff">Metamodel::MethodDelegation</text>
</a>
</g>
</g>
<!-- Mu -->
<g id="node2" class="node">
<title>Mu</title>
<g id="a_node2"><a xlink:href="/type/Mu" xlink:title="Mu">
<ellipse fill="none" stroke="#000000" cx="664.85" cy="-18" rx="27" ry="18"/>
<text text-anchor="middle" x="664.85" y="-14.3" font-family="FreeSans" font-size="14.00" fill="#000000">Mu</text>
</a>
</g>
</g>
<!-- Any -->
<g id="node3" class="node">
<title>Any</title>
<g id="a_node3"><a xlink:href="/type/Any" xlink:title="Any">
<ellipse fill="none" stroke="#000000" cx="516.39" cy="-216.83" rx="28.7" ry="18"/>
<text text-anchor="middle" x="516.39" y="-213.13" font-family="FreeSans" font-size="14.00" fill="#000000">Any</text>
</a>
</g>
</g>
<!-- Any&#45;&gt;Mu -->
<g id="edge1" class="edge">
<title>Any&#45;&gt;Mu</title>
<path fill="none" stroke="#000000" d="M528.79,-200.22C555.01,-165.1 616.17,-83.2 646.76,-42.23"/>
<polygon fill="#000000" stroke="#000000" points="649.62,-44.25 652.8,-34.15 644.01,-40.06 649.62,-44.25"/>
</g>
<!-- Metamodel::Naming -->
<g id="node4" class="node">
<title>Metamodel::Naming</title>
<g id="a_node4"><a xlink:href="/type/Metamodel::Naming" xlink:title="Metamodel::Naming">
<ellipse fill="none" stroke="#6666ff" cx="357.42" cy="-692.15" rx="101.28" ry="18"/>
<text text-anchor="middle" x="357.42" y="-688.45" font-family="FreeSans" font-size="14.00" fill="#6666ff">Metamodel::Naming</text>
</a>
</g>
</g>
<!-- Metamodel::Documenting -->
<g id="node5" class="node">
<title>Metamodel::Documenting</title>
<g id="a_node5"><a xlink:href="/type/Metamodel::Documenting" xlink:title="Metamodel::Documenting">
<ellipse fill="none" stroke="#6666ff" cx="544.92" cy="-648.15" rx="126.98" ry="18"/>
<text text-anchor="middle" x="544.92" y="-644.45" font-family="FreeSans" font-size="14.00" fill="#6666ff">Metamodel::Documenting</text>
</a>
</g>
</g>
<!-- Metamodel::Versioning -->
<g id="node6" class="node">
<title>Metamodel::Versioning</title>
<g id="a_node6"><a xlink:href="/type/Metamodel::Versioning" xlink:title="Metamodel::Versioning">
<ellipse fill="none" stroke="#6666ff" cx="116.22" cy="-630.77" rx="114.28" ry="18"/>
<text text-anchor="middle" x="116.22" y="-627.07" font-family="FreeSans" font-size="14.00" fill="#6666ff">Metamodel::Versioning</text>
</a>
</g>
</g>
<!-- Metamodel::Stashing -->
<g id="node7" class="node">
<title>Metamodel::Stashing</title>
<g id="a_node7"><a xlink:href="/type/Metamodel::Stashing" xlink:title="Metamodel::Stashing">
<ellipse fill="none" stroke="#6666ff" cx="257.78" cy="-232.84" rx="105.88" ry="18"/>
<text text-anchor="middle" x="257.78" y="-229.14" font-family="FreeSans" font-size="14.00" fill="#6666ff">Metamodel::Stashing</text>
</a>
</g>
</g>
<!-- Metamodel::TypePretense -->
<g id="node8" class="node">
<title>Metamodel::TypePretense</title>
<g id="a_node8"><a xlink:href="/type/Metamodel::TypePretense" xlink:title="Metamodel::TypePretense">
<ellipse fill="none" stroke="#6666ff" cx="643.12" cy="-475.96" rx="126.18" ry="18"/>
<text text-anchor="middle" x="643.12" y="-472.26" font-family="FreeSans" font-size="14.00" fill="#6666ff">Metamodel::TypePretense</text>
</a>
</g>
</g>
<!-- Metamodel::ModuleHOW -->
<g id="node9" class="node">
<title>Metamodel::ModuleHOW</title>
<g id="a_node9"><a xlink:href="/type/Metamodel::ModuleHOW" xlink:title="Metamodel::ModuleHOW">
<ellipse fill="none" stroke="#000000" cx="355.82" cy="-469.74" rx="122.38" ry="18"/>
<text text-anchor="middle" x="355.82" y="-466.04" font-family="FreeSans" font-size="14.00" fill="#000000">Metamodel::ModuleHOW</text>
</a>
</g>
</g>
<!-- Metamodel::ModuleHOW&#45;&gt;Metamodel::MethodDelegation -->
<g id="edge9" class="edge">
<title>Metamodel::ModuleHOW&#45;&gt;Metamodel::MethodDelegation</title>
<path fill="none" stroke="#6666ff" d="M313.55,-452.78C281.04,-439.74 235.92,-421.63 201.02,-407.63"/>
<polygon fill="#6666ff" stroke="#6666ff" points="202.05,-404.27 191.47,-403.8 199.44,-410.77 202.05,-404.27"/>
</g>
<!-- Metamodel::ModuleHOW&#45;&gt;Any -->
<g id="edge2" class="edge">
<title>Metamodel::ModuleHOW&#45;&gt;Any</title>
<path fill="none" stroke="#000000" d="M340.52,-451.75C326.63,-435.42 308.3,-413.86 308.3,-413.86 308.3,-413.86 438.55,-290.53 492.96,-239.02"/>
<polygon fill="#000000" stroke="#000000" points="495.55,-241.38 500.41,-231.96 490.74,-236.3 495.55,-241.38"/>
</g>
<!-- Metamodel::ModuleHOW&#45;&gt;Metamodel::Naming -->
<g id="edge4" class="edge">
<title>Metamodel::ModuleHOW&#45;&gt;Metamodel::Naming</title>
<path fill="none" stroke="#6666ff" d="M355.95,-487.94C356.23,-526.65 356.88,-617.38 357.22,-663.76"/>
<polygon fill="#6666ff" stroke="#6666ff" points="353.72,-664.04 357.29,-674.01 360.72,-663.99 353.72,-664.04"/>
</g>
<!-- Metamodel::ModuleHOW&#45;&gt;Metamodel::Documenting -->
<g id="edge5" class="edge">
<title>Metamodel::ModuleHOW&#45;&gt;Metamodel::Documenting</title>
<path fill="none" stroke="#6666ff" d="M374.99,-487.83C408.92,-519.83 479.58,-586.5 518.24,-622.98"/>
<polygon fill="#6666ff" stroke="#6666ff" points="516.3,-625.96 525.98,-630.28 521.11,-620.87 516.3,-625.96"/>
</g>
<!-- Metamodel::ModuleHOW&#45;&gt;Metamodel::Versioning -->
<g id="edge6" class="edge">
<title>Metamodel::ModuleHOW&#45;&gt;Metamodel::Versioning</title>
<path fill="none" stroke="#6666ff" d="M329.26,-487.59C285.79,-516.8 199.45,-574.83 151.1,-607.33"/>
<polygon fill="#6666ff" stroke="#6666ff" points="148.88,-604.61 142.53,-613.09 152.79,-610.42 148.88,-604.61"/>
</g>
<!-- Metamodel::ModuleHOW&#45;&gt;Metamodel::Stashing -->
<g id="edge7" class="edge">
<title>Metamodel::ModuleHOW&#45;&gt;Metamodel::Stashing</title>
<path fill="none" stroke="#6666ff" d="M340.52,-451.75C326.63,-435.42 308.3,-413.86 308.3,-413.86 308.3,-413.86 279.67,-311.27 265.51,-260.55"/>
<polygon fill="#6666ff" stroke="#6666ff" points="268.87,-259.55 262.81,-250.86 262.13,-261.43 268.87,-259.55"/>
</g>
<!-- Metamodel::ModuleHOW&#45;&gt;Metamodel::TypePretense -->
<g id="edge8" class="edge">
<title>Metamodel::ModuleHOW&#45;&gt;Metamodel::TypePretense</title>
<path fill="none" stroke="#6666ff" d="M476.83,-472.36C487.06,-472.58 497.46,-472.8 507.79,-473.03"/>
<polygon fill="#6666ff" stroke="#6666ff" points="508.03,-476.53 518.1,-473.25 508.18,-469.53 508.03,-476.53"/>
</g>
<!-- Metamodel::PackageHOW -->
<g id="node10" class="node">
<title>Metamodel::PackageHOW</title>
<g id="a_node10"><a xlink:href="/type/Metamodel::PackageHOW" xlink:title="Metamodel::PackageHOW">
<ellipse fill="none" stroke="#000000" cx="436.63" cy="-414.04" rx="126.98" ry="18"/>
<text text-anchor="middle" x="436.63" y="-410.34" font-family="FreeSans" font-size="14.00" fill="#000000">Metamodel::PackageHOW</text>
</a>
</g>
</g>
<!-- Metamodel::PackageHOW&#45;&gt;Metamodel::MethodDelegation -->
<g id="edge14" class="edge">
<title>Metamodel::PackageHOW&#45;&gt;Metamodel::MethodDelegation</title>
<path fill="none" stroke="#6666ff" d="M331.27,-403.96C312.99,-402.21 293.81,-400.37 275.03,-398.57"/>
<polygon fill="#6666ff" stroke="#6666ff" points="275.24,-395.08 264.95,-397.61 274.57,-402.05 275.24,-395.08"/>
</g>
<!-- Metamodel::PackageHOW&#45;&gt;Any -->
<g id="edge3" class="edge">
<title>Metamodel::PackageHOW&#45;&gt;Any</title>
<path fill="none" stroke="#000000" d="M443.99,-395.84C458.1,-360.95 489.01,-284.53 505.51,-243.74"/>
<polygon fill="#000000" stroke="#000000" points="508.77,-245 509.28,-234.42 502.28,-242.38 508.77,-245"/>
</g>
<!-- Metamodel::PackageHOW&#45;&gt;Metamodel::Naming -->
<g id="edge10" class="edge">
<title>Metamodel::PackageHOW&#45;&gt;Metamodel::Naming</title>
<path fill="none" stroke="#6666ff" d="M450.47,-431.99C463.03,-448.3 479.61,-469.82 479.61,-469.82 479.61,-469.82 404.82,-605.91 372.26,-665.15"/>
<polygon fill="#6666ff" stroke="#6666ff" points="369.17,-663.51 367.42,-673.96 375.3,-666.88 369.17,-663.51"/>
</g>
<!-- Metamodel::PackageHOW&#45;&gt;Metamodel::Documenting -->
<g id="edge11" class="edge">
<title>Metamodel::PackageHOW&#45;&gt;Metamodel::Documenting</title>
<path fill="none" stroke="#6666ff" d="M450.47,-431.99C463.03,-448.3 479.61,-469.82 479.61,-469.82 479.61,-469.82 516.44,-570.4 534.79,-620.49"/>
<polygon fill="#6666ff" stroke="#6666ff" points="531.57,-621.88 538.3,-630.07 538.15,-619.48 531.57,-621.88"/>
</g>
<!-- Metamodel::PackageHOW&#45;&gt;Metamodel::Stashing -->
<g id="edge12" class="edge">
<title>Metamodel::PackageHOW&#45;&gt;Metamodel::Stashing</title>
<path fill="none" stroke="#6666ff" d="M418.83,-396C386.82,-363.58 319.49,-295.36 282.84,-258.23"/>
<polygon fill="#6666ff" stroke="#6666ff" points="285.03,-255.46 275.51,-250.8 280.05,-260.38 285.03,-255.46"/>
</g>
<!-- Metamodel::PackageHOW&#45;&gt;Metamodel::TypePretense -->
<g id="edge13" class="edge">
<title>Metamodel::PackageHOW&#45;&gt;Metamodel::TypePretense</title>
<path fill="none" stroke="#6666ff" d="M490.88,-430.31C517.93,-438.41 550.81,-448.27 579.08,-456.75"/>
<polygon fill="#6666ff" stroke="#6666ff" points="578.29,-460.17 588.87,-459.69 580.3,-453.46 578.29,-460.17"/>
</g>
</g>
</svg>
