<?xml version="1.0" encoding="UTF-8" standalone="no"?>
<!DOCTYPE svg PUBLIC "-//W3C//DTD SVG 1.1//EN"
 "http://www.w3.org/Graphics/SVG/1.1/DTD/svg11.dtd">
<!-- Generated by graphviz version 2.42.3 (0)
 -->
<!-- Title: perl6&#45;type&#45;graph Pages: 1 -->
<svg width="92pt" height="188pt"
 viewBox="0.00 0.00 92.49 188.00" xmlns="http://www.w3.org/2000/svg" xmlns:xlink="http://www.w3.org/1999/xlink">
<g id="graph0" class="graph" transform="scale(1 1) rotate(0) translate(4 184)">
<title>perl6&#45;type&#45;graph</title>
<polygon fill="white" stroke="transparent" points="-4,4 -4,-184 88.49,-184 88.49,4 -4,4"/>
<!-- Thread -->
<g id="node1" class="node">
<title>Thread</title>
<g id="a_node1"><a xlink:href="/type/Thread" xlink:title="Thread">
<ellipse fill="none" stroke="#000000" cx="42.25" cy="-18" rx="42.49" ry="18"/>
<text text-anchor="middle" x="42.25" y="-14.3" font-family="FreeSans" font-size="14.00" fill="#000000">Thread</text>
</a>
</g>
</g>
<!-- Any -->
<g id="node3" class="node">
<title>Any</title>
<g id="a_node3"><a xlink:href="/type/Any" xlink:title="Any">
<ellipse fill="none" stroke="#000000" cx="42.25" cy="-90" rx="28.7" ry="18"/>
<text text-anchor="middle" x="42.25" y="-86.3" font-family="FreeSans" font-size="14.00" fill="#000000">Any</text>
</a>
</g>
</g>
<!-- Thread&#45;&gt;Any -->
<g id="edge1" class="edge">
<title>Thread&#45;&gt;Any</title>
<path fill="none" stroke="#000000" d="M42.25,-36.3C42.25,-44.02 42.25,-53.29 42.25,-61.89"/>
<polygon fill="#000000" stroke="#000000" points="38.75,-61.9 42.25,-71.9 45.75,-61.9 38.75,-61.9"/>
</g>
<!-- Mu -->
<g id="node2" class="node">
<title>Mu</title>
<g id="a_node2"><a xlink:href="/type/Mu" xlink:title="Mu">
<ellipse fill="none" stroke="#000000" cx="42.25" cy="-162" rx="27" ry="18"/>
<text text-anchor="middle" x="42.25" y="-158.3" font-family="FreeSans" font-size="14.00" fill="#000000">Mu</text>
</a>
</g>
</g>
<!-- Any&#45;&gt;Mu -->
<g id="edge2" class="edge">
<title>Any&#45;&gt;Mu</title>
<path fill="none" stroke="#000000" d="M42.25,-108.3C42.25,-116.02 42.25,-125.29 42.25,-133.89"/>
<polygon fill="#000000" stroke="#000000" points="38.75,-133.9 42.25,-143.9 45.75,-133.9 38.75,-133.9"/>
</g>
</g>
</svg>
