<?xml version="1.0" encoding="UTF-8" standalone="no"?>
<!DOCTYPE svg PUBLIC "-//W3C//DTD SVG 1.1//EN"
 "http://www.w3.org/Graphics/SVG/1.1/DTD/svg11.dtd">
<!-- Generated by graphviz version 2.42.3 (0)
 -->
<!-- Title: perl6&#45;type&#45;graph Pages: 1 -->
<svg width="2055pt" height="1706pt"
 viewBox="0.00 0.00 2054.84 1705.93" xmlns="http://www.w3.org/2000/svg" xmlns:xlink="http://www.w3.org/1999/xlink">
<g id="graph0" class="graph" transform="scale(1 1) rotate(0) translate(4 1701.93)">
<title>perl6&#45;type&#45;graph</title>
<polygon fill="white" stroke="transparent" points="-4,4 -4,-1701.93 2050.84,-1701.93 2050.84,4 -4,4"/>
<!-- Metamodel::MROBasedMethodDispatch -->
<g id="node1" class="node">
<title>Metamodel::MROBasedMethodDispatch</title>
<g id="a_node1"><a xlink:href="/type/Metamodel::MROBasedMethodDispatch" xlink:title="Metamodel::MROBasedMethodDispatch">
<ellipse fill="none" stroke="#6666ff" cx="653.31" cy="-770.71" rx="188.47" ry="18"/>
<text text-anchor="middle" x="653.31" y="-767.01" font-family="FreeSans" font-size="14.00" fill="#6666ff">Metamodel::MROBasedMethodDispatch</text>
</a>
</g>
</g>
<!-- Mu -->
<g id="node2" class="node">
<title>Mu</title>
<g id="a_node2"><a xlink:href="/type/Mu" xlink:title="Mu">
<ellipse fill="none" stroke="#000000" cx="1627.58" cy="-18" rx="27" ry="18"/>
<text text-anchor="middle" x="1627.58" y="-14.3" font-family="FreeSans" font-size="14.00" fill="#000000">Mu</text>
</a>
</g>
</g>
<!-- Any -->
<g id="node3" class="node">
<title>Any</title>
<g id="a_node3"><a xlink:href="/type/Any" xlink:title="Any">
<ellipse fill="none" stroke="#000000" cx="1141.27" cy="-479.05" rx="28.7" ry="18"/>
<text text-anchor="middle" x="1141.27" y="-475.35" font-family="FreeSans" font-size="14.00" fill="#000000">Any</text>
</a>
</g>
</g>
<!-- Any&#45;&gt;Mu -->
<g id="edge1" class="edge">
<title>Any&#45;&gt;Mu</title>
<path fill="none" stroke="#000000" d="M1157.17,-463.97C1228.61,-396.25 1519.98,-120.01 1604.5,-39.88"/>
<polygon fill="#000000" stroke="#000000" points="1606.95,-42.38 1611.8,-32.96 1602.13,-37.3 1606.95,-42.38"/>
</g>
<!-- Metamodel::Naming -->
<g id="node4" class="node">
<title>Metamodel::Naming</title>
<g id="a_node4"><a xlink:href="/type/Metamodel::Naming" xlink:title="Metamodel::Naming">
<ellipse fill="none" stroke="#6666ff" cx="1329.08" cy="-747.51" rx="101.28" ry="18"/>
<text text-anchor="middle" x="1329.08" y="-743.81" font-family="FreeSans" font-size="14.00" fill="#6666ff">Metamodel::Naming</text>
</a>
</g>
</g>
<!-- Metamodel::Documenting -->
<g id="node5" class="node">
<title>Metamodel::Documenting</title>
<g id="a_node5"><a xlink:href="/type/Metamodel::Documenting" xlink:title="Metamodel::Documenting">
<ellipse fill="none" stroke="#6666ff" cx="1304.62" cy="-471.3" rx="126.98" ry="18"/>
<text text-anchor="middle" x="1304.62" y="-467.6" font-family="FreeSans" font-size="14.00" fill="#6666ff">Metamodel::Documenting</text>
</a>
</g>
</g>
<!-- Metamodel::Versioning -->
<g id="node6" class="node">
<title>Metamodel::Versioning</title>
<g id="a_node6"><a xlink:href="/type/Metamodel::Versioning" xlink:title="Metamodel::Versioning">
<ellipse fill="none" stroke="#6666ff" cx="289.04" cy="-646.44" rx="114.28" ry="18"/>
<text text-anchor="middle" x="289.04" y="-642.74" font-family="FreeSans" font-size="14.00" fill="#6666ff">Metamodel::Versioning</text>
</a>
</g>
</g>
<!-- Metamodel::Stashing -->
<g id="node7" class="node">
<title>Metamodel::Stashing</title>
<g id="a_node7"><a xlink:href="/type/Metamodel::Stashing" xlink:title="Metamodel::Stashing">
<ellipse fill="none" stroke="#6666ff" cx="851.5" cy="-638.47" rx="105.88" ry="18"/>
<text text-anchor="middle" x="851.5" y="-634.77" font-family="FreeSans" font-size="14.00" fill="#6666ff">Metamodel::Stashing</text>
</a>
</g>
</g>
<!-- Metamodel::MultipleInheritance -->
<g id="node8" class="node">
<title>Metamodel::MultipleInheritance</title>
<g id="a_node8"><a xlink:href="/type/Metamodel::MultipleInheritance" xlink:title="Metamodel::MultipleInheritance">
<ellipse fill="none" stroke="#6666ff" cx="510.43" cy="-377.72" rx="153.27" ry="18"/>
<text text-anchor="middle" x="510.43" y="-374.02" font-family="FreeSans" font-size="14.00" fill="#6666ff">Metamodel::MultipleInheritance</text>
</a>
</g>
</g>
<!-- Metamodel::C3MRO -->
<g id="node9" class="node">
<title>Metamodel::C3MRO</title>
<g id="a_node9"><a xlink:href="/type/Metamodel::C3MRO" xlink:title="Metamodel::C3MRO">
<ellipse fill="none" stroke="#6666ff" cx="341.44" cy="-462.74" rx="100.18" ry="18"/>
<text text-anchor="middle" x="341.44" y="-459.04" font-family="FreeSans" font-size="14.00" fill="#6666ff">Metamodel::C3MRO</text>
</a>
</g>
</g>
<!-- Metamodel::MROBasedTypeChecking -->
<g id="node10" class="node">
<title>Metamodel::MROBasedTypeChecking</title>
<g id="a_node10"><a xlink:href="/type/Metamodel::MROBasedTypeChecking" xlink:title="Metamodel::MROBasedTypeChecking">
<ellipse fill="none" stroke="#6666ff" cx="1040.88" cy="-717.93" rx="178.97" ry="18"/>
<text text-anchor="middle" x="1040.88" y="-714.23" font-family="FreeSans" font-size="14.00" fill="#6666ff">Metamodel::MROBasedTypeChecking</text>
</a>
</g>
</g>
<!-- Metamodel::NativeHOW -->
<g id="node11" class="node">
<title>Metamodel::NativeHOW</title>
<g id="a_node11"><a xlink:href="/type/Metamodel::NativeHOW" xlink:title="Metamodel::NativeHOW">
<ellipse fill="none" stroke="#000000" cx="835.72" cy="-197.45" rx="118.08" ry="18"/>
<text text-anchor="middle" x="835.72" y="-193.75" font-family="FreeSans" font-size="14.00" fill="#000000">Metamodel::NativeHOW</text>
</a>
</g>
</g>
<!-- Metamodel::NativeHOW&#45;&gt;Metamodel::MROBasedMethodDispatch -->
<g id="edge11" class="edge">
<title>Metamodel::NativeHOW&#45;&gt;Metamodel::MROBasedMethodDispatch</title>
<path fill="none" stroke="#6666ff" d="M829.95,-215.55C803.58,-298.45 694.23,-642.11 662.18,-742.84"/>
<polygon fill="#6666ff" stroke="#6666ff" points="658.77,-742.01 659.07,-752.6 665.44,-744.14 658.77,-742.01"/>
</g>
<!-- Metamodel::NativeHOW&#45;&gt;Any -->
<g id="edge2" class="edge">
<title>Metamodel::NativeHOW&#45;&gt;Any</title>
<path fill="none" stroke="#000000" d="M855.29,-215.49C909.01,-265 1058.59,-402.85 1117.24,-456.9"/>
<polygon fill="#000000" stroke="#000000" points="1115.17,-459.75 1124.89,-463.95 1119.91,-454.6 1115.17,-459.75"/>
</g>
<!-- Metamodel::NativeHOW&#45;&gt;Metamodel::Naming -->
<g id="edge5" class="edge">
<title>Metamodel::NativeHOW&#45;&gt;Metamodel::Naming</title>
<path fill="none" stroke="#6666ff" d="M851.85,-215.43C924.47,-296.4 1221.12,-627.14 1306.18,-721.98"/>
<polygon fill="#6666ff" stroke="#6666ff" points="1303.79,-724.55 1313.07,-729.66 1309,-719.88 1303.79,-724.55"/>
</g>
<!-- Metamodel::NativeHOW&#45;&gt;Metamodel::Documenting -->
<g id="edge6" class="edge">
<title>Metamodel::NativeHOW&#45;&gt;Metamodel::Documenting</title>
<path fill="none" stroke="#6666ff" d="M865.76,-214.99C947.63,-262.81 1174.59,-395.36 1265.87,-448.66"/>
<polygon fill="#6666ff" stroke="#6666ff" points="1264.12,-451.7 1274.52,-453.72 1267.65,-445.65 1264.12,-451.7"/>
</g>
<!-- Metamodel::NativeHOW&#45;&gt;Metamodel::Versioning -->
<g id="edge7" class="edge">
<title>Metamodel::NativeHOW&#45;&gt;Metamodel::Versioning</title>
<path fill="none" stroke="#6666ff" d="M818.76,-215.4C775.69,-261.01 665.42,-377.77 665.42,-377.77 665.42,-377.77 413.96,-557.27 322.11,-622.83"/>
<polygon fill="#6666ff" stroke="#6666ff" points="319.84,-620.15 313.74,-628.81 323.91,-625.85 319.84,-620.15"/>
</g>
<!-- Metamodel::NativeHOW&#45;&gt;Metamodel::Stashing -->
<g id="edge8" class="edge">
<title>Metamodel::NativeHOW&#45;&gt;Metamodel::Stashing</title>
<path fill="none" stroke="#6666ff" d="M836.36,-215.56C838.81,-283.97 847.51,-526.96 850.49,-610.23"/>
<polygon fill="#6666ff" stroke="#6666ff" points="847,-610.58 850.86,-620.45 854,-610.33 847,-610.58"/>
</g>
<!-- Metamodel::NativeHOW&#45;&gt;Metamodel::MultipleInheritance -->
<g id="edge9" class="edge">
<title>Metamodel::NativeHOW&#45;&gt;Metamodel::MultipleInheritance</title>
<path fill="none" stroke="#6666ff" d="M804.23,-214.9C744.99,-247.72 617.03,-318.65 551.27,-355.09"/>
<polygon fill="#6666ff" stroke="#6666ff" points="549.47,-352.09 542.42,-360 552.86,-358.21 549.47,-352.09"/>
</g>
<!-- Metamodel::NativeHOW&#45;&gt;Metamodel::C3MRO -->
<g id="edge10" class="edge">
<title>Metamodel::NativeHOW&#45;&gt;Metamodel::C3MRO</title>
<path fill="none" stroke="#6666ff" d="M818.76,-215.4C775.69,-261.01 665.42,-377.77 665.42,-377.77 665.42,-377.77 619.73,-391.62 619.73,-391.62 619.73,-391.62 491.27,-424.45 408.91,-445.5"/>
<polygon fill="#6666ff" stroke="#6666ff" points="407.93,-442.14 399.1,-448.01 409.66,-448.92 407.93,-442.14"/>
</g>
<!-- Metamodel::NativeHOW&#45;&gt;Metamodel::MROBasedTypeChecking -->
<g id="edge12" class="edge">
<title>Metamodel::NativeHOW&#45;&gt;Metamodel::MROBasedTypeChecking</title>
<path fill="none" stroke="#6666ff" d="M842.9,-215.66C873.52,-293.35 993.29,-597.2 1030.07,-690.52"/>
<polygon fill="#6666ff" stroke="#6666ff" points="1026.83,-691.84 1033.75,-699.86 1033.34,-689.28 1026.83,-691.84"/>
</g>
<!-- Metamodel::AttributeContainer -->
<g id="node12" class="node">
<title>Metamodel::AttributeContainer</title>
<g id="a_node12"><a xlink:href="/type/Metamodel::AttributeContainer" xlink:title="Metamodel::AttributeContainer">
<ellipse fill="none" stroke="#6666ff" cx="911.37" cy="-1679.93" rx="150.27" ry="18"/>
<text text-anchor="middle" x="911.37" y="-1676.23" font-family="FreeSans" font-size="14.00" fill="#6666ff">Metamodel::AttributeContainer</text>
</a>
</g>
</g>
<!-- Metamodel::Finalization -->
<g id="node13" class="node">
<title>Metamodel::Finalization</title>
<g id="a_node13"><a xlink:href="/type/Metamodel::Finalization" xlink:title="Metamodel::Finalization">
<ellipse fill="none" stroke="#6666ff" cx="359.18" cy="-1596.75" rx="116.98" ry="18"/>
<text text-anchor="middle" x="359.18" y="-1593.05" font-family="FreeSans" font-size="14.00" fill="#6666ff">Metamodel::Finalization</text>
</a>
</g>
</g>
<!-- Metamodel::MethodContainer -->
<g id="node14" class="node">
<title>Metamodel::MethodContainer</title>
<g id="a_node14"><a xlink:href="/type/Metamodel::MethodContainer" xlink:title="Metamodel::MethodContainer">
<ellipse fill="none" stroke="#6666ff" cx="1256.01" cy="-1541.64" rx="143.77" ry="18"/>
<text text-anchor="middle" x="1256.01" y="-1537.94" font-family="FreeSans" font-size="14.00" fill="#6666ff">Metamodel::MethodContainer</text>
</a>
</g>
</g>
<!-- Metamodel::PrivateMethodContainer -->
<g id="node15" class="node">
<title>Metamodel::PrivateMethodContainer</title>
<g id="a_node15"><a xlink:href="/type/Metamodel::PrivateMethodContainer" xlink:title="Metamodel::PrivateMethodContainer">
<ellipse fill="none" stroke="#6666ff" cx="207.49" cy="-1377.24" rx="174.67" ry="18"/>
<text text-anchor="middle" x="207.49" y="-1373.54" font-family="FreeSans" font-size="14.00" fill="#6666ff">Metamodel::PrivateMethodContainer</text>
</a>
</g>
</g>
<!-- Metamodel::MultiMethodContainer -->
<g id="node16" class="node">
<title>Metamodel::MultiMethodContainer</title>
<g id="a_node16"><a xlink:href="/type/Metamodel::MultiMethodContainer" xlink:title="Metamodel::MultiMethodContainer">
<ellipse fill="none" stroke="#6666ff" cx="1407.54" cy="-1363.31" rx="165.97" ry="18"/>
<text text-anchor="middle" x="1407.54" y="-1359.61" font-family="FreeSans" font-size="14.00" fill="#6666ff">Metamodel::MultiMethodContainer</text>
</a>
</g>
</g>
<!-- Metamodel::RoleContainer -->
<g id="node17" class="node">
<title>Metamodel::RoleContainer</title>
<g id="a_node17"><a xlink:href="/type/Metamodel::RoleContainer" xlink:title="Metamodel::RoleContainer">
<ellipse fill="none" stroke="#6666ff" cx="1499.55" cy="-1029.89" rx="129.98" ry="18"/>
<text text-anchor="middle" x="1499.55" y="-1026.19" font-family="FreeSans" font-size="14.00" fill="#6666ff">Metamodel::RoleContainer</text>
</a>
</g>
</g>
<!-- Metamodel::DefaultParent -->
<g id="node18" class="node">
<title>Metamodel::DefaultParent</title>
<g id="a_node18"><a xlink:href="/type/Metamodel::DefaultParent" xlink:title="Metamodel::DefaultParent">
<ellipse fill="none" stroke="#6666ff" cx="133.25" cy="-1160.14" rx="128.08" ry="18"/>
<text text-anchor="middle" x="133.25" y="-1156.44" font-family="FreeSans" font-size="14.00" fill="#6666ff">Metamodel::DefaultParent</text>
</a>
</g>
</g>
<!-- Metamodel::Trusting -->
<g id="node19" class="node">
<title>Metamodel::Trusting</title>
<g id="a_node19"><a xlink:href="/type/Metamodel::Trusting" xlink:title="Metamodel::Trusting">
<ellipse fill="none" stroke="#6666ff" cx="102.69" cy="-933.87" rx="102.88" ry="18"/>
<text text-anchor="middle" x="102.69" y="-930.17" font-family="FreeSans" font-size="14.00" fill="#6666ff">Metamodel::Trusting</text>
</a>
</g>
</g>
<!-- Metamodel::BUILDPLAN -->
<g id="node20" class="node">
<title>Metamodel::BUILDPLAN</title>
<g id="a_node20"><a xlink:href="/type/Metamodel::BUILDPLAN" xlink:title="Metamodel::BUILDPLAN">
<ellipse fill="none" stroke="#6666ff" cx="1075.81" cy="-1587.2" rx="118.08" ry="18"/>
<text text-anchor="middle" x="1075.81" y="-1583.5" font-family="FreeSans" font-size="14.00" fill="#6666ff">Metamodel::BUILDPLAN</text>
</a>
</g>
</g>
<!-- Metamodel::Mixins -->
<g id="node21" class="node">
<title>Metamodel::Mixins</title>
<g id="a_node21"><a xlink:href="/type/Metamodel::Mixins" xlink:title="Metamodel::Mixins">
<ellipse fill="none" stroke="#6666ff" cx="649.54" cy="-1398.73" rx="94.78" ry="18"/>
<text text-anchor="middle" x="649.54" y="-1395.03" font-family="FreeSans" font-size="14.00" fill="#6666ff">Metamodel::Mixins</text>
</a>
</g>
</g>
<!-- Metamodel::BoolificationProtocol -->
<g id="node22" class="node">
<title>Metamodel::BoolificationProtocol</title>
<g id="a_node22"><a xlink:href="/type/Metamodel::BoolificationProtocol" xlink:title="Metamodel::BoolificationProtocol">
<ellipse fill="none" stroke="#6666ff" cx="759.85" cy="-1573.01" rx="157.07" ry="18"/>
<text text-anchor="middle" x="759.85" y="-1569.31" font-family="FreeSans" font-size="14.00" fill="#6666ff">Metamodel::BoolificationProtocol</text>
</a>
</g>
</g>
<!-- Metamodel::ClassHOW -->
<g id="node23" class="node">
<title>Metamodel::ClassHOW</title>
<g id="a_node23"><a xlink:href="/type/Metamodel::ClassHOW" xlink:title="Metamodel::ClassHOW">
<ellipse fill="none" stroke="#000000" cx="780.23" cy="-1046.16" rx="113.18" ry="18"/>
<text text-anchor="middle" x="780.23" y="-1042.46" font-family="FreeSans" font-size="14.00" fill="#000000">Metamodel::ClassHOW</text>
</a>
</g>
</g>
<!-- Metamodel::ClassHOW&#45;&gt;Metamodel::MROBasedMethodDispatch -->
<g id="edge26" class="edge">
<title>Metamodel::ClassHOW&#45;&gt;Metamodel::MROBasedMethodDispatch</title>
<path fill="none" stroke="#6666ff" d="M771.91,-1028.08C750.21,-981 691.84,-854.34 665.96,-798.17"/>
<polygon fill="#6666ff" stroke="#6666ff" points="669.03,-796.47 661.67,-788.85 662.67,-799.4 669.03,-796.47"/>
</g>
<!-- Metamodel::ClassHOW&#45;&gt;Any -->
<g id="edge3" class="edge">
<title>Metamodel::ClassHOW&#45;&gt;Any</title>
<path fill="none" stroke="#000000" d="M784.67,-1028.04C801.5,-959.22 860.54,-717.88 860.54,-717.88 860.54,-717.88 959.04,-638.56 959.04,-638.56 959.04,-638.56 1066.99,-544.07 1116.72,-500.54"/>
<polygon fill="#000000" stroke="#000000" points="1119.23,-502.99 1124.45,-493.77 1114.62,-497.72 1119.23,-502.99"/>
</g>
<!-- Metamodel::ClassHOW&#45;&gt;Metamodel::Naming -->
<g id="edge13" class="edge">
<title>Metamodel::ClassHOW&#45;&gt;Metamodel::Naming</title>
<path fill="none" stroke="#6666ff" d="M812.11,-1028.81C906.39,-977.51 1183.77,-826.58 1288.46,-769.62"/>
<polygon fill="#6666ff" stroke="#6666ff" points="1290.35,-772.58 1297.46,-764.72 1287,-766.43 1290.35,-772.58"/>
</g>
<!-- Metamodel::ClassHOW&#45;&gt;Metamodel::Documenting -->
<g id="edge14" class="edge">
<title>Metamodel::ClassHOW&#45;&gt;Metamodel::Documenting</title>
<path fill="none" stroke="#6666ff" d="M803.94,-1028.51C895.54,-960.35 1221.21,-717.99 1221.21,-717.99 1221.21,-717.99 1273.48,-563.39 1295.27,-498.97"/>
<polygon fill="#6666ff" stroke="#6666ff" points="1298.6,-500.03 1298.49,-489.44 1291.97,-497.79 1298.6,-500.03"/>
</g>
<!-- Metamodel::ClassHOW&#45;&gt;Metamodel::Versioning -->
<g id="edge15" class="edge">
<title>Metamodel::ClassHOW&#45;&gt;Metamodel::Versioning</title>
<path fill="none" stroke="#6666ff" d="M758.49,-1028.46C679.72,-964.36 409.16,-744.19 318.74,-670.61"/>
<polygon fill="#6666ff" stroke="#6666ff" points="320.78,-667.75 310.81,-664.15 316.36,-673.18 320.78,-667.75"/>
</g>
<!-- Metamodel::ClassHOW&#45;&gt;Metamodel::Stashing -->
<g id="edge16" class="edge">
<title>Metamodel::ClassHOW&#45;&gt;Metamodel::Stashing</title>
<path fill="none" stroke="#6666ff" d="M784.38,-1028.09C798.43,-966.84 843.39,-770.85 843.39,-770.85 843.39,-770.85 847.38,-705.68 849.77,-666.79"/>
<polygon fill="#6666ff" stroke="#6666ff" points="853.27,-666.79 850.39,-656.59 846.29,-666.36 853.27,-666.79"/>
</g>
<!-- Metamodel::ClassHOW&#45;&gt;Metamodel::MultipleInheritance -->
<g id="edge23" class="edge">
<title>Metamodel::ClassHOW&#45;&gt;Metamodel::MultipleInheritance</title>
<path fill="none" stroke="#6666ff" d="M784.38,-1028.09C798.43,-966.84 843.39,-770.85 843.39,-770.85 843.39,-770.85 606.29,-490.89 532.25,-403.48"/>
<polygon fill="#6666ff" stroke="#6666ff" points="534.74,-401 525.61,-395.63 529.4,-405.53 534.74,-401"/>
</g>
<!-- Metamodel::ClassHOW&#45;&gt;Metamodel::C3MRO -->
<g id="edge25" class="edge">
<title>Metamodel::ClassHOW&#45;&gt;Metamodel::C3MRO</title>
<path fill="none" stroke="#6666ff" d="M759.43,-1028.07C688.91,-966.77 463.23,-770.58 463.23,-770.58 463.23,-770.58 382.34,-566.12 352.41,-490.46"/>
<polygon fill="#6666ff" stroke="#6666ff" points="355.63,-489.09 348.7,-481.08 349.12,-491.66 355.63,-489.09"/>
</g>
<!-- Metamodel::ClassHOW&#45;&gt;Metamodel::MROBasedTypeChecking -->
<g id="edge27" class="edge">
<title>Metamodel::ClassHOW&#45;&gt;Metamodel::MROBasedTypeChecking</title>
<path fill="none" stroke="#6666ff" d="M794.62,-1028.04C838.23,-973.12 969.1,-808.32 1020.16,-744.03"/>
<polygon fill="#6666ff" stroke="#6666ff" points="1023.06,-746 1026.54,-735.99 1017.58,-741.65 1023.06,-746"/>
</g>
<!-- Metamodel::ClassHOW&#45;&gt;Metamodel::AttributeContainer -->
<g id="edge17" class="edge">
<title>Metamodel::ClassHOW&#45;&gt;Metamodel::AttributeContainer</title>
<path fill="none" stroke="#6666ff" d="M785,-1064.29C809.36,-1156.95 918.74,-1573.08 918.74,-1573.08 918.74,-1573.08 915.5,-1620.09 913.32,-1651.74"/>
<polygon fill="#6666ff" stroke="#6666ff" points="909.82,-1651.58 912.62,-1661.8 916.8,-1652.07 909.82,-1651.58"/>
</g>
<!-- Metamodel::ClassHOW&#45;&gt;Metamodel::Finalization -->
<g id="edge18" class="edge">
<title>Metamodel::ClassHOW&#45;&gt;Metamodel::Finalization</title>
<path fill="none" stroke="#6666ff" d="M766.46,-1064.16C704.62,-1145.03 452.39,-1474.86 379.18,-1570.59"/>
<polygon fill="#6666ff" stroke="#6666ff" points="376.35,-1568.53 373.05,-1578.6 381.91,-1572.78 376.35,-1568.53"/>
</g>
<!-- Metamodel::ClassHOW&#45;&gt;Metamodel::MethodContainer -->
<g id="edge19" class="edge">
<title>Metamodel::ClassHOW&#45;&gt;Metamodel::MethodContainer</title>
<path fill="none" stroke="#6666ff" d="M797.45,-1064.08C869.57,-1139.19 1147.6,-1428.73 1231.74,-1516.36"/>
<polygon fill="#6666ff" stroke="#6666ff" points="1229.37,-1518.95 1238.82,-1523.73 1234.42,-1514.1 1229.37,-1518.95"/>
</g>
<!-- Metamodel::ClassHOW&#45;&gt;Metamodel::PrivateMethodContainer -->
<g id="edge20" class="edge">
<title>Metamodel::ClassHOW&#45;&gt;Metamodel::PrivateMethodContainer</title>
<path fill="none" stroke="#6666ff" d="M749.84,-1063.72C653.55,-1119.38 355.2,-1291.85 247.11,-1354.34"/>
<polygon fill="#6666ff" stroke="#6666ff" points="245.06,-1351.48 238.15,-1359.51 248.56,-1357.54 245.06,-1351.48"/>
</g>
<!-- Metamodel::ClassHOW&#45;&gt;Metamodel::MultiMethodContainer -->
<g id="edge21" class="edge">
<title>Metamodel::ClassHOW&#45;&gt;Metamodel::MultiMethodContainer</title>
<path fill="none" stroke="#6666ff" d="M814.41,-1063.43C920.57,-1117.11 1244.69,-1280.98 1363.38,-1340.99"/>
<polygon fill="#6666ff" stroke="#6666ff" points="1362.06,-1344.24 1372.56,-1345.63 1365.22,-1337.99 1362.06,-1344.24"/>
</g>
<!-- Metamodel::ClassHOW&#45;&gt;Metamodel::RoleContainer -->
<g id="edge22" class="edge">
<title>Metamodel::ClassHOW&#45;&gt;Metamodel::RoleContainer</title>
<path fill="none" stroke="#6666ff" d="M892.23,-1043.62C1018.68,-1040.76 1224.54,-1036.11 1361,-1033.02"/>
<polygon fill="#6666ff" stroke="#6666ff" points="1361.19,-1036.52 1371.11,-1032.79 1361.03,-1029.52 1361.19,-1036.52"/>
</g>
<!-- Metamodel::ClassHOW&#45;&gt;Metamodel::DefaultParent -->
<g id="edge24" class="edge">
<title>Metamodel::ClassHOW&#45;&gt;Metamodel::DefaultParent</title>
<path fill="none" stroke="#6666ff" d="M704.11,-1059.57C584.11,-1080.71 351.43,-1121.7 223.3,-1144.28"/>
<polygon fill="#6666ff" stroke="#6666ff" points="222.37,-1140.89 213.13,-1146.07 223.58,-1147.78 222.37,-1140.89"/>
</g>
<!-- Metamodel::ClassHOW&#45;&gt;Metamodel::Trusting -->
<g id="edge28" class="edge">
<title>Metamodel::ClassHOW&#45;&gt;Metamodel::Trusting</title>
<path fill="none" stroke="#6666ff" d="M701.85,-1033.17C573.6,-1011.91 320,-969.88 187.62,-947.95"/>
<polygon fill="#6666ff" stroke="#6666ff" points="187.97,-944.45 177.53,-946.27 186.82,-951.36 187.97,-944.45"/>
</g>
<!-- Metamodel::ClassHOW&#45;&gt;Metamodel::BUILDPLAN -->
<g id="edge29" class="edge">
<title>Metamodel::ClassHOW&#45;&gt;Metamodel::BUILDPLAN</title>
<path fill="none" stroke="#6666ff" d="M790.07,-1064.16C833.55,-1143.75 1008.7,-1464.35 1060.99,-1560.08"/>
<polygon fill="#6666ff" stroke="#6666ff" points="1058.07,-1562.03 1065.94,-1569.13 1064.21,-1558.67 1058.07,-1562.03"/>
</g>
<!-- Metamodel::ClassHOW&#45;&gt;Metamodel::Mixins -->
<g id="edge30" class="edge">
<title>Metamodel::ClassHOW&#45;&gt;Metamodel::Mixins</title>
<path fill="none" stroke="#6666ff" d="M773.57,-1064.12C752.25,-1121.64 685.59,-1301.48 659.83,-1370.96"/>
<polygon fill="#6666ff" stroke="#6666ff" points="656.54,-1369.79 656.34,-1380.38 663.1,-1372.22 656.54,-1369.79"/>
</g>
<!-- Metamodel::ClassHOW&#45;&gt;Metamodel::BoolificationProtocol -->
<g id="edge31" class="edge">
<title>Metamodel::ClassHOW&#45;&gt;Metamodel::BoolificationProtocol</title>
<path fill="none" stroke="#6666ff" d="M779.53,-1064.29C776.51,-1142.34 764.61,-1449.99 760.94,-1544.94"/>
<polygon fill="#6666ff" stroke="#6666ff" points="757.44,-1544.82 760.55,-1554.95 764.44,-1545.09 757.44,-1544.82"/>
</g>
<!-- Metamodel::BaseType -->
<g id="node24" class="node">
<title>Metamodel::BaseType</title>
<g id="a_node24"><a xlink:href="/type/Metamodel::BaseType" xlink:title="Metamodel::BaseType">
<ellipse fill="none" stroke="#6666ff" cx="1937.65" cy="-1330.07" rx="109.38" ry="18"/>
<text text-anchor="middle" x="1937.65" y="-1326.37" font-family="FreeSans" font-size="14.00" fill="#6666ff">Metamodel::BaseType</text>
</a>
</g>
</g>
<!-- Metamodel::EnumHOW -->
<g id="node25" class="node">
<title>Metamodel::EnumHOW</title>
<g id="a_node25"><a xlink:href="/type/Metamodel::EnumHOW" xlink:title="Metamodel::EnumHOW">
<ellipse fill="none" stroke="#000000" cx="1198.04" cy="-1143.08" rx="115.88" ry="18"/>
<text text-anchor="middle" x="1198.04" y="-1139.38" font-family="FreeSans" font-size="14.00" fill="#000000">Metamodel::EnumHOW</text>
</a>
</g>
</g>
<!-- Metamodel::EnumHOW&#45;&gt;Metamodel::MROBasedMethodDispatch -->
<g id="edge39" class="edge">
<title>Metamodel::EnumHOW&#45;&gt;Metamodel::MROBasedMethodDispatch</title>
<path fill="none" stroke="#6666ff" d="M1172.14,-1125.37C1083.07,-1064.49 789.39,-863.74 688.05,-794.46"/>
<polygon fill="#6666ff" stroke="#6666ff" points="689.92,-791.5 679.69,-788.75 685.97,-797.28 689.92,-791.5"/>
</g>
<!-- Metamodel::EnumHOW&#45;&gt;Any -->
<g id="edge4" class="edge">
<title>Metamodel::EnumHOW&#45;&gt;Any</title>
<path fill="none" stroke="#000000" d="M1199.04,-1124.81C1203.47,-1043.45 1221.21,-717.99 1221.21,-717.99 1221.21,-717.99 1171.55,-569.56 1150.51,-506.68"/>
<polygon fill="#000000" stroke="#000000" points="1153.77,-505.38 1147.28,-497.01 1147.13,-507.6 1153.77,-505.38"/>
</g>
<!-- Metamodel::EnumHOW&#45;&gt;Metamodel::Naming -->
<g id="edge32" class="edge">
<title>Metamodel::EnumHOW&#45;&gt;Metamodel::Naming</title>
<path fill="none" stroke="#6666ff" d="M1204.01,-1125.05C1224.86,-1062.12 1294.53,-851.82 1319.81,-775.5"/>
<polygon fill="#6666ff" stroke="#6666ff" points="1323.26,-776.24 1323.08,-765.64 1316.61,-774.04 1323.26,-776.24"/>
</g>
<!-- Metamodel::EnumHOW&#45;&gt;Metamodel::Stashing -->
<g id="edge33" class="edge">
<title>Metamodel::EnumHOW&#45;&gt;Metamodel::Stashing</title>
<path fill="none" stroke="#6666ff" d="M1183.76,-1125.08C1119.52,-1044.15 860.54,-717.88 860.54,-717.88 860.54,-717.88 857.29,-689.33 854.69,-666.47"/>
<polygon fill="#6666ff" stroke="#6666ff" points="858.16,-666.03 853.56,-656.49 851.21,-666.82 858.16,-666.03"/>
</g>
<!-- Metamodel::EnumHOW&#45;&gt;Metamodel::MROBasedTypeChecking -->
<g id="edge40" class="edge">
<title>Metamodel::EnumHOW&#45;&gt;Metamodel::MROBasedTypeChecking</title>
<path fill="none" stroke="#6666ff" d="M1191.39,-1125.08C1166.79,-1058.55 1080.88,-826.16 1051.12,-745.65"/>
<polygon fill="#6666ff" stroke="#6666ff" points="1054.37,-744.34 1047.62,-736.17 1047.8,-746.77 1054.37,-744.34"/>
</g>
<!-- Metamodel::EnumHOW&#45;&gt;Metamodel::AttributeContainer -->
<g id="edge34" class="edge">
<title>Metamodel::EnumHOW&#45;&gt;Metamodel::AttributeContainer</title>
<path fill="none" stroke="#6666ff" d="M1188.25,-1161.03C1142.95,-1244.1 955.92,-1587.07 955.92,-1587.07 955.92,-1587.07 937.71,-1625.04 924.57,-1652.42"/>
<polygon fill="#6666ff" stroke="#6666ff" points="921.34,-1651.05 920.17,-1661.58 927.66,-1654.08 921.34,-1651.05"/>
</g>
<!-- Metamodel::EnumHOW&#45;&gt;Metamodel::MethodContainer -->
<g id="edge35" class="edge">
<title>Metamodel::EnumHOW&#45;&gt;Metamodel::MethodContainer</title>
<path fill="none" stroke="#6666ff" d="M1200.68,-1161.24C1209.91,-1224.65 1240.73,-1436.54 1251.91,-1513.44"/>
<polygon fill="#6666ff" stroke="#6666ff" points="1248.45,-1513.98 1253.36,-1523.37 1255.38,-1512.97 1248.45,-1513.98"/>
</g>
<!-- Metamodel::EnumHOW&#45;&gt;Metamodel::MultiMethodContainer -->
<g id="edge36" class="edge">
<title>Metamodel::EnumHOW&#45;&gt;Metamodel::MultiMethodContainer</title>
<path fill="none" stroke="#6666ff" d="M1215.19,-1161.1C1252.41,-1200.24 1340.73,-1293.08 1383.5,-1338.05"/>
<polygon fill="#6666ff" stroke="#6666ff" points="1381.02,-1340.51 1390.45,-1345.35 1386.09,-1335.69 1381.02,-1340.51"/>
</g>
<!-- Metamodel::EnumHOW&#45;&gt;Metamodel::RoleContainer -->
<g id="edge37" class="edge">
<title>Metamodel::EnumHOW&#45;&gt;Metamodel::RoleContainer</title>
<path fill="none" stroke="#6666ff" d="M1242.53,-1126.38C1296.37,-1106.16 1387.01,-1072.14 1445.01,-1050.36"/>
<polygon fill="#6666ff" stroke="#6666ff" points="1446.25,-1053.64 1454.38,-1046.85 1443.79,-1047.08 1446.25,-1053.64"/>
</g>
<!-- Metamodel::EnumHOW&#45;&gt;Metamodel::BUILDPLAN -->
<g id="edge41" class="edge">
<title>Metamodel::EnumHOW&#45;&gt;Metamodel::BUILDPLAN</title>
<path fill="none" stroke="#6666ff" d="M1193.02,-1161.32C1174.02,-1230.35 1106.44,-1475.91 1083.49,-1559.27"/>
<polygon fill="#6666ff" stroke="#6666ff" points="1080.08,-1558.48 1080.8,-1569.05 1086.83,-1560.34 1080.08,-1558.48"/>
</g>
<!-- Metamodel::EnumHOW&#45;&gt;Metamodel::Mixins -->
<g id="edge43" class="edge">
<title>Metamodel::EnumHOW&#45;&gt;Metamodel::Mixins</title>
<path fill="none" stroke="#6666ff" d="M1161.2,-1160.25C1063.97,-1205.57 800.67,-1328.29 694.66,-1377.7"/>
<polygon fill="#6666ff" stroke="#6666ff" points="693.09,-1374.57 685.5,-1381.97 696.04,-1380.92 693.09,-1374.57"/>
</g>
<!-- Metamodel::EnumHOW&#45;&gt;Metamodel::BoolificationProtocol -->
<g id="edge42" class="edge">
<title>Metamodel::EnumHOW&#45;&gt;Metamodel::BoolificationProtocol</title>
<path fill="none" stroke="#6666ff" d="M1179.77,-1161.01C1110.73,-1228.74 865.61,-1469.25 785.43,-1547.91"/>
<polygon fill="#6666ff" stroke="#6666ff" points="782.89,-1545.5 778.2,-1555 787.79,-1550.5 782.89,-1545.5"/>
</g>
<!-- Metamodel::EnumHOW&#45;&gt;Metamodel::BaseType -->
<g id="edge38" class="edge">
<title>Metamodel::EnumHOW&#45;&gt;Metamodel::BaseType</title>
<path fill="none" stroke="#6666ff" d="M1258.88,-1158.46C1395.04,-1192.88 1723.66,-1275.97 1867.85,-1312.42"/>
<polygon fill="#6666ff" stroke="#6666ff" points="1867.35,-1315.9 1877.91,-1314.96 1869.07,-1309.12 1867.35,-1315.9"/>
</g>
</g>
</svg>
