<?xml version="1.0" encoding="UTF-8" standalone="no"?>
<!DOCTYPE svg PUBLIC "-//W3C//DTD SVG 1.1//EN"
 "http://www.w3.org/Graphics/SVG/1.1/DTD/svg11.dtd">
<!-- Generated by graphviz version 2.42.3 (0)
 -->
<!-- Title: perl6&#45;type&#45;graph Pages: 1 -->
<svg width="700pt" height="404pt"
 viewBox="0.00 0.00 700.14 404.00" xmlns="http://www.w3.org/2000/svg" xmlns:xlink="http://www.w3.org/1999/xlink">
<g id="graph0" class="graph" transform="scale(1 1) rotate(0) translate(4 400)">
<title>perl6&#45;type&#45;graph</title>
<polygon fill="white" stroke="transparent" points="-4,4 -4,-400 696.14,-400 696.14,4 -4,4"/>
<!-- Iterable -->
<g id="node1" class="node">
<title>Iterable</title>
<g id="a_node1"><a xlink:href="/type/Iterable" xlink:title="Iterable">
<ellipse fill="none" stroke="#6666ff" cx="390.95" cy="-234" rx="45.49" ry="18"/>
<text text-anchor="middle" x="390.95" y="-230.3" font-family="FreeSans" font-size="14.00" fill="#6666ff">Iterable</text>
</a>
</g>
</g>
<!-- Mu -->
<g id="node2" class="node">
<title>Mu</title>
<g id="a_node2"><a xlink:href="/type/Mu" xlink:title="Mu">
<ellipse fill="none" stroke="#000000" cx="426.95" cy="-378" rx="27" ry="18"/>
<text text-anchor="middle" x="426.95" y="-374.3" font-family="FreeSans" font-size="14.00" fill="#000000">Mu</text>
</a>
</g>
</g>
<!-- Any -->
<g id="node3" class="node">
<title>Any</title>
<g id="a_node3"><a xlink:href="/type/Any" xlink:title="Any">
<ellipse fill="none" stroke="#000000" cx="426.95" cy="-306" rx="28.7" ry="18"/>
<text text-anchor="middle" x="426.95" y="-302.3" font-family="FreeSans" font-size="14.00" fill="#000000">Any</text>
</a>
</g>
</g>
<!-- Any&#45;&gt;Mu -->
<g id="edge1" class="edge">
<title>Any&#45;&gt;Mu</title>
<path fill="none" stroke="#000000" d="M426.95,-324.3C426.95,-332.02 426.95,-341.29 426.95,-349.89"/>
<polygon fill="#000000" stroke="#000000" points="423.45,-349.9 426.95,-359.9 430.45,-349.9 423.45,-349.9"/>
</g>
<!-- Cool -->
<g id="node4" class="node">
<title>Cool</title>
<g id="a_node4"><a xlink:href="/type/Cool" xlink:title="Cool">
<ellipse fill="none" stroke="#000000" cx="155.95" cy="-234" rx="30.59" ry="18"/>
<text text-anchor="middle" x="155.95" y="-230.3" font-family="FreeSans" font-size="14.00" fill="#000000">Cool</text>
</a>
</g>
</g>
<!-- Cool&#45;&gt;Any -->
<g id="edge2" class="edge">
<title>Cool&#45;&gt;Any</title>
<path fill="none" stroke="#000000" d="M179.98,-245.48C188,-248.97 194.95,-252 194.95,-252 194.95,-252 325.09,-281.73 390.43,-296.66"/>
<polygon fill="#000000" stroke="#000000" points="389.8,-300.11 400.33,-298.92 391.36,-293.28 389.8,-300.11"/>
</g>
<!-- Positional -->
<g id="node5" class="node">
<title>Positional</title>
<g id="a_node5"><a xlink:href="/type/Positional" xlink:title="Positional">
<ellipse fill="none" stroke="#6666ff" cx="53.95" cy="-234" rx="53.89" ry="18"/>
<text text-anchor="middle" x="53.95" y="-230.3" font-family="FreeSans" font-size="14.00" fill="#6666ff">Positional</text>
</a>
</g>
</g>
<!-- List -->
<g id="node6" class="node">
<title>List</title>
<g id="a_node6"><a xlink:href="/type/List" xlink:title="List">
<ellipse fill="none" stroke="#000000" cx="81.95" cy="-162" rx="27" ry="18"/>
<text text-anchor="middle" x="81.95" y="-158.3" font-family="FreeSans" font-size="14.00" fill="#000000">List</text>
</a>
</g>
</g>
<!-- List&#45;&gt;Iterable -->
<g id="edge15" class="edge">
<title>List&#45;&gt;Iterable</title>
<path fill="none" stroke="#6666ff" d="M103.3,-173.09C111.05,-176.75 117.95,-180 117.95,-180 117.95,-180 336.95,-216 336.95,-216 336.95,-216 340.97,-217.27 346.82,-219.11"/>
<polygon fill="#6666ff" stroke="#6666ff" points="345.85,-222.47 356.44,-222.14 347.95,-215.8 345.85,-222.47"/>
</g>
<!-- List&#45;&gt;Cool -->
<g id="edge3" class="edge">
<title>List&#45;&gt;Cool</title>
<path fill="none" stroke="#000000" d="M96.92,-177.17C107.31,-187 121.35,-200.28 133.13,-211.42"/>
<polygon fill="#000000" stroke="#000000" points="130.81,-214.04 140.48,-218.37 135.62,-208.96 130.81,-214.04"/>
</g>
<!-- List&#45;&gt;Positional -->
<g id="edge14" class="edge">
<title>List&#45;&gt;Positional</title>
<path fill="none" stroke="#6666ff" d="M75.31,-179.59C72.08,-187.66 68.12,-197.57 64.49,-206.65"/>
<polygon fill="#6666ff" stroke="#6666ff" points="61.19,-205.46 60.73,-216.04 67.69,-208.06 61.19,-205.46"/>
</g>
<!-- PositionalBindFailover -->
<g id="node7" class="node">
<title>PositionalBindFailover</title>
<g id="a_node7"><a xlink:href="/type/PositionalBindFailover" xlink:title="PositionalBindFailover">
<ellipse fill="none" stroke="#6666ff" cx="582.95" cy="-306" rx="109.38" ry="18"/>
<text text-anchor="middle" x="582.95" y="-302.3" font-family="FreeSans" font-size="14.00" fill="#6666ff">PositionalBindFailover</text>
</a>
</g>
</g>
<!-- Sequence -->
<g id="node8" class="node">
<title>Sequence</title>
<g id="a_node8"><a xlink:href="/type/Sequence" xlink:title="Sequence">
<ellipse fill="none" stroke="#6666ff" cx="546.95" cy="-234" rx="55.49" ry="18"/>
<text text-anchor="middle" x="546.95" y="-230.3" font-family="FreeSans" font-size="14.00" fill="#6666ff">Sequence</text>
</a>
</g>
</g>
<!-- Sequence&#45;&gt;PositionalBindFailover -->
<g id="edge16" class="edge">
<title>Sequence&#45;&gt;PositionalBindFailover</title>
<path fill="none" stroke="#6666ff" d="M555.66,-251.95C559.8,-259.99 564.84,-269.8 569.46,-278.77"/>
<polygon fill="#6666ff" stroke="#6666ff" points="566.37,-280.43 574.06,-287.72 572.6,-277.23 566.37,-280.43"/>
</g>
<!-- RaceSeq -->
<g id="node9" class="node">
<title>RaceSeq</title>
<g id="a_node9"><a xlink:href="/type/RaceSeq" xlink:title="RaceSeq">
<ellipse fill="none" stroke="#000000" cx="463.95" cy="-162" rx="50.09" ry="18"/>
<text text-anchor="middle" x="463.95" y="-158.3" font-family="FreeSans" font-size="14.00" fill="#000000">RaceSeq</text>
</a>
</g>
</g>
<!-- RaceSeq&#45;&gt;Iterable -->
<g id="edge17" class="edge">
<title>RaceSeq&#45;&gt;Iterable</title>
<path fill="none" stroke="#6666ff" d="M447.01,-179.24C437.46,-188.4 425.36,-200 414.85,-210.08"/>
<polygon fill="#6666ff" stroke="#6666ff" points="412.33,-207.65 407.53,-217.09 417.17,-212.7 412.33,-207.65"/>
</g>
<!-- RaceSeq&#45;&gt;Any -->
<g id="edge4" class="edge">
<title>RaceSeq&#45;&gt;Any</title>
<path fill="none" stroke="#000000" d="M460.28,-180.16C454.76,-206.02 444.95,-252 444.95,-252 444.95,-252 440.39,-265.41 435.87,-278.73"/>
<polygon fill="#000000" stroke="#000000" points="432.54,-277.64 432.64,-288.23 439.17,-279.89 432.54,-277.64"/>
</g>
<!-- RaceSeq&#45;&gt;Sequence -->
<g id="edge18" class="edge">
<title>RaceSeq&#45;&gt;Sequence</title>
<path fill="none" stroke="#6666ff" d="M482.78,-178.88C493.84,-188.22 508.01,-200.16 520.21,-210.45"/>
<polygon fill="#6666ff" stroke="#6666ff" points="518,-213.16 527.9,-216.94 522.51,-207.81 518,-213.16"/>
</g>
<!-- Range -->
<g id="node10" class="node">
<title>Range</title>
<g id="a_node10"><a xlink:href="/type/Range" xlink:title="Range">
<ellipse fill="none" stroke="#000000" cx="166.95" cy="-162" rx="39.79" ry="18"/>
<text text-anchor="middle" x="166.95" y="-158.3" font-family="FreeSans" font-size="14.00" fill="#000000">Range</text>
</a>
</g>
</g>
<!-- Range&#45;&gt;Iterable -->
<g id="edge20" class="edge">
<title>Range&#45;&gt;Iterable</title>
<path fill="none" stroke="#6666ff" d="M198.92,-172.97C248.17,-188.32 336.95,-216 336.95,-216 336.95,-216 340.97,-217.27 346.82,-219.11"/>
<polygon fill="#6666ff" stroke="#6666ff" points="345.85,-222.47 356.44,-222.14 347.95,-215.8 345.85,-222.47"/>
</g>
<!-- Range&#45;&gt;Cool -->
<g id="edge5" class="edge">
<title>Range&#45;&gt;Cool</title>
<path fill="none" stroke="#000000" d="M164.23,-180.3C163.01,-188.02 161.56,-197.29 160.21,-205.89"/>
<polygon fill="#000000" stroke="#000000" points="156.73,-205.47 158.63,-215.9 163.64,-206.56 156.73,-205.47"/>
</g>
<!-- Range&#45;&gt;Positional -->
<g id="edge19" class="edge">
<title>Range&#45;&gt;Positional</title>
<path fill="none" stroke="#6666ff" d="M144.35,-177C127.97,-187.15 105.55,-201.03 87.13,-212.44"/>
<polygon fill="#6666ff" stroke="#6666ff" points="85.12,-209.57 78.46,-217.81 88.8,-215.52 85.12,-209.57"/>
</g>
<!-- Associative -->
<g id="node11" class="node">
<title>Associative</title>
<g id="a_node11"><a xlink:href="/type/Associative" xlink:title="Associative">
<ellipse fill="none" stroke="#6666ff" cx="265.95" cy="-234" rx="61.99" ry="18"/>
<text text-anchor="middle" x="265.95" y="-230.3" font-family="FreeSans" font-size="14.00" fill="#6666ff">Associative</text>
</a>
</g>
</g>
<!-- Map -->
<g id="node12" class="node">
<title>Map</title>
<g id="a_node12"><a xlink:href="/type/Map" xlink:title="Map">
<ellipse fill="none" stroke="#000000" cx="265.95" cy="-162" rx="29.8" ry="18"/>
<text text-anchor="middle" x="265.95" y="-158.3" font-family="FreeSans" font-size="14.00" fill="#000000">Map</text>
</a>
</g>
</g>
<!-- Map&#45;&gt;Iterable -->
<g id="edge21" class="edge">
<title>Map&#45;&gt;Iterable</title>
<path fill="none" stroke="#6666ff" d="M287.15,-174.87C306.25,-185.57 334.66,-201.48 356.94,-213.96"/>
<polygon fill="#6666ff" stroke="#6666ff" points="355.32,-217.06 365.75,-218.89 358.74,-210.95 355.32,-217.06"/>
</g>
<!-- Map&#45;&gt;Cool -->
<g id="edge6" class="edge">
<title>Map&#45;&gt;Cool</title>
<path fill="none" stroke="#000000" d="M246.03,-175.68C228.92,-186.56 204.05,-202.39 184.77,-214.65"/>
<polygon fill="#000000" stroke="#000000" points="182.65,-211.86 176.09,-220.18 186.4,-217.77 182.65,-211.86"/>
</g>
<!-- Map&#45;&gt;Associative -->
<g id="edge22" class="edge">
<title>Map&#45;&gt;Associative</title>
<path fill="none" stroke="#6666ff" d="M265.95,-180.3C265.95,-188.02 265.95,-197.29 265.95,-205.89"/>
<polygon fill="#6666ff" stroke="#6666ff" points="262.45,-205.9 265.95,-215.9 269.45,-205.9 262.45,-205.9"/>
</g>
<!-- Seq -->
<g id="node13" class="node">
<title>Seq</title>
<g id="a_node13"><a xlink:href="/type/Seq" xlink:title="Seq">
<ellipse fill="none" stroke="#000000" cx="367.95" cy="-162" rx="27.9" ry="18"/>
<text text-anchor="middle" x="367.95" y="-158.3" font-family="FreeSans" font-size="14.00" fill="#000000">Seq</text>
</a>
</g>
</g>
<!-- Seq&#45;&gt;Iterable -->
<g id="edge23" class="edge">
<title>Seq&#45;&gt;Iterable</title>
<path fill="none" stroke="#6666ff" d="M373.51,-179.95C376.1,-187.82 379.24,-197.38 382.14,-206.21"/>
<polygon fill="#6666ff" stroke="#6666ff" points="378.82,-207.32 385.27,-215.72 385.47,-205.13 378.82,-207.32"/>
</g>
<!-- Seq&#45;&gt;Cool -->
<g id="edge7" class="edge">
<title>Seq&#45;&gt;Cool</title>
<path fill="none" stroke="#000000" d="M343.16,-170.59C295.32,-185.25 194.95,-216 194.95,-216 194.95,-216 192.75,-216.96 189.4,-218.42"/>
<polygon fill="#000000" stroke="#000000" points="187.75,-215.32 179.98,-222.52 190.54,-221.74 187.75,-215.32"/>
</g>
<!-- Seq&#45;&gt;Sequence -->
<g id="edge24" class="edge">
<title>Seq&#45;&gt;Sequence</title>
<path fill="none" stroke="#6666ff" d="M390.32,-173.28C398.11,-176.86 404.95,-180 404.95,-180 404.95,-180 460.76,-200.83 502.4,-216.38"/>
<polygon fill="#6666ff" stroke="#6666ff" points="501.25,-219.68 511.84,-219.9 503.7,-213.12 501.25,-219.68"/>
</g>
<!-- HyperSeq -->
<g id="node14" class="node">
<title>HyperSeq</title>
<g id="a_node14"><a xlink:href="/type/HyperSeq" xlink:title="HyperSeq">
<ellipse fill="none" stroke="#000000" cx="586.95" cy="-162" rx="55.49" ry="18"/>
<text text-anchor="middle" x="586.95" y="-158.3" font-family="FreeSans" font-size="14.00" fill="#000000">HyperSeq</text>
</a>
</g>
</g>
<!-- HyperSeq&#45;&gt;Iterable -->
<g id="edge25" class="edge">
<title>HyperSeq&#45;&gt;Iterable</title>
<path fill="none" stroke="#6666ff" d="M551,-175.84C517.76,-187.71 468.35,-205.35 433.23,-217.9"/>
<polygon fill="#6666ff" stroke="#6666ff" points="431.97,-214.63 423.73,-221.29 434.33,-221.22 431.97,-214.63"/>
</g>
<!-- HyperSeq&#45;&gt;Any -->
<g id="edge8" class="edge">
<title>HyperSeq&#45;&gt;Any</title>
<path fill="none" stroke="#000000" d="M594.67,-180.06C601.69,-195.55 610.95,-216 610.95,-216 610.95,-216 610.95,-252 610.95,-252 610.95,-252 464.95,-288 464.95,-288 464.95,-288 462.51,-289.09 458.88,-290.71"/>
<polygon fill="#000000" stroke="#000000" points="457.19,-287.64 449.49,-294.91 460.05,-294.03 457.19,-287.64"/>
</g>
<!-- HyperSeq&#45;&gt;Sequence -->
<g id="edge26" class="edge">
<title>HyperSeq&#45;&gt;Sequence</title>
<path fill="none" stroke="#6666ff" d="M577.26,-179.95C572.55,-188.2 566.77,-198.3 561.54,-207.46"/>
<polygon fill="#6666ff" stroke="#6666ff" points="558.46,-205.79 556.54,-216.21 564.54,-209.27 558.46,-205.79"/>
</g>
<!-- Array -->
<g id="node15" class="node">
<title>Array</title>
<g id="a_node15"><a xlink:href="/type/Array" xlink:title="Array">
<ellipse fill="none" stroke="#000000" cx="41.95" cy="-90" rx="36" ry="18"/>
<text text-anchor="middle" x="41.95" y="-86.3" font-family="FreeSans" font-size="14.00" fill="#000000">Array</text>
</a>
</g>
</g>
<!-- Array&#45;&gt;List -->
<g id="edge9" class="edge">
<title>Array&#45;&gt;List</title>
<path fill="none" stroke="#000000" d="M51.42,-107.59C56.28,-116.08 62.28,-126.59 67.68,-136.04"/>
<polygon fill="#000000" stroke="#000000" points="64.81,-138.07 72.81,-145.01 70.89,-134.59 64.81,-138.07"/>
</g>
<!-- Slip -->
<g id="node16" class="node">
<title>Slip</title>
<g id="a_node16"><a xlink:href="/type/Slip" xlink:title="Slip">
<ellipse fill="none" stroke="#000000" cx="122.95" cy="-90" rx="27.1" ry="18"/>
<text text-anchor="middle" x="122.95" y="-86.3" font-family="FreeSans" font-size="14.00" fill="#000000">Slip</text>
</a>
</g>
</g>
<!-- Slip&#45;&gt;List -->
<g id="edge10" class="edge">
<title>Slip&#45;&gt;List</title>
<path fill="none" stroke="#000000" d="M113.44,-107.24C108.42,-115.81 102.15,-126.51 96.53,-136.1"/>
<polygon fill="#000000" stroke="#000000" points="93.44,-134.45 91.4,-144.85 99.48,-137.99 93.44,-134.45"/>
</g>
<!-- Hash -->
<g id="node17" class="node">
<title>Hash</title>
<g id="a_node17"><a xlink:href="/type/Hash" xlink:title="Hash">
<ellipse fill="none" stroke="#000000" cx="238.95" cy="-90" rx="33.6" ry="18"/>
<text text-anchor="middle" x="238.95" y="-86.3" font-family="FreeSans" font-size="14.00" fill="#000000">Hash</text>
</a>
</g>
</g>
<!-- Hash&#45;&gt;Map -->
<g id="edge11" class="edge">
<title>Hash&#45;&gt;Map</title>
<path fill="none" stroke="#000000" d="M245.48,-107.95C248.57,-115.94 252.32,-125.67 255.76,-134.6"/>
<polygon fill="#000000" stroke="#000000" points="252.61,-136.14 259.47,-144.21 259.14,-133.62 252.61,-136.14"/>
</g>
<!-- PseudoStash -->
<g id="node18" class="node">
<title>PseudoStash</title>
<g id="a_node18"><a xlink:href="/type/PseudoStash" xlink:title="PseudoStash">
<ellipse fill="none" stroke="#000000" cx="359.95" cy="-90" rx="68.79" ry="18"/>
<text text-anchor="middle" x="359.95" y="-86.3" font-family="FreeSans" font-size="14.00" fill="#000000">PseudoStash</text>
</a>
</g>
</g>
<!-- PseudoStash&#45;&gt;Map -->
<g id="edge12" class="edge">
<title>PseudoStash&#45;&gt;Map</title>
<path fill="none" stroke="#000000" d="M338.14,-107.24C324.45,-117.43 306.71,-130.64 292.24,-141.42"/>
<polygon fill="#000000" stroke="#000000" points="290.08,-138.66 284.15,-147.44 294.26,-144.28 290.08,-138.66"/>
</g>
<!-- Stash -->
<g id="node19" class="node">
<title>Stash</title>
<g id="a_node19"><a xlink:href="/type/Stash" xlink:title="Stash">
<ellipse fill="none" stroke="#000000" cx="238.95" cy="-18" rx="36.29" ry="18"/>
<text text-anchor="middle" x="238.95" y="-14.3" font-family="FreeSans" font-size="14.00" fill="#000000">Stash</text>
</a>
</g>
</g>
<!-- Stash&#45;&gt;Hash -->
<g id="edge13" class="edge">
<title>Stash&#45;&gt;Hash</title>
<path fill="none" stroke="#000000" d="M238.95,-36.3C238.95,-44.02 238.95,-53.29 238.95,-61.89"/>
<polygon fill="#000000" stroke="#000000" points="235.45,-61.9 238.95,-71.9 242.45,-61.9 235.45,-61.9"/>
</g>
</g>
</svg>
