<?xml version="1.0" encoding="UTF-8" standalone="no"?>
<!DOCTYPE svg PUBLIC "-//W3C//DTD SVG 1.1//EN"
 "http://www.w3.org/Graphics/SVG/1.1/DTD/svg11.dtd">
<!-- Generated by graphviz version 2.42.3 (0)
 -->
<!-- Title: perl6&#45;type&#45;graph Pages: 1 -->
<svg width="89pt" height="332pt"
 viewBox="0.00 0.00 88.59 332.00" xmlns="http://www.w3.org/2000/svg" xmlns:xlink="http://www.w3.org/1999/xlink">
<g id="graph0" class="graph" transform="scale(1 1) rotate(0) translate(4 328)">
<title>perl6&#45;type&#45;graph</title>
<polygon fill="white" stroke="transparent" points="-4,4 -4,-328 84.59,-328 84.59,4 -4,4"/>
<!-- Failure -->
<g id="node1" class="node">
<title>Failure</title>
<g id="a_node1"><a xlink:href="/type/Failure" xlink:title="Failure">
<ellipse fill="none" stroke="#000000" cx="40.3" cy="-18" rx="40.09" ry="18"/>
<text text-anchor="middle" x="40.3" y="-14.3" font-family="FreeSans" font-size="14.00" fill="#000000">Failure</text>
</a>
</g>
</g>
<!-- Nil -->
<g id="node5" class="node">
<title>Nil</title>
<g id="a_node5"><a xlink:href="/type/Nil" xlink:title="Nil">
<ellipse fill="none" stroke="#000000" cx="40.3" cy="-90" rx="27" ry="18"/>
<text text-anchor="middle" x="40.3" y="-86.3" font-family="FreeSans" font-size="14.00" fill="#000000">Nil</text>
</a>
</g>
</g>
<!-- Failure&#45;&gt;Nil -->
<g id="edge1" class="edge">
<title>Failure&#45;&gt;Nil</title>
<path fill="none" stroke="#000000" d="M40.3,-36.3C40.3,-44.02 40.3,-53.29 40.3,-61.89"/>
<polygon fill="#000000" stroke="#000000" points="36.8,-61.9 40.3,-71.9 43.8,-61.9 36.8,-61.9"/>
</g>
<!-- Mu -->
<g id="node2" class="node">
<title>Mu</title>
<g id="a_node2"><a xlink:href="/type/Mu" xlink:title="Mu">
<ellipse fill="none" stroke="#000000" cx="40.3" cy="-306" rx="27" ry="18"/>
<text text-anchor="middle" x="40.3" y="-302.3" font-family="FreeSans" font-size="14.00" fill="#000000">Mu</text>
</a>
</g>
</g>
<!-- Any -->
<g id="node3" class="node">
<title>Any</title>
<g id="a_node3"><a xlink:href="/type/Any" xlink:title="Any">
<ellipse fill="none" stroke="#000000" cx="40.3" cy="-234" rx="28.7" ry="18"/>
<text text-anchor="middle" x="40.3" y="-230.3" font-family="FreeSans" font-size="14.00" fill="#000000">Any</text>
</a>
</g>
</g>
<!-- Any&#45;&gt;Mu -->
<g id="edge2" class="edge">
<title>Any&#45;&gt;Mu</title>
<path fill="none" stroke="#000000" d="M40.3,-252.3C40.3,-260.02 40.3,-269.29 40.3,-277.89"/>
<polygon fill="#000000" stroke="#000000" points="36.8,-277.9 40.3,-287.9 43.8,-277.9 36.8,-277.9"/>
</g>
<!-- Cool -->
<g id="node4" class="node">
<title>Cool</title>
<g id="a_node4"><a xlink:href="/type/Cool" xlink:title="Cool">
<ellipse fill="none" stroke="#000000" cx="40.3" cy="-162" rx="30.59" ry="18"/>
<text text-anchor="middle" x="40.3" y="-158.3" font-family="FreeSans" font-size="14.00" fill="#000000">Cool</text>
</a>
</g>
</g>
<!-- Cool&#45;&gt;Any -->
<g id="edge3" class="edge">
<title>Cool&#45;&gt;Any</title>
<path fill="none" stroke="#000000" d="M40.3,-180.3C40.3,-188.02 40.3,-197.29 40.3,-205.89"/>
<polygon fill="#000000" stroke="#000000" points="36.8,-205.9 40.3,-215.9 43.8,-205.9 36.8,-205.9"/>
</g>
<!-- Nil&#45;&gt;Cool -->
<g id="edge4" class="edge">
<title>Nil&#45;&gt;Cool</title>
<path fill="none" stroke="#000000" d="M40.3,-108.3C40.3,-116.02 40.3,-125.29 40.3,-133.89"/>
<polygon fill="#000000" stroke="#000000" points="36.8,-133.9 40.3,-143.9 43.8,-133.9 36.8,-133.9"/>
</g>
</g>
</svg>
