<?xml version="1.0" encoding="UTF-8" standalone="no"?>
<!DOCTYPE svg PUBLIC "-//W3C//DTD SVG 1.1//EN"
 "http://www.w3.org/Graphics/SVG/1.1/DTD/svg11.dtd">
<!-- Generated by graphviz version 2.42.3 (0)
 -->
<!-- Title: perl6&#45;type&#45;graph Pages: 1 -->
<svg width="195pt" height="332pt"
 viewBox="0.00 0.00 195.18 332.00" xmlns="http://www.w3.org/2000/svg" xmlns:xlink="http://www.w3.org/1999/xlink">
<g id="graph0" class="graph" transform="scale(1 1) rotate(0) translate(4 328)">
<title>perl6&#45;type&#45;graph</title>
<polygon fill="white" stroke="transparent" points="-4,4 -4,-328 191.18,-328 191.18,4 -4,4"/>
<!-- X::Anon::Augment -->
<g id="node1" class="node">
<title>X::Anon::Augment</title>
<g id="a_node1"><a xlink:href="/type/X::Anon::Augment" xlink:title="X::Anon::Augment">
<ellipse fill="none" stroke="#000000" cx="93.59" cy="-18" rx="93.68" ry="18"/>
<text text-anchor="middle" x="93.59" y="-14.3" font-family="FreeSans" font-size="14.00" fill="#000000">X::Anon::Augment</text>
</a>
</g>
</g>
<!-- Exception -->
<g id="node4" class="node">
<title>Exception</title>
<g id="a_node4"><a xlink:href="/type/Exception" xlink:title="Exception">
<ellipse fill="none" stroke="#000000" cx="93.59" cy="-162" rx="55.49" ry="18"/>
<text text-anchor="middle" x="93.59" y="-158.3" font-family="FreeSans" font-size="14.00" fill="#000000">Exception</text>
</a>
</g>
</g>
<!-- X::Anon::Augment&#45;&gt;Exception -->
<g id="edge1" class="edge">
<title>X::Anon::Augment&#45;&gt;Exception</title>
<path fill="none" stroke="#000000" d="M87.48,-36.06C81.92,-51.55 74.59,-72 74.59,-72 74.59,-72 74.59,-108 74.59,-108 74.59,-108 79.34,-121.24 84.09,-134.48"/>
<polygon fill="#000000" stroke="#000000" points="80.81,-135.71 87.48,-143.94 87.4,-133.34 80.81,-135.71"/>
</g>
<!-- X::Comp -->
<g id="node5" class="node">
<title>X::Comp</title>
<g id="a_node5"><a xlink:href="/type/X::Comp" xlink:title="X::Comp">
<ellipse fill="none" stroke="#6666ff" cx="132.59" cy="-90" rx="49.29" ry="18"/>
<text text-anchor="middle" x="132.59" y="-86.3" font-family="FreeSans" font-size="14.00" fill="#6666ff">X::Comp</text>
</a>
</g>
</g>
<!-- X::Anon::Augment&#45;&gt;X::Comp -->
<g id="edge5" class="edge">
<title>X::Anon::Augment&#45;&gt;X::Comp</title>
<path fill="none" stroke="#6666ff" d="M103.03,-35.95C107.63,-44.2 113.26,-54.3 118.36,-63.46"/>
<polygon fill="#6666ff" stroke="#6666ff" points="115.31,-65.18 123.24,-72.21 121.43,-61.77 115.31,-65.18"/>
</g>
<!-- Mu -->
<g id="node2" class="node">
<title>Mu</title>
<g id="a_node2"><a xlink:href="/type/Mu" xlink:title="Mu">
<ellipse fill="none" stroke="#000000" cx="93.59" cy="-306" rx="27" ry="18"/>
<text text-anchor="middle" x="93.59" y="-302.3" font-family="FreeSans" font-size="14.00" fill="#000000">Mu</text>
</a>
</g>
</g>
<!-- Any -->
<g id="node3" class="node">
<title>Any</title>
<g id="a_node3"><a xlink:href="/type/Any" xlink:title="Any">
<ellipse fill="none" stroke="#000000" cx="93.59" cy="-234" rx="28.7" ry="18"/>
<text text-anchor="middle" x="93.59" y="-230.3" font-family="FreeSans" font-size="14.00" fill="#000000">Any</text>
</a>
</g>
</g>
<!-- Any&#45;&gt;Mu -->
<g id="edge2" class="edge">
<title>Any&#45;&gt;Mu</title>
<path fill="none" stroke="#000000" d="M93.59,-252.3C93.59,-260.02 93.59,-269.29 93.59,-277.89"/>
<polygon fill="#000000" stroke="#000000" points="90.09,-277.9 93.59,-287.9 97.09,-277.9 90.09,-277.9"/>
</g>
<!-- Exception&#45;&gt;Any -->
<g id="edge3" class="edge">
<title>Exception&#45;&gt;Any</title>
<path fill="none" stroke="#000000" d="M93.59,-180.3C93.59,-188.02 93.59,-197.29 93.59,-205.89"/>
<polygon fill="#000000" stroke="#000000" points="90.09,-205.9 93.59,-215.9 97.09,-205.9 90.09,-205.9"/>
</g>
<!-- X::Comp&#45;&gt;Exception -->
<g id="edge4" class="edge">
<title>X::Comp&#45;&gt;Exception</title>
<path fill="none" stroke="#000000" d="M123.15,-107.95C118.55,-116.2 112.93,-126.3 107.82,-135.46"/>
<polygon fill="#000000" stroke="#000000" points="104.76,-133.77 102.95,-144.21 110.87,-137.18 104.76,-133.77"/>
</g>
</g>
</svg>
