<?xml version="1.0" encoding="UTF-8" standalone="no"?>
<!DOCTYPE svg PUBLIC "-//W3C//DTD SVG 1.1//EN"
 "http://www.w3.org/Graphics/SVG/1.1/DTD/svg11.dtd">
<!-- Generated by graphviz version 2.42.3 (0)
 -->
<!-- Title: perl6&#45;type&#45;graph Pages: 1 -->
<svg width="321pt" height="404pt"
 viewBox="0.00 0.00 321.27 404.00" xmlns="http://www.w3.org/2000/svg" xmlns:xlink="http://www.w3.org/1999/xlink">
<g id="graph0" class="graph" transform="scale(1 1) rotate(0) translate(4 400)">
<title>perl6&#45;type&#45;graph</title>
<polygon fill="white" stroke="transparent" points="-4,4 -4,-400 317.27,-400 317.27,4 -4,4"/>
<!-- X::Syntax::Regex::Unterminated -->
<g id="node1" class="node">
<title>X::Syntax::Regex::Unterminated</title>
<g id="a_node1"><a xlink:href="/type/X::Syntax::Regex::Unterminated" xlink:title="X::Syntax::Regex::Unterminated">
<ellipse fill="none" stroke="#000000" cx="156.64" cy="-18" rx="156.77" ry="18"/>
<text text-anchor="middle" x="156.64" y="-14.3" font-family="FreeSans" font-size="14.00" fill="#000000">X::Syntax::Regex::Unterminated</text>
</a>
</g>
</g>
<!-- Exception -->
<g id="node4" class="node">
<title>Exception</title>
<g id="a_node4"><a xlink:href="/type/Exception" xlink:title="Exception">
<ellipse fill="none" stroke="#000000" cx="153.64" cy="-234" rx="55.49" ry="18"/>
<text text-anchor="middle" x="153.64" y="-230.3" font-family="FreeSans" font-size="14.00" fill="#000000">Exception</text>
</a>
</g>
</g>
<!-- X::Syntax::Regex::Unterminated&#45;&gt;Exception -->
<g id="edge1" class="edge">
<title>X::Syntax::Regex::Unterminated&#45;&gt;Exception</title>
<path fill="none" stroke="#000000" d="M149.55,-36.06C143.12,-51.55 134.64,-72 134.64,-72 134.64,-72 134.64,-108 134.64,-108 134.64,-108 143.91,-169.01 149.5,-205.78"/>
<polygon fill="#000000" stroke="#000000" points="146.07,-206.52 151.03,-215.88 152.99,-205.47 146.07,-206.52"/>
</g>
<!-- X::Syntax -->
<g id="node6" class="node">
<title>X::Syntax</title>
<g id="a_node6"><a xlink:href="/type/X::Syntax" xlink:title="X::Syntax">
<ellipse fill="none" stroke="#6666ff" cx="197.64" cy="-90" rx="53.89" ry="18"/>
<text text-anchor="middle" x="197.64" y="-86.3" font-family="FreeSans" font-size="14.00" fill="#6666ff">X::Syntax</text>
</a>
</g>
</g>
<!-- X::Syntax::Regex::Unterminated&#45;&gt;X::Syntax -->
<g id="edge6" class="edge">
<title>X::Syntax::Regex::Unterminated&#45;&gt;X::Syntax</title>
<path fill="none" stroke="#6666ff" d="M166.77,-36.3C171.49,-44.36 177.2,-54.11 182.42,-63.02"/>
<polygon fill="#6666ff" stroke="#6666ff" points="179.54,-65.04 187.62,-71.9 185.58,-61.5 179.54,-65.04"/>
</g>
<!-- Mu -->
<g id="node2" class="node">
<title>Mu</title>
<g id="a_node2"><a xlink:href="/type/Mu" xlink:title="Mu">
<ellipse fill="none" stroke="#000000" cx="153.64" cy="-378" rx="27" ry="18"/>
<text text-anchor="middle" x="153.64" y="-374.3" font-family="FreeSans" font-size="14.00" fill="#000000">Mu</text>
</a>
</g>
</g>
<!-- Any -->
<g id="node3" class="node">
<title>Any</title>
<g id="a_node3"><a xlink:href="/type/Any" xlink:title="Any">
<ellipse fill="none" stroke="#000000" cx="153.64" cy="-306" rx="28.7" ry="18"/>
<text text-anchor="middle" x="153.64" y="-302.3" font-family="FreeSans" font-size="14.00" fill="#000000">Any</text>
</a>
</g>
</g>
<!-- Any&#45;&gt;Mu -->
<g id="edge2" class="edge">
<title>Any&#45;&gt;Mu</title>
<path fill="none" stroke="#000000" d="M153.64,-324.3C153.64,-332.02 153.64,-341.29 153.64,-349.89"/>
<polygon fill="#000000" stroke="#000000" points="150.14,-349.9 153.64,-359.9 157.14,-349.9 150.14,-349.9"/>
</g>
<!-- Exception&#45;&gt;Any -->
<g id="edge3" class="edge">
<title>Exception&#45;&gt;Any</title>
<path fill="none" stroke="#000000" d="M153.64,-252.3C153.64,-260.02 153.64,-269.29 153.64,-277.89"/>
<polygon fill="#000000" stroke="#000000" points="150.14,-277.9 153.64,-287.9 157.14,-277.9 150.14,-277.9"/>
</g>
<!-- X::Comp -->
<g id="node5" class="node">
<title>X::Comp</title>
<g id="a_node5"><a xlink:href="/type/X::Comp" xlink:title="X::Comp">
<ellipse fill="none" stroke="#6666ff" cx="230.64" cy="-162" rx="49.29" ry="18"/>
<text text-anchor="middle" x="230.64" y="-158.3" font-family="FreeSans" font-size="14.00" fill="#6666ff">X::Comp</text>
</a>
</g>
</g>
<!-- X::Comp&#45;&gt;Exception -->
<g id="edge4" class="edge">
<title>X::Comp&#45;&gt;Exception</title>
<path fill="none" stroke="#000000" d="M213.16,-178.88C203,-188.13 190.01,-199.93 178.76,-210.16"/>
<polygon fill="#000000" stroke="#000000" points="176.35,-207.62 171.31,-216.94 181.06,-212.8 176.35,-207.62"/>
</g>
<!-- X::Syntax&#45;&gt;Exception -->
<g id="edge5" class="edge">
<title>X::Syntax&#45;&gt;Exception</title>
<path fill="none" stroke="#000000" d="M189.59,-108.06C182.28,-123.55 172.64,-144 172.64,-144 172.64,-144 164.99,-179.83 159.39,-206.03"/>
<polygon fill="#000000" stroke="#000000" points="155.96,-205.33 157.3,-215.84 162.81,-206.79 155.96,-205.33"/>
</g>
<!-- X::Syntax&#45;&gt;X::Comp -->
<g id="edge7" class="edge">
<title>X::Syntax&#45;&gt;X::Comp</title>
<path fill="none" stroke="#6666ff" d="M205.62,-107.95C209.43,-116.03 214.08,-125.88 218.33,-134.89"/>
<polygon fill="#6666ff" stroke="#6666ff" points="215.29,-136.66 222.72,-144.21 221.62,-133.67 215.29,-136.66"/>
</g>
</g>
</svg>
