<?xml version="1.0" encoding="UTF-8" standalone="no"?>
<!DOCTYPE svg PUBLIC "-//W3C//DTD SVG 1.1//EN"
 "http://www.w3.org/Graphics/SVG/1.1/DTD/svg11.dtd">
<!-- Generated by graphviz version 2.42.3 (0)
 -->
<!-- Title: perl6&#45;type&#45;graph Pages: 1 -->
<svg width="1852pt" height="332pt"
 viewBox="0.00 0.00 1851.52 332.00" xmlns="http://www.w3.org/2000/svg" xmlns:xlink="http://www.w3.org/1999/xlink">
<g id="graph0" class="graph" transform="scale(1 1) rotate(0) translate(4 328)">
<title>perl6&#45;type&#45;graph</title>
<polygon fill="white" stroke="transparent" points="-4,4 -4,-328 1847.52,-328 1847.52,4 -4,4"/>
<!-- X::Proc::Async -->
<g id="node1" class="node">
<title>X::Proc::Async</title>
<g id="a_node1"><a xlink:href="/type/X::Proc::Async" xlink:title="X::Proc::Async">
<ellipse fill="none" stroke="#6666ff" cx="928.99" cy="-90" rx="75.29" ry="18"/>
<text text-anchor="middle" x="928.99" y="-86.3" font-family="FreeSans" font-size="14.00" fill="#6666ff">X::Proc::Async</text>
</a>
</g>
</g>
<!-- Exception -->
<g id="node4" class="node">
<title>Exception</title>
<g id="a_node4"><a xlink:href="/type/Exception" xlink:title="Exception">
<ellipse fill="none" stroke="#000000" cx="928.99" cy="-162" rx="55.49" ry="18"/>
<text text-anchor="middle" x="928.99" y="-158.3" font-family="FreeSans" font-size="14.00" fill="#000000">Exception</text>
</a>
</g>
</g>
<!-- X::Proc::Async&#45;&gt;Exception -->
<g id="edge1" class="edge">
<title>X::Proc::Async&#45;&gt;Exception</title>
<path fill="none" stroke="#000000" d="M928.99,-108.3C928.99,-116.02 928.99,-125.29 928.99,-133.89"/>
<polygon fill="#000000" stroke="#000000" points="925.49,-133.9 928.99,-143.9 932.49,-133.9 925.49,-133.9"/>
</g>
<!-- Mu -->
<g id="node2" class="node">
<title>Mu</title>
<g id="a_node2"><a xlink:href="/type/Mu" xlink:title="Mu">
<ellipse fill="none" stroke="#000000" cx="928.99" cy="-306" rx="27" ry="18"/>
<text text-anchor="middle" x="928.99" y="-302.3" font-family="FreeSans" font-size="14.00" fill="#000000">Mu</text>
</a>
</g>
</g>
<!-- Any -->
<g id="node3" class="node">
<title>Any</title>
<g id="a_node3"><a xlink:href="/type/Any" xlink:title="Any">
<ellipse fill="none" stroke="#000000" cx="928.99" cy="-234" rx="28.7" ry="18"/>
<text text-anchor="middle" x="928.99" y="-230.3" font-family="FreeSans" font-size="14.00" fill="#000000">Any</text>
</a>
</g>
</g>
<!-- Any&#45;&gt;Mu -->
<g id="edge2" class="edge">
<title>Any&#45;&gt;Mu</title>
<path fill="none" stroke="#000000" d="M928.99,-252.3C928.99,-260.02 928.99,-269.29 928.99,-277.89"/>
<polygon fill="#000000" stroke="#000000" points="925.49,-277.9 928.99,-287.9 932.49,-277.9 925.49,-277.9"/>
</g>
<!-- Exception&#45;&gt;Any -->
<g id="edge3" class="edge">
<title>Exception&#45;&gt;Any</title>
<path fill="none" stroke="#000000" d="M928.99,-180.3C928.99,-188.02 928.99,-197.29 928.99,-205.89"/>
<polygon fill="#000000" stroke="#000000" points="925.49,-205.9 928.99,-215.9 932.49,-205.9 925.49,-205.9"/>
</g>
<!-- X::Proc::Async::TapBeforeSpawn -->
<g id="node5" class="node">
<title>X::Proc::Async::TapBeforeSpawn</title>
<g id="a_node5"><a xlink:href="/type/X::Proc::Async::TapBeforeSpawn" xlink:title="X::Proc::Async::TapBeforeSpawn">
<ellipse fill="none" stroke="#000000" cx="155.99" cy="-18" rx="155.97" ry="18"/>
<text text-anchor="middle" x="155.99" y="-14.3" font-family="FreeSans" font-size="14.00" fill="#000000">X::Proc::Async::TapBeforeSpawn</text>
</a>
</g>
</g>
<!-- X::Proc::Async::TapBeforeSpawn&#45;&gt;X::Proc::Async -->
<g id="edge10" class="edge">
<title>X::Proc::Async::TapBeforeSpawn&#45;&gt;X::Proc::Async</title>
<path fill="none" stroke="#6666ff" d="M268.33,-30.57C297.54,-33.58 320.99,-36 320.99,-36 320.99,-36 684.62,-67.7 849.45,-82.07"/>
<polygon fill="#6666ff" stroke="#6666ff" points="849.27,-85.56 859.54,-82.95 849.88,-78.59 849.27,-85.56"/>
</g>
<!-- X::Proc::Async::TapBeforeSpawn&#45;&gt;Exception -->
<g id="edge4" class="edge">
<title>X::Proc::Async::TapBeforeSpawn&#45;&gt;Exception</title>
<path fill="none" stroke="#000000" d="M234.55,-33.6C370.44,-58.85 634.99,-108 634.99,-108 634.99,-108 786.11,-135.24 871.66,-150.67"/>
<polygon fill="#000000" stroke="#000000" points="871.29,-154.15 881.75,-152.48 872.53,-147.27 871.29,-154.15"/>
</g>
<!-- X::Proc::Async::BindOrUse -->
<g id="node6" class="node">
<title>X::Proc::Async::BindOrUse</title>
<g id="a_node6"><a xlink:href="/type/X::Proc::Async::BindOrUse" xlink:title="X::Proc::Async::BindOrUse">
<ellipse fill="none" stroke="#000000" cx="459.99" cy="-18" rx="129.98" ry="18"/>
<text text-anchor="middle" x="459.99" y="-14.3" font-family="FreeSans" font-size="14.00" fill="#000000">X::Proc::Async::BindOrUse</text>
</a>
</g>
</g>
<!-- X::Proc::Async::BindOrUse&#45;&gt;X::Proc::Async -->
<g id="edge11" class="edge">
<title>X::Proc::Async::BindOrUse&#45;&gt;X::Proc::Async</title>
<path fill="none" stroke="#6666ff" d="M544.92,-31.68C634.08,-44.98 772.75,-65.68 856.8,-78.23"/>
<polygon fill="#6666ff" stroke="#6666ff" points="856.37,-81.7 866.78,-79.72 857.4,-74.78 856.37,-81.7"/>
</g>
<!-- X::Proc::Async::BindOrUse&#45;&gt;Exception -->
<g id="edge5" class="edge">
<title>X::Proc::Async::BindOrUse&#45;&gt;Exception</title>
<path fill="none" stroke="#000000" d="M511.52,-34.6C602.69,-62.21 791.18,-119.28 880.29,-146.26"/>
<polygon fill="#000000" stroke="#000000" points="879.3,-149.61 889.88,-149.16 881.32,-142.91 879.3,-149.61"/>
</g>
<!-- X::Proc::Async::AlreadyStarted -->
<g id="node7" class="node">
<title>X::Proc::Async::AlreadyStarted</title>
<g id="a_node7"><a xlink:href="/type/X::Proc::Async::AlreadyStarted" xlink:title="X::Proc::Async::AlreadyStarted">
<ellipse fill="none" stroke="#000000" cx="755.99" cy="-18" rx="148.37" ry="18"/>
<text text-anchor="middle" x="755.99" y="-14.3" font-family="FreeSans" font-size="14.00" fill="#000000">X::Proc::Async::AlreadyStarted</text>
</a>
</g>
</g>
<!-- X::Proc::Async::AlreadyStarted&#45;&gt;X::Proc::Async -->
<g id="edge12" class="edge">
<title>X::Proc::Async::AlreadyStarted&#45;&gt;X::Proc::Async</title>
<path fill="none" stroke="#6666ff" d="M796.55,-35.41C822.43,-45.89 856.05,-59.49 882.93,-70.37"/>
<polygon fill="#6666ff" stroke="#6666ff" points="881.92,-73.73 892.51,-74.24 884.55,-67.24 881.92,-73.73"/>
</g>
<!-- X::Proc::Async::AlreadyStarted&#45;&gt;Exception -->
<g id="edge6" class="edge">
<title>X::Proc::Async::AlreadyStarted&#45;&gt;Exception</title>
<path fill="none" stroke="#000000" d="M773.15,-36.16C799.01,-62.02 844.99,-108 844.99,-108 844.99,-108 872.42,-125.31 895.94,-140.15"/>
<polygon fill="#000000" stroke="#000000" points="894.36,-143.29 904.69,-145.67 898.1,-137.37 894.36,-143.29"/>
</g>
<!-- X::Proc::Async::OpenForWriting -->
<g id="node8" class="node">
<title>X::Proc::Async::OpenForWriting</title>
<g id="a_node8"><a xlink:href="/type/X::Proc::Async::OpenForWriting" xlink:title="X::Proc::Async::OpenForWriting">
<ellipse fill="none" stroke="#000000" cx="1073.99" cy="-18" rx="151.37" ry="18"/>
<text text-anchor="middle" x="1073.99" y="-14.3" font-family="FreeSans" font-size="14.00" fill="#000000">X::Proc::Async::OpenForWriting</text>
</a>
</g>
</g>
<!-- X::Proc::Async::OpenForWriting&#45;&gt;X::Proc::Async -->
<g id="edge13" class="edge">
<title>X::Proc::Async::OpenForWriting&#45;&gt;X::Proc::Async</title>
<path fill="none" stroke="#6666ff" d="M1039.62,-35.59C1018.81,-45.64 992.14,-58.51 970.2,-69.1"/>
<polygon fill="#6666ff" stroke="#6666ff" points="968.6,-65.99 961.12,-73.49 971.64,-72.29 968.6,-65.99"/>
</g>
<!-- X::Proc::Async::OpenForWriting&#45;&gt;Exception -->
<g id="edge7" class="edge">
<title>X::Proc::Async::OpenForWriting&#45;&gt;Exception</title>
<path fill="none" stroke="#000000" d="M1062.22,-36.16C1044.5,-62.02 1012.99,-108 1012.99,-108 1012.99,-108 985.55,-125.31 962.04,-140.15"/>
<polygon fill="#000000" stroke="#000000" points="959.87,-137.37 953.28,-145.67 963.61,-143.29 959.87,-137.37"/>
</g>
<!-- X::Proc::Async::CharsOrBytes -->
<g id="node9" class="node">
<title>X::Proc::Async::CharsOrBytes</title>
<g id="a_node9"><a xlink:href="/type/X::Proc::Async::CharsOrBytes" xlink:title="X::Proc::Async::CharsOrBytes">
<ellipse fill="none" stroke="#000000" cx="1386.99" cy="-18" rx="143.77" ry="18"/>
<text text-anchor="middle" x="1386.99" y="-14.3" font-family="FreeSans" font-size="14.00" fill="#000000">X::Proc::Async::CharsOrBytes</text>
</a>
</g>
</g>
<!-- X::Proc::Async::CharsOrBytes&#45;&gt;X::Proc::Async -->
<g id="edge14" class="edge">
<title>X::Proc::Async::CharsOrBytes&#45;&gt;X::Proc::Async</title>
<path fill="none" stroke="#6666ff" d="M1299.76,-32.33C1213.02,-45.59 1081.54,-65.68 1000.69,-78.04"/>
<polygon fill="#6666ff" stroke="#6666ff" points="999.95,-74.61 990.6,-79.58 1001.01,-81.53 999.95,-74.61"/>
</g>
<!-- X::Proc::Async::CharsOrBytes&#45;&gt;Exception -->
<g id="edge8" class="edge">
<title>X::Proc::Async::CharsOrBytes&#45;&gt;Exception</title>
<path fill="none" stroke="#000000" d="M1335.78,-34.88C1246.66,-62.51 1064.26,-119.06 977.25,-146.04"/>
<polygon fill="#000000" stroke="#000000" points="976.14,-142.72 967.62,-149.02 978.21,-149.4 976.14,-142.72"/>
</g>
<!-- X::Proc::Async::MustBeStarted -->
<g id="node10" class="node">
<title>X::Proc::Async::MustBeStarted</title>
<g id="a_node10"><a xlink:href="/type/X::Proc::Async::MustBeStarted" xlink:title="X::Proc::Async::MustBeStarted">
<ellipse fill="none" stroke="#000000" cx="1695.99" cy="-18" rx="147.57" ry="18"/>
<text text-anchor="middle" x="1695.99" y="-14.3" font-family="FreeSans" font-size="14.00" fill="#000000">X::Proc::Async::MustBeStarted</text>
</a>
</g>
</g>
<!-- X::Proc::Async::MustBeStarted&#45;&gt;X::Proc::Async -->
<g id="edge15" class="edge">
<title>X::Proc::Async::MustBeStarted&#45;&gt;X::Proc::Async</title>
<path fill="none" stroke="#6666ff" d="M1589.77,-30.57C1562.15,-33.58 1539.99,-36 1539.99,-36 1539.99,-36 1174.1,-67.74 1008.61,-82.09"/>
<polygon fill="#6666ff" stroke="#6666ff" points="1008.14,-78.62 998.48,-82.97 1008.75,-85.59 1008.14,-78.62"/>
</g>
<!-- X::Proc::Async::MustBeStarted&#45;&gt;Exception -->
<g id="edge9" class="edge">
<title>X::Proc::Async::MustBeStarted&#45;&gt;Exception</title>
<path fill="none" stroke="#000000" d="M1618.58,-33.33C1464.36,-61.88 1121.97,-125.27 986.13,-150.42"/>
<polygon fill="#000000" stroke="#000000" points="985.13,-147.05 975.94,-152.31 986.41,-153.93 985.13,-147.05"/>
</g>
</g>
</svg>
