<?xml version="1.0" encoding="UTF-8" standalone="no"?>
<!DOCTYPE svg PUBLIC "-//W3C//DTD SVG 1.1//EN"
 "http://www.w3.org/Graphics/SVG/1.1/DTD/svg11.dtd">
<!-- Generated by graphviz version 2.42.3 (0)
 -->
<!-- Title: perl6&#45;type&#45;graph Pages: 1 -->
<svg width="1856pt" height="2139pt"
 viewBox="0.00 0.00 1855.86 2138.95" xmlns="http://www.w3.org/2000/svg" xmlns:xlink="http://www.w3.org/1999/xlink">
<g id="graph0" class="graph" transform="scale(1 1) rotate(0) translate(4 2134.95)">
<title>perl6&#45;type&#45;graph</title>
<polygon fill="white" stroke="transparent" points="-4,4 -4,-2134.95 1851.86,-2134.95 1851.86,4 -4,4"/>
<!-- Metamodel::BoolificationProtocol -->
<g id="node1" class="node">
<title>Metamodel::BoolificationProtocol</title>
<g id="a_node1"><a xlink:href="/type/Metamodel::BoolificationProtocol" xlink:title="Metamodel::BoolificationProtocol">
<ellipse fill="none" stroke="#6666ff" cx="528.8" cy="-929.64" rx="157.07" ry="18"/>
<text text-anchor="middle" x="528.8" y="-925.94" font-family="FreeSans" font-size="14.00" fill="#6666ff">Metamodel::BoolificationProtocol</text>
</a>
</g>
</g>
<!-- Mu -->
<g id="node2" class="node">
<title>Mu</title>
<g id="a_node2"><a xlink:href="/type/Mu" xlink:title="Mu">
<ellipse fill="none" stroke="#000000" cx="1820.86" cy="-928.26" rx="27" ry="18"/>
<text text-anchor="middle" x="1820.86" y="-924.56" font-family="FreeSans" font-size="14.00" fill="#000000">Mu</text>
</a>
</g>
</g>
<!-- Any -->
<g id="node3" class="node">
<title>Any</title>
<g id="a_node3"><a xlink:href="/type/Any" xlink:title="Any">
<ellipse fill="none" stroke="#000000" cx="1237.22" cy="-1005.73" rx="28.7" ry="18"/>
<text text-anchor="middle" x="1237.22" y="-1002.03" font-family="FreeSans" font-size="14.00" fill="#000000">Any</text>
</a>
</g>
</g>
<!-- Any&#45;&gt;Mu -->
<g id="edge1" class="edge">
<title>Any&#45;&gt;Mu</title>
<path fill="none" stroke="#000000" d="M1265.37,-1001.99C1361.45,-989.24 1676.44,-947.43 1784.27,-933.12"/>
<polygon fill="#000000" stroke="#000000" points="1784.88,-936.57 1794.33,-931.78 1783.96,-929.63 1784.88,-936.57"/>
</g>
<!-- Metamodel::Naming -->
<g id="node4" class="node">
<title>Metamodel::Naming</title>
<g id="a_node4"><a xlink:href="/type/Metamodel::Naming" xlink:title="Metamodel::Naming">
<ellipse fill="none" stroke="#6666ff" cx="795.51" cy="-937.53" rx="101.28" ry="18"/>
<text text-anchor="middle" x="795.51" y="-933.83" font-family="FreeSans" font-size="14.00" fill="#6666ff">Metamodel::Naming</text>
</a>
</g>
</g>
<!-- Metamodel::Stashing -->
<g id="node5" class="node">
<title>Metamodel::Stashing</title>
<g id="a_node5"><a xlink:href="/type/Metamodel::Stashing" xlink:title="Metamodel::Stashing">
<ellipse fill="none" stroke="#6666ff" cx="1010.91" cy="-937.39" rx="105.88" ry="18"/>
<text text-anchor="middle" x="1010.91" y="-933.69" font-family="FreeSans" font-size="14.00" fill="#6666ff">Metamodel::Stashing</text>
</a>
</g>
</g>
<!-- Metamodel::AttributeContainer -->
<g id="node6" class="node">
<title>Metamodel::AttributeContainer</title>
<g id="a_node6"><a xlink:href="/type/Metamodel::AttributeContainer" xlink:title="Metamodel::AttributeContainer">
<ellipse fill="none" stroke="#6666ff" cx="1108.9" cy="-1722.01" rx="150.27" ry="18"/>
<text text-anchor="middle" x="1108.9" y="-1718.31" font-family="FreeSans" font-size="14.00" fill="#6666ff">Metamodel::AttributeContainer</text>
</a>
</g>
</g>
<!-- Metamodel::MethodContainer -->
<g id="node7" class="node">
<title>Metamodel::MethodContainer</title>
<g id="a_node7"><a xlink:href="/type/Metamodel::MethodContainer" xlink:title="Metamodel::MethodContainer">
<ellipse fill="none" stroke="#6666ff" cx="438.15" cy="-1371.77" rx="143.77" ry="18"/>
<text text-anchor="middle" x="438.15" y="-1368.07" font-family="FreeSans" font-size="14.00" fill="#6666ff">Metamodel::MethodContainer</text>
</a>
</g>
</g>
<!-- Metamodel::MultiMethodContainer -->
<g id="node8" class="node">
<title>Metamodel::MultiMethodContainer</title>
<g id="a_node8"><a xlink:href="/type/Metamodel::MultiMethodContainer" xlink:title="Metamodel::MultiMethodContainer">
<ellipse fill="none" stroke="#6666ff" cx="1360.97" cy="-1363.68" rx="165.97" ry="18"/>
<text text-anchor="middle" x="1360.97" y="-1359.98" font-family="FreeSans" font-size="14.00" fill="#6666ff">Metamodel::MultiMethodContainer</text>
</a>
</g>
</g>
<!-- Metamodel::RoleContainer -->
<g id="node9" class="node">
<title>Metamodel::RoleContainer</title>
<g id="a_node9"><a xlink:href="/type/Metamodel::RoleContainer" xlink:title="Metamodel::RoleContainer">
<ellipse fill="none" stroke="#6666ff" cx="409.91" cy="-1155.86" rx="129.98" ry="18"/>
<text text-anchor="middle" x="409.91" y="-1152.16" font-family="FreeSans" font-size="14.00" fill="#6666ff">Metamodel::RoleContainer</text>
</a>
</g>
</g>
<!-- Metamodel::BaseType -->
<g id="node10" class="node">
<title>Metamodel::BaseType</title>
<g id="a_node10"><a xlink:href="/type/Metamodel::BaseType" xlink:title="Metamodel::BaseType">
<ellipse fill="none" stroke="#6666ff" cx="1483.18" cy="-723.57" rx="109.38" ry="18"/>
<text text-anchor="middle" x="1483.18" y="-719.87" font-family="FreeSans" font-size="14.00" fill="#6666ff">Metamodel::BaseType</text>
</a>
</g>
</g>
<!-- Metamodel::MROBasedMethodDispatch -->
<g id="node11" class="node">
<title>Metamodel::MROBasedMethodDispatch</title>
<g id="a_node11"><a xlink:href="/type/Metamodel::MROBasedMethodDispatch" xlink:title="Metamodel::MROBasedMethodDispatch">
<ellipse fill="none" stroke="#6666ff" cx="610.25" cy="-1266.71" rx="188.47" ry="18"/>
<text text-anchor="middle" x="610.25" y="-1263.01" font-family="FreeSans" font-size="14.00" fill="#6666ff">Metamodel::MROBasedMethodDispatch</text>
</a>
</g>
</g>
<!-- Metamodel::MROBasedTypeChecking -->
<g id="node12" class="node">
<title>Metamodel::MROBasedTypeChecking</title>
<g id="a_node12"><a xlink:href="/type/Metamodel::MROBasedTypeChecking" xlink:title="Metamodel::MROBasedTypeChecking">
<ellipse fill="none" stroke="#6666ff" cx="622.03" cy="-1637.43" rx="178.97" ry="18"/>
<text text-anchor="middle" x="622.03" y="-1633.73" font-family="FreeSans" font-size="14.00" fill="#6666ff">Metamodel::MROBasedTypeChecking</text>
</a>
</g>
</g>
<!-- Metamodel::BUILDPLAN -->
<g id="node13" class="node">
<title>Metamodel::BUILDPLAN</title>
<g id="a_node13"><a xlink:href="/type/Metamodel::BUILDPLAN" xlink:title="Metamodel::BUILDPLAN">
<ellipse fill="none" stroke="#6666ff" cx="1429.89" cy="-1534.57" rx="118.08" ry="18"/>
<text text-anchor="middle" x="1429.89" y="-1530.87" font-family="FreeSans" font-size="14.00" fill="#6666ff">Metamodel::BUILDPLAN</text>
</a>
</g>
</g>
<!-- Metamodel::Mixins -->
<g id="node14" class="node">
<title>Metamodel::Mixins</title>
<g id="a_node14"><a xlink:href="/type/Metamodel::Mixins" xlink:title="Metamodel::Mixins">
<ellipse fill="none" stroke="#6666ff" cx="1281.72" cy="-1607.61" rx="94.78" ry="18"/>
<text text-anchor="middle" x="1281.72" y="-1603.91" font-family="FreeSans" font-size="14.00" fill="#6666ff">Metamodel::Mixins</text>
</a>
</g>
</g>
<!-- Metamodel::EnumHOW -->
<g id="node15" class="node">
<title>Metamodel::EnumHOW</title>
<g id="a_node15"><a xlink:href="/type/Metamodel::EnumHOW" xlink:title="Metamodel::EnumHOW">
<ellipse fill="none" stroke="#000000" cx="1019.79" cy="-1213.35" rx="115.88" ry="18"/>
<text text-anchor="middle" x="1019.79" y="-1209.65" font-family="FreeSans" font-size="14.00" fill="#000000">Metamodel::EnumHOW</text>
</a>
</g>
</g>
<!-- Metamodel::EnumHOW&#45;&gt;Metamodel::BoolificationProtocol -->
<g id="edge15" class="edge">
<title>Metamodel::EnumHOW&#45;&gt;Metamodel::BoolificationProtocol</title>
<path fill="none" stroke="#6666ff" d="M989.45,-1195.82C904.38,-1146.67 663.61,-1007.54 568.33,-952.48"/>
<polygon fill="#6666ff" stroke="#6666ff" points="569.98,-949.39 559.57,-947.42 566.48,-955.45 569.98,-949.39"/>
</g>
<!-- Metamodel::EnumHOW&#45;&gt;Any -->
<g id="edge2" class="edge">
<title>Metamodel::EnumHOW&#45;&gt;Any</title>
<path fill="none" stroke="#000000" d="M1038.71,-1195.29C1078.49,-1157.3 1170.7,-1069.25 1213.99,-1027.91"/>
<polygon fill="#000000" stroke="#000000" points="1216.67,-1030.19 1221.48,-1020.76 1211.83,-1025.13 1216.67,-1030.19"/>
</g>
<!-- Metamodel::EnumHOW&#45;&gt;Metamodel::Naming -->
<g id="edge5" class="edge">
<title>Metamodel::EnumHOW&#45;&gt;Metamodel::Naming</title>
<path fill="none" stroke="#6666ff" d="M1005.08,-1195.26C966.42,-1147.72 861.89,-1019.17 816.74,-963.65"/>
<polygon fill="#6666ff" stroke="#6666ff" points="819.3,-961.25 810.28,-955.7 813.87,-965.66 819.3,-961.25"/>
</g>
<!-- Metamodel::EnumHOW&#45;&gt;Metamodel::Stashing -->
<g id="edge6" class="edge">
<title>Metamodel::EnumHOW&#45;&gt;Metamodel::Stashing</title>
<path fill="none" stroke="#6666ff" d="M1019.21,-1195.25C1017.7,-1148.27 1013.64,-1022.22 1011.82,-965.6"/>
<polygon fill="#6666ff" stroke="#6666ff" points="1015.32,-965.44 1011.5,-955.56 1008.32,-965.67 1015.32,-965.44"/>
</g>
<!-- Metamodel::EnumHOW&#45;&gt;Metamodel::AttributeContainer -->
<g id="edge7" class="edge">
<title>Metamodel::EnumHOW&#45;&gt;Metamodel::AttributeContainer</title>
<path fill="none" stroke="#6666ff" d="M1022.96,-1231.46C1036.28,-1307.47 1087.72,-1601.15 1103.96,-1693.82"/>
<polygon fill="#6666ff" stroke="#6666ff" points="1100.54,-1694.61 1105.72,-1703.86 1107.44,-1693.4 1100.54,-1694.61"/>
</g>
<!-- Metamodel::EnumHOW&#45;&gt;Metamodel::MethodContainer -->
<g id="edge8" class="edge">
<title>Metamodel::EnumHOW&#45;&gt;Metamodel::MethodContainer</title>
<path fill="none" stroke="#6666ff" d="M962.16,-1229.05C854.81,-1258.29 624.58,-1321 508.35,-1352.65"/>
<polygon fill="#6666ff" stroke="#6666ff" points="507.21,-1349.34 498.48,-1355.34 509.05,-1356.09 507.21,-1349.34"/>
</g>
<!-- Metamodel::EnumHOW&#45;&gt;Metamodel::MultiMethodContainer -->
<g id="edge9" class="edge">
<title>Metamodel::EnumHOW&#45;&gt;Metamodel::MultiMethodContainer</title>
<path fill="none" stroke="#6666ff" d="M1058.6,-1230.45C1120.98,-1257.94 1243.49,-1311.92 1311.87,-1342.05"/>
<polygon fill="#6666ff" stroke="#6666ff" points="1310.59,-1345.31 1321.15,-1346.14 1313.41,-1338.9 1310.59,-1345.31"/>
</g>
<!-- Metamodel::EnumHOW&#45;&gt;Metamodel::RoleContainer -->
<g id="edge10" class="edge">
<title>Metamodel::EnumHOW&#45;&gt;Metamodel::RoleContainer</title>
<path fill="none" stroke="#6666ff" d="M920.79,-1204.02C813.38,-1193.9 642,-1177.74 527.74,-1166.97"/>
<polygon fill="#6666ff" stroke="#6666ff" points="527.84,-1163.46 517.56,-1166.01 527.18,-1170.43 527.84,-1163.46"/>
</g>
<!-- Metamodel::EnumHOW&#45;&gt;Metamodel::BaseType -->
<g id="edge11" class="edge">
<title>Metamodel::EnumHOW&#45;&gt;Metamodel::BaseType</title>
<path fill="none" stroke="#6666ff" d="M1035.85,-1195.22C1082.7,-1142.31 1215.97,-991.8 1215.97,-991.8 1215.97,-991.8 1391.53,-815.57 1458.05,-748.8"/>
<polygon fill="#6666ff" stroke="#6666ff" points="1460.66,-751.14 1465.23,-741.59 1455.7,-746.2 1460.66,-751.14"/>
</g>
<!-- Metamodel::EnumHOW&#45;&gt;Metamodel::MROBasedMethodDispatch -->
<g id="edge12" class="edge">
<title>Metamodel::EnumHOW&#45;&gt;Metamodel::MROBasedMethodDispatch</title>
<path fill="none" stroke="#6666ff" d="M930.93,-1224.93C872.76,-1232.51 795.98,-1242.51 732.13,-1250.83"/>
<polygon fill="#6666ff" stroke="#6666ff" points="731.46,-1247.39 722,-1252.15 732.37,-1254.33 731.46,-1247.39"/>
</g>
<!-- Metamodel::EnumHOW&#45;&gt;Metamodel::MROBasedTypeChecking -->
<g id="edge13" class="edge">
<title>Metamodel::EnumHOW&#45;&gt;Metamodel::MROBasedTypeChecking</title>
<path fill="none" stroke="#6666ff" d="M1002.96,-1231.31C940.2,-1298.22 719.73,-1533.27 646.14,-1611.72"/>
<polygon fill="#6666ff" stroke="#6666ff" points="643.38,-1609.55 639.09,-1619.24 648.49,-1614.34 643.38,-1609.55"/>
</g>
<!-- Metamodel::EnumHOW&#45;&gt;Metamodel::BUILDPLAN -->
<g id="edge14" class="edge">
<title>Metamodel::EnumHOW&#45;&gt;Metamodel::BUILDPLAN</title>
<path fill="none" stroke="#6666ff" d="M1040.42,-1231.17C1086.47,-1270.96 1193.64,-1363.56 1193.64,-1363.56 1193.64,-1363.56 1332.4,-1464 1397.23,-1510.93"/>
<polygon fill="#6666ff" stroke="#6666ff" points="1395.34,-1513.89 1405.5,-1516.92 1399.45,-1508.22 1395.34,-1513.89"/>
</g>
<!-- Metamodel::EnumHOW&#45;&gt;Metamodel::Mixins -->
<g id="edge16" class="edge">
<title>Metamodel::EnumHOW&#45;&gt;Metamodel::Mixins</title>
<path fill="none" stroke="#6666ff" d="M1031.73,-1231.32C1073.66,-1294.43 1214.36,-1506.22 1264.11,-1581.1"/>
<polygon fill="#6666ff" stroke="#6666ff" points="1261.26,-1583.14 1269.71,-1589.54 1267.09,-1579.27 1261.26,-1583.14"/>
</g>
<!-- Metamodel::TypePretense -->
<g id="node16" class="node">
<title>Metamodel::TypePretense</title>
<g id="a_node16"><a xlink:href="/type/Metamodel::TypePretense" xlink:title="Metamodel::TypePretense">
<ellipse fill="none" stroke="#6666ff" cx="565.06" cy="-52.62" rx="126.18" ry="18"/>
<text text-anchor="middle" x="565.06" y="-48.92" font-family="FreeSans" font-size="14.00" fill="#6666ff">Metamodel::TypePretense</text>
</a>
</g>
</g>
<!-- Metamodel::RolePunning -->
<g id="node17" class="node">
<title>Metamodel::RolePunning</title>
<g id="a_node17"><a xlink:href="/type/Metamodel::RolePunning" xlink:title="Metamodel::RolePunning">
<ellipse fill="none" stroke="#6666ff" cx="1148.65" cy="-18" rx="122.68" ry="18"/>
<text text-anchor="middle" x="1148.65" y="-14.3" font-family="FreeSans" font-size="14.00" fill="#6666ff">Metamodel::RolePunning</text>
</a>
</g>
</g>
<!-- Metamodel::ParametricRoleGroupHOW -->
<g id="node18" class="node">
<title>Metamodel::ParametricRoleGroupHOW</title>
<g id="a_node18"><a xlink:href="/type/Metamodel::ParametricRoleGroupHOW" xlink:title="Metamodel::ParametricRoleGroupHOW">
<ellipse fill="none" stroke="#000000" cx="905.43" cy="-475.58" rx="184.67" ry="18"/>
<text text-anchor="middle" x="905.43" y="-471.88" font-family="FreeSans" font-size="14.00" fill="#000000">Metamodel::ParametricRoleGroupHOW</text>
</a>
</g>
</g>
<!-- Metamodel::ParametricRoleGroupHOW&#45;&gt;Metamodel::BoolificationProtocol -->
<g id="edge21" class="edge">
<title>Metamodel::ParametricRoleGroupHOW&#45;&gt;Metamodel::BoolificationProtocol</title>
<path fill="none" stroke="#6666ff" d="M890.43,-493.66C831.97,-564.14 619.19,-820.67 550.41,-903.59"/>
<polygon fill="#6666ff" stroke="#6666ff" points="547.53,-901.58 543.84,-911.51 552.92,-906.05 547.53,-901.58"/>
</g>
<!-- Metamodel::ParametricRoleGroupHOW&#45;&gt;Any -->
<g id="edge3" class="edge">
<title>Metamodel::ParametricRoleGroupHOW&#45;&gt;Any</title>
<path fill="none" stroke="#000000" d="M916.85,-493.82C966.48,-573.13 1163.5,-887.94 1221.24,-980.2"/>
<polygon fill="#000000" stroke="#000000" points="1218.41,-982.27 1226.69,-988.89 1224.35,-978.56 1218.41,-982.27"/>
</g>
<!-- Metamodel::ParametricRoleGroupHOW&#45;&gt;Metamodel::Naming -->
<g id="edge17" class="edge">
<title>Metamodel::ParametricRoleGroupHOW&#45;&gt;Metamodel::Naming</title>
<path fill="none" stroke="#6666ff" d="M901.12,-493.69C884.24,-564.63 822.54,-823.92 802.12,-909.74"/>
<polygon fill="#6666ff" stroke="#6666ff" points="798.7,-909.01 799.79,-919.55 805.51,-910.63 798.7,-909.01"/>
</g>
<!-- Metamodel::ParametricRoleGroupHOW&#45;&gt;Metamodel::Stashing -->
<g id="edge18" class="edge">
<title>Metamodel::ParametricRoleGroupHOW&#45;&gt;Metamodel::Stashing</title>
<path fill="none" stroke="#6666ff" d="M909.56,-493.68C925.74,-564.52 984.83,-823.23 1004.5,-909.32"/>
<polygon fill="#6666ff" stroke="#6666ff" points="1001.11,-910.19 1006.75,-919.16 1007.93,-908.63 1001.11,-910.19"/>
</g>
<!-- Metamodel::ParametricRoleGroupHOW&#45;&gt;Metamodel::TypePretense -->
<g id="edge19" class="edge">
<title>Metamodel::ParametricRoleGroupHOW&#45;&gt;Metamodel::TypePretense</title>
<path fill="none" stroke="#6666ff" d="M890.8,-457.4C836.91,-390.43 649.25,-157.24 586.03,-78.68"/>
<polygon fill="#6666ff" stroke="#6666ff" points="588.63,-76.32 579.63,-70.72 583.17,-80.71 588.63,-76.32"/>
</g>
<!-- Metamodel::ParametricRoleGroupHOW&#45;&gt;Metamodel::RolePunning -->
<g id="edge20" class="edge">
<title>Metamodel::ParametricRoleGroupHOW&#45;&gt;Metamodel::RolePunning</title>
<path fill="none" stroke="#6666ff" d="M915.11,-457.36C952.71,-386.61 1089.17,-129.9 1134.15,-45.27"/>
<polygon fill="#6666ff" stroke="#6666ff" points="1137.33,-46.74 1138.94,-36.27 1131.15,-43.46 1137.33,-46.74"/>
</g>
<!-- Metamodel::Documenting -->
<g id="node19" class="node">
<title>Metamodel::Documenting</title>
<g id="a_node19"><a xlink:href="/type/Metamodel::Documenting" xlink:title="Metamodel::Documenting">
<ellipse fill="none" stroke="#6666ff" cx="244.8" cy="-1734.84" rx="126.98" ry="18"/>
<text text-anchor="middle" x="244.8" y="-1731.14" font-family="FreeSans" font-size="14.00" fill="#6666ff">Metamodel::Documenting</text>
</a>
</g>
</g>
<!-- Metamodel::Versioning -->
<g id="node20" class="node">
<title>Metamodel::Versioning</title>
<g id="a_node20"><a xlink:href="/type/Metamodel::Versioning" xlink:title="Metamodel::Versioning">
<ellipse fill="none" stroke="#6666ff" cx="528.85" cy="-2041.84" rx="114.28" ry="18"/>
<text text-anchor="middle" x="528.85" y="-2038.14" font-family="FreeSans" font-size="14.00" fill="#6666ff">Metamodel::Versioning</text>
</a>
</g>
</g>
<!-- Metamodel::Finalization -->
<g id="node21" class="node">
<title>Metamodel::Finalization</title>
<g id="a_node21"><a xlink:href="/type/Metamodel::Finalization" xlink:title="Metamodel::Finalization">
<ellipse fill="none" stroke="#6666ff" cx="371.63" cy="-1919.69" rx="116.98" ry="18"/>
<text text-anchor="middle" x="371.63" y="-1915.99" font-family="FreeSans" font-size="14.00" fill="#6666ff">Metamodel::Finalization</text>
</a>
</g>
</g>
<!-- Metamodel::PrivateMethodContainer -->
<g id="node22" class="node">
<title>Metamodel::PrivateMethodContainer</title>
<g id="a_node22"><a xlink:href="/type/Metamodel::PrivateMethodContainer" xlink:title="Metamodel::PrivateMethodContainer">
<ellipse fill="none" stroke="#6666ff" cx="174.83" cy="-1496.51" rx="174.67" ry="18"/>
<text text-anchor="middle" x="174.83" y="-1492.81" font-family="FreeSans" font-size="14.00" fill="#6666ff">Metamodel::PrivateMethodContainer</text>
</a>
</g>
</g>
<!-- Metamodel::MultipleInheritance -->
<g id="node23" class="node">
<title>Metamodel::MultipleInheritance</title>
<g id="a_node23"><a xlink:href="/type/Metamodel::MultipleInheritance" xlink:title="Metamodel::MultipleInheritance">
<ellipse fill="none" stroke="#6666ff" cx="964.67" cy="-2112.95" rx="153.27" ry="18"/>
<text text-anchor="middle" x="964.67" y="-2109.25" font-family="FreeSans" font-size="14.00" fill="#6666ff">Metamodel::MultipleInheritance</text>
</a>
</g>
</g>
<!-- Metamodel::DefaultParent -->
<g id="node24" class="node">
<title>Metamodel::DefaultParent</title>
<g id="a_node24"><a xlink:href="/type/Metamodel::DefaultParent" xlink:title="Metamodel::DefaultParent">
<ellipse fill="none" stroke="#6666ff" cx="1155.56" cy="-2062.44" rx="128.08" ry="18"/>
<text text-anchor="middle" x="1155.56" y="-2058.74" font-family="FreeSans" font-size="14.00" fill="#6666ff">Metamodel::DefaultParent</text>
</a>
</g>
</g>
<!-- Metamodel::C3MRO -->
<g id="node25" class="node">
<title>Metamodel::C3MRO</title>
<g id="a_node25"><a xlink:href="/type/Metamodel::C3MRO" xlink:title="Metamodel::C3MRO">
<ellipse fill="none" stroke="#6666ff" cx="703.06" cy="-2101.02" rx="100.18" ry="18"/>
<text text-anchor="middle" x="703.06" y="-2097.32" font-family="FreeSans" font-size="14.00" fill="#6666ff">Metamodel::C3MRO</text>
</a>
</g>
</g>
<!-- Metamodel::Trusting -->
<g id="node26" class="node">
<title>Metamodel::Trusting</title>
<g id="a_node26"><a xlink:href="/type/Metamodel::Trusting" xlink:title="Metamodel::Trusting">
<ellipse fill="none" stroke="#6666ff" cx="1351.1" cy="-1920.27" rx="102.88" ry="18"/>
<text text-anchor="middle" x="1351.1" y="-1916.57" font-family="FreeSans" font-size="14.00" fill="#6666ff">Metamodel::Trusting</text>
</a>
</g>
</g>
<!-- Metamodel::ClassHOW -->
<g id="node27" class="node">
<title>Metamodel::ClassHOW</title>
<g id="a_node27"><a xlink:href="/type/Metamodel::ClassHOW" xlink:title="Metamodel::ClassHOW">
<ellipse fill="none" stroke="#000000" cx="841.21" cy="-1532.06" rx="113.18" ry="18"/>
<text text-anchor="middle" x="841.21" y="-1528.36" font-family="FreeSans" font-size="14.00" fill="#000000">Metamodel::ClassHOW</text>
</a>
</g>
</g>
<!-- Metamodel::ClassHOW&#45;&gt;Metamodel::BoolificationProtocol -->
<g id="edge40" class="edge">
<title>Metamodel::ClassHOW&#45;&gt;Metamodel::BoolificationProtocol</title>
<path fill="none" stroke="#6666ff" d="M838.4,-1513.83C829.16,-1453.88 800.33,-1266.75 800.33,-1266.75 800.33,-1266.75 613.65,-1034.98 549.87,-955.8"/>
<polygon fill="#6666ff" stroke="#6666ff" points="552.4,-953.36 543.4,-947.77 546.95,-957.75 552.4,-953.36"/>
</g>
<!-- Metamodel::ClassHOW&#45;&gt;Any -->
<g id="edge4" class="edge">
<title>Metamodel::ClassHOW&#45;&gt;Any</title>
<path fill="none" stroke="#000000" d="M857.96,-1514.02C920.55,-1446.63 1137.08,-1213.5 1137.08,-1213.5 1137.08,-1213.5 1197.33,-1088.48 1224.37,-1032.4"/>
<polygon fill="#000000" stroke="#000000" points="1227.67,-1033.61 1228.85,-1023.08 1221.36,-1030.57 1227.67,-1033.61"/>
</g>
<!-- Metamodel::ClassHOW&#45;&gt;Metamodel::Naming -->
<g id="edge22" class="edge">
<title>Metamodel::ClassHOW&#45;&gt;Metamodel::Naming</title>
<path fill="none" stroke="#6666ff" d="M839.82,-1513.95C833.29,-1428.99 805.68,-1069.86 797.69,-965.86"/>
<polygon fill="#6666ff" stroke="#6666ff" points="801.17,-965.5 796.91,-955.8 794.19,-966.04 801.17,-965.5"/>
</g>
<!-- Metamodel::ClassHOW&#45;&gt;Metamodel::Stashing -->
<g id="edge25" class="edge">
<title>Metamodel::ClassHOW&#45;&gt;Metamodel::Stashing</title>
<path fill="none" stroke="#6666ff" d="M844.68,-1514.01C857.65,-1446.55 902.51,-1213.21 902.51,-1213.21 902.51,-1213.21 972.62,-1034.83 1000.07,-964.97"/>
<polygon fill="#6666ff" stroke="#6666ff" points="1003.4,-966.07 1003.8,-955.49 996.88,-963.51 1003.4,-966.07"/>
</g>
<!-- Metamodel::ClassHOW&#45;&gt;Metamodel::AttributeContainer -->
<g id="edge26" class="edge">
<title>Metamodel::ClassHOW&#45;&gt;Metamodel::AttributeContainer</title>
<path fill="none" stroke="#6666ff" d="M866.39,-1549.93C914.82,-1584.3 1020.94,-1659.6 1075.32,-1698.18"/>
<polygon fill="#6666ff" stroke="#6666ff" points="1073.4,-1701.12 1083.59,-1704.05 1077.46,-1695.41 1073.4,-1701.12"/>
</g>
<!-- Metamodel::ClassHOW&#45;&gt;Metamodel::MethodContainer -->
<g id="edge28" class="edge">
<title>Metamodel::ClassHOW&#45;&gt;Metamodel::MethodContainer</title>
<path fill="none" stroke="#6666ff" d="M798.84,-1515.21C724.74,-1485.75 571.84,-1424.94 490.96,-1392.78"/>
<polygon fill="#6666ff" stroke="#6666ff" points="492.06,-1389.45 481.47,-1389 489.47,-1395.95 492.06,-1389.45"/>
</g>
<!-- Metamodel::ClassHOW&#45;&gt;Metamodel::MultiMethodContainer -->
<g id="edge30" class="edge">
<title>Metamodel::ClassHOW&#45;&gt;Metamodel::MultiMethodContainer</title>
<path fill="none" stroke="#6666ff" d="M891.52,-1515.77C986.91,-1484.86 1193.84,-1417.83 1298.16,-1384.03"/>
<polygon fill="#6666ff" stroke="#6666ff" points="1299.5,-1387.28 1307.93,-1380.87 1297.34,-1380.62 1299.5,-1387.28"/>
</g>
<!-- Metamodel::ClassHOW&#45;&gt;Metamodel::RoleContainer -->
<g id="edge31" class="edge">
<title>Metamodel::ClassHOW&#45;&gt;Metamodel::RoleContainer</title>
<path fill="none" stroke="#6666ff" d="M813.26,-1514.44C719.22,-1455.17 420.17,-1266.67 420.17,-1266.67 420.17,-1266.67 415.56,-1216.97 412.53,-1184.14"/>
<polygon fill="#6666ff" stroke="#6666ff" points="416.01,-1183.79 411.6,-1174.16 409.04,-1184.44 416.01,-1183.79"/>
</g>
<!-- Metamodel::ClassHOW&#45;&gt;Metamodel::MROBasedMethodDispatch -->
<g id="edge35" class="edge">
<title>Metamodel::ClassHOW&#45;&gt;Metamodel::MROBasedMethodDispatch</title>
<path fill="none" stroke="#6666ff" d="M825.34,-1513.82C785.11,-1467.6 679.06,-1345.77 632.6,-1292.38"/>
<polygon fill="#6666ff" stroke="#6666ff" points="635.13,-1289.97 625.93,-1284.72 629.85,-1294.56 635.13,-1289.97"/>
</g>
<!-- Metamodel::ClassHOW&#45;&gt;Metamodel::MROBasedTypeChecking -->
<g id="edge36" class="edge">
<title>Metamodel::ClassHOW&#45;&gt;Metamodel::MROBasedTypeChecking</title>
<path fill="none" stroke="#6666ff" d="M805.51,-1549.23C768.03,-1567.24 708.98,-1595.63 668.03,-1615.32"/>
<polygon fill="#6666ff" stroke="#6666ff" points="666.31,-1612.26 658.81,-1619.75 669.34,-1618.57 666.31,-1612.26"/>
</g>
<!-- Metamodel::ClassHOW&#45;&gt;Metamodel::BUILDPLAN -->
<g id="edge38" class="edge">
<title>Metamodel::ClassHOW&#45;&gt;Metamodel::BUILDPLAN</title>
<path fill="none" stroke="#6666ff" d="M954.37,-1532.55C1053.59,-1532.97 1197.78,-1533.58 1301.34,-1534.03"/>
<polygon fill="#6666ff" stroke="#6666ff" points="1301.54,-1537.53 1311.55,-1534.07 1301.57,-1530.53 1301.54,-1537.53"/>
</g>
<!-- Metamodel::ClassHOW&#45;&gt;Metamodel::Mixins -->
<g id="edge39" class="edge">
<title>Metamodel::ClassHOW&#45;&gt;Metamodel::Mixins</title>
<path fill="none" stroke="#6666ff" d="M918.19,-1545.27C997.42,-1558.85 1120.35,-1579.93 1200.94,-1593.75"/>
<polygon fill="#6666ff" stroke="#6666ff" points="1200.59,-1597.25 1211.04,-1595.49 1201.78,-1590.35 1200.59,-1597.25"/>
</g>
<!-- Metamodel::ClassHOW&#45;&gt;Metamodel::Documenting -->
<g id="edge23" class="edge">
<title>Metamodel::ClassHOW&#45;&gt;Metamodel::Documenting</title>
<path fill="none" stroke="#6666ff" d="M782.69,-1547.5C671.72,-1576.76 441.69,-1637.42 441.69,-1637.42 441.69,-1637.42 347.04,-1684.25 288.99,-1712.98"/>
<polygon fill="#6666ff" stroke="#6666ff" points="287.41,-1709.85 280,-1717.42 290.52,-1716.12 287.41,-1709.85"/>
</g>
<!-- Metamodel::ClassHOW&#45;&gt;Metamodel::Versioning -->
<g id="edge24" class="edge">
<title>Metamodel::ClassHOW&#45;&gt;Metamodel::Versioning</title>
<path fill="none" stroke="#6666ff" d="M834.44,-1550.42C823.31,-1580.62 802.36,-1637.45 802.36,-1637.45 802.36,-1637.45 607.55,-1925.49 546.75,-2015.38"/>
<polygon fill="#6666ff" stroke="#6666ff" points="543.84,-2013.44 541.13,-2023.68 549.64,-2017.36 543.84,-2013.44"/>
</g>
<!-- Metamodel::ClassHOW&#45;&gt;Metamodel::Finalization -->
<g id="edge27" class="edge">
<title>Metamodel::ClassHOW&#45;&gt;Metamodel::Finalization</title>
<path fill="none" stroke="#6666ff" d="M834.44,-1550.42C823.31,-1580.62 802.36,-1637.45 802.36,-1637.45 802.36,-1637.45 510.15,-1828.92 407.09,-1896.45"/>
<polygon fill="#6666ff" stroke="#6666ff" points="405.02,-1893.62 398.58,-1902.03 408.86,-1899.48 405.02,-1893.62"/>
</g>
<!-- Metamodel::ClassHOW&#45;&gt;Metamodel::PrivateMethodContainer -->
<g id="edge29" class="edge">
<title>Metamodel::ClassHOW&#45;&gt;Metamodel::PrivateMethodContainer</title>
<path fill="none" stroke="#6666ff" d="M733.78,-1526.33C627.52,-1520.66 463.43,-1511.91 340.48,-1505.35"/>
<polygon fill="#6666ff" stroke="#6666ff" points="340.39,-1501.84 330.21,-1504.8 340.01,-1508.83 340.39,-1501.84"/>
</g>
<!-- Metamodel::ClassHOW&#45;&gt;Metamodel::MultipleInheritance -->
<g id="edge32" class="edge">
<title>Metamodel::ClassHOW&#45;&gt;Metamodel::MultipleInheritance</title>
<path fill="none" stroke="#6666ff" d="M845.04,-1550.09C862.79,-1633.59 937.08,-1983.15 958.73,-2084.99"/>
<polygon fill="#6666ff" stroke="#6666ff" points="955.32,-2085.8 960.82,-2094.85 962.17,-2084.34 955.32,-2085.8"/>
</g>
<!-- Metamodel::ClassHOW&#45;&gt;Metamodel::DefaultParent -->
<g id="edge33" class="edge">
<title>Metamodel::ClassHOW&#45;&gt;Metamodel::DefaultParent</title>
<path fill="none" stroke="#6666ff" d="M851.85,-1550.01C898.4,-1628.56 1084.29,-1942.2 1139.82,-2035.89"/>
<polygon fill="#6666ff" stroke="#6666ff" points="1136.81,-2037.68 1144.92,-2044.5 1142.83,-2034.11 1136.81,-2037.68"/>
</g>
<!-- Metamodel::ClassHOW&#45;&gt;Metamodel::C3MRO -->
<g id="edge34" class="edge">
<title>Metamodel::ClassHOW&#45;&gt;Metamodel::C3MRO</title>
<path fill="none" stroke="#6666ff" d="M836.77,-1550.35C816.7,-1633.03 734.34,-1972.2 709.91,-2072.78"/>
<polygon fill="#6666ff" stroke="#6666ff" points="706.44,-2072.26 707.48,-2082.8 713.24,-2073.91 706.44,-2072.26"/>
</g>
<!-- Metamodel::ClassHOW&#45;&gt;Metamodel::Trusting -->
<g id="edge37" class="edge">
<title>Metamodel::ClassHOW&#45;&gt;Metamodel::Trusting</title>
<path fill="none" stroke="#6666ff" d="M852.33,-1550.27C881.35,-1597.8 957.16,-1721.96 957.16,-1721.96 957.16,-1721.96 1205.85,-1847.15 1308.04,-1898.59"/>
<polygon fill="#6666ff" stroke="#6666ff" points="1306.67,-1901.82 1317.18,-1903.19 1309.82,-1895.57 1306.67,-1901.82"/>
</g>
</g>
</svg>
