<?xml version="1.0" encoding="UTF-8" standalone="no"?>
<!DOCTYPE svg PUBLIC "-//W3C//DTD SVG 1.1//EN"
 "http://www.w3.org/Graphics/SVG/1.1/DTD/svg11.dtd">
<!-- Generated by graphviz version 2.42.3 (0)
 -->
<!-- Title: perl6&#45;type&#45;graph Pages: 1 -->
<svg width="173pt" height="332pt"
 viewBox="0.00 0.00 172.84 332.00" xmlns="http://www.w3.org/2000/svg" xmlns:xlink="http://www.w3.org/1999/xlink">
<g id="graph0" class="graph" transform="scale(1 1) rotate(0) translate(4 328)">
<title>perl6&#45;type&#45;graph</title>
<polygon fill="white" stroke="transparent" points="-4,4 -4,-328 168.84,-328 168.84,4 -4,4"/>
<!-- CX::Succeed -->
<g id="node1" class="node">
<title>CX::Succeed</title>
<g id="a_node1"><a xlink:href="/type/CX::Succeed" xlink:title="CX::Succeed">
<ellipse fill="none" stroke="#000000" cx="67.59" cy="-18" rx="67.69" ry="18"/>
<text text-anchor="middle" x="67.59" y="-14.3" font-family="FreeSans" font-size="14.00" fill="#000000">CX::Succeed</text>
</a>
</g>
</g>
<!-- Exception -->
<g id="node4" class="node">
<title>Exception</title>
<g id="a_node4"><a xlink:href="/type/Exception" xlink:title="Exception">
<ellipse fill="none" stroke="#000000" cx="67.59" cy="-162" rx="55.49" ry="18"/>
<text text-anchor="middle" x="67.59" y="-158.3" font-family="FreeSans" font-size="14.00" fill="#000000">Exception</text>
</a>
</g>
</g>
<!-- CX::Succeed&#45;&gt;Exception -->
<g id="edge1" class="edge">
<title>CX::Succeed&#45;&gt;Exception</title>
<path fill="none" stroke="#000000" d="M60.51,-36.06C54.08,-51.55 45.59,-72 45.59,-72 45.59,-72 45.59,-108 45.59,-108 45.59,-108 51.09,-121.24 56.59,-134.48"/>
<polygon fill="#000000" stroke="#000000" points="53.45,-136.04 60.51,-143.94 59.91,-133.36 53.45,-136.04"/>
</g>
<!-- X::Control -->
<g id="node5" class="node">
<title>X::Control</title>
<g id="a_node5"><a xlink:href="/type/X::Control" xlink:title="X::Control">
<ellipse fill="none" stroke="#6666ff" cx="109.59" cy="-90" rx="55.49" ry="18"/>
<text text-anchor="middle" x="109.59" y="-86.3" font-family="FreeSans" font-size="14.00" fill="#6666ff">X::Control</text>
</a>
</g>
</g>
<!-- CX::Succeed&#45;&gt;X::Control -->
<g id="edge5" class="edge">
<title>CX::Succeed&#45;&gt;X::Control</title>
<path fill="none" stroke="#6666ff" d="M77.76,-35.95C82.71,-44.2 88.77,-54.3 94.27,-63.46"/>
<polygon fill="#6666ff" stroke="#6666ff" points="91.37,-65.44 99.52,-72.21 97.38,-61.84 91.37,-65.44"/>
</g>
<!-- Mu -->
<g id="node2" class="node">
<title>Mu</title>
<g id="a_node2"><a xlink:href="/type/Mu" xlink:title="Mu">
<ellipse fill="none" stroke="#000000" cx="67.59" cy="-306" rx="27" ry="18"/>
<text text-anchor="middle" x="67.59" y="-302.3" font-family="FreeSans" font-size="14.00" fill="#000000">Mu</text>
</a>
</g>
</g>
<!-- Any -->
<g id="node3" class="node">
<title>Any</title>
<g id="a_node3"><a xlink:href="/type/Any" xlink:title="Any">
<ellipse fill="none" stroke="#000000" cx="67.59" cy="-234" rx="28.7" ry="18"/>
<text text-anchor="middle" x="67.59" y="-230.3" font-family="FreeSans" font-size="14.00" fill="#000000">Any</text>
</a>
</g>
</g>
<!-- Any&#45;&gt;Mu -->
<g id="edge2" class="edge">
<title>Any&#45;&gt;Mu</title>
<path fill="none" stroke="#000000" d="M67.59,-252.3C67.59,-260.02 67.59,-269.29 67.59,-277.89"/>
<polygon fill="#000000" stroke="#000000" points="64.09,-277.9 67.59,-287.9 71.09,-277.9 64.09,-277.9"/>
</g>
<!-- Exception&#45;&gt;Any -->
<g id="edge3" class="edge">
<title>Exception&#45;&gt;Any</title>
<path fill="none" stroke="#000000" d="M67.59,-180.3C67.59,-188.02 67.59,-197.29 67.59,-205.89"/>
<polygon fill="#000000" stroke="#000000" points="64.09,-205.9 67.59,-215.9 71.09,-205.9 64.09,-205.9"/>
</g>
<!-- X::Control&#45;&gt;Exception -->
<g id="edge4" class="edge">
<title>X::Control&#45;&gt;Exception</title>
<path fill="none" stroke="#000000" d="M99.43,-107.95C94.47,-116.2 88.41,-126.3 82.92,-135.46"/>
<polygon fill="#000000" stroke="#000000" points="79.81,-133.84 77.67,-144.21 85.81,-137.44 79.81,-133.84"/>
</g>
</g>
</svg>
